<?xml version="1.0" encoding="UTF-8" standalone="no"?>
<!DOCTYPE svg PUBLIC "-//W3C//DTD SVG 1.1//EN"
 "http://www.w3.org/Graphics/SVG/1.1/DTD/svg11.dtd">
<!-- Generated by graphviz version 2.43.0 (0)
 -->
<!-- Title: Acts::Experimental::TryAllNavigator::Options Pages: 1 -->
<svg width="1297pt" height="322pt"
 viewBox="0.00 0.00 1297.00 322.00" xmlns="http://www.w3.org/2000/svg" xmlns:xlink="http://www.w3.org/1999/xlink">
<g id="graph0" class="graph" transform="scale(1 1) rotate(0) translate(4 318)">
<title>Acts::Experimental::TryAllNavigator::Options</title>
<!-- Node1 -->
<g id="Node000001" class="node">
<title>Node1</title>
<g id="a_Node000001"><a xlink:title="Options for this Navigator.">
<polygon fill="#999999" stroke="#666666" points="1289,-100 1148,-100 1148,-70 1289,-70 1289,-100"/>
<text text-anchor="start" x="1156" y="-88" font-family="Helvetica,sans-Serif" font-size="10.00">Acts::Experimental</text>
<text text-anchor="middle" x="1218.5" y="-77" font-family="Helvetica,sans-Serif" font-size="10.00">::TryAllNavigator::Options</text>
</a>
</g>
</g>
<!-- Node2 -->
<g id="Node000002" class="node">
<title>Node2</title>
<g id="a_Node000002"><a xlink:href="struct_acts_1_1_navigator_plain_options.html" target="_top" xlink:title="Plain navigator options carrying geometry context and surfaces.">
<polygon fill="white" stroke="#666666" points="1111,-94.5 958,-94.5 958,-75.5 1111,-75.5 1111,-94.5"/>
<text text-anchor="middle" x="1034.5" y="-82.5" font-family="Helvetica,sans-Serif" font-size="10.00">Acts::NavigatorPlainOptions</text>
</a>
</g>
</g>
<!-- Node2&#45;&gt;Node1 -->
<g id="edge1_Node000001_Node000002" class="edge">
<title>Node2&#45;&gt;Node1</title>
<g id="a_edge1_Node000001_Node000002"><a xlink:title=" ">
<path fill="none" stroke="#63b8ff" d="M1121.18,-85C1130.16,-85 1139.2,-85 1147.96,-85"/>
<polygon fill="#63b8ff" stroke="#63b8ff" points="1121.1,-81.5 1111.1,-85 1121.1,-88.5 1121.1,-81.5"/>
</a>
</g>
</g>
<!-- Node3 -->
<g id="Node000003" class="node">
<title>Node3</title>
<g id="a_Node000003"><a xlink:href="class_acts_1_1_surface.html" target="_top" xlink:title="Abstract Base Class for tracking surfaces.">
<polygon fill="white" stroke="#666666" points="773,-220.5 693,-220.5 693,-201.5 773,-201.5 773,-220.5"/>
<text text-anchor="middle" x="733" y="-208.5" font-family="Helvetica,sans-Serif" font-size="10.00">Acts::Surface</text>
</a>
</g>
</g>
<!-- Node3&#45;&gt;Node2 -->
<g id="edge2_Node000002_Node000003" class="edge">
<title>Node3&#45;&gt;Node2</title>
<g id="a_edge2_Node000002_Node000003"><a xlink:title=" ">
<path fill="none" stroke="#9a32cd" stroke-dasharray="5,2" d="M766.54,-197.31C827.67,-171.59 958.21,-116.67 1010.83,-94.54"/>
<polygon fill="#9a32cd" stroke="#9a32cd" points="764.86,-194.22 757,-201.32 767.58,-200.67 764.86,-194.22"/>
</a>
</g>
<text text-anchor="start" x="855.5" y="-187" font-family="Helvetica,sans-Serif" font-size="10.00" fill="grey">startSurface</text>
<text text-anchor="start" x="855.5" y="-172" font-family="Helvetica,sans-Serif" font-size="10.00" fill="grey">targetSurface</text>
</g>
<!-- Node4 -->
<g id="Node000004" class="node">
<title>Node4</title>
<g id="a_Node000004"><a xlink:href="class_acts_1_1_geometry_object.html" target="_top" xlink:title="Base class to provide GeometryIdentifier interface:">
<polygon fill="white" stroke="#666666" points="428.5,-306.5 304.5,-306.5 304.5,-287.5 428.5,-287.5 428.5,-306.5"/>
<text text-anchor="middle" x="366.5" y="-294.5" font-family="Helvetica,sans-Serif" font-size="10.00">Acts::GeometryObject</text>
</a>
</g>
</g>
<!-- Node4&#45;&gt;Node3 -->
<g id="edge3_Node000003_Node000004" class="edge">
<title>Node4&#45;&gt;Node3</title>
<g id="a_edge3_Node000003_Node000004"><a xlink:title=" ">
<path fill="none" stroke="#63b8ff" d="M438.75,-288.32C491.81,-280.93 565.7,-268.67 629,-251 658.19,-242.85 690.59,-229.52 711.11,-220.51"/>
<polygon fill="#63b8ff" stroke="#63b8ff" points="438.19,-284.86 428.76,-289.69 439.14,-291.8 438.19,-284.86"/>
</a>
</g>
</g>
<!-- Node5 -->
<g id="Node000005" class="node">
<title>Node5</title>
<g id="a_Node000005"><a xlink:href="class_acts_1_1_geometry_identifier.html" target="_top" xlink:title="Identifier for geometry nodes within the geometry hierarchy.">
<polygon fill="white" stroke="#666666" points="136,-306.5 0,-306.5 0,-287.5 136,-287.5 136,-306.5"/>
<text text-anchor="middle" x="68" y="-294.5" font-family="Helvetica,sans-Serif" font-size="10.00">Acts::GeometryIdentifier</text>
</a>
</g>
</g>
<!-- Node5&#45;&gt;Node4 -->
<g id="edge4_Node000004_Node000005" class="edge">
<title>Node5&#45;&gt;Node4</title>
<g id="a_edge4_Node000004_Node000005"><a xlink:title=" ">
<path fill="none" stroke="#9a32cd" stroke-dasharray="5,2" d="M146.55,-297C195.68,-297 258.35,-297 304.04,-297"/>
<polygon fill="#9a32cd" stroke="#9a32cd" points="146.28,-293.5 136.28,-297 146.28,-300.5 146.28,-293.5"/>
</a>
</g>
<text text-anchor="start" x="177" y="-302.5" font-family="Helvetica,sans-Serif" font-size="10.00" fill="grey">m_geometryId</text>
</g>
<!-- Node6 -->
<g id="Node000006" class="node">
<title>Node6</title>
<g id="a_Node000006"><a xlink:title=" ">
<polygon fill="white" stroke="#bfbfbf" points="430.5,-269 302.5,-269 302.5,-239 430.5,-239 430.5,-269"/>
<text text-anchor="start" x="310.5" y="-257" font-family="Helvetica,sans-Serif" font-size="10.00">std::enable_shared</text>
<text text-anchor="middle" x="366.5" y="-246" font-family="Helvetica,sans-Serif" font-size="10.00">_from_this&lt; Surface &gt;</text>
</a>
</g>
</g>
<!-- Node6&#45;&gt;Node3 -->
<g id="edge5_Node000003_Node000006" class="edge">
<title>Node6&#45;&gt;Node3</title>
<g id="a_edge5_Node000003_Node000006"><a xlink:title=" ">
<path fill="none" stroke="#63b8ff" d="M440.74,-247.99C493.25,-243.37 565.61,-236.37 629,-228 650.2,-225.2 673.74,-221.37 692.96,-218.05"/>
<polygon fill="#63b8ff" stroke="#63b8ff" points="440.17,-244.53 430.51,-248.88 440.77,-251.5 440.17,-244.53"/>
</a>
</g>
</g>
<!-- Node7 -->
<g id="Node000007" class="node">
<title>Node7</title>
<g id="a_Node000007"><a xlink:title=" ">
<polygon fill="white" stroke="#666666" points="443,-220.5 290,-220.5 290,-179.5 443,-179.5 443,-220.5"/>
<text text-anchor="start" x="298" y="-208.5" font-family="Helvetica,sans-Serif" font-size="10.00">std::array&lt; std::string</text>
<text text-anchor="start" x="298" y="-197.5" font-family="Helvetica,sans-Serif" font-size="10.00">_view, Surface::SurfaceType</text>
<text text-anchor="middle" x="366.5" y="-186.5" font-family="Helvetica,sans-Serif" font-size="10.00">::Other+1 &gt;</text>
</a>
</g>
</g>
<!-- Node7&#45;&gt;Node3 -->
<g id="edge6_Node000003_Node000007" class="edge">
<title>Node7&#45;&gt;Node3</title>
<g id="a_edge6_Node000003_Node000007"><a xlink:title=" ">
<path fill="none" stroke="#9a32cd" stroke-dasharray="5,2" d="M453.48,-202.59C529.06,-204.88 635.64,-208.09 692.55,-209.81"/>
<polygon fill="#9a32cd" stroke="#9a32cd" points="453.13,-199.08 443.02,-202.28 452.91,-206.08 453.13,-199.08"/>
</a>
</g>
<text text-anchor="start" x="493" y="-212.5" font-family="Helvetica,sans-Serif" font-size="10.00" fill="grey">s_surfaceTypeNames</text>
</g>
<!-- Node8 -->
<g id="Node000008" class="node">
<title>Node8</title>
<g id="a_Node000008"><a xlink:title=" ">
<polygon fill="white" stroke="#666666" points="114,-209.5 22,-209.5 22,-190.5 114,-190.5 114,-209.5"/>
<text text-anchor="middle" x="68" y="-197.5" font-family="Helvetica,sans-Serif" font-size="10.00">std::array&lt; T &gt;</text>
</a>
</g>
</g>
<!-- Node8&#45;&gt;Node7 -->
<g id="edge7_Node000007_Node000008" class="edge">
<title>Node8&#45;&gt;Node7</title>
<g id="a_edge7_Node000007_Node000008"><a xlink:title=" ">
<path fill="none" stroke="orange" stroke-dasharray="5,2" d="M124.24,-200C170.86,-200 238.07,-200 289.72,-200"/>
<polygon fill="orange" stroke="orange" points="124.03,-196.5 114.03,-200 124.03,-203.5 124.03,-196.5"/>
</a>
</g>
<text text-anchor="start" x="157" y="-235.5" font-family="Helvetica,sans-Serif" font-size="10.00" fill="grey">&lt; std::string_view,</text>
<text text-anchor="start" x="157" y="-220.5" font-family="Helvetica,sans-Serif" font-size="10.00" fill="grey">   Surface::SurfaceType</text>
<text text-anchor="start" x="157" y="-205.5" font-family="Helvetica,sans-Serif" font-size="10.00" fill="grey">  ::Other+1 &gt;</text>
</g>
<!-- Node9 -->
<g id="Node000009" class="node">
<title>Node9</title>
<g id="a_Node000009"><a xlink:href="class_acts_1_1_cloneable_ptr.html" target="_top" xlink:title=" ">
<polygon fill="white" stroke="#666666" points="428,-161 305,-161 305,-131 428,-131 428,-161"/>
<text text-anchor="start" x="313" y="-149" font-family="Helvetica,sans-Serif" font-size="10.00">Acts::CloneablePtr</text>
<text text-anchor="middle" x="366.5" y="-138" font-family="Helvetica,sans-Serif" font-size="10.00">&lt; const Transform3 &gt;</text>
</a>
</g>
</g>
<!-- Node9&#45;&gt;Node3 -->
<g id="edge8_Node000003_Node000009" class="edge">
<title>Node9&#45;&gt;Node3</title>
<g id="a_edge8_Node000003_Node000009"><a xlink:title=" ">
<path fill="none" stroke="#9a32cd" stroke-dasharray="5,2" d="M438.14,-152.55C491.04,-158.15 565.01,-167.48 629,-181 654.51,-186.39 682.92,-194.86 703.44,-201.42"/>
<polygon fill="#9a32cd" stroke="#9a32cd" points="438.49,-149.06 428.18,-151.51 437.76,-156.03 438.49,-149.06"/>
</a>
</g>
<text text-anchor="start" x="513" y="-186.5" font-family="Helvetica,sans-Serif" font-size="10.00" fill="grey">m_transform</text>
</g>
<!-- Node10 -->
<g id="Node000010" class="node">
<title>Node10</title>
<g id="a_Node000010"><a xlink:href="class_acts_1_1_cloneable_ptr.html" target="_top" xlink:title="A copyable smart pointer that uses a cloner function to copy the managed object.">
<polygon fill="white" stroke="#666666" points="135,-155.5 1,-155.5 1,-136.5 135,-136.5 135,-155.5"/>
<text text-anchor="middle" x="68" y="-143.5" font-family="Helvetica,sans-Serif" font-size="10.00">Acts::CloneablePtr&lt; T &gt;</text>
</a>
</g>
</g>
<!-- Node10&#45;&gt;Node9 -->
<g id="edge9_Node000009_Node000010" class="edge">
<title>Node10&#45;&gt;Node9</title>
<g id="a_edge9_Node000009_Node000010"><a xlink:title=" ">
<path fill="none" stroke="orange" stroke-dasharray="5,2" d="M145.2,-146C194.72,-146 258.43,-146 304.58,-146"/>
<polygon fill="orange" stroke="orange" points="145.17,-142.5 135.17,-146 145.17,-149.5 145.17,-142.5"/>
</a>
</g>
<text text-anchor="start" x="160" y="-151.5" font-family="Helvetica,sans-Serif" font-size="10.00" fill="grey">&lt; const Transform3 &gt;</text>
</g>
<!-- Node11 -->
<g id="Node000011" class="node">
<title>Node11</title>
<g id="a_Node000011"><a xlink:href="class_acts_1_1_delegate.html" target="_top" xlink:title=" ">
<polygon fill="white" stroke="#bfbfbf" points="819,-122 647,-122 647,-48 819,-48 819,-122"/>
<text text-anchor="start" x="655" y="-110" font-family="Helvetica,sans-Serif" font-size="10.00">Acts::Delegate&lt; bool</text>
<text text-anchor="start" x="655" y="-99" font-family="Helvetica,sans-Serif" font-size="10.00">(const GeometryContext</text>
<text text-anchor="start" x="655" y="-88" font-family="Helvetica,sans-Serif" font-size="10.00"> &amp;gctx, const TrackingVolume</text>
<text text-anchor="start" x="655" y="-77" font-family="Helvetica,sans-Serif" font-size="10.00"> &amp;currentVol, const Vector3</text>
<text text-anchor="start" x="655" y="-66" font-family="Helvetica,sans-Serif" font-size="10.00"> &amp;pos, const Vector3 &amp;dir, const</text>
<text text-anchor="middle" x="733" y="-55" font-family="Helvetica,sans-Serif" font-size="10.00"> Surface &amp;candidate)&gt;</text>
</a>
</g>
</g>
<!-- Node11&#45;&gt;Node2 -->
<g id="edge10_Node000002_Node000011" class="edge">
<title>Node11&#45;&gt;Node2</title>
<g id="a_edge10_Node000002_Node000011"><a xlink:title=" ">
<path fill="none" stroke="#9a32cd" stroke-dasharray="5,2" d="M829.17,-85C870.77,-85 918.88,-85 957.97,-85"/>
<polygon fill="#9a32cd" stroke="#9a32cd" points="829.02,-81.5 819.02,-85 829.02,-88.5 829.02,-81.5"/>
</a>
</g>
<text text-anchor="start" x="840.5" y="-90.5" font-family="Helvetica,sans-Serif" font-size="10.00" fill="grey">freeSurfaceSelector</text>
</g>
<!-- Node12 -->
<g id="Node000012" class="node">
<title>Node12</title>
<g id="a_Node000012"><a xlink:href="class_acts_1_1_delegate.html" target="_top" xlink:title=" ">
<polygon fill="white" stroke="#bfbfbf" points="442.5,-86 290.5,-86 290.5,-56 442.5,-56 442.5,-86"/>
<text text-anchor="start" x="298.5" y="-74" font-family="Helvetica,sans-Serif" font-size="10.00">Acts::Delegate&lt; typename,</text>
<text text-anchor="middle" x="366.5" y="-63" font-family="Helvetica,sans-Serif" font-size="10.00"> H, DelegateType &gt;</text>
</a>
</g>
</g>
<!-- Node12&#45;&gt;Node11 -->
<g id="edge11_Node000011_Node000012" class="edge">
<title>Node12&#45;&gt;Node11</title>
<g id="a_edge11_Node000011_Node000012"><a xlink:title=" ">
<path fill="none" stroke="orange" stroke-dasharray="5,2" d="M452.57,-68.71C503.75,-67.99 570.17,-68.19 629,-72 634.85,-72.38 640.87,-72.87 646.93,-73.44"/>
<polygon fill="orange" stroke="orange" points="452.49,-65.21 442.54,-68.87 452.6,-72.21 452.49,-65.21"/>
</a>
</g>
<text text-anchor="start" x="464" y="-137.5" font-family="Helvetica,sans-Serif" font-size="10.00" fill="grey">&lt; bool( const GeometryContext</text>
<text text-anchor="start" x="464" y="-122.5" font-family="Helvetica,sans-Serif" font-size="10.00" fill="grey">   &amp;gctx, const TrackingVolume</text>
<text text-anchor="start" x="464" y="-107.5" font-family="Helvetica,sans-Serif" font-size="10.00" fill="grey">   &amp;currentVol, const Vector3</text>
<text text-anchor="start" x="464" y="-92.5" font-family="Helvetica,sans-Serif" font-size="10.00" fill="grey">   &amp;pos, const Vector3 &amp;dir, const</text>
<text text-anchor="start" x="464" y="-77.5" font-family="Helvetica,sans-Serif" font-size="10.00" fill="grey">   Surface &amp;candidate)&gt;</text>
</g>
<!-- Node13 -->
<g id="Node000013" class="node">
<title>Node13</title>
<g id="a_Node000013"><a xlink:title=" ">
<polygon fill="white" stroke="#666666" points="786,-30 680,-30 680,0 786,0 786,-30"/>
<text text-anchor="start" x="688" y="-18" font-family="Helvetica,sans-Serif" font-size="10.00">std::vector&lt; const</text>
<text text-anchor="middle" x="733" y="-7" font-family="Helvetica,sans-Serif" font-size="10.00"> Acts::Surface * &gt;</text>
</a>
</g>
</g>
<!-- Node13&#45;&gt;Node2 -->
<g id="edge12_Node000002_Node000013" class="edge">
<title>Node13&#45;&gt;Node2</title>
<g id="a_edge12_Node000002_Node000013"><a xlink:title=" ">
<path fill="none" stroke="#9a32cd" stroke-dasharray="5,2" d="M796.1,-29.51C854.99,-43.28 941.8,-63.57 992.5,-75.42"/>
<polygon fill="#9a32cd" stroke="#9a32cd" points="796.7,-26.06 786.17,-27.19 795.11,-32.88 796.7,-26.06"/>
</a>
</g>
<text text-anchor="start" x="847.5" y="-67.5" font-family="Helvetica,sans-Serif" font-size="10.00" fill="grey">externalSurfaces</text>
</g>
<!-- Node14 -->
<g id="Node000014" class="node">
<title>Node14</title>
<g id="a_Node000014"><a xlink:title=" ">
<polygon fill="white" stroke="#666666" points="415,-24.5 318,-24.5 318,-5.5 415,-5.5 415,-24.5"/>
<text text-anchor="middle" x="366.5" y="-12.5" font-family="Helvetica,sans-Serif" font-size="10.00">std::vector&lt; T &gt;</text>
</a>
</g>
</g>
<!-- Node14&#45;&gt;Node13 -->
<g id="edge13_Node000013_Node000014" class="edge">
<title>Node14&#45;&gt;Node13</title>
<g id="a_edge13_Node000013_Node000014"><a xlink:title=" ">
<path fill="none" stroke="orange" stroke-dasharray="5,2" d="M425.57,-15C495.69,-15 612.59,-15 679.92,-15"/>
<polygon fill="orange" stroke="orange" points="425.15,-11.5 415.15,-15 425.15,-18.5 425.15,-11.5"/>
</a>
</g>
<text text-anchor="start" x="483" y="-20.5" font-family="Helvetica,sans-Serif" font-size="10.00" fill="grey">&lt; const Acts::Surface * &gt;</text>
</g>
</g>
</svg>
