<?xml version="1.0" encoding="UTF-8" standalone="no"?>
<!DOCTYPE svg PUBLIC "-//W3C//DTD SVG 1.1//EN"
 "http://www.w3.org/Graphics/SVG/1.1/DTD/svg11.dtd">
<!-- Generated by graphviz version 2.43.0 (0)
 -->
<!-- Title: Acts::DirectNavigator::State Pages: 1 -->
<svg width="1578pt" height="273pt"
 viewBox="0.00 0.00 1578.00 272.50" xmlns="http://www.w3.org/2000/svg" xmlns:xlink="http://www.w3.org/1999/xlink">
<g id="graph0" class="graph" transform="scale(1 1) rotate(0) translate(4 268.5)">
<title>Acts::DirectNavigator::State</title>
<!-- Node1 -->
<g id="Node000001" class="node">
<title>Node1</title>
<g id="a_Node000001"><a xlink:title="Nested State struct.">
<polygon fill="#999999" stroke="#666666" points="1570,-87.5 1449,-87.5 1449,-57.5 1570,-57.5 1570,-87.5"/>
<text text-anchor="start" x="1457" y="-75.5" font-family="Helvetica,sans-Serif" font-size="10.00">Acts::DirectNavigator</text>
<text text-anchor="middle" x="1509.5" y="-64.5" font-family="Helvetica,sans-Serif" font-size="10.00">::State</text>
</a>
</g>
</g>
<!-- Node2 -->
<g id="Node000002" class="node">
<title>Node2</title>
<g id="a_Node000002"><a xlink:href="struct_acts_1_1_direct_navigator_1_1_options.html" target="_top" xlink:title="The nested options struct.">
<polygon fill="white" stroke="#666666" points="1354,-109.5 1233,-109.5 1233,-79.5 1354,-79.5 1354,-109.5"/>
<text text-anchor="start" x="1241" y="-97.5" font-family="Helvetica,sans-Serif" font-size="10.00">Acts::DirectNavigator</text>
<text text-anchor="middle" x="1293.5" y="-86.5" font-family="Helvetica,sans-Serif" font-size="10.00">::Options</text>
</a>
</g>
</g>
<!-- Node2&#45;&gt;Node1 -->
<g id="edge1_Node000001_Node000002" class="edge">
<title>Node2&#45;&gt;Node1</title>
<g id="a_edge1_Node000001_Node000002"><a xlink:title=" ">
<path fill="none" stroke="#9a32cd" stroke-dasharray="5,2" d="M1364.37,-87.32C1391.66,-84.51 1422.62,-81.33 1448.84,-78.63"/>
<polygon fill="#9a32cd" stroke="#9a32cd" points="1363.7,-83.87 1354.11,-88.37 1364.42,-90.83 1363.7,-83.87"/>
</a>
</g>
<text text-anchor="start" x="1387.5" y="-91" font-family="Helvetica,sans-Serif" font-size="10.00" fill="grey">options</text>
</g>
<!-- Node3 -->
<g id="Node000003" class="node">
<title>Node3</title>
<g id="a_Node000003"><a xlink:href="struct_acts_1_1_navigator_plain_options.html" target="_top" xlink:title="Plain navigator options carrying geometry context and surfaces.">
<polygon fill="white" stroke="#666666" points="1111,-104 958,-104 958,-85 1111,-85 1111,-104"/>
<text text-anchor="middle" x="1034.5" y="-92" font-family="Helvetica,sans-Serif" font-size="10.00">Acts::NavigatorPlainOptions</text>
</a>
</g>
</g>
<!-- Node3&#45;&gt;Node2 -->
<g id="edge2_Node000002_Node000003" class="edge">
<title>Node3&#45;&gt;Node2</title>
<g id="a_edge2_Node000002_Node000003"><a xlink:title=" ">
<path fill="none" stroke="#63b8ff" d="M1121.38,-94.5C1157.94,-94.5 1199.68,-94.5 1232.79,-94.5"/>
<polygon fill="#63b8ff" stroke="#63b8ff" points="1121.22,-91 1111.22,-94.5 1121.22,-98 1121.22,-91"/>
</a>
</g>
</g>
<!-- Node4 -->
<g id="Node000004" class="node">
<title>Node4</title>
<g id="a_Node000004"><a xlink:href="class_acts_1_1_surface.html" target="_top" xlink:title="Abstract Base Class for tracking surfaces.">
<polygon fill="white" stroke="#666666" points="773,-171 693,-171 693,-152 773,-152 773,-171"/>
<text text-anchor="middle" x="733" y="-159" font-family="Helvetica,sans-Serif" font-size="10.00">Acts::Surface</text>
</a>
</g>
</g>
<!-- Node4&#45;&gt;Node1 -->
<g id="edge16_Node000001_Node000004" class="edge">
<title>Node4&#45;&gt;Node1</title>
<g id="a_edge16_Node000001_Node000004"><a xlink:title=" ">
<path fill="none" stroke="#9a32cd" stroke-dasharray="5,2" d="M783.17,-159.88C889.22,-155.99 1147.28,-144.48 1362,-118.5 1392.9,-114.76 1401.2,-115.48 1431,-106.5 1447.18,-101.62 1464.46,-94.27 1478.59,-87.64"/>
<polygon fill="#9a32cd" stroke="#9a32cd" points="782.95,-156.38 773.08,-160.24 783.2,-163.38 782.95,-156.38"/>
</a>
</g>
<text text-anchor="start" x="1132" y="-146" font-family="Helvetica,sans-Serif" font-size="10.00" fill="grey">currentSurface</text>
</g>
<!-- Node4&#45;&gt;Node3 -->
<g id="edge3_Node000003_Node000004" class="edge">
<title>Node4&#45;&gt;Node3</title>
<g id="a_edge3_Node000003_Node000004"><a xlink:title=" ">
<path fill="none" stroke="#9a32cd" stroke-dasharray="5,2" d="M759.82,-147.23C780.17,-136.67 809.58,-122.89 837,-115.5 876.09,-104.97 920.89,-99.68 957.84,-97.04"/>
<polygon fill="#9a32cd" stroke="#9a32cd" points="758.08,-144.19 750.88,-151.97 761.36,-150.38 758.08,-144.19"/>
</a>
</g>
<text text-anchor="start" x="855.5" y="-136.5" font-family="Helvetica,sans-Serif" font-size="10.00" fill="grey">startSurface</text>
<text text-anchor="start" x="855.5" y="-121.5" font-family="Helvetica,sans-Serif" font-size="10.00" fill="grey">targetSurface</text>
</g>
<!-- Node5 -->
<g id="Node000005" class="node">
<title>Node5</title>
<g id="a_Node000005"><a xlink:href="class_acts_1_1_geometry_object.html" target="_top" xlink:title="Base class to provide GeometryIdentifier interface:">
<polygon fill="white" stroke="#666666" points="428.5,-257 304.5,-257 304.5,-238 428.5,-238 428.5,-257"/>
<text text-anchor="middle" x="366.5" y="-245" font-family="Helvetica,sans-Serif" font-size="10.00">Acts::GeometryObject</text>
</a>
</g>
</g>
<!-- Node5&#45;&gt;Node4 -->
<g id="edge4_Node000004_Node000005" class="edge">
<title>Node5&#45;&gt;Node4</title>
<g id="a_edge4_Node000004_Node000005"><a xlink:title=" ">
<path fill="none" stroke="#63b8ff" d="M438.75,-238.82C491.81,-231.43 565.7,-219.17 629,-201.5 658.19,-193.35 690.59,-180.02 711.11,-171.01"/>
<polygon fill="#63b8ff" stroke="#63b8ff" points="438.19,-235.36 428.76,-240.19 439.14,-242.3 438.19,-235.36"/>
</a>
</g>
</g>
<!-- Node6 -->
<g id="Node000006" class="node">
<title>Node6</title>
<g id="a_Node000006"><a xlink:href="class_acts_1_1_geometry_identifier.html" target="_top" xlink:title="Identifier for geometry nodes within the geometry hierarchy.">
<polygon fill="white" stroke="#666666" points="136,-257 0,-257 0,-238 136,-238 136,-257"/>
<text text-anchor="middle" x="68" y="-245" font-family="Helvetica,sans-Serif" font-size="10.00">Acts::GeometryIdentifier</text>
</a>
</g>
</g>
<!-- Node6&#45;&gt;Node5 -->
<g id="edge5_Node000005_Node000006" class="edge">
<title>Node6&#45;&gt;Node5</title>
<g id="a_edge5_Node000005_Node000006"><a xlink:title=" ">
<path fill="none" stroke="#9a32cd" stroke-dasharray="5,2" d="M146.55,-247.5C195.68,-247.5 258.35,-247.5 304.04,-247.5"/>
<polygon fill="#9a32cd" stroke="#9a32cd" points="146.28,-244 136.28,-247.5 146.28,-251 146.28,-244"/>
</a>
</g>
<text text-anchor="start" x="177" y="-253" font-family="Helvetica,sans-Serif" font-size="10.00" fill="grey">m_geometryId</text>
</g>
<!-- Node7 -->
<g id="Node000007" class="node">
<title>Node7</title>
<g id="a_Node000007"><a xlink:title=" ">
<polygon fill="white" stroke="#bfbfbf" points="430.5,-219.5 302.5,-219.5 302.5,-189.5 430.5,-189.5 430.5,-219.5"/>
<text text-anchor="start" x="310.5" y="-207.5" font-family="Helvetica,sans-Serif" font-size="10.00">std::enable_shared</text>
<text text-anchor="middle" x="366.5" y="-196.5" font-family="Helvetica,sans-Serif" font-size="10.00">_from_this&lt; Surface &gt;</text>
</a>
</g>
</g>
<!-- Node7&#45;&gt;Node4 -->
<g id="edge6_Node000004_Node000007" class="edge">
<title>Node7&#45;&gt;Node4</title>
<g id="a_edge6_Node000004_Node000007"><a xlink:title=" ">
<path fill="none" stroke="#63b8ff" d="M440.74,-198.49C493.25,-193.87 565.61,-186.87 629,-178.5 650.2,-175.7 673.74,-171.87 692.96,-168.55"/>
<polygon fill="#63b8ff" stroke="#63b8ff" points="440.17,-195.03 430.51,-199.38 440.77,-202 440.17,-195.03"/>
</a>
</g>
</g>
<!-- Node8 -->
<g id="Node000008" class="node">
<title>Node8</title>
<g id="a_Node000008"><a xlink:title=" ">
<polygon fill="white" stroke="#666666" points="443,-171 290,-171 290,-130 443,-130 443,-171"/>
<text text-anchor="start" x="298" y="-159" font-family="Helvetica,sans-Serif" font-size="10.00">std::array&lt; std::string</text>
<text text-anchor="start" x="298" y="-148" font-family="Helvetica,sans-Serif" font-size="10.00">_view, Surface::SurfaceType</text>
<text text-anchor="middle" x="366.5" y="-137" font-family="Helvetica,sans-Serif" font-size="10.00">::Other+1 &gt;</text>
</a>
</g>
</g>
<!-- Node8&#45;&gt;Node4 -->
<g id="edge7_Node000004_Node000008" class="edge">
<title>Node8&#45;&gt;Node4</title>
<g id="a_edge7_Node000004_Node000008"><a xlink:title=" ">
<path fill="none" stroke="#9a32cd" stroke-dasharray="5,2" d="M453.48,-153.09C529.06,-155.38 635.64,-158.59 692.55,-160.31"/>
<polygon fill="#9a32cd" stroke="#9a32cd" points="453.13,-149.58 443.02,-152.78 452.91,-156.58 453.13,-149.58"/>
</a>
</g>
<text text-anchor="start" x="493" y="-163" font-family="Helvetica,sans-Serif" font-size="10.00" fill="grey">s_surfaceTypeNames</text>
</g>
<!-- Node9 -->
<g id="Node000009" class="node">
<title>Node9</title>
<g id="a_Node000009"><a xlink:title=" ">
<polygon fill="white" stroke="#666666" points="114,-160 22,-160 22,-141 114,-141 114,-160"/>
<text text-anchor="middle" x="68" y="-148" font-family="Helvetica,sans-Serif" font-size="10.00">std::array&lt; T &gt;</text>
</a>
</g>
</g>
<!-- Node9&#45;&gt;Node8 -->
<g id="edge8_Node000008_Node000009" class="edge">
<title>Node9&#45;&gt;Node8</title>
<g id="a_edge8_Node000008_Node000009"><a xlink:title=" ">
<path fill="none" stroke="orange" stroke-dasharray="5,2" d="M124.24,-150.5C170.86,-150.5 238.07,-150.5 289.72,-150.5"/>
<polygon fill="orange" stroke="orange" points="124.03,-147 114.03,-150.5 124.03,-154 124.03,-147"/>
</a>
</g>
<text text-anchor="start" x="157" y="-186" font-family="Helvetica,sans-Serif" font-size="10.00" fill="grey">&lt; std::string_view,</text>
<text text-anchor="start" x="157" y="-171" font-family="Helvetica,sans-Serif" font-size="10.00" fill="grey">   Surface::SurfaceType</text>
<text text-anchor="start" x="157" y="-156" font-family="Helvetica,sans-Serif" font-size="10.00" fill="grey">  ::Other+1 &gt;</text>
</g>
<!-- Node10 -->
<g id="Node000010" class="node">
<title>Node10</title>
<g id="a_Node000010"><a xlink:href="class_acts_1_1_cloneable_ptr.html" target="_top" xlink:title=" ">
<polygon fill="white" stroke="#666666" points="428,-111.5 305,-111.5 305,-81.5 428,-81.5 428,-111.5"/>
<text text-anchor="start" x="313" y="-99.5" font-family="Helvetica,sans-Serif" font-size="10.00">Acts::CloneablePtr</text>
<text text-anchor="middle" x="366.5" y="-88.5" font-family="Helvetica,sans-Serif" font-size="10.00">&lt; const Transform3 &gt;</text>
</a>
</g>
</g>
<!-- Node10&#45;&gt;Node4 -->
<g id="edge9_Node000004_Node000010" class="edge">
<title>Node10&#45;&gt;Node4</title>
<g id="a_edge9_Node000004_Node000010"><a xlink:title=" ">
<path fill="none" stroke="#9a32cd" stroke-dasharray="5,2" d="M438.14,-103.05C491.04,-108.65 565.01,-117.98 629,-131.5 654.51,-136.89 682.92,-145.36 703.44,-151.92"/>
<polygon fill="#9a32cd" stroke="#9a32cd" points="438.49,-99.56 428.18,-102.01 437.76,-106.53 438.49,-99.56"/>
</a>
</g>
<text text-anchor="start" x="513" y="-137" font-family="Helvetica,sans-Serif" font-size="10.00" fill="grey">m_transform</text>
</g>
<!-- Node11 -->
<g id="Node000011" class="node">
<title>Node11</title>
<g id="a_Node000011"><a xlink:href="class_acts_1_1_cloneable_ptr.html" target="_top" xlink:title="A copyable smart pointer that uses a cloner function to copy the managed object.">
<polygon fill="white" stroke="#666666" points="135,-106 1,-106 1,-87 135,-87 135,-106"/>
<text text-anchor="middle" x="68" y="-94" font-family="Helvetica,sans-Serif" font-size="10.00">Acts::CloneablePtr&lt; T &gt;</text>
</a>
</g>
</g>
<!-- Node11&#45;&gt;Node10 -->
<g id="edge10_Node000010_Node000011" class="edge">
<title>Node11&#45;&gt;Node10</title>
<g id="a_edge10_Node000010_Node000011"><a xlink:title=" ">
<path fill="none" stroke="orange" stroke-dasharray="5,2" d="M145.2,-96.5C194.72,-96.5 258.43,-96.5 304.58,-96.5"/>
<polygon fill="orange" stroke="orange" points="145.17,-93 135.17,-96.5 145.17,-100 145.17,-93"/>
</a>
</g>
<text text-anchor="start" x="160" y="-102" font-family="Helvetica,sans-Serif" font-size="10.00" fill="grey">&lt; const Transform3 &gt;</text>
</g>
<!-- Node12 -->
<g id="Node000012" class="node">
<title>Node12</title>
<g id="a_Node000012"><a xlink:href="class_acts_1_1_delegate.html" target="_top" xlink:title=" ">
<polygon fill="white" stroke="#bfbfbf" points="819,-111.5 647,-111.5 647,-37.5 819,-37.5 819,-111.5"/>
<text text-anchor="start" x="655" y="-99.5" font-family="Helvetica,sans-Serif" font-size="10.00">Acts::Delegate&lt; bool</text>
<text text-anchor="start" x="655" y="-88.5" font-family="Helvetica,sans-Serif" font-size="10.00">(const GeometryContext</text>
<text text-anchor="start" x="655" y="-77.5" font-family="Helvetica,sans-Serif" font-size="10.00"> &amp;gctx, const TrackingVolume</text>
<text text-anchor="start" x="655" y="-66.5" font-family="Helvetica,sans-Serif" font-size="10.00"> &amp;currentVol, const Vector3</text>
<text text-anchor="start" x="655" y="-55.5" font-family="Helvetica,sans-Serif" font-size="10.00"> &amp;pos, const Vector3 &amp;dir, const</text>
<text text-anchor="middle" x="733" y="-44.5" font-family="Helvetica,sans-Serif" font-size="10.00"> Surface &amp;candidate)&gt;</text>
</a>
</g>
</g>
<!-- Node12&#45;&gt;Node3 -->
<g id="edge11_Node000003_Node000012" class="edge">
<title>Node12&#45;&gt;Node3</title>
<g id="a_edge11_Node000003_Node000012"><a xlink:title=" ">
<path fill="none" stroke="#9a32cd" stroke-dasharray="5,2" d="M829.33,-71.09C864.22,-70.86 903.98,-71.79 940,-75.5 958.29,-77.38 978.3,-81.21 995.09,-84.93"/>
<polygon fill="#9a32cd" stroke="#9a32cd" points="829.11,-67.59 819.14,-71.19 829.18,-74.59 829.11,-67.59"/>
</a>
</g>
<text text-anchor="start" x="840.5" y="-81" font-family="Helvetica,sans-Serif" font-size="10.00" fill="grey">freeSurfaceSelector</text>
</g>
<!-- Node13 -->
<g id="Node000013" class="node">
<title>Node13</title>
<g id="a_Node000013"><a xlink:href="class_acts_1_1_delegate.html" target="_top" xlink:title=" ">
<polygon fill="white" stroke="#bfbfbf" points="442.5,-36.5 290.5,-36.5 290.5,-6.5 442.5,-6.5 442.5,-36.5"/>
<text text-anchor="start" x="298.5" y="-24.5" font-family="Helvetica,sans-Serif" font-size="10.00">Acts::Delegate&lt; typename,</text>
<text text-anchor="middle" x="366.5" y="-13.5" font-family="Helvetica,sans-Serif" font-size="10.00"> H, DelegateType &gt;</text>
</a>
</g>
</g>
<!-- Node13&#45;&gt;Node12 -->
<g id="edge12_Node000012_Node000013" class="edge">
<title>Node13&#45;&gt;Node12</title>
<g id="a_edge12_Node000012_Node000013"><a xlink:title=" ">
<path fill="none" stroke="orange" stroke-dasharray="5,2" d="M452.83,-12.01C504.51,-8.68 571.37,-8.66 629,-22.5 642.83,-25.82 656.91,-31.3 670.04,-37.48"/>
<polygon fill="orange" stroke="orange" points="452.43,-8.53 442.7,-12.72 452.92,-15.52 452.43,-8.53"/>
</a>
</g>
<text text-anchor="start" x="464" y="-88" font-family="Helvetica,sans-Serif" font-size="10.00" fill="grey">&lt; bool( const GeometryContext</text>
<text text-anchor="start" x="464" y="-73" font-family="Helvetica,sans-Serif" font-size="10.00" fill="grey">   &amp;gctx, const TrackingVolume</text>
<text text-anchor="start" x="464" y="-58" font-family="Helvetica,sans-Serif" font-size="10.00" fill="grey">   &amp;currentVol, const Vector3</text>
<text text-anchor="start" x="464" y="-43" font-family="Helvetica,sans-Serif" font-size="10.00" fill="grey">   &amp;pos, const Vector3 &amp;dir, const</text>
<text text-anchor="start" x="464" y="-28" font-family="Helvetica,sans-Serif" font-size="10.00" fill="grey">   Surface &amp;candidate)&gt;</text>
</g>
<!-- Node14 -->
<g id="Node000014" class="node">
<title>Node14</title>
<g id="a_Node000014"><a xlink:title=" ">
<polygon fill="white" stroke="#666666" points="1087.5,-45.5 981.5,-45.5 981.5,-15.5 1087.5,-15.5 1087.5,-45.5"/>
<text text-anchor="start" x="989.5" y="-33.5" font-family="Helvetica,sans-Serif" font-size="10.00">std::vector&lt; const</text>
<text text-anchor="middle" x="1034.5" y="-22.5" font-family="Helvetica,sans-Serif" font-size="10.00"> Surface * &gt;</text>
</a>
</g>
</g>
<!-- Node14&#45;&gt;Node2 -->
<g id="edge13_Node000002_Node000014" class="edge">
<title>Node14&#45;&gt;Node2</title>
<g id="a_edge13_Node000002_Node000014"><a xlink:title=" ">
<path fill="none" stroke="#9a32cd" stroke-dasharray="5,2" d="M1097.41,-45.92C1138.55,-56.16 1192.27,-69.54 1232.92,-79.66"/>
<polygon fill="#9a32cd" stroke="#9a32cd" points="1098.06,-42.47 1087.51,-43.45 1096.37,-49.26 1098.06,-42.47"/>
</a>
</g>
<text text-anchor="start" x="1147" y="-78" font-family="Helvetica,sans-Serif" font-size="10.00" fill="grey">surfaces</text>
</g>
<!-- Node15 -->
<g id="Node000015" class="node">
<title>Node15</title>
<g id="a_Node000015"><a xlink:title=" ">
<polygon fill="white" stroke="#666666" points="781.5,-19 684.5,-19 684.5,0 781.5,0 781.5,-19"/>
<text text-anchor="middle" x="733" y="-7" font-family="Helvetica,sans-Serif" font-size="10.00">std::vector&lt; T &gt;</text>
</a>
</g>
</g>
<!-- Node15&#45;&gt;Node14 -->
<g id="edge14_Node000014_Node000015" class="edge">
<title>Node15&#45;&gt;Node14</title>
<g id="a_edge14_Node000014_Node000015"><a xlink:title=" ">
<path fill="none" stroke="orange" stroke-dasharray="5,2" d="M792.05,-13.57C846.92,-17.42 928.51,-23.14 981.35,-26.84"/>
<polygon fill="orange" stroke="orange" points="792.01,-10.06 781.79,-12.85 791.52,-17.04 792.01,-10.06"/>
</a>
</g>
<text text-anchor="start" x="840.5" y="-30" font-family="Helvetica,sans-Serif" font-size="10.00" fill="grey">&lt; const Surface * &gt;</text>
</g>
<!-- Node16 -->
<g id="Node000016" class="node">
<title>Node16</title>
<g id="a_Node000016"><a xlink:href="class_acts_1_1_direction.html" target="_top" xlink:title="The direction is always with respect to a given momentum, surface normal or other general axes.">
<polygon fill="white" stroke="#666666" points="1337.5,-61 1249.5,-61 1249.5,-42 1337.5,-42 1337.5,-61"/>
<text text-anchor="middle" x="1293.5" y="-49" font-family="Helvetica,sans-Serif" font-size="10.00">Acts::Direction</text>
</a>
</g>
</g>
<!-- Node16&#45;&gt;Node1 -->
<g id="edge15_Node000001_Node000016" class="edge">
<title>Node16&#45;&gt;Node1</title>
<g id="a_edge15_Node000001_Node000016"><a xlink:title=" ">
<path fill="none" stroke="#9a32cd" stroke-dasharray="5,2" d="M1347.83,-50.13C1373.13,-50.13 1403.71,-51.07 1431,-54.5 1437.03,-55.26 1443.28,-56.29 1449.49,-57.47"/>
<polygon fill="#9a32cd" stroke="#9a32cd" points="1347.68,-46.63 1337.7,-50.18 1347.72,-53.63 1347.68,-46.63"/>
</a>
</g>
<text text-anchor="start" x="1384.5" y="-60" font-family="Helvetica,sans-Serif" font-size="10.00" fill="grey">direction</text>
</g>
<!-- Node17 -->
<g id="Node000017" class="node">
<title>Node17</title>
<g id="a_Node000017"><a xlink:href="struct_acts_1_1_navigator_statistics.html" target="_top" xlink:title="A struct to hold statistics of the navigator.">
<polygon fill="white" stroke="#666666" points="1362,-22 1225,-22 1225,-3 1362,-3 1362,-22"/>
<text text-anchor="middle" x="1293.5" y="-10" font-family="Helvetica,sans-Serif" font-size="10.00">Acts::NavigatorStatistics</text>
</a>
</g>
</g>
<!-- Node17&#45;&gt;Node1 -->
<g id="edge17_Node000001_Node000017" class="edge">
<title>Node17&#45;&gt;Node1</title>
<g id="a_edge17_Node000001_Node000017"><a xlink:title=" ">
<path fill="none" stroke="#9a32cd" stroke-dasharray="5,2" d="M1372.3,-17.78C1391.78,-20.45 1412.41,-24.47 1431,-30.5 1450.65,-36.88 1471.13,-48.21 1486.1,-57.5"/>
<polygon fill="#9a32cd" stroke="#9a32cd" points="1372.59,-14.29 1362.23,-16.5 1371.71,-21.23 1372.59,-14.29"/>
</a>
</g>
<text text-anchor="start" x="1383.5" y="-36" font-family="Helvetica,sans-Serif" font-size="10.00" fill="grey">statistics</text>
</g>
</g>
</svg>
