<?xml version="1.0" encoding="UTF-8" standalone="no"?>
<!DOCTYPE svg PUBLIC "-//W3C//DTD SVG 1.1//EN"
 "http://www.w3.org/Graphics/SVG/1.1/DTD/svg11.dtd">
<!-- Generated by graphviz version 2.43.0 (0)
 -->
<!-- Title: Acts::Experimental::BlueprintNode Pages: 1 -->
<svg width="555pt" height="230pt"
 viewBox="0.00 0.00 555.00 230.00" xmlns="http://www.w3.org/2000/svg" xmlns:xlink="http://www.w3.org/1999/xlink">
<g id="graph0" class="graph" transform="scale(1 1) rotate(0) translate(4 226)">
<title>Acts::Experimental::BlueprintNode</title>
<!-- Node1 -->
<g id="Node000001" class="node">
<title>Node1</title>
<g id="a_Node000001"><a xlink:title="Base class for all nodes in the blueprint tree.">
<polygon fill="#999999" stroke="#666666" points="109,-126 0,-126 0,-96 109,-96 109,-126"/>
<text text-anchor="start" x="8" y="-114" font-family="Helvetica,sans-Serif" font-size="10.00">Acts::Experimental</text>
<text text-anchor="middle" x="54.5" y="-103" font-family="Helvetica,sans-Serif" font-size="10.00">::BlueprintNode</text>
</a>
</g>
</g>
<!-- Node2 -->
<g id="Node000002" class="node">
<title>Node2</title>
<g id="a_Node000002"><a xlink:href="class_acts_1_1_experimental_1_1_blueprint.html" target="_top" xlink:title="This class is the top&#45;level entry point to build a tracking geometry using the blueprint building mec...">
<polygon fill="white" stroke="#666666" points="292.5,-222 183.5,-222 183.5,-192 292.5,-192 292.5,-222"/>
<text text-anchor="start" x="191.5" y="-210" font-family="Helvetica,sans-Serif" font-size="10.00">Acts::Experimental</text>
<text text-anchor="middle" x="238" y="-199" font-family="Helvetica,sans-Serif" font-size="10.00">::Blueprint</text>
</a>
</g>
</g>
<!-- Node1&#45;&gt;Node2 -->
<g id="edge1_Node000001_Node000002" class="edge">
<title>Node1&#45;&gt;Node2</title>
<g id="a_edge1_Node000001_Node000002"><a xlink:title=" ">
<path fill="none" stroke="#63b8ff" d="M77.5,-133.18C94.56,-149.19 119.51,-170.17 145,-183 156.8,-188.94 170.2,-193.51 183.06,-196.99"/>
<polygon fill="#63b8ff" stroke="#63b8ff" points="79.88,-130.62 70.25,-126.22 75.04,-135.67 79.88,-130.62"/>
</a>
</g>
</g>
<!-- Node3 -->
<g id="Node000003" class="node">
<title>Node3</title>
<g id="a_Node000003"><a xlink:href="class_acts_1_1_experimental_1_1_container_blueprint_node.html" target="_top" xlink:title="A blueprint node that can contain multiple child volumes.">
<polygon fill="white" stroke="#666666" points="308,-174 168,-174 168,-144 308,-144 308,-174"/>
<text text-anchor="start" x="176" y="-162" font-family="Helvetica,sans-Serif" font-size="10.00">Acts::Experimental</text>
<text text-anchor="middle" x="238" y="-151" font-family="Helvetica,sans-Serif" font-size="10.00">::ContainerBlueprintNode</text>
</a>
</g>
</g>
<!-- Node1&#45;&gt;Node3 -->
<g id="edge2_Node000001_Node000003" class="edge">
<title>Node1&#45;&gt;Node3</title>
<g id="a_edge2_Node000001_Node000003"><a xlink:title=" ">
<path fill="none" stroke="#63b8ff" d="M119.16,-128.13C127.84,-130.45 136.64,-132.79 145,-135 156.01,-137.91 167.77,-141 179.07,-143.95"/>
<polygon fill="#63b8ff" stroke="#63b8ff" points="120,-124.73 109.44,-125.53 118.19,-131.49 120,-124.73"/>
</a>
</g>
</g>
<!-- Node6 -->
<g id="Node000006" class="node">
<title>Node6</title>
<g id="a_Node000006"><a xlink:href="class_acts_1_1_experimental_1_1_geometry_identifier_blueprint_node.html" target="_top" xlink:title="Blueprint node for configuring and applying geometry identifiers to volumes.">
<polygon fill="white" stroke="#666666" points="330.5,-126 145.5,-126 145.5,-96 330.5,-96 330.5,-126"/>
<text text-anchor="start" x="153.5" y="-114" font-family="Helvetica,sans-Serif" font-size="10.00">Acts::Experimental</text>
<text text-anchor="middle" x="238" y="-103" font-family="Helvetica,sans-Serif" font-size="10.00">::GeometryIdentifierBlueprintNode</text>
</a>
</g>
</g>
<!-- Node1&#45;&gt;Node6 -->
<g id="edge5_Node000001_Node000006" class="edge">
<title>Node1&#45;&gt;Node6</title>
<g id="a_edge5_Node000001_Node000006"><a xlink:title=" ">
<path fill="none" stroke="#63b8ff" d="M119.73,-111C128,-111 136.58,-111 145.17,-111"/>
<polygon fill="#63b8ff" stroke="#63b8ff" points="119.46,-107.5 109.46,-111 119.46,-114.5 119.46,-107.5"/>
</a>
</g>
</g>
<!-- Node7 -->
<g id="Node000007" class="node">
<title>Node7</title>
<g id="a_Node000007"><a xlink:href="class_acts_1_1_experimental_1_1_material_designator_blueprint_node.html" target="_top" xlink:title="This node type registers material proxies into its child volume during the blueprint construction.">
<polygon fill="white" stroke="#666666" points="331,-78 145,-78 145,-48 331,-48 331,-78"/>
<text text-anchor="start" x="153" y="-66" font-family="Helvetica,sans-Serif" font-size="10.00">Acts::Experimental</text>
<text text-anchor="middle" x="238" y="-55" font-family="Helvetica,sans-Serif" font-size="10.00">::MaterialDesignatorBlueprintNode</text>
</a>
</g>
</g>
<!-- Node1&#45;&gt;Node7 -->
<g id="edge6_Node000001_Node000007" class="edge">
<title>Node1&#45;&gt;Node7</title>
<g id="a_edge6_Node000001_Node000007"><a xlink:title=" ">
<path fill="none" stroke="#63b8ff" d="M119.16,-93.87C127.84,-91.55 136.64,-89.21 145,-87 156.01,-84.09 167.77,-81 179.07,-78.05"/>
<polygon fill="#63b8ff" stroke="#63b8ff" points="118.19,-90.51 109.44,-96.47 120,-97.27 118.19,-90.51"/>
</a>
</g>
</g>
<!-- Node8 -->
<g id="Node000008" class="node">
<title>Node8</title>
<g id="a_Node000008"><a xlink:href="class_acts_1_1_experimental_1_1_static_blueprint_node.html" target="_top" xlink:title="The static blueprint node wraps a single already&#45;constructred TrackingVolume.">
<polygon fill="white" stroke="#666666" points="298,-30 178,-30 178,0 298,0 298,-30"/>
<text text-anchor="start" x="186" y="-18" font-family="Helvetica,sans-Serif" font-size="10.00">Acts::Experimental</text>
<text text-anchor="middle" x="238" y="-7" font-family="Helvetica,sans-Serif" font-size="10.00">::StaticBlueprintNode</text>
</a>
</g>
</g>
<!-- Node1&#45;&gt;Node8 -->
<g id="edge7_Node000001_Node000008" class="edge">
<title>Node1&#45;&gt;Node8</title>
<g id="a_edge7_Node000001_Node000008"><a xlink:title=" ">
<path fill="none" stroke="#63b8ff" d="M77.5,-88.82C94.56,-72.81 119.51,-51.83 145,-39 155.17,-33.88 166.55,-29.78 177.73,-26.51"/>
<polygon fill="#63b8ff" stroke="#63b8ff" points="75.04,-86.33 70.25,-95.78 79.88,-91.38 75.04,-86.33"/>
</a>
</g>
</g>
<!-- Node4 -->
<g id="Node000004" class="node">
<title>Node4</title>
<g id="a_Node000004"><a xlink:href="class_acts_1_1_experimental_1_1_cuboid_container_blueprint_node.html" target="_top" xlink:title=" ">
<polygon fill="white" stroke="#666666" points="543.5,-198 370.5,-198 370.5,-168 543.5,-168 543.5,-198"/>
<text text-anchor="start" x="378.5" y="-186" font-family="Helvetica,sans-Serif" font-size="10.00">Acts::Experimental</text>
<text text-anchor="middle" x="457" y="-175" font-family="Helvetica,sans-Serif" font-size="10.00">::CuboidContainerBlueprintNode</text>
</a>
</g>
</g>
<!-- Node3&#45;&gt;Node4 -->
<g id="edge3_Node000003_Node000004" class="edge">
<title>Node3&#45;&gt;Node4</title>
<g id="a_edge3_Node000003_Node000004"><a xlink:title=" ">
<path fill="none" stroke="#63b8ff" d="M318.59,-167.8C335.41,-169.66 353.24,-171.63 370.28,-173.52"/>
<polygon fill="#63b8ff" stroke="#63b8ff" points="318.58,-164.28 308.26,-166.66 317.81,-171.24 318.58,-164.28"/>
</a>
</g>
</g>
<!-- Node5 -->
<g id="Node000005" class="node">
<title>Node5</title>
<g id="a_Node000005"><a xlink:href="class_acts_1_1_experimental_1_1_cylinder_container_blueprint_node.html" target="_top" xlink:title=" ">
<polygon fill="white" stroke="#666666" points="547,-150 367,-150 367,-120 547,-120 547,-150"/>
<text text-anchor="start" x="375" y="-138" font-family="Helvetica,sans-Serif" font-size="10.00">Acts::Experimental</text>
<text text-anchor="middle" x="457" y="-127" font-family="Helvetica,sans-Serif" font-size="10.00">::CylinderContainerBlueprintNode</text>
</a>
</g>
</g>
<!-- Node3&#45;&gt;Node5 -->
<g id="edge4_Node000003_Node000005" class="edge">
<title>Node3&#45;&gt;Node5</title>
<g id="a_edge4_Node000003_Node000005"><a xlink:title=" ">
<path fill="none" stroke="#63b8ff" d="M318.44,-150.21C334.16,-148.48 350.76,-146.64 366.77,-144.87"/>
<polygon fill="#63b8ff" stroke="#63b8ff" points="317.81,-146.76 308.26,-151.34 318.58,-153.72 317.81,-146.76"/>
</a>
</g>
</g>
<!-- Node9 -->
<g id="Node000009" class="node">
<title>Node9</title>
<g id="a_Node000009"><a xlink:href="class_acts_1_1_experimental_1_1_layer_blueprint_node.html" target="_top" xlink:title="The layer node is essentially an auto&#45;sizing wrapper around a set of surfaces.">
<polygon fill="white" stroke="#666666" points="516.5,-30 397.5,-30 397.5,0 516.5,0 516.5,-30"/>
<text text-anchor="start" x="405.5" y="-18" font-family="Helvetica,sans-Serif" font-size="10.00">Acts::Experimental</text>
<text text-anchor="middle" x="457" y="-7" font-family="Helvetica,sans-Serif" font-size="10.00">::LayerBlueprintNode</text>
</a>
</g>
</g>
<!-- Node8&#45;&gt;Node9 -->
<g id="edge8_Node000008_Node000009" class="edge">
<title>Node8&#45;&gt;Node9</title>
<g id="a_edge8_Node000008_Node000009"><a xlink:title=" ">
<path fill="none" stroke="#63b8ff" d="M308.37,-15C337.04,-15 369.93,-15 397.38,-15"/>
<polygon fill="#63b8ff" stroke="#63b8ff" points="308.01,-11.5 298.01,-15 308.01,-18.5 308.01,-11.5"/>
</a>
</g>
</g>
</g>
</svg>
