<?xml version="1.0" encoding="UTF-8" standalone="no"?>
<!DOCTYPE svg PUBLIC "-//W3C//DTD SVG 1.1//EN"
 "http://www.w3.org/Graphics/SVG/1.1/DTD/svg11.dtd">
<!-- Generated by graphviz version 2.43.0 (0)
 -->
<!-- Title: Acts::ProtoSurfaceMaterialT&lt; BinningType &gt; Pages: 1 -->
<svg width="706pt" height="93pt"
 viewBox="0.00 0.00 706.00 93.00" xmlns="http://www.w3.org/2000/svg" xmlns:xlink="http://www.w3.org/1999/xlink">
<g id="graph0" class="graph" transform="scale(1 1) rotate(0) translate(4 89)">
<title>Acts::ProtoSurfaceMaterialT&lt; BinningType &gt;</title>
<!-- Node1 -->
<g id="Node000001" class="node">
<title>Node1</title>
<g id="a_Node000001"><a xlink:title="proxy to SurfaceMaterial hand over BinUtility or other suitable binning description">
<polygon fill="#999999" stroke="#666666" points="307,-57 161,-57 161,-27 307,-27 307,-57"/>
<text text-anchor="start" x="169" y="-45" font-family="Helvetica,sans-Serif" font-size="10.00">Acts::ProtoSurfaceMaterial</text>
<text text-anchor="middle" x="234" y="-34" font-family="Helvetica,sans-Serif" font-size="10.00">T&lt; BinningType &gt;</text>
</a>
</g>
</g>
<!-- Node3 -->
<g id="Node000003" class="node">
<title>Node3</title>
<g id="a_Node000003"><a xlink:href="class_acts_1_1_proto_surface_material_t.html" target="_top" xlink:title=" ">
<polygon fill="white" stroke="#666666" points="667.5,-85 521.5,-85 521.5,-55 667.5,-55 667.5,-85"/>
<text text-anchor="start" x="529.5" y="-73" font-family="Helvetica,sans-Serif" font-size="10.00">Acts::ProtoSurfaceMaterial</text>
<text text-anchor="middle" x="594.5" y="-62" font-family="Helvetica,sans-Serif" font-size="10.00">T&lt; Acts::BinUtility &gt;</text>
</a>
</g>
</g>
<!-- Node1&#45;&gt;Node3 -->
<g id="edge2_Node000001_Node000003" class="edge">
<title>Node1&#45;&gt;Node3</title>
<g id="a_edge2_Node000001_Node000003"><a xlink:title=" ">
<path fill="none" stroke="orange" stroke-dasharray="5,2" d="M317.2,-48.42C378.86,-53.24 462.46,-59.77 521.5,-64.38"/>
<polygon fill="orange" stroke="orange" points="317.36,-44.92 307.12,-47.63 316.81,-51.9 317.36,-44.92"/>
</a>
</g>
<text text-anchor="start" x="351" y="-65.5" font-family="Helvetica,sans-Serif" font-size="10.00" fill="grey">&lt; Acts::BinUtility &gt;</text>
</g>
<!-- Node4 -->
<g id="Node000004" class="node">
<title>Node4</title>
<g id="a_Node000004"><a xlink:title=" ">
<polygon fill="white" stroke="#666666" points="698,-30 491,-30 491,0 698,0 698,-30"/>
<text text-anchor="start" x="499" y="-18" font-family="Helvetica,sans-Serif" font-size="10.00">Acts::ProtoSurfaceMaterial</text>
<text text-anchor="middle" x="594.5" y="-7" font-family="Helvetica,sans-Serif" font-size="10.00">T&lt; std::vector&lt; DirectedProtoAxis &gt; &gt;</text>
</a>
</g>
</g>
<!-- Node1&#45;&gt;Node4 -->
<g id="edge3_Node000001_Node000004" class="edge">
<title>Node1&#45;&gt;Node4</title>
<g id="a_edge3_Node000001_Node000004"><a xlink:title=" ">
<path fill="none" stroke="orange" stroke-dasharray="5,2" d="M287.87,-24.09C299.94,-20.74 312.8,-17.75 325,-16 379.33,-8.21 440.49,-7.37 490.7,-8.74"/>
<polygon fill="orange" stroke="orange" points="286.59,-20.82 277.96,-26.96 288.53,-27.54 286.59,-20.82"/>
</a>
</g>
<text text-anchor="start" x="328" y="-37" font-family="Helvetica,sans-Serif" font-size="10.00" fill="grey">&lt; std::vector&lt; DirectedProto</text>
<text text-anchor="start" x="328" y="-22" font-family="Helvetica,sans-Serif" font-size="10.00" fill="grey">  Axis &gt; &gt;</text>
</g>
<!-- Node2 -->
<g id="Node000002" class="node">
<title>Node2</title>
<g id="a_Node000002"><a xlink:href="class_acts_1_1_i_surface_material.html" target="_top" xlink:title="Base class of all surface&#45;based material description.">
<polygon fill="white" stroke="#666666" points="124,-51.5 0,-51.5 0,-32.5 124,-32.5 124,-51.5"/>
<text text-anchor="middle" x="62" y="-39.5" font-family="Helvetica,sans-Serif" font-size="10.00">Acts::ISurfaceMaterial</text>
</a>
</g>
</g>
<!-- Node2&#45;&gt;Node1 -->
<g id="edge1_Node000001_Node000002" class="edge">
<title>Node2&#45;&gt;Node1</title>
<g id="a_edge1_Node000001_Node000002"><a xlink:title=" ">
<path fill="none" stroke="#63b8ff" d="M134.46,-42C143.14,-42 152.02,-42 160.72,-42"/>
<polygon fill="#63b8ff" stroke="#63b8ff" points="134.37,-38.5 124.37,-42 134.37,-45.5 134.37,-38.5"/>
</a>
</g>
</g>
</g>
</svg>
