<?xml version="1.0" encoding="UTF-8" standalone="no"?>
<!DOCTYPE svg PUBLIC "-//W3C//DTD SVG 1.1//EN"
 "http://www.w3.org/Graphics/SVG/1.1/DTD/svg11.dtd">
<!-- Generated by graphviz version 2.43.0 (0)
 -->
<!-- Title: Acts::GeometryObjectSorterT&lt; T &gt; Pages: 1 -->
<svg width="337pt" height="193pt"
 viewBox="0.00 0.00 336.50 193.00" xmlns="http://www.w3.org/2000/svg" xmlns:xlink="http://www.w3.org/1999/xlink">

<svg id="main" version="1.1" xmlns="http://www.w3.org/2000/svg" xmlns:xlink="http://www.w3.org/1999/xlink" xml:space="preserve">

<style type="text/css"><![CDATA[
.node, .edge {opacity: 0.7;}
.node.selected, .edge.selected {opacity: 1;}
.edge:hover path { stroke: red; }
.edge:hover polygon { stroke: red; fill: red; }
]]></style>
<script type="application/ecmascript" xlink:href="svg.min.js"/>
<svg id="graph" class="graph">
<g id="graph0" class="graph" transform="scale(1 1) rotate(0) translate(4 189)">
<title>Acts::GeometryObjectSorterT&lt; T &gt;</title>
<!-- Node1 -->
<g id="Node000001" class="node">
<title>Node1</title>
<g id="a_Node000001"><a xlink:title=" ">
<polygon fill="#999999" stroke="#666666" points="217,-30 64,-30 64,0 217,0 217,-30"/>
<text text-anchor="start" x="72" y="-18" font-family="Helvetica,sans-Serif" font-size="10.00">Acts::GeometryObjectSorter</text>
<text text-anchor="middle" x="140.5" y="-7" font-family="Helvetica,sans-Serif" font-size="10.00">T&lt; T &gt;</text>
</a>
</g>
</g>
<!-- Node2 -->
<g id="Node000002" class="node">
<title>Node2</title>
<g id="a_Node000002"><a xlink:href="class_acts_1_1_object_sorter_t.html" target="_top" xlink:title=" ">
<polygon fill="white" stroke="#666666" points="127.5,-113 17.5,-113 17.5,-83 127.5,-83 127.5,-113"/>
<text text-anchor="start" x="25.5" y="-101" font-family="Helvetica,sans-Serif" font-size="10.00">Acts::ObjectSorterT</text>
<text text-anchor="middle" x="72.5" y="-90" font-family="Helvetica,sans-Serif" font-size="10.00">&lt; Vector3 &gt;</text>
</a>
</g>
</g>
<!-- Node2&#45;&gt;Node1 -->
<g id="edge1_Node000001_Node000002" class="edge">
<title>Node2&#45;&gt;Node1</title>
<g id="a_edge1_Node000001_Node000002"><a xlink:title=" ">
<path fill="none" stroke="#9a32cd" stroke-dasharray="5,2" d="M83.5,-73.67C88.11,-65.13 93.93,-55.68 100.5,-48 106.05,-41.51 113.06,-35.39 119.66,-30.27"/>
<polygon fill="#9a32cd" stroke="#9a32cd" points="80.27,-72.3 78.83,-82.79 86.5,-75.48 80.27,-72.3"/>
</a>
</g>
<text text-anchor="start" x="104" y="-53.5" font-family="Helvetica,sans-Serif" font-size="10.00" fill="grey">m_objectSorter</text>
</g>
<!-- Node3 -->
<g id="Node000003" class="node">
<title>Node3</title>
<g id="a_Node000003"><a xlink:href="class_acts_1_1_object_sorter_t.html" target="_top" xlink:title=" ">
<polygon fill="white" stroke="#666666" points="139,-185 0,-185 0,-166 139,-166 139,-185"/>
<text text-anchor="middle" x="69.5" y="-173" font-family="Helvetica,sans-Serif" font-size="10.00">Acts::ObjectSorterT&lt; T &gt;</text>
</a>
</g>
</g>
<!-- Node3&#45;&gt;Node2 -->
<g id="edge2_Node000002_Node000003" class="edge">
<title>Node3&#45;&gt;Node2</title>
<g id="a_edge2_Node000002_Node000003"><a xlink:title=" ">
<path fill="none" stroke="orange" stroke-dasharray="5,2" d="M70.25,-155.57C70.77,-142.43 71.46,-125.18 71.94,-113.21"/>
<polygon fill="orange" stroke="orange" points="66.74,-155.71 69.84,-165.84 73.74,-155.99 66.74,-155.71"/>
</a>
</g>
<text text-anchor="start" x="74.5" y="-136.5" font-family="Helvetica,sans-Serif" font-size="10.00" fill="grey">&lt; Vector3 &gt;</text>
</g>
<!-- Node4 -->
<g id="Node000004" class="node">
<title>Node4</title>
<g id="a_Node000004"><a xlink:title=" ">
<polygon fill="white" stroke="#666666" points="278,-113 151,-113 151,-83 278,-83 278,-113"/>
<text text-anchor="start" x="159" y="-101" font-family="Helvetica,sans-Serif" font-size="10.00">std::shared_ptr&lt; const</text>
<text text-anchor="middle" x="214.5" y="-90" font-family="Helvetica,sans-Serif" font-size="10.00"> Transform3 &gt;</text>
</a>
</g>
</g>
<!-- Node4&#45;&gt;Node1 -->
<g id="edge3_Node000001_Node000004" class="edge">
<title>Node4&#45;&gt;Node1</title>
<g id="a_edge3_Node000001_Node000004"><a xlink:title=" ">
<path fill="none" stroke="#9a32cd" stroke-dasharray="5,2" d="M201.33,-74.29C195.77,-65.61 188.87,-55.91 181.5,-48 175.47,-41.53 168.04,-35.32 161.18,-30.13"/>
<polygon fill="#9a32cd" stroke="#9a32cd" points="198.38,-76.17 206.6,-82.84 204.33,-72.49 198.38,-76.17"/>
</a>
</g>
<text text-anchor="start" x="198.5" y="-53.5" font-family="Helvetica,sans-Serif" font-size="10.00" fill="grey">m_transform</text>
</g>
<!-- Node5 -->
<g id="Node000005" class="node">
<title>Node5</title>
<g id="a_Node000005"><a xlink:title=" ">
<polygon fill="white" stroke="#666666" points="275.5,-185 157.5,-185 157.5,-166 275.5,-166 275.5,-185"/>
<text text-anchor="middle" x="216.5" y="-173" font-family="Helvetica,sans-Serif" font-size="10.00">std::shared_ptr&lt; T &gt;</text>
</a>
</g>
</g>
<!-- Node5&#45;&gt;Node4 -->
<g id="edge4_Node000004_Node000005" class="edge">
<title>Node5&#45;&gt;Node4</title>
<g id="a_edge4_Node000004_Node000005"><a xlink:title=" ">
<path fill="none" stroke="orange" stroke-dasharray="5,2" d="M216,-155.57C215.65,-142.43 215.19,-125.18 214.88,-113.21"/>
<polygon fill="orange" stroke="orange" points="212.51,-155.94 216.27,-165.84 219.5,-155.75 212.51,-155.94"/>
</a>
</g>
<text text-anchor="start" x="219" y="-136.5" font-family="Helvetica,sans-Serif" font-size="10.00" fill="grey">&lt; const Transform3 &gt;</text>
</g>
</g>
</svg>
</svg>

<style type='text/css'>
<![CDATA[
[data-mouse-over-selected='false'] { opacity: 0.7; }
[data-mouse-over-selected='true']  { opacity: 1.0; }
]]>
</style>
<script type="application/ecmascript"><![CDATA[
document.addEventListener('DOMContentLoaded', (event) => {
  highlightEdges();
  highlightAdjacentNodes();
});
]]></script>
</svg>
