<?xml version="1.0" encoding="UTF-8" standalone="no"?>
<!DOCTYPE svg PUBLIC "-//W3C//DTD SVG 1.1//EN"
 "http://www.w3.org/Graphics/SVG/1.1/DTD/svg11.dtd">
<!-- Generated by graphviz version 2.43.0 (0)
 -->
<!-- Title: Acts::Experimental::CylinderContainerBlueprintNode Pages: 1 -->
<!--zoomable 403 -->

<svg id="main" version="1.1" xmlns="http://www.w3.org/2000/svg" xmlns:xlink="http://www.w3.org/1999/xlink" xml:space="preserve" onload="init(evt)">

<style type="text/css"><![CDATA[
.node, .edge {opacity: 0.7;}
.node.selected, .edge.selected {opacity: 1;}
.edge:hover path { stroke: red; }
.edge:hover polygon { stroke: red; fill: red; }
]]></style>

<defs>
  <circle id="rim" cx="0" cy="0" r="7"/>
  <circle id="rim2" cx="0" cy="0" r="3.5"/>
  <g id="zoomPlus">
    <use xlink:href="#rim" fill="#404040"><set attributeName="fill" to="#808080" begin="zoomplus.mouseover" end="zoomplus.mouseout"/></use>
    <path d="M-4,0h8M0,-4v8" fill="none" stroke="white" stroke-width="1.5" pointer-events="none"/>
  </g>
  <g id="zoomMin">
    <use xlink:href="#rim" fill="#404040"><set attributeName="fill" to="#808080" begin="zoomminus.mouseover" end="zoomminus.mouseout"/></use>
    <path d="M-4,0h8" fill="none" stroke="white" stroke-width="1.5" pointer-events="none"/>
  </g>
  <g id="arrowUp" transform="translate(30 24)">
    <use xlink:href="#rim"/>
    <path pointer-events="none" fill="none" stroke="white" stroke-width="1.5" d="M0,-3.0v7 M-2.5,-0.5L0,-3.0L2.5,-0.5"/>
  </g>
  <g id="arrowRight" transform="rotate(90) translate(36 -43)">
    <use xlink:href="#rim"/>
    <path pointer-events="none" fill="none" stroke="white" stroke-width="1.5" d="M0,-3.0v7 M-2.5,-0.5L0,-3.0L2.5,-0.5"/>
  </g>
  <g id="arrowDown" transform="rotate(180) translate(-30 -48)">
    <use xlink:href="#rim"/>
    <path pointer-events="none" fill="none" stroke="white" stroke-width="1.5" d="M0,-3.0v7 M-2.5,-0.5L0,-3.0L2.5,-0.5"/>
  </g>
  <g id="arrowLeft" transform="rotate(270) translate(-36 17)">
    <use xlink:href="#rim"/>
    <path pointer-events="none" fill="none" stroke="white" stroke-width="1.5" d="M0,-3.0v7 M-2.5,-0.5L0,-3.0L2.5,-0.5"/>
  </g>
  <g id="resetDef">
    <use xlink:href="#rim2" fill="#404040"><set attributeName="fill" to="#808080" begin="reset.mouseover" end="reset.mouseout"/></use>
  </g>
</defs>
<script type="application/ecmascript">
var viewWidth = 1025;
var viewHeight = 403;
var sectionId = 'dynsection-1';
</script>
<script type="application/ecmascript" xlink:href="svg.min.js"/>
<svg id="graph" class="graph">
<g id="viewport">
<title>Acts::Experimental::CylinderContainerBlueprintNode</title>
<!-- Node1 -->
<g id="Node000001" class="node">
<title>Node1</title>
<g id="a_Node000001"><a xlink:title=" ">
<polygon fill="#999999" stroke="#666666" points="1017,-319 837,-319 837,-289 1017,-289 1017,-319"/>
<text text-anchor="start" x="845" y="-307" font-family="Helvetica,sans-Serif" font-size="10.00">Acts::Experimental</text>
<text text-anchor="middle" x="927" y="-296" font-family="Helvetica,sans-Serif" font-size="10.00">::CylinderContainerBlueprintNode</text>
</a>
</g>
</g>
<!-- Node2 -->
<g id="Node000002" class="node">
<title>Node2</title>
<g id="a_Node000002"><a xlink:href="class_acts_1_1_experimental_1_1_container_blueprint_node.html" target="_top" xlink:title="A blueprint node that can contain multiple child volumes.">
<polygon fill="white" stroke="#666666" points="800,-244 660,-244 660,-214 800,-214 800,-244"/>
<text text-anchor="start" x="668" y="-232" font-family="Helvetica,sans-Serif" font-size="10.00">Acts::Experimental</text>
<text text-anchor="middle" x="730" y="-221" font-family="Helvetica,sans-Serif" font-size="10.00">::ContainerBlueprintNode</text>
</a>
</g>
</g>
<!-- Node2&#45;&gt;Node1 -->
<g id="edge1_Node000001_Node000002" class="edge">
<title>Node2&#45;&gt;Node1</title>
<g id="a_edge1_Node000001_Node000002"><a xlink:title=" ">
<path fill="none" stroke="#63b8ff" d="M779.95,-247.83C813.03,-260.55 856.14,-277.13 886.93,-288.97"/>
<polygon fill="#63b8ff" stroke="#63b8ff" points="781.05,-244.5 770.46,-244.18 778.54,-251.03 781.05,-244.5"/>
</a>
</g>
</g>
<!-- Node3 -->
<g id="Node000003" class="node">
<title>Node3</title>
<g id="a_Node000003"><a xlink:href="class_acts_1_1_experimental_1_1_blueprint_node.html" target="_top" xlink:title="Base class for all nodes in the blueprint tree.">
<polygon fill="white" stroke="#666666" points="466.5,-352 357.5,-352 357.5,-322 466.5,-322 466.5,-352"/>
<text text-anchor="start" x="365.5" y="-340" font-family="Helvetica,sans-Serif" font-size="10.00">Acts::Experimental</text>
<text text-anchor="middle" x="412" y="-329" font-family="Helvetica,sans-Serif" font-size="10.00">::BlueprintNode</text>
</a>
</g>
</g>
<!-- Node3&#45;&gt;Node2 -->
<g id="edge2_Node000002_Node000003" class="edge">
<title>Node3&#45;&gt;Node2</title>
<g id="a_edge2_Node000002_Node000003"><a xlink:title=" ">
<path fill="none" stroke="#63b8ff" d="M476.61,-329.6C523.68,-322.59 588.61,-309.67 642,-287 667.73,-276.08 693.99,-257.31 710.83,-244.08"/>
<polygon fill="#63b8ff" stroke="#63b8ff" points="475.95,-326.16 466.55,-331.05 476.95,-333.09 475.95,-326.16"/>
</a>
</g>
</g>
<!-- Node4 -->
<g id="Node000004" class="node">
<title>Node4</title>
<g id="a_Node000004"><a xlink:title=" ">
<polygon fill="white" stroke="#666666" points="444.5,-389.5 379.5,-389.5 379.5,-370.5 444.5,-370.5 444.5,-389.5"/>
<text text-anchor="middle" x="412" y="-377.5" font-family="Helvetica,sans-Serif" font-size="10.00">std::string</text>
</a>
</g>
</g>
<!-- Node4&#45;&gt;Node1 -->
<g id="edge17_Node000001_Node000004" class="edge">
<title>Node4&#45;&gt;Node1</title>
<g id="a_edge17_Node000001_Node000004"><a xlink:title=" ">
<path fill="none" stroke="#9a32cd" stroke-dasharray="5,2" d="M454.83,-379.37C500.89,-378.23 577.03,-375.02 642,-366 721.73,-354.93 812.35,-333.58 869.35,-319.07"/>
<polygon fill="#9a32cd" stroke="#9a32cd" points="454.56,-375.88 444.64,-379.6 454.71,-382.87 454.56,-375.88"/>
</a>
</g>
<text text-anchor="start" x="699" y="-369.5" font-family="Helvetica,sans-Serif" font-size="10.00" fill="grey">s_typeName</text>
</g>
<!-- Node4&#45;&gt;Node2 -->
<g id="edge3_Node000002_Node000004" class="edge">
<title>Node4&#45;&gt;Node2</title>
<g id="a_edge3_Node000002_Node000004"><a xlink:title=" ">
<path fill="none" stroke="#9a32cd" stroke-dasharray="5,2" d="M454.62,-377.03C475.95,-374.48 501.99,-369.76 524,-361 532.93,-357.44 533.34,-353.17 542,-349 584.04,-328.75 602.23,-341.41 642,-317 673.86,-297.45 702.6,-263.82 717.75,-244.28"/>
<polygon fill="#9a32cd" stroke="#9a32cd" points="454.14,-373.56 444.57,-378.11 454.89,-380.52 454.14,-373.56"/>
</a>
</g>
<text text-anchor="start" x="571" y="-354.5" font-family="Helvetica,sans-Serif" font-size="10.00" fill="grey">m_name</text>
</g>
<!-- Node5 -->
<g id="Node000005" class="node">
<title>Node5</title>
<g id="a_Node000005"><a xlink:title=" ">
<polygon fill="white" stroke="#666666" points="111,-395 7,-395 7,-365 111,-365 111,-395"/>
<text text-anchor="start" x="15" y="-383" font-family="Helvetica,sans-Serif" font-size="10.00">std::basic_string&lt;</text>
<text text-anchor="middle" x="59" y="-372" font-family="Helvetica,sans-Serif" font-size="10.00"> Char &gt;</text>
</a>
</g>
</g>
<!-- Node5&#45;&gt;Node4 -->
<g id="edge4_Node000004_Node000005" class="edge">
<title>Node5&#45;&gt;Node4</title>
<g id="a_edge4_Node000004_Node000005"><a xlink:title=" ">
<path fill="none" stroke="#63b8ff" d="M121.31,-380C196.49,-380 321.08,-380 379.25,-380"/>
<polygon fill="#63b8ff" stroke="#63b8ff" points="121.04,-376.5 111.04,-380 121.04,-383.5 121.04,-376.5"/>
</a>
</g>
</g>
<!-- Node6 -->
<g id="Node000006" class="node">
<title>Node6</title>
<g id="a_Node000006"><a xlink:title=" ">
<polygon fill="white" stroke="#666666" points="502.5,-244 321.5,-244 321.5,-214 502.5,-214 502.5,-244"/>
<text text-anchor="start" x="329.5" y="-232" font-family="Helvetica,sans-Serif" font-size="10.00">std::pair&lt; VolumeResizeStrategy,</text>
<text text-anchor="middle" x="412" y="-221" font-family="Helvetica,sans-Serif" font-size="10.00"> VolumeResizeStrategy &gt;</text>
</a>
</g>
</g>
<!-- Node6&#45;&gt;Node2 -->
<g id="edge5_Node000002_Node000006" class="edge">
<title>Node6&#45;&gt;Node2</title>
<g id="a_edge5_Node000002_Node000006"><a xlink:title=" ">
<path fill="none" stroke="#9a32cd" stroke-dasharray="5,2" d="M512.79,-229C560.67,-229 616.84,-229 659.92,-229"/>
<polygon fill="#9a32cd" stroke="#9a32cd" points="512.71,-225.5 502.71,-229 512.71,-232.5 512.71,-225.5"/>
</a>
</g>
<text text-anchor="start" x="545" y="-234.5" font-family="Helvetica,sans-Serif" font-size="10.00" fill="grey">m_resizeStrategies</text>
</g>
<!-- Node7 -->
<g id="Node000007" class="node">
<title>Node7</title>
<g id="a_Node000007"><a xlink:title=" ">
<polygon fill="white" stroke="#666666" points="113.5,-241.5 4.5,-241.5 4.5,-222.5 113.5,-222.5 113.5,-241.5"/>
<text text-anchor="middle" x="59" y="-229.5" font-family="Helvetica,sans-Serif" font-size="10.00">std::pair&lt; T1, T2 &gt;</text>
</a>
</g>
</g>
<!-- Node7&#45;&gt;Node6 -->
<g id="edge6_Node000006_Node000007" class="edge">
<title>Node7&#45;&gt;Node6</title>
<g id="a_edge6_Node000006_Node000007"><a xlink:title=" ">
<path fill="none" stroke="orange" stroke-dasharray="5,2" d="M123.71,-231.46C179.02,-230.98 259.7,-230.29 321.49,-229.77"/>
<polygon fill="orange" stroke="orange" points="123.66,-227.96 113.69,-231.54 123.72,-234.96 123.66,-227.96"/>
</a>
</g>
<text text-anchor="start" x="144" y="-253" font-family="Helvetica,sans-Serif" font-size="10.00" fill="grey">&lt; VolumeResizeStrategy,</text>
<text text-anchor="start" x="144" y="-238" font-family="Helvetica,sans-Serif" font-size="10.00" fill="grey">   VolumeResizeStrategy &gt;</text>
</g>
<!-- Node8 -->
<g id="Node000008" class="node">
<title>Node8</title>
<g id="a_Node000008"><a xlink:title=" ">
<polygon fill="white" stroke="#666666" points="465.5,-126 358.5,-126 358.5,-96 465.5,-96 465.5,-126"/>
<text text-anchor="start" x="366.5" y="-114" font-family="Helvetica,sans-Serif" font-size="10.00">std::vector&lt; Acts::</text>
<text text-anchor="middle" x="412" y="-103" font-family="Helvetica,sans-Serif" font-size="10.00">Volume * &gt;</text>
</a>
</g>
</g>
<!-- Node8&#45;&gt;Node2 -->
<g id="edge7_Node000002_Node000008" class="edge">
<title>Node8&#45;&gt;Node2</title>
<g id="a_edge7_Node000002_Node000008"><a xlink:title=" ">
<path fill="none" stroke="#9a32cd" stroke-dasharray="5,2" d="M475.98,-120.57C523.27,-129.31 588.76,-144.8 642,-170 667.24,-181.95 693.38,-200.69 710.34,-213.83"/>
<polygon fill="#9a32cd" stroke="#9a32cd" points="476.34,-117.08 465.88,-118.75 475.1,-123.97 476.34,-117.08"/>
</a>
</g>
<text text-anchor="start" x="552" y="-175.5" font-family="Helvetica,sans-Serif" font-size="10.00" fill="grey">m_childVolumes</text>
</g>
<!-- Node9 -->
<g id="Node000009" class="node">
<title>Node9</title>
<g id="a_Node000009"><a xlink:title=" ">
<polygon fill="white" stroke="#666666" points="107.5,-136.5 10.5,-136.5 10.5,-117.5 107.5,-117.5 107.5,-136.5"/>
<text text-anchor="middle" x="59" y="-124.5" font-family="Helvetica,sans-Serif" font-size="10.00">std::vector&lt; T &gt;</text>
</a>
</g>
</g>
<!-- Node9&#45;&gt;Node8 -->
<g id="edge8_Node000008_Node000009" class="edge">
<title>Node9&#45;&gt;Node8</title>
<g id="a_edge8_Node000008_Node000009"><a xlink:title=" ">
<path fill="none" stroke="orange" stroke-dasharray="5,2" d="M100.43,-114.94C111.83,-112.08 124.31,-109.44 136,-108 212.89,-98.53 302.78,-102.27 358.31,-106.28"/>
<polygon fill="orange" stroke="orange" points="99.52,-111.56 90.74,-117.49 101.3,-118.33 99.52,-111.56"/>
</a>
</g>
<text text-anchor="start" x="162" y="-113.5" font-family="Helvetica,sans-Serif" font-size="10.00" fill="grey">&lt; Acts::Volume * &gt;</text>
</g>
<!-- Node15 -->
<g id="Node000015" class="node">
<title>Node15</title>
<g id="a_Node000015"><a xlink:title=" ">
<polygon fill="white" stroke="#666666" points="524,-196 300,-196 300,-144 524,-144 524,-196"/>
<text text-anchor="start" x="308" y="-184" font-family="Helvetica,sans-Serif" font-size="10.00">std::vector&lt; std::pair</text>
<text text-anchor="start" x="308" y="-173" font-family="Helvetica,sans-Serif" font-size="10.00">&lt; std::unique_ptr&lt; Acts</text>
<text text-anchor="start" x="308" y="-162" font-family="Helvetica,sans-Serif" font-size="10.00">::PortalShellBase &gt;, std</text>
<text text-anchor="middle" x="412" y="-151" font-family="Helvetica,sans-Serif" font-size="10.00">::unique_ptr&lt; Acts::TrackingVolume &gt; &gt; &gt;</text>
</a>
</g>
</g>
<!-- Node9&#45;&gt;Node15 -->
<g id="edge16_Node000015_Node000009" class="edge">
<title>Node9&#45;&gt;Node15</title>
<g id="a_edge16_Node000015_Node000009"><a xlink:title=" ">
<path fill="none" stroke="orange" stroke-dasharray="5,2" d="M117.86,-134.09C167.15,-140.13 239.38,-148.98 299.81,-156.38"/>
<polygon fill="orange" stroke="orange" points="118.05,-130.59 107.7,-132.84 117.2,-137.53 118.05,-130.59"/>
</a>
</g>
<text text-anchor="start" x="139" y="-205" font-family="Helvetica,sans-Serif" font-size="10.00" fill="grey">&lt; std::pair&lt; std::unique</text>
<text text-anchor="start" x="139" y="-190" font-family="Helvetica,sans-Serif" font-size="10.00" fill="grey">  _ptr&lt; Acts::PortalShellBase</text>
<text text-anchor="start" x="139" y="-175" font-family="Helvetica,sans-Serif" font-size="10.00" fill="grey">   &gt;, std::unique_ptr&lt; Acts</text>
<text text-anchor="start" x="139" y="-160" font-family="Helvetica,sans-Serif" font-size="10.00" fill="grey">  ::TrackingVolume &gt; &gt; &gt;</text>
</g>
<!-- Node10 -->
<g id="Node000010" class="node">
<title>Node10</title>
<g id="a_Node000010"><a xlink:title=" ">
<polygon fill="white" stroke="#666666" points="473,-30 351,-30 351,0 473,0 473,-30"/>
<text text-anchor="start" x="359" y="-18" font-family="Helvetica,sans-Serif" font-size="10.00">std::unique_ptr&lt; Acts</text>
<text text-anchor="middle" x="412" y="-7" font-family="Helvetica,sans-Serif" font-size="10.00">::VolumeStack &gt;</text>
</a>
</g>
</g>
<!-- Node10&#45;&gt;Node2 -->
<g id="edge9_Node000002_Node000010" class="edge">
<title>Node10&#45;&gt;Node2</title>
<g id="a_edge9_Node000002_Node000010"><a xlink:title=" ">
<path fill="none" stroke="#9a32cd" stroke-dasharray="5,2" d="M483.49,-12.18C532.4,-13.73 596.66,-23.11 642,-57 695.74,-97.17 718.67,-179.93 726.08,-213.92"/>
<polygon fill="#9a32cd" stroke="#9a32cd" points="483.37,-8.68 473.29,-11.97 483.22,-15.68 483.37,-8.68"/>
</a>
</g>
<text text-anchor="start" x="571" y="-62.5" font-family="Helvetica,sans-Serif" font-size="10.00" fill="grey">m_stack</text>
</g>
<!-- Node11 -->
<g id="Node000011" class="node">
<title>Node11</title>
<g id="a_Node000011"><a xlink:title=" ">
<polygon fill="white" stroke="#666666" points="118,-48.5 0,-48.5 0,-29.5 118,-29.5 118,-48.5"/>
<text text-anchor="middle" x="59" y="-36.5" font-family="Helvetica,sans-Serif" font-size="10.00">std::unique_ptr&lt; T &gt;</text>
</a>
</g>
</g>
<!-- Node11&#45;&gt;Node10 -->
<g id="edge10_Node000010_Node000011" class="edge">
<title>Node11&#45;&gt;Node10</title>
<g id="a_edge10_Node000010_Node000011"><a xlink:title=" ">
<path fill="none" stroke="orange" stroke-dasharray="5,2" d="M101.4,-26.85C112.54,-24.07 124.64,-21.5 136,-20 209.49,-10.27 294.99,-10.51 350.89,-12.19"/>
<polygon fill="orange" stroke="orange" points="100.29,-23.52 91.49,-29.42 102.05,-30.29 100.29,-23.52"/>
</a>
</g>
<text text-anchor="start" x="152" y="-25.5" font-family="Helvetica,sans-Serif" font-size="10.00" fill="grey">&lt; Acts::VolumeStack &gt;</text>
</g>
<!-- Node14 -->
<g id="Node000014" class="node">
<title>Node14</title>
<g id="a_Node000014"><a xlink:title=" ">
<polygon fill="white" stroke="#666666" points="473,-78 351,-78 351,-48 473,-48 473,-78"/>
<text text-anchor="start" x="359" y="-66" font-family="Helvetica,sans-Serif" font-size="10.00">std::unique_ptr&lt; Acts</text>
<text text-anchor="middle" x="412" y="-55" font-family="Helvetica,sans-Serif" font-size="10.00">::PortalShellBase &gt;</text>
</a>
</g>
</g>
<!-- Node11&#45;&gt;Node14 -->
<g id="edge14_Node000014_Node000011" class="edge">
<title>Node11&#45;&gt;Node14</title>
<g id="a_edge14_Node000014_Node000011"><a xlink:title=" ">
<path fill="none" stroke="orange" stroke-dasharray="5,2" d="M128.44,-43.68C193.04,-48.1 288.96,-54.66 350.74,-58.88"/>
<polygon fill="orange" stroke="orange" points="128.57,-40.18 118.35,-42.99 128.09,-47.16 128.57,-40.18"/>
</a>
</g>
<text text-anchor="start" x="146" y="-59.5" font-family="Helvetica,sans-Serif" font-size="10.00" fill="grey">&lt; Acts::PortalShellBase &gt;</text>
</g>
<!-- Node12 -->
<g id="Node000012" class="node">
<title>Node12</title>
<g id="a_Node000012"><a xlink:title=" ">
<polygon fill="white" stroke="#666666" points="495,-303.5 329,-303.5 329,-262.5 495,-262.5 495,-303.5"/>
<text text-anchor="start" x="337" y="-291.5" font-family="Helvetica,sans-Serif" font-size="10.00">std::map&lt; const Acts</text>
<text text-anchor="start" x="337" y="-280.5" font-family="Helvetica,sans-Serif" font-size="10.00">::Volume *, Acts::Experimental</text>
<text text-anchor="middle" x="412" y="-269.5" font-family="Helvetica,sans-Serif" font-size="10.00">::BlueprintNode * &gt;</text>
</a>
</g>
</g>
<!-- Node12&#45;&gt;Node2 -->
<g id="edge11_Node000002_Node000012" class="edge">
<title>Node12&#45;&gt;Node2</title>
<g id="a_edge11_Node000002_Node000012"><a xlink:title=" ">
<path fill="none" stroke="#9a32cd" stroke-dasharray="5,2" d="M505.1,-271.73C547.02,-266.09 597.17,-258.62 642,-250 651,-248.27 660.48,-246.22 669.73,-244.09"/>
<polygon fill="#9a32cd" stroke="#9a32cd" points="504.64,-268.26 495.19,-273.05 505.56,-275.2 504.64,-268.26"/>
</a>
</g>
<text text-anchor="start" x="548" y="-271.5" font-family="Helvetica,sans-Serif" font-size="10.00" fill="grey">m_volumeToNode</text>
</g>
<!-- Node13 -->
<g id="Node000013" class="node">
<title>Node13</title>
<g id="a_Node000013"><a xlink:title=" ">
<polygon fill="white" stroke="#666666" points="109.5,-296.5 8.5,-296.5 8.5,-277.5 109.5,-277.5 109.5,-296.5"/>
<text text-anchor="middle" x="59" y="-284.5" font-family="Helvetica,sans-Serif" font-size="10.00">std::map&lt; K, T &gt;</text>
</a>
</g>
</g>
<!-- Node13&#45;&gt;Node12 -->
<g id="edge12_Node000012_Node000013" class="edge">
<title>Node13&#45;&gt;Node12</title>
<g id="a_edge12_Node000012_Node000013"><a xlink:title=" ">
<path fill="none" stroke="orange" stroke-dasharray="5,2" d="M119.58,-286.32C177.13,-285.67 264.78,-284.67 328.93,-283.94"/>
<polygon fill="orange" stroke="orange" points="119.5,-282.82 109.55,-286.44 119.58,-289.82 119.5,-282.82"/>
</a>
</g>
<text text-anchor="start" x="153" y="-322.5" font-family="Helvetica,sans-Serif" font-size="10.00" fill="grey">&lt; const Acts::Volume</text>
<text text-anchor="start" x="153" y="-307.5" font-family="Helvetica,sans-Serif" font-size="10.00" fill="grey">   *, Acts::Experimental</text>
<text text-anchor="start" x="153" y="-292.5" font-family="Helvetica,sans-Serif" font-size="10.00" fill="grey">  ::BlueprintNode * &gt;</text>
</g>
<!-- Node14&#45;&gt;Node2 -->
<g id="edge13_Node000002_Node000014" class="edge">
<title>Node14&#45;&gt;Node2</title>
<g id="a_edge13_Node000002_Node000014"><a xlink:title=" ">
<path fill="none" stroke="#9a32cd" stroke-dasharray="5,2" d="M483.37,-66.36C531.37,-71.52 594.6,-84.22 642,-115 680.84,-140.22 709.17,-188.97 721.75,-213.75"/>
<polygon fill="#9a32cd" stroke="#9a32cd" points="483.66,-62.87 473.37,-65.36 482.97,-69.83 483.66,-62.87"/>
</a>
</g>
<text text-anchor="start" x="573" y="-120.5" font-family="Helvetica,sans-Serif" font-size="10.00" fill="grey">m_shell</text>
</g>
<!-- Node15&#45;&gt;Node2 -->
<g id="edge15_Node000002_Node000015" class="edge">
<title>Node15&#45;&gt;Node2</title>
<g id="a_edge15_Node000002_Node000015"><a xlink:title=" ">
<path fill="none" stroke="#9a32cd" stroke-dasharray="5,2" d="M534.46,-188.47C569.28,-194.22 607.22,-200.93 642,-208 650.83,-209.8 660.13,-211.86 669.22,-213.97"/>
<polygon fill="#9a32cd" stroke="#9a32cd" points="534.68,-184.96 524.24,-186.8 533.54,-191.87 534.68,-184.96"/>
</a>
</g>
<text text-anchor="start" x="573" y="-213.5" font-family="Helvetica,sans-Serif" font-size="10.00" fill="grey">m_gaps</text>
</g>
</g>
</svg>

<g id="navigator" transform="translate(0 0)" fill="#404254">
  <rect fill="#f2f5e9" fill-opacity="0.5" stroke="#606060" stroke-width=".5" x="0" y="0" width="60" height="60"/>
  <use id="zoomplus" xlink:href="#zoomPlus" x="17" y="9" onmousedown="handleZoom(evt,'in')"/>
  <use id="zoomminus" xlink:href="#zoomMin" x="42" y="9" onmousedown="handleZoom(evt,'out')"/>
  <use id="reset" xlink:href="#resetDef" x="30" y="36" onmousedown="handleReset()"/>
   <use id="arrowup" xlink:href="#arrowUp" x="0" y="0" onmousedown="handlePan(0,-1)"/>
  <use id="arrowright" xlink:href="#arrowRight" x="0" y="0" onmousedown="handlePan(1,0)"/>
  <use id="arrowdown" xlink:href="#arrowDown" x="0" y="0" onmousedown="handlePan(0,1)"/>
  <use id="arrowleft" xlink:href="#arrowLeft" x="0" y="0" onmousedown="handlePan(-1,0)"/>
</g>
<svg viewBox="0 0 15 15" width="100%" height="30px" preserveAspectRatio="xMaxYMin meet">
 <g id="arrow_out" transform="scale(0.3 0.3)">
  <a xlink:href="class_acts_1_1_experimental_1_1_cylinder_container_blueprint_node__coll__graph_org.svg" target="_base">
   <rect id="button" ry="5" rx="5" y="6" x="6" height="38" width="38"
        fill="#f2f5e9" fill-opacity="0.5" stroke="#606060" stroke-width="1.0"/>
   <path id="arrow"
     d="M 11.500037,31.436501 C 11.940474,20.09759 22.043105,11.32322 32.158766,21.979434 L 37.068811,17.246167 C 37.068811,17.246167 37.088388,32 37.088388,32 L 22.160133,31.978069 C 22.160133,31.978069 26.997745,27.140456 26.997745,27.140456 C 18.528582,18.264221 13.291696,25.230495 11.500037,31.436501 z"
     style="fill:#404040;"/>
  </a>
 </g>
</svg>

<style type='text/css'>
<![CDATA[
[data-mouse-over-selected='false'] { opacity: 0.7; }
[data-mouse-over-selected='true']  { opacity: 1.0; }
]]>
</style>
<script type="application/ecmascript"><![CDATA[
document.addEventListener('DOMContentLoaded', (event) => {
  highlightEdges();
  highlightAdjacentNodes();
});
]]></script>
</svg>
