<?xml version="1.0" encoding="UTF-8" standalone="no"?>
<!DOCTYPE svg PUBLIC "-//W3C//DTD SVG 1.1//EN"
 "http://www.w3.org/Graphics/SVG/1.1/DTD/svg11.dtd">
<!-- Generated by graphviz version 2.43.0 (0)
 -->
<!-- Title: ActsPlugins::TrackBuildingBase Pages: 1 -->
<svg width="368pt" height="82pt"
 viewBox="0.00 0.00 367.50 82.00" xmlns="http://www.w3.org/2000/svg" xmlns:xlink="http://www.w3.org/1999/xlink">
<g id="graph0" class="graph" transform="scale(1 1) rotate(0) translate(4 78)">
<title>ActsPlugins::TrackBuildingBase</title>
<!-- Node1 -->
<g id="Node000001" class="node">
<title>Node1</title>
<g id="a_Node000001"><a xlink:title=" ">
<polygon fill="#999999" stroke="#666666" points="264,-74 96,-74 96,-55 264,-55 264,-74"/>
<text text-anchor="middle" x="180" y="-62" font-family="Helvetica,sans-Serif" font-size="10.00">ActsPlugins::TrackBuildingBase</text>
</a>
</g>
</g>
<!-- Node2 -->
<g id="Node000002" class="node">
<title>Node2</title>
<g id="a_Node000002"><a xlink:href="class_acts_plugins_1_1_boost_track_building.html" target="_top" xlink:title=" ">
<polygon fill="white" stroke="#666666" points="172,-19 0,-19 0,0 172,0 172,-19"/>
<text text-anchor="middle" x="86" y="-7" font-family="Helvetica,sans-Serif" font-size="10.00">ActsPlugins::BoostTrackBuilding</text>
</a>
</g>
</g>
<!-- Node1&#45;&gt;Node2 -->
<g id="edge1_Node000001_Node000002" class="edge">
<title>Node1&#45;&gt;Node2</title>
<g id="a_edge1_Node000001_Node000002"><a xlink:title=" ">
<path fill="none" stroke="#63b8ff" d="M156,-49.97C138.81,-40.28 116.19,-27.52 101.38,-19.17"/>
<polygon fill="#63b8ff" stroke="#63b8ff" points="154.47,-53.12 164.9,-54.98 157.91,-47.02 154.47,-53.12"/>
</a>
</g>
</g>
<!-- Node3 -->
<g id="Node000003" class="node">
<title>Node3</title>
<g id="a_Node000003"><a xlink:href="class_acts_plugins_1_1_cuda_track_building.html" target="_top" xlink:title=" ">
<polygon fill="white" stroke="#666666" points="359.5,-19 190.5,-19 190.5,0 359.5,0 359.5,-19"/>
<text text-anchor="middle" x="275" y="-7" font-family="Helvetica,sans-Serif" font-size="10.00">ActsPlugins::CudaTrackBuilding</text>
</a>
</g>
</g>
<!-- Node1&#45;&gt;Node3 -->
<g id="edge2_Node000001_Node000003" class="edge">
<title>Node1&#45;&gt;Node3</title>
<g id="a_edge2_Node000001_Node000003"><a xlink:title=" ">
<path fill="none" stroke="#63b8ff" d="M204.26,-49.97C221.63,-40.28 244.49,-27.52 259.46,-19.17"/>
<polygon fill="#63b8ff" stroke="#63b8ff" points="202.29,-47.06 195.26,-54.98 205.7,-53.17 202.29,-47.06"/>
</a>
</g>
</g>
</g>
</svg>
