<?xml version="1.0" encoding="UTF-8" standalone="no"?>
<!DOCTYPE svg PUBLIC "-//W3C//DTD SVG 1.1//EN"
 "http://www.w3.org/Graphics/SVG/1.1/DTD/svg11.dtd">
<!-- Generated by graphviz version 2.43.0 (0)
 -->
<!-- Title: Acts::ConvexPolygonBounds&lt; N &gt; Pages: 1 -->
<svg width="193pt" height="192pt"
 viewBox="0.00 0.00 193.00 192.00" xmlns="http://www.w3.org/2000/svg" xmlns:xlink="http://www.w3.org/1999/xlink">
<g id="graph0" class="graph" transform="scale(1 1) rotate(0) translate(4 188)">
<title>Acts::ConvexPolygonBounds&lt; N &gt;</title>
<!-- Node1 -->
<g id="Node000001" class="node">
<title>Node1</title>
<g id="a_Node000001"><a xlink:title="This is the actual implementation of the bounds.">
<polygon fill="#999999" stroke="#666666" points="185,-19 0,-19 0,0 185,0 185,-19"/>
<text text-anchor="middle" x="92.5" y="-7" font-family="Helvetica,sans-Serif" font-size="10.00">Acts::ConvexPolygonBounds&lt; N &gt;</text>
</a>
</g>
</g>
<!-- Node2 -->
<g id="Node000002" class="node">
<title>Node2</title>
<g id="a_Node000002"><a xlink:href="class_acts_1_1_convex_polygon_bounds_base.html" target="_top" xlink:title="base class for convex polygon bounds">
<polygon fill="white" stroke="#666666" points="182,-74 3,-74 3,-55 182,-55 182,-74"/>
<text text-anchor="middle" x="92.5" y="-62" font-family="Helvetica,sans-Serif" font-size="10.00">Acts::ConvexPolygonBoundsBase</text>
</a>
</g>
</g>
<!-- Node2&#45;&gt;Node1 -->
<g id="edge1_Node000001_Node000002" class="edge">
<title>Node2&#45;&gt;Node1</title>
<g id="a_edge1_Node000001_Node000002"><a xlink:title=" ">
<path fill="none" stroke="#63b8ff" d="M92.5,-44.66C92.5,-35.93 92.5,-25.99 92.5,-19.09"/>
<polygon fill="#63b8ff" stroke="#63b8ff" points="89,-44.75 92.5,-54.75 96,-44.75 89,-44.75"/>
</a>
</g>
</g>
<!-- Node3 -->
<g id="Node000003" class="node">
<title>Node3</title>
<g id="a_Node000003"><a xlink:href="class_acts_1_1_planar_bounds.html" target="_top" xlink:title="common base class for all bounds that are in a local x/y cartesian frame">
<polygon fill="white" stroke="#666666" points="147.5,-129 37.5,-129 37.5,-110 147.5,-110 147.5,-129"/>
<text text-anchor="middle" x="92.5" y="-117" font-family="Helvetica,sans-Serif" font-size="10.00">Acts::PlanarBounds</text>
</a>
</g>
</g>
<!-- Node3&#45;&gt;Node2 -->
<g id="edge2_Node000002_Node000003" class="edge">
<title>Node3&#45;&gt;Node2</title>
<g id="a_edge2_Node000002_Node000003"><a xlink:title=" ">
<path fill="none" stroke="#63b8ff" d="M92.5,-99.66C92.5,-90.93 92.5,-80.99 92.5,-74.09"/>
<polygon fill="#63b8ff" stroke="#63b8ff" points="89,-99.75 92.5,-109.75 96,-99.75 89,-99.75"/>
</a>
</g>
</g>
<!-- Node4 -->
<g id="Node000004" class="node">
<title>Node4</title>
<g id="a_Node000004"><a xlink:href="class_acts_1_1_surface_bounds.html" target="_top" xlink:title="Interface for surface bounds.">
<polygon fill="white" stroke="#666666" points="150.5,-184 34.5,-184 34.5,-165 150.5,-165 150.5,-184"/>
<text text-anchor="middle" x="92.5" y="-172" font-family="Helvetica,sans-Serif" font-size="10.00">Acts::SurfaceBounds</text>
</a>
</g>
</g>
<!-- Node4&#45;&gt;Node3 -->
<g id="edge3_Node000003_Node000004" class="edge">
<title>Node4&#45;&gt;Node3</title>
<g id="a_edge3_Node000003_Node000004"><a xlink:title=" ">
<path fill="none" stroke="#63b8ff" d="M92.5,-154.66C92.5,-145.93 92.5,-135.99 92.5,-129.09"/>
<polygon fill="#63b8ff" stroke="#63b8ff" points="89,-154.75 92.5,-164.75 96,-154.75 89,-154.75"/>
</a>
</g>
</g>
</g>
</svg>
