<?xml version="1.0" encoding="UTF-8" standalone="no"?>
<!DOCTYPE svg PUBLIC "-//W3C//DTD SVG 1.1//EN"
 "http://www.w3.org/Graphics/SVG/1.1/DTD/svg11.dtd">
<!-- Generated by graphviz version 2.43.0 (0)
 -->
<!-- Title: Acts::DiscLayer Pages: 1 -->
<svg width="278pt" height="258pt"
 viewBox="0.00 0.00 278.00 258.00" xmlns="http://www.w3.org/2000/svg" xmlns:xlink="http://www.w3.org/1999/xlink">
<g id="graph0" class="graph" transform="scale(1 1) rotate(0) translate(4 254)">
<title>Acts::DiscLayer</title>
<!-- Node1 -->
<g id="Node000001" class="node">
<title>Node1</title>
<g id="a_Node000001"><a xlink:title="Class to describe a disc&#45;like detector layer for tracking, it inhertis from both, Layer base class an...">
<polygon fill="#999999" stroke="#666666" points="197,-19 105,-19 105,0 197,0 197,-19"/>
<text text-anchor="middle" x="151" y="-7" font-family="Helvetica,sans-Serif" font-size="10.00">Acts::DiscLayer</text>
</a>
</g>
</g>
<!-- Node2 -->
<g id="Node000002" class="node">
<title>Node2</title>
<g id="a_Node000002"><a xlink:href="class_acts_1_1_disc_surface.html" target="_top" xlink:title="Class for a disc surface (or a segment thereof).">
<polygon fill="white" stroke="#666666" points="162.5,-74 61.5,-74 61.5,-55 162.5,-55 162.5,-74"/>
<text text-anchor="middle" x="112" y="-62" font-family="Helvetica,sans-Serif" font-size="10.00">Acts::DiscSurface</text>
</a>
</g>
</g>
<!-- Node2&#45;&gt;Node1 -->
<g id="edge1_Node000001_Node000002" class="edge">
<title>Node2&#45;&gt;Node1</title>
<g id="a_edge1_Node000001_Node000002"><a xlink:title=" ">
<path fill="none" stroke="#63b8ff" d="M124.38,-46.67C131.14,-37.5 139.21,-26.52 144.68,-19.09"/>
<polygon fill="#63b8ff" stroke="#63b8ff" points="121.55,-44.62 118.44,-54.75 127.19,-48.77 121.55,-44.62"/>
</a>
</g>
</g>
<!-- Node3 -->
<g id="Node000003" class="node">
<title>Node3</title>
<g id="a_Node000003"><a xlink:href="class_acts_1_1_regular_surface.html" target="_top" xlink:title="A physical surface which does not depend on the direction you look at it from.">
<polygon fill="white" stroke="#666666" points="154,-129 36,-129 36,-110 154,-110 154,-129"/>
<text text-anchor="middle" x="95" y="-117" font-family="Helvetica,sans-Serif" font-size="10.00">Acts::RegularSurface</text>
</a>
</g>
</g>
<!-- Node3&#45;&gt;Node2 -->
<g id="edge2_Node000002_Node000003" class="edge">
<title>Node3&#45;&gt;Node2</title>
<g id="a_edge2_Node000002_Node000003"><a xlink:title=" ">
<path fill="none" stroke="#63b8ff" d="M100.95,-99.95C103.77,-91.15 107.01,-81.06 109.25,-74.09"/>
<polygon fill="#63b8ff" stroke="#63b8ff" points="97.53,-99.16 97.81,-109.75 104.19,-101.29 97.53,-99.16"/>
</a>
</g>
</g>
<!-- Node4 -->
<g id="Node000004" class="node">
<title>Node4</title>
<g id="a_Node000004"><a xlink:href="class_acts_1_1_surface.html" target="_top" xlink:title="Abstract Base Class for tracking surfaces.">
<polygon fill="white" stroke="#666666" points="135,-184 55,-184 55,-165 135,-165 135,-184"/>
<text text-anchor="middle" x="95" y="-172" font-family="Helvetica,sans-Serif" font-size="10.00">Acts::Surface</text>
</a>
</g>
</g>
<!-- Node4&#45;&gt;Node3 -->
<g id="edge3_Node000003_Node000004" class="edge">
<title>Node4&#45;&gt;Node3</title>
<g id="a_edge3_Node000003_Node000004"><a xlink:title=" ">
<path fill="none" stroke="#63b8ff" d="M95,-154.66C95,-145.93 95,-135.99 95,-129.09"/>
<polygon fill="#63b8ff" stroke="#63b8ff" points="91.5,-154.75 95,-164.75 98.5,-154.75 91.5,-154.75"/>
</a>
</g>
</g>
<!-- Node5 -->
<g id="Node000005" class="node">
<title>Node5</title>
<g id="a_Node000005"><a xlink:href="class_acts_1_1_geometry_object.html" target="_top" xlink:title="Base class to provide GeometryIdentifier interface:">
<polygon fill="white" stroke="#666666" points="270,-244.5 146,-244.5 146,-225.5 270,-225.5 270,-244.5"/>
<text text-anchor="middle" x="208" y="-232.5" font-family="Helvetica,sans-Serif" font-size="10.00">Acts::GeometryObject</text>
</a>
</g>
</g>
<!-- Node5&#45;&gt;Node4 -->
<g id="edge4_Node000004_Node000005" class="edge">
<title>Node5&#45;&gt;Node4</title>
<g id="a_edge4_Node000004_Node000005"><a xlink:title=" ">
<path fill="none" stroke="#63b8ff" d="M182.36,-220.73C160.72,-209.53 130.38,-193.82 111.74,-184.17"/>
<polygon fill="#63b8ff" stroke="#63b8ff" points="180.84,-223.88 191.33,-225.37 184.06,-217.66 180.84,-223.88"/>
</a>
</g>
</g>
<!-- Node7 -->
<g id="Node000007" class="node">
<title>Node7</title>
<g id="a_Node000007"><a xlink:href="class_acts_1_1_layer.html" target="_top" xlink:title="Base Class for a Detector Layer in the Tracking Geometry.">
<polygon fill="white" stroke="#666666" points="243.5,-129 172.5,-129 172.5,-110 243.5,-110 243.5,-129"/>
<text text-anchor="middle" x="208" y="-117" font-family="Helvetica,sans-Serif" font-size="10.00">Acts::Layer</text>
</a>
</g>
</g>
<!-- Node5&#45;&gt;Node7 -->
<g id="edge7_Node000007_Node000005" class="edge">
<title>Node5&#45;&gt;Node7</title>
<g id="a_edge7_Node000007_Node000005"><a xlink:title=" ">
<path fill="none" stroke="#63b8ff" d="M208,-215.15C208,-190.24 208,-147.38 208,-129.13"/>
<polygon fill="#63b8ff" stroke="#63b8ff" points="204.5,-215.47 208,-225.47 211.5,-215.47 204.5,-215.47"/>
</a>
</g>
</g>
<!-- Node6 -->
<g id="Node000006" class="node">
<title>Node6</title>
<g id="a_Node000006"><a xlink:title=" ">
<polygon fill="white" stroke="#666666" points="128,-250 0,-250 0,-220 128,-220 128,-250"/>
<text text-anchor="start" x="8" y="-238" font-family="Helvetica,sans-Serif" font-size="10.00">std::enable_shared</text>
<text text-anchor="middle" x="64" y="-227" font-family="Helvetica,sans-Serif" font-size="10.00">_from_this&lt; Surface &gt;</text>
</a>
</g>
</g>
<!-- Node6&#45;&gt;Node4 -->
<g id="edge5_Node000004_Node000006" class="edge">
<title>Node6&#45;&gt;Node4</title>
<g id="a_edge5_Node000004_Node000006"><a xlink:title=" ">
<path fill="none" stroke="#63b8ff" d="M76.23,-210.92C81.19,-201.56 86.62,-191.32 90.35,-184.27"/>
<polygon fill="#63b8ff" stroke="#63b8ff" points="73.09,-209.36 71.5,-219.84 79.28,-212.64 73.09,-209.36"/>
</a>
</g>
</g>
<!-- Node7&#45;&gt;Node1 -->
<g id="edge6_Node000001_Node000007" class="edge">
<title>Node7&#45;&gt;Node1</title>
<g id="a_edge6_Node000001_Node000007"><a xlink:title=" ">
<path fill="none" stroke="#63b8ff" d="M198.64,-100.76C186.25,-77.28 164.89,-36.81 155.57,-19.16"/>
<polygon fill="#63b8ff" stroke="#63b8ff" points="195.57,-102.45 203.34,-109.66 201.76,-99.18 195.57,-102.45"/>
</a>
</g>
</g>
</g>
</svg>
