<?xml version="1.0" encoding="UTF-8" standalone="no"?>
<!DOCTYPE svg PUBLIC "-//W3C//DTD SVG 1.1//EN"
 "http://www.w3.org/Graphics/SVG/1.1/DTD/svg11.dtd">
<!-- Generated by graphviz version 2.43.0 (0)
 -->
<!-- Title: Acts::CompositePortalLink Pages: 1 -->
<svg width="211pt" height="238pt"
 viewBox="0.00 0.00 210.50 238.00" xmlns="http://www.w3.org/2000/svg" xmlns:xlink="http://www.w3.org/1999/xlink">
<g id="graph0" class="graph" transform="scale(1 1) rotate(0) translate(4 234)">
<title>Acts::CompositePortalLink</title>
<!-- Node1 -->
<g id="Node000001" class="node">
<title>Node1</title>
<g id="a_Node000001"><a xlink:title="Composite portal links can graft together other portal link instances, for example grids that could n...">
<polygon fill="#999999" stroke="#666666" points="145,-19 0,-19 0,0 145,0 145,-19"/>
<text text-anchor="middle" x="72.5" y="-7" font-family="Helvetica,sans-Serif" font-size="10.00">Acts::CompositePortalLink</text>
</a>
</g>
</g>
<!-- Node2 -->
<g id="Node000002" class="node">
<title>Node2</title>
<g id="a_Node000002"><a xlink:href="class_acts_1_1_portal_link_base.html" target="_top" xlink:title="PortalLinkBase is the abstract base class for all portal links.">
<polygon fill="white" stroke="#666666" points="130.5,-75 14.5,-75 14.5,-56 130.5,-56 130.5,-75"/>
<text text-anchor="middle" x="72.5" y="-63" font-family="Helvetica,sans-Serif" font-size="10.00">Acts::PortalLinkBase</text>
</a>
</g>
</g>
<!-- Node2&#45;&gt;Node1 -->
<g id="edge1_Node000001_Node000002" class="edge">
<title>Node2&#45;&gt;Node1</title>
<g id="a_edge1_Node000001_Node000002"><a xlink:title=" ">
<path fill="none" stroke="#63b8ff" d="M72.5,-45.3C72.5,-36.41 72.5,-26.28 72.5,-19.25"/>
<polygon fill="#63b8ff" stroke="#63b8ff" points="69,-45.58 72.5,-55.58 76,-45.58 69,-45.58"/>
</a>
</g>
</g>
<!-- Node3 -->
<g id="Node000003" class="node">
<title>Node3</title>
<g id="a_Node000003"><a xlink:title=" ">
<polygon fill="white" stroke="#666666" points="133.5,-158 11.5,-158 11.5,-128 133.5,-128 133.5,-158"/>
<text text-anchor="start" x="19.5" y="-146" font-family="Helvetica,sans-Serif" font-size="10.00">std::shared_ptr&lt; Acts</text>
<text text-anchor="middle" x="72.5" y="-135" font-family="Helvetica,sans-Serif" font-size="10.00">::RegularSurface &gt;</text>
</a>
</g>
</g>
<!-- Node3&#45;&gt;Node2 -->
<g id="edge2_Node000002_Node000003" class="edge">
<title>Node3&#45;&gt;Node2</title>
<g id="a_edge2_Node000002_Node000003"><a xlink:title=" ">
<path fill="none" stroke="#9a32cd" stroke-dasharray="5,2" d="M72.5,-117.4C72.5,-102.81 72.5,-85.22 72.5,-75.01"/>
<polygon fill="#9a32cd" stroke="#9a32cd" points="69,-117.8 72.5,-127.8 76,-117.8 69,-117.8"/>
</a>
</g>
<text text-anchor="start" x="75.5" y="-98.5" font-family="Helvetica,sans-Serif" font-size="10.00" fill="grey">m_surface</text>
</g>
<!-- Node4 -->
<g id="Node000004" class="node">
<title>Node4</title>
<g id="a_Node000004"><a xlink:title=" ">
<polygon fill="white" stroke="#666666" points="131.5,-230 13.5,-230 13.5,-211 131.5,-211 131.5,-230"/>
<text text-anchor="middle" x="72.5" y="-218" font-family="Helvetica,sans-Serif" font-size="10.00">std::shared_ptr&lt; T &gt;</text>
</a>
</g>
</g>
<!-- Node4&#45;&gt;Node3 -->
<g id="edge3_Node000003_Node000004" class="edge">
<title>Node4&#45;&gt;Node3</title>
<g id="a_edge3_Node000003_Node000004"><a xlink:title=" ">
<path fill="none" stroke="orange" stroke-dasharray="5,2" d="M72.5,-200.57C72.5,-187.43 72.5,-170.18 72.5,-158.21"/>
<polygon fill="orange" stroke="orange" points="69,-200.84 72.5,-210.84 76,-200.84 69,-200.84"/>
</a>
</g>
<text text-anchor="start" x="75.5" y="-181.5" font-family="Helvetica,sans-Serif" font-size="10.00" fill="grey">&lt; Acts::RegularSurface &gt;</text>
</g>
</g>
</svg>
