<?xml version="1.0" encoding="UTF-8" standalone="no"?>
<!DOCTYPE svg PUBLIC "-//W3C//DTD SVG 1.1//EN"
 "http://www.w3.org/Graphics/SVG/1.1/DTD/svg11.dtd">
<!-- Generated by graphviz version 2.43.0 (0)
 -->
<!-- Title: Acts::BoundFactory&lt; BoundsType_t &gt; Pages: 1 -->
<svg width="323pt" height="121pt"
 viewBox="0.00 0.00 322.50 121.00" xmlns="http://www.w3.org/2000/svg" xmlns:xlink="http://www.w3.org/1999/xlink">
<g id="graph0" class="graph" transform="scale(1 1) rotate(0) translate(4 117)">
<title>Acts::BoundFactory&lt; BoundsType_t &gt;</title>
<!-- Node1 -->
<g id="Node000001" class="node">
<title>Node1</title>
<g id="a_Node000001"><a xlink:title="Factory helper class to construct volume or surface bounds where the constructed bounds are cached in...">
<polygon fill="#999999" stroke="#666666" points="202.5,-113 92.5,-113 92.5,-83 202.5,-83 202.5,-113"/>
<text text-anchor="start" x="100.5" y="-101" font-family="Helvetica,sans-Serif" font-size="10.00">Acts::BoundFactory</text>
<text text-anchor="middle" x="147.5" y="-90" font-family="Helvetica,sans-Serif" font-size="10.00">&lt; BoundsType_t &gt;</text>
</a>
</g>
</g>
<!-- Node2 -->
<g id="Node000002" class="node">
<title>Node2</title>
<g id="a_Node000002"><a xlink:href="class_acts_1_1_bound_factory.html" target="_top" xlink:title=" ">
<polygon fill="white" stroke="#666666" points="141,-30 0,-30 0,0 141,0 141,-30"/>
<text text-anchor="start" x="8" y="-18" font-family="Helvetica,sans-Serif" font-size="10.00">Acts::BoundFactory</text>
<text text-anchor="middle" x="70.5" y="-7" font-family="Helvetica,sans-Serif" font-size="10.00">&lt; const SurfaceBounds &gt;</text>
</a>
</g>
</g>
<!-- Node1&#45;&gt;Node2 -->
<g id="edge1_Node000001_Node000002" class="edge">
<title>Node1&#45;&gt;Node2</title>
<g id="a_edge1_Node000001_Node000002"><a xlink:title=" ">
<path fill="none" stroke="orange" stroke-dasharray="5,2" d="M83.92,-77.64C79.12,-74.11 74.85,-69.93 71.5,-65 64.62,-54.86 65.16,-40.63 66.96,-30.11"/>
<polygon fill="orange" stroke="orange" points="82.11,-80.64 92.44,-83 85.84,-74.71 82.11,-80.64"/>
</a>
</g>
<text text-anchor="start" x="75" y="-53.5" font-family="Helvetica,sans-Serif" font-size="10.00" fill="grey">&lt; const SurfaceBounds &gt;</text>
</g>
<!-- Node3 -->
<g id="Node000003" class="node">
<title>Node3</title>
<g id="a_Node000003"><a xlink:href="class_acts_1_1_bound_factory.html" target="_top" xlink:title=" ">
<polygon fill="white" stroke="#666666" points="280.5,-30 168.5,-30 168.5,0 280.5,0 280.5,-30"/>
<text text-anchor="start" x="176.5" y="-18" font-family="Helvetica,sans-Serif" font-size="10.00">Acts::BoundFactory</text>
<text text-anchor="middle" x="224.5" y="-7" font-family="Helvetica,sans-Serif" font-size="10.00">&lt; VolumeBounds &gt;</text>
</a>
</g>
</g>
<!-- Node1&#45;&gt;Node3 -->
<g id="edge2_Node000001_Node000003" class="edge">
<title>Node1&#45;&gt;Node3</title>
<g id="a_edge2_Node000001_Node000003"><a xlink:title=" ">
<path fill="none" stroke="orange" stroke-dasharray="5,2" d="M187.87,-77.55C193.21,-73.88 198.28,-69.69 202.5,-65 211.48,-55.02 217.32,-40.76 220.71,-30.2"/>
<polygon fill="orange" stroke="orange" points="185.95,-74.63 179.35,-82.91 189.68,-80.55 185.95,-74.63"/>
</a>
</g>
<text text-anchor="start" x="215.5" y="-53.5" font-family="Helvetica,sans-Serif" font-size="10.00" fill="grey">&lt; VolumeBounds &gt;</text>
</g>
</g>
</svg>
