<?xml version="1.0" encoding="UTF-8" standalone="no"?>
<!DOCTYPE svg PUBLIC "-//W3C//DTD SVG 1.1//EN"
 "http://www.w3.org/Graphics/SVG/1.1/DTD/svg11.dtd">
<!-- Generated by graphviz version 2.43.0 (0)
 -->
<!-- Title: Acts::Layer Pages: 1 -->
<svg width="399pt" height="175pt"
 viewBox="0.00 0.00 399.00 175.00" xmlns="http://www.w3.org/2000/svg" xmlns:xlink="http://www.w3.org/1999/xlink">

<svg id="main" version="1.1" xmlns="http://www.w3.org/2000/svg" xmlns:xlink="http://www.w3.org/1999/xlink" xml:space="preserve">

<style type="text/css"><![CDATA[
.node, .edge {opacity: 0.7;}
.node.selected, .edge.selected {opacity: 1;}
.edge:hover path { stroke: red; }
.edge:hover polygon { stroke: red; fill: red; }
]]></style>
<script type="application/ecmascript" xlink:href="svg.min.js"/>
<svg id="graph" class="graph">
<g id="graph0" class="graph" transform="scale(1 1) rotate(0) translate(4 171)">
<title>Acts::Layer</title>
<!-- Node1 -->
<g id="Node000001" class="node">
<title>Node1</title>
<g id="a_Node000001"><a xlink:title="Base Class for a Detector Layer in the Tracking Geometry.">
<polygon fill="#999999" stroke="#666666" points="231,-93 160,-93 160,-74 231,-74 231,-93"/>
<text text-anchor="middle" x="195.5" y="-81" font-family="Helvetica,sans-Serif" font-size="10.00">Acts::Layer</text>
</a>
</g>
</g>
<!-- Node3 -->
<g id="Node000003" class="node">
<title>Node3</title>
<g id="a_Node000003"><a xlink:href="class_acts_1_1_cone_layer.html" target="_top" xlink:title="Class to describe a conical detector layer for tracking, it inhertis from both, Layer base class and ...">
<polygon fill="white" stroke="#666666" points="376.5,-167 281.5,-167 281.5,-148 376.5,-148 376.5,-167"/>
<text text-anchor="middle" x="329" y="-155" font-family="Helvetica,sans-Serif" font-size="10.00">Acts::ConeLayer</text>
</a>
</g>
</g>
<!-- Node1&#45;&gt;Node3 -->
<g id="edge2_Node000001_Node000003" class="edge">
<title>Node1&#45;&gt;Node3</title>
<g id="a_edge2_Node000001_Node000003"><a xlink:title=" ">
<path fill="none" stroke="#63b8ff" d="M213.68,-100.29C227.19,-112.68 247.01,-129.12 267,-139.5 273.37,-142.81 280.44,-145.6 287.44,-147.92"/>
<polygon fill="#63b8ff" stroke="#63b8ff" points="215.82,-97.5 206.14,-93.2 211.02,-102.6 215.82,-97.5"/>
</a>
</g>
</g>
<!-- Node4 -->
<g id="Node000004" class="node">
<title>Node4</title>
<g id="a_Node000004"><a xlink:href="class_acts_1_1_cylinder_layer.html" target="_top" xlink:title="Class to describe a cylindrical detector layer for tracking, it inhertis from both,...">
<polygon fill="white" stroke="#666666" points="384.5,-130 273.5,-130 273.5,-111 384.5,-111 384.5,-130"/>
<text text-anchor="middle" x="329" y="-118" font-family="Helvetica,sans-Serif" font-size="10.00">Acts::CylinderLayer</text>
</a>
</g>
</g>
<!-- Node1&#45;&gt;Node4 -->
<g id="edge3_Node000001_Node000004" class="edge">
<title>Node1&#45;&gt;Node4</title>
<g id="a_edge3_Node000001_Node000004"><a xlink:title=" ">
<path fill="none" stroke="#63b8ff" d="M240.31,-95.83C257.72,-100.73 277.46,-106.28 293.79,-110.88"/>
<polygon fill="#63b8ff" stroke="#63b8ff" points="240.94,-92.37 230.36,-93.03 239.04,-99.11 240.94,-92.37"/>
</a>
</g>
</g>
<!-- Node5 -->
<g id="Node000005" class="node">
<title>Node5</title>
<g id="a_Node000005"><a xlink:href="class_acts_1_1_disc_layer.html" target="_top" xlink:title="Class to describe a disc&#45;like detector layer for tracking, it inhertis from both, Layer base class an...">
<polygon fill="white" stroke="#666666" points="375,-93 283,-93 283,-74 375,-74 375,-93"/>
<text text-anchor="middle" x="329" y="-81" font-family="Helvetica,sans-Serif" font-size="10.00">Acts::DiscLayer</text>
</a>
</g>
</g>
<!-- Node1&#45;&gt;Node5 -->
<g id="edge4_Node000001_Node000005" class="edge">
<title>Node1&#45;&gt;Node5</title>
<g id="a_edge4_Node000001_Node000005"><a xlink:title=" ">
<path fill="none" stroke="#63b8ff" d="M241.44,-83.5C254.79,-83.5 269.42,-83.5 282.79,-83.5"/>
<polygon fill="#63b8ff" stroke="#63b8ff" points="241.05,-80 231.05,-83.5 241.05,-87 241.05,-80"/>
</a>
</g>
</g>
<!-- Node6 -->
<g id="Node000006" class="node">
<title>Node6</title>
<g id="a_Node000006"><a xlink:href="class_acts_1_1_navigation_layer.html" target="_top" xlink:title="Class to be used for gaps in Volumes as a navigational link.">
<polygon fill="white" stroke="#666666" points="391,-56 267,-56 267,-37 391,-37 391,-56"/>
<text text-anchor="middle" x="329" y="-44" font-family="Helvetica,sans-Serif" font-size="10.00">Acts::NavigationLayer</text>
</a>
</g>
</g>
<!-- Node1&#45;&gt;Node6 -->
<g id="edge5_Node000001_Node000006" class="edge">
<title>Node1&#45;&gt;Node6</title>
<g id="a_edge5_Node000001_Node000006"><a xlink:title=" ">
<path fill="none" stroke="#63b8ff" d="M240.31,-71.17C257.72,-66.27 277.46,-60.72 293.79,-56.12"/>
<polygon fill="#63b8ff" stroke="#63b8ff" points="239.04,-67.89 230.36,-73.97 240.94,-74.63 239.04,-67.89"/>
</a>
</g>
</g>
<!-- Node7 -->
<g id="Node000007" class="node">
<title>Node7</title>
<g id="a_Node000007"><a xlink:href="class_acts_1_1_plane_layer.html" target="_top" xlink:title="Class to describe a planar detector layer for tracking, it inhertis from both, Layer base class and P...">
<polygon fill="white" stroke="#666666" points="378,-19 280,-19 280,0 378,0 378,-19"/>
<text text-anchor="middle" x="329" y="-7" font-family="Helvetica,sans-Serif" font-size="10.00">Acts::PlaneLayer</text>
</a>
</g>
</g>
<!-- Node1&#45;&gt;Node7 -->
<g id="edge6_Node000001_Node000007" class="edge">
<title>Node1&#45;&gt;Node7</title>
<g id="a_edge6_Node000001_Node000007"><a xlink:title=" ">
<path fill="none" stroke="#63b8ff" d="M213.68,-66.71C227.19,-54.32 247.01,-37.88 267,-27.5 273.37,-24.19 280.44,-21.4 287.44,-19.08"/>
<polygon fill="#63b8ff" stroke="#63b8ff" points="211.02,-64.4 206.14,-73.8 215.82,-69.5 211.02,-64.4"/>
</a>
</g>
</g>
<!-- Node2 -->
<g id="Node000002" class="node">
<title>Node2</title>
<g id="a_Node000002"><a xlink:href="class_acts_1_1_geometry_object.html" target="_top" xlink:title="Base class to provide GeometryIdentifier interface:">
<polygon fill="white" stroke="#666666" points="124,-93 0,-93 0,-74 124,-74 124,-93"/>
<text text-anchor="middle" x="62" y="-81" font-family="Helvetica,sans-Serif" font-size="10.00">Acts::GeometryObject</text>
</a>
</g>
</g>
<!-- Node2&#45;&gt;Node1 -->
<g id="edge1_Node000001_Node000002" class="edge">
<title>Node2&#45;&gt;Node1</title>
<g id="a_edge1_Node000001_Node000002"><a xlink:title=" ">
<path fill="none" stroke="#63b8ff" d="M134.16,-83.5C143.02,-83.5 151.75,-83.5 159.7,-83.5"/>
<polygon fill="#63b8ff" stroke="#63b8ff" points="134.13,-80 124.13,-83.5 134.13,-87 134.13,-80"/>
</a>
</g>
</g>
</g>
</svg>
</svg>

<style type='text/css'>
<![CDATA[
[data-mouse-over-selected='false'] { opacity: 0.7; }
[data-mouse-over-selected='true']  { opacity: 1.0; }
]]>
</style>
<script type="application/ecmascript"><![CDATA[
document.addEventListener('DOMContentLoaded', (event) => {
  highlightEdges();
  highlightAdjacentNodes();
});
]]></script>
</svg>
