<?xml version="1.0" encoding="UTF-8" standalone="no"?>
<!DOCTYPE svg PUBLIC "-//W3C//DTD SVG 1.1//EN"
 "http://www.w3.org/Graphics/SVG/1.1/DTD/svg11.dtd">
<!-- Generated by graphviz version 2.43.0 (0)
 -->
<!-- Title: Acts::IndexGridNavigationPolicy&lt; GridType &gt; Pages: 1 -->
<svg width="702pt" height="182pt"
 viewBox="0.00 0.00 702.00 182.00" xmlns="http://www.w3.org/2000/svg" xmlns:xlink="http://www.w3.org/1999/xlink">
<g id="graph0" class="graph" transform="scale(1 1) rotate(0) translate(4 178)">
<title>Acts::IndexGridNavigationPolicy&lt; GridType &gt;</title>
<!-- Node1 -->
<g id="Node000001" class="node">
<title>Node1</title>
<g id="a_Node000001"><a xlink:title="A navigation policy that uses grid based navigation for indexed surfaces Navigate through a multilaye...">
<polygon fill="#999999" stroke="#666666" points="310,-102 166,-102 166,-72 310,-72 310,-102"/>
<text text-anchor="start" x="174" y="-90" font-family="Helvetica,sans-Serif" font-size="10.00">Acts::IndexGridNavigation</text>
<text text-anchor="middle" x="238" y="-79" font-family="Helvetica,sans-Serif" font-size="10.00">Policy&lt; GridType &gt;</text>
</a>
</g>
</g>
<!-- Node3 -->
<g id="Node000003" class="node">
<title>Node3</title>
<g id="a_Node000003"><a xlink:href="class_acts_1_1_index_grid_navigation_policy.html" target="_top" xlink:title=" ">
<polygon fill="white" stroke="#666666" points="694,-174 500,-174 500,-144 694,-144 694,-174"/>
<text text-anchor="start" x="508" y="-162" font-family="Helvetica,sans-Serif" font-size="10.00">Acts::IndexGridNavigation</text>
<text text-anchor="middle" x="597" y="-151" font-family="Helvetica,sans-Serif" font-size="10.00">Policy&lt; RegularCylinderIndexGrid &gt;</text>
</a>
</g>
</g>
<!-- Node1&#45;&gt;Node3 -->
<g id="edge2_Node000001_Node000003" class="edge">
<title>Node1&#45;&gt;Node3</title>
<g id="a_edge2_Node000001_Node000003"><a xlink:title=" ">
<path fill="none" stroke="orange" stroke-dasharray="5,2" d="M279.1,-106.32C294.13,-112.85 311.56,-119.59 328,-124 383.97,-139.01 448.31,-147.68 499.92,-152.64"/>
<polygon fill="orange" stroke="orange" points="280.16,-102.96 269.6,-102.08 277.31,-109.35 280.16,-102.96"/>
</a>
</g>
<text text-anchor="start" x="331" y="-155.5" font-family="Helvetica,sans-Serif" font-size="10.00" fill="grey">&lt; RegularCylinderIndexGrid &gt;</text>
</g>
<!-- Node4 -->
<g id="Node000004" class="node">
<title>Node4</title>
<g id="a_Node000004"><a xlink:href="class_acts_1_1_index_grid_navigation_policy.html" target="_top" xlink:title=" ">
<polygon fill="white" stroke="#666666" points="684.5,-126 509.5,-126 509.5,-96 684.5,-96 684.5,-126"/>
<text text-anchor="start" x="517.5" y="-114" font-family="Helvetica,sans-Serif" font-size="10.00">Acts::IndexGridNavigation</text>
<text text-anchor="middle" x="597" y="-103" font-family="Helvetica,sans-Serif" font-size="10.00">Policy&lt; RegularRingIndexGrid &gt;</text>
</a>
</g>
</g>
<!-- Node1&#45;&gt;Node4 -->
<g id="edge3_Node000001_Node000004" class="edge">
<title>Node1&#45;&gt;Node4</title>
<g id="a_edge3_Node000001_Node000004"><a xlink:title=" ">
<path fill="none" stroke="orange" stroke-dasharray="5,2" d="M320.69,-92.49C377.05,-96.28 451.87,-101.31 509.29,-105.17"/>
<polygon fill="orange" stroke="orange" points="320.6,-88.98 310.39,-91.8 320.13,-95.96 320.6,-88.98"/>
</a>
</g>
<text text-anchor="start" x="340" y="-108.5" font-family="Helvetica,sans-Serif" font-size="10.00" fill="grey">&lt; RegularRingIndexGrid &gt;</text>
</g>
<!-- Node5 -->
<g id="Node000005" class="node">
<title>Node5</title>
<g id="a_Node000005"><a xlink:href="class_acts_1_1_index_grid_navigation_policy.html" target="_top" xlink:title=" ">
<polygon fill="white" stroke="#666666" points="684,-78 510,-78 510,-48 684,-48 684,-78"/>
<text text-anchor="start" x="518" y="-66" font-family="Helvetica,sans-Serif" font-size="10.00">Acts::IndexGridNavigation</text>
<text text-anchor="middle" x="597" y="-55" font-family="Helvetica,sans-Serif" font-size="10.00">Policy&lt; RegularDiscIndexGrid &gt;</text>
</a>
</g>
</g>
<!-- Node1&#45;&gt;Node5 -->
<g id="edge4_Node000001_Node000005" class="edge">
<title>Node1&#45;&gt;Node5</title>
<g id="a_edge4_Node000001_Node000005"><a xlink:title=" ">
<path fill="none" stroke="orange" stroke-dasharray="5,2" d="M320.33,-72.84C322.92,-72.54 325.48,-72.25 328,-72 388.56,-65.91 457.17,-63.69 509.81,-62.98"/>
<polygon fill="orange" stroke="orange" points="319.77,-69.38 310.3,-74.12 320.66,-76.33 319.77,-69.38"/>
</a>
</g>
<text text-anchor="start" x="341" y="-77.5" font-family="Helvetica,sans-Serif" font-size="10.00" fill="grey">&lt; RegularDiscIndexGrid &gt;</text>
</g>
<!-- Node6 -->
<g id="Node000006" class="node">
<title>Node6</title>
<g id="a_Node000006"><a xlink:href="class_acts_1_1_index_grid_navigation_policy.html" target="_top" xlink:title=" ">
<polygon fill="white" stroke="#666666" points="687,-30 507,-30 507,0 687,0 687,-30"/>
<text text-anchor="start" x="515" y="-18" font-family="Helvetica,sans-Serif" font-size="10.00">Acts::IndexGridNavigation</text>
<text text-anchor="middle" x="597" y="-7" font-family="Helvetica,sans-Serif" font-size="10.00">Policy&lt; RegularPlaneIndexGrid &gt;</text>
</a>
</g>
</g>
<!-- Node1&#45;&gt;Node6 -->
<g id="edge5_Node000001_Node000006" class="edge">
<title>Node1&#45;&gt;Node6</title>
<g id="a_edge5_Node000001_Node000006"><a xlink:title=" ">
<path fill="none" stroke="orange" stroke-dasharray="5,2" d="M272.78,-66.76C288.94,-58.01 308.9,-48.53 328,-43 386.19,-26.16 454.09,-19.2 506.98,-16.42"/>
<polygon fill="orange" stroke="orange" points="270.77,-63.87 263.73,-71.79 274.17,-69.98 270.77,-63.87"/>
</a>
</g>
<text text-anchor="start" x="338" y="-48.5" font-family="Helvetica,sans-Serif" font-size="10.00" fill="grey">&lt; RegularPlaneIndexGrid &gt;</text>
</g>
<!-- Node2 -->
<g id="Node000002" class="node">
<title>Node2</title>
<g id="a_Node000002"><a xlink:href="class_acts_1_1_i_navigation_policy.html" target="_top" xlink:title="Base class for all navigation policies.">
<polygon fill="white" stroke="#666666" points="129,-96.5 0,-96.5 0,-77.5 129,-77.5 129,-96.5"/>
<text text-anchor="middle" x="64.5" y="-84.5" font-family="Helvetica,sans-Serif" font-size="10.00">Acts::INavigationPolicy</text>
</a>
</g>
</g>
<!-- Node2&#45;&gt;Node1 -->
<g id="edge1_Node000001_Node000002" class="edge">
<title>Node2&#45;&gt;Node1</title>
<g id="a_edge1_Node000001_Node000002"><a xlink:title=" ">
<path fill="none" stroke="#63b8ff" d="M139.53,-87C148.27,-87 157.18,-87 165.88,-87"/>
<polygon fill="#63b8ff" stroke="#63b8ff" points="139.36,-83.5 129.36,-87 139.36,-90.5 139.36,-83.5"/>
</a>
</g>
</g>
</g>
</svg>
