<?xml version="1.0" encoding="UTF-8" standalone="no"?>
<!DOCTYPE svg PUBLIC "-//W3C//DTD SVG 1.1//EN"
 "http://www.w3.org/Graphics/SVG/1.1/DTD/svg11.dtd">
<!-- Generated by graphviz version 2.43.0 (0)
 -->
<!-- Title: Acts::Experimental::ContainerBlueprintNode Pages: 1 -->
<!--zoomable 402 -->

<svg id="main" version="1.1" xmlns="http://www.w3.org/2000/svg" xmlns:xlink="http://www.w3.org/1999/xlink" xml:space="preserve" onload="init(evt)">

<style type="text/css"><![CDATA[
.node, .edge {opacity: 0.7;}
.node.selected, .edge.selected {opacity: 1;}
.edge:hover path { stroke: red; }
.edge:hover polygon { stroke: red; fill: red; }
]]></style>

<defs>
  <circle id="rim" cx="0" cy="0" r="7"/>
  <circle id="rim2" cx="0" cy="0" r="3.5"/>
  <g id="zoomPlus">
    <use xlink:href="#rim" fill="#404040"><set attributeName="fill" to="#808080" begin="zoomplus.mouseover" end="zoomplus.mouseout"/></use>
    <path d="M-4,0h8M0,-4v8" fill="none" stroke="white" stroke-width="1.5" pointer-events="none"/>
  </g>
  <g id="zoomMin">
    <use xlink:href="#rim" fill="#404040"><set attributeName="fill" to="#808080" begin="zoomminus.mouseover" end="zoomminus.mouseout"/></use>
    <path d="M-4,0h8" fill="none" stroke="white" stroke-width="1.5" pointer-events="none"/>
  </g>
  <g id="arrowUp" transform="translate(30 24)">
    <use xlink:href="#rim"/>
    <path pointer-events="none" fill="none" stroke="white" stroke-width="1.5" d="M0,-3.0v7 M-2.5,-0.5L0,-3.0L2.5,-0.5"/>
  </g>
  <g id="arrowRight" transform="rotate(90) translate(36 -43)">
    <use xlink:href="#rim"/>
    <path pointer-events="none" fill="none" stroke="white" stroke-width="1.5" d="M0,-3.0v7 M-2.5,-0.5L0,-3.0L2.5,-0.5"/>
  </g>
  <g id="arrowDown" transform="rotate(180) translate(-30 -48)">
    <use xlink:href="#rim"/>
    <path pointer-events="none" fill="none" stroke="white" stroke-width="1.5" d="M0,-3.0v7 M-2.5,-0.5L0,-3.0L2.5,-0.5"/>
  </g>
  <g id="arrowLeft" transform="rotate(270) translate(-36 17)">
    <use xlink:href="#rim"/>
    <path pointer-events="none" fill="none" stroke="white" stroke-width="1.5" d="M0,-3.0v7 M-2.5,-0.5L0,-3.0L2.5,-0.5"/>
  </g>
  <g id="resetDef">
    <use xlink:href="#rim2" fill="#404040"><set attributeName="fill" to="#808080" begin="reset.mouseover" end="reset.mouseout"/></use>
  </g>
</defs>
<script type="application/ecmascript">
var viewWidth = 808;
var viewHeight = 402;
var sectionId = 'dynsection-1';
</script>
<script type="application/ecmascript" xlink:href="svg.min.js"/>
<svg id="graph" class="graph">
<g id="viewport">
<title>Acts::Experimental::ContainerBlueprintNode</title>
<!-- Node1 -->
<g id="Node000001" class="node">
<title>Node1</title>
<g id="a_Node000001"><a xlink:title="A blueprint node that can contain multiple child volumes.">
<polygon fill="#999999" stroke="#666666" points="800,-234.5 660,-234.5 660,-204.5 800,-204.5 800,-234.5"/>
<text text-anchor="start" x="668" y="-222.5" font-family="Helvetica,sans-Serif" font-size="10.00">Acts::Experimental</text>
<text text-anchor="middle" x="730" y="-211.5" font-family="Helvetica,sans-Serif" font-size="10.00">::ContainerBlueprintNode</text>
</a>
</g>
</g>
<!-- Node2 -->
<g id="Node000002" class="node">
<title>Node2</title>
<g id="a_Node000002"><a xlink:href="class_acts_1_1_experimental_1_1_blueprint_node.html" target="_top" xlink:title="Base class for all nodes in the blueprint tree.">
<polygon fill="white" stroke="#666666" points="466.5,-393.5 357.5,-393.5 357.5,-363.5 466.5,-363.5 466.5,-393.5"/>
<text text-anchor="start" x="365.5" y="-381.5" font-family="Helvetica,sans-Serif" font-size="10.00">Acts::Experimental</text>
<text text-anchor="middle" x="412" y="-370.5" font-family="Helvetica,sans-Serif" font-size="10.00">::BlueprintNode</text>
</a>
</g>
</g>
<!-- Node2&#45;&gt;Node1 -->
<g id="edge1_Node000001_Node000002" class="edge">
<title>Node2&#45;&gt;Node1</title>
<g id="a_edge1_Node000001_Node000002"><a xlink:title=" ">
<path fill="none" stroke="#63b8ff" d="M476.74,-382.95C525.46,-383.36 592.45,-377.18 642,-346.5 685.4,-319.62 712.47,-262.16 723.42,-234.71"/>
<polygon fill="#63b8ff" stroke="#63b8ff" points="476.69,-379.45 466.63,-382.77 476.57,-386.45 476.69,-379.45"/>
</a>
</g>
</g>
<!-- Node3 -->
<g id="Node000003" class="node">
<title>Node3</title>
<g id="a_Node000003"><a xlink:title=" ">
<polygon fill="white" stroke="#666666" points="444.5,-345 379.5,-345 379.5,-326 444.5,-326 444.5,-345"/>
<text text-anchor="middle" x="412" y="-333" font-family="Helvetica,sans-Serif" font-size="10.00">std::string</text>
</a>
</g>
</g>
<!-- Node3&#45;&gt;Node1 -->
<g id="edge2_Node000001_Node000003" class="edge">
<title>Node3&#45;&gt;Node1</title>
<g id="a_edge2_Node000001_Node000003"><a xlink:title=" ">
<path fill="none" stroke="#9a32cd" stroke-dasharray="5,2" d="M454.87,-335.18C502.43,-333.31 581.3,-325.57 642,-296.5 672.93,-281.69 701.14,-252.59 716.61,-234.72"/>
<polygon fill="#9a32cd" stroke="#9a32cd" points="454.52,-331.69 444.64,-335.51 454.74,-338.69 454.52,-331.69"/>
</a>
</g>
<text text-anchor="start" x="571" y="-331" font-family="Helvetica,sans-Serif" font-size="10.00" fill="grey">m_name</text>
</g>
<!-- Node4 -->
<g id="Node000004" class="node">
<title>Node4</title>
<g id="a_Node000004"><a xlink:title=" ">
<polygon fill="white" stroke="#666666" points="111,-354.5 7,-354.5 7,-324.5 111,-324.5 111,-354.5"/>
<text text-anchor="start" x="15" y="-342.5" font-family="Helvetica,sans-Serif" font-size="10.00">std::basic_string&lt;</text>
<text text-anchor="middle" x="59" y="-331.5" font-family="Helvetica,sans-Serif" font-size="10.00"> Char &gt;</text>
</a>
</g>
</g>
<!-- Node4&#45;&gt;Node3 -->
<g id="edge3_Node000003_Node000004" class="edge">
<title>Node4&#45;&gt;Node3</title>
<g id="a_edge3_Node000003_Node000004"><a xlink:title=" ">
<path fill="none" stroke="#63b8ff" d="M121.31,-338.8C196.49,-337.94 321.08,-336.52 379.25,-335.86"/>
<polygon fill="#63b8ff" stroke="#63b8ff" points="121,-335.3 111.04,-338.92 121.08,-342.3 121,-335.3"/>
</a>
</g>
</g>
<!-- Node5 -->
<g id="Node000005" class="node">
<title>Node5</title>
<g id="a_Node000005"><a xlink:title=" ">
<polygon fill="white" stroke="#666666" points="502.5,-307.5 321.5,-307.5 321.5,-277.5 502.5,-277.5 502.5,-307.5"/>
<text text-anchor="start" x="329.5" y="-295.5" font-family="Helvetica,sans-Serif" font-size="10.00">std::pair&lt; VolumeResizeStrategy,</text>
<text text-anchor="middle" x="412" y="-284.5" font-family="Helvetica,sans-Serif" font-size="10.00"> VolumeResizeStrategy &gt;</text>
</a>
</g>
</g>
<!-- Node5&#45;&gt;Node1 -->
<g id="edge4_Node000001_Node000005" class="edge">
<title>Node5&#45;&gt;Node1</title>
<g id="a_edge4_Node000001_Node000005"><a xlink:title=" ">
<path fill="none" stroke="#9a32cd" stroke-dasharray="5,2" d="M512.52,-280.81C553.12,-274.79 600.24,-266.21 642,-254.5 660.5,-249.31 680.43,-241.47 696.54,-234.52"/>
<polygon fill="#9a32cd" stroke="#9a32cd" points="512.01,-277.34 502.62,-282.24 513.02,-284.27 512.01,-277.34"/>
</a>
</g>
<text text-anchor="start" x="545" y="-281" font-family="Helvetica,sans-Serif" font-size="10.00" fill="grey">m_resizeStrategies</text>
</g>
<!-- Node6 -->
<g id="Node000006" class="node">
<title>Node6</title>
<g id="a_Node000006"><a xlink:title=" ">
<polygon fill="white" stroke="#666666" points="113.5,-302 4.5,-302 4.5,-283 113.5,-283 113.5,-302"/>
<text text-anchor="middle" x="59" y="-290" font-family="Helvetica,sans-Serif" font-size="10.00">std::pair&lt; T1, T2 &gt;</text>
</a>
</g>
</g>
<!-- Node6&#45;&gt;Node5 -->
<g id="edge5_Node000005_Node000006" class="edge">
<title>Node6&#45;&gt;Node5</title>
<g id="a_edge5_Node000005_Node000006"><a xlink:title=" ">
<path fill="none" stroke="orange" stroke-dasharray="5,2" d="M123.71,-292.5C179.02,-292.5 259.7,-292.5 321.49,-292.5"/>
<polygon fill="orange" stroke="orange" points="123.69,-289 113.69,-292.5 123.69,-296 123.69,-289"/>
</a>
</g>
<text text-anchor="start" x="144" y="-313.5" font-family="Helvetica,sans-Serif" font-size="10.00" fill="grey">&lt; VolumeResizeStrategy,</text>
<text text-anchor="start" x="144" y="-298.5" font-family="Helvetica,sans-Serif" font-size="10.00" fill="grey">   VolumeResizeStrategy &gt;</text>
</g>
<!-- Node7 -->
<g id="Node000007" class="node">
<title>Node7</title>
<g id="a_Node000007"><a xlink:title=" ">
<polygon fill="white" stroke="#666666" points="465.5,-259.5 358.5,-259.5 358.5,-229.5 465.5,-229.5 465.5,-259.5"/>
<text text-anchor="start" x="366.5" y="-247.5" font-family="Helvetica,sans-Serif" font-size="10.00">std::vector&lt; Acts::</text>
<text text-anchor="middle" x="412" y="-236.5" font-family="Helvetica,sans-Serif" font-size="10.00">Volume * &gt;</text>
</a>
</g>
</g>
<!-- Node7&#45;&gt;Node1 -->
<g id="edge6_Node000001_Node000007" class="edge">
<title>Node7&#45;&gt;Node1</title>
<g id="a_edge6_Node000001_Node000007"><a xlink:title=" ">
<path fill="none" stroke="#9a32cd" stroke-dasharray="5,2" d="M475.51,-239.55C528.62,-235.35 604.76,-229.33 659.72,-224.98"/>
<polygon fill="#9a32cd" stroke="#9a32cd" points="475.23,-236.07 465.54,-240.34 475.78,-243.04 475.23,-236.07"/>
</a>
</g>
<text text-anchor="start" x="552" y="-239" font-family="Helvetica,sans-Serif" font-size="10.00" fill="grey">m_childVolumes</text>
</g>
<!-- Node8 -->
<g id="Node000008" class="node">
<title>Node8</title>
<g id="a_Node000008"><a xlink:title=" ">
<polygon fill="white" stroke="#666666" points="107.5,-219 10.5,-219 10.5,-200 107.5,-200 107.5,-219"/>
<text text-anchor="middle" x="59" y="-207" font-family="Helvetica,sans-Serif" font-size="10.00">std::vector&lt; T &gt;</text>
</a>
</g>
</g>
<!-- Node8&#45;&gt;Node7 -->
<g id="edge7_Node000007_Node000008" class="edge">
<title>Node8&#45;&gt;Node7</title>
<g id="a_edge7_Node000007_Node000008"><a xlink:title=" ">
<path fill="none" stroke="orange" stroke-dasharray="5,2" d="M98.53,-221.9C110.43,-225.26 123.65,-228.5 136,-230.5 212.69,-242.89 302.82,-245.19 358.43,-245.22"/>
<polygon fill="orange" stroke="orange" points="99.48,-218.54 88.9,-219.09 97.52,-225.25 99.48,-218.54"/>
</a>
</g>
<text text-anchor="start" x="162" y="-249" font-family="Helvetica,sans-Serif" font-size="10.00" fill="grey">&lt; Acts::Volume * &gt;</text>
</g>
<!-- Node14 -->
<g id="Node000014" class="node">
<title>Node14</title>
<g id="a_Node000014"><a xlink:title=" ">
<polygon fill="white" stroke="#666666" points="524,-211.5 300,-211.5 300,-159.5 524,-159.5 524,-211.5"/>
<text text-anchor="start" x="308" y="-199.5" font-family="Helvetica,sans-Serif" font-size="10.00">std::vector&lt; std::pair</text>
<text text-anchor="start" x="308" y="-188.5" font-family="Helvetica,sans-Serif" font-size="10.00">&lt; std::unique_ptr&lt; Acts</text>
<text text-anchor="start" x="308" y="-177.5" font-family="Helvetica,sans-Serif" font-size="10.00">::PortalShellBase &gt;, std</text>
<text text-anchor="middle" x="412" y="-166.5" font-family="Helvetica,sans-Serif" font-size="10.00">::unique_ptr&lt; Acts::TrackingVolume &gt; &gt; &gt;</text>
</a>
</g>
</g>
<!-- Node8&#45;&gt;Node14 -->
<g id="edge15_Node000014_Node000008" class="edge">
<title>Node8&#45;&gt;Node14</title>
<g id="a_edge15_Node000014_Node000008"><a xlink:title=" ">
<path fill="none" stroke="orange" stroke-dasharray="5,2" d="M81.21,-194.34C95.83,-184.86 116.14,-173.52 136,-168.5 188.87,-155.15 249.19,-157.06 299.83,-163.29"/>
<polygon fill="orange" stroke="orange" points="79.23,-191.45 72.89,-199.94 83.14,-197.26 79.23,-191.45"/>
</a>
</g>
<text text-anchor="start" x="139" y="-219.5" font-family="Helvetica,sans-Serif" font-size="10.00" fill="grey">&lt; std::pair&lt; std::unique</text>
<text text-anchor="start" x="139" y="-204.5" font-family="Helvetica,sans-Serif" font-size="10.00" fill="grey">  _ptr&lt; Acts::PortalShellBase</text>
<text text-anchor="start" x="139" y="-189.5" font-family="Helvetica,sans-Serif" font-size="10.00" fill="grey">   &gt;, std::unique_ptr&lt; Acts</text>
<text text-anchor="start" x="139" y="-174.5" font-family="Helvetica,sans-Serif" font-size="10.00" fill="grey">  ::TrackingVolume &gt; &gt; &gt;</text>
</g>
<!-- Node9 -->
<g id="Node000009" class="node">
<title>Node9</title>
<g id="a_Node000009"><a xlink:title=" ">
<polygon fill="white" stroke="#666666" points="473,-141.5 351,-141.5 351,-111.5 473,-111.5 473,-141.5"/>
<text text-anchor="start" x="359" y="-129.5" font-family="Helvetica,sans-Serif" font-size="10.00">std::unique_ptr&lt; Acts</text>
<text text-anchor="middle" x="412" y="-118.5" font-family="Helvetica,sans-Serif" font-size="10.00">::VolumeStack &gt;</text>
</a>
</g>
</g>
<!-- Node9&#45;&gt;Node1 -->
<g id="edge8_Node000001_Node000009" class="edge">
<title>Node9&#45;&gt;Node1</title>
<g id="a_edge8_Node000001_Node000009"><a xlink:title=" ">
<path fill="none" stroke="#9a32cd" stroke-dasharray="5,2" d="M482.93,-136.12C528.98,-143.67 590.13,-156.03 642,-174.5 663.95,-182.31 687.32,-194.65 704.31,-204.43"/>
<polygon fill="#9a32cd" stroke="#9a32cd" points="483.47,-132.66 473.04,-134.53 482.36,-139.57 483.47,-132.66"/>
</a>
</g>
<text text-anchor="start" x="571" y="-180" font-family="Helvetica,sans-Serif" font-size="10.00" fill="grey">m_stack</text>
</g>
<!-- Node10 -->
<g id="Node000010" class="node">
<title>Node10</title>
<g id="a_Node000010"><a xlink:title=" ">
<polygon fill="white" stroke="#666666" points="118,-116 0,-116 0,-97 118,-97 118,-116"/>
<text text-anchor="middle" x="59" y="-104" font-family="Helvetica,sans-Serif" font-size="10.00">std::unique_ptr&lt; T &gt;</text>
</a>
</g>
</g>
<!-- Node10&#45;&gt;Node9 -->
<g id="edge9_Node000009_Node000010" class="edge">
<title>Node10&#45;&gt;Node9</title>
<g id="a_edge9_Node000009_Node000010"><a xlink:title=" ">
<path fill="none" stroke="orange" stroke-dasharray="5,2" d="M128.44,-110.4C193.04,-114.08 288.96,-119.55 350.74,-123.07"/>
<polygon fill="orange" stroke="orange" points="128.54,-106.9 118.35,-109.83 128.14,-113.89 128.54,-106.9"/>
</a>
</g>
<text text-anchor="start" x="152" y="-124" font-family="Helvetica,sans-Serif" font-size="10.00" fill="grey">&lt; Acts::VolumeStack &gt;</text>
</g>
<!-- Node13 -->
<g id="Node000013" class="node">
<title>Node13</title>
<g id="a_Node000013"><a xlink:title=" ">
<polygon fill="white" stroke="#666666" points="473,-93.5 351,-93.5 351,-63.5 473,-63.5 473,-93.5"/>
<text text-anchor="start" x="359" y="-81.5" font-family="Helvetica,sans-Serif" font-size="10.00">std::unique_ptr&lt; Acts</text>
<text text-anchor="middle" x="412" y="-70.5" font-family="Helvetica,sans-Serif" font-size="10.00">::PortalShellBase &gt;</text>
</a>
</g>
</g>
<!-- Node10&#45;&gt;Node13 -->
<g id="edge13_Node000013_Node000010" class="edge">
<title>Node10&#45;&gt;Node13</title>
<g id="a_edge13_Node000013_Node000010"><a xlink:title=" ">
<path fill="none" stroke="orange" stroke-dasharray="5,2" d="M106.39,-94.73C116.11,-92.66 126.35,-90.76 136,-89.5 209.55,-79.88 295.03,-77.88 350.92,-77.8"/>
<polygon fill="orange" stroke="orange" points="105.48,-91.35 96.49,-96.94 107.01,-98.18 105.48,-91.35"/>
</a>
</g>
<text text-anchor="start" x="146" y="-95" font-family="Helvetica,sans-Serif" font-size="10.00" fill="grey">&lt; Acts::PortalShellBase &gt;</text>
</g>
<!-- Node11 -->
<g id="Node000011" class="node">
<title>Node11</title>
<g id="a_Node000011"><a xlink:title=" ">
<polygon fill="white" stroke="#666666" points="495,-41 329,-41 329,0 495,0 495,-41"/>
<text text-anchor="start" x="337" y="-29" font-family="Helvetica,sans-Serif" font-size="10.00">std::map&lt; const Acts</text>
<text text-anchor="start" x="337" y="-18" font-family="Helvetica,sans-Serif" font-size="10.00">::Volume *, Acts::Experimental</text>
<text text-anchor="middle" x="412" y="-7" font-family="Helvetica,sans-Serif" font-size="10.00">::BlueprintNode * &gt;</text>
</a>
</g>
</g>
<!-- Node11&#45;&gt;Node1 -->
<g id="edge10_Node000001_Node000011" class="edge">
<title>Node11&#45;&gt;Node1</title>
<g id="a_edge10_Node000001_Node000011"><a xlink:title=" ">
<path fill="none" stroke="#9a32cd" stroke-dasharray="5,2" d="M505.13,-23.06C550,-28.34 602.62,-40.91 642,-69.5 689.75,-104.17 715.38,-173.68 724.77,-204.36"/>
<polygon fill="#9a32cd" stroke="#9a32cd" points="505.41,-19.57 495.1,-21.99 504.67,-26.53 505.41,-19.57"/>
</a>
</g>
<text text-anchor="start" x="548" y="-75" font-family="Helvetica,sans-Serif" font-size="10.00" fill="grey">m_volumeToNode</text>
</g>
<!-- Node12 -->
<g id="Node000012" class="node">
<title>Node12</title>
<g id="a_Node000012"><a xlink:title=" ">
<polygon fill="white" stroke="#666666" points="109.5,-26 8.5,-26 8.5,-7 109.5,-7 109.5,-26"/>
<text text-anchor="middle" x="59" y="-14" font-family="Helvetica,sans-Serif" font-size="10.00">std::map&lt; K, T &gt;</text>
</a>
</g>
</g>
<!-- Node12&#45;&gt;Node11 -->
<g id="edge11_Node000011_Node000012" class="edge">
<title>Node12&#45;&gt;Node11</title>
<g id="a_edge11_Node000011_Node000012"><a xlink:title=" ">
<path fill="none" stroke="orange" stroke-dasharray="5,2" d="M119.92,-16.47C164.6,-16.51 227.12,-16.74 282,-17.5 297.12,-17.71 313.23,-18.02 328.77,-18.36"/>
<polygon fill="orange" stroke="orange" points="119.82,-12.97 109.82,-16.46 119.82,-19.97 119.82,-12.97"/>
</a>
</g>
<text text-anchor="start" x="153" y="-53" font-family="Helvetica,sans-Serif" font-size="10.00" fill="grey">&lt; const Acts::Volume</text>
<text text-anchor="start" x="153" y="-38" font-family="Helvetica,sans-Serif" font-size="10.00" fill="grey">   *, Acts::Experimental</text>
<text text-anchor="start" x="153" y="-23" font-family="Helvetica,sans-Serif" font-size="10.00" fill="grey">  ::BlueprintNode * &gt;</text>
</g>
<!-- Node13&#45;&gt;Node1 -->
<g id="edge12_Node000001_Node000013" class="edge">
<title>Node13&#45;&gt;Node1</title>
<g id="a_edge12_Node000001_Node000013"><a xlink:title=" ">
<path fill="none" stroke="#9a32cd" stroke-dasharray="5,2" d="M483.61,-81.78C531,-86.59 593.41,-98.12 642,-125.5 676.67,-145.04 705.39,-183.21 719.53,-204.41"/>
<polygon fill="#9a32cd" stroke="#9a32cd" points="483.72,-78.28 473.43,-80.83 483.06,-85.25 483.72,-78.28"/>
</a>
</g>
<text text-anchor="start" x="573" y="-131" font-family="Helvetica,sans-Serif" font-size="10.00" fill="grey">m_shell</text>
</g>
<!-- Node14&#45;&gt;Node1 -->
<g id="edge14_Node000001_Node000014" class="edge">
<title>Node14&#45;&gt;Node1</title>
<g id="a_edge14_Node000001_Node000014"><a xlink:title=" ">
<path fill="none" stroke="#9a32cd" stroke-dasharray="5,2" d="M534.33,-194.45C569.15,-197.46 607.12,-201.18 642,-205.5 647.77,-206.22 653.74,-207.03 659.73,-207.89"/>
<polygon fill="#9a32cd" stroke="#9a32cd" points="534.38,-190.94 524.11,-193.58 533.78,-197.91 534.38,-190.94"/>
</a>
</g>
<text text-anchor="start" x="573" y="-211" font-family="Helvetica,sans-Serif" font-size="10.00" fill="grey">m_gaps</text>
</g>
</g>
</svg>

<g id="navigator" transform="translate(0 0)" fill="#404254">
  <rect fill="#f2f5e9" fill-opacity="0.5" stroke="#606060" stroke-width=".5" x="0" y="0" width="60" height="60"/>
  <use id="zoomplus" xlink:href="#zoomPlus" x="17" y="9" onmousedown="handleZoom(evt,'in')"/>
  <use id="zoomminus" xlink:href="#zoomMin" x="42" y="9" onmousedown="handleZoom(evt,'out')"/>
  <use id="reset" xlink:href="#resetDef" x="30" y="36" onmousedown="handleReset()"/>
   <use id="arrowup" xlink:href="#arrowUp" x="0" y="0" onmousedown="handlePan(0,-1)"/>
  <use id="arrowright" xlink:href="#arrowRight" x="0" y="0" onmousedown="handlePan(1,0)"/>
  <use id="arrowdown" xlink:href="#arrowDown" x="0" y="0" onmousedown="handlePan(0,1)"/>
  <use id="arrowleft" xlink:href="#arrowLeft" x="0" y="0" onmousedown="handlePan(-1,0)"/>
</g>
<svg viewBox="0 0 15 15" width="100%" height="30px" preserveAspectRatio="xMaxYMin meet">
 <g id="arrow_out" transform="scale(0.3 0.3)">
  <a xlink:href="class_acts_1_1_experimental_1_1_container_blueprint_node__coll__graph_org.svg" target="_base">
   <rect id="button" ry="5" rx="5" y="6" x="6" height="38" width="38"
        fill="#f2f5e9" fill-opacity="0.5" stroke="#606060" stroke-width="1.0"/>
   <path id="arrow"
     d="M 11.500037,31.436501 C 11.940474,20.09759 22.043105,11.32322 32.158766,21.979434 L 37.068811,17.246167 C 37.068811,17.246167 37.088388,32 37.088388,32 L 22.160133,31.978069 C 22.160133,31.978069 26.997745,27.140456 26.997745,27.140456 C 18.528582,18.264221 13.291696,25.230495 11.500037,31.436501 z"
     style="fill:#404040;"/>
  </a>
 </g>
</svg>

<style type='text/css'>
<![CDATA[
[data-mouse-over-selected='false'] { opacity: 0.7; }
[data-mouse-over-selected='true']  { opacity: 1.0; }
]]>
</style>
<script type="application/ecmascript"><![CDATA[
document.addEventListener('DOMContentLoaded', (event) => {
  highlightEdges();
  highlightAdjacentNodes();
});
]]></script>
</svg>
