<?xml version="1.0" encoding="UTF-8" standalone="no"?>
<!DOCTYPE svg PUBLIC "-//W3C//DTD SVG 1.1//EN"
 "http://www.w3.org/Graphics/SVG/1.1/DTD/svg11.dtd">
<!-- Generated by graphviz version 2.43.0 (0)
 -->
<!-- Title: Acts::Logging::OutputPrintPolicy Pages: 1 -->
<!--zoomable 182 -->

<svg id="main" version="1.1" xmlns="http://www.w3.org/2000/svg" xmlns:xlink="http://www.w3.org/1999/xlink" xml:space="preserve" onload="init(evt)">

<style type="text/css"><![CDATA[
.node, .edge {opacity: 0.7;}
.node.selected, .edge.selected {opacity: 1;}
.edge:hover path { stroke: red; }
.edge:hover polygon { stroke: red; fill: red; }
]]></style>

<defs>
  <circle id="rim" cx="0" cy="0" r="7"/>
  <circle id="rim2" cx="0" cy="0" r="3.5"/>
  <g id="zoomPlus">
    <use xlink:href="#rim" fill="#404040"><set attributeName="fill" to="#808080" begin="zoomplus.mouseover" end="zoomplus.mouseout"/></use>
    <path d="M-4,0h8M0,-4v8" fill="none" stroke="white" stroke-width="1.5" pointer-events="none"/>
  </g>
  <g id="zoomMin">
    <use xlink:href="#rim" fill="#404040"><set attributeName="fill" to="#808080" begin="zoomminus.mouseover" end="zoomminus.mouseout"/></use>
    <path d="M-4,0h8" fill="none" stroke="white" stroke-width="1.5" pointer-events="none"/>
  </g>
  <g id="arrowUp" transform="translate(30 24)">
    <use xlink:href="#rim"/>
    <path pointer-events="none" fill="none" stroke="white" stroke-width="1.5" d="M0,-3.0v7 M-2.5,-0.5L0,-3.0L2.5,-0.5"/>
  </g>
  <g id="arrowRight" transform="rotate(90) translate(36 -43)">
    <use xlink:href="#rim"/>
    <path pointer-events="none" fill="none" stroke="white" stroke-width="1.5" d="M0,-3.0v7 M-2.5,-0.5L0,-3.0L2.5,-0.5"/>
  </g>
  <g id="arrowDown" transform="rotate(180) translate(-30 -48)">
    <use xlink:href="#rim"/>
    <path pointer-events="none" fill="none" stroke="white" stroke-width="1.5" d="M0,-3.0v7 M-2.5,-0.5L0,-3.0L2.5,-0.5"/>
  </g>
  <g id="arrowLeft" transform="rotate(270) translate(-36 17)">
    <use xlink:href="#rim"/>
    <path pointer-events="none" fill="none" stroke="white" stroke-width="1.5" d="M0,-3.0v7 M-2.5,-0.5L0,-3.0L2.5,-0.5"/>
  </g>
  <g id="resetDef">
    <use xlink:href="#rim2" fill="#404040"><set attributeName="fill" to="#808080" begin="reset.mouseover" end="reset.mouseout"/></use>
  </g>
</defs>
<script type="application/ecmascript">
var viewWidth = 548;
var viewHeight = 182;
var sectionId = 'dynsection-0';
</script>
<script type="application/ecmascript" xlink:href="svg.min.js"/>
<svg id="graph" class="graph">
<g id="viewport">
<title>Acts::Logging::OutputPrintPolicy</title>
<!-- Node1 -->
<g id="Node000001" class="node">
<title>Node1</title>
<g id="a_Node000001"><a xlink:title="abstract base class for printing debug output">
<polygon fill="#999999" stroke="#666666" points="143,-123 0,-123 0,-93 143,-93 143,-123"/>
<text text-anchor="start" x="8" y="-111" font-family="Helvetica,sans-Serif" font-size="10.00">Acts::Logging::OutputPrint</text>
<text text-anchor="middle" x="71.5" y="-100" font-family="Helvetica,sans-Serif" font-size="10.00">Policy</text>
</a>
</g>
</g>
<!-- Node2 -->
<g id="Node000002" class="node">
<title>Node2</title>
<g id="a_Node000002"><a xlink:href="class_acts_1_1_logging_1_1_default_print_policy.html" target="_top" xlink:title="default print policy for debug messages">
<polygon fill="white" stroke="#666666" points="336.5,-145 190.5,-145 190.5,-115 336.5,-115 336.5,-145"/>
<text text-anchor="start" x="198.5" y="-133" font-family="Helvetica,sans-Serif" font-size="10.00">Acts::Logging::DefaultPrint</text>
<text text-anchor="middle" x="263.5" y="-122" font-family="Helvetica,sans-Serif" font-size="10.00">Policy</text>
</a>
</g>
</g>
<!-- Node1&#45;&gt;Node2 -->
<g id="edge1_Node000001_Node000002" class="edge">
<title>Node1&#45;&gt;Node2</title>
<g id="a_edge1_Node000001_Node000002"><a xlink:title=" ">
<path fill="none" stroke="#63b8ff" d="M153.47,-117.38C165.75,-118.8 178.35,-120.26 190.42,-121.65"/>
<polygon fill="#63b8ff" stroke="#63b8ff" points="153.59,-113.87 143.25,-116.19 152.78,-120.82 153.59,-113.87"/>
</a>
</g>
</g>
<!-- Node3 -->
<g id="Node000003" class="node">
<title>Node3</title>
<g id="a_Node000003"><a xlink:href="class_acts_1_1_logging_1_1_output_decorator.html" target="_top" xlink:title="base class for decorating the debug output">
<polygon fill="white" stroke="#666666" points="348,-96.5 179,-96.5 179,-77.5 348,-77.5 348,-96.5"/>
<text text-anchor="middle" x="263.5" y="-84.5" font-family="Helvetica,sans-Serif" font-size="10.00">Acts::Logging::OutputDecorator</text>
</a>
</g>
</g>
<!-- Node1&#45;&gt;Node3 -->
<g id="edge2_Node000001_Node000003" class="edge">
<title>Node1&#45;&gt;Node3</title>
<g id="a_edge2_Node000001_Node000003"><a xlink:title=" ">
<path fill="none" stroke="#63b8ff" d="M153.42,-99.06C161.84,-98.13 170.41,-97.18 178.86,-96.24"/>
<polygon fill="#63b8ff" stroke="#63b8ff" points="152.8,-95.6 143.25,-100.18 153.57,-102.56 152.8,-95.6"/>
</a>
</g>
</g>
<!-- Node4 -->
<g id="Node000004" class="node">
<title>Node4</title>
<g id="a_Node000004"><a xlink:href="class_acts_1_1_logging_1_1_level_output_decorator.html" target="_top" xlink:title="decorate debug message with its debug level">
<polygon fill="white" stroke="#666666" points="535.5,-174 388.5,-174 388.5,-144 535.5,-144 535.5,-174"/>
<text text-anchor="start" x="396.5" y="-162" font-family="Helvetica,sans-Serif" font-size="10.00">Acts::Logging::LevelOutput</text>
<text text-anchor="middle" x="462" y="-151" font-family="Helvetica,sans-Serif" font-size="10.00">Decorator</text>
</a>
</g>
</g>
<!-- Node3&#45;&gt;Node4 -->
<g id="edge3_Node000003_Node000004" class="edge">
<title>Node3&#45;&gt;Node4</title>
<g id="a_edge3_Node000003_Node000004"><a xlink:title=" ">
<path fill="none" stroke="#63b8ff" d="M332.18,-99.59C337.64,-101.44 342.98,-103.57 348,-106 366.49,-114.95 365.87,-125.33 384,-135 390.3,-138.36 397.15,-141.34 404.07,-143.95"/>
<polygon fill="#63b8ff" stroke="#63b8ff" points="332.86,-96.13 322.27,-96.52 330.79,-102.82 332.86,-96.13"/>
</a>
</g>
</g>
<!-- Node5 -->
<g id="Node000005" class="node">
<title>Node5</title>
<g id="a_Node000005"><a xlink:href="class_acts_1_1_logging_1_1_named_output_decorator.html" target="_top" xlink:title="decorate debug message with a name">
<polygon fill="white" stroke="#666666" points="540,-126 384,-126 384,-96 540,-96 540,-126"/>
<text text-anchor="start" x="392" y="-114" font-family="Helvetica,sans-Serif" font-size="10.00">Acts::Logging::NamedOutput</text>
<text text-anchor="middle" x="462" y="-103" font-family="Helvetica,sans-Serif" font-size="10.00">Decorator</text>
</a>
</g>
</g>
<!-- Node3&#45;&gt;Node5 -->
<g id="edge4_Node000003_Node000005" class="edge">
<title>Node3&#45;&gt;Node5</title>
<g id="a_edge4_Node000003_Node000005"><a xlink:title=" ">
<path fill="none" stroke="#63b8ff" d="M352.41,-97.74C362.87,-99.02 373.5,-100.31 383.79,-101.57"/>
<polygon fill="#63b8ff" stroke="#63b8ff" points="352.79,-94.26 342.44,-96.52 351.95,-101.21 352.79,-94.26"/>
</a>
</g>
</g>
<!-- Node6 -->
<g id="Node000006" class="node">
<title>Node6</title>
<g id="a_Node000006"><a xlink:href="class_acts_1_1_logging_1_1_thread_output_decorator.html" target="_top" xlink:title="decorate debug message with a thread ID">
<polygon fill="white" stroke="#666666" points="539.5,-78 384.5,-78 384.5,-48 539.5,-48 539.5,-78"/>
<text text-anchor="start" x="392.5" y="-66" font-family="Helvetica,sans-Serif" font-size="10.00">Acts::Logging::ThreadOutput</text>
<text text-anchor="middle" x="462" y="-55" font-family="Helvetica,sans-Serif" font-size="10.00">Decorator</text>
</a>
</g>
</g>
<!-- Node3&#45;&gt;Node6 -->
<g id="edge5_Node000003_Node000006" class="edge">
<title>Node3&#45;&gt;Node6</title>
<g id="a_edge5_Node000003_Node000006"><a xlink:title=" ">
<path fill="none" stroke="#63b8ff" d="M352.57,-76.24C363.2,-74.95 373.99,-73.63 384.43,-72.35"/>
<polygon fill="#63b8ff" stroke="#63b8ff" points="351.95,-72.79 342.44,-77.48 352.79,-79.74 351.95,-72.79"/>
</a>
</g>
</g>
<!-- Node7 -->
<g id="Node000007" class="node">
<title>Node7</title>
<g id="a_Node000007"><a xlink:href="class_acts_1_1_logging_1_1_timed_output_decorator.html" target="_top" xlink:title="decorate debug message with a time stamp">
<polygon fill="white" stroke="#666666" points="538,-30 386,-30 386,0 538,0 538,-30"/>
<text text-anchor="start" x="394" y="-18" font-family="Helvetica,sans-Serif" font-size="10.00">Acts::Logging::TimedOutput</text>
<text text-anchor="middle" x="462" y="-7" font-family="Helvetica,sans-Serif" font-size="10.00">Decorator</text>
</a>
</g>
</g>
<!-- Node3&#45;&gt;Node7 -->
<g id="edge6_Node000003_Node000007" class="edge">
<title>Node3&#45;&gt;Node7</title>
<g id="a_edge6_Node000003_Node000007"><a xlink:title=" ">
<path fill="none" stroke="#63b8ff" d="M296.06,-73.52C320,-63.49 353.83,-49.74 384,-39 392.57,-35.95 401.76,-32.9 410.69,-30.05"/>
<polygon fill="#63b8ff" stroke="#63b8ff" points="294.62,-70.33 286.76,-77.44 297.34,-76.78 294.62,-70.33"/>
</a>
</g>
</g>
</g>
</svg>

<g id="navigator" transform="translate(0 0)" fill="#404254">
  <rect fill="#f2f5e9" fill-opacity="0.5" stroke="#606060" stroke-width=".5" x="0" y="0" width="60" height="60"/>
  <use id="zoomplus" xlink:href="#zoomPlus" x="17" y="9" onmousedown="handleZoom(evt,'in')"/>
  <use id="zoomminus" xlink:href="#zoomMin" x="42" y="9" onmousedown="handleZoom(evt,'out')"/>
  <use id="reset" xlink:href="#resetDef" x="30" y="36" onmousedown="handleReset()"/>
   <use id="arrowup" xlink:href="#arrowUp" x="0" y="0" onmousedown="handlePan(0,-1)"/>
  <use id="arrowright" xlink:href="#arrowRight" x="0" y="0" onmousedown="handlePan(1,0)"/>
  <use id="arrowdown" xlink:href="#arrowDown" x="0" y="0" onmousedown="handlePan(0,1)"/>
  <use id="arrowleft" xlink:href="#arrowLeft" x="0" y="0" onmousedown="handlePan(-1,0)"/>
</g>
<svg viewBox="0 0 15 15" width="100%" height="30px" preserveAspectRatio="xMaxYMin meet">
 <g id="arrow_out" transform="scale(0.3 0.3)">
  <a xlink:href="class_acts_1_1_logging_1_1_output_print_policy__inherit__graph_org.svg" target="_base">
   <rect id="button" ry="5" rx="5" y="6" x="6" height="38" width="38"
        fill="#f2f5e9" fill-opacity="0.5" stroke="#606060" stroke-width="1.0"/>
   <path id="arrow"
     d="M 11.500037,31.436501 C 11.940474,20.09759 22.043105,11.32322 32.158766,21.979434 L 37.068811,17.246167 C 37.068811,17.246167 37.088388,32 37.088388,32 L 22.160133,31.978069 C 22.160133,31.978069 26.997745,27.140456 26.997745,27.140456 C 18.528582,18.264221 13.291696,25.230495 11.500037,31.436501 z"
     style="fill:#404040;"/>
  </a>
 </g>
</svg>

<style type='text/css'>
<![CDATA[
[data-mouse-over-selected='false'] { opacity: 0.7; }
[data-mouse-over-selected='true']  { opacity: 1.0; }
]]>
</style>
<script type="application/ecmascript"><![CDATA[
document.addEventListener('DOMContentLoaded', (event) => {
  highlightEdges();
  highlightAdjacentNodes();
});
]]></script>
</svg>
