<?xml version="1.0" encoding="UTF-8" standalone="no"?>
<!DOCTYPE svg PUBLIC "-//W3C//DTD SVG 1.1//EN"
 "http://www.w3.org/Graphics/SVG/1.1/DTD/svg11.dtd">
<!-- Generated by graphviz version 2.43.0 (0)
 -->
<!-- Title: Graphical Class Hierarchy Pages: 1 -->
<svg width="374pt" height="638pt"
 viewBox="0.00 0.00 374.00 638.00" xmlns="http://www.w3.org/2000/svg" xmlns:xlink="http://www.w3.org/1999/xlink">
<g id="graph0" class="graph" transform="scale(1 1) rotate(0) translate(4 634)">
<title>Graphical Class Hierarchy</title>
<!-- Node0 -->
<g id="Node000000" class="node">
<title>Node0</title>
<g id="a_Node000000"><a xlink:title=" ">
<polygon fill="#e0e0e0" stroke="#999999" points="89,-228.5 0,-228.5 0,-209.5 89,-209.5 89,-228.5"/>
<text text-anchor="middle" x="44.5" y="-216.5" font-family="Helvetica,sans-Serif" font-size="10.00">std::false_type</text>
</a>
</g>
</g>
<!-- Node1 -->
<g id="Node000001" class="node">
<title>Node1</title>
<g id="a_Node000001"><a xlink:href="struct_acts_1_1_supports_bound_parameters_3_01_eigen_stepper_3_4_01_4.html" target="_top" xlink:title=" ">
<polygon fill="white" stroke="#666666" points="332,-426 159,-426 159,-396 332,-396 332,-426"/>
<text text-anchor="start" x="167" y="-414" font-family="Helvetica,sans-Serif" font-size="10.00">Acts::SupportsBoundParameters</text>
<text text-anchor="middle" x="245.5" y="-403" font-family="Helvetica,sans-Serif" font-size="10.00">&lt; EigenStepper&lt;&gt; &gt;</text>
</a>
</g>
</g>
<!-- Node0&#45;&gt;Node1 -->
<g id="edge284_Node000000_Node000001" class="edge">
<title>Node0&#45;&gt;Node1</title>
<g id="a_edge284_Node000000_Node000001"><a xlink:title=" ">
<path fill="none" stroke="#63b8ff" d="M48.95,-238.99C56.22,-274.68 76.6,-349.16 125,-387 134.92,-394.75 146.68,-400.2 158.9,-403.99"/>
<polygon fill="#63b8ff" stroke="#63b8ff" points="52.33,-238.04 47.03,-228.86 45.45,-239.34 52.33,-238.04"/>
</a>
</g>
</g>
<!-- Node7 -->
<g id="Node000007" class="node">
<title>Node7</title>
<g id="a_Node000007"><a xlink:href="struct_acts_1_1_supports_bound_parameters_3_01_straight_line_stepper_01_4.html" target="_top" xlink:title=" ">
<polygon fill="white" stroke="#666666" points="332,-378 159,-378 159,-348 332,-348 332,-378"/>
<text text-anchor="start" x="167" y="-366" font-family="Helvetica,sans-Serif" font-size="10.00">Acts::SupportsBoundParameters</text>
<text text-anchor="middle" x="245.5" y="-355" font-family="Helvetica,sans-Serif" font-size="10.00">&lt; StraightLineStepper &gt;</text>
</a>
</g>
</g>
<!-- Node0&#45;&gt;Node7 -->
<g id="edge285_Node000000_Node000007" class="edge">
<title>Node0&#45;&gt;Node7</title>
<g id="a_edge285_Node000000_Node000007"><a xlink:title=" ">
<path fill="none" stroke="#63b8ff" d="M52.64,-238.17C63.74,-265.2 87.83,-314.01 125,-339 135.19,-345.85 146.89,-350.83 158.9,-354.43"/>
<polygon fill="#63b8ff" stroke="#63b8ff" points="55.81,-236.69 48.9,-228.66 49.3,-239.25 55.81,-236.69"/>
</a>
</g>
</g>
<!-- Node8 -->
<g id="Node000008" class="node">
<title>Node8</title>
<g id="a_Node000008"><a xlink:href="struct_acts_1_1_supports_bound_parameters_3_01_sympy_stepper_01_4.html" target="_top" xlink:title=" ">
<polygon fill="white" stroke="#666666" points="332,-330 159,-330 159,-300 332,-300 332,-330"/>
<text text-anchor="start" x="167" y="-318" font-family="Helvetica,sans-Serif" font-size="10.00">Acts::SupportsBoundParameters</text>
<text text-anchor="middle" x="245.5" y="-307" font-family="Helvetica,sans-Serif" font-size="10.00">&lt; SympyStepper &gt;</text>
</a>
</g>
</g>
<!-- Node0&#45;&gt;Node8 -->
<g id="edge286_Node000000_Node000008" class="edge">
<title>Node0&#45;&gt;Node8</title>
<g id="a_edge286_Node000000_Node000008"><a xlink:title=" ">
<path fill="none" stroke="#63b8ff" d="M59.87,-236.63C74.48,-253.31 98.66,-277.72 125,-291 135.49,-296.29 147.04,-300.41 158.71,-303.63"/>
<polygon fill="#63b8ff" stroke="#63b8ff" points="62.29,-234.06 53.14,-228.71 56.95,-238.59 62.29,-234.06"/>
</a>
</g>
</g>
<!-- Node9 -->
<g id="Node000009" class="node">
<title>Node9</title>
<g id="a_Node000009"><a xlink:href="struct_acts_1_1_is_read_only_multi_trajectory_3_01_acts_plugins_1_1_mutable_podio_track_state_container_01_4.html" target="_top" xlink:title=" ">
<polygon fill="white" stroke="#666666" points="349.5,-137.5 141.5,-137.5 141.5,-96.5 349.5,-96.5 349.5,-137.5"/>
<text text-anchor="start" x="149.5" y="-125.5" font-family="Helvetica,sans-Serif" font-size="10.00">Acts::IsReadOnlyMultiTrajectory</text>
<text text-anchor="start" x="149.5" y="-114.5" font-family="Helvetica,sans-Serif" font-size="10.00">&lt; ActsPlugins::MutablePodioTrackState</text>
<text text-anchor="middle" x="245.5" y="-103.5" font-family="Helvetica,sans-Serif" font-size="10.00">Container &gt;</text>
</a>
</g>
</g>
<!-- Node0&#45;&gt;Node9 -->
<g id="edge287_Node000000_Node000009" class="edge">
<title>Node0&#45;&gt;Node9</title>
<g id="a_edge287_Node000000_Node000009"><a xlink:title=" ">
<path fill="none" stroke="#63b8ff" d="M60.02,-201.64C74.73,-185.17 98.99,-160.91 125,-147 131.6,-143.47 138.63,-140.35 145.85,-137.58"/>
<polygon fill="#63b8ff" stroke="#63b8ff" points="57.15,-199.61 53.23,-209.46 62.43,-204.2 57.15,-199.61"/>
</a>
</g>
</g>
<!-- Node10 -->
<g id="Node000010" class="node">
<title>Node10</title>
<g id="a_Node000010"><a xlink:href="struct_acts_1_1_is_read_only_multi_trajectory_3_01_vector_multi_trajectory_01_4.html" target="_top" xlink:title=" ">
<polygon fill="white" stroke="#666666" points="331.5,-78 159.5,-78 159.5,-48 331.5,-48 331.5,-78"/>
<text text-anchor="start" x="167.5" y="-66" font-family="Helvetica,sans-Serif" font-size="10.00">Acts::IsReadOnlyMultiTrajectory</text>
<text text-anchor="middle" x="245.5" y="-55" font-family="Helvetica,sans-Serif" font-size="10.00">&lt; VectorMultiTrajectory &gt;</text>
</a>
</g>
</g>
<!-- Node0&#45;&gt;Node10 -->
<g id="edge288_Node000000_Node000010" class="edge">
<title>Node0&#45;&gt;Node10</title>
<g id="a_edge288_Node000000_Node000010"><a xlink:title=" ">
<path fill="none" stroke="#63b8ff" d="M51.5,-199.63C61.63,-170.32 85.04,-115.13 125,-87 135.21,-79.81 147.06,-74.66 159.25,-70.99"/>
<polygon fill="#63b8ff" stroke="#63b8ff" points="48.06,-198.9 48.26,-209.49 54.71,-201.09 48.06,-198.9"/>
</a>
</g>
</g>
<!-- Node11 -->
<g id="Node000011" class="node">
<title>Node11</title>
<g id="a_Node000011"><a xlink:href="struct_acts_1_1_is_read_only_track_container_3_01_acts_plugins_1_1_mutable_podio_track_container_01_4.html" target="_top" xlink:title=" ">
<polygon fill="white" stroke="#666666" points="366,-30 125,-30 125,0 366,0 366,-30"/>
<text text-anchor="start" x="133" y="-18" font-family="Helvetica,sans-Serif" font-size="10.00">Acts::IsReadOnlyTrackContainer</text>
<text text-anchor="middle" x="245.5" y="-7" font-family="Helvetica,sans-Serif" font-size="10.00">&lt; ActsPlugins::MutablePodioTrackContainer &gt;</text>
</a>
</g>
</g>
<!-- Node0&#45;&gt;Node11 -->
<g id="edge289_Node000000_Node000011" class="edge">
<title>Node0&#45;&gt;Node11</title>
<g id="a_edge289_Node000000_Node000011"><a xlink:title=" ">
<path fill="none" stroke="#63b8ff" d="M48.23,-199.18C54.5,-161.65 73.58,-80.29 125,-39 129.21,-35.62 133.76,-32.68 138.55,-30.12"/>
<polygon fill="#63b8ff" stroke="#63b8ff" points="44.73,-198.91 46.67,-209.33 51.65,-199.97 44.73,-198.91"/>
</a>
</g>
</g>
<!-- Node12 -->
<g id="Node000012" class="node">
<title>Node12</title>
<g id="a_Node000012"><a xlink:href="struct_acts_1_1_is_read_only_track_container_3_01_vector_track_container_01_4.html" target="_top" xlink:title=" ">
<polygon fill="white" stroke="#666666" points="331.5,-282 159.5,-282 159.5,-252 331.5,-252 331.5,-282"/>
<text text-anchor="start" x="167.5" y="-270" font-family="Helvetica,sans-Serif" font-size="10.00">Acts::IsReadOnlyTrackContainer</text>
<text text-anchor="middle" x="245.5" y="-259" font-family="Helvetica,sans-Serif" font-size="10.00">&lt; VectorTrackContainer &gt;</text>
</a>
</g>
</g>
<!-- Node0&#45;&gt;Node12 -->
<g id="edge290_Node000000_Node000012" class="edge">
<title>Node0&#45;&gt;Node12</title>
<g id="a_edge290_Node000000_Node000012"><a xlink:title=" ">
<path fill="none" stroke="#63b8ff" d="M84.64,-231.62C97.44,-235.53 111.76,-239.68 125,-243 137.62,-246.17 151.08,-249.19 164.24,-251.97"/>
<polygon fill="#63b8ff" stroke="#63b8ff" points="85.35,-228.18 74.76,-228.56 83.28,-234.86 85.35,-228.18"/>
</a>
</g>
</g>
<!-- Node13 -->
<g id="Node000013" class="node">
<title>Node13</title>
<g id="a_Node000013"><a xlink:href="struct_acts_1_1_supports_bound_parameters.html" target="_top" xlink:title=" ">
<polygon fill="white" stroke="#666666" points="332,-234 159,-234 159,-204 332,-204 332,-234"/>
<text text-anchor="start" x="167" y="-222" font-family="Helvetica,sans-Serif" font-size="10.00">Acts::SupportsBoundParameters</text>
<text text-anchor="middle" x="245.5" y="-211" font-family="Helvetica,sans-Serif" font-size="10.00">&lt; stepper_t &gt;</text>
</a>
</g>
</g>
<!-- Node0&#45;&gt;Node13 -->
<g id="edge291_Node000000_Node000013" class="edge">
<title>Node0&#45;&gt;Node13</title>
<g id="a_edge291_Node000000_Node000013"><a xlink:title=" ">
<path fill="none" stroke="#63b8ff" d="M99.35,-219C117.68,-219 138.65,-219 158.84,-219"/>
<polygon fill="#63b8ff" stroke="#63b8ff" points="99.17,-215.5 89.17,-219 99.17,-222.5 99.17,-215.5"/>
</a>
</g>
</g>
<!-- Node14 -->
<g id="Node000014" class="node">
<title>Node14</title>
<g id="a_Node000014"><a xlink:href="struct_acts_1_1missing__specialization.html" target="_top" xlink:title=" ">
<polygon fill="white" stroke="#666666" points="323,-186 168,-186 168,-156 323,-156 323,-186"/>
<text text-anchor="start" x="176" y="-174" font-family="Helvetica,sans-Serif" font-size="10.00">Acts::missing_specialization</text>
<text text-anchor="middle" x="245.5" y="-163" font-family="Helvetica,sans-Serif" font-size="10.00">&lt; T, decorator_t &gt;</text>
</a>
</g>
</g>
<!-- Node0&#45;&gt;Node14 -->
<g id="edge292_Node000000_Node000014" class="edge">
<title>Node0&#45;&gt;Node14</title>
<g id="a_edge292_Node000000_Node000014"><a xlink:title=" ">
<path fill="none" stroke="#63b8ff" d="M84.64,-206.38C97.44,-202.47 111.76,-198.32 125,-195 138.75,-191.55 153.49,-188.26 167.76,-185.29"/>
<polygon fill="#63b8ff" stroke="#63b8ff" points="83.28,-203.14 74.76,-209.44 85.35,-209.82 83.28,-203.14"/>
</a>
</g>
</g>
<!-- Node2 -->
<g id="Node000002" class="node">
<title>Node2</title>
<g id="a_Node000002"><a xlink:title=" ">
<polygon fill="#e0e0e0" stroke="#999999" points="86.5,-474.5 2.5,-474.5 2.5,-455.5 86.5,-455.5 86.5,-474.5"/>
<text text-anchor="middle" x="44.5" y="-462.5" font-family="Helvetica,sans-Serif" font-size="10.00">std::true_type</text>
</a>
</g>
</g>
<!-- Node2&#45;&gt;Node1 -->
<g id="edge297_Node000002_Node000001" class="edge">
<title>Node2&#45;&gt;Node1</title>
<g id="a_edge297_Node000002_Node000001"><a xlink:title=" ">
<path fill="none" stroke="#63b8ff" d="M77.23,-451.67C91.63,-445.98 108.99,-439.6 125,-435 136.39,-431.73 148.52,-428.74 160.51,-426.07"/>
<polygon fill="#63b8ff" stroke="#63b8ff" points="75.76,-448.49 67.79,-455.47 78.37,-454.98 75.76,-448.49"/>
</a>
</g>
</g>
<!-- Node2&#45;&gt;Node7 -->
<g id="edge298_Node000002_Node000007" class="edge">
<title>Node2&#45;&gt;Node7</title>
<g id="a_edge298_Node000002_Node000007"><a xlink:title=" ">
<path fill="none" stroke="#63b8ff" d="M58.48,-447.24C72.71,-429.14 97.25,-401.7 125,-387 135.47,-381.45 147.08,-377.19 158.83,-373.9"/>
<polygon fill="#63b8ff" stroke="#63b8ff" points="55.63,-445.21 52.35,-455.28 61.2,-449.45 55.63,-445.21"/>
</a>
</g>
</g>
<!-- Node2&#45;&gt;Node8 -->
<g id="edge299_Node000002_Node000008" class="edge">
<title>Node2&#45;&gt;Node8</title>
<g id="a_edge299_Node000002_Node000008"><a xlink:title=" ">
<path fill="none" stroke="#63b8ff" d="M52.06,-445.68C62.69,-417.48 86.47,-365.54 125,-339 135.11,-332.04 146.77,-327 158.76,-323.37"/>
<polygon fill="#63b8ff" stroke="#63b8ff" points="48.72,-444.63 48.63,-455.22 55.31,-447 48.72,-444.63"/>
</a>
</g>
</g>
<!-- Node3 -->
<g id="Node000003" class="node">
<title>Node3</title>
<g id="a_Node000003"><a xlink:href="struct_acts_1_1_is_read_only_multi_trajectory_3_01_acts_plugins_1_1_const_podio_track_state_container_01_4.html" target="_top" xlink:title=" ">
<polygon fill="white" stroke="#666666" points="343.5,-485.5 147.5,-485.5 147.5,-444.5 343.5,-444.5 343.5,-485.5"/>
<text text-anchor="start" x="155.5" y="-473.5" font-family="Helvetica,sans-Serif" font-size="10.00">Acts::IsReadOnlyMultiTrajectory</text>
<text text-anchor="start" x="155.5" y="-462.5" font-family="Helvetica,sans-Serif" font-size="10.00">&lt; ActsPlugins::ConstPodioTrackState</text>
<text text-anchor="middle" x="245.5" y="-451.5" font-family="Helvetica,sans-Serif" font-size="10.00">Container &gt;</text>
</a>
</g>
</g>
<!-- Node2&#45;&gt;Node3 -->
<g id="edge293_Node000002_Node000003" class="edge">
<title>Node2&#45;&gt;Node3</title>
<g id="a_edge293_Node000002_Node000003"><a xlink:title=" ">
<path fill="none" stroke="#63b8ff" d="M97.03,-465C112.41,-465 129.79,-465 147.09,-465"/>
<polygon fill="#63b8ff" stroke="#63b8ff" points="96.73,-461.5 86.73,-465 96.73,-468.5 96.73,-461.5"/>
</a>
</g>
</g>
<!-- Node4 -->
<g id="Node000004" class="node">
<title>Node4</title>
<g id="a_Node000004"><a xlink:href="struct_acts_1_1_is_read_only_multi_trajectory_3_01_const_vector_multi_trajectory_01_4.html" target="_top" xlink:title=" ">
<polygon fill="white" stroke="#666666" points="331.5,-630 159.5,-630 159.5,-600 331.5,-600 331.5,-630"/>
<text text-anchor="start" x="167.5" y="-618" font-family="Helvetica,sans-Serif" font-size="10.00">Acts::IsReadOnlyMultiTrajectory</text>
<text text-anchor="middle" x="245.5" y="-607" font-family="Helvetica,sans-Serif" font-size="10.00">&lt; ConstVectorMultiTrajectory &gt;</text>
</a>
</g>
</g>
<!-- Node2&#45;&gt;Node4 -->
<g id="edge294_Node000002_Node000004" class="edge">
<title>Node2&#45;&gt;Node4</title>
<g id="a_edge294_Node000002_Node000004"><a xlink:title=" ">
<path fill="none" stroke="#63b8ff" d="M52.06,-484.32C62.69,-512.52 86.47,-564.46 125,-591 135.28,-598.08 147.17,-603.17 159.38,-606.82"/>
<polygon fill="#63b8ff" stroke="#63b8ff" points="55.31,-483 48.63,-474.78 48.72,-485.37 55.31,-483"/>
</a>
</g>
</g>
<!-- Node5 -->
<g id="Node000005" class="node">
<title>Node5</title>
<g id="a_Node000005"><a xlink:href="struct_acts_1_1_is_read_only_track_container_3_01_acts_plugins_1_1_const_podio_track_container_01_4.html" target="_top" xlink:title=" ">
<polygon fill="white" stroke="#666666" points="360,-582 131,-582 131,-552 360,-552 360,-582"/>
<text text-anchor="start" x="139" y="-570" font-family="Helvetica,sans-Serif" font-size="10.00">Acts::IsReadOnlyTrackContainer</text>
<text text-anchor="middle" x="245.5" y="-559" font-family="Helvetica,sans-Serif" font-size="10.00">&lt; ActsPlugins::ConstPodioTrackContainer &gt;</text>
</a>
</g>
</g>
<!-- Node2&#45;&gt;Node5 -->
<g id="edge295_Node000002_Node000005" class="edge">
<title>Node2&#45;&gt;Node5</title>
<g id="a_edge295_Node000002_Node000005"><a xlink:title=" ">
<path fill="none" stroke="#63b8ff" d="M58.48,-482.76C72.71,-500.86 97.25,-528.3 125,-543 131.55,-546.47 138.53,-549.43 145.72,-551.97"/>
<polygon fill="#63b8ff" stroke="#63b8ff" points="61.2,-480.55 52.35,-474.72 55.63,-484.79 61.2,-480.55"/>
</a>
</g>
</g>
<!-- Node6 -->
<g id="Node000006" class="node">
<title>Node6</title>
<g id="a_Node000006"><a xlink:href="struct_acts_1_1_is_read_only_track_container_3_01_const_vector_track_container_01_4.html" target="_top" xlink:title=" ">
<polygon fill="white" stroke="#666666" points="331.5,-534 159.5,-534 159.5,-504 331.5,-504 331.5,-534"/>
<text text-anchor="start" x="167.5" y="-522" font-family="Helvetica,sans-Serif" font-size="10.00">Acts::IsReadOnlyTrackContainer</text>
<text text-anchor="middle" x="245.5" y="-511" font-family="Helvetica,sans-Serif" font-size="10.00">&lt; ConstVectorTrackContainer &gt;</text>
</a>
</g>
</g>
<!-- Node2&#45;&gt;Node6 -->
<g id="edge296_Node000002_Node000006" class="edge">
<title>Node2&#45;&gt;Node6</title>
<g id="a_edge296_Node000002_Node000006"><a xlink:title=" ">
<path fill="none" stroke="#63b8ff" d="M77.23,-478.33C91.63,-484.02 108.99,-490.4 125,-495 136.39,-498.27 148.52,-501.26 160.51,-503.93"/>
<polygon fill="#63b8ff" stroke="#63b8ff" points="78.37,-475.02 67.79,-474.53 75.76,-481.51 78.37,-475.02"/>
</a>
</g>
</g>
</g>
</svg>
