<?xml version="1.0" encoding="UTF-8" standalone="no"?>
<!DOCTYPE svg PUBLIC "-//W3C//DTD SVG 1.1//EN"
 "http://www.w3.org/Graphics/SVG/1.1/DTD/svg11.dtd">
<!-- Generated by graphviz version 2.43.0 (0)
 -->
<!-- Title: Graphical Class Hierarchy Pages: 1 -->
<svg width="548pt" height="182pt"
 viewBox="0.00 0.00 548.00 182.00" xmlns="http://www.w3.org/2000/svg" xmlns:xlink="http://www.w3.org/1999/xlink">
<g id="graph0" class="graph" transform="scale(1 1) rotate(0) translate(4 178)">
<title>Graphical Class Hierarchy</title>
<!-- Node0 -->
<g id="Node000000" class="node">
<title>Node0</title>
<g id="a_Node000000"><a xlink:href="class_acts_1_1_logging_1_1_output_print_policy.html" target="_top" xlink:title="abstract base class for printing debug output">
<polygon fill="white" stroke="#666666" points="143,-123 0,-123 0,-93 143,-93 143,-123"/>
<text text-anchor="start" x="8" y="-111" font-family="Helvetica,sans-Serif" font-size="10.00">Acts::Logging::OutputPrint</text>
<text text-anchor="middle" x="71.5" y="-100" font-family="Helvetica,sans-Serif" font-size="10.00">Policy</text>
</a>
</g>
</g>
<!-- Node1 -->
<g id="Node000001" class="node">
<title>Node1</title>
<g id="a_Node000001"><a xlink:href="class_acts_1_1_logging_1_1_default_print_policy.html" target="_top" xlink:title="default print policy for debug messages">
<polygon fill="white" stroke="#666666" points="336.5,-145 190.5,-145 190.5,-115 336.5,-115 336.5,-145"/>
<text text-anchor="start" x="198.5" y="-133" font-family="Helvetica,sans-Serif" font-size="10.00">Acts::Logging::DefaultPrint</text>
<text text-anchor="middle" x="263.5" y="-122" font-family="Helvetica,sans-Serif" font-size="10.00">Policy</text>
</a>
</g>
</g>
<!-- Node0&#45;&gt;Node1 -->
<g id="edge171_Node000000_Node000001" class="edge">
<title>Node0&#45;&gt;Node1</title>
<g id="a_edge171_Node000000_Node000001"><a xlink:title=" ">
<path fill="none" stroke="#63b8ff" d="M153.47,-117.38C165.75,-118.8 178.35,-120.26 190.42,-121.65"/>
<polygon fill="#63b8ff" stroke="#63b8ff" points="153.59,-113.87 143.25,-116.19 152.78,-120.82 153.59,-113.87"/>
</a>
</g>
</g>
<!-- Node2 -->
<g id="Node000002" class="node">
<title>Node2</title>
<g id="a_Node000002"><a xlink:href="class_acts_1_1_logging_1_1_output_decorator.html" target="_top" xlink:title="base class for decorating the debug output">
<polygon fill="white" stroke="#666666" points="348,-96.5 179,-96.5 179,-77.5 348,-77.5 348,-96.5"/>
<text text-anchor="middle" x="263.5" y="-84.5" font-family="Helvetica,sans-Serif" font-size="10.00">Acts::Logging::OutputDecorator</text>
</a>
</g>
</g>
<!-- Node0&#45;&gt;Node2 -->
<g id="edge172_Node000000_Node000002" class="edge">
<title>Node0&#45;&gt;Node2</title>
<g id="a_edge172_Node000000_Node000002"><a xlink:title=" ">
<path fill="none" stroke="#63b8ff" d="M153.42,-99.06C161.84,-98.13 170.41,-97.18 178.86,-96.24"/>
<polygon fill="#63b8ff" stroke="#63b8ff" points="152.8,-95.6 143.25,-100.18 153.57,-102.56 152.8,-95.6"/>
</a>
</g>
</g>
<!-- Node3 -->
<g id="Node000003" class="node">
<title>Node3</title>
<g id="a_Node000003"><a xlink:href="class_acts_1_1_logging_1_1_level_output_decorator.html" target="_top" xlink:title="decorate debug message with its debug level">
<polygon fill="white" stroke="#666666" points="535.5,-174 388.5,-174 388.5,-144 535.5,-144 535.5,-174"/>
<text text-anchor="start" x="396.5" y="-162" font-family="Helvetica,sans-Serif" font-size="10.00">Acts::Logging::LevelOutput</text>
<text text-anchor="middle" x="462" y="-151" font-family="Helvetica,sans-Serif" font-size="10.00">Decorator</text>
</a>
</g>
</g>
<!-- Node2&#45;&gt;Node3 -->
<g id="edge173_Node000002_Node000003" class="edge">
<title>Node2&#45;&gt;Node3</title>
<g id="a_edge173_Node000002_Node000003"><a xlink:title=" ">
<path fill="none" stroke="#63b8ff" d="M332.18,-99.59C337.64,-101.44 342.98,-103.57 348,-106 366.49,-114.95 365.87,-125.33 384,-135 390.3,-138.36 397.15,-141.34 404.07,-143.95"/>
<polygon fill="#63b8ff" stroke="#63b8ff" points="332.86,-96.13 322.27,-96.52 330.79,-102.82 332.86,-96.13"/>
</a>
</g>
</g>
<!-- Node4 -->
<g id="Node000004" class="node">
<title>Node4</title>
<g id="a_Node000004"><a xlink:href="class_acts_1_1_logging_1_1_named_output_decorator.html" target="_top" xlink:title="decorate debug message with a name">
<polygon fill="white" stroke="#666666" points="540,-126 384,-126 384,-96 540,-96 540,-126"/>
<text text-anchor="start" x="392" y="-114" font-family="Helvetica,sans-Serif" font-size="10.00">Acts::Logging::NamedOutput</text>
<text text-anchor="middle" x="462" y="-103" font-family="Helvetica,sans-Serif" font-size="10.00">Decorator</text>
</a>
</g>
</g>
<!-- Node2&#45;&gt;Node4 -->
<g id="edge174_Node000002_Node000004" class="edge">
<title>Node2&#45;&gt;Node4</title>
<g id="a_edge174_Node000002_Node000004"><a xlink:title=" ">
<path fill="none" stroke="#63b8ff" d="M352.41,-97.74C362.87,-99.02 373.5,-100.31 383.79,-101.57"/>
<polygon fill="#63b8ff" stroke="#63b8ff" points="352.79,-94.26 342.44,-96.52 351.95,-101.21 352.79,-94.26"/>
</a>
</g>
</g>
<!-- Node5 -->
<g id="Node000005" class="node">
<title>Node5</title>
<g id="a_Node000005"><a xlink:href="class_acts_1_1_logging_1_1_thread_output_decorator.html" target="_top" xlink:title="decorate debug message with a thread ID">
<polygon fill="white" stroke="#666666" points="539.5,-78 384.5,-78 384.5,-48 539.5,-48 539.5,-78"/>
<text text-anchor="start" x="392.5" y="-66" font-family="Helvetica,sans-Serif" font-size="10.00">Acts::Logging::ThreadOutput</text>
<text text-anchor="middle" x="462" y="-55" font-family="Helvetica,sans-Serif" font-size="10.00">Decorator</text>
</a>
</g>
</g>
<!-- Node2&#45;&gt;Node5 -->
<g id="edge175_Node000002_Node000005" class="edge">
<title>Node2&#45;&gt;Node5</title>
<g id="a_edge175_Node000002_Node000005"><a xlink:title=" ">
<path fill="none" stroke="#63b8ff" d="M352.57,-76.24C363.2,-74.95 373.99,-73.63 384.43,-72.35"/>
<polygon fill="#63b8ff" stroke="#63b8ff" points="351.95,-72.79 342.44,-77.48 352.79,-79.74 351.95,-72.79"/>
</a>
</g>
</g>
<!-- Node6 -->
<g id="Node000006" class="node">
<title>Node6</title>
<g id="a_Node000006"><a xlink:href="class_acts_1_1_logging_1_1_timed_output_decorator.html" target="_top" xlink:title="decorate debug message with a time stamp">
<polygon fill="white" stroke="#666666" points="538,-30 386,-30 386,0 538,0 538,-30"/>
<text text-anchor="start" x="394" y="-18" font-family="Helvetica,sans-Serif" font-size="10.00">Acts::Logging::TimedOutput</text>
<text text-anchor="middle" x="462" y="-7" font-family="Helvetica,sans-Serif" font-size="10.00">Decorator</text>
</a>
</g>
</g>
<!-- Node2&#45;&gt;Node6 -->
<g id="edge176_Node000002_Node000006" class="edge">
<title>Node2&#45;&gt;Node6</title>
<g id="a_edge176_Node000002_Node000006"><a xlink:title=" ">
<path fill="none" stroke="#63b8ff" d="M296.06,-73.52C320,-63.49 353.83,-49.74 384,-39 392.57,-35.95 401.76,-32.9 410.69,-30.05"/>
<polygon fill="#63b8ff" stroke="#63b8ff" points="294.62,-70.33 286.76,-77.44 297.34,-76.78 294.62,-70.33"/>
</a>
</g>
</g>
</g>
</svg>
