<?xml version="1.0" encoding="UTF-8" standalone="no"?>
<!DOCTYPE svg PUBLIC "-//W3C//DTD SVG 1.1//EN"
 "http://www.w3.org/Graphics/SVG/1.1/DTD/svg11.dtd">
<!-- Generated by graphviz version 2.43.0 (0)
 -->
<!-- Title: Acts::CuboidVolumeBuilder::Config Pages: 1 -->
<svg width="233pt" height="219pt"
 viewBox="0.00 0.00 232.50 219.00" xmlns="http://www.w3.org/2000/svg" xmlns:xlink="http://www.w3.org/1999/xlink">
<g id="graph0" class="graph" transform="scale(1 1) rotate(0) translate(4 215)">
<title>Acts::CuboidVolumeBuilder::Config</title>
<!-- Node1 -->
<g id="Node000001" class="node">
<title>Node1</title>
<g id="a_Node000001"><a xlink:title="This struct stores the configuration of the tracking geometry.">
<polygon fill="#999999" stroke="#666666" points="149,-30 0,-30 0,0 149,0 149,-30"/>
<text text-anchor="start" x="8" y="-18" font-family="Helvetica,sans-Serif" font-size="10.00">Acts::CuboidVolumeBuilder</text>
<text text-anchor="middle" x="74.5" y="-7" font-family="Helvetica,sans-Serif" font-size="10.00">::Config</text>
</a>
</g>
</g>
<!-- Node2 -->
<g id="Node000002" class="node">
<title>Node2</title>
<g id="a_Node000002"><a xlink:title=" ">
<polygon fill="white" stroke="#666666" points="135.5,-124 13.5,-124 13.5,-83 135.5,-83 135.5,-124"/>
<text text-anchor="start" x="21.5" y="-112" font-family="Helvetica,sans-Serif" font-size="10.00">std::vector&lt; Acts::</text>
<text text-anchor="start" x="21.5" y="-101" font-family="Helvetica,sans-Serif" font-size="10.00">CuboidVolumeBuilder</text>
<text text-anchor="middle" x="74.5" y="-90" font-family="Helvetica,sans-Serif" font-size="10.00">::VolumeConfig &gt;</text>
</a>
</g>
</g>
<!-- Node2&#45;&gt;Node1 -->
<g id="edge1_Node000001_Node000002" class="edge">
<title>Node2&#45;&gt;Node1</title>
<g id="a_edge1_Node000001_Node000002"><a xlink:title=" ">
<path fill="none" stroke="#9a32cd" stroke-dasharray="5,2" d="M74.5,-72.86C74.5,-58.41 74.5,-41.71 74.5,-30.16"/>
<polygon fill="#9a32cd" stroke="#9a32cd" points="71,-72.87 74.5,-82.87 78,-72.87 71,-72.87"/>
</a>
</g>
<text text-anchor="start" x="77.5" y="-53.5" font-family="Helvetica,sans-Serif" font-size="10.00" fill="grey">volumeCfg</text>
</g>
<!-- Node3 -->
<g id="Node000003" class="node">
<title>Node3</title>
<g id="a_Node000003"><a xlink:title=" ">
<polygon fill="white" stroke="#666666" points="123,-211 26,-211 26,-192 123,-192 123,-211"/>
<text text-anchor="middle" x="74.5" y="-199" font-family="Helvetica,sans-Serif" font-size="10.00">std::vector&lt; T &gt;</text>
</a>
</g>
</g>
<!-- Node3&#45;&gt;Node2 -->
<g id="edge2_Node000002_Node000003" class="edge">
<title>Node3&#45;&gt;Node2</title>
<g id="a_edge2_Node000002_Node000003"><a xlink:title=" ">
<path fill="none" stroke="orange" stroke-dasharray="5,2" d="M74.5,-181.87C74.5,-165.24 74.5,-140.97 74.5,-124.06"/>
<polygon fill="orange" stroke="orange" points="71,-181.98 74.5,-191.98 78,-181.98 71,-181.98"/>
</a>
</g>
<text text-anchor="start" x="77.5" y="-163" font-family="Helvetica,sans-Serif" font-size="10.00" fill="grey">&lt; Acts::CuboidVolumeBuilder</text>
<text text-anchor="start" x="77.5" y="-148" font-family="Helvetica,sans-Serif" font-size="10.00" fill="grey">  ::VolumeConfig &gt;</text>
</g>
</g>
</svg>
