<?xml version="1.0" encoding="UTF-8" standalone="no"?>
<!DOCTYPE svg PUBLIC "-//W3C//DTD SVG 1.1//EN"
 "http://www.w3.org/Graphics/SVG/1.1/DTD/svg11.dtd">
<!-- Generated by graphviz version 2.43.0 (0)
 -->
<!-- Title: Acts::DirectNavigator::State Pages: 1 -->
<svg width="2279pt" height="591pt"
 viewBox="0.00 0.00 2279.00 590.70" xmlns="http://www.w3.org/2000/svg" xmlns:xlink="http://www.w3.org/1999/xlink">
<g id="graph0" class="graph" transform="scale(1 1) rotate(0) translate(4 586.7)">
<title>Acts::DirectNavigator::State</title>
<!-- Node1 -->
<g id="Node000001" class="node">
<title>Node1</title>
<g id="a_Node000001"><a xlink:title="Nested State struct.">
<polygon fill="#999999" stroke="#666666" points="2271,-155.7 2150,-155.7 2150,-125.7 2271,-125.7 2271,-155.7"/>
<text text-anchor="start" x="2158" y="-143.7" font-family="Helvetica,sans-Serif" font-size="10.00">Acts::DirectNavigator</text>
<text text-anchor="middle" x="2210.5" y="-132.7" font-family="Helvetica,sans-Serif" font-size="10.00">::State</text>
</a>
</g>
</g>
<!-- Node2 -->
<g id="Node000002" class="node">
<title>Node2</title>
<g id="a_Node000002"><a xlink:href="struct_acts_1_1_direct_navigator_1_1_options.html" target="_top" xlink:title="The nested options struct.">
<polygon fill="white" stroke="#666666" points="2055,-177.7 1934,-177.7 1934,-147.7 2055,-147.7 2055,-177.7"/>
<text text-anchor="start" x="1942" y="-165.7" font-family="Helvetica,sans-Serif" font-size="10.00">Acts::DirectNavigator</text>
<text text-anchor="middle" x="1994.5" y="-154.7" font-family="Helvetica,sans-Serif" font-size="10.00">::Options</text>
</a>
</g>
</g>
<!-- Node2&#45;&gt;Node1 -->
<g id="edge1_Node000001_Node000002" class="edge">
<title>Node2&#45;&gt;Node1</title>
<g id="a_edge1_Node000001_Node000002"><a xlink:title=" ">
<path fill="none" stroke="#9a32cd" stroke-dasharray="5,2" d="M2065.37,-155.52C2092.66,-152.72 2123.62,-149.53 2149.84,-146.84"/>
<polygon fill="#9a32cd" stroke="#9a32cd" points="2064.7,-152.07 2055.11,-156.58 2065.42,-159.03 2064.7,-152.07"/>
</a>
</g>
<text text-anchor="start" x="2088.5" y="-159.2" font-family="Helvetica,sans-Serif" font-size="10.00" fill="grey">options</text>
</g>
<!-- Node3 -->
<g id="Node000003" class="node">
<title>Node3</title>
<g id="a_Node000003"><a xlink:href="struct_acts_1_1_navigator_plain_options.html" target="_top" xlink:title=" ">
<polygon fill="white" stroke="#666666" points="1812,-172.2 1659,-172.2 1659,-153.2 1812,-153.2 1812,-172.2"/>
<text text-anchor="middle" x="1735.5" y="-160.2" font-family="Helvetica,sans-Serif" font-size="10.00">Acts::NavigatorPlainOptions</text>
</a>
</g>
</g>
<!-- Node3&#45;&gt;Node2 -->
<g id="edge2_Node000002_Node000003" class="edge">
<title>Node3&#45;&gt;Node2</title>
<g id="a_edge2_Node000002_Node000003"><a xlink:title=" ">
<path fill="none" stroke="#63b8ff" d="M1822.38,-162.7C1858.94,-162.7 1900.68,-162.7 1933.79,-162.7"/>
<polygon fill="#63b8ff" stroke="#63b8ff" points="1822.22,-159.2 1812.22,-162.7 1822.22,-166.2 1822.22,-159.2"/>
</a>
</g>
</g>
<!-- Node4 -->
<g id="Node000004" class="node">
<title>Node4</title>
<g id="a_Node000004"><a xlink:href="class_acts_1_1_surface.html" target="_top" xlink:title="Abstract Base Class for tracking surfaces.">
<polygon fill="white" stroke="#666666" points="1511.5,-193.2 1431.5,-193.2 1431.5,-174.2 1511.5,-174.2 1511.5,-193.2"/>
<text text-anchor="middle" x="1471.5" y="-181.2" font-family="Helvetica,sans-Serif" font-size="10.00">Acts::Surface</text>
</a>
</g>
</g>
<!-- Node4&#45;&gt;Node1 -->
<g id="edge32_Node000001_Node000004" class="edge">
<title>Node4&#45;&gt;Node1</title>
<g id="a_edge32_Node000001_Node000004"><a xlink:title=" ">
<path fill="none" stroke="#9a32cd" stroke-dasharray="5,2" d="M1521.45,-192C1527.02,-192.7 1532.62,-193.3 1538,-193.7 1583.65,-197.17 1595.22,-194.08 1641,-193.7 1828.57,-192.15 1876.25,-204.38 2063,-186.7 2093.99,-183.77 2102.2,-183.69 2132,-174.7 2148.18,-169.83 2165.46,-162.47 2179.59,-155.85"/>
<polygon fill="#9a32cd" stroke="#9a32cd" points="1521.91,-188.53 1511.53,-190.65 1520.96,-195.47 1521.91,-188.53"/>
</a>
</g>
<text text-anchor="start" x="1833" y="-201.2" font-family="Helvetica,sans-Serif" font-size="10.00" fill="grey">currentSurface</text>
</g>
<!-- Node4&#45;&gt;Node3 -->
<g id="edge3_Node000003_Node000004" class="edge">
<title>Node4&#45;&gt;Node3</title>
<g id="a_edge3_Node000003_Node000004"><a xlink:title=" ">
<path fill="none" stroke="#9a32cd" stroke-dasharray="5,2" d="M1504.63,-170.61C1515.09,-166.97 1526.88,-163.52 1538,-161.7 1577.56,-155.24 1622.2,-154.92 1658.93,-156.46"/>
<polygon fill="#9a32cd" stroke="#9a32cd" points="1503.26,-167.38 1495.08,-174.1 1505.67,-173.95 1503.26,-167.38"/>
</a>
</g>
<text text-anchor="start" x="1556.5" y="-182.7" font-family="Helvetica,sans-Serif" font-size="10.00" fill="grey">startSurface</text>
<text text-anchor="start" x="1556.5" y="-167.7" font-family="Helvetica,sans-Serif" font-size="10.00" fill="grey">targetSurface</text>
</g>
<!-- Node5 -->
<g id="Node000005" class="node">
<title>Node5</title>
<g id="a_Node000005"><a xlink:href="class_acts_1_1_geometry_object.html" target="_top" xlink:title="Base class to provide GeometryIdentifier interface:">
<polygon fill="white" stroke="#666666" points="374,-266.2 250,-266.2 250,-247.2 374,-247.2 374,-266.2"/>
<text text-anchor="middle" x="312" y="-254.2" font-family="Helvetica,sans-Serif" font-size="10.00">Acts::GeometryObject</text>
</a>
</g>
</g>
<!-- Node5&#45;&gt;Node4 -->
<g id="edge4_Node000004_Node000005" class="edge">
<title>Node5&#45;&gt;Node4</title>
<g id="a_edge4_Node000004_Node000005"><a xlink:title=" ">
<path fill="none" stroke="#63b8ff" d="M339.24,-242.48C369.57,-227.39 421.43,-205.7 469,-205.7 469,-205.7 469,-205.7 1179.5,-205.7 1269.68,-205.7 1375.14,-195.07 1431.03,-188.59"/>
<polygon fill="#63b8ff" stroke="#63b8ff" points="337.49,-239.44 330.18,-247.11 340.68,-245.67 337.49,-239.44"/>
</a>
</g>
</g>
<!-- Node13 -->
<g id="Node000013" class="node">
<title>Node13</title>
<g id="a_Node000013"><a xlink:href="class_acts_1_1_layer.html" target="_top" xlink:title="Base Class for a Detector Layer in the Tracking Geometry.">
<polygon fill="white" stroke="#666666" points="1214,-379.2 1143,-379.2 1143,-360.2 1214,-360.2 1214,-379.2"/>
<text text-anchor="middle" x="1178.5" y="-367.2" font-family="Helvetica,sans-Serif" font-size="10.00">Acts::Layer</text>
</a>
</g>
</g>
<!-- Node5&#45;&gt;Node13 -->
<g id="edge13_Node000013_Node000005" class="edge">
<title>Node5&#45;&gt;Node13</title>
<g id="a_edge13_Node000013_Node000005"><a xlink:title=" ">
<path fill="none" stroke="#63b8ff" d="M366.9,-268.22C381.19,-270.98 396.64,-273.7 411,-275.7 708.54,-317.21 790.62,-274.05 1084,-338.7 1108.05,-344 1134.63,-353.15 1153.28,-360.14"/>
<polygon fill="#63b8ff" stroke="#63b8ff" points="367.23,-264.71 356.74,-266.21 365.87,-271.58 367.23,-264.71"/>
</a>
</g>
</g>
<!-- Node20 -->
<g id="Node000020" class="node">
<title>Node20</title>
<g id="a_Node000020"><a xlink:href="class_acts_1_1_volume.html" target="_top" xlink:title="It inherits from GeometryObject for geometry identification.">
<polygon fill="white" stroke="#666666" points="510,-266.2 430,-266.2 430,-247.2 510,-247.2 510,-266.2"/>
<text text-anchor="middle" x="470" y="-254.2" font-family="Helvetica,sans-Serif" font-size="10.00">Acts::Volume</text>
</a>
</g>
</g>
<!-- Node5&#45;&gt;Node20 -->
<g id="edge23_Node000020_Node000005" class="edge">
<title>Node5&#45;&gt;Node20</title>
<g id="a_edge23_Node000020_Node000005"><a xlink:title=" ">
<path fill="none" stroke="#63b8ff" d="M384.44,-256.7C400.12,-256.7 416.16,-256.7 430,-256.7"/>
<polygon fill="#63b8ff" stroke="#63b8ff" points="384.21,-253.2 374.21,-256.7 384.21,-260.2 384.21,-253.2"/>
</a>
</g>
</g>
<!-- Node6 -->
<g id="Node000006" class="node">
<title>Node6</title>
<g id="a_Node000006"><a xlink:href="class_acts_1_1_geometry_identifier.html" target="_top" xlink:title="Identifier for geometry nodes within the geometry hierarchy.">
<polygon fill="white" stroke="#666666" points="136,-266.2 0,-266.2 0,-247.2 136,-247.2 136,-266.2"/>
<text text-anchor="middle" x="68" y="-254.2" font-family="Helvetica,sans-Serif" font-size="10.00">Acts::GeometryIdentifier</text>
</a>
</g>
</g>
<!-- Node6&#45;&gt;Node5 -->
<g id="edge5_Node000005_Node000006" class="edge">
<title>Node6&#45;&gt;Node5</title>
<g id="a_edge5_Node000005_Node000006"><a xlink:title=" ">
<path fill="none" stroke="#9a32cd" stroke-dasharray="5,2" d="M146.31,-256.7C179.84,-256.7 218.54,-256.7 249.99,-256.7"/>
<polygon fill="#9a32cd" stroke="#9a32cd" points="146.09,-253.2 136.09,-256.7 146.09,-260.2 146.09,-253.2"/>
</a>
</g>
<text text-anchor="start" x="157" y="-262.2" font-family="Helvetica,sans-Serif" font-size="10.00" fill="grey">m_geometryId</text>
</g>
<!-- Node7 -->
<g id="Node000007" class="node">
<title>Node7</title>
<g id="a_Node000007"><a xlink:title=" ">
<polygon fill="white" stroke="#666666" points="1242.5,-177.7 1114.5,-177.7 1114.5,-147.7 1242.5,-147.7 1242.5,-177.7"/>
<text text-anchor="start" x="1122.5" y="-165.7" font-family="Helvetica,sans-Serif" font-size="10.00">std::enable_shared</text>
<text text-anchor="middle" x="1178.5" y="-154.7" font-family="Helvetica,sans-Serif" font-size="10.00">_from_this&lt; Surface &gt;</text>
</a>
</g>
</g>
<!-- Node7&#45;&gt;Node4 -->
<g id="edge6_Node000004_Node000007" class="edge">
<title>Node7&#45;&gt;Node4</title>
<g id="a_edge6_Node000004_Node000007"><a xlink:title=" ">
<path fill="none" stroke="#63b8ff" d="M1252.62,-167.98C1309.24,-172.07 1385.5,-177.57 1431.15,-180.86"/>
<polygon fill="#63b8ff" stroke="#63b8ff" points="1252.87,-164.49 1242.64,-167.26 1252.36,-171.47 1252.87,-164.49"/>
</a>
</g>
</g>
<!-- Node8 -->
<g id="Node000008" class="node">
<title>Node8</title>
<g id="a_Node000008"><a xlink:title=" ">
<polygon fill="white" stroke="#666666" points="1255,-129.2 1102,-129.2 1102,-88.2 1255,-88.2 1255,-129.2"/>
<text text-anchor="start" x="1110" y="-117.2" font-family="Helvetica,sans-Serif" font-size="10.00">std::array&lt; std::string</text>
<text text-anchor="start" x="1110" y="-106.2" font-family="Helvetica,sans-Serif" font-size="10.00">_view, Surface::SurfaceType</text>
<text text-anchor="middle" x="1178.5" y="-95.2" font-family="Helvetica,sans-Serif" font-size="10.00">::Other+1 &gt;</text>
</a>
</g>
</g>
<!-- Node8&#45;&gt;Node4 -->
<g id="edge7_Node000004_Node000008" class="edge">
<title>Node8&#45;&gt;Node4</title>
<g id="a_edge7_Node000004_Node000008"><a xlink:title=" ">
<path fill="none" stroke="#9a32cd" stroke-dasharray="5,2" d="M1265.33,-116.77C1308.14,-122.48 1360.22,-132.02 1405,-147.7 1423.61,-154.22 1443.22,-165.69 1456.07,-173.93"/>
<polygon fill="#9a32cd" stroke="#9a32cd" points="1265.58,-113.27 1255.22,-115.47 1264.69,-120.21 1265.58,-113.27"/>
</a>
</g>
<text text-anchor="start" x="1287" y="-153.2" font-family="Helvetica,sans-Serif" font-size="10.00" fill="grey">s_surfaceTypeNames</text>
</g>
<!-- Node9 -->
<g id="Node000009" class="node">
<title>Node9</title>
<g id="a_Node000009"><a xlink:title=" ">
<polygon fill="white" stroke="#666666" points="869,-118.2 777,-118.2 777,-99.2 869,-99.2 869,-118.2"/>
<text text-anchor="middle" x="823" y="-106.2" font-family="Helvetica,sans-Serif" font-size="10.00">std::array&lt; T &gt;</text>
</a>
</g>
</g>
<!-- Node9&#45;&gt;Node8 -->
<g id="edge8_Node000008_Node000009" class="edge">
<title>Node9&#45;&gt;Node8</title>
<g id="a_edge8_Node000008_Node000009"><a xlink:title=" ">
<path fill="none" stroke="orange" stroke-dasharray="5,2" d="M879.14,-108.7C938.95,-108.7 1034.84,-108.7 1101.71,-108.7"/>
<polygon fill="orange" stroke="orange" points="879.13,-105.2 869.13,-108.7 879.13,-112.2 879.13,-105.2"/>
</a>
</g>
<text text-anchor="start" x="945" y="-144.2" font-family="Helvetica,sans-Serif" font-size="10.00" fill="grey">&lt; std::string_view,</text>
<text text-anchor="start" x="945" y="-129.2" font-family="Helvetica,sans-Serif" font-size="10.00" fill="grey">   Surface::SurfaceType</text>
<text text-anchor="start" x="945" y="-114.2" font-family="Helvetica,sans-Serif" font-size="10.00" fill="grey">  ::Other+1 &gt;</text>
</g>
<!-- Node10 -->
<g id="Node000010" class="node">
<title>Node10</title>
<g id="a_Node000010"><a xlink:title=" ">
<polygon fill="white" stroke="#666666" points="1064.5,-577.7 937.5,-577.7 937.5,-547.7 1064.5,-547.7 1064.5,-577.7"/>
<text text-anchor="start" x="945.5" y="-565.7" font-family="Helvetica,sans-Serif" font-size="10.00">std::unique_ptr&lt; const</text>
<text text-anchor="middle" x="1001" y="-554.7" font-family="Helvetica,sans-Serif" font-size="10.00"> Transform3 &gt;</text>
</a>
</g>
</g>
<!-- Node10&#45;&gt;Node4 -->
<g id="edge9_Node000004_Node000010" class="edge">
<title>Node10&#45;&gt;Node4</title>
<g id="a_edge9_Node000004_Node000010"><a xlink:title=" ">
<path fill="none" stroke="#9a32cd" stroke-dasharray="5,2" d="M1074.57,-545.27C1077.78,-544.14 1080.94,-542.95 1084,-541.7 1236.5,-479.59 1298.3,-482.12 1405,-356.7 1448.7,-305.34 1464.78,-221.83 1469.15,-193.48"/>
<polygon fill="#9a32cd" stroke="#9a32cd" points="1073.2,-542.04 1064.81,-548.51 1075.4,-548.69 1073.2,-542.04"/>
</a>
</g>
<text text-anchor="start" x="1146.5" y="-539.2" font-family="Helvetica,sans-Serif" font-size="10.00" fill="grey">m_transform</text>
</g>
<!-- Node11 -->
<g id="Node000011" class="node">
<title>Node11</title>
<g id="a_Node000011"><a xlink:title=" ">
<polygon fill="white" stroke="#666666" points="529,-501.2 411,-501.2 411,-482.2 529,-482.2 529,-501.2"/>
<text text-anchor="middle" x="470" y="-489.2" font-family="Helvetica,sans-Serif" font-size="10.00">std::unique_ptr&lt; T &gt;</text>
</a>
</g>
</g>
<!-- Node11&#45;&gt;Node10 -->
<g id="edge10_Node000010_Node000011" class="edge">
<title>Node11&#45;&gt;Node10</title>
<g id="a_edge10_Node000010_Node000011"><a xlink:title=" ">
<path fill="none" stroke="orange" stroke-dasharray="5,2" d="M491.62,-507.2C506.25,-517.27 526.81,-529.62 547,-535.7 681.47,-576.2 848.3,-573.39 937.24,-567.95"/>
<polygon fill="orange" stroke="orange" points="493.51,-504.25 483.33,-501.3 489.45,-509.95 493.51,-504.25"/>
</a>
</g>
<text text-anchor="start" x="584.5" y="-571.2" font-family="Helvetica,sans-Serif" font-size="10.00" fill="grey">&lt; const Transform3 &gt;</text>
</g>
<!-- Node17 -->
<g id="Node000017" class="node">
<title>Node17</title>
<g id="a_Node000017"><a xlink:title=" ">
<polygon fill="white" stroke="#666666" points="886.5,-538.7 759.5,-538.7 759.5,-508.7 886.5,-508.7 886.5,-538.7"/>
<text text-anchor="start" x="767.5" y="-526.7" font-family="Helvetica,sans-Serif" font-size="10.00">std::unique_ptr&lt; const</text>
<text text-anchor="middle" x="823" y="-515.7" font-family="Helvetica,sans-Serif" font-size="10.00"> Acts::SurfaceArray &gt;</text>
</a>
</g>
</g>
<!-- Node11&#45;&gt;Node17 -->
<g id="edge18_Node000017_Node000011" class="edge">
<title>Node11&#45;&gt;Node17</title>
<g id="a_edge18_Node000017_Node000011"><a xlink:title=" ">
<path fill="none" stroke="orange" stroke-dasharray="5,2" d="M539.32,-497.93C603.1,-503.75 697.48,-512.35 759.36,-517.99"/>
<polygon fill="orange" stroke="orange" points="539.63,-494.45 529.35,-497.02 539,-501.42 539.63,-494.45"/>
</a>
</g>
<text text-anchor="start" x="566.5" y="-520.2" font-family="Helvetica,sans-Serif" font-size="10.00" fill="grey">&lt; const Acts::SurfaceArray &gt;</text>
</g>
<!-- Node18 -->
<g id="Node000018" class="node">
<title>Node18</title>
<g id="a_Node000018"><a xlink:title=" ">
<polygon fill="white" stroke="#666666" points="900,-452.7 746,-452.7 746,-422.7 900,-422.7 900,-452.7"/>
<text text-anchor="start" x="754" y="-440.7" font-family="Helvetica,sans-Serif" font-size="10.00">std::unique_ptr&lt; const</text>
<text text-anchor="middle" x="823" y="-429.7" font-family="Helvetica,sans-Serif" font-size="10.00"> Acts::ApproachDescriptor &gt;</text>
</a>
</g>
</g>
<!-- Node11&#45;&gt;Node18 -->
<g id="edge20_Node000018_Node000011" class="edge">
<title>Node11&#45;&gt;Node18</title>
<g id="a_edge20_Node000018_Node000011"><a xlink:title=" ">
<path fill="none" stroke="orange" stroke-dasharray="5,2" d="M531.37,-480.37C536.65,-479.44 541.92,-478.54 547,-477.7 614,-466.66 690.46,-455.67 745.72,-448.01"/>
<polygon fill="orange" stroke="orange" points="530.47,-476.97 521.24,-482.17 531.7,-483.87 530.47,-476.97"/>
</a>
</g>
<text text-anchor="start" x="550.5" y="-483.2" font-family="Helvetica,sans-Serif" font-size="10.00" fill="grey">&lt; const Acts::ApproachDescriptor &gt;</text>
</g>
<!-- Node21 -->
<g id="Node000021" class="node">
<title>Node21</title>
<g id="a_Node000021"><a xlink:title=" ">
<polygon fill="white" stroke="#666666" points="884,-404.7 762,-404.7 762,-374.7 884,-374.7 884,-404.7"/>
<text text-anchor="start" x="770" y="-392.7" font-family="Helvetica,sans-Serif" font-size="10.00">std::unique_ptr&lt; Acts</text>
<text text-anchor="middle" x="823" y="-381.7" font-family="Helvetica,sans-Serif" font-size="10.00">::Volume &gt;</text>
</a>
</g>
</g>
<!-- Node11&#45;&gt;Node21 -->
<g id="edge25_Node000021_Node000011" class="edge">
<title>Node11&#45;&gt;Node21</title>
<g id="a_edge25_Node000021_Node000011"><a xlink:title=" ">
<path fill="none" stroke="orange" stroke-dasharray="5,2" d="M486.74,-474.44C500.99,-460 523.33,-440.12 547,-429.7 616.45,-399.16 704.34,-391.05 761.81,-389.33"/>
<polygon fill="orange" stroke="orange" points="484.08,-472.17 479.7,-481.82 489.14,-477 484.08,-472.17"/>
</a>
</g>
<text text-anchor="start" x="594.5" y="-435.2" font-family="Helvetica,sans-Serif" font-size="10.00" fill="grey">&lt; Acts::Volume &gt;</text>
</g>
<!-- Node12 -->
<g id="Node000012" class="node">
<title>Node12</title>
<g id="a_Node000012"><a xlink:href="class_acts_1_1_detector_element_base.html" target="_top" xlink:title="This class is the base of all detector elements that are usable by ACTS.">
<polygon fill="white" stroke="#666666" points="1253.5,-70.2 1103.5,-70.2 1103.5,-51.2 1253.5,-51.2 1253.5,-70.2"/>
<text text-anchor="middle" x="1178.5" y="-58.2" font-family="Helvetica,sans-Serif" font-size="10.00">Acts::DetectorElementBase</text>
</a>
</g>
</g>
<!-- Node12&#45;&gt;Node4 -->
<g id="edge11_Node000004_Node000012" class="edge">
<title>Node12&#45;&gt;Node4</title>
<g id="a_edge11_Node000004_Node000012"><a xlink:title=" ">
<path fill="none" stroke="#9a32cd" stroke-dasharray="5,2" d="M1264.01,-56.06C1309.94,-57.77 1365.3,-67.19 1405,-97.7 1420.46,-109.58 1411.8,-121.75 1423,-137.7 1433.03,-151.98 1447.89,-165.52 1458.32,-174.17"/>
<polygon fill="#9a32cd" stroke="#9a32cd" points="1263.84,-52.56 1253.76,-55.8 1263.67,-59.56 1263.84,-52.56"/>
</a>
</g>
<text text-anchor="start" x="1276" y="-103.2" font-family="Helvetica,sans-Serif" font-size="10.00" fill="grey">m_associatedDetElement</text>
</g>
<!-- Node13&#45;&gt;Node4 -->
<g id="edge12_Node000004_Node000013" class="edge">
<title>Node13&#45;&gt;Node4</title>
<g id="a_edge12_Node000004_Node000013"><a xlink:title=" ">
<path fill="none" stroke="#9a32cd" stroke-dasharray="5,2" d="M1221.26,-357C1269.08,-341.04 1348.12,-310.25 1405,-265.7 1432.11,-244.47 1454.89,-209.89 1464.96,-193.25"/>
<polygon fill="#9a32cd" stroke="#9a32cd" points="1219.97,-353.74 1211.55,-360.18 1222.15,-360.39 1219.97,-353.74"/>
</a>
</g>
<text text-anchor="start" x="1292" y="-341.2" font-family="Helvetica,sans-Serif" font-size="10.00" fill="grey">m_associatedLayer</text>
</g>
<!-- Node14 -->
<g id="Node000014" class="node">
<title>Node14</title>
<g id="a_Node000014"><a xlink:title=" ">
<polygon fill="white" stroke="#666666" points="885,-356.7 761,-356.7 761,-326.7 885,-326.7 885,-356.7"/>
<text text-anchor="start" x="769" y="-344.7" font-family="Helvetica,sans-Serif" font-size="10.00">std::pair&lt; const Layer</text>
<text text-anchor="middle" x="823" y="-333.7" font-family="Helvetica,sans-Serif" font-size="10.00"> *, const Layer * &gt;</text>
</a>
</g>
</g>
<!-- Node14&#45;&gt;Node13 -->
<g id="edge14_Node000013_Node000014" class="edge">
<title>Node14&#45;&gt;Node13</title>
<g id="a_edge14_Node000013_Node000014"><a xlink:title=" ">
<path fill="none" stroke="#9a32cd" stroke-dasharray="5,2" d="M895.29,-342.63C947.64,-343.88 1020.4,-346.82 1084,-353.7 1103.48,-355.81 1125.06,-359.42 1142.57,-362.67"/>
<polygon fill="#9a32cd" stroke="#9a32cd" points="895.18,-339.12 885.1,-342.4 895.02,-346.12 895.18,-339.12"/>
</a>
</g>
<text text-anchor="start" x="966" y="-359.2" font-family="Helvetica,sans-Serif" font-size="10.00" fill="grey">m_nextLayers</text>
</g>
<!-- Node15 -->
<g id="Node000015" class="node">
<title>Node15</title>
<g id="a_Node000015"><a xlink:title=" ">
<polygon fill="white" stroke="#666666" points="524.5,-351.2 415.5,-351.2 415.5,-332.2 524.5,-332.2 524.5,-351.2"/>
<text text-anchor="middle" x="470" y="-339.2" font-family="Helvetica,sans-Serif" font-size="10.00">std::pair&lt; T1, T2 &gt;</text>
</a>
</g>
</g>
<!-- Node15&#45;&gt;Node14 -->
<g id="edge15_Node000014_Node000015" class="edge">
<title>Node15&#45;&gt;Node14</title>
<g id="a_edge15_Node000014_Node000015"><a xlink:title=" ">
<path fill="none" stroke="orange" stroke-dasharray="5,2" d="M534.71,-341.7C599,-341.7 697.6,-341.7 760.94,-341.7"/>
<polygon fill="orange" stroke="orange" points="534.69,-338.2 524.69,-341.7 534.69,-345.2 534.69,-338.2"/>
</a>
</g>
<text text-anchor="start" x="583.5" y="-362.7" font-family="Helvetica,sans-Serif" font-size="10.00" fill="grey">&lt; const Layer *, const</text>
<text text-anchor="start" x="583.5" y="-347.7" font-family="Helvetica,sans-Serif" font-size="10.00" fill="grey">   Layer * &gt;</text>
</g>
<!-- Node16 -->
<g id="Node000016" class="node">
<title>Node16</title>
<g id="a_Node000016"><a xlink:href="class_acts_1_1_bin_utility.html" target="_top" xlink:title="The BinUtility class that translated global and local position into a bins of a BinnedArray,...">
<polygon fill="white" stroke="#666666" points="867.5,-490.2 778.5,-490.2 778.5,-471.2 867.5,-471.2 867.5,-490.2"/>
<text text-anchor="middle" x="823" y="-478.2" font-family="Helvetica,sans-Serif" font-size="10.00">Acts::BinUtility</text>
</a>
</g>
</g>
<!-- Node16&#45;&gt;Node13 -->
<g id="edge16_Node000013_Node000016" class="edge">
<title>Node16&#45;&gt;Node13</title>
<g id="a_edge16_Node000013_Node000016"><a xlink:title=" ">
<path fill="none" stroke="#9a32cd" stroke-dasharray="5,2" d="M877.73,-478.23C942.81,-474.6 1048.17,-466.46 1084,-450.7 1121.75,-434.1 1155.47,-396.84 1169.97,-379.25"/>
<polygon fill="#9a32cd" stroke="#9a32cd" points="877.45,-474.74 867.65,-478.78 877.83,-481.73 877.45,-474.74"/>
</a>
</g>
<text text-anchor="start" x="954" y="-480.2" font-family="Helvetica,sans-Serif" font-size="10.00" fill="grey">m_nextLayerUtility</text>
</g>
<!-- Node17&#45;&gt;Node13 -->
<g id="edge17_Node000013_Node000017" class="edge">
<title>Node17&#45;&gt;Node13</title>
<g id="a_edge17_Node000013_Node000017"><a xlink:title=" ">
<path fill="none" stroke="#9a32cd" stroke-dasharray="5,2" d="M896.88,-522.32C962.45,-519.92 1053.1,-513.39 1084,-495.7 1090.27,-492.12 1150.28,-408.06 1170.72,-379.27"/>
<polygon fill="#9a32cd" stroke="#9a32cd" points="896.46,-518.83 886.58,-522.67 896.69,-525.82 896.46,-518.83"/>
</a>
</g>
<text text-anchor="start" x="962" y="-526.2" font-family="Helvetica,sans-Serif" font-size="10.00" fill="grey">m_surfaceArray</text>
</g>
<!-- Node18&#45;&gt;Node13 -->
<g id="edge19_Node000013_Node000018" class="edge">
<title>Node18&#45;&gt;Node13</title>
<g id="a_edge19_Node000013_Node000018"><a xlink:title=" ">
<path fill="none" stroke="#9a32cd" stroke-dasharray="5,2" d="M910.24,-431.81C961.3,-427.07 1026.95,-418.8 1084,-404.7 1109.58,-398.38 1137.74,-387.23 1156.41,-379.21"/>
<polygon fill="#9a32cd" stroke="#9a32cd" points="909.87,-428.33 900.23,-432.71 910.5,-435.3 909.87,-428.33"/>
</a>
</g>
<text text-anchor="start" x="946" y="-435.2" font-family="Helvetica,sans-Serif" font-size="10.00" fill="grey">m_approachDescriptor</text>
</g>
<!-- Node19 -->
<g id="Node000019" class="node">
<title>Node19</title>
<g id="a_Node000019"><a xlink:href="class_acts_1_1_tracking_volume.html" target="_top" xlink:title="Full Volume description used in Tracking, it inherits from Volume to get the geometrical structure.">
<polygon fill="white" stroke="#666666" points="883.5,-266.2 762.5,-266.2 762.5,-247.2 883.5,-247.2 883.5,-266.2"/>
<text text-anchor="middle" x="823" y="-254.2" font-family="Helvetica,sans-Serif" font-size="10.00">Acts::TrackingVolume</text>
</a>
</g>
</g>
<!-- Node19&#45;&gt;Node4 -->
<g id="edge26_Node000004_Node000019" class="edge">
<title>Node19&#45;&gt;Node4</title>
<g id="a_edge26_Node000004_Node000019"><a xlink:title=" ">
<path fill="none" stroke="#9a32cd" stroke-dasharray="5,2" d="M893.64,-261.9C1004.39,-268.04 1226.42,-271.65 1405,-219.7 1424.44,-214.05 1444.51,-201.92 1457.22,-193.3"/>
<polygon fill="#9a32cd" stroke="#9a32cd" points="893.78,-258.4 883.59,-261.31 893.37,-265.39 893.78,-258.4"/>
</a>
</g>
<text text-anchor="start" x="1106.5" y="-268.2" font-family="Helvetica,sans-Serif" font-size="10.00" fill="grey">m_associatedTrackingVolume</text>
</g>
<!-- Node19&#45;&gt;Node13 -->
<g id="edge21_Node000013_Node000019" class="edge">
<title>Node19&#45;&gt;Node13</title>
<g id="a_edge21_Node000013_Node000019"><a xlink:title=" ">
<path fill="none" stroke="#9a32cd" stroke-dasharray="5,2" d="M893.79,-262.28C964.86,-268.31 1066.99,-278.08 1084,-285.7 1122.43,-302.93 1156.06,-341.93 1170.28,-360.08"/>
<polygon fill="#9a32cd" stroke="#9a32cd" points="893.8,-258.77 883.54,-261.41 893.21,-265.74 893.8,-258.77"/>
</a>
</g>
<text text-anchor="start" x="955" y="-291.2" font-family="Helvetica,sans-Serif" font-size="10.00" fill="grey">m_trackingVolume</text>
</g>
<!-- Node20&#45;&gt;Node19 -->
<g id="edge22_Node000019_Node000020" class="edge">
<title>Node20&#45;&gt;Node19</title>
<g id="a_edge22_Node000019_Node000020"><a xlink:title=" ">
<path fill="none" stroke="#63b8ff" d="M520.4,-256.7C583.91,-256.7 694.11,-256.7 762.26,-256.7"/>
<polygon fill="#63b8ff" stroke="#63b8ff" points="520.24,-253.2 510.24,-256.7 520.24,-260.2 520.24,-253.2"/>
</a>
</g>
</g>
<!-- Node21&#45;&gt;Node13 -->
<g id="edge24_Node000013_Node000021" class="edge">
<title>Node21&#45;&gt;Node13</title>
<g id="a_edge24_Node000013_Node000021"><a xlink:title=" ">
<path fill="none" stroke="#9a32cd" stroke-dasharray="5,2" d="M894.68,-385.71C969.7,-381.46 1085.2,-374.93 1142.61,-371.68"/>
<polygon fill="#9a32cd" stroke="#9a32cd" points="894.15,-382.23 884.37,-386.29 894.55,-389.22 894.15,-382.23"/>
</a>
</g>
<text text-anchor="start" x="944" y="-389.2" font-family="Helvetica,sans-Serif" font-size="10.00" fill="grey">m_representingVolume</text>
</g>
<!-- Node22 -->
<g id="Node000022" class="node">
<title>Node22</title>
<g id="a_Node000022"><a xlink:title=" ">
<polygon fill="white" stroke="#666666" points="1247.5,-32.7 1109.5,-32.7 1109.5,-2.7 1247.5,-2.7 1247.5,-32.7"/>
<text text-anchor="start" x="1117.5" y="-20.7" font-family="Helvetica,sans-Serif" font-size="10.00">std::shared_ptr&lt; const</text>
<text text-anchor="middle" x="1178.5" y="-9.7" font-family="Helvetica,sans-Serif" font-size="10.00"> Acts::ISurfaceMaterial &gt;</text>
</a>
</g>
</g>
<!-- Node22&#45;&gt;Node4 -->
<g id="edge27_Node000004_Node000022" class="edge">
<title>Node22&#45;&gt;Node4</title>
<g id="a_edge27_Node000004_Node000022"><a xlink:title=" ">
<path fill="none" stroke="#9a32cd" stroke-dasharray="5,2" d="M1257.83,-1.95C1306.13,2.97 1366.07,-0.31 1405,-35.7 1439.06,-66.67 1401.41,-97.04 1423,-137.7 1430.97,-152.71 1445.6,-165.74 1456.52,-174.06"/>
<polygon fill="#9a32cd" stroke="#9a32cd" points="1257.25,1.51 1247.71,-3.11 1258.05,-5.44 1257.25,1.51"/>
</a>
</g>
<text text-anchor="start" x="1293" y="-41.2" font-family="Helvetica,sans-Serif" font-size="10.00" fill="grey">m_surfaceMaterial</text>
</g>
<!-- Node23 -->
<g id="Node000023" class="node">
<title>Node23</title>
<g id="a_Node000023"><a xlink:title=" ">
<polygon fill="white" stroke="#666666" points="882,-27.2 764,-27.2 764,-8.2 882,-8.2 882,-27.2"/>
<text text-anchor="middle" x="823" y="-15.2" font-family="Helvetica,sans-Serif" font-size="10.00">std::shared_ptr&lt; T &gt;</text>
</a>
</g>
</g>
<!-- Node23&#45;&gt;Node22 -->
<g id="edge28_Node000022_Node000023" class="edge">
<title>Node23&#45;&gt;Node22</title>
<g id="a_edge28_Node000022_Node000023"><a xlink:title=" ">
<path fill="none" stroke="orange" stroke-dasharray="5,2" d="M892.53,-17.7C955.06,-17.7 1046.95,-17.7 1109.35,-17.7"/>
<polygon fill="orange" stroke="orange" points="892.37,-14.2 882.37,-17.7 892.37,-21.2 892.37,-14.2"/>
</a>
</g>
<text text-anchor="start" x="921" y="-23.2" font-family="Helvetica,sans-Serif" font-size="10.00" fill="grey">&lt; const Acts::ISurfaceMaterial &gt;</text>
</g>
<!-- Node24 -->
<g id="Node000024" class="node">
<title>Node24</title>
<g id="a_Node000024"><a xlink:title=" ">
<polygon fill="white" stroke="#666666" points="1788.5,-134.7 1682.5,-134.7 1682.5,-104.7 1788.5,-104.7 1788.5,-134.7"/>
<text text-anchor="start" x="1690.5" y="-122.7" font-family="Helvetica,sans-Serif" font-size="10.00">std::vector&lt; const</text>
<text text-anchor="middle" x="1735.5" y="-111.7" font-family="Helvetica,sans-Serif" font-size="10.00"> Surface * &gt;</text>
</a>
</g>
</g>
<!-- Node24&#45;&gt;Node2 -->
<g id="edge29_Node000002_Node000024" class="edge">
<title>Node24&#45;&gt;Node2</title>
<g id="a_edge29_Node000002_Node000024"><a xlink:title=" ">
<path fill="none" stroke="#9a32cd" stroke-dasharray="5,2" d="M1798.83,-125.98C1831.48,-129.7 1872.05,-135.01 1908,-141.7 1917.17,-143.41 1926.82,-145.5 1936.2,-147.69"/>
<polygon fill="#9a32cd" stroke="#9a32cd" points="1798.85,-122.46 1788.52,-124.83 1798.07,-129.42 1798.85,-122.46"/>
</a>
</g>
<text text-anchor="start" x="1848" y="-147.2" font-family="Helvetica,sans-Serif" font-size="10.00" fill="grey">surfaces</text>
</g>
<!-- Node25 -->
<g id="Node000025" class="node">
<title>Node25</title>
<g id="a_Node000025"><a xlink:title=" ">
<polygon fill="white" stroke="#666666" points="1520,-129.2 1423,-129.2 1423,-110.2 1520,-110.2 1520,-129.2"/>
<text text-anchor="middle" x="1471.5" y="-117.2" font-family="Helvetica,sans-Serif" font-size="10.00">std::vector&lt; T &gt;</text>
</a>
</g>
</g>
<!-- Node25&#45;&gt;Node24 -->
<g id="edge30_Node000024_Node000025" class="edge">
<title>Node25&#45;&gt;Node24</title>
<g id="a_edge30_Node000024_Node000025"><a xlink:title=" ">
<path fill="none" stroke="orange" stroke-dasharray="5,2" d="M1530.52,-119.7C1575.85,-119.7 1638.31,-119.7 1682.13,-119.7"/>
<polygon fill="orange" stroke="orange" points="1530.25,-116.2 1520.25,-119.7 1530.25,-123.2 1530.25,-116.2"/>
</a>
</g>
<text text-anchor="start" x="1541.5" y="-125.2" font-family="Helvetica,sans-Serif" font-size="10.00" fill="grey">&lt; const Surface * &gt;</text>
</g>
<!-- Node26 -->
<g id="Node000026" class="node">
<title>Node26</title>
<g id="a_Node000026"><a xlink:href="class_acts_1_1_direction.html" target="_top" xlink:title="The direction is always with respect to a given momentum, surface normal or other general axes.">
<polygon fill="white" stroke="#666666" points="2038.5,-129.2 1950.5,-129.2 1950.5,-110.2 2038.5,-110.2 2038.5,-129.2"/>
<text text-anchor="middle" x="1994.5" y="-117.2" font-family="Helvetica,sans-Serif" font-size="10.00">Acts::Direction</text>
</a>
</g>
</g>
<!-- Node26&#45;&gt;Node1 -->
<g id="edge31_Node000001_Node000026" class="edge">
<title>Node26&#45;&gt;Node1</title>
<g id="a_edge31_Node000001_Node000026"><a xlink:title=" ">
<path fill="none" stroke="#9a32cd" stroke-dasharray="5,2" d="M2048.83,-118.34C2074.13,-118.34 2104.71,-119.27 2132,-122.7 2138.03,-123.46 2144.28,-124.49 2150.49,-125.68"/>
<polygon fill="#9a32cd" stroke="#9a32cd" points="2048.68,-114.84 2038.7,-118.39 2048.72,-121.84 2048.68,-114.84"/>
</a>
</g>
<text text-anchor="start" x="2085.5" y="-128.2" font-family="Helvetica,sans-Serif" font-size="10.00" fill="grey">direction</text>
</g>
<!-- Node27 -->
<g id="Node000027" class="node">
<title>Node27</title>
<g id="a_Node000027"><a xlink:href="struct_acts_1_1_navigator_statistics.html" target="_top" xlink:title="A struct to hold statistics of the navigator.">
<polygon fill="white" stroke="#666666" points="2063,-90.2 1926,-90.2 1926,-71.2 2063,-71.2 2063,-90.2"/>
<text text-anchor="middle" x="1994.5" y="-78.2" font-family="Helvetica,sans-Serif" font-size="10.00">Acts::NavigatorStatistics</text>
</a>
</g>
</g>
<!-- Node27&#45;&gt;Node1 -->
<g id="edge33_Node000001_Node000027" class="edge">
<title>Node27&#45;&gt;Node1</title>
<g id="a_edge33_Node000001_Node000027"><a xlink:title=" ">
<path fill="none" stroke="#9a32cd" stroke-dasharray="5,2" d="M2073.3,-85.98C2092.78,-88.66 2113.41,-92.67 2132,-98.7 2151.65,-105.08 2172.13,-116.41 2187.1,-125.7"/>
<polygon fill="#9a32cd" stroke="#9a32cd" points="2073.59,-82.49 2063.23,-84.71 2072.71,-89.44 2073.59,-82.49"/>
</a>
</g>
<text text-anchor="start" x="2084.5" y="-104.2" font-family="Helvetica,sans-Serif" font-size="10.00" fill="grey">statistics</text>
</g>
</g>
</svg>
