<?xml version="1.0" encoding="UTF-8" standalone="no"?>
<!DOCTYPE svg PUBLIC "-//W3C//DTD SVG 1.1//EN"
 "http://www.w3.org/Graphics/SVG/1.1/DTD/svg11.dtd">
<!-- Generated by graphviz version 2.43.0 (0)
 -->
<!-- Title: Acts::Experimental::Gx2FitterExtensions&lt; traj_t &gt; Pages: 1 -->
<svg width="881pt" height="253pt"
 viewBox="0.00 0.00 881.00 253.00" xmlns="http://www.w3.org/2000/svg" xmlns:xlink="http://www.w3.org/1999/xlink">
<g id="graph0" class="graph" transform="scale(1 1) rotate(0) translate(4 249)">
<title>Acts::Experimental::Gx2FitterExtensions&lt; traj_t &gt;</title>
<!-- Node1 -->
<g id="Node000001" class="node">
<title>Node1</title>
<g id="a_Node000001"><a xlink:title="Extension struct which holds delegates to customise the GX2F behaviour.">
<polygon fill="#999999" stroke="#666666" points="873,-114.5 752,-114.5 752,-73.5 873,-73.5 873,-114.5"/>
<text text-anchor="start" x="760" y="-102.5" font-family="Helvetica,sans-Serif" font-size="10.00">Acts::Experimental</text>
<text text-anchor="start" x="760" y="-91.5" font-family="Helvetica,sans-Serif" font-size="10.00">::Gx2FitterExtensions</text>
<text text-anchor="middle" x="812.5" y="-80.5" font-family="Helvetica,sans-Serif" font-size="10.00">&lt; traj_t &gt;</text>
</a>
</g>
</g>
<!-- Node2 -->
<g id="Node000002" class="node">
<title>Node2</title>
<g id="a_Node000002"><a xlink:href="class_acts_1_1_delegate.html" target="_top" xlink:title=" ">
<polygon fill="white" stroke="#666666" points="630,-218 407,-218 407,-166 630,-166 630,-218"/>
<text text-anchor="start" x="415" y="-206" font-family="Helvetica,sans-Serif" font-size="10.00">Acts::Delegate&lt; void</text>
<text text-anchor="start" x="415" y="-195" font-family="Helvetica,sans-Serif" font-size="10.00">(const GeometryContext</text>
<text text-anchor="start" x="415" y="-184" font-family="Helvetica,sans-Serif" font-size="10.00"> &amp;, const CalibrationContext</text>
<text text-anchor="middle" x="518.5" y="-173" font-family="Helvetica,sans-Serif" font-size="10.00"> &amp;, const SourceLink &amp;, TrackStateProxy)&gt;</text>
</a>
</g>
</g>
<!-- Node2&#45;&gt;Node1 -->
<g id="edge1_Node000001_Node000002" class="edge">
<title>Node2&#45;&gt;Node1</title>
<g id="a_edge1_Node000001_Node000002"><a xlink:title=" ">
<path fill="none" stroke="#9a32cd" stroke-dasharray="5,2" d="M631.27,-163.2C664.66,-153.66 701.12,-142.3 734,-130 745.95,-125.53 758.62,-120 770.17,-114.63"/>
<polygon fill="#9a32cd" stroke="#9a32cd" points="630.15,-159.88 621.48,-165.97 632.05,-166.62 630.15,-159.88"/>
</a>
</g>
<text text-anchor="start" x="668" y="-162.5" font-family="Helvetica,sans-Serif" font-size="10.00" fill="grey">calibrator</text>
</g>
<!-- Node3 -->
<g id="Node000003" class="node">
<title>Node3</title>
<g id="a_Node000003"><a xlink:href="class_acts_1_1_delegate.html" target="_top" xlink:title=" ">
<polygon fill="white" stroke="#666666" points="152,-114 0,-114 0,-84 152,-84 152,-114"/>
<text text-anchor="start" x="8" y="-102" font-family="Helvetica,sans-Serif" font-size="10.00">Acts::Delegate&lt; typename,</text>
<text text-anchor="middle" x="76" y="-91" font-family="Helvetica,sans-Serif" font-size="10.00"> H, DelegateType &gt;</text>
</a>
</g>
</g>
<!-- Node3&#45;&gt;Node2 -->
<g id="edge2_Node000002_Node000003" class="edge">
<title>Node3&#45;&gt;Node2</title>
<g id="a_edge2_Node000002_Node000003"><a xlink:title=" ">
<path fill="none" stroke="orange" stroke-dasharray="5,2" d="M99.7,-120.91C117.35,-136.47 143.25,-156.25 170,-166 245.74,-193.6 336.78,-199.52 406.68,-198.84"/>
<polygon fill="orange" stroke="orange" points="101.97,-118.24 92.21,-114.12 97.26,-123.43 101.97,-118.24"/>
</a>
</g>
<text text-anchor="start" x="173.5" y="-233.5" font-family="Helvetica,sans-Serif" font-size="10.00" fill="grey">&lt; void(const GeometryContext</text>
<text text-anchor="start" x="173.5" y="-218.5" font-family="Helvetica,sans-Serif" font-size="10.00" fill="grey">   &amp;, const CalibrationContext</text>
<text text-anchor="start" x="173.5" y="-203.5" font-family="Helvetica,sans-Serif" font-size="10.00" fill="grey">   &amp;, const SourceLink &amp;, TrackStateProxy)&gt;</text>
</g>
<!-- Node4 -->
<g id="Node000004" class="node">
<title>Node4</title>
<g id="a_Node000004"><a xlink:href="class_acts_1_1_delegate.html" target="_top" xlink:title=" ">
<polygon fill="white" stroke="#666666" points="608.5,-148 428.5,-148 428.5,-96 608.5,-96 608.5,-148"/>
<text text-anchor="start" x="436.5" y="-136" font-family="Helvetica,sans-Serif" font-size="10.00">Acts::Delegate&lt; Result</text>
<text text-anchor="start" x="436.5" y="-125" font-family="Helvetica,sans-Serif" font-size="10.00">&lt; void &gt;(const GeometryContext</text>
<text text-anchor="start" x="436.5" y="-114" font-family="Helvetica,sans-Serif" font-size="10.00"> &amp;, TrackStateProxy, const</text>
<text text-anchor="middle" x="518.5" y="-103" font-family="Helvetica,sans-Serif" font-size="10.00"> Logger &amp;)&gt;</text>
</a>
</g>
</g>
<!-- Node3&#45;&gt;Node4 -->
<g id="edge4_Node000004_Node000003" class="edge">
<title>Node3&#45;&gt;Node4</title>
<g id="a_edge4_Node000004_Node000003"><a xlink:title=" ">
<path fill="none" stroke="orange" stroke-dasharray="5,2" d="M162.3,-103.45C238.75,-107.45 350.49,-113.28 428.15,-117.33"/>
<polygon fill="orange" stroke="orange" points="162.39,-99.95 152.22,-102.93 162.03,-106.94 162.39,-99.95"/>
</a>
</g>
<text text-anchor="start" x="197.5" y="-150.5" font-family="Helvetica,sans-Serif" font-size="10.00" fill="grey">&lt; Result&lt; void &gt;(const</text>
<text text-anchor="start" x="197.5" y="-135.5" font-family="Helvetica,sans-Serif" font-size="10.00" fill="grey">   GeometryContext &amp;, TrackState</text>
<text text-anchor="start" x="197.5" y="-120.5" font-family="Helvetica,sans-Serif" font-size="10.00" fill="grey">  Proxy, const Logger &amp;)&gt;</text>
</g>
<!-- Node5 -->
<g id="Node000005" class="node">
<title>Node5</title>
<g id="a_Node000005"><a xlink:href="class_acts_1_1_delegate.html" target="_top" xlink:title=" ">
<polygon fill="white" stroke="#666666" points="588,-78 449,-78 449,-48 588,-48 588,-78"/>
<text text-anchor="start" x="457" y="-66" font-family="Helvetica,sans-Serif" font-size="10.00">Acts::Delegate&lt; bool</text>
<text text-anchor="middle" x="518.5" y="-55" font-family="Helvetica,sans-Serif" font-size="10.00">(ConstTrackStateProxy)&gt;</text>
</a>
</g>
</g>
<!-- Node3&#45;&gt;Node5 -->
<g id="edge6_Node000005_Node000003" class="edge">
<title>Node3&#45;&gt;Node5</title>
<g id="a_edge6_Node000005_Node000003"><a xlink:title=" ">
<path fill="none" stroke="orange" stroke-dasharray="5,2" d="M162.31,-82.97C164.9,-82.62 167.47,-82.3 170,-82 266.3,-70.61 378.44,-66.03 448.71,-64.2"/>
<polygon fill="orange" stroke="orange" points="161.66,-79.53 152.25,-84.41 162.65,-86.46 161.66,-79.53"/>
</a>
</g>
<text text-anchor="start" x="202.5" y="-87.5" font-family="Helvetica,sans-Serif" font-size="10.00" fill="grey">&lt; bool(ConstTrackStateProxy)&gt;</text>
</g>
<!-- Node6 -->
<g id="Node000006" class="node">
<title>Node6</title>
<g id="a_Node000006"><a xlink:href="class_acts_1_1_delegate.html" target="_top" xlink:title=" ">
<polygon fill="white" stroke="#666666" points="605,-30 432,-30 432,0 605,0 605,-30"/>
<text text-anchor="start" x="440" y="-18" font-family="Helvetica,sans-Serif" font-size="10.00">Acts::Delegate&lt; const</text>
<text text-anchor="middle" x="518.5" y="-7" font-family="Helvetica,sans-Serif" font-size="10.00"> Surface *(const SourceLink &amp;)&gt;</text>
</a>
</g>
</g>
<!-- Node3&#45;&gt;Node6 -->
<g id="edge8_Node000006_Node000003" class="edge">
<title>Node3&#45;&gt;Node6</title>
<g id="a_edge8_Node000006_Node000003"><a xlink:title=" ">
<path fill="none" stroke="orange" stroke-dasharray="5,2" d="M98.86,-76.77C116.4,-60.53 142.56,-39.73 170,-30 255.23,0.22 359.65,0.22 431.65,-4.99"/>
<polygon fill="orange" stroke="orange" points="96.25,-74.41 91.43,-83.85 101.08,-79.48 96.25,-74.41"/>
</a>
</g>
<text text-anchor="start" x="221.5" y="-51" font-family="Helvetica,sans-Serif" font-size="10.00" fill="grey">&lt; const Surface *(const</text>
<text text-anchor="start" x="221.5" y="-36" font-family="Helvetica,sans-Serif" font-size="10.00" fill="grey">   SourceLink &amp;)&gt;</text>
</g>
<!-- Node4&#45;&gt;Node1 -->
<g id="edge3_Node000001_Node000004" class="edge">
<title>Node4&#45;&gt;Node1</title>
<g id="a_edge3_Node000001_Node000004"><a xlink:title=" ">
<path fill="none" stroke="#9a32cd" stroke-dasharray="5,2" d="M618.9,-112.47C663.11,-108.23 713.68,-103.38 751.91,-99.71"/>
<polygon fill="#9a32cd" stroke="#9a32cd" points="618.32,-109.01 608.7,-113.45 618.98,-115.98 618.32,-109.01"/>
</a>
</g>
<text text-anchor="start" x="672" y="-114.5" font-family="Helvetica,sans-Serif" font-size="10.00" fill="grey">updater</text>
</g>
<!-- Node5&#45;&gt;Node1 -->
<g id="edge5_Node000001_Node000005" class="edge">
<title>Node5&#45;&gt;Node1</title>
<g id="a_edge5_Node000001_Node000005"><a xlink:title=" ">
<path fill="none" stroke="#9a32cd" stroke-dasharray="5,2" d="M598.38,-67.36C639,-70.09 689.26,-74.2 734,-80 739.83,-80.76 745.89,-81.65 751.93,-82.62"/>
<polygon fill="#9a32cd" stroke="#9a32cd" points="598.48,-63.86 588.27,-66.7 598.02,-70.85 598.48,-63.86"/>
</a>
</g>
<text text-anchor="start" x="660" y="-85.5" font-family="Helvetica,sans-Serif" font-size="10.00" fill="grey">outlierFinder</text>
</g>
<!-- Node6&#45;&gt;Node1 -->
<g id="edge7_Node000001_Node000006" class="edge">
<title>Node6&#45;&gt;Node1</title>
<g id="a_edge7_Node000001_Node000006"><a xlink:title=" ">
<path fill="none" stroke="#9a32cd" stroke-dasharray="5,2" d="M615.01,-23.23C652.81,-28.37 696.19,-36.67 734,-50 750.34,-55.76 767.22,-64.91 781.03,-73.37"/>
<polygon fill="#9a32cd" stroke="#9a32cd" points="615.38,-19.75 605.01,-21.92 614.48,-26.69 615.38,-19.75"/>
</a>
</g>
<text text-anchor="start" x="651" y="-55.5" font-family="Helvetica,sans-Serif" font-size="10.00" fill="grey">surfaceAccessor</text>
</g>
</g>
</svg>
