<?xml version="1.0" encoding="UTF-8" standalone="no"?>
<!DOCTYPE svg PUBLIC "-//W3C//DTD SVG 1.1//EN"
 "http://www.w3.org/Graphics/SVG/1.1/DTD/svg11.dtd">
<!-- Generated by graphviz version 2.43.0 (0)
 -->
<!-- Title: Acts::KalmanFitterResult&lt; traj_t &gt; Pages: 1 -->
<svg width="287pt" height="208pt"
 viewBox="0.00 0.00 287.00 208.00" xmlns="http://www.w3.org/2000/svg" xmlns:xlink="http://www.w3.org/1999/xlink">
<g id="graph0" class="graph" transform="scale(1 1) rotate(0) translate(4 204)">
<title>Acts::KalmanFitterResult&lt; traj_t &gt;</title>
<!-- Node1 -->
<g id="Node000001" class="node">
<title>Node1</title>
<g id="a_Node000001"><a xlink:title=" ">
<polygon fill="#999999" stroke="#666666" points="190.5,-30 53.5,-30 53.5,0 190.5,0 190.5,-30"/>
<text text-anchor="start" x="61.5" y="-18" font-family="Helvetica,sans-Serif" font-size="10.00">Acts::KalmanFitterResult</text>
<text text-anchor="middle" x="122" y="-7" font-family="Helvetica,sans-Serif" font-size="10.00">&lt; traj_t &gt;</text>
</a>
</g>
</g>
<!-- Node2 -->
<g id="Node000002" class="node">
<title>Node2</title>
<g id="a_Node000002"><a xlink:title=" ">
<polygon fill="white" stroke="#666666" points="106,-128 0,-128 0,-98 106,-98 106,-128"/>
<text text-anchor="start" x="8" y="-116" font-family="Helvetica,sans-Serif" font-size="10.00">std::vector&lt; const</text>
<text text-anchor="middle" x="53" y="-105" font-family="Helvetica,sans-Serif" font-size="10.00"> Acts::Surface * &gt;</text>
</a>
</g>
</g>
<!-- Node2&#45;&gt;Node1 -->
<g id="edge1_Node000001_Node000002" class="edge">
<title>Node2&#45;&gt;Node1</title>
<g id="a_edge1_Node000001_Node000002"><a xlink:title=" ">
<path fill="none" stroke="#9a32cd" stroke-dasharray="5,2" d="M47.57,-87.8C46.06,-75.01 46.51,-59.6 54,-48 58.88,-40.44 66.07,-34.63 73.97,-30.17"/>
<polygon fill="#9a32cd" stroke="#9a32cd" points="44.13,-88.48 49.19,-97.79 51.04,-87.36 44.13,-88.48"/>
</a>
</g>
<text text-anchor="start" x="57.5" y="-69" font-family="Helvetica,sans-Serif" font-size="10.00" fill="grey">missedActiveSurfaces</text>
<text text-anchor="start" x="57.5" y="-54" font-family="Helvetica,sans-Serif" font-size="10.00" fill="grey">passedAgainSurfaces</text>
</g>
<!-- Node3 -->
<g id="Node000003" class="node">
<title>Node3</title>
<g id="a_Node000003"><a xlink:title=" ">
<polygon fill="white" stroke="#666666" points="101.5,-200 4.5,-200 4.5,-181 101.5,-181 101.5,-200"/>
<text text-anchor="middle" x="53" y="-188" font-family="Helvetica,sans-Serif" font-size="10.00">std::vector&lt; T &gt;</text>
</a>
</g>
</g>
<!-- Node3&#45;&gt;Node2 -->
<g id="edge2_Node000002_Node000003" class="edge">
<title>Node3&#45;&gt;Node2</title>
<g id="a_edge2_Node000002_Node000003"><a xlink:title=" ">
<path fill="none" stroke="orange" stroke-dasharray="5,2" d="M53,-170.57C53,-157.43 53,-140.18 53,-128.21"/>
<polygon fill="orange" stroke="orange" points="49.5,-170.84 53,-180.84 56.5,-170.84 49.5,-170.84"/>
</a>
</g>
<text text-anchor="start" x="56" y="-151.5" font-family="Helvetica,sans-Serif" font-size="10.00" fill="grey">&lt; const Acts::Surface * &gt;</text>
</g>
<!-- Node4 -->
<g id="Node000004" class="node">
<title>Node4</title>
<g id="a_Node000004"><a xlink:href="struct_acts_1_1_path_limit_reached.html" target="_top" xlink:title="This is the condition that the pathLimit has been reached.">
<polygon fill="white" stroke="#666666" points="256.5,-122.5 125.5,-122.5 125.5,-103.5 256.5,-103.5 256.5,-122.5"/>
<text text-anchor="middle" x="191" y="-110.5" font-family="Helvetica,sans-Serif" font-size="10.00">Acts::PathLimitReached</text>
</a>
</g>
</g>
<!-- Node4&#45;&gt;Node1 -->
<g id="edge3_Node000001_Node000004" class="edge">
<title>Node4&#45;&gt;Node1</title>
<g id="a_edge3_Node000001_Node000004"><a xlink:title=" ">
<path fill="none" stroke="#9a32cd" stroke-dasharray="5,2" d="M187.83,-93.17C184.8,-79.55 179.14,-61.28 169,-48 163.61,-40.94 156.2,-34.89 148.86,-30.01"/>
<polygon fill="#9a32cd" stroke="#9a32cd" points="184.46,-94.16 189.8,-103.31 191.33,-92.83 184.46,-94.16"/>
</a>
</g>
<text text-anchor="start" x="187.5" y="-61" font-family="Helvetica,sans-Serif" font-size="10.00" fill="grey">pathLimitReached</text>
</g>
</g>
</svg>
