<?xml version="1.0" encoding="UTF-8" standalone="no"?>
<!DOCTYPE svg PUBLIC "-//W3C//DTD SVG 1.1//EN"
 "http://www.w3.org/Graphics/SVG/1.1/DTD/svg11.dtd">
<!-- Generated by graphviz version 2.43.0 (0)
 -->
<!-- Title: Acts::GridAxisGenerators::EqVar&lt; aType, bType &gt; Pages: 1 -->
<svg width="260pt" height="193pt"
 viewBox="0.00 0.00 260.00 193.00" xmlns="http://www.w3.org/2000/svg" xmlns:xlink="http://www.w3.org/1999/xlink">
<g id="graph0" class="graph" transform="scale(1 1) rotate(0) translate(4 189)">
<title>Acts::GridAxisGenerators::EqVar&lt; aType, bType &gt;</title>
<!-- Node1 -->
<g id="Node000001" class="node">
<title>Node1</title>
<g id="a_Node000001"><a xlink:title="Templated base generator for equidistant / variable axes as a tuple &#45; 2D.">
<polygon fill="#999999" stroke="#666666" points="191.5,-30 52.5,-30 52.5,0 191.5,0 191.5,-30"/>
<text text-anchor="start" x="60.5" y="-18" font-family="Helvetica,sans-Serif" font-size="10.00">Acts::GridAxisGenerators</text>
<text text-anchor="middle" x="122" y="-7" font-family="Helvetica,sans-Serif" font-size="10.00">::EqVar&lt; aType, bType &gt;</text>
</a>
</g>
</g>
<!-- Node2 -->
<g id="Node000002" class="node">
<title>Node2</title>
<g id="a_Node000002"><a xlink:title=" ">
<polygon fill="white" stroke="#666666" points="110,-113 0,-113 0,-83 110,-83 110,-113"/>
<text text-anchor="start" x="8" y="-101" font-family="Helvetica,sans-Serif" font-size="10.00">std::array&lt; double,</text>
<text text-anchor="middle" x="55" y="-90" font-family="Helvetica,sans-Serif" font-size="10.00"> 2u &gt;</text>
</a>
</g>
</g>
<!-- Node2&#45;&gt;Node1 -->
<g id="edge1_Node000001_Node000002" class="edge">
<title>Node2&#45;&gt;Node1</title>
<g id="a_edge1_Node000001_Node000002"><a xlink:title=" ">
<path fill="none" stroke="#9a32cd" stroke-dasharray="5,2" d="M73.18,-75.02C84.97,-60.76 99.99,-42.61 110.24,-30.22"/>
<polygon fill="#9a32cd" stroke="#9a32cd" points="70.35,-72.95 66.67,-82.89 75.74,-77.42 70.35,-72.95"/>
</a>
</g>
<text text-anchor="start" x="98" y="-53.5" font-family="Helvetica,sans-Serif" font-size="10.00" fill="grey">range</text>
</g>
<!-- Node3 -->
<g id="Node000003" class="node">
<title>Node3</title>
<g id="a_Node000003"><a xlink:title=" ">
<polygon fill="white" stroke="#666666" points="101,-185 9,-185 9,-166 101,-166 101,-185"/>
<text text-anchor="middle" x="55" y="-173" font-family="Helvetica,sans-Serif" font-size="10.00">std::array&lt; T &gt;</text>
</a>
</g>
</g>
<!-- Node3&#45;&gt;Node2 -->
<g id="edge2_Node000002_Node000003" class="edge">
<title>Node3&#45;&gt;Node2</title>
<g id="a_edge2_Node000002_Node000003"><a xlink:title=" ">
<path fill="none" stroke="orange" stroke-dasharray="5,2" d="M55,-155.57C55,-142.43 55,-125.18 55,-113.21"/>
<polygon fill="orange" stroke="orange" points="51.5,-155.84 55,-165.84 58.5,-155.84 51.5,-155.84"/>
</a>
</g>
<text text-anchor="start" x="58" y="-136.5" font-family="Helvetica,sans-Serif" font-size="10.00" fill="grey">&lt; double, 2u &gt;</text>
</g>
<!-- Node4 -->
<g id="Node000004" class="node">
<title>Node4</title>
<g id="a_Node000004"><a xlink:title=" ">
<polygon fill="white" stroke="#666666" points="252,-107.5 128,-107.5 128,-88.5 252,-88.5 252,-107.5"/>
<text text-anchor="middle" x="190" y="-95.5" font-family="Helvetica,sans-Serif" font-size="10.00">std::vector&lt; double &gt;</text>
</a>
</g>
</g>
<!-- Node4&#45;&gt;Node1 -->
<g id="edge3_Node000001_Node000004" class="edge">
<title>Node4&#45;&gt;Node1</title>
<g id="a_edge3_Node000001_Node000004"><a xlink:title=" ">
<path fill="none" stroke="#9a32cd" stroke-dasharray="5,2" d="M176.12,-80.47C163.65,-65.61 145.54,-44.04 133.76,-30.01"/>
<polygon fill="#9a32cd" stroke="#9a32cd" points="173.61,-82.92 182.72,-88.33 178.97,-78.42 173.61,-82.92"/>
</a>
</g>
<text text-anchor="start" x="166" y="-53.5" font-family="Helvetica,sans-Serif" font-size="10.00" fill="grey">edges</text>
</g>
<!-- Node5 -->
<g id="Node000005" class="node">
<title>Node5</title>
<g id="a_Node000005"><a xlink:title=" ">
<polygon fill="white" stroke="#666666" points="238.5,-185 141.5,-185 141.5,-166 238.5,-166 238.5,-185"/>
<text text-anchor="middle" x="190" y="-173" font-family="Helvetica,sans-Serif" font-size="10.00">std::vector&lt; T &gt;</text>
</a>
</g>
</g>
<!-- Node5&#45;&gt;Node4 -->
<g id="edge4_Node000004_Node000005" class="edge">
<title>Node5&#45;&gt;Node4</title>
<g id="a_edge4_Node000004_Node000005"><a xlink:title=" ">
<path fill="none" stroke="orange" stroke-dasharray="5,2" d="M190,-155.4C190,-140.01 190,-119.11 190,-107.56"/>
<polygon fill="orange" stroke="orange" points="186.5,-155.84 190,-165.84 193.5,-155.84 186.5,-155.84"/>
</a>
</g>
<text text-anchor="start" x="193" y="-136.5" font-family="Helvetica,sans-Serif" font-size="10.00" fill="grey">&lt; double &gt;</text>
</g>
</g>
</svg>
