<?xml version="1.0" encoding="UTF-8" standalone="no"?>
<!DOCTYPE svg PUBLIC "-//W3C//DTD SVG 1.1//EN"
 "http://www.w3.org/Graphics/SVG/1.1/DTD/svg11.dtd">
<!-- Generated by graphviz version 2.43.0 (0)
 -->
<!-- Title: Acts::MaterialMapper::State Pages: 1 -->
<svg width="235pt" height="234pt"
 viewBox="0.00 0.00 235.00 234.00" xmlns="http://www.w3.org/2000/svg" xmlns:xlink="http://www.w3.org/1999/xlink">
<g id="graph0" class="graph" transform="scale(1 1) rotate(0) translate(4 230)">
<title>Acts::MaterialMapper::State</title>
<!-- Node1 -->
<g id="Node000001" class="node">
<title>Node1</title>
<g id="a_Node000001"><a xlink:title="nested state struct">
<polygon fill="#999999" stroke="#666666" points="142.5,-30 21.5,-30 21.5,0 142.5,0 142.5,-30"/>
<text text-anchor="start" x="29.5" y="-18" font-family="Helvetica,sans-Serif" font-size="10.00">Acts::MaterialMapper</text>
<text text-anchor="middle" x="82" y="-7" font-family="Helvetica,sans-Serif" font-size="10.00">::State</text>
</a>
</g>
</g>
<!-- Node2 -->
<g id="Node000002" class="node">
<title>Node2</title>
<g id="a_Node000002"><a xlink:title=" ">
<polygon fill="white" stroke="#666666" points="164,-139 0,-139 0,-98 164,-98 164,-139"/>
<text text-anchor="start" x="8" y="-127" font-family="Helvetica,sans-Serif" font-size="10.00">std::unique_ptr&lt; Acts</text>
<text text-anchor="start" x="8" y="-116" font-family="Helvetica,sans-Serif" font-size="10.00">::ISurfaceMaterialAccumulater</text>
<text text-anchor="middle" x="82" y="-105" font-family="Helvetica,sans-Serif" font-size="10.00">::State &gt;</text>
</a>
</g>
</g>
<!-- Node2&#45;&gt;Node1 -->
<g id="edge1_Node000001_Node000002" class="edge">
<title>Node2&#45;&gt;Node1</title>
<g id="a_edge1_Node000001_Node000002"><a xlink:title=" ">
<path fill="none" stroke="#9a32cd" stroke-dasharray="5,2" d="M82,-87.71C82,-68.77 82,-45.11 82,-30.27"/>
<polygon fill="#9a32cd" stroke="#9a32cd" points="78.5,-87.93 82,-97.93 85.5,-87.93 78.5,-87.93"/>
</a>
</g>
<text text-anchor="start" x="85.5" y="-69" font-family="Helvetica,sans-Serif" font-size="10.00" fill="grey">surfaceMaterialAccumulater</text>
<text text-anchor="start" x="85.5" y="-54" font-family="Helvetica,sans-Serif" font-size="10.00" fill="grey">  State</text>
</g>
<!-- Node3 -->
<g id="Node000003" class="node">
<title>Node3</title>
<g id="a_Node000003"><a xlink:title=" ">
<polygon fill="white" stroke="#666666" points="141,-226 23,-226 23,-207 141,-207 141,-226"/>
<text text-anchor="middle" x="82" y="-214" font-family="Helvetica,sans-Serif" font-size="10.00">std::unique_ptr&lt; T &gt;</text>
</a>
</g>
</g>
<!-- Node3&#45;&gt;Node2 -->
<g id="edge2_Node000002_Node000003" class="edge">
<title>Node3&#45;&gt;Node2</title>
<g id="a_edge2_Node000002_Node000003"><a xlink:title=" ">
<path fill="none" stroke="orange" stroke-dasharray="5,2" d="M82,-196.87C82,-180.24 82,-155.97 82,-139.06"/>
<polygon fill="orange" stroke="orange" points="78.5,-196.98 82,-206.98 85.5,-196.98 78.5,-196.98"/>
</a>
</g>
<text text-anchor="start" x="85.5" y="-178" font-family="Helvetica,sans-Serif" font-size="10.00" fill="grey">&lt; Acts::ISurfaceMaterial</text>
<text text-anchor="start" x="85.5" y="-163" font-family="Helvetica,sans-Serif" font-size="10.00" fill="grey">  Accumulater::State &gt;</text>
</g>
</g>
</svg>
