<?xml version="1.0" encoding="UTF-8" standalone="no"?>
<!DOCTYPE svg PUBLIC "-//W3C//DTD SVG 1.1//EN"
 "http://www.w3.org/Graphics/SVG/1.1/DTD/svg11.dtd">
<!-- Generated by graphviz version 2.43.0 (0)
 -->
<!-- Title: Acts::SeedFinder&lt; external_spacepoint_t, grid_t, platform_t &gt;::SeedingState Pages: 1 -->
<svg width="887pt" height="255pt"
 viewBox="0.00 0.00 887.00 254.50" xmlns="http://www.w3.org/2000/svg" xmlns:xlink="http://www.w3.org/1999/xlink">
<g id="graph0" class="graph" transform="scale(1 1) rotate(0) translate(4 250.5)">
<title>Acts::SeedFinder&lt; external_spacepoint_t, grid_t, platform_t &gt;::SeedingState</title>
<!-- Node1 -->
<g id="Node000001" class="node">
<title>Node1</title>
<g id="a_Node000001"><a xlink:title=" ">
<polygon fill="#999999" stroke="#666666" points="879,-111 713,-111 713,-70 879,-70 879,-111"/>
<text text-anchor="start" x="721" y="-99" font-family="Helvetica,sans-Serif" font-size="10.00">Acts::SeedFinder&lt; external</text>
<text text-anchor="start" x="721" y="-88" font-family="Helvetica,sans-Serif" font-size="10.00">_spacepoint_t, grid_t, platform</text>
<text text-anchor="middle" x="796" y="-77" font-family="Helvetica,sans-Serif" font-size="10.00">_t &gt;::SeedingState</text>
</a>
</g>
</g>
<!-- Node2 -->
<g id="Node000002" class="node">
<title>Node2</title>
<g id="a_Node000002"><a xlink:title=" ">
<polygon fill="white" stroke="#666666" points="533.5,-211.5 386.5,-211.5 386.5,-181.5 533.5,-181.5 533.5,-211.5"/>
<text text-anchor="start" x="394.5" y="-199.5" font-family="Helvetica,sans-Serif" font-size="10.00">std::vector&lt; const</text>
<text text-anchor="middle" x="460" y="-188.5" font-family="Helvetica,sans-Serif" font-size="10.00"> external_spacepoint_t * &gt;</text>
</a>
</g>
</g>
<!-- Node2&#45;&gt;Node1 -->
<g id="edge1_Node000001_Node000002" class="edge">
<title>Node2&#45;&gt;Node1</title>
<g id="a_edge1_Node000001_Node000002"><a xlink:title=" ">
<path fill="none" stroke="#9a32cd" stroke-dasharray="5,2" d="M543.85,-201.13C589.99,-200.79 647.53,-195.4 695,-175.5 728.83,-161.32 759.66,-131.35 777.88,-111.07"/>
<polygon fill="#9a32cd" stroke="#9a32cd" points="543.59,-197.63 533.59,-201.12 543.58,-204.63 543.59,-197.63"/>
</a>
</g>
<text text-anchor="start" x="591.5" y="-235" font-family="Helvetica,sans-Serif" font-size="10.00" fill="grey">compatBottomSP</text>
<text text-anchor="start" x="591.5" y="-220" font-family="Helvetica,sans-Serif" font-size="10.00" fill="grey">compatTopSP</text>
<text text-anchor="start" x="591.5" y="-205" font-family="Helvetica,sans-Serif" font-size="10.00" fill="grey">topSpVec</text>
</g>
<!-- Node3 -->
<g id="Node000003" class="node">
<title>Node3</title>
<g id="a_Node000003"><a xlink:title=" ">
<polygon fill="white" stroke="#666666" points="130.5,-155 33.5,-155 33.5,-136 130.5,-136 130.5,-155"/>
<text text-anchor="middle" x="82" y="-143" font-family="Helvetica,sans-Serif" font-size="10.00">std::vector&lt; T &gt;</text>
</a>
</g>
</g>
<!-- Node3&#45;&gt;Node2 -->
<g id="edge2_Node000002_Node000003" class="edge">
<title>Node3&#45;&gt;Node2</title>
<g id="a_edge2_Node000002_Node000003"><a xlink:title=" ">
<path fill="none" stroke="orange" stroke-dasharray="5,2" d="M133.24,-157.19C148.81,-160.53 166.06,-163.95 182,-166.5 251.02,-177.53 330.38,-185.67 386.41,-190.66"/>
<polygon fill="orange" stroke="orange" points="133.8,-153.73 123.29,-155.01 132.31,-160.57 133.8,-153.73"/>
</a>
</g>
<text text-anchor="start" x="195" y="-207.5" font-family="Helvetica,sans-Serif" font-size="10.00" fill="grey">&lt; const external_spacepoint</text>
<text text-anchor="start" x="195" y="-192.5" font-family="Helvetica,sans-Serif" font-size="10.00" fill="grey">  _t * &gt;</text>
</g>
<!-- Node4 -->
<g id="Node000004" class="node">
<title>Node4</title>
<g id="a_Node000004"><a xlink:title=" ">
<polygon fill="white" stroke="#666666" points="513.5,-160.5 406.5,-160.5 406.5,-130.5 513.5,-130.5 513.5,-160.5"/>
<text text-anchor="start" x="414.5" y="-148.5" font-family="Helvetica,sans-Serif" font-size="10.00">std::vector&lt; Acts::</text>
<text text-anchor="middle" x="460" y="-137.5" font-family="Helvetica,sans-Serif" font-size="10.00">LinCircle &gt;</text>
</a>
</g>
</g>
<!-- Node3&#45;&gt;Node4 -->
<g id="edge4_Node000004_Node000003" class="edge">
<title>Node3&#45;&gt;Node4</title>
<g id="a_edge4_Node000004_Node000003"><a xlink:title=" ">
<path fill="none" stroke="orange" stroke-dasharray="5,2" d="M140.93,-145.5C213.4,-145.5 336.42,-145.5 406.33,-145.5"/>
<polygon fill="orange" stroke="orange" points="140.62,-142 130.62,-145.5 140.62,-149 140.62,-142"/>
</a>
</g>
<text text-anchor="start" x="219" y="-151" font-family="Helvetica,sans-Serif" font-size="10.00" fill="grey">&lt; Acts::LinCircle &gt;</text>
</g>
<!-- Node5 -->
<g id="Node000005" class="node">
<title>Node5</title>
<g id="a_Node000005"><a xlink:title=" ">
<polygon fill="white" stroke="#666666" points="516.5,-109 403.5,-109 403.5,-90 516.5,-90 516.5,-109"/>
<text text-anchor="middle" x="460" y="-97" font-family="Helvetica,sans-Serif" font-size="10.00">std::vector&lt; float &gt;</text>
</a>
</g>
</g>
<!-- Node3&#45;&gt;Node5 -->
<g id="edge6_Node000005_Node000003" class="edge">
<title>Node3&#45;&gt;Node5</title>
<g id="a_edge6_Node000005_Node000003"><a xlink:title=" ">
<path fill="none" stroke="orange" stroke-dasharray="5,2" d="M132.8,-133.73C148.47,-130.35 165.9,-126.93 182,-124.5 258.28,-113.01 347.22,-106.12 403.32,-102.57"/>
<polygon fill="orange" stroke="orange" points="131.8,-130.36 122.78,-135.93 133.3,-137.2 131.8,-130.36"/>
</a>
</g>
<text text-anchor="start" x="243" y="-130" font-family="Helvetica,sans-Serif" font-size="10.00" fill="grey">&lt; float &gt;</text>
</g>
<!-- Node4&#45;&gt;Node1 -->
<g id="edge3_Node000001_Node000004" class="edge">
<title>Node4&#45;&gt;Node1</title>
<g id="a_edge3_Node000001_Node000004"><a xlink:title=" ">
<path fill="none" stroke="#9a32cd" stroke-dasharray="5,2" d="M523.67,-143.43C571.13,-140.95 637.7,-135.49 695,-123.5 709.85,-120.39 725.59,-115.83 740.07,-111.09"/>
<polygon fill="#9a32cd" stroke="#9a32cd" points="523.36,-139.94 513.55,-143.93 523.71,-146.94 523.36,-139.94"/>
</a>
</g>
<text text-anchor="start" x="595.5" y="-160.5" font-family="Helvetica,sans-Serif" font-size="10.00" fill="grey">linCircleBottom</text>
<text text-anchor="start" x="595.5" y="-145.5" font-family="Helvetica,sans-Serif" font-size="10.00" fill="grey">linCircleTop</text>
</g>
<!-- Node5&#45;&gt;Node1 -->
<g id="edge5_Node000001_Node000005" class="edge">
<title>Node5&#45;&gt;Node1</title>
<g id="a_edge5_Node000001_Node000005"><a xlink:title=" ">
<path fill="none" stroke="#9a32cd" stroke-dasharray="5,2" d="M526.72,-94.03C541.6,-92.99 557.33,-92.06 572,-91.5 618.62,-89.72 670.76,-89.39 712.89,-89.55"/>
<polygon fill="#9a32cd" stroke="#9a32cd" points="526.3,-90.55 516.57,-94.76 526.8,-97.53 526.3,-90.55"/>
</a>
</g>
<text text-anchor="start" x="588.5" y="-112.5" font-family="Helvetica,sans-Serif" font-size="10.00" fill="grey">curvatures</text>
<text text-anchor="start" x="588.5" y="-97.5" font-family="Helvetica,sans-Serif" font-size="10.00" fill="grey">impactParameters</text>
</g>
<!-- Node6 -->
<g id="Node000006" class="node">
<title>Node6</title>
<g id="a_Node000006"><a xlink:href="class_acts_1_1_candidates_for_middle_sp.html" target="_top" xlink:title=" ">
<polygon fill="white" stroke="#666666" points="554,-67.5 366,-67.5 366,-37.5 554,-37.5 554,-67.5"/>
<text text-anchor="start" x="374" y="-55.5" font-family="Helvetica,sans-Serif" font-size="10.00">Acts::CandidatesForMiddle</text>
<text text-anchor="middle" x="460" y="-44.5" font-family="Helvetica,sans-Serif" font-size="10.00">Sp&lt; const external_spacepoint_t &gt;</text>
</a>
</g>
</g>
<!-- Node6&#45;&gt;Node1 -->
<g id="edge7_Node000001_Node000006" class="edge">
<title>Node6&#45;&gt;Node1</title>
<g id="a_edge7_Node000001_Node000006"><a xlink:title=" ">
<path fill="none" stroke="#9a32cd" stroke-dasharray="5,2" d="M564.38,-56.26C605.21,-58.61 652.45,-62.4 695,-68.5 700.81,-69.33 706.78,-70.32 712.78,-71.4"/>
<polygon fill="#9a32cd" stroke="#9a32cd" points="564.32,-52.75 554.14,-55.7 563.93,-59.74 564.32,-52.75"/>
</a>
</g>
<text text-anchor="start" x="585.5" y="-74" font-family="Helvetica,sans-Serif" font-size="10.00" fill="grey">candidatesCollector</text>
</g>
<!-- Node7 -->
<g id="Node000007" class="node">
<title>Node7</title>
<g id="a_Node000007"><a xlink:href="class_acts_1_1_candidates_for_middle_sp.html" target="_top" xlink:title="The CandidatesForMiddleSp collects the triplet candidates given a fixed middle spacepoint.">
<polygon fill="white" stroke="#666666" points="164,-67.5 0,-67.5 0,-37.5 164,-37.5 164,-67.5"/>
<text text-anchor="start" x="8" y="-55.5" font-family="Helvetica,sans-Serif" font-size="10.00">Acts::CandidatesForMiddle</text>
<text text-anchor="middle" x="82" y="-44.5" font-family="Helvetica,sans-Serif" font-size="10.00">Sp&lt; external_space_point_t &gt;</text>
</a>
</g>
</g>
<!-- Node7&#45;&gt;Node6 -->
<g id="edge8_Node000006_Node000007" class="edge">
<title>Node7&#45;&gt;Node6</title>
<g id="a_edge8_Node000006_Node000007"><a xlink:title=" ">
<path fill="none" stroke="orange" stroke-dasharray="5,2" d="M174.39,-52.5C232.44,-52.5 307.37,-52.5 365.77,-52.5"/>
<polygon fill="orange" stroke="orange" points="174.12,-49 164.12,-52.5 174.12,-56 174.12,-49"/>
</a>
</g>
<text text-anchor="start" x="185" y="-58" font-family="Helvetica,sans-Serif" font-size="10.00" fill="grey">&lt; const external_spacepoint_t &gt;</text>
</g>
<!-- Node8 -->
<g id="Node000008" class="node">
<title>Node8</title>
<g id="a_Node000008"><a xlink:href="class_acts_1_1_space_point_mutable_data.html" target="_top" xlink:title="This class contains mutable data associated to the external space points provided by the customers Th...">
<polygon fill="white" stroke="#666666" points="540.5,-19 379.5,-19 379.5,0 540.5,0 540.5,-19"/>
<text text-anchor="middle" x="460" y="-7" font-family="Helvetica,sans-Serif" font-size="10.00">Acts::SpacePointMutableData</text>
</a>
</g>
</g>
<!-- Node8&#45;&gt;Node1 -->
<g id="edge9_Node000001_Node000008" class="edge">
<title>Node8&#45;&gt;Node1</title>
<g id="a_edge9_Node000001_Node000008"><a xlink:title=" ">
<path fill="none" stroke="#9a32cd" stroke-dasharray="5,2" d="M550.76,-11.27C595.03,-14.19 648.73,-20.84 695,-35.5 719.93,-43.4 745.74,-57.77 764.89,-69.85"/>
<polygon fill="#9a32cd" stroke="#9a32cd" points="550.79,-7.76 540.59,-10.65 550.36,-14.75 550.79,-7.76"/>
</a>
</g>
<text text-anchor="start" x="575.5" y="-41" font-family="Helvetica,sans-Serif" font-size="10.00" fill="grey">spacePointMutableData</text>
</g>
</g>
</svg>
