<?xml version="1.0" encoding="UTF-8" standalone="no"?>
<!DOCTYPE svg PUBLIC "-//W3C//DTD SVG 1.1//EN"
 "http://www.w3.org/Graphics/SVG/1.1/DTD/svg11.dtd">
<!-- Generated by graphviz version 2.43.0 (0)
 -->
<!-- Title: Acts::MaterialInteractionAssignment::Result Pages: 1 -->
<svg width="717pt" height="106pt"
 viewBox="0.00 0.00 717.00 105.50" xmlns="http://www.w3.org/2000/svg" xmlns:xlink="http://www.w3.org/1999/xlink">
<g id="graph0" class="graph" transform="scale(1 1) rotate(0) translate(4 101.5)">
<title>Acts::MaterialInteractionAssignment::Result</title>
<!-- Node1 -->
<g id="Node000001" class="node">
<title>Node1</title>
<g id="a_Node000001"><a xlink:title="The result struct of the assignment run.">
<polygon fill="#999999" stroke="#666666" points="709,-63.5 572,-63.5 572,-33.5 709,-33.5 709,-63.5"/>
<text text-anchor="start" x="580" y="-51.5" font-family="Helvetica,sans-Serif" font-size="10.00">Acts::MaterialInteraction</text>
<text text-anchor="middle" x="640.5" y="-40.5" font-family="Helvetica,sans-Serif" font-size="10.00">Assignment::Result</text>
</a>
</g>
</g>
<!-- Node2 -->
<g id="Node000002" class="node">
<title>Node2</title>
<g id="a_Node000002"><a xlink:title=" ">
<polygon fill="white" stroke="#666666" points="417.5,-89.5 296.5,-89.5 296.5,-59.5 417.5,-59.5 417.5,-89.5"/>
<text text-anchor="start" x="304.5" y="-77.5" font-family="Helvetica,sans-Serif" font-size="10.00">std::vector&lt; Acts::</text>
<text text-anchor="middle" x="357" y="-66.5" font-family="Helvetica,sans-Serif" font-size="10.00">MaterialInteraction &gt;</text>
</a>
</g>
</g>
<!-- Node2&#45;&gt;Node1 -->
<g id="edge1_Node000001_Node000002" class="edge">
<title>Node2&#45;&gt;Node1</title>
<g id="a_edge1_Node000001_Node000002"><a xlink:title=" ">
<path fill="none" stroke="#9a32cd" stroke-dasharray="5,2" d="M427.75,-68.06C471.78,-63.99 528.38,-58.76 571.98,-54.74"/>
<polygon fill="#9a32cd" stroke="#9a32cd" points="427.33,-64.58 417.7,-68.99 427.98,-71.55 427.33,-64.58"/>
</a>
</g>
<text text-anchor="start" x="474" y="-86.5" font-family="Helvetica,sans-Serif" font-size="10.00" fill="grey">assigned</text>
<text text-anchor="start" x="474" y="-71.5" font-family="Helvetica,sans-Serif" font-size="10.00" fill="grey">unassigned</text>
</g>
<!-- Node3 -->
<g id="Node000003" class="node">
<title>Node3</title>
<g id="a_Node000003"><a xlink:title=" ">
<polygon fill="white" stroke="#666666" points="97,-57 0,-57 0,-38 97,-38 97,-57"/>
<text text-anchor="middle" x="48.5" y="-45" font-family="Helvetica,sans-Serif" font-size="10.00">std::vector&lt; T &gt;</text>
</a>
</g>
</g>
<!-- Node3&#45;&gt;Node2 -->
<g id="edge2_Node000002_Node000003" class="edge">
<title>Node3&#45;&gt;Node2</title>
<g id="a_edge2_Node000002_Node000003"><a xlink:title=" ">
<path fill="none" stroke="orange" stroke-dasharray="5,2" d="M107.25,-52.8C109.87,-53.04 112.46,-53.27 115,-53.5 176.7,-59.01 247.31,-65.15 296.07,-69.35"/>
<polygon fill="orange" stroke="orange" points="107.35,-49.3 97.08,-51.88 106.72,-56.27 107.35,-49.3"/>
</a>
</g>
<text text-anchor="start" x="118.5" y="-72" font-family="Helvetica,sans-Serif" font-size="10.00" fill="grey">&lt; Acts::MaterialInteraction &gt;</text>
</g>
<!-- Node4 -->
<g id="Node000004" class="node">
<title>Node4</title>
<g id="a_Node000004"><a xlink:title=" ">
<polygon fill="white" stroke="#666666" points="432,-41 282,-41 282,0 432,0 432,-41"/>
<text text-anchor="start" x="290" y="-29" font-family="Helvetica,sans-Serif" font-size="10.00">std::vector&lt; Acts::</text>
<text text-anchor="start" x="290" y="-18" font-family="Helvetica,sans-Serif" font-size="10.00">IAssignmentFinder::Surface</text>
<text text-anchor="middle" x="357" y="-7" font-family="Helvetica,sans-Serif" font-size="10.00">Assignment &gt;</text>
</a>
</g>
</g>
<!-- Node3&#45;&gt;Node4 -->
<g id="edge4_Node000004_Node000003" class="edge">
<title>Node3&#45;&gt;Node4</title>
<g id="a_edge4_Node000004_Node000003"><a xlink:title=" ">
<path fill="none" stroke="orange" stroke-dasharray="5,2" d="M74.13,-33.17C86.05,-27.04 100.83,-20.59 115,-17.5 169.99,-5.51 233.72,-6.94 281.83,-11.01"/>
<polygon fill="orange" stroke="orange" points="72.39,-30.13 65.24,-37.95 75.71,-36.29 72.39,-30.13"/>
</a>
</g>
<text text-anchor="start" x="124.5" y="-38.5" font-family="Helvetica,sans-Serif" font-size="10.00" fill="grey">&lt; Acts::IAssignmentFinder</text>
<text text-anchor="start" x="124.5" y="-23.5" font-family="Helvetica,sans-Serif" font-size="10.00" fill="grey">  ::SurfaceAssignment &gt;</text>
</g>
<!-- Node4&#45;&gt;Node1 -->
<g id="edge3_Node000001_Node000004" class="edge">
<title>Node4&#45;&gt;Node1</title>
<g id="a_edge3_Node000001_Node000004"><a xlink:title=" ">
<path fill="none" stroke="#9a32cd" stroke-dasharray="5,2" d="M442.18,-26.3C476.85,-28.96 517.4,-32.44 554,-36.5 559.81,-37.14 565.83,-37.87 571.87,-38.64"/>
<polygon fill="#9a32cd" stroke="#9a32cd" points="442.33,-22.8 432.09,-25.53 441.8,-29.78 442.33,-22.8"/>
</a>
</g>
<text text-anchor="start" x="453" y="-42" font-family="Helvetica,sans-Serif" font-size="10.00" fill="grey">unassignedSurfaces</text>
</g>
</g>
</svg>
