<?xml version="1.0" encoding="UTF-8" standalone="no"?>
<!DOCTYPE svg PUBLIC "-//W3C//DTD SVG 1.1//EN"
 "http://www.w3.org/Graphics/SVG/1.1/DTD/svg11.dtd">
<!-- Generated by graphviz version 2.43.0 (0)
 -->
<!-- Title: Acts::EigenStepperDenseExtension Pages: 1 -->
<svg width="412pt" height="257pt"
 viewBox="0.00 0.00 412.00 257.00" xmlns="http://www.w3.org/2000/svg" xmlns:xlink="http://www.w3.org/1999/xlink">
<g id="graph0" class="graph" transform="scale(1 1) rotate(0) translate(4 253)">
<title>Acts::EigenStepperDenseExtension</title>
<!-- Node1 -->
<g id="Node000001" class="node">
<title>Node1</title>
<g id="a_Node000001"><a xlink:title="Evaluator of the k_i&#39;s and elements of the transport matrix D of the RKN4 stepping.">
<polygon fill="#999999" stroke="#666666" points="297.5,-19 110.5,-19 110.5,0 297.5,0 297.5,-19"/>
<text text-anchor="middle" x="204" y="-7" font-family="Helvetica,sans-Serif" font-size="10.00">Acts::EigenStepperDenseExtension</text>
</a>
</g>
</g>
<!-- Node2 -->
<g id="Node000002" class="node">
<title>Node2</title>
<g id="a_Node000002"><a xlink:href="struct_acts_1_1_eigen_stepper_default_extension.html" target="_top" xlink:title="Default evaluator of the k_i&#39;s and elements of the transport matrix D of the RKN4 stepping.">
<polygon fill="white" stroke="#666666" points="144,-177 0,-177 0,-147 144,-147 144,-177"/>
<text text-anchor="start" x="8" y="-165" font-family="Helvetica,sans-Serif" font-size="10.00">Acts::EigenStepperDefault</text>
<text text-anchor="middle" x="72" y="-154" font-family="Helvetica,sans-Serif" font-size="10.00">Extension</text>
</a>
</g>
</g>
<!-- Node2&#45;&gt;Node1 -->
<g id="edge1_Node000001_Node000002" class="edge">
<title>Node2&#45;&gt;Node1</title>
<g id="a_edge1_Node000001_Node000002"><a xlink:title=" ">
<path fill="none" stroke="#9a32cd" stroke-dasharray="5,2" d="M73,-136.8C75.46,-108.91 83.73,-63.54 111,-37 119.42,-28.8 130.19,-23.11 141.4,-19.16"/>
<polygon fill="#9a32cd" stroke="#9a32cd" points="69.5,-136.67 72.29,-146.89 76.48,-137.16 69.5,-136.67"/>
</a>
</g>
<text text-anchor="start" x="114.5" y="-80" font-family="Helvetica,sans-Serif" font-size="10.00" fill="grey">defaultExtension</text>
</g>
<!-- Node3 -->
<g id="Node000003" class="node">
<title>Node3</title>
<g id="a_Node000003"><a xlink:href="class_acts_1_1_material.html" target="_top" xlink:title="Material description for interactions with matter.">
<polygon fill="white" stroke="#666666" points="246,-171.5 162,-171.5 162,-152.5 246,-152.5 246,-171.5"/>
<text text-anchor="middle" x="204" y="-159.5" font-family="Helvetica,sans-Serif" font-size="10.00">Acts::Material</text>
</a>
</g>
</g>
<!-- Node3&#45;&gt;Node1 -->
<g id="edge2_Node000001_Node000003" class="edge">
<title>Node3&#45;&gt;Node1</title>
<g id="a_edge2_Node000001_Node000003"><a xlink:title=" ">
<path fill="none" stroke="#9a32cd" stroke-dasharray="5,2" d="M204,-142.47C204,-109.82 204,-43.23 204,-19.3"/>
<polygon fill="#9a32cd" stroke="#9a32cd" points="200.5,-142.48 204,-152.48 207.5,-142.48 200.5,-142.48"/>
</a>
</g>
<text text-anchor="start" x="207" y="-80" font-family="Helvetica,sans-Serif" font-size="10.00" fill="grey">material</text>
</g>
<!-- Node4 -->
<g id="Node000004" class="node">
<title>Node4</title>
<g id="a_Node000004"><a xlink:title=" ">
<polygon fill="white" stroke="#666666" points="395.5,-171.5 264.5,-171.5 264.5,-152.5 395.5,-152.5 395.5,-171.5"/>
<text text-anchor="middle" x="330" y="-159.5" font-family="Helvetica,sans-Serif" font-size="10.00">std::array&lt; double, 4 &gt;</text>
</a>
</g>
</g>
<!-- Node4&#45;&gt;Node1 -->
<g id="edge3_Node000001_Node000004" class="edge">
<title>Node4&#45;&gt;Node1</title>
<g id="a_edge3_Node000001_Node000004"><a xlink:title=" ">
<path fill="none" stroke="#9a32cd" stroke-dasharray="5,2" d="M323.05,-142.93C312.2,-116.7 288.99,-67.86 256,-37 247.86,-29.39 237.11,-23.42 227.51,-19.1"/>
<polygon fill="#9a32cd" stroke="#9a32cd" points="319.87,-144.39 326.83,-152.38 326.37,-141.79 319.87,-144.39"/>
</a>
</g>
<text text-anchor="start" x="319.5" y="-118" font-family="Helvetica,sans-Serif" font-size="10.00" fill="grey">Lambdappi</text>
<text text-anchor="start" x="319.5" y="-103" font-family="Helvetica,sans-Serif" font-size="10.00" fill="grey">dLdl</text>
<text text-anchor="start" x="319.5" y="-88" font-family="Helvetica,sans-Serif" font-size="10.00" fill="grey">dPds</text>
<text text-anchor="start" x="319.5" y="-73" font-family="Helvetica,sans-Serif" font-size="10.00" fill="grey">energy</text>
<text text-anchor="start" x="319.5" y="-58" font-family="Helvetica,sans-Serif" font-size="10.00" fill="grey">qop</text>
<text text-anchor="start" x="319.5" y="-43" font-family="Helvetica,sans-Serif" font-size="10.00" fill="grey">tKi</text>
</g>
<!-- Node5 -->
<g id="Node000005" class="node">
<title>Node5</title>
<g id="a_Node000005"><a xlink:title=" ">
<polygon fill="white" stroke="#666666" points="376,-249 284,-249 284,-230 376,-230 376,-249"/>
<text text-anchor="middle" x="330" y="-237" font-family="Helvetica,sans-Serif" font-size="10.00">std::array&lt; T &gt;</text>
</a>
</g>
</g>
<!-- Node5&#45;&gt;Node4 -->
<g id="edge4_Node000004_Node000005" class="edge">
<title>Node5&#45;&gt;Node4</title>
<g id="a_edge4_Node000004_Node000005"><a xlink:title=" ">
<path fill="none" stroke="orange" stroke-dasharray="5,2" d="M330,-219.4C330,-204.01 330,-183.11 330,-171.56"/>
<polygon fill="orange" stroke="orange" points="326.5,-219.84 330,-229.84 333.5,-219.84 326.5,-219.84"/>
</a>
</g>
<text text-anchor="start" x="333" y="-200.5" font-family="Helvetica,sans-Serif" font-size="10.00" fill="grey">&lt; double, 4 &gt;</text>
</g>
</g>
</svg>
