<?xml version="1.0" encoding="UTF-8" standalone="no"?>
<!DOCTYPE svg PUBLIC "-//W3C//DTD SVG 1.1//EN"
 "http://www.w3.org/Graphics/SVG/1.1/DTD/svg11.dtd">
<!-- Generated by graphviz version 2.43.0 (0)
 -->
<!-- Title: Acts::HoughVertexFinder&lt; spacepoint_t &gt;::Config Pages: 1 -->
<svg width="317pt" height="212pt"
 viewBox="0.00 0.00 317.00 212.00" xmlns="http://www.w3.org/2000/svg" xmlns:xlink="http://www.w3.org/1999/xlink">

<svg id="main" version="1.1" xmlns="http://www.w3.org/2000/svg" xmlns:xlink="http://www.w3.org/1999/xlink" xml:space="preserve">

<style type="text/css"><![CDATA[
.node, .edge {opacity: 0.7;}
.node.selected, .edge.selected {opacity: 1;}
.edge:hover path { stroke: red; }
.edge:hover polygon { stroke: red; fill: red; }
]]></style>
<script type="application/ecmascript" xlink:href="svg.min.js"/>
<svg id="graph" class="graph">
<g id="graph0" class="graph" transform="scale(1 1) rotate(0) translate(4 208)">
<title>Acts::HoughVertexFinder&lt; spacepoint_t &gt;::Config</title>
<!-- Node1 -->
<g id="Node000001" class="node">
<title>Node1</title>
<g id="a_Node000001"><a xlink:title="Configuration struct.">
<polygon fill="#999999" stroke="#666666" points="208,-30 70,-30 70,0 208,0 208,-30"/>
<text text-anchor="start" x="78" y="-18" font-family="Helvetica,sans-Serif" font-size="10.00">Acts::HoughVertexFinder</text>
<text text-anchor="middle" x="139" y="-7" font-family="Helvetica,sans-Serif" font-size="10.00">&lt; spacepoint_t &gt;::Config</text>
</a>
</g>
</g>
<!-- Node2 -->
<g id="Node000002" class="node">
<title>Node2</title>
<g id="a_Node000002"><a xlink:title=" ">
<polygon fill="white" stroke="#666666" points="124,-132 0,-132 0,-113 124,-113 124,-132"/>
<text text-anchor="middle" x="62" y="-120" font-family="Helvetica,sans-Serif" font-size="10.00">std::vector&lt; double &gt;</text>
</a>
</g>
</g>
<!-- Node2&#45;&gt;Node1 -->
<g id="edge1_Node000001_Node000002" class="edge">
<title>Node2&#45;&gt;Node1</title>
<g id="a_edge1_Node000001_Node000002"><a xlink:title=" ">
<path fill="none" stroke="#9a32cd" stroke-dasharray="5,2" d="M68.7,-103.04C74.97,-87.36 85.4,-64.77 99,-48 104.38,-41.37 111.35,-35.21 117.96,-30.1"/>
<polygon fill="#9a32cd" stroke="#9a32cd" points="65.33,-102.06 65.03,-112.65 71.87,-104.55 65.33,-102.06"/>
</a>
</g>
<text text-anchor="start" x="102" y="-83.5" font-family="Helvetica,sans-Serif" font-size="10.00" fill="grey">absEtaFractions</text>
<text text-anchor="start" x="102" y="-68.5" font-family="Helvetica,sans-Serif" font-size="10.00" fill="grey">absEtaRanges</text>
<text text-anchor="start" x="102" y="-53.5" font-family="Helvetica,sans-Serif" font-size="10.00" fill="grey">rangeIterZ</text>
</g>
<!-- Node3 -->
<g id="Node000003" class="node">
<title>Node3</title>
<g id="a_Node000003"><a xlink:title=" ">
<polygon fill="white" stroke="#666666" points="187.5,-204 90.5,-204 90.5,-185 187.5,-185 187.5,-204"/>
<text text-anchor="middle" x="139" y="-192" font-family="Helvetica,sans-Serif" font-size="10.00">std::vector&lt; T &gt;</text>
</a>
</g>
</g>
<!-- Node3&#45;&gt;Node2 -->
<g id="edge2_Node000002_Node000003" class="edge">
<title>Node3&#45;&gt;Node2</title>
<g id="a_edge2_Node000002_Node000003"><a xlink:title=" ">
<path fill="none" stroke="orange" stroke-dasharray="5,2" d="M121.73,-177.8C106.23,-163.71 84.03,-143.53 71.52,-132.15"/>
<polygon fill="orange" stroke="orange" points="119.8,-180.78 129.56,-184.92 124.51,-175.6 119.8,-180.78"/>
</a>
</g>
<text text-anchor="start" x="113" y="-155.5" font-family="Helvetica,sans-Serif" font-size="10.00" fill="grey">&lt; double &gt;</text>
</g>
<!-- Node4 -->
<g id="Node000004" class="node">
<title>Node4</title>
<g id="a_Node000004"><a xlink:title=" ">
<polygon fill="white" stroke="#666666" points="294,-132 142,-132 142,-113 294,-113 294,-132"/>
<text text-anchor="middle" x="218" y="-120" font-family="Helvetica,sans-Serif" font-size="10.00">std::vector&lt; std::uint32_t &gt;</text>
</a>
</g>
</g>
<!-- Node3&#45;&gt;Node4 -->
<g id="edge4_Node000004_Node000003" class="edge">
<title>Node3&#45;&gt;Node4</title>
<g id="a_edge4_Node000004_Node000003"><a xlink:title=" ">
<path fill="none" stroke="orange" stroke-dasharray="5,2" d="M160.49,-179.1C165.71,-175.34 171.17,-171.17 176,-167 188.87,-155.89 202.27,-141.42 210.38,-132.29"/>
<polygon fill="orange" stroke="orange" points="158.29,-176.37 152.1,-184.97 162.3,-182.11 158.29,-176.37"/>
</a>
</g>
<text text-anchor="start" x="195" y="-155.5" font-family="Helvetica,sans-Serif" font-size="10.00" fill="grey">&lt; std::uint32_t &gt;</text>
</g>
<!-- Node4&#45;&gt;Node1 -->
<g id="edge3_Node000001_Node000004" class="edge">
<title>Node4&#45;&gt;Node1</title>
<g id="a_edge3_Node000001_Node000004"><a xlink:title=" ">
<path fill="none" stroke="#9a32cd" stroke-dasharray="5,2" d="M212.06,-102.87C206.38,-87.08 196.65,-64.43 183,-48 177.33,-41.17 169.89,-35.04 162.74,-30.02"/>
<polygon fill="#9a32cd" stroke="#9a32cd" points="208.82,-104.21 215.35,-112.55 215.45,-101.96 208.82,-104.21"/>
</a>
</g>
<text text-anchor="start" x="211.5" y="-76.5" font-family="Helvetica,sans-Serif" font-size="10.00" fill="grey">nBinsCotThetaIterZ</text>
<text text-anchor="start" x="211.5" y="-61.5" font-family="Helvetica,sans-Serif" font-size="10.00" fill="grey">nBinsZIterZ</text>
</g>
</g>
</svg>
</svg>

<style type='text/css'>
<![CDATA[
[data-mouse-over-selected='false'] { opacity: 0.7; }
[data-mouse-over-selected='true']  { opacity: 1.0; }
]]>
</style>
<script type="application/ecmascript"><![CDATA[
document.addEventListener('DOMContentLoaded', (event) => {
  highlightEdges();
  highlightAdjacentNodes();
});
]]></script>
</svg>
