<?xml version="1.0" encoding="UTF-8" standalone="no"?>
<!DOCTYPE svg PUBLIC "-//W3C//DTD SVG 1.1//EN"
 "http://www.w3.org/Graphics/SVG/1.1/DTD/svg11.dtd">
<!-- Generated by graphviz version 2.43.0 (0)
 -->
<!-- Title: Acts::GridDensityVertexFinder::Config Pages: 1 -->
<svg width="800pt" height="76pt"
 viewBox="0.00 0.00 800.00 76.00" xmlns="http://www.w3.org/2000/svg" xmlns:xlink="http://www.w3.org/1999/xlink">
<g id="graph0" class="graph" transform="scale(1 1) rotate(0) translate(4 72)">
<title>Acts::GridDensityVertexFinder::Config</title>
<!-- Node1 -->
<g id="Node000001" class="node">
<title>Node1</title>
<g id="a_Node000001"><a xlink:title="The Config struct.">
<polygon fill="#999999" stroke="#666666" points="792,-52 629,-52 629,-22 792,-22 792,-52"/>
<text text-anchor="start" x="637" y="-40" font-family="Helvetica,sans-Serif" font-size="10.00">Acts::GridDensityVertexFinder</text>
<text text-anchor="middle" x="710.5" y="-29" font-family="Helvetica,sans-Serif" font-size="10.00">::Config</text>
</a>
</g>
</g>
<!-- Node2 -->
<g id="Node000002" class="node">
<title>Node2</title>
<g id="a_Node000002"><a xlink:href="class_acts_1_1_gaussian_grid_track_density.html" target="_top" xlink:title="Implements a 1&#45;dim density grid to be filled with track Gaussian distributions.">
<polygon fill="white" stroke="#666666" points="493,-67.5 321,-67.5 321,-48.5 493,-48.5 493,-67.5"/>
<text text-anchor="middle" x="407" y="-55.5" font-family="Helvetica,sans-Serif" font-size="10.00">Acts::GaussianGridTrackDensity</text>
</a>
</g>
</g>
<!-- Node2&#45;&gt;Node1 -->
<g id="edge1_Node000001_Node000002" class="edge">
<title>Node2&#45;&gt;Node1</title>
<g id="a_edge1_Node000001_Node000002"><a xlink:title=" ">
<path fill="none" stroke="#9a32cd" stroke-dasharray="5,2" d="M503.32,-51.36C543.71,-48.55 590.28,-45.3 628.93,-42.61"/>
<polygon fill="#9a32cd" stroke="#9a32cd" points="502.92,-47.88 493.19,-52.07 503.41,-54.86 502.92,-47.88"/>
</a>
</g>
<text text-anchor="start" x="534.5" y="-56.5" font-family="Helvetica,sans-Serif" font-size="10.00" fill="grey">gridDensity</text>
</g>
<!-- Node3 -->
<g id="Node000003" class="node">
<title>Node3</title>
<g id="a_Node000003"><a xlink:href="class_acts_1_1_delegate.html" target="_top" xlink:title=" ">
<polygon fill="white" stroke="#666666" points="496,-30 318,-30 318,0 496,0 496,-30"/>
<text text-anchor="start" x="326" y="-18" font-family="Helvetica,sans-Serif" font-size="10.00">Acts::Delegate&lt; BoundTrack</text>
<text text-anchor="middle" x="407" y="-7" font-family="Helvetica,sans-Serif" font-size="10.00">Parameters(const InputTrack &amp;)&gt;</text>
</a>
</g>
</g>
<!-- Node3&#45;&gt;Node1 -->
<g id="edge2_Node000001_Node000003" class="edge">
<title>Node3&#45;&gt;Node1</title>
<g id="a_edge2_Node000001_Node000003"><a xlink:title=" ">
<path fill="none" stroke="#9a32cd" stroke-dasharray="5,2" d="M506.24,-17.63C539.54,-18.98 576.92,-21 611,-24 616.84,-24.51 622.87,-25.12 628.93,-25.79"/>
<polygon fill="#9a32cd" stroke="#9a32cd" points="506.17,-14.13 496.04,-17.24 505.9,-21.12 506.17,-14.13"/>
</a>
</g>
<text text-anchor="start" x="517.5" y="-29.5" font-family="Helvetica,sans-Serif" font-size="10.00" fill="grey">extractParameters</text>
</g>
<!-- Node4 -->
<g id="Node000004" class="node">
<title>Node4</title>
<g id="a_Node000004"><a xlink:href="class_acts_1_1_delegate.html" target="_top" xlink:title=" ">
<polygon fill="white" stroke="#666666" points="152,-30 0,-30 0,0 152,0 152,-30"/>
<text text-anchor="start" x="8" y="-18" font-family="Helvetica,sans-Serif" font-size="10.00">Acts::Delegate&lt; typename,</text>
<text text-anchor="middle" x="76" y="-7" font-family="Helvetica,sans-Serif" font-size="10.00"> H, DelegateType &gt;</text>
</a>
</g>
</g>
<!-- Node4&#45;&gt;Node3 -->
<g id="edge3_Node000003_Node000004" class="edge">
<title>Node4&#45;&gt;Node3</title>
<g id="a_edge3_Node000003_Node000004"><a xlink:title=" ">
<path fill="none" stroke="orange" stroke-dasharray="5,2" d="M162.09,-15C209.91,-15 269.53,-15 317.84,-15"/>
<polygon fill="orange" stroke="orange" points="162.07,-11.5 152.07,-15 162.07,-18.5 162.07,-11.5"/>
</a>
</g>
<text text-anchor="start" x="173" y="-36" font-family="Helvetica,sans-Serif" font-size="10.00" fill="grey">&lt; BoundTrackParameters</text>
<text text-anchor="start" x="173" y="-21" font-family="Helvetica,sans-Serif" font-size="10.00" fill="grey">  (const InputTrack &amp;)&gt;</text>
</g>
</g>
</svg>
