<?xml version="1.0" encoding="UTF-8" standalone="no"?>
<!DOCTYPE svg PUBLIC "-//W3C//DTD SVG 1.1//EN"
 "http://www.w3.org/Graphics/SVG/1.1/DTD/svg11.dtd">
<!-- Generated by graphviz version 2.43.0 (0)
 -->
<!-- Title: Acts::AdaptiveGridTrackDensity::Config Pages: 1 -->
<svg width="788pt" height="118pt"
 viewBox="0.00 0.00 788.00 117.50" xmlns="http://www.w3.org/2000/svg" xmlns:xlink="http://www.w3.org/1999/xlink">
<g id="graph0" class="graph" transform="scale(1 1) rotate(0) translate(4 113.5)">
<title>Acts::AdaptiveGridTrackDensity::Config</title>
<!-- Node1 -->
<g id="Node000001" class="node">
<title>Node1</title>
<g id="a_Node000001"><a xlink:title="The configuration struct.">
<polygon fill="#999999" stroke="#666666" points="780,-70.5 610,-70.5 610,-40.5 780,-40.5 780,-70.5"/>
<text text-anchor="start" x="618" y="-58.5" font-family="Helvetica,sans-Serif" font-size="10.00">Acts::AdaptiveGridTrackDensity</text>
<text text-anchor="middle" x="695" y="-47.5" font-family="Helvetica,sans-Serif" font-size="10.00">::Config</text>
</a>
</g>
</g>
<!-- Node2 -->
<g id="Node000002" class="node">
<title>Node2</title>
<g id="a_Node000002"><a xlink:title=" ">
<polygon fill="white" stroke="#666666" points="411.5,-100.5 307.5,-100.5 307.5,-70.5 411.5,-70.5 411.5,-100.5"/>
<text text-anchor="start" x="315.5" y="-88.5" font-family="Helvetica,sans-Serif" font-size="10.00">std::pair&lt; double,</text>
<text text-anchor="middle" x="359.5" y="-77.5" font-family="Helvetica,sans-Serif" font-size="10.00"> double &gt;</text>
</a>
</g>
</g>
<!-- Node2&#45;&gt;Node1 -->
<g id="edge1_Node000001_Node000002" class="edge">
<title>Node2&#45;&gt;Node1</title>
<g id="a_edge1_Node000001_Node000002"><a xlink:title=" ">
<path fill="none" stroke="#9a32cd" stroke-dasharray="5,2" d="M421.75,-79.99C474.57,-75.24 551.36,-68.33 609.93,-63.06"/>
<polygon fill="#9a32cd" stroke="#9a32cd" points="421.16,-76.53 411.51,-80.91 421.79,-83.5 421.16,-76.53"/>
</a>
</g>
<text text-anchor="start" x="482" y="-98.5" font-family="Helvetica,sans-Serif" font-size="10.00" fill="grey">spatialWindow</text>
<text text-anchor="start" x="482" y="-83.5" font-family="Helvetica,sans-Serif" font-size="10.00" fill="grey">temporalWindow</text>
</g>
<!-- Node3 -->
<g id="Node000003" class="node">
<title>Node3</title>
<g id="a_Node000003"><a xlink:title=" ">
<polygon fill="white" stroke="#666666" points="109,-61 0,-61 0,-42 109,-42 109,-61"/>
<text text-anchor="middle" x="54.5" y="-49" font-family="Helvetica,sans-Serif" font-size="10.00">std::pair&lt; T1, T2 &gt;</text>
</a>
</g>
</g>
<!-- Node3&#45;&gt;Node2 -->
<g id="edge2_Node000002_Node000003" class="edge">
<title>Node3&#45;&gt;Node2</title>
<g id="a_edge2_Node000002_Node000003"><a xlink:title=" ">
<path fill="none" stroke="orange" stroke-dasharray="5,2" d="M114.85,-62.71C118.95,-63.36 123.03,-63.96 127,-64.5 188.78,-72.9 260.31,-78.81 307.32,-82.18"/>
<polygon fill="orange" stroke="orange" points="115.08,-59.2 104.64,-61.03 113.94,-66.11 115.08,-59.2"/>
</a>
</g>
<text text-anchor="start" x="148" y="-84" font-family="Helvetica,sans-Serif" font-size="10.00" fill="grey">&lt; double, double &gt;</text>
</g>
<!-- Node4 -->
<g id="Node000004" class="node">
<title>Node4</title>
<g id="a_Node000004"><a xlink:title=" ">
<polygon fill="white" stroke="#666666" points="438,-41 281,-41 281,0 438,0 438,-41"/>
<text text-anchor="start" x="289" y="-29" font-family="Helvetica,sans-Serif" font-size="10.00">std::pair&lt; std::optional</text>
<text text-anchor="start" x="289" y="-18" font-family="Helvetica,sans-Serif" font-size="10.00">&lt; std::uint32_t &gt;, std</text>
<text text-anchor="middle" x="359.5" y="-7" font-family="Helvetica,sans-Serif" font-size="10.00">::optional&lt; std::uint32_t &gt; &gt;</text>
</a>
</g>
</g>
<!-- Node3&#45;&gt;Node4 -->
<g id="edge4_Node000004_Node000003" class="edge">
<title>Node3&#45;&gt;Node4</title>
<g id="a_edge4_Node000004_Node000003"><a xlink:title=" ">
<path fill="none" stroke="orange" stroke-dasharray="5,2" d="M79.43,-36.82C92.88,-29.44 110.28,-21.27 127,-17.5 177.38,-6.13 235.51,-6.93 280.92,-10.55"/>
<polygon fill="orange" stroke="orange" points="77.34,-33.99 70.4,-41.99 80.82,-40.06 77.34,-33.99"/>
</a>
</g>
<text text-anchor="start" x="130" y="-53" font-family="Helvetica,sans-Serif" font-size="10.00" fill="grey">&lt; std::optional&lt; std</text>
<text text-anchor="start" x="130" y="-38" font-family="Helvetica,sans-Serif" font-size="10.00" fill="grey">  ::uint32_t &gt;, std::optional</text>
<text text-anchor="start" x="130" y="-23" font-family="Helvetica,sans-Serif" font-size="10.00" fill="grey">  &lt; std::uint32_t &gt; &gt;</text>
</g>
<!-- Node4&#45;&gt;Node1 -->
<g id="edge3_Node000001_Node000004" class="edge">
<title>Node4&#45;&gt;Node1</title>
<g id="a_edge3_Node000001_Node000004"><a xlink:title=" ">
<path fill="none" stroke="#9a32cd" stroke-dasharray="5,2" d="M448.29,-19.57C491.73,-20.21 544.83,-22.65 592,-29.5 609.09,-31.98 627.46,-36.17 643.84,-40.48"/>
<polygon fill="#9a32cd" stroke="#9a32cd" points="448.08,-16.07 438.04,-19.45 448,-23.07 448.08,-16.07"/>
</a>
</g>
<text text-anchor="start" x="459" y="-50.5" font-family="Helvetica,sans-Serif" font-size="10.00" fill="grey">spatialTrkGridSizeRange</text>
<text text-anchor="start" x="459" y="-35.5" font-family="Helvetica,sans-Serif" font-size="10.00" fill="grey">temporalTrkGridSizeRange</text>
</g>
</g>
</svg>
