<?xml version="1.0" encoding="UTF-8" standalone="no"?>
<!DOCTYPE svg PUBLIC "-//W3C//DTD SVG 1.1//EN"
 "http://www.w3.org/Graphics/SVG/1.1/DTD/svg11.dtd">
<!-- Generated by graphviz version 2.43.0 (0)
 -->
<!-- Title: Acts::AdaptiveMultiVertexFinder::Config Pages: 1 -->
<svg width="823pt" height="273pt"
 viewBox="0.00 0.00 823.00 273.00" xmlns="http://www.w3.org/2000/svg" xmlns:xlink="http://www.w3.org/1999/xlink">
<g id="graph0" class="graph" transform="scale(1 1) rotate(0) translate(4 269)">
<title>Acts::AdaptiveMultiVertexFinder::Config</title>
<!-- Node1 -->
<g id="Node000001" class="node">
<title>Node1</title>
<g id="a_Node000001"><a xlink:title="Configuration struct.">
<polygon fill="#999999" stroke="#666666" points="815,-147 672,-147 672,-117 815,-117 815,-147"/>
<text text-anchor="start" x="680" y="-135" font-family="Helvetica,sans-Serif" font-size="10.00">Acts::AdaptiveMultiVertex</text>
<text text-anchor="middle" x="743.5" y="-124" font-family="Helvetica,sans-Serif" font-size="10.00">Finder::Config</text>
</a>
</g>
</g>
<!-- Node2 -->
<g id="Node000002" class="node">
<title>Node2</title>
<g id="a_Node000002"><a xlink:href="class_acts_1_1_adaptive_multi_vertex_fitter.html" target="_top" xlink:title="Implements an adaptive multi&#45;vertex fitter as described in detail in Section 5.3.5 in: Ref.">
<polygon fill="white" stroke="#666666" points="498.5,-265 355.5,-265 355.5,-235 498.5,-235 498.5,-265"/>
<text text-anchor="start" x="363.5" y="-253" font-family="Helvetica,sans-Serif" font-size="10.00">Acts::AdaptiveMultiVertex</text>
<text text-anchor="middle" x="427" y="-242" font-family="Helvetica,sans-Serif" font-size="10.00">Fitter</text>
</a>
</g>
</g>
<!-- Node2&#45;&gt;Node1 -->
<g id="edge1_Node000001_Node000002" class="edge">
<title>Node2&#45;&gt;Node1</title>
<g id="a_edge1_Node000001_Node000002"><a xlink:title=" ">
<path fill="none" stroke="#9a32cd" stroke-dasharray="5,2" d="M508.96,-246.35C553.57,-241.77 608.87,-231.73 654,-210 685.55,-194.8 714.44,-165.11 730.14,-147.06"/>
<polygon fill="#9a32cd" stroke="#9a32cd" points="508.37,-242.89 498.75,-247.33 509.03,-249.86 508.37,-242.89"/>
</a>
</g>
<text text-anchor="start" x="565" y="-248.5" font-family="Helvetica,sans-Serif" font-size="10.00" fill="grey">vertexFitter</text>
</g>
<!-- Node3 -->
<g id="Node000003" class="node">
<title>Node3</title>
<g id="a_Node000003"><a xlink:title=" ">
<polygon fill="white" stroke="#666666" points="490.5,-217 363.5,-217 363.5,-187 490.5,-187 490.5,-217"/>
<text text-anchor="start" x="371.5" y="-205" font-family="Helvetica,sans-Serif" font-size="10.00">std::shared_ptr&lt; const</text>
<text text-anchor="middle" x="427" y="-194" font-family="Helvetica,sans-Serif" font-size="10.00"> Acts::IVertexFinder &gt;</text>
</a>
</g>
</g>
<!-- Node3&#45;&gt;Node1 -->
<g id="edge2_Node000001_Node000003" class="edge">
<title>Node3&#45;&gt;Node1</title>
<g id="a_edge2_Node000001_Node000003"><a xlink:title=" ">
<path fill="none" stroke="#9a32cd" stroke-dasharray="5,2" d="M500.85,-194.9C545.56,-189.51 603.7,-180.66 654,-167 672.82,-161.89 693.09,-154.06 709.48,-147.09"/>
<polygon fill="#9a32cd" stroke="#9a32cd" points="500.18,-191.45 490.65,-196.09 500.99,-198.4 500.18,-191.45"/>
</a>
</g>
<text text-anchor="start" x="567" y="-194.5" font-family="Helvetica,sans-Serif" font-size="10.00" fill="grey">seedFinder</text>
</g>
<!-- Node4 -->
<g id="Node000004" class="node">
<title>Node4</title>
<g id="a_Node000004"><a xlink:title=" ">
<polygon fill="white" stroke="#666666" points="135,-186.5 17,-186.5 17,-167.5 135,-167.5 135,-186.5"/>
<text text-anchor="middle" x="76" y="-174.5" font-family="Helvetica,sans-Serif" font-size="10.00">std::shared_ptr&lt; T &gt;</text>
</a>
</g>
</g>
<!-- Node4&#45;&gt;Node3 -->
<g id="edge3_Node000003_Node000004" class="edge">
<title>Node4&#45;&gt;Node3</title>
<g id="a_edge3_Node000003_Node000004"><a xlink:title=" ">
<path fill="none" stroke="orange" stroke-dasharray="5,2" d="M145.3,-181.89C208.61,-186.43 302.01,-193.12 363.42,-197.52"/>
<polygon fill="orange" stroke="orange" points="145.25,-178.38 135.02,-181.16 144.75,-185.36 145.25,-178.38"/>
</a>
</g>
<text text-anchor="start" x="173" y="-198.5" font-family="Helvetica,sans-Serif" font-size="10.00" fill="grey">&lt; const Acts::IVertexFinder &gt;</text>
</g>
<!-- Node6 -->
<g id="Node000006" class="node">
<title>Node6</title>
<g id="a_Node000006"><a xlink:title=" ">
<polygon fill="white" stroke="#666666" points="510.5,-169 343.5,-169 343.5,-139 510.5,-139 510.5,-169"/>
<text text-anchor="start" x="351.5" y="-157" font-family="Helvetica,sans-Serif" font-size="10.00">std::shared_ptr&lt; const</text>
<text text-anchor="middle" x="427" y="-146" font-family="Helvetica,sans-Serif" font-size="10.00"> Acts::MagneticFieldProvider &gt;</text>
</a>
</g>
</g>
<!-- Node4&#45;&gt;Node6 -->
<g id="edge6_Node000006_Node000004" class="edge">
<title>Node4&#45;&gt;Node6</title>
<g id="a_edge6_Node000006_Node000004"><a xlink:title=" ">
<path fill="none" stroke="orange" stroke-dasharray="5,2" d="M113.39,-164.34C130.36,-159.09 150.98,-153.61 170,-151 227.58,-143.1 293.12,-144.06 343.47,-146.88"/>
<polygon fill="orange" stroke="orange" points="112.31,-161.01 103.85,-167.39 114.44,-167.68 112.31,-161.01"/>
</a>
</g>
<text text-anchor="start" x="177" y="-172" font-family="Helvetica,sans-Serif" font-size="10.00" fill="grey">&lt; const Acts::MagneticField</text>
<text text-anchor="start" x="177" y="-157" font-family="Helvetica,sans-Serif" font-size="10.00" fill="grey">  Provider &gt;</text>
</g>
<!-- Node5 -->
<g id="Node000005" class="node">
<title>Node5</title>
<g id="a_Node000005"><a xlink:href="class_acts_1_1_impact_point_estimator.html" target="_top" xlink:title="Estimator for impact point calculations A description of the underlying mathematics can be found here...">
<polygon fill="white" stroke="#666666" points="501.5,-120.5 352.5,-120.5 352.5,-101.5 501.5,-101.5 501.5,-120.5"/>
<text text-anchor="middle" x="427" y="-108.5" font-family="Helvetica,sans-Serif" font-size="10.00">Acts::ImpactPointEstimator</text>
</a>
</g>
</g>
<!-- Node5&#45;&gt;Node1 -->
<g id="edge4_Node000001_Node000005" class="edge">
<title>Node5&#45;&gt;Node1</title>
<g id="a_edge4_Node000001_Node000005"><a xlink:title=" ">
<path fill="none" stroke="#9a32cd" stroke-dasharray="5,2" d="M511.81,-108.39C554.49,-108 607.13,-108.97 654,-114 660.86,-114.74 667.98,-115.75 675.06,-116.93"/>
<polygon fill="#9a32cd" stroke="#9a32cd" points="511.71,-104.89 501.75,-108.5 511.79,-111.89 511.71,-104.89"/>
</a>
</g>
<text text-anchor="start" x="566" y="-119.5" font-family="Helvetica,sans-Serif" font-size="10.00" fill="grey">ipEstimator</text>
</g>
<!-- Node6&#45;&gt;Node1 -->
<g id="edge5_Node000001_Node000006" class="edge">
<title>Node6&#45;&gt;Node1</title>
<g id="a_edge5_Node000001_Node000006"><a xlink:title=" ">
<path fill="none" stroke="#9a32cd" stroke-dasharray="5,2" d="M520.79,-147.51C569.11,-144.13 627.26,-140.06 671.88,-136.94"/>
<polygon fill="#9a32cd" stroke="#9a32cd" points="520.36,-144.03 510.63,-148.22 520.85,-151.01 520.36,-144.03"/>
</a>
</g>
<text text-anchor="start" x="579" y="-151.5" font-family="Helvetica,sans-Serif" font-size="10.00" fill="grey">bField</text>
</g>
<!-- Node7 -->
<g id="Node000007" class="node">
<title>Node7</title>
<g id="a_Node000007"><a xlink:title=" ">
<polygon fill="white" stroke="#666666" points="479,-83 375,-83 375,-53 479,-53 479,-83"/>
<text text-anchor="start" x="383" y="-71" font-family="Helvetica,sans-Serif" font-size="10.00">std::pair&lt; double,</text>
<text text-anchor="middle" x="427" y="-60" font-family="Helvetica,sans-Serif" font-size="10.00"> double &gt;</text>
</a>
</g>
</g>
<!-- Node7&#45;&gt;Node1 -->
<g id="edge7_Node000001_Node000007" class="edge">
<title>Node7&#45;&gt;Node1</title>
<g id="a_edge7_Node000001_Node000007"><a xlink:title=" ">
<path fill="none" stroke="#9a32cd" stroke-dasharray="5,2" d="M489.41,-66.83C535.52,-67.46 599.78,-71.58 654,-87 677.38,-93.65 701.85,-106.63 719.12,-116.94"/>
<polygon fill="#9a32cd" stroke="#9a32cd" points="489.3,-63.33 479.27,-66.74 489.24,-70.33 489.3,-63.33"/>
</a>
</g>
<text text-anchor="start" x="537" y="-92.5" font-family="Helvetica,sans-Serif" font-size="10.00" fill="grey">defaultConstrFitQuality</text>
</g>
<!-- Node8 -->
<g id="Node000008" class="node">
<title>Node8</title>
<g id="a_Node000008"><a xlink:title=" ">
<polygon fill="white" stroke="#666666" points="130.5,-79.5 21.5,-79.5 21.5,-60.5 130.5,-60.5 130.5,-79.5"/>
<text text-anchor="middle" x="76" y="-67.5" font-family="Helvetica,sans-Serif" font-size="10.00">std::pair&lt; T1, T2 &gt;</text>
</a>
</g>
</g>
<!-- Node8&#45;&gt;Node7 -->
<g id="edge8_Node000007_Node000008" class="edge">
<title>Node8&#45;&gt;Node7</title>
<g id="a_edge8_Node000007_Node000008"><a xlink:title=" ">
<path fill="none" stroke="orange" stroke-dasharray="5,2" d="M140.82,-69.63C208.06,-69.25 312.65,-68.65 374.73,-68.29"/>
<polygon fill="orange" stroke="orange" points="140.75,-66.13 130.77,-69.69 140.79,-73.13 140.75,-66.13"/>
</a>
</g>
<text text-anchor="start" x="198" y="-74.5" font-family="Helvetica,sans-Serif" font-size="10.00" fill="grey">&lt; double, double &gt;</text>
</g>
<!-- Node9 -->
<g id="Node000009" class="node">
<title>Node9</title>
<g id="a_Node000009"><a xlink:href="class_acts_1_1_delegate.html" target="_top" xlink:title=" ">
<polygon fill="white" stroke="#666666" points="516,-33 338,-33 338,-3 516,-3 516,-33"/>
<text text-anchor="start" x="346" y="-21" font-family="Helvetica,sans-Serif" font-size="10.00">Acts::Delegate&lt; BoundTrack</text>
<text text-anchor="middle" x="427" y="-10" font-family="Helvetica,sans-Serif" font-size="10.00">Parameters(const InputTrack &amp;)&gt;</text>
</a>
</g>
</g>
<!-- Node9&#45;&gt;Node1 -->
<g id="edge9_Node000001_Node000009" class="edge">
<title>Node9&#45;&gt;Node1</title>
<g id="a_edge9_Node000001_Node000009"><a xlink:title=" ">
<path fill="none" stroke="#9a32cd" stroke-dasharray="5,2" d="M526.19,-17.19C567.36,-20.19 614.69,-28.18 654,-47 687.63,-63.1 716.64,-96.91 731.63,-116.69"/>
<polygon fill="#9a32cd" stroke="#9a32cd" points="526.35,-13.7 516.14,-16.55 525.9,-20.68 526.35,-13.7"/>
</a>
</g>
<text text-anchor="start" x="549" y="-52.5" font-family="Helvetica,sans-Serif" font-size="10.00" fill="grey">extractParameters</text>
</g>
<!-- Node10 -->
<g id="Node000010" class="node">
<title>Node10</title>
<g id="a_Node000010"><a xlink:href="class_acts_1_1_delegate.html" target="_top" xlink:title=" ">
<polygon fill="white" stroke="#666666" points="152,-30 0,-30 0,0 152,0 152,-30"/>
<text text-anchor="start" x="8" y="-18" font-family="Helvetica,sans-Serif" font-size="10.00">Acts::Delegate&lt; typename,</text>
<text text-anchor="middle" x="76" y="-7" font-family="Helvetica,sans-Serif" font-size="10.00"> H, DelegateType &gt;</text>
</a>
</g>
</g>
<!-- Node10&#45;&gt;Node9 -->
<g id="edge10_Node000009_Node000010" class="edge">
<title>Node10&#45;&gt;Node9</title>
<g id="a_edge10_Node000009_Node000010"><a xlink:title=" ">
<path fill="none" stroke="orange" stroke-dasharray="5,2" d="M162.4,-15.73C215.68,-16.19 284.11,-16.78 337.89,-17.24"/>
<polygon fill="orange" stroke="orange" points="162.33,-12.23 152.3,-15.65 162.27,-19.23 162.33,-12.23"/>
</a>
</g>
<text text-anchor="start" x="183" y="-39" font-family="Helvetica,sans-Serif" font-size="10.00" fill="grey">&lt; BoundTrackParameters</text>
<text text-anchor="start" x="183" y="-24" font-family="Helvetica,sans-Serif" font-size="10.00" fill="grey">  (const InputTrack &amp;)&gt;</text>
</g>
</g>
</svg>
