<?xml version="1.0" encoding="UTF-8" standalone="no"?>
<!DOCTYPE svg PUBLIC "-//W3C//DTD SVG 1.1//EN"
 "http://www.w3.org/Graphics/SVG/1.1/DTD/svg11.dtd">
<!-- Generated by graphviz version 2.43.0 (0)
 -->
<!-- Title: Acts::Portal::Arguments::Link Pages: 1 -->
<svg width="290pt" height="321pt"
 viewBox="0.00 0.00 290.00 321.00" xmlns="http://www.w3.org/2000/svg" xmlns:xlink="http://www.w3.org/1999/xlink">
<g id="graph0" class="graph" transform="scale(1 1) rotate(0) translate(4 317)">
<title>Acts::Portal::Arguments::Link</title>
<!-- Node1 -->
<g id="Node000001" class="node">
<title>Node1</title>
<g id="a_Node000001"><a xlink:title="Aggregate over a surface and a volume with optional semantics.">
<polygon fill="#999999" stroke="#666666" points="196.5,-30 65.5,-30 65.5,0 196.5,0 196.5,-30"/>
<text text-anchor="start" x="73.5" y="-18" font-family="Helvetica,sans-Serif" font-size="10.00">Acts::Portal::Arguments</text>
<text text-anchor="middle" x="131" y="-7" font-family="Helvetica,sans-Serif" font-size="10.00">::Link</text>
</a>
</g>
</g>
<!-- Node2 -->
<g id="Node000002" class="node">
<title>Node2</title>
<g id="a_Node000002"><a xlink:title=" ">
<polygon fill="white" stroke="#666666" points="122,-113 0,-113 0,-83 122,-83 122,-113"/>
<text text-anchor="start" x="8" y="-101" font-family="Helvetica,sans-Serif" font-size="10.00">std::shared_ptr&lt; Acts</text>
<text text-anchor="middle" x="61" y="-90" font-family="Helvetica,sans-Serif" font-size="10.00">::RegularSurface &gt;</text>
</a>
</g>
</g>
<!-- Node2&#45;&gt;Node1 -->
<g id="edge1_Node000001_Node000002" class="edge">
<title>Node2&#45;&gt;Node1</title>
<g id="a_edge1_Node000001_Node000002"><a xlink:title=" ">
<path fill="none" stroke="#9a32cd" stroke-dasharray="5,2" d="M79.99,-75.02C92.31,-60.76 108.01,-42.61 118.71,-30.22"/>
<polygon fill="#9a32cd" stroke="#9a32cd" points="77.08,-73.04 73.19,-82.89 82.38,-77.61 77.08,-73.04"/>
</a>
</g>
<text text-anchor="start" x="106.5" y="-53.5" font-family="Helvetica,sans-Serif" font-size="10.00" fill="grey">surface</text>
</g>
<!-- Node3 -->
<g id="Node000003" class="node">
<title>Node3</title>
<g id="a_Node000003"><a xlink:title=" ">
<polygon fill="white" stroke="#666666" points="118,-185 0,-185 0,-166 118,-166 118,-185"/>
<text text-anchor="middle" x="59" y="-173" font-family="Helvetica,sans-Serif" font-size="10.00">std::shared_ptr&lt; T &gt;</text>
</a>
</g>
</g>
<!-- Node3&#45;&gt;Node2 -->
<g id="edge2_Node000002_Node000003" class="edge">
<title>Node3&#45;&gt;Node2</title>
<g id="a_edge2_Node000002_Node000003"><a xlink:title=" ">
<path fill="none" stroke="orange" stroke-dasharray="5,2" d="M59.4,-155.76C59.57,-148.09 59.78,-139.12 60,-131 60.16,-125.11 60.36,-118.61 60.54,-113.02"/>
<polygon fill="orange" stroke="orange" points="55.9,-155.76 59.18,-165.83 62.89,-155.91 55.9,-155.76"/>
</a>
</g>
<text text-anchor="start" x="63" y="-136.5" font-family="Helvetica,sans-Serif" font-size="10.00" fill="grey">&lt; Acts::RegularSurface &gt;</text>
</g>
<!-- Node4 -->
<g id="Node000004" class="node">
<title>Node4</title>
<g id="a_Node000004"><a xlink:href="class_acts_1_1_tracking_volume.html" target="_top" xlink:title="Full Volume description used in Tracking, it inherits from Volume to get the geometrical structure.">
<polygon fill="white" stroke="#666666" points="262.5,-107.5 141.5,-107.5 141.5,-88.5 262.5,-88.5 262.5,-107.5"/>
<text text-anchor="middle" x="202" y="-95.5" font-family="Helvetica,sans-Serif" font-size="10.00">Acts::TrackingVolume</text>
</a>
</g>
</g>
<!-- Node4&#45;&gt;Node1 -->
<g id="edge3_Node000001_Node000004" class="edge">
<title>Node4&#45;&gt;Node1</title>
<g id="a_edge3_Node000001_Node000004"><a xlink:title=" ">
<path fill="none" stroke="#9a32cd" stroke-dasharray="5,2" d="M187.51,-80.47C174.49,-65.61 155.58,-44.04 143.28,-30.01"/>
<polygon fill="#9a32cd" stroke="#9a32cd" points="185.18,-83.12 194.4,-88.33 190.44,-78.5 185.18,-83.12"/>
</a>
</g>
<text text-anchor="start" x="176.5" y="-53.5" font-family="Helvetica,sans-Serif" font-size="10.00" fill="grey">volume</text>
</g>
<!-- Node5 -->
<g id="Node000005" class="node">
<title>Node5</title>
<g id="a_Node000005"><a xlink:href="class_acts_1_1_volume.html" target="_top" xlink:title="It inherits from GeometryObject for geometry identification.">
<polygon fill="white" stroke="#666666" points="244,-185 164,-185 164,-166 244,-166 244,-185"/>
<text text-anchor="middle" x="204" y="-173" font-family="Helvetica,sans-Serif" font-size="10.00">Acts::Volume</text>
</a>
</g>
</g>
<!-- Node5&#45;&gt;Node4 -->
<g id="edge4_Node000004_Node000005" class="edge">
<title>Node5&#45;&gt;Node4</title>
<g id="a_edge4_Node000004_Node000005"><a xlink:title=" ">
<path fill="none" stroke="#63b8ff" d="M203.49,-155.4C203.09,-140.01 202.53,-119.11 202.23,-107.56"/>
<polygon fill="#63b8ff" stroke="#63b8ff" points="200.01,-155.94 203.77,-165.84 207,-155.75 200.01,-155.94"/>
</a>
</g>
</g>
<!-- Node6 -->
<g id="Node000006" class="node">
<title>Node6</title>
<g id="a_Node000006"><a xlink:href="class_acts_1_1_geometry_object.html" target="_top" xlink:title="Base class to provide GeometryIdentifier interface:">
<polygon fill="white" stroke="#666666" points="266,-241 142,-241 142,-222 266,-222 266,-241"/>
<text text-anchor="middle" x="204" y="-229" font-family="Helvetica,sans-Serif" font-size="10.00">Acts::GeometryObject</text>
</a>
</g>
</g>
<!-- Node6&#45;&gt;Node5 -->
<g id="edge5_Node000005_Node000006" class="edge">
<title>Node6&#45;&gt;Node5</title>
<g id="a_edge5_Node000005_Node000006"><a xlink:title=" ">
<path fill="none" stroke="#63b8ff" d="M204,-211.3C204,-202.41 204,-192.28 204,-185.25"/>
<polygon fill="#63b8ff" stroke="#63b8ff" points="200.5,-211.58 204,-221.58 207.5,-211.58 200.5,-211.58"/>
</a>
</g>
</g>
<!-- Node7 -->
<g id="Node000007" class="node">
<title>Node7</title>
<g id="a_Node000007"><a xlink:href="class_acts_1_1_geometry_identifier.html" target="_top" xlink:title="Identifier for geometry nodes within the geometry hierarchy.">
<polygon fill="white" stroke="#666666" points="272,-313 136,-313 136,-294 272,-294 272,-313"/>
<text text-anchor="middle" x="204" y="-301" font-family="Helvetica,sans-Serif" font-size="10.00">Acts::GeometryIdentifier</text>
</a>
</g>
</g>
<!-- Node7&#45;&gt;Node6 -->
<g id="edge6_Node000006_Node000007" class="edge">
<title>Node7&#45;&gt;Node6</title>
<g id="a_edge6_Node000006_Node000007"><a xlink:title=" ">
<path fill="none" stroke="#9a32cd" stroke-dasharray="5,2" d="M204,-283.58C204,-269.76 204,-251.68 204,-241.15"/>
<polygon fill="#9a32cd" stroke="#9a32cd" points="200.5,-283.92 204,-293.92 207.5,-283.92 200.5,-283.92"/>
</a>
</g>
<text text-anchor="start" x="207" y="-264.5" font-family="Helvetica,sans-Serif" font-size="10.00" fill="grey">m_geometryId</text>
</g>
</g>
</svg>
