<?xml version="1.0" encoding="UTF-8" standalone="no"?>
<!DOCTYPE svg PUBLIC "-//W3C//DTD SVG 1.1//EN"
 "http://www.w3.org/Graphics/SVG/1.1/DTD/svg11.dtd">
<!-- Generated by graphviz version 2.43.0 (0)
 -->
<!-- Title: Acts::Experimental::CompositeSpacePointLineSeeder::SegmentSeed&lt; contType_t &gt; Pages: 1 -->
<svg width="214pt" height="230pt"
 viewBox="0.00 0.00 213.50 230.00" xmlns="http://www.w3.org/2000/svg" xmlns:xlink="http://www.w3.org/1999/xlink">

<svg id="main" version="1.1" xmlns="http://www.w3.org/2000/svg" xmlns:xlink="http://www.w3.org/1999/xlink" xml:space="preserve">

<style type="text/css"><![CDATA[
.node, .edge {opacity: 0.7;}
.node.selected, .edge.selected {opacity: 1;}
.edge:hover path { stroke: red; }
.edge:hover polygon { stroke: red; fill: red; }
]]></style>
<script type="application/ecmascript" xlink:href="svg.min.js"/>
<svg id="graph" class="graph">
<g id="graph0" class="graph" transform="scale(1 1) rotate(0) translate(4 226)">
<title>Acts::Experimental::CompositeSpacePointLineSeeder::SegmentSeed&lt; contType_t &gt;</title>
<!-- Node1 -->
<g id="Node000001" class="node">
<title>Node1</title>
<g id="a_Node000001"><a xlink:title="Helper struct to pack the parameters and the associated measurements into a common object.">
<polygon fill="#999999" stroke="#666666" points="205.5,-41 22.5,-41 22.5,0 205.5,0 205.5,-41"/>
<text text-anchor="start" x="30.5" y="-29" font-family="Helvetica,sans-Serif" font-size="10.00">Acts::Experimental</text>
<text text-anchor="start" x="30.5" y="-18" font-family="Helvetica,sans-Serif" font-size="10.00">::CompositeSpacePointLineSeeder</text>
<text text-anchor="middle" x="114" y="-7" font-family="Helvetica,sans-Serif" font-size="10.00">::SegmentSeed&lt; contType_t &gt;</text>
</a>
</g>
</g>
<!-- Node2 -->
<g id="Node000002" class="node">
<title>Node2</title>
<g id="a_Node000002"><a xlink:title=" ">
<polygon fill="white" stroke="#666666" points="116,-135 0,-135 0,-94 116,-94 116,-135"/>
<text text-anchor="start" x="8" y="-123" font-family="Helvetica,sans-Serif" font-size="10.00">std::array&lt; double,</text>
<text text-anchor="start" x="8" y="-112" font-family="Helvetica,sans-Serif" font-size="10.00"> toUnderlying(ParIdx</text>
<text text-anchor="middle" x="58" y="-101" font-family="Helvetica,sans-Serif" font-size="10.00">::nPars)&gt;</text>
</a>
</g>
</g>
<!-- Node2&#45;&gt;Node1 -->
<g id="edge1_Node000001_Node000002" class="edge">
<title>Node2&#45;&gt;Node1</title>
<g id="a_edge1_Node000001_Node000002"><a xlink:title=" ">
<path fill="none" stroke="#9a32cd" stroke-dasharray="5,2" d="M61.58,-84C63.5,-75.51 66.46,-66.52 71,-59 75,-52.39 80.55,-46.32 86.34,-41.09"/>
<polygon fill="#9a32cd" stroke="#9a32cd" points="58.11,-83.51 59.71,-93.98 64.99,-84.8 58.11,-83.51"/>
</a>
</g>
<text text-anchor="start" x="74.5" y="-64.5" font-family="Helvetica,sans-Serif" font-size="10.00" fill="grey">parameters</text>
</g>
<!-- Node3 -->
<g id="Node000003" class="node">
<title>Node3</title>
<g id="a_Node000003"><a xlink:title=" ">
<polygon fill="white" stroke="#666666" points="104,-222 12,-222 12,-203 104,-203 104,-222"/>
<text text-anchor="middle" x="58" y="-210" font-family="Helvetica,sans-Serif" font-size="10.00">std::array&lt; T &gt;</text>
</a>
</g>
</g>
<!-- Node3&#45;&gt;Node2 -->
<g id="edge2_Node000002_Node000003" class="edge">
<title>Node3&#45;&gt;Node2</title>
<g id="a_edge2_Node000002_Node000003"><a xlink:title=" ">
<path fill="none" stroke="orange" stroke-dasharray="5,2" d="M58,-192.87C58,-176.24 58,-151.97 58,-135.06"/>
<polygon fill="orange" stroke="orange" points="54.5,-192.98 58,-202.98 61.5,-192.98 54.5,-192.98"/>
</a>
</g>
<text text-anchor="start" x="61" y="-174" font-family="Helvetica,sans-Serif" font-size="10.00" fill="grey">&lt; double, toUnderlying</text>
<text text-anchor="start" x="61" y="-159" font-family="Helvetica,sans-Serif" font-size="10.00" fill="grey">  (ParIdx::nPars)&gt;</text>
</g>
<!-- Node4 -->
<g id="Node000004" class="node">
<title>Node4</title>
<g id="a_Node000004"><a xlink:title=" ">
<polygon fill="white" stroke="#666666" points="203.5,-124 134.5,-124 134.5,-105 203.5,-105 203.5,-124"/>
<text text-anchor="middle" x="169" y="-112" font-family="Helvetica,sans-Serif" font-size="10.00">contType_t</text>
</a>
</g>
</g>
<!-- Node4&#45;&gt;Node1 -->
<g id="edge3_Node000001_Node000004" class="edge">
<title>Node4&#45;&gt;Node1</title>
<g id="a_edge3_Node000001_Node000004"><a xlink:title=" ">
<path fill="none" stroke="#9a32cd" stroke-dasharray="5,2" d="M159.41,-96.11C153.4,-85.34 145.41,-71.27 138,-59 134.48,-53.18 130.55,-46.93 126.9,-41.23"/>
<polygon fill="#9a32cd" stroke="#9a32cd" points="156.39,-97.88 164.3,-104.92 162.51,-94.48 156.39,-97.88"/>
</a>
</g>
<text text-anchor="start" x="150.5" y="-64.5" font-family="Helvetica,sans-Serif" font-size="10.00" fill="grey">hits</text>
</g>
</g>
</svg>
</svg>

<style type='text/css'>
<![CDATA[
[data-mouse-over-selected='false'] { opacity: 0.7; }
[data-mouse-over-selected='true']  { opacity: 1.0; }
]]>
</style>
<script type="application/ecmascript"><![CDATA[
document.addEventListener('DOMContentLoaded', (event) => {
  highlightEdges();
  highlightAdjacentNodes();
});
]]></script>
</svg>
