<?xml version="1.0" encoding="UTF-8" standalone="no"?>
<!DOCTYPE svg PUBLIC "-//W3C//DTD SVG 1.1//EN"
 "http://www.w3.org/Graphics/SVG/1.1/DTD/svg11.dtd">
<!-- Generated by graphviz version 2.43.0 (0)
 -->
<!-- Title: Acts::ScoreBasedAmbiguityResolution::DetectorConfig Pages: 1 -->
<svg width="324pt" height="227pt"
 viewBox="0.00 0.00 324.00 227.00" xmlns="http://www.w3.org/2000/svg" xmlns:xlink="http://www.w3.org/1999/xlink">
<g id="graph0" class="graph" transform="scale(1 1) rotate(0) translate(4 223)">
<title>Acts::ScoreBasedAmbiguityResolution::DetectorConfig</title>
<!-- Node1 -->
<g id="Node000001" class="node">
<title>Node1</title>
<g id="a_Node000001"><a xlink:title="Detector configuration struct : contains the configuration for each detector.">
<polygon fill="#999999" stroke="#666666" points="212.5,-30 61.5,-30 61.5,0 212.5,0 212.5,-30"/>
<text text-anchor="start" x="69.5" y="-18" font-family="Helvetica,sans-Serif" font-size="10.00">Acts::ScoreBasedAmbiguity</text>
<text text-anchor="middle" x="137" y="-7" font-family="Helvetica,sans-Serif" font-size="10.00">Resolution::DetectorConfig</text>
</a>
</g>
</g>
<!-- Node2 -->
<g id="Node000002" class="node">
<title>Node2</title>
<g id="a_Node000002"><a xlink:title=" ">
<polygon fill="white" stroke="#666666" points="124,-147 0,-147 0,-128 124,-128 124,-147"/>
<text text-anchor="middle" x="62" y="-135" font-family="Helvetica,sans-Serif" font-size="10.00">std::vector&lt; double &gt;</text>
</a>
</g>
</g>
<!-- Node2&#45;&gt;Node1 -->
<g id="edge1_Node000001_Node000002" class="edge">
<title>Node2&#45;&gt;Node1</title>
<g id="a_edge1_Node000001_Node000002"><a xlink:title=" ">
<path fill="none" stroke="#9a32cd" stroke-dasharray="5,2" d="M70.65,-118.75C79.83,-100.48 95.15,-71.47 111,-48 115.09,-41.95 120.04,-35.64 124.53,-30.24"/>
<polygon fill="#9a32cd" stroke="#9a32cd" points="67.42,-117.4 66.12,-127.91 73.69,-120.5 67.42,-117.4"/>
</a>
</g>
<text text-anchor="start" x="114.5" y="-91" font-family="Helvetica,sans-Serif" font-size="10.00" fill="grey">etaBins</text>
<text text-anchor="start" x="114.5" y="-76" font-family="Helvetica,sans-Serif" font-size="10.00" fill="grey">factorHits</text>
<text text-anchor="start" x="114.5" y="-61" font-family="Helvetica,sans-Serif" font-size="10.00" fill="grey">factorHoles</text>
</g>
<!-- Node3 -->
<g id="Node000003" class="node">
<title>Node3</title>
<g id="a_Node000003"><a xlink:title=" ">
<polygon fill="white" stroke="#666666" points="184.5,-219 87.5,-219 87.5,-200 184.5,-200 184.5,-219"/>
<text text-anchor="middle" x="136" y="-207" font-family="Helvetica,sans-Serif" font-size="10.00">std::vector&lt; T &gt;</text>
</a>
</g>
</g>
<!-- Node3&#45;&gt;Node2 -->
<g id="edge2_Node000002_Node000003" class="edge">
<title>Node3&#45;&gt;Node2</title>
<g id="a_edge2_Node000002_Node000003"><a xlink:title=" ">
<path fill="none" stroke="orange" stroke-dasharray="5,2" d="M119.41,-192.8C104.5,-178.71 83.17,-158.53 71.15,-147.15"/>
<polygon fill="orange" stroke="orange" points="117.26,-195.59 126.93,-199.92 122.07,-190.5 117.26,-195.59"/>
</a>
</g>
<text text-anchor="start" x="111" y="-170.5" font-family="Helvetica,sans-Serif" font-size="10.00" fill="grey">&lt; double &gt;</text>
</g>
<!-- Node4 -->
<g id="Node000004" class="node">
<title>Node4</title>
<g id="a_Node000004"><a xlink:title=" ">
<polygon fill="white" stroke="#666666" points="282,-147 142,-147 142,-128 282,-128 282,-147"/>
<text text-anchor="middle" x="212" y="-135" font-family="Helvetica,sans-Serif" font-size="10.00">std::vector&lt; std::size_t &gt;</text>
</a>
</g>
</g>
<!-- Node3&#45;&gt;Node4 -->
<g id="edge4_Node000004_Node000003" class="edge">
<title>Node3&#45;&gt;Node4</title>
<g id="a_edge4_Node000004_Node000003"><a xlink:title=" ">
<path fill="none" stroke="orange" stroke-dasharray="5,2" d="M157.85,-194.05C162.99,-190.33 168.33,-186.19 173,-182 185.39,-170.9 197.91,-156.17 205.31,-147.01"/>
<polygon fill="orange" stroke="orange" points="155.75,-191.25 149.55,-199.84 159.75,-196.99 155.75,-191.25"/>
</a>
</g>
<text text-anchor="start" x="191.5" y="-170.5" font-family="Helvetica,sans-Serif" font-size="10.00" fill="grey">&lt; std::size_t &gt;</text>
</g>
<!-- Node4&#45;&gt;Node1 -->
<g id="edge3_Node000001_Node000004" class="edge">
<title>Node4&#45;&gt;Node1</title>
<g id="a_edge3_Node000001_Node000004"><a xlink:title=" ">
<path fill="none" stroke="#9a32cd" stroke-dasharray="5,2" d="M206.79,-118.08C200.87,-99.25 189.93,-69.77 174,-48 169.19,-41.42 162.78,-35.28 156.65,-30.16"/>
<polygon fill="#9a32cd" stroke="#9a32cd" points="203.47,-119.21 209.69,-127.79 210.18,-117.21 203.47,-119.21"/>
</a>
</g>
<text text-anchor="start" x="206.5" y="-99" font-family="Helvetica,sans-Serif" font-size="10.00" fill="grey">maxHolesPerEta</text>
<text text-anchor="start" x="206.5" y="-84" font-family="Helvetica,sans-Serif" font-size="10.00" fill="grey">maxOutliersPerEta</text>
<text text-anchor="start" x="206.5" y="-69" font-family="Helvetica,sans-Serif" font-size="10.00" fill="grey">maxSharedHitsPerEta</text>
<text text-anchor="start" x="206.5" y="-54" font-family="Helvetica,sans-Serif" font-size="10.00" fill="grey">minHitsPerEta</text>
</g>
</g>
</svg>
