<?xml version="1.0" encoding="UTF-8" standalone="no"?>
<!DOCTYPE svg PUBLIC "-//W3C//DTD SVG 1.1//EN"
 "http://www.w3.org/Graphics/SVG/1.1/DTD/svg11.dtd">
<!-- Generated by graphviz version 2.43.0 (0)
 -->
<!-- Title: Acts::CuboidVolumeBuilder::LayerConfig Pages: 1 -->
<svg width="697pt" height="166pt"
 viewBox="0.00 0.00 697.00 166.00" xmlns="http://www.w3.org/2000/svg" xmlns:xlink="http://www.w3.org/1999/xlink">
<g id="graph0" class="graph" transform="scale(1 1) rotate(0) translate(4 162)">
<title>Acts::CuboidVolumeBuilder::LayerConfig</title>
<!-- Node1 -->
<g id="Node000001" class="node">
<title>Node1</title>
<g id="a_Node000001"><a xlink:title="This struct stores the data for the construction of a PlaneLayer.">
<polygon fill="#999999" stroke="#666666" points="689,-100 540,-100 540,-70 689,-70 689,-100"/>
<text text-anchor="start" x="548" y="-88" font-family="Helvetica,sans-Serif" font-size="10.00">Acts::CuboidVolumeBuilder</text>
<text text-anchor="middle" x="614.5" y="-77" font-family="Helvetica,sans-Serif" font-size="10.00">::LayerConfig</text>
</a>
</g>
</g>
<!-- Node2 -->
<g id="Node000002" class="node">
<title>Node2</title>
<g id="a_Node000002"><a xlink:title=" ">
<polygon fill="white" stroke="#666666" points="425,-155.5 303,-155.5 303,-114.5 425,-114.5 425,-155.5"/>
<text text-anchor="start" x="311" y="-143.5" font-family="Helvetica,sans-Serif" font-size="10.00">std::vector&lt; Acts::</text>
<text text-anchor="start" x="311" y="-132.5" font-family="Helvetica,sans-Serif" font-size="10.00">CuboidVolumeBuilder</text>
<text text-anchor="middle" x="364" y="-121.5" font-family="Helvetica,sans-Serif" font-size="10.00">::SurfaceConfig &gt;</text>
</a>
</g>
</g>
<!-- Node2&#45;&gt;Node1 -->
<g id="edge1_Node000001_Node000002" class="edge">
<title>Node2&#45;&gt;Node1</title>
<g id="a_edge1_Node000001_Node000002"><a xlink:title=" ">
<path fill="none" stroke="#9a32cd" stroke-dasharray="5,2" d="M434.86,-121.36C462.07,-116 493.5,-109.77 522,-104 528.36,-102.71 534.97,-101.36 541.59,-100"/>
<polygon fill="#9a32cd" stroke="#9a32cd" points="434.18,-117.92 425.04,-123.29 435.53,-124.79 434.18,-117.92"/>
</a>
</g>
<text text-anchor="start" x="466.5" y="-120.5" font-family="Helvetica,sans-Serif" font-size="10.00" fill="grey">surfaceCfg</text>
</g>
<!-- Node3 -->
<g id="Node000003" class="node">
<title>Node3</title>
<g id="a_Node000003"><a xlink:title=" ">
<polygon fill="white" stroke="#666666" points="97,-116.5 0,-116.5 0,-97.5 97,-97.5 97,-116.5"/>
<text text-anchor="middle" x="48.5" y="-104.5" font-family="Helvetica,sans-Serif" font-size="10.00">std::vector&lt; T &gt;</text>
</a>
</g>
</g>
<!-- Node3&#45;&gt;Node2 -->
<g id="edge2_Node000002_Node000003" class="edge">
<title>Node3&#45;&gt;Node2</title>
<g id="a_edge2_Node000002_Node000003"><a xlink:title=" ">
<path fill="none" stroke="orange" stroke-dasharray="5,2" d="M107.25,-112.3C109.87,-112.54 112.46,-112.77 115,-113 179.14,-118.78 252.63,-125.29 302.86,-129.71"/>
<polygon fill="orange" stroke="orange" points="107.35,-108.79 97.08,-111.37 106.72,-115.77 107.35,-108.79"/>
</a>
</g>
<text text-anchor="start" x="118" y="-147" font-family="Helvetica,sans-Serif" font-size="10.00" fill="grey">&lt; Acts::CuboidVolumeBuilder</text>
<text text-anchor="start" x="118" y="-132" font-family="Helvetica,sans-Serif" font-size="10.00" fill="grey">  ::SurfaceConfig &gt;</text>
</g>
<!-- Node4 -->
<g id="Node000004" class="node">
<title>Node4</title>
<g id="a_Node000004"><a xlink:title=" ">
<polygon fill="white" stroke="#666666" points="445,-96 283,-96 283,-66 445,-66 445,-96"/>
<text text-anchor="start" x="291" y="-84" font-family="Helvetica,sans-Serif" font-size="10.00">std::vector&lt; std::shared</text>
<text text-anchor="middle" x="364" y="-73" font-family="Helvetica,sans-Serif" font-size="10.00">_ptr&lt; const Acts::Surface &gt; &gt;</text>
</a>
</g>
</g>
<!-- Node3&#45;&gt;Node4 -->
<g id="edge4_Node000004_Node000003" class="edge">
<title>Node3&#45;&gt;Node4</title>
<g id="a_edge4_Node000004_Node000003"><a xlink:title=" ">
<path fill="none" stroke="orange" stroke-dasharray="5,2" d="M77.5,-93.18C88.85,-88.31 102.27,-83.43 115,-81 170.4,-70.41 234.04,-70.66 282.98,-73.42"/>
<polygon fill="orange" stroke="orange" points="75.81,-90.11 68.13,-97.41 78.68,-96.49 75.81,-90.11"/>
</a>
</g>
<text text-anchor="start" x="128" y="-102" font-family="Helvetica,sans-Serif" font-size="10.00" fill="grey">&lt; std::shared_ptr&lt;</text>
<text text-anchor="start" x="128" y="-87" font-family="Helvetica,sans-Serif" font-size="10.00" fill="grey">   const Acts::Surface &gt; &gt;</text>
</g>
<!-- Node4&#45;&gt;Node1 -->
<g id="edge3_Node000001_Node000004" class="edge">
<title>Node4&#45;&gt;Node1</title>
<g id="a_edge3_Node000001_Node000004"><a xlink:title=" ">
<path fill="none" stroke="#9a32cd" stroke-dasharray="5,2" d="M455.43,-82.46C483.14,-82.9 513.29,-83.39 539.75,-83.81"/>
<polygon fill="#9a32cd" stroke="#9a32cd" points="455.39,-78.95 445.34,-82.29 455.28,-85.95 455.39,-78.95"/>
</a>
</g>
<text text-anchor="start" x="471.5" y="-88.5" font-family="Helvetica,sans-Serif" font-size="10.00" fill="grey">surfaces</text>
</g>
<!-- Node5 -->
<g id="Node000005" class="node">
<title>Node5</title>
<g id="a_Node000005"><a xlink:title=" ">
<polygon fill="white" stroke="#666666" points="419,-30 309,-30 309,0 419,0 419,-30"/>
<text text-anchor="start" x="317" y="-18" font-family="Helvetica,sans-Serif" font-size="10.00">std::array&lt; double,</text>
<text text-anchor="middle" x="364" y="-7" font-family="Helvetica,sans-Serif" font-size="10.00"> 2u &gt;</text>
</a>
</g>
</g>
<!-- Node5&#45;&gt;Node1 -->
<g id="edge5_Node000001_Node000005" class="edge">
<title>Node5&#45;&gt;Node1</title>
<g id="a_edge5_Node000001_Node000005"><a xlink:title=" ">
<path fill="none" stroke="#9a32cd" stroke-dasharray="5,2" d="M429.24,-15.33C458.18,-17.04 492.43,-21.29 522,-31 548.64,-39.75 575.9,-57.15 593.65,-69.84"/>
<polygon fill="#9a32cd" stroke="#9a32cd" points="429.4,-11.83 419.24,-14.82 429.05,-18.82 429.4,-11.83"/>
</a>
</g>
<text text-anchor="start" x="466.5" y="-66.5" font-family="Helvetica,sans-Serif" font-size="10.00" fill="grey">envelopeX</text>
<text text-anchor="start" x="466.5" y="-51.5" font-family="Helvetica,sans-Serif" font-size="10.00" fill="grey">envelopeY</text>
<text text-anchor="start" x="466.5" y="-36.5" font-family="Helvetica,sans-Serif" font-size="10.00" fill="grey">envelopeZ</text>
</g>
<!-- Node6 -->
<g id="Node000006" class="node">
<title>Node6</title>
<g id="a_Node000006"><a xlink:title=" ">
<polygon fill="white" stroke="#666666" points="94.5,-24.5 2.5,-24.5 2.5,-5.5 94.5,-5.5 94.5,-24.5"/>
<text text-anchor="middle" x="48.5" y="-12.5" font-family="Helvetica,sans-Serif" font-size="10.00">std::array&lt; T &gt;</text>
</a>
</g>
</g>
<!-- Node6&#45;&gt;Node5 -->
<g id="edge6_Node000005_Node000006" class="edge">
<title>Node6&#45;&gt;Node5</title>
<g id="a_edge6_Node000005_Node000006"><a xlink:title=" ">
<path fill="none" stroke="orange" stroke-dasharray="5,2" d="M105.11,-15C162.62,-15 251.83,-15 308.81,-15"/>
<polygon fill="orange" stroke="orange" points="104.75,-11.5 94.75,-15 104.75,-18.5 104.75,-11.5"/>
</a>
</g>
<text text-anchor="start" x="153" y="-20.5" font-family="Helvetica,sans-Serif" font-size="10.00" fill="grey">&lt; double, 2u &gt;</text>
</g>
</g>
</svg>
