<?xml version="1.0" encoding="UTF-8" standalone="no"?>
<!DOCTYPE svg PUBLIC "-//W3C//DTD SVG 1.1//EN"
 "http://www.w3.org/Graphics/SVG/1.1/DTD/svg11.dtd">
<!-- Generated by graphviz version 2.43.0 (0)
 -->
<!-- Title: Acts::ZScanVertexFinder::Config Pages: 1 -->
<svg width="772pt" height="116pt"
 viewBox="0.00 0.00 772.00 115.50" xmlns="http://www.w3.org/2000/svg" xmlns:xlink="http://www.w3.org/1999/xlink">
<g id="graph0" class="graph" transform="scale(1 1) rotate(0) translate(4 111.5)">
<title>Acts::ZScanVertexFinder::Config</title>
<!-- Node1 -->
<g id="Node000001" class="node">
<title>Node1</title>
<g id="a_Node000001"><a xlink:title="Configuration struct.">
<polygon fill="#999999" stroke="#666666" points="764,-73 629,-73 629,-43 764,-43 764,-73"/>
<text text-anchor="start" x="637" y="-61" font-family="Helvetica,sans-Serif" font-size="10.00">Acts::ZScanVertexFinder</text>
<text text-anchor="middle" x="696.5" y="-50" font-family="Helvetica,sans-Serif" font-size="10.00">::Config</text>
</a>
</g>
</g>
<!-- Node2 -->
<g id="Node000002" class="node">
<title>Node2</title>
<g id="a_Node000002"><a xlink:href="class_acts_1_1_impact_point_estimator.html" target="_top" xlink:title="Estimator for impact point calculations A description of the underlying mathematics can be found here...">
<polygon fill="white" stroke="#666666" points="481.5,-107.5 332.5,-107.5 332.5,-88.5 481.5,-88.5 481.5,-107.5"/>
<text text-anchor="middle" x="407" y="-95.5" font-family="Helvetica,sans-Serif" font-size="10.00">Acts::ImpactPointEstimator</text>
</a>
</g>
</g>
<!-- Node2&#45;&gt;Node1 -->
<g id="edge1_Node000001_Node000002" class="edge">
<title>Node2&#45;&gt;Node1</title>
<g id="a_edge1_Node000001_Node000002"><a xlink:title=" ">
<path fill="none" stroke="#9a32cd" stroke-dasharray="5,2" d="M491.7,-90.86C528.42,-87.24 571.97,-82.26 611,-76 616.78,-75.07 622.75,-74.01 628.74,-72.88"/>
<polygon fill="#9a32cd" stroke="#9a32cd" points="491.15,-87.4 481.53,-91.85 491.82,-94.37 491.15,-87.4"/>
</a>
</g>
<text text-anchor="start" x="534.5" y="-93.5" font-family="Helvetica,sans-Serif" font-size="10.00" fill="grey">ipEstimator</text>
</g>
<!-- Node3 -->
<g id="Node000003" class="node">
<title>Node3</title>
<g id="a_Node000003"><a xlink:href="class_acts_1_1_fsmw_mode1d_finder.html" target="_top" xlink:title="Calculates the mode of a unidimenensional distribution using the Fraction of Sample Mode with Weights...">
<polygon fill="white" stroke="#666666" points="478,-67.5 336,-67.5 336,-48.5 478,-48.5 478,-67.5"/>
<text text-anchor="middle" x="407" y="-55.5" font-family="Helvetica,sans-Serif" font-size="10.00">Acts::FsmwMode1dFinder</text>
</a>
</g>
</g>
<!-- Node3&#45;&gt;Node1 -->
<g id="edge2_Node000001_Node000003" class="edge">
<title>Node3&#45;&gt;Node1</title>
<g id="a_edge2_Node000001_Node000003"><a xlink:title=" ">
<path fill="none" stroke="#9a32cd" stroke-dasharray="5,2" d="M488.48,-58C532.74,-58 587,-58 628.86,-58"/>
<polygon fill="#9a32cd" stroke="#9a32cd" points="488.33,-54.5 478.33,-58 488.33,-61.5 488.33,-54.5"/>
</a>
</g>
<text text-anchor="start" x="527.5" y="-63.5" font-family="Helvetica,sans-Serif" font-size="10.00" fill="grey">mode1dFinder</text>
</g>
<!-- Node4 -->
<g id="Node000004" class="node">
<title>Node4</title>
<g id="a_Node000004"><a xlink:href="class_acts_1_1_delegate.html" target="_top" xlink:title=" ">
<polygon fill="white" stroke="#666666" points="496,-30 318,-30 318,0 496,0 496,-30"/>
<text text-anchor="start" x="326" y="-18" font-family="Helvetica,sans-Serif" font-size="10.00">Acts::Delegate&lt; BoundTrack</text>
<text text-anchor="middle" x="407" y="-7" font-family="Helvetica,sans-Serif" font-size="10.00">Parameters(const InputTrack &amp;)&gt;</text>
</a>
</g>
</g>
<!-- Node4&#45;&gt;Node1 -->
<g id="edge3_Node000001_Node000004" class="edge">
<title>Node4&#45;&gt;Node1</title>
<g id="a_edge3_Node000001_Node000004"><a xlink:title=" ">
<path fill="none" stroke="#9a32cd" stroke-dasharray="5,2" d="M506.27,-22.94C539.65,-26.35 577.08,-30.97 611,-37 620.23,-38.64 629.94,-40.72 639.37,-42.92"/>
<polygon fill="#9a32cd" stroke="#9a32cd" points="506.35,-19.43 496.05,-21.92 505.65,-26.39 506.35,-19.43"/>
</a>
</g>
<text text-anchor="start" x="517.5" y="-42.5" font-family="Helvetica,sans-Serif" font-size="10.00" fill="grey">extractParameters</text>
</g>
<!-- Node5 -->
<g id="Node000005" class="node">
<title>Node5</title>
<g id="a_Node000005"><a xlink:href="class_acts_1_1_delegate.html" target="_top" xlink:title=" ">
<polygon fill="white" stroke="#666666" points="152,-30 0,-30 0,0 152,0 152,-30"/>
<text text-anchor="start" x="8" y="-18" font-family="Helvetica,sans-Serif" font-size="10.00">Acts::Delegate&lt; typename,</text>
<text text-anchor="middle" x="76" y="-7" font-family="Helvetica,sans-Serif" font-size="10.00"> H, DelegateType &gt;</text>
</a>
</g>
</g>
<!-- Node5&#45;&gt;Node4 -->
<g id="edge4_Node000004_Node000005" class="edge">
<title>Node5&#45;&gt;Node4</title>
<g id="a_edge4_Node000004_Node000005"><a xlink:title=" ">
<path fill="none" stroke="orange" stroke-dasharray="5,2" d="M162.09,-15C209.91,-15 269.53,-15 317.84,-15"/>
<polygon fill="orange" stroke="orange" points="162.07,-11.5 152.07,-15 162.07,-18.5 162.07,-11.5"/>
</a>
</g>
<text text-anchor="start" x="173" y="-36" font-family="Helvetica,sans-Serif" font-size="10.00" fill="grey">&lt; BoundTrackParameters</text>
<text text-anchor="start" x="173" y="-21" font-family="Helvetica,sans-Serif" font-size="10.00" fill="grey">  (const InputTrack &amp;)&gt;</text>
</g>
</g>
</svg>
