<?xml version="1.0" encoding="UTF-8" standalone="no"?>
<!DOCTYPE svg PUBLIC "-//W3C//DTD SVG 1.1//EN"
 "http://www.w3.org/Graphics/SVG/1.1/DTD/svg11.dtd">
<!-- Generated by graphviz version 2.43.0 (0)
 -->
<!-- Title: Acts::Ccl::ClusteringData Pages: 1 -->
<svg width="415pt" height="182pt"
 viewBox="0.00 0.00 415.00 182.00" xmlns="http://www.w3.org/2000/svg" xmlns:xlink="http://www.w3.org/1999/xlink">
<g id="graph0" class="graph" transform="scale(1 1) rotate(0) translate(4 178)">
<title>Acts::Ccl::ClusteringData</title>
<!-- Node1 -->
<g id="Node000001" class="node">
<title>Node1</title>
<g id="a_Node000001"><a xlink:title=" ">
<polygon fill="#999999" stroke="#666666" points="264,-19 127,-19 127,0 264,0 264,-19"/>
<text text-anchor="middle" x="195.5" y="-7" font-family="Helvetica,sans-Serif" font-size="10.00">Acts::Ccl::ClusteringData</text>
</a>
</g>
</g>
<!-- Node2 -->
<g id="Node000002" class="node">
<title>Node2</title>
<g id="a_Node000002"><a xlink:title=" ">
<polygon fill="white" stroke="#666666" points="107,-102 0,-102 0,-72 107,-72 107,-102"/>
<text text-anchor="start" x="8" y="-90" font-family="Helvetica,sans-Serif" font-size="10.00">std::vector&lt; Acts::</text>
<text text-anchor="middle" x="53.5" y="-79" font-family="Helvetica,sans-Serif" font-size="10.00">Ccl::Label &gt;</text>
</a>
</g>
</g>
<!-- Node2&#45;&gt;Node1 -->
<g id="edge1_Node000001_Node000002" class="edge">
<title>Node2&#45;&gt;Node1</title>
<g id="a_edge1_Node000001_Node000002"><a xlink:title=" ">
<path fill="none" stroke="#9a32cd" stroke-dasharray="5,2" d="M88.88,-67.19C117.87,-51.77 157.56,-30.67 179.42,-19.05"/>
<polygon fill="#9a32cd" stroke="#9a32cd" points="87.06,-64.19 79.88,-71.98 90.35,-70.37 87.06,-64.19"/>
</a>
</g>
<text text-anchor="start" x="149.5" y="-42.5" font-family="Helvetica,sans-Serif" font-size="10.00" fill="grey">labels</text>
</g>
<!-- Node3 -->
<g id="Node000003" class="node">
<title>Node3</title>
<g id="a_Node000003"><a xlink:title=" ">
<polygon fill="white" stroke="#666666" points="173,-174 76,-174 76,-155 173,-155 173,-174"/>
<text text-anchor="middle" x="124.5" y="-162" font-family="Helvetica,sans-Serif" font-size="10.00">std::vector&lt; T &gt;</text>
</a>
</g>
</g>
<!-- Node3&#45;&gt;Node2 -->
<g id="edge2_Node000002_Node000003" class="edge">
<title>Node3&#45;&gt;Node2</title>
<g id="a_edge2_Node000002_Node000003"><a xlink:title=" ">
<path fill="none" stroke="orange" stroke-dasharray="5,2" d="M83.42,-150.36C77.07,-146.85 71.1,-142.46 66.5,-137 58.33,-127.31 55.24,-113.02 54.09,-102.37"/>
<polygon fill="orange" stroke="orange" points="82.35,-153.73 92.88,-154.9 85.38,-147.42 82.35,-153.73"/>
</a>
</g>
<text text-anchor="start" x="70" y="-125.5" font-family="Helvetica,sans-Serif" font-size="10.00" fill="grey">&lt; Acts::Ccl::Label &gt;</text>
</g>
<!-- Node4 -->
<g id="Node000004" class="node">
<title>Node4</title>
<g id="a_Node000004"><a xlink:title=" ">
<polygon fill="white" stroke="#666666" points="265.5,-96.5 125.5,-96.5 125.5,-77.5 265.5,-77.5 265.5,-96.5"/>
<text text-anchor="middle" x="195.5" y="-84.5" font-family="Helvetica,sans-Serif" font-size="10.00">std::vector&lt; std::size_t &gt;</text>
</a>
</g>
</g>
<!-- Node3&#45;&gt;Node4 -->
<g id="edge4_Node000004_Node000003" class="edge">
<title>Node3&#45;&gt;Node4</title>
<g id="a_edge4_Node000004_Node000003"><a xlink:title=" ">
<path fill="none" stroke="orange" stroke-dasharray="5,2" d="M153.17,-149.83C159.02,-146.2 164.81,-141.9 169.5,-137 180.82,-125.17 188.57,-107.44 192.5,-96.87"/>
<polygon fill="orange" stroke="orange" points="151.06,-147.01 144.08,-154.98 154.51,-153.1 151.06,-147.01"/>
</a>
</g>
<text text-anchor="start" x="185" y="-125.5" font-family="Helvetica,sans-Serif" font-size="10.00" fill="grey">&lt; std::size_t &gt;</text>
</g>
<!-- Node4&#45;&gt;Node1 -->
<g id="edge3_Node000001_Node000004" class="edge">
<title>Node4&#45;&gt;Node1</title>
<g id="a_edge3_Node000001_Node000004"><a xlink:title=" ">
<path fill="none" stroke="#9a32cd" stroke-dasharray="5,2" d="M195.5,-66.9C195.5,-51.51 195.5,-30.61 195.5,-19.06"/>
<polygon fill="#9a32cd" stroke="#9a32cd" points="192,-67.34 195.5,-77.34 199,-67.34 192,-67.34"/>
</a>
</g>
<text text-anchor="start" x="198.5" y="-42.5" font-family="Helvetica,sans-Serif" font-size="10.00" fill="grey">nClusters</text>
</g>
<!-- Node5 -->
<g id="Node000005" class="node">
<title>Node5</title>
<g id="a_Node000005"><a xlink:href="class_acts_1_1_ccl_1_1_disjoint_sets.html" target="_top" xlink:title=" ">
<polygon fill="white" stroke="#666666" points="407,-96.5 284,-96.5 284,-77.5 407,-77.5 407,-96.5"/>
<text text-anchor="middle" x="345.5" y="-84.5" font-family="Helvetica,sans-Serif" font-size="10.00">Acts::Ccl::DisjointSets</text>
</a>
</g>
</g>
<!-- Node5&#45;&gt;Node1 -->
<g id="edge5_Node000001_Node000005" class="edge">
<title>Node5&#45;&gt;Node1</title>
<g id="a_edge5_Node000001_Node000005"><a xlink:title=" ">
<path fill="none" stroke="#9a32cd" stroke-dasharray="5,2" d="M320.78,-72.78C301.9,-62.77 275.19,-48.77 251.5,-37 239.07,-30.82 224.95,-24.14 214,-19.04"/>
<polygon fill="#9a32cd" stroke="#9a32cd" points="319.16,-75.88 329.63,-77.49 322.44,-69.7 319.16,-75.88"/>
</a>
</g>
<text text-anchor="start" x="285.5" y="-42.5" font-family="Helvetica,sans-Serif" font-size="10.00" fill="grey">ds</text>
</g>
</g>
</svg>
