<?xml version="1.0" encoding="UTF-8" standalone="no"?>
<!DOCTYPE svg PUBLIC "-//W3C//DTD SVG 1.1//EN"
 "http://www.w3.org/Graphics/SVG/1.1/DTD/svg11.dtd">
<!-- Generated by graphviz version 2.43.0 (0)
 -->
<!-- Title: Acts::GridAxisGenerators::VarEq&lt; aType, bType &gt; Pages: 1 -->
<svg width="285pt" height="193pt"
 viewBox="0.00 0.00 285.00 193.00" xmlns="http://www.w3.org/2000/svg" xmlns:xlink="http://www.w3.org/1999/xlink">
<g id="graph0" class="graph" transform="scale(1 1) rotate(0) translate(4 189)">
<title>Acts::GridAxisGenerators::VarEq&lt; aType, bType &gt;</title>
<!-- Node1 -->
<g id="Node000001" class="node">
<title>Node1</title>
<g id="a_Node000001"><a xlink:title="Templated base generator for a variable, equidistant axes tuple &#45; 2D.">
<polygon fill="#999999" stroke="#666666" points="198.5,-30 59.5,-30 59.5,0 198.5,0 198.5,-30"/>
<text text-anchor="start" x="67.5" y="-18" font-family="Helvetica,sans-Serif" font-size="10.00">Acts::GridAxisGenerators</text>
<text text-anchor="middle" x="129" y="-7" font-family="Helvetica,sans-Serif" font-size="10.00">::VarEq&lt; aType, bType &gt;</text>
</a>
</g>
</g>
<!-- Node2 -->
<g id="Node000002" class="node">
<title>Node2</title>
<g id="a_Node000002"><a xlink:title=" ">
<polygon fill="white" stroke="#666666" points="124,-107.5 0,-107.5 0,-88.5 124,-88.5 124,-107.5"/>
<text text-anchor="middle" x="62" y="-95.5" font-family="Helvetica,sans-Serif" font-size="10.00">std::vector&lt; double &gt;</text>
</a>
</g>
</g>
<!-- Node2&#45;&gt;Node1 -->
<g id="edge1_Node000001_Node000002" class="edge">
<title>Node2&#45;&gt;Node1</title>
<g id="a_edge1_Node000001_Node000002"><a xlink:title=" ">
<path fill="none" stroke="#9a32cd" stroke-dasharray="5,2" d="M75.67,-80.47C87.96,-65.61 105.81,-44.04 117.41,-30.01"/>
<polygon fill="#9a32cd" stroke="#9a32cd" points="72.85,-78.4 69.17,-88.33 78.24,-82.86 72.85,-78.4"/>
</a>
</g>
<text text-anchor="start" x="105" y="-53.5" font-family="Helvetica,sans-Serif" font-size="10.00" fill="grey">edges</text>
</g>
<!-- Node3 -->
<g id="Node000003" class="node">
<title>Node3</title>
<g id="a_Node000003"><a xlink:title=" ">
<polygon fill="white" stroke="#666666" points="110.5,-185 13.5,-185 13.5,-166 110.5,-166 110.5,-185"/>
<text text-anchor="middle" x="62" y="-173" font-family="Helvetica,sans-Serif" font-size="10.00">std::vector&lt; T &gt;</text>
</a>
</g>
</g>
<!-- Node3&#45;&gt;Node2 -->
<g id="edge2_Node000002_Node000003" class="edge">
<title>Node3&#45;&gt;Node2</title>
<g id="a_edge2_Node000002_Node000003"><a xlink:title=" ">
<path fill="none" stroke="orange" stroke-dasharray="5,2" d="M62,-155.4C62,-140.01 62,-119.11 62,-107.56"/>
<polygon fill="orange" stroke="orange" points="58.5,-155.84 62,-165.84 65.5,-155.84 58.5,-155.84"/>
</a>
</g>
<text text-anchor="start" x="65" y="-136.5" font-family="Helvetica,sans-Serif" font-size="10.00" fill="grey">&lt; double &gt;</text>
</g>
<!-- Node4 -->
<g id="Node000004" class="node">
<title>Node4</title>
<g id="a_Node000004"><a xlink:title=" ">
<polygon fill="white" stroke="#666666" points="252,-113 142,-113 142,-83 252,-83 252,-113"/>
<text text-anchor="start" x="150" y="-101" font-family="Helvetica,sans-Serif" font-size="10.00">std::array&lt; double,</text>
<text text-anchor="middle" x="197" y="-90" font-family="Helvetica,sans-Serif" font-size="10.00"> 2u &gt;</text>
</a>
</g>
</g>
<!-- Node4&#45;&gt;Node1 -->
<g id="edge3_Node000001_Node000004" class="edge">
<title>Node4&#45;&gt;Node1</title>
<g id="a_edge3_Node000001_Node000004"><a xlink:title=" ">
<path fill="none" stroke="#9a32cd" stroke-dasharray="5,2" d="M178.55,-75.02C166.58,-60.76 151.34,-42.61 140.94,-30.22"/>
<polygon fill="#9a32cd" stroke="#9a32cd" points="176.04,-77.48 185.16,-82.89 181.41,-72.98 176.04,-77.48"/>
</a>
</g>
<text text-anchor="start" x="173" y="-53.5" font-family="Helvetica,sans-Serif" font-size="10.00" fill="grey">range</text>
</g>
<!-- Node5 -->
<g id="Node000005" class="node">
<title>Node5</title>
<g id="a_Node000005"><a xlink:title=" ">
<polygon fill="white" stroke="#666666" points="243,-185 151,-185 151,-166 243,-166 243,-185"/>
<text text-anchor="middle" x="197" y="-173" font-family="Helvetica,sans-Serif" font-size="10.00">std::array&lt; T &gt;</text>
</a>
</g>
</g>
<!-- Node5&#45;&gt;Node4 -->
<g id="edge4_Node000004_Node000005" class="edge">
<title>Node5&#45;&gt;Node4</title>
<g id="a_edge4_Node000004_Node000005"><a xlink:title=" ">
<path fill="none" stroke="orange" stroke-dasharray="5,2" d="M197,-155.57C197,-142.43 197,-125.18 197,-113.21"/>
<polygon fill="orange" stroke="orange" points="193.5,-155.84 197,-165.84 200.5,-155.84 193.5,-155.84"/>
</a>
</g>
<text text-anchor="start" x="200" y="-136.5" font-family="Helvetica,sans-Serif" font-size="10.00" fill="grey">&lt; double, 2u &gt;</text>
</g>
</g>
</svg>
