<?xml version="1.0" encoding="UTF-8" standalone="no"?>
<!DOCTYPE svg PUBLIC "-//W3C//DTD SVG 1.1//EN"
 "http://www.w3.org/Graphics/SVG/1.1/DTD/svg11.dtd">
<!-- Generated by graphviz version 2.43.0 (0)
 -->
<!-- Title: Acts::Experimental::Gx2FitterResult&lt; traj_t &gt; Pages: 1 -->
<svg width="211pt" height="208pt"
 viewBox="0.00 0.00 211.00 208.00" xmlns="http://www.w3.org/2000/svg" xmlns:xlink="http://www.w3.org/1999/xlink">
<g id="graph0" class="graph" transform="scale(1 1) rotate(0) translate(4 204)">
<title>Acts::Experimental::Gx2FitterResult&lt; traj_t &gt;</title>
<!-- Node1 -->
<g id="Node000001" class="node">
<title>Node1</title>
<g id="a_Node000001"><a xlink:title=" ">
<polygon fill="#999999" stroke="#666666" points="146,-30 0,-30 0,0 146,0 146,-30"/>
<text text-anchor="start" x="8" y="-18" font-family="Helvetica,sans-Serif" font-size="10.00">Acts::Experimental</text>
<text text-anchor="middle" x="73" y="-7" font-family="Helvetica,sans-Serif" font-size="10.00">::Gx2FitterResult&lt; traj_t &gt;</text>
</a>
</g>
</g>
<!-- Node2 -->
<g id="Node000002" class="node">
<title>Node2</title>
<g id="a_Node000002"><a xlink:title=" ">
<polygon fill="white" stroke="#666666" points="126,-128 20,-128 20,-98 126,-98 126,-128"/>
<text text-anchor="start" x="28" y="-116" font-family="Helvetica,sans-Serif" font-size="10.00">std::vector&lt; const</text>
<text text-anchor="middle" x="73" y="-105" font-family="Helvetica,sans-Serif" font-size="10.00"> Acts::Surface * &gt;</text>
</a>
</g>
</g>
<!-- Node2&#45;&gt;Node1 -->
<g id="edge1_Node000001_Node000002" class="edge">
<title>Node2&#45;&gt;Node1</title>
<g id="a_edge1_Node000001_Node000002"><a xlink:title=" ">
<path fill="none" stroke="#9a32cd" stroke-dasharray="5,2" d="M73,-87.7C73,-69.55 73,-45.35 73,-30.22"/>
<polygon fill="#9a32cd" stroke="#9a32cd" points="69.5,-87.83 73,-97.83 76.5,-87.83 69.5,-87.83"/>
</a>
</g>
<text text-anchor="start" x="76.5" y="-69" font-family="Helvetica,sans-Serif" font-size="10.00" fill="grey">missedActiveSurfaces</text>
<text text-anchor="start" x="76.5" y="-54" font-family="Helvetica,sans-Serif" font-size="10.00" fill="grey">passedAgainSurfaces</text>
</g>
<!-- Node3 -->
<g id="Node000003" class="node">
<title>Node3</title>
<g id="a_Node000003"><a xlink:title=" ">
<polygon fill="white" stroke="#666666" points="121.5,-200 24.5,-200 24.5,-181 121.5,-181 121.5,-200"/>
<text text-anchor="middle" x="73" y="-188" font-family="Helvetica,sans-Serif" font-size="10.00">std::vector&lt; T &gt;</text>
</a>
</g>
</g>
<!-- Node3&#45;&gt;Node2 -->
<g id="edge2_Node000002_Node000003" class="edge">
<title>Node3&#45;&gt;Node2</title>
<g id="a_edge2_Node000002_Node000003"><a xlink:title=" ">
<path fill="none" stroke="orange" stroke-dasharray="5,2" d="M73,-170.57C73,-157.43 73,-140.18 73,-128.21"/>
<polygon fill="orange" stroke="orange" points="69.5,-170.84 73,-180.84 76.5,-170.84 69.5,-170.84"/>
</a>
</g>
<text text-anchor="start" x="76" y="-151.5" font-family="Helvetica,sans-Serif" font-size="10.00" fill="grey">&lt; const Acts::Surface * &gt;</text>
</g>
</g>
</svg>
