<?xml version="1.0" encoding="UTF-8" standalone="no"?>
<!DOCTYPE svg PUBLIC "-//W3C//DTD SVG 1.1//EN"
 "http://www.w3.org/Graphics/SVG/1.1/DTD/svg11.dtd">
<!-- Generated by graphviz version 2.43.0 (0)
 -->
<!-- Title: ActsFatras::GenericScattering&lt; scattering_model_t &gt; Pages: 1 -->
<svg width="509pt" height="134pt"
 viewBox="0.00 0.00 509.00 134.00" xmlns="http://www.w3.org/2000/svg" xmlns:xlink="http://www.w3.org/1999/xlink">
<g id="graph0" class="graph" transform="scale(1 1) rotate(0) translate(4 130)">
<title>ActsFatras::GenericScattering&lt; scattering_model_t &gt;</title>
<!-- Node1 -->
<g id="Node000001" class="node">
<title>Node1</title>
<g id="a_Node000001"><a xlink:title="Simulate (multiple) scattering using a configurable scattering model.">
<polygon fill="#999999" stroke="#666666" points="160,-78 0,-78 0,-48 160,-48 160,-78"/>
<text text-anchor="start" x="8" y="-66" font-family="Helvetica,sans-Serif" font-size="10.00">ActsFatras::GenericScattering</text>
<text text-anchor="middle" x="80" y="-55" font-family="Helvetica,sans-Serif" font-size="10.00">&lt; scattering_model_t &gt;</text>
</a>
</g>
</g>
<!-- Node2 -->
<g id="Node000002" class="node">
<title>Node2</title>
<g id="a_Node000002"><a xlink:title=" ">
<polygon fill="white" stroke="#666666" points="501,-126 341,-126 341,-96 501,-96 501,-126"/>
<text text-anchor="start" x="349" y="-114" font-family="Helvetica,sans-Serif" font-size="10.00">ActsFatras::GenericScattering</text>
<text text-anchor="middle" x="421" y="-103" font-family="Helvetica,sans-Serif" font-size="10.00">&lt; detail::GaussianMixture &gt;</text>
</a>
</g>
</g>
<!-- Node1&#45;&gt;Node2 -->
<g id="edge1_Node000001_Node000002" class="edge">
<title>Node1&#45;&gt;Node2</title>
<g id="a_edge1_Node000001_Node000002"><a xlink:title=" ">
<path fill="none" stroke="orange" stroke-dasharray="5,2" d="M156.09,-80.05C163.47,-81.49 170.87,-82.83 178,-84 232.13,-92.86 293.56,-99.67 340.98,-104.24"/>
<polygon fill="orange" stroke="orange" points="156.54,-76.57 146.05,-78.04 155.17,-83.43 156.54,-76.57"/>
</a>
</g>
<text text-anchor="start" x="181.5" y="-107.5" font-family="Helvetica,sans-Serif" font-size="10.00" fill="grey">&lt; detail::GaussianMixture &gt;</text>
</g>
<!-- Node3 -->
<g id="Node000003" class="node">
<title>Node3</title>
<g id="a_Node000003"><a xlink:title=" ">
<polygon fill="white" stroke="#666666" points="501,-78 341,-78 341,-48 501,-48 501,-78"/>
<text text-anchor="start" x="349" y="-66" font-family="Helvetica,sans-Serif" font-size="10.00">ActsFatras::GenericScattering</text>
<text text-anchor="middle" x="421" y="-55" font-family="Helvetica,sans-Serif" font-size="10.00">&lt; detail::GeneralMixture &gt;</text>
</a>
</g>
</g>
<!-- Node1&#45;&gt;Node3 -->
<g id="edge2_Node000001_Node000003" class="edge">
<title>Node1&#45;&gt;Node3</title>
<g id="a_edge2_Node000001_Node000003"><a xlink:title=" ">
<path fill="none" stroke="orange" stroke-dasharray="5,2" d="M170.12,-63C223.09,-63 289.7,-63 340.82,-63"/>
<polygon fill="orange" stroke="orange" points="170.05,-59.5 160.05,-63 170.05,-66.5 170.05,-59.5"/>
</a>
</g>
<text text-anchor="start" x="184.5" y="-68.5" font-family="Helvetica,sans-Serif" font-size="10.00" fill="grey">&lt; detail::GeneralMixture &gt;</text>
</g>
<!-- Node4 -->
<g id="Node000004" class="node">
<title>Node4</title>
<g id="a_Node000004"><a xlink:title=" ">
<polygon fill="white" stroke="#666666" points="501,-30 341,-30 341,0 501,0 501,-30"/>
<text text-anchor="start" x="349" y="-18" font-family="Helvetica,sans-Serif" font-size="10.00">ActsFatras::GenericScattering</text>
<text text-anchor="middle" x="421" y="-7" font-family="Helvetica,sans-Serif" font-size="10.00">&lt; detail::Highland &gt;</text>
</a>
</g>
</g>
<!-- Node1&#45;&gt;Node4 -->
<g id="edge3_Node000001_Node000004" class="edge">
<title>Node1&#45;&gt;Node4</title>
<g id="a_edge3_Node000001_Node000004"><a xlink:title=" ">
<path fill="none" stroke="orange" stroke-dasharray="5,2" d="M156.09,-45.95C163.47,-44.51 170.87,-43.17 178,-42 232.13,-33.14 293.56,-26.33 340.98,-21.76"/>
<polygon fill="orange" stroke="orange" points="155.17,-42.57 146.05,-47.96 156.54,-49.43 155.17,-42.57"/>
</a>
</g>
<text text-anchor="start" x="200.5" y="-47.5" font-family="Helvetica,sans-Serif" font-size="10.00" fill="grey">&lt; detail::Highland &gt;</text>
</g>
</g>
</svg>
