<?xml version="1.0" encoding="UTF-8" standalone="no"?>
<!DOCTYPE svg PUBLIC "-//W3C//DTD SVG 1.1//EN"
 "http://www.w3.org/Graphics/SVG/1.1/DTD/svg11.dtd">
<!-- Generated by graphviz version 2.43.0 (0)
 -->
<!-- Title: Acts::MbfSmoother::InternalTrackState::Measurement Pages: 1 -->
<svg width="240pt" height="287pt"
 viewBox="0.00 0.00 240.00 287.00" xmlns="http://www.w3.org/2000/svg" xmlns:xlink="http://www.w3.org/1999/xlink">
<g id="graph0" class="graph" transform="scale(1 1) rotate(0) translate(4 283)">
<title>Acts::MbfSmoother::InternalTrackState::Measurement</title>
<!-- Node1 -->
<g id="Node000001" class="node">
<title>Node1</title>
<g id="a_Node000001"><a xlink:title=" ">
<polygon fill="#999999" stroke="#666666" points="136,-41 20,-41 20,0 136,0 136,-41"/>
<text text-anchor="start" x="28" y="-29" font-family="Helvetica,sans-Serif" font-size="10.00">Acts::MbfSmoother::</text>
<text text-anchor="start" x="28" y="-18" font-family="Helvetica,sans-Serif" font-size="10.00">InternalTrackState::</text>
<text text-anchor="middle" x="78" y="-7" font-family="Helvetica,sans-Serif" font-size="10.00">Measurement</text>
</a>
</g>
</g>
<!-- Node2 -->
<g id="Node000002" class="node">
<title>Node2</title>
<g id="a_Node000002"><a xlink:title=" ">
<polygon fill="white" stroke="#666666" points="156,-124 0,-124 0,-94 156,-94 156,-124"/>
<text text-anchor="start" x="8" y="-112" font-family="Helvetica,sans-Serif" font-size="10.00">std::array&lt; SubspaceIndex,</text>
<text text-anchor="middle" x="78" y="-101" font-family="Helvetica,sans-Serif" font-size="10.00"> measdim &gt;&lt; eBoundSize &gt;</text>
</a>
</g>
</g>
<!-- Node2&#45;&gt;Node1 -->
<g id="edge1_Node000001_Node000002" class="edge">
<title>Node2&#45;&gt;Node1</title>
<g id="a_edge1_Node000001_Node000002"><a xlink:title=" ">
<path fill="none" stroke="#9a32cd" stroke-dasharray="5,2" d="M78,-83.36C78,-70.03 78,-53.8 78,-41.31"/>
<polygon fill="#9a32cd" stroke="#9a32cd" points="74.5,-83.72 78,-93.72 81.5,-83.72 74.5,-83.72"/>
</a>
</g>
<text text-anchor="start" x="81" y="-64.5" font-family="Helvetica,sans-Serif" font-size="10.00" fill="grey">projector</text>
</g>
<!-- Node3 -->
<g id="Node000003" class="node">
<title>Node3</title>
<g id="a_Node000003"><a xlink:title=" ">
<polygon fill="white" stroke="#666666" points="153.5,-207 2.5,-207 2.5,-177 153.5,-177 153.5,-207"/>
<text text-anchor="start" x="10.5" y="-195" font-family="Helvetica,sans-Serif" font-size="10.00">std::array&lt; SubspaceIndex,</text>
<text text-anchor="middle" x="78" y="-184" font-family="Helvetica,sans-Serif" font-size="10.00"> measdim &gt;</text>
</a>
</g>
</g>
<!-- Node3&#45;&gt;Node2 -->
<g id="edge2_Node000002_Node000003" class="edge">
<title>Node3&#45;&gt;Node2</title>
<g id="a_edge2_Node000002_Node000003"><a xlink:title=" ">
<path fill="none" stroke="orange" stroke-dasharray="5,2" d="M78,-166.59C78,-152.75 78,-135.91 78,-124.22"/>
<polygon fill="orange" stroke="orange" points="74.5,-166.89 78,-176.89 81.5,-166.89 74.5,-166.89"/>
</a>
</g>
<text text-anchor="start" x="81" y="-147.5" font-family="Helvetica,sans-Serif" font-size="10.00" fill="grey">&lt; eBoundSize &gt;</text>
</g>
<!-- Node4 -->
<g id="Node000004" class="node">
<title>Node4</title>
<g id="a_Node000004"><a xlink:title=" ">
<polygon fill="white" stroke="#666666" points="124,-279 32,-279 32,-260 124,-260 124,-279"/>
<text text-anchor="middle" x="78" y="-267" font-family="Helvetica,sans-Serif" font-size="10.00">std::array&lt; T &gt;</text>
</a>
</g>
</g>
<!-- Node4&#45;&gt;Node3 -->
<g id="edge3_Node000003_Node000004" class="edge">
<title>Node4&#45;&gt;Node3</title>
<g id="a_edge3_Node000003_Node000004"><a xlink:title=" ">
<path fill="none" stroke="orange" stroke-dasharray="5,2" d="M78,-249.57C78,-236.43 78,-219.18 78,-207.21"/>
<polygon fill="orange" stroke="orange" points="74.5,-249.84 78,-259.84 81.5,-249.84 74.5,-249.84"/>
</a>
</g>
<text text-anchor="start" x="81" y="-230.5" font-family="Helvetica,sans-Serif" font-size="10.00" fill="grey">&lt; SubspaceIndex, measdim &gt;</text>
</g>
</g>
</svg>
