<?xml version="1.0" encoding="UTF-8" standalone="no"?>
<!DOCTYPE svg PUBLIC "-//W3C//DTD SVG 1.1//EN"
 "http://www.w3.org/Graphics/SVG/1.1/DTD/svg11.dtd">
<!-- Generated by graphviz version 2.43.0 (0)
 -->
<!-- Title: ActsPlugins::Svg::LayerConverter::Options Pages: 1 -->
<svg width="751pt" height="133pt"
 viewBox="0.00 0.00 751.00 132.50" xmlns="http://www.w3.org/2000/svg" xmlns:xlink="http://www.w3.org/1999/xlink">
<g id="graph0" class="graph" transform="scale(1 1) rotate(0) translate(4 128.5)">
<title>ActsPlugins::Svg::LayerConverter::Options</title>
<!-- Node1 -->
<g id="Node000001" class="node">
<title>Node1</title>
<g id="a_Node000001"><a xlink:title="A nested options class for the layer conversion.">
<polygon fill="#999999" stroke="#666666" points="743,-79.5 565,-79.5 565,-49.5 743,-49.5 743,-79.5"/>
<text text-anchor="start" x="573" y="-67.5" font-family="Helvetica,sans-Serif" font-size="10.00">ActsPlugins::Svg::LayerConverter</text>
<text text-anchor="middle" x="654" y="-56.5" font-family="Helvetica,sans-Serif" font-size="10.00">::Options</text>
</a>
</g>
</g>
<!-- Node2 -->
<g id="Node000002" class="node">
<title>Node2</title>
<g id="a_Node000002"><a xlink:title=" ">
<polygon fill="white" stroke="#666666" points="408,-117 343,-117 343,-98 408,-98 408,-117"/>
<text text-anchor="middle" x="375.5" y="-105" font-family="Helvetica,sans-Serif" font-size="10.00">std::string</text>
</a>
</g>
</g>
<!-- Node2&#45;&gt;Node1 -->
<g id="edge1_Node000001_Node000002" class="edge">
<title>Node2&#45;&gt;Node1</title>
<g id="a_edge1_Node000001_Node000002"><a xlink:title=" ">
<path fill="none" stroke="#9a32cd" stroke-dasharray="5,2" d="M418.49,-102.04C453.04,-97.43 503.26,-90.5 547,-83.5 554.75,-82.26 562.82,-80.92 570.88,-79.53"/>
<polygon fill="#9a32cd" stroke="#9a32cd" points="417.74,-98.6 408.29,-103.39 418.66,-105.54 417.74,-98.6"/>
</a>
</g>
<text text-anchor="start" x="496.5" y="-99" font-family="Helvetica,sans-Serif" font-size="10.00" fill="grey">name</text>
</g>
<!-- Node3 -->
<g id="Node000003" class="node">
<title>Node3</title>
<g id="a_Node000003"><a xlink:title=" ">
<polygon fill="white" stroke="#666666" points="132.5,-124.5 28.5,-124.5 28.5,-94.5 132.5,-94.5 132.5,-124.5"/>
<text text-anchor="start" x="36.5" y="-112.5" font-family="Helvetica,sans-Serif" font-size="10.00">std::basic_string&lt;</text>
<text text-anchor="middle" x="80.5" y="-101.5" font-family="Helvetica,sans-Serif" font-size="10.00"> Char &gt;</text>
</a>
</g>
</g>
<!-- Node3&#45;&gt;Node2 -->
<g id="edge2_Node000002_Node000003" class="edge">
<title>Node3&#45;&gt;Node2</title>
<g id="a_edge2_Node000002_Node000003"><a xlink:title=" ">
<path fill="none" stroke="#63b8ff" d="M142.82,-109.08C203.92,-108.66 295.31,-108.04 342.99,-107.72"/>
<polygon fill="#63b8ff" stroke="#63b8ff" points="142.51,-105.58 132.54,-109.15 142.56,-112.58 142.51,-105.58"/>
</a>
</g>
</g>
<!-- Node4 -->
<g id="Node000004" class="node">
<title>Node4</title>
<g id="a_Node000004"><a xlink:href="class_acts_1_1_geometry_hierarchy_map.html" target="_top" xlink:title=" ">
<polygon fill="white" stroke="#666666" points="456,-77.5 295,-77.5 295,-47.5 456,-47.5 456,-77.5"/>
<text text-anchor="start" x="303" y="-65.5" font-family="Helvetica,sans-Serif" font-size="10.00">Acts::GeometryHierarchyMap</text>
<text text-anchor="middle" x="375.5" y="-54.5" font-family="Helvetica,sans-Serif" font-size="10.00">&lt; ActsPlugins::Svg::Style &gt;</text>
</a>
</g>
</g>
<!-- Node4&#45;&gt;Node1 -->
<g id="edge3_Node000001_Node000004" class="edge">
<title>Node4&#45;&gt;Node1</title>
<g id="a_edge3_Node000001_Node000004"><a xlink:title=" ">
<path fill="none" stroke="#9a32cd" stroke-dasharray="5,2" d="M466.22,-63.15C497.81,-63.38 533.28,-63.63 564.75,-63.86"/>
<polygon fill="#9a32cd" stroke="#9a32cd" points="466.13,-59.65 456.1,-63.08 466.08,-66.65 466.13,-59.65"/>
</a>
</g>
<text text-anchor="start" x="477.5" y="-69" font-family="Helvetica,sans-Serif" font-size="10.00" fill="grey">surfaceStyles</text>
</g>
<!-- Node5 -->
<g id="Node000005" class="node">
<title>Node5</title>
<g id="a_Node000005"><a xlink:href="class_acts_1_1_geometry_hierarchy_map.html" target="_top" xlink:title="Store values mapped into the geometry hierarchy.">
<polygon fill="white" stroke="#666666" points="161,-76.5 0,-76.5 0,-46.5 161,-46.5 161,-76.5"/>
<text text-anchor="start" x="8" y="-64.5" font-family="Helvetica,sans-Serif" font-size="10.00">Acts::GeometryHierarchyMap</text>
<text text-anchor="middle" x="80.5" y="-53.5" font-family="Helvetica,sans-Serif" font-size="10.00">&lt; value_t &gt;</text>
</a>
</g>
</g>
<!-- Node5&#45;&gt;Node4 -->
<g id="edge4_Node000004_Node000005" class="edge">
<title>Node5&#45;&gt;Node4</title>
<g id="a_edge4_Node000004_Node000005"><a xlink:title=" ">
<path fill="none" stroke="orange" stroke-dasharray="5,2" d="M171.32,-61.81C210.74,-61.94 256.65,-62.1 294.84,-62.23"/>
<polygon fill="orange" stroke="orange" points="171.19,-58.31 161.18,-61.77 171.16,-65.31 171.19,-58.31"/>
</a>
</g>
<text text-anchor="start" x="182" y="-82.5" font-family="Helvetica,sans-Serif" font-size="10.00" fill="grey">&lt; ActsPlugins::Svg</text>
<text text-anchor="start" x="182" y="-67.5" font-family="Helvetica,sans-Serif" font-size="10.00" fill="grey">  ::Style &gt;</text>
</g>
<!-- Node6 -->
<g id="Node000006" class="node">
<title>Node6</title>
<g id="a_Node000006"><a xlink:title=" ">
<polygon fill="white" stroke="#666666" points="441,-19 310,-19 310,0 441,0 441,-19"/>
<text text-anchor="middle" x="375.5" y="-7" font-family="Helvetica,sans-Serif" font-size="10.00">std::array&lt; double, 2 &gt;</text>
</a>
</g>
</g>
<!-- Node6&#45;&gt;Node1 -->
<g id="edge5_Node000001_Node000006" class="edge">
<title>Node6&#45;&gt;Node1</title>
<g id="a_edge5_Node000001_Node000006"><a xlink:title=" ">
<path fill="none" stroke="#9a32cd" stroke-dasharray="5,2" d="M451.06,-12.96C481.13,-15.39 515.97,-19.5 547,-26.5 571.22,-31.96 597.5,-41.36 617.83,-49.44"/>
<polygon fill="#9a32cd" stroke="#9a32cd" points="451.29,-9.47 441.06,-12.2 450.76,-16.45 451.29,-9.47"/>
</a>
</g>
<text text-anchor="start" x="487.5" y="-47.5" font-family="Helvetica,sans-Serif" font-size="10.00" fill="grey">phiRange</text>
<text text-anchor="start" x="487.5" y="-32.5" font-family="Helvetica,sans-Serif" font-size="10.00" fill="grey">zRange</text>
</g>
<!-- Node7 -->
<g id="Node000007" class="node">
<title>Node7</title>
<g id="a_Node000007"><a xlink:title=" ">
<polygon fill="white" stroke="#666666" points="126.5,-19 34.5,-19 34.5,0 126.5,0 126.5,-19"/>
<text text-anchor="middle" x="80.5" y="-7" font-family="Helvetica,sans-Serif" font-size="10.00">std::array&lt; T &gt;</text>
</a>
</g>
</g>
<!-- Node7&#45;&gt;Node6 -->
<g id="edge6_Node000006_Node000007" class="edge">
<title>Node7&#45;&gt;Node6</title>
<g id="a_edge6_Node000006_Node000007"><a xlink:title=" ">
<path fill="none" stroke="orange" stroke-dasharray="5,2" d="M136.79,-9.5C186.04,-9.5 258.13,-9.5 310,-9.5"/>
<polygon fill="orange" stroke="orange" points="136.64,-6 126.64,-9.5 136.64,-13 136.64,-6"/>
</a>
</g>
<text text-anchor="start" x="194" y="-15" font-family="Helvetica,sans-Serif" font-size="10.00" fill="grey">&lt; double, 2 &gt;</text>
</g>
</g>
</svg>
