<?xml version="1.0" encoding="UTF-8" standalone="no"?>
<!DOCTYPE svg PUBLIC "-//W3C//DTD SVG 1.1//EN"
 "http://www.w3.org/Graphics/SVG/1.1/DTD/svg11.dtd">
<!-- Generated by graphviz version 2.43.0 (0)
 -->
<!-- Title: Acts::IterativeVertexFinder::Config Pages: 1 -->
<!--zoomable 354 -->

<svg id="main" version="1.1" xmlns="http://www.w3.org/2000/svg" xmlns:xlink="http://www.w3.org/1999/xlink" xml:space="preserve" onload="init(evt)">

<style type="text/css"><![CDATA[
.node, .edge {opacity: 0.7;}
.node.selected, .edge.selected {opacity: 1;}
.edge:hover path { stroke: red; }
.edge:hover polygon { stroke: red; fill: red; }
]]></style>

<defs>
  <circle id="rim" cx="0" cy="0" r="7"/>
  <circle id="rim2" cx="0" cy="0" r="3.5"/>
  <g id="zoomPlus">
    <use xlink:href="#rim" fill="#404040"><set attributeName="fill" to="#808080" begin="zoomplus.mouseover" end="zoomplus.mouseout"/></use>
    <path d="M-4,0h8M0,-4v8" fill="none" stroke="white" stroke-width="1.5" pointer-events="none"/>
  </g>
  <g id="zoomMin">
    <use xlink:href="#rim" fill="#404040"><set attributeName="fill" to="#808080" begin="zoomminus.mouseover" end="zoomminus.mouseout"/></use>
    <path d="M-4,0h8" fill="none" stroke="white" stroke-width="1.5" pointer-events="none"/>
  </g>
  <g id="arrowUp" transform="translate(30 24)">
    <use xlink:href="#rim"/>
    <path pointer-events="none" fill="none" stroke="white" stroke-width="1.5" d="M0,-3.0v7 M-2.5,-0.5L0,-3.0L2.5,-0.5"/>
  </g>
  <g id="arrowRight" transform="rotate(90) translate(36 -43)">
    <use xlink:href="#rim"/>
    <path pointer-events="none" fill="none" stroke="white" stroke-width="1.5" d="M0,-3.0v7 M-2.5,-0.5L0,-3.0L2.5,-0.5"/>
  </g>
  <g id="arrowDown" transform="rotate(180) translate(-30 -48)">
    <use xlink:href="#rim"/>
    <path pointer-events="none" fill="none" stroke="white" stroke-width="1.5" d="M0,-3.0v7 M-2.5,-0.5L0,-3.0L2.5,-0.5"/>
  </g>
  <g id="arrowLeft" transform="rotate(270) translate(-36 17)">
    <use xlink:href="#rim"/>
    <path pointer-events="none" fill="none" stroke="white" stroke-width="1.5" d="M0,-3.0v7 M-2.5,-0.5L0,-3.0L2.5,-0.5"/>
  </g>
  <g id="resetDef">
    <use xlink:href="#rim2" fill="#404040"><set attributeName="fill" to="#808080" begin="reset.mouseover" end="reset.mouseout"/></use>
  </g>
</defs>
<script type="application/ecmascript">
var viewWidth = 912;
var viewHeight = 354;
var sectionId = 'dynsection-0';
</script>
<script type="application/ecmascript" xlink:href="svg.min.js"/>
<svg id="graph" class="graph">
<g id="viewport">
<title>Acts::IterativeVertexFinder::Config</title>
<!-- Node1 -->
<g id="Node000001" class="node">
<title>Node1</title>
<g id="a_Node000001"><a xlink:title="Configuration struct.">
<polygon fill="#999999" stroke="#666666" points="904,-141.5 758,-141.5 758,-111.5 904,-111.5 904,-141.5"/>
<text text-anchor="start" x="766" y="-129.5" font-family="Helvetica,sans-Serif" font-size="10.00">Acts::IterativeVertexFinder</text>
<text text-anchor="middle" x="831" y="-118.5" font-family="Helvetica,sans-Serif" font-size="10.00">::Config</text>
</a>
</g>
</g>
<!-- Node2 -->
<g id="Node000002" class="node">
<title>Node2</title>
<g id="a_Node000002"><a xlink:href="class_acts_1_1_full_billoir_vertex_fitter.html" target="_top" xlink:title="Vertex fitter class implementing the Billoir vertex fitter.">
<polygon fill="white" stroke="#666666" points="579,-315 433,-315 433,-296 579,-296 579,-315"/>
<text text-anchor="middle" x="506" y="-303" font-family="Helvetica,sans-Serif" font-size="10.00">Acts::FullBilloirVertexFitter</text>
</a>
</g>
</g>
<!-- Node2&#45;&gt;Node1 -->
<g id="edge1_Node000001_Node000002" class="edge">
<title>Node2&#45;&gt;Node1</title>
<g id="a_edge1_Node000001_Node000002"><a xlink:title=" ">
<path fill="none" stroke="#9a32cd" stroke-dasharray="5,2" d="M588.96,-296.94C601.27,-294.33 613.64,-290.93 625,-286.5 708.91,-253.78 786.54,-174.89 816.71,-141.66"/>
<polygon fill="#9a32cd" stroke="#9a32cd" points="588.26,-293.51 579.12,-298.86 589.6,-300.38 588.26,-293.51"/>
</a>
</g>
<text text-anchor="start" x="662.5" y="-283" font-family="Helvetica,sans-Serif" font-size="10.00" fill="grey">vertexFitter</text>
</g>
<!-- Node3 -->
<g id="Node000003" class="node">
<title>Node3</title>
<g id="a_Node000003"><a xlink:href="class_acts_1_1_delegate.html" target="_top" xlink:title=" ">
<polygon fill="white" stroke="#666666" points="625,-277.5 387,-277.5 387,-181.5 625,-181.5 625,-277.5"/>
<text text-anchor="start" x="395" y="-265.5" font-family="Helvetica,sans-Serif" font-size="10.00">Acts::Delegate&lt; Result</text>
<text text-anchor="start" x="395" y="-254.5" font-family="Helvetica,sans-Serif" font-size="10.00">&lt; LinearizedTrack &gt;(const</text>
<text text-anchor="start" x="395" y="-243.5" font-family="Helvetica,sans-Serif" font-size="10.00"> BoundTrackParameters &amp;params,</text>
<text text-anchor="start" x="395" y="-232.5" font-family="Helvetica,sans-Serif" font-size="10.00"> double linPointTime, const</text>
<text text-anchor="start" x="395" y="-221.5" font-family="Helvetica,sans-Serif" font-size="10.00"> Surface &amp;perigeeSurface, const</text>
<text text-anchor="start" x="395" y="-210.5" font-family="Helvetica,sans-Serif" font-size="10.00"> Acts::GeometryContext &amp;gctx, const</text>
<text text-anchor="start" x="395" y="-199.5" font-family="Helvetica,sans-Serif" font-size="10.00"> Acts::MagneticFieldContext &amp;mctx,</text>
<text text-anchor="middle" x="506" y="-188.5" font-family="Helvetica,sans-Serif" font-size="10.00"> MagneticFieldProvider::Cache &amp;fieldCache)&gt;</text>
</a>
</g>
</g>
<!-- Node3&#45;&gt;Node1 -->
<g id="edge2_Node000001_Node000003" class="edge">
<title>Node3&#45;&gt;Node1</title>
<g id="a_edge2_Node000001_Node000003"><a xlink:title=" ">
<path fill="none" stroke="#9a32cd" stroke-dasharray="5,2" d="M634.67,-192.64C669,-182.32 706.03,-170.82 740,-159.5 756.58,-153.98 774.7,-147.43 790.31,-141.63"/>
<polygon fill="#9a32cd" stroke="#9a32cd" points="633.64,-189.29 625.07,-195.52 635.65,-196 633.64,-189.29"/>
</a>
</g>
<text text-anchor="start" x="655.5" y="-195" font-family="Helvetica,sans-Serif" font-size="10.00" fill="grey">trackLinearizer</text>
</g>
<!-- Node4 -->
<g id="Node000004" class="node">
<title>Node4</title>
<g id="a_Node000004"><a xlink:href="class_acts_1_1_delegate.html" target="_top" xlink:title=" ">
<polygon fill="white" stroke="#666666" points="152,-183.5 0,-183.5 0,-153.5 152,-153.5 152,-183.5"/>
<text text-anchor="start" x="8" y="-171.5" font-family="Helvetica,sans-Serif" font-size="10.00">Acts::Delegate&lt; typename,</text>
<text text-anchor="middle" x="76" y="-160.5" font-family="Helvetica,sans-Serif" font-size="10.00"> H, DelegateType &gt;</text>
</a>
</g>
</g>
<!-- Node4&#45;&gt;Node3 -->
<g id="edge3_Node000003_Node000004" class="edge">
<title>Node4&#45;&gt;Node3</title>
<g id="a_edge3_Node000003_Node000004"><a xlink:title=" ">
<path fill="none" stroke="orange" stroke-dasharray="5,2" d="M124.98,-186.86C139.28,-191.68 155.11,-196.4 170,-199.5 241.17,-214.34 322.35,-221.84 386.97,-225.63"/>
<polygon fill="orange" stroke="orange" points="125.96,-183.49 115.36,-183.52 123.66,-190.1 125.96,-183.49"/>
</a>
</g>
<text text-anchor="start" x="173.5" y="-334.5" font-family="Helvetica,sans-Serif" font-size="10.00" fill="grey">&lt; Result&lt; LinearizedTrack</text>
<text text-anchor="start" x="173.5" y="-319.5" font-family="Helvetica,sans-Serif" font-size="10.00" fill="grey">   &gt;( const BoundTrackParameters</text>
<text text-anchor="start" x="173.5" y="-304.5" font-family="Helvetica,sans-Serif" font-size="10.00" fill="grey">   &amp;params, double linPointTime,</text>
<text text-anchor="start" x="173.5" y="-289.5" font-family="Helvetica,sans-Serif" font-size="10.00" fill="grey">   const Surface &amp;perigeeSurface,</text>
<text text-anchor="start" x="173.5" y="-274.5" font-family="Helvetica,sans-Serif" font-size="10.00" fill="grey">   const Acts::GeometryContext &amp;gctx,</text>
<text text-anchor="start" x="173.5" y="-259.5" font-family="Helvetica,sans-Serif" font-size="10.00" fill="grey">   const Acts::MagneticFieldContext</text>
<text text-anchor="start" x="173.5" y="-244.5" font-family="Helvetica,sans-Serif" font-size="10.00" fill="grey">   &amp;mctx, MagneticFieldProvider::Cache</text>
<text text-anchor="start" x="173.5" y="-229.5" font-family="Helvetica,sans-Serif" font-size="10.00" fill="grey">   &amp;fieldCache)&gt;</text>
</g>
<!-- Node8 -->
<g id="Node000008" class="node">
<title>Node8</title>
<g id="a_Node000008"><a xlink:href="class_acts_1_1_delegate.html" target="_top" xlink:title=" ">
<polygon fill="white" stroke="#666666" points="595,-163.5 417,-163.5 417,-133.5 595,-133.5 595,-163.5"/>
<text text-anchor="start" x="425" y="-151.5" font-family="Helvetica,sans-Serif" font-size="10.00">Acts::Delegate&lt; BoundTrack</text>
<text text-anchor="middle" x="506" y="-140.5" font-family="Helvetica,sans-Serif" font-size="10.00">Parameters(const InputTrack &amp;)&gt;</text>
</a>
</g>
</g>
<!-- Node4&#45;&gt;Node8 -->
<g id="edge8_Node000008_Node000004" class="edge">
<title>Node4&#45;&gt;Node8</title>
<g id="a_edge8_Node000008_Node000004"><a xlink:title=" ">
<path fill="none" stroke="orange" stroke-dasharray="5,2" d="M162.22,-164.52C235.94,-161.07 342.12,-156.11 416.72,-152.63"/>
<polygon fill="orange" stroke="orange" points="161.87,-161.03 152.04,-164.99 162.19,-168.02 161.87,-161.03"/>
</a>
</g>
<text text-anchor="start" x="207.5" y="-184.5" font-family="Helvetica,sans-Serif" font-size="10.00" fill="grey">&lt; BoundTrackParameters</text>
<text text-anchor="start" x="207.5" y="-169.5" font-family="Helvetica,sans-Serif" font-size="10.00" fill="grey">  (const InputTrack &amp;)&gt;</text>
</g>
<!-- Node5 -->
<g id="Node000005" class="node">
<title>Node5</title>
<g id="a_Node000005"><a xlink:title=" ">
<polygon fill="white" stroke="#666666" points="567,-115.5 445,-115.5 445,-85.5 567,-85.5 567,-115.5"/>
<text text-anchor="start" x="453" y="-103.5" font-family="Helvetica,sans-Serif" font-size="10.00">std::shared_ptr&lt; Acts</text>
<text text-anchor="middle" x="506" y="-92.5" font-family="Helvetica,sans-Serif" font-size="10.00">::IVertexFinder &gt;</text>
</a>
</g>
</g>
<!-- Node5&#45;&gt;Node1 -->
<g id="edge4_Node000001_Node000005" class="edge">
<title>Node5&#45;&gt;Node1</title>
<g id="a_edge4_Node000001_Node000005"><a xlink:title=" ">
<path fill="none" stroke="#9a32cd" stroke-dasharray="5,2" d="M577.24,-101.66C623.57,-102.95 685.53,-105.7 740,-111.5 745.83,-112.12 751.85,-112.88 757.89,-113.71"/>
<polygon fill="#9a32cd" stroke="#9a32cd" points="577.1,-98.15 567.01,-101.39 576.91,-105.15 577.1,-98.15"/>
</a>
</g>
<text text-anchor="start" x="664.5" y="-117" font-family="Helvetica,sans-Serif" font-size="10.00" fill="grey">seedFinder</text>
</g>
<!-- Node6 -->
<g id="Node000006" class="node">
<title>Node6</title>
<g id="a_Node000006"><a xlink:title=" ">
<polygon fill="white" stroke="#666666" points="135,-109 17,-109 17,-90 135,-90 135,-109"/>
<text text-anchor="middle" x="76" y="-97" font-family="Helvetica,sans-Serif" font-size="10.00">std::shared_ptr&lt; T &gt;</text>
</a>
</g>
</g>
<!-- Node6&#45;&gt;Node5 -->
<g id="edge5_Node000005_Node000006" class="edge">
<title>Node6&#45;&gt;Node5</title>
<g id="a_edge5_Node000005_Node000006"><a xlink:title=" ">
<path fill="none" stroke="orange" stroke-dasharray="5,2" d="M145.22,-99.66C227.93,-99.85 366.01,-100.18 444.89,-100.36"/>
<polygon fill="orange" stroke="orange" points="145.18,-96.16 135.17,-99.64 145.16,-103.16 145.18,-96.16"/>
</a>
</g>
<text text-anchor="start" x="212.5" y="-105" font-family="Helvetica,sans-Serif" font-size="10.00" fill="grey">&lt; Acts::IVertexFinder &gt;</text>
</g>
<!-- Node9 -->
<g id="Node000009" class="node">
<title>Node9</title>
<g id="a_Node000009"><a xlink:title=" ">
<polygon fill="white" stroke="#666666" points="589.5,-67.5 422.5,-67.5 422.5,-37.5 589.5,-37.5 589.5,-67.5"/>
<text text-anchor="start" x="430.5" y="-55.5" font-family="Helvetica,sans-Serif" font-size="10.00">std::shared_ptr&lt; const</text>
<text text-anchor="middle" x="506" y="-44.5" font-family="Helvetica,sans-Serif" font-size="10.00"> Acts::MagneticFieldProvider &gt;</text>
</a>
</g>
</g>
<!-- Node6&#45;&gt;Node9 -->
<g id="edge10_Node000009_Node000006" class="edge">
<title>Node6&#45;&gt;Node9</title>
<g id="a_edge10_Node000009_Node000006"><a xlink:title=" ">
<path fill="none" stroke="orange" stroke-dasharray="5,2" d="M105.37,-85.64C123.41,-77.56 147.53,-68.08 170,-63.5 254.67,-46.24 353.84,-45.3 422.19,-47.56"/>
<polygon fill="orange" stroke="orange" points="103.64,-82.59 96.02,-89.95 106.57,-88.94 103.64,-82.59"/>
</a>
</g>
<text text-anchor="start" x="201.5" y="-84.5" font-family="Helvetica,sans-Serif" font-size="10.00" fill="grey">&lt; const Acts::MagneticField</text>
<text text-anchor="start" x="201.5" y="-69.5" font-family="Helvetica,sans-Serif" font-size="10.00" fill="grey">  Provider &gt;</text>
</g>
<!-- Node7 -->
<g id="Node000007" class="node">
<title>Node7</title>
<g id="a_Node000007"><a xlink:href="class_acts_1_1_impact_point_estimator.html" target="_top" xlink:title="Estimator for impact point calculations A description of the underlying mathematics can be found here...">
<polygon fill="white" stroke="#666666" points="580.5,-19 431.5,-19 431.5,0 580.5,0 580.5,-19"/>
<text text-anchor="middle" x="506" y="-7" font-family="Helvetica,sans-Serif" font-size="10.00">Acts::ImpactPointEstimator</text>
</a>
</g>
</g>
<!-- Node7&#45;&gt;Node1 -->
<g id="edge6_Node000001_Node000007" class="edge">
<title>Node7&#45;&gt;Node1</title>
<g id="a_edge6_Node000001_Node000007"><a xlink:title=" ">
<path fill="none" stroke="#9a32cd" stroke-dasharray="5,2" d="M590.87,-8.71C636.88,-11.24 693.78,-19.36 740,-41.5 773.92,-57.75 803.52,-91.5 818.86,-111.24"/>
<polygon fill="#9a32cd" stroke="#9a32cd" points="590.79,-5.2 580.63,-8.23 590.46,-12.2 590.79,-5.2"/>
</a>
</g>
<text text-anchor="start" x="679.5" y="-47" font-family="Helvetica,sans-Serif" font-size="10.00" fill="grey">ipEst</text>
</g>
<!-- Node8&#45;&gt;Node1 -->
<g id="edge7_Node000001_Node000008" class="edge">
<title>Node8&#45;&gt;Node1</title>
<g id="a_edge7_Node000001_Node000008"><a xlink:title=" ">
<path fill="none" stroke="#9a32cd" stroke-dasharray="5,2" d="M605.29,-141.81C654.47,-138.46 712.94,-134.47 757.9,-131.41"/>
<polygon fill="#9a32cd" stroke="#9a32cd" points="605,-138.32 595.26,-142.49 605.48,-145.3 605,-138.32"/>
</a>
</g>
<text text-anchor="start" x="646.5" y="-144" font-family="Helvetica,sans-Serif" font-size="10.00" fill="grey">extractParameters</text>
</g>
<!-- Node9&#45;&gt;Node1 -->
<g id="edge9_Node000001_Node000009" class="edge">
<title>Node9&#45;&gt;Node1</title>
<g id="a_edge9_Node000001_Node000009"><a xlink:title=" ">
<path fill="none" stroke="#9a32cd" stroke-dasharray="5,2" d="M599.47,-57.44C642.83,-61.51 694.79,-68.94 740,-82.5 762.99,-89.4 787.35,-101.64 804.92,-111.47"/>
<polygon fill="#9a32cd" stroke="#9a32cd" points="599.78,-53.95 589.51,-56.54 599.15,-60.92 599.78,-53.95"/>
</a>
</g>
<text text-anchor="start" x="680.5" y="-88" font-family="Helvetica,sans-Serif" font-size="10.00" fill="grey">field</text>
</g>
</g>
</svg>

<g id="navigator" transform="translate(0 0)" fill="#404254">
  <rect fill="#f2f5e9" fill-opacity="0.5" stroke="#606060" stroke-width=".5" x="0" y="0" width="60" height="60"/>
  <use id="zoomplus" xlink:href="#zoomPlus" x="17" y="9" onmousedown="handleZoom(evt,'in')"/>
  <use id="zoomminus" xlink:href="#zoomMin" x="42" y="9" onmousedown="handleZoom(evt,'out')"/>
  <use id="reset" xlink:href="#resetDef" x="30" y="36" onmousedown="handleReset()"/>
   <use id="arrowup" xlink:href="#arrowUp" x="0" y="0" onmousedown="handlePan(0,-1)"/>
  <use id="arrowright" xlink:href="#arrowRight" x="0" y="0" onmousedown="handlePan(1,0)"/>
  <use id="arrowdown" xlink:href="#arrowDown" x="0" y="0" onmousedown="handlePan(0,1)"/>
  <use id="arrowleft" xlink:href="#arrowLeft" x="0" y="0" onmousedown="handlePan(-1,0)"/>
</g>
<svg viewBox="0 0 15 15" width="100%" height="30px" preserveAspectRatio="xMaxYMin meet">
 <g id="arrow_out" transform="scale(0.3 0.3)">
  <a xlink:href="struct_acts_1_1_iterative_vertex_finder_1_1_config__coll__graph_org.svg" target="_base">
   <rect id="button" ry="5" rx="5" y="6" x="6" height="38" width="38"
        fill="#f2f5e9" fill-opacity="0.5" stroke="#606060" stroke-width="1.0"/>
   <path id="arrow"
     d="M 11.500037,31.436501 C 11.940474,20.09759 22.043105,11.32322 32.158766,21.979434 L 37.068811,17.246167 C 37.068811,17.246167 37.088388,32 37.088388,32 L 22.160133,31.978069 C 22.160133,31.978069 26.997745,27.140456 26.997745,27.140456 C 18.528582,18.264221 13.291696,25.230495 11.500037,31.436501 z"
     style="fill:#404040;"/>
  </a>
 </g>
</svg>

<style type='text/css'>
<![CDATA[
[data-mouse-over-selected='false'] { opacity: 0.7; }
[data-mouse-over-selected='true']  { opacity: 1.0; }
]]>
</style>
<script type="application/ecmascript"><![CDATA[
document.addEventListener('DOMContentLoaded', (event) => {
  highlightEdges();
  highlightAdjacentNodes();
});
]]></script>
</svg>
