<?xml version="1.0" encoding="UTF-8" standalone="no"?>
<!DOCTYPE svg PUBLIC "-//W3C//DTD SVG 1.1//EN"
 "http://www.w3.org/Graphics/SVG/1.1/DTD/svg11.dtd">
<!-- Generated by graphviz version 2.43.0 (0)
 -->
<!-- Title: Acts::Types::getBack&lt; typename &gt; Pages: 1 -->
<svg width="292pt" height="121pt"
 viewBox="0.00 0.00 292.00 121.00" xmlns="http://www.w3.org/2000/svg" xmlns:xlink="http://www.w3.org/1999/xlink">
<g id="graph0" class="graph" transform="scale(1 1) rotate(0) translate(4 117)">
<title>Acts::Types::getBack&lt; typename &gt;</title>
<!-- Node1 -->
<g id="Node000001" class="node">
<title>Node1</title>
<g id="a_Node000001"><a xlink:title="Access the last type.">
<polygon fill="#999999" stroke="#666666" points="196.5,-113 79.5,-113 79.5,-83 196.5,-83 196.5,-113"/>
<text text-anchor="start" x="87.5" y="-101" font-family="Helvetica,sans-Serif" font-size="10.00">Acts::Types::getBack</text>
<text text-anchor="middle" x="138" y="-90" font-family="Helvetica,sans-Serif" font-size="10.00">&lt; typename &gt;</text>
</a>
</g>
</g>
<!-- Node2 -->
<g id="Node000002" class="node">
<title>Node2</title>
<g id="a_Node000002"><a xlink:href="struct_acts_1_1_types_1_1get_back_3_01_type_list_3_01_t_00_01_ts_8_8_8_01_4_01_4.html" target="_top" xlink:title=" ">
<polygon fill="white" stroke="#666666" points="132,-30 0,-30 0,0 132,0 132,-30"/>
<text text-anchor="start" x="8" y="-18" font-family="Helvetica,sans-Serif" font-size="10.00">Acts::Types::getBack</text>
<text text-anchor="middle" x="66" y="-7" font-family="Helvetica,sans-Serif" font-size="10.00">&lt; TypeList&lt; T, Ts... &gt; &gt;</text>
</a>
</g>
</g>
<!-- Node1&#45;&gt;Node2 -->
<g id="edge1_Node000001_Node000002" class="edge">
<title>Node1&#45;&gt;Node2</title>
<g id="a_edge1_Node000001_Node000002"><a xlink:title=" ">
<path fill="none" stroke="orange" stroke-dasharray="5,2" d="M78.83,-77.36C74.24,-73.88 70.17,-69.79 67,-65 60.25,-54.78 60.77,-40.55 62.53,-30.06"/>
<polygon fill="orange" stroke="orange" points="77.27,-80.51 87.57,-82.98 81.06,-74.63 77.27,-80.51"/>
</a>
</g>
<text text-anchor="start" x="70" y="-53.5" font-family="Helvetica,sans-Serif" font-size="10.00" fill="grey">&lt; TypeList&lt; T, Ts... &gt; &gt;</text>
</g>
<!-- Node3 -->
<g id="Node000003" class="node">
<title>Node3</title>
<g id="a_Node000003"><a xlink:href="struct_acts_1_1_types_1_1get_back_3_01_type_list_3_4_01_4.html" target="_top" xlink:title=" ">
<polygon fill="white" stroke="#666666" points="269.5,-30 152.5,-30 152.5,0 269.5,0 269.5,-30"/>
<text text-anchor="start" x="160.5" y="-18" font-family="Helvetica,sans-Serif" font-size="10.00">Acts::Types::getBack</text>
<text text-anchor="middle" x="211" y="-7" font-family="Helvetica,sans-Serif" font-size="10.00">&lt; TypeList&lt;&gt; &gt;</text>
</a>
</g>
</g>
<!-- Node1&#45;&gt;Node3 -->
<g id="edge2_Node000001_Node000003" class="edge">
<title>Node1&#45;&gt;Node3</title>
<g id="a_edge2_Node000001_Node000003"><a xlink:title=" ">
<path fill="none" stroke="orange" stroke-dasharray="5,2" d="M175.45,-77.2C180.39,-73.58 185.09,-69.5 189,-65 197.82,-54.87 203.67,-40.63 207.11,-30.11"/>
<polygon fill="orange" stroke="orange" points="173.35,-74.39 167,-82.87 177.25,-80.21 173.35,-74.39"/>
</a>
</g>
<text text-anchor="start" x="202.5" y="-53.5" font-family="Helvetica,sans-Serif" font-size="10.00" fill="grey">&lt; TypeList&lt;&gt; &gt;</text>
</g>
</g>
</svg>
