<?xml version="1.0" encoding="UTF-8" standalone="no"?>
<!DOCTYPE svg PUBLIC "-//W3C//DTD SVG 1.1//EN"
 "http://www.w3.org/Graphics/SVG/1.1/DTD/svg11.dtd">
<!-- Generated by graphviz version 2.43.0 (0)
 -->
<!-- Title: Acts::PortalJsonConverter::Options Pages: 1 -->
<svg width="184pt" height="204pt"
 viewBox="0.00 0.00 183.50 204.00" xmlns="http://www.w3.org/2000/svg" xmlns:xlink="http://www.w3.org/1999/xlink">
<g id="graph0" class="graph" transform="scale(1 1) rotate(0) translate(4 200)">
<title>Acts::PortalJsonConverter::Options</title>
<!-- Node1 -->
<g id="Node000001" class="node">
<title>Node1</title>
<g id="a_Node000001"><a xlink:title=" ">
<polygon fill="#999999" stroke="#666666" points="153.5,-30 13.5,-30 13.5,0 153.5,0 153.5,-30"/>
<text text-anchor="start" x="21.5" y="-18" font-family="Helvetica,sans-Serif" font-size="10.00">Acts::PortalJsonConverter</text>
<text text-anchor="middle" x="83.5" y="-7" font-family="Helvetica,sans-Serif" font-size="10.00">::Options</text>
</a>
</g>
</g>
<!-- Node2 -->
<g id="Node000002" class="node">
<title>Node2</title>
<g id="a_Node000002"><a xlink:href="struct_acts_1_1_surface_json_converter_1_1_options.html" target="_top" xlink:title=" ">
<polygon fill="white" stroke="#666666" points="158,-113 9,-113 9,-83 158,-83 158,-113"/>
<text text-anchor="start" x="17" y="-101" font-family="Helvetica,sans-Serif" font-size="10.00">Acts::SurfaceJsonConverter</text>
<text text-anchor="middle" x="83.5" y="-90" font-family="Helvetica,sans-Serif" font-size="10.00">::Options</text>
</a>
</g>
</g>
<!-- Node2&#45;&gt;Node1 -->
<g id="edge1_Node000001_Node000002" class="edge">
<title>Node2&#45;&gt;Node1</title>
<g id="a_edge1_Node000001_Node000002"><a xlink:title=" ">
<path fill="none" stroke="#9a32cd" stroke-dasharray="5,2" d="M83.5,-72.59C83.5,-58.75 83.5,-41.91 83.5,-30.22"/>
<polygon fill="#9a32cd" stroke="#9a32cd" points="80,-72.89 83.5,-82.89 87,-72.89 80,-72.89"/>
</a>
</g>
<text text-anchor="start" x="86.5" y="-53.5" font-family="Helvetica,sans-Serif" font-size="10.00" fill="grey">surfaceOptions</text>
</g>
<!-- Node3 -->
<g id="Node000003" class="node">
<title>Node3</title>
<g id="a_Node000003"><a xlink:href="struct_acts_1_1_transform3_json_converter_1_1_options.html" target="_top" xlink:title="The options for the transform converter.">
<polygon fill="white" stroke="#666666" points="167,-196 0,-196 0,-166 167,-166 167,-196"/>
<text text-anchor="start" x="8" y="-184" font-family="Helvetica,sans-Serif" font-size="10.00">Acts::Transform3JsonConverter</text>
<text text-anchor="middle" x="83.5" y="-173" font-family="Helvetica,sans-Serif" font-size="10.00">::Options</text>
</a>
</g>
</g>
<!-- Node3&#45;&gt;Node2 -->
<g id="edge2_Node000002_Node000003" class="edge">
<title>Node3&#45;&gt;Node2</title>
<g id="a_edge2_Node000002_Node000003"><a xlink:title=" ">
<path fill="none" stroke="#9a32cd" stroke-dasharray="5,2" d="M83.5,-155.59C83.5,-141.75 83.5,-124.91 83.5,-113.22"/>
<polygon fill="#9a32cd" stroke="#9a32cd" points="80,-155.89 83.5,-165.89 87,-155.89 80,-155.89"/>
</a>
</g>
<text text-anchor="start" x="86.5" y="-136.5" font-family="Helvetica,sans-Serif" font-size="10.00" fill="grey">transformOptions</text>
</g>
</g>
</svg>
