<?xml version="1.0" encoding="UTF-8" standalone="no"?>
<!DOCTYPE svg PUBLIC "-//W3C//DTD SVG 1.1//EN"
 "http://www.w3.org/Graphics/SVG/1.1/DTD/svg11.dtd">
<!-- Generated by graphviz version 2.43.0 (0)
 -->
<!-- Title: Acts::Experimental::GbtsTrackingFilter::State Pages: 1 -->
<!--zoomable 118 -->

<svg id="main" version="1.1" xmlns="http://www.w3.org/2000/svg" xmlns:xlink="http://www.w3.org/1999/xlink" xml:space="preserve" onload="init(evt)">

<style type="text/css"><![CDATA[
.node, .edge {opacity: 0.7;}
.node.selected, .edge.selected {opacity: 1;}
.edge:hover path { stroke: red; }
.edge:hover polygon { stroke: red; fill: red; }
]]></style>

<defs>
  <circle id="rim" cx="0" cy="0" r="7"/>
  <circle id="rim2" cx="0" cy="0" r="3.5"/>
  <g id="zoomPlus">
    <use xlink:href="#rim" fill="#404040"><set attributeName="fill" to="#808080" begin="zoomplus.mouseover" end="zoomplus.mouseout"/></use>
    <path d="M-4,0h8M0,-4v8" fill="none" stroke="white" stroke-width="1.5" pointer-events="none"/>
  </g>
  <g id="zoomMin">
    <use xlink:href="#rim" fill="#404040"><set attributeName="fill" to="#808080" begin="zoomminus.mouseover" end="zoomminus.mouseout"/></use>
    <path d="M-4,0h8" fill="none" stroke="white" stroke-width="1.5" pointer-events="none"/>
  </g>
  <g id="arrowUp" transform="translate(30 24)">
    <use xlink:href="#rim"/>
    <path pointer-events="none" fill="none" stroke="white" stroke-width="1.5" d="M0,-3.0v7 M-2.5,-0.5L0,-3.0L2.5,-0.5"/>
  </g>
  <g id="arrowRight" transform="rotate(90) translate(36 -43)">
    <use xlink:href="#rim"/>
    <path pointer-events="none" fill="none" stroke="white" stroke-width="1.5" d="M0,-3.0v7 M-2.5,-0.5L0,-3.0L2.5,-0.5"/>
  </g>
  <g id="arrowDown" transform="rotate(180) translate(-30 -48)">
    <use xlink:href="#rim"/>
    <path pointer-events="none" fill="none" stroke="white" stroke-width="1.5" d="M0,-3.0v7 M-2.5,-0.5L0,-3.0L2.5,-0.5"/>
  </g>
  <g id="arrowLeft" transform="rotate(270) translate(-36 17)">
    <use xlink:href="#rim"/>
    <path pointer-events="none" fill="none" stroke="white" stroke-width="1.5" d="M0,-3.0v7 M-2.5,-0.5L0,-3.0L2.5,-0.5"/>
  </g>
  <g id="resetDef">
    <use xlink:href="#rim2" fill="#404040"><set attributeName="fill" to="#808080" begin="reset.mouseover" end="reset.mouseout"/></use>
  </g>
</defs>
<script type="application/ecmascript">
var viewWidth = 713;
var viewHeight = 118;
var sectionId = 'dynsection-0';
</script>
<script type="application/ecmascript" xlink:href="svg.min.js"/>
<svg id="graph" class="graph">
<g id="viewport">
<title>Acts::Experimental::GbtsTrackingFilter::State</title>
<!-- Node1 -->
<g id="Node000001" class="node">
<title>Node1</title>
<g id="a_Node000001"><a xlink:title="State for the tracking filter, containing edge states and a global counter.">
<polygon fill="#999999" stroke="#666666" points="705,-65 595,-65 595,-24 705,-24 705,-65"/>
<text text-anchor="start" x="603" y="-53" font-family="Helvetica,sans-Serif" font-size="10.00">Acts::Experimental</text>
<text text-anchor="start" x="603" y="-42" font-family="Helvetica,sans-Serif" font-size="10.00">::GbtsTrackingFilter</text>
<text text-anchor="middle" x="650" y="-31" font-family="Helvetica,sans-Serif" font-size="10.00">::State</text>
</a>
</g>
</g>
<!-- Node2 -->
<g id="Node000002" class="node">
<title>Node2</title>
<g id="a_Node000002"><a xlink:title=" ">
<polygon fill="white" stroke="#666666" points="489,-88.5 310,-88.5 310,-58.5 489,-58.5 489,-88.5"/>
<text text-anchor="start" x="318" y="-76.5" font-family="Helvetica,sans-Serif" font-size="10.00">std::vector&lt; Acts::</text>
<text text-anchor="middle" x="399.5" y="-65.5" font-family="Helvetica,sans-Serif" font-size="10.00">Experimental::GbtsEdgeState * &gt;</text>
</a>
</g>
</g>
<!-- Node2&#45;&gt;Node1 -->
<g id="edge1_Node000001_Node000002" class="edge">
<title>Node2&#45;&gt;Node1</title>
<g id="a_edge1_Node000001_Node000002"><a xlink:title=" ">
<path fill="none" stroke="#9a32cd" stroke-dasharray="5,2" d="M499.18,-61.98C531.75,-58.18 566.76,-54.1 594.75,-50.83"/>
<polygon fill="#9a32cd" stroke="#9a32cd" points="498.69,-58.52 489.16,-63.15 499.5,-65.47 498.69,-58.52"/>
</a>
</g>
<text text-anchor="start" x="527.5" y="-64" font-family="Helvetica,sans-Serif" font-size="10.00" fill="grey">stateVec</text>
</g>
<!-- Node3 -->
<g id="Node000003" class="node">
<title>Node3</title>
<g id="a_Node000003"><a xlink:title=" ">
<polygon fill="white" stroke="#666666" points="97,-89 0,-89 0,-70 97,-70 97,-89"/>
<text text-anchor="middle" x="48.5" y="-77" font-family="Helvetica,sans-Serif" font-size="10.00">std::vector&lt; T &gt;</text>
</a>
</g>
</g>
<!-- Node3&#45;&gt;Node2 -->
<g id="edge2_Node000002_Node000003" class="edge">
<title>Node3&#45;&gt;Node2</title>
<g id="a_edge2_Node000002_Node000003"><a xlink:title=" ">
<path fill="none" stroke="orange" stroke-dasharray="5,2" d="M107.6,-78.5C162.78,-77.55 246.51,-76.11 310,-75.02"/>
<polygon fill="orange" stroke="orange" points="107.23,-75.01 97.3,-78.68 107.35,-82.01 107.23,-75.01"/>
</a>
</g>
<text text-anchor="start" x="145" y="-98.5" font-family="Helvetica,sans-Serif" font-size="10.00" fill="grey">&lt; Acts::Experimental</text>
<text text-anchor="start" x="145" y="-83.5" font-family="Helvetica,sans-Serif" font-size="10.00" fill="grey">  ::GbtsEdgeState * &gt;</text>
</g>
<!-- Node4 -->
<g id="Node000004" class="node">
<title>Node4</title>
<g id="a_Node000004"><a xlink:title=" ">
<polygon fill="white" stroke="#666666" points="502,-35.5 297,-35.5 297,-5.5 502,-5.5 502,-35.5"/>
<text text-anchor="start" x="305" y="-23.5" font-family="Helvetica,sans-Serif" font-size="10.00">std::array&lt; Acts::Experimental</text>
<text text-anchor="middle" x="399.5" y="-12.5" font-family="Helvetica,sans-Serif" font-size="10.00">::GbtsEdgeState, GbtsMaxEdgeState &gt;</text>
</a>
</g>
</g>
<!-- Node4&#45;&gt;Node1 -->
<g id="edge3_Node000001_Node000004" class="edge">
<title>Node4&#45;&gt;Node1</title>
<g id="a_edge3_Node000001_Node000004"><a xlink:title=" ">
<path fill="none" stroke="#9a32cd" stroke-dasharray="5,2" d="M512.23,-21.68C533.79,-22.83 556.15,-24.65 577,-27.5 582.85,-28.3 588.93,-29.36 594.96,-30.56"/>
<polygon fill="#9a32cd" stroke="#9a32cd" points="512.22,-18.18 502.06,-21.19 511.88,-25.17 512.22,-18.18"/>
</a>
</g>
<text text-anchor="start" x="523.5" y="-33" font-family="Helvetica,sans-Serif" font-size="10.00" fill="grey">stateStore</text>
</g>
<!-- Node5 -->
<g id="Node000005" class="node">
<title>Node5</title>
<g id="a_Node000005"><a xlink:title=" ">
<polygon fill="white" stroke="#666666" points="94.5,-19 2.5,-19 2.5,0 94.5,0 94.5,-19"/>
<text text-anchor="middle" x="48.5" y="-7" font-family="Helvetica,sans-Serif" font-size="10.00">std::array&lt; T &gt;</text>
</a>
</g>
</g>
<!-- Node5&#45;&gt;Node4 -->
<g id="edge4_Node000004_Node000005" class="edge">
<title>Node5&#45;&gt;Node4</title>
<g id="a_edge4_Node000004_Node000005"><a xlink:title=" ">
<path fill="none" stroke="orange" stroke-dasharray="5,2" d="M105.01,-11.25C156.46,-12.87 234.27,-15.32 296.84,-17.3"/>
<polygon fill="orange" stroke="orange" points="104.87,-7.74 94.77,-10.93 104.65,-14.74 104.87,-7.74"/>
</a>
</g>
<text text-anchor="start" x="118" y="-52" font-family="Helvetica,sans-Serif" font-size="10.00" fill="grey">&lt; Acts::Experimental</text>
<text text-anchor="start" x="118" y="-37" font-family="Helvetica,sans-Serif" font-size="10.00" fill="grey">  ::GbtsEdgeState, GbtsMaxEdge</text>
<text text-anchor="start" x="118" y="-22" font-family="Helvetica,sans-Serif" font-size="10.00" fill="grey">  State &gt;</text>
</g>
</g>
</svg>

<g id="navigator" transform="translate(0 0)" fill="#404254">
  <rect fill="#f2f5e9" fill-opacity="0.5" stroke="#606060" stroke-width=".5" x="0" y="0" width="60" height="60"/>
  <use id="zoomplus" xlink:href="#zoomPlus" x="17" y="9" onmousedown="handleZoom(evt,'in')"/>
  <use id="zoomminus" xlink:href="#zoomMin" x="42" y="9" onmousedown="handleZoom(evt,'out')"/>
  <use id="reset" xlink:href="#resetDef" x="30" y="36" onmousedown="handleReset()"/>
   <use id="arrowup" xlink:href="#arrowUp" x="0" y="0" onmousedown="handlePan(0,-1)"/>
  <use id="arrowright" xlink:href="#arrowRight" x="0" y="0" onmousedown="handlePan(1,0)"/>
  <use id="arrowdown" xlink:href="#arrowDown" x="0" y="0" onmousedown="handlePan(0,1)"/>
  <use id="arrowleft" xlink:href="#arrowLeft" x="0" y="0" onmousedown="handlePan(-1,0)"/>
</g>
<svg viewBox="0 0 15 15" width="100%" height="30px" preserveAspectRatio="xMaxYMin meet">
 <g id="arrow_out" transform="scale(0.3 0.3)">
  <a xlink:href="struct_acts_1_1_experimental_1_1_gbts_tracking_filter_1_1_state__coll__graph_org.svg" target="_base">
   <rect id="button" ry="5" rx="5" y="6" x="6" height="38" width="38"
        fill="#f2f5e9" fill-opacity="0.5" stroke="#606060" stroke-width="1.0"/>
   <path id="arrow"
     d="M 11.500037,31.436501 C 11.940474,20.09759 22.043105,11.32322 32.158766,21.979434 L 37.068811,17.246167 C 37.068811,17.246167 37.088388,32 37.088388,32 L 22.160133,31.978069 C 22.160133,31.978069 26.997745,27.140456 26.997745,27.140456 C 18.528582,18.264221 13.291696,25.230495 11.500037,31.436501 z"
     style="fill:#404040;"/>
  </a>
 </g>
</svg>

<style type='text/css'>
<![CDATA[
[data-mouse-over-selected='false'] { opacity: 0.7; }
[data-mouse-over-selected='true']  { opacity: 1.0; }
]]>
</style>
<script type="application/ecmascript"><![CDATA[
document.addEventListener('DOMContentLoaded', (event) => {
  highlightEdges();
  highlightAdjacentNodes();
});
]]></script>
</svg>
