<?xml version="1.0" encoding="UTF-8" standalone="no"?>
<!DOCTYPE svg PUBLIC "-//W3C//DTD SVG 1.1//EN"
 "http://www.w3.org/Graphics/SVG/1.1/DTD/svg11.dtd">
<!-- Generated by graphviz version 2.43.0 (0)
 -->
<!-- Title: Acts::IGridSurfaceMaterial&lt; grid_value_t &gt; Pages: 1 -->
<svg width="1439pt" height="210pt"
 viewBox="0.00 0.00 1439.00 209.75" xmlns="http://www.w3.org/2000/svg" xmlns:xlink="http://www.w3.org/1999/xlink">
<g id="graph0" class="graph" transform="scale(1 1) rotate(0) translate(4 205.75)">
<title>Acts::IGridSurfaceMaterial&lt; grid_value_t &gt;</title>
<!-- Node1 -->
<g id="Node000001" class="node">
<title>Node1</title>
<g id="a_Node000001"><a xlink:title="Intermediate interface to the grid surface material given access to the grid and the material accesso...">
<polygon fill="#999999" stroke="#666666" points="510,-79.75 366,-79.75 366,-49.75 510,-49.75 510,-79.75"/>
<text text-anchor="start" x="374" y="-67.75" font-family="Helvetica,sans-Serif" font-size="10.00">Acts::IGridSurfaceMaterial</text>
<text text-anchor="middle" x="438" y="-56.75" font-family="Helvetica,sans-Serif" font-size="10.00">&lt; grid_value_t &gt;</text>
</a>
</g>
</g>
<!-- Node4 -->
<g id="Node000004" class="node">
<title>Node4</title>
<g id="a_Node000004"><a xlink:href="class_acts_1_1_grid_surface_material_t.html" target="_top" xlink:title=" ">
<polygon fill="white" stroke="#666666" points="1431,-201.75 1212,-201.75 1212,-171.75 1431,-171.75 1431,-201.75"/>
<text text-anchor="start" x="1220" y="-189.75" font-family="Helvetica,sans-Serif" font-size="10.00">Acts::GridSurfaceMaterial</text>
<text text-anchor="middle" x="1321.5" y="-178.75" font-family="Helvetica,sans-Serif" font-size="10.00">T&lt; grid_type, IndexedMaterialAccessor &gt;</text>
</a>
</g>
</g>
<!-- Node1&#45;&gt;Node4 -->
<g id="edge3_Node000001_Node000004" class="edge">
<title>Node1&#45;&gt;Node4</title>
<g id="a_edge3_Node000001_Node000004"><a xlink:title=" ">
<path fill="none" stroke="#63b8ff" d="M473.65,-84.82C489.72,-93.35 509.36,-102.7 528,-108.75 750.12,-180.81 813.31,-177.12 1046,-196.75 1100.53,-201.35 1161.33,-199.82 1211.82,-196.72"/>
<polygon fill="#63b8ff" stroke="#63b8ff" points="475.09,-81.62 464.64,-79.92 471.75,-87.77 475.09,-81.62"/>
</a>
</g>
</g>
<!-- Node5 -->
<g id="Node000005" class="node">
<title>Node5</title>
<g id="a_Node000005"><a xlink:href="class_acts_1_1_grid_surface_material_t.html" target="_top" xlink:title=" ">
<polygon fill="white" stroke="#666666" points="1424,-111.25 1219,-111.25 1219,-70.25 1424,-70.25 1424,-111.25"/>
<text text-anchor="start" x="1227" y="-99.25" font-family="Helvetica,sans-Serif" font-size="10.00">Acts::GridSurfaceMaterial</text>
<text text-anchor="start" x="1227" y="-88.25" font-family="Helvetica,sans-Serif" font-size="10.00">T&lt; grid_type, GloballyIndexedMaterial</text>
<text text-anchor="middle" x="1321.5" y="-77.25" font-family="Helvetica,sans-Serif" font-size="10.00">Accessor &gt;</text>
</a>
</g>
</g>
<!-- Node1&#45;&gt;Node5 -->
<g id="edge4_Node000001_Node000005" class="edge">
<title>Node1&#45;&gt;Node5</title>
<g id="a_edge4_Node000001_Node000005"><a xlink:title=" ">
<path fill="none" stroke="#63b8ff" d="M520.43,-48.51C660.05,-23.54 953.32,16.33 1194,-34.75 1202.56,-36.57 1204,-39.2 1212,-42.75 1232.34,-51.77 1254.82,-61.72 1274.03,-70.21"/>
<polygon fill="#63b8ff" stroke="#63b8ff" points="519.46,-45.13 510.24,-50.36 520.71,-52.02 519.46,-45.13"/>
</a>
</g>
</g>
<!-- Node6 -->
<g id="Node000006" class="node">
<title>Node6</title>
<g id="a_Node000006"><a xlink:href="class_acts_1_1_grid_surface_material_t.html" target="_top" xlink:title=" ">
<polygon fill="white" stroke="#666666" points="1422,-33.75 1221,-33.75 1221,-3.75 1422,-3.75 1422,-33.75"/>
<text text-anchor="start" x="1229" y="-21.75" font-family="Helvetica,sans-Serif" font-size="10.00">Acts::GridSurfaceMaterial</text>
<text text-anchor="middle" x="1321.5" y="-10.75" font-family="Helvetica,sans-Serif" font-size="10.00">T&lt; grid_type, GridMaterialAccessor &gt;</text>
</a>
</g>
</g>
<!-- Node1&#45;&gt;Node6 -->
<g id="edge5_Node000001_Node000006" class="edge">
<title>Node1&#45;&gt;Node6</title>
<g id="a_edge5_Node000001_Node000006"><a xlink:title=" ">
<path fill="none" stroke="#63b8ff" d="M476.73,-45.27C492.24,-38.05 510.61,-30.48 528,-25.75 586.3,-9.9 602.72,-13.79 663,-9.75 898.47,6.04 958.22,-0.46 1194,-10.75 1202.68,-11.13 1211.7,-11.58 1220.74,-12.08"/>
<polygon fill="#63b8ff" stroke="#63b8ff" points="474.99,-42.22 467.47,-49.69 478.01,-48.54 474.99,-42.22"/>
</a>
</g>
</g>
<!-- Node7 -->
<g id="Node000007" class="node">
<title>Node7</title>
<g id="a_Node000007"><a xlink:href="class_acts_1_1_i_grid_surface_material.html" target="_top" xlink:title=" ">
<polygon fill="white" stroke="#666666" points="814,-96.25 663,-96.25 663,-55.25 814,-55.25 814,-96.25"/>
<text text-anchor="start" x="671" y="-84.25" font-family="Helvetica,sans-Serif" font-size="10.00">Acts::IGridSurfaceMaterial</text>
<text text-anchor="start" x="671" y="-73.25" font-family="Helvetica,sans-Serif" font-size="10.00">&lt; material_accessor_t::grid</text>
<text text-anchor="middle" x="738.5" y="-62.25" font-family="Helvetica,sans-Serif" font-size="10.00">_value_type &gt;</text>
</a>
</g>
</g>
<!-- Node1&#45;&gt;Node7 -->
<g id="edge6_Node000001_Node000007" class="edge">
<title>Node1&#45;&gt;Node7</title>
<g id="a_edge6_Node000001_Node000007"><a xlink:title=" ">
<path fill="none" stroke="orange" stroke-dasharray="5,2" d="M520.31,-67.75C564.74,-69.38 619.4,-71.4 662.76,-73"/>
<polygon fill="orange" stroke="orange" points="520.24,-64.24 510.12,-67.37 519.98,-71.24 520.24,-64.24"/>
</a>
</g>
<text text-anchor="start" x="531.5" y="-93.75" font-family="Helvetica,sans-Serif" font-size="10.00" fill="grey">&lt; material_accessor</text>
<text text-anchor="start" x="531.5" y="-78.75" font-family="Helvetica,sans-Serif" font-size="10.00" fill="grey">  _t::grid_value_type &gt;</text>
</g>
<!-- Node2 -->
<g id="Node000002" class="node">
<title>Node2</title>
<g id="a_Node000002"><a xlink:href="class_acts_1_1_i_grid_surface_material_base.html" target="_top" xlink:title="Base class for the concrete templated grid surface material types.">
<polygon fill="white" stroke="#666666" points="329,-74.25 161,-74.25 161,-55.25 329,-55.25 329,-74.25"/>
<text text-anchor="middle" x="245" y="-62.25" font-family="Helvetica,sans-Serif" font-size="10.00">Acts::IGridSurfaceMaterialBase</text>
</a>
</g>
</g>
<!-- Node2&#45;&gt;Node1 -->
<g id="edge1_Node000001_Node000002" class="edge">
<title>Node2&#45;&gt;Node1</title>
<g id="a_edge1_Node000001_Node000002"><a xlink:title=" ">
<path fill="none" stroke="#63b8ff" d="M339.24,-64.75C348.14,-64.75 357.07,-64.75 365.72,-64.75"/>
<polygon fill="#63b8ff" stroke="#63b8ff" points="339.22,-61.25 329.22,-64.75 339.22,-68.25 339.22,-61.25"/>
</a>
</g>
</g>
<!-- Node3 -->
<g id="Node000003" class="node">
<title>Node3</title>
<g id="a_Node000003"><a xlink:href="class_acts_1_1_i_surface_material.html" target="_top" xlink:title="Base class of all surface&#45;based material description.">
<polygon fill="white" stroke="#666666" points="124,-74.25 0,-74.25 0,-55.25 124,-55.25 124,-74.25"/>
<text text-anchor="middle" x="62" y="-62.25" font-family="Helvetica,sans-Serif" font-size="10.00">Acts::ISurfaceMaterial</text>
</a>
</g>
</g>
<!-- Node3&#45;&gt;Node2 -->
<g id="edge2_Node000002_Node000003" class="edge">
<title>Node3&#45;&gt;Node2</title>
<g id="a_edge2_Node000002_Node000003"><a xlink:title=" ">
<path fill="none" stroke="#63b8ff" d="M134.14,-64.75C142.88,-64.75 151.86,-64.75 160.75,-64.75"/>
<polygon fill="#63b8ff" stroke="#63b8ff" points="134.03,-61.25 124.03,-64.75 134.03,-68.25 134.03,-61.25"/>
</a>
</g>
</g>
<!-- Node8 -->
<g id="Node000008" class="node">
<title>Node8</title>
<g id="a_Node000008"><a xlink:href="class_acts_1_1_grid_surface_material_t.html" target="_top" xlink:title="GridSurfaceMaterialT.">
<polygon fill="white" stroke="#666666" points="1028,-113.75 851,-113.75 851,-83.75 1028,-83.75 1028,-113.75"/>
<text text-anchor="start" x="859" y="-101.75" font-family="Helvetica,sans-Serif" font-size="10.00">Acts::GridSurfaceMaterial</text>
<text text-anchor="middle" x="939.5" y="-90.75" font-family="Helvetica,sans-Serif" font-size="10.00">T&lt; grid_t, material_accessor_t &gt;</text>
</a>
</g>
</g>
<!-- Node7&#45;&gt;Node8 -->
<g id="edge7_Node000007_Node000008" class="edge">
<title>Node7&#45;&gt;Node8</title>
<g id="a_edge7_Node000007_Node000008"><a xlink:title=" ">
<path fill="none" stroke="#63b8ff" d="M824.32,-85.55C833.04,-86.56 841.92,-87.59 850.68,-88.6"/>
<polygon fill="#63b8ff" stroke="#63b8ff" points="824.5,-82.05 814.17,-84.38 823.7,-89 824.5,-82.05"/>
</a>
</g>
</g>
<!-- Node8&#45;&gt;Node4 -->
<g id="edge8_Node000008_Node000004" class="edge">
<title>Node8&#45;&gt;Node4</title>
<g id="a_edge8_Node000008_Node000004"><a xlink:title=" ">
<path fill="none" stroke="orange" stroke-dasharray="5,2" d="M992.94,-116.99C1009.76,-122.48 1028.56,-128.24 1046,-132.75 1081.62,-141.96 1171.22,-159.18 1238.43,-171.71"/>
<polygon fill="orange" stroke="orange" points="993.88,-113.61 983.28,-113.8 991.68,-120.26 993.88,-113.61"/>
</a>
</g>
<text text-anchor="start" x="1049" y="-183.75" font-family="Helvetica,sans-Serif" font-size="10.00" fill="grey">&lt; grid_type, IndexedMaterial</text>
<text text-anchor="start" x="1049" y="-168.75" font-family="Helvetica,sans-Serif" font-size="10.00" fill="grey">  Accessor &gt;</text>
</g>
<!-- Node8&#45;&gt;Node5 -->
<g id="edge9_Node000008_Node000005" class="edge">
<title>Node8&#45;&gt;Node5</title>
<g id="a_edge9_Node000008_Node000005"><a xlink:title=" ">
<path fill="none" stroke="orange" stroke-dasharray="5,2" d="M1038.33,-96.69C1093.69,-95.52 1162.84,-94.07 1218.83,-92.89"/>
<polygon fill="orange" stroke="orange" points="1038.08,-93.19 1028.16,-96.9 1038.23,-100.19 1038.08,-93.19"/>
</a>
</g>
<text text-anchor="start" x="1049" y="-117.75" font-family="Helvetica,sans-Serif" font-size="10.00" fill="grey">&lt; grid_type, GloballyIndexed</text>
<text text-anchor="start" x="1049" y="-102.75" font-family="Helvetica,sans-Serif" font-size="10.00" fill="grey">  MaterialAccessor &gt;</text>
</g>
<!-- Node8&#45;&gt;Node6 -->
<g id="edge10_Node000008_Node000006" class="edge">
<title>Node8&#45;&gt;Node6</title>
<g id="a_edge10_Node000008_Node000006"><a xlink:title=" ">
<path fill="none" stroke="orange" stroke-dasharray="5,2" d="M982.84,-79.73C1001.83,-71.87 1024.7,-63.32 1046,-57.75 1103.05,-42.83 1168.35,-33.25 1220.95,-27.33"/>
<polygon fill="orange" stroke="orange" points="981.44,-76.52 973.58,-83.63 984.16,-82.97 981.44,-76.52"/>
</a>
</g>
<text text-anchor="start" x="1058" y="-78.75" font-family="Helvetica,sans-Serif" font-size="10.00" fill="grey">&lt; grid_type, GridMaterial</text>
<text text-anchor="start" x="1058" y="-63.75" font-family="Helvetica,sans-Serif" font-size="10.00" fill="grey">  Accessor &gt;</text>
</g>
</g>
</svg>
