<?xml version="1.0" encoding="UTF-8" standalone="no"?>
<!DOCTYPE svg PUBLIC "-//W3C//DTD SVG 1.1//EN"
 "http://www.w3.org/Graphics/SVG/1.1/DTD/svg11.dtd">
<!-- Generated by graphviz version 2.43.0 (0)
 -->
<!-- Title: Acts::IVolumeMaterial Pages: 1 -->
<svg width="359pt" height="113pt"
 viewBox="0.00 0.00 359.00 113.00" xmlns="http://www.w3.org/2000/svg" xmlns:xlink="http://www.w3.org/1999/xlink">
<g id="graph0" class="graph" transform="scale(1 1) rotate(0) translate(4 109)">
<title>Acts::IVolumeMaterial</title>
<!-- Node1 -->
<g id="Node000001" class="node">
<title>Node1</title>
<g id="a_Node000001"><a xlink:title="Material associated with a Volume (homogeneous, binned, interpolated).">
<polygon fill="#999999" stroke="#666666" points="124,-62 0,-62 0,-43 124,-43 124,-62"/>
<text text-anchor="middle" x="62" y="-50" font-family="Helvetica,sans-Serif" font-size="10.00">Acts::IVolumeMaterial</text>
</a>
</g>
</g>
<!-- Node2 -->
<g id="Node000002" class="node">
<title>Node2</title>
<g id="a_Node000002"><a xlink:href="class_acts_1_1_homogeneous_volume_material.html" target="_top" xlink:title="It extends the IVolumeMaterial base class to describe a simple homogeneous material in a volume.">
<polygon fill="white" stroke="#666666" points="351,-105 160,-105 160,-86 351,-86 351,-105"/>
<text text-anchor="middle" x="255.5" y="-93" font-family="Helvetica,sans-Serif" font-size="10.00">Acts::HomogeneousVolumeMaterial</text>
</a>
</g>
</g>
<!-- Node1&#45;&gt;Node2 -->
<g id="edge1_Node000001_Node000002" class="edge">
<title>Node1&#45;&gt;Node2</title>
<g id="a_edge1_Node000001_Node000002"><a xlink:title=" ">
<path fill="none" stroke="#63b8ff" d="M109.87,-64.54C125.75,-68.5 143.61,-72.83 160,-76.5 174.53,-79.76 190.38,-83.05 204.88,-85.95"/>
<polygon fill="#63b8ff" stroke="#63b8ff" points="110.31,-61.04 99.76,-62 108.6,-67.83 110.31,-61.04"/>
</a>
</g>
</g>
<!-- Node3 -->
<g id="Node000003" class="node">
<title>Node3</title>
<g id="a_Node000003"><a xlink:href="class_acts_1_1_interpolated_material_map.html" target="_top" xlink:title="Interpolate material classification values from material values on a given grid.">
<polygon fill="white" stroke="#666666" points="327,-67.5 184,-67.5 184,-37.5 327,-37.5 327,-67.5"/>
<text text-anchor="start" x="192" y="-55.5" font-family="Helvetica,sans-Serif" font-size="10.00">Acts::InterpolatedMaterial</text>
<text text-anchor="middle" x="255.5" y="-44.5" font-family="Helvetica,sans-Serif" font-size="10.00">Map&lt; Mapper_t &gt;</text>
</a>
</g>
</g>
<!-- Node1&#45;&gt;Node3 -->
<g id="edge2_Node000001_Node000003" class="edge">
<title>Node1&#45;&gt;Node3</title>
<g id="a_edge2_Node000001_Node000003"><a xlink:title=" ">
<path fill="none" stroke="#63b8ff" d="M134.57,-52.5C150.72,-52.5 167.85,-52.5 183.96,-52.5"/>
<polygon fill="#63b8ff" stroke="#63b8ff" points="134.12,-49 124.12,-52.5 134.12,-56 134.12,-49"/>
</a>
</g>
</g>
<!-- Node4 -->
<g id="Node000004" class="node">
<title>Node4</title>
<g id="a_Node000004"><a xlink:href="class_acts_1_1_proto_volume_material.html" target="_top" xlink:title="proxy to VolumeMaterial hand over BinUtility">
<polygon fill="white" stroke="#666666" points="328.5,-19 182.5,-19 182.5,0 328.5,0 328.5,-19"/>
<text text-anchor="middle" x="255.5" y="-7" font-family="Helvetica,sans-Serif" font-size="10.00">Acts::ProtoVolumeMaterial</text>
</a>
</g>
</g>
<!-- Node1&#45;&gt;Node4 -->
<g id="edge3_Node000001_Node000004" class="edge">
<title>Node1&#45;&gt;Node4</title>
<g id="a_edge3_Node000001_Node000004"><a xlink:title=" ">
<path fill="none" stroke="#63b8ff" d="M109.87,-40.46C125.75,-36.5 143.61,-32.17 160,-28.5 174.53,-25.24 190.38,-21.95 204.88,-19.05"/>
<polygon fill="#63b8ff" stroke="#63b8ff" points="108.6,-37.17 99.76,-43 110.31,-43.96 108.6,-37.17"/>
</a>
</g>
</g>
</g>
</svg>
