<?xml version="1.0" encoding="UTF-8" standalone="no"?>
<!DOCTYPE svg PUBLIC "-//W3C//DTD SVG 1.1//EN"
 "http://www.w3.org/Graphics/SVG/1.1/DTD/svg11.dtd">
<!-- Generated by graphviz version 2.43.0 (0)
 -->
<!-- Title: Acts::GridAccess::IBoundToGridLocal Pages: 1 -->
<svg width="629pt" height="100pt"
 viewBox="0.00 0.00 629.00 99.55" xmlns="http://www.w3.org/2000/svg" xmlns:xlink="http://www.w3.org/1999/xlink">
<g id="graph0" class="graph" transform="scale(1 1) rotate(0) translate(4 95.55)">
<title>Acts::GridAccess::IBoundToGridLocal</title>
<!-- Node1 -->
<g id="Node000001" class="node">
<title>Node1</title>
<g id="a_Node000001"><a xlink:title="Interface class for owning delegate.">
<polygon fill="#999999" stroke="#666666" points="137,-78 0,-78 0,-48 137,-48 137,-78"/>
<text text-anchor="start" x="8" y="-66" font-family="Helvetica,sans-Serif" font-size="10.00">Acts::GridAccess::IBound</text>
<text text-anchor="middle" x="68.5" y="-55" font-family="Helvetica,sans-Serif" font-size="10.00">ToGridLocal</text>
</a>
</g>
</g>
<!-- Node2 -->
<g id="Node000002" class="node">
<title>Node2</title>
<g id="a_Node000002"><a xlink:href="class_acts_1_1_grid_access_1_1_local_subspace.html" target="_top" xlink:title=" ">
<polygon fill="white" stroke="#666666" points="621,-76 445,-76 445,-46 621,-46 621,-76"/>
<text text-anchor="start" x="453" y="-64" font-family="Helvetica,sans-Serif" font-size="10.00">Acts::GridAccess::LocalSubspace</text>
<text text-anchor="middle" x="533" y="-53" font-family="Helvetica,sans-Serif" font-size="10.00">&lt; 0u, 1u &gt;</text>
</a>
</g>
</g>
<!-- Node1&#45;&gt;Node2 -->
<g id="edge1_Node000001_Node000002" class="edge">
<title>Node1&#45;&gt;Node2</title>
<g id="a_edge1_Node000001_Node000002"><a xlink:title=" ">
<path fill="none" stroke="#63b8ff" d="M134.26,-80.26C147.32,-83.06 161.03,-85.53 174,-87 267.03,-97.55 374.18,-86.76 446.83,-76.04"/>
<polygon fill="#63b8ff" stroke="#63b8ff" points="134.94,-76.82 124.42,-78.06 133.41,-83.66 134.94,-76.82"/>
</a>
</g>
</g>
<!-- Node3 -->
<g id="Node000003" class="node">
<title>Node3</title>
<g id="a_Node000003"><a xlink:href="class_acts_1_1_grid_access_1_1_bound_cylinder_to_z_phi.html" target="_top" xlink:title=" ">
<polygon fill="white" stroke="#666666" points="349.5,-78 174.5,-78 174.5,-48 349.5,-48 349.5,-78"/>
<text text-anchor="start" x="182.5" y="-66" font-family="Helvetica,sans-Serif" font-size="10.00">Acts::GridAccess::BoundCylinder</text>
<text text-anchor="middle" x="262" y="-55" font-family="Helvetica,sans-Serif" font-size="10.00">ToZPhi</text>
</a>
</g>
</g>
<!-- Node1&#45;&gt;Node3 -->
<g id="edge2_Node000001_Node000003" class="edge">
<title>Node1&#45;&gt;Node3</title>
<g id="a_edge2_Node000001_Node000003"><a xlink:title=" ">
<path fill="none" stroke="#63b8ff" d="M147.04,-63C156.02,-63 165.21,-63 174.3,-63"/>
<polygon fill="#63b8ff" stroke="#63b8ff" points="147.02,-59.5 137.02,-63 147.02,-66.5 147.02,-59.5"/>
</a>
</g>
</g>
<!-- Node4 -->
<g id="Node000004" class="node">
<title>Node4</title>
<g id="a_Node000004"><a xlink:href="class_acts_1_1_grid_access_1_1_local_subspace.html" target="_top" xlink:title=" ">
<polygon fill="white" stroke="#666666" points="350,-30 174,-30 174,0 350,0 350,-30"/>
<text text-anchor="start" x="182" y="-18" font-family="Helvetica,sans-Serif" font-size="10.00">Acts::GridAccess::LocalSubspace</text>
<text text-anchor="middle" x="262" y="-7" font-family="Helvetica,sans-Serif" font-size="10.00">&lt; Args &gt;</text>
</a>
</g>
</g>
<!-- Node1&#45;&gt;Node4 -->
<g id="edge3_Node000001_Node000004" class="edge">
<title>Node1&#45;&gt;Node4</title>
<g id="a_edge3_Node000001_Node000004"><a xlink:title=" ">
<path fill="none" stroke="#63b8ff" d="M139.36,-45.49C159.62,-40.41 181.56,-34.91 201.15,-30"/>
<polygon fill="#63b8ff" stroke="#63b8ff" points="138.42,-42.12 129.57,-47.94 140.12,-48.91 138.42,-42.12"/>
</a>
</g>
</g>
<!-- Node4&#45;&gt;Node2 -->
<g id="edge4_Node000004_Node000002" class="edge">
<title>Node4&#45;&gt;Node2</title>
<g id="a_edge4_Node000004_Node000002"><a xlink:title=" ">
<path fill="none" stroke="orange" stroke-dasharray="5,2" d="M360.37,-31.65C387.92,-36.36 417.72,-41.46 444.64,-46.06"/>
<polygon fill="orange" stroke="orange" points="360.78,-28.17 350.34,-29.93 359.6,-35.07 360.78,-28.17"/>
</a>
</g>
<text text-anchor="start" x="371.5" y="-47.5" font-family="Helvetica,sans-Serif" font-size="10.00" fill="grey">&lt; 0u, 1u &gt;</text>
</g>
</g>
</svg>
