<?xml version="1.0" encoding="UTF-8" standalone="no"?>
<!DOCTYPE svg PUBLIC "-//W3C//DTD SVG 1.1//EN"
 "http://www.w3.org/Graphics/SVG/1.1/DTD/svg11.dtd">
<!-- Generated by graphviz version 2.43.0 (0)
 -->
<!-- Title: Acts::Layer Pages: 1 -->
<!--zoomable 346 -->

<svg id="main" version="1.1" xmlns="http://www.w3.org/2000/svg" xmlns:xlink="http://www.w3.org/1999/xlink" xml:space="preserve" onload="init(evt)">

<style type="text/css"><![CDATA[
.node, .edge {opacity: 0.7;}
.node.selected, .edge.selected {opacity: 1;}
.edge:hover path { stroke: red; }
.edge:hover polygon { stroke: red; fill: red; }
]]></style>

<defs>
  <circle id="rim" cx="0" cy="0" r="7"/>
  <circle id="rim2" cx="0" cy="0" r="3.5"/>
  <g id="zoomPlus">
    <use xlink:href="#rim" fill="#404040"><set attributeName="fill" to="#808080" begin="zoomplus.mouseover" end="zoomplus.mouseout"/></use>
    <path d="M-4,0h8M0,-4v8" fill="none" stroke="white" stroke-width="1.5" pointer-events="none"/>
  </g>
  <g id="zoomMin">
    <use xlink:href="#rim" fill="#404040"><set attributeName="fill" to="#808080" begin="zoomminus.mouseover" end="zoomminus.mouseout"/></use>
    <path d="M-4,0h8" fill="none" stroke="white" stroke-width="1.5" pointer-events="none"/>
  </g>
  <g id="arrowUp" transform="translate(30 24)">
    <use xlink:href="#rim"/>
    <path pointer-events="none" fill="none" stroke="white" stroke-width="1.5" d="M0,-3.0v7 M-2.5,-0.5L0,-3.0L2.5,-0.5"/>
  </g>
  <g id="arrowRight" transform="rotate(90) translate(36 -43)">
    <use xlink:href="#rim"/>
    <path pointer-events="none" fill="none" stroke="white" stroke-width="1.5" d="M0,-3.0v7 M-2.5,-0.5L0,-3.0L2.5,-0.5"/>
  </g>
  <g id="arrowDown" transform="rotate(180) translate(-30 -48)">
    <use xlink:href="#rim"/>
    <path pointer-events="none" fill="none" stroke="white" stroke-width="1.5" d="M0,-3.0v7 M-2.5,-0.5L0,-3.0L2.5,-0.5"/>
  </g>
  <g id="arrowLeft" transform="rotate(270) translate(-36 17)">
    <use xlink:href="#rim"/>
    <path pointer-events="none" fill="none" stroke="white" stroke-width="1.5" d="M0,-3.0v7 M-2.5,-0.5L0,-3.0L2.5,-0.5"/>
  </g>
  <g id="resetDef">
    <use xlink:href="#rim2" fill="#404040"><set attributeName="fill" to="#808080" begin="reset.mouseover" end="reset.mouseout"/></use>
  </g>
</defs>
<script type="application/ecmascript">
var viewWidth = 1135;
var viewHeight = 346;
var sectionId = 'dynsection-1';
</script>
<script type="application/ecmascript" xlink:href="svg.min.js"/>
<svg id="graph" class="graph">
<g id="viewport">
<title>Acts::Layer</title>
<!-- Node1 -->
<g id="Node000001" class="node">
<title>Node1</title>
<g id="a_Node000001"><a xlink:title="Base Class for a Detector Layer in the Tracking Geometry.">
<polygon fill="#999999" stroke="#666666" points="1127,-163.5 1056,-163.5 1056,-144.5 1127,-144.5 1127,-163.5"/>
<text text-anchor="middle" x="1091.5" y="-151.5" font-family="Helvetica,sans-Serif" font-size="10.00">Acts::Layer</text>
</a>
</g>
</g>
<!-- Node2 -->
<g id="Node000002" class="node">
<title>Node2</title>
<g id="a_Node000002"><a xlink:href="class_acts_1_1_geometry_object.html" target="_top" xlink:title="Base class to provide GeometryIdentifier interface:">
<polygon fill="white" stroke="#666666" points="374,-268.5 250,-268.5 250,-249.5 374,-249.5 374,-268.5"/>
<text text-anchor="middle" x="312" y="-256.5" font-family="Helvetica,sans-Serif" font-size="10.00">Acts::GeometryObject</text>
</a>
</g>
</g>
<!-- Node2&#45;&gt;Node1 -->
<g id="edge1_Node000001_Node000002" class="edge">
<title>Node2&#45;&gt;Node1</title>
<g id="a_edge1_Node000001_Node000002"><a xlink:title=" ">
<path fill="none" stroke="#63b8ff" d="M349.69,-271.74C462.76,-308.57 811.8,-403.79 1038,-262 1073.51,-239.74 1085.62,-185.86 1089.19,-163.73"/>
<polygon fill="#63b8ff" stroke="#63b8ff" points="350.71,-268.39 340.11,-268.58 348.51,-275.04 350.71,-268.39"/>
</a>
</g>
</g>
<!-- Node11 -->
<g id="Node000011" class="node">
<title>Node11</title>
<g id="a_Node000011"><a xlink:href="class_acts_1_1_volume.html" target="_top" xlink:title="It inherits from GeometryObject for geometry identification.">
<polygon fill="white" stroke="#666666" points="510,-249.5 430,-249.5 430,-230.5 510,-230.5 510,-249.5"/>
<text text-anchor="middle" x="470" y="-237.5" font-family="Helvetica,sans-Serif" font-size="10.00">Acts::Volume</text>
</a>
</g>
</g>
<!-- Node2&#45;&gt;Node11 -->
<g id="edge12_Node000011_Node000002" class="edge">
<title>Node2&#45;&gt;Node11</title>
<g id="a_edge12_Node000011_Node000002"><a xlink:title=" ">
<path fill="none" stroke="#63b8ff" d="M384.44,-250.3C400.12,-248.39 416.16,-246.44 430,-244.75"/>
<polygon fill="#63b8ff" stroke="#63b8ff" points="383.71,-246.86 374.21,-251.55 384.56,-253.81 383.71,-246.86"/>
</a>
</g>
</g>
<!-- Node3 -->
<g id="Node000003" class="node">
<title>Node3</title>
<g id="a_Node000003"><a xlink:href="class_acts_1_1_geometry_identifier.html" target="_top" xlink:title="Identifier for geometry nodes within the geometry hierarchy.">
<polygon fill="white" stroke="#666666" points="136,-268.5 0,-268.5 0,-249.5 136,-249.5 136,-268.5"/>
<text text-anchor="middle" x="68" y="-256.5" font-family="Helvetica,sans-Serif" font-size="10.00">Acts::GeometryIdentifier</text>
</a>
</g>
</g>
<!-- Node3&#45;&gt;Node2 -->
<g id="edge2_Node000002_Node000003" class="edge">
<title>Node3&#45;&gt;Node2</title>
<g id="a_edge2_Node000002_Node000003"><a xlink:title=" ">
<path fill="none" stroke="#9a32cd" stroke-dasharray="5,2" d="M146.31,-259C179.84,-259 218.54,-259 249.99,-259"/>
<polygon fill="#9a32cd" stroke="#9a32cd" points="146.09,-255.5 136.09,-259 146.09,-262.5 146.09,-255.5"/>
</a>
</g>
<text text-anchor="start" x="157" y="-264.5" font-family="Helvetica,sans-Serif" font-size="10.00" fill="grey">m_geometryId</text>
</g>
<!-- Node4 -->
<g id="Node000004" class="node">
<title>Node4</title>
<g id="a_Node000004"><a xlink:title=" ">
<polygon fill="white" stroke="#666666" points="885,-212 761,-212 761,-182 885,-182 885,-212"/>
<text text-anchor="start" x="769" y="-200" font-family="Helvetica,sans-Serif" font-size="10.00">std::pair&lt; const Layer</text>
<text text-anchor="middle" x="823" y="-189" font-family="Helvetica,sans-Serif" font-size="10.00"> *, const Layer * &gt;</text>
</a>
</g>
</g>
<!-- Node4&#45;&gt;Node1 -->
<g id="edge3_Node000001_Node000004" class="edge">
<title>Node4&#45;&gt;Node1</title>
<g id="a_edge3_Node000001_Node000004"><a xlink:title=" ">
<path fill="none" stroke="#9a32cd" stroke-dasharray="5,2" d="M895.26,-193.93C937.26,-190.99 991.17,-185.24 1038,-174 1048.53,-171.47 1059.8,-167.38 1069.18,-163.55"/>
<polygon fill="#9a32cd" stroke="#9a32cd" points="894.87,-190.45 885.13,-194.6 895.34,-197.43 894.87,-190.45"/>
</a>
</g>
<text text-anchor="start" x="943" y="-196.5" font-family="Helvetica,sans-Serif" font-size="10.00" fill="grey">m_nextLayers</text>
</g>
<!-- Node5 -->
<g id="Node000005" class="node">
<title>Node5</title>
<g id="a_Node000005"><a xlink:title=" ">
<polygon fill="white" stroke="#666666" points="524.5,-202.5 415.5,-202.5 415.5,-183.5 524.5,-183.5 524.5,-202.5"/>
<text text-anchor="middle" x="470" y="-190.5" font-family="Helvetica,sans-Serif" font-size="10.00">std::pair&lt; T1, T2 &gt;</text>
</a>
</g>
</g>
<!-- Node5&#45;&gt;Node4 -->
<g id="edge4_Node000004_Node000005" class="edge">
<title>Node5&#45;&gt;Node4</title>
<g id="a_edge4_Node000004_Node000005"><a xlink:title=" ">
<path fill="none" stroke="orange" stroke-dasharray="5,2" d="M534.71,-193.73C599,-194.46 697.6,-195.58 760.94,-196.3"/>
<polygon fill="orange" stroke="orange" points="534.73,-190.23 524.69,-193.61 534.65,-197.23 534.73,-190.23"/>
</a>
</g>
<text text-anchor="start" x="583.5" y="-216" font-family="Helvetica,sans-Serif" font-size="10.00" fill="grey">&lt; const Layer *, const</text>
<text text-anchor="start" x="583.5" y="-201" font-family="Helvetica,sans-Serif" font-size="10.00" fill="grey">   Layer * &gt;</text>
</g>
<!-- Node6 -->
<g id="Node000006" class="node">
<title>Node6</title>
<g id="a_Node000006"><a xlink:href="class_acts_1_1_bin_utility.html" target="_top" xlink:title="The BinUtility class that translated global and local position into a bins of a BinnedArray,...">
<polygon fill="white" stroke="#666666" points="867.5,-163.5 778.5,-163.5 778.5,-144.5 867.5,-144.5 867.5,-163.5"/>
<text text-anchor="middle" x="823" y="-151.5" font-family="Helvetica,sans-Serif" font-size="10.00">Acts::BinUtility</text>
</a>
</g>
</g>
<!-- Node6&#45;&gt;Node1 -->
<g id="edge5_Node000001_Node000006" class="edge">
<title>Node6&#45;&gt;Node1</title>
<g id="a_edge5_Node000001_Node000006"><a xlink:title=" ">
<path fill="none" stroke="#9a32cd" stroke-dasharray="5,2" d="M877.95,-154C931.02,-154 1010.47,-154 1055.7,-154"/>
<polygon fill="#9a32cd" stroke="#9a32cd" points="877.71,-150.5 867.71,-154 877.71,-157.5 877.71,-150.5"/>
</a>
</g>
<text text-anchor="start" x="931" y="-159.5" font-family="Helvetica,sans-Serif" font-size="10.00" fill="grey">m_nextLayerUtility</text>
</g>
<!-- Node7 -->
<g id="Node000007" class="node">
<title>Node7</title>
<g id="a_Node000007"><a xlink:title=" ">
<polygon fill="white" stroke="#666666" points="886.5,-126 759.5,-126 759.5,-96 886.5,-96 886.5,-126"/>
<text text-anchor="start" x="767.5" y="-114" font-family="Helvetica,sans-Serif" font-size="10.00">std::unique_ptr&lt; const</text>
<text text-anchor="middle" x="823" y="-103" font-family="Helvetica,sans-Serif" font-size="10.00"> Acts::SurfaceArray &gt;</text>
</a>
</g>
</g>
<!-- Node7&#45;&gt;Node1 -->
<g id="edge6_Node000001_Node000007" class="edge">
<title>Node7&#45;&gt;Node1</title>
<g id="a_edge6_Node000001_Node000007"><a xlink:title=" ">
<path fill="none" stroke="#9a32cd" stroke-dasharray="5,2" d="M896.69,-113.46C938.51,-116.11 991.77,-121.61 1038,-133 1049.06,-135.72 1060.87,-140.29 1070.49,-144.47"/>
<polygon fill="#9a32cd" stroke="#9a32cd" points="896.78,-109.96 886.59,-112.86 896.36,-116.94 896.78,-109.96"/>
</a>
</g>
<text text-anchor="start" x="939" y="-138.5" font-family="Helvetica,sans-Serif" font-size="10.00" fill="grey">m_surfaceArray</text>
</g>
<!-- Node8 -->
<g id="Node000008" class="node">
<title>Node8</title>
<g id="a_Node000008"><a xlink:title=" ">
<polygon fill="white" stroke="#666666" points="529,-72.5 411,-72.5 411,-53.5 529,-53.5 529,-72.5"/>
<text text-anchor="middle" x="470" y="-60.5" font-family="Helvetica,sans-Serif" font-size="10.00">std::unique_ptr&lt; T &gt;</text>
</a>
</g>
</g>
<!-- Node8&#45;&gt;Node7 -->
<g id="edge7_Node000007_Node000008" class="edge">
<title>Node8&#45;&gt;Node7</title>
<g id="a_edge7_Node000007_Node000008"><a xlink:title=" ">
<path fill="none" stroke="orange" stroke-dasharray="5,2" d="M510.86,-75.4C522.43,-78.62 535.13,-81.79 547,-84 619.16,-97.41 703.3,-104.43 759.32,-107.92"/>
<polygon fill="orange" stroke="orange" points="511.63,-71.98 501.05,-72.58 509.7,-78.71 511.63,-71.98"/>
</a>
</g>
<text text-anchor="start" x="566.5" y="-110.5" font-family="Helvetica,sans-Serif" font-size="10.00" fill="grey">&lt; const Acts::SurfaceArray &gt;</text>
</g>
<!-- Node9 -->
<g id="Node000009" class="node">
<title>Node9</title>
<g id="a_Node000009"><a xlink:title=" ">
<polygon fill="white" stroke="#666666" points="900,-78 746,-78 746,-48 900,-48 900,-78"/>
<text text-anchor="start" x="754" y="-66" font-family="Helvetica,sans-Serif" font-size="10.00">std::unique_ptr&lt; const</text>
<text text-anchor="middle" x="823" y="-55" font-family="Helvetica,sans-Serif" font-size="10.00"> Acts::ApproachDescriptor &gt;</text>
</a>
</g>
</g>
<!-- Node8&#45;&gt;Node9 -->
<g id="edge9_Node000009_Node000008" class="edge">
<title>Node8&#45;&gt;Node9</title>
<g id="a_edge9_Node000009_Node000008"><a xlink:title=" ">
<path fill="none" stroke="orange" stroke-dasharray="5,2" d="M539.36,-63C598.6,-63 684.23,-63 745.69,-63"/>
<polygon fill="orange" stroke="orange" points="539.35,-59.5 529.35,-63 539.35,-66.5 539.35,-59.5"/>
</a>
</g>
<text text-anchor="start" x="550.5" y="-68.5" font-family="Helvetica,sans-Serif" font-size="10.00" fill="grey">&lt; const Acts::ApproachDescriptor &gt;</text>
</g>
<!-- Node12 -->
<g id="Node000012" class="node">
<title>Node12</title>
<g id="a_Node000012"><a xlink:title=" ">
<polygon fill="white" stroke="#666666" points="884,-30 762,-30 762,0 884,0 884,-30"/>
<text text-anchor="start" x="770" y="-18" font-family="Helvetica,sans-Serif" font-size="10.00">std::unique_ptr&lt; Acts</text>
<text text-anchor="middle" x="823" y="-7" font-family="Helvetica,sans-Serif" font-size="10.00">::Volume &gt;</text>
</a>
</g>
</g>
<!-- Node8&#45;&gt;Node12 -->
<g id="edge14_Node000012_Node000008" class="edge">
<title>Node8&#45;&gt;Node12</title>
<g id="a_edge14_Node000012_Node000008"><a xlink:title=" ">
<path fill="none" stroke="orange" stroke-dasharray="5,2" d="M510.86,-50.6C522.43,-47.38 535.13,-44.21 547,-42 620.22,-28.39 705.77,-21.36 761.77,-17.93"/>
<polygon fill="orange" stroke="orange" points="509.7,-47.29 501.05,-53.42 511.63,-54.02 509.7,-47.29"/>
</a>
</g>
<text text-anchor="start" x="594.5" y="-47.5" font-family="Helvetica,sans-Serif" font-size="10.00" fill="grey">&lt; Acts::Volume &gt;</text>
</g>
<!-- Node9&#45;&gt;Node1 -->
<g id="edge8_Node000001_Node000009" class="edge">
<title>Node9&#45;&gt;Node1</title>
<g id="a_edge8_Node000001_Node000009"><a xlink:title=" ">
<path fill="none" stroke="#9a32cd" stroke-dasharray="5,2" d="M910.31,-61.92C951.14,-64.7 999.31,-72.97 1038,-94 1059.89,-105.9 1076.95,-130.73 1085.15,-144.42"/>
<polygon fill="#9a32cd" stroke="#9a32cd" points="910.28,-58.41 900.09,-61.32 909.87,-65.4 910.28,-58.41"/>
</a>
</g>
<text text-anchor="start" x="923" y="-99.5" font-family="Helvetica,sans-Serif" font-size="10.00" fill="grey">m_approachDescriptor</text>
</g>
<!-- Node10 -->
<g id="Node000010" class="node">
<title>Node10</title>
<g id="a_Node000010"><a xlink:href="class_acts_1_1_tracking_volume.html" target="_top" xlink:title="Full Volume description used in Tracking, it inherits from Volume to get the geometrical structure.">
<polygon fill="white" stroke="#666666" points="883.5,-249.5 762.5,-249.5 762.5,-230.5 883.5,-230.5 883.5,-249.5"/>
<text text-anchor="middle" x="823" y="-237.5" font-family="Helvetica,sans-Serif" font-size="10.00">Acts::TrackingVolume</text>
</a>
</g>
</g>
<!-- Node10&#45;&gt;Node1 -->
<g id="edge10_Node000001_Node000010" class="edge">
<title>Node10&#45;&gt;Node1</title>
<g id="a_edge10_Node000001_Node000010"><a xlink:title=" ">
<path fill="none" stroke="#9a32cd" stroke-dasharray="5,2" d="M893.86,-242.84C937.56,-241.81 993.75,-235.18 1038,-212 1059.41,-200.78 1076.43,-177.12 1084.81,-163.75"/>
<polygon fill="#9a32cd" stroke="#9a32cd" points="893.55,-239.35 883.6,-242.99 893.65,-246.35 893.55,-239.35"/>
</a>
</g>
<text text-anchor="start" x="932" y="-246.5" font-family="Helvetica,sans-Serif" font-size="10.00" fill="grey">m_trackingVolume</text>
</g>
<!-- Node11&#45;&gt;Node10 -->
<g id="edge11_Node000010_Node000011" class="edge">
<title>Node11&#45;&gt;Node10</title>
<g id="a_edge11_Node000010_Node000011"><a xlink:title=" ">
<path fill="none" stroke="#63b8ff" d="M520.4,-240C583.91,-240 694.11,-240 762.26,-240"/>
<polygon fill="#63b8ff" stroke="#63b8ff" points="520.24,-236.5 510.24,-240 520.24,-243.5 520.24,-236.5"/>
</a>
</g>
</g>
<!-- Node12&#45;&gt;Node1 -->
<g id="edge13_Node000001_Node000012" class="edge">
<title>Node12&#45;&gt;Node1</title>
<g id="a_edge13_Node000001_Node000012"><a xlink:title=" ">
<path fill="none" stroke="#9a32cd" stroke-dasharray="5,2" d="M894.1,-7.05C939.23,-5.63 996.9,-11.14 1038,-41 1073.35,-66.69 1085.6,-122.19 1089.2,-144.47"/>
<polygon fill="#9a32cd" stroke="#9a32cd" points="893.93,-3.56 884.09,-7.48 894.24,-10.55 893.93,-3.56"/>
</a>
</g>
<text text-anchor="start" x="921" y="-46.5" font-family="Helvetica,sans-Serif" font-size="10.00" fill="grey">m_representingVolume</text>
</g>
</g>
</svg>

<g id="navigator" transform="translate(0 0)" fill="#404254">
  <rect fill="#f2f5e9" fill-opacity="0.5" stroke="#606060" stroke-width=".5" x="0" y="0" width="60" height="60"/>
  <use id="zoomplus" xlink:href="#zoomPlus" x="17" y="9" onmousedown="handleZoom(evt,'in')"/>
  <use id="zoomminus" xlink:href="#zoomMin" x="42" y="9" onmousedown="handleZoom(evt,'out')"/>
  <use id="reset" xlink:href="#resetDef" x="30" y="36" onmousedown="handleReset()"/>
   <use id="arrowup" xlink:href="#arrowUp" x="0" y="0" onmousedown="handlePan(0,-1)"/>
  <use id="arrowright" xlink:href="#arrowRight" x="0" y="0" onmousedown="handlePan(1,0)"/>
  <use id="arrowdown" xlink:href="#arrowDown" x="0" y="0" onmousedown="handlePan(0,1)"/>
  <use id="arrowleft" xlink:href="#arrowLeft" x="0" y="0" onmousedown="handlePan(-1,0)"/>
</g>
<svg viewBox="0 0 15 15" width="100%" height="30px" preserveAspectRatio="xMaxYMin meet">
 <g id="arrow_out" transform="scale(0.3 0.3)">
  <a xlink:href="class_acts_1_1_layer__coll__graph_org.svg" target="_base">
   <rect id="button" ry="5" rx="5" y="6" x="6" height="38" width="38"
        fill="#f2f5e9" fill-opacity="0.5" stroke="#606060" stroke-width="1.0"/>
   <path id="arrow"
     d="M 11.500037,31.436501 C 11.940474,20.09759 22.043105,11.32322 32.158766,21.979434 L 37.068811,17.246167 C 37.068811,17.246167 37.088388,32 37.088388,32 L 22.160133,31.978069 C 22.160133,31.978069 26.997745,27.140456 26.997745,27.140456 C 18.528582,18.264221 13.291696,25.230495 11.500037,31.436501 z"
     style="fill:#404040;"/>
  </a>
 </g>
</svg>

<style type='text/css'>
<![CDATA[
[data-mouse-over-selected='false'] { opacity: 0.7; }
[data-mouse-over-selected='true']  { opacity: 1.0; }
]]>
</style>
<script type="application/ecmascript"><![CDATA[
document.addEventListener('DOMContentLoaded', (event) => {
  highlightEdges();
  highlightAdjacentNodes();
});
]]></script>
</svg>
