<?xml version="1.0" encoding="UTF-8" standalone="no"?>
<!DOCTYPE svg PUBLIC "-//W3C//DTD SVG 1.1//EN"
 "http://www.w3.org/Graphics/SVG/1.1/DTD/svg11.dtd">
<!-- Generated by graphviz version 2.43.0 (0)
 -->
<!-- Title: Acts::PortalShellBase Pages: 1 -->
<svg width="500pt" height="268pt"
 viewBox="0.00 0.00 500.00 267.50" xmlns="http://www.w3.org/2000/svg" xmlns:xlink="http://www.w3.org/1999/xlink">

<svg id="main" version="1.1" xmlns="http://www.w3.org/2000/svg" xmlns:xlink="http://www.w3.org/1999/xlink" xml:space="preserve">

<style type="text/css"><![CDATA[
.node, .edge {opacity: 0.7;}
.node.selected, .edge.selected {opacity: 1;}
.edge:hover path { stroke: red; }
.edge:hover polygon { stroke: red; fill: red; }
]]></style>
<script type="application/ecmascript" xlink:href="svg.min.js"/>
<svg id="graph" class="graph">
<g id="graph0" class="graph" transform="scale(1 1) rotate(0) translate(4 263.5)">
<title>Acts::PortalShellBase</title>
<!-- Node1 -->
<g id="Node000001" class="node">
<title>Node1</title>
<g id="a_Node000001"><a xlink:title="The portal shell of a volume is the set of portals that describes connections &quot;outside&quot; of the volume...">
<polygon fill="#999999" stroke="#666666" points="120,-101.5 0,-101.5 0,-82.5 120,-82.5 120,-101.5"/>
<text text-anchor="middle" x="60" y="-89.5" font-family="Helvetica,sans-Serif" font-size="10.00">Acts::PortalShellBase</text>
</a>
</g>
</g>
<!-- Node2 -->
<g id="Node000002" class="node">
<title>Node2</title>
<g id="a_Node000002"><a xlink:href="class_acts_1_1_cuboid_portal_shell.html" target="_top" xlink:title="Base class for cuboid shaped portal shells, e.g.">
<polygon fill="white" stroke="#666666" points="292.5,-216.5 162.5,-216.5 162.5,-197.5 292.5,-197.5 292.5,-216.5"/>
<text text-anchor="middle" x="227.5" y="-204.5" font-family="Helvetica,sans-Serif" font-size="10.00">Acts::CuboidPortalShell</text>
</a>
</g>
</g>
<!-- Node1&#45;&gt;Node2 -->
<g id="edge1_Node000001_Node000002" class="edge">
<title>Node1&#45;&gt;Node2</title>
<g id="a_edge1_Node000001_Node000002"><a xlink:title=" ">
<path fill="none" stroke="#63b8ff" d="M83.31,-107.5C117.93,-131.56 183.57,-177.17 212.36,-197.18"/>
<polygon fill="#63b8ff" stroke="#63b8ff" points="85.04,-104.44 74.83,-101.61 81.04,-110.19 85.04,-104.44"/>
</a>
</g>
</g>
<!-- Node5 -->
<g id="Node000005" class="node">
<title>Node5</title>
<g id="a_Node000005"><a xlink:href="class_acts_1_1_cylinder_portal_shell.html" target="_top" xlink:title="Base class for cylinder shaped portal shells, e.g.">
<polygon fill="white" stroke="#666666" points="296,-120.5 159,-120.5 159,-101.5 296,-101.5 296,-120.5"/>
<text text-anchor="middle" x="227.5" y="-108.5" font-family="Helvetica,sans-Serif" font-size="10.00">Acts::CylinderPortalShell</text>
</a>
</g>
</g>
<!-- Node1&#45;&gt;Node5 -->
<g id="edge4_Node000001_Node000005" class="edge">
<title>Node1&#45;&gt;Node5</title>
<g id="a_edge4_Node000001_Node000005"><a xlink:title=" ">
<path fill="none" stroke="#63b8ff" d="M130.4,-99.97C139.84,-101.05 149.51,-102.16 158.91,-103.24"/>
<polygon fill="#63b8ff" stroke="#63b8ff" points="130.62,-96.47 120.28,-98.81 129.82,-103.42 130.62,-96.47"/>
</a>
</g>
</g>
<!-- Node8 -->
<g id="Node000008" class="node">
<title>Node8</title>
<g id="a_Node000008"><a xlink:href="class_acts_1_1_diamond_portal_shell.html" target="_top" xlink:title="Base class for diamond shaped portal shells, e.g single volumes with polygon shape or stacked (multip...">
<polygon fill="white" stroke="#666666" points="297.5,-77.5 157.5,-77.5 157.5,-58.5 297.5,-58.5 297.5,-77.5"/>
<text text-anchor="middle" x="227.5" y="-65.5" font-family="Helvetica,sans-Serif" font-size="10.00">Acts::DiamondPortalShell</text>
</a>
</g>
</g>
<!-- Node1&#45;&gt;Node8 -->
<g id="edge7_Node000001_Node000008" class="edge">
<title>Node1&#45;&gt;Node8</title>
<g id="a_edge7_Node000001_Node000008"><a xlink:title=" ">
<path fill="none" stroke="#63b8ff" d="M130.3,-81.95C140.43,-80.48 150.84,-78.97 160.9,-77.51"/>
<polygon fill="#63b8ff" stroke="#63b8ff" points="129.68,-78.5 120.28,-83.4 130.68,-85.43 129.68,-78.5"/>
</a>
</g>
</g>
<!-- Node10 -->
<g id="Node000010" class="node">
<title>Node10</title>
<g id="a_Node000010"><a xlink:href="class_acts_1_1_trapezoid_portal_shell.html" target="_top" xlink:title="Base class for trapezoid shaped portal shells, e.g.">
<polygon fill="white" stroke="#666666" points="299,-35.5 156,-35.5 156,-16.5 299,-16.5 299,-35.5"/>
<text text-anchor="middle" x="227.5" y="-23.5" font-family="Helvetica,sans-Serif" font-size="10.00">Acts::TrapezoidPortalShell</text>
</a>
</g>
</g>
<!-- Node1&#45;&gt;Node10 -->
<g id="edge9_Node000001_Node000010" class="edge">
<title>Node1&#45;&gt;Node10</title>
<g id="a_edge9_Node000001_Node000010"><a xlink:title=" ">
<path fill="none" stroke="#63b8ff" d="M89.53,-78.1C108.21,-69.24 133.29,-57.81 156,-49 168.48,-44.16 182.46,-39.45 194.65,-35.57"/>
<polygon fill="#63b8ff" stroke="#63b8ff" points="87.9,-75 80.38,-82.47 90.91,-81.31 87.9,-75"/>
</a>
</g>
</g>
<!-- Node3 -->
<g id="Node000003" class="node">
<title>Node3</title>
<g id="a_Node000003"><a xlink:href="class_acts_1_1_cuboid_stack_portal_shell.html" target="_top" xlink:title="This class describes a cuboid shell containing multiple volumes.">
<polygon fill="white" stroke="#666666" points="492,-259.5 335,-259.5 335,-240.5 492,-240.5 492,-259.5"/>
<text text-anchor="middle" x="413.5" y="-247.5" font-family="Helvetica,sans-Serif" font-size="10.00">Acts::CuboidStackPortalShell</text>
</a>
</g>
</g>
<!-- Node2&#45;&gt;Node3 -->
<g id="edge2_Node000002_Node000003" class="edge">
<title>Node2&#45;&gt;Node3</title>
<g id="a_edge2_Node000002_Node000003"><a xlink:title=" ">
<path fill="none" stroke="#63b8ff" d="M279.32,-218.88C308.46,-225.69 344.53,-234.12 371.78,-240.48"/>
<polygon fill="#63b8ff" stroke="#63b8ff" points="279.87,-215.41 269.34,-216.54 278.28,-222.23 279.87,-215.41"/>
</a>
</g>
</g>
<!-- Node4 -->
<g id="Node000004" class="node">
<title>Node4</title>
<g id="a_Node000004"><a xlink:href="class_acts_1_1_single_cuboid_portal_shell.html" target="_top" xlink:title="This class describes a cuboid shell containing a single volume.">
<polygon fill="white" stroke="#666666" points="481.5,-222 345.5,-222 345.5,-192 481.5,-192 481.5,-222"/>
<text text-anchor="start" x="353.5" y="-210" font-family="Helvetica,sans-Serif" font-size="10.00">Acts::SingleCuboidPortal</text>
<text text-anchor="middle" x="413.5" y="-199" font-family="Helvetica,sans-Serif" font-size="10.00">Shell</text>
</a>
</g>
</g>
<!-- Node2&#45;&gt;Node4 -->
<g id="edge3_Node000002_Node000004" class="edge">
<title>Node2&#45;&gt;Node4</title>
<g id="a_edge3_Node000002_Node000004"><a xlink:title=" ">
<path fill="none" stroke="#63b8ff" d="M302.7,-207C316.75,-207 331.37,-207 345.2,-207"/>
<polygon fill="#63b8ff" stroke="#63b8ff" points="302.6,-203.5 292.6,-207 302.6,-210.5 302.6,-203.5"/>
</a>
</g>
</g>
<!-- Node6 -->
<g id="Node000006" class="node">
<title>Node6</title>
<g id="a_Node000006"><a xlink:href="class_acts_1_1_cylinder_stack_portal_shell.html" target="_top" xlink:title="This class describes a cylinder shell containing multiple volumes.">
<polygon fill="white" stroke="#666666" points="483.5,-174 343.5,-174 343.5,-144 483.5,-144 483.5,-174"/>
<text text-anchor="start" x="351.5" y="-162" font-family="Helvetica,sans-Serif" font-size="10.00">Acts::CylinderStackPortal</text>
<text text-anchor="middle" x="413.5" y="-151" font-family="Helvetica,sans-Serif" font-size="10.00">Shell</text>
</a>
</g>
</g>
<!-- Node5&#45;&gt;Node6 -->
<g id="edge5_Node000005_Node000006" class="edge">
<title>Node5&#45;&gt;Node6</title>
<g id="a_edge5_Node000005_Node000006"><a xlink:title=" ">
<path fill="none" stroke="#63b8ff" d="M275.28,-123.2C299.46,-129.51 329.17,-137.26 354.76,-143.94"/>
<polygon fill="#63b8ff" stroke="#63b8ff" points="275.85,-119.74 265.29,-120.6 274.09,-126.51 275.85,-119.74"/>
</a>
</g>
</g>
<!-- Node7 -->
<g id="Node000007" class="node">
<title>Node7</title>
<g id="a_Node000007"><a xlink:href="class_acts_1_1_single_cylinder_portal_shell.html" target="_top" xlink:title="This class describes a cylinder shell containing a single volume.">
<polygon fill="white" stroke="#666666" points="485,-126 342,-126 342,-96 485,-96 485,-126"/>
<text text-anchor="start" x="350" y="-114" font-family="Helvetica,sans-Serif" font-size="10.00">Acts::SingleCylinderPortal</text>
<text text-anchor="middle" x="413.5" y="-103" font-family="Helvetica,sans-Serif" font-size="10.00">Shell</text>
</a>
</g>
</g>
<!-- Node5&#45;&gt;Node7 -->
<g id="edge6_Node000005_Node000007" class="edge">
<title>Node5&#45;&gt;Node7</title>
<g id="a_edge6_Node000005_Node000007"><a xlink:title=" ">
<path fill="none" stroke="#63b8ff" d="M306.45,-111C318.19,-111 330.25,-111 341.83,-111"/>
<polygon fill="#63b8ff" stroke="#63b8ff" points="306.23,-107.5 296.23,-111 306.23,-114.5 306.23,-107.5"/>
</a>
</g>
</g>
<!-- Node9 -->
<g id="Node000009" class="node">
<title>Node9</title>
<g id="a_Node000009"><a xlink:href="class_acts_1_1_single_diamond_portal_shell.html" target="_top" xlink:title="Implementation of a portal shell class for a single convex polygon volume.">
<polygon fill="white" stroke="#666666" points="486.5,-78 340.5,-78 340.5,-48 486.5,-48 486.5,-78"/>
<text text-anchor="start" x="348.5" y="-66" font-family="Helvetica,sans-Serif" font-size="10.00">Acts::SingleDiamondPortal</text>
<text text-anchor="middle" x="413.5" y="-55" font-family="Helvetica,sans-Serif" font-size="10.00">Shell</text>
</a>
</g>
</g>
<!-- Node8&#45;&gt;Node9 -->
<g id="edge8_Node000008_Node000009" class="edge">
<title>Node8&#45;&gt;Node9</title>
<g id="a_edge8_Node000008_Node000009"><a xlink:title=" ">
<path fill="none" stroke="#63b8ff" d="M307.8,-65.85C318.6,-65.55 329.64,-65.25 340.31,-64.96"/>
<polygon fill="#63b8ff" stroke="#63b8ff" points="307.44,-62.35 297.54,-66.12 307.63,-69.35 307.44,-62.35"/>
</a>
</g>
</g>
<!-- Node11 -->
<g id="Node000011" class="node">
<title>Node11</title>
<g id="a_Node000011"><a xlink:href="class_acts_1_1_single_trapezoid_portal_shell.html" target="_top" xlink:title="This class describes a trapezoid shell containing a single volume.">
<polygon fill="white" stroke="#666666" points="488,-30 339,-30 339,0 488,0 488,-30"/>
<text text-anchor="start" x="347" y="-18" font-family="Helvetica,sans-Serif" font-size="10.00">Acts::SingleTrapezoidPortal</text>
<text text-anchor="middle" x="413.5" y="-7" font-family="Helvetica,sans-Serif" font-size="10.00">Shell</text>
</a>
</g>
</g>
<!-- Node10&#45;&gt;Node11 -->
<g id="edge10_Node000010_Node000011" class="edge">
<title>Node10&#45;&gt;Node11</title>
<g id="a_edge10_Node000010_Node000011"><a xlink:title=" ">
<path fill="none" stroke="#63b8ff" d="M309.25,-21.17C319.05,-20.59 329.03,-19.99 338.72,-19.41"/>
<polygon fill="#63b8ff" stroke="#63b8ff" points="308.89,-17.69 299.11,-21.78 309.3,-24.68 308.89,-17.69"/>
</a>
</g>
</g>
</g>
</svg>
</svg>

<style type='text/css'>
<![CDATA[
[data-mouse-over-selected='false'] { opacity: 0.7; }
[data-mouse-over-selected='true']  { opacity: 1.0; }
]]>
</style>
<script type="application/ecmascript"><![CDATA[
document.addEventListener('DOMContentLoaded', (event) => {
  highlightEdges();
  highlightAdjacentNodes();
});
]]></script>
</svg>
