<?xml version="1.0" encoding="UTF-8" standalone="no"?>
<!DOCTYPE svg PUBLIC "-//W3C//DTD SVG 1.1//EN"
 "http://www.w3.org/Graphics/SVG/1.1/DTD/svg11.dtd">
<!-- Generated by graphviz version 2.43.0 (0)
 -->
<!-- Title: Acts::MagneticFieldProvider Pages: 1 -->
<svg width="513pt" height="236pt"
 viewBox="0.00 0.00 513.00 235.50" xmlns="http://www.w3.org/2000/svg" xmlns:xlink="http://www.w3.org/1999/xlink">
<g id="graph0" class="graph" transform="scale(1 1) rotate(0) translate(4 231.5)">
<title>Acts::MagneticFieldProvider</title>
<!-- Node1 -->
<g id="Node000001" class="node">
<title>Node1</title>
<g id="a_Node000001"><a xlink:title="Base class for all magnetic field providers.">
<polygon fill="#999999" stroke="#666666" points="152,-122.5 0,-122.5 0,-103.5 152,-103.5 152,-122.5"/>
<text text-anchor="middle" x="76" y="-110.5" font-family="Helvetica,sans-Serif" font-size="10.00">Acts::MagneticFieldProvider</text>
</a>
</g>
</g>
<!-- Node2 -->
<g id="Node000002" class="node">
<title>Node2</title>
<g id="a_Node000002"><a xlink:href="class_acts_1_1_constant_b_field.html" target="_top" xlink:title="The simplest magnetic field implementation is a constant field, which returns the same field values a...">
<polygon fill="white" stroke="#666666" points="320.5,-227.5 203.5,-227.5 203.5,-208.5 320.5,-208.5 320.5,-227.5"/>
<text text-anchor="middle" x="262" y="-215.5" font-family="Helvetica,sans-Serif" font-size="10.00">Acts::ConstantBField</text>
</a>
</g>
</g>
<!-- Node1&#45;&gt;Node2 -->
<g id="edge1_Node000001_Node000002" class="edge">
<title>Node1&#45;&gt;Node2</title>
<g id="a_edge1_Node000001_Node000002"><a xlink:title=" ">
<path fill="none" stroke="#63b8ff" d="M93.75,-129.58C114.28,-148.98 150.92,-180.77 188,-199 195.76,-202.81 204.37,-205.92 212.87,-208.44"/>
<polygon fill="#63b8ff" stroke="#63b8ff" points="96.1,-126.98 86.47,-122.57 91.25,-132.02 96.1,-126.98"/>
</a>
</g>
</g>
<!-- Node3 -->
<g id="Node000003" class="node">
<title>Node3</title>
<g id="a_Node000003"><a xlink:href="class_acts_1_1_interpolated_magnetic_field.html" target="_top" xlink:title="Base class for interpolated magnetic field providers.">
<polygon fill="white" stroke="#666666" points="336,-190 188,-190 188,-160 336,-160 336,-190"/>
<text text-anchor="start" x="196" y="-178" font-family="Helvetica,sans-Serif" font-size="10.00">Acts::InterpolatedMagnetic</text>
<text text-anchor="middle" x="262" y="-167" font-family="Helvetica,sans-Serif" font-size="10.00">Field</text>
</a>
</g>
</g>
<!-- Node1&#45;&gt;Node3 -->
<g id="edge2_Node000001_Node000003" class="edge">
<title>Node1&#45;&gt;Node3</title>
<g id="a_edge2_Node000001_Node000003"><a xlink:title=" ">
<path fill="none" stroke="#63b8ff" d="M114.52,-125.97C136.01,-133.37 163.49,-142.78 188,-151 196.73,-153.93 206.05,-157.02 215.02,-159.98"/>
<polygon fill="#63b8ff" stroke="#63b8ff" points="115.39,-122.57 104.79,-122.62 113.11,-129.19 115.39,-122.57"/>
</a>
</g>
</g>
<!-- Node5 -->
<g id="Node000005" class="node">
<title>Node5</title>
<g id="a_Node000005"><a xlink:href="class_acts_1_1_multi_range_b_field.html" target="_top" xlink:title="Magnetic field provider modelling a magnetic field consisting of several (potentially overlapping) re...">
<polygon fill="white" stroke="#666666" points="326.5,-141.5 197.5,-141.5 197.5,-122.5 326.5,-122.5 326.5,-141.5"/>
<text text-anchor="middle" x="262" y="-129.5" font-family="Helvetica,sans-Serif" font-size="10.00">Acts::MultiRangeBField</text>
</a>
</g>
</g>
<!-- Node1&#45;&gt;Node5 -->
<g id="edge4_Node000001_Node000005" class="edge">
<title>Node1&#45;&gt;Node5</title>
<g id="a_edge4_Node000001_Node000005"><a xlink:title=" ">
<path fill="none" stroke="#63b8ff" d="M162.38,-121.82C174.14,-123.03 186.04,-124.26 197.31,-125.42"/>
<polygon fill="#63b8ff" stroke="#63b8ff" points="162.41,-118.3 152.11,-120.76 161.69,-125.26 162.41,-118.3"/>
</a>
</g>
</g>
<!-- Node6 -->
<g id="Node000006" class="node">
<title>Node6</title>
<g id="a_Node000006"><a xlink:href="class_acts_1_1_null_b_field.html" target="_top" xlink:title="Null bfield which returns 0 always.">
<polygon fill="white" stroke="#666666" points="308.5,-104.5 215.5,-104.5 215.5,-85.5 308.5,-85.5 308.5,-104.5"/>
<text text-anchor="middle" x="262" y="-92.5" font-family="Helvetica,sans-Serif" font-size="10.00">Acts::NullBField</text>
</a>
</g>
</g>
<!-- Node1&#45;&gt;Node6 -->
<g id="edge5_Node000001_Node000006" class="edge">
<title>Node1&#45;&gt;Node6</title>
<g id="a_edge5_Node000001_Node000006"><a xlink:title=" ">
<path fill="none" stroke="#63b8ff" d="M162.24,-104.66C180.59,-102.87 199.29,-101.04 215.42,-99.46"/>
<polygon fill="#63b8ff" stroke="#63b8ff" points="161.72,-101.2 152.11,-105.65 162.4,-108.16 161.72,-101.2"/>
</a>
</g>
</g>
<!-- Node7 -->
<g id="Node000007" class="node">
<title>Node7</title>
<g id="a_Node000007"><a xlink:href="class_acts_1_1_solenoid_b_field.html" target="_top" xlink:title="Analytical solenoid magnetic field implementation.">
<polygon fill="white" stroke="#666666" points="320,-67.5 204,-67.5 204,-48.5 320,-48.5 320,-67.5"/>
<text text-anchor="middle" x="262" y="-55.5" font-family="Helvetica,sans-Serif" font-size="10.00">Acts::SolenoidBField</text>
</a>
</g>
</g>
<!-- Node1&#45;&gt;Node7 -->
<g id="edge6_Node000001_Node000007" class="edge">
<title>Node1&#45;&gt;Node7</title>
<g id="a_edge6_Node000001_Node000007"><a xlink:title=" ">
<path fill="none" stroke="#63b8ff" d="M114.82,-100.12C136.21,-92.99 163.49,-84.16 188,-77 199.19,-73.73 211.42,-70.44 222.62,-67.54"/>
<polygon fill="#63b8ff" stroke="#63b8ff" points="113.51,-96.87 105.14,-103.36 115.74,-103.51 113.51,-96.87"/>
</a>
</g>
</g>
<!-- Node8 -->
<g id="Node000008" class="node">
<title>Node8</title>
<g id="a_Node000008"><a xlink:href="class_acts_plugins_1_1_d_d4hep_field_adapter.html" target="_top" xlink:title=" ">
<polygon fill="white" stroke="#666666" points="332.5,-30 191.5,-30 191.5,0 332.5,0 332.5,-30"/>
<text text-anchor="start" x="199.5" y="-18" font-family="Helvetica,sans-Serif" font-size="10.00">ActsPlugins::DD4hepField</text>
<text text-anchor="middle" x="262" y="-7" font-family="Helvetica,sans-Serif" font-size="10.00">Adapter</text>
</a>
</g>
</g>
<!-- Node1&#45;&gt;Node8 -->
<g id="edge7_Node000001_Node000008" class="edge">
<title>Node1&#45;&gt;Node8</title>
<g id="a_edge7_Node000001_Node000008"><a xlink:title=" ">
<path fill="none" stroke="#63b8ff" d="M97.45,-97.27C119.04,-81.23 154.51,-56.42 188,-40 195.46,-36.34 203.58,-32.99 211.62,-30.01"/>
<polygon fill="#63b8ff" stroke="#63b8ff" points="95.25,-94.55 89.36,-103.36 99.45,-100.14 95.25,-94.55"/>
</a>
</g>
</g>
<!-- Node4 -->
<g id="Node000004" class="node">
<title>Node4</title>
<g id="a_Node000004"><a xlink:href="class_acts_1_1_interpolated_b_field_map.html" target="_top" xlink:title="Interpolates magnetic field value from field values on a given grid.">
<polygon fill="white" stroke="#666666" points="505,-190 372,-190 372,-160 505,-160 505,-190"/>
<text text-anchor="start" x="380" y="-178" font-family="Helvetica,sans-Serif" font-size="10.00">Acts::InterpolatedBField</text>
<text text-anchor="middle" x="438.5" y="-167" font-family="Helvetica,sans-Serif" font-size="10.00">Map&lt; grid_t &gt;</text>
</a>
</g>
</g>
<!-- Node3&#45;&gt;Node4 -->
<g id="edge3_Node000003_Node000004" class="edge">
<title>Node3&#45;&gt;Node4</title>
<g id="a_edge3_Node000003_Node000004"><a xlink:title=" ">
<path fill="none" stroke="#63b8ff" d="M346.3,-175C354.91,-175 363.57,-175 371.94,-175"/>
<polygon fill="#63b8ff" stroke="#63b8ff" points="346.25,-171.5 336.25,-175 346.25,-178.5 346.25,-171.5"/>
</a>
</g>
</g>
</g>
</svg>
