<?xml version="1.0" encoding="UTF-8" standalone="no"?>
<!DOCTYPE svg PUBLIC "-//W3C//DTD SVG 1.1//EN"
 "http://www.w3.org/Graphics/SVG/1.1/DTD/svg11.dtd">
<!-- Generated by graphviz version 2.43.0 (0)
 -->
<!-- Title: Acts::CylinderVolumeStack Pages: 1 -->
<svg width="1082pt" height="179pt"
 viewBox="0.00 0.00 1082.00 179.00" xmlns="http://www.w3.org/2000/svg" xmlns:xlink="http://www.w3.org/1999/xlink">
<g id="graph0" class="graph" transform="scale(1 1) rotate(0) translate(4 175)">
<title>Acts::CylinderVolumeStack</title>
<!-- Node1 -->
<g id="Node000001" class="node">
<title>Node1</title>
<g id="a_Node000001"><a xlink:title="This class implements a z&#45;aligned or r&#45;aligned stack of cylinder volumes with synchronized bounds.">
<polygon fill="#999999" stroke="#666666" points="1074,-100.5 926,-100.5 926,-81.5 1074,-81.5 1074,-100.5"/>
<text text-anchor="middle" x="1000" y="-88.5" font-family="Helvetica,sans-Serif" font-size="10.00">Acts::CylinderVolumeStack</text>
</a>
</g>
</g>
<!-- Node2 -->
<g id="Node000002" class="node">
<title>Node2</title>
<g id="a_Node000002"><a xlink:href="class_acts_1_1_volume_stack.html" target="_top" xlink:title="A stack of volumes.">
<polygon fill="white" stroke="#666666" points="889,-100.5 782,-100.5 782,-81.5 889,-81.5 889,-100.5"/>
<text text-anchor="middle" x="835.5" y="-88.5" font-family="Helvetica,sans-Serif" font-size="10.00">Acts::VolumeStack</text>
</a>
</g>
</g>
<!-- Node2&#45;&gt;Node1 -->
<g id="edge1_Node000001_Node000002" class="edge">
<title>Node2&#45;&gt;Node1</title>
<g id="a_edge1_Node000001_Node000002"><a xlink:title=" ">
<path fill="none" stroke="#63b8ff" d="M899.3,-91C907.99,-91 916.98,-91 925.84,-91"/>
<polygon fill="#63b8ff" stroke="#63b8ff" points="899.26,-87.5 889.26,-91 899.26,-94.5 899.26,-87.5"/>
</a>
</g>
</g>
<!-- Node3 -->
<g id="Node000003" class="node">
<title>Node3</title>
<g id="a_Node000003"><a xlink:href="class_acts_1_1_volume.html" target="_top" xlink:title="It inherits from GeometryObject for geometry identification.">
<polygon fill="white" stroke="#666666" points="619,-163.5 539,-163.5 539,-144.5 619,-144.5 619,-163.5"/>
<text text-anchor="middle" x="579" y="-151.5" font-family="Helvetica,sans-Serif" font-size="10.00">Acts::Volume</text>
</a>
</g>
</g>
<!-- Node3&#45;&gt;Node2 -->
<g id="edge2_Node000002_Node000003" class="edge">
<title>Node3&#45;&gt;Node2</title>
<g id="a_edge2_Node000002_Node000003"><a xlink:title=" ">
<path fill="none" stroke="#63b8ff" d="M629.3,-149.7C666.84,-145.53 719.48,-137.76 764,-124 783.11,-118.09 803.69,-107.99 817.65,-100.51"/>
<polygon fill="#63b8ff" stroke="#63b8ff" points="628.7,-146.24 619.13,-150.78 629.44,-153.2 628.7,-146.24"/>
</a>
</g>
</g>
<!-- Node4 -->
<g id="Node000004" class="node">
<title>Node4</title>
<g id="a_Node000004"><a xlink:href="class_acts_1_1_geometry_object.html" target="_top" xlink:title="Base class to provide GeometryIdentifier interface:">
<polygon fill="white" stroke="#666666" points="374,-163.5 250,-163.5 250,-144.5 374,-144.5 374,-163.5"/>
<text text-anchor="middle" x="312" y="-151.5" font-family="Helvetica,sans-Serif" font-size="10.00">Acts::GeometryObject</text>
</a>
</g>
</g>
<!-- Node4&#45;&gt;Node3 -->
<g id="edge3_Node000003_Node000004" class="edge">
<title>Node4&#45;&gt;Node3</title>
<g id="a_edge3_Node000003_Node000004"><a xlink:title=" ">
<path fill="none" stroke="#63b8ff" d="M384.18,-154C433.87,-154 498.33,-154 538.94,-154"/>
<polygon fill="#63b8ff" stroke="#63b8ff" points="384.13,-150.5 374.13,-154 384.13,-157.5 384.13,-150.5"/>
</a>
</g>
</g>
<!-- Node5 -->
<g id="Node000005" class="node">
<title>Node5</title>
<g id="a_Node000005"><a xlink:href="class_acts_1_1_geometry_identifier.html" target="_top" xlink:title="Identifier for geometry nodes within the geometry hierarchy.">
<polygon fill="white" stroke="#666666" points="136,-163.5 0,-163.5 0,-144.5 136,-144.5 136,-163.5"/>
<text text-anchor="middle" x="68" y="-151.5" font-family="Helvetica,sans-Serif" font-size="10.00">Acts::GeometryIdentifier</text>
</a>
</g>
</g>
<!-- Node5&#45;&gt;Node4 -->
<g id="edge4_Node000004_Node000005" class="edge">
<title>Node5&#45;&gt;Node4</title>
<g id="a_edge4_Node000004_Node000005"><a xlink:title=" ">
<path fill="none" stroke="#9a32cd" stroke-dasharray="5,2" d="M146.31,-154C179.84,-154 218.54,-154 249.99,-154"/>
<polygon fill="#9a32cd" stroke="#9a32cd" points="146.09,-150.5 136.09,-154 146.09,-157.5 146.09,-150.5"/>
</a>
</g>
<text text-anchor="start" x="157" y="-159.5" font-family="Helvetica,sans-Serif" font-size="10.00" fill="grey">m_geometryId</text>
</g>
<!-- Node6 -->
<g id="Node000006" class="node">
<title>Node6</title>
<g id="a_Node000006"><a xlink:href="struct_acts_1_1_volume_stack_1_1_resize_strategies.html" target="_top" xlink:title=" ">
<polygon fill="white" stroke="#666666" points="635.5,-126 522.5,-126 522.5,-96 635.5,-96 635.5,-126"/>
<text text-anchor="start" x="530.5" y="-114" font-family="Helvetica,sans-Serif" font-size="10.00">Acts::VolumeStack::</text>
<text text-anchor="middle" x="579" y="-103" font-family="Helvetica,sans-Serif" font-size="10.00">ResizeStrategies</text>
</a>
</g>
</g>
<!-- Node6&#45;&gt;Node2 -->
<g id="edge5_Node000002_Node000006" class="edge">
<title>Node6&#45;&gt;Node2</title>
<g id="a_edge5_Node000002_Node000006"><a xlink:title=" ">
<path fill="none" stroke="#9a32cd" stroke-dasharray="5,2" d="M645.74,-105.83C688.01,-102.51 742.22,-98.25 781.69,-95.15"/>
<polygon fill="#9a32cd" stroke="#9a32cd" points="645.23,-102.36 635.54,-106.64 645.78,-109.34 645.23,-102.36"/>
</a>
</g>
<text text-anchor="start" x="667" y="-108.5" font-family="Helvetica,sans-Serif" font-size="10.00" fill="grey">m_resizeStrategies</text>
</g>
<!-- Node7 -->
<g id="Node000007" class="node">
<title>Node7</title>
<g id="a_Node000007"><a xlink:title=" ">
<polygon fill="white" stroke="#666666" points="646,-78 512,-78 512,-48 646,-48 646,-78"/>
<text text-anchor="start" x="520" y="-66" font-family="Helvetica,sans-Serif" font-size="10.00">std::vector&lt; std::shared</text>
<text text-anchor="middle" x="579" y="-55" font-family="Helvetica,sans-Serif" font-size="10.00">_ptr&lt; Acts::Volume &gt; &gt;</text>
</a>
</g>
</g>
<!-- Node7&#45;&gt;Node2 -->
<g id="edge6_Node000002_Node000007" class="edge">
<title>Node7&#45;&gt;Node2</title>
<g id="a_edge6_Node000002_Node000007"><a xlink:title=" ">
<path fill="none" stroke="#9a32cd" stroke-dasharray="5,2" d="M656.36,-65.27C689.56,-66.96 728.83,-69.89 764,-75 774.93,-76.59 786.68,-78.97 797.39,-81.42"/>
<polygon fill="#9a32cd" stroke="#9a32cd" points="656.42,-61.77 646.26,-64.79 656.09,-68.77 656.42,-61.77"/>
</a>
</g>
<text text-anchor="start" x="695" y="-80.5" font-family="Helvetica,sans-Serif" font-size="10.00" fill="grey">m_gaps</text>
</g>
<!-- Node8 -->
<g id="Node000008" class="node">
<title>Node8</title>
<g id="a_Node000008"><a xlink:title=" ">
<polygon fill="white" stroke="#666666" points="360.5,-48.5 263.5,-48.5 263.5,-29.5 360.5,-29.5 360.5,-48.5"/>
<text text-anchor="middle" x="312" y="-36.5" font-family="Helvetica,sans-Serif" font-size="10.00">std::vector&lt; T &gt;</text>
</a>
</g>
</g>
<!-- Node8&#45;&gt;Node7 -->
<g id="edge7_Node000007_Node000008" class="edge">
<title>Node8&#45;&gt;Node7</title>
<g id="a_edge7_Node000007_Node000008"><a xlink:title=" ">
<path fill="none" stroke="orange" stroke-dasharray="5,2" d="M370.65,-44.22C412.2,-47.98 468.38,-53.07 511.78,-57"/>
<polygon fill="orange" stroke="orange" points="370.96,-40.73 360.68,-43.32 370.33,-47.71 370.96,-40.73"/>
</a>
</g>
<text text-anchor="start" x="395" y="-77" font-family="Helvetica,sans-Serif" font-size="10.00" fill="grey">&lt; std::shared_ptr&lt;</text>
<text text-anchor="start" x="395" y="-62" font-family="Helvetica,sans-Serif" font-size="10.00" fill="grey">   Acts::Volume &gt; &gt;</text>
</g>
<!-- Node9 -->
<g id="Node000009" class="node">
<title>Node9</title>
<g id="a_Node000009"><a xlink:title=" ">
<polygon fill="white" stroke="#666666" points="632.5,-30 525.5,-30 525.5,0 632.5,0 632.5,-30"/>
<text text-anchor="start" x="533.5" y="-18" font-family="Helvetica,sans-Serif" font-size="10.00">std::vector&lt; Acts::</text>
<text text-anchor="middle" x="579" y="-7" font-family="Helvetica,sans-Serif" font-size="10.00">Volume * &gt;</text>
</a>
</g>
</g>
<!-- Node8&#45;&gt;Node9 -->
<g id="edge9_Node000009_Node000008" class="edge">
<title>Node8&#45;&gt;Node9</title>
<g id="a_edge9_Node000009_Node000008"><a xlink:title=" ">
<path fill="none" stroke="orange" stroke-dasharray="5,2" d="M370.84,-28.77C377.95,-27.72 385.13,-26.77 392,-26 436.85,-21 488.05,-18.18 525.36,-16.65"/>
<polygon fill="orange" stroke="orange" points="369.87,-25.38 360.51,-30.36 370.93,-32.3 369.87,-25.38"/>
</a>
</g>
<text text-anchor="start" x="396" y="-31.5" font-family="Helvetica,sans-Serif" font-size="10.00" fill="grey">&lt; Acts::Volume * &gt;</text>
</g>
<!-- Node9&#45;&gt;Node2 -->
<g id="edge8_Node000002_Node000009" class="edge">
<title>Node9&#45;&gt;Node2</title>
<g id="a_edge8_Node000002_Node000009"><a xlink:title=" ">
<path fill="none" stroke="#9a32cd" stroke-dasharray="5,2" d="M642.72,-18.18C679.13,-21.65 725.31,-28.9 764,-44 787.02,-52.99 810.19,-70.42 823.4,-81.34"/>
<polygon fill="#9a32cd" stroke="#9a32cd" points="642.99,-14.69 632.72,-17.29 642.37,-21.66 642.99,-14.69"/>
</a>
</g>
<text text-anchor="start" x="685" y="-49.5" font-family="Helvetica,sans-Serif" font-size="10.00" fill="grey">m_volumes</text>
</g>
</g>
</svg>
