<?xml version="1.0" encoding="UTF-8" standalone="no"?>
<!DOCTYPE svg PUBLIC "-//W3C//DTD SVG 1.1//EN"
 "http://www.w3.org/Graphics/SVG/1.1/DTD/svg11.dtd">
<!-- Generated by graphviz version 2.43.0 (0)
 -->
<!-- Title: Acts::NavigationLayer Pages: 1 -->
<svg width="1485pt" height="375pt"
 viewBox="0.00 0.00 1485.00 375.28" xmlns="http://www.w3.org/2000/svg" xmlns:xlink="http://www.w3.org/1999/xlink">
<g id="graph0" class="graph" transform="scale(1 1) rotate(0) translate(4 371.28)">
<title>Acts::NavigationLayer</title>
<!-- Node1 -->
<g id="Node000001" class="node">
<title>Node1</title>
<g id="a_Node000001"><a xlink:title="Class to be used for gaps in Volumes as a navigational link.">
<polygon fill="#999999" stroke="#666666" points="1477,-110 1353,-110 1353,-91 1477,-91 1477,-110"/>
<text text-anchor="middle" x="1415" y="-98" font-family="Helvetica,sans-Serif" font-size="10.00">Acts::NavigationLayer</text>
</a>
</g>
</g>
<!-- Node2 -->
<g id="Node000002" class="node">
<title>Node2</title>
<g id="a_Node000002"><a xlink:href="class_acts_1_1_layer.html" target="_top" xlink:title="Base Class for a Detector Layer in the Tracking Geometry.">
<polygon fill="white" stroke="#666666" points="1157,-180 1086,-180 1086,-161 1157,-161 1157,-180"/>
<text text-anchor="middle" x="1121.5" y="-168" font-family="Helvetica,sans-Serif" font-size="10.00">Acts::Layer</text>
</a>
</g>
</g>
<!-- Node2&#45;&gt;Node1 -->
<g id="edge1_Node000001_Node000002" class="edge">
<title>Node2&#45;&gt;Node1</title>
<g id="a_edge1_Node000001_Node000002"><a xlink:title=" ">
<path fill="none" stroke="#63b8ff" d="M1167.16,-159.78C1223.71,-146.2 1320.28,-123 1374.35,-110.02"/>
<polygon fill="#63b8ff" stroke="#63b8ff" points="1165.99,-156.46 1157.08,-162.2 1167.62,-163.26 1165.99,-156.46"/>
</a>
</g>
</g>
<!-- Node3 -->
<g id="Node000003" class="node">
<title>Node3</title>
<g id="a_Node000003"><a xlink:href="class_acts_1_1_geometry_object.html" target="_top" xlink:title="Base class to provide GeometryIdentifier interface:">
<polygon fill="white" stroke="#666666" points="374,-306 250,-306 250,-287 374,-287 374,-306"/>
<text text-anchor="middle" x="312" y="-294" font-family="Helvetica,sans-Serif" font-size="10.00">Acts::GeometryObject</text>
</a>
</g>
</g>
<!-- Node3&#45;&gt;Node2 -->
<g id="edge2_Node000002_Node000003" class="edge">
<title>Node3&#45;&gt;Node2</title>
<g id="a_edge2_Node000002_Node000003"><a xlink:title=" ">
<path fill="none" stroke="#63b8ff" d="M352.26,-308.94C466.93,-342.81 807.89,-425.89 1040,-297.5 1087.06,-271.47 1110.51,-205.1 1117.87,-180.16"/>
<polygon fill="#63b8ff" stroke="#63b8ff" points="353.09,-305.53 342.5,-306.01 351.08,-312.24 353.09,-305.53"/>
</a>
</g>
</g>
<!-- Node12 -->
<g id="Node000012" class="node">
<title>Node12</title>
<g id="a_Node000012"><a xlink:href="class_acts_1_1_volume.html" target="_top" xlink:title="It inherits from GeometryObject for geometry identification.">
<polygon fill="white" stroke="#666666" points="510,-287 430,-287 430,-268 510,-268 510,-287"/>
<text text-anchor="middle" x="470" y="-275" font-family="Helvetica,sans-Serif" font-size="10.00">Acts::Volume</text>
</a>
</g>
</g>
<!-- Node3&#45;&gt;Node12 -->
<g id="edge13_Node000012_Node000003" class="edge">
<title>Node3&#45;&gt;Node12</title>
<g id="a_edge13_Node000012_Node000003"><a xlink:title=" ">
<path fill="none" stroke="#63b8ff" d="M384.44,-287.8C400.12,-285.89 416.16,-283.94 430,-282.25"/>
<polygon fill="#63b8ff" stroke="#63b8ff" points="383.71,-284.36 374.21,-289.05 384.56,-291.31 383.71,-284.36"/>
</a>
</g>
</g>
<!-- Node4 -->
<g id="Node000004" class="node">
<title>Node4</title>
<g id="a_Node000004"><a xlink:href="class_acts_1_1_geometry_identifier.html" target="_top" xlink:title="Identifier for geometry nodes within the geometry hierarchy.">
<polygon fill="white" stroke="#666666" points="136,-306 0,-306 0,-287 136,-287 136,-306"/>
<text text-anchor="middle" x="68" y="-294" font-family="Helvetica,sans-Serif" font-size="10.00">Acts::GeometryIdentifier</text>
</a>
</g>
</g>
<!-- Node4&#45;&gt;Node3 -->
<g id="edge3_Node000003_Node000004" class="edge">
<title>Node4&#45;&gt;Node3</title>
<g id="a_edge3_Node000003_Node000004"><a xlink:title=" ">
<path fill="none" stroke="#9a32cd" stroke-dasharray="5,2" d="M146.31,-296.5C179.84,-296.5 218.54,-296.5 249.99,-296.5"/>
<polygon fill="#9a32cd" stroke="#9a32cd" points="146.09,-293 136.09,-296.5 146.09,-300 146.09,-293"/>
</a>
</g>
<text text-anchor="start" x="157" y="-302" font-family="Helvetica,sans-Serif" font-size="10.00" fill="grey">m_geometryId</text>
</g>
<!-- Node5 -->
<g id="Node000005" class="node">
<title>Node5</title>
<g id="a_Node000005"><a xlink:title=" ">
<polygon fill="white" stroke="#666666" points="885,-249.5 761,-249.5 761,-219.5 885,-219.5 885,-249.5"/>
<text text-anchor="start" x="769" y="-237.5" font-family="Helvetica,sans-Serif" font-size="10.00">std::pair&lt; const Layer</text>
<text text-anchor="middle" x="823" y="-226.5" font-family="Helvetica,sans-Serif" font-size="10.00"> *, const Layer * &gt;</text>
</a>
</g>
</g>
<!-- Node5&#45;&gt;Node2 -->
<g id="edge4_Node000002_Node000005" class="edge">
<title>Node5&#45;&gt;Node2</title>
<g id="a_edge4_Node000002_Node000005"><a xlink:title=" ">
<path fill="none" stroke="#9a32cd" stroke-dasharray="5,2" d="M895.42,-229.9C937.99,-225.93 992.76,-218.67 1040,-205.5 1062.31,-199.28 1086.51,-188.11 1102.49,-180.06"/>
<polygon fill="#9a32cd" stroke="#9a32cd" points="895.08,-226.42 885.43,-230.79 895.7,-233.39 895.08,-226.42"/>
</a>
</g>
<text text-anchor="start" x="944" y="-233" font-family="Helvetica,sans-Serif" font-size="10.00" fill="grey">m_nextLayers</text>
</g>
<!-- Node6 -->
<g id="Node000006" class="node">
<title>Node6</title>
<g id="a_Node000006"><a xlink:title=" ">
<polygon fill="white" stroke="#666666" points="524.5,-240 415.5,-240 415.5,-221 524.5,-221 524.5,-240"/>
<text text-anchor="middle" x="470" y="-228" font-family="Helvetica,sans-Serif" font-size="10.00">std::pair&lt; T1, T2 &gt;</text>
</a>
</g>
</g>
<!-- Node6&#45;&gt;Node5 -->
<g id="edge5_Node000005_Node000006" class="edge">
<title>Node6&#45;&gt;Node5</title>
<g id="a_edge5_Node000005_Node000006"><a xlink:title=" ">
<path fill="none" stroke="orange" stroke-dasharray="5,2" d="M534.71,-231.23C599,-231.96 697.6,-233.08 760.94,-233.8"/>
<polygon fill="orange" stroke="orange" points="534.73,-227.73 524.69,-231.11 534.65,-234.73 534.73,-227.73"/>
</a>
</g>
<text text-anchor="start" x="583.5" y="-253.5" font-family="Helvetica,sans-Serif" font-size="10.00" fill="grey">&lt; const Layer *, const</text>
<text text-anchor="start" x="583.5" y="-238.5" font-family="Helvetica,sans-Serif" font-size="10.00" fill="grey">   Layer * &gt;</text>
</g>
<!-- Node7 -->
<g id="Node000007" class="node">
<title>Node7</title>
<g id="a_Node000007"><a xlink:href="class_acts_1_1_bin_utility.html" target="_top" xlink:title="The BinUtility class that translated global and local position into a bins of a BinnedArray,...">
<polygon fill="white" stroke="#666666" points="867.5,-201 778.5,-201 778.5,-182 867.5,-182 867.5,-201"/>
<text text-anchor="middle" x="823" y="-189" font-family="Helvetica,sans-Serif" font-size="10.00">Acts::BinUtility</text>
</a>
</g>
</g>
<!-- Node7&#45;&gt;Node2 -->
<g id="edge6_Node000002_Node000007" class="edge">
<title>Node7&#45;&gt;Node2</title>
<g id="a_edge6_Node000002_Node000007"><a xlink:title=" ">
<path fill="none" stroke="#9a32cd" stroke-dasharray="5,2" d="M877.87,-187.68C938.32,-183.4 1034.63,-176.58 1085.83,-172.96"/>
<polygon fill="#9a32cd" stroke="#9a32cd" points="877.48,-184.2 867.75,-188.4 877.97,-191.19 877.48,-184.2"/>
</a>
</g>
<text text-anchor="start" x="932" y="-190" font-family="Helvetica,sans-Serif" font-size="10.00" fill="grey">m_nextLayerUtility</text>
</g>
<!-- Node8 -->
<g id="Node000008" class="node">
<title>Node8</title>
<g id="a_Node000008"><a xlink:title=" ">
<polygon fill="white" stroke="#666666" points="886.5,-163.5 759.5,-163.5 759.5,-133.5 886.5,-133.5 886.5,-163.5"/>
<text text-anchor="start" x="767.5" y="-151.5" font-family="Helvetica,sans-Serif" font-size="10.00">std::unique_ptr&lt; const</text>
<text text-anchor="middle" x="823" y="-140.5" font-family="Helvetica,sans-Serif" font-size="10.00"> Acts::SurfaceArray &gt;</text>
</a>
</g>
</g>
<!-- Node8&#45;&gt;Node2 -->
<g id="edge7_Node000002_Node000008" class="edge">
<title>Node8&#45;&gt;Node2</title>
<g id="a_edge7_Node000002_Node000008"><a xlink:title=" ">
<path fill="none" stroke="#9a32cd" stroke-dasharray="5,2" d="M896.7,-148.11C938.69,-148.57 992.45,-150.33 1040,-155.5 1055.12,-157.14 1071.67,-160.03 1085.8,-162.84"/>
<polygon fill="#9a32cd" stroke="#9a32cd" points="896.59,-144.61 886.56,-148.02 896.53,-151.61 896.59,-144.61"/>
</a>
</g>
<text text-anchor="start" x="940" y="-161" font-family="Helvetica,sans-Serif" font-size="10.00" fill="grey">m_surfaceArray</text>
</g>
<!-- Node9 -->
<g id="Node000009" class="node">
<title>Node9</title>
<g id="a_Node000009"><a xlink:title=" ">
<polygon fill="white" stroke="#666666" points="529,-110 411,-110 411,-91 529,-91 529,-110"/>
<text text-anchor="middle" x="470" y="-98" font-family="Helvetica,sans-Serif" font-size="10.00">std::unique_ptr&lt; T &gt;</text>
</a>
</g>
</g>
<!-- Node9&#45;&gt;Node8 -->
<g id="edge8_Node000008_Node000009" class="edge">
<title>Node9&#45;&gt;Node8</title>
<g id="a_edge8_Node000008_Node000009"><a xlink:title=" ">
<path fill="none" stroke="orange" stroke-dasharray="5,2" d="M510.86,-112.9C522.43,-116.12 535.13,-119.29 547,-121.5 619.16,-134.91 703.3,-141.93 759.32,-145.42"/>
<polygon fill="orange" stroke="orange" points="511.63,-109.48 501.05,-110.08 509.7,-116.21 511.63,-109.48"/>
</a>
</g>
<text text-anchor="start" x="566.5" y="-148" font-family="Helvetica,sans-Serif" font-size="10.00" fill="grey">&lt; const Acts::SurfaceArray &gt;</text>
</g>
<!-- Node10 -->
<g id="Node000010" class="node">
<title>Node10</title>
<g id="a_Node000010"><a xlink:title=" ">
<polygon fill="white" stroke="#666666" points="900,-115.5 746,-115.5 746,-85.5 900,-85.5 900,-115.5"/>
<text text-anchor="start" x="754" y="-103.5" font-family="Helvetica,sans-Serif" font-size="10.00">std::unique_ptr&lt; const</text>
<text text-anchor="middle" x="823" y="-92.5" font-family="Helvetica,sans-Serif" font-size="10.00"> Acts::ApproachDescriptor &gt;</text>
</a>
</g>
</g>
<!-- Node9&#45;&gt;Node10 -->
<g id="edge10_Node000010_Node000009" class="edge">
<title>Node9&#45;&gt;Node10</title>
<g id="a_edge10_Node000010_Node000009"><a xlink:title=" ">
<path fill="none" stroke="orange" stroke-dasharray="5,2" d="M539.36,-100.5C598.6,-100.5 684.23,-100.5 745.69,-100.5"/>
<polygon fill="orange" stroke="orange" points="539.35,-97 529.35,-100.5 539.35,-104 539.35,-97"/>
</a>
</g>
<text text-anchor="start" x="550.5" y="-106" font-family="Helvetica,sans-Serif" font-size="10.00" fill="grey">&lt; const Acts::ApproachDescriptor &gt;</text>
</g>
<!-- Node13 -->
<g id="Node000013" class="node">
<title>Node13</title>
<g id="a_Node000013"><a xlink:title=" ">
<polygon fill="white" stroke="#666666" points="884,-67.5 762,-67.5 762,-37.5 884,-37.5 884,-67.5"/>
<text text-anchor="start" x="770" y="-55.5" font-family="Helvetica,sans-Serif" font-size="10.00">std::unique_ptr&lt; Acts</text>
<text text-anchor="middle" x="823" y="-44.5" font-family="Helvetica,sans-Serif" font-size="10.00">::Volume &gt;</text>
</a>
</g>
</g>
<!-- Node9&#45;&gt;Node13 -->
<g id="edge15_Node000013_Node000009" class="edge">
<title>Node9&#45;&gt;Node13</title>
<g id="a_edge15_Node000013_Node000009"><a xlink:title=" ">
<path fill="none" stroke="orange" stroke-dasharray="5,2" d="M510.86,-88.1C522.43,-84.88 535.13,-81.71 547,-79.5 620.22,-65.89 705.77,-58.86 761.77,-55.43"/>
<polygon fill="orange" stroke="orange" points="509.7,-84.79 501.05,-90.92 511.63,-91.52 509.7,-84.79"/>
</a>
</g>
<text text-anchor="start" x="594.5" y="-85" font-family="Helvetica,sans-Serif" font-size="10.00" fill="grey">&lt; Acts::Volume &gt;</text>
</g>
<!-- Node10&#45;&gt;Node2 -->
<g id="edge9_Node000002_Node000010" class="edge">
<title>Node10&#45;&gt;Node2</title>
<g id="a_edge9_Node000002_Node000010"><a xlink:title=" ">
<path fill="none" stroke="#9a32cd" stroke-dasharray="5,2" d="M910.21,-104.04C950.4,-107.51 998.41,-114.29 1040,-127.5 1064.77,-135.36 1090.84,-150.8 1106.38,-160.88"/>
<polygon fill="#9a32cd" stroke="#9a32cd" points="910.42,-100.54 900.17,-103.22 909.86,-107.52 910.42,-100.54"/>
</a>
</g>
<text text-anchor="start" x="924" y="-133" font-family="Helvetica,sans-Serif" font-size="10.00" fill="grey">m_approachDescriptor</text>
</g>
<!-- Node11 -->
<g id="Node000011" class="node">
<title>Node11</title>
<g id="a_Node000011"><a xlink:href="class_acts_1_1_tracking_volume.html" target="_top" xlink:title="Full Volume description used in Tracking, it inherits from Volume to get the geometrical structure.">
<polygon fill="white" stroke="#666666" points="883.5,-287 762.5,-287 762.5,-268 883.5,-268 883.5,-287"/>
<text text-anchor="middle" x="823" y="-275" font-family="Helvetica,sans-Serif" font-size="10.00">Acts::TrackingVolume</text>
</a>
</g>
</g>
<!-- Node11&#45;&gt;Node2 -->
<g id="edge11_Node000002_Node000011" class="edge">
<title>Node11&#45;&gt;Node2</title>
<g id="a_edge11_Node000002_Node000011"><a xlink:title=" ">
<path fill="none" stroke="#9a32cd" stroke-dasharray="5,2" d="M893.73,-279.08C937.68,-277.49 994.52,-270.56 1040,-248.5 1073.27,-232.37 1101.5,-197.22 1113.84,-180.16"/>
<polygon fill="#9a32cd" stroke="#9a32cd" points="893.6,-275.58 883.71,-279.36 893.8,-282.58 893.6,-275.58"/>
</a>
</g>
<text text-anchor="start" x="933" y="-282" font-family="Helvetica,sans-Serif" font-size="10.00" fill="grey">m_trackingVolume</text>
</g>
<!-- Node12&#45;&gt;Node11 -->
<g id="edge12_Node000011_Node000012" class="edge">
<title>Node12&#45;&gt;Node11</title>
<g id="a_edge12_Node000011_Node000012"><a xlink:title=" ">
<path fill="none" stroke="#63b8ff" d="M520.4,-277.5C583.91,-277.5 694.11,-277.5 762.26,-277.5"/>
<polygon fill="#63b8ff" stroke="#63b8ff" points="520.24,-274 510.24,-277.5 520.24,-281 520.24,-274"/>
</a>
</g>
</g>
<!-- Node13&#45;&gt;Node2 -->
<g id="edge14_Node000002_Node000013" class="edge">
<title>Node13&#45;&gt;Node2</title>
<g id="a_edge14_Node000002_Node000013"><a xlink:title=" ">
<path fill="none" stroke="#9a32cd" stroke-dasharray="5,2" d="M894.3,-50.64C938.48,-52.27 995.35,-59.67 1040,-83.5 1050.55,-89.13 1049.92,-94.68 1058,-103.5 1076.7,-123.91 1098.85,-147.53 1111.13,-160.56"/>
<polygon fill="#9a32cd" stroke="#9a32cd" points="894.31,-47.14 884.22,-50.36 894.12,-54.14 894.31,-47.14"/>
</a>
</g>
<text text-anchor="start" x="922" y="-89" font-family="Helvetica,sans-Serif" font-size="10.00" fill="grey">m_representingVolume</text>
</g>
<!-- Node14 -->
<g id="Node000014" class="node">
<title>Node14</title>
<g id="a_Node000014"><a xlink:title=" ">
<polygon fill="white" stroke="#666666" points="1185,-94.5 1058,-94.5 1058,-64.5 1185,-64.5 1185,-94.5"/>
<text text-anchor="start" x="1066" y="-82.5" font-family="Helvetica,sans-Serif" font-size="10.00">std::shared_ptr&lt; const</text>
<text text-anchor="middle" x="1121.5" y="-71.5" font-family="Helvetica,sans-Serif" font-size="10.00"> Acts::Surface &gt;</text>
</a>
</g>
</g>
<!-- Node14&#45;&gt;Node1 -->
<g id="edge16_Node000001_Node000014" class="edge">
<title>Node14&#45;&gt;Node1</title>
<g id="a_edge16_Node000001_Node000014"><a xlink:title=" ">
<path fill="none" stroke="#9a32cd" stroke-dasharray="5,2" d="M1195.57,-80.64C1236.63,-81.77 1288.75,-84.02 1335,-88.5 1341.9,-89.17 1349.12,-90.03 1356.28,-90.99"/>
<polygon fill="#9a32cd" stroke="#9a32cd" points="1195.47,-77.14 1185.39,-80.38 1195.29,-84.13 1195.47,-77.14"/>
</a>
</g>
<text text-anchor="start" x="1206" y="-94" font-family="Helvetica,sans-Serif" font-size="10.00" fill="grey">m_surfaceRepresentation</text>
</g>
<!-- Node15 -->
<g id="Node000015" class="node">
<title>Node15</title>
<g id="a_Node000015"><a xlink:title=" ">
<polygon fill="white" stroke="#666666" points="882,-19 764,-19 764,0 882,0 882,-19"/>
<text text-anchor="middle" x="823" y="-7" font-family="Helvetica,sans-Serif" font-size="10.00">std::shared_ptr&lt; T &gt;</text>
</a>
</g>
</g>
<!-- Node15&#45;&gt;Node14 -->
<g id="edge17_Node000014_Node000015" class="edge">
<title>Node15&#45;&gt;Node14</title>
<g id="a_edge17_Node000014_Node000015"><a xlink:title=" ">
<path fill="none" stroke="orange" stroke-dasharray="5,2" d="M892.38,-2.08C935.9,0.17 992.75,-1.52 1040,-18.5 1066.57,-28.05 1091.56,-49.71 1106.45,-64.48"/>
<polygon fill="orange" stroke="orange" points="891.96,1.4 882.19,-2.69 892.38,-5.59 891.96,1.4"/>
</a>
</g>
<text text-anchor="start" x="921" y="-24" font-family="Helvetica,sans-Serif" font-size="10.00" fill="grey">&lt; const Acts::Surface &gt;</text>
</g>
</g>
</svg>
