<?xml version="1.0" encoding="UTF-8" standalone="no"?>
<!DOCTYPE svg PUBLIC "-//W3C//DTD SVG 1.1//EN"
 "http://www.w3.org/Graphics/SVG/1.1/DTD/svg11.dtd">
<!-- Generated by graphviz version 2.43.0 (0)
 -->
<!-- Title: Acts::MultiStepperLoop&lt; single_stepper_t, component_reducer_t &gt; Pages: 1 -->
<svg width="235pt" height="214pt"
 viewBox="0.00 0.00 234.50 214.00" xmlns="http://www.w3.org/2000/svg" xmlns:xlink="http://www.w3.org/1999/xlink">
<g id="graph0" class="graph" transform="scale(1 1) rotate(0) translate(4 210)">
<title>Acts::MultiStepperLoop&lt; single_stepper_t, component_reducer_t &gt;</title>
<!-- Node1 -->
<g id="Node000001" class="node">
<title>Node1</title>
<g id="a_Node000001"><a xlink:title="Stepper based on a single&#45;component stepper, but can handle Multi&#45;Component Tracks (e....">
<polygon fill="#999999" stroke="#666666" points="169,-150 0,-150 0,-109 169,-109 169,-150"/>
<text text-anchor="start" x="8" y="-138" font-family="Helvetica,sans-Serif" font-size="10.00">Acts::MultiStepperLoop</text>
<text text-anchor="start" x="8" y="-127" font-family="Helvetica,sans-Serif" font-size="10.00">&lt; single_stepper_t, component</text>
<text text-anchor="middle" x="84.5" y="-116" font-family="Helvetica,sans-Serif" font-size="10.00">_reducer_t &gt;</text>
</a>
</g>
</g>
<!-- Node3 -->
<g id="Node000003" class="node">
<title>Node3</title>
<g id="a_Node000003"><a xlink:href="class_acts_1_1_multi_stepper_loop.html" target="_top" xlink:title=" ">
<polygon fill="white" stroke="#666666" points="160.5,-41 8.5,-41 8.5,0 160.5,0 160.5,-41"/>
<text text-anchor="start" x="16.5" y="-29" font-family="Helvetica,sans-Serif" font-size="10.00">Acts::MultiStepperLoop</text>
<text text-anchor="start" x="16.5" y="-18" font-family="Helvetica,sans-Serif" font-size="10.00">&lt; EigenStepper&lt; extension</text>
<text text-anchor="middle" x="84.5" y="-7" font-family="Helvetica,sans-Serif" font-size="10.00">_t &gt;, reducer_t &gt;</text>
</a>
</g>
</g>
<!-- Node1&#45;&gt;Node3 -->
<g id="edge2_Node000001_Node000003" class="edge">
<title>Node1&#45;&gt;Node3</title>
<g id="a_edge2_Node000001_Node000003"><a xlink:title=" ">
<path fill="none" stroke="orange" stroke-dasharray="5,2" d="M84.5,-98.65C84.5,-80.22 84.5,-57.1 84.5,-41"/>
<polygon fill="orange" stroke="orange" points="81,-98.87 84.5,-108.87 88,-98.87 81,-98.87"/>
</a>
</g>
<text text-anchor="start" x="87.5" y="-80" font-family="Helvetica,sans-Serif" font-size="10.00" fill="grey">&lt; EigenStepper&lt; extension</text>
<text text-anchor="start" x="87.5" y="-65" font-family="Helvetica,sans-Serif" font-size="10.00" fill="grey">  _t &gt;, reducer_t &gt;</text>
</g>
<!-- Node2 -->
<g id="Node000002" class="node">
<title>Node2</title>
<g id="a_Node000002"><a xlink:title=" ">
<polygon fill="white" stroke="#666666" points="133,-206 36,-206 36,-187 133,-187 133,-206"/>
<text text-anchor="middle" x="84.5" y="-194" font-family="Helvetica,sans-Serif" font-size="10.00">single_stepper_t</text>
</a>
</g>
</g>
<!-- Node2&#45;&gt;Node1 -->
<g id="edge1_Node000001_Node000002" class="edge">
<title>Node2&#45;&gt;Node1</title>
<g id="a_edge1_Node000001_Node000002"><a xlink:title=" ">
<path fill="none" stroke="#63b8ff" d="M84.5,-176.54C84.5,-168.21 84.5,-158.44 84.5,-150.04"/>
<polygon fill="#63b8ff" stroke="#63b8ff" points="81,-176.73 84.5,-186.73 88,-176.73 81,-176.73"/>
</a>
</g>
</g>
</g>
</svg>
