<?xml version="1.0" encoding="UTF-8" standalone="no"?>
<!DOCTYPE svg PUBLIC "-//W3C//DTD SVG 1.1//EN"
 "http://www.w3.org/Graphics/SVG/1.1/DTD/svg11.dtd">
<!-- Generated by graphviz version 2.43.0 (0)
 -->
<!-- Title: Acts::Grid&lt; T, Axes &gt; Pages: 1 -->
<!--zoomable 1399 -->

<svg id="main" version="1.1" xmlns="http://www.w3.org/2000/svg" xmlns:xlink="http://www.w3.org/1999/xlink" xml:space="preserve" onload="init(evt)">

<style type="text/css"><![CDATA[
.node, .edge {opacity: 0.7;}
.node.selected, .edge.selected {opacity: 1;}
.edge:hover path { stroke: red; }
.edge:hover polygon { stroke: red; fill: red; }
]]></style>

<defs>
  <circle id="rim" cx="0" cy="0" r="7"/>
  <circle id="rim2" cx="0" cy="0" r="3.5"/>
  <g id="zoomPlus">
    <use xlink:href="#rim" fill="#404040"><set attributeName="fill" to="#808080" begin="zoomplus.mouseover" end="zoomplus.mouseout"/></use>
    <path d="M-4,0h8M0,-4v8" fill="none" stroke="white" stroke-width="1.5" pointer-events="none"/>
  </g>
  <g id="zoomMin">
    <use xlink:href="#rim" fill="#404040"><set attributeName="fill" to="#808080" begin="zoomminus.mouseover" end="zoomminus.mouseout"/></use>
    <path d="M-4,0h8" fill="none" stroke="white" stroke-width="1.5" pointer-events="none"/>
  </g>
  <g id="arrowUp" transform="translate(30 24)">
    <use xlink:href="#rim"/>
    <path pointer-events="none" fill="none" stroke="white" stroke-width="1.5" d="M0,-3.0v7 M-2.5,-0.5L0,-3.0L2.5,-0.5"/>
  </g>
  <g id="arrowRight" transform="rotate(90) translate(36 -43)">
    <use xlink:href="#rim"/>
    <path pointer-events="none" fill="none" stroke="white" stroke-width="1.5" d="M0,-3.0v7 M-2.5,-0.5L0,-3.0L2.5,-0.5"/>
  </g>
  <g id="arrowDown" transform="rotate(180) translate(-30 -48)">
    <use xlink:href="#rim"/>
    <path pointer-events="none" fill="none" stroke="white" stroke-width="1.5" d="M0,-3.0v7 M-2.5,-0.5L0,-3.0L2.5,-0.5"/>
  </g>
  <g id="arrowLeft" transform="rotate(270) translate(-36 17)">
    <use xlink:href="#rim"/>
    <path pointer-events="none" fill="none" stroke="white" stroke-width="1.5" d="M0,-3.0v7 M-2.5,-0.5L0,-3.0L2.5,-0.5"/>
  </g>
  <g id="resetDef">
    <use xlink:href="#rim2" fill="#404040"><set attributeName="fill" to="#808080" begin="reset.mouseover" end="reset.mouseout"/></use>
  </g>
</defs>
<script type="application/ecmascript">
var viewWidth = 651;
var viewHeight = 1399;
var sectionId = 'dynsection-0';
</script>
<script type="application/ecmascript" xlink:href="svg.min.js"/>
<svg id="graph" class="graph">
<g id="viewport">
<title>Acts::Grid&lt; T, Axes &gt;</title>
<!-- Node1 -->
<g id="Node000001" class="node">
<title>Node1</title>
<g id="a_Node000001"><a xlink:title="class for describing a regular multi&#45;dimensional grid">
<polygon fill="#999999" stroke="#666666" points="226,-666.72 104,-666.72 104,-647.72 226,-647.72 226,-666.72"/>
<text text-anchor="middle" x="165" y="-654.72" font-family="Helvetica,sans-Serif" font-size="10.00">Acts::Grid&lt; T, Axes &gt;</text>
</a>
</g>
</g>
<!-- Node3 -->
<g id="Node000003" class="node">
<title>Node3</title>
<g id="a_Node000003"><a xlink:href="class_acts_1_1_grid.html" target="_top" xlink:title=" ">
<polygon fill="white" stroke="#666666" points="629,-1347.22 484,-1347.22 484,-1317.22 629,-1317.22 629,-1347.22"/>
<text text-anchor="start" x="492" y="-1335.22" font-family="Helvetica,sans-Serif" font-size="10.00">Acts::Grid&lt; const Tracking</text>
<text text-anchor="middle" x="556.5" y="-1324.22" font-family="Helvetica,sans-Serif" font-size="10.00">Volume *, Axes... &gt;</text>
</a>
</g>
</g>
<!-- Node1&#45;&gt;Node3 -->
<g id="edge2_Node000001_Node000003" class="edge">
<title>Node1&#45;&gt;Node3</title>
<g id="a_edge2_Node000001_Node000003"><a xlink:title=" ">
<path fill="none" stroke="orange" stroke-dasharray="5,2" d="M166.91,-677.4C171.83,-782.62 196.89,-1265.34 244,-1310.22 311.81,-1374.82 429.95,-1362.26 499.61,-1347.25"/>
<polygon fill="orange" stroke="orange" points="170.39,-677.03 166.44,-667.2 163.4,-677.35 170.39,-677.03"/>
</a>
</g>
<text text-anchor="start" x="289" y="-1380.22" font-family="Helvetica,sans-Serif" font-size="10.00" fill="grey">&lt; const TrackingVolume</text>
<text text-anchor="start" x="289" y="-1365.22" font-family="Helvetica,sans-Serif" font-size="10.00" fill="grey">   *, Axes... &gt;</text>
</g>
<!-- Node4 -->
<g id="Node000004" class="node">
<title>Node4</title>
<g id="a_Node000004"><a xlink:href="class_acts_1_1_grid.html" target="_top" xlink:title=" ">
<polygon fill="white" stroke="#666666" points="642,-1292.22 471,-1292.22 471,-1262.22 642,-1262.22 642,-1292.22"/>
<text text-anchor="start" x="479" y="-1280.22" font-family="Helvetica,sans-Serif" font-size="10.00">Acts::Grid&lt; Acts::Accumulated</text>
<text text-anchor="middle" x="556.5" y="-1269.22" font-family="Helvetica,sans-Serif" font-size="10.00">VolumeMaterial, EAxis, EAxis &gt;</text>
</a>
</g>
</g>
<!-- Node1&#45;&gt;Node4 -->
<g id="edge3_Node000001_Node000004" class="edge">
<title>Node1&#45;&gt;Node4</title>
<g id="a_edge3_Node000001_Node000004"><a xlink:title=" ">
<path fill="none" stroke="orange" stroke-dasharray="5,2" d="M167.11,-676.92C172.87,-775.75 200.76,-1214.47 244,-1255.22 260.23,-1270.51 384.22,-1275.24 470.78,-1276.66"/>
<polygon fill="orange" stroke="orange" points="170.6,-676.61 166.53,-666.82 163.61,-677.01 170.6,-676.61"/>
</a>
</g>
<text text-anchor="start" x="279" y="-1296.22" font-family="Helvetica,sans-Serif" font-size="10.00" fill="grey">&lt; Acts::AccumulatedVolume</text>
<text text-anchor="start" x="279" y="-1281.22" font-family="Helvetica,sans-Serif" font-size="10.00" fill="grey">  Material, EAxis, EAxis &gt;</text>
</g>
<!-- Node5 -->
<g id="Node000005" class="node">
<title>Node5</title>
<g id="a_Node000005"><a xlink:href="class_acts_1_1_grid.html" target="_top" xlink:title=" ">
<polygon fill="white" stroke="#666666" points="639.5,-1231.72 473.5,-1231.72 473.5,-1190.72 639.5,-1190.72 639.5,-1231.72"/>
<text text-anchor="start" x="481.5" y="-1219.72" font-family="Helvetica,sans-Serif" font-size="10.00">Acts::Grid&lt; Acts::Accumulated</text>
<text text-anchor="start" x="481.5" y="-1208.72" font-family="Helvetica,sans-Serif" font-size="10.00">VolumeMaterial, EAxis, EAxis,</text>
<text text-anchor="middle" x="556.5" y="-1197.72" font-family="Helvetica,sans-Serif" font-size="10.00"> EAxis &gt;</text>
</a>
</g>
</g>
<!-- Node1&#45;&gt;Node5 -->
<g id="edge4_Node000001_Node000005" class="edge">
<title>Node1&#45;&gt;Node5</title>
<g id="a_edge4_Node000001_Node000005"><a xlink:title=" ">
<path fill="none" stroke="orange" stroke-dasharray="5,2" d="M165.8,-677.2C165.38,-764.88 168.51,-1114.37 244,-1185.22 252.31,-1193.02 383.86,-1201.78 473.33,-1206.88"/>
<polygon fill="orange" stroke="orange" points="169.3,-677.05 165.87,-667.02 162.3,-677 169.3,-677.05"/>
</a>
</g>
<text text-anchor="start" x="279" y="-1240.72" font-family="Helvetica,sans-Serif" font-size="10.00" fill="grey">&lt; Acts::AccumulatedVolume</text>
<text text-anchor="start" x="279" y="-1225.72" font-family="Helvetica,sans-Serif" font-size="10.00" fill="grey">  Material, EAxis, EAxis,</text>
<text text-anchor="start" x="279" y="-1210.72" font-family="Helvetica,sans-Serif" font-size="10.00" fill="grey">   EAxis &gt;</text>
</g>
<!-- Node6 -->
<g id="Node000006" class="node">
<title>Node6</title>
<g id="a_Node000006"><a xlink:href="class_acts_1_1_grid.html" target="_top" xlink:title=" ">
<polygon fill="white" stroke="#666666" points="629,-1172.72 484,-1172.72 484,-1131.72 629,-1131.72 629,-1172.72"/>
<text text-anchor="start" x="492" y="-1160.72" font-family="Helvetica,sans-Serif" font-size="10.00">Acts::Grid&lt; Acts::Material</text>
<text text-anchor="start" x="492" y="-1149.72" font-family="Helvetica,sans-Serif" font-size="10.00">::ParametersVector, EAxis,</text>
<text text-anchor="middle" x="556.5" y="-1138.72" font-family="Helvetica,sans-Serif" font-size="10.00"> EAxis &gt;</text>
</a>
</g>
</g>
<!-- Node1&#45;&gt;Node6 -->
<g id="edge5_Node000001_Node000006" class="edge">
<title>Node1&#45;&gt;Node6</title>
<g id="a_edge5_Node000001_Node000006"><a xlink:title=" ">
<path fill="none" stroke="orange" stroke-dasharray="5,2" d="M166.17,-677.13C167.3,-758.86 176.06,-1067.14 244,-1129.22 261.31,-1145.04 397.48,-1149.98 483.96,-1151.52"/>
<polygon fill="orange" stroke="orange" points="169.66,-676.74 166.05,-666.78 162.66,-676.81 169.66,-676.74"/>
</a>
</g>
<text text-anchor="start" x="278" y="-1171.22" font-family="Helvetica,sans-Serif" font-size="10.00" fill="grey">&lt; Acts::Material::Parameters</text>
<text text-anchor="start" x="278" y="-1156.22" font-family="Helvetica,sans-Serif" font-size="10.00" fill="grey">  Vector, EAxis, EAxis &gt;</text>
</g>
<!-- Node7 -->
<g id="Node000007" class="node">
<title>Node7</title>
<g id="a_Node000007"><a xlink:href="class_acts_1_1_grid.html" target="_top" xlink:title=" ">
<polygon fill="white" stroke="#666666" points="629,-1113.72 484,-1113.72 484,-1072.72 629,-1072.72 629,-1113.72"/>
<text text-anchor="start" x="492" y="-1101.72" font-family="Helvetica,sans-Serif" font-size="10.00">Acts::Grid&lt; Acts::Material</text>
<text text-anchor="start" x="492" y="-1090.72" font-family="Helvetica,sans-Serif" font-size="10.00">::ParametersVector, EAxis,</text>
<text text-anchor="middle" x="556.5" y="-1079.72" font-family="Helvetica,sans-Serif" font-size="10.00"> EAxis, EAxis &gt;</text>
</a>
</g>
</g>
<!-- Node1&#45;&gt;Node7 -->
<g id="edge6_Node000001_Node000007" class="edge">
<title>Node1&#45;&gt;Node7</title>
<g id="a_edge6_Node000001_Node000007"><a xlink:title=" ">
<path fill="none" stroke="orange" stroke-dasharray="5,2" d="M166.59,-676.8C169.29,-752.11 183.14,-1021.62 244,-1075.22 261.56,-1090.68 397.26,-1093.47 483.67,-1093.65"/>
<polygon fill="orange" stroke="orange" points="170.09,-676.67 166.26,-666.79 163.09,-676.9 170.09,-676.67"/>
</a>
</g>
<text text-anchor="start" x="274" y="-1114.22" font-family="Helvetica,sans-Serif" font-size="10.00" fill="grey">&lt; Acts::Material::Parameters</text>
<text text-anchor="start" x="274" y="-1099.22" font-family="Helvetica,sans-Serif" font-size="10.00" fill="grey">  Vector, EAxis, EAxis, EAxis &gt;</text>
</g>
<!-- Node8 -->
<g id="Node000008" class="node">
<title>Node8</title>
<g id="a_Node000008"><a xlink:title=" ">
<polygon fill="white" stroke="#666666" points="643,-1034.22 470,-1034.22 470,-960.22 643,-960.22 643,-1034.22"/>
<text text-anchor="start" x="478" y="-1022.22" font-family="Helvetica,sans-Serif" font-size="10.00">Acts::Grid&lt; std::vector</text>
<text text-anchor="start" x="478" y="-1011.22" font-family="Helvetica,sans-Serif" font-size="10.00">&lt; std::size_t &gt;, Axis</text>
<text text-anchor="start" x="478" y="-1000.22" font-family="Helvetica,sans-Serif" font-size="10.00">&lt; AxisType::Equidistant,</text>
<text text-anchor="start" x="478" y="-989.22" font-family="Helvetica,sans-Serif" font-size="10.00"> AxisBoundaryType::Closed</text>
<text text-anchor="start" x="478" y="-978.22" font-family="Helvetica,sans-Serif" font-size="10.00"> &gt;, Axis&lt; AxisType::Equidistant,</text>
<text text-anchor="middle" x="556.5" y="-967.22" font-family="Helvetica,sans-Serif" font-size="10.00"> AxisBoundaryType::Bound &gt; &gt;</text>
</a>
</g>
</g>
<!-- Node1&#45;&gt;Node8 -->
<g id="edge7_Node000001_Node000008" class="edge">
<title>Node1&#45;&gt;Node8</title>
<g id="a_edge7_Node000001_Node000008"><a xlink:title=" ">
<path fill="none" stroke="orange" stroke-dasharray="5,2" d="M167.88,-677.19C174.3,-740.69 197.56,-936.07 244,-975.22 260.97,-989.52 383.68,-994.53 469.91,-996.28"/>
<polygon fill="orange" stroke="orange" points="171.34,-676.55 166.88,-666.94 164.37,-677.23 171.34,-676.55"/>
</a>
</g>
<text text-anchor="start" x="247" y="-1060.72" font-family="Helvetica,sans-Serif" font-size="10.00" fill="grey">&lt; std::vector&lt; std</text>
<text text-anchor="start" x="247" y="-1045.72" font-family="Helvetica,sans-Serif" font-size="10.00" fill="grey">  ::size_t &gt;, Axis&lt; AxisType</text>
<text text-anchor="start" x="247" y="-1030.72" font-family="Helvetica,sans-Serif" font-size="10.00" fill="grey">  ::Equidistant, AxisBoundaryType</text>
<text text-anchor="start" x="247" y="-1015.72" font-family="Helvetica,sans-Serif" font-size="10.00" fill="grey">  ::Closed &gt;, Axis&lt; AxisType::Equidistant,</text>
<text text-anchor="start" x="247" y="-1000.72" font-family="Helvetica,sans-Serif" font-size="10.00" fill="grey">   AxisBoundaryType::Bound &gt; &gt;</text>
</g>
<!-- Node9 -->
<g id="Node000009" class="node">
<title>Node9</title>
<g id="a_Node000009"><a xlink:title=" ">
<polygon fill="white" stroke="#666666" points="642,-938.22 471,-938.22 471,-886.22 642,-886.22 642,-938.22"/>
<text text-anchor="start" x="479" y="-926.22" font-family="Helvetica,sans-Serif" font-size="10.00">Acts::Grid&lt; std::vector</text>
<text text-anchor="start" x="479" y="-915.22" font-family="Helvetica,sans-Serif" font-size="10.00">&lt; std::size_t &gt;, Axis</text>
<text text-anchor="start" x="479" y="-904.22" font-family="Helvetica,sans-Serif" font-size="10.00">&lt; AxisType::Equidistant,</text>
<text text-anchor="middle" x="556.5" y="-893.22" font-family="Helvetica,sans-Serif" font-size="10.00"> AxisBoundaryType::Closed &gt; &gt;</text>
</a>
</g>
</g>
<!-- Node1&#45;&gt;Node9 -->
<g id="edge8_Node000001_Node000009" class="edge">
<title>Node1&#45;&gt;Node9</title>
<g id="a_edge8_Node000001_Node000009"><a xlink:title=" ">
<path fill="none" stroke="orange" stroke-dasharray="5,2" d="M165.86,-676.98C166.71,-723.01 175.92,-837.48 244,-890.22 261.6,-903.85 384.84,-909.05 470.93,-911.02"/>
<polygon fill="orange" stroke="orange" points="169.36,-676.81 165.79,-666.83 162.36,-676.85 169.36,-676.81"/>
</a>
</g>
<text text-anchor="start" x="267" y="-961.22" font-family="Helvetica,sans-Serif" font-size="10.00" fill="grey">&lt; std::vector&lt; std</text>
<text text-anchor="start" x="267" y="-946.22" font-family="Helvetica,sans-Serif" font-size="10.00" fill="grey">  ::size_t &gt;, Axis&lt; AxisType</text>
<text text-anchor="start" x="267" y="-931.22" font-family="Helvetica,sans-Serif" font-size="10.00" fill="grey">  ::Equidistant, AxisBoundaryType</text>
<text text-anchor="start" x="267" y="-916.22" font-family="Helvetica,sans-Serif" font-size="10.00" fill="grey">  ::Closed &gt; &gt;</text>
</g>
<!-- Node10 -->
<g id="Node000010" class="node">
<title>Node10</title>
<g id="a_Node000010"><a xlink:title=" ">
<polygon fill="white" stroke="#666666" points="643,-864.22 470,-864.22 470,-790.22 643,-790.22 643,-864.22"/>
<text text-anchor="start" x="478" y="-852.22" font-family="Helvetica,sans-Serif" font-size="10.00">Acts::Grid&lt; std::vector</text>
<text text-anchor="start" x="478" y="-841.22" font-family="Helvetica,sans-Serif" font-size="10.00">&lt; std::size_t &gt;, Axis</text>
<text text-anchor="start" x="478" y="-830.22" font-family="Helvetica,sans-Serif" font-size="10.00">&lt; AxisType::Equidistant,</text>
<text text-anchor="start" x="478" y="-819.22" font-family="Helvetica,sans-Serif" font-size="10.00"> AxisBoundaryType::Bound</text>
<text text-anchor="start" x="478" y="-808.22" font-family="Helvetica,sans-Serif" font-size="10.00"> &gt;, Axis&lt; AxisType::Equidistant,</text>
<text text-anchor="middle" x="556.5" y="-797.22" font-family="Helvetica,sans-Serif" font-size="10.00"> AxisBoundaryType::Closed &gt; &gt;</text>
</a>
</g>
</g>
<!-- Node1&#45;&gt;Node10 -->
<g id="edge9_Node000001_Node000010" class="edge">
<title>Node1&#45;&gt;Node10</title>
<g id="a_edge9_Node000001_Node000010"><a xlink:title=" ">
<path fill="none" stroke="orange" stroke-dasharray="5,2" d="M171.31,-676.76C180.59,-706.77 202.79,-763.5 244,-790.22 283.02,-815.52 405.84,-807.55 452,-813.22 457.85,-813.94 463.88,-814.7 469.96,-815.48"/>
<polygon fill="orange" stroke="orange" points="174.63,-675.64 168.47,-667.03 167.91,-677.61 174.63,-675.64"/>
</a>
</g>
<text text-anchor="start" x="248" y="-878.72" font-family="Helvetica,sans-Serif" font-size="10.00" fill="grey">&lt; std::vector&lt; std</text>
<text text-anchor="start" x="248" y="-863.72" font-family="Helvetica,sans-Serif" font-size="10.00" fill="grey">  ::size_t &gt;, Axis&lt; AxisType</text>
<text text-anchor="start" x="248" y="-848.72" font-family="Helvetica,sans-Serif" font-size="10.00" fill="grey">  ::Equidistant, AxisBoundaryType</text>
<text text-anchor="start" x="248" y="-833.72" font-family="Helvetica,sans-Serif" font-size="10.00" fill="grey">  ::Bound &gt;, Axis&lt; AxisType::Equidistant,</text>
<text text-anchor="start" x="248" y="-818.72" font-family="Helvetica,sans-Serif" font-size="10.00" fill="grey">   AxisBoundaryType::Closed &gt; &gt;</text>
</g>
<!-- Node11 -->
<g id="Node000011" class="node">
<title>Node11</title>
<g id="a_Node000011"><a xlink:title=" ">
<polygon fill="white" stroke="#666666" points="643,-772.22 470,-772.22 470,-698.22 643,-698.22 643,-772.22"/>
<text text-anchor="start" x="478" y="-760.22" font-family="Helvetica,sans-Serif" font-size="10.00">Acts::Grid&lt; std::vector</text>
<text text-anchor="start" x="478" y="-749.22" font-family="Helvetica,sans-Serif" font-size="10.00">&lt; std::size_t &gt;, Axis</text>
<text text-anchor="start" x="478" y="-738.22" font-family="Helvetica,sans-Serif" font-size="10.00">&lt; AxisType::Equidistant,</text>
<text text-anchor="start" x="478" y="-727.22" font-family="Helvetica,sans-Serif" font-size="10.00"> AxisBoundaryType::Bound</text>
<text text-anchor="start" x="478" y="-716.22" font-family="Helvetica,sans-Serif" font-size="10.00"> &gt;, Axis&lt; AxisType::Equidistant,</text>
<text text-anchor="middle" x="556.5" y="-705.22" font-family="Helvetica,sans-Serif" font-size="10.00"> AxisBoundaryType::Bound &gt; &gt;</text>
</a>
</g>
</g>
<!-- Node1&#45;&gt;Node11 -->
<g id="edge10_Node000001_Node000011" class="edge">
<title>Node1&#45;&gt;Node11</title>
<g id="a_edge10_Node000001_Node000011"><a xlink:title=" ">
<path fill="none" stroke="orange" stroke-dasharray="5,2" d="M193.81,-671.31C208.4,-678.1 226.78,-685.73 244,-690.22 334,-713.7 360.18,-698.42 452,-713.22 457.8,-714.16 463.77,-715.2 469.78,-716.31"/>
<polygon fill="orange" stroke="orange" points="194.91,-667.96 184.38,-666.8 191.89,-674.27 194.91,-667.96"/>
</a>
</g>
<text text-anchor="start" x="248" y="-778.72" font-family="Helvetica,sans-Serif" font-size="10.00" fill="grey">&lt; std::vector&lt; std</text>
<text text-anchor="start" x="248" y="-763.72" font-family="Helvetica,sans-Serif" font-size="10.00" fill="grey">  ::size_t &gt;, Axis&lt; AxisType</text>
<text text-anchor="start" x="248" y="-748.72" font-family="Helvetica,sans-Serif" font-size="10.00" fill="grey">  ::Equidistant, AxisBoundaryType</text>
<text text-anchor="start" x="248" y="-733.72" font-family="Helvetica,sans-Serif" font-size="10.00" fill="grey">  ::Bound &gt;, Axis&lt; AxisType::Equidistant,</text>
<text text-anchor="start" x="248" y="-718.72" font-family="Helvetica,sans-Serif" font-size="10.00" fill="grey">   AxisBoundaryType::Bound &gt; &gt;</text>
</g>
<!-- Node12 -->
<g id="Node000012" class="node">
<title>Node12</title>
<g id="a_Node000012"><a xlink:href="class_acts_1_1_grid.html" target="_top" xlink:title=" ">
<polygon fill="white" stroke="#666666" points="619,-679.72 494,-679.72 494,-638.72 619,-638.72 619,-679.72"/>
<text text-anchor="start" x="502" y="-667.72" font-family="Helvetica,sans-Serif" font-size="10.00">Acts::Grid&lt; HoughCell</text>
<text text-anchor="start" x="502" y="-656.72" font-family="Helvetica,sans-Serif" font-size="10.00">&lt; identifier_t &gt;, Axis,</text>
<text text-anchor="middle" x="556.5" y="-645.72" font-family="Helvetica,sans-Serif" font-size="10.00"> Axis &gt;</text>
</a>
</g>
</g>
<!-- Node1&#45;&gt;Node12 -->
<g id="edge11_Node000001_Node000012" class="edge">
<title>Node1&#45;&gt;Node12</title>
<g id="a_edge11_Node000001_Node000012"><a xlink:title=" ">
<path fill="none" stroke="orange" stroke-dasharray="5,2" d="M236.39,-657.35C294.29,-657.48 378.46,-657.74 452,-658.22 465.57,-658.31 480.13,-658.43 493.93,-658.56"/>
<polygon fill="orange" stroke="orange" points="236.27,-653.85 226.26,-657.32 236.25,-660.85 236.27,-653.85"/>
</a>
</g>
<text text-anchor="start" x="290" y="-679.22" font-family="Helvetica,sans-Serif" font-size="10.00" fill="grey">&lt; HoughCell&lt; identifier</text>
<text text-anchor="start" x="290" y="-664.22" font-family="Helvetica,sans-Serif" font-size="10.00" fill="grey">  _t &gt;, Axis, Axis &gt;</text>
</g>
<!-- Node13 -->
<g id="Node000013" class="node">
<title>Node13</title>
<g id="a_Node000013"><a xlink:href="class_acts_1_1_grid.html" target="_top" xlink:title=" ">
<polygon fill="white" stroke="#666666" points="625,-620.72 488,-620.72 488,-579.72 625,-579.72 625,-620.72"/>
<text text-anchor="start" x="496" y="-608.72" font-family="Helvetica,sans-Serif" font-size="10.00">Acts::Grid&lt; BinType,</text>
<text text-anchor="start" x="496" y="-597.72" font-family="Helvetica,sans-Serif" font-size="10.00"> PhiAxisType, ZAxisType,</text>
<text text-anchor="middle" x="556.5" y="-586.72" font-family="Helvetica,sans-Serif" font-size="10.00"> RAxisType &gt;</text>
</a>
</g>
</g>
<!-- Node1&#45;&gt;Node13 -->
<g id="edge12_Node000001_Node000013" class="edge">
<title>Node1&#45;&gt;Node13</title>
<g id="a_edge12_Node000001_Node000013"><a xlink:title=" ">
<path fill="none" stroke="orange" stroke-dasharray="5,2" d="M191.77,-642.89C206.58,-635.37 225.81,-626.79 244,-622.22 326.16,-601.58 424.07,-597.94 487.9,-598.24"/>
<polygon fill="orange" stroke="orange" points="189.96,-639.89 182.72,-647.63 193.21,-646.09 189.96,-639.89"/>
</a>
</g>
<text text-anchor="start" x="285" y="-643.22" font-family="Helvetica,sans-Serif" font-size="10.00" fill="grey">&lt; BinType, PhiAxisType,</text>
<text text-anchor="start" x="285" y="-628.22" font-family="Helvetica,sans-Serif" font-size="10.00" fill="grey">   ZAxisType, RAxisType &gt;</text>
</g>
<!-- Node14 -->
<g id="Node000014" class="node">
<title>Node14</title>
<g id="a_Node000014"><a xlink:href="class_acts_1_1_grid.html" target="_top" xlink:title=" ">
<polygon fill="white" stroke="#666666" points="629.5,-561.22 483.5,-561.22 483.5,-531.22 629.5,-531.22 629.5,-561.22"/>
<text text-anchor="start" x="491.5" y="-549.22" font-family="Helvetica,sans-Serif" font-size="10.00">Acts::Grid&lt; SurfaceVector,</text>
<text text-anchor="middle" x="556.5" y="-538.22" font-family="Helvetica,sans-Serif" font-size="10.00"> Axis1, Axis2 &gt;</text>
</a>
</g>
</g>
<!-- Node1&#45;&gt;Node14 -->
<g id="edge13_Node000001_Node000014" class="edge">
<title>Node1&#45;&gt;Node14</title>
<g id="a_edge13_Node000001_Node000014"><a xlink:title=" ">
<path fill="none" stroke="orange" stroke-dasharray="5,2" d="M175.24,-638.64C187.52,-616.25 211.49,-579.58 244,-563.22 318.98,-525.48 417.36,-527.2 483.31,-534.44"/>
<polygon fill="orange" stroke="orange" points="172.12,-637.06 170.57,-647.54 178.32,-640.31 172.12,-637.06"/>
</a>
</g>
<text text-anchor="start" x="291" y="-584.22" font-family="Helvetica,sans-Serif" font-size="10.00" fill="grey">&lt; SurfaceVector, Axis1,</text>
<text text-anchor="start" x="291" y="-569.22" font-family="Helvetica,sans-Serif" font-size="10.00" fill="grey">   Axis2 &gt;</text>
</g>
<!-- Node15 -->
<g id="Node000015" class="node">
<title>Node15</title>
<g id="a_Node000015"><a xlink:href="class_acts_1_1_grid.html" target="_top" xlink:title=" ">
<polygon fill="white" stroke="#666666" points="624,-512.72 489,-512.72 489,-471.72 624,-471.72 624,-512.72"/>
<text text-anchor="start" x="497" y="-500.72" font-family="Helvetica,sans-Serif" font-size="10.00">Acts::Grid&lt; T, Axis</text>
<text text-anchor="start" x="497" y="-489.72" font-family="Helvetica,sans-Serif" font-size="10.00">&lt; AxisType::Equidistant,</text>
<text text-anchor="middle" x="556.5" y="-478.72" font-family="Helvetica,sans-Serif" font-size="10.00"> aType &gt; &gt;</text>
</a>
</g>
</g>
<!-- Node1&#45;&gt;Node15 -->
<g id="edge14_Node000001_Node000015" class="edge">
<title>Node1&#45;&gt;Node15</title>
<g id="a_edge14_Node000001_Node000015"><a xlink:title=" ">
<path fill="none" stroke="orange" stroke-dasharray="5,2" d="M168.77,-637.54C174.97,-601.86 193.59,-527.23 244,-495.22 283.15,-470.36 409.64,-477.46 488.88,-484.86"/>
<polygon fill="orange" stroke="orange" points="165.28,-637.23 167.17,-647.65 172.19,-638.32 165.28,-637.23"/>
</a>
</g>
<text text-anchor="start" x="286" y="-516.22" font-family="Helvetica,sans-Serif" font-size="10.00" fill="grey">&lt; T, Axis&lt; AxisType</text>
<text text-anchor="start" x="286" y="-501.22" font-family="Helvetica,sans-Serif" font-size="10.00" fill="grey">  ::Equidistant, aType &gt; &gt;</text>
</g>
<!-- Node16 -->
<g id="Node000016" class="node">
<title>Node16</title>
<g id="a_Node000016"><a xlink:href="class_acts_1_1_grid.html" target="_top" xlink:title=" ">
<polygon fill="white" stroke="#666666" points="616.5,-453.72 496.5,-453.72 496.5,-412.72 616.5,-412.72 616.5,-453.72"/>
<text text-anchor="start" x="504.5" y="-441.72" font-family="Helvetica,sans-Serif" font-size="10.00">Acts::Grid&lt; T, Axis</text>
<text text-anchor="start" x="504.5" y="-430.72" font-family="Helvetica,sans-Serif" font-size="10.00">&lt; AxisType::Variable,</text>
<text text-anchor="middle" x="556.5" y="-419.72" font-family="Helvetica,sans-Serif" font-size="10.00"> aType &gt; &gt;</text>
</a>
</g>
</g>
<!-- Node1&#45;&gt;Node16 -->
<g id="edge15_Node000001_Node000016" class="edge">
<title>Node1&#45;&gt;Node16</title>
<g id="a_edge15_Node000001_Node000016"><a xlink:title=" ">
<path fill="none" stroke="orange" stroke-dasharray="5,2" d="M166.34,-637.29C168.28,-593.4 179.76,-488.65 244,-442.22 282.86,-414.13 417.24,-420.63 496.24,-427.28"/>
<polygon fill="orange" stroke="orange" points="162.84,-637.18 166.02,-647.28 169.83,-637.4 162.84,-637.18"/>
</a>
</g>
<text text-anchor="start" x="294" y="-463.22" font-family="Helvetica,sans-Serif" font-size="10.00" fill="grey">&lt; T, Axis&lt; AxisType</text>
<text text-anchor="start" x="294" y="-448.22" font-family="Helvetica,sans-Serif" font-size="10.00" fill="grey">  ::Variable, aType &gt; &gt;</text>
</g>
<!-- Node17 -->
<g id="Node000017" class="node">
<title>Node17</title>
<g id="a_Node000017"><a xlink:href="class_acts_1_1_grid.html" target="_top" xlink:title=" ">
<polygon fill="white" stroke="#666666" points="627,-378.22 486,-378.22 486,-326.22 627,-326.22 627,-378.22"/>
<text text-anchor="start" x="494" y="-366.22" font-family="Helvetica,sans-Serif" font-size="10.00">Acts::Grid&lt; T, Axis</text>
<text text-anchor="start" x="494" y="-355.22" font-family="Helvetica,sans-Serif" font-size="10.00">&lt; AxisType::Equidistant,</text>
<text text-anchor="start" x="494" y="-344.22" font-family="Helvetica,sans-Serif" font-size="10.00"> aType &gt;, Axis&lt; AxisType</text>
<text text-anchor="middle" x="556.5" y="-333.22" font-family="Helvetica,sans-Serif" font-size="10.00">::Equidistant, bType &gt; &gt;</text>
</a>
</g>
</g>
<!-- Node1&#45;&gt;Node17 -->
<g id="edge16_Node000001_Node000017" class="edge">
<title>Node1&#45;&gt;Node17</title>
<g id="a_edge16_Node000001_Node000017"><a xlink:title=" ">
<path fill="none" stroke="orange" stroke-dasharray="5,2" d="M168.05,-637.41C174.85,-576.14 198.81,-391.66 244,-356.22 280.17,-327.85 405.67,-335.4 485.9,-343.67"/>
<polygon fill="orange" stroke="orange" points="164.54,-637.34 166.95,-647.65 171.5,-638.09 164.54,-637.34"/>
</a>
</g>
<text text-anchor="start" x="267" y="-407.22" font-family="Helvetica,sans-Serif" font-size="10.00" fill="grey">&lt; T, Axis&lt; AxisType</text>
<text text-anchor="start" x="267" y="-392.22" font-family="Helvetica,sans-Serif" font-size="10.00" fill="grey">  ::Equidistant, aType</text>
<text text-anchor="start" x="267" y="-377.22" font-family="Helvetica,sans-Serif" font-size="10.00" fill="grey">   &gt;, Axis&lt; AxisType::Equidistant,</text>
<text text-anchor="start" x="267" y="-362.22" font-family="Helvetica,sans-Serif" font-size="10.00" fill="grey">   bType &gt; &gt;</text>
</g>
<!-- Node18 -->
<g id="Node000018" class="node">
<title>Node18</title>
<g id="a_Node000018"><a xlink:href="class_acts_1_1_grid.html" target="_top" xlink:title=" ">
<polygon fill="white" stroke="#666666" points="627,-293.22 486,-293.22 486,-241.22 627,-241.22 627,-293.22"/>
<text text-anchor="start" x="494" y="-281.22" font-family="Helvetica,sans-Serif" font-size="10.00">Acts::Grid&lt; T, Axis</text>
<text text-anchor="start" x="494" y="-270.22" font-family="Helvetica,sans-Serif" font-size="10.00">&lt; AxisType::Equidistant,</text>
<text text-anchor="start" x="494" y="-259.22" font-family="Helvetica,sans-Serif" font-size="10.00"> aType &gt;, Axis&lt; AxisType</text>
<text text-anchor="middle" x="556.5" y="-248.22" font-family="Helvetica,sans-Serif" font-size="10.00">::Variable, bType &gt; &gt;</text>
</a>
</g>
</g>
<!-- Node1&#45;&gt;Node18 -->
<g id="edge17_Node000001_Node000018" class="edge">
<title>Node1&#45;&gt;Node18</title>
<g id="a_edge17_Node000001_Node000018"><a xlink:title=" ">
<path fill="none" stroke="orange" stroke-dasharray="5,2" d="M166.85,-637.19C170.36,-564.69 186.45,-317.79 244,-270.22 279.43,-240.93 405.17,-249.22 485.65,-258.09"/>
<polygon fill="orange" stroke="orange" points="163.33,-637.46 166.37,-647.61 170.32,-637.78 163.33,-637.46"/>
</a>
</g>
<text text-anchor="start" x="274" y="-321.22" font-family="Helvetica,sans-Serif" font-size="10.00" fill="grey">&lt; T, Axis&lt; AxisType</text>
<text text-anchor="start" x="274" y="-306.22" font-family="Helvetica,sans-Serif" font-size="10.00" fill="grey">  ::Equidistant, aType</text>
<text text-anchor="start" x="274" y="-291.22" font-family="Helvetica,sans-Serif" font-size="10.00" fill="grey">   &gt;, Axis&lt; AxisType::Variable,</text>
<text text-anchor="start" x="274" y="-276.22" font-family="Helvetica,sans-Serif" font-size="10.00" fill="grey">   bType &gt; &gt;</text>
</g>
<!-- Node19 -->
<g id="Node000019" class="node">
<title>Node19</title>
<g id="a_Node000019"><a xlink:href="class_acts_1_1_grid.html" target="_top" xlink:title=" ">
<polygon fill="white" stroke="#666666" points="627,-208.22 486,-208.22 486,-156.22 627,-156.22 627,-208.22"/>
<text text-anchor="start" x="494" y="-196.22" font-family="Helvetica,sans-Serif" font-size="10.00">Acts::Grid&lt; T, Axis</text>
<text text-anchor="start" x="494" y="-185.22" font-family="Helvetica,sans-Serif" font-size="10.00">&lt; AxisType::Variable,</text>
<text text-anchor="start" x="494" y="-174.22" font-family="Helvetica,sans-Serif" font-size="10.00"> aType &gt;, Axis&lt; AxisType</text>
<text text-anchor="middle" x="556.5" y="-163.22" font-family="Helvetica,sans-Serif" font-size="10.00">::Equidistant, bType &gt; &gt;</text>
</a>
</g>
</g>
<!-- Node1&#45;&gt;Node19 -->
<g id="edge18_Node000001_Node000019" class="edge">
<title>Node1&#45;&gt;Node19</title>
<g id="a_edge18_Node000001_Node000019"><a xlink:title=" ">
<path fill="none" stroke="orange" stroke-dasharray="5,2" d="M166.05,-637.14C166.71,-554.74 173.88,-244.11 244,-184.22 279.01,-154.32 405.22,-163.31 485.85,-172.68"/>
<polygon fill="orange" stroke="orange" points="162.55,-637.56 165.99,-647.58 169.55,-637.6 162.55,-637.56"/>
</a>
</g>
<text text-anchor="start" x="274" y="-235.22" font-family="Helvetica,sans-Serif" font-size="10.00" fill="grey">&lt; T, Axis&lt; AxisType</text>
<text text-anchor="start" x="274" y="-220.22" font-family="Helvetica,sans-Serif" font-size="10.00" fill="grey">  ::Variable, aType &gt;,</text>
<text text-anchor="start" x="274" y="-205.22" font-family="Helvetica,sans-Serif" font-size="10.00" fill="grey">   Axis&lt; AxisType::Equidistant,</text>
<text text-anchor="start" x="274" y="-190.22" font-family="Helvetica,sans-Serif" font-size="10.00" fill="grey">   bType &gt; &gt;</text>
</g>
<!-- Node20 -->
<g id="Node000020" class="node">
<title>Node20</title>
<g id="a_Node000020"><a xlink:href="class_acts_1_1_grid.html" target="_top" xlink:title=" ">
<polygon fill="white" stroke="#666666" points="627,-123.22 486,-123.22 486,-71.22 627,-71.22 627,-123.22"/>
<text text-anchor="start" x="494" y="-111.22" font-family="Helvetica,sans-Serif" font-size="10.00">Acts::Grid&lt; T, Axis</text>
<text text-anchor="start" x="494" y="-100.22" font-family="Helvetica,sans-Serif" font-size="10.00">&lt; AxisType::Variable,</text>
<text text-anchor="start" x="494" y="-89.22" font-family="Helvetica,sans-Serif" font-size="10.00"> aType &gt;, Axis&lt; AxisType</text>
<text text-anchor="middle" x="556.5" y="-78.22" font-family="Helvetica,sans-Serif" font-size="10.00">::Variable, bType &gt; &gt;</text>
</a>
</g>
</g>
<!-- Node1&#45;&gt;Node20 -->
<g id="edge19_Node000001_Node000020" class="edge">
<title>Node1&#45;&gt;Node20</title>
<g id="a_edge19_Node000001_Node000020"><a xlink:title=" ">
<path fill="none" stroke="orange" stroke-dasharray="5,2" d="M167.26,-637.26C173.48,-541.77 202.33,-134.6 244,-98.22 278.68,-67.94 405,-77.5 485.74,-87.29"/>
<polygon fill="orange" stroke="orange" points="163.76,-637.11 166.61,-647.32 170.75,-637.56 163.76,-637.11"/>
</a>
</g>
<text text-anchor="start" x="281" y="-149.22" font-family="Helvetica,sans-Serif" font-size="10.00" fill="grey">&lt; T, Axis&lt; AxisType</text>
<text text-anchor="start" x="281" y="-134.22" font-family="Helvetica,sans-Serif" font-size="10.00" fill="grey">  ::Variable, aType &gt;,</text>
<text text-anchor="start" x="281" y="-119.22" font-family="Helvetica,sans-Serif" font-size="10.00" fill="grey">   Axis&lt; AxisType::Variable,</text>
<text text-anchor="start" x="281" y="-104.22" font-family="Helvetica,sans-Serif" font-size="10.00" fill="grey">   bType &gt; &gt;</text>
</g>
<!-- Node21 -->
<g id="Node000021" class="node">
<title>Node21</title>
<g id="a_Node000021"><a xlink:href="class_acts_1_1_grid.html" target="_top" xlink:title=" ">
<polygon fill="white" stroke="#666666" points="633.5,-53.22 479.5,-53.22 479.5,-23.22 633.5,-23.22 633.5,-53.22"/>
<text text-anchor="start" x="487.5" y="-41.22" font-family="Helvetica,sans-Serif" font-size="10.00">Acts::Grid&lt; HoughCount</text>
<text text-anchor="middle" x="556.5" y="-30.22" font-family="Helvetica,sans-Serif" font-size="10.00">_t, HoughAxis, HoughAxis &gt;</text>
</a>
</g>
</g>
<!-- Node1&#45;&gt;Node21 -->
<g id="edge20_Node000001_Node000021" class="edge">
<title>Node1&#45;&gt;Node21</title>
<g id="a_edge20_Node000001_Node000021"><a xlink:title=" ">
<path fill="none" stroke="orange" stroke-dasharray="5,2" d="M167,-637.22C172.29,-535.96 198.39,-82.94 244,-42.22 318.14,23.96 446.33,-2.8 512.79,-23.18"/>
<polygon fill="orange" stroke="orange" points="163.5,-637.15 166.49,-647.32 170.49,-637.51 163.5,-637.15"/>
</a>
</g>
<text text-anchor="start" x="277" y="-63.22" font-family="Helvetica,sans-Serif" font-size="10.00" fill="grey">&lt; HoughCount_t, HoughAxis,</text>
<text text-anchor="start" x="277" y="-48.22" font-family="Helvetica,sans-Serif" font-size="10.00" fill="grey">   HoughAxis &gt;</text>
</g>
<!-- Node2 -->
<g id="Node000002" class="node">
<title>Node2</title>
<g id="a_Node000002"><a xlink:href="class_acts_1_1_i_grid.html" target="_top" xlink:title="Base class for all grid types.">
<polygon fill="white" stroke="#666666" points="67,-666.72 0,-666.72 0,-647.72 67,-647.72 67,-666.72"/>
<text text-anchor="middle" x="33.5" y="-654.72" font-family="Helvetica,sans-Serif" font-size="10.00">Acts::IGrid</text>
</a>
</g>
</g>
<!-- Node2&#45;&gt;Node1 -->
<g id="edge1_Node000001_Node000002" class="edge">
<title>Node2&#45;&gt;Node1</title>
<g id="a_edge1_Node000001_Node000002"><a xlink:title=" ">
<path fill="none" stroke="#63b8ff" d="M77.24,-657.22C85.76,-657.22 94.86,-657.22 103.84,-657.22"/>
<polygon fill="#63b8ff" stroke="#63b8ff" points="77.18,-653.72 67.18,-657.22 77.18,-660.72 77.18,-653.72"/>
</a>
</g>
</g>
</g>
</svg>

<g id="navigator" transform="translate(0 0)" fill="#404254">
  <rect fill="#f2f5e9" fill-opacity="0.5" stroke="#606060" stroke-width=".5" x="0" y="0" width="60" height="60"/>
  <use id="zoomplus" xlink:href="#zoomPlus" x="17" y="9" onmousedown="handleZoom(evt,'in')"/>
  <use id="zoomminus" xlink:href="#zoomMin" x="42" y="9" onmousedown="handleZoom(evt,'out')"/>
  <use id="reset" xlink:href="#resetDef" x="30" y="36" onmousedown="handleReset()"/>
   <use id="arrowup" xlink:href="#arrowUp" x="0" y="0" onmousedown="handlePan(0,-1)"/>
  <use id="arrowright" xlink:href="#arrowRight" x="0" y="0" onmousedown="handlePan(1,0)"/>
  <use id="arrowdown" xlink:href="#arrowDown" x="0" y="0" onmousedown="handlePan(0,1)"/>
  <use id="arrowleft" xlink:href="#arrowLeft" x="0" y="0" onmousedown="handlePan(-1,0)"/>
</g>
<svg viewBox="0 0 15 15" width="100%" height="30px" preserveAspectRatio="xMaxYMin meet">
 <g id="arrow_out" transform="scale(0.3 0.3)">
  <a xlink:href="class_acts_1_1_grid__inherit__graph_org.svg" target="_base">
   <rect id="button" ry="5" rx="5" y="6" x="6" height="38" width="38"
        fill="#f2f5e9" fill-opacity="0.5" stroke="#606060" stroke-width="1.0"/>
   <path id="arrow"
     d="M 11.500037,31.436501 C 11.940474,20.09759 22.043105,11.32322 32.158766,21.979434 L 37.068811,17.246167 C 37.068811,17.246167 37.088388,32 37.088388,32 L 22.160133,31.978069 C 22.160133,31.978069 26.997745,27.140456 26.997745,27.140456 C 18.528582,18.264221 13.291696,25.230495 11.500037,31.436501 z"
     style="fill:#404040;"/>
  </a>
 </g>
</svg>

<style type='text/css'>
<![CDATA[
[data-mouse-over-selected='false'] { opacity: 0.7; }
[data-mouse-over-selected='true']  { opacity: 1.0; }
]]>
</style>
<script type="application/ecmascript"><![CDATA[
document.addEventListener('DOMContentLoaded', (event) => {
  highlightEdges();
  highlightAdjacentNodes();
});
]]></script>
</svg>
