<?xml version="1.0" encoding="UTF-8" standalone="no"?>
<!DOCTYPE svg PUBLIC "-//W3C//DTD SVG 1.1//EN"
 "http://www.w3.org/Graphics/SVG/1.1/DTD/svg11.dtd">
<!-- Generated by graphviz version 2.43.0 (0)
 -->
<!-- Title: ActsPlugins::GraphConstructionBase Pages: 1 -->
<svg width="322pt" height="93pt"
 viewBox="0.00 0.00 322.00 93.00" xmlns="http://www.w3.org/2000/svg" xmlns:xlink="http://www.w3.org/1999/xlink">
<g id="graph0" class="graph" transform="scale(1 1) rotate(0) translate(4 89)">
<title>ActsPlugins::GraphConstructionBase</title>
<!-- Node1 -->
<g id="Node000001" class="node">
<title>Node1</title>
<g id="a_Node000001"><a xlink:title=" ">
<polygon fill="#999999" stroke="#666666" points="260.5,-85 66.5,-85 66.5,-66 260.5,-66 260.5,-85"/>
<text text-anchor="middle" x="163.5" y="-73" font-family="Helvetica,sans-Serif" font-size="10.00">ActsPlugins::GraphConstructionBase</text>
</a>
</g>
</g>
<!-- Node2 -->
<g id="Node000002" class="node">
<title>Node2</title>
<g id="a_Node000002"><a xlink:href="class_acts_plugins_1_1_module_map_cuda.html" target="_top" xlink:title=" ">
<polygon fill="white" stroke="#666666" points="161,-24.5 0,-24.5 0,-5.5 161,-5.5 161,-24.5"/>
<text text-anchor="middle" x="80.5" y="-12.5" font-family="Helvetica,sans-Serif" font-size="10.00">ActsPlugins::ModuleMapCuda</text>
</a>
</g>
</g>
<!-- Node1&#45;&gt;Node2 -->
<g id="edge1_Node000001_Node000002" class="edge">
<title>Node1&#45;&gt;Node2</title>
<g id="a_edge1_Node000001_Node000002"><a xlink:title=" ">
<path fill="none" stroke="#63b8ff" d="M142.71,-59.85C126.99,-48.77 105.94,-33.93 92.8,-24.67"/>
<polygon fill="#63b8ff" stroke="#63b8ff" points="141.06,-62.97 151.25,-65.87 145.1,-57.25 141.06,-62.97"/>
</a>
</g>
</g>
<!-- Node3 -->
<g id="Node000003" class="node">
<title>Node3</title>
<g id="a_Node000003"><a xlink:href="class_acts_plugins_1_1_torch_metric_learning.html" target="_top" xlink:title=" ">
<polygon fill="white" stroke="#666666" points="314,-30 179,-30 179,0 314,0 314,-30"/>
<text text-anchor="start" x="187" y="-18" font-family="Helvetica,sans-Serif" font-size="10.00">ActsPlugins::TorchMetric</text>
<text text-anchor="middle" x="246.5" y="-7" font-family="Helvetica,sans-Serif" font-size="10.00">Learning</text>
</a>
</g>
</g>
<!-- Node1&#45;&gt;Node3 -->
<g id="edge2_Node000001_Node000003" class="edge">
<title>Node1&#45;&gt;Node3</title>
<g id="a_edge2_Node000001_Node000003"><a xlink:title=" ">
<path fill="none" stroke="#63b8ff" d="M184.03,-60.03C196.98,-50.9 213.62,-39.17 226.47,-30.11"/>
<polygon fill="#63b8ff" stroke="#63b8ff" points="181.9,-57.25 175.75,-65.87 185.94,-62.97 181.9,-57.25"/>
</a>
</g>
</g>
</g>
</svg>
