<?xml version="1.0" encoding="UTF-8" standalone="no"?>
<!DOCTYPE svg PUBLIC "-//W3C//DTD SVG 1.1//EN"
 "http://www.w3.org/Graphics/SVG/1.1/DTD/svg11.dtd">
<!-- Generated by graphviz version 2.43.0 (0)
 -->
<!-- Title: Acts::RangeXD&lt; Dims, Type, Vector &gt; Pages: 1 -->
<svg width="474pt" height="189pt"
 viewBox="0.00 0.00 474.00 189.00" xmlns="http://www.w3.org/2000/svg" xmlns:xlink="http://www.w3.org/1999/xlink">

<svg id="main" version="1.1" xmlns="http://www.w3.org/2000/svg" xmlns:xlink="http://www.w3.org/1999/xlink" xml:space="preserve">

<style type="text/css"><![CDATA[
.node, .edge {opacity: 0.7;}
.node.selected, .edge.selected {opacity: 1;}
.edge:hover path { stroke: red; }
.edge:hover polygon { stroke: red; fill: red; }
]]></style>
<script type="application/ecmascript" xlink:href="svg.min.js"/>
<svg id="graph" class="graph">
<g id="graph0" class="graph" transform="scale(1 1) rotate(0) translate(4 185)">
<title>Acts::RangeXD&lt; Dims, Type, Vector &gt;</title>
<!-- Node1 -->
<g id="Node000001" class="node">
<title>Node1</title>
<g id="a_Node000001"><a xlink:title="An orthogonal range in an arbitrary number of dimensions.">
<polygon fill="#999999" stroke="#666666" points="128,-105 0,-105 0,-75 128,-75 128,-105"/>
<text text-anchor="start" x="8" y="-93" font-family="Helvetica,sans-Serif" font-size="10.00">Acts::RangeXD&lt; Dims,</text>
<text text-anchor="middle" x="64" y="-82" font-family="Helvetica,sans-Serif" font-size="10.00"> Type, Vector &gt;</text>
</a>
</g>
</g>
<!-- Node2 -->
<g id="Node000002" class="node">
<title>Node2</title>
<g id="a_Node000002"><a xlink:href="class_acts_1_1_range_x_d.html" target="_top" xlink:title=" ">
<polygon fill="white" stroke="#666666" points="434,-181 306,-181 306,-151 434,-151 434,-181"/>
<text text-anchor="start" x="314" y="-169" font-family="Helvetica,sans-Serif" font-size="10.00">Acts::RangeXD&lt; Dims,</text>
<text text-anchor="middle" x="370" y="-158" font-family="Helvetica,sans-Serif" font-size="10.00"> Scalar &gt;</text>
</a>
</g>
</g>
<!-- Node1&#45;&gt;Node2 -->
<g id="edge1_Node000001_Node000002" class="edge">
<title>Node1&#45;&gt;Node2</title>
<g id="a_edge1_Node000001_Node000002"><a xlink:title=" ">
<path fill="none" stroke="orange" stroke-dasharray="5,2" d="M101.43,-109.65C115.09,-116.33 130.95,-123.28 146,-128 198.65,-144.5 260.68,-154.34 305.93,-159.85"/>
<polygon fill="orange" stroke="orange" points="102.88,-106.46 92.37,-105.11 99.74,-112.72 102.88,-106.46"/>
</a>
</g>
<text text-anchor="start" x="159" y="-157.5" font-family="Helvetica,sans-Serif" font-size="10.00" fill="grey">&lt; Dims, Scalar &gt;</text>
</g>
<!-- Node3 -->
<g id="Node000003" class="node">
<title>Node3</title>
<g id="a_Node000003"><a xlink:href="class_acts_1_1_range_x_d.html" target="_top" xlink:title=" ">
<polygon fill="white" stroke="#666666" points="438.5,-133 301.5,-133 301.5,-103 438.5,-103 438.5,-133"/>
<text text-anchor="start" x="309.5" y="-121" font-family="Helvetica,sans-Serif" font-size="10.00">Acts::RangeXD&lt; 1, Type,</text>
<text text-anchor="middle" x="370" y="-110" font-family="Helvetica,sans-Serif" font-size="10.00"> Vector &gt;</text>
</a>
</g>
</g>
<!-- Node1&#45;&gt;Node3 -->
<g id="edge2_Node000001_Node000003" class="edge">
<title>Node1&#45;&gt;Node3</title>
<g id="a_edge2_Node000001_Node000003"><a xlink:title=" ">
<path fill="none" stroke="orange" stroke-dasharray="5,2" d="M138.37,-96.76C187.94,-101.32 252.89,-107.31 301.24,-111.76"/>
<polygon fill="orange" stroke="orange" points="138.64,-93.27 128.36,-95.84 138,-100.24 138.64,-93.27"/>
</a>
</g>
<text text-anchor="start" x="154" y="-112.5" font-family="Helvetica,sans-Serif" font-size="10.00" fill="grey">&lt; 1, Type, Vector &gt;</text>
</g>
<!-- Node4 -->
<g id="Node000004" class="node">
<title>Node4</title>
<g id="a_Node000004"><a xlink:href="class_acts_1_1_range_x_d.html" target="_top" xlink:title=" ">
<polygon fill="white" stroke="#666666" points="466,-78 274,-78 274,-48 466,-48 466,-78"/>
<text text-anchor="start" x="282" y="-66" font-family="Helvetica,sans-Serif" font-size="10.00">Acts::RangeXD&lt; numAxisDirections</text>
<text text-anchor="middle" x="370" y="-55" font-family="Helvetica,sans-Serif" font-size="10.00">(), double &gt;</text>
</a>
</g>
</g>
<!-- Node1&#45;&gt;Node4 -->
<g id="edge3_Node000001_Node000004" class="edge">
<title>Node1&#45;&gt;Node4</title>
<g id="a_edge3_Node000001_Node000004"><a xlink:title=" ">
<path fill="none" stroke="orange" stroke-dasharray="5,2" d="M113.13,-71.9C123.8,-68.63 135.17,-65.72 146,-64 187.58,-57.39 234.08,-56.22 273.81,-57.06"/>
<polygon fill="orange" stroke="orange" points="112,-68.58 103.55,-74.97 114.14,-75.25 112,-68.58"/>
</a>
</g>
<text text-anchor="start" x="149" y="-85" font-family="Helvetica,sans-Serif" font-size="10.00" fill="grey">&lt; numAxisDirections</text>
<text text-anchor="start" x="149" y="-70" font-family="Helvetica,sans-Serif" font-size="10.00" fill="grey">  (), double &gt;</text>
</g>
<!-- Node5 -->
<g id="Node000005" class="node">
<title>Node5</title>
<g id="a_Node000005"><a xlink:href="class_acts_1_1_range_x_d.html" target="_top" xlink:title=" ">
<polygon fill="white" stroke="#666666" points="434.5,-30 305.5,-30 305.5,0 434.5,0 434.5,-30"/>
<text text-anchor="start" x="313.5" y="-18" font-family="Helvetica,sans-Serif" font-size="10.00">Acts::RangeXD&lt; kDim,</text>
<text text-anchor="middle" x="370" y="-7" font-family="Helvetica,sans-Serif" font-size="10.00"> double &gt;</text>
</a>
</g>
</g>
<!-- Node1&#45;&gt;Node5 -->
<g id="edge4_Node000001_Node000005" class="edge">
<title>Node1&#45;&gt;Node5</title>
<g id="a_edge4_Node000001_Node000005"><a xlink:title=" ">
<path fill="none" stroke="orange" stroke-dasharray="5,2" d="M89.45,-68.53C104.65,-56.48 125.2,-42.43 146,-35 197.43,-16.63 259.58,-12.4 305.19,-12.32"/>
<polygon fill="orange" stroke="orange" points="87.11,-65.92 81.59,-74.96 91.55,-71.33 87.11,-65.92"/>
</a>
</g>
<text text-anchor="start" x="157" y="-40.5" font-family="Helvetica,sans-Serif" font-size="10.00" fill="grey">&lt; kDim, double &gt;</text>
</g>
</g>
</svg>
</svg>

<style type='text/css'>
<![CDATA[
[data-mouse-over-selected='false'] { opacity: 0.7; }
[data-mouse-over-selected='true']  { opacity: 1.0; }
]]>
</style>
<script type="application/ecmascript"><![CDATA[
document.addEventListener('DOMContentLoaded', (event) => {
  highlightEdges();
  highlightAdjacentNodes();
});
]]></script>
</svg>
