<?xml version="1.0" encoding="UTF-8" standalone="no"?>
<!DOCTYPE svg PUBLIC "-//W3C//DTD SVG 1.1//EN"
 "http://www.w3.org/Graphics/SVG/1.1/DTD/svg11.dtd">
<!-- Generated by graphviz version 2.43.0 (0)
 -->
<!-- Title: Acts::SpacePointBuilder&lt; spacepoint_t &gt; Pages: 1 -->
<svg width="1105pt" height="172pt"
 viewBox="0.00 0.00 1105.00 171.50" xmlns="http://www.w3.org/2000/svg" xmlns:xlink="http://www.w3.org/1999/xlink">
<g id="graph0" class="graph" transform="scale(1 1) rotate(0) translate(4 167.5)">
<title>Acts::SpacePointBuilder&lt; spacepoint_t &gt;</title>
<!-- Node1 -->
<g id="Node000001" class="node">
<title>Node1</title>
<g id="a_Node000001"><a xlink:title="After the particle interaction with surfaces are recorded and digitized measurements on the pixel or ...">
<polygon fill="#999999" stroke="#666666" points="1097,-90.5 965,-90.5 965,-60.5 1097,-60.5 1097,-90.5"/>
<text text-anchor="start" x="973" y="-78.5" font-family="Helvetica,sans-Serif" font-size="10.00">Acts::SpacePointBuilder</text>
<text text-anchor="middle" x="1031" y="-67.5" font-family="Helvetica,sans-Serif" font-size="10.00">&lt; spacepoint_t &gt;</text>
</a>
</g>
</g>
<!-- Node2 -->
<g id="Node000002" class="node">
<title>Node2</title>
<g id="a_Node000002"><a xlink:href="struct_acts_1_1_space_point_builder_config.html" target="_top" xlink:title=" ">
<polygon fill="white" stroke="#666666" points="877,-85 714,-85 714,-66 877,-66 877,-85"/>
<text text-anchor="middle" x="795.5" y="-73" font-family="Helvetica,sans-Serif" font-size="10.00">Acts::SpacePointBuilderConfig</text>
</a>
</g>
</g>
<!-- Node2&#45;&gt;Node1 -->
<g id="edge1_Node000001_Node000002" class="edge">
<title>Node2&#45;&gt;Node1</title>
<g id="a_edge1_Node000001_Node000002"><a xlink:title=" ">
<path fill="none" stroke="#9a32cd" stroke-dasharray="5,2" d="M887.36,-75.5C913.18,-75.5 940.78,-75.5 964.76,-75.5"/>
<polygon fill="#9a32cd" stroke="#9a32cd" points="887.18,-72 877.18,-75.5 887.18,-79 887.18,-72"/>
</a>
</g>
<text text-anchor="start" x="899" y="-81" font-family="Helvetica,sans-Serif" font-size="10.00" fill="grey">m_config</text>
</g>
<!-- Node3 -->
<g id="Node000003" class="node">
<title>Node3</title>
<g id="a_Node000003"><a xlink:title=" ">
<polygon fill="white" stroke="#666666" points="523,-115.5 376,-115.5 376,-85.5 523,-85.5 523,-115.5"/>
<text text-anchor="start" x="384" y="-103.5" font-family="Helvetica,sans-Serif" font-size="10.00">std::shared_ptr&lt; const</text>
<text text-anchor="middle" x="449.5" y="-92.5" font-family="Helvetica,sans-Serif" font-size="10.00"> Acts::TrackingGeometry &gt;</text>
</a>
</g>
</g>
<!-- Node3&#45;&gt;Node2 -->
<g id="edge2_Node000002_Node000003" class="edge">
<title>Node3&#45;&gt;Node2</title>
<g id="a_edge2_Node000002_Node000003"><a xlink:title=" ">
<path fill="none" stroke="#9a32cd" stroke-dasharray="5,2" d="M533.07,-94.5C587.9,-90.51 659.53,-85.31 713.95,-81.35"/>
<polygon fill="#9a32cd" stroke="#9a32cd" points="532.75,-91.01 523.03,-95.23 533.26,-97.99 532.75,-91.01"/>
</a>
</g>
<text text-anchor="start" x="581" y="-97" font-family="Helvetica,sans-Serif" font-size="10.00" fill="grey">trackingGeometry</text>
</g>
<!-- Node4 -->
<g id="Node000004" class="node">
<title>Node4</title>
<g id="a_Node000004"><a xlink:title=" ">
<polygon fill="white" stroke="#666666" points="135,-133 17,-133 17,-114 135,-114 135,-133"/>
<text text-anchor="middle" x="76" y="-121" font-family="Helvetica,sans-Serif" font-size="10.00">std::shared_ptr&lt; T &gt;</text>
</a>
</g>
</g>
<!-- Node4&#45;&gt;Node3 -->
<g id="edge3_Node000003_Node000004" class="edge">
<title>Node4&#45;&gt;Node3</title>
<g id="a_edge3_Node000003_Node000004"><a xlink:title=" ">
<path fill="none" stroke="orange" stroke-dasharray="5,2" d="M125.71,-111.76C139.91,-108.83 155.5,-106.07 170,-104.5 239.59,-96.96 319.52,-96.67 375.85,-97.84"/>
<polygon fill="orange" stroke="orange" points="124.7,-108.4 115.66,-113.91 126.17,-115.24 124.7,-108.4"/>
</a>
</g>
<text text-anchor="start" x="173.5" y="-110" font-family="Helvetica,sans-Serif" font-size="10.00" fill="grey">&lt; const Acts::TrackingGeometry &gt;</text>
</g>
<!-- Node9 -->
<g id="Node000009" class="node">
<title>Node9</title>
<g id="a_Node000009"><a xlink:title=" ">
<polygon fill="white" stroke="#666666" points="696,-155.5 554,-155.5 554,-125.5 696,-125.5 696,-155.5"/>
<text text-anchor="start" x="562" y="-143.5" font-family="Helvetica,sans-Serif" font-size="10.00">std::shared_ptr&lt; const</text>
<text text-anchor="middle" x="625" y="-132.5" font-family="Helvetica,sans-Serif" font-size="10.00"> Acts::SpacePointUtility &gt;</text>
</a>
</g>
</g>
<!-- Node4&#45;&gt;Node9 -->
<g id="edge9_Node000009_Node000004" class="edge">
<title>Node4&#45;&gt;Node9</title>
<g id="a_edge9_Node000009_Node000004"><a xlink:title=" ">
<path fill="none" stroke="orange" stroke-dasharray="5,2" d="M145.13,-125.62C249.53,-128.86 448.06,-135.03 553.73,-138.32"/>
<polygon fill="orange" stroke="orange" points="145.12,-122.12 135.02,-125.3 144.91,-129.11 145.12,-122.12"/>
</a>
</g>
<text text-anchor="start" x="196.5" y="-152.5" font-family="Helvetica,sans-Serif" font-size="10.00" fill="grey">&lt; const Acts::SpacePoint</text>
<text text-anchor="start" x="196.5" y="-137.5" font-family="Helvetica,sans-Serif" font-size="10.00" fill="grey">  Utility &gt;</text>
</g>
<!-- Node5 -->
<g id="Node000005" class="node">
<title>Node5</title>
<g id="a_Node000005"><a xlink:href="class_acts_1_1_delegate.html" target="_top" xlink:title=" ">
<polygon fill="white" stroke="#666666" points="536,-67.5 363,-67.5 363,-37.5 536,-37.5 536,-67.5"/>
<text text-anchor="start" x="371" y="-55.5" font-family="Helvetica,sans-Serif" font-size="10.00">Acts::Delegate&lt; const</text>
<text text-anchor="middle" x="449.5" y="-44.5" font-family="Helvetica,sans-Serif" font-size="10.00"> Surface *(const SourceLink &amp;)&gt;</text>
</a>
</g>
</g>
<!-- Node5&#45;&gt;Node2 -->
<g id="edge4_Node000002_Node000005" class="edge">
<title>Node5&#45;&gt;Node2</title>
<g id="a_edge4_Node000002_Node000005"><a xlink:title=" ">
<path fill="none" stroke="#9a32cd" stroke-dasharray="5,2" d="M546.31,-52.29C591.76,-52.94 646.77,-54.82 696,-59.5 711.69,-60.99 728.68,-63.44 744.05,-65.99"/>
<polygon fill="#9a32cd" stroke="#9a32cd" points="546.21,-48.79 536.17,-52.16 546.12,-55.79 546.21,-48.79"/>
</a>
</g>
<text text-anchor="start" x="581" y="-65" font-family="Helvetica,sans-Serif" font-size="10.00" fill="grey">slSurfaceAccessor</text>
</g>
<!-- Node6 -->
<g id="Node000006" class="node">
<title>Node6</title>
<g id="a_Node000006"><a xlink:href="class_acts_1_1_delegate.html" target="_top" xlink:title=" ">
<polygon fill="white" stroke="#666666" points="152,-63.5 0,-63.5 0,-33.5 152,-33.5 152,-63.5"/>
<text text-anchor="start" x="8" y="-51.5" font-family="Helvetica,sans-Serif" font-size="10.00">Acts::Delegate&lt; typename,</text>
<text text-anchor="middle" x="76" y="-40.5" font-family="Helvetica,sans-Serif" font-size="10.00"> H, DelegateType &gt;</text>
</a>
</g>
</g>
<!-- Node6&#45;&gt;Node5 -->
<g id="edge5_Node000005_Node000006" class="edge">
<title>Node6&#45;&gt;Node5</title>
<g id="a_edge5_Node000005_Node000006"><a xlink:title=" ">
<path fill="none" stroke="orange" stroke-dasharray="5,2" d="M162.4,-48.27C215.04,-48.26 283.94,-48.5 345,-49.5 350.84,-49.6 356.87,-49.72 362.94,-49.85"/>
<polygon fill="orange" stroke="orange" points="162.09,-44.77 152.09,-48.27 162.09,-51.77 162.09,-44.77"/>
</a>
</g>
<text text-anchor="start" x="199.5" y="-70.5" font-family="Helvetica,sans-Serif" font-size="10.00" fill="grey">&lt; const Surface *(const</text>
<text text-anchor="start" x="199.5" y="-55.5" font-family="Helvetica,sans-Serif" font-size="10.00" fill="grey">   SourceLink &amp;)&gt;</text>
</g>
<!-- Node7 -->
<g id="Node000007" class="node">
<title>Node7</title>
<g id="a_Node000007"><a xlink:title=" ">
<polygon fill="white" stroke="#666666" points="859,-39.5 732,-39.5 732,-9.5 859,-9.5 859,-39.5"/>
<text text-anchor="start" x="740" y="-27.5" font-family="Helvetica,sans-Serif" font-size="10.00">std::unique_ptr&lt; const</text>
<text text-anchor="middle" x="795.5" y="-16.5" font-family="Helvetica,sans-Serif" font-size="10.00"> Acts::Logger &gt;</text>
</a>
</g>
</g>
<!-- Node7&#45;&gt;Node1 -->
<g id="edge6_Node000001_Node000007" class="edge">
<title>Node7&#45;&gt;Node1</title>
<g id="a_edge6_Node000001_Node000007"><a xlink:title=" ">
<path fill="none" stroke="#9a32cd" stroke-dasharray="5,2" d="M869.29,-38.23C894.01,-43.1 921.76,-48.8 947,-54.5 955.12,-56.34 963.66,-58.37 972.04,-60.44"/>
<polygon fill="#9a32cd" stroke="#9a32cd" points="869.74,-34.75 859.26,-36.27 868.4,-41.62 869.74,-34.75"/>
</a>
</g>
<text text-anchor="start" x="898" y="-60" font-family="Helvetica,sans-Serif" font-size="10.00" fill="grey">m_logger</text>
</g>
<!-- Node8 -->
<g id="Node000008" class="node">
<title>Node8</title>
<g id="a_Node000008"><a xlink:title=" ">
<polygon fill="white" stroke="#666666" points="508.5,-19 390.5,-19 390.5,0 508.5,0 508.5,-19"/>
<text text-anchor="middle" x="449.5" y="-7" font-family="Helvetica,sans-Serif" font-size="10.00">std::unique_ptr&lt; T &gt;</text>
</a>
</g>
</g>
<!-- Node8&#45;&gt;Node7 -->
<g id="edge7_Node000007_Node000008" class="edge">
<title>Node8&#45;&gt;Node7</title>
<g id="a_edge7_Node000007_Node000008"><a xlink:title=" ">
<path fill="none" stroke="orange" stroke-dasharray="5,2" d="M518.8,-9.95C568.09,-10.57 636.2,-12.04 696,-15.5 707.57,-16.17 719.89,-17.11 731.75,-18.14"/>
<polygon fill="orange" stroke="orange" points="518.62,-6.45 508.58,-9.83 518.54,-13.45 518.62,-6.45"/>
</a>
</g>
<text text-anchor="start" x="569" y="-21" font-family="Helvetica,sans-Serif" font-size="10.00" fill="grey">&lt; const Acts::Logger &gt;</text>
</g>
<!-- Node9&#45;&gt;Node1 -->
<g id="edge8_Node000001_Node000009" class="edge">
<title>Node9&#45;&gt;Node1</title>
<g id="a_edge8_Node000001_Node000009"><a xlink:title=" ">
<path fill="none" stroke="#9a32cd" stroke-dasharray="5,2" d="M706.39,-132C771.57,-124.51 865.63,-112.32 947,-96.5 955.75,-94.8 964.96,-92.74 973.94,-90.59"/>
<polygon fill="#9a32cd" stroke="#9a32cd" points="705.73,-128.55 696.19,-133.16 706.52,-135.51 705.73,-128.55"/>
</a>
</g>
<text text-anchor="start" x="767.5" y="-136" font-family="Helvetica,sans-Serif" font-size="10.00" fill="grey">m_spUtility</text>
</g>
</g>
</svg>
