<?xml version="1.0" encoding="UTF-8" standalone="no"?>
<!DOCTYPE svg PUBLIC "-//W3C//DTD SVG 1.1//EN"
 "http://www.w3.org/Graphics/SVG/1.1/DTD/svg11.dtd">
<!-- Generated by graphviz version 2.43.0 (0)
 -->
<!-- Title: Acts::CuboidVolumeBounds Pages: 1 -->
<svg width="192pt" height="227pt"
 viewBox="0.00 0.00 192.00 227.00" xmlns="http://www.w3.org/2000/svg" xmlns:xlink="http://www.w3.org/1999/xlink">
<g id="graph0" class="graph" transform="scale(1 1) rotate(0) translate(4 223)">
<title>Acts::CuboidVolumeBounds</title>
<!-- Node1 -->
<g id="Node000001" class="node">
<title>Node1</title>
<g id="a_Node000001"><a xlink:title="Bounds for a cubical Volume, the orientedSurfaces(...) method creates a vector of 6 surfaces:">
<polygon fill="#999999" stroke="#666666" points="150,-19 0,-19 0,0 150,0 150,-19"/>
<text text-anchor="middle" x="75" y="-7" font-family="Helvetica,sans-Serif" font-size="10.00">Acts::CuboidVolumeBounds</text>
</a>
</g>
</g>
<!-- Node2 -->
<g id="Node000002" class="node">
<title>Node2</title>
<g id="a_Node000002"><a xlink:href="class_acts_1_1_volume_bounds.html" target="_top" xlink:title="Pure Absract Base Class for Volume bounds.">
<polygon fill="white" stroke="#666666" points="133,-75 17,-75 17,-56 133,-56 133,-75"/>
<text text-anchor="middle" x="75" y="-63" font-family="Helvetica,sans-Serif" font-size="10.00">Acts::VolumeBounds</text>
</a>
</g>
</g>
<!-- Node2&#45;&gt;Node1 -->
<g id="edge1_Node000001_Node000002" class="edge">
<title>Node2&#45;&gt;Node1</title>
<g id="a_edge1_Node000001_Node000002"><a xlink:title=" ">
<path fill="none" stroke="#63b8ff" d="M75,-45.3C75,-36.41 75,-26.28 75,-19.25"/>
<polygon fill="#63b8ff" stroke="#63b8ff" points="71.5,-45.58 75,-55.58 78.5,-45.58 71.5,-45.58"/>
</a>
</g>
</g>
<!-- Node3 -->
<g id="Node000003" class="node">
<title>Node3</title>
<g id="a_Node000003"><a xlink:title=" ">
<polygon fill="white" stroke="#666666" points="145,-147 5,-147 5,-128 145,-128 145,-147"/>
<text text-anchor="middle" x="75" y="-135" font-family="Helvetica,sans-Serif" font-size="10.00">std::vector&lt; std::string &gt;</text>
</a>
</g>
</g>
<!-- Node3&#45;&gt;Node2 -->
<g id="edge2_Node000002_Node000003" class="edge">
<title>Node3&#45;&gt;Node2</title>
<g id="a_edge2_Node000002_Node000003"><a xlink:title=" ">
<path fill="none" stroke="#9a32cd" stroke-dasharray="5,2" d="M75,-117.58C75,-103.76 75,-85.68 75,-75.15"/>
<polygon fill="#9a32cd" stroke="#9a32cd" points="71.5,-117.92 75,-127.92 78.5,-117.92 71.5,-117.92"/>
</a>
</g>
<text text-anchor="start" x="78.5" y="-98.5" font-family="Helvetica,sans-Serif" font-size="10.00" fill="grey">s_boundsTypeNames</text>
</g>
<!-- Node4 -->
<g id="Node000004" class="node">
<title>Node4</title>
<g id="a_Node000004"><a xlink:title=" ">
<polygon fill="white" stroke="#666666" points="123.5,-219 26.5,-219 26.5,-200 123.5,-200 123.5,-219"/>
<text text-anchor="middle" x="75" y="-207" font-family="Helvetica,sans-Serif" font-size="10.00">std::vector&lt; T &gt;</text>
</a>
</g>
</g>
<!-- Node4&#45;&gt;Node3 -->
<g id="edge3_Node000003_Node000004" class="edge">
<title>Node4&#45;&gt;Node3</title>
<g id="a_edge3_Node000003_Node000004"><a xlink:title=" ">
<path fill="none" stroke="orange" stroke-dasharray="5,2" d="M75,-189.58C75,-175.76 75,-157.68 75,-147.15"/>
<polygon fill="orange" stroke="orange" points="71.5,-189.92 75,-199.92 78.5,-189.92 71.5,-189.92"/>
</a>
</g>
<text text-anchor="start" x="78" y="-170.5" font-family="Helvetica,sans-Serif" font-size="10.00" fill="grey">&lt; std::string &gt;</text>
</g>
</g>
</svg>
