<?xml version="1.0" encoding="UTF-8" standalone="no"?>
<!DOCTYPE svg PUBLIC "-//W3C//DTD SVG 1.1//EN"
 "http://www.w3.org/Graphics/SVG/1.1/DTD/svg11.dtd">
<!-- Generated by graphviz version 2.43.0 (0)
 -->
<!-- Title: Acts::SeedProxy2&lt; read_only &gt; Pages: 1 -->
<svg width="318pt" height="110pt"
 viewBox="0.00 0.00 317.50 110.00" xmlns="http://www.w3.org/2000/svg" xmlns:xlink="http://www.w3.org/1999/xlink">
<g id="graph0" class="graph" transform="scale(1 1) rotate(0) translate(4 106)">
<title>Acts::SeedProxy2&lt; read_only &gt;</title>
<!-- Node1 -->
<g id="Node000001" class="node">
<title>Node1</title>
<g id="a_Node000001"><a xlink:title="A proxy class for accessing individual seeds.">
<polygon fill="#999999" stroke="#666666" points="223,-102 89,-102 89,-72 223,-72 223,-102"/>
<text text-anchor="start" x="97" y="-90" font-family="Helvetica,sans-Serif" font-size="10.00">Acts::SeedProxy2&lt; read</text>
<text text-anchor="middle" x="156" y="-79" font-family="Helvetica,sans-Serif" font-size="10.00">_only &gt;</text>
</a>
</g>
</g>
<!-- Node2 -->
<g id="Node000002" class="node">
<title>Node2</title>
<g id="a_Node000002"><a xlink:href="class_acts_1_1_seed_proxy2.html" target="_top" xlink:title=" ">
<polygon fill="white" stroke="#666666" points="148,-19 0,-19 0,0 148,0 148,-19"/>
<text text-anchor="middle" x="74" y="-7" font-family="Helvetica,sans-Serif" font-size="10.00">Acts::SeedProxy2&lt; false &gt;</text>
</a>
</g>
</g>
<!-- Node1&#45;&gt;Node2 -->
<g id="edge1_Node000001_Node000002" class="edge">
<title>Node1&#45;&gt;Node2</title>
<g id="a_edge1_Node000001_Node000002"><a xlink:title=" ">
<path fill="none" stroke="orange" stroke-dasharray="5,2" d="M132.94,-64.77C116.48,-49.61 95.21,-30.02 83.24,-19.01"/>
<polygon fill="orange" stroke="orange" points="130.85,-67.6 140.58,-71.8 135.59,-62.45 130.85,-67.6"/>
</a>
</g>
<text text-anchor="start" x="123.5" y="-42.5" font-family="Helvetica,sans-Serif" font-size="10.00" fill="grey">&lt; false &gt;</text>
</g>
<!-- Node3 -->
<g id="Node000003" class="node">
<title>Node3</title>
<g id="a_Node000003"><a xlink:href="class_acts_1_1_seed_proxy2.html" target="_top" xlink:title=" ">
<polygon fill="white" stroke="#666666" points="309.5,-19 166.5,-19 166.5,0 309.5,0 309.5,-19"/>
<text text-anchor="middle" x="238" y="-7" font-family="Helvetica,sans-Serif" font-size="10.00">Acts::SeedProxy2&lt; true &gt;</text>
</a>
</g>
</g>
<!-- Node1&#45;&gt;Node3 -->
<g id="edge2_Node000001_Node000003" class="edge">
<title>Node1&#45;&gt;Node3</title>
<g id="a_edge2_Node000001_Node000003"><a xlink:title=" ">
<path fill="none" stroke="orange" stroke-dasharray="5,2" d="M179.06,-64.77C195.52,-49.61 216.79,-30.02 228.76,-19.01"/>
<polygon fill="orange" stroke="orange" points="176.41,-62.45 171.42,-71.8 181.15,-67.6 176.41,-62.45"/>
</a>
</g>
<text text-anchor="start" x="212.5" y="-42.5" font-family="Helvetica,sans-Serif" font-size="10.00" fill="grey">&lt; true &gt;</text>
</g>
</g>
</svg>
