<?xml version="1.0" encoding="UTF-8" standalone="no"?>
<!DOCTYPE svg PUBLIC "-//W3C//DTD SVG 1.1//EN"
 "http://www.w3.org/Graphics/SVG/1.1/DTD/svg11.dtd">
<!-- Generated by graphviz version 2.43.0 (0)
 -->
<!-- Title: Graphical Class Hierarchy Pages: 1 -->
<svg width="510pt" height="242pt"
 viewBox="0.00 0.00 510.00 241.50" xmlns="http://www.w3.org/2000/svg" xmlns:xlink="http://www.w3.org/1999/xlink">
<g id="graph0" class="graph" transform="scale(1 1) rotate(0) translate(4 237.5)">
<title>Graphical Class Hierarchy</title>
<!-- Node0 -->
<g id="Node000000" class="node">
<title>Node0</title>
<g id="a_Node000000"><a xlink:title=" ">
<polygon fill="#e0e0e0" stroke="#999999" points="86,-140.5 0,-140.5 0,-121.5 86,-121.5 86,-140.5"/>
<text text-anchor="middle" x="43" y="-128.5" font-family="Helvetica,sans-Serif" font-size="10.00">std::exception</text>
</a>
</g>
</g>
<!-- Node1 -->
<g id="Node000001" class="node">
<title>Node1</title>
<g id="a_Node000001"><a xlink:href="class_acts_1_1_assertion_failure_exception.html" target="_top" xlink:title="Exception type for assertion failures This class captures the information available to the throw_asse...">
<polygon fill="white" stroke="#666666" points="292,-233.5 122,-233.5 122,-214.5 292,-214.5 292,-233.5"/>
<text text-anchor="middle" x="207" y="-221.5" font-family="Helvetica,sans-Serif" font-size="10.00">Acts::AssertionFailureException</text>
</a>
</g>
</g>
<!-- Node0&#45;&gt;Node1 -->
<g id="edge276_Node000000_Node000001" class="edge">
<title>Node0&#45;&gt;Node1</title>
<g id="a_edge276_Node000000_Node000001"><a xlink:title=" ">
<path fill="none" stroke="#63b8ff" d="M57.46,-148.75C71.6,-166.09 95.44,-191.89 122,-206 128.45,-209.43 135.51,-212.21 142.71,-214.45"/>
<polygon fill="#63b8ff" stroke="#63b8ff" points="59.93,-146.23 50.98,-140.56 54.44,-150.57 59.93,-146.23"/>
</a>
</g>
</g>
<!-- Node2 -->
<g id="Node000002" class="node">
<title>Node2</title>
<g id="a_Node000002"><a xlink:href="class_acts_1_1_portal_fusing_exception.html" target="_top" xlink:title="Exception thrown when portals cannot be fused.">
<polygon fill="white" stroke="#666666" points="283,-196.5 131,-196.5 131,-177.5 283,-177.5 283,-196.5"/>
<text text-anchor="middle" x="207" y="-184.5" font-family="Helvetica,sans-Serif" font-size="10.00">Acts::PortalFusingException</text>
</a>
</g>
</g>
<!-- Node0&#45;&gt;Node2 -->
<g id="edge277_Node000000_Node000002" class="edge">
<title>Node0&#45;&gt;Node2</title>
<g id="a_edge277_Node000000_Node000002"><a xlink:title=" ">
<path fill="none" stroke="#63b8ff" d="M69.63,-145.44C84.53,-153.34 103.89,-162.75 122,-169 131.59,-172.31 142.01,-175.13 152.14,-177.49"/>
<polygon fill="#63b8ff" stroke="#63b8ff" points="71,-142.2 60.54,-140.52 67.67,-148.36 71,-142.2"/>
</a>
</g>
</g>
<!-- Node3 -->
<g id="Node000003" class="node">
<title>Node3</title>
<g id="a_Node000003"><a xlink:href="class_acts_1_1_portal_merging_exception.html" target="_top" xlink:title="Exception thrown when portals cannot be merged.">
<polygon fill="white" stroke="#666666" points="287,-159.5 127,-159.5 127,-140.5 287,-140.5 287,-159.5"/>
<text text-anchor="middle" x="207" y="-147.5" font-family="Helvetica,sans-Serif" font-size="10.00">Acts::PortalMergingException</text>
</a>
</g>
</g>
<!-- Node0&#45;&gt;Node3 -->
<g id="edge278_Node000000_Node000003" class="edge">
<title>Node0&#45;&gt;Node3</title>
<g id="a_edge278_Node000000_Node000003"><a xlink:title=" ">
<path fill="none" stroke="#63b8ff" d="M96.08,-137.11C105.86,-138.26 116.3,-139.48 126.7,-140.7"/>
<polygon fill="#63b8ff" stroke="#63b8ff" points="96.48,-133.63 86.14,-135.94 95.66,-140.58 96.48,-133.63"/>
</a>
</g>
</g>
<!-- Node4 -->
<g id="Node000004" class="node">
<title>Node4</title>
<g id="a_Node000004"><a xlink:href="class_acts_1_1_surface_merging_exception.html" target="_top" xlink:title="Exception type failures to merge two surfaces.">
<polygon fill="white" stroke="#666666" points="291,-122.5 123,-122.5 123,-103.5 291,-103.5 291,-122.5"/>
<text text-anchor="middle" x="207" y="-110.5" font-family="Helvetica,sans-Serif" font-size="10.00">Acts::SurfaceMergingException</text>
</a>
</g>
</g>
<!-- Node0&#45;&gt;Node4 -->
<g id="edge279_Node000000_Node000004" class="edge">
<title>Node0&#45;&gt;Node4</title>
<g id="a_edge279_Node000000_Node000004"><a xlink:title=" ">
<path fill="none" stroke="#63b8ff" d="M96.28,-125.19C104.82,-124.24 113.84,-123.24 122.91,-122.23"/>
<polygon fill="#63b8ff" stroke="#63b8ff" points="95.69,-121.73 86.14,-126.32 96.47,-128.69 95.69,-121.73"/>
</a>
</g>
</g>
<!-- Node5 -->
<g id="Node000005" class="node">
<title>Node5</title>
<g id="a_Node000005"><a xlink:href="struct_acts_plugins_1_1_no_edges_error.html" target="_top" xlink:title="Error that is thrown if no edges are found.">
<polygon fill="white" stroke="#666666" points="279.5,-85.5 134.5,-85.5 134.5,-66.5 279.5,-66.5 279.5,-85.5"/>
<text text-anchor="middle" x="207" y="-73.5" font-family="Helvetica,sans-Serif" font-size="10.00">ActsPlugins::NoEdgesError</text>
</a>
</g>
</g>
<!-- Node0&#45;&gt;Node5 -->
<g id="edge280_Node000000_Node000005" class="edge">
<title>Node0&#45;&gt;Node5</title>
<g id="a_edge280_Node000000_Node000005"><a xlink:title=" ">
<path fill="none" stroke="#63b8ff" d="M70.91,-116.88C85.68,-109.56 104.51,-100.94 122,-95 132.76,-91.35 144.53,-88.19 155.77,-85.55"/>
<polygon fill="#63b8ff" stroke="#63b8ff" points="69.19,-113.82 61.84,-121.45 72.34,-120.07 69.19,-113.82"/>
</a>
</g>
</g>
<!-- Node6 -->
<g id="Node000006" class="node">
<title>Node6</title>
<g id="a_Node000006"><a xlink:title=" ">
<polygon fill="#e0e0e0" stroke="#999999" points="259,-48.5 155,-48.5 155,-29.5 259,-29.5 259,-48.5"/>
<text text-anchor="middle" x="207" y="-36.5" font-family="Helvetica,sans-Serif" font-size="10.00">std::runtime_error</text>
</a>
</g>
</g>
<!-- Node0&#45;&gt;Node6 -->
<g id="edge281_Node000000_Node000006" class="edge">
<title>Node0&#45;&gt;Node6</title>
<g id="a_edge281_Node000000_Node000006"><a xlink:title=" ">
<path fill="none" stroke="#63b8ff" d="M57.82,-113.53C72.09,-96.7 95.9,-71.83 122,-58 132.04,-52.68 143.52,-48.84 154.71,-46.08"/>
<polygon fill="#63b8ff" stroke="#63b8ff" points="54.92,-111.54 51.27,-121.49 60.32,-115.99 54.92,-111.54"/>
</a>
</g>
</g>
<!-- Node7 -->
<g id="Node000007" class="node">
<title>Node7</title>
<g id="a_Node000007"><a xlink:href="class_acts_1_1_logging_1_1_threshold_failure.html" target="_top" xlink:title="Custom exception class so threshold failures can be caught.">
<polygon fill="white" stroke="#666666" points="483,-78 347,-78 347,-48 483,-48 483,-78"/>
<text text-anchor="start" x="355" y="-66" font-family="Helvetica,sans-Serif" font-size="10.00">Acts::Logging::Threshold</text>
<text text-anchor="middle" x="415" y="-55" font-family="Helvetica,sans-Serif" font-size="10.00">Failure</text>
</a>
</g>
</g>
<!-- Node6&#45;&gt;Node7 -->
<g id="edge282_Node000006_Node000007" class="edge">
<title>Node6&#45;&gt;Node7</title>
<g id="a_edge282_Node000006_Node000007"><a xlink:title=" ">
<path fill="none" stroke="#63b8ff" d="M269.37,-46.15C293.73,-48.99 321.82,-52.26 346.72,-55.16"/>
<polygon fill="#63b8ff" stroke="#63b8ff" points="269.52,-42.64 259.19,-44.96 268.71,-49.6 269.52,-42.64"/>
</a>
</g>
</g>
<!-- Node8 -->
<g id="Node000008" class="node">
<title>Node8</title>
<g id="a_Node000008"><a xlink:href="class_acts_plugins_1_1_detray_unsupported_material_exception.html" target="_top" xlink:title=" ">
<polygon fill="white" stroke="#666666" points="502,-30 328,-30 328,0 502,0 502,-30"/>
<text text-anchor="start" x="336" y="-18" font-family="Helvetica,sans-Serif" font-size="10.00">ActsPlugins::DetrayUnsupported</text>
<text text-anchor="middle" x="415" y="-7" font-family="Helvetica,sans-Serif" font-size="10.00">MaterialException</text>
</a>
</g>
</g>
<!-- Node6&#45;&gt;Node8 -->
<g id="edge283_Node000006_Node000008" class="edge">
<title>Node6&#45;&gt;Node8</title>
<g id="a_edge283_Node000006_Node000008"><a xlink:title=" ">
<path fill="none" stroke="#63b8ff" d="M269.16,-31.87C287.55,-29.73 308.09,-27.34 327.78,-25.04"/>
<polygon fill="#63b8ff" stroke="#63b8ff" points="268.71,-28.4 259.19,-33.04 269.52,-35.36 268.71,-28.4"/>
</a>
</g>
</g>
</g>
</svg>
