<?xml version="1.0" encoding="UTF-8" standalone="no"?>
<!DOCTYPE svg PUBLIC "-//W3C//DTD SVG 1.1//EN"
 "http://www.w3.org/Graphics/SVG/1.1/DTD/svg11.dtd">
<!-- Generated by graphviz version 2.43.0 (0)
 -->
<!-- Title: Graphical Class Hierarchy Pages: 1 -->
<svg width="324pt" height="86pt"
 viewBox="0.00 0.00 324.00 86.00" xmlns="http://www.w3.org/2000/svg" xmlns:xlink="http://www.w3.org/1999/xlink">
<g id="graph0" class="graph" transform="scale(1 1) rotate(0) translate(4 82)">
<title>Graphical Class Hierarchy</title>
<!-- Node0 -->
<g id="Node000000" class="node">
<title>Node0</title>
<g id="a_Node000000"><a xlink:href="class_acts_1_1_i_surfaces_provider.html" target="_top" xlink:title="This is the interface for providing surfaces to the detector building process.">
<polygon fill="white" stroke="#666666" points="129,-48.5 0,-48.5 0,-29.5 129,-29.5 129,-48.5"/>
<text text-anchor="middle" x="64.5" y="-36.5" font-family="Helvetica,sans-Serif" font-size="10.00">Acts::ISurfacesProvider</text>
</a>
</g>
</g>
<!-- Node1 -->
<g id="Node000001" class="node">
<title>Node1</title>
<g id="a_Node000001"><a xlink:href="class_acts_1_1_kdt_surfaces_provider.html" target="_top" xlink:title="Callable struct wrapper around the KDT surface structure.">
<polygon fill="white" stroke="#666666" points="312,-78 169,-78 169,-48 312,-48 312,-78"/>
<text text-anchor="start" x="177" y="-66" font-family="Helvetica,sans-Serif" font-size="10.00">Acts::KdtSurfacesProvider</text>
<text text-anchor="middle" x="240.5" y="-55" font-family="Helvetica,sans-Serif" font-size="10.00">&lt; kDIM, bSize &gt;</text>
</a>
</g>
</g>
<!-- Node0&#45;&gt;Node1 -->
<g id="edge148_Node000000_Node000001" class="edge">
<title>Node0&#45;&gt;Node1</title>
<g id="a_edge148_Node000000_Node000001"><a xlink:title=" ">
<path fill="none" stroke="#63b8ff" d="M139.41,-49.19C149.2,-50.54 159.22,-51.93 168.95,-53.27"/>
<polygon fill="#63b8ff" stroke="#63b8ff" points="139.69,-45.7 129.3,-47.8 138.73,-52.63 139.69,-45.7"/>
</a>
</g>
</g>
<!-- Node2 -->
<g id="Node000002" class="node">
<title>Node2</title>
<g id="a_Node000002"><a xlink:href="class_acts_plugins_1_1_geant4_surface_provider.html" target="_top" xlink:title="A surface provider that extracts surfaces from a gdml file.">
<polygon fill="white" stroke="#666666" points="316,-30 165,-30 165,0 316,0 316,-30"/>
<text text-anchor="start" x="173" y="-18" font-family="Helvetica,sans-Serif" font-size="10.00">ActsPlugins::Geant4Surface</text>
<text text-anchor="middle" x="240.5" y="-7" font-family="Helvetica,sans-Serif" font-size="10.00">Provider&lt; kDim, bSize &gt;</text>
</a>
</g>
</g>
<!-- Node0&#45;&gt;Node2 -->
<g id="edge149_Node000000_Node000002" class="edge">
<title>Node0&#45;&gt;Node2</title>
<g id="a_edge149_Node000000_Node000002"><a xlink:title=" ">
<path fill="none" stroke="#63b8ff" d="M139.44,-28.8C147.83,-27.64 156.39,-26.46 164.8,-25.3"/>
<polygon fill="#63b8ff" stroke="#63b8ff" points="138.73,-25.37 129.3,-30.2 139.69,-32.3 138.73,-25.37"/>
</a>
</g>
</g>
</g>
</svg>
