<?xml version="1.0" encoding="UTF-8" standalone="no"?>
<!DOCTYPE svg PUBLIC "-//W3C//DTD SVG 1.1//EN"
 "http://www.w3.org/Graphics/SVG/1.1/DTD/svg11.dtd">
<!-- Generated by graphviz version 2.43.0 (0)
 -->
<!-- Title: Graphical Class Hierarchy Pages: 1 -->
<svg width="381pt" height="76pt"
 viewBox="0.00 0.00 381.00 75.50" xmlns="http://www.w3.org/2000/svg" xmlns:xlink="http://www.w3.org/1999/xlink">
<g id="graph0" class="graph" transform="scale(1 1) rotate(0) translate(4 71.5)">
<title>Graphical Class Hierarchy</title>
<!-- Node0 -->
<g id="Node000000" class="node">
<title>Node0</title>
<g id="a_Node000000"><a xlink:href="class_acts_1_1_i_tracking_geometry_builder.html" target="_top" xlink:title="Interface class for the TrackingGeometry building, this is used by the TrackingGeometrySvc to build t...">
<polygon fill="white" stroke="#666666" points="170,-40 0,-40 0,-21 170,-21 170,-40"/>
<text text-anchor="middle" x="85" y="-28" font-family="Helvetica,sans-Serif" font-size="10.00">Acts::ITrackingGeometryBuilder</text>
</a>
</g>
</g>
<!-- Node1 -->
<g id="Node000001" class="node">
<title>Node1</title>
<g id="a_Node000001"><a xlink:href="class_acts_1_1_k_d_tree_tracking_geometry_builder.html" target="_top" xlink:title="A Tracking Geometry builder restricted to cylindrical geometries.">
<polygon fill="white" stroke="#666666" points="373,-67.5 206,-67.5 206,-37.5 373,-37.5 373,-67.5"/>
<text text-anchor="start" x="214" y="-55.5" font-family="Helvetica,sans-Serif" font-size="10.00">Acts::KDTreeTrackingGeometry</text>
<text text-anchor="middle" x="289.5" y="-44.5" font-family="Helvetica,sans-Serif" font-size="10.00">Builder</text>
</a>
</g>
</g>
<!-- Node0&#45;&gt;Node1 -->
<g id="edge150_Node000000_Node000001" class="edge">
<title>Node0&#45;&gt;Node1</title>
<g id="a_edge150_Node000000_Node000001"><a xlink:title=" ">
<path fill="none" stroke="#63b8ff" d="M180.17,-40.73C188.78,-41.67 197.45,-42.61 205.94,-43.53"/>
<polygon fill="#63b8ff" stroke="#63b8ff" points="180.44,-37.24 170.12,-39.64 179.68,-44.2 180.44,-37.24"/>
</a>
</g>
</g>
<!-- Node2 -->
<g id="Node000002" class="node">
<title>Node2</title>
<g id="a_Node000002"><a xlink:href="class_acts_1_1_tracking_geometry_builder.html" target="_top" xlink:title="The Acts::TrackingGeometry Builder for volumes that wrap around another.">
<polygon fill="white" stroke="#666666" points="373,-19 206,-19 206,0 373,0 373,-19"/>
<text text-anchor="middle" x="289.5" y="-7" font-family="Helvetica,sans-Serif" font-size="10.00">Acts::TrackingGeometryBuilder</text>
</a>
</g>
</g>
<!-- Node0&#45;&gt;Node2 -->
<g id="edge151_Node000000_Node000002" class="edge">
<title>Node0&#45;&gt;Node2</title>
<g id="a_edge151_Node000000_Node000002"><a xlink:title=" ">
<path fill="none" stroke="#63b8ff" d="M180.17,-20.73C188.78,-19.84 197.45,-18.94 205.94,-18.06"/>
<polygon fill="#63b8ff" stroke="#63b8ff" points="179.7,-17.26 170.12,-21.78 180.43,-24.23 179.7,-17.26"/>
</a>
</g>
</g>
</g>
</svg>
