<?xml version="1.0" encoding="UTF-8" standalone="no"?>
<!DOCTYPE svg PUBLIC "-//W3C//DTD SVG 1.1//EN"
 "http://www.w3.org/Graphics/SVG/1.1/DTD/svg11.dtd">
<!-- Generated by graphviz version 2.43.0 (0)
 -->
<!-- Title: ActsPlugins::GeoModelTree Pages: 1 -->
<svg width="788pt" height="120pt"
 viewBox="0.00 0.00 788.00 120.00" xmlns="http://www.w3.org/2000/svg" xmlns:xlink="http://www.w3.org/1999/xlink">
<g id="graph0" class="graph" transform="scale(1 1) rotate(0) translate(4 116)">
<title>ActsPlugins::GeoModelTree</title>
<!-- Node1 -->
<g id="Node000001" class="node">
<title>Node1</title>
<g id="a_Node000001"><a xlink:title="Holder struct to manage a GeoModel world.">
<polygon fill="#999999" stroke="#666666" points="780,-67.5 631,-67.5 631,-48.5 780,-48.5 780,-67.5"/>
<text text-anchor="middle" x="705.5" y="-55.5" font-family="Helvetica,sans-Serif" font-size="10.00">ActsPlugins::GeoModelTree</text>
</a>
</g>
</g>
<!-- Node2 -->
<g id="Node000002" class="node">
<title>Node2</title>
<g id="a_Node000002"><a xlink:title=" ">
<polygon fill="white" stroke="#666666" points="492,-111.5 307,-111.5 307,-92.5 492,-92.5 492,-111.5"/>
<text text-anchor="middle" x="399.5" y="-99.5" font-family="Helvetica,sans-Serif" font-size="10.00">std::shared_ptr&lt; GMDBManager &gt;</text>
</a>
</g>
</g>
<!-- Node2&#45;&gt;Node1 -->
<g id="edge1_Node000001_Node000002" class="edge">
<title>Node2&#45;&gt;Node1</title>
<g id="a_edge1_Node000001_Node000002"><a xlink:title=" ">
<path fill="none" stroke="#9a32cd" stroke-dasharray="5,2" d="M502.28,-91.86C537.45,-87.87 577.04,-82.84 613,-77 629.17,-74.37 646.83,-70.86 662.28,-67.57"/>
<polygon fill="#9a32cd" stroke="#9a32cd" points="501.55,-88.42 492,-93.01 502.33,-95.38 501.55,-88.42"/>
</a>
</g>
<text text-anchor="start" x="548" y="-95.5" font-family="Helvetica,sans-Serif" font-size="10.00" fill="grey">dbMgr</text>
</g>
<!-- Node3 -->
<g id="Node000003" class="node">
<title>Node3</title>
<g id="a_Node000003"><a xlink:title=" ">
<polygon fill="white" stroke="#666666" points="118,-89.5 0,-89.5 0,-70.5 118,-70.5 118,-89.5"/>
<text text-anchor="middle" x="59" y="-77.5" font-family="Helvetica,sans-Serif" font-size="10.00">std::shared_ptr&lt; T &gt;</text>
</a>
</g>
</g>
<!-- Node3&#45;&gt;Node2 -->
<g id="edge2_Node000002_Node000003" class="edge">
<title>Node3&#45;&gt;Node2</title>
<g id="a_edge2_Node000002_Node000003"><a xlink:title=" ">
<path fill="none" stroke="orange" stroke-dasharray="5,2" d="M128.25,-85.45C130.87,-85.64 133.46,-85.82 136,-86 192.71,-89.97 256.34,-93.86 306.75,-96.81"/>
<polygon fill="orange" stroke="orange" points="128.32,-81.94 118.08,-84.69 127.8,-88.92 128.32,-81.94"/>
</a>
</g>
<text text-anchor="start" x="163" y="-100.5" font-family="Helvetica,sans-Serif" font-size="10.00" fill="grey">&lt; GMDBManager &gt;</text>
</g>
<!-- Node4 -->
<g id="Node000004" class="node">
<title>Node4</title>
<g id="a_Node000004"><a xlink:title=" ">
<polygon fill="white" stroke="#666666" points="495,-73 304,-73 304,-43 495,-43 495,-73"/>
<text text-anchor="start" x="312" y="-61" font-family="Helvetica,sans-Serif" font-size="10.00">std::shared_ptr&lt; ActsPlugins</text>
<text text-anchor="middle" x="399.5" y="-50" font-family="Helvetica,sans-Serif" font-size="10.00">::GeoModelTree::VolumePublisher &gt;</text>
</a>
</g>
</g>
<!-- Node3&#45;&gt;Node4 -->
<g id="edge4_Node000004_Node000003" class="edge">
<title>Node3&#45;&gt;Node4</title>
<g id="a_edge4_Node000004_Node000003"><a xlink:title=" ">
<path fill="none" stroke="orange" stroke-dasharray="5,2" d="M87.6,-66.2C101.7,-59.91 119.36,-53.17 136,-50 190.98,-39.54 253.59,-40.95 303.87,-45.25"/>
<polygon fill="orange" stroke="orange" points="86.06,-63.05 78.46,-70.43 89,-69.41 86.06,-63.05"/>
</a>
</g>
<text text-anchor="start" x="139" y="-71" font-family="Helvetica,sans-Serif" font-size="10.00" fill="grey">&lt; ActsPlugins::GeoModelTree</text>
<text text-anchor="start" x="139" y="-56" font-family="Helvetica,sans-Serif" font-size="10.00" fill="grey">  ::VolumePublisher &gt;</text>
</g>
<!-- Node4&#45;&gt;Node1 -->
<g id="edge3_Node000001_Node000004" class="edge">
<title>Node4&#45;&gt;Node1</title>
<g id="a_edge3_Node000001_Node000004"><a xlink:title=" ">
<path fill="none" stroke="#9a32cd" stroke-dasharray="5,2" d="M505.14,-58C546.51,-58 593.08,-58 630.8,-58"/>
<polygon fill="#9a32cd" stroke="#9a32cd" points="505.02,-54.5 495.02,-58 505.02,-61.5 505.02,-54.5"/>
</a>
</g>
<text text-anchor="start" x="540" y="-63.5" font-family="Helvetica,sans-Serif" font-size="10.00" fill="grey">publisher</text>
</g>
<!-- Node5 -->
<g id="Node000005" class="node">
<title>Node5</title>
<g id="a_Node000005"><a xlink:title=" ">
<polygon fill="white" stroke="#666666" points="432,-24.5 367,-24.5 367,-5.5 432,-5.5 432,-24.5"/>
<text text-anchor="middle" x="399.5" y="-12.5" font-family="Helvetica,sans-Serif" font-size="10.00">std::string</text>
</a>
</g>
</g>
<!-- Node5&#45;&gt;Node1 -->
<g id="edge5_Node000001_Node000005" class="edge">
<title>Node5&#45;&gt;Node1</title>
<g id="a_edge5_Node000001_Node000005"><a xlink:title=" ">
<path fill="none" stroke="#9a32cd" stroke-dasharray="5,2" d="M442.44,-17.82C485.45,-21.07 554.18,-27.24 613,-37 631.17,-40.01 651.13,-44.46 667.75,-48.48"/>
<polygon fill="#9a32cd" stroke="#9a32cd" points="442.57,-14.32 432.34,-17.07 442.06,-21.3 442.57,-14.32"/>
</a>
</g>
<text text-anchor="start" x="516" y="-42.5" font-family="Helvetica,sans-Serif" font-size="10.00" fill="grey">worldVolumeName</text>
</g>
<!-- Node6 -->
<g id="Node000006" class="node">
<title>Node6</title>
<g id="a_Node000006"><a xlink:title=" ">
<polygon fill="white" stroke="#666666" points="111,-30 7,-30 7,0 111,0 111,-30"/>
<text text-anchor="start" x="15" y="-18" font-family="Helvetica,sans-Serif" font-size="10.00">std::basic_string&lt;</text>
<text text-anchor="middle" x="59" y="-7" font-family="Helvetica,sans-Serif" font-size="10.00"> Char &gt;</text>
</a>
</g>
</g>
<!-- Node6&#45;&gt;Node5 -->
<g id="edge6_Node000005_Node000006" class="edge">
<title>Node6&#45;&gt;Node5</title>
<g id="a_edge6_Node000005_Node000006"><a xlink:title=" ">
<path fill="none" stroke="#63b8ff" d="M121.37,-15C193.65,-15 310.95,-15 366.88,-15"/>
<polygon fill="#63b8ff" stroke="#63b8ff" points="121.04,-11.5 111.04,-15 121.04,-18.5 121.04,-11.5"/>
</a>
</g>
</g>
</g>
</svg>
