<?xml version="1.0" encoding="UTF-8" standalone="no"?>
<!DOCTYPE svg PUBLIC "-//W3C//DTD SVG 1.1//EN"
 "http://www.w3.org/Graphics/SVG/1.1/DTD/svg11.dtd">
<!-- Generated by graphviz version 2.43.0 (0)
 -->
<!-- Title: Acts::GsfExtensions&lt; traj_t &gt; Pages: 1 -->
<svg width="873pt" height="332pt"
 viewBox="0.00 0.00 873.00 331.51" xmlns="http://www.w3.org/2000/svg" xmlns:xlink="http://www.w3.org/1999/xlink">
<g id="graph0" class="graph" transform="scale(1 1) rotate(0) translate(4 327.51)">
<title>Acts::GsfExtensions&lt; traj_t &gt;</title>
<!-- Node1 -->
<g id="Node000001" class="node">
<title>Node1</title>
<g id="a_Node000001"><a xlink:title="The extensions needed for the GSF.">
<polygon fill="#999999" stroke="#666666" points="865,-152.51 752,-152.51 752,-122.51 865,-122.51 865,-152.51"/>
<text text-anchor="start" x="760" y="-140.51" font-family="Helvetica,sans-Serif" font-size="10.00">Acts::GsfExtensions</text>
<text text-anchor="middle" x="808.5" y="-129.51" font-family="Helvetica,sans-Serif" font-size="10.00">&lt; traj_t &gt;</text>
</a>
</g>
</g>
<!-- Node2 -->
<g id="Node000002" class="node">
<title>Node2</title>
<g id="a_Node000002"><a xlink:href="class_acts_1_1_delegate.html" target="_top" xlink:title=" ">
<polygon fill="white" stroke="#666666" points="630,-292.51 407,-292.51 407,-240.51 630,-240.51 630,-292.51"/>
<text text-anchor="start" x="415" y="-280.51" font-family="Helvetica,sans-Serif" font-size="10.00">Acts::Delegate&lt; void</text>
<text text-anchor="start" x="415" y="-269.51" font-family="Helvetica,sans-Serif" font-size="10.00">(const GeometryContext</text>
<text text-anchor="start" x="415" y="-258.51" font-family="Helvetica,sans-Serif" font-size="10.00"> &amp;, const CalibrationContext</text>
<text text-anchor="middle" x="518.5" y="-247.51" font-family="Helvetica,sans-Serif" font-size="10.00"> &amp;, const SourceLink &amp;, TrackStateProxy)&gt;</text>
</a>
</g>
</g>
<!-- Node2&#45;&gt;Node1 -->
<g id="edge1_Node000001_Node000002" class="edge">
<title>Node2&#45;&gt;Node1</title>
<g id="a_edge1_Node000001_Node000002"><a xlink:title=" ">
<path fill="none" stroke="#9a32cd" stroke-dasharray="5,2" d="M633.17,-237.32C666.7,-226.5 702.76,-212.6 734,-195.51 755.68,-183.65 777.52,-165.42 791.7,-152.57"/>
<polygon fill="#9a32cd" stroke="#9a32cd" points="631.8,-234.08 623.32,-240.43 633.91,-240.76 631.8,-234.08"/>
</a>
</g>
<text text-anchor="start" x="668" y="-237.01" font-family="Helvetica,sans-Serif" font-size="10.00" fill="grey">calibrator</text>
</g>
<!-- Node3 -->
<g id="Node000003" class="node">
<title>Node3</title>
<g id="a_Node000003"><a xlink:href="class_acts_1_1_delegate.html" target="_top" xlink:title=" ">
<polygon fill="white" stroke="#666666" points="152,-170.51 0,-170.51 0,-140.51 152,-140.51 152,-170.51"/>
<text text-anchor="start" x="8" y="-158.51" font-family="Helvetica,sans-Serif" font-size="10.00">Acts::Delegate&lt; typename,</text>
<text text-anchor="middle" x="76" y="-147.51" font-family="Helvetica,sans-Serif" font-size="10.00"> H, DelegateType &gt;</text>
</a>
</g>
</g>
<!-- Node3&#45;&gt;Node2 -->
<g id="edge2_Node000002_Node000003" class="edge">
<title>Node3&#45;&gt;Node2</title>
<g id="a_edge2_Node000002_Node000003"><a xlink:title=" ">
<path fill="none" stroke="orange" stroke-dasharray="5,2" d="M94.22,-178.55C111.03,-199.07 138.61,-227.9 170,-241.51 244.36,-273.74 336.09,-279.08 406.62,-276.85"/>
<polygon fill="orange" stroke="orange" points="96.86,-176.25 87.9,-170.6 91.38,-180.6 96.86,-176.25"/>
</a>
</g>
<text text-anchor="start" x="173.5" y="-312.01" font-family="Helvetica,sans-Serif" font-size="10.00" fill="grey">&lt; void(const GeometryContext</text>
<text text-anchor="start" x="173.5" y="-297.01" font-family="Helvetica,sans-Serif" font-size="10.00" fill="grey">   &amp;, const CalibrationContext</text>
<text text-anchor="start" x="173.5" y="-282.01" font-family="Helvetica,sans-Serif" font-size="10.00" fill="grey">   &amp;, const SourceLink &amp;, TrackStateProxy)&gt;</text>
</g>
<!-- Node4 -->
<g id="Node000004" class="node">
<title>Node4</title>
<g id="a_Node000004"><a xlink:href="class_acts_1_1_delegate.html" target="_top" xlink:title=" ">
<polygon fill="white" stroke="#666666" points="608.5,-222.51 428.5,-222.51 428.5,-170.51 608.5,-170.51 608.5,-222.51"/>
<text text-anchor="start" x="436.5" y="-210.51" font-family="Helvetica,sans-Serif" font-size="10.00">Acts::Delegate&lt; Result</text>
<text text-anchor="start" x="436.5" y="-199.51" font-family="Helvetica,sans-Serif" font-size="10.00">&lt; void &gt;(const GeometryContext</text>
<text text-anchor="start" x="436.5" y="-188.51" font-family="Helvetica,sans-Serif" font-size="10.00"> &amp;, TrackStateProxy, const</text>
<text text-anchor="middle" x="518.5" y="-177.51" font-family="Helvetica,sans-Serif" font-size="10.00"> Logger &amp;)&gt;</text>
</a>
</g>
</g>
<!-- Node3&#45;&gt;Node4 -->
<g id="edge4_Node000004_Node000003" class="edge">
<title>Node3&#45;&gt;Node4</title>
<g id="a_edge4_Node000004_Node000003"><a xlink:title=" ">
<path fill="none" stroke="orange" stroke-dasharray="5,2" d="M161.93,-171.43C164.65,-171.81 167.34,-172.17 170,-172.51 257.45,-183.48 357.97,-189.74 428.32,-193.09"/>
<polygon fill="orange" stroke="orange" points="162.42,-167.96 152.01,-169.96 161.39,-174.89 162.42,-167.96"/>
</a>
</g>
<text text-anchor="start" x="197.5" y="-226.01" font-family="Helvetica,sans-Serif" font-size="10.00" fill="grey">&lt; Result&lt; void &gt;(const</text>
<text text-anchor="start" x="197.5" y="-211.01" font-family="Helvetica,sans-Serif" font-size="10.00" fill="grey">   GeometryContext &amp;, TrackState</text>
<text text-anchor="start" x="197.5" y="-196.01" font-family="Helvetica,sans-Serif" font-size="10.00" fill="grey">  Proxy, const Logger &amp;)&gt;</text>
</g>
<!-- Node5 -->
<g id="Node000005" class="node">
<title>Node5</title>
<g id="a_Node000005"><a xlink:href="class_acts_1_1_delegate.html" target="_top" xlink:title=" ">
<polygon fill="white" stroke="#666666" points="588,-152.51 449,-152.51 449,-122.51 588,-122.51 588,-152.51"/>
<text text-anchor="start" x="457" y="-140.51" font-family="Helvetica,sans-Serif" font-size="10.00">Acts::Delegate&lt; bool</text>
<text text-anchor="middle" x="518.5" y="-129.51" font-family="Helvetica,sans-Serif" font-size="10.00">(ConstTrackStateProxy)&gt;</text>
</a>
</g>
</g>
<!-- Node3&#45;&gt;Node5 -->
<g id="edge6_Node000005_Node000003" class="edge">
<title>Node3&#45;&gt;Node5</title>
<g id="a_edge6_Node000005_Node000003"><a xlink:title=" ">
<path fill="none" stroke="orange" stroke-dasharray="5,2" d="M162.45,-152.01C245.96,-148.6 371.48,-143.47 448.75,-140.31"/>
<polygon fill="orange" stroke="orange" points="162.07,-148.53 152.22,-152.43 162.36,-155.52 162.07,-148.53"/>
</a>
</g>
<text text-anchor="start" x="202.5" y="-157.01" font-family="Helvetica,sans-Serif" font-size="10.00" fill="grey">&lt; bool(ConstTrackStateProxy)&gt;</text>
</g>
<!-- Node6 -->
<g id="Node000006" class="node">
<title>Node6</title>
<g id="a_Node000006"><a xlink:href="class_acts_1_1_delegate.html" target="_top" xlink:title=" ">
<polygon fill="white" stroke="#666666" points="605,-104.51 432,-104.51 432,-74.51 605,-74.51 605,-104.51"/>
<text text-anchor="start" x="440" y="-92.51" font-family="Helvetica,sans-Serif" font-size="10.00">Acts::Delegate&lt; const</text>
<text text-anchor="middle" x="518.5" y="-81.51" font-family="Helvetica,sans-Serif" font-size="10.00"> Surface *(const SourceLink &amp;)&gt;</text>
</a>
</g>
</g>
<!-- Node3&#45;&gt;Node6 -->
<g id="edge8_Node000006_Node000003" class="edge">
<title>Node3&#45;&gt;Node6</title>
<g id="a_edge8_Node000006_Node000003"><a xlink:title=" ">
<path fill="none" stroke="orange" stroke-dasharray="5,2" d="M107.42,-135.13C124.93,-124.54 147.81,-112.57 170,-106.51 256.96,-82.73 360.64,-80.9 431.98,-83.51"/>
<polygon fill="orange" stroke="orange" points="105.42,-132.25 98.78,-140.5 109.12,-138.19 105.42,-132.25"/>
</a>
</g>
<text text-anchor="start" x="221.5" y="-127.51" font-family="Helvetica,sans-Serif" font-size="10.00" fill="grey">&lt; const Surface *(const</text>
<text text-anchor="start" x="221.5" y="-112.51" font-family="Helvetica,sans-Serif" font-size="10.00" fill="grey">   SourceLink &amp;)&gt;</text>
</g>
<!-- Node7 -->
<g id="Node000007" class="node">
<title>Node7</title>
<g id="a_Node000007"><a xlink:title=" ">
<polygon fill="white" stroke="#666666" points="596.5,-56.51 440.5,-56.51 440.5,-4.51 596.5,-4.51 596.5,-56.51"/>
<text text-anchor="start" x="448.5" y="-44.51" font-family="Helvetica,sans-Serif" font-size="10.00">Acts::Delegate&lt; void</text>
<text text-anchor="start" x="448.5" y="-33.51" font-family="Helvetica,sans-Serif" font-size="10.00">(std::vector&lt; GsfComponent</text>
<text text-anchor="start" x="448.5" y="-22.51" font-family="Helvetica,sans-Serif" font-size="10.00"> &gt; &amp;, std::size_t, const</text>
<text text-anchor="middle" x="518.5" y="-11.51" font-family="Helvetica,sans-Serif" font-size="10.00"> Surface &amp;)&gt;</text>
</a>
</g>
</g>
<!-- Node3&#45;&gt;Node7 -->
<g id="edge10_Node000007_Node000003" class="edge">
<title>Node3&#45;&gt;Node7</title>
<g id="a_edge10_Node000007_Node000003"><a xlink:title=" ">
<path fill="none" stroke="orange" stroke-dasharray="5,2" d="M86.99,-131.18C100.71,-101.39 128.51,-52.32 170,-31.51 254.93,11.11 366.89,1.67 440.47,-11.91"/>
<polygon fill="orange" stroke="orange" points="83.72,-129.91 82.87,-140.48 90.12,-132.75 83.72,-129.91"/>
</a>
</g>
<text text-anchor="start" x="202.5" y="-67.01" font-family="Helvetica,sans-Serif" font-size="10.00" fill="grey">&lt; void(std::vector</text>
<text text-anchor="start" x="202.5" y="-52.01" font-family="Helvetica,sans-Serif" font-size="10.00" fill="grey">  &lt; GsfComponent &gt; &amp;,</text>
<text text-anchor="start" x="202.5" y="-37.01" font-family="Helvetica,sans-Serif" font-size="10.00" fill="grey">   std::size_t, const Surface &amp;)&gt;</text>
</g>
<!-- Node4&#45;&gt;Node1 -->
<g id="edge3_Node000001_Node000004" class="edge">
<title>Node4&#45;&gt;Node1</title>
<g id="a_edge3_Node000001_Node000004"><a xlink:title=" ">
<path fill="none" stroke="#9a32cd" stroke-dasharray="5,2" d="M618.75,-181.11C655.17,-174.89 696.61,-167.13 734,-158.51 741.63,-156.74 749.65,-154.68 757.47,-152.55"/>
<polygon fill="#9a32cd" stroke="#9a32cd" points="617.9,-177.71 608.62,-182.83 619.07,-184.61 617.9,-177.71"/>
</a>
</g>
<text text-anchor="start" x="672" y="-180.01" font-family="Helvetica,sans-Serif" font-size="10.00" fill="grey">updater</text>
</g>
<!-- Node5&#45;&gt;Node1 -->
<g id="edge5_Node000001_Node000005" class="edge">
<title>Node5&#45;&gt;Node1</title>
<g id="a_edge5_Node000001_Node000005"><a xlink:title=" ">
<path fill="none" stroke="#9a32cd" stroke-dasharray="5,2" d="M598.31,-137.51C647.01,-137.51 708.32,-137.51 751.95,-137.51"/>
<polygon fill="#9a32cd" stroke="#9a32cd" points="598.12,-134.01 588.12,-137.51 598.12,-141.01 598.12,-134.01"/>
</a>
</g>
<text text-anchor="start" x="660" y="-143.01" font-family="Helvetica,sans-Serif" font-size="10.00" fill="grey">outlierFinder</text>
</g>
<!-- Node6&#45;&gt;Node1 -->
<g id="edge7_Node000001_Node000006" class="edge">
<title>Node6&#45;&gt;Node1</title>
<g id="a_edge7_Node000001_Node000006"><a xlink:title=" ">
<path fill="none" stroke="#9a32cd" stroke-dasharray="5,2" d="M615.41,-98.4C652.64,-102.69 695.51,-108.63 734,-116.51 742.06,-118.15 750.53,-120.24 758.73,-122.44"/>
<polygon fill="#9a32cd" stroke="#9a32cd" points="615.39,-94.88 605.06,-97.24 614.61,-101.84 615.39,-94.88"/>
</a>
</g>
<text text-anchor="start" x="651" y="-122.01" font-family="Helvetica,sans-Serif" font-size="10.00" fill="grey">surfaceAccessor</text>
</g>
<!-- Node7&#45;&gt;Node1 -->
<g id="edge9_Node000001_Node000007" class="edge">
<title>Node7&#45;&gt;Node1</title>
<g id="a_edge9_Node000001_Node000007"><a xlink:title=" ">
<path fill="none" stroke="#9a32cd" stroke-dasharray="5,2" d="M606.58,-42.68C646.7,-50.41 694.13,-62.63 734,-81.51 756.04,-91.94 777.82,-109.73 791.88,-122.46"/>
<polygon fill="#9a32cd" stroke="#9a32cd" points="607.02,-39.21 596.55,-40.82 605.74,-46.09 607.02,-39.21"/>
</a>
</g>
<text text-anchor="start" x="652" y="-87.01" font-family="Helvetica,sans-Serif" font-size="10.00" fill="grey">mixtureReducer</text>
</g>
</g>
</svg>
