<?xml version="1.0" encoding="UTF-8" standalone="no"?>
<!DOCTYPE svg PUBLIC "-//W3C//DTD SVG 1.1//EN"
 "http://www.w3.org/Graphics/SVG/1.1/DTD/svg11.dtd">
<!-- Generated by graphviz version 2.43.0 (0)
 -->
<!-- Title: Acts::Color Pages: 1 -->
<svg width="118pt" height="171pt"
 viewBox="0.00 0.00 118.00 171.00" xmlns="http://www.w3.org/2000/svg" xmlns:xlink="http://www.w3.org/1999/xlink">
<g id="graph0" class="graph" transform="scale(1 1) rotate(0) translate(4 167)">
<title>Acts::Color</title>
<!-- Node1 -->
<g id="Node000001" class="node">
<title>Node1</title>
<g id="a_Node000001"><a xlink:title="Struct describing a color.">
<polygon fill="#999999" stroke="#666666" points="89.5,-19 20.5,-19 20.5,0 89.5,0 89.5,-19"/>
<text text-anchor="middle" x="55" y="-7" font-family="Helvetica,sans-Serif" font-size="10.00">Acts::Color</text>
</a>
</g>
</g>
<!-- Node2 -->
<g id="Node000002" class="node">
<title>Node2</title>
<g id="a_Node000002"><a xlink:title=" ">
<polygon fill="white" stroke="#666666" points="110,-91 0,-91 0,-72 110,-72 110,-91"/>
<text text-anchor="middle" x="55" y="-79" font-family="Helvetica,sans-Serif" font-size="10.00">std::array&lt; int, 3 &gt;</text>
</a>
</g>
</g>
<!-- Node2&#45;&gt;Node1 -->
<g id="edge1_Node000001_Node000002" class="edge">
<title>Node2&#45;&gt;Node1</title>
<g id="a_edge1_Node000001_Node000002"><a xlink:title=" ">
<path fill="none" stroke="#9a32cd" stroke-dasharray="5,2" d="M55,-61.58C55,-47.76 55,-29.68 55,-19.15"/>
<polygon fill="#9a32cd" stroke="#9a32cd" points="51.5,-61.92 55,-71.92 58.5,-61.92 51.5,-61.92"/>
</a>
</g>
<text text-anchor="start" x="58" y="-42.5" font-family="Helvetica,sans-Serif" font-size="10.00" fill="grey">rgb</text>
</g>
<!-- Node3 -->
<g id="Node000003" class="node">
<title>Node3</title>
<g id="a_Node000003"><a xlink:title=" ">
<polygon fill="white" stroke="#666666" points="101,-163 9,-163 9,-144 101,-144 101,-163"/>
<text text-anchor="middle" x="55" y="-151" font-family="Helvetica,sans-Serif" font-size="10.00">std::array&lt; T &gt;</text>
</a>
</g>
</g>
<!-- Node3&#45;&gt;Node2 -->
<g id="edge2_Node000002_Node000003" class="edge">
<title>Node3&#45;&gt;Node2</title>
<g id="a_edge2_Node000002_Node000003"><a xlink:title=" ">
<path fill="none" stroke="orange" stroke-dasharray="5,2" d="M55,-133.58C55,-119.76 55,-101.68 55,-91.15"/>
<polygon fill="orange" stroke="orange" points="51.5,-133.92 55,-143.92 58.5,-133.92 51.5,-133.92"/>
</a>
</g>
<text text-anchor="start" x="58" y="-114.5" font-family="Helvetica,sans-Serif" font-size="10.00" fill="grey">&lt; int, 3 &gt;</text>
</g>
</g>
</svg>
