<?xml version="1.0" encoding="UTF-8" standalone="no"?>
<!DOCTYPE svg PUBLIC "-//W3C//DTD SVG 1.1//EN"
 "http://www.w3.org/Graphics/SVG/1.1/DTD/svg11.dtd">
<!-- Generated by graphviz version 2.43.0 (0)
 -->
<!-- Title: Acts::ProtoVolume::ContainerStructure Pages: 1 -->
<svg width="303pt" height="193pt"
 viewBox="0.00 0.00 302.50 193.00" xmlns="http://www.w3.org/2000/svg" xmlns:xlink="http://www.w3.org/1999/xlink">
<g id="graph0" class="graph" transform="scale(1 1) rotate(0) translate(4 189)">
<title>Acts::ProtoVolume::ContainerStructure</title>
<!-- Node1 -->
<g id="Node000001" class="node">
<title>Node1</title>
<g id="a_Node000001"><a xlink:title=" ">
<polygon fill="#999999" stroke="#666666" points="179.5,-30 67.5,-30 67.5,0 179.5,0 179.5,-30"/>
<text text-anchor="start" x="75.5" y="-18" font-family="Helvetica,sans-Serif" font-size="10.00">Acts::ProtoVolume::</text>
<text text-anchor="middle" x="123.5" y="-7" font-family="Helvetica,sans-Serif" font-size="10.00">ContainerStructure</text>
</a>
</g>
</g>
<!-- Node2 -->
<g id="Node000002" class="node">
<title>Node2</title>
<g id="a_Node000002"><a xlink:title=" ">
<polygon fill="white" stroke="#666666" points="107,-113 0,-113 0,-83 107,-83 107,-113"/>
<text text-anchor="start" x="8" y="-101" font-family="Helvetica,sans-Serif" font-size="10.00">std::vector&lt; Acts::</text>
<text text-anchor="middle" x="53.5" y="-90" font-family="Helvetica,sans-Serif" font-size="10.00">ProtoVolume &gt;</text>
</a>
</g>
</g>
<!-- Node2&#45;&gt;Node1 -->
<g id="edge1_Node000001_Node000002" class="edge">
<title>Node2&#45;&gt;Node1</title>
<g id="a_edge1_Node000001_Node000002"><a xlink:title=" ">
<path fill="none" stroke="#9a32cd" stroke-dasharray="5,2" d="M51.35,-72.72C51.74,-64.26 53.56,-55.11 58.5,-48 63.74,-40.46 71.28,-34.62 79.38,-30.12"/>
<polygon fill="#9a32cd" stroke="#9a32cd" points="47.86,-72.93 51.5,-82.88 54.86,-72.83 47.86,-72.93"/>
</a>
</g>
<text text-anchor="start" x="62" y="-53.5" font-family="Helvetica,sans-Serif" font-size="10.00" fill="grey">constituentVolumes</text>
</g>
<!-- Node3 -->
<g id="Node000003" class="node">
<title>Node3</title>
<g id="a_Node000003"><a xlink:title=" ">
<polygon fill="white" stroke="#666666" points="168,-185 71,-185 71,-166 168,-166 168,-185"/>
<text text-anchor="middle" x="119.5" y="-173" font-family="Helvetica,sans-Serif" font-size="10.00">std::vector&lt; T &gt;</text>
</a>
</g>
</g>
<!-- Node3&#45;&gt;Node2 -->
<g id="edge2_Node000002_Node000003" class="edge">
<title>Node3&#45;&gt;Node2</title>
<g id="a_edge2_Node000002_Node000003"><a xlink:title=" ">
<path fill="none" stroke="orange" stroke-dasharray="5,2" d="M65.44,-161.53C59.58,-158.04 54.36,-153.61 50.5,-148 43.55,-137.88 45.37,-123.65 48.29,-113.12"/>
<polygon fill="orange" stroke="orange" points="63.88,-164.66 74.39,-166 67.01,-158.4 63.88,-164.66"/>
</a>
</g>
<text text-anchor="start" x="53.5" y="-136.5" font-family="Helvetica,sans-Serif" font-size="10.00" fill="grey">&lt; Acts::ProtoVolume &gt;</text>
</g>
<!-- Node4 -->
<g id="Node000004" class="node">
<title>Node4</title>
<g id="a_Node000004"><a xlink:title=" ">
<polygon fill="white" stroke="#666666" points="243,-113 136,-113 136,-83 243,-83 243,-113"/>
<text text-anchor="start" x="144" y="-101" font-family="Helvetica,sans-Serif" font-size="10.00">std::vector&lt; Acts::</text>
<text text-anchor="middle" x="189.5" y="-90" font-family="Helvetica,sans-Serif" font-size="10.00">BinningData &gt;</text>
</a>
</g>
</g>
<!-- Node3&#45;&gt;Node4 -->
<g id="edge4_Node000004_Node000003" class="edge">
<title>Node3&#45;&gt;Node4</title>
<g id="a_edge4_Node000004_Node000003"><a xlink:title=" ">
<path fill="none" stroke="orange" stroke-dasharray="5,2" d="M151.63,-161.16C157.78,-157.56 163.77,-153.18 168.5,-148 177.49,-138.16 183.01,-123.88 186.12,-113.28"/>
<polygon fill="orange" stroke="orange" points="149.85,-158.15 142.63,-165.9 153.11,-164.34 149.85,-158.15"/>
</a>
</g>
<text text-anchor="start" x="181.5" y="-136.5" font-family="Helvetica,sans-Serif" font-size="10.00" fill="grey">&lt; Acts::BinningData &gt;</text>
</g>
<!-- Node4&#45;&gt;Node1 -->
<g id="edge3_Node000001_Node000004" class="edge">
<title>Node4&#45;&gt;Node1</title>
<g id="a_edge3_Node000001_Node000004"><a xlink:title=" ">
<path fill="none" stroke="#9a32cd" stroke-dasharray="5,2" d="M180.56,-73.26C176.69,-64.77 171.64,-55.47 165.5,-48 160.03,-41.34 152.92,-35.26 146.1,-30.23"/>
<polygon fill="#9a32cd" stroke="#9a32cd" points="177.43,-74.84 184.54,-82.69 183.87,-72.11 177.43,-74.84"/>
</a>
</g>
<text text-anchor="start" x="178.5" y="-53.5" font-family="Helvetica,sans-Serif" font-size="10.00" fill="grey">constituentBinning</text>
</g>
</g>
</svg>
