<?xml version="1.0" encoding="UTF-8" standalone="no"?>
<!DOCTYPE svg PUBLIC "-//W3C//DTD SVG 1.1//EN"
 "http://www.w3.org/Graphics/SVG/1.1/DTD/svg11.dtd">
<!-- Generated by graphviz version 2.43.0 (0)
 -->
<!-- Title: Acts::IsReadOnlyTrackContainer&lt; T &gt; Pages: 1 -->
<svg width="645pt" height="199pt"
 viewBox="0.00 0.00 645.00 199.00" xmlns="http://www.w3.org/2000/svg" xmlns:xlink="http://www.w3.org/1999/xlink">
<g id="graph0" class="graph" transform="scale(1 1) rotate(0) translate(4 195)">
<title>Acts::IsReadOnlyTrackContainer&lt; T &gt;</title>
<!-- Node1 -->
<g id="Node000001" class="node">
<title>Node1</title>
<g id="a_Node000001"><a xlink:title=" ">
<polygon fill="#999999" stroke="#666666" points="200,-92.5 0,-92.5 0,-73.5 200,-73.5 200,-92.5"/>
<text text-anchor="middle" x="100" y="-80.5" font-family="Helvetica,sans-Serif" font-size="10.00">Acts::IsReadOnlyTrackContainer&lt; T &gt;</text>
</a>
</g>
</g>
<!-- Node2 -->
<g id="Node000002" class="node">
<title>Node2</title>
<g id="a_Node000002"><a xlink:href="struct_acts_1_1_is_read_only_track_container_3_01_acts_plugins_1_1_const_podio_track_container_01_4.html" target="_top" xlink:title=" ">
<polygon fill="white" stroke="#666666" points="631,-177 402,-177 402,-147 631,-147 631,-177"/>
<text text-anchor="start" x="410" y="-165" font-family="Helvetica,sans-Serif" font-size="10.00">Acts::IsReadOnlyTrackContainer</text>
<text text-anchor="middle" x="516.5" y="-154" font-family="Helvetica,sans-Serif" font-size="10.00">&lt; ActsPlugins::ConstPodioTrackContainer &gt;</text>
</a>
</g>
</g>
<!-- Node1&#45;&gt;Node2 -->
<g id="edge1_Node000001_Node000002" class="edge">
<title>Node1&#45;&gt;Node2</title>
<g id="a_edge1_Node000001_Node000002"><a xlink:title=" ">
<path fill="none" stroke="orange" stroke-dasharray="5,2" d="M125.75,-97.53C148.8,-110.29 184.54,-128.17 218,-137 277.51,-152.71 345.83,-159.23 401.97,-161.7"/>
<polygon fill="orange" stroke="orange" points="127.41,-94.45 116.98,-92.58 123.97,-100.54 127.41,-94.45"/>
</a>
</g>
<text text-anchor="start" x="234" y="-180" font-family="Helvetica,sans-Serif" font-size="10.00" fill="grey">&lt; ActsPlugins::ConstPodio</text>
<text text-anchor="start" x="234" y="-165" font-family="Helvetica,sans-Serif" font-size="10.00" fill="grey">  TrackContainer &gt;</text>
</g>
<!-- Node3 -->
<g id="Node000003" class="node">
<title>Node3</title>
<g id="a_Node000003"><a xlink:href="struct_acts_1_1_is_read_only_track_container_3_01_acts_plugins_1_1_mutable_podio_track_container_01_4.html" target="_top" xlink:title=" ">
<polygon fill="white" stroke="#666666" points="637,-126 396,-126 396,-96 637,-96 637,-126"/>
<text text-anchor="start" x="404" y="-114" font-family="Helvetica,sans-Serif" font-size="10.00">Acts::IsReadOnlyTrackContainer</text>
<text text-anchor="middle" x="516.5" y="-103" font-family="Helvetica,sans-Serif" font-size="10.00">&lt; ActsPlugins::MutablePodioTrackContainer &gt;</text>
</a>
</g>
</g>
<!-- Node1&#45;&gt;Node3 -->
<g id="edge2_Node000001_Node000003" class="edge">
<title>Node1&#45;&gt;Node3</title>
<g id="a_edge2_Node000001_Node000003"><a xlink:title=" ">
<path fill="none" stroke="orange" stroke-dasharray="5,2" d="M210.16,-90.37C267.26,-94.23 337.27,-98.96 395.85,-102.92"/>
<polygon fill="orange" stroke="orange" points="210.23,-86.87 200.02,-89.69 209.76,-93.86 210.23,-86.87"/>
</a>
</g>
<text text-anchor="start" x="228" y="-122" font-family="Helvetica,sans-Serif" font-size="10.00" fill="grey">&lt; ActsPlugins::MutablePodio</text>
<text text-anchor="start" x="228" y="-107" font-family="Helvetica,sans-Serif" font-size="10.00" fill="grey">  TrackContainer &gt;</text>
</g>
<!-- Node4 -->
<g id="Node000004" class="node">
<title>Node4</title>
<g id="a_Node000004"><a xlink:href="struct_acts_1_1_is_read_only_track_container_3_01_const_vector_track_container_01_4.html" target="_top" xlink:title=" ">
<polygon fill="white" stroke="#666666" points="602.5,-78 430.5,-78 430.5,-48 602.5,-48 602.5,-78"/>
<text text-anchor="start" x="438.5" y="-66" font-family="Helvetica,sans-Serif" font-size="10.00">Acts::IsReadOnlyTrackContainer</text>
<text text-anchor="middle" x="516.5" y="-55" font-family="Helvetica,sans-Serif" font-size="10.00">&lt; ConstVectorTrackContainer &gt;</text>
</a>
</g>
</g>
<!-- Node1&#45;&gt;Node4 -->
<g id="edge3_Node000001_Node000004" class="edge">
<title>Node1&#45;&gt;Node4</title>
<g id="a_edge3_Node000001_Node000004"><a xlink:title=" ">
<path fill="none" stroke="orange" stroke-dasharray="5,2" d="M175.4,-72.21C189.52,-70.51 204.19,-69 218,-68 289.49,-62.83 370.88,-61.8 430.43,-61.93"/>
<polygon fill="orange" stroke="orange" points="174.73,-68.76 165.24,-73.46 175.59,-75.71 174.73,-68.76"/>
</a>
</g>
<text text-anchor="start" x="221" y="-73.5" font-family="Helvetica,sans-Serif" font-size="10.00" fill="grey">&lt; ConstVectorTrackContainer &gt;</text>
</g>
<!-- Node5 -->
<g id="Node000005" class="node">
<title>Node5</title>
<g id="a_Node000005"><a xlink:href="struct_acts_1_1_is_read_only_track_container_3_01_vector_track_container_01_4.html" target="_top" xlink:title=" ">
<polygon fill="white" stroke="#666666" points="602.5,-30 430.5,-30 430.5,0 602.5,0 602.5,-30"/>
<text text-anchor="start" x="438.5" y="-18" font-family="Helvetica,sans-Serif" font-size="10.00">Acts::IsReadOnlyTrackContainer</text>
<text text-anchor="middle" x="516.5" y="-7" font-family="Helvetica,sans-Serif" font-size="10.00">&lt; VectorTrackContainer &gt;</text>
</a>
</g>
</g>
<!-- Node1&#45;&gt;Node5 -->
<g id="edge4_Node000001_Node000005" class="edge">
<title>Node1&#45;&gt;Node5</title>
<g id="a_edge4_Node000001_Node000005"><a xlink:title=" ">
<path fill="none" stroke="orange" stroke-dasharray="5,2" d="M131.83,-69.46C155.05,-59.88 187.93,-47.59 218,-41 288.52,-25.53 370.34,-19.2 430.31,-16.64"/>
<polygon fill="orange" stroke="orange" points="130.36,-66.28 122.5,-73.38 133.07,-72.74 130.36,-66.28"/>
</a>
</g>
<text text-anchor="start" x="235" y="-46.5" font-family="Helvetica,sans-Serif" font-size="10.00" fill="grey">&lt; VectorTrackContainer &gt;</text>
</g>
</g>
</svg>
