<?xml version="1.0" encoding="UTF-8" standalone="no"?>
<!DOCTYPE svg PUBLIC "-//W3C//DTD SVG 1.1//EN"
 "http://www.w3.org/Graphics/SVG/1.1/DTD/svg11.dtd">
<!-- Generated by graphviz version 2.43.0 (0)
 -->
<!-- Title: ActsPlugins::GeoModelDetectorObjectFactory::Cache Pages: 1 -->
<svg width="832pt" height="194pt"
 viewBox="0.00 0.00 832.00 194.00" xmlns="http://www.w3.org/2000/svg" xmlns:xlink="http://www.w3.org/1999/xlink">
<g id="graph0" class="graph" transform="scale(1 1) rotate(0) translate(4 190)">
<title>ActsPlugins::GeoModelDetectorObjectFactory::Cache</title>
<!-- Node1 -->
<g id="Node000001" class="node">
<title>Node1</title>
<g id="a_Node000001"><a xlink:title=" ">
<polygon fill="#999999" stroke="#666666" points="824,-110 654,-110 654,-80 824,-80 824,-110"/>
<text text-anchor="start" x="662" y="-98" font-family="Helvetica,sans-Serif" font-size="10.00">ActsPlugins::GeoModelDetector</text>
<text text-anchor="middle" x="739" y="-87" font-family="Helvetica,sans-Serif" font-size="10.00">ObjectFactory::Cache</text>
</a>
</g>
</g>
<!-- Node2 -->
<g id="Node000002" class="node">
<title>Node2</title>
<g id="a_Node000002"><a xlink:title=" ">
<polygon fill="white" stroke="#666666" points="498.5,-186 324.5,-186 324.5,-156 498.5,-156 498.5,-186"/>
<text text-anchor="start" x="332.5" y="-174" font-family="Helvetica,sans-Serif" font-size="10.00">std::vector&lt; GeoModelSensitive</text>
<text text-anchor="middle" x="411.5" y="-163" font-family="Helvetica,sans-Serif" font-size="10.00">Surface &gt;</text>
</a>
</g>
</g>
<!-- Node2&#45;&gt;Node1 -->
<g id="edge1_Node000001_Node000002" class="edge">
<title>Node2&#45;&gt;Node1</title>
<g id="a_edge1_Node000001_Node000002"><a xlink:title=" ">
<path fill="none" stroke="#9a32cd" stroke-dasharray="5,2" d="M508.51,-159.43C548.35,-153.52 594.79,-145.17 636,-134 659.06,-127.75 684.13,-118.21 703.64,-110.12"/>
<polygon fill="#9a32cd" stroke="#9a32cd" points="507.93,-155.98 498.54,-160.88 508.94,-162.9 507.93,-155.98"/>
</a>
</g>
<text text-anchor="start" x="538.5" y="-160.5" font-family="Helvetica,sans-Serif" font-size="10.00" fill="grey">sensitiveSurfaces</text>
</g>
<!-- Node3 -->
<g id="Node000003" class="node">
<title>Node3</title>
<g id="a_Node000003"><a xlink:title=" ">
<polygon fill="white" stroke="#666666" points="107.5,-157.5 10.5,-157.5 10.5,-138.5 107.5,-138.5 107.5,-157.5"/>
<text text-anchor="middle" x="59" y="-145.5" font-family="Helvetica,sans-Serif" font-size="10.00">std::vector&lt; T &gt;</text>
</a>
</g>
</g>
<!-- Node3&#45;&gt;Node2 -->
<g id="edge2_Node000002_Node000003" class="edge">
<title>Node3&#45;&gt;Node2</title>
<g id="a_edge2_Node000002_Node000003"><a xlink:title=" ">
<path fill="none" stroke="orange" stroke-dasharray="5,2" d="M117.76,-151.79C173.92,-155.48 259.92,-161.12 324.2,-165.34"/>
<polygon fill="orange" stroke="orange" points="117.84,-148.29 107.63,-151.13 117.38,-155.27 117.84,-148.29"/>
</a>
</g>
<text text-anchor="start" x="139" y="-167.5" font-family="Helvetica,sans-Serif" font-size="10.00" fill="grey">&lt; GeoModelSensitiveSurface &gt;</text>
</g>
<!-- Node7 -->
<g id="Node000007" class="node">
<title>Node7</title>
<g id="a_Node000007"><a xlink:title=" ">
<polygon fill="white" stroke="#666666" points="486,-138 337,-138 337,-108 486,-108 486,-138"/>
<text text-anchor="start" x="345" y="-126" font-family="Helvetica,sans-Serif" font-size="10.00">std::vector&lt; ConvertedGeo</text>
<text text-anchor="middle" x="411.5" y="-115" font-family="Helvetica,sans-Serif" font-size="10.00">Vol &gt;</text>
</a>
</g>
</g>
<!-- Node3&#45;&gt;Node7 -->
<g id="edge8_Node000007_Node000003" class="edge">
<title>Node3&#45;&gt;Node7</title>
<g id="a_edge8_Node000007_Node000003"><a xlink:title=" ">
<path fill="none" stroke="orange" stroke-dasharray="5,2" d="M108.8,-136.41C117.8,-134.65 127.15,-133.07 136,-132 203.69,-123.83 281.41,-121.98 336.83,-121.94"/>
<polygon fill="orange" stroke="orange" points="107.93,-133.02 98.84,-138.46 109.34,-139.88 107.93,-133.02"/>
</a>
</g>
<text text-anchor="start" x="162" y="-137.5" font-family="Helvetica,sans-Serif" font-size="10.00" fill="grey">&lt; ConvertedGeoVol &gt;</text>
</g>
<!-- Node4 -->
<g id="Node000004" class="node">
<title>Node4</title>
<g id="a_Node000004"><a xlink:title=" ">
<polygon fill="white" stroke="#666666" points="474.5,-89.5 348.5,-89.5 348.5,-48.5 474.5,-48.5 474.5,-89.5"/>
<text text-anchor="start" x="356.5" y="-77.5" font-family="Helvetica,sans-Serif" font-size="10.00">std::shared_ptr&lt; Acts</text>
<text text-anchor="start" x="356.5" y="-66.5" font-family="Helvetica,sans-Serif" font-size="10.00">::BoundFactory&lt; const</text>
<text text-anchor="middle" x="411.5" y="-55.5" font-family="Helvetica,sans-Serif" font-size="10.00"> SurfaceBounds &gt; &gt;</text>
</a>
</g>
</g>
<!-- Node4&#45;&gt;Node1 -->
<g id="edge3_Node000001_Node000004" class="edge">
<title>Node4&#45;&gt;Node1</title>
<g id="a_edge3_Node000001_Node000004"><a xlink:title=" ">
<path fill="none" stroke="#9a32cd" stroke-dasharray="5,2" d="M485.03,-70.79C528.82,-72.32 585.71,-75.08 636,-80 641.79,-80.57 647.75,-81.23 653.75,-81.96"/>
<polygon fill="#9a32cd" stroke="#9a32cd" points="484.87,-67.29 474.76,-70.45 484.64,-74.28 484.87,-67.29"/>
</a>
</g>
<text text-anchor="start" x="539.5" y="-85.5" font-family="Helvetica,sans-Serif" font-size="10.00" fill="grey">surfBoundFactory</text>
</g>
<!-- Node5 -->
<g id="Node000005" class="node">
<title>Node5</title>
<g id="a_Node000005"><a xlink:title=" ">
<polygon fill="white" stroke="#666666" points="118,-52.5 0,-52.5 0,-33.5 118,-33.5 118,-52.5"/>
<text text-anchor="middle" x="59" y="-40.5" font-family="Helvetica,sans-Serif" font-size="10.00">std::shared_ptr&lt; T &gt;</text>
</a>
</g>
</g>
<!-- Node5&#45;&gt;Node4 -->
<g id="edge4_Node000004_Node000005" class="edge">
<title>Node5&#45;&gt;Node4</title>
<g id="a_edge4_Node000004_Node000005"><a xlink:title=" ">
<path fill="none" stroke="orange" stroke-dasharray="5,2" d="M128.63,-48.09C192.41,-52.82 286.59,-59.81 348.25,-64.38"/>
<polygon fill="orange" stroke="orange" points="128.5,-44.57 118.27,-47.32 127.99,-51.55 128.5,-44.57"/>
</a>
</g>
<text text-anchor="start" x="145" y="-81" font-family="Helvetica,sans-Serif" font-size="10.00" fill="grey">&lt; Acts::BoundFactory</text>
<text text-anchor="start" x="145" y="-66" font-family="Helvetica,sans-Serif" font-size="10.00" fill="grey">  &lt; const SurfaceBounds &gt; &gt;</text>
</g>
<!-- Node6 -->
<g id="Node000006" class="node">
<title>Node6</title>
<g id="a_Node000006"><a xlink:title=" ">
<polygon fill="white" stroke="#666666" points="509,-30 314,-30 314,0 509,0 509,-30"/>
<text text-anchor="start" x="322" y="-18" font-family="Helvetica,sans-Serif" font-size="10.00">std::shared_ptr&lt; Acts</text>
<text text-anchor="middle" x="411.5" y="-7" font-family="Helvetica,sans-Serif" font-size="10.00">::BoundFactory&lt; VolumeBounds &gt; &gt;</text>
</a>
</g>
</g>
<!-- Node5&#45;&gt;Node6 -->
<g id="edge6_Node000006_Node000005" class="edge">
<title>Node5&#45;&gt;Node6</title>
<g id="a_edge6_Node000006_Node000005"><a xlink:title=" ">
<path fill="none" stroke="orange" stroke-dasharray="5,2" d="M88.63,-29.24C102.57,-23.28 119.79,-16.99 136,-14 194.35,-3.25 260.87,-3.19 313.81,-5.97"/>
<polygon fill="orange" stroke="orange" points="86.83,-26.2 79.12,-33.47 89.68,-32.6 86.83,-26.2"/>
</a>
</g>
<text text-anchor="start" x="160" y="-35" font-family="Helvetica,sans-Serif" font-size="10.00" fill="grey">&lt; Acts::BoundFactory</text>
<text text-anchor="start" x="160" y="-20" font-family="Helvetica,sans-Serif" font-size="10.00" fill="grey">  &lt; VolumeBounds &gt; &gt;</text>
</g>
<!-- Node6&#45;&gt;Node1 -->
<g id="edge5_Node000001_Node000006" class="edge">
<title>Node6&#45;&gt;Node1</title>
<g id="a_edge5_Node000001_Node000006"><a xlink:title=" ">
<path fill="none" stroke="#9a32cd" stroke-dasharray="5,2" d="M518.95,-27.41C556.38,-33.14 598.46,-41.14 636,-52 660.74,-59.15 687.52,-70.6 707.44,-79.88"/>
<polygon fill="#9a32cd" stroke="#9a32cd" points="519.45,-23.94 509.04,-25.93 518.41,-30.87 519.45,-23.94"/>
</a>
</g>
<text text-anchor="start" x="530.5" y="-57.5" font-family="Helvetica,sans-Serif" font-size="10.00" fill="grey">volumeBoundFactory</text>
</g>
<!-- Node7&#45;&gt;Node1 -->
<g id="edge7_Node000001_Node000007" class="edge">
<title>Node7&#45;&gt;Node1</title>
<g id="a_edge7_Node000001_Node000007"><a xlink:title=" ">
<path fill="none" stroke="#9a32cd" stroke-dasharray="5,2" d="M496.49,-115.78C544.84,-111.62 605.42,-106.4 653.81,-102.24"/>
<polygon fill="#9a32cd" stroke="#9a32cd" points="496.02,-112.3 486.36,-116.65 496.62,-119.28 496.02,-112.3"/>
</a>
</g>
<text text-anchor="start" x="541.5" y="-118.5" font-family="Helvetica,sans-Serif" font-size="10.00" fill="grey">volumeBoxFPVs</text>
</g>
</g>
</svg>
