<?xml version="1.0" encoding="UTF-8" standalone="no"?>
<!DOCTYPE svg PUBLIC "-//W3C//DTD SVG 1.1//EN"
 "http://www.w3.org/Graphics/SVG/1.1/DTD/svg11.dtd">
<!-- Generated by graphviz version 2.43.0 (0)
 -->
<!-- Title: Acts::BroadTripletSeedFilter::Config Pages: 1 -->
<svg width="409pt" height="208pt"
 viewBox="0.00 0.00 408.50 208.00" xmlns="http://www.w3.org/2000/svg" xmlns:xlink="http://www.w3.org/1999/xlink">
<g id="graph0" class="graph" transform="scale(1 1) rotate(0) translate(4 204)">
<title>Acts::BroadTripletSeedFilter::Config</title>
<!-- Node1 -->
<g id="Node000001" class="node">
<title>Node1</title>
<g id="a_Node000001"><a xlink:title="Structure that holds configuration parameters for the seed filter algorithm.">
<polygon fill="#999999" stroke="#666666" points="248,-30 97,-30 97,0 248,0 248,-30"/>
<text text-anchor="start" x="105" y="-18" font-family="Helvetica,sans-Serif" font-size="10.00">Acts::BroadTripletSeedFilter</text>
<text text-anchor="middle" x="172.5" y="-7" font-family="Helvetica,sans-Serif" font-size="10.00">::Config</text>
</a>
</g>
</g>
<!-- Node2 -->
<g id="Node000002" class="node">
<title>Node2</title>
<g id="a_Node000002"><a xlink:href="struct_acts_1_1_seed_confirmation_range_config.html" target="_top" xlink:title="Contains parameters for quality seed confirmation.">
<polygon fill="white" stroke="#666666" points="161,-128 0,-128 0,-98 161,-98 161,-128"/>
<text text-anchor="start" x="8" y="-116" font-family="Helvetica,sans-Serif" font-size="10.00">Acts::SeedConfirmationRange</text>
<text text-anchor="middle" x="80.5" y="-105" font-family="Helvetica,sans-Serif" font-size="10.00">Config</text>
</a>
</g>
</g>
<!-- Node2&#45;&gt;Node1 -->
<g id="edge1_Node000001_Node000002" class="edge">
<title>Node2&#45;&gt;Node1</title>
<g id="a_edge1_Node000001_Node000002"><a xlink:title=" ">
<path fill="none" stroke="#9a32cd" stroke-dasharray="5,2" d="M74.64,-87.73C72.95,-74.79 73.38,-59.27 81.5,-48 86.98,-40.39 94.42,-34.58 102.69,-30.14"/>
<polygon fill="#9a32cd" stroke="#9a32cd" points="71.24,-88.6 76.43,-97.84 78.13,-87.38 71.24,-88.6"/>
</a>
</g>
<text text-anchor="start" x="84.5" y="-69" font-family="Helvetica,sans-Serif" font-size="10.00" fill="grey">centralSeedConfirmationRange</text>
<text text-anchor="start" x="84.5" y="-54" font-family="Helvetica,sans-Serif" font-size="10.00" fill="grey">forwardSeedConfirmationRange</text>
</g>
<!-- Node3 -->
<g id="Node000003" class="node">
<title>Node3</title>
<g id="a_Node000003"><a xlink:title=" ">
<polygon fill="white" stroke="#666666" points="326.5,-128 204.5,-128 204.5,-98 326.5,-98 326.5,-128"/>
<text text-anchor="start" x="212.5" y="-116" font-family="Helvetica,sans-Serif" font-size="10.00">std::shared_ptr&lt; Acts</text>
<text text-anchor="middle" x="265.5" y="-105" font-family="Helvetica,sans-Serif" font-size="10.00">::ITripletSeedCuts &gt;</text>
</a>
</g>
</g>
<!-- Node3&#45;&gt;Node1 -->
<g id="edge2_Node000001_Node000003" class="edge">
<title>Node3&#45;&gt;Node1</title>
<g id="a_edge2_Node000001_Node000003"><a xlink:title=" ">
<path fill="none" stroke="#9a32cd" stroke-dasharray="5,2" d="M262.03,-88.04C259.05,-74.87 253.56,-59.03 243.5,-48 236.67,-40.51 227.75,-34.66 218.54,-30.13"/>
<polygon fill="#9a32cd" stroke="#9a32cd" points="258.6,-88.72 263.92,-97.88 265.47,-87.39 258.6,-88.72"/>
</a>
</g>
<text text-anchor="start" x="263" y="-61" font-family="Helvetica,sans-Serif" font-size="10.00" fill="grey">experimentCuts</text>
</g>
<!-- Node4 -->
<g id="Node000004" class="node">
<title>Node4</title>
<g id="a_Node000004"><a xlink:title=" ">
<polygon fill="white" stroke="#666666" points="324.5,-200 206.5,-200 206.5,-181 324.5,-181 324.5,-200"/>
<text text-anchor="middle" x="265.5" y="-188" font-family="Helvetica,sans-Serif" font-size="10.00">std::shared_ptr&lt; T &gt;</text>
</a>
</g>
</g>
<!-- Node4&#45;&gt;Node3 -->
<g id="edge3_Node000003_Node000004" class="edge">
<title>Node4&#45;&gt;Node3</title>
<g id="a_edge3_Node000003_Node000004"><a xlink:title=" ">
<path fill="none" stroke="orange" stroke-dasharray="5,2" d="M265.5,-170.57C265.5,-157.43 265.5,-140.18 265.5,-128.21"/>
<polygon fill="orange" stroke="orange" points="262,-170.84 265.5,-180.84 269,-170.84 262,-170.84"/>
</a>
</g>
<text text-anchor="start" x="269" y="-151.5" font-family="Helvetica,sans-Serif" font-size="10.00" fill="grey">&lt; Acts::ITripletSeedCuts &gt;</text>
</g>
</g>
</svg>
