<?xml version="1.0" encoding="UTF-8" standalone="no"?>
<!DOCTYPE svg PUBLIC "-//W3C//DTD SVG 1.1//EN"
 "http://www.w3.org/Graphics/SVG/1.1/DTD/svg11.dtd">
<!-- Generated by graphviz version 2.43.0 (0)
 -->
<!-- Title: Acts::DoubletSeedFinder::Config Pages: 1 -->
<svg width="819pt" height="98pt"
 viewBox="0.00 0.00 819.00 97.50" xmlns="http://www.w3.org/2000/svg" xmlns:xlink="http://www.w3.org/1999/xlink">
<g id="graph0" class="graph" transform="scale(1 1) rotate(0) translate(4 93.5)">
<title>Acts::DoubletSeedFinder::Config</title>
<!-- Node1 -->
<g id="Node000001" class="node">
<title>Node1</title>
<g id="a_Node000001"><a xlink:title="Collection of configuration parameters for the doublet seed finder.">
<polygon fill="#999999" stroke="#666666" points="811,-68 675,-68 675,-38 811,-38 811,-68"/>
<text text-anchor="start" x="683" y="-56" font-family="Helvetica,sans-Serif" font-size="10.00">Acts::DoubletSeedFinder</text>
<text text-anchor="middle" x="743" y="-45" font-family="Helvetica,sans-Serif" font-size="10.00">::Config</text>
</a>
</g>
</g>
<!-- Node2 -->
<g id="Node000002" class="node">
<title>Node2</title>
<g id="a_Node000002"><a xlink:href="class_acts_1_1_direction.html" target="_top" xlink:title="The direction is always with respect to a given momentum, surface normal or other general axes.">
<polygon fill="white" stroke="#666666" points="495,-89.5 407,-89.5 407,-70.5 495,-70.5 495,-89.5"/>
<text text-anchor="middle" x="451" y="-77.5" font-family="Helvetica,sans-Serif" font-size="10.00">Acts::Direction</text>
</a>
</g>
</g>
<!-- Node2&#45;&gt;Node1 -->
<g id="edge1_Node000001_Node000002" class="edge">
<title>Node2&#45;&gt;Node1</title>
<g id="a_edge1_Node000001_Node000002"><a xlink:title=" ">
<path fill="none" stroke="#9a32cd" stroke-dasharray="5,2" d="M505.24,-75.04C553.02,-70.59 623.36,-64.05 674.96,-59.24"/>
<polygon fill="#9a32cd" stroke="#9a32cd" points="504.74,-71.57 495.1,-75.99 505.38,-78.54 504.74,-71.57"/>
</a>
</g>
<text text-anchor="start" x="561.5" y="-74.5" font-family="Helvetica,sans-Serif" font-size="10.00" fill="grey">candidateDirection</text>
</g>
<!-- Node3 -->
<g id="Node000003" class="node">
<title>Node3</title>
<g id="a_Node000003"><a xlink:href="class_acts_1_1_delegate.html" target="_top" xlink:title=" ">
<polygon fill="white" stroke="#666666" points="540,-52 362,-52 362,0 540,0 540,-52"/>
<text text-anchor="start" x="370" y="-40" font-family="Helvetica,sans-Serif" font-size="10.00">Acts::Delegate&lt; bool</text>
<text text-anchor="start" x="370" y="-29" font-family="Helvetica,sans-Serif" font-size="10.00">(const ConstSpacePointProxy2</text>
<text text-anchor="start" x="370" y="-18" font-family="Helvetica,sans-Serif" font-size="10.00"> &amp;, const ConstSpacePointProxy2</text>
<text text-anchor="middle" x="451" y="-7" font-family="Helvetica,sans-Serif" font-size="10.00"> &amp;, float, bool)&gt;</text>
</a>
</g>
</g>
<!-- Node3&#45;&gt;Node1 -->
<g id="edge2_Node000001_Node000003" class="edge">
<title>Node3&#45;&gt;Node1</title>
<g id="a_edge2_Node000001_Node000003"><a xlink:title=" ">
<path fill="none" stroke="#9a32cd" stroke-dasharray="5,2" d="M550.53,-31.05C584.34,-33.23 622.38,-36.18 657,-40 662.79,-40.64 668.78,-41.39 674.79,-42.19"/>
<polygon fill="#9a32cd" stroke="#9a32cd" points="550.38,-27.54 540.18,-30.4 549.94,-34.52 550.38,-27.54"/>
</a>
</g>
<text text-anchor="start" x="568.5" y="-45.5" font-family="Helvetica,sans-Serif" font-size="10.00" fill="grey">experimentCuts</text>
</g>
<!-- Node4 -->
<g id="Node000004" class="node">
<title>Node4</title>
<g id="a_Node000004"><a xlink:href="class_acts_1_1_delegate.html" target="_top" xlink:title=" ">
<polygon fill="white" stroke="#666666" points="152,-41 0,-41 0,-11 152,-11 152,-41"/>
<text text-anchor="start" x="8" y="-29" font-family="Helvetica,sans-Serif" font-size="10.00">Acts::Delegate&lt; typename,</text>
<text text-anchor="middle" x="76" y="-18" font-family="Helvetica,sans-Serif" font-size="10.00"> H, DelegateType &gt;</text>
</a>
</g>
</g>
<!-- Node4&#45;&gt;Node3 -->
<g id="edge3_Node000003_Node000004" class="edge">
<title>Node4&#45;&gt;Node3</title>
<g id="a_edge3_Node000003_Node000004"><a xlink:title=" ">
<path fill="none" stroke="orange" stroke-dasharray="5,2" d="M162.2,-26C221.95,-26 301.61,-26 361.98,-26"/>
<polygon fill="orange" stroke="orange" points="162.03,-22.5 152.03,-26 162.03,-29.5 162.03,-22.5"/>
</a>
</g>
<text text-anchor="start" x="173" y="-61.5" font-family="Helvetica,sans-Serif" font-size="10.00" fill="grey">&lt; bool(const ConstSpacePoint</text>
<text text-anchor="start" x="173" y="-46.5" font-family="Helvetica,sans-Serif" font-size="10.00" fill="grey">  Proxy2 &amp;, const ConstSpacePoint</text>
<text text-anchor="start" x="173" y="-31.5" font-family="Helvetica,sans-Serif" font-size="10.00" fill="grey">  Proxy2 &amp;, float, bool)&gt;</text>
</g>
</g>
</svg>
