<?xml version="1.0" encoding="UTF-8" standalone="no"?>
<!DOCTYPE svg PUBLIC "-//W3C//DTD SVG 1.1//EN"
 "http://www.w3.org/Graphics/SVG/1.1/DTD/svg11.dtd">
<!-- Generated by graphviz version 2.43.0 (0)
 -->
<!-- Title: Acts::VolumeMaterialMapper::State Pages: 1 -->
<!--zoomable 576 -->

<svg id="main" version="1.1" xmlns="http://www.w3.org/2000/svg" xmlns:xlink="http://www.w3.org/1999/xlink" xml:space="preserve" onload="init(evt)">

<style type="text/css"><![CDATA[
.node, .edge {opacity: 0.7;}
.node.selected, .edge.selected {opacity: 1;}
.edge:hover path { stroke: red; }
.edge:hover polygon { stroke: red; fill: red; }
]]></style>

<defs>
  <circle id="rim" cx="0" cy="0" r="7"/>
  <circle id="rim2" cx="0" cy="0" r="3.5"/>
  <g id="zoomPlus">
    <use xlink:href="#rim" fill="#404040"><set attributeName="fill" to="#808080" begin="zoomplus.mouseover" end="zoomplus.mouseout"/></use>
    <path d="M-4,0h8M0,-4v8" fill="none" stroke="white" stroke-width="1.5" pointer-events="none"/>
  </g>
  <g id="zoomMin">
    <use xlink:href="#rim" fill="#404040"><set attributeName="fill" to="#808080" begin="zoomminus.mouseover" end="zoomminus.mouseout"/></use>
    <path d="M-4,0h8" fill="none" stroke="white" stroke-width="1.5" pointer-events="none"/>
  </g>
  <g id="arrowUp" transform="translate(30 24)">
    <use xlink:href="#rim"/>
    <path pointer-events="none" fill="none" stroke="white" stroke-width="1.5" d="M0,-3.0v7 M-2.5,-0.5L0,-3.0L2.5,-0.5"/>
  </g>
  <g id="arrowRight" transform="rotate(90) translate(36 -43)">
    <use xlink:href="#rim"/>
    <path pointer-events="none" fill="none" stroke="white" stroke-width="1.5" d="M0,-3.0v7 M-2.5,-0.5L0,-3.0L2.5,-0.5"/>
  </g>
  <g id="arrowDown" transform="rotate(180) translate(-30 -48)">
    <use xlink:href="#rim"/>
    <path pointer-events="none" fill="none" stroke="white" stroke-width="1.5" d="M0,-3.0v7 M-2.5,-0.5L0,-3.0L2.5,-0.5"/>
  </g>
  <g id="arrowLeft" transform="rotate(270) translate(-36 17)">
    <use xlink:href="#rim"/>
    <path pointer-events="none" fill="none" stroke="white" stroke-width="1.5" d="M0,-3.0v7 M-2.5,-0.5L0,-3.0L2.5,-0.5"/>
  </g>
  <g id="resetDef">
    <use xlink:href="#rim2" fill="#404040"><set attributeName="fill" to="#808080" begin="reset.mouseover" end="reset.mouseout"/></use>
  </g>
</defs>
<script type="application/ecmascript">
var viewWidth = 843;
var viewHeight = 576;
var sectionId = 'dynsection-0';
</script>
<script type="application/ecmascript" xlink:href="svg.min.js"/>
<svg id="graph" class="graph">
<g id="viewport">
<title>Acts::VolumeMaterialMapper::State</title>
<!-- Node1 -->
<g id="Node000001" class="node">
<title>Node1</title>
<g id="a_Node000001"><a xlink:title="Nested State struct which is used for the mapping prococess.">
<polygon fill="#999999" stroke="#666666" points="835,-280.61 677,-280.61 677,-250.61 835,-250.61 835,-280.61"/>
<text text-anchor="start" x="685" y="-268.61" font-family="Helvetica,sans-Serif" font-size="10.00">Acts::VolumeMaterialMapper</text>
<text text-anchor="middle" x="756" y="-257.61" font-family="Helvetica,sans-Serif" font-size="10.00">::State</text>
</a>
</g>
</g>
<!-- Node2 -->
<g id="Node000002" class="node">
<title>Node2</title>
<g id="a_Node000002"><a xlink:title=" ">
<polygon fill="white" stroke="#666666" points="541.5,-531.11 342.5,-531.11 342.5,-490.11 541.5,-490.11 541.5,-531.11"/>
<text text-anchor="start" x="350.5" y="-519.11" font-family="Helvetica,sans-Serif" font-size="10.00">std::map&lt; const Acts</text>
<text text-anchor="start" x="350.5" y="-508.11" font-family="Helvetica,sans-Serif" font-size="10.00">::GeometryIdentifier,</text>
<text text-anchor="middle" x="442" y="-497.11" font-family="Helvetica,sans-Serif" font-size="10.00"> Acts::AccumulatedVolumeMaterial &gt;</text>
</a>
</g>
</g>
<!-- Node2&#45;&gt;Node1 -->
<g id="edge1_Node000001_Node000002" class="edge">
<title>Node2&#45;&gt;Node1</title>
<g id="a_edge1_Node000001_Node000002"><a xlink:title=" ">
<path fill="none" stroke="#9a32cd" stroke-dasharray="5,2" d="M549.36,-487.06C587.27,-474.59 628.16,-455.98 659,-428.61 707.39,-385.66 738.15,-312.29 749.76,-280.75"/>
<polygon fill="#9a32cd" stroke="#9a32cd" points="548.27,-483.74 539.8,-490.1 550.39,-490.41 548.27,-483.74"/>
</a>
</g>
<text text-anchor="start" x="566" y="-486.11" font-family="Helvetica,sans-Serif" font-size="10.00" fill="grey">homogeneousGrid</text>
</g>
<!-- Node3 -->
<g id="Node000003" class="node">
<title>Node3</title>
<g id="a_Node000003"><a xlink:title=" ">
<polygon fill="white" stroke="#666666" points="101,-277.11 0,-277.11 0,-258.11 101,-258.11 101,-277.11"/>
<text text-anchor="middle" x="50.5" y="-265.11" font-family="Helvetica,sans-Serif" font-size="10.00">std::map&lt; K, T &gt;</text>
</a>
</g>
</g>
<!-- Node3&#45;&gt;Node2 -->
<g id="edge2_Node000002_Node000003" class="edge">
<title>Node3&#45;&gt;Node2</title>
<g id="a_edge2_Node000002_Node000003"><a xlink:title=" ">
<path fill="none" stroke="orange" stroke-dasharray="5,2" d="M50.68,-287.38C50.02,-331.95 55.39,-440.27 119,-490.61 182.47,-540.84 276.88,-540.73 347.08,-531.12"/>
<polygon fill="orange" stroke="orange" points="54.18,-287.37 50.95,-277.28 47.18,-287.18 54.18,-287.37"/>
</a>
</g>
<text text-anchor="start" x="126" y="-556.61" font-family="Helvetica,sans-Serif" font-size="10.00" fill="grey">&lt; const Acts::GeometryIdentifier,</text>
<text text-anchor="start" x="126" y="-541.61" font-family="Helvetica,sans-Serif" font-size="10.00" fill="grey">   Acts::AccumulatedVolumeMaterial &gt;</text>
</g>
<!-- Node4 -->
<g id="Node000004" class="node">
<title>Node4</title>
<g id="a_Node000004"><a xlink:title=" ">
<polygon fill="white" stroke="#666666" points="514,-469.61 370,-469.61 370,-417.61 514,-417.61 514,-469.61"/>
<text text-anchor="start" x="378" y="-457.61" font-family="Helvetica,sans-Serif" font-size="10.00">std::map&lt; const Acts</text>
<text text-anchor="start" x="378" y="-446.61" font-family="Helvetica,sans-Serif" font-size="10.00">::GeometryIdentifier,</text>
<text text-anchor="start" x="378" y="-435.61" font-family="Helvetica,sans-Serif" font-size="10.00"> std::function&lt; Acts::</text>
<text text-anchor="middle" x="442" y="-424.61" font-family="Helvetica,sans-Serif" font-size="10.00">Vector2(Acts::Vector3)&gt; &gt;</text>
</a>
</g>
</g>
<!-- Node3&#45;&gt;Node4 -->
<g id="edge4_Node000004_Node000003" class="edge">
<title>Node3&#45;&gt;Node4</title>
<g id="a_edge4_Node000004_Node000003"><a xlink:title=" ">
<path fill="none" stroke="orange" stroke-dasharray="5,2" d="M53.81,-287.11C58.91,-320.55 74.46,-388.24 119,-419.61 138.99,-433.69 281.34,-439.73 369.95,-442.14"/>
<polygon fill="orange" stroke="orange" points="57.27,-286.62 52.45,-277.19 50.34,-287.57 57.27,-286.62"/>
</a>
</g>
<text text-anchor="start" x="139" y="-475.11" font-family="Helvetica,sans-Serif" font-size="10.00" fill="grey">&lt; const Acts::GeometryIdentifier,</text>
<text text-anchor="start" x="139" y="-460.11" font-family="Helvetica,sans-Serif" font-size="10.00" fill="grey">   std::function&lt; Acts::Vector2</text>
<text text-anchor="start" x="139" y="-445.11" font-family="Helvetica,sans-Serif" font-size="10.00" fill="grey">  (Acts::Vector3)&gt; &gt;</text>
</g>
<!-- Node5 -->
<g id="Node000005" class="node">
<title>Node5</title>
<g id="a_Node000005"><a xlink:title=" ">
<polygon fill="white" stroke="#666666" points="533,-399.61 351,-399.61 351,-347.61 533,-347.61 533,-399.61"/>
<text text-anchor="start" x="359" y="-387.61" font-family="Helvetica,sans-Serif" font-size="10.00">std::map&lt; const Acts</text>
<text text-anchor="start" x="359" y="-376.61" font-family="Helvetica,sans-Serif" font-size="10.00">::GeometryIdentifier,</text>
<text text-anchor="start" x="359" y="-365.61" font-family="Helvetica,sans-Serif" font-size="10.00"> Acts::Grid&lt; Acts::Accumulated</text>
<text text-anchor="middle" x="442" y="-354.61" font-family="Helvetica,sans-Serif" font-size="10.00">VolumeMaterial, EAxis, EAxis &gt; &gt;</text>
</a>
</g>
</g>
<!-- Node3&#45;&gt;Node5 -->
<g id="edge6_Node000005_Node000003" class="edge">
<title>Node3&#45;&gt;Node5</title>
<g id="a_edge6_Node000005_Node000003"><a xlink:title=" ">
<path fill="none" stroke="orange" stroke-dasharray="5,2" d="M61,-286.05C72.07,-305.38 92.29,-334.81 119,-348.61 139.18,-359.03 262.76,-366.28 350.8,-370.19"/>
<polygon fill="orange" stroke="orange" points="64.06,-284.34 56.19,-277.24 57.91,-287.7 64.06,-284.34"/>
</a>
</g>
<text text-anchor="start" x="122" y="-404.11" font-family="Helvetica,sans-Serif" font-size="10.00" fill="grey">&lt; const Acts::GeometryIdentifier,</text>
<text text-anchor="start" x="122" y="-389.11" font-family="Helvetica,sans-Serif" font-size="10.00" fill="grey">   Acts::Grid&lt; Acts::AccumulatedVolume</text>
<text text-anchor="start" x="122" y="-374.11" font-family="Helvetica,sans-Serif" font-size="10.00" fill="grey">  Material, EAxis, EAxis &gt; &gt;</text>
</g>
<!-- Node6 -->
<g id="Node000006" class="node">
<title>Node6</title>
<g id="a_Node000006"><a xlink:title=" ">
<polygon fill="white" stroke="#666666" points="514,-329.61 370,-329.61 370,-277.61 514,-277.61 514,-329.61"/>
<text text-anchor="start" x="378" y="-317.61" font-family="Helvetica,sans-Serif" font-size="10.00">std::map&lt; const Acts</text>
<text text-anchor="start" x="378" y="-306.61" font-family="Helvetica,sans-Serif" font-size="10.00">::GeometryIdentifier,</text>
<text text-anchor="start" x="378" y="-295.61" font-family="Helvetica,sans-Serif" font-size="10.00"> std::function&lt; Acts::</text>
<text text-anchor="middle" x="442" y="-284.61" font-family="Helvetica,sans-Serif" font-size="10.00">Vector3(Acts::Vector3)&gt; &gt;</text>
</a>
</g>
</g>
<!-- Node3&#45;&gt;Node6 -->
<g id="edge8_Node000006_Node000003" class="edge">
<title>Node3&#45;&gt;Node6</title>
<g id="a_edge8_Node000006_Node000003"><a xlink:title=" ">
<path fill="none" stroke="orange" stroke-dasharray="5,2" d="M107.1,-278.86C111.12,-279.51 115.12,-280.1 119,-280.61 204.85,-291.9 304.36,-297.94 369.77,-300.96"/>
<polygon fill="orange" stroke="orange" points="107.58,-275.39 97.13,-277.16 106.4,-282.29 107.58,-275.39"/>
</a>
</g>
<text text-anchor="start" x="139" y="-333.11" font-family="Helvetica,sans-Serif" font-size="10.00" fill="grey">&lt; const Acts::GeometryIdentifier,</text>
<text text-anchor="start" x="139" y="-318.11" font-family="Helvetica,sans-Serif" font-size="10.00" fill="grey">   std::function&lt; Acts::Vector3</text>
<text text-anchor="start" x="139" y="-303.11" font-family="Helvetica,sans-Serif" font-size="10.00" fill="grey">  (Acts::Vector3)&gt; &gt;</text>
</g>
<!-- Node7 -->
<g id="Node000007" class="node">
<title>Node7</title>
<g id="a_Node000007"><a xlink:title=" ">
<polygon fill="white" stroke="#666666" points="526.5,-259.11 357.5,-259.11 357.5,-196.11 526.5,-196.11 526.5,-259.11"/>
<text text-anchor="start" x="365.5" y="-247.11" font-family="Helvetica,sans-Serif" font-size="10.00">std::map&lt; const Acts</text>
<text text-anchor="start" x="365.5" y="-236.11" font-family="Helvetica,sans-Serif" font-size="10.00">::GeometryIdentifier,</text>
<text text-anchor="start" x="365.5" y="-225.11" font-family="Helvetica,sans-Serif" font-size="10.00"> Acts::Grid&lt; Acts::Accumulated</text>
<text text-anchor="start" x="365.5" y="-214.11" font-family="Helvetica,sans-Serif" font-size="10.00">VolumeMaterial, EAxis, EAxis,</text>
<text text-anchor="middle" x="442" y="-203.11" font-family="Helvetica,sans-Serif" font-size="10.00"> EAxis &gt; &gt;</text>
</a>
</g>
</g>
<!-- Node3&#45;&gt;Node7 -->
<g id="edge10_Node000007_Node000003" class="edge">
<title>Node3&#45;&gt;Node7</title>
<g id="a_edge10_Node000007_Node000003"><a xlink:title=" ">
<path fill="none" stroke="orange" stroke-dasharray="5,2" d="M72.55,-252.07C85.29,-243.64 102.27,-234.05 119,-229.61 197.89,-208.67 291.53,-210.96 357.43,-216.8"/>
<polygon fill="orange" stroke="orange" points="70.32,-249.35 64.08,-257.92 74.3,-255.11 70.32,-249.35"/>
</a>
</g>
<text text-anchor="start" x="122" y="-265.11" font-family="Helvetica,sans-Serif" font-size="10.00" fill="grey">&lt; const Acts::GeometryIdentifier,</text>
<text text-anchor="start" x="122" y="-250.11" font-family="Helvetica,sans-Serif" font-size="10.00" fill="grey">   Acts::Grid&lt; Acts::AccumulatedVolume</text>
<text text-anchor="start" x="122" y="-235.11" font-family="Helvetica,sans-Serif" font-size="10.00" fill="grey">  Material, EAxis, EAxis, EAxis &gt; &gt;</text>
</g>
<!-- Node8 -->
<g id="Node000008" class="node">
<title>Node8</title>
<g id="a_Node000008"><a xlink:title=" ">
<polygon fill="white" stroke="#666666" points="502.5,-178.11 381.5,-178.11 381.5,-137.11 502.5,-137.11 502.5,-178.11"/>
<text text-anchor="start" x="389.5" y="-166.11" font-family="Helvetica,sans-Serif" font-size="10.00">std::map&lt; const Acts</text>
<text text-anchor="start" x="389.5" y="-155.11" font-family="Helvetica,sans-Serif" font-size="10.00">::GeometryIdentifier,</text>
<text text-anchor="middle" x="442" y="-144.11" font-family="Helvetica,sans-Serif" font-size="10.00"> Acts::BinUtility &gt;</text>
</a>
</g>
</g>
<!-- Node3&#45;&gt;Node8 -->
<g id="edge12_Node000008_Node000003" class="edge">
<title>Node3&#45;&gt;Node8</title>
<g id="a_edge12_Node000008_Node000003"><a xlink:title=" ">
<path fill="none" stroke="orange" stroke-dasharray="5,2" d="M59.42,-248.78C69.66,-227.1 89.72,-192.44 119,-176.61 141.41,-164.49 294.71,-160 381.46,-158.42"/>
<polygon fill="orange" stroke="orange" points="56.19,-247.42 55.3,-257.98 62.58,-250.29 56.19,-247.42"/>
</a>
</g>
<text text-anchor="start" x="139" y="-197.61" font-family="Helvetica,sans-Serif" font-size="10.00" fill="grey">&lt; const Acts::GeometryIdentifier,</text>
<text text-anchor="start" x="139" y="-182.61" font-family="Helvetica,sans-Serif" font-size="10.00" fill="grey">   Acts::BinUtility &gt;</text>
</g>
<!-- Node9 -->
<g id="Node000009" class="node">
<title>Node9</title>
<g id="a_Node000009"><a xlink:title=" ">
<polygon fill="white" stroke="#666666" points="545,-119.11 339,-119.11 339,-78.11 545,-78.11 545,-119.11"/>
<text text-anchor="start" x="347" y="-107.11" font-family="Helvetica,sans-Serif" font-size="10.00">std::map&lt; Acts::Geometry</text>
<text text-anchor="start" x="347" y="-96.11" font-family="Helvetica,sans-Serif" font-size="10.00">Identifier, std::shared</text>
<text text-anchor="middle" x="442" y="-85.11" font-family="Helvetica,sans-Serif" font-size="10.00">_ptr&lt; const Acts::ISurfaceMaterial &gt; &gt;</text>
</a>
</g>
</g>
<!-- Node3&#45;&gt;Node9 -->
<g id="edge14_Node000009_Node000003" class="edge">
<title>Node3&#45;&gt;Node9</title>
<g id="a_edge14_Node000009_Node000003"><a xlink:title=" ">
<path fill="none" stroke="orange" stroke-dasharray="5,2" d="M53.3,-247.53C57.64,-212.46 72.09,-140.72 119,-108.61 153.62,-84.92 258.22,-85.56 338.9,-90.15"/>
<polygon fill="orange" stroke="orange" points="49.77,-247.6 52.18,-257.91 56.73,-248.34 49.77,-247.6"/>
</a>
</g>
<text text-anchor="start" x="151" y="-144.11" font-family="Helvetica,sans-Serif" font-size="10.00" fill="grey">&lt; Acts::GeometryIdentifier,</text>
<text text-anchor="start" x="151" y="-129.11" font-family="Helvetica,sans-Serif" font-size="10.00" fill="grey">   std::shared_ptr&lt; const</text>
<text text-anchor="start" x="151" y="-114.11" font-family="Helvetica,sans-Serif" font-size="10.00" fill="grey">   Acts::ISurfaceMaterial &gt; &gt;</text>
</g>
<!-- Node10 -->
<g id="Node000010" class="node">
<title>Node10</title>
<g id="a_Node000010"><a xlink:title=" ">
<polygon fill="white" stroke="#666666" points="545,-60.11 339,-60.11 339,-19.11 545,-19.11 545,-60.11"/>
<text text-anchor="start" x="347" y="-48.11" font-family="Helvetica,sans-Serif" font-size="10.00">std::map&lt; Acts::Geometry</text>
<text text-anchor="start" x="347" y="-37.11" font-family="Helvetica,sans-Serif" font-size="10.00">Identifier, std::unique</text>
<text text-anchor="middle" x="442" y="-26.11" font-family="Helvetica,sans-Serif" font-size="10.00">_ptr&lt; const Acts::IVolumeMaterial &gt; &gt;</text>
</a>
</g>
</g>
<!-- Node3&#45;&gt;Node10 -->
<g id="edge16_Node000010_Node000003" class="edge">
<title>Node3&#45;&gt;Node10</title>
<g id="a_edge16_Node000010_Node000003"><a xlink:title=" ">
<path fill="none" stroke="orange" stroke-dasharray="5,2" d="M54.25,-247.95C61.8,-197.08 84.62,-63.35 119,-37.61 194.18,18.68 309.36,0.23 379.66,-19.11"/>
<polygon fill="orange" stroke="orange" points="50.77,-247.58 52.8,-257.98 57.69,-248.59 50.77,-247.58"/>
</a>
</g>
<text text-anchor="start" x="151" y="-73.11" font-family="Helvetica,sans-Serif" font-size="10.00" fill="grey">&lt; Acts::GeometryIdentifier,</text>
<text text-anchor="start" x="151" y="-58.11" font-family="Helvetica,sans-Serif" font-size="10.00" fill="grey">   std::unique_ptr&lt; const</text>
<text text-anchor="start" x="151" y="-43.11" font-family="Helvetica,sans-Serif" font-size="10.00" fill="grey">   Acts::IVolumeMaterial &gt; &gt;</text>
</g>
<!-- Node4&#45;&gt;Node1 -->
<g id="edge3_Node000001_Node000004" class="edge">
<title>Node4&#45;&gt;Node1</title>
<g id="a_edge3_Node000001_Node000004"><a xlink:title=" ">
<path fill="none" stroke="#9a32cd" stroke-dasharray="5,2" d="M524.14,-421.89C566.52,-408.28 617.95,-388.06 659,-360.61 693.31,-337.67 725.82,-301.37 742.79,-280.92"/>
<polygon fill="#9a32cd" stroke="#9a32cd" points="522.9,-418.62 514.41,-424.96 525,-425.29 522.9,-418.62"/>
</a>
</g>
<text text-anchor="start" x="580" y="-413.11" font-family="Helvetica,sans-Serif" font-size="10.00" fill="grey">transform2D</text>
</g>
<!-- Node5&#45;&gt;Node1 -->
<g id="edge5_Node000001_Node000005" class="edge">
<title>Node5&#45;&gt;Node1</title>
<g id="a_edge5_Node000001_Node000005"><a xlink:title=" ">
<path fill="none" stroke="#9a32cd" stroke-dasharray="5,2" d="M542.93,-346.45C579.76,-335.68 621.61,-322.55 659,-308.61 681.08,-300.38 705.28,-289.53 723.86,-280.79"/>
<polygon fill="#9a32cd" stroke="#9a32cd" points="541.81,-343.13 533.19,-349.28 543.77,-349.86 541.81,-343.13"/>
</a>
</g>
<text text-anchor="start" x="595" y="-345.11" font-family="Helvetica,sans-Serif" font-size="10.00" fill="grey">grid2D</text>
</g>
<!-- Node6&#45;&gt;Node1 -->
<g id="edge7_Node000001_Node000006" class="edge">
<title>Node6&#45;&gt;Node1</title>
<g id="a_edge7_Node000001_Node000006"><a xlink:title=" ">
<path fill="none" stroke="#9a32cd" stroke-dasharray="5,2" d="M524.34,-293.7C571.36,-287.98 630.23,-280.81 676.73,-275.14"/>
<polygon fill="#9a32cd" stroke="#9a32cd" points="523.69,-290.26 514.19,-294.94 524.54,-297.21 523.69,-290.26"/>
</a>
</g>
<text text-anchor="start" x="580" y="-293.11" font-family="Helvetica,sans-Serif" font-size="10.00" fill="grey">transform3D</text>
</g>
<!-- Node7&#45;&gt;Node1 -->
<g id="edge9_Node000001_Node000007" class="edge">
<title>Node7&#45;&gt;Node1</title>
<g id="a_edge9_Node000001_Node000007"><a xlink:title=" ">
<path fill="none" stroke="#9a32cd" stroke-dasharray="5,2" d="M536.61,-239.01C581.33,-244.46 634.25,-250.9 676.79,-256.09"/>
<polygon fill="#9a32cd" stroke="#9a32cd" points="536.96,-235.53 526.61,-237.79 536.11,-242.48 536.96,-235.53"/>
</a>
</g>
<text text-anchor="start" x="595" y="-258.11" font-family="Helvetica,sans-Serif" font-size="10.00" fill="grey">grid3D</text>
</g>
<!-- Node8&#45;&gt;Node1 -->
<g id="edge11_Node000001_Node000008" class="edge">
<title>Node8&#45;&gt;Node1</title>
<g id="a_edge11_Node000001_Node000008"><a xlink:title=" ">
<path fill="none" stroke="#9a32cd" stroke-dasharray="5,2" d="M512.64,-175.51C555.38,-187.17 610.94,-203.53 659,-221.61 681.48,-230.07 706.09,-241.39 724.77,-250.43"/>
<polygon fill="#9a32cd" stroke="#9a32cd" points="513.46,-172.11 502.89,-172.87 511.63,-178.86 513.46,-172.11"/>
</a>
</g>
<text text-anchor="start" x="582" y="-227.11" font-family="Helvetica,sans-Serif" font-size="10.00" fill="grey">materialBin</text>
</g>
<!-- Node9&#45;&gt;Node1 -->
<g id="edge13_Node000001_Node000009" class="edge">
<title>Node9&#45;&gt;Node1</title>
<g id="a_edge13_Node000001_Node000009"><a xlink:title=" ">
<path fill="none" stroke="#9a32cd" stroke-dasharray="5,2" d="M550.47,-121.94C586.68,-132.72 626.2,-147.86 659,-168.61 694.64,-191.16 727.13,-229.25 743.62,-250.36"/>
<polygon fill="#9a32cd" stroke="#9a32cd" points="551.42,-118.57 540.84,-119.16 549.47,-125.3 551.42,-118.57"/>
</a>
</g>
<text text-anchor="start" x="573" y="-174.11" font-family="Helvetica,sans-Serif" font-size="10.00" fill="grey">surfaceMaterial</text>
</g>
<!-- Node10&#45;&gt;Node1 -->
<g id="edge15_Node000001_Node000010" class="edge">
<title>Node10&#45;&gt;Node1</title>
<g id="a_edge15_Node000001_Node000010"><a xlink:title=" ">
<path fill="none" stroke="#9a32cd" stroke-dasharray="5,2" d="M555.12,-56.44C591.07,-66.03 629.25,-81.06 659,-104.61 709.27,-144.4 739.02,-218.29 750.06,-250.24"/>
<polygon fill="#9a32cd" stroke="#9a32cd" points="555.6,-52.95 545.04,-53.87 553.87,-59.73 555.6,-52.95"/>
</a>
</g>
<text text-anchor="start" x="572" y="-110.11" font-family="Helvetica,sans-Serif" font-size="10.00" fill="grey">volumeMaterial</text>
</g>
</g>
</svg>

<g id="navigator" transform="translate(0 0)" fill="#404254">
  <rect fill="#f2f5e9" fill-opacity="0.5" stroke="#606060" stroke-width=".5" x="0" y="0" width="60" height="60"/>
  <use id="zoomplus" xlink:href="#zoomPlus" x="17" y="9" onmousedown="handleZoom(evt,'in')"/>
  <use id="zoomminus" xlink:href="#zoomMin" x="42" y="9" onmousedown="handleZoom(evt,'out')"/>
  <use id="reset" xlink:href="#resetDef" x="30" y="36" onmousedown="handleReset()"/>
   <use id="arrowup" xlink:href="#arrowUp" x="0" y="0" onmousedown="handlePan(0,-1)"/>
  <use id="arrowright" xlink:href="#arrowRight" x="0" y="0" onmousedown="handlePan(1,0)"/>
  <use id="arrowdown" xlink:href="#arrowDown" x="0" y="0" onmousedown="handlePan(0,1)"/>
  <use id="arrowleft" xlink:href="#arrowLeft" x="0" y="0" onmousedown="handlePan(-1,0)"/>
</g>
<svg viewBox="0 0 15 15" width="100%" height="30px" preserveAspectRatio="xMaxYMin meet">
 <g id="arrow_out" transform="scale(0.3 0.3)">
  <a xlink:href="struct_acts_1_1_volume_material_mapper_1_1_state__coll__graph_org.svg" target="_base">
   <rect id="button" ry="5" rx="5" y="6" x="6" height="38" width="38"
        fill="#f2f5e9" fill-opacity="0.5" stroke="#606060" stroke-width="1.0"/>
   <path id="arrow"
     d="M 11.500037,31.436501 C 11.940474,20.09759 22.043105,11.32322 32.158766,21.979434 L 37.068811,17.246167 C 37.068811,17.246167 37.088388,32 37.088388,32 L 22.160133,31.978069 C 22.160133,31.978069 26.997745,27.140456 26.997745,27.140456 C 18.528582,18.264221 13.291696,25.230495 11.500037,31.436501 z"
     style="fill:#404040;"/>
  </a>
 </g>
</svg>

<style type='text/css'>
<![CDATA[
[data-mouse-over-selected='false'] { opacity: 0.7; }
[data-mouse-over-selected='true']  { opacity: 1.0; }
]]>
</style>
<script type="application/ecmascript"><![CDATA[
document.addEventListener('DOMContentLoaded', (event) => {
  highlightEdges();
  highlightAdjacentNodes();
});
]]></script>
</svg>
