<?xml version="1.0" encoding="UTF-8" standalone="no"?>
<!DOCTYPE svg PUBLIC "-//W3C//DTD SVG 1.1//EN"
 "http://www.w3.org/Graphics/SVG/1.1/DTD/svg11.dtd">
<!-- Generated by graphviz version 2.43.0 (0)
 -->
<!-- Title: Acts::CylinderVolumeBuilder::Config Pages: 1 -->
<svg width="817pt" height="357pt"
 viewBox="0.00 0.00 817.00 356.50" xmlns="http://www.w3.org/2000/svg" xmlns:xlink="http://www.w3.org/1999/xlink">
<g id="graph0" class="graph" transform="scale(1 1) rotate(0) translate(4 352.5)">
<title>Acts::CylinderVolumeBuilder::Config</title>
<!-- Node1 -->
<g id="Node000001" class="node">
<title>Node1</title>
<g id="a_Node000001"><a xlink:title="Nested configuration struct for this CylinderVolumeBuilder.">
<polygon fill="#999999" stroke="#666666" points="809,-188.5 654,-188.5 654,-158.5 809,-158.5 809,-188.5"/>
<text text-anchor="start" x="662" y="-176.5" font-family="Helvetica,sans-Serif" font-size="10.00">Acts::CylinderVolumeBuilder</text>
<text text-anchor="middle" x="731.5" y="-165.5" font-family="Helvetica,sans-Serif" font-size="10.00">::Config</text>
</a>
</g>
</g>
<!-- Node2 -->
<g id="Node000002" class="node">
<title>Node2</title>
<g id="a_Node000002"><a xlink:title=" ">
<polygon fill="white" stroke="#666666" points="496.5,-338.5 326.5,-338.5 326.5,-308.5 496.5,-308.5 496.5,-338.5"/>
<text text-anchor="start" x="334.5" y="-326.5" font-family="Helvetica,sans-Serif" font-size="10.00">std::shared_ptr&lt; const</text>
<text text-anchor="middle" x="411.5" y="-315.5" font-family="Helvetica,sans-Serif" font-size="10.00"> Acts::ITrackingVolumeHelper &gt;</text>
</a>
</g>
</g>
<!-- Node2&#45;&gt;Node1 -->
<g id="edge1_Node000001_Node000002" class="edge">
<title>Node2&#45;&gt;Node1</title>
<g id="a_edge1_Node000001_Node000002"><a xlink:title=" ">
<path fill="none" stroke="#9a32cd" stroke-dasharray="5,2" d="M506.9,-320.76C548.71,-316.1 597.11,-305.72 636,-283.5 676.44,-260.39 707.78,-213.24 722.06,-188.86"/>
<polygon fill="#9a32cd" stroke="#9a32cd" points="506.3,-317.31 496.71,-321.8 507.01,-324.27 506.3,-317.31"/>
</a>
</g>
<text text-anchor="start" x="524.5" y="-323" font-family="Helvetica,sans-Serif" font-size="10.00" fill="grey">trackingVolumeHelper</text>
</g>
<!-- Node3 -->
<g id="Node000003" class="node">
<title>Node3</title>
<g id="a_Node000003"><a xlink:title=" ">
<polygon fill="white" stroke="#666666" points="118,-263 0,-263 0,-244 118,-244 118,-263"/>
<text text-anchor="middle" x="59" y="-251" font-family="Helvetica,sans-Serif" font-size="10.00">std::shared_ptr&lt; T &gt;</text>
</a>
</g>
</g>
<!-- Node3&#45;&gt;Node2 -->
<g id="edge2_Node000002_Node000003" class="edge">
<title>Node3&#45;&gt;Node2</title>
<g id="a_edge2_Node000002_Node000003"><a xlink:title=" ">
<path fill="none" stroke="orange" stroke-dasharray="5,2" d="M86.14,-267.95C100.46,-275.24 118.75,-283.56 136,-288.5 198.35,-306.37 271.27,-315.13 326.28,-319.41"/>
<polygon fill="orange" stroke="orange" points="87.41,-264.66 76.93,-263.12 84.16,-270.86 87.41,-264.66"/>
</a>
</g>
<text text-anchor="start" x="145" y="-337.5" font-family="Helvetica,sans-Serif" font-size="10.00" fill="grey">&lt; const Acts::ITrackingVolume</text>
<text text-anchor="start" x="145" y="-322.5" font-family="Helvetica,sans-Serif" font-size="10.00" fill="grey">  Helper &gt;</text>
</g>
<!-- Node6 -->
<g id="Node000006" class="node">
<title>Node6</title>
<g id="a_Node000006"><a xlink:title=" ">
<polygon fill="white" stroke="#666666" points="480.5,-290.5 342.5,-290.5 342.5,-260.5 480.5,-260.5 480.5,-290.5"/>
<text text-anchor="start" x="350.5" y="-278.5" font-family="Helvetica,sans-Serif" font-size="10.00">std::shared_ptr&lt; const</text>
<text text-anchor="middle" x="411.5" y="-267.5" font-family="Helvetica,sans-Serif" font-size="10.00"> Acts::IVolumeMaterial &gt;</text>
</a>
</g>
</g>
<!-- Node3&#45;&gt;Node6 -->
<g id="edge6_Node000006_Node000003" class="edge">
<title>Node3&#45;&gt;Node6</title>
<g id="a_edge6_Node000006_Node000003"><a xlink:title=" ">
<path fill="none" stroke="orange" stroke-dasharray="5,2" d="M128.32,-257.79C190.15,-261.67 280.73,-267.35 342.47,-271.23"/>
<polygon fill="orange" stroke="orange" points="128.47,-254.29 118.27,-257.16 128.03,-261.28 128.47,-254.29"/>
</a>
</g>
<text text-anchor="start" x="139" y="-273" font-family="Helvetica,sans-Serif" font-size="10.00" fill="grey">&lt; const Acts::IVolumeMaterial &gt;</text>
</g>
<!-- Node7 -->
<g id="Node000007" class="node">
<title>Node7</title>
<g id="a_Node000007"><a xlink:title=" ">
<polygon fill="white" stroke="#666666" points="475,-242.5 348,-242.5 348,-212.5 475,-212.5 475,-242.5"/>
<text text-anchor="start" x="356" y="-230.5" font-family="Helvetica,sans-Serif" font-size="10.00">std::shared_ptr&lt; const</text>
<text text-anchor="middle" x="411.5" y="-219.5" font-family="Helvetica,sans-Serif" font-size="10.00"> Acts::ILayerBuilder &gt;</text>
</a>
</g>
</g>
<!-- Node3&#45;&gt;Node7 -->
<g id="edge8_Node000007_Node000003" class="edge">
<title>Node3&#45;&gt;Node7</title>
<g id="a_edge8_Node000007_Node000003"><a xlink:title=" ">
<path fill="none" stroke="orange" stroke-dasharray="5,2" d="M108.81,-241.94C117.8,-240.18 127.15,-238.58 136,-237.5 208.3,-228.64 292.05,-226.79 347.85,-226.74"/>
<polygon fill="orange" stroke="orange" points="107.93,-238.55 98.84,-243.99 109.34,-245.4 107.93,-238.55"/>
</a>
</g>
<text text-anchor="start" x="147" y="-243" font-family="Helvetica,sans-Serif" font-size="10.00" fill="grey">&lt; const Acts::ILayerBuilder &gt;</text>
</g>
<!-- Node8 -->
<g id="Node000008" class="node">
<title>Node8</title>
<g id="a_Node000008"><a xlink:title=" ">
<polygon fill="white" stroke="#666666" points="496.5,-194 326.5,-194 326.5,-153 496.5,-153 496.5,-194"/>
<text text-anchor="start" x="334.5" y="-182" font-family="Helvetica,sans-Serif" font-size="10.00">std::shared_ptr&lt; const</text>
<text text-anchor="start" x="334.5" y="-171" font-family="Helvetica,sans-Serif" font-size="10.00"> Acts::IConfinedTrackingVolume</text>
<text text-anchor="middle" x="411.5" y="-160" font-family="Helvetica,sans-Serif" font-size="10.00">Builder &gt;</text>
</a>
</g>
</g>
<!-- Node3&#45;&gt;Node8 -->
<g id="edge10_Node000008_Node000003" class="edge">
<title>Node3&#45;&gt;Node8</title>
<g id="a_edge10_Node000008_Node000003"><a xlink:title=" ">
<path fill="none" stroke="orange" stroke-dasharray="5,2" d="M75.01,-235.96C89.07,-220.92 111.53,-200.19 136,-190.5 196.49,-166.55 270.35,-163.28 326.21,-165.46"/>
<polygon fill="orange" stroke="orange" points="72.2,-233.86 68.11,-243.63 77.4,-238.54 72.2,-233.86"/>
</a>
</g>
<text text-anchor="start" x="142" y="-211.5" font-family="Helvetica,sans-Serif" font-size="10.00" fill="grey">&lt; const Acts::IConfinedTracking</text>
<text text-anchor="start" x="142" y="-196.5" font-family="Helvetica,sans-Serif" font-size="10.00" fill="grey">  VolumeBuilder &gt;</text>
</g>
<!-- Node4 -->
<g id="Node000004" class="node">
<title>Node4</title>
<g id="a_Node000004"><a xlink:title=" ">
<polygon fill="white" stroke="#666666" points="444,-135 379,-135 379,-116 444,-116 444,-135"/>
<text text-anchor="middle" x="411.5" y="-123" font-family="Helvetica,sans-Serif" font-size="10.00">std::string</text>
</a>
</g>
</g>
<!-- Node4&#45;&gt;Node1 -->
<g id="edge3_Node000001_Node000004" class="edge">
<title>Node4&#45;&gt;Node1</title>
<g id="a_edge3_Node000001_Node000004"><a xlink:title=" ">
<path fill="none" stroke="#9a32cd" stroke-dasharray="5,2" d="M454.08,-129.29C499.09,-133.68 572.92,-141.71 636,-152.5 646.02,-154.21 656.59,-156.29 666.87,-158.46"/>
<polygon fill="#9a32cd" stroke="#9a32cd" points="454.39,-125.8 444.1,-128.33 453.72,-132.77 454.39,-125.8"/>
</a>
</g>
<text text-anchor="start" x="545.5" y="-158" font-family="Helvetica,sans-Serif" font-size="10.00" fill="grey">volumeName</text>
</g>
<!-- Node5 -->
<g id="Node000005" class="node">
<title>Node5</title>
<g id="a_Node000005"><a xlink:title=" ">
<polygon fill="white" stroke="#666666" points="111,-140.5 7,-140.5 7,-110.5 111,-110.5 111,-140.5"/>
<text text-anchor="start" x="15" y="-128.5" font-family="Helvetica,sans-Serif" font-size="10.00">std::basic_string&lt;</text>
<text text-anchor="middle" x="59" y="-117.5" font-family="Helvetica,sans-Serif" font-size="10.00"> Char &gt;</text>
</a>
</g>
</g>
<!-- Node5&#45;&gt;Node4 -->
<g id="edge4_Node000004_Node000005" class="edge">
<title>Node5&#45;&gt;Node4</title>
<g id="a_edge4_Node000004_Node000005"><a xlink:title=" ">
<path fill="none" stroke="#63b8ff" d="M121.61,-125.5C196.75,-125.5 320.91,-125.5 378.87,-125.5"/>
<polygon fill="#63b8ff" stroke="#63b8ff" points="121.34,-122 111.34,-125.5 121.34,-129 121.34,-122"/>
</a>
</g>
</g>
<!-- Node6&#45;&gt;Node1 -->
<g id="edge5_Node000001_Node000006" class="edge">
<title>Node6&#45;&gt;Node1</title>
<g id="a_edge5_Node000001_Node000006"><a xlink:title=" ">
<path fill="none" stroke="#9a32cd" stroke-dasharray="5,2" d="M490.84,-267.6C534.64,-261.42 589.59,-250.72 636,-232.5 663.91,-221.54 692.66,-202.23 711.01,-188.69"/>
<polygon fill="#9a32cd" stroke="#9a32cd" points="490.25,-264.14 480.81,-268.96 491.19,-271.08 490.25,-264.14"/>
</a>
</g>
<text text-anchor="start" x="539.5" y="-268" font-family="Helvetica,sans-Serif" font-size="10.00" fill="grey">volumeMaterial</text>
</g>
<!-- Node7&#45;&gt;Node1 -->
<g id="edge7_Node000001_Node000007" class="edge">
<title>Node7&#45;&gt;Node1</title>
<g id="a_edge7_Node000001_Node000007"><a xlink:title=" ">
<path fill="none" stroke="#9a32cd" stroke-dasharray="5,2" d="M485.31,-218.1C529.11,-212.11 585.9,-203.75 636,-194.5 645.67,-192.71 655.85,-190.65 665.81,-188.52"/>
<polygon fill="#9a32cd" stroke="#9a32cd" points="484.76,-214.64 475.32,-219.46 485.7,-221.58 484.76,-214.64"/>
</a>
</g>
<text text-anchor="start" x="548.5" y="-217" font-family="Helvetica,sans-Serif" font-size="10.00" fill="grey">layerBuilder</text>
</g>
<!-- Node8&#45;&gt;Node1 -->
<g id="edge9_Node000001_Node000008" class="edge">
<title>Node8&#45;&gt;Node1</title>
<g id="a_edge9_Node000001_Node000008"><a xlink:title=" ">
<path fill="none" stroke="#9a32cd" stroke-dasharray="5,2" d="M507.04,-173.5C553.9,-173.5 609.75,-173.5 653.89,-173.5"/>
<polygon fill="#9a32cd" stroke="#9a32cd" points="506.88,-170 496.88,-173.5 506.88,-177 506.88,-170"/>
</a>
</g>
<text text-anchor="start" x="538.5" y="-179" font-family="Helvetica,sans-Serif" font-size="10.00" fill="grey">ctVolumeBuilder</text>
</g>
<!-- Node9 -->
<g id="Node000009" class="node">
<title>Node9</title>
<g id="a_Node000009"><a xlink:title=" ">
<polygon fill="white" stroke="#666666" points="463.5,-97.5 359.5,-97.5 359.5,-67.5 463.5,-67.5 463.5,-97.5"/>
<text text-anchor="start" x="367.5" y="-85.5" font-family="Helvetica,sans-Serif" font-size="10.00">std::pair&lt; double,</text>
<text text-anchor="middle" x="411.5" y="-74.5" font-family="Helvetica,sans-Serif" font-size="10.00"> double &gt;</text>
</a>
</g>
</g>
<!-- Node9&#45;&gt;Node1 -->
<g id="edge11_Node000001_Node000009" class="edge">
<title>Node9&#45;&gt;Node1</title>
<g id="a_edge11_Node000001_Node000009"><a xlink:title=" ">
<path fill="none" stroke="#9a32cd" stroke-dasharray="5,2" d="M473.72,-84.9C519.57,-88.27 583.22,-96.32 636,-115.5 664.04,-125.69 692.77,-144.8 711.07,-158.3"/>
<polygon fill="#9a32cd" stroke="#9a32cd" points="473.85,-81.4 463.63,-84.22 473.37,-88.39 473.85,-81.4"/>
</a>
</g>
<text text-anchor="start" x="540.5" y="-121" font-family="Helvetica,sans-Serif" font-size="10.00" fill="grey">layerEnvelopeR</text>
</g>
<!-- Node10 -->
<g id="Node000010" class="node">
<title>Node10</title>
<g id="a_Node000010"><a xlink:title=" ">
<polygon fill="white" stroke="#666666" points="113.5,-92 4.5,-92 4.5,-73 113.5,-73 113.5,-92"/>
<text text-anchor="middle" x="59" y="-80" font-family="Helvetica,sans-Serif" font-size="10.00">std::pair&lt; T1, T2 &gt;</text>
</a>
</g>
</g>
<!-- Node10&#45;&gt;Node9 -->
<g id="edge12_Node000009_Node000010" class="edge">
<title>Node10&#45;&gt;Node9</title>
<g id="a_edge12_Node000009_Node000010"><a xlink:title=" ">
<path fill="none" stroke="orange" stroke-dasharray="5,2" d="M123.73,-82.5C191.41,-82.5 297.05,-82.5 359.46,-82.5"/>
<polygon fill="orange" stroke="orange" points="123.61,-79 113.61,-82.5 123.61,-86 123.61,-79"/>
</a>
</g>
<text text-anchor="start" x="172" y="-88" font-family="Helvetica,sans-Serif" font-size="10.00" fill="grey">&lt; double, double &gt;</text>
</g>
<!-- Node11 -->
<g id="Node000011" class="node">
<title>Node11</title>
<g id="a_Node000011"><a xlink:title=" ">
<polygon fill="white" stroke="#666666" points="503,-41 320,-41 320,0 503,0 503,-41"/>
<text text-anchor="start" x="328" y="-29" font-family="Helvetica,sans-Serif" font-size="10.00">std::array&lt; std::shared</text>
<text text-anchor="start" x="328" y="-18" font-family="Helvetica,sans-Serif" font-size="10.00">_ptr&lt; const Acts::ISurfaceMaterial</text>
<text text-anchor="middle" x="411.5" y="-7" font-family="Helvetica,sans-Serif" font-size="10.00"> &gt;, 6 &gt;</text>
</a>
</g>
</g>
<!-- Node11&#45;&gt;Node1 -->
<g id="edge13_Node000001_Node000011" class="edge">
<title>Node11&#45;&gt;Node1</title>
<g id="a_edge13_Node000001_Node000011"><a xlink:title=" ">
<path fill="none" stroke="#9a32cd" stroke-dasharray="5,2" d="M513.19,-28.57C553.45,-35.16 598.95,-47.05 636,-68.5 674.84,-90.99 706.44,-134.98 721.3,-158.24"/>
<polygon fill="#9a32cd" stroke="#9a32cd" points="513.5,-25.08 503.08,-27.01 512.43,-32 513.5,-25.08"/>
</a>
</g>
<text text-anchor="start" x="535.5" y="-74" font-family="Helvetica,sans-Serif" font-size="10.00" fill="grey">boundaryMaterial</text>
</g>
<!-- Node12 -->
<g id="Node000012" class="node">
<title>Node12</title>
<g id="a_Node000012"><a xlink:title=" ">
<polygon fill="white" stroke="#666666" points="105,-22 13,-22 13,-3 105,-3 105,-22"/>
<text text-anchor="middle" x="59" y="-10" font-family="Helvetica,sans-Serif" font-size="10.00">std::array&lt; T &gt;</text>
</a>
</g>
</g>
<!-- Node12&#45;&gt;Node11 -->
<g id="edge14_Node000011_Node000012" class="edge">
<title>Node12&#45;&gt;Node11</title>
<g id="a_edge14_Node000011_Node000012"><a xlink:title=" ">
<path fill="none" stroke="orange" stroke-dasharray="5,2" d="M115.31,-13.76C170.12,-15.01 255,-16.95 319.7,-18.43"/>
<polygon fill="orange" stroke="orange" points="115.18,-10.26 105.1,-13.53 115.02,-17.26 115.18,-10.26"/>
</a>
</g>
<text text-anchor="start" x="146" y="-54" font-family="Helvetica,sans-Serif" font-size="10.00" fill="grey">&lt; std::shared_ptr&lt;</text>
<text text-anchor="start" x="146" y="-39" font-family="Helvetica,sans-Serif" font-size="10.00" fill="grey">   const Acts::ISurfaceMaterial</text>
<text text-anchor="start" x="146" y="-24" font-family="Helvetica,sans-Serif" font-size="10.00" fill="grey">   &gt;, 6 &gt;</text>
</g>
</g>
</svg>
