<?xml version="1.0" encoding="UTF-8" standalone="no"?>
<!DOCTYPE svg PUBLIC "-//W3C//DTD SVG 1.1//EN"
 "http://www.w3.org/Graphics/SVG/1.1/DTD/svg11.dtd">
<!-- Generated by graphviz version 2.43.0 (0)
 -->
<!-- Title: Acts::AdaptiveGridDensityVertexFinder::State Pages: 1 -->
<svg width="647pt" height="109pt"
 viewBox="0.00 0.00 647.00 109.00" xmlns="http://www.w3.org/2000/svg" xmlns:xlink="http://www.w3.org/1999/xlink">
<g id="graph0" class="graph" transform="scale(1 1) rotate(0) translate(4 105)">
<title>Acts::AdaptiveGridDensityVertexFinder::State</title>
<!-- Node1 -->
<g id="Node000001" class="node">
<title>Node1</title>
<g id="a_Node000001"><a xlink:title="The State struct.">
<polygon fill="#999999" stroke="#666666" points="639,-57 494,-57 494,-27 639,-27 639,-57"/>
<text text-anchor="start" x="502" y="-45" font-family="Helvetica,sans-Serif" font-size="10.00">Acts::AdaptiveGridDensity</text>
<text text-anchor="middle" x="566.5" y="-34" font-family="Helvetica,sans-Serif" font-size="10.00">VertexFinder::State</text>
</a>
</g>
</g>
<!-- Node2 -->
<g id="Node000002" class="node">
<title>Node2</title>
<g id="a_Node000002"><a xlink:title=" ">
<polygon fill="white" stroke="#666666" points="370,-89.5 256,-89.5 256,-48.5 370,-48.5 370,-89.5"/>
<text text-anchor="start" x="264" y="-77.5" font-family="Helvetica,sans-Serif" font-size="10.00">std::unordered_map</text>
<text text-anchor="start" x="264" y="-66.5" font-family="Helvetica,sans-Serif" font-size="10.00">&lt; Acts::InputTrack,</text>
<text text-anchor="middle" x="313" y="-55.5" font-family="Helvetica,sans-Serif" font-size="10.00"> DensityMap &gt;</text>
</a>
</g>
</g>
<!-- Node2&#45;&gt;Node1 -->
<g id="edge1_Node000001_Node000002" class="edge">
<title>Node2&#45;&gt;Node1</title>
<g id="a_edge1_Node000001_Node000002"><a xlink:title=" ">
<path fill="none" stroke="#9a32cd" stroke-dasharray="5,2" d="M380.22,-61.89C415.15,-58.14 458.03,-53.54 493.75,-49.7"/>
<polygon fill="#9a32cd" stroke="#9a32cd" points="379.7,-58.43 370.13,-62.97 380.44,-65.39 379.7,-58.43"/>
</a>
</g>
<text text-anchor="start" x="397" y="-66.5" font-family="Helvetica,sans-Serif" font-size="10.00" fill="grey">trackDensities</text>
</g>
<!-- Node3 -->
<g id="Node000003" class="node">
<title>Node3</title>
<g id="a_Node000003"><a xlink:title=" ">
<polygon fill="white" stroke="#666666" points="114,-84 0,-84 0,-54 114,-54 114,-84"/>
<text text-anchor="start" x="8" y="-72" font-family="Helvetica,sans-Serif" font-size="10.00">std::unordered_map</text>
<text text-anchor="middle" x="57" y="-61" font-family="Helvetica,sans-Serif" font-size="10.00">&lt; K, T &gt;</text>
</a>
</g>
</g>
<!-- Node3&#45;&gt;Node2 -->
<g id="edge2_Node000002_Node000003" class="edge">
<title>Node3&#45;&gt;Node2</title>
<g id="a_edge2_Node000002_Node000003"><a xlink:title=" ">
<path fill="none" stroke="orange" stroke-dasharray="5,2" d="M124.18,-69C165,-69 216.8,-69 255.65,-69"/>
<polygon fill="orange" stroke="orange" points="124.06,-65.5 114.06,-69 124.06,-72.5 124.06,-65.5"/>
</a>
</g>
<text text-anchor="start" x="139" y="-90" font-family="Helvetica,sans-Serif" font-size="10.00" fill="grey">&lt; Acts::InputTrack,</text>
<text text-anchor="start" x="139" y="-75" font-family="Helvetica,sans-Serif" font-size="10.00" fill="grey">   DensityMap &gt;</text>
</g>
<!-- Node4 -->
<g id="Node000004" class="node">
<title>Node4</title>
<g id="a_Node000004"><a xlink:title=" ">
<polygon fill="white" stroke="#666666" points="366.5,-30 259.5,-30 259.5,0 366.5,0 366.5,-30"/>
<text text-anchor="start" x="267.5" y="-18" font-family="Helvetica,sans-Serif" font-size="10.00">std::vector&lt; Acts::</text>
<text text-anchor="middle" x="313" y="-7" font-family="Helvetica,sans-Serif" font-size="10.00">InputTrack &gt;</text>
</a>
</g>
</g>
<!-- Node4&#45;&gt;Node1 -->
<g id="edge3_Node000001_Node000004" class="edge">
<title>Node4&#45;&gt;Node1</title>
<g id="a_edge3_Node000001_Node000004"><a xlink:title=" ">
<path fill="none" stroke="#9a32cd" stroke-dasharray="5,2" d="M376.87,-21.5C406.89,-24.63 443.31,-28.46 476,-32 481.75,-32.62 487.71,-33.27 493.7,-33.93"/>
<polygon fill="#9a32cd" stroke="#9a32cd" points="376.85,-17.98 366.54,-20.42 376.12,-24.94 376.85,-17.98"/>
</a>
</g>
<text text-anchor="start" x="391" y="-37.5" font-family="Helvetica,sans-Serif" font-size="10.00" fill="grey">tracksToRemove</text>
</g>
<!-- Node5 -->
<g id="Node000005" class="node">
<title>Node5</title>
<g id="a_Node000005"><a xlink:title=" ">
<polygon fill="white" stroke="#666666" points="105.5,-24.5 8.5,-24.5 8.5,-5.5 105.5,-5.5 105.5,-24.5"/>
<text text-anchor="middle" x="57" y="-12.5" font-family="Helvetica,sans-Serif" font-size="10.00">std::vector&lt; T &gt;</text>
</a>
</g>
</g>
<!-- Node5&#45;&gt;Node4 -->
<g id="edge4_Node000004_Node000005" class="edge">
<title>Node5&#45;&gt;Node4</title>
<g id="a_edge4_Node000004_Node000005"><a xlink:title=" ">
<path fill="none" stroke="orange" stroke-dasharray="5,2" d="M115.83,-15C158.93,-15 217.33,-15 259.18,-15"/>
<polygon fill="orange" stroke="orange" points="115.78,-11.5 105.78,-15 115.78,-18.5 115.78,-11.5"/>
</a>
</g>
<text text-anchor="start" x="135" y="-20.5" font-family="Helvetica,sans-Serif" font-size="10.00" fill="grey">&lt; Acts::InputTrack &gt;</text>
</g>
</g>
</svg>
