<?xml version="1.0" encoding="UTF-8" standalone="no"?>
<!DOCTYPE svg PUBLIC "-//W3C//DTD SVG 1.1//EN"
 "http://www.w3.org/Graphics/SVG/1.1/DTD/svg11.dtd">
<!-- Generated by graphviz version 2.43.0 (0)
 -->
<!-- Title: Acts::KalmanFitterExtensions&lt; traj_t &gt; Pages: 1 -->
<!--zoomable 336 -->

<svg id="main" version="1.1" xmlns="http://www.w3.org/2000/svg" xmlns:xlink="http://www.w3.org/1999/xlink" xml:space="preserve" onload="init(evt)">

<style type="text/css"><![CDATA[
.node, .edge {opacity: 0.7;}
.node.selected, .edge.selected {opacity: 1;}
.edge:hover path { stroke: red; }
.edge:hover polygon { stroke: red; fill: red; }
]]></style>

<defs>
  <circle id="rim" cx="0" cy="0" r="7"/>
  <circle id="rim2" cx="0" cy="0" r="3.5"/>
  <g id="zoomPlus">
    <use xlink:href="#rim" fill="#404040"><set attributeName="fill" to="#808080" begin="zoomplus.mouseover" end="zoomplus.mouseout"/></use>
    <path d="M-4,0h8M0,-4v8" fill="none" stroke="white" stroke-width="1.5" pointer-events="none"/>
  </g>
  <g id="zoomMin">
    <use xlink:href="#rim" fill="#404040"><set attributeName="fill" to="#808080" begin="zoomminus.mouseover" end="zoomminus.mouseout"/></use>
    <path d="M-4,0h8" fill="none" stroke="white" stroke-width="1.5" pointer-events="none"/>
  </g>
  <g id="arrowUp" transform="translate(30 24)">
    <use xlink:href="#rim"/>
    <path pointer-events="none" fill="none" stroke="white" stroke-width="1.5" d="M0,-3.0v7 M-2.5,-0.5L0,-3.0L2.5,-0.5"/>
  </g>
  <g id="arrowRight" transform="rotate(90) translate(36 -43)">
    <use xlink:href="#rim"/>
    <path pointer-events="none" fill="none" stroke="white" stroke-width="1.5" d="M0,-3.0v7 M-2.5,-0.5L0,-3.0L2.5,-0.5"/>
  </g>
  <g id="arrowDown" transform="rotate(180) translate(-30 -48)">
    <use xlink:href="#rim"/>
    <path pointer-events="none" fill="none" stroke="white" stroke-width="1.5" d="M0,-3.0v7 M-2.5,-0.5L0,-3.0L2.5,-0.5"/>
  </g>
  <g id="arrowLeft" transform="rotate(270) translate(-36 17)">
    <use xlink:href="#rim"/>
    <path pointer-events="none" fill="none" stroke="white" stroke-width="1.5" d="M0,-3.0v7 M-2.5,-0.5L0,-3.0L2.5,-0.5"/>
  </g>
  <g id="resetDef">
    <use xlink:href="#rim2" fill="#404040"><set attributeName="fill" to="#808080" begin="reset.mouseover" end="reset.mouseout"/></use>
  </g>
</defs>
<script type="application/ecmascript">
var viewWidth = 943;
var viewHeight = 336;
var sectionId = 'dynsection-1';
</script>
<script type="application/ecmascript" xlink:href="svg.min.js"/>
<svg id="graph" class="graph">
<g id="viewport">
<title>Acts::KalmanFitterExtensions&lt; traj_t &gt;</title>
<!-- Node1 -->
<g id="Node000001" class="node">
<title>Node1</title>
<g id="a_Node000001"><a xlink:title="Extension struct which holds delegates to customise the KF behavior.">
<polygon fill="#999999" stroke="#666666" points="935,-138.48 775,-138.48 775,-108.48 935,-108.48 935,-138.48"/>
<text text-anchor="start" x="783" y="-126.48" font-family="Helvetica,sans-Serif" font-size="10.00">Acts::KalmanFitterExtensions</text>
<text text-anchor="middle" x="855" y="-115.48" font-family="Helvetica,sans-Serif" font-size="10.00">&lt; traj_t &gt;</text>
</a>
</g>
</g>
<!-- Node2 -->
<g id="Node000002" class="node">
<title>Node2</title>
<g id="a_Node000002"><a xlink:href="class_acts_1_1_delegate.html" target="_top" xlink:title=" ">
<polygon fill="white" stroke="#666666" points="630,-289.48 407,-289.48 407,-237.48 630,-237.48 630,-289.48"/>
<text text-anchor="start" x="415" y="-277.48" font-family="Helvetica,sans-Serif" font-size="10.00">Acts::Delegate&lt; void</text>
<text text-anchor="start" x="415" y="-266.48" font-family="Helvetica,sans-Serif" font-size="10.00">(const GeometryContext</text>
<text text-anchor="start" x="415" y="-255.48" font-family="Helvetica,sans-Serif" font-size="10.00"> &amp;, const CalibrationContext</text>
<text text-anchor="middle" x="518.5" y="-244.48" font-family="Helvetica,sans-Serif" font-size="10.00"> &amp;, const SourceLink &amp;, TrackStateProxy)&gt;</text>
</a>
</g>
</g>
<!-- Node2&#45;&gt;Node1 -->
<g id="edge1_Node000001_Node000002" class="edge">
<title>Node2&#45;&gt;Node1</title>
<g id="a_edge1_Node000001_Node000002"><a xlink:title=" ">
<path fill="none" stroke="#9a32cd" stroke-dasharray="5,2" d="M629.76,-234.47C670.66,-221.97 716.85,-205.76 757,-186.48 785.24,-172.92 815.08,-152.49 834.09,-138.6"/>
<polygon fill="#9a32cd" stroke="#9a32cd" points="628.59,-231.17 620.03,-237.4 630.61,-237.87 628.59,-231.17"/>
</a>
</g>
<text text-anchor="start" x="679.5" y="-232.98" font-family="Helvetica,sans-Serif" font-size="10.00" fill="grey">calibrator</text>
</g>
<!-- Node3 -->
<g id="Node000003" class="node">
<title>Node3</title>
<g id="a_Node000003"><a xlink:href="class_acts_1_1_delegate.html" target="_top" xlink:title=" ">
<polygon fill="white" stroke="#666666" points="152,-123.48 0,-123.48 0,-93.48 152,-93.48 152,-123.48"/>
<text text-anchor="start" x="8" y="-111.48" font-family="Helvetica,sans-Serif" font-size="10.00">Acts::Delegate&lt; typename,</text>
<text text-anchor="middle" x="76" y="-100.48" font-family="Helvetica,sans-Serif" font-size="10.00"> H, DelegateType &gt;</text>
</a>
</g>
</g>
<!-- Node3&#45;&gt;Node2 -->
<g id="edge2_Node000002_Node000003" class="edge">
<title>Node3&#45;&gt;Node2</title>
<g id="a_edge2_Node000002_Node000003"><a xlink:title=" ">
<path fill="none" stroke="orange" stroke-dasharray="5,2" d="M86.32,-133.2C99.61,-164.56 127.22,-217.45 170,-241.48 241.54,-281.68 334.92,-285.43 406.87,-280.09"/>
<polygon fill="orange" stroke="orange" points="89.52,-131.79 82.51,-123.84 83.04,-134.42 89.52,-131.79"/>
</a>
</g>
<text text-anchor="start" x="173.5" y="-316.98" font-family="Helvetica,sans-Serif" font-size="10.00" fill="grey">&lt; void(const GeometryContext</text>
<text text-anchor="start" x="173.5" y="-301.98" font-family="Helvetica,sans-Serif" font-size="10.00" fill="grey">   &amp;, const CalibrationContext</text>
<text text-anchor="start" x="173.5" y="-286.98" font-family="Helvetica,sans-Serif" font-size="10.00" fill="grey">   &amp;, const SourceLink &amp;, TrackStateProxy)&gt;</text>
</g>
<!-- Node4 -->
<g id="Node000004" class="node">
<title>Node4</title>
<g id="a_Node000004"><a xlink:href="class_acts_1_1_delegate.html" target="_top" xlink:title=" ">
<polygon fill="white" stroke="#666666" points="608.5,-219.48 428.5,-219.48 428.5,-167.48 608.5,-167.48 608.5,-219.48"/>
<text text-anchor="start" x="436.5" y="-207.48" font-family="Helvetica,sans-Serif" font-size="10.00">Acts::Delegate&lt; Result</text>
<text text-anchor="start" x="436.5" y="-196.48" font-family="Helvetica,sans-Serif" font-size="10.00">&lt; void &gt;(const GeometryContext</text>
<text text-anchor="start" x="436.5" y="-185.48" font-family="Helvetica,sans-Serif" font-size="10.00"> &amp;, TrackStateProxy, const</text>
<text text-anchor="middle" x="518.5" y="-174.48" font-family="Helvetica,sans-Serif" font-size="10.00"> Logger &amp;)&gt;</text>
</a>
</g>
</g>
<!-- Node3&#45;&gt;Node4 -->
<g id="edge4_Node000004_Node000003" class="edge">
<title>Node3&#45;&gt;Node4</title>
<g id="a_edge4_Node000004_Node000003"><a xlink:title=" ">
<path fill="none" stroke="orange" stroke-dasharray="5,2" d="M101.36,-130.37C119.06,-144.84 144.31,-162.7 170,-171.48 216.05,-187.22 341.62,-191.86 428.48,-193.14"/>
<polygon fill="orange" stroke="orange" points="103.22,-127.36 93.32,-123.59 98.71,-132.71 103.22,-127.36"/>
</a>
</g>
<text text-anchor="start" x="197.5" y="-226.98" font-family="Helvetica,sans-Serif" font-size="10.00" fill="grey">&lt; Result&lt; void &gt;(const</text>
<text text-anchor="start" x="197.5" y="-211.98" font-family="Helvetica,sans-Serif" font-size="10.00" fill="grey">   GeometryContext &amp;, TrackState</text>
<text text-anchor="start" x="197.5" y="-196.98" font-family="Helvetica,sans-Serif" font-size="10.00" fill="grey">  Proxy, const Logger &amp;)&gt;</text>
</g>
<!-- Node5 -->
<g id="Node000005" class="node">
<title>Node5</title>
<g id="a_Node000005"><a xlink:title=" ">
<polygon fill="white" stroke="#666666" points="608.5,-149.48 428.5,-149.48 428.5,-97.48 608.5,-97.48 608.5,-149.48"/>
<text text-anchor="start" x="436.5" y="-137.48" font-family="Helvetica,sans-Serif" font-size="10.00">Acts::Delegate&lt; Result</text>
<text text-anchor="start" x="436.5" y="-126.48" font-family="Helvetica,sans-Serif" font-size="10.00">&lt; void &gt;(const GeometryContext</text>
<text text-anchor="start" x="436.5" y="-115.48" font-family="Helvetica,sans-Serif" font-size="10.00"> &amp;, traj_t &amp;, std::size_t,</text>
<text text-anchor="middle" x="518.5" y="-104.48" font-family="Helvetica,sans-Serif" font-size="10.00"> const Logger &amp;)&gt;</text>
</a>
</g>
</g>
<!-- Node3&#45;&gt;Node5 -->
<g id="edge6_Node000005_Node000003" class="edge">
<title>Node3&#45;&gt;Node5</title>
<g id="a_edge6_Node000005_Node000003"><a xlink:title=" ">
<path fill="none" stroke="orange" stroke-dasharray="5,2" d="M162.33,-106.34C225.08,-105.35 312.41,-105.2 389,-109.48 401.77,-110.2 415.23,-111.29 428.43,-112.55"/>
<polygon fill="orange" stroke="orange" points="162.03,-102.84 152.09,-106.51 162.14,-109.84 162.03,-102.84"/>
</a>
</g>
<text text-anchor="start" x="214.5" y="-160.48" font-family="Helvetica,sans-Serif" font-size="10.00" fill="grey">&lt; Result&lt; void &gt;(const</text>
<text text-anchor="start" x="214.5" y="-145.48" font-family="Helvetica,sans-Serif" font-size="10.00" fill="grey">   GeometryContext &amp;, traj</text>
<text text-anchor="start" x="214.5" y="-130.48" font-family="Helvetica,sans-Serif" font-size="10.00" fill="grey">  _t &amp;, std::size_t, const</text>
<text text-anchor="start" x="214.5" y="-115.48" font-family="Helvetica,sans-Serif" font-size="10.00" fill="grey">   Logger &amp;)&gt;</text>
</g>
<!-- Node6 -->
<g id="Node000006" class="node">
<title>Node6</title>
<g id="a_Node000006"><a xlink:href="class_acts_1_1_delegate.html" target="_top" xlink:title=" ">
<polygon fill="white" stroke="#666666" points="588,-79.48 449,-79.48 449,-49.48 588,-49.48 588,-79.48"/>
<text text-anchor="start" x="457" y="-67.48" font-family="Helvetica,sans-Serif" font-size="10.00">Acts::Delegate&lt; bool</text>
<text text-anchor="middle" x="518.5" y="-56.48" font-family="Helvetica,sans-Serif" font-size="10.00">(ConstTrackStateProxy)&gt;</text>
</a>
</g>
</g>
<!-- Node3&#45;&gt;Node6 -->
<g id="edge8_Node000006_Node000003" class="edge">
<title>Node3&#45;&gt;Node6</title>
<g id="a_edge8_Node000006_Node000003"><a xlink:title=" ">
<path fill="none" stroke="orange" stroke-dasharray="5,2" d="M137.52,-91.05C148.26,-88.48 159.4,-86.14 170,-84.48 265.98,-69.48 378.44,-65.44 448.84,-64.5"/>
<polygon fill="orange" stroke="orange" points="136.65,-87.66 127.79,-93.47 138.34,-94.45 136.65,-87.66"/>
</a>
</g>
<text text-anchor="start" x="202.5" y="-89.98" font-family="Helvetica,sans-Serif" font-size="10.00" fill="grey">&lt; bool(ConstTrackStateProxy)&gt;</text>
</g>
<!-- Node7 -->
<g id="Node000007" class="node">
<title>Node7</title>
<g id="a_Node000007"><a xlink:href="class_acts_1_1_delegate.html" target="_top" xlink:title=" ">
<polygon fill="white" stroke="#666666" points="605,-30.48 432,-30.48 432,-0.48 605,-0.48 605,-30.48"/>
<text text-anchor="start" x="440" y="-18.48" font-family="Helvetica,sans-Serif" font-size="10.00">Acts::Delegate&lt; const</text>
<text text-anchor="middle" x="518.5" y="-7.48" font-family="Helvetica,sans-Serif" font-size="10.00"> Surface *(const SourceLink &amp;)&gt;</text>
</a>
</g>
</g>
<!-- Node3&#45;&gt;Node7 -->
<g id="edge10_Node000007_Node000003" class="edge">
<title>Node3&#45;&gt;Node7</title>
<g id="a_edge10_Node000007_Node000003"><a xlink:title=" ">
<path fill="none" stroke="orange" stroke-dasharray="5,2" d="M95.94,-85.53C113.07,-66.64 140.13,-41.15 170,-29.48 254.51,3.51 359.52,2.6 431.86,-3.79"/>
<polygon fill="orange" stroke="orange" points="93.2,-83.34 89.22,-93.16 98.46,-87.96 93.2,-83.34"/>
</a>
</g>
<text text-anchor="start" x="221.5" y="-50.48" font-family="Helvetica,sans-Serif" font-size="10.00" fill="grey">&lt; const Surface *(const</text>
<text text-anchor="start" x="221.5" y="-35.48" font-family="Helvetica,sans-Serif" font-size="10.00" fill="grey">   SourceLink &amp;)&gt;</text>
</g>
<!-- Node4&#45;&gt;Node1 -->
<g id="edge3_Node000001_Node000004" class="edge">
<title>Node4&#45;&gt;Node1</title>
<g id="a_edge3_Node000001_Node000004"><a xlink:title=" ">
<path fill="none" stroke="#9a32cd" stroke-dasharray="5,2" d="M618.46,-173.29C661.1,-164.53 711.53,-154.1 757,-144.48 766.02,-142.58 775.5,-140.55 784.87,-138.54"/>
<polygon fill="#9a32cd" stroke="#9a32cd" points="617.73,-169.87 608.64,-175.31 619.14,-176.72 617.73,-169.87"/>
</a>
</g>
<text text-anchor="start" x="683.5" y="-170.98" font-family="Helvetica,sans-Serif" font-size="10.00" fill="grey">updater</text>
</g>
<!-- Node5&#45;&gt;Node1 -->
<g id="edge5_Node000001_Node000005" class="edge">
<title>Node5&#45;&gt;Node1</title>
<g id="a_edge5_Node000001_Node000005"><a xlink:title=" ">
<path fill="none" stroke="#9a32cd" stroke-dasharray="5,2" d="M618.84,-123.48C668.63,-123.48 728.08,-123.48 774.75,-123.48"/>
<polygon fill="#9a32cd" stroke="#9a32cd" points="618.7,-119.98 608.7,-123.48 618.7,-126.98 618.7,-119.98"/>
</a>
</g>
<text text-anchor="start" x="679.5" y="-128.98" font-family="Helvetica,sans-Serif" font-size="10.00" fill="grey">smoother</text>
</g>
<!-- Node6&#45;&gt;Node1 -->
<g id="edge7_Node000001_Node000006" class="edge">
<title>Node6&#45;&gt;Node1</title>
<g id="a_edge7_Node000001_Node000006"><a xlink:title=" ">
<path fill="none" stroke="#9a32cd" stroke-dasharray="5,2" d="M598.12,-66.99C644.77,-69.74 704.81,-75.49 757,-87.48 778.53,-92.43 801.77,-100.94 820.1,-108.44"/>
<polygon fill="#9a32cd" stroke="#9a32cd" points="598.25,-63.49 588.07,-66.43 597.86,-70.48 598.25,-63.49"/>
</a>
</g>
<text text-anchor="start" x="651.5" y="-108.48" font-family="Helvetica,sans-Serif" font-size="10.00" fill="grey">outlierFinder</text>
<text text-anchor="start" x="651.5" y="-93.48" font-family="Helvetica,sans-Serif" font-size="10.00" fill="grey">reverseFilteringLogic</text>
</g>
<!-- Node7&#45;&gt;Node1 -->
<g id="edge9_Node000001_Node000007" class="edge">
<title>Node7&#45;&gt;Node1</title>
<g id="a_edge9_Node000001_Node000007"><a xlink:title=" ">
<path fill="none" stroke="#9a32cd" stroke-dasharray="5,2" d="M615.49,-18.16C659.95,-22.15 712.63,-30.88 757,-49.48 790.01,-63.32 821.71,-91.14 839.44,-108.45"/>
<polygon fill="#9a32cd" stroke="#9a32cd" points="615.52,-14.65 605.26,-17.31 614.94,-21.62 615.52,-14.65"/>
</a>
</g>
<text text-anchor="start" x="662.5" y="-54.98" font-family="Helvetica,sans-Serif" font-size="10.00" fill="grey">surfaceAccessor</text>
</g>
</g>
</svg>

<g id="navigator" transform="translate(0 0)" fill="#404254">
  <rect fill="#f2f5e9" fill-opacity="0.5" stroke="#606060" stroke-width=".5" x="0" y="0" width="60" height="60"/>
  <use id="zoomplus" xlink:href="#zoomPlus" x="17" y="9" onmousedown="handleZoom(evt,'in')"/>
  <use id="zoomminus" xlink:href="#zoomMin" x="42" y="9" onmousedown="handleZoom(evt,'out')"/>
  <use id="reset" xlink:href="#resetDef" x="30" y="36" onmousedown="handleReset()"/>
   <use id="arrowup" xlink:href="#arrowUp" x="0" y="0" onmousedown="handlePan(0,-1)"/>
  <use id="arrowright" xlink:href="#arrowRight" x="0" y="0" onmousedown="handlePan(1,0)"/>
  <use id="arrowdown" xlink:href="#arrowDown" x="0" y="0" onmousedown="handlePan(0,1)"/>
  <use id="arrowleft" xlink:href="#arrowLeft" x="0" y="0" onmousedown="handlePan(-1,0)"/>
</g>
<svg viewBox="0 0 15 15" width="100%" height="30px" preserveAspectRatio="xMaxYMin meet">
 <g id="arrow_out" transform="scale(0.3 0.3)">
  <a xlink:href="struct_acts_1_1_kalman_fitter_extensions__coll__graph_org.svg" target="_base">
   <rect id="button" ry="5" rx="5" y="6" x="6" height="38" width="38"
        fill="#f2f5e9" fill-opacity="0.5" stroke="#606060" stroke-width="1.0"/>
   <path id="arrow"
     d="M 11.500037,31.436501 C 11.940474,20.09759 22.043105,11.32322 32.158766,21.979434 L 37.068811,17.246167 C 37.068811,17.246167 37.088388,32 37.088388,32 L 22.160133,31.978069 C 22.160133,31.978069 26.997745,27.140456 26.997745,27.140456 C 18.528582,18.264221 13.291696,25.230495 11.500037,31.436501 z"
     style="fill:#404040;"/>
  </a>
 </g>
</svg>

<style type='text/css'>
<![CDATA[
[data-mouse-over-selected='false'] { opacity: 0.7; }
[data-mouse-over-selected='true']  { opacity: 1.0; }
]]>
</style>
<script type="application/ecmascript"><![CDATA[
document.addEventListener('DOMContentLoaded', (event) => {
  highlightEdges();
  highlightAdjacentNodes();
});
]]></script>
</svg>
