<?xml version="1.0" encoding="UTF-8" standalone="no"?>
<!DOCTYPE svg PUBLIC "-//W3C//DTD SVG 1.1//EN"
 "http://www.w3.org/Graphics/SVG/1.1/DTD/svg11.dtd">
<!-- Generated by graphviz version 2.43.0 (0)
 -->
<!-- Title: Acts::TripletSeeder::Cache Pages: 1 -->
<!--zoomable 145 -->

<svg id="main" version="1.1" xmlns="http://www.w3.org/2000/svg" xmlns:xlink="http://www.w3.org/1999/xlink" xml:space="preserve" onload="init(evt)">

<style type="text/css"><![CDATA[
.node, .edge {opacity: 0.7;}
.node.selected, .edge.selected {opacity: 1;}
.edge:hover path { stroke: red; }
.edge:hover polygon { stroke: red; fill: red; }
]]></style>

<defs>
  <circle id="rim" cx="0" cy="0" r="7"/>
  <circle id="rim2" cx="0" cy="0" r="3.5"/>
  <g id="zoomPlus">
    <use xlink:href="#rim" fill="#404040"><set attributeName="fill" to="#808080" begin="zoomplus.mouseover" end="zoomplus.mouseout"/></use>
    <path d="M-4,0h8M0,-4v8" fill="none" stroke="white" stroke-width="1.5" pointer-events="none"/>
  </g>
  <g id="zoomMin">
    <use xlink:href="#rim" fill="#404040"><set attributeName="fill" to="#808080" begin="zoomminus.mouseover" end="zoomminus.mouseout"/></use>
    <path d="M-4,0h8" fill="none" stroke="white" stroke-width="1.5" pointer-events="none"/>
  </g>
  <g id="arrowUp" transform="translate(30 24)">
    <use xlink:href="#rim"/>
    <path pointer-events="none" fill="none" stroke="white" stroke-width="1.5" d="M0,-3.0v7 M-2.5,-0.5L0,-3.0L2.5,-0.5"/>
  </g>
  <g id="arrowRight" transform="rotate(90) translate(36 -43)">
    <use xlink:href="#rim"/>
    <path pointer-events="none" fill="none" stroke="white" stroke-width="1.5" d="M0,-3.0v7 M-2.5,-0.5L0,-3.0L2.5,-0.5"/>
  </g>
  <g id="arrowDown" transform="rotate(180) translate(-30 -48)">
    <use xlink:href="#rim"/>
    <path pointer-events="none" fill="none" stroke="white" stroke-width="1.5" d="M0,-3.0v7 M-2.5,-0.5L0,-3.0L2.5,-0.5"/>
  </g>
  <g id="arrowLeft" transform="rotate(270) translate(-36 17)">
    <use xlink:href="#rim"/>
    <path pointer-events="none" fill="none" stroke="white" stroke-width="1.5" d="M0,-3.0v7 M-2.5,-0.5L0,-3.0L2.5,-0.5"/>
  </g>
  <g id="resetDef">
    <use xlink:href="#rim2" fill="#404040"><set attributeName="fill" to="#808080" begin="reset.mouseover" end="reset.mouseout"/></use>
  </g>
</defs>
<script type="application/ecmascript">
var viewWidth = 674;
var viewHeight = 145;
var sectionId = 'dynsection-0';
</script>
<script type="application/ecmascript" xlink:href="svg.min.js"/>
<svg id="graph" class="graph">
<g id="viewport">
<title>Acts::TripletSeeder::Cache</title>
<!-- Node1 -->
<g id="Node000001" class="node">
<title>Node1</title>
<g id="a_Node000001"><a xlink:title="Cache for storing intermediate results during triplet seeding to avoid reallocation.">
<polygon fill="#999999" stroke="#666666" points="666,-68.5 559,-68.5 559,-38.5 666,-38.5 666,-68.5"/>
<text text-anchor="start" x="567" y="-56.5" font-family="Helvetica,sans-Serif" font-size="10.00">Acts::TripletSeeder</text>
<text text-anchor="middle" x="612.5" y="-45.5" font-family="Helvetica,sans-Serif" font-size="10.00">::Cache</text>
</a>
</g>
</g>
<!-- Node2 -->
<g id="Node000002" class="node">
<title>Node2</title>
<g id="a_Node000002"><a xlink:href="class_acts_1_1_doublets_for_middle_sp.html" target="_top" xlink:title="Container for doublets found by the doublet seed finder.">
<polygon fill="white" stroke="#666666" points="416,-118 269,-118 269,-99 416,-99 416,-118"/>
<text text-anchor="middle" x="342.5" y="-106" font-family="Helvetica,sans-Serif" font-size="10.00">Acts::DoubletsForMiddleSp</text>
</a>
</g>
</g>
<!-- Node2&#45;&gt;Node1 -->
<g id="edge1_Node000001_Node000002" class="edge">
<title>Node2&#45;&gt;Node1</title>
<g id="a_edge1_Node000001_Node000002"><a xlink:title=" ">
<path fill="none" stroke="#9a32cd" stroke-dasharray="5,2" d="M426.73,-105.27C462.43,-102.35 504.28,-96.84 541,-86.5 556.09,-82.25 571.98,-75.08 584.85,-68.5"/>
<polygon fill="#9a32cd" stroke="#9a32cd" points="426.06,-101.82 416.35,-106.07 426.59,-108.8 426.06,-101.82"/>
</a>
</g>
<text text-anchor="start" x="448.5" y="-125.5" font-family="Helvetica,sans-Serif" font-size="10.00" fill="grey">bottomDoublets</text>
<text text-anchor="start" x="448.5" y="-110.5" font-family="Helvetica,sans-Serif" font-size="10.00" fill="grey">topDoublets</text>
</g>
<!-- Node3 -->
<g id="Node000003" class="node">
<title>Node3</title>
<g id="a_Node000003"><a xlink:title=" ">
<polygon fill="white" stroke="#666666" points="404.5,-78 280.5,-78 280.5,-37 404.5,-37 404.5,-78"/>
<text text-anchor="start" x="288.5" y="-66" font-family="Helvetica,sans-Serif" font-size="10.00">std::vector&lt; Acts::</text>
<text text-anchor="start" x="288.5" y="-55" font-family="Helvetica,sans-Serif" font-size="10.00">DoubletsForMiddleSp</text>
<text text-anchor="middle" x="342.5" y="-44" font-family="Helvetica,sans-Serif" font-size="10.00">::IndexAndCotTheta &gt;</text>
</a>
</g>
</g>
<!-- Node3&#45;&gt;Node1 -->
<g id="edge2_Node000001_Node000003" class="edge">
<title>Node3&#45;&gt;Node1</title>
<g id="a_edge2_Node000001_Node000003"><a xlink:title=" ">
<path fill="none" stroke="#9a32cd" stroke-dasharray="5,2" d="M414.94,-54.95C421.39,-54.77 427.81,-54.62 434,-54.5 475.9,-53.69 523.38,-53.46 558.68,-53.42"/>
<polygon fill="#9a32cd" stroke="#9a32cd" points="414.73,-51.45 404.83,-55.24 414.93,-58.45 414.73,-51.45"/>
</a>
</g>
<text text-anchor="start" x="451.5" y="-75.5" font-family="Helvetica,sans-Serif" font-size="10.00" fill="grey">sortedBottoms</text>
<text text-anchor="start" x="451.5" y="-60.5" font-family="Helvetica,sans-Serif" font-size="10.00" fill="grey">sortedTops</text>
</g>
<!-- Node4 -->
<g id="Node000004" class="node">
<title>Node4</title>
<g id="a_Node000004"><a xlink:title=" ">
<polygon fill="white" stroke="#666666" points="97,-67 0,-67 0,-48 97,-48 97,-67"/>
<text text-anchor="middle" x="48.5" y="-55" font-family="Helvetica,sans-Serif" font-size="10.00">std::vector&lt; T &gt;</text>
</a>
</g>
</g>
<!-- Node4&#45;&gt;Node3 -->
<g id="edge3_Node000003_Node000004" class="edge">
<title>Node4&#45;&gt;Node3</title>
<g id="a_edge3_Node000003_Node000004"><a xlink:title=" ">
<path fill="none" stroke="orange" stroke-dasharray="5,2" d="M107.38,-57.5C157.35,-57.5 229.32,-57.5 280.24,-57.5"/>
<polygon fill="orange" stroke="orange" points="107.06,-54 97.06,-57.5 107.06,-61 107.06,-54"/>
</a>
</g>
<text text-anchor="start" x="118" y="-78.5" font-family="Helvetica,sans-Serif" font-size="10.00" fill="grey">&lt; Acts::DoubletsForMiddle</text>
<text text-anchor="start" x="118" y="-63.5" font-family="Helvetica,sans-Serif" font-size="10.00" fill="grey">  Sp::IndexAndCotTheta &gt;</text>
</g>
<!-- Node5 -->
<g id="Node000005" class="node">
<title>Node5</title>
<g id="a_Node000005"><a xlink:href="class_acts_1_1_triplet_top_candidates.html" target="_top" xlink:title="Container for triplet candidates found by the triplet seed finder.">
<polygon fill="white" stroke="#666666" points="415,-19 270,-19 270,0 415,0 415,-19"/>
<text text-anchor="middle" x="342.5" y="-7" font-family="Helvetica,sans-Serif" font-size="10.00">Acts::TripletTopCandidates</text>
</a>
</g>
</g>
<!-- Node5&#45;&gt;Node1 -->
<g id="edge4_Node000001_Node000005" class="edge">
<title>Node5&#45;&gt;Node1</title>
<g id="a_edge4_Node000001_Node000005"><a xlink:title=" ">
<path fill="none" stroke="#9a32cd" stroke-dasharray="5,2" d="M425.65,-15.85C461.32,-19.43 503.45,-24.78 541,-32.5 548.88,-34.12 557.15,-36.21 565.15,-38.45"/>
<polygon fill="#9a32cd" stroke="#9a32cd" points="425.57,-12.33 415.28,-14.84 424.89,-19.29 425.57,-12.33"/>
</a>
</g>
<text text-anchor="start" x="437.5" y="-38" font-family="Helvetica,sans-Serif" font-size="10.00" fill="grey">tripletTopCandidates</text>
</g>
</g>
</svg>

<g id="navigator" transform="translate(0 0)" fill="#404254">
  <rect fill="#f2f5e9" fill-opacity="0.5" stroke="#606060" stroke-width=".5" x="0" y="0" width="60" height="60"/>
  <use id="zoomplus" xlink:href="#zoomPlus" x="17" y="9" onmousedown="handleZoom(evt,'in')"/>
  <use id="zoomminus" xlink:href="#zoomMin" x="42" y="9" onmousedown="handleZoom(evt,'out')"/>
  <use id="reset" xlink:href="#resetDef" x="30" y="36" onmousedown="handleReset()"/>
   <use id="arrowup" xlink:href="#arrowUp" x="0" y="0" onmousedown="handlePan(0,-1)"/>
  <use id="arrowright" xlink:href="#arrowRight" x="0" y="0" onmousedown="handlePan(1,0)"/>
  <use id="arrowdown" xlink:href="#arrowDown" x="0" y="0" onmousedown="handlePan(0,1)"/>
  <use id="arrowleft" xlink:href="#arrowLeft" x="0" y="0" onmousedown="handlePan(-1,0)"/>
</g>
<svg viewBox="0 0 15 15" width="100%" height="30px" preserveAspectRatio="xMaxYMin meet">
 <g id="arrow_out" transform="scale(0.3 0.3)">
  <a xlink:href="struct_acts_1_1_triplet_seeder_1_1_cache__coll__graph_org.svg" target="_base">
   <rect id="button" ry="5" rx="5" y="6" x="6" height="38" width="38"
        fill="#f2f5e9" fill-opacity="0.5" stroke="#606060" stroke-width="1.0"/>
   <path id="arrow"
     d="M 11.500037,31.436501 C 11.940474,20.09759 22.043105,11.32322 32.158766,21.979434 L 37.068811,17.246167 C 37.068811,17.246167 37.088388,32 37.088388,32 L 22.160133,31.978069 C 22.160133,31.978069 26.997745,27.140456 26.997745,27.140456 C 18.528582,18.264221 13.291696,25.230495 11.500037,31.436501 z"
     style="fill:#404040;"/>
  </a>
 </g>
</svg>

<style type='text/css'>
<![CDATA[
[data-mouse-over-selected='false'] { opacity: 0.7; }
[data-mouse-over-selected='true']  { opacity: 1.0; }
]]>
</style>
<script type="application/ecmascript"><![CDATA[
document.addEventListener('DOMContentLoaded', (event) => {
  highlightEdges();
  highlightAdjacentNodes();
});
]]></script>
</svg>
