<?xml version="1.0" encoding="UTF-8" standalone="no"?>
<!DOCTYPE svg PUBLIC "-//W3C//DTD SVG 1.1//EN"
 "http://www.w3.org/Graphics/SVG/1.1/DTD/svg11.dtd">
<!-- Generated by graphviz version 2.43.0 (0)
 -->
<!-- Title: Acts::Experimental::Gx2FitterOptions&lt; traj_t &gt; Pages: 1 -->
<!--zoomable 593 -->

<svg id="main" version="1.1" xmlns="http://www.w3.org/2000/svg" xmlns:xlink="http://www.w3.org/1999/xlink" xml:space="preserve" onload="init(evt)">

<style type="text/css"><![CDATA[
.node, .edge {opacity: 0.7;}
.node.selected, .edge.selected {opacity: 1;}
.edge:hover path { stroke: red; }
.edge:hover polygon { stroke: red; fill: red; }
]]></style>

<defs>
  <circle id="rim" cx="0" cy="0" r="7"/>
  <circle id="rim2" cx="0" cy="0" r="3.5"/>
  <g id="zoomPlus">
    <use xlink:href="#rim" fill="#404040"><set attributeName="fill" to="#808080" begin="zoomplus.mouseover" end="zoomplus.mouseout"/></use>
    <path d="M-4,0h8M0,-4v8" fill="none" stroke="white" stroke-width="1.5" pointer-events="none"/>
  </g>
  <g id="zoomMin">
    <use xlink:href="#rim" fill="#404040"><set attributeName="fill" to="#808080" begin="zoomminus.mouseover" end="zoomminus.mouseout"/></use>
    <path d="M-4,0h8" fill="none" stroke="white" stroke-width="1.5" pointer-events="none"/>
  </g>
  <g id="arrowUp" transform="translate(30 24)">
    <use xlink:href="#rim"/>
    <path pointer-events="none" fill="none" stroke="white" stroke-width="1.5" d="M0,-3.0v7 M-2.5,-0.5L0,-3.0L2.5,-0.5"/>
  </g>
  <g id="arrowRight" transform="rotate(90) translate(36 -43)">
    <use xlink:href="#rim"/>
    <path pointer-events="none" fill="none" stroke="white" stroke-width="1.5" d="M0,-3.0v7 M-2.5,-0.5L0,-3.0L2.5,-0.5"/>
  </g>
  <g id="arrowDown" transform="rotate(180) translate(-30 -48)">
    <use xlink:href="#rim"/>
    <path pointer-events="none" fill="none" stroke="white" stroke-width="1.5" d="M0,-3.0v7 M-2.5,-0.5L0,-3.0L2.5,-0.5"/>
  </g>
  <g id="arrowLeft" transform="rotate(270) translate(-36 17)">
    <use xlink:href="#rim"/>
    <path pointer-events="none" fill="none" stroke="white" stroke-width="1.5" d="M0,-3.0v7 M-2.5,-0.5L0,-3.0L2.5,-0.5"/>
  </g>
  <g id="resetDef">
    <use xlink:href="#rim2" fill="#404040"><set attributeName="fill" to="#808080" begin="reset.mouseover" end="reset.mouseout"/></use>
  </g>
</defs>
<script type="application/ecmascript">
var viewWidth = 2390;
var viewHeight = 593;
var sectionId = 'dynsection-0';
</script>
<script type="application/ecmascript" xlink:href="svg.min.js"/>
<svg id="graph" class="graph">
<g id="viewport">
<title>Acts::Experimental::Gx2FitterOptions&lt; traj_t &gt;</title>
<!-- Node1 -->
<g id="Node000001" class="node">
<title>Node1</title>
<g id="a_Node000001"><a xlink:title="Combined options for the Global&#45;Chi&#45;Square fitter.">
<polygon fill="#999999" stroke="#666666" points="2382,-193.32 2269,-193.32 2269,-152.32 2382,-152.32 2382,-193.32"/>
<text text-anchor="start" x="2277" y="-181.32" font-family="Helvetica,sans-Serif" font-size="10.00">Acts::Experimental</text>
<text text-anchor="start" x="2277" y="-170.32" font-family="Helvetica,sans-Serif" font-size="10.00">::Gx2FitterOptions&lt;</text>
<text text-anchor="middle" x="2325.5" y="-159.32" font-family="Helvetica,sans-Serif" font-size="10.00"> traj_t &gt;</text>
</a>
</g>
</g>
<!-- Node2 -->
<g id="Node000002" class="node">
<title>Node2</title>
<g id="a_Node000002"><a xlink:href="struct_acts_1_1_propagator_plain_options.html" target="_top" xlink:title="Holds the generic propagator options.">
<polygon fill="white" stroke="#666666" points="2112,-148.32 1954,-148.32 1954,-129.32 2112,-129.32 2112,-148.32"/>
<text text-anchor="middle" x="2033" y="-136.32" font-family="Helvetica,sans-Serif" font-size="10.00">Acts::PropagatorPlainOptions</text>
</a>
</g>
</g>
<!-- Node2&#45;&gt;Node1 -->
<g id="edge1_Node000001_Node000002" class="edge">
<title>Node2&#45;&gt;Node1</title>
<g id="a_edge1_Node000001_Node000002"><a xlink:title=" ">
<path fill="none" stroke="#9a32cd" stroke-dasharray="5,2" d="M2122.24,-149.15C2169.88,-154.73 2227.24,-161.44 2268.69,-166.29"/>
<polygon fill="#9a32cd" stroke="#9a32cd" points="2122.57,-145.66 2112.23,-147.98 2121.76,-152.62 2122.57,-145.66"/>
</a>
</g>
<text text-anchor="start" x="2133.5" y="-168.32" font-family="Helvetica,sans-Serif" font-size="10.00" fill="grey">propagatorPlainOptions</text>
</g>
<!-- Node3 -->
<g id="Node000003" class="node">
<title>Node3</title>
<g id="a_Node000003"><a xlink:title=" ">
<polygon fill="white" stroke="#666666" points="1827.5,-90.82 1675.5,-90.82 1675.5,-60.82 1827.5,-60.82 1827.5,-90.82"/>
<text text-anchor="start" x="1683.5" y="-78.82" font-family="Helvetica,sans-Serif" font-size="10.00">Acts::detail::PurePropagator</text>
<text text-anchor="middle" x="1751.5" y="-67.82" font-family="Helvetica,sans-Serif" font-size="10.00">PlainOptions</text>
</a>
</g>
</g>
<!-- Node3&#45;&gt;Node2 -->
<g id="edge2_Node000002_Node000003" class="edge">
<title>Node3&#45;&gt;Node2</title>
<g id="a_edge2_Node000002_Node000003"><a xlink:title=" ">
<path fill="none" stroke="#63b8ff" d="M1837.71,-91.06C1868.77,-97.01 1904.08,-104.22 1936,-111.82 1957.73,-117 1981.93,-123.81 2000.6,-129.3"/>
<polygon fill="#63b8ff" stroke="#63b8ff" points="1838.27,-87.6 1827.79,-89.18 1836.96,-94.48 1838.27,-87.6"/>
</a>
</g>
</g>
<!-- Node4 -->
<g id="Node000004" class="node">
<title>Node4</title>
<g id="a_Node000004"><a xlink:href="struct_acts_1_1_stepper_plain_options.html" target="_top" xlink:title=" ">
<polygon fill="white" stroke="#666666" points="1823,-128.32 1680,-128.32 1680,-109.32 1823,-109.32 1823,-128.32"/>
<text text-anchor="middle" x="1751.5" y="-116.32" font-family="Helvetica,sans-Serif" font-size="10.00">Acts::StepperPlainOptions</text>
</a>
</g>
</g>
<!-- Node4&#45;&gt;Node2 -->
<g id="edge3_Node000002_Node000004" class="edge">
<title>Node4&#45;&gt;Node2</title>
<g id="a_edge3_Node000002_Node000004"><a xlink:title=" ">
<path fill="none" stroke="#9a32cd" stroke-dasharray="5,2" d="M1833.45,-115.96C1865.46,-115.69 1902.54,-116.45 1936,-119.82 1954.76,-121.71 1975.3,-125.54 1992.55,-129.26"/>
<polygon fill="#9a32cd" stroke="#9a32cd" points="1833.2,-112.46 1823.25,-116.08 1833.29,-119.46 1833.2,-112.46"/>
</a>
</g>
<text text-anchor="start" x="1870" y="-125.32" font-family="Helvetica,sans-Serif" font-size="10.00" fill="grey">stepping</text>
</g>
<!-- Node5 -->
<g id="Node000005" class="node">
<title>Node5</title>
<g id="a_Node000005"><a xlink:href="struct_acts_1_1_stepper_plain_options_1_1_dense.html" target="_top" xlink:title=" ">
<polygon fill="white" stroke="#666666" points="1566,-133.82 1423,-133.82 1423,-103.82 1566,-103.82 1566,-133.82"/>
<text text-anchor="start" x="1431" y="-121.82" font-family="Helvetica,sans-Serif" font-size="10.00">Acts::StepperPlainOptions</text>
<text text-anchor="middle" x="1494.5" y="-110.82" font-family="Helvetica,sans-Serif" font-size="10.00">::Dense</text>
</a>
</g>
</g>
<!-- Node5&#45;&gt;Node4 -->
<g id="edge4_Node000004_Node000005" class="edge">
<title>Node5&#45;&gt;Node4</title>
<g id="a_edge4_Node000004_Node000005"><a xlink:title=" ">
<path fill="none" stroke="#9a32cd" stroke-dasharray="5,2" d="M1576.32,-118.82C1609.51,-118.82 1647.59,-118.82 1679.67,-118.82"/>
<polygon fill="#9a32cd" stroke="#9a32cd" points="1576.19,-115.32 1566.19,-118.82 1576.19,-122.32 1576.19,-115.32"/>
</a>
</g>
<text text-anchor="start" x="1605.5" y="-124.32" font-family="Helvetica,sans-Serif" font-size="10.00" fill="grey">dense</text>
</g>
<!-- Node6 -->
<g id="Node000006" class="node">
<title>Node6</title>
<g id="a_Node000006"><a xlink:href="struct_acts_1_1_navigator_plain_options.html" target="_top" xlink:title=" ">
<polygon fill="white" stroke="#666666" points="1828,-168.32 1675,-168.32 1675,-149.32 1828,-149.32 1828,-168.32"/>
<text text-anchor="middle" x="1751.5" y="-156.32" font-family="Helvetica,sans-Serif" font-size="10.00">Acts::NavigatorPlainOptions</text>
</a>
</g>
</g>
<!-- Node6&#45;&gt;Node2 -->
<g id="edge5_Node000002_Node000006" class="edge">
<title>Node6&#45;&gt;Node2</title>
<g id="a_edge5_Node000002_Node000006"><a xlink:title=" ">
<path fill="none" stroke="#9a32cd" stroke-dasharray="5,2" d="M1838.36,-152.68C1875.19,-150.04 1917.93,-146.98 1953.87,-144.41"/>
<polygon fill="#9a32cd" stroke="#9a32cd" points="1837.86,-149.2 1828.14,-153.41 1838.36,-156.19 1837.86,-149.2"/>
</a>
</g>
<text text-anchor="start" x="1865" y="-156.32" font-family="Helvetica,sans-Serif" font-size="10.00" fill="grey">navigation</text>
</g>
<!-- Node7 -->
<g id="Node000007" class="node">
<title>Node7</title>
<g id="a_Node000007"><a xlink:href="class_acts_1_1_surface.html" target="_top" xlink:title="Abstract Base Class for tracking surfaces.">
<polygon fill="white" stroke="#666666" points="1534.5,-193.32 1454.5,-193.32 1454.5,-174.32 1534.5,-174.32 1534.5,-193.32"/>
<text text-anchor="middle" x="1494.5" y="-181.32" font-family="Helvetica,sans-Serif" font-size="10.00">Acts::Surface</text>
</a>
</g>
</g>
<!-- Node7&#45;&gt;Node1 -->
<g id="edge32_Node000001_Node000007" class="edge">
<title>Node7&#45;&gt;Node1</title>
<g id="a_edge32_Node000001_Node000007"><a xlink:title=" ">
<path fill="none" stroke="#9a32cd" stroke-dasharray="5,2" d="M1544.67,-189.06C1557.46,-190.21 1571.23,-191.25 1584,-191.82 1616.41,-193.28 1624.56,-192.04 1657,-191.82 1921.02,-190.04 1987.84,-205.19 2251,-183.82 2256.79,-183.35 2262.81,-182.71 2268.81,-181.96"/>
<polygon fill="#9a32cd" stroke="#9a32cd" points="1544.94,-185.57 1534.66,-188.13 1544.29,-192.54 1544.94,-185.57"/>
</a>
</g>
<text text-anchor="start" x="1849" y="-200.32" font-family="Helvetica,sans-Serif" font-size="10.00" fill="grey">referenceSurface</text>
</g>
<!-- Node7&#45;&gt;Node6 -->
<g id="edge6_Node000006_Node000007" class="edge">
<title>Node7&#45;&gt;Node6</title>
<g id="a_edge6_Node000006_Node000007"><a xlink:title=" ">
<path fill="none" stroke="#9a32cd" stroke-dasharray="5,2" d="M1533.19,-171.29C1548.74,-166.73 1567.05,-162.13 1584,-159.82 1613.5,-155.8 1646.22,-154.86 1674.78,-155.16"/>
<polygon fill="#9a32cd" stroke="#9a32cd" points="1531.97,-168 1523.41,-174.26 1534,-174.7 1531.97,-168"/>
</a>
</g>
<text text-anchor="start" x="1587.5" y="-180.82" font-family="Helvetica,sans-Serif" font-size="10.00" fill="grey">startSurface</text>
<text text-anchor="start" x="1587.5" y="-165.82" font-family="Helvetica,sans-Serif" font-size="10.00" fill="grey">targetSurface</text>
</g>
<!-- Node8 -->
<g id="Node000008" class="node">
<title>Node8</title>
<g id="a_Node000008"><a xlink:href="class_acts_1_1_geometry_object.html" target="_top" xlink:title="Base class to provide GeometryIdentifier interface:">
<polygon fill="white" stroke="#666666" points="374,-265.32 250,-265.32 250,-246.32 374,-246.32 374,-265.32"/>
<text text-anchor="middle" x="312" y="-253.32" font-family="Helvetica,sans-Serif" font-size="10.00">Acts::GeometryObject</text>
</a>
</g>
</g>
<!-- Node8&#45;&gt;Node7 -->
<g id="edge7_Node000007_Node000008" class="edge">
<title>Node8&#45;&gt;Node7</title>
<g id="a_edge7_Node000007_Node000008"><a xlink:title=" ">
<path fill="none" stroke="#63b8ff" d="M339.76,-241.64C370.19,-226.85 421.78,-205.82 469,-205.82 469,-205.82 469,-205.82 1179.5,-205.82 1278.69,-205.82 1395.06,-194.76 1454.4,-188.33"/>
<polygon fill="#63b8ff" stroke="#63b8ff" points="338.04,-238.58 330.66,-246.18 341.17,-244.85 338.04,-238.58"/>
</a>
</g>
</g>
<!-- Node16 -->
<g id="Node000016" class="node">
<title>Node16</title>
<g id="a_Node000016"><a xlink:href="class_acts_1_1_layer.html" target="_top" xlink:title="Base Class for a Detector Layer in the Tracking Geometry.">
<polygon fill="white" stroke="#666666" points="1214,-379.32 1143,-379.32 1143,-360.32 1214,-360.32 1214,-379.32"/>
<text text-anchor="middle" x="1178.5" y="-367.32" font-family="Helvetica,sans-Serif" font-size="10.00">Acts::Layer</text>
</a>
</g>
</g>
<!-- Node8&#45;&gt;Node16 -->
<g id="edge16_Node000016_Node000008" class="edge">
<title>Node8&#45;&gt;Node16</title>
<g id="a_edge16_Node000016_Node000008"><a xlink:title=" ">
<path fill="none" stroke="#63b8ff" d="M367.32,-267.39C381.49,-270.13 396.78,-272.82 411,-274.82 708.54,-316.63 790.58,-274.16 1084,-338.82 1108.05,-344.12 1134.63,-353.27 1153.28,-360.26"/>
<polygon fill="#63b8ff" stroke="#63b8ff" points="367.72,-263.91 357.23,-265.41 366.37,-270.77 367.72,-263.91"/>
</a>
</g>
</g>
<!-- Node23 -->
<g id="Node000023" class="node">
<title>Node23</title>
<g id="a_Node000023"><a xlink:href="class_acts_1_1_volume.html" target="_top" xlink:title="It inherits from GeometryObject for geometry identification.">
<polygon fill="white" stroke="#666666" points="510,-265.32 430,-265.32 430,-246.32 510,-246.32 510,-265.32"/>
<text text-anchor="middle" x="470" y="-253.32" font-family="Helvetica,sans-Serif" font-size="10.00">Acts::Volume</text>
</a>
</g>
</g>
<!-- Node8&#45;&gt;Node23 -->
<g id="edge26_Node000023_Node000008" class="edge">
<title>Node8&#45;&gt;Node23</title>
<g id="a_edge26_Node000023_Node000008"><a xlink:title=" ">
<path fill="none" stroke="#63b8ff" d="M384.44,-255.82C400.12,-255.82 416.16,-255.82 430,-255.82"/>
<polygon fill="#63b8ff" stroke="#63b8ff" points="384.21,-252.32 374.21,-255.82 384.21,-259.32 384.21,-252.32"/>
</a>
</g>
</g>
<!-- Node9 -->
<g id="Node000009" class="node">
<title>Node9</title>
<g id="a_Node000009"><a xlink:href="class_acts_1_1_geometry_identifier.html" target="_top" xlink:title="Identifier for geometry nodes within the geometry hierarchy.">
<polygon fill="white" stroke="#666666" points="136,-265.32 0,-265.32 0,-246.32 136,-246.32 136,-265.32"/>
<text text-anchor="middle" x="68" y="-253.32" font-family="Helvetica,sans-Serif" font-size="10.00">Acts::GeometryIdentifier</text>
</a>
</g>
</g>
<!-- Node9&#45;&gt;Node8 -->
<g id="edge8_Node000008_Node000009" class="edge">
<title>Node9&#45;&gt;Node8</title>
<g id="a_edge8_Node000008_Node000009"><a xlink:title=" ">
<path fill="none" stroke="#9a32cd" stroke-dasharray="5,2" d="M146.31,-255.82C179.84,-255.82 218.54,-255.82 249.99,-255.82"/>
<polygon fill="#9a32cd" stroke="#9a32cd" points="146.09,-252.32 136.09,-255.82 146.09,-259.32 146.09,-252.32"/>
</a>
</g>
<text text-anchor="start" x="157" y="-261.32" font-family="Helvetica,sans-Serif" font-size="10.00" fill="grey">m_geometryId</text>
</g>
<!-- Node10 -->
<g id="Node000010" class="node">
<title>Node10</title>
<g id="a_Node000010"><a xlink:title=" ">
<polygon fill="white" stroke="#666666" points="1242.5,-177.82 1114.5,-177.82 1114.5,-147.82 1242.5,-147.82 1242.5,-177.82"/>
<text text-anchor="start" x="1122.5" y="-165.82" font-family="Helvetica,sans-Serif" font-size="10.00">std::enable_shared</text>
<text text-anchor="middle" x="1178.5" y="-154.82" font-family="Helvetica,sans-Serif" font-size="10.00">_from_this&lt; Surface &gt;</text>
</a>
</g>
</g>
<!-- Node10&#45;&gt;Node7 -->
<g id="edge9_Node000007_Node000010" class="edge">
<title>Node10&#45;&gt;Node7</title>
<g id="a_edge9_Node000007_Node000010"><a xlink:title=" ">
<path fill="none" stroke="#63b8ff" d="M1252.92,-167.73C1315.81,-171.94 1403.96,-177.83 1454.24,-181.2"/>
<polygon fill="#63b8ff" stroke="#63b8ff" points="1252.88,-164.22 1242.66,-167.05 1252.41,-171.21 1252.88,-164.22"/>
</a>
</g>
</g>
<!-- Node11 -->
<g id="Node000011" class="node">
<title>Node11</title>
<g id="a_Node000011"><a xlink:title=" ">
<polygon fill="white" stroke="#666666" points="1255,-129.32 1102,-129.32 1102,-88.32 1255,-88.32 1255,-129.32"/>
<text text-anchor="start" x="1110" y="-117.32" font-family="Helvetica,sans-Serif" font-size="10.00">std::array&lt; std::string</text>
<text text-anchor="start" x="1110" y="-106.32" font-family="Helvetica,sans-Serif" font-size="10.00">_view, Surface::SurfaceType</text>
<text text-anchor="middle" x="1178.5" y="-95.32" font-family="Helvetica,sans-Serif" font-size="10.00">::Other+1 &gt;</text>
</a>
</g>
</g>
<!-- Node11&#45;&gt;Node7 -->
<g id="edge10_Node000007_Node000011" class="edge">
<title>Node11&#45;&gt;Node7</title>
<g id="a_edge10_Node000007_Node000011"><a xlink:title=" ">
<path fill="none" stroke="#9a32cd" stroke-dasharray="5,2" d="M1265.11,-119.2C1307.66,-125.47 1359.56,-134.81 1405,-147.82 1429.24,-154.76 1455.89,-166.15 1473.55,-174.26"/>
<polygon fill="#9a32cd" stroke="#9a32cd" points="1265.46,-115.72 1255.06,-117.75 1264.46,-122.65 1265.46,-115.72"/>
</a>
</g>
<text text-anchor="start" x="1287" y="-153.32" font-family="Helvetica,sans-Serif" font-size="10.00" fill="grey">s_surfaceTypeNames</text>
</g>
<!-- Node12 -->
<g id="Node000012" class="node">
<title>Node12</title>
<g id="a_Node000012"><a xlink:title=" ">
<polygon fill="white" stroke="#666666" points="869,-118.32 777,-118.32 777,-99.32 869,-99.32 869,-118.32"/>
<text text-anchor="middle" x="823" y="-106.32" font-family="Helvetica,sans-Serif" font-size="10.00">std::array&lt; T &gt;</text>
</a>
</g>
</g>
<!-- Node12&#45;&gt;Node11 -->
<g id="edge11_Node000011_Node000012" class="edge">
<title>Node12&#45;&gt;Node11</title>
<g id="a_edge11_Node000011_Node000012"><a xlink:title=" ">
<path fill="none" stroke="orange" stroke-dasharray="5,2" d="M879.14,-108.82C938.95,-108.82 1034.84,-108.82 1101.71,-108.82"/>
<polygon fill="orange" stroke="orange" points="879.13,-105.32 869.13,-108.82 879.13,-112.32 879.13,-105.32"/>
</a>
</g>
<text text-anchor="start" x="945" y="-144.32" font-family="Helvetica,sans-Serif" font-size="10.00" fill="grey">&lt; std::string_view,</text>
<text text-anchor="start" x="945" y="-129.32" font-family="Helvetica,sans-Serif" font-size="10.00" fill="grey">   Surface::SurfaceType</text>
<text text-anchor="start" x="945" y="-114.32" font-family="Helvetica,sans-Serif" font-size="10.00" fill="grey">  ::Other+1 &gt;</text>
</g>
<!-- Node13 -->
<g id="Node000013" class="node">
<title>Node13</title>
<g id="a_Node000013"><a xlink:title=" ">
<polygon fill="white" stroke="#666666" points="1064.5,-577.82 937.5,-577.82 937.5,-547.82 1064.5,-547.82 1064.5,-577.82"/>
<text text-anchor="start" x="945.5" y="-565.82" font-family="Helvetica,sans-Serif" font-size="10.00">std::unique_ptr&lt; const</text>
<text text-anchor="middle" x="1001" y="-554.82" font-family="Helvetica,sans-Serif" font-size="10.00"> Transform3 &gt;</text>
</a>
</g>
</g>
<!-- Node13&#45;&gt;Node7 -->
<g id="edge12_Node000007_Node000013" class="edge">
<title>Node13&#45;&gt;Node7</title>
<g id="a_edge12_Node000007_Node000013"><a xlink:title=" ">
<path fill="none" stroke="#9a32cd" stroke-dasharray="5,2" d="M1071.89,-544.51C1076.03,-543.03 1080.09,-541.47 1084,-539.82 1235.78,-475.98 1291.23,-473.86 1405,-354.82 1453.5,-304.07 1481.98,-221.52 1490.65,-193.49"/>
<polygon fill="#9a32cd" stroke="#9a32cd" points="1070.5,-541.29 1062.16,-547.82 1072.76,-547.92 1070.5,-541.29"/>
</a>
</g>
<text text-anchor="start" x="1146.5" y="-537.32" font-family="Helvetica,sans-Serif" font-size="10.00" fill="grey">m_transform</text>
</g>
<!-- Node14 -->
<g id="Node000014" class="node">
<title>Node14</title>
<g id="a_Node000014"><a xlink:title=" ">
<polygon fill="white" stroke="#666666" points="529,-489.32 411,-489.32 411,-470.32 529,-470.32 529,-489.32"/>
<text text-anchor="middle" x="470" y="-477.32" font-family="Helvetica,sans-Serif" font-size="10.00">std::unique_ptr&lt; T &gt;</text>
</a>
</g>
</g>
<!-- Node14&#45;&gt;Node13 -->
<g id="edge13_Node000013_Node000014" class="edge">
<title>Node14&#45;&gt;Node13</title>
<g id="a_edge13_Node000013_Node000014"><a xlink:title=" ">
<path fill="none" stroke="orange" stroke-dasharray="5,2" d="M488.45,-496.12C502.93,-508.56 524.7,-524.88 547,-532.82 679.72,-580.08 847.96,-575.97 937.4,-569.19"/>
<polygon fill="orange" stroke="orange" points="490.61,-493.36 480.81,-489.33 485.96,-498.59 490.61,-493.36"/>
</a>
</g>
<text text-anchor="start" x="584.5" y="-573.32" font-family="Helvetica,sans-Serif" font-size="10.00" fill="grey">&lt; const Transform3 &gt;</text>
</g>
<!-- Node20 -->
<g id="Node000020" class="node">
<title>Node20</title>
<g id="a_Node000020"><a xlink:title=" ">
<polygon fill="white" stroke="#666666" points="886.5,-538.82 759.5,-538.82 759.5,-508.82 886.5,-508.82 886.5,-538.82"/>
<text text-anchor="start" x="767.5" y="-526.82" font-family="Helvetica,sans-Serif" font-size="10.00">std::unique_ptr&lt; const</text>
<text text-anchor="middle" x="823" y="-515.82" font-family="Helvetica,sans-Serif" font-size="10.00"> Acts::SurfaceArray &gt;</text>
</a>
</g>
</g>
<!-- Node14&#45;&gt;Node20 -->
<g id="edge21_Node000020_Node000014" class="edge">
<title>Node14&#45;&gt;Node20</title>
<g id="a_edge21_Node000020_Node000014"><a xlink:title=" ">
<path fill="none" stroke="orange" stroke-dasharray="5,2" d="M539.32,-488.39C603.1,-496.38 697.48,-508.21 759.36,-515.97"/>
<polygon fill="orange" stroke="orange" points="539.71,-484.91 529.35,-487.14 538.84,-491.85 539.71,-484.91"/>
</a>
</g>
<text text-anchor="start" x="566.5" y="-517.32" font-family="Helvetica,sans-Serif" font-size="10.00" fill="grey">&lt; const Acts::SurfaceArray &gt;</text>
</g>
<!-- Node21 -->
<g id="Node000021" class="node">
<title>Node21</title>
<g id="a_Node000021"><a xlink:title=" ">
<polygon fill="white" stroke="#666666" points="900,-452.82 746,-452.82 746,-422.82 900,-422.82 900,-452.82"/>
<text text-anchor="start" x="754" y="-440.82" font-family="Helvetica,sans-Serif" font-size="10.00">std::unique_ptr&lt; const</text>
<text text-anchor="middle" x="823" y="-429.82" font-family="Helvetica,sans-Serif" font-size="10.00"> Acts::ApproachDescriptor &gt;</text>
</a>
</g>
</g>
<!-- Node14&#45;&gt;Node21 -->
<g id="edge23_Node000021_Node000014" class="edge">
<title>Node14&#45;&gt;Node21</title>
<g id="a_edge23_Node000021_Node000014"><a xlink:title=" ">
<path fill="none" stroke="orange" stroke-dasharray="5,2" d="M516.2,-467.98C526.28,-465.66 536.96,-463.44 547,-461.82 613.71,-451.07 690.36,-444.88 745.76,-441.49"/>
<polygon fill="orange" stroke="orange" points="515.28,-464.6 506.36,-470.32 516.9,-471.41 515.28,-464.6"/>
</a>
</g>
<text text-anchor="start" x="550.5" y="-467.32" font-family="Helvetica,sans-Serif" font-size="10.00" fill="grey">&lt; const Acts::ApproachDescriptor &gt;</text>
</g>
<!-- Node24 -->
<g id="Node000024" class="node">
<title>Node24</title>
<g id="a_Node000024"><a xlink:title=" ">
<polygon fill="white" stroke="#666666" points="884,-404.82 762,-404.82 762,-374.82 884,-374.82 884,-404.82"/>
<text text-anchor="start" x="770" y="-392.82" font-family="Helvetica,sans-Serif" font-size="10.00">std::unique_ptr&lt; Acts</text>
<text text-anchor="middle" x="823" y="-381.82" font-family="Helvetica,sans-Serif" font-size="10.00">::Volume &gt;</text>
</a>
</g>
</g>
<!-- Node14&#45;&gt;Node24 -->
<g id="edge28_Node000024_Node000014" class="edge">
<title>Node14&#45;&gt;Node24</title>
<g id="a_edge28_Node000024_Node000014"><a xlink:title=" ">
<path fill="none" stroke="orange" stroke-dasharray="5,2" d="M487.77,-462.69C502.15,-449.16 524.1,-431.07 547,-421.82 616.97,-393.56 704.55,-387.93 761.82,-387.8"/>
<polygon fill="orange" stroke="orange" points="484.96,-460.55 480.24,-470.03 489.84,-465.56 484.96,-460.55"/>
</a>
</g>
<text text-anchor="start" x="594.5" y="-427.32" font-family="Helvetica,sans-Serif" font-size="10.00" fill="grey">&lt; Acts::Volume &gt;</text>
</g>
<!-- Node15 -->
<g id="Node000015" class="node">
<title>Node15</title>
<g id="a_Node000015"><a xlink:href="class_acts_1_1_detector_element_base.html" target="_top" xlink:title="This class is the base of all detector elements that are usable by ACTS.">
<polygon fill="white" stroke="#666666" points="1253.5,-70.32 1103.5,-70.32 1103.5,-51.32 1253.5,-51.32 1253.5,-70.32"/>
<text text-anchor="middle" x="1178.5" y="-58.32" font-family="Helvetica,sans-Serif" font-size="10.00">Acts::DetectorElementBase</text>
</a>
</g>
</g>
<!-- Node15&#45;&gt;Node7 -->
<g id="edge14_Node000007_Node000015" class="edge">
<title>Node15&#45;&gt;Node7</title>
<g id="a_edge14_Node000007_Node000015"><a xlink:title=" ">
<path fill="none" stroke="#9a32cd" stroke-dasharray="5,2" d="M1263.58,-56.6C1309.79,-58.54 1365.56,-68.39 1405,-99.82 1421.2,-112.73 1409.34,-127.25 1423,-142.82 1435.33,-156.87 1453.69,-167.33 1468.58,-174.17"/>
<polygon fill="#9a32cd" stroke="#9a32cd" points="1263.68,-53.1 1253.57,-56.29 1263.46,-60.1 1263.68,-53.1"/>
</a>
</g>
<text text-anchor="start" x="1276" y="-105.32" font-family="Helvetica,sans-Serif" font-size="10.00" fill="grey">m_associatedDetElement</text>
</g>
<!-- Node16&#45;&gt;Node7 -->
<g id="edge15_Node000007_Node000016" class="edge">
<title>Node16&#45;&gt;Node7</title>
<g id="a_edge15_Node000007_Node000016"><a xlink:title=" ">
<path fill="none" stroke="#9a32cd" stroke-dasharray="5,2" d="M1216.96,-356.73C1263.3,-339.61 1343.58,-306.92 1405,-265.82 1437.73,-243.92 1470.12,-209.97 1485.01,-193.47"/>
<polygon fill="#9a32cd" stroke="#9a32cd" points="1215.53,-353.52 1207.33,-360.24 1217.93,-360.1 1215.53,-353.52"/>
</a>
</g>
<text text-anchor="start" x="1292" y="-339.32" font-family="Helvetica,sans-Serif" font-size="10.00" fill="grey">m_associatedLayer</text>
</g>
<!-- Node17 -->
<g id="Node000017" class="node">
<title>Node17</title>
<g id="a_Node000017"><a xlink:title=" ">
<polygon fill="white" stroke="#666666" points="885,-356.82 761,-356.82 761,-326.82 885,-326.82 885,-356.82"/>
<text text-anchor="start" x="769" y="-344.82" font-family="Helvetica,sans-Serif" font-size="10.00">std::pair&lt; const Layer</text>
<text text-anchor="middle" x="823" y="-333.82" font-family="Helvetica,sans-Serif" font-size="10.00"> *, const Layer * &gt;</text>
</a>
</g>
</g>
<!-- Node17&#45;&gt;Node16 -->
<g id="edge17_Node000016_Node000017" class="edge">
<title>Node17&#45;&gt;Node16</title>
<g id="a_edge17_Node000016_Node000017"><a xlink:title=" ">
<path fill="none" stroke="#9a32cd" stroke-dasharray="5,2" d="M895.29,-342.75C947.64,-344 1020.4,-346.94 1084,-353.82 1103.48,-355.93 1125.06,-359.54 1142.57,-362.79"/>
<polygon fill="#9a32cd" stroke="#9a32cd" points="895.18,-339.24 885.1,-342.52 895.02,-346.24 895.18,-339.24"/>
</a>
</g>
<text text-anchor="start" x="966" y="-359.32" font-family="Helvetica,sans-Serif" font-size="10.00" fill="grey">m_nextLayers</text>
</g>
<!-- Node18 -->
<g id="Node000018" class="node">
<title>Node18</title>
<g id="a_Node000018"><a xlink:title=" ">
<polygon fill="white" stroke="#666666" points="524.5,-351.32 415.5,-351.32 415.5,-332.32 524.5,-332.32 524.5,-351.32"/>
<text text-anchor="middle" x="470" y="-339.32" font-family="Helvetica,sans-Serif" font-size="10.00">std::pair&lt; T1, T2 &gt;</text>
</a>
</g>
</g>
<!-- Node18&#45;&gt;Node17 -->
<g id="edge18_Node000017_Node000018" class="edge">
<title>Node18&#45;&gt;Node17</title>
<g id="a_edge18_Node000017_Node000018"><a xlink:title=" ">
<path fill="none" stroke="orange" stroke-dasharray="5,2" d="M534.71,-341.82C599,-341.82 697.6,-341.82 760.94,-341.82"/>
<polygon fill="orange" stroke="orange" points="534.69,-338.32 524.69,-341.82 534.69,-345.32 534.69,-338.32"/>
</a>
</g>
<text text-anchor="start" x="583.5" y="-362.82" font-family="Helvetica,sans-Serif" font-size="10.00" fill="grey">&lt; const Layer *, const</text>
<text text-anchor="start" x="583.5" y="-347.82" font-family="Helvetica,sans-Serif" font-size="10.00" fill="grey">   Layer * &gt;</text>
</g>
<!-- Node19 -->
<g id="Node000019" class="node">
<title>Node19</title>
<g id="a_Node000019"><a xlink:href="class_acts_1_1_bin_utility.html" target="_top" xlink:title="The BinUtility class that translated global and local position into a bins of a BinnedArray,...">
<polygon fill="white" stroke="#666666" points="867.5,-490.32 778.5,-490.32 778.5,-471.32 867.5,-471.32 867.5,-490.32"/>
<text text-anchor="middle" x="823" y="-478.32" font-family="Helvetica,sans-Serif" font-size="10.00">Acts::BinUtility</text>
</a>
</g>
</g>
<!-- Node19&#45;&gt;Node16 -->
<g id="edge19_Node000016_Node000019" class="edge">
<title>Node19&#45;&gt;Node16</title>
<g id="a_edge19_Node000016_Node000019"><a xlink:title=" ">
<path fill="none" stroke="#9a32cd" stroke-dasharray="5,2" d="M878.01,-483.68C932.34,-484.5 1017.38,-480.13 1084,-450.82 1121.75,-434.22 1155.47,-396.96 1169.97,-379.37"/>
<polygon fill="#9a32cd" stroke="#9a32cd" points="877.98,-480.17 867.9,-483.46 877.82,-487.17 877.98,-480.17"/>
</a>
</g>
<text text-anchor="start" x="954" y="-488.32" font-family="Helvetica,sans-Serif" font-size="10.00" fill="grey">m_nextLayerUtility</text>
</g>
<!-- Node20&#45;&gt;Node16 -->
<g id="edge20_Node000016_Node000020" class="edge">
<title>Node20&#45;&gt;Node16</title>
<g id="a_edge20_Node000016_Node000020"><a xlink:title=" ">
<path fill="none" stroke="#9a32cd" stroke-dasharray="5,2" d="M896.94,-520.48C968.14,-516.73 1068.07,-509.94 1084,-500.82 1084.4,-500.59 1148.86,-410.06 1170.51,-379.65"/>
<polygon fill="#9a32cd" stroke="#9a32cd" points="896.46,-517 886.65,-521.02 896.82,-523.99 896.46,-517"/>
</a>
</g>
<text text-anchor="start" x="962" y="-524.32" font-family="Helvetica,sans-Serif" font-size="10.00" fill="grey">m_surfaceArray</text>
</g>
<!-- Node21&#45;&gt;Node16 -->
<g id="edge22_Node000016_Node000021" class="edge">
<title>Node21&#45;&gt;Node16</title>
<g id="a_edge22_Node000016_Node000021"><a xlink:title=" ">
<path fill="none" stroke="#9a32cd" stroke-dasharray="5,2" d="M910.24,-431.93C961.3,-427.19 1026.95,-418.92 1084,-404.82 1109.58,-398.5 1137.74,-387.35 1156.41,-379.33"/>
<polygon fill="#9a32cd" stroke="#9a32cd" points="909.87,-428.44 900.23,-432.83 910.5,-435.42 909.87,-428.44"/>
</a>
</g>
<text text-anchor="start" x="946" y="-435.32" font-family="Helvetica,sans-Serif" font-size="10.00" fill="grey">m_approachDescriptor</text>
</g>
<!-- Node22 -->
<g id="Node000022" class="node">
<title>Node22</title>
<g id="a_Node000022"><a xlink:href="class_acts_1_1_tracking_volume.html" target="_top" xlink:title="Full Volume description used in Tracking, it inherits from Volume to get the geometrical structure.">
<polygon fill="white" stroke="#666666" points="883.5,-265.32 762.5,-265.32 762.5,-246.32 883.5,-246.32 883.5,-265.32"/>
<text text-anchor="middle" x="823" y="-253.32" font-family="Helvetica,sans-Serif" font-size="10.00">Acts::TrackingVolume</text>
</a>
</g>
</g>
<!-- Node22&#45;&gt;Node7 -->
<g id="edge29_Node000007_Node000022" class="edge">
<title>Node22&#45;&gt;Node7</title>
<g id="a_edge29_Node000007_Node000022"><a xlink:title=" ">
<path fill="none" stroke="#9a32cd" stroke-dasharray="5,2" d="M894.19,-258.72C1004.47,-261.66 1224.35,-261 1405,-219.82 1430.23,-214.07 1457.57,-201.96 1475.09,-193.38"/>
<polygon fill="#9a32cd" stroke="#9a32cd" points="893.96,-255.21 883.87,-258.43 893.76,-262.21 893.96,-255.21"/>
</a>
</g>
<text text-anchor="start" x="1106.5" y="-261.32" font-family="Helvetica,sans-Serif" font-size="10.00" fill="grey">m_associatedTrackingVolume</text>
</g>
<!-- Node22&#45;&gt;Node16 -->
<g id="edge24_Node000016_Node000022" class="edge">
<title>Node22&#45;&gt;Node16</title>
<g id="a_edge24_Node000016_Node000022"><a xlink:title=" ">
<path fill="none" stroke="#9a32cd" stroke-dasharray="5,2" d="M893.79,-261.67C964.87,-267.99 1067,-278.16 1084,-285.82 1122.4,-303.13 1156.04,-342.08 1170.28,-360.21"/>
<polygon fill="#9a32cd" stroke="#9a32cd" points="893.81,-258.16 883.55,-260.77 893.2,-265.14 893.81,-258.16"/>
</a>
</g>
<text text-anchor="start" x="955" y="-291.32" font-family="Helvetica,sans-Serif" font-size="10.00" fill="grey">m_trackingVolume</text>
</g>
<!-- Node23&#45;&gt;Node22 -->
<g id="edge25_Node000022_Node000023" class="edge">
<title>Node23&#45;&gt;Node22</title>
<g id="a_edge25_Node000022_Node000023"><a xlink:title=" ">
<path fill="none" stroke="#63b8ff" d="M520.4,-255.82C583.91,-255.82 694.11,-255.82 762.26,-255.82"/>
<polygon fill="#63b8ff" stroke="#63b8ff" points="520.24,-252.32 510.24,-255.82 520.24,-259.32 520.24,-252.32"/>
</a>
</g>
</g>
<!-- Node24&#45;&gt;Node16 -->
<g id="edge27_Node000016_Node000024" class="edge">
<title>Node24&#45;&gt;Node16</title>
<g id="a_edge27_Node000016_Node000024"><a xlink:title=" ">
<path fill="none" stroke="#9a32cd" stroke-dasharray="5,2" d="M894.68,-385.82C969.7,-381.58 1085.2,-375.04 1142.61,-371.8"/>
<polygon fill="#9a32cd" stroke="#9a32cd" points="894.15,-382.35 884.37,-386.41 894.55,-389.34 894.15,-382.35"/>
</a>
</g>
<text text-anchor="start" x="944" y="-389.32" font-family="Helvetica,sans-Serif" font-size="10.00" fill="grey">m_representingVolume</text>
</g>
<!-- Node25 -->
<g id="Node000025" class="node">
<title>Node25</title>
<g id="a_Node000025"><a xlink:title=" ">
<polygon fill="white" stroke="#666666" points="1247.5,-32.82 1109.5,-32.82 1109.5,-2.82 1247.5,-2.82 1247.5,-32.82"/>
<text text-anchor="start" x="1117.5" y="-20.82" font-family="Helvetica,sans-Serif" font-size="10.00">std::shared_ptr&lt; const</text>
<text text-anchor="middle" x="1178.5" y="-9.82" font-family="Helvetica,sans-Serif" font-size="10.00"> Acts::ISurfaceMaterial &gt;</text>
</a>
</g>
</g>
<!-- Node25&#45;&gt;Node7 -->
<g id="edge30_Node000007_Node000025" class="edge">
<title>Node25&#45;&gt;Node7</title>
<g id="a_edge30_Node000007_Node000025"><a xlink:title=" ">
<path fill="none" stroke="#9a32cd" stroke-dasharray="5,2" d="M1257.67,-1.98C1306.06,3.01 1366.14,-0.21 1405,-35.82 1440.55,-68.41 1395.56,-103.17 1423,-142.82 1433.15,-157.49 1450.39,-167.65 1465.28,-174.19"/>
<polygon fill="#9a32cd" stroke="#9a32cd" points="1257.07,1.47 1247.54,-3.17 1257.88,-5.48 1257.07,1.47"/>
</a>
</g>
<text text-anchor="start" x="1293" y="-41.32" font-family="Helvetica,sans-Serif" font-size="10.00" fill="grey">m_surfaceMaterial</text>
</g>
<!-- Node26 -->
<g id="Node000026" class="node">
<title>Node26</title>
<g id="a_Node000026"><a xlink:title=" ">
<polygon fill="white" stroke="#666666" points="882,-27.32 764,-27.32 764,-8.32 882,-8.32 882,-27.32"/>
<text text-anchor="middle" x="823" y="-15.32" font-family="Helvetica,sans-Serif" font-size="10.00">std::shared_ptr&lt; T &gt;</text>
</a>
</g>
</g>
<!-- Node26&#45;&gt;Node25 -->
<g id="edge31_Node000025_Node000026" class="edge">
<title>Node26&#45;&gt;Node25</title>
<g id="a_edge31_Node000025_Node000026"><a xlink:title=" ">
<path fill="none" stroke="orange" stroke-dasharray="5,2" d="M892.53,-17.82C955.06,-17.82 1046.95,-17.82 1109.35,-17.82"/>
<polygon fill="orange" stroke="orange" points="892.37,-14.32 882.37,-17.82 892.37,-21.32 892.37,-14.32"/>
</a>
</g>
<text text-anchor="start" x="921" y="-23.32" font-family="Helvetica,sans-Serif" font-size="10.00" fill="grey">&lt; const Acts::ISurfaceMaterial &gt;</text>
</g>
</g>
</svg>

<g id="navigator" transform="translate(0 0)" fill="#404254">
  <rect fill="#f2f5e9" fill-opacity="0.5" stroke="#606060" stroke-width=".5" x="0" y="0" width="60" height="60"/>
  <use id="zoomplus" xlink:href="#zoomPlus" x="17" y="9" onmousedown="handleZoom(evt,'in')"/>
  <use id="zoomminus" xlink:href="#zoomMin" x="42" y="9" onmousedown="handleZoom(evt,'out')"/>
  <use id="reset" xlink:href="#resetDef" x="30" y="36" onmousedown="handleReset()"/>
   <use id="arrowup" xlink:href="#arrowUp" x="0" y="0" onmousedown="handlePan(0,-1)"/>
  <use id="arrowright" xlink:href="#arrowRight" x="0" y="0" onmousedown="handlePan(1,0)"/>
  <use id="arrowdown" xlink:href="#arrowDown" x="0" y="0" onmousedown="handlePan(0,1)"/>
  <use id="arrowleft" xlink:href="#arrowLeft" x="0" y="0" onmousedown="handlePan(-1,0)"/>
</g>
<svg viewBox="0 0 15 15" width="100%" height="30px" preserveAspectRatio="xMaxYMin meet">
 <g id="arrow_out" transform="scale(0.3 0.3)">
  <a xlink:href="struct_acts_1_1_experimental_1_1_gx2_fitter_options__coll__graph_org.svg" target="_base">
   <rect id="button" ry="5" rx="5" y="6" x="6" height="38" width="38"
        fill="#f2f5e9" fill-opacity="0.5" stroke="#606060" stroke-width="1.0"/>
   <path id="arrow"
     d="M 11.500037,31.436501 C 11.940474,20.09759 22.043105,11.32322 32.158766,21.979434 L 37.068811,17.246167 C 37.068811,17.246167 37.088388,32 37.088388,32 L 22.160133,31.978069 C 22.160133,31.978069 26.997745,27.140456 26.997745,27.140456 C 18.528582,18.264221 13.291696,25.230495 11.500037,31.436501 z"
     style="fill:#404040;"/>
  </a>
 </g>
</svg>

<style type='text/css'>
<![CDATA[
[data-mouse-over-selected='false'] { opacity: 0.7; }
[data-mouse-over-selected='true']  { opacity: 1.0; }
]]>
</style>
<script type="application/ecmascript"><![CDATA[
document.addEventListener('DOMContentLoaded', (event) => {
  highlightEdges();
  highlightAdjacentNodes();
});
]]></script>
</svg>
