<?xml version="1.0" encoding="UTF-8" standalone="no"?>
<!DOCTYPE svg PUBLIC "-//W3C//DTD SVG 1.1//EN"
 "http://www.w3.org/Graphics/SVG/1.1/DTD/svg11.dtd">
<!-- Generated by graphviz version 2.43.0 (0)
 -->
<!-- Title: ActsPlugins::DD4hepDetectorSurfaceFactory::Cache Pages: 1 -->
<svg width="745pt" height="194pt"
 viewBox="0.00 0.00 745.00 194.00" xmlns="http://www.w3.org/2000/svg" xmlns:xlink="http://www.w3.org/1999/xlink">
<g id="graph0" class="graph" transform="scale(1 1) rotate(0) translate(4 190)">
<title>ActsPlugins::DD4hepDetectorSurfaceFactory::Cache</title>
<!-- Node1 -->
<g id="Node000001" class="node">
<title>Node1</title>
<g id="a_Node000001"><a xlink:title="Nested cache that records the conversion status.">
<polygon fill="#999999" stroke="#666666" points="737,-110 577,-110 577,-80 737,-80 737,-110"/>
<text text-anchor="start" x="585" y="-98" font-family="Helvetica,sans-Serif" font-size="10.00">ActsPlugins::DD4hepDetector</text>
<text text-anchor="middle" x="657" y="-87" font-family="Helvetica,sans-Serif" font-size="10.00">SurfaceFactory::Cache</text>
</a>
</g>
</g>
<!-- Node2 -->
<g id="Node000002" class="node">
<title>Node2</title>
<g id="a_Node000002"><a xlink:title=" ">
<polygon fill="white" stroke="#666666" points="447,-186 283,-186 283,-156 447,-156 447,-186"/>
<text text-anchor="start" x="291" y="-174" font-family="Helvetica,sans-Serif" font-size="10.00">std::vector&lt; DD4hepSensitive</text>
<text text-anchor="middle" x="365" y="-163" font-family="Helvetica,sans-Serif" font-size="10.00">Surface &gt;</text>
</a>
</g>
</g>
<!-- Node2&#45;&gt;Node1 -->
<g id="edge1_Node000001_Node000002" class="edge">
<title>Node2&#45;&gt;Node1</title>
<g id="a_edge1_Node000001_Node000002"><a xlink:title=" ">
<path fill="none" stroke="#9a32cd" stroke-dasharray="5,2" d="M457.06,-157.27C489.55,-151.39 526.22,-143.63 559,-134 580.77,-127.6 604.4,-118.15 622.9,-110.16"/>
<polygon fill="#9a32cd" stroke="#9a32cd" points="456.35,-153.84 447.11,-159.03 457.57,-160.73 456.35,-153.84"/>
</a>
</g>
<text text-anchor="start" x="469" y="-159.5" font-family="Helvetica,sans-Serif" font-size="10.00" fill="grey">sensitiveSurfaces</text>
</g>
<!-- Node3 -->
<g id="Node000003" class="node">
<title>Node3</title>
<g id="a_Node000003"><a xlink:title=" ">
<polygon fill="white" stroke="#666666" points="97,-103.5 0,-103.5 0,-84.5 97,-84.5 97,-103.5"/>
<text text-anchor="middle" x="48.5" y="-91.5" font-family="Helvetica,sans-Serif" font-size="10.00">std::vector&lt; T &gt;</text>
</a>
</g>
</g>
<!-- Node3&#45;&gt;Node2 -->
<g id="edge2_Node000002_Node000003" class="edge">
<title>Node3&#45;&gt;Node2</title>
<g id="a_edge2_Node000002_Node000003"><a xlink:title=" ">
<path fill="none" stroke="orange" stroke-dasharray="5,2" d="M67.42,-110.25C79.86,-120.55 97.3,-133.18 115,-140 168.55,-160.65 232.93,-168.26 282.81,-170.77"/>
<polygon fill="orange" stroke="orange" points="69.54,-107.46 59.68,-103.59 64.98,-112.76 69.54,-107.46"/>
</a>
</g>
<text text-anchor="start" x="118" y="-174.5" font-family="Helvetica,sans-Serif" font-size="10.00" fill="grey">&lt; DD4hepSensitiveSurface &gt;</text>
</g>
<!-- Node4 -->
<g id="Node000004" class="node">
<title>Node4</title>
<g id="a_Node000004"><a xlink:title=" ">
<polygon fill="white" stroke="#666666" points="442.5,-138 287.5,-138 287.5,-108 442.5,-108 442.5,-138"/>
<text text-anchor="start" x="295.5" y="-126" font-family="Helvetica,sans-Serif" font-size="10.00">std::vector&lt; DD4hepPassive</text>
<text text-anchor="middle" x="365" y="-115" font-family="Helvetica,sans-Serif" font-size="10.00">Surface &gt;</text>
</a>
</g>
</g>
<!-- Node3&#45;&gt;Node4 -->
<g id="edge4_Node000004_Node000003" class="edge">
<title>Node3&#45;&gt;Node4</title>
<g id="a_edge4_Node000004_Node000003"><a xlink:title=" ">
<path fill="none" stroke="orange" stroke-dasharray="5,2" d="M103.59,-105.31C107.44,-105.94 111.27,-106.51 115,-107 172.56,-114.53 238.08,-118.56 287.46,-120.69"/>
<polygon fill="orange" stroke="orange" points="103.86,-101.81 93.41,-103.54 102.66,-108.7 103.86,-101.81"/>
</a>
</g>
<text text-anchor="start" x="122" y="-124.5" font-family="Helvetica,sans-Serif" font-size="10.00" fill="grey">&lt; DD4hepPassiveSurface &gt;</text>
</g>
<!-- Node5 -->
<g id="Node000005" class="node">
<title>Node5</title>
<g id="a_Node000005"><a xlink:title=" ">
<polygon fill="white" stroke="#666666" points="438,-89.5 292,-89.5 292,-48.5 438,-48.5 438,-89.5"/>
<text text-anchor="start" x="300" y="-77.5" font-family="Helvetica,sans-Serif" font-size="10.00">std::vector&lt; std::tuple</text>
<text text-anchor="start" x="300" y="-66.5" font-family="Helvetica,sans-Serif" font-size="10.00">&lt; Acts::DirectedProtoAxis,</text>
<text text-anchor="middle" x="365" y="-55.5" font-family="Helvetica,sans-Serif" font-size="10.00"> std::size_t &gt; &gt;</text>
</a>
</g>
</g>
<!-- Node3&#45;&gt;Node5 -->
<g id="edge6_Node000005_Node000003" class="edge">
<title>Node3&#45;&gt;Node5</title>
<g id="a_edge6_Node000005_Node000003"><a xlink:title=" ">
<path fill="none" stroke="orange" stroke-dasharray="5,2" d="M71.85,-78.98C84.04,-71.7 99.73,-63.73 115,-60 173.31,-45.77 241.56,-49.61 291.84,-56.11"/>
<polygon fill="orange" stroke="orange" points="69.91,-76.07 63.28,-84.34 73.62,-82.01 69.91,-76.07"/>
</a>
</g>
<text text-anchor="start" x="139" y="-95.5" font-family="Helvetica,sans-Serif" font-size="10.00" fill="grey">&lt; std::tuple&lt; Acts</text>
<text text-anchor="start" x="139" y="-80.5" font-family="Helvetica,sans-Serif" font-size="10.00" fill="grey">  ::DirectedProtoAxis,</text>
<text text-anchor="start" x="139" y="-65.5" font-family="Helvetica,sans-Serif" font-size="10.00" fill="grey">   std::size_t &gt; &gt;</text>
</g>
<!-- Node6 -->
<g id="Node000006" class="node">
<title>Node6</title>
<g id="a_Node000006"><a xlink:title=" ">
<polygon fill="white" stroke="#666666" points="418.5,-30 311.5,-30 311.5,0 418.5,0 418.5,-30"/>
<text text-anchor="start" x="319.5" y="-18" font-family="Helvetica,sans-Serif" font-size="10.00">std::vector&lt; Acts::</text>
<text text-anchor="middle" x="365" y="-7" font-family="Helvetica,sans-Serif" font-size="10.00">AxisDirection &gt;</text>
</a>
</g>
</g>
<!-- Node3&#45;&gt;Node6 -->
<g id="edge8_Node000006_Node000003" class="edge">
<title>Node3&#45;&gt;Node6</title>
<g id="a_edge8_Node000006_Node000003"><a xlink:title=" ">
<path fill="none" stroke="orange" stroke-dasharray="5,2" d="M61.79,-76.28C73.5,-61.01 92.64,-39.9 115,-30 178.16,-2.02 259.27,-3.09 311.45,-7.86"/>
<polygon fill="orange" stroke="orange" points="58.88,-74.34 55.78,-84.47 64.52,-78.48 58.88,-74.34"/>
</a>
</g>
<text text-anchor="start" x="133" y="-35.5" font-family="Helvetica,sans-Serif" font-size="10.00" fill="grey">&lt; Acts::AxisDirection &gt;</text>
</g>
<!-- Node4&#45;&gt;Node1 -->
<g id="edge3_Node000001_Node000004" class="edge">
<title>Node4&#45;&gt;Node1</title>
<g id="a_edge3_Node000001_Node000004"><a xlink:title=" ">
<path fill="none" stroke="#9a32cd" stroke-dasharray="5,2" d="M452.71,-114.63C492.15,-110.82 538.5,-106.34 576.97,-102.63"/>
<polygon fill="#9a32cd" stroke="#9a32cd" points="452.19,-111.16 442.57,-115.61 452.86,-118.13 452.19,-111.16"/>
</a>
</g>
<text text-anchor="start" x="472" y="-118.5" font-family="Helvetica,sans-Serif" font-size="10.00" fill="grey">passiveSurfaces</text>
</g>
<!-- Node5&#45;&gt;Node1 -->
<g id="edge5_Node000001_Node000005" class="edge">
<title>Node5&#45;&gt;Node1</title>
<g id="a_edge5_Node000001_Node000005"><a xlink:title=" ">
<path fill="none" stroke="#9a32cd" stroke-dasharray="5,2" d="M448.51,-71.95C482.75,-73.63 522.85,-76.18 559,-80 564.85,-80.62 570.88,-81.34 576.94,-82.13"/>
<polygon fill="#9a32cd" stroke="#9a32cd" points="448.23,-68.43 438.08,-71.46 447.9,-75.42 448.23,-68.43"/>
</a>
</g>
<text text-anchor="start" x="491" y="-85.5" font-family="Helvetica,sans-Serif" font-size="10.00" fill="grey">binnings</text>
</g>
<!-- Node6&#45;&gt;Node1 -->
<g id="edge7_Node000001_Node000006" class="edge">
<title>Node6&#45;&gt;Node1</title>
<g id="a_edge7_Node000001_Node000006"><a xlink:title=" ">
<path fill="none" stroke="#9a32cd" stroke-dasharray="5,2" d="M428.77,-23.33C466.95,-29.3 516.41,-38.67 559,-52 582.38,-59.32 607.65,-70.64 626.53,-79.83"/>
<polygon fill="#9a32cd" stroke="#9a32cd" points="429.23,-19.86 418.81,-21.81 428.17,-26.78 429.23,-19.86"/>
</a>
</g>
<text text-anchor="start" x="468" y="-57.5" font-family="Helvetica,sans-Serif" font-size="10.00" fill="grey">extentConstraints</text>
</g>
</g>
</svg>
