<?xml version="1.0" encoding="UTF-8" standalone="no"?>
<!DOCTYPE svg PUBLIC "-//W3C//DTD SVG 1.1//EN"
 "http://www.w3.org/Graphics/SVG/1.1/DTD/svg11.dtd">
<!-- Generated by graphviz version 2.43.0 (0)
 -->
<!-- Title: Acts::TryAllNavigatorBase::State Pages: 1 -->
<svg width="2410pt" height="587pt"
 viewBox="0.00 0.00 2410.00 586.63" xmlns="http://www.w3.org/2000/svg" xmlns:xlink="http://www.w3.org/1999/xlink">
<g id="graph0" class="graph" transform="scale(1 1) rotate(0) translate(4 582.63)">
<title>Acts::TryAllNavigatorBase::State</title>
<!-- Node1 -->
<g id="Node000001" class="node">
<title>Node1</title>
<g id="a_Node000001"><a xlink:title="Nested State struct.">
<polygon fill="#999999" stroke="#666666" points="2402,-110.5 2259,-110.5 2259,-80.5 2402,-80.5 2402,-110.5"/>
<text text-anchor="start" x="2267" y="-98.5" font-family="Helvetica,sans-Serif" font-size="10.00">Acts::TryAllNavigatorBase</text>
<text text-anchor="middle" x="2330.5" y="-87.5" font-family="Helvetica,sans-Serif" font-size="10.00">::State</text>
</a>
</g>
</g>
<!-- Node2 -->
<g id="Node000002" class="node">
<title>Node2</title>
<g id="a_Node000002"><a xlink:href="struct_acts_1_1_try_all_navigator_base_1_1_options.html" target="_top" xlink:title="Options for this Navigator.">
<polygon fill="white" stroke="#666666" points="2097.5,-175.5 1954.5,-175.5 1954.5,-145.5 2097.5,-145.5 2097.5,-175.5"/>
<text text-anchor="start" x="1962.5" y="-163.5" font-family="Helvetica,sans-Serif" font-size="10.00">Acts::TryAllNavigatorBase</text>
<text text-anchor="middle" x="2026" y="-152.5" font-family="Helvetica,sans-Serif" font-size="10.00">::Options</text>
</a>
</g>
</g>
<!-- Node2&#45;&gt;Node1 -->
<g id="edge1_Node000001_Node000002" class="edge">
<title>Node2&#45;&gt;Node1</title>
<g id="a_edge1_Node000001_Node000002"><a xlink:title=" ">
<path fill="none" stroke="#9a32cd" stroke-dasharray="5,2" d="M2107.08,-143.29C2154.47,-133.11 2213.94,-120.33 2259.46,-110.55"/>
<polygon fill="#9a32cd" stroke="#9a32cd" points="2106.2,-139.9 2097.16,-145.42 2107.67,-146.75 2106.2,-139.9"/>
</a>
</g>
<text text-anchor="start" x="2166.5" y="-143" font-family="Helvetica,sans-Serif" font-size="10.00" fill="grey">options</text>
</g>
<!-- Node3 -->
<g id="Node000003" class="node">
<title>Node3</title>
<g id="a_Node000003"><a xlink:href="struct_acts_1_1_navigator_plain_options.html" target="_top" xlink:title=" ">
<polygon fill="white" stroke="#666666" points="1770,-218 1617,-218 1617,-199 1770,-199 1770,-218"/>
<text text-anchor="middle" x="1693.5" y="-206" font-family="Helvetica,sans-Serif" font-size="10.00">Acts::NavigatorPlainOptions</text>
</a>
</g>
</g>
<!-- Node3&#45;&gt;Node2 -->
<g id="edge2_Node000002_Node000003" class="edge">
<title>Node3&#45;&gt;Node2</title>
<g id="a_edge2_Node000002_Node000003"><a xlink:title=" ">
<path fill="none" stroke="#63b8ff" d="M1770.29,-197.49C1825.64,-189.45 1900.16,-178.63 1954.29,-170.77"/>
<polygon fill="#63b8ff" stroke="#63b8ff" points="1769.58,-194.06 1760.19,-198.96 1770.59,-200.99 1769.58,-194.06"/>
</a>
</g>
</g>
<!-- Node4 -->
<g id="Node000004" class="node">
<title>Node4</title>
<g id="a_Node000004"><a xlink:href="class_acts_1_1_surface.html" target="_top" xlink:title="Abstract Base Class for tracking surfaces.">
<polygon fill="white" stroke="#666666" points="1503,-274 1423,-274 1423,-255 1503,-255 1503,-274"/>
<text text-anchor="middle" x="1463" y="-262" font-family="Helvetica,sans-Serif" font-size="10.00">Acts::Surface</text>
</a>
</g>
</g>
<!-- Node4&#45;&gt;Node1 -->
<g id="edge29_Node000001_Node000004" class="edge">
<title>Node4&#45;&gt;Node1</title>
<g id="a_edge29_Node000001_Node000004"><a xlink:title=" ">
<path fill="none" stroke="#9a32cd" stroke-dasharray="5,2" d="M1513.07,-259.71C1621.24,-248.87 1888.21,-220.57 2110,-184.5 2168.59,-174.97 2186.5,-182.01 2241,-158.5 2268.53,-146.62 2296.01,-125.2 2312.87,-110.66"/>
<polygon fill="#9a32cd" stroke="#9a32cd" points="1512.71,-256.23 1503.11,-260.7 1513.4,-263.19 1512.71,-256.23"/>
</a>
</g>
<text text-anchor="start" x="1820" y="-264" font-family="Helvetica,sans-Serif" font-size="10.00" fill="grey">currentSurface</text>
<text text-anchor="start" x="1820" y="-249" font-family="Helvetica,sans-Serif" font-size="10.00" fill="grey">startSurface</text>
<text text-anchor="start" x="1820" y="-234" font-family="Helvetica,sans-Serif" font-size="10.00" fill="grey">targetSurface</text>
</g>
<!-- Node4&#45;&gt;Node3 -->
<g id="edge3_Node000003_Node000004" class="edge">
<title>Node4&#45;&gt;Node3</title>
<g id="a_edge3_Node000003_Node000004"><a xlink:title=" ">
<path fill="none" stroke="#9a32cd" stroke-dasharray="5,2" d="M1479.24,-247.24C1489.79,-236.59 1504.81,-223.8 1521,-217.5 1551.01,-205.83 1586.22,-202.4 1616.91,-202.34"/>
<polygon fill="#9a32cd" stroke="#9a32cd" points="1476.4,-245.15 1472.1,-254.83 1481.5,-249.95 1476.4,-245.15"/>
</a>
</g>
<text text-anchor="start" x="1527" y="-238.5" font-family="Helvetica,sans-Serif" font-size="10.00" fill="grey">startSurface</text>
<text text-anchor="start" x="1527" y="-223.5" font-family="Helvetica,sans-Serif" font-size="10.00" fill="grey">targetSurface</text>
</g>
<!-- Node5 -->
<g id="Node000005" class="node">
<title>Node5</title>
<g id="a_Node000005"><a xlink:href="class_acts_1_1_geometry_object.html" target="_top" xlink:title="Base class to provide GeometryIdentifier interface:">
<polygon fill="white" stroke="#666666" points="374,-224 250,-224 250,-205 374,-205 374,-224"/>
<text text-anchor="middle" x="312" y="-212" font-family="Helvetica,sans-Serif" font-size="10.00">Acts::GeometryObject</text>
</a>
</g>
</g>
<!-- Node5&#45;&gt;Node4 -->
<g id="edge4_Node000004_Node000005" class="edge">
<title>Node5&#45;&gt;Node4</title>
<g id="a_edge4_Node000004_Node000005"><a xlink:title=" ">
<path fill="none" stroke="#63b8ff" d="M312.41,-234.36C311.27,-310.36 317.93,-578.5 469,-578.5 469,-578.5 469,-578.5 1179.5,-578.5 1285.26,-578.5 1333.66,-580.57 1405,-502.5 1436.81,-467.69 1456.32,-314.27 1460.93,-274.14"/>
<polygon fill="#63b8ff" stroke="#63b8ff" points="315.91,-234.31 312.63,-224.24 308.91,-234.16 315.91,-234.31"/>
</a>
</g>
</g>
<!-- Node13 -->
<g id="Node000013" class="node">
<title>Node13</title>
<g id="a_Node000013"><a xlink:href="class_acts_1_1_layer.html" target="_top" xlink:title="Base Class for a Detector Layer in the Tracking Geometry.">
<polygon fill="white" stroke="#666666" points="1214,-298 1143,-298 1143,-279 1214,-279 1214,-298"/>
<text text-anchor="middle" x="1178.5" y="-286" font-family="Helvetica,sans-Serif" font-size="10.00">Acts::Layer</text>
</a>
</g>
</g>
<!-- Node5&#45;&gt;Node13 -->
<g id="edge13_Node000013_Node000005" class="edge">
<title>Node5&#45;&gt;Node13</title>
<g id="a_edge13_Node000013_Node000005"><a xlink:title=" ">
<path fill="none" stroke="#63b8ff" d="M384.4,-214.82C495.01,-215.76 714.4,-219.43 900,-233.5 982.12,-239.73 1007.82,-224.19 1084,-255.5 1093.37,-259.35 1092.89,-265.06 1102,-269.5 1114.76,-275.72 1129.75,-280.04 1143,-282.96"/>
<polygon fill="#63b8ff" stroke="#63b8ff" points="384.39,-211.32 374.36,-214.74 384.33,-218.32 384.39,-211.32"/>
</a>
</g>
</g>
<!-- Node20 -->
<g id="Node000020" class="node">
<title>Node20</title>
<g id="a_Node000020"><a xlink:href="class_acts_1_1_volume.html" target="_top" xlink:title="It inherits from GeometryObject for geometry identification.">
<polygon fill="white" stroke="#666666" points="510,-174 430,-174 430,-155 510,-155 510,-174"/>
<text text-anchor="middle" x="470" y="-162" font-family="Helvetica,sans-Serif" font-size="10.00">Acts::Volume</text>
</a>
</g>
</g>
<!-- Node5&#45;&gt;Node20 -->
<g id="edge23_Node000020_Node000005" class="edge">
<title>Node5&#45;&gt;Node20</title>
<g id="a_edge23_Node000020_Node000005"><a xlink:title=" ">
<path fill="none" stroke="#63b8ff" d="M352.23,-201.93C379.2,-193.28 414.45,-181.98 439.14,-174.07"/>
<polygon fill="#63b8ff" stroke="#63b8ff" points="351.16,-198.59 342.71,-204.98 353.3,-205.26 351.16,-198.59"/>
</a>
</g>
</g>
<!-- Node6 -->
<g id="Node000006" class="node">
<title>Node6</title>
<g id="a_Node000006"><a xlink:href="class_acts_1_1_geometry_identifier.html" target="_top" xlink:title="Identifier for geometry nodes within the geometry hierarchy.">
<polygon fill="white" stroke="#666666" points="136,-224 0,-224 0,-205 136,-205 136,-224"/>
<text text-anchor="middle" x="68" y="-212" font-family="Helvetica,sans-Serif" font-size="10.00">Acts::GeometryIdentifier</text>
</a>
</g>
</g>
<!-- Node6&#45;&gt;Node5 -->
<g id="edge5_Node000005_Node000006" class="edge">
<title>Node6&#45;&gt;Node5</title>
<g id="a_edge5_Node000005_Node000006"><a xlink:title=" ">
<path fill="none" stroke="#9a32cd" stroke-dasharray="5,2" d="M146.31,-214.5C179.84,-214.5 218.54,-214.5 249.99,-214.5"/>
<polygon fill="#9a32cd" stroke="#9a32cd" points="146.09,-211 136.09,-214.5 146.09,-218 146.09,-211"/>
</a>
</g>
<text text-anchor="start" x="157" y="-220" font-family="Helvetica,sans-Serif" font-size="10.00" fill="grey">m_geometryId</text>
</g>
<!-- Node7 -->
<g id="Node000007" class="node">
<title>Node7</title>
<g id="a_Node000007"><a xlink:title=" ">
<polygon fill="white" stroke="#666666" points="1242.5,-260.5 1114.5,-260.5 1114.5,-230.5 1242.5,-230.5 1242.5,-260.5"/>
<text text-anchor="start" x="1122.5" y="-248.5" font-family="Helvetica,sans-Serif" font-size="10.00">std::enable_shared</text>
<text text-anchor="middle" x="1178.5" y="-237.5" font-family="Helvetica,sans-Serif" font-size="10.00">_from_this&lt; Surface &gt;</text>
</a>
</g>
</g>
<!-- Node7&#45;&gt;Node4 -->
<g id="edge6_Node000004_Node000007" class="edge">
<title>Node7&#45;&gt;Node4</title>
<g id="a_edge6_Node000004_Node000007"><a xlink:title=" ">
<path fill="none" stroke="#63b8ff" d="M1252.8,-250.43C1307.04,-254.08 1378.83,-258.91 1422.65,-261.85"/>
<polygon fill="#63b8ff" stroke="#63b8ff" points="1252.76,-246.92 1242.55,-249.74 1252.29,-253.9 1252.76,-246.92"/>
</a>
</g>
</g>
<!-- Node8 -->
<g id="Node000008" class="node">
<title>Node8</title>
<g id="a_Node000008"><a xlink:title=" ">
<polygon fill="white" stroke="#666666" points="1255,-502 1102,-502 1102,-461 1255,-461 1255,-502"/>
<text text-anchor="start" x="1110" y="-490" font-family="Helvetica,sans-Serif" font-size="10.00">std::array&lt; std::string</text>
<text text-anchor="start" x="1110" y="-479" font-family="Helvetica,sans-Serif" font-size="10.00">_view, Surface::SurfaceType</text>
<text text-anchor="middle" x="1178.5" y="-468" font-family="Helvetica,sans-Serif" font-size="10.00">::Other+1 &gt;</text>
</a>
</g>
</g>
<!-- Node8&#45;&gt;Node4 -->
<g id="edge7_Node000004_Node000008" class="edge">
<title>Node8&#45;&gt;Node4</title>
<g id="a_edge7_Node000004_Node000008"><a xlink:title=" ">
<path fill="none" stroke="#9a32cd" stroke-dasharray="5,2" d="M1265.24,-482.48C1311.72,-478.61 1367.2,-466.24 1405,-432.5 1453.48,-389.22 1460.77,-303.16 1461.83,-274.24"/>
<polygon fill="#9a32cd" stroke="#9a32cd" points="1264.89,-478.99 1255.17,-483.2 1265.39,-485.98 1264.89,-478.99"/>
</a>
</g>
<text text-anchor="start" x="1287" y="-487" font-family="Helvetica,sans-Serif" font-size="10.00" fill="grey">s_surfaceTypeNames</text>
</g>
<!-- Node9 -->
<g id="Node000009" class="node">
<title>Node9</title>
<g id="a_Node000009"><a xlink:title=" ">
<polygon fill="white" stroke="#666666" points="869,-529 777,-529 777,-510 869,-510 869,-529"/>
<text text-anchor="middle" x="823" y="-517" font-family="Helvetica,sans-Serif" font-size="10.00">std::array&lt; T &gt;</text>
</a>
</g>
</g>
<!-- Node9&#45;&gt;Node8 -->
<g id="edge8_Node000008_Node000009" class="edge">
<title>Node9&#45;&gt;Node8</title>
<g id="a_edge8_Node000008_Node000009"><a xlink:title=" ">
<path fill="none" stroke="orange" stroke-dasharray="5,2" d="M879.29,-514.87C931.98,-510.29 1013.49,-502.79 1084,-494.5 1089.78,-493.82 1095.75,-493.08 1101.76,-492.31"/>
<polygon fill="orange" stroke="orange" points="878.81,-511.39 869.15,-515.74 879.42,-518.37 878.81,-511.39"/>
</a>
</g>
<text text-anchor="start" x="945" y="-546" font-family="Helvetica,sans-Serif" font-size="10.00" fill="grey">&lt; std::string_view,</text>
<text text-anchor="start" x="945" y="-531" font-family="Helvetica,sans-Serif" font-size="10.00" fill="grey">   Surface::SurfaceType</text>
<text text-anchor="start" x="945" y="-516" font-family="Helvetica,sans-Serif" font-size="10.00" fill="grey">  ::Other+1 &gt;</text>
</g>
<!-- Node10 -->
<g id="Node000010" class="node">
<title>Node10</title>
<g id="a_Node000010"><a xlink:title=" ">
<polygon fill="white" stroke="#666666" points="1064.5,-451.5 937.5,-451.5 937.5,-421.5 1064.5,-421.5 1064.5,-451.5"/>
<text text-anchor="start" x="945.5" y="-439.5" font-family="Helvetica,sans-Serif" font-size="10.00">std::unique_ptr&lt; const</text>
<text text-anchor="middle" x="1001" y="-428.5" font-family="Helvetica,sans-Serif" font-size="10.00"> Transform3 &gt;</text>
</a>
</g>
</g>
<!-- Node10&#45;&gt;Node4 -->
<g id="edge9_Node000004_Node000010" class="edge">
<title>Node10&#45;&gt;Node4</title>
<g id="a_edge9_Node000004_Node000010"><a xlink:title=" ">
<path fill="none" stroke="#9a32cd" stroke-dasharray="5,2" d="M1073.93,-420.39C1077.5,-418.36 1080.88,-416.07 1084,-413.5 1097.79,-402.11 1088.07,-388.72 1102,-377.5 1210.22,-290.35 1277.35,-355.39 1405,-300.5 1421.34,-293.47 1438.37,-282.1 1449.51,-274.02"/>
<polygon fill="#9a32cd" stroke="#9a32cd" points="1072.17,-417.36 1064.76,-424.93 1075.28,-423.63 1072.17,-417.36"/>
</a>
</g>
<text text-anchor="start" x="1146.5" y="-383" font-family="Helvetica,sans-Serif" font-size="10.00" fill="grey">m_transform</text>
</g>
<!-- Node11 -->
<g id="Node000011" class="node">
<title>Node11</title>
<g id="a_Node000011"><a xlink:title=" ">
<polygon fill="white" stroke="#666666" points="529,-387 411,-387 411,-368 529,-368 529,-387"/>
<text text-anchor="middle" x="470" y="-375" font-family="Helvetica,sans-Serif" font-size="10.00">std::unique_ptr&lt; T &gt;</text>
</a>
</g>
</g>
<!-- Node11&#45;&gt;Node10 -->
<g id="edge10_Node000010_Node000011" class="edge">
<title>Node11&#45;&gt;Node10</title>
<g id="a_edge10_Node000010_Node000011"><a xlink:title=" ">
<path fill="none" stroke="orange" stroke-dasharray="5,2" d="M494.49,-392.43C509.02,-400.84 528.39,-410.61 547,-415.5 682.54,-451.11 848.6,-447.35 937.21,-441.76"/>
<polygon fill="orange" stroke="orange" points="496.07,-389.3 485.69,-387.17 492.48,-395.31 496.07,-389.3"/>
</a>
</g>
<text text-anchor="start" x="584.5" y="-447" font-family="Helvetica,sans-Serif" font-size="10.00" fill="grey">&lt; const Transform3 &gt;</text>
</g>
<!-- Node17 -->
<g id="Node000017" class="node">
<title>Node17</title>
<g id="a_Node000017"><a xlink:title=" ">
<polygon fill="white" stroke="#666666" points="886.5,-320.5 759.5,-320.5 759.5,-290.5 886.5,-290.5 886.5,-320.5"/>
<text text-anchor="start" x="767.5" y="-308.5" font-family="Helvetica,sans-Serif" font-size="10.00">std::unique_ptr&lt; const</text>
<text text-anchor="middle" x="823" y="-297.5" font-family="Helvetica,sans-Serif" font-size="10.00"> Acts::SurfaceArray &gt;</text>
</a>
</g>
</g>
<!-- Node11&#45;&gt;Node17 -->
<g id="edge18_Node000017_Node000011" class="edge">
<title>Node11&#45;&gt;Node17</title>
<g id="a_edge18_Node000017_Node000011"><a xlink:title=" ">
<path fill="none" stroke="orange" stroke-dasharray="5,2" d="M490.74,-361.71C505.37,-350.94 526.28,-337.42 547,-330.5 617.14,-307.08 702.6,-302.81 759.45,-303.11"/>
<polygon fill="orange" stroke="orange" points="488.34,-359.14 482.5,-367.98 492.58,-364.71 488.34,-359.14"/>
</a>
</g>
<text text-anchor="start" x="566.5" y="-336" font-family="Helvetica,sans-Serif" font-size="10.00" fill="grey">&lt; const Acts::SurfaceArray &gt;</text>
</g>
<!-- Node18 -->
<g id="Node000018" class="node">
<title>Node18</title>
<g id="a_Node000018"><a xlink:title=" ">
<polygon fill="white" stroke="#666666" points="900,-416.5 746,-416.5 746,-386.5 900,-386.5 900,-416.5"/>
<text text-anchor="start" x="754" y="-404.5" font-family="Helvetica,sans-Serif" font-size="10.00">std::unique_ptr&lt; const</text>
<text text-anchor="middle" x="823" y="-393.5" font-family="Helvetica,sans-Serif" font-size="10.00"> Acts::ApproachDescriptor &gt;</text>
</a>
</g>
</g>
<!-- Node11&#45;&gt;Node18 -->
<g id="edge20_Node000018_Node000011" class="edge">
<title>Node11&#45;&gt;Node18</title>
<g id="a_edge20_Node000018_Node000011"><a xlink:title=" ">
<path fill="none" stroke="orange" stroke-dasharray="5,2" d="M539.36,-382.17C598.6,-386.23 684.23,-392.08 745.69,-396.28"/>
<polygon fill="orange" stroke="orange" points="539.57,-378.68 529.35,-381.49 539.09,-385.66 539.57,-378.68"/>
</a>
</g>
<text text-anchor="start" x="550.5" y="-400" font-family="Helvetica,sans-Serif" font-size="10.00" fill="grey">&lt; const Acts::ApproachDescriptor &gt;</text>
</g>
<!-- Node21 -->
<g id="Node000021" class="node">
<title>Node21</title>
<g id="a_Node000021"><a xlink:title=" ">
<polygon fill="white" stroke="#666666" points="884,-368.5 762,-368.5 762,-338.5 884,-338.5 884,-368.5"/>
<text text-anchor="start" x="770" y="-356.5" font-family="Helvetica,sans-Serif" font-size="10.00">std::unique_ptr&lt; Acts</text>
<text text-anchor="middle" x="823" y="-345.5" font-family="Helvetica,sans-Serif" font-size="10.00">::Volume &gt;</text>
</a>
</g>
</g>
<!-- Node11&#45;&gt;Node21 -->
<g id="edge25_Node000021_Node000011" class="edge">
<title>Node11&#45;&gt;Node21</title>
<g id="a_edge25_Node000021_Node000011"><a xlink:title=" ">
<path fill="none" stroke="orange" stroke-dasharray="5,2" d="M519.8,-365.89C528.8,-364.13 538.15,-362.55 547,-361.5 620.63,-352.75 706.1,-351.67 761.96,-352.18"/>
<polygon fill="orange" stroke="orange" points="518.92,-362.49 509.83,-367.93 520.33,-369.35 518.92,-362.49"/>
</a>
</g>
<text text-anchor="start" x="594.5" y="-367" font-family="Helvetica,sans-Serif" font-size="10.00" fill="grey">&lt; Acts::Volume &gt;</text>
</g>
<!-- Node12 -->
<g id="Node000012" class="node">
<title>Node12</title>
<g id="a_Node000012"><a xlink:href="class_acts_1_1_detector_element_base.html" target="_top" xlink:title="This class is the base of all detector elements that are usable by ACTS.">
<polygon fill="white" stroke="#666666" points="1253.5,-212 1103.5,-212 1103.5,-193 1253.5,-193 1253.5,-212"/>
<text text-anchor="middle" x="1178.5" y="-200" font-family="Helvetica,sans-Serif" font-size="10.00">Acts::DetectorElementBase</text>
</a>
</g>
</g>
<!-- Node12&#45;&gt;Node4 -->
<g id="edge11_Node000004_Node000012" class="edge">
<title>Node12&#45;&gt;Node4</title>
<g id="a_edge11_Node000004_Node000012"><a xlink:title=" ">
<path fill="none" stroke="#9a32cd" stroke-dasharray="5,2" d="M1263.77,-204.71C1306.97,-207.89 1359.83,-215 1405,-230.5 1421.35,-236.11 1438.11,-246.82 1449.18,-254.73"/>
<polygon fill="#9a32cd" stroke="#9a32cd" points="1263.8,-201.21 1253.58,-204.02 1263.32,-208.19 1263.8,-201.21"/>
</a>
</g>
<text text-anchor="start" x="1276" y="-236" font-family="Helvetica,sans-Serif" font-size="10.00" fill="grey">m_associatedDetElement</text>
</g>
<!-- Node13&#45;&gt;Node4 -->
<g id="edge12_Node000004_Node000013" class="edge">
<title>Node13&#45;&gt;Node4</title>
<g id="a_edge12_Node000004_Node000013"><a xlink:title=" ">
<path fill="none" stroke="#9a32cd" stroke-dasharray="5,2" d="M1224.25,-284.7C1279.05,-280.04 1370.96,-272.23 1423,-267.81"/>
<polygon fill="#9a32cd" stroke="#9a32cd" points="1223.81,-281.22 1214.14,-285.56 1224.4,-288.2 1223.81,-281.22"/>
</a>
</g>
<text text-anchor="start" x="1292" y="-285" font-family="Helvetica,sans-Serif" font-size="10.00" fill="grey">m_associatedLayer</text>
</g>
<!-- Node14 -->
<g id="Node000014" class="node">
<title>Node14</title>
<g id="a_Node000014"><a xlink:title=" ">
<polygon fill="white" stroke="#666666" points="885,-272.5 761,-272.5 761,-242.5 885,-242.5 885,-272.5"/>
<text text-anchor="start" x="769" y="-260.5" font-family="Helvetica,sans-Serif" font-size="10.00">std::pair&lt; const Layer</text>
<text text-anchor="middle" x="823" y="-249.5" font-family="Helvetica,sans-Serif" font-size="10.00"> *, const Layer * &gt;</text>
</a>
</g>
</g>
<!-- Node14&#45;&gt;Node13 -->
<g id="edge14_Node000013_Node000014" class="edge">
<title>Node14&#45;&gt;Node13</title>
<g id="a_edge14_Node000013_Node000014"><a xlink:title=" ">
<path fill="none" stroke="#9a32cd" stroke-dasharray="5,2" d="M895.31,-258.92C947.67,-260.55 1020.44,-264.04 1084,-271.5 1103.5,-273.79 1125.07,-277.62 1142.58,-281.07"/>
<polygon fill="#9a32cd" stroke="#9a32cd" points="895.22,-255.42 885.12,-258.62 895.02,-262.41 895.22,-255.42"/>
</a>
</g>
<text text-anchor="start" x="966" y="-277" font-family="Helvetica,sans-Serif" font-size="10.00" fill="grey">m_nextLayers</text>
</g>
<!-- Node15 -->
<g id="Node000015" class="node">
<title>Node15</title>
<g id="a_Node000015"><a xlink:title=" ">
<polygon fill="white" stroke="#666666" points="524.5,-267 415.5,-267 415.5,-248 524.5,-248 524.5,-267"/>
<text text-anchor="middle" x="470" y="-255" font-family="Helvetica,sans-Serif" font-size="10.00">std::pair&lt; T1, T2 &gt;</text>
</a>
</g>
</g>
<!-- Node15&#45;&gt;Node14 -->
<g id="edge15_Node000014_Node000015" class="edge">
<title>Node15&#45;&gt;Node14</title>
<g id="a_edge15_Node000014_Node000015"><a xlink:title=" ">
<path fill="none" stroke="orange" stroke-dasharray="5,2" d="M534.71,-257.5C599,-257.5 697.6,-257.5 760.94,-257.5"/>
<polygon fill="orange" stroke="orange" points="534.69,-254 524.69,-257.5 534.69,-261 534.69,-254"/>
</a>
</g>
<text text-anchor="start" x="583.5" y="-278.5" font-family="Helvetica,sans-Serif" font-size="10.00" fill="grey">&lt; const Layer *, const</text>
<text text-anchor="start" x="583.5" y="-263.5" font-family="Helvetica,sans-Serif" font-size="10.00" fill="grey">   Layer * &gt;</text>
</g>
<!-- Node16 -->
<g id="Node000016" class="node">
<title>Node16</title>
<g id="a_Node000016"><a xlink:href="class_acts_1_1_bin_utility.html" target="_top" xlink:title="The BinUtility class that translated global and local position into a bins of a BinnedArray,...">
<polygon fill="white" stroke="#666666" points="867.5,-186 778.5,-186 778.5,-167 867.5,-167 867.5,-186"/>
<text text-anchor="middle" x="823" y="-174" font-family="Helvetica,sans-Serif" font-size="10.00">Acts::BinUtility</text>
</a>
</g>
</g>
<!-- Node16&#45;&gt;Node13 -->
<g id="edge16_Node000013_Node000016" class="edge">
<title>Node16&#45;&gt;Node13</title>
<g id="a_edge16_Node000013_Node000016"><a xlink:title=" ">
<path fill="none" stroke="#9a32cd" stroke-dasharray="5,2" d="M877.71,-178.42C949.25,-181.47 1068.64,-188.46 1084,-201.5 1107.83,-221.73 1079.76,-247.53 1102,-269.5 1112.77,-280.14 1128.57,-285.11 1142.93,-287.33"/>
<polygon fill="#9a32cd" stroke="#9a32cd" points="877.66,-174.92 867.52,-178 877.37,-181.91 877.66,-174.92"/>
</a>
</g>
<text text-anchor="start" x="954" y="-207" font-family="Helvetica,sans-Serif" font-size="10.00" fill="grey">m_nextLayerUtility</text>
</g>
<!-- Node17&#45;&gt;Node13 -->
<g id="edge17_Node000013_Node000017" class="edge">
<title>Node17&#45;&gt;Node13</title>
<g id="a_edge17_Node000013_Node000017"><a xlink:title=" ">
<path fill="none" stroke="#9a32cd" stroke-dasharray="5,2" d="M897.12,-301.98C972.21,-298.37 1085.87,-292.91 1142.65,-290.18"/>
<polygon fill="#9a32cd" stroke="#9a32cd" points="896.61,-298.5 886.79,-302.48 896.95,-305.5 896.61,-298.5"/>
</a>
</g>
<text text-anchor="start" x="962" y="-306" font-family="Helvetica,sans-Serif" font-size="10.00" fill="grey">m_surfaceArray</text>
</g>
<!-- Node18&#45;&gt;Node13 -->
<g id="edge19_Node000013_Node000018" class="edge">
<title>Node18&#45;&gt;Node13</title>
<g id="a_edge19_Node000013_Node000018"><a xlink:title=" ">
<path fill="none" stroke="#9a32cd" stroke-dasharray="5,2" d="M910.26,-393.99C980.4,-387.2 1069.98,-376.75 1084,-366.5 1099.09,-355.47 1089.09,-342.01 1102,-328.5 1115.22,-314.67 1134.29,-304.62 1149.96,-298.05"/>
<polygon fill="#9a32cd" stroke="#9a32cd" points="909.68,-390.53 900.06,-394.96 910.35,-397.49 909.68,-390.53"/>
</a>
</g>
<text text-anchor="start" x="946" y="-398" font-family="Helvetica,sans-Serif" font-size="10.00" fill="grey">m_approachDescriptor</text>
</g>
<!-- Node19 -->
<g id="Node000019" class="node">
<title>Node19</title>
<g id="a_Node000019"><a xlink:href="class_acts_1_1_tracking_volume.html" target="_top" xlink:title="Full Volume description used in Tracking, it inherits from Volume to get the geometrical structure.">
<polygon fill="white" stroke="#666666" points="883.5,-143 762.5,-143 762.5,-124 883.5,-124 883.5,-143"/>
<text text-anchor="middle" x="823" y="-131" font-family="Helvetica,sans-Serif" font-size="10.00">Acts::TrackingVolume</text>
</a>
</g>
</g>
<!-- Node19&#45;&gt;Node1 -->
<g id="edge30_Node000001_Node000019" class="edge">
<title>Node19&#45;&gt;Node1</title>
<g id="a_edge30_Node000001_Node000019"><a xlink:title=" ">
<path fill="none" stroke="#9a32cd" stroke-dasharray="5,2" d="M872.47,-121.83C887.03,-118.69 903.1,-115.59 918,-113.5 1032.49,-97.43 1061.89,-95.5 1177.5,-95.5 1177.5,-95.5 1177.5,-95.5 2027,-95.5 2106.43,-95.5 2197.6,-95.5 2258.9,-95.5"/>
<polygon fill="#9a32cd" stroke="#9a32cd" points="871.67,-118.42 862.66,-124 873.18,-125.26 871.67,-118.42"/>
</a>
</g>
<text text-anchor="start" x="1524" y="-101" font-family="Helvetica,sans-Serif" font-size="10.00" fill="grey">currentVolume</text>
</g>
<!-- Node19&#45;&gt;Node4 -->
<g id="edge26_Node000004_Node000019" class="edge">
<title>Node19&#45;&gt;Node4</title>
<g id="a_edge26_Node000004_Node000019"><a xlink:title=" ">
<path fill="none" stroke="#9a32cd" stroke-dasharray="5,2" d="M893.74,-124.61C1008.79,-113.47 1241.82,-106.08 1405,-201.5 1427.92,-214.9 1446.79,-240.6 1455.97,-254.68"/>
<polygon fill="#9a32cd" stroke="#9a32cd" points="893.25,-121.14 883.65,-125.62 893.95,-128.1 893.25,-121.14"/>
</a>
</g>
<text text-anchor="start" x="1106.5" y="-147" font-family="Helvetica,sans-Serif" font-size="10.00" fill="grey">m_associatedTrackingVolume</text>
</g>
<!-- Node19&#45;&gt;Node13 -->
<g id="edge21_Node000013_Node000019" class="edge">
<title>Node19&#45;&gt;Node13</title>
<g id="a_edge21_Node000013_Node000019"><a xlink:title=" ">
<path fill="none" stroke="#9a32cd" stroke-dasharray="5,2" d="M894.06,-138.4C968.69,-143.94 1077.1,-153.02 1084,-159.5 1120.11,-193.42 1068.48,-233.02 1102,-269.5 1112.34,-280.75 1128.26,-285.77 1142.82,-287.86"/>
<polygon fill="#9a32cd" stroke="#9a32cd" points="893.99,-134.89 883.76,-137.64 893.48,-141.87 893.99,-134.89"/>
</a>
</g>
<text text-anchor="start" x="955" y="-165" font-family="Helvetica,sans-Serif" font-size="10.00" fill="grey">m_trackingVolume</text>
</g>
<!-- Node20&#45;&gt;Node19 -->
<g id="edge22_Node000019_Node000020" class="edge">
<title>Node20&#45;&gt;Node19</title>
<g id="a_edge22_Node000019_Node000020"><a xlink:title=" ">
<path fill="none" stroke="#63b8ff" d="M520.4,-160.14C583.91,-154.53 694.11,-144.79 762.26,-138.78"/>
<polygon fill="#63b8ff" stroke="#63b8ff" points="519.9,-156.67 510.24,-161.03 520.51,-163.64 519.9,-156.67"/>
</a>
</g>
</g>
<!-- Node21&#45;&gt;Node13 -->
<g id="edge24_Node000013_Node000021" class="edge">
<title>Node21&#45;&gt;Node13</title>
<g id="a_edge24_Node000013_Node000021"><a xlink:title=" ">
<path fill="none" stroke="#9a32cd" stroke-dasharray="5,2" d="M894.28,-349C947.01,-344.62 1020.7,-336.38 1084,-321.5 1108.8,-315.67 1136.18,-305.55 1154.86,-298.05"/>
<polygon fill="#9a32cd" stroke="#9a32cd" points="893.71,-345.53 884.02,-349.82 894.27,-352.51 893.71,-345.53"/>
</a>
</g>
<text text-anchor="start" x="944" y="-351" font-family="Helvetica,sans-Serif" font-size="10.00" fill="grey">m_representingVolume</text>
</g>
<!-- Node22 -->
<g id="Node000022" class="node">
<title>Node22</title>
<g id="a_Node000022"><a xlink:title=" ">
<polygon fill="white" stroke="#666666" points="1247.5,-433.5 1109.5,-433.5 1109.5,-403.5 1247.5,-403.5 1247.5,-433.5"/>
<text text-anchor="start" x="1117.5" y="-421.5" font-family="Helvetica,sans-Serif" font-size="10.00">std::shared_ptr&lt; const</text>
<text text-anchor="middle" x="1178.5" y="-410.5" font-family="Helvetica,sans-Serif" font-size="10.00"> Acts::ISurfaceMaterial &gt;</text>
</a>
</g>
</g>
<!-- Node22&#45;&gt;Node4 -->
<g id="edge27_Node000004_Node000022" class="edge">
<title>Node22&#45;&gt;Node4</title>
<g id="a_edge27_Node000004_Node000022"><a xlink:title=" ">
<path fill="none" stroke="#9a32cd" stroke-dasharray="5,2" d="M1257.73,-415.14C1304.44,-409.63 1362.71,-396.24 1405,-364.5 1436.48,-340.87 1453.27,-294.39 1459.33,-274.22"/>
<polygon fill="#9a32cd" stroke="#9a32cd" points="1257.22,-411.67 1247.65,-416.23 1257.97,-418.63 1257.22,-411.67"/>
</a>
</g>
<text text-anchor="start" x="1293" y="-417" font-family="Helvetica,sans-Serif" font-size="10.00" fill="grey">m_surfaceMaterial</text>
</g>
<!-- Node23 -->
<g id="Node000023" class="node">
<title>Node23</title>
<g id="a_Node000023"><a xlink:title=" ">
<polygon fill="white" stroke="#666666" points="882,-492 764,-492 764,-473 882,-473 882,-492"/>
<text text-anchor="middle" x="823" y="-480" font-family="Helvetica,sans-Serif" font-size="10.00">std::shared_ptr&lt; T &gt;</text>
</a>
</g>
</g>
<!-- Node23&#45;&gt;Node22 -->
<g id="edge28_Node000022_Node000023" class="edge">
<title>Node23&#45;&gt;Node22</title>
<g id="a_edge28_Node000022_Node000023"><a xlink:title=" ">
<path fill="none" stroke="orange" stroke-dasharray="5,2" d="M892.27,-475.59C966.15,-468.05 1074.75,-456.74 1084,-454.5 1104.63,-449.51 1126.83,-441.1 1144.42,-433.66"/>
<polygon fill="orange" stroke="orange" points="891.68,-472.13 882.09,-476.63 892.39,-479.1 891.68,-472.13"/>
</a>
</g>
<text text-anchor="start" x="921" y="-478" font-family="Helvetica,sans-Serif" font-size="10.00" fill="grey">&lt; const Acts::ISurfaceMaterial &gt;</text>
</g>
<!-- Node24 -->
<g id="Node000024" class="node">
<title>Node24</title>
<g id="a_Node000024"><a xlink:title=" ">
<polygon fill="white" stroke="#666666" points="2110,-67.5 1942,-67.5 1942,-37.5 2110,-37.5 2110,-67.5"/>
<text text-anchor="start" x="1950" y="-55.5" font-family="Helvetica,sans-Serif" font-size="10.00">std::vector&lt; detail</text>
<text text-anchor="middle" x="2026" y="-44.5" font-family="Helvetica,sans-Serif" font-size="10.00">::NavigationObjectCandidate &gt;</text>
</a>
</g>
</g>
<!-- Node24&#45;&gt;Node1 -->
<g id="edge31_Node000001_Node000024" class="edge">
<title>Node24&#45;&gt;Node1</title>
<g id="a_edge31_Node000001_Node000024"><a xlink:title=" ">
<path fill="none" stroke="#9a32cd" stroke-dasharray="5,2" d="M2120.71,-52.07C2158.39,-53.37 2202.05,-56.75 2241,-64.5 2258.88,-68.06 2278.06,-74.44 2293.97,-80.49"/>
<polygon fill="#9a32cd" stroke="#9a32cd" points="2120.35,-48.56 2110.25,-51.76 2120.14,-55.56 2120.35,-48.56"/>
</a>
</g>
<text text-anchor="start" x="2131.5" y="-70" font-family="Helvetica,sans-Serif" font-size="10.00" fill="grey">navigationCandidates</text>
</g>
<!-- Node25 -->
<g id="Node000025" class="node">
<title>Node25</title>
<g id="a_Node000025"><a xlink:title=" ">
<polygon fill="white" stroke="#666666" points="1742,-58 1645,-58 1645,-39 1742,-39 1742,-58"/>
<text text-anchor="middle" x="1693.5" y="-46" font-family="Helvetica,sans-Serif" font-size="10.00">std::vector&lt; T &gt;</text>
</a>
</g>
</g>
<!-- Node25&#45;&gt;Node24 -->
<g id="edge32_Node000024_Node000025" class="edge">
<title>Node25&#45;&gt;Node24</title>
<g id="a_edge32_Node000024_Node000025"><a xlink:title=" ">
<path fill="none" stroke="orange" stroke-dasharray="5,2" d="M1752.58,-48.35C1798.98,-48.32 1865.67,-48.51 1924,-49.5 1929.79,-49.6 1935.76,-49.72 1941.78,-49.86"/>
<polygon fill="orange" stroke="orange" points="1752.41,-44.85 1742.42,-48.36 1752.42,-51.85 1752.41,-44.85"/>
</a>
</g>
<text text-anchor="start" x="1791" y="-70.5" font-family="Helvetica,sans-Serif" font-size="10.00" fill="grey">&lt; detail::NavigationObject</text>
<text text-anchor="start" x="1791" y="-55.5" font-family="Helvetica,sans-Serif" font-size="10.00" fill="grey">  Candidate &gt;</text>
</g>
<!-- Node26 -->
<g id="Node000026" class="node">
<title>Node26</title>
<g id="a_Node000026"><a xlink:href="struct_acts_1_1_navigator_statistics.html" target="_top" xlink:title="A struct to hold statistics of the navigator.">
<polygon fill="white" stroke="#666666" points="2094.5,-19 1957.5,-19 1957.5,0 2094.5,0 2094.5,-19"/>
<text text-anchor="middle" x="2026" y="-7" font-family="Helvetica,sans-Serif" font-size="10.00">Acts::NavigatorStatistics</text>
</a>
</g>
</g>
<!-- Node26&#45;&gt;Node1 -->
<g id="edge33_Node000001_Node000026" class="edge">
<title>Node26&#45;&gt;Node1</title>
<g id="a_edge33_Node000001_Node000026"><a xlink:title=" ">
<path fill="none" stroke="#9a32cd" stroke-dasharray="5,2" d="M2104.74,-7.3C2146.38,-8.52 2197.84,-13.98 2241,-30.5 2270.02,-41.61 2297.96,-64.92 2314.44,-80.4"/>
<polygon fill="#9a32cd" stroke="#9a32cd" points="2104.73,-3.8 2094.65,-7.08 2104.57,-10.79 2104.73,-3.8"/>
</a>
</g>
<text text-anchor="start" x="2162.5" y="-36" font-family="Helvetica,sans-Serif" font-size="10.00" fill="grey">statistics</text>
</g>
</g>
</svg>
