<?xml version="1.0" encoding="UTF-8" standalone="no"?>
<!DOCTYPE svg PUBLIC "-//W3C//DTD SVG 1.1//EN"
 "http://www.w3.org/Graphics/SVG/1.1/DTD/svg11.dtd">
<!-- Generated by graphviz version 2.43.0 (0)
 -->
<!-- Title: Acts::GsfOptions&lt; traj_t &gt; Pages: 1 -->
<svg width="2436pt" height="590pt"
 viewBox="0.00 0.00 2436.00 590.00" xmlns="http://www.w3.org/2000/svg" xmlns:xlink="http://www.w3.org/1999/xlink">
<g id="graph0" class="graph" transform="scale(1 1) rotate(0) translate(4 586)">
<title>Acts::GsfOptions&lt; traj_t &gt;</title>
<!-- Node1 -->
<g id="Node000001" class="node">
<title>Node1</title>
<g id="a_Node000001"><a xlink:title=" ">
<polygon fill="#999999" stroke="#666666" points="2428,-173.5 2282,-173.5 2282,-154.5 2428,-154.5 2428,-173.5"/>
<text text-anchor="middle" x="2355" y="-161.5" font-family="Helvetica,sans-Serif" font-size="10.00">Acts::GsfOptions&lt; traj_t &gt;</text>
</a>
</g>
</g>
<!-- Node2 -->
<g id="Node000002" class="node">
<title>Node2</title>
<g id="a_Node000002"><a xlink:href="struct_acts_1_1_propagator_plain_options.html" target="_top" xlink:title="Holds the generic propagator options.">
<polygon fill="white" stroke="#666666" points="2112,-233.5 1954,-233.5 1954,-214.5 2112,-214.5 2112,-233.5"/>
<text text-anchor="middle" x="2033" y="-221.5" font-family="Helvetica,sans-Serif" font-size="10.00">Acts::PropagatorPlainOptions</text>
</a>
</g>
</g>
<!-- Node2&#45;&gt;Node1 -->
<g id="edge1_Node000001_Node000002" class="edge">
<title>Node2&#45;&gt;Node1</title>
<g id="a_edge1_Node000001_Node000002"><a xlink:title=" ">
<path fill="none" stroke="#9a32cd" stroke-dasharray="5,2" d="M2094.86,-212.59C2155.24,-201.27 2246.7,-184.12 2303.27,-173.51"/>
<polygon fill="#9a32cd" stroke="#9a32cd" points="2093.89,-209.21 2084.7,-214.49 2095.18,-216.09 2093.89,-209.21"/>
</a>
</g>
<text text-anchor="start" x="2140" y="-209.5" font-family="Helvetica,sans-Serif" font-size="10.00" fill="grey">propagatorPlainOptions</text>
</g>
<!-- Node3 -->
<g id="Node000003" class="node">
<title>Node3</title>
<g id="a_Node000003"><a xlink:title=" ">
<polygon fill="white" stroke="#666666" points="1827.5,-302 1675.5,-302 1675.5,-272 1827.5,-272 1827.5,-302"/>
<text text-anchor="start" x="1683.5" y="-290" font-family="Helvetica,sans-Serif" font-size="10.00">Acts::detail::PurePropagator</text>
<text text-anchor="middle" x="1751.5" y="-279" font-family="Helvetica,sans-Serif" font-size="10.00">PlainOptions</text>
</a>
</g>
</g>
<!-- Node3&#45;&gt;Node2 -->
<g id="edge2_Node000002_Node000003" class="edge">
<title>Node3&#45;&gt;Node2</title>
<g id="a_edge2_Node000002_Node000003"><a xlink:title=" ">
<path fill="none" stroke="#63b8ff" d="M1837.6,-276.15C1868.79,-271.37 1904.22,-265 1936,-257 1960.95,-250.72 1988.67,-240.87 2007.88,-233.56"/>
<polygon fill="#63b8ff" stroke="#63b8ff" points="1837.01,-272.7 1827.64,-277.64 1838.05,-279.62 1837.01,-272.7"/>
</a>
</g>
</g>
<!-- Node4 -->
<g id="Node000004" class="node">
<title>Node4</title>
<g id="a_Node000004"><a xlink:href="struct_acts_1_1_stepper_plain_options.html" target="_top" xlink:title=" ">
<polygon fill="white" stroke="#666666" points="1823,-253.5 1680,-253.5 1680,-234.5 1823,-234.5 1823,-253.5"/>
<text text-anchor="middle" x="1751.5" y="-241.5" font-family="Helvetica,sans-Serif" font-size="10.00">Acts::StepperPlainOptions</text>
</a>
</g>
</g>
<!-- Node4&#45;&gt;Node2 -->
<g id="edge3_Node000002_Node000004" class="edge">
<title>Node4&#45;&gt;Node2</title>
<g id="a_edge3_Node000002_Node000004"><a xlink:title=" ">
<path fill="none" stroke="#9a32cd" stroke-dasharray="5,2" d="M1833.01,-238.24C1870.92,-235.53 1915.97,-232.3 1953.61,-229.61"/>
<polygon fill="#9a32cd" stroke="#9a32cd" points="1832.75,-234.75 1823.03,-238.95 1833.25,-241.73 1832.75,-234.75"/>
</a>
</g>
<text text-anchor="start" x="1870" y="-241.5" font-family="Helvetica,sans-Serif" font-size="10.00" fill="grey">stepping</text>
</g>
<!-- Node5 -->
<g id="Node000005" class="node">
<title>Node5</title>
<g id="a_Node000005"><a xlink:href="struct_acts_1_1_stepper_plain_options_1_1_dense.html" target="_top" xlink:title=" ">
<polygon fill="white" stroke="#666666" points="1566,-267 1423,-267 1423,-237 1566,-237 1566,-267"/>
<text text-anchor="start" x="1431" y="-255" font-family="Helvetica,sans-Serif" font-size="10.00">Acts::StepperPlainOptions</text>
<text text-anchor="middle" x="1494.5" y="-244" font-family="Helvetica,sans-Serif" font-size="10.00">::Dense</text>
</a>
</g>
</g>
<!-- Node5&#45;&gt;Node4 -->
<g id="edge4_Node000004_Node000005" class="edge">
<title>Node5&#45;&gt;Node4</title>
<g id="a_edge4_Node000004_Node000005"><a xlink:title=" ">
<path fill="none" stroke="#9a32cd" stroke-dasharray="5,2" d="M1576.32,-249.46C1609.51,-248.42 1647.59,-247.23 1679.67,-246.22"/>
<polygon fill="#9a32cd" stroke="#9a32cd" points="1576.08,-245.97 1566.19,-249.78 1576.3,-252.97 1576.08,-245.97"/>
</a>
</g>
<text text-anchor="start" x="1605.5" y="-254.5" font-family="Helvetica,sans-Serif" font-size="10.00" fill="grey">dense</text>
</g>
<!-- Node6 -->
<g id="Node000006" class="node">
<title>Node6</title>
<g id="a_Node000006"><a xlink:href="struct_acts_1_1_navigator_plain_options.html" target="_top" xlink:title=" ">
<polygon fill="white" stroke="#666666" points="1828,-212.5 1675,-212.5 1675,-193.5 1828,-193.5 1828,-212.5"/>
<text text-anchor="middle" x="1751.5" y="-200.5" font-family="Helvetica,sans-Serif" font-size="10.00">Acts::NavigatorPlainOptions</text>
</a>
</g>
</g>
<!-- Node6&#45;&gt;Node2 -->
<g id="edge5_Node000002_Node000006" class="edge">
<title>Node6&#45;&gt;Node2</title>
<g id="a_edge5_Node000002_Node000006"><a xlink:title=" ">
<path fill="none" stroke="#9a32cd" stroke-dasharray="5,2" d="M1838.35,-204.38C1869.18,-205.38 1904.2,-207.08 1936,-210 1948.24,-211.12 1961.31,-212.74 1973.74,-214.49"/>
<polygon fill="#9a32cd" stroke="#9a32cd" points="1838.16,-200.87 1828.06,-204.07 1837.95,-207.87 1838.16,-200.87"/>
</a>
</g>
<text text-anchor="start" x="1865" y="-215.5" font-family="Helvetica,sans-Serif" font-size="10.00" fill="grey">navigation</text>
</g>
<!-- Node7 -->
<g id="Node000007" class="node">
<title>Node7</title>
<g id="a_Node000007"><a xlink:href="class_acts_1_1_surface.html" target="_top" xlink:title="Abstract Base Class for tracking surfaces.">
<polygon fill="white" stroke="#666666" points="1534.5,-190.5 1454.5,-190.5 1454.5,-171.5 1534.5,-171.5 1534.5,-190.5"/>
<text text-anchor="middle" x="1494.5" y="-178.5" font-family="Helvetica,sans-Serif" font-size="10.00">Acts::Surface</text>
</a>
</g>
</g>
<!-- Node7&#45;&gt;Node1 -->
<g id="edge32_Node000001_Node000007" class="edge">
<title>Node7&#45;&gt;Node1</title>
<g id="a_edge32_Node000001_Node000007"><a xlink:title=" ">
<path fill="none" stroke="#9a32cd" stroke-dasharray="5,2" d="M1544.94,-180.02C1689.51,-177.16 2111.94,-168.79 2281.92,-165.43"/>
<polygon fill="#9a32cd" stroke="#9a32cd" points="1544.55,-176.53 1534.62,-180.23 1544.69,-183.53 1544.55,-176.53"/>
</a>
</g>
<text text-anchor="start" x="1849" y="-178.5" font-family="Helvetica,sans-Serif" font-size="10.00" fill="grey">referenceSurface</text>
</g>
<!-- Node7&#45;&gt;Node6 -->
<g id="edge6_Node000006_Node000007" class="edge">
<title>Node7&#45;&gt;Node6</title>
<g id="a_edge6_Node000006_Node000007"><a xlink:title=" ">
<path fill="none" stroke="#9a32cd" stroke-dasharray="5,2" d="M1544.51,-185.23C1581.4,-188.41 1632.64,-192.83 1674.79,-196.47"/>
<polygon fill="#9a32cd" stroke="#9a32cd" points="1544.77,-181.74 1534.51,-184.37 1544.17,-188.71 1544.77,-181.74"/>
</a>
</g>
<text text-anchor="start" x="1587.5" y="-215" font-family="Helvetica,sans-Serif" font-size="10.00" fill="grey">startSurface</text>
<text text-anchor="start" x="1587.5" y="-200" font-family="Helvetica,sans-Serif" font-size="10.00" fill="grey">targetSurface</text>
</g>
<!-- Node8 -->
<g id="Node000008" class="node">
<title>Node8</title>
<g id="a_Node000008"><a xlink:href="class_acts_1_1_geometry_object.html" target="_top" xlink:title="Base class to provide GeometryIdentifier interface:">
<polygon fill="white" stroke="#666666" points="374,-262.5 250,-262.5 250,-243.5 374,-243.5 374,-262.5"/>
<text text-anchor="middle" x="312" y="-250.5" font-family="Helvetica,sans-Serif" font-size="10.00">Acts::GeometryObject</text>
</a>
</g>
</g>
<!-- Node8&#45;&gt;Node7 -->
<g id="edge7_Node000007_Node000008" class="edge">
<title>Node8&#45;&gt;Node7</title>
<g id="a_edge7_Node000007_Node000008"><a xlink:title=" ">
<path fill="none" stroke="#63b8ff" d="M339.76,-238.81C370.19,-224.03 421.78,-203 469,-203 469,-203 469,-203 1179.5,-203 1278.69,-203 1395.06,-191.94 1454.4,-185.51"/>
<polygon fill="#63b8ff" stroke="#63b8ff" points="338.04,-235.76 330.66,-243.36 341.17,-242.02 338.04,-235.76"/>
</a>
</g>
</g>
<!-- Node16 -->
<g id="Node000016" class="node">
<title>Node16</title>
<g id="a_Node000016"><a xlink:href="class_acts_1_1_layer.html" target="_top" xlink:title="Base Class for a Detector Layer in the Tracking Geometry.">
<polygon fill="white" stroke="#666666" points="1214,-376.5 1143,-376.5 1143,-357.5 1214,-357.5 1214,-376.5"/>
<text text-anchor="middle" x="1178.5" y="-364.5" font-family="Helvetica,sans-Serif" font-size="10.00">Acts::Layer</text>
</a>
</g>
</g>
<!-- Node8&#45;&gt;Node16 -->
<g id="edge16_Node000016_Node000008" class="edge">
<title>Node8&#45;&gt;Node16</title>
<g id="a_edge16_Node000016_Node000008"><a xlink:title=" ">
<path fill="none" stroke="#63b8ff" d="M367.32,-264.57C381.49,-267.31 396.78,-270 411,-272 708.54,-313.81 790.58,-271.34 1084,-336 1108.05,-341.3 1134.63,-350.45 1153.28,-357.43"/>
<polygon fill="#63b8ff" stroke="#63b8ff" points="367.72,-261.08 357.23,-262.59 366.37,-267.95 367.72,-261.08"/>
</a>
</g>
</g>
<!-- Node23 -->
<g id="Node000023" class="node">
<title>Node23</title>
<g id="a_Node000023"><a xlink:href="class_acts_1_1_volume.html" target="_top" xlink:title="It inherits from GeometryObject for geometry identification.">
<polygon fill="white" stroke="#666666" points="510,-262.5 430,-262.5 430,-243.5 510,-243.5 510,-262.5"/>
<text text-anchor="middle" x="470" y="-250.5" font-family="Helvetica,sans-Serif" font-size="10.00">Acts::Volume</text>
</a>
</g>
</g>
<!-- Node8&#45;&gt;Node23 -->
<g id="edge26_Node000023_Node000008" class="edge">
<title>Node8&#45;&gt;Node23</title>
<g id="a_edge26_Node000023_Node000008"><a xlink:title=" ">
<path fill="none" stroke="#63b8ff" d="M384.44,-253C400.12,-253 416.16,-253 430,-253"/>
<polygon fill="#63b8ff" stroke="#63b8ff" points="384.21,-249.5 374.21,-253 384.21,-256.5 384.21,-249.5"/>
</a>
</g>
</g>
<!-- Node9 -->
<g id="Node000009" class="node">
<title>Node9</title>
<g id="a_Node000009"><a xlink:href="class_acts_1_1_geometry_identifier.html" target="_top" xlink:title="Identifier for geometry nodes within the geometry hierarchy.">
<polygon fill="white" stroke="#666666" points="136,-262.5 0,-262.5 0,-243.5 136,-243.5 136,-262.5"/>
<text text-anchor="middle" x="68" y="-250.5" font-family="Helvetica,sans-Serif" font-size="10.00">Acts::GeometryIdentifier</text>
</a>
</g>
</g>
<!-- Node9&#45;&gt;Node8 -->
<g id="edge8_Node000008_Node000009" class="edge">
<title>Node9&#45;&gt;Node8</title>
<g id="a_edge8_Node000008_Node000009"><a xlink:title=" ">
<path fill="none" stroke="#9a32cd" stroke-dasharray="5,2" d="M146.31,-253C179.84,-253 218.54,-253 249.99,-253"/>
<polygon fill="#9a32cd" stroke="#9a32cd" points="146.09,-249.5 136.09,-253 146.09,-256.5 146.09,-249.5"/>
</a>
</g>
<text text-anchor="start" x="157" y="-258.5" font-family="Helvetica,sans-Serif" font-size="10.00" fill="grey">m_geometryId</text>
</g>
<!-- Node10 -->
<g id="Node000010" class="node">
<title>Node10</title>
<g id="a_Node000010"><a xlink:title=" ">
<polygon fill="white" stroke="#666666" points="1242.5,-175 1114.5,-175 1114.5,-145 1242.5,-145 1242.5,-175"/>
<text text-anchor="start" x="1122.5" y="-163" font-family="Helvetica,sans-Serif" font-size="10.00">std::enable_shared</text>
<text text-anchor="middle" x="1178.5" y="-152" font-family="Helvetica,sans-Serif" font-size="10.00">_from_this&lt; Surface &gt;</text>
</a>
</g>
</g>
<!-- Node10&#45;&gt;Node7 -->
<g id="edge9_Node000007_Node000010" class="edge">
<title>Node10&#45;&gt;Node7</title>
<g id="a_edge9_Node000007_Node000010"><a xlink:title=" ">
<path fill="none" stroke="#63b8ff" d="M1252.92,-164.91C1315.81,-169.12 1403.96,-175.01 1454.24,-178.37"/>
<polygon fill="#63b8ff" stroke="#63b8ff" points="1252.88,-161.4 1242.66,-164.22 1252.41,-168.38 1252.88,-161.4"/>
</a>
</g>
</g>
<!-- Node11 -->
<g id="Node000011" class="node">
<title>Node11</title>
<g id="a_Node000011"><a xlink:title=" ">
<polygon fill="white" stroke="#666666" points="1255,-126.5 1102,-126.5 1102,-85.5 1255,-85.5 1255,-126.5"/>
<text text-anchor="start" x="1110" y="-114.5" font-family="Helvetica,sans-Serif" font-size="10.00">std::array&lt; std::string</text>
<text text-anchor="start" x="1110" y="-103.5" font-family="Helvetica,sans-Serif" font-size="10.00">_view, Surface::SurfaceType</text>
<text text-anchor="middle" x="1178.5" y="-92.5" font-family="Helvetica,sans-Serif" font-size="10.00">::Other+1 &gt;</text>
</a>
</g>
</g>
<!-- Node11&#45;&gt;Node7 -->
<g id="edge10_Node000007_Node000011" class="edge">
<title>Node11&#45;&gt;Node7</title>
<g id="a_edge10_Node000007_Node000011"><a xlink:title=" ">
<path fill="none" stroke="#9a32cd" stroke-dasharray="5,2" d="M1265.11,-116.38C1307.66,-122.65 1359.56,-131.99 1405,-145 1429.24,-151.94 1455.89,-163.33 1473.55,-171.44"/>
<polygon fill="#9a32cd" stroke="#9a32cd" points="1265.46,-112.89 1255.06,-114.93 1264.46,-119.82 1265.46,-112.89"/>
</a>
</g>
<text text-anchor="start" x="1287" y="-150.5" font-family="Helvetica,sans-Serif" font-size="10.00" fill="grey">s_surfaceTypeNames</text>
</g>
<!-- Node12 -->
<g id="Node000012" class="node">
<title>Node12</title>
<g id="a_Node000012"><a xlink:title=" ">
<polygon fill="white" stroke="#666666" points="869,-115.5 777,-115.5 777,-96.5 869,-96.5 869,-115.5"/>
<text text-anchor="middle" x="823" y="-103.5" font-family="Helvetica,sans-Serif" font-size="10.00">std::array&lt; T &gt;</text>
</a>
</g>
</g>
<!-- Node12&#45;&gt;Node11 -->
<g id="edge11_Node000011_Node000012" class="edge">
<title>Node12&#45;&gt;Node11</title>
<g id="a_edge11_Node000011_Node000012"><a xlink:title=" ">
<path fill="none" stroke="orange" stroke-dasharray="5,2" d="M879.14,-106C938.95,-106 1034.84,-106 1101.71,-106"/>
<polygon fill="orange" stroke="orange" points="879.13,-102.5 869.13,-106 879.13,-109.5 879.13,-102.5"/>
</a>
</g>
<text text-anchor="start" x="945" y="-141.5" font-family="Helvetica,sans-Serif" font-size="10.00" fill="grey">&lt; std::string_view,</text>
<text text-anchor="start" x="945" y="-126.5" font-family="Helvetica,sans-Serif" font-size="10.00" fill="grey">   Surface::SurfaceType</text>
<text text-anchor="start" x="945" y="-111.5" font-family="Helvetica,sans-Serif" font-size="10.00" fill="grey">  ::Other+1 &gt;</text>
</g>
<!-- Node13 -->
<g id="Node000013" class="node">
<title>Node13</title>
<g id="a_Node000013"><a xlink:title=" ">
<polygon fill="white" stroke="#666666" points="1064.5,-575 937.5,-575 937.5,-545 1064.5,-545 1064.5,-575"/>
<text text-anchor="start" x="945.5" y="-563" font-family="Helvetica,sans-Serif" font-size="10.00">std::unique_ptr&lt; const</text>
<text text-anchor="middle" x="1001" y="-552" font-family="Helvetica,sans-Serif" font-size="10.00"> Transform3 &gt;</text>
</a>
</g>
</g>
<!-- Node13&#45;&gt;Node7 -->
<g id="edge12_Node000007_Node000013" class="edge">
<title>Node13&#45;&gt;Node7</title>
<g id="a_edge12_Node000007_Node000013"><a xlink:title=" ">
<path fill="none" stroke="#9a32cd" stroke-dasharray="5,2" d="M1074.56,-546.47C1168.15,-524.83 1328.01,-472.83 1405,-360 1438.37,-311.09 1391.59,-278.19 1423,-228 1433.85,-210.67 1453.7,-198.3 1469.58,-190.62"/>
<polygon fill="#9a32cd" stroke="#9a32cd" points="1073.59,-543.1 1064.6,-548.71 1075.13,-549.93 1073.59,-543.1"/>
</a>
</g>
<text text-anchor="start" x="1146.5" y="-543.5" font-family="Helvetica,sans-Serif" font-size="10.00" fill="grey">m_transform</text>
</g>
<!-- Node14 -->
<g id="Node000014" class="node">
<title>Node14</title>
<g id="a_Node000014"><a xlink:title=" ">
<polygon fill="white" stroke="#666666" points="529,-486.5 411,-486.5 411,-467.5 529,-467.5 529,-486.5"/>
<text text-anchor="middle" x="470" y="-474.5" font-family="Helvetica,sans-Serif" font-size="10.00">std::unique_ptr&lt; T &gt;</text>
</a>
</g>
</g>
<!-- Node14&#45;&gt;Node13 -->
<g id="edge13_Node000013_Node000014" class="edge">
<title>Node14&#45;&gt;Node13</title>
<g id="a_edge13_Node000013_Node000014"><a xlink:title=" ">
<path fill="none" stroke="orange" stroke-dasharray="5,2" d="M488.45,-493.3C502.93,-505.74 524.7,-522.06 547,-530 679.72,-577.26 847.96,-573.15 937.4,-566.36"/>
<polygon fill="orange" stroke="orange" points="490.61,-490.54 480.81,-486.51 485.96,-495.77 490.61,-490.54"/>
</a>
</g>
<text text-anchor="start" x="584.5" y="-570.5" font-family="Helvetica,sans-Serif" font-size="10.00" fill="grey">&lt; const Transform3 &gt;</text>
</g>
<!-- Node20 -->
<g id="Node000020" class="node">
<title>Node20</title>
<g id="a_Node000020"><a xlink:title=" ">
<polygon fill="white" stroke="#666666" points="886.5,-536 759.5,-536 759.5,-506 886.5,-506 886.5,-536"/>
<text text-anchor="start" x="767.5" y="-524" font-family="Helvetica,sans-Serif" font-size="10.00">std::unique_ptr&lt; const</text>
<text text-anchor="middle" x="823" y="-513" font-family="Helvetica,sans-Serif" font-size="10.00"> Acts::SurfaceArray &gt;</text>
</a>
</g>
</g>
<!-- Node14&#45;&gt;Node20 -->
<g id="edge21_Node000020_Node000014" class="edge">
<title>Node14&#45;&gt;Node20</title>
<g id="a_edge21_Node000020_Node000014"><a xlink:title=" ">
<path fill="none" stroke="orange" stroke-dasharray="5,2" d="M539.32,-485.56C603.1,-493.56 697.48,-505.39 759.36,-513.15"/>
<polygon fill="orange" stroke="orange" points="539.71,-482.09 529.35,-484.32 538.84,-489.03 539.71,-482.09"/>
</a>
</g>
<text text-anchor="start" x="566.5" y="-514.5" font-family="Helvetica,sans-Serif" font-size="10.00" fill="grey">&lt; const Acts::SurfaceArray &gt;</text>
</g>
<!-- Node21 -->
<g id="Node000021" class="node">
<title>Node21</title>
<g id="a_Node000021"><a xlink:title=" ">
<polygon fill="white" stroke="#666666" points="900,-450 746,-450 746,-420 900,-420 900,-450"/>
<text text-anchor="start" x="754" y="-438" font-family="Helvetica,sans-Serif" font-size="10.00">std::unique_ptr&lt; const</text>
<text text-anchor="middle" x="823" y="-427" font-family="Helvetica,sans-Serif" font-size="10.00"> Acts::ApproachDescriptor &gt;</text>
</a>
</g>
</g>
<!-- Node14&#45;&gt;Node21 -->
<g id="edge23_Node000021_Node000014" class="edge">
<title>Node14&#45;&gt;Node21</title>
<g id="a_edge23_Node000021_Node000014"><a xlink:title=" ">
<path fill="none" stroke="orange" stroke-dasharray="5,2" d="M516.2,-465.16C526.28,-462.83 536.96,-460.62 547,-459 613.71,-448.25 690.36,-442.06 745.76,-438.67"/>
<polygon fill="orange" stroke="orange" points="515.28,-461.78 506.36,-467.5 516.9,-468.59 515.28,-461.78"/>
</a>
</g>
<text text-anchor="start" x="550.5" y="-464.5" font-family="Helvetica,sans-Serif" font-size="10.00" fill="grey">&lt; const Acts::ApproachDescriptor &gt;</text>
</g>
<!-- Node24 -->
<g id="Node000024" class="node">
<title>Node24</title>
<g id="a_Node000024"><a xlink:title=" ">
<polygon fill="white" stroke="#666666" points="884,-402 762,-402 762,-372 884,-372 884,-402"/>
<text text-anchor="start" x="770" y="-390" font-family="Helvetica,sans-Serif" font-size="10.00">std::unique_ptr&lt; Acts</text>
<text text-anchor="middle" x="823" y="-379" font-family="Helvetica,sans-Serif" font-size="10.00">::Volume &gt;</text>
</a>
</g>
</g>
<!-- Node14&#45;&gt;Node24 -->
<g id="edge28_Node000024_Node000014" class="edge">
<title>Node14&#45;&gt;Node24</title>
<g id="a_edge28_Node000024_Node000014"><a xlink:title=" ">
<path fill="none" stroke="orange" stroke-dasharray="5,2" d="M487.77,-459.87C502.15,-446.34 524.1,-428.25 547,-419 616.97,-390.74 704.55,-385.11 761.82,-384.98"/>
<polygon fill="orange" stroke="orange" points="484.96,-457.73 480.24,-467.21 489.84,-462.74 484.96,-457.73"/>
</a>
</g>
<text text-anchor="start" x="594.5" y="-424.5" font-family="Helvetica,sans-Serif" font-size="10.00" fill="grey">&lt; Acts::Volume &gt;</text>
</g>
<!-- Node15 -->
<g id="Node000015" class="node">
<title>Node15</title>
<g id="a_Node000015"><a xlink:href="class_acts_1_1_detector_element_base.html" target="_top" xlink:title="This class is the base of all detector elements that are usable by ACTS.">
<polygon fill="white" stroke="#666666" points="1253.5,-67.5 1103.5,-67.5 1103.5,-48.5 1253.5,-48.5 1253.5,-67.5"/>
<text text-anchor="middle" x="1178.5" y="-55.5" font-family="Helvetica,sans-Serif" font-size="10.00">Acts::DetectorElementBase</text>
</a>
</g>
</g>
<!-- Node15&#45;&gt;Node7 -->
<g id="edge14_Node000007_Node000015" class="edge">
<title>Node15&#45;&gt;Node7</title>
<g id="a_edge14_Node000007_Node000015"><a xlink:title=" ">
<path fill="none" stroke="#9a32cd" stroke-dasharray="5,2" d="M1263.78,-61.47C1307.78,-66.05 1361.38,-76.15 1405,-98 1441.16,-116.12 1472.86,-153.75 1486.45,-171.43"/>
<polygon fill="#9a32cd" stroke="#9a32cd" points="1263.97,-57.97 1253.68,-60.49 1263.3,-64.94 1263.97,-57.97"/>
</a>
</g>
<text text-anchor="start" x="1276" y="-103.5" font-family="Helvetica,sans-Serif" font-size="10.00" fill="grey">m_associatedDetElement</text>
</g>
<!-- Node16&#45;&gt;Node7 -->
<g id="edge15_Node000007_Node000016" class="edge">
<title>Node16&#45;&gt;Node7</title>
<g id="a_edge15_Node000007_Node000016"><a xlink:title=" ">
<path fill="none" stroke="#9a32cd" stroke-dasharray="5,2" d="M1223.88,-355.97C1273.34,-341.72 1353.16,-312.67 1405,-263 1417.63,-250.9 1411.35,-241.05 1423,-228 1437.4,-211.87 1458.51,-198.77 1473.87,-190.53"/>
<polygon fill="#9a32cd" stroke="#9a32cd" points="1222.8,-352.64 1214.11,-358.7 1224.69,-359.38 1222.8,-352.64"/>
</a>
</g>
<text text-anchor="start" x="1292" y="-344.5" font-family="Helvetica,sans-Serif" font-size="10.00" fill="grey">m_associatedLayer</text>
</g>
<!-- Node17 -->
<g id="Node000017" class="node">
<title>Node17</title>
<g id="a_Node000017"><a xlink:title=" ">
<polygon fill="white" stroke="#666666" points="885,-354 761,-354 761,-324 885,-324 885,-354"/>
<text text-anchor="start" x="769" y="-342" font-family="Helvetica,sans-Serif" font-size="10.00">std::pair&lt; const Layer</text>
<text text-anchor="middle" x="823" y="-331" font-family="Helvetica,sans-Serif" font-size="10.00"> *, const Layer * &gt;</text>
</a>
</g>
</g>
<!-- Node17&#45;&gt;Node16 -->
<g id="edge17_Node000016_Node000017" class="edge">
<title>Node17&#45;&gt;Node16</title>
<g id="a_edge17_Node000016_Node000017"><a xlink:title=" ">
<path fill="none" stroke="#9a32cd" stroke-dasharray="5,2" d="M895.29,-339.92C947.64,-341.18 1020.4,-344.12 1084,-351 1103.48,-353.11 1125.06,-356.71 1142.57,-359.97"/>
<polygon fill="#9a32cd" stroke="#9a32cd" points="895.18,-336.42 885.1,-339.7 895.02,-343.42 895.18,-336.42"/>
</a>
</g>
<text text-anchor="start" x="966" y="-356.5" font-family="Helvetica,sans-Serif" font-size="10.00" fill="grey">m_nextLayers</text>
</g>
<!-- Node18 -->
<g id="Node000018" class="node">
<title>Node18</title>
<g id="a_Node000018"><a xlink:title=" ">
<polygon fill="white" stroke="#666666" points="524.5,-348.5 415.5,-348.5 415.5,-329.5 524.5,-329.5 524.5,-348.5"/>
<text text-anchor="middle" x="470" y="-336.5" font-family="Helvetica,sans-Serif" font-size="10.00">std::pair&lt; T1, T2 &gt;</text>
</a>
</g>
</g>
<!-- Node18&#45;&gt;Node17 -->
<g id="edge18_Node000017_Node000018" class="edge">
<title>Node18&#45;&gt;Node17</title>
<g id="a_edge18_Node000017_Node000018"><a xlink:title=" ">
<path fill="none" stroke="orange" stroke-dasharray="5,2" d="M534.71,-339C599,-339 697.6,-339 760.94,-339"/>
<polygon fill="orange" stroke="orange" points="534.69,-335.5 524.69,-339 534.69,-342.5 534.69,-335.5"/>
</a>
</g>
<text text-anchor="start" x="583.5" y="-360" font-family="Helvetica,sans-Serif" font-size="10.00" fill="grey">&lt; const Layer *, const</text>
<text text-anchor="start" x="583.5" y="-345" font-family="Helvetica,sans-Serif" font-size="10.00" fill="grey">   Layer * &gt;</text>
</g>
<!-- Node19 -->
<g id="Node000019" class="node">
<title>Node19</title>
<g id="a_Node000019"><a xlink:href="class_acts_1_1_bin_utility.html" target="_top" xlink:title="The BinUtility class that translated global and local position into a bins of a BinnedArray,...">
<polygon fill="white" stroke="#666666" points="867.5,-487.5 778.5,-487.5 778.5,-468.5 867.5,-468.5 867.5,-487.5"/>
<text text-anchor="middle" x="823" y="-475.5" font-family="Helvetica,sans-Serif" font-size="10.00">Acts::BinUtility</text>
</a>
</g>
</g>
<!-- Node19&#45;&gt;Node16 -->
<g id="edge19_Node000016_Node000019" class="edge">
<title>Node19&#45;&gt;Node16</title>
<g id="a_edge19_Node000016_Node000019"><a xlink:title=" ">
<path fill="none" stroke="#9a32cd" stroke-dasharray="5,2" d="M877.73,-475.53C942.81,-471.89 1048.17,-463.76 1084,-448 1121.75,-431.4 1155.47,-394.14 1169.97,-376.54"/>
<polygon fill="#9a32cd" stroke="#9a32cd" points="877.45,-472.04 867.65,-476.07 877.83,-479.03 877.45,-472.04"/>
</a>
</g>
<text text-anchor="start" x="954" y="-477.5" font-family="Helvetica,sans-Serif" font-size="10.00" fill="grey">m_nextLayerUtility</text>
</g>
<!-- Node20&#45;&gt;Node16 -->
<g id="edge20_Node000016_Node000020" class="edge">
<title>Node20&#45;&gt;Node16</title>
<g id="a_edge20_Node000016_Node000020"><a xlink:title=" ">
<path fill="none" stroke="#9a32cd" stroke-dasharray="5,2" d="M896.88,-519.61C962.45,-517.21 1053.1,-510.69 1084,-493 1096.47,-485.86 1151.9,-404.89 1171,-376.65"/>
<polygon fill="#9a32cd" stroke="#9a32cd" points="896.46,-516.12 886.58,-519.96 896.69,-523.12 896.46,-516.12"/>
</a>
</g>
<text text-anchor="start" x="962" y="-523.5" font-family="Helvetica,sans-Serif" font-size="10.00" fill="grey">m_surfaceArray</text>
</g>
<!-- Node21&#45;&gt;Node16 -->
<g id="edge22_Node000016_Node000021" class="edge">
<title>Node21&#45;&gt;Node16</title>
<g id="a_edge22_Node000016_Node000021"><a xlink:title=" ">
<path fill="none" stroke="#9a32cd" stroke-dasharray="5,2" d="M910.24,-429.1C961.3,-424.37 1026.95,-416.09 1084,-402 1109.58,-395.68 1137.74,-384.53 1156.41,-376.51"/>
<polygon fill="#9a32cd" stroke="#9a32cd" points="909.87,-425.62 900.23,-430 910.5,-432.59 909.87,-425.62"/>
</a>
</g>
<text text-anchor="start" x="946" y="-432.5" font-family="Helvetica,sans-Serif" font-size="10.00" fill="grey">m_approachDescriptor</text>
</g>
<!-- Node22 -->
<g id="Node000022" class="node">
<title>Node22</title>
<g id="a_Node000022"><a xlink:href="class_acts_1_1_tracking_volume.html" target="_top" xlink:title="Full Volume description used in Tracking, it inherits from Volume to get the geometrical structure.">
<polygon fill="white" stroke="#666666" points="883.5,-262.5 762.5,-262.5 762.5,-243.5 883.5,-243.5 883.5,-262.5"/>
<text text-anchor="middle" x="823" y="-250.5" font-family="Helvetica,sans-Serif" font-size="10.00">Acts::TrackingVolume</text>
</a>
</g>
</g>
<!-- Node22&#45;&gt;Node7 -->
<g id="edge29_Node000007_Node000022" class="edge">
<title>Node22&#45;&gt;Node7</title>
<g id="a_edge29_Node000007_Node000022"><a xlink:title=" ">
<path fill="none" stroke="#9a32cd" stroke-dasharray="5,2" d="M894.19,-255.9C1004.47,-258.84 1224.35,-258.18 1405,-217 1430.23,-211.25 1457.57,-199.14 1475.09,-190.56"/>
<polygon fill="#9a32cd" stroke="#9a32cd" points="893.96,-252.39 883.87,-255.6 893.76,-259.39 893.96,-252.39"/>
</a>
</g>
<text text-anchor="start" x="1106.5" y="-258.5" font-family="Helvetica,sans-Serif" font-size="10.00" fill="grey">m_associatedTrackingVolume</text>
</g>
<!-- Node22&#45;&gt;Node16 -->
<g id="edge24_Node000016_Node000022" class="edge">
<title>Node22&#45;&gt;Node16</title>
<g id="a_edge24_Node000016_Node000022"><a xlink:title=" ">
<path fill="none" stroke="#9a32cd" stroke-dasharray="5,2" d="M893.79,-258.85C964.87,-265.16 1067,-275.34 1084,-283 1122.4,-300.3 1156.04,-339.26 1170.28,-357.39"/>
<polygon fill="#9a32cd" stroke="#9a32cd" points="893.81,-255.34 883.55,-257.95 893.2,-262.31 893.81,-255.34"/>
</a>
</g>
<text text-anchor="start" x="955" y="-288.5" font-family="Helvetica,sans-Serif" font-size="10.00" fill="grey">m_trackingVolume</text>
</g>
<!-- Node23&#45;&gt;Node22 -->
<g id="edge25_Node000022_Node000023" class="edge">
<title>Node23&#45;&gt;Node22</title>
<g id="a_edge25_Node000022_Node000023"><a xlink:title=" ">
<path fill="none" stroke="#63b8ff" d="M520.4,-253C583.91,-253 694.11,-253 762.26,-253"/>
<polygon fill="#63b8ff" stroke="#63b8ff" points="520.24,-249.5 510.24,-253 520.24,-256.5 520.24,-249.5"/>
</a>
</g>
</g>
<!-- Node24&#45;&gt;Node16 -->
<g id="edge27_Node000016_Node000024" class="edge">
<title>Node24&#45;&gt;Node16</title>
<g id="a_edge27_Node000016_Node000024"><a xlink:title=" ">
<path fill="none" stroke="#9a32cd" stroke-dasharray="5,2" d="M894.68,-383C969.7,-378.76 1085.2,-372.22 1142.61,-368.97"/>
<polygon fill="#9a32cd" stroke="#9a32cd" points="894.15,-379.53 884.37,-383.58 894.55,-386.51 894.15,-379.53"/>
</a>
</g>
<text text-anchor="start" x="944" y="-386.5" font-family="Helvetica,sans-Serif" font-size="10.00" fill="grey">m_representingVolume</text>
</g>
<!-- Node25 -->
<g id="Node000025" class="node">
<title>Node25</title>
<g id="a_Node000025"><a xlink:title=" ">
<polygon fill="white" stroke="#666666" points="1247.5,-30 1109.5,-30 1109.5,0 1247.5,0 1247.5,-30"/>
<text text-anchor="start" x="1117.5" y="-18" font-family="Helvetica,sans-Serif" font-size="10.00">std::shared_ptr&lt; const</text>
<text text-anchor="middle" x="1178.5" y="-7" font-family="Helvetica,sans-Serif" font-size="10.00"> Acts::ISurfaceMaterial &gt;</text>
</a>
</g>
</g>
<!-- Node25&#45;&gt;Node7 -->
<g id="edge30_Node000007_Node000025" class="edge">
<title>Node25&#45;&gt;Node7</title>
<g id="a_edge30_Node000007_Node000025"><a xlink:title=" ">
<path fill="none" stroke="#9a32cd" stroke-dasharray="5,2" d="M1257.91,-8.35C1304,-8.16 1361.56,-14.67 1405,-42 1455.13,-73.53 1482.05,-144.95 1490.52,-171.14"/>
<polygon fill="#9a32cd" stroke="#9a32cd" points="1257.61,-4.85 1247.66,-8.5 1257.71,-11.85 1257.61,-4.85"/>
</a>
</g>
<text text-anchor="start" x="1293" y="-47.5" font-family="Helvetica,sans-Serif" font-size="10.00" fill="grey">m_surfaceMaterial</text>
</g>
<!-- Node26 -->
<g id="Node000026" class="node">
<title>Node26</title>
<g id="a_Node000026"><a xlink:title=" ">
<polygon fill="white" stroke="#666666" points="882,-24.5 764,-24.5 764,-5.5 882,-5.5 882,-24.5"/>
<text text-anchor="middle" x="823" y="-12.5" font-family="Helvetica,sans-Serif" font-size="10.00">std::shared_ptr&lt; T &gt;</text>
</a>
</g>
</g>
<!-- Node26&#45;&gt;Node25 -->
<g id="edge31_Node000025_Node000026" class="edge">
<title>Node26&#45;&gt;Node25</title>
<g id="a_edge31_Node000025_Node000026"><a xlink:title=" ">
<path fill="none" stroke="orange" stroke-dasharray="5,2" d="M892.53,-15C955.06,-15 1046.95,-15 1109.35,-15"/>
<polygon fill="orange" stroke="orange" points="892.37,-11.5 882.37,-15 892.37,-18.5 892.37,-11.5"/>
</a>
</g>
<text text-anchor="start" x="921" y="-20.5" font-family="Helvetica,sans-Serif" font-size="10.00" fill="grey">&lt; const Acts::ISurfaceMaterial &gt;</text>
</g>
<!-- Node27 -->
<g id="Node000027" class="node">
<title>Node27</title>
<g id="a_Node000027"><a xlink:title=" ">
<polygon fill="white" stroke="#666666" points="2080,-126.5 1986,-126.5 1986,-107.5 2080,-107.5 2080,-126.5"/>
<text text-anchor="middle" x="2033" y="-114.5" font-family="Helvetica,sans-Serif" font-size="10.00">std::string_view</text>
</a>
</g>
</g>
<!-- Node27&#45;&gt;Node1 -->
<g id="edge33_Node000001_Node000027" class="edge">
<title>Node27&#45;&gt;Node1</title>
<g id="a_edge33_Node000001_Node000027"><a xlink:title=" ">
<path fill="none" stroke="#9a32cd" stroke-dasharray="5,2" d="M2090.15,-110.06C2137.27,-105.93 2205.98,-103.9 2264,-118 2293.16,-125.09 2323.52,-143.23 2340.47,-154.5"/>
<polygon fill="#9a32cd" stroke="#9a32cd" points="2089.77,-106.58 2080.14,-110.99 2090.43,-113.55 2089.77,-106.58"/>
</a>
</g>
<text text-anchor="start" x="2133" y="-139" font-family="Helvetica,sans-Serif" font-size="10.00" fill="grey">finalMultiComponentState</text>
<text text-anchor="start" x="2133" y="-124" font-family="Helvetica,sans-Serif" font-size="10.00" fill="grey">  Column</text>
</g>
<!-- Node28 -->
<g id="Node000028" class="node">
<title>Node28</title>
<g id="a_Node000028"><a xlink:title=" ">
<polygon fill="white" stroke="#666666" points="1814,-132 1689,-132 1689,-102 1814,-102 1814,-132"/>
<text text-anchor="start" x="1697" y="-120" font-family="Helvetica,sans-Serif" font-size="10.00">std::basic_string_view</text>
<text text-anchor="middle" x="1751.5" y="-109" font-family="Helvetica,sans-Serif" font-size="10.00">&lt; Char &gt;</text>
</a>
</g>
</g>
<!-- Node28&#45;&gt;Node27 -->
<g id="edge34_Node000027_Node000028" class="edge">
<title>Node28&#45;&gt;Node27</title>
<g id="a_edge34_Node000027_Node000028"><a xlink:title=" ">
<path fill="none" stroke="#63b8ff" d="M1824.44,-117C1875.23,-117 1941.78,-117 1985.66,-117"/>
<polygon fill="#63b8ff" stroke="#63b8ff" points="1824.18,-113.5 1814.18,-117 1824.18,-120.5 1824.18,-113.5"/>
</a>
</g>
</g>
</g>
</svg>
