<?xml version="1.0" encoding="UTF-8" standalone="no"?>
<!DOCTYPE svg PUBLIC "-//W3C//DTD SVG 1.1//EN"
 "http://www.w3.org/Graphics/SVG/1.1/DTD/svg11.dtd">
<!-- Generated by graphviz version 2.43.0 (0)
 -->
<!-- Title: Acts::SeedFinderOrthogonalConfig&lt; SpacePoint &gt; Pages: 1 -->
<svg width="832pt" height="246pt"
 viewBox="0.00 0.00 832.00 246.00" xmlns="http://www.w3.org/2000/svg" xmlns:xlink="http://www.w3.org/1999/xlink">
<g id="graph0" class="graph" transform="scale(1 1) rotate(0) translate(4 242)">
<title>Acts::SeedFinderOrthogonalConfig&lt; SpacePoint &gt;</title>
<!-- Node1 -->
<g id="Node000001" class="node">
<title>Node1</title>
<g id="a_Node000001"><a xlink:title="Structure that holds configuration parameters for the orthogonal seed finder algorithm.">
<polygon fill="#999999" stroke="#666666" points="824,-133 672,-133 672,-103 824,-103 824,-133"/>
<text text-anchor="start" x="680" y="-121" font-family="Helvetica,sans-Serif" font-size="10.00">Acts::SeedFinderOrthogonal</text>
<text text-anchor="middle" x="748" y="-110" font-family="Helvetica,sans-Serif" font-size="10.00">Config&lt; SpacePoint &gt;</text>
</a>
</g>
</g>
<!-- Node2 -->
<g id="Node000002" class="node">
<title>Node2</title>
<g id="a_Node000002"><a xlink:title=" ">
<polygon fill="white" stroke="#666666" points="473,-221 314,-221 314,-191 473,-191 473,-221"/>
<text text-anchor="start" x="322" y="-209" font-family="Helvetica,sans-Serif" font-size="10.00">std::shared_ptr&lt; Acts</text>
<text text-anchor="middle" x="393.5" y="-198" font-family="Helvetica,sans-Serif" font-size="10.00">::SeedFilter&lt; SpacePoint &gt; &gt;</text>
</a>
</g>
</g>
<!-- Node2&#45;&gt;Node1 -->
<g id="edge1_Node000001_Node000002" class="edge">
<title>Node2&#45;&gt;Node1</title>
<g id="a_edge1_Node000001_Node000002"><a xlink:title=" ">
<path fill="none" stroke="#9a32cd" stroke-dasharray="5,2" d="M483.05,-203.64C534.17,-200.1 599.02,-191.85 654,-173 681.15,-163.69 709.07,-145.86 727.13,-133.03"/>
<polygon fill="#9a32cd" stroke="#9a32cd" points="482.77,-200.15 473.01,-204.28 483.22,-207.13 482.77,-200.15"/>
</a>
</g>
<text text-anchor="start" x="549" y="-207.5" font-family="Helvetica,sans-Serif" font-size="10.00" fill="grey">seedFilter</text>
</g>
<!-- Node3 -->
<g id="Node000003" class="node">
<title>Node3</title>
<g id="a_Node000003"><a xlink:title=" ">
<polygon fill="white" stroke="#666666" points="135,-215.5 17,-215.5 17,-196.5 135,-196.5 135,-215.5"/>
<text text-anchor="middle" x="76" y="-203.5" font-family="Helvetica,sans-Serif" font-size="10.00">std::shared_ptr&lt; T &gt;</text>
</a>
</g>
</g>
<!-- Node3&#45;&gt;Node2 -->
<g id="edge2_Node000002_Node000003" class="edge">
<title>Node3&#45;&gt;Node2</title>
<g id="a_edge2_Node000002_Node000003"><a xlink:title=" ">
<path fill="none" stroke="orange" stroke-dasharray="5,2" d="M145.53,-206C195.06,-206 262.07,-206 313.79,-206"/>
<polygon fill="orange" stroke="orange" points="145.24,-202.5 135.24,-206 145.24,-209.5 145.24,-202.5"/>
</a>
</g>
<text text-anchor="start" x="185.5" y="-227" font-family="Helvetica,sans-Serif" font-size="10.00" fill="grey">&lt; Acts::SeedFilter</text>
<text text-anchor="start" x="185.5" y="-212" font-family="Helvetica,sans-Serif" font-size="10.00" fill="grey">  &lt; SpacePoint &gt; &gt;</text>
</g>
<!-- Node4 -->
<g id="Node000004" class="node">
<title>Node4</title>
<g id="a_Node000004"><a xlink:title=" ">
<polygon fill="white" stroke="#666666" points="459,-173 328,-173 328,-143 459,-143 459,-173"/>
<text text-anchor="start" x="336" y="-161" font-family="Helvetica,sans-Serif" font-size="10.00">std::vector&lt; std::vector</text>
<text text-anchor="middle" x="393.5" y="-150" font-family="Helvetica,sans-Serif" font-size="10.00">&lt; float &gt; &gt;</text>
</a>
</g>
</g>
<!-- Node4&#45;&gt;Node1 -->
<g id="edge3_Node000001_Node000004" class="edge">
<title>Node4&#45;&gt;Node1</title>
<g id="a_edge3_Node000001_Node000004"><a xlink:title=" ">
<path fill="none" stroke="#9a32cd" stroke-dasharray="5,2" d="M469.37,-153.77C521.33,-150.32 592.07,-144.59 654,-136 660.27,-135.13 666.76,-134.11 673.26,-133.02"/>
<polygon fill="#9a32cd" stroke="#9a32cd" points="468.98,-150.29 459.23,-154.43 469.44,-157.28 468.98,-150.29"/>
</a>
</g>
<text text-anchor="start" x="533" y="-157.5" font-family="Helvetica,sans-Serif" font-size="10.00" fill="grey">rRangeMiddleSP</text>
</g>
<!-- Node5 -->
<g id="Node000005" class="node">
<title>Node5</title>
<g id="a_Node000005"><a xlink:title=" ">
<polygon fill="white" stroke="#666666" points="124.5,-167.5 27.5,-167.5 27.5,-148.5 124.5,-148.5 124.5,-167.5"/>
<text text-anchor="middle" x="76" y="-155.5" font-family="Helvetica,sans-Serif" font-size="10.00">std::vector&lt; T &gt;</text>
</a>
</g>
</g>
<!-- Node5&#45;&gt;Node4 -->
<g id="edge4_Node000004_Node000005" class="edge">
<title>Node5&#45;&gt;Node4</title>
<g id="a_edge4_Node000004_Node000005"><a xlink:title=" ">
<path fill="none" stroke="orange" stroke-dasharray="5,2" d="M134.78,-158C189.35,-158 271.09,-158 327.82,-158"/>
<polygon fill="orange" stroke="orange" points="134.58,-154.5 124.58,-158 134.58,-161.5 134.58,-154.5"/>
</a>
</g>
<text text-anchor="start" x="173.5" y="-163.5" font-family="Helvetica,sans-Serif" font-size="10.00" fill="grey">&lt; std::vector&lt; float &gt; &gt;</text>
</g>
<!-- Node6 -->
<g id="Node000006" class="node">
<title>Node6</title>
<g id="a_Node000006"><a xlink:title=" ">
<polygon fill="white" stroke="#666666" points="457.5,-124.5 329.5,-124.5 329.5,-105.5 457.5,-105.5 457.5,-124.5"/>
<text text-anchor="middle" x="393.5" y="-112.5" font-family="Helvetica,sans-Serif" font-size="10.00">std::pair&lt; float, float &gt;</text>
</a>
</g>
</g>
<!-- Node6&#45;&gt;Node1 -->
<g id="edge5_Node000001_Node000006" class="edge">
<title>Node6&#45;&gt;Node1</title>
<g id="a_edge5_Node000001_Node000006"><a xlink:title=" ">
<path fill="none" stroke="#9a32cd" stroke-dasharray="5,2" d="M467.64,-115.62C527.45,-116.13 611.68,-116.85 671.98,-117.36"/>
<polygon fill="#9a32cd" stroke="#9a32cd" points="467.55,-112.12 457.52,-115.54 467.49,-119.12 467.55,-112.12"/>
</a>
</g>
<text text-anchor="start" x="528" y="-122.5" font-family="Helvetica,sans-Serif" font-size="10.00" fill="grey">zOutermostLayers</text>
</g>
<!-- Node7 -->
<g id="Node000007" class="node">
<title>Node7</title>
<g id="a_Node000007"><a xlink:title=" ">
<polygon fill="white" stroke="#666666" points="130.5,-124.5 21.5,-124.5 21.5,-105.5 130.5,-105.5 130.5,-124.5"/>
<text text-anchor="middle" x="76" y="-112.5" font-family="Helvetica,sans-Serif" font-size="10.00">std::pair&lt; T1, T2 &gt;</text>
</a>
</g>
</g>
<!-- Node7&#45;&gt;Node6 -->
<g id="edge6_Node000006_Node000007" class="edge">
<title>Node7&#45;&gt;Node6</title>
<g id="a_edge6_Node000006_Node000007"><a xlink:title=" ">
<path fill="none" stroke="orange" stroke-dasharray="5,2" d="M140.84,-115C195.82,-115 274.73,-115 329.47,-115"/>
<polygon fill="orange" stroke="orange" points="140.52,-111.5 130.52,-115 140.52,-118.5 140.52,-111.5"/>
</a>
</g>
<text text-anchor="start" x="196.5" y="-120.5" font-family="Helvetica,sans-Serif" font-size="10.00" fill="grey">&lt; float, float &gt;</text>
</g>
<!-- Node8 -->
<g id="Node000008" class="node">
<title>Node8</title>
<g id="a_Node000008"><a xlink:href="struct_acts_1_1_seed_confirmation_range_config.html" target="_top" xlink:title="Contains parameters for quality seed confirmation.">
<polygon fill="white" stroke="#666666" points="474,-78 313,-78 313,-48 474,-48 474,-78"/>
<text text-anchor="start" x="321" y="-66" font-family="Helvetica,sans-Serif" font-size="10.00">Acts::SeedConfirmationRange</text>
<text text-anchor="middle" x="393.5" y="-55" font-family="Helvetica,sans-Serif" font-size="10.00">Config</text>
</a>
</g>
</g>
<!-- Node8&#45;&gt;Node1 -->
<g id="edge7_Node000001_Node000008" class="edge">
<title>Node8&#45;&gt;Node1</title>
<g id="a_edge7_Node000001_Node000008"><a xlink:title=" ">
<path fill="none" stroke="#9a32cd" stroke-dasharray="5,2" d="M484.37,-61.18C534.82,-61.99 598.59,-66.06 654,-79 676.34,-84.21 700.16,-94.3 718.11,-102.91"/>
<polygon fill="#9a32cd" stroke="#9a32cd" points="484.18,-57.68 474.13,-61.06 484.09,-64.68 484.18,-57.68"/>
</a>
</g>
<text text-anchor="start" x="495" y="-100" font-family="Helvetica,sans-Serif" font-size="10.00" fill="grey">centralSeedConfirmationRange</text>
<text text-anchor="start" x="495" y="-85" font-family="Helvetica,sans-Serif" font-size="10.00" fill="grey">forwardSeedConfirmationRange</text>
</g>
<!-- Node9 -->
<g id="Node000009" class="node">
<title>Node9</title>
<g id="a_Node000009"><a xlink:href="class_acts_1_1_delegate.html" target="_top" xlink:title=" ">
<polygon fill="white" stroke="#666666" points="453.5,-30 333.5,-30 333.5,0 453.5,0 453.5,-30"/>
<text text-anchor="start" x="341.5" y="-18" font-family="Helvetica,sans-Serif" font-size="10.00">Acts::Delegate&lt; bool</text>
<text text-anchor="middle" x="393.5" y="-7" font-family="Helvetica,sans-Serif" font-size="10.00">(float, float)&gt;</text>
</a>
</g>
</g>
<!-- Node9&#45;&gt;Node1 -->
<g id="edge8_Node000001_Node000009" class="edge">
<title>Node9&#45;&gt;Node1</title>
<g id="a_edge8_Node000001_Node000009"><a xlink:title=" ">
<path fill="none" stroke="#9a32cd" stroke-dasharray="5,2" d="M463.73,-10.72C517.62,-9.94 593.22,-14.52 654,-40 687.43,-54.01 717.92,-84.41 734.33,-102.84"/>
<polygon fill="#9a32cd" stroke="#9a32cd" points="463.52,-7.23 453.59,-10.94 463.67,-14.23 463.52,-7.23"/>
</a>
</g>
<text text-anchor="start" x="534" y="-45.5" font-family="Helvetica,sans-Serif" font-size="10.00" fill="grey">experimentCuts</text>
</g>
<!-- Node10 -->
<g id="Node000010" class="node">
<title>Node10</title>
<g id="a_Node000010"><a xlink:href="class_acts_1_1_delegate.html" target="_top" xlink:title=" ">
<polygon fill="white" stroke="#666666" points="152,-30 0,-30 0,0 152,0 152,-30"/>
<text text-anchor="start" x="8" y="-18" font-family="Helvetica,sans-Serif" font-size="10.00">Acts::Delegate&lt; typename,</text>
<text text-anchor="middle" x="76" y="-7" font-family="Helvetica,sans-Serif" font-size="10.00"> H, DelegateType &gt;</text>
</a>
</g>
</g>
<!-- Node10&#45;&gt;Node9 -->
<g id="edge9_Node000009_Node000010" class="edge">
<title>Node10&#45;&gt;Node9</title>
<g id="a_edge9_Node000009_Node000010"><a xlink:title=" ">
<path fill="none" stroke="orange" stroke-dasharray="5,2" d="M162.45,-15C216.6,-15 285.26,-15 333.42,-15"/>
<polygon fill="orange" stroke="orange" points="162.17,-11.5 152.17,-15 162.17,-18.5 162.17,-11.5"/>
</a>
</g>
<text text-anchor="start" x="183.5" y="-20.5" font-family="Helvetica,sans-Serif" font-size="10.00" fill="grey">&lt; bool(float, float)&gt;</text>
</g>
</g>
</svg>
