<?xml version="1.0" encoding="UTF-8" standalone="no"?>
<!DOCTYPE svg PUBLIC "-//W3C//DTD SVG 1.1//EN"
 "http://www.w3.org/Graphics/SVG/1.1/DTD/svg11.dtd">
<!-- Generated by graphviz version 2.43.0 (0)
 -->
<!-- Title: Acts::DirectNavigator::Options Pages: 1 -->
<svg width="2025pt" height="594pt"
 viewBox="0.00 0.00 2025.00 593.63" xmlns="http://www.w3.org/2000/svg" xmlns:xlink="http://www.w3.org/1999/xlink">
<g id="graph0" class="graph" transform="scale(1 1) rotate(0) translate(4 589.63)">
<title>Acts::DirectNavigator::Options</title>
<!-- Node1 -->
<g id="Node000001" class="node">
<title>Node1</title>
<g id="a_Node000001"><a xlink:title="The nested options struct.">
<polygon fill="#999999" stroke="#666666" points="2017,-177.63 1896,-177.63 1896,-147.63 2017,-147.63 2017,-177.63"/>
<text text-anchor="start" x="1904" y="-165.63" font-family="Helvetica,sans-Serif" font-size="10.00">Acts::DirectNavigator</text>
<text text-anchor="middle" x="1956.5" y="-154.63" font-family="Helvetica,sans-Serif" font-size="10.00">::Options</text>
</a>
</g>
</g>
<!-- Node2 -->
<g id="Node000002" class="node">
<title>Node2</title>
<g id="a_Node000002"><a xlink:href="struct_acts_1_1_navigator_plain_options.html" target="_top" xlink:title=" ">
<polygon fill="white" stroke="#666666" points="1812,-194.13 1659,-194.13 1659,-175.13 1812,-175.13 1812,-194.13"/>
<text text-anchor="middle" x="1735.5" y="-182.13" font-family="Helvetica,sans-Serif" font-size="10.00">Acts::NavigatorPlainOptions</text>
</a>
</g>
</g>
<!-- Node2&#45;&gt;Node1 -->
<g id="edge1_Node000001_Node000002" class="edge">
<title>Node2&#45;&gt;Node1</title>
<g id="a_edge1_Node000001_Node000002"><a xlink:title=" ">
<path fill="none" stroke="#63b8ff" d="M1822.22,-176.02C1846.8,-173.55 1873.06,-170.91 1895.71,-168.63"/>
<polygon fill="#63b8ff" stroke="#63b8ff" points="1821.77,-172.54 1812.17,-177.03 1822.47,-179.51 1821.77,-172.54"/>
</a>
</g>
</g>
<!-- Node3 -->
<g id="Node000003" class="node">
<title>Node3</title>
<g id="a_Node000003"><a xlink:href="class_acts_1_1_surface.html" target="_top" xlink:title="Abstract Base Class for tracking surfaces.">
<polygon fill="white" stroke="#666666" points="1511.5,-194.13 1431.5,-194.13 1431.5,-175.13 1511.5,-175.13 1511.5,-194.13"/>
<text text-anchor="middle" x="1471.5" y="-182.13" font-family="Helvetica,sans-Serif" font-size="10.00">Acts::Surface</text>
</a>
</g>
</g>
<!-- Node3&#45;&gt;Node2 -->
<g id="edge2_Node000002_Node000003" class="edge">
<title>Node3&#45;&gt;Node2</title>
<g id="a_edge2_Node000002_Node000003"><a xlink:title=" ">
<path fill="none" stroke="#9a32cd" stroke-dasharray="5,2" d="M1522.17,-184.63C1560.75,-184.63 1614.91,-184.63 1658.87,-184.63"/>
<polygon fill="#9a32cd" stroke="#9a32cd" points="1521.72,-181.13 1511.72,-184.63 1521.72,-188.13 1521.72,-181.13"/>
</a>
</g>
<text text-anchor="start" x="1556.5" y="-205.63" font-family="Helvetica,sans-Serif" font-size="10.00" fill="grey">startSurface</text>
<text text-anchor="start" x="1556.5" y="-190.63" font-family="Helvetica,sans-Serif" font-size="10.00" fill="grey">targetSurface</text>
</g>
<!-- Node4 -->
<g id="Node000004" class="node">
<title>Node4</title>
<g id="a_Node000004"><a xlink:href="class_acts_1_1_geometry_object.html" target="_top" xlink:title="Base class to provide GeometryIdentifier interface:">
<polygon fill="white" stroke="#666666" points="374,-266.13 250,-266.13 250,-247.13 374,-247.13 374,-266.13"/>
<text text-anchor="middle" x="312" y="-254.13" font-family="Helvetica,sans-Serif" font-size="10.00">Acts::GeometryObject</text>
</a>
</g>
</g>
<!-- Node4&#45;&gt;Node3 -->
<g id="edge3_Node000003_Node000004" class="edge">
<title>Node4&#45;&gt;Node3</title>
<g id="a_edge3_Node000003_Node000004"><a xlink:title=" ">
<path fill="none" stroke="#63b8ff" d="M339.76,-242.44C370.19,-227.66 421.78,-206.63 469,-206.63 469,-206.63 469,-206.63 1179.5,-206.63 1269.68,-206.63 1375.14,-195.99 1431.03,-189.51"/>
<polygon fill="#63b8ff" stroke="#63b8ff" points="338.04,-239.39 330.66,-246.99 341.17,-245.65 338.04,-239.39"/>
</a>
</g>
</g>
<!-- Node12 -->
<g id="Node000012" class="node">
<title>Node12</title>
<g id="a_Node000012"><a xlink:href="class_acts_1_1_layer.html" target="_top" xlink:title="Base Class for a Detector Layer in the Tracking Geometry.">
<polygon fill="white" stroke="#666666" points="1214,-380.13 1143,-380.13 1143,-361.13 1214,-361.13 1214,-380.13"/>
<text text-anchor="middle" x="1178.5" y="-368.13" font-family="Helvetica,sans-Serif" font-size="10.00">Acts::Layer</text>
</a>
</g>
</g>
<!-- Node4&#45;&gt;Node12 -->
<g id="edge12_Node000012_Node000004" class="edge">
<title>Node4&#45;&gt;Node12</title>
<g id="a_edge12_Node000012_Node000004"><a xlink:title=" ">
<path fill="none" stroke="#63b8ff" d="M367.32,-268.2C381.49,-270.93 396.78,-273.63 411,-275.63 708.54,-317.44 790.58,-274.97 1084,-339.63 1108.05,-344.93 1134.63,-354.07 1153.28,-361.06"/>
<polygon fill="#63b8ff" stroke="#63b8ff" points="367.72,-264.71 357.23,-266.21 366.37,-271.58 367.72,-264.71"/>
</a>
</g>
</g>
<!-- Node19 -->
<g id="Node000019" class="node">
<title>Node19</title>
<g id="a_Node000019"><a xlink:href="class_acts_1_1_volume.html" target="_top" xlink:title="It inherits from GeometryObject for geometry identification.">
<polygon fill="white" stroke="#666666" points="510,-266.13 430,-266.13 430,-247.13 510,-247.13 510,-266.13"/>
<text text-anchor="middle" x="470" y="-254.13" font-family="Helvetica,sans-Serif" font-size="10.00">Acts::Volume</text>
</a>
</g>
</g>
<!-- Node4&#45;&gt;Node19 -->
<g id="edge22_Node000019_Node000004" class="edge">
<title>Node4&#45;&gt;Node19</title>
<g id="a_edge22_Node000019_Node000004"><a xlink:title=" ">
<path fill="none" stroke="#63b8ff" d="M384.44,-256.63C400.12,-256.63 416.16,-256.63 430,-256.63"/>
<polygon fill="#63b8ff" stroke="#63b8ff" points="384.21,-253.13 374.21,-256.63 384.21,-260.13 384.21,-253.13"/>
</a>
</g>
</g>
<!-- Node5 -->
<g id="Node000005" class="node">
<title>Node5</title>
<g id="a_Node000005"><a xlink:href="class_acts_1_1_geometry_identifier.html" target="_top" xlink:title="Identifier for geometry nodes within the geometry hierarchy.">
<polygon fill="white" stroke="#666666" points="136,-266.13 0,-266.13 0,-247.13 136,-247.13 136,-266.13"/>
<text text-anchor="middle" x="68" y="-254.13" font-family="Helvetica,sans-Serif" font-size="10.00">Acts::GeometryIdentifier</text>
</a>
</g>
</g>
<!-- Node5&#45;&gt;Node4 -->
<g id="edge4_Node000004_Node000005" class="edge">
<title>Node5&#45;&gt;Node4</title>
<g id="a_edge4_Node000004_Node000005"><a xlink:title=" ">
<path fill="none" stroke="#9a32cd" stroke-dasharray="5,2" d="M146.31,-256.63C179.84,-256.63 218.54,-256.63 249.99,-256.63"/>
<polygon fill="#9a32cd" stroke="#9a32cd" points="146.09,-253.13 136.09,-256.63 146.09,-260.13 146.09,-253.13"/>
</a>
</g>
<text text-anchor="start" x="157" y="-262.13" font-family="Helvetica,sans-Serif" font-size="10.00" fill="grey">m_geometryId</text>
</g>
<!-- Node6 -->
<g id="Node000006" class="node">
<title>Node6</title>
<g id="a_Node000006"><a xlink:title=" ">
<polygon fill="white" stroke="#666666" points="1242.5,-178.63 1114.5,-178.63 1114.5,-148.63 1242.5,-148.63 1242.5,-178.63"/>
<text text-anchor="start" x="1122.5" y="-166.63" font-family="Helvetica,sans-Serif" font-size="10.00">std::enable_shared</text>
<text text-anchor="middle" x="1178.5" y="-155.63" font-family="Helvetica,sans-Serif" font-size="10.00">_from_this&lt; Surface &gt;</text>
</a>
</g>
</g>
<!-- Node6&#45;&gt;Node3 -->
<g id="edge5_Node000003_Node000006" class="edge">
<title>Node6&#45;&gt;Node3</title>
<g id="a_edge5_Node000003_Node000006"><a xlink:title=" ">
<path fill="none" stroke="#63b8ff" d="M1252.62,-168.91C1309.24,-172.99 1385.5,-178.49 1431.15,-181.79"/>
<polygon fill="#63b8ff" stroke="#63b8ff" points="1252.87,-165.41 1242.64,-168.19 1252.36,-172.4 1252.87,-165.41"/>
</a>
</g>
</g>
<!-- Node7 -->
<g id="Node000007" class="node">
<title>Node7</title>
<g id="a_Node000007"><a xlink:title=" ">
<polygon fill="white" stroke="#666666" points="1255,-130.13 1102,-130.13 1102,-89.13 1255,-89.13 1255,-130.13"/>
<text text-anchor="start" x="1110" y="-118.13" font-family="Helvetica,sans-Serif" font-size="10.00">std::array&lt; std::string</text>
<text text-anchor="start" x="1110" y="-107.13" font-family="Helvetica,sans-Serif" font-size="10.00">_view, Surface::SurfaceType</text>
<text text-anchor="middle" x="1178.5" y="-96.13" font-family="Helvetica,sans-Serif" font-size="10.00">::Other+1 &gt;</text>
</a>
</g>
</g>
<!-- Node7&#45;&gt;Node3 -->
<g id="edge6_Node000003_Node000007" class="edge">
<title>Node7&#45;&gt;Node3</title>
<g id="a_edge6_Node000003_Node000007"><a xlink:title=" ">
<path fill="none" stroke="#9a32cd" stroke-dasharray="5,2" d="M1265.36,-118.06C1308.18,-123.96 1360.26,-133.73 1405,-149.63 1413.62,-152.69 1414.95,-155.27 1423,-159.63 1432.51,-164.77 1443.15,-170.39 1451.95,-174.99"/>
<polygon fill="#9a32cd" stroke="#9a32cd" points="1265.62,-114.57 1255.24,-116.72 1264.69,-121.51 1265.62,-114.57"/>
</a>
</g>
<text text-anchor="start" x="1287" y="-155.13" font-family="Helvetica,sans-Serif" font-size="10.00" fill="grey">s_surfaceTypeNames</text>
</g>
<!-- Node8 -->
<g id="Node000008" class="node">
<title>Node8</title>
<g id="a_Node000008"><a xlink:title=" ">
<polygon fill="white" stroke="#666666" points="869,-119.13 777,-119.13 777,-100.13 869,-100.13 869,-119.13"/>
<text text-anchor="middle" x="823" y="-107.13" font-family="Helvetica,sans-Serif" font-size="10.00">std::array&lt; T &gt;</text>
</a>
</g>
</g>
<!-- Node8&#45;&gt;Node7 -->
<g id="edge7_Node000007_Node000008" class="edge">
<title>Node8&#45;&gt;Node7</title>
<g id="a_edge7_Node000007_Node000008"><a xlink:title=" ">
<path fill="none" stroke="orange" stroke-dasharray="5,2" d="M879.14,-109.63C938.95,-109.63 1034.84,-109.63 1101.71,-109.63"/>
<polygon fill="orange" stroke="orange" points="879.13,-106.13 869.13,-109.63 879.13,-113.13 879.13,-106.13"/>
</a>
</g>
<text text-anchor="start" x="945" y="-145.13" font-family="Helvetica,sans-Serif" font-size="10.00" fill="grey">&lt; std::string_view,</text>
<text text-anchor="start" x="945" y="-130.13" font-family="Helvetica,sans-Serif" font-size="10.00" fill="grey">   Surface::SurfaceType</text>
<text text-anchor="start" x="945" y="-115.13" font-family="Helvetica,sans-Serif" font-size="10.00" fill="grey">  ::Other+1 &gt;</text>
</g>
<!-- Node9 -->
<g id="Node000009" class="node">
<title>Node9</title>
<g id="a_Node000009"><a xlink:title=" ">
<polygon fill="white" stroke="#666666" points="1064.5,-579.63 937.5,-579.63 937.5,-549.63 1064.5,-549.63 1064.5,-579.63"/>
<text text-anchor="start" x="945.5" y="-567.63" font-family="Helvetica,sans-Serif" font-size="10.00">std::unique_ptr&lt; const</text>
<text text-anchor="middle" x="1001" y="-556.63" font-family="Helvetica,sans-Serif" font-size="10.00"> Transform3 &gt;</text>
</a>
</g>
</g>
<!-- Node9&#45;&gt;Node3 -->
<g id="edge8_Node000003_Node000009" class="edge">
<title>Node9&#45;&gt;Node3</title>
<g id="a_edge8_Node000003_Node000009"><a xlink:title=" ">
<path fill="none" stroke="#9a32cd" stroke-dasharray="5,2" d="M1071.47,-546.75C1161.04,-520.21 1315.84,-461.93 1405,-357.63 1448.82,-306.36 1464.82,-222.79 1469.16,-194.41"/>
<polygon fill="#9a32cd" stroke="#9a32cd" points="1070.3,-543.45 1061.68,-549.6 1072.26,-550.17 1070.3,-543.45"/>
</a>
</g>
<text text-anchor="start" x="1146.5" y="-541.13" font-family="Helvetica,sans-Serif" font-size="10.00" fill="grey">m_transform</text>
</g>
<!-- Node10 -->
<g id="Node000010" class="node">
<title>Node10</title>
<g id="a_Node000010"><a xlink:title=" ">
<polygon fill="white" stroke="#666666" points="529,-490.13 411,-490.13 411,-471.13 529,-471.13 529,-490.13"/>
<text text-anchor="middle" x="470" y="-478.13" font-family="Helvetica,sans-Serif" font-size="10.00">std::unique_ptr&lt; T &gt;</text>
</a>
</g>
</g>
<!-- Node10&#45;&gt;Node9 -->
<g id="edge9_Node000009_Node000010" class="edge">
<title>Node10&#45;&gt;Node9</title>
<g id="a_edge9_Node000009_Node000010"><a xlink:title=" ">
<path fill="none" stroke="orange" stroke-dasharray="5,2" d="M488.45,-496.93C502.93,-509.37 524.7,-525.69 547,-533.63 679.74,-580.9 847.97,-577.27 937.41,-570.78"/>
<polygon fill="orange" stroke="orange" points="490.61,-494.17 480.81,-490.14 485.96,-499.4 490.61,-494.17"/>
</a>
</g>
<text text-anchor="start" x="584.5" y="-574.13" font-family="Helvetica,sans-Serif" font-size="10.00" fill="grey">&lt; const Transform3 &gt;</text>
</g>
<!-- Node16 -->
<g id="Node000016" class="node">
<title>Node16</title>
<g id="a_Node000016"><a xlink:title=" ">
<polygon fill="white" stroke="#666666" points="886.5,-539.63 759.5,-539.63 759.5,-509.63 886.5,-509.63 886.5,-539.63"/>
<text text-anchor="start" x="767.5" y="-527.63" font-family="Helvetica,sans-Serif" font-size="10.00">std::unique_ptr&lt; const</text>
<text text-anchor="middle" x="823" y="-516.63" font-family="Helvetica,sans-Serif" font-size="10.00"> Acts::SurfaceArray &gt;</text>
</a>
</g>
</g>
<!-- Node10&#45;&gt;Node16 -->
<g id="edge17_Node000016_Node000010" class="edge">
<title>Node10&#45;&gt;Node16</title>
<g id="a_edge17_Node000016_Node000010"><a xlink:title=" ">
<path fill="none" stroke="orange" stroke-dasharray="5,2" d="M539.32,-489.19C603.1,-497.19 697.48,-509.02 759.36,-516.78"/>
<polygon fill="orange" stroke="orange" points="539.71,-485.71 529.35,-487.94 538.84,-492.66 539.71,-485.71"/>
</a>
</g>
<text text-anchor="start" x="566.5" y="-518.13" font-family="Helvetica,sans-Serif" font-size="10.00" fill="grey">&lt; const Acts::SurfaceArray &gt;</text>
</g>
<!-- Node17 -->
<g id="Node000017" class="node">
<title>Node17</title>
<g id="a_Node000017"><a xlink:title=" ">
<polygon fill="white" stroke="#666666" points="900,-453.63 746,-453.63 746,-423.63 900,-423.63 900,-453.63"/>
<text text-anchor="start" x="754" y="-441.63" font-family="Helvetica,sans-Serif" font-size="10.00">std::unique_ptr&lt; const</text>
<text text-anchor="middle" x="823" y="-430.63" font-family="Helvetica,sans-Serif" font-size="10.00"> Acts::ApproachDescriptor &gt;</text>
</a>
</g>
</g>
<!-- Node10&#45;&gt;Node17 -->
<g id="edge19_Node000017_Node000010" class="edge">
<title>Node10&#45;&gt;Node17</title>
<g id="a_edge19_Node000017_Node000010"><a xlink:title=" ">
<path fill="none" stroke="orange" stroke-dasharray="5,2" d="M516.2,-468.78C526.28,-466.46 536.96,-464.25 547,-462.63 613.71,-451.88 690.36,-445.69 745.76,-442.3"/>
<polygon fill="orange" stroke="orange" points="515.28,-465.41 506.36,-471.13 516.9,-472.22 515.28,-465.41"/>
</a>
</g>
<text text-anchor="start" x="550.5" y="-468.13" font-family="Helvetica,sans-Serif" font-size="10.00" fill="grey">&lt; const Acts::ApproachDescriptor &gt;</text>
</g>
<!-- Node20 -->
<g id="Node000020" class="node">
<title>Node20</title>
<g id="a_Node000020"><a xlink:title=" ">
<polygon fill="white" stroke="#666666" points="884,-405.63 762,-405.63 762,-375.63 884,-375.63 884,-405.63"/>
<text text-anchor="start" x="770" y="-393.63" font-family="Helvetica,sans-Serif" font-size="10.00">std::unique_ptr&lt; Acts</text>
<text text-anchor="middle" x="823" y="-382.63" font-family="Helvetica,sans-Serif" font-size="10.00">::Volume &gt;</text>
</a>
</g>
</g>
<!-- Node10&#45;&gt;Node20 -->
<g id="edge24_Node000020_Node000010" class="edge">
<title>Node10&#45;&gt;Node20</title>
<g id="a_edge24_Node000020_Node000010"><a xlink:title=" ">
<path fill="none" stroke="orange" stroke-dasharray="5,2" d="M487.77,-463.5C502.15,-449.97 524.1,-431.88 547,-422.63 616.97,-394.37 704.55,-388.74 761.82,-388.6"/>
<polygon fill="orange" stroke="orange" points="484.96,-461.35 480.24,-470.84 489.84,-466.37 484.96,-461.35"/>
</a>
</g>
<text text-anchor="start" x="594.5" y="-428.13" font-family="Helvetica,sans-Serif" font-size="10.00" fill="grey">&lt; Acts::Volume &gt;</text>
</g>
<!-- Node11 -->
<g id="Node000011" class="node">
<title>Node11</title>
<g id="a_Node000011"><a xlink:href="class_acts_1_1_detector_element_base.html" target="_top" xlink:title="This class is the base of all detector elements that are usable by ACTS.">
<polygon fill="white" stroke="#666666" points="1253.5,-71.13 1103.5,-71.13 1103.5,-52.13 1253.5,-52.13 1253.5,-71.13"/>
<text text-anchor="middle" x="1178.5" y="-59.13" font-family="Helvetica,sans-Serif" font-size="10.00">Acts::DetectorElementBase</text>
</a>
</g>
</g>
<!-- Node11&#45;&gt;Node3 -->
<g id="edge10_Node000003_Node000011" class="edge">
<title>Node11&#45;&gt;Node3</title>
<g id="a_edge10_Node000003_Node000011"><a xlink:title=" ">
<path fill="none" stroke="#9a32cd" stroke-dasharray="5,2" d="M1263.82,-55.41C1310.64,-56.52 1366.94,-66.03 1405,-99.63 1425.87,-118.05 1405.3,-138.14 1423,-159.63 1428.33,-166.1 1435.79,-171.11 1443.21,-174.89"/>
<polygon fill="#9a32cd" stroke="#9a32cd" points="1263.72,-51.91 1253.68,-55.3 1263.64,-58.91 1263.72,-51.91"/>
</a>
</g>
<text text-anchor="start" x="1276" y="-105.13" font-family="Helvetica,sans-Serif" font-size="10.00" fill="grey">m_associatedDetElement</text>
</g>
<!-- Node12&#45;&gt;Node3 -->
<g id="edge11_Node000003_Node000012" class="edge">
<title>Node12&#45;&gt;Node3</title>
<g id="a_edge11_Node000003_Node000012"><a xlink:title=" ">
<path fill="none" stroke="#9a32cd" stroke-dasharray="5,2" d="M1221.26,-357.92C1269.08,-341.97 1348.12,-311.18 1405,-266.63 1432.11,-245.39 1454.89,-210.82 1464.96,-194.18"/>
<polygon fill="#9a32cd" stroke="#9a32cd" points="1219.97,-354.66 1211.55,-361.1 1222.15,-361.32 1219.97,-354.66"/>
</a>
</g>
<text text-anchor="start" x="1292" y="-342.13" font-family="Helvetica,sans-Serif" font-size="10.00" fill="grey">m_associatedLayer</text>
</g>
<!-- Node13 -->
<g id="Node000013" class="node">
<title>Node13</title>
<g id="a_Node000013"><a xlink:title=" ">
<polygon fill="white" stroke="#666666" points="885,-357.63 761,-357.63 761,-327.63 885,-327.63 885,-357.63"/>
<text text-anchor="start" x="769" y="-345.63" font-family="Helvetica,sans-Serif" font-size="10.00">std::pair&lt; const Layer</text>
<text text-anchor="middle" x="823" y="-334.63" font-family="Helvetica,sans-Serif" font-size="10.00"> *, const Layer * &gt;</text>
</a>
</g>
</g>
<!-- Node13&#45;&gt;Node12 -->
<g id="edge13_Node000012_Node000013" class="edge">
<title>Node13&#45;&gt;Node12</title>
<g id="a_edge13_Node000012_Node000013"><a xlink:title=" ">
<path fill="none" stroke="#9a32cd" stroke-dasharray="5,2" d="M895.29,-343.55C947.64,-344.81 1020.4,-347.75 1084,-354.63 1103.48,-356.74 1125.06,-360.34 1142.57,-363.6"/>
<polygon fill="#9a32cd" stroke="#9a32cd" points="895.18,-340.05 885.1,-343.32 895.02,-347.05 895.18,-340.05"/>
</a>
</g>
<text text-anchor="start" x="966" y="-360.13" font-family="Helvetica,sans-Serif" font-size="10.00" fill="grey">m_nextLayers</text>
</g>
<!-- Node14 -->
<g id="Node000014" class="node">
<title>Node14</title>
<g id="a_Node000014"><a xlink:title=" ">
<polygon fill="white" stroke="#666666" points="524.5,-352.13 415.5,-352.13 415.5,-333.13 524.5,-333.13 524.5,-352.13"/>
<text text-anchor="middle" x="470" y="-340.13" font-family="Helvetica,sans-Serif" font-size="10.00">std::pair&lt; T1, T2 &gt;</text>
</a>
</g>
</g>
<!-- Node14&#45;&gt;Node13 -->
<g id="edge14_Node000013_Node000014" class="edge">
<title>Node14&#45;&gt;Node13</title>
<g id="a_edge14_Node000013_Node000014"><a xlink:title=" ">
<path fill="none" stroke="orange" stroke-dasharray="5,2" d="M534.71,-342.63C599,-342.63 697.6,-342.63 760.94,-342.63"/>
<polygon fill="orange" stroke="orange" points="534.69,-339.13 524.69,-342.63 534.69,-346.13 534.69,-339.13"/>
</a>
</g>
<text text-anchor="start" x="583.5" y="-363.63" font-family="Helvetica,sans-Serif" font-size="10.00" fill="grey">&lt; const Layer *, const</text>
<text text-anchor="start" x="583.5" y="-348.63" font-family="Helvetica,sans-Serif" font-size="10.00" fill="grey">   Layer * &gt;</text>
</g>
<!-- Node15 -->
<g id="Node000015" class="node">
<title>Node15</title>
<g id="a_Node000015"><a xlink:href="class_acts_1_1_bin_utility.html" target="_top" xlink:title="The BinUtility class that translated global and local position into a bins of a BinnedArray,...">
<polygon fill="white" stroke="#666666" points="867.5,-491.13 778.5,-491.13 778.5,-472.13 867.5,-472.13 867.5,-491.13"/>
<text text-anchor="middle" x="823" y="-479.13" font-family="Helvetica,sans-Serif" font-size="10.00">Acts::BinUtility</text>
</a>
</g>
</g>
<!-- Node15&#45;&gt;Node12 -->
<g id="edge15_Node000012_Node000015" class="edge">
<title>Node15&#45;&gt;Node12</title>
<g id="a_edge15_Node000012_Node000015"><a xlink:title=" ">
<path fill="none" stroke="#9a32cd" stroke-dasharray="5,2" d="M878.01,-484.48C932.34,-485.31 1017.38,-480.93 1084,-451.63 1121.75,-435.03 1155.47,-397.76 1169.97,-380.17"/>
<polygon fill="#9a32cd" stroke="#9a32cd" points="877.98,-480.98 867.9,-484.26 877.82,-487.98 877.98,-480.98"/>
</a>
</g>
<text text-anchor="start" x="954" y="-489.13" font-family="Helvetica,sans-Serif" font-size="10.00" fill="grey">m_nextLayerUtility</text>
</g>
<!-- Node16&#45;&gt;Node12 -->
<g id="edge16_Node000012_Node000016" class="edge">
<title>Node16&#45;&gt;Node12</title>
<g id="a_edge16_Node000012_Node000016"><a xlink:title=" ">
<path fill="none" stroke="#9a32cd" stroke-dasharray="5,2" d="M896.94,-521.29C968.14,-517.53 1068.07,-510.74 1084,-501.63 1090.46,-497.93 1150.9,-409.7 1171.02,-380.16"/>
<polygon fill="#9a32cd" stroke="#9a32cd" points="896.46,-517.81 886.65,-521.82 896.82,-524.8 896.46,-517.81"/>
</a>
</g>
<text text-anchor="start" x="962" y="-525.13" font-family="Helvetica,sans-Serif" font-size="10.00" fill="grey">m_surfaceArray</text>
</g>
<!-- Node17&#45;&gt;Node12 -->
<g id="edge18_Node000012_Node000017" class="edge">
<title>Node17&#45;&gt;Node12</title>
<g id="a_edge18_Node000012_Node000017"><a xlink:title=" ">
<path fill="none" stroke="#9a32cd" stroke-dasharray="5,2" d="M910.24,-432.73C961.3,-427.99 1026.95,-419.72 1084,-405.63 1109.58,-399.31 1137.74,-388.16 1156.41,-380.14"/>
<polygon fill="#9a32cd" stroke="#9a32cd" points="909.87,-429.25 900.23,-433.63 910.5,-436.22 909.87,-429.25"/>
</a>
</g>
<text text-anchor="start" x="946" y="-436.13" font-family="Helvetica,sans-Serif" font-size="10.00" fill="grey">m_approachDescriptor</text>
</g>
<!-- Node18 -->
<g id="Node000018" class="node">
<title>Node18</title>
<g id="a_Node000018"><a xlink:href="class_acts_1_1_tracking_volume.html" target="_top" xlink:title="Full Volume description used in Tracking, it inherits from Volume to get the geometrical structure.">
<polygon fill="white" stroke="#666666" points="883.5,-266.13 762.5,-266.13 762.5,-247.13 883.5,-247.13 883.5,-266.13"/>
<text text-anchor="middle" x="823" y="-254.13" font-family="Helvetica,sans-Serif" font-size="10.00">Acts::TrackingVolume</text>
</a>
</g>
</g>
<!-- Node18&#45;&gt;Node3 -->
<g id="edge25_Node000003_Node000018" class="edge">
<title>Node18&#45;&gt;Node3</title>
<g id="a_edge25_Node000003_Node000018"><a xlink:title=" ">
<path fill="none" stroke="#9a32cd" stroke-dasharray="5,2" d="M893.63,-261.98C1004.38,-268.36 1226.4,-272.42 1405,-220.63 1424.44,-214.99 1444.51,-202.86 1457.22,-194.24"/>
<polygon fill="#9a32cd" stroke="#9a32cd" points="893.78,-258.48 883.59,-261.37 893.36,-265.47 893.78,-258.48"/>
</a>
</g>
<text text-anchor="start" x="1106.5" y="-269.13" font-family="Helvetica,sans-Serif" font-size="10.00" fill="grey">m_associatedTrackingVolume</text>
</g>
<!-- Node18&#45;&gt;Node12 -->
<g id="edge20_Node000012_Node000018" class="edge">
<title>Node18&#45;&gt;Node12</title>
<g id="a_edge20_Node000012_Node000018"><a xlink:title=" ">
<path fill="none" stroke="#9a32cd" stroke-dasharray="5,2" d="M893.79,-262.48C964.87,-268.79 1067,-278.97 1084,-286.63 1122.4,-303.93 1156.04,-342.89 1170.28,-361.01"/>
<polygon fill="#9a32cd" stroke="#9a32cd" points="893.81,-258.97 883.55,-261.58 893.2,-265.94 893.81,-258.97"/>
</a>
</g>
<text text-anchor="start" x="955" y="-292.13" font-family="Helvetica,sans-Serif" font-size="10.00" fill="grey">m_trackingVolume</text>
</g>
<!-- Node19&#45;&gt;Node18 -->
<g id="edge21_Node000018_Node000019" class="edge">
<title>Node19&#45;&gt;Node18</title>
<g id="a_edge21_Node000018_Node000019"><a xlink:title=" ">
<path fill="none" stroke="#63b8ff" d="M520.4,-256.63C583.91,-256.63 694.11,-256.63 762.26,-256.63"/>
<polygon fill="#63b8ff" stroke="#63b8ff" points="520.24,-253.13 510.24,-256.63 520.24,-260.13 520.24,-253.13"/>
</a>
</g>
</g>
<!-- Node20&#45;&gt;Node12 -->
<g id="edge23_Node000012_Node000020" class="edge">
<title>Node20&#45;&gt;Node12</title>
<g id="a_edge23_Node000012_Node000020"><a xlink:title=" ">
<path fill="none" stroke="#9a32cd" stroke-dasharray="5,2" d="M894.68,-386.63C969.7,-382.38 1085.2,-375.85 1142.61,-372.6"/>
<polygon fill="#9a32cd" stroke="#9a32cd" points="894.15,-383.15 884.37,-387.21 894.55,-390.14 894.15,-383.15"/>
</a>
</g>
<text text-anchor="start" x="944" y="-390.13" font-family="Helvetica,sans-Serif" font-size="10.00" fill="grey">m_representingVolume</text>
</g>
<!-- Node21 -->
<g id="Node000021" class="node">
<title>Node21</title>
<g id="a_Node000021"><a xlink:title=" ">
<polygon fill="white" stroke="#666666" points="1247.5,-33.63 1109.5,-33.63 1109.5,-3.63 1247.5,-3.63 1247.5,-33.63"/>
<text text-anchor="start" x="1117.5" y="-21.63" font-family="Helvetica,sans-Serif" font-size="10.00">std::shared_ptr&lt; const</text>
<text text-anchor="middle" x="1178.5" y="-10.63" font-family="Helvetica,sans-Serif" font-size="10.00"> Acts::ISurfaceMaterial &gt;</text>
</a>
</g>
</g>
<!-- Node21&#45;&gt;Node3 -->
<g id="edge26_Node000003_Node000021" class="edge">
<title>Node21&#45;&gt;Node3</title>
<g id="a_edge26_Node000003_Node000021"><a xlink:title=" ">
<path fill="none" stroke="#9a32cd" stroke-dasharray="5,2" d="M1256.14,-2.3C1304.91,3.32 1366.01,0.76 1405,-35.63 1445.71,-73.63 1390.86,-114.15 1423,-159.63 1427.73,-166.33 1434.82,-171.37 1442.09,-175.11"/>
<polygon fill="#9a32cd" stroke="#9a32cd" points="1255.4,1.14 1245.93,-3.61 1256.29,-5.81 1255.4,1.14"/>
</a>
</g>
<text text-anchor="start" x="1293" y="-41.13" font-family="Helvetica,sans-Serif" font-size="10.00" fill="grey">m_surfaceMaterial</text>
</g>
<!-- Node22 -->
<g id="Node000022" class="node">
<title>Node22</title>
<g id="a_Node000022"><a xlink:title=" ">
<polygon fill="white" stroke="#666666" points="882,-28.13 764,-28.13 764,-9.13 882,-9.13 882,-28.13"/>
<text text-anchor="middle" x="823" y="-16.13" font-family="Helvetica,sans-Serif" font-size="10.00">std::shared_ptr&lt; T &gt;</text>
</a>
</g>
</g>
<!-- Node22&#45;&gt;Node21 -->
<g id="edge27_Node000021_Node000022" class="edge">
<title>Node22&#45;&gt;Node21</title>
<g id="a_edge27_Node000021_Node000022"><a xlink:title=" ">
<path fill="none" stroke="orange" stroke-dasharray="5,2" d="M892.53,-18.63C955.06,-18.63 1046.95,-18.63 1109.35,-18.63"/>
<polygon fill="orange" stroke="orange" points="892.37,-15.13 882.37,-18.63 892.37,-22.13 892.37,-15.13"/>
</a>
</g>
<text text-anchor="start" x="921" y="-24.13" font-family="Helvetica,sans-Serif" font-size="10.00" fill="grey">&lt; const Acts::ISurfaceMaterial &gt;</text>
</g>
<!-- Node23 -->
<g id="Node000023" class="node">
<title>Node23</title>
<g id="a_Node000023"><a xlink:title=" ">
<polygon fill="white" stroke="#666666" points="1788.5,-156.63 1682.5,-156.63 1682.5,-126.63 1788.5,-126.63 1788.5,-156.63"/>
<text text-anchor="start" x="1690.5" y="-144.63" font-family="Helvetica,sans-Serif" font-size="10.00">std::vector&lt; const</text>
<text text-anchor="middle" x="1735.5" y="-133.63" font-family="Helvetica,sans-Serif" font-size="10.00"> Surface * &gt;</text>
</a>
</g>
</g>
<!-- Node23&#45;&gt;Node1 -->
<g id="edge28_Node000001_Node000023" class="edge">
<title>Node23&#45;&gt;Node1</title>
<g id="a_edge28_Node000001_Node000023"><a xlink:title=" ">
<path fill="none" stroke="#9a32cd" stroke-dasharray="5,2" d="M1798.99,-144.39C1823.65,-145.79 1852.2,-147.82 1878,-150.63 1883.82,-151.26 1889.87,-152.02 1895.91,-152.85"/>
<polygon fill="#9a32cd" stroke="#9a32cd" points="1798.85,-140.88 1788.68,-143.82 1798.47,-147.86 1798.85,-140.88"/>
</a>
</g>
<text text-anchor="start" x="1833" y="-156.13" font-family="Helvetica,sans-Serif" font-size="10.00" fill="grey">surfaces</text>
</g>
<!-- Node24 -->
<g id="Node000024" class="node">
<title>Node24</title>
<g id="a_Node000024"><a xlink:title=" ">
<polygon fill="white" stroke="#666666" points="1520,-151.13 1423,-151.13 1423,-132.13 1520,-132.13 1520,-151.13"/>
<text text-anchor="middle" x="1471.5" y="-139.13" font-family="Helvetica,sans-Serif" font-size="10.00">std::vector&lt; T &gt;</text>
</a>
</g>
</g>
<!-- Node24&#45;&gt;Node23 -->
<g id="edge29_Node000023_Node000024" class="edge">
<title>Node24&#45;&gt;Node23</title>
<g id="a_edge29_Node000023_Node000024"><a xlink:title=" ">
<path fill="none" stroke="orange" stroke-dasharray="5,2" d="M1530.52,-141.63C1575.85,-141.63 1638.31,-141.63 1682.13,-141.63"/>
<polygon fill="orange" stroke="orange" points="1530.25,-138.13 1520.25,-141.63 1530.25,-145.13 1530.25,-138.13"/>
</a>
</g>
<text text-anchor="start" x="1541.5" y="-147.13" font-family="Helvetica,sans-Serif" font-size="10.00" fill="grey">&lt; const Surface * &gt;</text>
</g>
</g>
</svg>
