<?xml version="1.0" encoding="UTF-8" standalone="no"?>
<!DOCTYPE svg PUBLIC "-//W3C//DTD SVG 1.1//EN"
 "http://www.w3.org/Graphics/SVG/1.1/DTD/svg11.dtd">
<!-- Generated by graphviz version 2.43.0 (0)
 -->
<!-- Title: Acts::SupportsBoundParameters&lt; stepper_t &gt; Pages: 1 -->
<svg width="641pt" height="134pt"
 viewBox="0.00 0.00 641.00 134.00" xmlns="http://www.w3.org/2000/svg" xmlns:xlink="http://www.w3.org/1999/xlink">
<g id="graph0" class="graph" transform="scale(1 1) rotate(0) translate(4 130)">
<title>Acts::SupportsBoundParameters&lt; stepper_t &gt;</title>
<!-- Node1 -->
<g id="Node000001" class="node">
<title>Node1</title>
<g id="a_Node000001"><a xlink:title=" ">
<polygon fill="#999999" stroke="#666666" points="299,-78 126,-78 126,-48 299,-48 299,-78"/>
<text text-anchor="start" x="134" y="-66" font-family="Helvetica,sans-Serif" font-size="10.00">Acts::SupportsBoundParameters</text>
<text text-anchor="middle" x="212.5" y="-55" font-family="Helvetica,sans-Serif" font-size="10.00">&lt; stepper_t &gt;</text>
</a>
</g>
</g>
<!-- Node3 -->
<g id="Node000003" class="node">
<title>Node3</title>
<g id="a_Node000003"><a xlink:href="struct_acts_1_1_supports_bound_parameters_3_01_eigen_stepper_3_4_01_4.html" target="_top" xlink:title=" ">
<polygon fill="white" stroke="#666666" points="633,-126 460,-126 460,-96 633,-96 633,-126"/>
<text text-anchor="start" x="468" y="-114" font-family="Helvetica,sans-Serif" font-size="10.00">Acts::SupportsBoundParameters</text>
<text text-anchor="middle" x="546.5" y="-103" font-family="Helvetica,sans-Serif" font-size="10.00">&lt; EigenStepper&lt;&gt; &gt;</text>
</a>
</g>
</g>
<!-- Node1&#45;&gt;Node3 -->
<g id="edge2_Node000001_Node000003" class="edge">
<title>Node1&#45;&gt;Node3</title>
<g id="a_edge2_Node000001_Node000003"><a xlink:title=" ">
<path fill="none" stroke="orange" stroke-dasharray="5,2" d="M293.51,-79.92C301.43,-81.39 309.36,-82.78 317,-84 364.04,-91.54 416.83,-97.91 459.82,-102.57"/>
<polygon fill="orange" stroke="orange" points="293.98,-76.44 283.51,-78.02 292.68,-83.32 293.98,-76.44"/>
</a>
</g>
<text text-anchor="start" x="327.5" y="-105.5" font-family="Helvetica,sans-Serif" font-size="10.00" fill="grey">&lt; EigenStepper&lt;&gt; &gt;</text>
</g>
<!-- Node4 -->
<g id="Node000004" class="node">
<title>Node4</title>
<g id="a_Node000004"><a xlink:href="struct_acts_1_1_supports_bound_parameters_3_01_straight_line_stepper_01_4.html" target="_top" xlink:title=" ">
<polygon fill="white" stroke="#666666" points="633,-78 460,-78 460,-48 633,-48 633,-78"/>
<text text-anchor="start" x="468" y="-66" font-family="Helvetica,sans-Serif" font-size="10.00">Acts::SupportsBoundParameters</text>
<text text-anchor="middle" x="546.5" y="-55" font-family="Helvetica,sans-Serif" font-size="10.00">&lt; StraightLineStepper &gt;</text>
</a>
</g>
</g>
<!-- Node1&#45;&gt;Node4 -->
<g id="edge3_Node000001_Node000004" class="edge">
<title>Node1&#45;&gt;Node4</title>
<g id="a_edge3_Node000001_Node000004"><a xlink:title=" ">
<path fill="none" stroke="orange" stroke-dasharray="5,2" d="M309.72,-63C357.2,-63 413.98,-63 459.93,-63"/>
<polygon fill="orange" stroke="orange" points="309.43,-59.5 299.43,-63 309.43,-66.5 309.43,-59.5"/>
</a>
</g>
<text text-anchor="start" x="320.5" y="-68.5" font-family="Helvetica,sans-Serif" font-size="10.00" fill="grey">&lt; StraightLineStepper &gt;</text>
</g>
<!-- Node5 -->
<g id="Node000005" class="node">
<title>Node5</title>
<g id="a_Node000005"><a xlink:href="struct_acts_1_1_supports_bound_parameters_3_01_sympy_stepper_01_4.html" target="_top" xlink:title=" ">
<polygon fill="white" stroke="#666666" points="633,-30 460,-30 460,0 633,0 633,-30"/>
<text text-anchor="start" x="468" y="-18" font-family="Helvetica,sans-Serif" font-size="10.00">Acts::SupportsBoundParameters</text>
<text text-anchor="middle" x="546.5" y="-7" font-family="Helvetica,sans-Serif" font-size="10.00">&lt; SympyStepper &gt;</text>
</a>
</g>
</g>
<!-- Node1&#45;&gt;Node5 -->
<g id="edge4_Node000001_Node000005" class="edge">
<title>Node1&#45;&gt;Node5</title>
<g id="a_edge4_Node000001_Node000005"><a xlink:title=" ">
<path fill="none" stroke="orange" stroke-dasharray="5,2" d="M293.51,-46.08C301.43,-44.61 309.36,-43.22 317,-42 364.04,-34.46 416.83,-28.09 459.82,-23.43"/>
<polygon fill="orange" stroke="orange" points="292.68,-42.68 283.51,-47.98 293.98,-49.56 292.68,-42.68"/>
</a>
</g>
<text text-anchor="start" x="332.5" y="-47.5" font-family="Helvetica,sans-Serif" font-size="10.00" fill="grey">&lt; SympyStepper &gt;</text>
</g>
<!-- Node2 -->
<g id="Node000002" class="node">
<title>Node2</title>
<g id="a_Node000002"><a xlink:title=" ">
<polygon fill="white" stroke="#666666" points="89,-72.5 0,-72.5 0,-53.5 89,-53.5 89,-72.5"/>
<text text-anchor="middle" x="44.5" y="-60.5" font-family="Helvetica,sans-Serif" font-size="10.00">std::false_type</text>
</a>
</g>
</g>
<!-- Node2&#45;&gt;Node1 -->
<g id="edge1_Node000001_Node000002" class="edge">
<title>Node2&#45;&gt;Node1</title>
<g id="a_edge1_Node000001_Node000002"><a xlink:title=" ">
<path fill="none" stroke="#63b8ff" d="M99.24,-63C107.75,-63 116.73,-63 125.76,-63"/>
<polygon fill="#63b8ff" stroke="#63b8ff" points="99.11,-59.5 89.11,-63 99.11,-66.5 99.11,-59.5"/>
</a>
</g>
</g>
</g>
</svg>
