<?xml version="1.0" encoding="UTF-8" standalone="no"?>
<!DOCTYPE svg PUBLIC "-//W3C//DTD SVG 1.1//EN"
 "http://www.w3.org/Graphics/SVG/1.1/DTD/svg11.dtd">
<!-- Generated by graphviz version 2.43.0 (0)
 -->
<!-- Title: Acts::Experimental::MultiWireVolumeBuilder::Config Pages: 1 -->
<svg width="663pt" height="168pt"
 viewBox="0.00 0.00 663.00 168.00" xmlns="http://www.w3.org/2000/svg" xmlns:xlink="http://www.w3.org/1999/xlink">
<g id="graph0" class="graph" transform="scale(1 1) rotate(0) translate(4 164)">
<title>Acts::Experimental::MultiWireVolumeBuilder::Config</title>
<!-- Node1 -->
<g id="Node000001" class="node">
<title>Node1</title>
<g id="a_Node000001"><a xlink:title="Configuration Struct.">
<polygon fill="#999999" stroke="#666666" points="655,-99.5 514,-99.5 514,-58.5 655,-58.5 655,-99.5"/>
<text text-anchor="start" x="522" y="-87.5" font-family="Helvetica,sans-Serif" font-size="10.00">Acts::Experimental</text>
<text text-anchor="start" x="522" y="-76.5" font-family="Helvetica,sans-Serif" font-size="10.00">::MultiWireVolumeBuilder</text>
<text text-anchor="middle" x="584.5" y="-65.5" font-family="Helvetica,sans-Serif" font-size="10.00">::Config</text>
</a>
</g>
</g>
<!-- Node2 -->
<g id="Node000002" class="node">
<title>Node2</title>
<g id="a_Node000002"><a xlink:title=" ">
<polygon fill="white" stroke="#666666" points="382.5,-154.5 317.5,-154.5 317.5,-135.5 382.5,-135.5 382.5,-154.5"/>
<text text-anchor="middle" x="350" y="-142.5" font-family="Helvetica,sans-Serif" font-size="10.00">std::string</text>
</a>
</g>
</g>
<!-- Node2&#45;&gt;Node1 -->
<g id="edge1_Node000001_Node000002" class="edge">
<title>Node2&#45;&gt;Node1</title>
<g id="a_edge1_Node000001_Node000002"><a xlink:title=" ">
<path fill="none" stroke="#9a32cd" stroke-dasharray="5,2" d="M392.62,-137.57C421.85,-131.94 461.68,-123.39 496,-113 508.63,-109.18 522.03,-104.37 534.45,-99.58"/>
<polygon fill="#9a32cd" stroke="#9a32cd" points="391.93,-134.14 382.76,-139.45 393.23,-141.02 391.93,-134.14"/>
</a>
</g>
<text text-anchor="start" x="451.5" y="-133.5" font-family="Helvetica,sans-Serif" font-size="10.00" fill="grey">name</text>
</g>
<!-- Node3 -->
<g id="Node000003" class="node">
<title>Node3</title>
<g id="a_Node000003"><a xlink:title=" ">
<polygon fill="white" stroke="#666666" points="111,-160 7,-160 7,-130 111,-130 111,-160"/>
<text text-anchor="start" x="15" y="-148" font-family="Helvetica,sans-Serif" font-size="10.00">std::basic_string&lt;</text>
<text text-anchor="middle" x="59" y="-137" font-family="Helvetica,sans-Serif" font-size="10.00"> Char &gt;</text>
</a>
</g>
</g>
<!-- Node3&#45;&gt;Node2 -->
<g id="edge2_Node000002_Node000003" class="edge">
<title>Node3&#45;&gt;Node2</title>
<g id="a_edge2_Node000002_Node000003"><a xlink:title=" ">
<path fill="none" stroke="#63b8ff" d="M121.11,-145C181.09,-145 270.22,-145 317.26,-145"/>
<polygon fill="#63b8ff" stroke="#63b8ff" points="121,-141.5 111,-145 121,-148.5 121,-141.5"/>
</a>
</g>
</g>
<!-- Node4 -->
<g id="Node000004" class="node">
<title>Node4</title>
<g id="a_Node000004"><a xlink:title=" ">
<polygon fill="white" stroke="#666666" points="417,-116 283,-116 283,-86 417,-86 417,-116"/>
<text text-anchor="start" x="291" y="-104" font-family="Helvetica,sans-Serif" font-size="10.00">std::vector&lt; std::shared</text>
<text text-anchor="middle" x="350" y="-93" font-family="Helvetica,sans-Serif" font-size="10.00">_ptr&lt; Acts::Surface &gt; &gt;</text>
</a>
</g>
</g>
<!-- Node4&#45;&gt;Node1 -->
<g id="edge3_Node000001_Node000004" class="edge">
<title>Node4&#45;&gt;Node1</title>
<g id="a_edge3_Node000001_Node000004"><a xlink:title=" ">
<path fill="none" stroke="#9a32cd" stroke-dasharray="5,2" d="M427.1,-93.8C454.98,-91.16 486.37,-88.19 513.68,-85.61"/>
<polygon fill="#9a32cd" stroke="#9a32cd" points="426.63,-90.33 417,-94.75 427.29,-97.3 426.63,-90.33"/>
</a>
</g>
<text text-anchor="start" x="438.5" y="-97.5" font-family="Helvetica,sans-Serif" font-size="10.00" fill="grey">mlSurfaces</text>
</g>
<!-- Node5 -->
<g id="Node000005" class="node">
<title>Node5</title>
<g id="a_Node000005"><a xlink:title=" ">
<polygon fill="white" stroke="#666666" points="107.5,-87.5 10.5,-87.5 10.5,-68.5 107.5,-68.5 107.5,-87.5"/>
<text text-anchor="middle" x="59" y="-75.5" font-family="Helvetica,sans-Serif" font-size="10.00">std::vector&lt; T &gt;</text>
</a>
</g>
</g>
<!-- Node5&#45;&gt;Node4 -->
<g id="edge4_Node000004_Node000005" class="edge">
<title>Node5&#45;&gt;Node4</title>
<g id="a_edge4_Node000004_Node000005"><a xlink:title=" ">
<path fill="none" stroke="orange" stroke-dasharray="5,2" d="M117.87,-82.61C165.51,-86.4 233.05,-91.77 282.82,-95.73"/>
<polygon fill="orange" stroke="orange" points="117.97,-79.1 107.72,-81.8 117.41,-86.08 117.97,-79.1"/>
</a>
</g>
<text text-anchor="start" x="152.5" y="-115" font-family="Helvetica,sans-Serif" font-size="10.00" fill="grey">&lt; std::shared_ptr&lt;</text>
<text text-anchor="start" x="152.5" y="-100" font-family="Helvetica,sans-Serif" font-size="10.00" fill="grey">   Acts::Surface &gt; &gt;</text>
</g>
<!-- Node8 -->
<g id="Node000008" class="node">
<title>Node8</title>
<g id="a_Node000008"><a xlink:title=" ">
<polygon fill="white" stroke="#666666" points="414,-67.5 286,-67.5 286,-48.5 414,-48.5 414,-67.5"/>
<text text-anchor="middle" x="350" y="-55.5" font-family="Helvetica,sans-Serif" font-size="10.00">std::vector&lt; Binning &gt;</text>
</a>
</g>
</g>
<!-- Node5&#45;&gt;Node8 -->
<g id="edge8_Node000008_Node000005" class="edge">
<title>Node5&#45;&gt;Node8</title>
<g id="a_edge8_Node000008_Node000005"><a xlink:title=" ">
<path fill="none" stroke="orange" stroke-dasharray="5,2" d="M101.08,-65.82C112.3,-63.02 124.53,-60.44 136,-59 186.08,-52.71 243.32,-52.85 285.83,-54.34"/>
<polygon fill="orange" stroke="orange" points="99.9,-62.51 91.11,-68.43 101.67,-69.28 99.9,-62.51"/>
</a>
</g>
<text text-anchor="start" x="170.5" y="-64.5" font-family="Helvetica,sans-Serif" font-size="10.00" fill="grey">&lt; Binning &gt;</text>
</g>
<!-- Node6 -->
<g id="Node000006" class="node">
<title>Node6</title>
<g id="a_Node000006"><a xlink:title=" ">
<polygon fill="white" stroke="#666666" points="411,-30 289,-30 289,0 411,0 411,-30"/>
<text text-anchor="start" x="297" y="-18" font-family="Helvetica,sans-Serif" font-size="10.00">std::shared_ptr&lt; Acts</text>
<text text-anchor="middle" x="350" y="-7" font-family="Helvetica,sans-Serif" font-size="10.00">::VolumeBounds &gt;</text>
</a>
</g>
</g>
<!-- Node6&#45;&gt;Node1 -->
<g id="edge5_Node000001_Node000006" class="edge">
<title>Node6&#45;&gt;Node1</title>
<g id="a_edge5_Node000001_Node000006"><a xlink:title=" ">
<path fill="none" stroke="#9a32cd" stroke-dasharray="5,2" d="M421.31,-20.7C445.36,-23.82 472.19,-28.63 496,-36 513.79,-41.51 532.44,-50.22 547.94,-58.37"/>
<polygon fill="#9a32cd" stroke="#9a32cd" points="421.54,-17.2 411.19,-19.46 420.69,-24.15 421.54,-17.2"/>
</a>
</g>
<text text-anchor="start" x="447.5" y="-41.5" font-family="Helvetica,sans-Serif" font-size="10.00" fill="grey">bounds</text>
</g>
<!-- Node7 -->
<g id="Node000007" class="node">
<title>Node7</title>
<g id="a_Node000007"><a xlink:title=" ">
<polygon fill="white" stroke="#666666" points="118,-24.5 0,-24.5 0,-5.5 118,-5.5 118,-24.5"/>
<text text-anchor="middle" x="59" y="-12.5" font-family="Helvetica,sans-Serif" font-size="10.00">std::shared_ptr&lt; T &gt;</text>
</a>
</g>
</g>
<!-- Node7&#45;&gt;Node6 -->
<g id="edge6_Node000006_Node000007" class="edge">
<title>Node7&#45;&gt;Node6</title>
<g id="a_edge6_Node000006_Node000007"><a xlink:title=" ">
<path fill="none" stroke="orange" stroke-dasharray="5,2" d="M128.29,-15C177.1,-15 242.15,-15 288.97,-15"/>
<polygon fill="orange" stroke="orange" points="128.14,-11.5 118.14,-15 128.14,-18.5 128.14,-11.5"/>
</a>
</g>
<text text-anchor="start" x="139.5" y="-20.5" font-family="Helvetica,sans-Serif" font-size="10.00" fill="grey">&lt; Acts::VolumeBounds &gt;</text>
</g>
<!-- Node8&#45;&gt;Node1 -->
<g id="edge7_Node000001_Node000008" class="edge">
<title>Node8&#45;&gt;Node1</title>
<g id="a_edge7_Node000001_Node000008"><a xlink:title=" ">
<path fill="none" stroke="#9a32cd" stroke-dasharray="5,2" d="M424.36,-56.93C447.36,-57.28 472.79,-58.39 496,-61 501.86,-61.66 507.9,-62.52 513.95,-63.5"/>
<polygon fill="#9a32cd" stroke="#9a32cd" points="424.37,-53.43 414.33,-56.81 424.29,-60.43 424.37,-53.43"/>
</a>
</g>
<text text-anchor="start" x="447.5" y="-66.5" font-family="Helvetica,sans-Serif" font-size="10.00" fill="grey">binning</text>
</g>
</g>
</svg>
