<?xml version="1.0" encoding="UTF-8" standalone="no"?>
<!DOCTYPE svg PUBLIC "-//W3C//DTD SVG 1.1//EN"
 "http://www.w3.org/Graphics/SVG/1.1/DTD/svg11.dtd">
<!-- Generated by graphviz version 2.43.0 (0)
 -->
<!-- Title: Acts::GraphViz::Edge Pages: 1 -->
<svg width="235pt" height="284pt"
 viewBox="0.00 0.00 235.00 284.00" xmlns="http://www.w3.org/2000/svg" xmlns:xlink="http://www.w3.org/1999/xlink">

<svg id="main" version="1.1" xmlns="http://www.w3.org/2000/svg" xmlns:xlink="http://www.w3.org/1999/xlink" xml:space="preserve">

<style type="text/css"><![CDATA[
.node, .edge {opacity: 0.7;}
.node.selected, .edge.selected {opacity: 1;}
.edge:hover path { stroke: red; }
.edge:hover polygon { stroke: red; fill: red; }
]]></style>
<script type="application/ecmascript" xlink:href="svg.min.js"/>
<svg id="graph" class="graph">
<g id="graph0" class="graph" transform="scale(1 1) rotate(0) translate(4 280)">
<title>Acts::GraphViz::Edge</title>
<!-- Node1 -->
<g id="Node000001" class="node">
<title>Node1</title>
<g id="a_Node000001"><a xlink:title=" ">
<polygon fill="#999999" stroke="#666666" points="168,-19 50,-19 50,0 168,0 168,-19"/>
<text text-anchor="middle" x="109" y="-7" font-family="Helvetica,sans-Serif" font-size="10.00">Acts::GraphViz::Edge</text>
</a>
</g>
</g>
<!-- Node2 -->
<g id="Node000002" class="node">
<title>Node2</title>
<g id="a_Node000002"><a xlink:href="struct_acts_1_1_graph_viz_1_1_node.html" target="_top" xlink:title=" ">
<polygon fill="white" stroke="#666666" points="168.5,-106 49.5,-106 49.5,-87 168.5,-87 168.5,-106"/>
<text text-anchor="middle" x="109" y="-94" font-family="Helvetica,sans-Serif" font-size="10.00">Acts::GraphViz::Node</text>
</a>
</g>
</g>
<!-- Node2&#45;&gt;Node1 -->
<g id="edge1_Node000001_Node000002" class="edge">
<title>Node2&#45;&gt;Node1</title>
<g id="a_edge1_Node000001_Node000002"><a xlink:title=" ">
<path fill="none" stroke="#9a32cd" stroke-dasharray="5,2" d="M109,-76.62C109,-58.79 109,-32.83 109,-19.36"/>
<polygon fill="#9a32cd" stroke="#9a32cd" points="105.5,-76.72 109,-86.72 112.5,-76.72 105.5,-76.72"/>
</a>
</g>
<text text-anchor="start" x="112" y="-58" font-family="Helvetica,sans-Serif" font-size="10.00" fill="grey">from</text>
<text text-anchor="start" x="112" y="-43" font-family="Helvetica,sans-Serif" font-size="10.00" fill="grey">to</text>
</g>
<!-- Node3 -->
<g id="Node000003" class="node">
<title>Node3</title>
<g id="a_Node000003"><a xlink:title=" ">
<polygon fill="white" stroke="#666666" points="87.5,-193 22.5,-193 22.5,-174 87.5,-174 87.5,-193"/>
<text text-anchor="middle" x="55" y="-181" font-family="Helvetica,sans-Serif" font-size="10.00">std::string</text>
</a>
</g>
</g>
<!-- Node3&#45;&gt;Node2 -->
<g id="edge2_Node000002_Node000003" class="edge">
<title>Node3&#45;&gt;Node2</title>
<g id="a_edge2_Node000002_Node000003"><a xlink:title=" ">
<path fill="none" stroke="#9a32cd" stroke-dasharray="5,2" d="M66.19,-164.88C77.53,-147.03 94.61,-120.15 103.37,-106.36"/>
<polygon fill="#9a32cd" stroke="#9a32cd" points="62.98,-163.41 60.58,-173.72 68.89,-167.16 62.98,-163.41"/>
</a>
</g>
<text text-anchor="start" x="95.5" y="-145" font-family="Helvetica,sans-Serif" font-size="10.00" fill="grey">id</text>
<text text-anchor="start" x="95.5" y="-130" font-family="Helvetica,sans-Serif" font-size="10.00" fill="grey">label</text>
</g>
<!-- Node4 -->
<g id="Node000004" class="node">
<title>Node4</title>
<g id="a_Node000004"><a xlink:title=" ">
<polygon fill="white" stroke="#666666" points="104,-276 0,-276 0,-246 104,-246 104,-276"/>
<text text-anchor="start" x="8" y="-264" font-family="Helvetica,sans-Serif" font-size="10.00">std::basic_string&lt;</text>
<text text-anchor="middle" x="52" y="-253" font-family="Helvetica,sans-Serif" font-size="10.00"> Char &gt;</text>
</a>
</g>
</g>
<!-- Node4&#45;&gt;Node3 -->
<g id="edge3_Node000003_Node000004" class="edge">
<title>Node4&#45;&gt;Node3</title>
<g id="a_edge3_Node000003_Node000004"><a xlink:title=" ">
<path fill="none" stroke="#63b8ff" d="M52.98,-235.4C53.56,-220.81 54.26,-203.22 54.66,-193.01"/>
<polygon fill="#63b8ff" stroke="#63b8ff" points="49.46,-235.67 52.56,-245.8 56.46,-235.95 49.46,-235.67"/>
</a>
</g>
</g>
<!-- Node5 -->
<g id="Node000005" class="node">
<title>Node5</title>
<g id="a_Node000005"><a xlink:title=" ">
<polygon fill="white" stroke="#666666" points="227,-193 111,-193 111,-174 227,-174 227,-193"/>
<text text-anchor="middle" x="169" y="-181" font-family="Helvetica,sans-Serif" font-size="10.00">std::vector&lt; Style &gt;</text>
</a>
</g>
</g>
<!-- Node5&#45;&gt;Node2 -->
<g id="edge4_Node000002_Node000005" class="edge">
<title>Node5&#45;&gt;Node2</title>
<g id="a_edge4_Node000002_Node000005"><a xlink:title=" ">
<path fill="none" stroke="#9a32cd" stroke-dasharray="5,2" d="M156.91,-165.37C144.32,-147.53 125.08,-120.28 115.25,-106.36"/>
<polygon fill="#9a32cd" stroke="#9a32cd" points="154.18,-167.57 162.8,-173.72 159.9,-163.54 154.18,-167.57"/>
</a>
</g>
<text text-anchor="start" x="153.5" y="-137" font-family="Helvetica,sans-Serif" font-size="10.00" fill="grey">style</text>
</g>
<!-- Node6 -->
<g id="Node000006" class="node">
<title>Node6</title>
<g id="a_Node000006"><a xlink:title=" ">
<polygon fill="white" stroke="#666666" points="219.5,-270.5 122.5,-270.5 122.5,-251.5 219.5,-251.5 219.5,-270.5"/>
<text text-anchor="middle" x="171" y="-258.5" font-family="Helvetica,sans-Serif" font-size="10.00">std::vector&lt; T &gt;</text>
</a>
</g>
</g>
<!-- Node6&#45;&gt;Node5 -->
<g id="edge5_Node000005_Node000006" class="edge">
<title>Node6&#45;&gt;Node5</title>
<g id="a_edge5_Node000005_Node000006"><a xlink:title=" ">
<path fill="none" stroke="orange" stroke-dasharray="5,2" d="M170.49,-240.9C170.09,-225.51 169.53,-204.61 169.23,-193.06"/>
<polygon fill="orange" stroke="orange" points="167.01,-241.44 170.77,-251.34 174,-241.25 167.01,-241.44"/>
</a>
</g>
<text text-anchor="start" x="173" y="-216.5" font-family="Helvetica,sans-Serif" font-size="10.00" fill="grey">&lt; Style &gt;</text>
</g>
</g>
</svg>
</svg>

<style type='text/css'>
<![CDATA[
[data-mouse-over-selected='false'] { opacity: 0.7; }
[data-mouse-over-selected='true']  { opacity: 1.0; }
]]>
</style>
<script type="application/ecmascript"><![CDATA[
document.addEventListener('DOMContentLoaded', (event) => {
  highlightEdges();
  highlightAdjacentNodes();
});
]]></script>
</svg>
