<?xml version="1.0" encoding="UTF-8" standalone="no"?>
<!DOCTYPE svg PUBLIC "-//W3C//DTD SVG 1.1//EN"
 "http://www.w3.org/Graphics/SVG/1.1/DTD/svg11.dtd">
<!-- Generated by graphviz version 2.43.0 (0)
 -->
<!-- Title: Acts::AnyBaseAll Pages: 1 -->
<!--zoomable 463 -->

<svg id="main" version="1.1" xmlns="http://www.w3.org/2000/svg" xmlns:xlink="http://www.w3.org/1999/xlink" xml:space="preserve" onload="init(evt)">

<style type="text/css"><![CDATA[
.node, .edge {opacity: 0.7;}
.node.selected, .edge.selected {opacity: 1;}
.edge:hover path { stroke: red; }
.edge:hover polygon { stroke: red; fill: red; }
]]></style>

<defs>
  <circle id="rim" cx="0" cy="0" r="7"/>
  <circle id="rim2" cx="0" cy="0" r="3.5"/>
  <g id="zoomPlus">
    <use xlink:href="#rim" fill="#404040"><set attributeName="fill" to="#808080" begin="zoomplus.mouseover" end="zoomplus.mouseout"/></use>
    <path d="M-4,0h8M0,-4v8" fill="none" stroke="white" stroke-width="1.5" pointer-events="none"/>
  </g>
  <g id="zoomMin">
    <use xlink:href="#rim" fill="#404040"><set attributeName="fill" to="#808080" begin="zoomminus.mouseover" end="zoomminus.mouseout"/></use>
    <path d="M-4,0h8" fill="none" stroke="white" stroke-width="1.5" pointer-events="none"/>
  </g>
  <g id="arrowUp" transform="translate(30 24)">
    <use xlink:href="#rim"/>
    <path pointer-events="none" fill="none" stroke="white" stroke-width="1.5" d="M0,-3.0v7 M-2.5,-0.5L0,-3.0L2.5,-0.5"/>
  </g>
  <g id="arrowRight" transform="rotate(90) translate(36 -43)">
    <use xlink:href="#rim"/>
    <path pointer-events="none" fill="none" stroke="white" stroke-width="1.5" d="M0,-3.0v7 M-2.5,-0.5L0,-3.0L2.5,-0.5"/>
  </g>
  <g id="arrowDown" transform="rotate(180) translate(-30 -48)">
    <use xlink:href="#rim"/>
    <path pointer-events="none" fill="none" stroke="white" stroke-width="1.5" d="M0,-3.0v7 M-2.5,-0.5L0,-3.0L2.5,-0.5"/>
  </g>
  <g id="arrowLeft" transform="rotate(270) translate(-36 17)">
    <use xlink:href="#rim"/>
    <path pointer-events="none" fill="none" stroke="white" stroke-width="1.5" d="M0,-3.0v7 M-2.5,-0.5L0,-3.0L2.5,-0.5"/>
  </g>
  <g id="resetDef">
    <use xlink:href="#rim2" fill="#404040"><set attributeName="fill" to="#808080" begin="reset.mouseover" end="reset.mouseout"/></use>
  </g>
</defs>
<script type="application/ecmascript">
var viewWidth = 607;
var viewHeight = 463;
var sectionId = 'dynsection-0';
</script>
<script type="application/ecmascript" xlink:href="svg.min.js"/>
<svg id="graph" class="graph">
<g id="viewport">
<title>Acts::AnyBaseAll</title>
<!-- Node1 -->
<g id="Node000001" class="node">
<title>Node1</title>
<g id="a_Node000001"><a xlink:title="Base class for all instances of AnyBase regarfless of SBO size.">
<polygon fill="#999999" stroke="#666666" points="99,-206.36 0,-206.36 0,-187.36 99,-187.36 99,-206.36"/>
<text text-anchor="middle" x="49.5" y="-194.36" font-family="Helvetica,sans-Serif" font-size="10.00">Acts::AnyBaseAll</text>
</a>
</g>
</g>
<!-- Node2 -->
<g id="Node000002" class="node">
<title>Node2</title>
<g id="a_Node000002"><a xlink:href="class_acts_1_1_any_base.html" target="_top" xlink:title=" ">
<polygon fill="white" stroke="#666666" points="595,-291.86 446,-291.86 446,-261.86 595,-261.86 595,-291.86"/>
<text text-anchor="start" x="454" y="-279.86" font-family="Helvetica,sans-Serif" font-size="10.00">Acts::AnyBase&lt; ACTS</text>
<text text-anchor="middle" x="520.5" y="-268.86" font-family="Helvetica,sans-Serif" font-size="10.00">_SOURCELINK_SBO_SIZE &gt;</text>
</a>
</g>
</g>
<!-- Node1&#45;&gt;Node2 -->
<g id="edge1_Node000001_Node000002" class="edge">
<title>Node1&#45;&gt;Node2</title>
<g id="a_edge1_Node000001_Node000002"><a xlink:title=" ">
<path fill="none" stroke="#63b8ff" d="M68.21,-213.26C105.32,-246.35 195.41,-320.26 287,-346.86 345.47,-363.84 371.84,-378.27 424,-346.86 438.65,-338.04 429.6,-324.63 442,-312.86 451.15,-304.18 462.76,-297.29 474.2,-291.97"/>
<polygon fill="#63b8ff" stroke="#63b8ff" points="70.49,-210.6 60.72,-206.49 65.79,-215.79 70.49,-210.6"/>
</a>
</g>
</g>
<!-- Node3 -->
<g id="Node000003" class="node">
<title>Node3</title>
<g id="a_Node000003"><a xlink:href="class_acts_1_1_any_base.html" target="_top" xlink:title=" ">
<polygon fill="white" stroke="#666666" points="584,-351.86 457,-351.86 457,-321.86 584,-321.86 584,-351.86"/>
<text text-anchor="start" x="465" y="-339.86" font-family="Helvetica,sans-Serif" font-size="10.00">Acts::AnyBase&lt; sizeof</text>
<text text-anchor="middle" x="520.5" y="-328.86" font-family="Helvetica,sans-Serif" font-size="10.00">(char) *512 &gt;</text>
</a>
</g>
</g>
<!-- Node1&#45;&gt;Node3 -->
<g id="edge2_Node000001_Node000003" class="edge">
<title>Node1&#45;&gt;Node3</title>
<g id="a_edge2_Node000001_Node000003"><a xlink:title=" ">
<path fill="none" stroke="#63b8ff" d="M60.88,-215.08C89.39,-262.83 174.32,-390.44 287,-426.86 344.94,-445.59 367.41,-449.33 424,-426.86 428.98,-424.89 478.15,-377.28 503.92,-352.12"/>
<polygon fill="#63b8ff" stroke="#63b8ff" points="63.87,-213.26 55.8,-206.4 57.83,-216.8 63.87,-213.26"/>
</a>
</g>
</g>
<!-- Node4 -->
<g id="Node000004" class="node">
<title>Node4</title>
<g id="a_Node000004"><a xlink:href="class_acts_1_1_any_base.html" target="_top" xlink:title=" ">
<polygon fill="white" stroke="#666666" points="599,-450.86 442,-450.86 442,-420.86 599,-420.86 599,-450.86"/>
<text text-anchor="start" x="450" y="-438.86" font-family="Helvetica,sans-Serif" font-size="10.00">Acts::AnyBase&lt; kNavigation</text>
<text text-anchor="middle" x="520.5" y="-427.86" font-family="Helvetica,sans-Serif" font-size="10.00">PolicyStateSbo &gt;</text>
</a>
</g>
</g>
<!-- Node1&#45;&gt;Node4 -->
<g id="edge3_Node000001_Node000004" class="edge">
<title>Node1&#45;&gt;Node4</title>
<g id="a_edge3_Node000001_Node000004"><a xlink:title=" ">
<path fill="none" stroke="#63b8ff" d="M54.56,-216.39C63.23,-253.54 86.9,-334.95 136,-382.86 216.33,-461.26 355.05,-459.93 441.8,-449.52"/>
<polygon fill="#63b8ff" stroke="#63b8ff" points="57.92,-215.37 52.34,-206.37 51.09,-216.89 57.92,-215.37"/>
</a>
</g>
</g>
<!-- Node5 -->
<g id="Node000005" class="node">
<title>Node5</title>
<g id="a_Node000005"><a xlink:href="class_acts_1_1_any_base.html" target="_top" xlink:title=" ">
<polygon fill="white" stroke="#666666" points="584,-45.86 457,-45.86 457,-15.86 584,-15.86 584,-45.86"/>
<text text-anchor="start" x="465" y="-33.86" font-family="Helvetica,sans-Serif" font-size="10.00">Acts::AnyBase&lt; sizeof</text>
<text text-anchor="middle" x="520.5" y="-22.86" font-family="Helvetica,sans-Serif" font-size="10.00">(void *), true &gt;</text>
</a>
</g>
</g>
<!-- Node1&#45;&gt;Node5 -->
<g id="edge4_Node000001_Node000005" class="edge">
<title>Node1&#45;&gt;Node5</title>
<g id="a_edge4_Node000001_Node000005"><a xlink:title=" ">
<path fill="none" stroke="#63b8ff" d="M55.25,-177.46C64.51,-144.2 88.37,-76.88 136,-45.86 234.68,18.41 379.91,1.08 460.37,-15.81"/>
<polygon fill="#63b8ff" stroke="#63b8ff" points="51.81,-176.77 52.65,-187.33 58.58,-178.55 51.81,-176.77"/>
</a>
</g>
</g>
<!-- Node6 -->
<g id="Node000006" class="node">
<title>Node6</title>
<g id="a_Node000006"><a xlink:href="class_acts_1_1_any_base.html" target="_top" xlink:title=" ">
<polygon fill="white" stroke="#666666" points="584,-208.86 457,-208.86 457,-178.86 584,-178.86 584,-208.86"/>
<text text-anchor="start" x="465" y="-196.86" font-family="Helvetica,sans-Serif" font-size="10.00">Acts::AnyBase&lt; sizeof</text>
<text text-anchor="middle" x="520.5" y="-185.86" font-family="Helvetica,sans-Serif" font-size="10.00">(void *), false &gt;</text>
</a>
</g>
</g>
<!-- Node1&#45;&gt;Node6 -->
<g id="edge5_Node000001_Node000006" class="edge">
<title>Node1&#45;&gt;Node6</title>
<g id="a_edge5_Node000001_Node000006"><a xlink:title=" ">
<path fill="none" stroke="#63b8ff" d="M109.25,-187.72C182.92,-177.55 313.02,-163.93 424,-174.86 434.68,-175.91 445.94,-177.61 456.83,-179.57"/>
<polygon fill="#63b8ff" stroke="#63b8ff" points="108.66,-184.26 99.24,-189.12 109.63,-191.2 108.66,-184.26"/>
</a>
</g>
</g>
<!-- Node7 -->
<g id="Node000007" class="node">
<title>Node7</title>
<g id="a_Node000007"><a xlink:href="class_acts_1_1_any_base.html" target="_top" xlink:title=" ">
<polygon fill="white" stroke="#666666" points="587,-110.86 454,-110.86 454,-80.86 587,-80.86 587,-110.86"/>
<text text-anchor="start" x="462" y="-98.86" font-family="Helvetica,sans-Serif" font-size="10.00">Acts::AnyBase&lt; SbSize,</text>
<text text-anchor="middle" x="520.5" y="-87.86" font-family="Helvetica,sans-Serif" font-size="10.00"> true, Base &gt;</text>
</a>
</g>
</g>
<!-- Node1&#45;&gt;Node7 -->
<g id="edge6_Node000001_Node000007" class="edge">
<title>Node1&#45;&gt;Node7</title>
<g id="a_edge6_Node000001_Node000007"><a xlink:title=" ">
<path fill="none" stroke="#63b8ff" d="M64.12,-179.4C79.77,-160.27 107.06,-129.68 136,-109.86 196.29,-68.59 215.44,-59.61 287,-44.86 346.64,-32.57 365.06,-29.59 424,-44.86 432.86,-47.16 433.95,-50.5 442,-54.86 458.06,-63.57 476.09,-73.12 490.72,-80.81"/>
<polygon fill="#63b8ff" stroke="#63b8ff" points="61.31,-177.31 57.78,-187.3 66.77,-181.69 61.31,-177.31"/>
</a>
</g>
</g>
<!-- Node8 -->
<g id="Node000008" class="node">
<title>Node8</title>
<g id="a_Node000008"><a xlink:href="class_acts_1_1_any_base.html" target="_top" xlink:title=" ">
<polygon fill="white" stroke="#666666" points="584,-156.36 457,-156.36 457,-137.36 584,-137.36 584,-156.36"/>
<text text-anchor="middle" x="520.5" y="-144.36" font-family="Helvetica,sans-Serif" font-size="10.00">Acts::AnyBase&lt; 128 &gt;</text>
</a>
</g>
</g>
<!-- Node1&#45;&gt;Node8 -->
<g id="edge7_Node000001_Node000008" class="edge">
<title>Node1&#45;&gt;Node8</title>
<g id="a_edge7_Node000001_Node000008"><a xlink:title=" ">
<path fill="none" stroke="#63b8ff" d="M78.55,-182.83C121.94,-162 208.52,-123.84 287,-109.86 346.95,-99.19 365.06,-94.59 424,-109.86 432.86,-112.16 433.65,-116.12 442,-119.86 456.82,-126.5 473.81,-132.58 488.1,-137.29"/>
<polygon fill="#63b8ff" stroke="#63b8ff" points="76.94,-179.72 69.47,-187.24 80,-186.02 76.94,-179.72"/>
</a>
</g>
</g>
<!-- Node9 -->
<g id="Node000009" class="node">
<title>Node9</title>
<g id="a_Node000009"><a xlink:href="class_acts_1_1_any_base.html" target="_top" xlink:title="Small opaque type&#45;erased type with configurable small buffer optimization.">
<polygon fill="white" stroke="#666666" points="269,-239.86 136,-239.86 136,-209.86 269,-209.86 269,-239.86"/>
<text text-anchor="start" x="144" y="-227.86" font-family="Helvetica,sans-Serif" font-size="10.00">Acts::AnyBase&lt; SbSize,</text>
<text text-anchor="middle" x="202.5" y="-216.86" font-family="Helvetica,sans-Serif" font-size="10.00"> Copyable, Base &gt;</text>
</a>
</g>
</g>
<!-- Node1&#45;&gt;Node9 -->
<g id="edge8_Node000001_Node000009" class="edge">
<title>Node1&#45;&gt;Node9</title>
<g id="a_edge8_Node000001_Node000009"><a xlink:title=" ">
<path fill="none" stroke="#63b8ff" d="M109.21,-207.75C117.96,-209.37 127.03,-211.05 135.91,-212.7"/>
<polygon fill="#63b8ff" stroke="#63b8ff" points="109.58,-204.26 99.11,-205.88 108.3,-211.14 109.58,-204.26"/>
</a>
</g>
</g>
<!-- Node9&#45;&gt;Node2 -->
<g id="edge9_Node000009_Node000002" class="edge">
<title>Node9&#45;&gt;Node2</title>
<g id="a_edge9_Node000009_Node000002"><a xlink:title=" ">
<path fill="none" stroke="orange" stroke-dasharray="5,2" d="M278.95,-241.37C281.67,-241.88 284.35,-242.38 287,-242.86 339.99,-252.44 400.15,-261.18 445.99,-267.4"/>
<polygon fill="orange" stroke="orange" points="279.54,-237.91 269.05,-239.43 278.2,-244.78 279.54,-237.91"/>
</a>
</g>
<text text-anchor="start" x="290.5" y="-283.86" font-family="Helvetica,sans-Serif" font-size="10.00" fill="grey">&lt; ACTS_SOURCELINK_SBO</text>
<text text-anchor="start" x="290.5" y="-268.86" font-family="Helvetica,sans-Serif" font-size="10.00" fill="grey">  _SIZE &gt;</text>
</g>
<!-- Node9&#45;&gt;Node3 -->
<g id="edge10_Node000009_Node000003" class="edge">
<title>Node9&#45;&gt;Node3</title>
<g id="a_edge10_Node000009_Node000003"><a xlink:title=" ">
<path fill="none" stroke="orange" stroke-dasharray="5,2" d="M222.87,-247.95C238.41,-264.86 261.74,-286.86 287,-298.86 340.75,-324.4 408.51,-333.19 456.99,-336.01"/>
<polygon fill="orange" stroke="orange" points="225.17,-245.27 215.9,-240.13 219.94,-249.92 225.17,-245.27"/>
</a>
</g>
<text text-anchor="start" x="302.5" y="-338.36" font-family="Helvetica,sans-Serif" font-size="10.00" fill="grey">&lt; sizeof(char) *512 &gt;</text>
</g>
<!-- Node9&#45;&gt;Node4 -->
<g id="edge11_Node000009_Node000004" class="edge">
<title>Node9&#45;&gt;Node4</title>
<g id="a_edge11_Node000009_Node000004"><a xlink:title=" ">
<path fill="none" stroke="orange" stroke-dasharray="5,2" d="M213.39,-249.27C226.26,-278.13 251.39,-325.79 287,-353.86 331.95,-389.31 393.4,-410.1 441.83,-421.87"/>
<polygon fill="orange" stroke="orange" points="216.53,-247.7 209.35,-239.91 210.1,-250.47 216.53,-247.7"/>
</a>
</g>
<text text-anchor="start" x="292.5" y="-437.86" font-family="Helvetica,sans-Serif" font-size="10.00" fill="grey">&lt; kNavigationPolicyState</text>
<text text-anchor="start" x="292.5" y="-422.86" font-family="Helvetica,sans-Serif" font-size="10.00" fill="grey">  Sbo &gt;</text>
</g>
<!-- Node9&#45;&gt;Node5 -->
<g id="edge12_Node000009_Node000005" class="edge">
<title>Node9&#45;&gt;Node5</title>
<g id="a_edge12_Node000009_Node000005"><a xlink:title=" ">
<path fill="none" stroke="orange" stroke-dasharray="5,2" d="M210.99,-199.7C222.08,-167.01 246.08,-110.61 287,-80.86 336.51,-44.87 406.65,-33.8 456.92,-30.85"/>
<polygon fill="orange" stroke="orange" points="207.6,-198.82 207.84,-209.42 214.25,-200.98 207.6,-198.82"/>
</a>
</g>
<text text-anchor="start" x="298.5" y="-86.36" font-family="Helvetica,sans-Serif" font-size="10.00" fill="grey">&lt; sizeof(void *), true &gt;</text>
</g>
<!-- Node9&#45;&gt;Node6 -->
<g id="edge13_Node000009_Node000006" class="edge">
<title>Node9&#45;&gt;Node6</title>
<g id="a_edge13_Node000009_Node000006"><a xlink:title=" ">
<path fill="none" stroke="orange" stroke-dasharray="5,2" d="M279.33,-222.78C321.96,-221.01 376.08,-217.77 424,-211.86 434.63,-210.55 445.87,-208.78 456.75,-206.87"/>
<polygon fill="orange" stroke="orange" points="279.16,-219.28 269.31,-223.17 279.44,-226.28 279.16,-219.28"/>
</a>
</g>
<text text-anchor="start" x="296.5" y="-227.36" font-family="Helvetica,sans-Serif" font-size="10.00" fill="grey">&lt; sizeof(void *), false &gt;</text>
</g>
<!-- Node9&#45;&gt;Node7 -->
<g id="edge14_Node000009_Node000007" class="edge">
<title>Node9&#45;&gt;Node7</title>
<g id="a_edge14_Node000009_Node000007"><a xlink:title=" ">
<path fill="none" stroke="orange" stroke-dasharray="5,2" d="M219.78,-201.68C234.89,-182.02 259.19,-154.72 287,-139.86 338.81,-112.18 405.29,-101.69 453.88,-97.83"/>
<polygon fill="orange" stroke="orange" points="216.87,-199.73 213.7,-209.84 222.48,-203.92 216.87,-199.73"/>
</a>
</g>
<text text-anchor="start" x="300.5" y="-145.36" font-family="Helvetica,sans-Serif" font-size="10.00" fill="grey">&lt; SbSize, true, Base &gt;</text>
</g>
<!-- Node9&#45;&gt;Node8 -->
<g id="edge15_Node000009_Node000008" class="edge">
<title>Node9&#45;&gt;Node8</title>
<g id="a_edge15_Node000009_Node000008"><a xlink:title=" ">
<path fill="none" stroke="orange" stroke-dasharray="5,2" d="M245.51,-205.85C258.6,-200.44 273.23,-194.92 287,-190.86 343.35,-174.24 409.29,-162.46 456.53,-155.3"/>
<polygon fill="orange" stroke="orange" points="244.13,-202.63 236.28,-209.74 246.85,-209.08 244.13,-202.63"/>
</a>
</g>
<text text-anchor="start" x="335.5" y="-196.36" font-family="Helvetica,sans-Serif" font-size="10.00" fill="grey">&lt; 128 &gt;</text>
</g>
</g>
</svg>

<g id="navigator" transform="translate(0 0)" fill="#404254">
  <rect fill="#f2f5e9" fill-opacity="0.5" stroke="#606060" stroke-width=".5" x="0" y="0" width="60" height="60"/>
  <use id="zoomplus" xlink:href="#zoomPlus" x="17" y="9" onmousedown="handleZoom(evt,'in')"/>
  <use id="zoomminus" xlink:href="#zoomMin" x="42" y="9" onmousedown="handleZoom(evt,'out')"/>
  <use id="reset" xlink:href="#resetDef" x="30" y="36" onmousedown="handleReset()"/>
   <use id="arrowup" xlink:href="#arrowUp" x="0" y="0" onmousedown="handlePan(0,-1)"/>
  <use id="arrowright" xlink:href="#arrowRight" x="0" y="0" onmousedown="handlePan(1,0)"/>
  <use id="arrowdown" xlink:href="#arrowDown" x="0" y="0" onmousedown="handlePan(0,1)"/>
  <use id="arrowleft" xlink:href="#arrowLeft" x="0" y="0" onmousedown="handlePan(-1,0)"/>
</g>
<svg viewBox="0 0 15 15" width="100%" height="30px" preserveAspectRatio="xMaxYMin meet">
 <g id="arrow_out" transform="scale(0.3 0.3)">
  <a xlink:href="class_acts_1_1_any_base_all__inherit__graph_org.svg" target="_base">
   <rect id="button" ry="5" rx="5" y="6" x="6" height="38" width="38"
        fill="#f2f5e9" fill-opacity="0.5" stroke="#606060" stroke-width="1.0"/>
   <path id="arrow"
     d="M 11.500037,31.436501 C 11.940474,20.09759 22.043105,11.32322 32.158766,21.979434 L 37.068811,17.246167 C 37.068811,17.246167 37.088388,32 37.088388,32 L 22.160133,31.978069 C 22.160133,31.978069 26.997745,27.140456 26.997745,27.140456 C 18.528582,18.264221 13.291696,25.230495 11.500037,31.436501 z"
     style="fill:#404040;"/>
  </a>
 </g>
</svg>

<style type='text/css'>
<![CDATA[
[data-mouse-over-selected='false'] { opacity: 0.7; }
[data-mouse-over-selected='true']  { opacity: 1.0; }
]]>
</style>
<script type="application/ecmascript"><![CDATA[
document.addEventListener('DOMContentLoaded', (event) => {
  highlightEdges();
  highlightAdjacentNodes();
});
]]></script>
</svg>
