<?xml version="1.0" encoding="UTF-8" standalone="no"?>
<!DOCTYPE svg PUBLIC "-//W3C//DTD SVG 1.1//EN"
 "http://www.w3.org/Graphics/SVG/1.1/DTD/svg11.dtd">
<!-- Generated by graphviz version 2.43.0 (0)
 -->
<!-- Title: Acts::CombinatorialKalmanFilterOptions&lt; track_container_t &gt; Pages: 1 -->
<!--zoomable 375 -->

<svg id="main" version="1.1" xmlns="http://www.w3.org/2000/svg" xmlns:xlink="http://www.w3.org/1999/xlink" xml:space="preserve" onload="init(evt)">

<style type="text/css"><![CDATA[
.node, .edge {opacity: 0.7;}
.node.selected, .edge.selected {opacity: 1;}
.edge:hover path { stroke: red; }
.edge:hover polygon { stroke: red; fill: red; }
]]></style>

<defs>
  <circle id="rim" cx="0" cy="0" r="7"/>
  <circle id="rim2" cx="0" cy="0" r="3.5"/>
  <g id="zoomPlus">
    <use xlink:href="#rim" fill="#404040"><set attributeName="fill" to="#808080" begin="zoomplus.mouseover" end="zoomplus.mouseout"/></use>
    <path d="M-4,0h8M0,-4v8" fill="none" stroke="white" stroke-width="1.5" pointer-events="none"/>
  </g>
  <g id="zoomMin">
    <use xlink:href="#rim" fill="#404040"><set attributeName="fill" to="#808080" begin="zoomminus.mouseover" end="zoomminus.mouseout"/></use>
    <path d="M-4,0h8" fill="none" stroke="white" stroke-width="1.5" pointer-events="none"/>
  </g>
  <g id="arrowUp" transform="translate(30 24)">
    <use xlink:href="#rim"/>
    <path pointer-events="none" fill="none" stroke="white" stroke-width="1.5" d="M0,-3.0v7 M-2.5,-0.5L0,-3.0L2.5,-0.5"/>
  </g>
  <g id="arrowRight" transform="rotate(90) translate(36 -43)">
    <use xlink:href="#rim"/>
    <path pointer-events="none" fill="none" stroke="white" stroke-width="1.5" d="M0,-3.0v7 M-2.5,-0.5L0,-3.0L2.5,-0.5"/>
  </g>
  <g id="arrowDown" transform="rotate(180) translate(-30 -48)">
    <use xlink:href="#rim"/>
    <path pointer-events="none" fill="none" stroke="white" stroke-width="1.5" d="M0,-3.0v7 M-2.5,-0.5L0,-3.0L2.5,-0.5"/>
  </g>
  <g id="arrowLeft" transform="rotate(270) translate(-36 17)">
    <use xlink:href="#rim"/>
    <path pointer-events="none" fill="none" stroke="white" stroke-width="1.5" d="M0,-3.0v7 M-2.5,-0.5L0,-3.0L2.5,-0.5"/>
  </g>
  <g id="resetDef">
    <use xlink:href="#rim2" fill="#404040"><set attributeName="fill" to="#808080" begin="reset.mouseover" end="reset.mouseout"/></use>
  </g>
</defs>
<script type="application/ecmascript">
var viewWidth = 1428;
var viewHeight = 375;
var sectionId = 'dynsection-1';
</script>
<script type="application/ecmascript" xlink:href="svg.min.js"/>
<svg id="graph" class="graph">
<g id="viewport">
<title>Acts::CombinatorialKalmanFilterOptions&lt; track_container_t &gt;</title>
<!-- Node1 -->
<g id="Node000001" class="node">
<title>Node1</title>
<g id="a_Node000001"><a xlink:title="Combined options for the combinatorial Kalman filter.">
<polygon fill="#999999" stroke="#666666" points="1420,-209 1234,-209 1234,-179 1420,-179 1420,-209"/>
<text text-anchor="start" x="1242" y="-197" font-family="Helvetica,sans-Serif" font-size="10.00">Acts::CombinatorialKalman</text>
<text text-anchor="middle" x="1327" y="-186" font-family="Helvetica,sans-Serif" font-size="10.00">FilterOptions&lt; track_container_t &gt;</text>
</a>
</g>
</g>
<!-- Node2 -->
<g id="Node000002" class="node">
<title>Node2</title>
<g id="a_Node000002"><a xlink:href="struct_acts_1_1_propagator_plain_options.html" target="_top" xlink:title="Holds the generic propagator options.">
<polygon fill="white" stroke="#666666" points="1077,-298.5 919,-298.5 919,-279.5 1077,-279.5 1077,-298.5"/>
<text text-anchor="middle" x="998" y="-286.5" font-family="Helvetica,sans-Serif" font-size="10.00">Acts::PropagatorPlainOptions</text>
</a>
</g>
</g>
<!-- Node2&#45;&gt;Node1 -->
<g id="edge1_Node000001_Node000002" class="edge">
<title>Node2&#45;&gt;Node1</title>
<g id="a_edge1_Node000001_Node000002"><a xlink:title=" ">
<path fill="none" stroke="#9a32cd" stroke-dasharray="5,2" d="M1041.72,-276.59C1101.47,-259.23 1209.9,-227.73 1274.19,-209.05"/>
<polygon fill="#9a32cd" stroke="#9a32cd" points="1040.48,-273.31 1031.85,-279.46 1042.43,-280.03 1040.48,-273.31"/>
</a>
</g>
<text text-anchor="start" x="1098.5" y="-265.5" font-family="Helvetica,sans-Serif" font-size="10.00" fill="grey">propagatorPlainOptions</text>
</g>
<!-- Node3 -->
<g id="Node000003" class="node">
<title>Node3</title>
<g id="a_Node000003"><a xlink:title=" ">
<polygon fill="white" stroke="#666666" points="772.5,-367 620.5,-367 620.5,-337 772.5,-337 772.5,-367"/>
<text text-anchor="start" x="628.5" y="-355" font-family="Helvetica,sans-Serif" font-size="10.00">Acts::detail::PurePropagator</text>
<text text-anchor="middle" x="696.5" y="-344" font-family="Helvetica,sans-Serif" font-size="10.00">PlainOptions</text>
</a>
</g>
</g>
<!-- Node3&#45;&gt;Node2 -->
<g id="edge2_Node000002_Node000003" class="edge">
<title>Node3&#45;&gt;Node2</title>
<g id="a_edge2_Node000002_Node000003"><a xlink:title=" ">
<path fill="none" stroke="#63b8ff" d="M782.77,-343.68C819.48,-339.11 862.67,-332.42 901,-323 926.58,-316.71 954.91,-306.23 974.11,-298.56"/>
<polygon fill="#63b8ff" stroke="#63b8ff" points="782.11,-340.23 772.6,-344.91 782.95,-347.18 782.11,-340.23"/>
</a>
</g>
</g>
<!-- Node4 -->
<g id="Node000004" class="node">
<title>Node4</title>
<g id="a_Node000004"><a xlink:href="struct_acts_1_1_stepper_plain_options.html" target="_top" xlink:title="Common options shared by plain steppers.">
<polygon fill="white" stroke="#666666" points="768,-318.5 625,-318.5 625,-299.5 768,-299.5 768,-318.5"/>
<text text-anchor="middle" x="696.5" y="-306.5" font-family="Helvetica,sans-Serif" font-size="10.00">Acts::StepperPlainOptions</text>
</a>
</g>
</g>
<!-- Node4&#45;&gt;Node2 -->
<g id="edge3_Node000002_Node000004" class="edge">
<title>Node4&#45;&gt;Node2</title>
<g id="a_edge3_Node000002_Node000004"><a xlink:title=" ">
<path fill="none" stroke="#9a32cd" stroke-dasharray="5,2" d="M778.12,-303.62C821.85,-300.7 875.66,-297.1 918.98,-294.21"/>
<polygon fill="#9a32cd" stroke="#9a32cd" points="777.84,-300.13 768.1,-304.29 778.31,-307.11 777.84,-300.13"/>
</a>
</g>
<text text-anchor="start" x="825" y="-307.5" font-family="Helvetica,sans-Serif" font-size="10.00" fill="grey">stepping</text>
</g>
<!-- Node5 -->
<g id="Node000005" class="node">
<title>Node5</title>
<g id="a_Node000005"><a xlink:href="struct_acts_1_1_stepper_plain_options_1_1_dense.html" target="_top" xlink:title="Options for dense material effects.">
<polygon fill="white" stroke="#666666" points="418,-354 275,-354 275,-324 418,-324 418,-354"/>
<text text-anchor="start" x="283" y="-342" font-family="Helvetica,sans-Serif" font-size="10.00">Acts::StepperPlainOptions</text>
<text text-anchor="middle" x="346.5" y="-331" font-family="Helvetica,sans-Serif" font-size="10.00">::Dense</text>
</a>
</g>
</g>
<!-- Node5&#45;&gt;Node4 -->
<g id="edge4_Node000004_Node000005" class="edge">
<title>Node5&#45;&gt;Node4</title>
<g id="a_edge4_Node000004_Node000005"><a xlink:title=" ">
<path fill="none" stroke="#9a32cd" stroke-dasharray="5,2" d="M428.44,-332.02C487.89,-326.9 567.86,-320 624.76,-315.1"/>
<polygon fill="#9a32cd" stroke="#9a32cd" points="428,-328.55 418.34,-332.89 428.61,-335.52 428,-328.55"/>
</a>
</g>
<text text-anchor="start" x="504" y="-335.5" font-family="Helvetica,sans-Serif" font-size="10.00" fill="grey">dense</text>
</g>
<!-- Node6 -->
<g id="Node000006" class="node">
<title>Node6</title>
<g id="a_Node000006"><a xlink:href="struct_acts_1_1_navigator_plain_options.html" target="_top" xlink:title="Plain navigator options carrying geometry context and navigation settings.">
<polygon fill="white" stroke="#666666" points="773,-278.5 620,-278.5 620,-259.5 773,-259.5 773,-278.5"/>
<text text-anchor="middle" x="696.5" y="-266.5" font-family="Helvetica,sans-Serif" font-size="10.00">Acts::NavigatorPlainOptions</text>
</a>
</g>
</g>
<!-- Node6&#45;&gt;Node2 -->
<g id="edge5_Node000002_Node000006" class="edge">
<title>Node6&#45;&gt;Node2</title>
<g id="a_edge5_Node000002_Node000006"><a xlink:title=" ">
<path fill="none" stroke="#9a32cd" stroke-dasharray="5,2" d="M783.1,-268.63C819.51,-269.11 862.39,-270.52 901,-274 915.03,-275.26 930.12,-277.3 944.09,-279.47"/>
<polygon fill="#9a32cd" stroke="#9a32cd" points="783.05,-265.13 773.01,-268.51 782.98,-272.13 783.05,-265.13"/>
</a>
</g>
<text text-anchor="start" x="820" y="-279.5" font-family="Helvetica,sans-Serif" font-size="10.00" fill="grey">navigation</text>
</g>
<!-- Node7 -->
<g id="Node000007" class="node">
<title>Node7</title>
<g id="a_Node000007"><a xlink:title=" ">
<polygon fill="white" stroke="#666666" points="401.5,-306 291.5,-306 291.5,-276 401.5,-276 401.5,-306"/>
<text text-anchor="start" x="299.5" y="-294" font-family="Helvetica,sans-Serif" font-size="10.00">std::vector&lt; Acts::</text>
<text text-anchor="middle" x="346.5" y="-283" font-family="Helvetica,sans-Serif" font-size="10.00">ExtendedSurface &gt;</text>
</a>
</g>
</g>
<!-- Node7&#45;&gt;Node6 -->
<g id="edge6_Node000006_Node000007" class="edge">
<title>Node7&#45;&gt;Node6</title>
<g id="a_edge6_Node000006_Node000007"><a xlink:title=" ">
<path fill="none" stroke="#9a32cd" stroke-dasharray="5,2" d="M412.16,-286.91C470.99,-283.19 557.86,-277.7 619.88,-273.78"/>
<polygon fill="#9a32cd" stroke="#9a32cd" points="411.63,-283.44 401.88,-287.56 412.08,-290.42 411.63,-283.44"/>
</a>
</g>
<text text-anchor="start" x="475" y="-290.5" font-family="Helvetica,sans-Serif" font-size="10.00" fill="grey">extendedSurfaces</text>
</g>
<!-- Node8 -->
<g id="Node000008" class="node">
<title>Node8</title>
<g id="a_Node000008"><a xlink:title=" ">
<polygon fill="white" stroke="#666666" points="97,-276.5 0,-276.5 0,-257.5 97,-257.5 97,-276.5"/>
<text text-anchor="middle" x="48.5" y="-264.5" font-family="Helvetica,sans-Serif" font-size="10.00">std::vector&lt; T &gt;</text>
</a>
</g>
</g>
<!-- Node8&#45;&gt;Node7 -->
<g id="edge7_Node000007_Node000008" class="edge">
<title>Node8&#45;&gt;Node7</title>
<g id="a_edge7_Node000007_Node000008"><a xlink:title=" ">
<path fill="none" stroke="orange" stroke-dasharray="5,2" d="M107.03,-271.66C160.34,-275.99 239.06,-282.37 291.28,-286.6"/>
<polygon fill="orange" stroke="orange" points="107.31,-268.18 97.06,-270.86 106.74,-275.15 107.31,-268.18"/>
</a>
</g>
<text text-anchor="start" x="120" y="-288.5" font-family="Helvetica,sans-Serif" font-size="10.00" fill="grey">&lt; Acts::ExtendedSurface &gt;</text>
</g>
<!-- Node9 -->
<g id="Node000009" class="node">
<title>Node9</title>
<g id="a_Node000009"><a xlink:title=" ">
<polygon fill="white" stroke="#666666" points="403.5,-258 289.5,-258 289.5,-228 403.5,-228 403.5,-258"/>
<text text-anchor="start" x="297.5" y="-246" font-family="Helvetica,sans-Serif" font-size="10.00">std::vector&lt; Acts::</text>
<text text-anchor="middle" x="346.5" y="-235" font-family="Helvetica,sans-Serif" font-size="10.00">AdditionalSurface &gt;</text>
</a>
</g>
</g>
<!-- Node8&#45;&gt;Node9 -->
<g id="edge9_Node000009_Node000008" class="edge">
<title>Node8&#45;&gt;Node9</title>
<g id="a_edge9_Node000009_Node000008"><a xlink:title=" ">
<path fill="none" stroke="orange" stroke-dasharray="5,2" d="M92.75,-255.11C100.12,-253.47 107.75,-252 115,-251 174.1,-242.84 242.49,-241.47 289.33,-241.75"/>
<polygon fill="orange" stroke="orange" points="91.83,-251.74 82.9,-257.44 93.44,-258.55 91.83,-251.74"/>
</a>
</g>
<text text-anchor="start" x="118" y="-256.5" font-family="Helvetica,sans-Serif" font-size="10.00" fill="grey">&lt; Acts::AdditionalSurface &gt;</text>
</g>
<!-- Node9&#45;&gt;Node6 -->
<g id="edge8_Node000006_Node000009" class="edge">
<title>Node9&#45;&gt;Node6</title>
<g id="a_edge8_Node000006_Node000009"><a xlink:title=" ">
<path fill="none" stroke="#9a32cd" stroke-dasharray="5,2" d="M414.05,-243.77C465.49,-244.87 538.4,-247.55 602,-254 615.25,-255.34 629.47,-257.34 642.73,-259.44"/>
<polygon fill="#9a32cd" stroke="#9a32cd" points="413.81,-240.26 403.74,-243.56 413.67,-247.26 413.81,-240.26"/>
</a>
</g>
<text text-anchor="start" x="474" y="-259.5" font-family="Helvetica,sans-Serif" font-size="10.00" fill="grey">additionalSurfaces</text>
</g>
<!-- Node10 -->
<g id="Node000010" class="node">
<title>Node10</title>
<g id="a_Node000010"><a xlink:href="class_acts_1_1_surface.html" target="_top" xlink:title="Abstract Base Class for tracking surfaces.">
<polygon fill="white" stroke="#666666" points="1038,-159.5 958,-159.5 958,-140.5 1038,-140.5 1038,-159.5"/>
<text text-anchor="middle" x="998" y="-147.5" font-family="Helvetica,sans-Serif" font-size="10.00">Acts::Surface</text>
</a>
</g>
</g>
<!-- Node10&#45;&gt;Node1 -->
<g id="edge10_Node000001_Node000010" class="edge">
<title>Node10&#45;&gt;Node1</title>
<g id="a_edge10_Node000001_Node000010"><a xlink:title=" ">
<path fill="none" stroke="#9a32cd" stroke-dasharray="5,2" d="M1048.14,-156.61C1097.13,-163.2 1173.57,-173.49 1233.88,-181.6"/>
<polygon fill="#9a32cd" stroke="#9a32cd" points="1048.5,-153.13 1038.12,-155.26 1047.56,-160.07 1048.5,-153.13"/>
</a>
</g>
<text text-anchor="start" x="1122.5" y="-183.5" font-family="Helvetica,sans-Serif" font-size="10.00" fill="grey">targetSurface</text>
</g>
<!-- Node11 -->
<g id="Node000011" class="node">
<title>Node11</title>
<g id="a_Node000011"><a xlink:href="class_acts_1_1_geometry_object.html" target="_top" xlink:title="Base class to provide GeometryIdentifier interface:">
<polygon fill="white" stroke="#666666" points="758.5,-223.5 634.5,-223.5 634.5,-204.5 758.5,-204.5 758.5,-223.5"/>
<text text-anchor="middle" x="696.5" y="-211.5" font-family="Helvetica,sans-Serif" font-size="10.00">Acts::GeometryObject</text>
</a>
</g>
</g>
<!-- Node11&#45;&gt;Node10 -->
<g id="edge11_Node000010_Node000011" class="edge">
<title>Node11&#45;&gt;Node10</title>
<g id="a_edge11_Node000010_Node000011"><a xlink:title=" ">
<path fill="none" stroke="#63b8ff" d="M759.9,-202.59C800.25,-194.99 853.86,-184.52 901,-174 920.79,-169.59 942.73,-164.14 960.63,-159.55"/>
<polygon fill="#63b8ff" stroke="#63b8ff" points="759.12,-199.17 749.93,-204.45 760.41,-206.05 759.12,-199.17"/>
</a>
</g>
</g>
<!-- Node12 -->
<g id="Node000012" class="node">
<title>Node12</title>
<g id="a_Node000012"><a xlink:href="class_acts_1_1_geometry_identifier.html" target="_top" xlink:title="Identifier for geometry nodes within the geometry hierarchy.">
<polygon fill="white" stroke="#666666" points="414.5,-209.5 278.5,-209.5 278.5,-190.5 414.5,-190.5 414.5,-209.5"/>
<text text-anchor="middle" x="346.5" y="-197.5" font-family="Helvetica,sans-Serif" font-size="10.00">Acts::GeometryIdentifier</text>
</a>
</g>
</g>
<!-- Node12&#45;&gt;Node11 -->
<g id="edge12_Node000011_Node000012" class="edge">
<title>Node12&#45;&gt;Node11</title>
<g id="a_edge12_Node000011_Node000012"><a xlink:title=" ">
<path fill="none" stroke="#9a32cd" stroke-dasharray="5,2" d="M424.71,-200.58C475.19,-201.27 542.55,-202.76 602,-206 612.49,-206.57 623.63,-207.36 634.43,-208.23"/>
<polygon fill="#9a32cd" stroke="#9a32cd" points="424.57,-197.08 414.52,-200.45 424.48,-204.08 424.57,-197.08"/>
</a>
</g>
<text text-anchor="start" x="483" y="-211.5" font-family="Helvetica,sans-Serif" font-size="10.00" fill="grey">m_geometryId</text>
</g>
<!-- Node13 -->
<g id="Node000013" class="node">
<title>Node13</title>
<g id="a_Node000013"><a xlink:title=" ">
<polygon fill="white" stroke="#bfbfbf" points="760.5,-186 632.5,-186 632.5,-156 760.5,-156 760.5,-186"/>
<text text-anchor="start" x="640.5" y="-174" font-family="Helvetica,sans-Serif" font-size="10.00">std::enable_shared</text>
<text text-anchor="middle" x="696.5" y="-163" font-family="Helvetica,sans-Serif" font-size="10.00">_from_this&lt; Surface &gt;</text>
</a>
</g>
</g>
<!-- Node13&#45;&gt;Node10 -->
<g id="edge13_Node000010_Node000013" class="edge">
<title>Node13&#45;&gt;Node10</title>
<g id="a_edge13_Node000010_Node000013"><a xlink:title=" ">
<path fill="none" stroke="#63b8ff" d="M770.66,-165.87C829.65,-161.73 910.34,-156.08 957.74,-152.75"/>
<polygon fill="#63b8ff" stroke="#63b8ff" points="770.38,-162.38 760.65,-166.57 770.87,-169.36 770.38,-162.38"/>
</a>
</g>
</g>
<!-- Node14 -->
<g id="Node000014" class="node">
<title>Node14</title>
<g id="a_Node000014"><a xlink:title=" ">
<polygon fill="white" stroke="#666666" points="773,-137.5 620,-137.5 620,-96.5 773,-96.5 773,-137.5"/>
<text text-anchor="start" x="628" y="-125.5" font-family="Helvetica,sans-Serif" font-size="10.00">std::array&lt; std::string</text>
<text text-anchor="start" x="628" y="-114.5" font-family="Helvetica,sans-Serif" font-size="10.00">_view, Surface::SurfaceType</text>
<text text-anchor="middle" x="696.5" y="-103.5" font-family="Helvetica,sans-Serif" font-size="10.00">::Other+1 &gt;</text>
</a>
</g>
</g>
<!-- Node14&#45;&gt;Node10 -->
<g id="edge14_Node000010_Node000014" class="edge">
<title>Node14&#45;&gt;Node10</title>
<g id="a_edge14_Node000010_Node000014"><a xlink:title=" ">
<path fill="none" stroke="#9a32cd" stroke-dasharray="5,2" d="M783.09,-123.29C819.5,-126.3 862.38,-130.28 901,-135 919.75,-137.29 940.47,-140.45 957.85,-143.28"/>
<polygon fill="#9a32cd" stroke="#9a32cd" points="783.26,-119.8 773.01,-122.47 782.69,-126.77 783.26,-119.8"/>
</a>
</g>
<text text-anchor="start" x="794" y="-140.5" font-family="Helvetica,sans-Serif" font-size="10.00" fill="grey">s_surfaceTypeNames</text>
</g>
<!-- Node15 -->
<g id="Node000015" class="node">
<title>Node15</title>
<g id="a_Node000015"><a xlink:title=" ">
<polygon fill="white" stroke="#666666" points="392.5,-126.5 300.5,-126.5 300.5,-107.5 392.5,-107.5 392.5,-126.5"/>
<text text-anchor="middle" x="346.5" y="-114.5" font-family="Helvetica,sans-Serif" font-size="10.00">std::array&lt; T &gt;</text>
</a>
</g>
</g>
<!-- Node15&#45;&gt;Node14 -->
<g id="edge15_Node000014_Node000015" class="edge">
<title>Node15&#45;&gt;Node14</title>
<g id="a_edge15_Node000014_Node000015"><a xlink:title=" ">
<path fill="none" stroke="orange" stroke-dasharray="5,2" d="M402.82,-117C461.47,-117 554.5,-117 619.9,-117"/>
<polygon fill="orange" stroke="orange" points="402.64,-113.5 392.64,-117 402.64,-120.5 402.64,-113.5"/>
</a>
</g>
<text text-anchor="start" x="463" y="-152.5" font-family="Helvetica,sans-Serif" font-size="10.00" fill="grey">&lt; std::string_view,</text>
<text text-anchor="start" x="463" y="-137.5" font-family="Helvetica,sans-Serif" font-size="10.00" fill="grey">   Surface::SurfaceType</text>
<text text-anchor="start" x="463" y="-122.5" font-family="Helvetica,sans-Serif" font-size="10.00" fill="grey">  ::Other+1 &gt;</text>
</g>
<!-- Node16 -->
<g id="Node000016" class="node">
<title>Node16</title>
<g id="a_Node000016"><a xlink:href="class_acts_1_1_cloneable_ptr.html" target="_top" xlink:title=" ">
<polygon fill="white" stroke="#666666" points="758,-78 635,-78 635,-48 758,-48 758,-78"/>
<text text-anchor="start" x="643" y="-66" font-family="Helvetica,sans-Serif" font-size="10.00">Acts::CloneablePtr</text>
<text text-anchor="middle" x="696.5" y="-55" font-family="Helvetica,sans-Serif" font-size="10.00">&lt; const Transform3 &gt;</text>
</a>
</g>
</g>
<!-- Node16&#45;&gt;Node10 -->
<g id="edge16_Node000010_Node000016" class="edge">
<title>Node16&#45;&gt;Node10</title>
<g id="a_edge16_Node000010_Node000016"><a xlink:title=" ">
<path fill="none" stroke="#9a32cd" stroke-dasharray="5,2" d="M768.34,-72.27C808.01,-78.61 857.99,-88.52 901,-103 930.37,-112.89 962.27,-129.87 980.91,-140.49"/>
<polygon fill="#9a32cd" stroke="#9a32cd" points="768.65,-68.77 758.23,-70.69 767.57,-75.69 768.65,-68.77"/>
</a>
</g>
<text text-anchor="start" x="814" y="-108.5" font-family="Helvetica,sans-Serif" font-size="10.00" fill="grey">m_transform</text>
</g>
<!-- Node17 -->
<g id="Node000017" class="node">
<title>Node17</title>
<g id="a_Node000017"><a xlink:href="class_acts_1_1_cloneable_ptr.html" target="_top" xlink:title="A copyable smart pointer that uses a cloner function to copy the managed object.">
<polygon fill="white" stroke="#666666" points="413.5,-72.5 279.5,-72.5 279.5,-53.5 413.5,-53.5 413.5,-72.5"/>
<text text-anchor="middle" x="346.5" y="-60.5" font-family="Helvetica,sans-Serif" font-size="10.00">Acts::CloneablePtr&lt; T &gt;</text>
</a>
</g>
</g>
<!-- Node17&#45;&gt;Node16 -->
<g id="edge17_Node000016_Node000017" class="edge">
<title>Node17&#45;&gt;Node16</title>
<g id="a_edge17_Node000016_Node000017"><a xlink:title=" ">
<path fill="none" stroke="orange" stroke-dasharray="5,2" d="M424.11,-63C487.45,-63 576.18,-63 634.71,-63"/>
<polygon fill="orange" stroke="orange" points="423.78,-59.5 413.78,-63 423.78,-66.5 423.78,-59.5"/>
</a>
</g>
<text text-anchor="start" x="466" y="-68.5" font-family="Helvetica,sans-Serif" font-size="10.00" fill="grey">&lt; const Transform3 &gt;</text>
</g>
<!-- Node18 -->
<g id="Node000018" class="node">
<title>Node18</title>
<g id="a_Node000018"><a xlink:title=" ">
<polygon fill="white" stroke="#666666" points="765.5,-30 627.5,-30 627.5,0 765.5,0 765.5,-30"/>
<text text-anchor="start" x="635.5" y="-18" font-family="Helvetica,sans-Serif" font-size="10.00">std::shared_ptr&lt; const</text>
<text text-anchor="middle" x="696.5" y="-7" font-family="Helvetica,sans-Serif" font-size="10.00"> Acts::ISurfaceMaterial &gt;</text>
</a>
</g>
</g>
<!-- Node18&#45;&gt;Node10 -->
<g id="edge18_Node000010_Node000018" class="edge">
<title>Node18&#45;&gt;Node10</title>
<g id="a_edge18_Node000010_Node000018"><a xlink:title=" ">
<path fill="none" stroke="#9a32cd" stroke-dasharray="5,2" d="M775.95,-19.69C815.32,-24.64 862.66,-34.69 901,-55 941.61,-76.51 976.31,-120.77 990.34,-140.34"/>
<polygon fill="#9a32cd" stroke="#9a32cd" points="776.2,-16.19 765.86,-18.51 775.39,-23.14 776.2,-16.19"/>
</a>
</g>
<text text-anchor="start" x="800" y="-60.5" font-family="Helvetica,sans-Serif" font-size="10.00" fill="grey">m_surfaceMaterial</text>
</g>
<!-- Node19 -->
<g id="Node000019" class="node">
<title>Node19</title>
<g id="a_Node000019"><a xlink:title=" ">
<polygon fill="white" stroke="#666666" points="405.5,-24.5 287.5,-24.5 287.5,-5.5 405.5,-5.5 405.5,-24.5"/>
<text text-anchor="middle" x="346.5" y="-12.5" font-family="Helvetica,sans-Serif" font-size="10.00">std::shared_ptr&lt; T &gt;</text>
</a>
</g>
</g>
<!-- Node19&#45;&gt;Node18 -->
<g id="edge19_Node000018_Node000019" class="edge">
<title>Node19&#45;&gt;Node18</title>
<g id="a_edge19_Node000018_Node000019"><a xlink:title=" ">
<path fill="none" stroke="orange" stroke-dasharray="5,2" d="M416.06,-15C477.18,-15 566.16,-15 627.2,-15"/>
<polygon fill="orange" stroke="orange" points="415.75,-11.5 405.75,-15 415.75,-18.5 415.75,-11.5"/>
</a>
</g>
<text text-anchor="start" x="439" y="-20.5" font-family="Helvetica,sans-Serif" font-size="10.00" fill="grey">&lt; const Acts::ISurfaceMaterial &gt;</text>
</g>
</g>
</svg>

<g id="navigator" transform="translate(0 0)" fill="#404254">
  <rect fill="#f2f5e9" fill-opacity="0.5" stroke="#606060" stroke-width=".5" x="0" y="0" width="60" height="60"/>
  <use id="zoomplus" xlink:href="#zoomPlus" x="17" y="9" onmousedown="handleZoom(evt,'in')"/>
  <use id="zoomminus" xlink:href="#zoomMin" x="42" y="9" onmousedown="handleZoom(evt,'out')"/>
  <use id="reset" xlink:href="#resetDef" x="30" y="36" onmousedown="handleReset()"/>
   <use id="arrowup" xlink:href="#arrowUp" x="0" y="0" onmousedown="handlePan(0,-1)"/>
  <use id="arrowright" xlink:href="#arrowRight" x="0" y="0" onmousedown="handlePan(1,0)"/>
  <use id="arrowdown" xlink:href="#arrowDown" x="0" y="0" onmousedown="handlePan(0,1)"/>
  <use id="arrowleft" xlink:href="#arrowLeft" x="0" y="0" onmousedown="handlePan(-1,0)"/>
</g>
<svg viewBox="0 0 15 15" width="100%" height="30px" preserveAspectRatio="xMaxYMin meet">
 <g id="arrow_out" transform="scale(0.3 0.3)">
  <a xlink:href="struct_acts_1_1_combinatorial_kalman_filter_options__coll__graph_org.svg" target="_base">
   <rect id="button" ry="5" rx="5" y="6" x="6" height="38" width="38"
        fill="#f2f5e9" fill-opacity="0.5" stroke="#606060" stroke-width="1.0"/>
   <path id="arrow"
     d="M 11.500037,31.436501 C 11.940474,20.09759 22.043105,11.32322 32.158766,21.979434 L 37.068811,17.246167 C 37.068811,17.246167 37.088388,32 37.088388,32 L 22.160133,31.978069 C 22.160133,31.978069 26.997745,27.140456 26.997745,27.140456 C 18.528582,18.264221 13.291696,25.230495 11.500037,31.436501 z"
     style="fill:#404040;"/>
  </a>
 </g>
</svg>

<style type='text/css'>
<![CDATA[
[data-mouse-over-selected='false'] { opacity: 0.7; }
[data-mouse-over-selected='true']  { opacity: 1.0; }
]]>
</style>
<script type="application/ecmascript"><![CDATA[
document.addEventListener('DOMContentLoaded', (event) => {
  highlightEdges();
  highlightAdjacentNodes();
});
]]></script>
</svg>
