<?xml version="1.0" encoding="UTF-8" standalone="no"?>
<!DOCTYPE svg PUBLIC "-//W3C//DTD SVG 1.1//EN"
 "http://www.w3.org/Graphics/SVG/1.1/DTD/svg11.dtd">
<!-- Generated by graphviz version 2.43.0 (0)
 -->
<!-- Title: Acts::ElementLayerAssembler&lt; BackendT &gt; Pages: 1 -->
<svg width="567pt" height="134pt"
 viewBox="0.00 0.00 567.00 134.00" xmlns="http://www.w3.org/2000/svg" xmlns:xlink="http://www.w3.org/1999/xlink">
<g id="graph0" class="graph" transform="scale(1 1) rotate(0) translate(4 130)">
<title>Acts::ElementLayerAssembler&lt; BackendT &gt;</title>
<!-- Node1 -->
<g id="Node000001" class="node">
<title>Node1</title>
<g id="a_Node000001"><a xlink:title="Fluent builder that assembles a flat collection of cylindrical or disc&#45;like detector layers from laye...">
<polygon fill="#999999" stroke="#666666" points="163,-78 0,-78 0,-48 163,-48 163,-78"/>
<text text-anchor="start" x="8" y="-66" font-family="Helvetica,sans-Serif" font-size="10.00">Acts::ElementLayerAssembler</text>
<text text-anchor="middle" x="81.5" y="-55" font-family="Helvetica,sans-Serif" font-size="10.00">&lt; BackendT &gt;</text>
</a>
</g>
</g>
<!-- Node2 -->
<g id="Node000002" class="node">
<title>Node2</title>
<g id="a_Node000002"><a xlink:href="class_acts_1_1_element_layer_assembler.html" target="_top" xlink:title=" ">
<polygon fill="white" stroke="#666666" points="548,-126 385,-126 385,-96 548,-96 548,-126"/>
<text text-anchor="start" x="393" y="-114" font-family="Helvetica,sans-Serif" font-size="10.00">Acts::ElementLayerAssembler</text>
<text text-anchor="middle" x="466.5" y="-103" font-family="Helvetica,sans-Serif" font-size="10.00">&lt; Backend &gt;</text>
</a>
</g>
</g>
<!-- Node1&#45;&gt;Node2 -->
<g id="edge1_Node000001_Node000002" class="edge">
<title>Node1&#45;&gt;Node2</title>
<g id="a_edge1_Node000001_Node000002"><a xlink:title=" ">
<path fill="none" stroke="orange" stroke-dasharray="5,2" d="M157.66,-79.96C165.52,-81.45 173.41,-82.83 181,-84 249.41,-94.5 327.74,-101.58 384.87,-105.84"/>
<polygon fill="orange" stroke="orange" points="158.23,-76.5 147.74,-78.01 156.88,-83.37 158.23,-76.5"/>
</a>
</g>
<text text-anchor="start" x="236.5" y="-108.5" font-family="Helvetica,sans-Serif" font-size="10.00" fill="grey">&lt; Backend &gt;</text>
</g>
<!-- Node3 -->
<g id="Node000003" class="node">
<title>Node3</title>
<g id="a_Node000003"><a xlink:href="class_acts_1_1_element_layer_assembler.html" target="_top" xlink:title=" ">
<polygon fill="white" stroke="#666666" points="548,-78 385,-78 385,-48 548,-48 548,-78"/>
<text text-anchor="start" x="393" y="-66" font-family="Helvetica,sans-Serif" font-size="10.00">Acts::ElementLayerAssembler</text>
<text text-anchor="middle" x="466.5" y="-55" font-family="Helvetica,sans-Serif" font-size="10.00">&lt; DD4hepBackend &gt;</text>
</a>
</g>
</g>
<!-- Node1&#45;&gt;Node3 -->
<g id="edge2_Node000001_Node000003" class="edge">
<title>Node1&#45;&gt;Node3</title>
<g id="a_edge2_Node000001_Node000003"><a xlink:title=" ">
<path fill="none" stroke="orange" stroke-dasharray="5,2" d="M173.38,-63C237.64,-63 323.01,-63 384.85,-63"/>
<polygon fill="orange" stroke="orange" points="173.26,-59.5 163.26,-63 173.26,-66.5 173.26,-59.5"/>
</a>
</g>
<text text-anchor="start" x="217.5" y="-68.5" font-family="Helvetica,sans-Serif" font-size="10.00" fill="grey">&lt; DD4hepBackend &gt;</text>
</g>
<!-- Node4 -->
<g id="Node000004" class="node">
<title>Node4</title>
<g id="a_Node000004"><a xlink:href="class_acts_1_1_element_layer_assembler.html" target="_top" xlink:title=" ">
<polygon fill="white" stroke="#666666" points="559,-30 374,-30 374,0 559,0 559,-30"/>
<text text-anchor="start" x="382" y="-18" font-family="Helvetica,sans-Serif" font-size="10.00">Acts::ElementLayerAssembler</text>
<text text-anchor="middle" x="466.5" y="-7" font-family="Helvetica,sans-Serif" font-size="10.00">&lt; TGeoBlueprintBuilderBackend &gt;</text>
</a>
</g>
</g>
<!-- Node1&#45;&gt;Node4 -->
<g id="edge3_Node000001_Node000004" class="edge">
<title>Node1&#45;&gt;Node4</title>
<g id="a_edge3_Node000001_Node000004"><a xlink:title=" ">
<path fill="none" stroke="orange" stroke-dasharray="5,2" d="M157.66,-46.04C165.52,-44.55 173.41,-43.17 181,-42 245.12,-32.16 317.96,-25.32 373.88,-21"/>
<polygon fill="orange" stroke="orange" points="156.88,-42.63 147.74,-47.99 158.23,-49.5 156.88,-42.63"/>
</a>
</g>
<text text-anchor="start" x="184.5" y="-47.5" font-family="Helvetica,sans-Serif" font-size="10.00" fill="grey">&lt; TGeoBlueprintBuilderBackend &gt;</text>
</g>
</g>
</svg>
