<?xml version="1.0" encoding="UTF-8" standalone="no"?>
<!DOCTYPE svg PUBLIC "-//W3C//DTD SVG 1.1//EN"
 "http://www.w3.org/Graphics/SVG/1.1/DTD/svg11.dtd">
<!-- Generated by graphviz version 2.43.0 (0)
 -->
<!-- Title: Acts::ProtoAxis Pages: 1 -->
<svg width="149pt" height="182pt"
 viewBox="0.00 0.00 149.00 182.00" xmlns="http://www.w3.org/2000/svg" xmlns:xlink="http://www.w3.org/1999/xlink">
<g id="graph0" class="graph" transform="scale(1 1) rotate(0) translate(4 178)">
<title>Acts::ProtoAxis</title>
<!-- Node1 -->
<g id="Node000001" class="node">
<title>Node1</title>
<g id="a_Node000001"><a xlink:title="This class is a pure run&#45;time placeholder for the axis definition.">
<polygon fill="#999999" stroke="#666666" points="106,-19 16,-19 16,0 106,0 106,-19"/>
<text text-anchor="middle" x="61" y="-7" font-family="Helvetica,sans-Serif" font-size="10.00">Acts::ProtoAxis</text>
</a>
</g>
</g>
<!-- Node2 -->
<g id="Node000002" class="node">
<title>Node2</title>
<g id="a_Node000002"><a xlink:title=" ">
<polygon fill="white" stroke="#666666" points="122,-102 0,-102 0,-72 122,-72 122,-102"/>
<text text-anchor="start" x="8" y="-90" font-family="Helvetica,sans-Serif" font-size="10.00">std::unique_ptr&lt; Acts</text>
<text text-anchor="middle" x="61" y="-79" font-family="Helvetica,sans-Serif" font-size="10.00">::IAxis &gt;</text>
</a>
</g>
</g>
<!-- Node2&#45;&gt;Node1 -->
<g id="edge1_Node000001_Node000002" class="edge">
<title>Node2&#45;&gt;Node1</title>
<g id="a_edge1_Node000001_Node000002"><a xlink:title=" ">
<path fill="none" stroke="#9a32cd" stroke-dasharray="5,2" d="M61,-61.4C61,-46.81 61,-29.22 61,-19.01"/>
<polygon fill="#9a32cd" stroke="#9a32cd" points="57.5,-61.8 61,-71.8 64.5,-61.8 57.5,-61.8"/>
</a>
</g>
<text text-anchor="start" x="64" y="-42.5" font-family="Helvetica,sans-Serif" font-size="10.00" fill="grey">m_axis</text>
</g>
<!-- Node3 -->
<g id="Node000003" class="node">
<title>Node3</title>
<g id="a_Node000003"><a xlink:title=" ">
<polygon fill="white" stroke="#666666" points="120,-174 2,-174 2,-155 120,-155 120,-174"/>
<text text-anchor="middle" x="61" y="-162" font-family="Helvetica,sans-Serif" font-size="10.00">std::unique_ptr&lt; T &gt;</text>
</a>
</g>
</g>
<!-- Node3&#45;&gt;Node2 -->
<g id="edge2_Node000002_Node000003" class="edge">
<title>Node3&#45;&gt;Node2</title>
<g id="a_edge2_Node000002_Node000003"><a xlink:title=" ">
<path fill="none" stroke="orange" stroke-dasharray="5,2" d="M61,-144.57C61,-131.43 61,-114.18 61,-102.21"/>
<polygon fill="orange" stroke="orange" points="57.5,-144.84 61,-154.84 64.5,-144.84 57.5,-144.84"/>
</a>
</g>
<text text-anchor="start" x="64" y="-125.5" font-family="Helvetica,sans-Serif" font-size="10.00" fill="grey">&lt; Acts::IAxis &gt;</text>
</g>
</g>
</svg>
