<?xml version="1.0" encoding="UTF-8" standalone="no"?>
<!DOCTYPE svg PUBLIC "-//W3C//DTD SVG 1.1//EN"
 "http://www.w3.org/Graphics/SVG/1.1/DTD/svg11.dtd">
<!-- Generated by graphviz version 2.43.0 (0)
 -->
<!-- Title: Acts::BinnedArray&lt; T &gt; Pages: 1 -->
<svg width="442pt" height="172pt"
 viewBox="0.00 0.00 442.00 171.50" xmlns="http://www.w3.org/2000/svg" xmlns:xlink="http://www.w3.org/1999/xlink">
<g id="graph0" class="graph" transform="scale(1 1) rotate(0) translate(4 167.5)">
<title>Acts::BinnedArray&lt; T &gt;</title>
<!-- Node1 -->
<g id="Node000001" class="node">
<title>Node1</title>
<g id="a_Node000001"><a xlink:title="Pure virtual base class for Binned Array to avoid map searches.">
<polygon fill="#999999" stroke="#666666" points="132,-96.5 0,-96.5 0,-77.5 132,-77.5 132,-96.5"/>
<text text-anchor="middle" x="66" y="-84.5" font-family="Helvetica,sans-Serif" font-size="10.00">Acts::BinnedArray&lt; T &gt;</text>
</a>
</g>
</g>
<!-- Node2 -->
<g id="Node000002" class="node">
<title>Node2</title>
<g id="a_Node000002"><a xlink:href="class_acts_1_1_binned_array_x_d.html" target="_top" xlink:title="Avoiding a map search, the templated BinnedArray class can help ordereing geometrical objects by prov...">
<polygon fill="white" stroke="#666666" points="434,-163.5 288,-163.5 288,-144.5 434,-144.5 434,-163.5"/>
<text text-anchor="middle" x="361" y="-151.5" font-family="Helvetica,sans-Serif" font-size="10.00">Acts::BinnedArrayXD&lt; T &gt;</text>
</a>
</g>
</g>
<!-- Node1&#45;&gt;Node2 -->
<g id="edge1_Node000001_Node000002" class="edge">
<title>Node1&#45;&gt;Node2</title>
<g id="a_edge1_Node000001_Node000002"><a xlink:title=" ">
<path fill="none" stroke="#63b8ff" d="M93.81,-101.24C109.73,-109.11 130.54,-118.39 150,-124 194.77,-136.9 246.57,-144.38 287.52,-148.64"/>
<polygon fill="#63b8ff" stroke="#63b8ff" points="95.09,-97.96 84.59,-96.57 91.93,-104.21 95.09,-97.96"/>
</a>
</g>
</g>
<!-- Node3 -->
<g id="Node000003" class="node">
<title>Node3</title>
<g id="a_Node000003"><a xlink:href="class_acts_1_1_binned_array.html" target="_top" xlink:title=" ">
<polygon fill="white" stroke="#666666" points="417,-126 305,-126 305,-96 417,-96 417,-126"/>
<text text-anchor="start" x="313" y="-114" font-family="Helvetica,sans-Serif" font-size="10.00">Acts::BinnedArray&lt;</text>
<text text-anchor="middle" x="361" y="-103" font-family="Helvetica,sans-Serif" font-size="10.00"> VolumePtr &gt;</text>
</a>
</g>
</g>
<!-- Node1&#45;&gt;Node3 -->
<g id="edge2_Node000001_Node000003" class="edge">
<title>Node1&#45;&gt;Node3</title>
<g id="a_edge2_Node000001_Node000003"><a xlink:title=" ">
<path fill="none" stroke="orange" stroke-dasharray="5,2" d="M142.3,-93.17C193.13,-97.33 259.07,-102.73 305,-106.49"/>
<polygon fill="orange" stroke="orange" points="142.28,-89.65 132.03,-92.33 141.71,-96.63 142.28,-89.65"/>
</a>
</g>
<text text-anchor="start" x="174" y="-108.5" font-family="Helvetica,sans-Serif" font-size="10.00" fill="grey">&lt; VolumePtr &gt;</text>
</g>
<!-- Node4 -->
<g id="Node000004" class="node">
<title>Node4</title>
<g id="a_Node000004"><a xlink:href="class_acts_1_1_binned_array.html" target="_top" xlink:title=" ">
<polygon fill="white" stroke="#666666" points="422,-78 300,-78 300,-48 422,-48 422,-78"/>
<text text-anchor="start" x="308" y="-66" font-family="Helvetica,sans-Serif" font-size="10.00">Acts::BinnedArray&lt;</text>
<text text-anchor="middle" x="361" y="-55" font-family="Helvetica,sans-Serif" font-size="10.00"> TrackingVolumePtr &gt;</text>
</a>
</g>
</g>
<!-- Node1&#45;&gt;Node4 -->
<g id="edge3_Node000001_Node000004" class="edge">
<title>Node1&#45;&gt;Node4</title>
<g id="a_edge3_Node000001_Node000004"><a xlink:title=" ">
<path fill="none" stroke="orange" stroke-dasharray="5,2" d="M127.85,-75.88C135.29,-74.77 142.81,-73.77 150,-73 200.26,-67.58 257.6,-65.1 299.66,-63.96"/>
<polygon fill="orange" stroke="orange" points="127.13,-72.45 117.78,-77.45 128.2,-79.37 127.13,-72.45"/>
</a>
</g>
<text text-anchor="start" x="153" y="-78.5" font-family="Helvetica,sans-Serif" font-size="10.00" fill="grey">&lt; TrackingVolumePtr &gt;</text>
</g>
<!-- Node5 -->
<g id="Node000005" class="node">
<title>Node5</title>
<g id="a_Node000005"><a xlink:href="class_acts_1_1_binned_array.html" target="_top" xlink:title=" ">
<polygon fill="white" stroke="#666666" points="417,-30 305,-30 305,0 417,0 417,-30"/>
<text text-anchor="start" x="313" y="-18" font-family="Helvetica,sans-Serif" font-size="10.00">Acts::BinnedArray&lt;</text>
<text text-anchor="middle" x="361" y="-7" font-family="Helvetica,sans-Serif" font-size="10.00"> LayerPtr &gt;</text>
</a>
</g>
</g>
<!-- Node1&#45;&gt;Node5 -->
<g id="edge4_Node000001_Node000005" class="edge">
<title>Node1&#45;&gt;Node5</title>
<g id="a_edge4_Node000001_Node000005"><a xlink:title=" ">
<path fill="none" stroke="orange" stroke-dasharray="5,2" d="M90.01,-71.93C106.14,-62.1 128.58,-49.86 150,-43 200.97,-26.67 261.83,-19.86 304.89,-17.02"/>
<polygon fill="orange" stroke="orange" points="87.92,-69.12 81.29,-77.39 91.63,-75.05 87.92,-69.12"/>
</a>
</g>
<text text-anchor="start" x="178" y="-48.5" font-family="Helvetica,sans-Serif" font-size="10.00" fill="grey">&lt; LayerPtr &gt;</text>
</g>
</g>
</svg>
