<?xml version="1.0" encoding="UTF-8" standalone="no"?>
<!DOCTYPE svg PUBLIC "-//W3C//DTD SVG 1.1//EN"
 "http://www.w3.org/Graphics/SVG/1.1/DTD/svg11.dtd">
<!-- Generated by graphviz version 2.43.0 (0)
 -->
<!-- Title: Acts::DiscSurface Pages: 1 -->
<svg width="278pt" height="258pt"
 viewBox="0.00 0.00 278.00 258.00" xmlns="http://www.w3.org/2000/svg" xmlns:xlink="http://www.w3.org/1999/xlink">
<g id="graph0" class="graph" transform="scale(1 1) rotate(0) translate(4 254)">
<title>Acts::DiscSurface</title>
<!-- Node1 -->
<g id="Node000001" class="node">
<title>Node1</title>
<g id="a_Node000001"><a xlink:title="Class for a disc surface (or a segment thereof).">
<polygon fill="#999999" stroke="#666666" points="184.5,-74 83.5,-74 83.5,-55 184.5,-55 184.5,-74"/>
<text text-anchor="middle" x="134" y="-62" font-family="Helvetica,sans-Serif" font-size="10.00">Acts::DiscSurface</text>
</a>
</g>
</g>
<!-- Node6 -->
<g id="Node000006" class="node">
<title>Node6</title>
<g id="a_Node000006"><a xlink:href="class_acts_1_1_disc_layer.html" target="_top" xlink:title="Class to describe a disc&#45;like detector layer for tracking, it inherits from both, Layer base class an...">
<polygon fill="white" stroke="#666666" points="180,-19 88,-19 88,0 180,0 180,-19"/>
<text text-anchor="middle" x="134" y="-7" font-family="Helvetica,sans-Serif" font-size="10.00">Acts::DiscLayer</text>
</a>
</g>
</g>
<!-- Node1&#45;&gt;Node6 -->
<g id="edge5_Node000001_Node000006" class="edge">
<title>Node1&#45;&gt;Node6</title>
<g id="a_edge5_Node000001_Node000006"><a xlink:title=" ">
<path fill="none" stroke="#63b8ff" d="M134,-44.66C134,-35.93 134,-25.99 134,-19.09"/>
<polygon fill="#63b8ff" stroke="#63b8ff" points="130.5,-44.75 134,-54.75 137.5,-44.75 130.5,-44.75"/>
</a>
</g>
</g>
<!-- Node2 -->
<g id="Node000002" class="node">
<title>Node2</title>
<g id="a_Node000002"><a xlink:href="class_acts_1_1_regular_surface.html" target="_top" xlink:title="A physical surface which does not depend on the direction you look at it from.">
<polygon fill="white" stroke="#666666" points="193,-129 75,-129 75,-110 193,-110 193,-129"/>
<text text-anchor="middle" x="134" y="-117" font-family="Helvetica,sans-Serif" font-size="10.00">Acts::RegularSurface</text>
</a>
</g>
</g>
<!-- Node2&#45;&gt;Node1 -->
<g id="edge1_Node000001_Node000002" class="edge">
<title>Node2&#45;&gt;Node1</title>
<g id="a_edge1_Node000001_Node000002"><a xlink:title=" ">
<path fill="none" stroke="#63b8ff" d="M134,-99.66C134,-90.93 134,-80.99 134,-74.09"/>
<polygon fill="#63b8ff" stroke="#63b8ff" points="130.5,-99.75 134,-109.75 137.5,-99.75 130.5,-99.75"/>
</a>
</g>
</g>
<!-- Node3 -->
<g id="Node000003" class="node">
<title>Node3</title>
<g id="a_Node000003"><a xlink:href="class_acts_1_1_surface.html" target="_top" xlink:title="Abstract Base Class for tracking surfaces.">
<polygon fill="white" stroke="#666666" points="174,-184 94,-184 94,-165 174,-165 174,-184"/>
<text text-anchor="middle" x="134" y="-172" font-family="Helvetica,sans-Serif" font-size="10.00">Acts::Surface</text>
</a>
</g>
</g>
<!-- Node3&#45;&gt;Node2 -->
<g id="edge2_Node000002_Node000003" class="edge">
<title>Node3&#45;&gt;Node2</title>
<g id="a_edge2_Node000002_Node000003"><a xlink:title=" ">
<path fill="none" stroke="#63b8ff" d="M134,-154.66C134,-145.93 134,-135.99 134,-129.09"/>
<polygon fill="#63b8ff" stroke="#63b8ff" points="130.5,-154.75 134,-164.75 137.5,-154.75 130.5,-154.75"/>
</a>
</g>
</g>
<!-- Node4 -->
<g id="Node000004" class="node">
<title>Node4</title>
<g id="a_Node000004"><a xlink:href="class_acts_1_1_geometry_object.html" target="_top" xlink:title="Base class to provide GeometryIdentifier interface:">
<polygon fill="white" stroke="#666666" points="124,-244.5 0,-244.5 0,-225.5 124,-225.5 124,-244.5"/>
<text text-anchor="middle" x="62" y="-232.5" font-family="Helvetica,sans-Serif" font-size="10.00">Acts::GeometryObject</text>
</a>
</g>
</g>
<!-- Node4&#45;&gt;Node3 -->
<g id="edge3_Node000003_Node000004" class="edge">
<title>Node4&#45;&gt;Node3</title>
<g id="a_edge3_Node000003_Node000004"><a xlink:title=" ">
<path fill="none" stroke="#63b8ff" d="M80.42,-219.04C94.01,-207.99 112.04,-193.34 123.33,-184.17"/>
<polygon fill="#63b8ff" stroke="#63b8ff" points="78.18,-216.35 72.62,-225.37 82.59,-221.78 78.18,-216.35"/>
</a>
</g>
</g>
<!-- Node5 -->
<g id="Node000005" class="node">
<title>Node5</title>
<g id="a_Node000005"><a xlink:title=" ">
<polygon fill="white" stroke="#666666" points="270,-250 142,-250 142,-220 270,-220 270,-250"/>
<text text-anchor="start" x="150" y="-238" font-family="Helvetica,sans-Serif" font-size="10.00">std::enable_shared</text>
<text text-anchor="middle" x="206" y="-227" font-family="Helvetica,sans-Serif" font-size="10.00">_from_this&lt; Surface &gt;</text>
</a>
</g>
</g>
<!-- Node5&#45;&gt;Node3 -->
<g id="edge4_Node000003_Node000005" class="edge">
<title>Node5&#45;&gt;Node3</title>
<g id="a_edge4_Node000003_Node000005"><a xlink:title=" ">
<path fill="none" stroke="#63b8ff" d="M180.81,-213.53C168.48,-203.51 154.28,-191.98 144.79,-184.27"/>
<polygon fill="#63b8ff" stroke="#63b8ff" points="178.6,-216.25 188.57,-219.84 183.02,-210.82 178.6,-216.25"/>
</a>
</g>
</g>
</g>
</svg>
