<?xml version="1.0" encoding="UTF-8" standalone="no"?>
<!DOCTYPE svg PUBLIC "-//W3C//DTD SVG 1.1//EN"
 "http://www.w3.org/Graphics/SVG/1.1/DTD/svg11.dtd">
<!-- Generated by graphviz version 2.43.0 (0)
 -->
<!-- Title: Acts::TrackProxy&lt; track_container_t, trajectory_t, holder_t, read_only &gt; Pages: 1 -->
<!--zoomable 256 -->

<svg id="main" version="1.1" xmlns="http://www.w3.org/2000/svg" xmlns:xlink="http://www.w3.org/1999/xlink" xml:space="preserve" onload="init(evt)">

<style type="text/css"><![CDATA[
.node, .edge {opacity: 0.7;}
.node.selected, .edge.selected {opacity: 1;}
.edge:hover path { stroke: red; }
.edge:hover polygon { stroke: red; fill: red; }
]]></style>

<defs>
  <circle id="rim" cx="0" cy="0" r="7"/>
  <circle id="rim2" cx="0" cy="0" r="3.5"/>
  <g id="zoomPlus">
    <use xlink:href="#rim" fill="#404040"><set attributeName="fill" to="#808080" begin="zoomplus.mouseover" end="zoomplus.mouseout"/></use>
    <path d="M-4,0h8M0,-4v8" fill="none" stroke="white" stroke-width="1.5" pointer-events="none"/>
  </g>
  <g id="zoomMin">
    <use xlink:href="#rim" fill="#404040"><set attributeName="fill" to="#808080" begin="zoomminus.mouseover" end="zoomminus.mouseout"/></use>
    <path d="M-4,0h8" fill="none" stroke="white" stroke-width="1.5" pointer-events="none"/>
  </g>
  <g id="arrowUp" transform="translate(30 24)">
    <use xlink:href="#rim"/>
    <path pointer-events="none" fill="none" stroke="white" stroke-width="1.5" d="M0,-3.0v7 M-2.5,-0.5L0,-3.0L2.5,-0.5"/>
  </g>
  <g id="arrowRight" transform="rotate(90) translate(36 -43)">
    <use xlink:href="#rim"/>
    <path pointer-events="none" fill="none" stroke="white" stroke-width="1.5" d="M0,-3.0v7 M-2.5,-0.5L0,-3.0L2.5,-0.5"/>
  </g>
  <g id="arrowDown" transform="rotate(180) translate(-30 -48)">
    <use xlink:href="#rim"/>
    <path pointer-events="none" fill="none" stroke="white" stroke-width="1.5" d="M0,-3.0v7 M-2.5,-0.5L0,-3.0L2.5,-0.5"/>
  </g>
  <g id="arrowLeft" transform="rotate(270) translate(-36 17)">
    <use xlink:href="#rim"/>
    <path pointer-events="none" fill="none" stroke="white" stroke-width="1.5" d="M0,-3.0v7 M-2.5,-0.5L0,-3.0L2.5,-0.5"/>
  </g>
  <g id="resetDef">
    <use xlink:href="#rim2" fill="#404040"><set attributeName="fill" to="#808080" begin="reset.mouseover" end="reset.mouseout"/></use>
  </g>
</defs>
<script type="application/ecmascript">
var viewWidth = 989;
var viewHeight = 256;
var sectionId = 'dynsection-0';
</script>
<script type="application/ecmascript" xlink:href="svg.min.js"/>
<svg id="graph" class="graph">
<g id="viewport">
<title>Acts::TrackProxy&lt; track_container_t, trajectory_t, holder_t, read_only &gt;</title>
<!-- Node1 -->
<g id="Node000001" class="node">
<title>Node1</title>
<g id="a_Node000001"><a xlink:title="Proxy class representing a single track.">
<polygon fill="#999999" stroke="#666666" points="684,-146 547,-146 547,-105 684,-105 684,-146"/>
<text text-anchor="start" x="555" y="-134" font-family="Helvetica,sans-Serif" font-size="10.00">Acts::TrackProxy&lt; track</text>
<text text-anchor="start" x="555" y="-123" font-family="Helvetica,sans-Serif" font-size="10.00">_container_t, trajectory</text>
<text text-anchor="middle" x="615.5" y="-112" font-family="Helvetica,sans-Serif" font-size="10.00">_t, holder_t, read_only &gt;</text>
</a>
</g>
</g>
<!-- Node4 -->
<g id="Node000004" class="node">
<title>Node4</title>
<g id="a_Node000004"><a xlink:href="class_acts_1_1_track_proxy.html" target="_top" xlink:title=" ">
<polygon fill="white" stroke="#666666" points="981,-240 848,-240 848,-199 981,-199 981,-240"/>
<text text-anchor="start" x="856" y="-228" font-family="Helvetica,sans-Serif" font-size="10.00">Acts::TrackProxy&lt; track</text>
<text text-anchor="start" x="856" y="-217" font-family="Helvetica,sans-Serif" font-size="10.00">_container_t, traj_t,</text>
<text text-anchor="middle" x="914.5" y="-206" font-family="Helvetica,sans-Serif" font-size="10.00"> holder_t, false &gt;</text>
</a>
</g>
</g>
<!-- Node1&#45;&gt;Node4 -->
<g id="edge3_Node000001_Node000004" class="edge">
<title>Node1&#45;&gt;Node4</title>
<g id="a_edge3_Node000001_Node000004"><a xlink:title=" ">
<path fill="none" stroke="orange" stroke-dasharray="5,2" d="M646.32,-152.59C661.84,-165.2 681.77,-179.21 702,-187.5 748.56,-206.57 805.09,-214.42 847.98,-217.58"/>
<polygon fill="orange" stroke="orange" points="648.54,-149.89 638.62,-146.16 644.05,-155.26 648.54,-149.89"/>
</a>
</g>
<text text-anchor="start" x="705" y="-236.5" font-family="Helvetica,sans-Serif" font-size="10.00" fill="grey">&lt; track_container_t,</text>
<text text-anchor="start" x="705" y="-221.5" font-family="Helvetica,sans-Serif" font-size="10.00" fill="grey">   traj_t, holder_t, false &gt;</text>
</g>
<!-- Node5 -->
<g id="Node000005" class="node">
<title>Node5</title>
<g id="a_Node000005"><a xlink:href="class_acts_1_1_track_proxy.html" target="_top" xlink:title=" ">
<polygon fill="white" stroke="#666666" points="981,-181 848,-181 848,-140 981,-140 981,-181"/>
<text text-anchor="start" x="856" y="-169" font-family="Helvetica,sans-Serif" font-size="10.00">Acts::TrackProxy&lt; track</text>
<text text-anchor="start" x="856" y="-158" font-family="Helvetica,sans-Serif" font-size="10.00">_container_t, traj_t,</text>
<text text-anchor="middle" x="914.5" y="-147" font-family="Helvetica,sans-Serif" font-size="10.00"> holder_t, true &gt;</text>
</a>
</g>
</g>
<!-- Node1&#45;&gt;Node5 -->
<g id="edge4_Node000001_Node000005" class="edge">
<title>Node1&#45;&gt;Node5</title>
<g id="a_edge4_Node000001_Node000005"><a xlink:title=" ">
<path fill="none" stroke="orange" stroke-dasharray="5,2" d="M694.27,-137.48C696.88,-137.84 699.46,-138.17 702,-138.5 750.7,-144.73 805.89,-150.43 847.67,-154.46"/>
<polygon fill="orange" stroke="orange" points="694.52,-133.99 684.13,-136.08 693.56,-140.92 694.52,-133.99"/>
</a>
</g>
<text text-anchor="start" x="707" y="-172.5" font-family="Helvetica,sans-Serif" font-size="10.00" fill="grey">&lt; track_container_t,</text>
<text text-anchor="start" x="707" y="-157.5" font-family="Helvetica,sans-Serif" font-size="10.00" fill="grey">   traj_t, holder_t, true &gt;</text>
</g>
<!-- Node6 -->
<g id="Node000006" class="node">
<title>Node6</title>
<g id="a_Node000006"><a xlink:href="class_acts_1_1_track_proxy.html" target="_top" xlink:title=" ">
<polygon fill="white" stroke="#666666" points="981,-111 848,-111 848,-70 981,-70 981,-111"/>
<text text-anchor="start" x="856" y="-99" font-family="Helvetica,sans-Serif" font-size="10.00">Acts::TrackProxy&lt; track</text>
<text text-anchor="start" x="856" y="-88" font-family="Helvetica,sans-Serif" font-size="10.00">_container_t, trajectory</text>
<text text-anchor="middle" x="914.5" y="-77" font-family="Helvetica,sans-Serif" font-size="10.00">_t, holder_t, false &gt;</text>
</a>
</g>
</g>
<!-- Node1&#45;&gt;Node6 -->
<g id="edge5_Node000001_Node000006" class="edge">
<title>Node1&#45;&gt;Node6</title>
<g id="a_edge5_Node000001_Node000006"><a xlink:title=" ">
<path fill="none" stroke="orange" stroke-dasharray="5,2" d="M662.85,-100.7C675.23,-95.26 688.83,-90.29 702,-87.5 750.14,-77.28 805.83,-78.59 847.98,-82.15"/>
<polygon fill="orange" stroke="orange" points="661.28,-97.57 653.65,-104.93 664.2,-103.93 661.28,-97.57"/>
</a>
</g>
<text text-anchor="start" x="715" y="-123" font-family="Helvetica,sans-Serif" font-size="10.00" fill="grey">&lt; track_container_t,</text>
<text text-anchor="start" x="715" y="-108" font-family="Helvetica,sans-Serif" font-size="10.00" fill="grey">   trajectory_t, holder</text>
<text text-anchor="start" x="715" y="-93" font-family="Helvetica,sans-Serif" font-size="10.00" fill="grey">  _t, false &gt;</text>
</g>
<!-- Node7 -->
<g id="Node000007" class="node">
<title>Node7</title>
<g id="a_Node000007"><a xlink:href="class_acts_1_1_track_proxy.html" target="_top" xlink:title=" ">
<polygon fill="white" stroke="#666666" points="981,-41 848,-41 848,0 981,0 981,-41"/>
<text text-anchor="start" x="856" y="-29" font-family="Helvetica,sans-Serif" font-size="10.00">Acts::TrackProxy&lt; track</text>
<text text-anchor="start" x="856" y="-18" font-family="Helvetica,sans-Serif" font-size="10.00">_container_t, trajectory</text>
<text text-anchor="middle" x="914.5" y="-7" font-family="Helvetica,sans-Serif" font-size="10.00">_t, holder_t, true &gt;</text>
</a>
</g>
</g>
<!-- Node1&#45;&gt;Node7 -->
<g id="edge6_Node000001_Node000007" class="edge">
<title>Node1&#45;&gt;Node7</title>
<g id="a_edge6_Node000001_Node000007"><a xlink:title=" ">
<path fill="none" stroke="orange" stroke-dasharray="5,2" d="M633.28,-96.36C648.14,-73.66 672.09,-43.68 702,-29.5 747.33,-8 804.45,-6.87 847.9,-10.5"/>
<polygon fill="orange" stroke="orange" points="630.23,-94.64 627.85,-104.96 636.15,-98.37 630.23,-94.64"/>
</a>
</g>
<text text-anchor="start" x="715" y="-65" font-family="Helvetica,sans-Serif" font-size="10.00" fill="grey">&lt; track_container_t,</text>
<text text-anchor="start" x="715" y="-50" font-family="Helvetica,sans-Serif" font-size="10.00" fill="grey">   trajectory_t, holder</text>
<text text-anchor="start" x="715" y="-35" font-family="Helvetica,sans-Serif" font-size="10.00" fill="grey">  _t, true &gt;</text>
</g>
<!-- Node2 -->
<g id="Node000002" class="node">
<title>Node2</title>
<g id="a_Node000002"><a xlink:href="class_acts_1_1_track_proxy_common.html" target="_top" xlink:title=" ">
<polygon fill="white" stroke="#666666" points="510,-157 342,-157 342,-94 510,-94 510,-157"/>
<text text-anchor="start" x="350" y="-145" font-family="Helvetica,sans-Serif" font-size="10.00">Acts::TrackProxyCommon</text>
<text text-anchor="start" x="350" y="-134" font-family="Helvetica,sans-Serif" font-size="10.00">&lt; TrackProxy&lt; track_container</text>
<text text-anchor="start" x="350" y="-123" font-family="Helvetica,sans-Serif" font-size="10.00">_t, trajectory_t, holder_t,</text>
<text text-anchor="start" x="350" y="-112" font-family="Helvetica,sans-Serif" font-size="10.00"> true &gt;, track_container_t::</text>
<text text-anchor="middle" x="426" y="-101" font-family="Helvetica,sans-Serif" font-size="10.00">IndexType, true &gt;</text>
</a>
</g>
</g>
<!-- Node2&#45;&gt;Node1 -->
<g id="edge1_Node000001_Node000002" class="edge">
<title>Node2&#45;&gt;Node1</title>
<g id="a_edge1_Node000001_Node000002"><a xlink:title=" ">
<path fill="none" stroke="#63b8ff" d="M520.22,-125.5C529.24,-125.5 538.27,-125.5 546.97,-125.5"/>
<polygon fill="#63b8ff" stroke="#63b8ff" points="520.06,-122 510.06,-125.5 520.06,-129 520.06,-122"/>
</a>
</g>
</g>
<!-- Node3 -->
<g id="Node000003" class="node">
<title>Node3</title>
<g id="a_Node000003"><a xlink:href="class_acts_1_1_track_proxy_common.html" target="_top" xlink:title="Common CRTP implementation shared by the various track proxy front&#45;ends.">
<polygon fill="white" stroke="#666666" points="141,-146 0,-146 0,-105 141,-105 141,-146"/>
<text text-anchor="start" x="8" y="-134" font-family="Helvetica,sans-Serif" font-size="10.00">Acts::TrackProxyCommon</text>
<text text-anchor="start" x="8" y="-123" font-family="Helvetica,sans-Serif" font-size="10.00">&lt; Derived, index_t, read</text>
<text text-anchor="middle" x="70.5" y="-112" font-family="Helvetica,sans-Serif" font-size="10.00">_only &gt;</text>
</a>
</g>
</g>
<!-- Node3&#45;&gt;Node2 -->
<g id="edge2_Node000002_Node000003" class="edge">
<title>Node3&#45;&gt;Node2</title>
<g id="a_edge2_Node000002_Node000003"><a xlink:title=" ">
<path fill="none" stroke="orange" stroke-dasharray="5,2" d="M151.36,-125.5C208.2,-125.5 284.39,-125.5 341.94,-125.5"/>
<polygon fill="orange" stroke="orange" points="151.34,-122 141.34,-125.5 151.34,-129 151.34,-122"/>
</a>
</g>
<text text-anchor="start" x="162.5" y="-176.5" font-family="Helvetica,sans-Serif" font-size="10.00" fill="grey">&lt; TrackProxy&lt; track</text>
<text text-anchor="start" x="162.5" y="-161.5" font-family="Helvetica,sans-Serif" font-size="10.00" fill="grey">  _container_t, trajectory</text>
<text text-anchor="start" x="162.5" y="-146.5" font-family="Helvetica,sans-Serif" font-size="10.00" fill="grey">  _t, holder_t, true &gt;, track</text>
<text text-anchor="start" x="162.5" y="-131.5" font-family="Helvetica,sans-Serif" font-size="10.00" fill="grey">  _container_t::IndexType, true &gt;</text>
</g>
</g>
</svg>

<g id="navigator" transform="translate(0 0)" fill="#404254">
  <rect fill="#f2f5e9" fill-opacity="0.5" stroke="#606060" stroke-width=".5" x="0" y="0" width="60" height="60"/>
  <use id="zoomplus" xlink:href="#zoomPlus" x="17" y="9" onmousedown="handleZoom(evt,'in')"/>
  <use id="zoomminus" xlink:href="#zoomMin" x="42" y="9" onmousedown="handleZoom(evt,'out')"/>
  <use id="reset" xlink:href="#resetDef" x="30" y="36" onmousedown="handleReset()"/>
   <use id="arrowup" xlink:href="#arrowUp" x="0" y="0" onmousedown="handlePan(0,-1)"/>
  <use id="arrowright" xlink:href="#arrowRight" x="0" y="0" onmousedown="handlePan(1,0)"/>
  <use id="arrowdown" xlink:href="#arrowDown" x="0" y="0" onmousedown="handlePan(0,1)"/>
  <use id="arrowleft" xlink:href="#arrowLeft" x="0" y="0" onmousedown="handlePan(-1,0)"/>
</g>
<svg viewBox="0 0 15 15" width="100%" height="30px" preserveAspectRatio="xMaxYMin meet">
 <g id="arrow_out" transform="scale(0.3 0.3)">
  <a xlink:href="class_acts_1_1_track_proxy__inherit__graph_org.svg" target="_base">
   <rect id="button" ry="5" rx="5" y="6" x="6" height="38" width="38"
        fill="#f2f5e9" fill-opacity="0.5" stroke="#606060" stroke-width="1.0"/>
   <path id="arrow"
     d="M 11.500037,31.436501 C 11.940474,20.09759 22.043105,11.32322 32.158766,21.979434 L 37.068811,17.246167 C 37.068811,17.246167 37.088388,32 37.088388,32 L 22.160133,31.978069 C 22.160133,31.978069 26.997745,27.140456 26.997745,27.140456 C 18.528582,18.264221 13.291696,25.230495 11.500037,31.436501 z"
     style="fill:#404040;"/>
  </a>
 </g>
</svg>

<style type='text/css'>
<![CDATA[
[data-mouse-over-selected='false'] { opacity: 0.7; }
[data-mouse-over-selected='true']  { opacity: 1.0; }
]]>
</style>
<script type="application/ecmascript"><![CDATA[
document.addEventListener('DOMContentLoaded', (event) => {
  highlightEdges();
  highlightAdjacentNodes();
});
]]></script>
</svg>
