<?xml version="1.0" encoding="UTF-8" standalone="no"?>
<!DOCTYPE svg PUBLIC "-//W3C//DTD SVG 1.1//EN"
 "http://www.w3.org/Graphics/SVG/1.1/DTD/svg11.dtd">
<!-- Generated by graphviz version 2.43.0 (0)
 -->
<!-- Title: Acts::FixedSubspaceHelper&lt; FullSize, SubspaceSize, index_t &gt; Pages: 1 -->
<svg width="1011pt" height="81pt"
 viewBox="0.00 0.00 1011.00 81.00" xmlns="http://www.w3.org/2000/svg" xmlns:xlink="http://www.w3.org/1999/xlink">
<g id="graph0" class="graph" transform="scale(1 1) rotate(0) translate(4 77)">
<title>Acts::FixedSubspaceHelper&lt; FullSize, SubspaceSize, index_t &gt;</title>
<!-- Node1 -->
<g id="Node000001" class="node">
<title>Node1</title>
<g id="a_Node000001"><a xlink:title="Helper class for fixed subspace operations.">
<polygon fill="#999999" stroke="#666666" points="670,-46.5 522,-46.5 522,-5.5 670,-5.5 670,-46.5"/>
<text text-anchor="start" x="530" y="-34.5" font-family="Helvetica,sans-Serif" font-size="10.00">Acts::FixedSubspaceHelper</text>
<text text-anchor="start" x="530" y="-23.5" font-family="Helvetica,sans-Serif" font-size="10.00">&lt; FullSize, SubspaceSize,</text>
<text text-anchor="middle" x="596" y="-12.5" font-family="Helvetica,sans-Serif" font-size="10.00"> index_t &gt;</text>
</a>
</g>
</g>
<!-- Node4 -->
<g id="Node000004" class="node">
<title>Node4</title>
<g id="a_Node000004"><a xlink:title=" ">
<polygon fill="white" stroke="#666666" points="1003,-46.5 815,-46.5 815,-5.5 1003,-5.5 1003,-46.5"/>
<text text-anchor="start" x="823" y="-34.5" font-family="Helvetica,sans-Serif" font-size="10.00">Acts::FixedSubspaceHelper</text>
<text text-anchor="start" x="823" y="-23.5" font-family="Helvetica,sans-Serif" font-size="10.00">&lt; Acts::eBoundSize, SubspaceSize,</text>
<text text-anchor="middle" x="909" y="-12.5" font-family="Helvetica,sans-Serif" font-size="10.00"> std::uint8_t &gt;</text>
</a>
</g>
</g>
<!-- Node1&#45;&gt;Node4 -->
<g id="edge3_Node000001_Node000004" class="edge">
<title>Node1&#45;&gt;Node4</title>
<g id="a_edge3_Node000001_Node000004"><a xlink:title=" ">
<path fill="none" stroke="orange" stroke-dasharray="5,2" d="M680.38,-26C721.83,-26 772.08,-26 814.81,-26"/>
<polygon fill="orange" stroke="orange" points="680.31,-22.5 670.31,-26 680.31,-29.5 680.31,-22.5"/>
</a>
</g>
<text text-anchor="start" x="691.5" y="-61.5" font-family="Helvetica,sans-Serif" font-size="10.00" fill="grey">&lt; Acts::eBoundSize,</text>
<text text-anchor="start" x="691.5" y="-46.5" font-family="Helvetica,sans-Serif" font-size="10.00" fill="grey">   SubspaceSize, std::</text>
<text text-anchor="start" x="691.5" y="-31.5" font-family="Helvetica,sans-Serif" font-size="10.00" fill="grey">  uint8_t &gt;</text>
</g>
<!-- Node2 -->
<g id="Node000002" class="node">
<title>Node2</title>
<g id="a_Node000002"><a xlink:title=" ">
<polygon fill="white" stroke="#666666" points="485,-52 329,-52 329,0 485,0 485,-52"/>
<text text-anchor="start" x="337" y="-40" font-family="Helvetica,sans-Serif" font-size="10.00">Acts::detail::SubspaceHelper</text>
<text text-anchor="start" x="337" y="-29" font-family="Helvetica,sans-Serif" font-size="10.00">Base&lt; FixedSubspaceHelper</text>
<text text-anchor="start" x="337" y="-18" font-family="Helvetica,sans-Serif" font-size="10.00">&lt; FullSize, SubspaceSize,</text>
<text text-anchor="middle" x="407" y="-7" font-family="Helvetica,sans-Serif" font-size="10.00"> std::uint8_t &gt;, FullSize &gt;</text>
</a>
</g>
</g>
<!-- Node2&#45;&gt;Node1 -->
<g id="edge1_Node000001_Node000002" class="edge">
<title>Node2&#45;&gt;Node1</title>
<g id="a_edge1_Node000001_Node000002"><a xlink:title=" ">
<path fill="none" stroke="#63b8ff" d="M495.19,-26C504.14,-26 513.17,-26 521.95,-26"/>
<polygon fill="#63b8ff" stroke="#63b8ff" points="495.14,-22.5 485.14,-26 495.14,-29.5 495.14,-22.5"/>
</a>
</g>
</g>
<!-- Node3 -->
<g id="Node000003" class="node">
<title>Node3</title>
<g id="a_Node000003"><a xlink:title=" ">
<polygon fill="white" stroke="#666666" points="156,-41 0,-41 0,-11 156,-11 156,-41"/>
<text text-anchor="start" x="8" y="-29" font-family="Helvetica,sans-Serif" font-size="10.00">Acts::detail::SubspaceHelper</text>
<text text-anchor="middle" x="78" y="-18" font-family="Helvetica,sans-Serif" font-size="10.00">Base&lt; Derived, FullSize &gt;</text>
</a>
</g>
</g>
<!-- Node3&#45;&gt;Node2 -->
<g id="edge2_Node000002_Node000003" class="edge">
<title>Node3&#45;&gt;Node2</title>
<g id="a_edge2_Node000002_Node000003"><a xlink:title=" ">
<path fill="none" stroke="orange" stroke-dasharray="5,2" d="M166.35,-26C216.96,-26 280.11,-26 328.87,-26"/>
<polygon fill="orange" stroke="orange" points="166.08,-22.5 156.08,-26 166.08,-29.5 166.08,-22.5"/>
</a>
</g>
<text text-anchor="start" x="177.5" y="-61.5" font-family="Helvetica,sans-Serif" font-size="10.00" fill="grey">&lt; FixedSubspaceHelper</text>
<text text-anchor="start" x="177.5" y="-46.5" font-family="Helvetica,sans-Serif" font-size="10.00" fill="grey">  &lt; FullSize, SubspaceSize,</text>
<text text-anchor="start" x="177.5" y="-31.5" font-family="Helvetica,sans-Serif" font-size="10.00" fill="grey">   std::uint8_t &gt;, FullSize &gt;</text>
</g>
</g>
</svg>
