<?xml version="1.0" encoding="UTF-8" standalone="no"?>
<!DOCTYPE svg PUBLIC "-//W3C//DTD SVG 1.1//EN"
 "http://www.w3.org/Graphics/SVG/1.1/DTD/svg11.dtd">
<!-- Generated by graphviz version 2.43.0 (0)
 -->
<!-- Title: Acts::RangeXD&lt; Dims, Type, Vector &gt; Pages: 1 -->
<svg width="474pt" height="141pt"
 viewBox="0.00 0.00 474.00 141.00" xmlns="http://www.w3.org/2000/svg" xmlns:xlink="http://www.w3.org/1999/xlink">
<g id="graph0" class="graph" transform="scale(1 1) rotate(0) translate(4 137)">
<title>Acts::RangeXD&lt; Dims, Type, Vector &gt;</title>
<!-- Node1 -->
<g id="Node000001" class="node">
<title>Node1</title>
<g id="a_Node000001"><a xlink:title="An orthogonal range in an arbitrary number of dimensions.">
<polygon fill="#999999" stroke="#666666" points="128,-85 0,-85 0,-55 128,-55 128,-85"/>
<text text-anchor="start" x="8" y="-73" font-family="Helvetica,sans-Serif" font-size="10.00">Acts::RangeXD&lt; Dims,</text>
<text text-anchor="middle" x="64" y="-62" font-family="Helvetica,sans-Serif" font-size="10.00"> Type, Vector &gt;</text>
</a>
</g>
</g>
<!-- Node2 -->
<g id="Node000002" class="node">
<title>Node2</title>
<g id="a_Node000002"><a xlink:href="class_acts_1_1_range_x_d.html" target="_top" xlink:title=" ">
<polygon fill="white" stroke="#666666" points="434,-133 306,-133 306,-103 434,-103 434,-133"/>
<text text-anchor="start" x="314" y="-121" font-family="Helvetica,sans-Serif" font-size="10.00">Acts::RangeXD&lt; Dims,</text>
<text text-anchor="middle" x="370" y="-110" font-family="Helvetica,sans-Serif" font-size="10.00"> Scalar &gt;</text>
</a>
</g>
</g>
<!-- Node1&#45;&gt;Node2 -->
<g id="edge1_Node000001_Node000002" class="edge">
<title>Node1&#45;&gt;Node2</title>
<g id="a_edge1_Node000001_Node000002"><a xlink:title=" ">
<path fill="none" stroke="orange" stroke-dasharray="5,2" d="M128.62,-87.34C134.47,-88.68 140.33,-89.93 146,-91 199.45,-101.12 260.87,-108.23 305.7,-112.6"/>
<polygon fill="orange" stroke="orange" points="129.34,-83.92 118.8,-85.02 127.72,-90.73 129.34,-83.92"/>
</a>
</g>
<text text-anchor="start" x="159" y="-112.5" font-family="Helvetica,sans-Serif" font-size="10.00" fill="grey">&lt; Dims, Scalar &gt;</text>
</g>
<!-- Node3 -->
<g id="Node000003" class="node">
<title>Node3</title>
<g id="a_Node000003"><a xlink:href="class_acts_1_1_range_x_d.html" target="_top" xlink:title=" ">
<polygon fill="white" stroke="#666666" points="438.5,-85 301.5,-85 301.5,-55 438.5,-55 438.5,-85"/>
<text text-anchor="start" x="309.5" y="-73" font-family="Helvetica,sans-Serif" font-size="10.00">Acts::RangeXD&lt; 1, Type,</text>
<text text-anchor="middle" x="370" y="-62" font-family="Helvetica,sans-Serif" font-size="10.00"> Vector &gt;</text>
</a>
</g>
</g>
<!-- Node1&#45;&gt;Node3 -->
<g id="edge2_Node000001_Node000003" class="edge">
<title>Node1&#45;&gt;Node3</title>
<g id="a_edge2_Node000001_Node000003"><a xlink:title=" ">
<path fill="none" stroke="orange" stroke-dasharray="5,2" d="M138.37,-70C187.94,-70 252.89,-70 301.24,-70"/>
<polygon fill="orange" stroke="orange" points="138.36,-66.5 128.36,-70 138.36,-73.5 138.36,-66.5"/>
</a>
</g>
<text text-anchor="start" x="154" y="-75.5" font-family="Helvetica,sans-Serif" font-size="10.00" fill="grey">&lt; 1, Type, Vector &gt;</text>
</g>
<!-- Node4 -->
<g id="Node000004" class="node">
<title>Node4</title>
<g id="a_Node000004"><a xlink:href="class_acts_1_1_range_x_d.html" target="_top" xlink:title=" ">
<polygon fill="white" stroke="#666666" points="466,-30 274,-30 274,0 466,0 466,-30"/>
<text text-anchor="start" x="282" y="-18" font-family="Helvetica,sans-Serif" font-size="10.00">Acts::RangeXD&lt; numAxisDirections</text>
<text text-anchor="middle" x="370" y="-7" font-family="Helvetica,sans-Serif" font-size="10.00">(), double &gt;</text>
</a>
</g>
</g>
<!-- Node1&#45;&gt;Node4 -->
<g id="edge3_Node000001_Node000004" class="edge">
<title>Node1&#45;&gt;Node4</title>
<g id="a_edge3_Node000001_Node000004"><a xlink:title=" ">
<path fill="none" stroke="orange" stroke-dasharray="5,2" d="M101.67,-50.6C115.24,-44.26 130.98,-37.86 146,-34 187.21,-23.41 233.96,-18.4 273.98,-16.14"/>
<polygon fill="orange" stroke="orange" points="100.14,-47.45 92.66,-54.95 103.18,-53.75 100.14,-47.45"/>
</a>
</g>
<text text-anchor="start" x="149" y="-55" font-family="Helvetica,sans-Serif" font-size="10.00" fill="grey">&lt; numAxisDirections</text>
<text text-anchor="start" x="149" y="-40" font-family="Helvetica,sans-Serif" font-size="10.00" fill="grey">  (), double &gt;</text>
</g>
</g>
</svg>
