<?xml version="1.0" encoding="UTF-8" standalone="no"?>
<!DOCTYPE svg PUBLIC "-//W3C//DTD SVG 1.1//EN"
 "http://www.w3.org/Graphics/SVG/1.1/DTD/svg11.dtd">
<!-- Generated by graphviz version 2.43.0 (0)
 -->
<!-- Title: Acts::TrackProxy&lt; track_container_t, trajectory_t, holder_t, read_only &gt; Pages: 1 -->
<svg width="989pt" height="256pt"
 viewBox="0.00 0.00 989.00 255.50" xmlns="http://www.w3.org/2000/svg" xmlns:xlink="http://www.w3.org/1999/xlink">
<g id="graph0" class="graph" transform="scale(1 1) rotate(0) translate(4 251.5)">
<title>Acts::TrackProxy&lt; track_container_t, trajectory_t, holder_t, read_only &gt;</title>
<!-- Node1 -->
<g id="Node000001" class="node">
<title>Node1</title>
<g id="a_Node000001"><a xlink:title="Proxy class representing a single track.">
<polygon fill="#999999" stroke="#666666" points="684,-146 547,-146 547,-105 684,-105 684,-146"/>
<text text-anchor="start" x="555" y="-134" font-family="Helvetica,sans-Serif" font-size="10.00">Acts::TrackProxy&lt; track</text>
<text text-anchor="start" x="555" y="-123" font-family="Helvetica,sans-Serif" font-size="10.00">_container_t, trajectory</text>
<text text-anchor="middle" x="615.5" y="-112" font-family="Helvetica,sans-Serif" font-size="10.00">_t, holder_t, read_only &gt;</text>
</a>
</g>
</g>
<!-- Node4 -->
<g id="Node000004" class="node">
<title>Node4</title>
<g id="a_Node000004"><a xlink:href="class_acts_1_1_track_proxy.html" target="_top" xlink:title=" ">
<polygon fill="white" stroke="#666666" points="981,-240 848,-240 848,-199 981,-199 981,-240"/>
<text text-anchor="start" x="856" y="-228" font-family="Helvetica,sans-Serif" font-size="10.00">Acts::TrackProxy&lt; track</text>
<text text-anchor="start" x="856" y="-217" font-family="Helvetica,sans-Serif" font-size="10.00">_container_t, traj_t,</text>
<text text-anchor="middle" x="914.5" y="-206" font-family="Helvetica,sans-Serif" font-size="10.00"> holder_t, false &gt;</text>
</a>
</g>
</g>
<!-- Node1&#45;&gt;Node4 -->
<g id="edge3_Node000001_Node000004" class="edge">
<title>Node1&#45;&gt;Node4</title>
<g id="a_edge3_Node000001_Node000004"><a xlink:title=" ">
<path fill="none" stroke="orange" stroke-dasharray="5,2" d="M646.32,-152.59C661.84,-165.2 681.77,-179.21 702,-187.5 748.56,-206.57 805.09,-214.42 847.98,-217.58"/>
<polygon fill="orange" stroke="orange" points="648.54,-149.89 638.62,-146.16 644.05,-155.26 648.54,-149.89"/>
</a>
</g>
<text text-anchor="start" x="705" y="-236.5" font-family="Helvetica,sans-Serif" font-size="10.00" fill="grey">&lt; track_container_t,</text>
<text text-anchor="start" x="705" y="-221.5" font-family="Helvetica,sans-Serif" font-size="10.00" fill="grey">   traj_t, holder_t, false &gt;</text>
</g>
<!-- Node5 -->
<g id="Node000005" class="node">
<title>Node5</title>
<g id="a_Node000005"><a xlink:href="class_acts_1_1_track_proxy.html" target="_top" xlink:title=" ">
<polygon fill="white" stroke="#666666" points="981,-181 848,-181 848,-140 981,-140 981,-181"/>
<text text-anchor="start" x="856" y="-169" font-family="Helvetica,sans-Serif" font-size="10.00">Acts::TrackProxy&lt; track</text>
<text text-anchor="start" x="856" y="-158" font-family="Helvetica,sans-Serif" font-size="10.00">_container_t, traj_t,</text>
<text text-anchor="middle" x="914.5" y="-147" font-family="Helvetica,sans-Serif" font-size="10.00"> holder_t, true &gt;</text>
</a>
</g>
</g>
<!-- Node1&#45;&gt;Node5 -->
<g id="edge4_Node000001_Node000005" class="edge">
<title>Node1&#45;&gt;Node5</title>
<g id="a_edge4_Node000001_Node000005"><a xlink:title=" ">
<path fill="none" stroke="orange" stroke-dasharray="5,2" d="M694.27,-137.48C696.88,-137.84 699.46,-138.17 702,-138.5 750.7,-144.73 805.89,-150.43 847.67,-154.46"/>
<polygon fill="orange" stroke="orange" points="694.52,-133.99 684.13,-136.08 693.56,-140.92 694.52,-133.99"/>
</a>
</g>
<text text-anchor="start" x="707" y="-172.5" font-family="Helvetica,sans-Serif" font-size="10.00" fill="grey">&lt; track_container_t,</text>
<text text-anchor="start" x="707" y="-157.5" font-family="Helvetica,sans-Serif" font-size="10.00" fill="grey">   traj_t, holder_t, true &gt;</text>
</g>
<!-- Node6 -->
<g id="Node000006" class="node">
<title>Node6</title>
<g id="a_Node000006"><a xlink:href="class_acts_1_1_track_proxy.html" target="_top" xlink:title=" ">
<polygon fill="white" stroke="#666666" points="981,-111 848,-111 848,-70 981,-70 981,-111"/>
<text text-anchor="start" x="856" y="-99" font-family="Helvetica,sans-Serif" font-size="10.00">Acts::TrackProxy&lt; track</text>
<text text-anchor="start" x="856" y="-88" font-family="Helvetica,sans-Serif" font-size="10.00">_container_t, trajectory</text>
<text text-anchor="middle" x="914.5" y="-77" font-family="Helvetica,sans-Serif" font-size="10.00">_t, holder_t, false &gt;</text>
</a>
</g>
</g>
<!-- Node1&#45;&gt;Node6 -->
<g id="edge5_Node000001_Node000006" class="edge">
<title>Node1&#45;&gt;Node6</title>
<g id="a_edge5_Node000001_Node000006"><a xlink:title=" ">
<path fill="none" stroke="orange" stroke-dasharray="5,2" d="M662.85,-100.7C675.23,-95.26 688.83,-90.29 702,-87.5 750.14,-77.28 805.83,-78.59 847.98,-82.15"/>
<polygon fill="orange" stroke="orange" points="661.28,-97.57 653.65,-104.93 664.2,-103.93 661.28,-97.57"/>
</a>
</g>
<text text-anchor="start" x="715" y="-123" font-family="Helvetica,sans-Serif" font-size="10.00" fill="grey">&lt; track_container_t,</text>
<text text-anchor="start" x="715" y="-108" font-family="Helvetica,sans-Serif" font-size="10.00" fill="grey">   trajectory_t, holder</text>
<text text-anchor="start" x="715" y="-93" font-family="Helvetica,sans-Serif" font-size="10.00" fill="grey">  _t, false &gt;</text>
</g>
<!-- Node7 -->
<g id="Node000007" class="node">
<title>Node7</title>
<g id="a_Node000007"><a xlink:href="class_acts_1_1_track_proxy.html" target="_top" xlink:title=" ">
<polygon fill="white" stroke="#666666" points="981,-41 848,-41 848,0 981,0 981,-41"/>
<text text-anchor="start" x="856" y="-29" font-family="Helvetica,sans-Serif" font-size="10.00">Acts::TrackProxy&lt; track</text>
<text text-anchor="start" x="856" y="-18" font-family="Helvetica,sans-Serif" font-size="10.00">_container_t, trajectory</text>
<text text-anchor="middle" x="914.5" y="-7" font-family="Helvetica,sans-Serif" font-size="10.00">_t, holder_t, true &gt;</text>
</a>
</g>
</g>
<!-- Node1&#45;&gt;Node7 -->
<g id="edge6_Node000001_Node000007" class="edge">
<title>Node1&#45;&gt;Node7</title>
<g id="a_edge6_Node000001_Node000007"><a xlink:title=" ">
<path fill="none" stroke="orange" stroke-dasharray="5,2" d="M633.28,-96.36C648.14,-73.66 672.09,-43.68 702,-29.5 747.33,-8 804.45,-6.87 847.9,-10.5"/>
<polygon fill="orange" stroke="orange" points="630.23,-94.64 627.85,-104.96 636.15,-98.37 630.23,-94.64"/>
</a>
</g>
<text text-anchor="start" x="715" y="-65" font-family="Helvetica,sans-Serif" font-size="10.00" fill="grey">&lt; track_container_t,</text>
<text text-anchor="start" x="715" y="-50" font-family="Helvetica,sans-Serif" font-size="10.00" fill="grey">   trajectory_t, holder</text>
<text text-anchor="start" x="715" y="-35" font-family="Helvetica,sans-Serif" font-size="10.00" fill="grey">  _t, true &gt;</text>
</g>
<!-- Node2 -->
<g id="Node000002" class="node">
<title>Node2</title>
<g id="a_Node000002"><a xlink:href="class_acts_1_1_track_proxy_common.html" target="_top" xlink:title=" ">
<polygon fill="white" stroke="#666666" points="510,-157 342,-157 342,-94 510,-94 510,-157"/>
<text text-anchor="start" x="350" y="-145" font-family="Helvetica,sans-Serif" font-size="10.00">Acts::TrackProxyCommon</text>
<text text-anchor="start" x="350" y="-134" font-family="Helvetica,sans-Serif" font-size="10.00">&lt; TrackProxy&lt; track_container</text>
<text text-anchor="start" x="350" y="-123" font-family="Helvetica,sans-Serif" font-size="10.00">_t, trajectory_t, holder_t,</text>
<text text-anchor="start" x="350" y="-112" font-family="Helvetica,sans-Serif" font-size="10.00"> true &gt;, track_container_t::</text>
<text text-anchor="middle" x="426" y="-101" font-family="Helvetica,sans-Serif" font-size="10.00">IndexType, true &gt;</text>
</a>
</g>
</g>
<!-- Node2&#45;&gt;Node1 -->
<g id="edge1_Node000001_Node000002" class="edge">
<title>Node2&#45;&gt;Node1</title>
<g id="a_edge1_Node000001_Node000002"><a xlink:title=" ">
<path fill="none" stroke="#63b8ff" d="M520.22,-125.5C529.24,-125.5 538.27,-125.5 546.97,-125.5"/>
<polygon fill="#63b8ff" stroke="#63b8ff" points="520.06,-122 510.06,-125.5 520.06,-129 520.06,-122"/>
</a>
</g>
</g>
<!-- Node3 -->
<g id="Node000003" class="node">
<title>Node3</title>
<g id="a_Node000003"><a xlink:href="class_acts_1_1_track_proxy_common.html" target="_top" xlink:title="Common CRTP implementation shared by the various track proxy front&#45;ends.">
<polygon fill="white" stroke="#666666" points="141,-146 0,-146 0,-105 141,-105 141,-146"/>
<text text-anchor="start" x="8" y="-134" font-family="Helvetica,sans-Serif" font-size="10.00">Acts::TrackProxyCommon</text>
<text text-anchor="start" x="8" y="-123" font-family="Helvetica,sans-Serif" font-size="10.00">&lt; Derived, index_t, read</text>
<text text-anchor="middle" x="70.5" y="-112" font-family="Helvetica,sans-Serif" font-size="10.00">_only &gt;</text>
</a>
</g>
</g>
<!-- Node3&#45;&gt;Node2 -->
<g id="edge2_Node000002_Node000003" class="edge">
<title>Node3&#45;&gt;Node2</title>
<g id="a_edge2_Node000002_Node000003"><a xlink:title=" ">
<path fill="none" stroke="orange" stroke-dasharray="5,2" d="M151.36,-125.5C208.2,-125.5 284.39,-125.5 341.94,-125.5"/>
<polygon fill="orange" stroke="orange" points="151.34,-122 141.34,-125.5 151.34,-129 151.34,-122"/>
</a>
</g>
<text text-anchor="start" x="162.5" y="-176.5" font-family="Helvetica,sans-Serif" font-size="10.00" fill="grey">&lt; TrackProxy&lt; track</text>
<text text-anchor="start" x="162.5" y="-161.5" font-family="Helvetica,sans-Serif" font-size="10.00" fill="grey">  _container_t, trajectory</text>
<text text-anchor="start" x="162.5" y="-146.5" font-family="Helvetica,sans-Serif" font-size="10.00" fill="grey">  _t, holder_t, true &gt;, track</text>
<text text-anchor="start" x="162.5" y="-131.5" font-family="Helvetica,sans-Serif" font-size="10.00" fill="grey">  _container_t::IndexType, true &gt;</text>
</g>
</g>
</svg>
