<?xml version="1.0" encoding="UTF-8" standalone="no"?>
<!DOCTYPE svg PUBLIC "-//W3C//DTD SVG 1.1//EN"
 "http://www.w3.org/Graphics/SVG/1.1/DTD/svg11.dtd">
<!-- Generated by graphviz version 2.43.0 (0)
 -->
<!-- Title: Acts::VolumeBounds Pages: 1 -->
<svg width="323pt" height="273pt"
 viewBox="0.00 0.00 323.00 273.00" xmlns="http://www.w3.org/2000/svg" xmlns:xlink="http://www.w3.org/1999/xlink">

<svg id="main" version="1.1" xmlns="http://www.w3.org/2000/svg" xmlns:xlink="http://www.w3.org/1999/xlink" xml:space="preserve">

<style type="text/css"><![CDATA[
.node, .edge {opacity: 0.7;}
.node.selected, .edge.selected {opacity: 1;}
.edge:hover path { stroke: red; }
.edge:hover polygon { stroke: red; fill: red; }
]]></style>
<script type="application/ecmascript" xlink:href="svg.min.js"/>
<svg id="graph" class="graph">
<g id="graph0" class="graph" transform="scale(1 1) rotate(0) translate(4 269)">
<title>Acts::VolumeBounds</title>
<!-- Node1 -->
<g id="Node000001" class="node">
<title>Node1</title>
<g id="a_Node000001"><a xlink:title="Pure Absract Base Class for Volume bounds.">
<polygon fill="#999999" stroke="#666666" points="116,-142 0,-142 0,-123 116,-123 116,-142"/>
<text text-anchor="middle" x="58" y="-130" font-family="Helvetica,sans-Serif" font-size="10.00">Acts::VolumeBounds</text>
</a>
</g>
</g>
<!-- Node2 -->
<g id="Node000002" class="node">
<title>Node2</title>
<g id="a_Node000002"><a xlink:href="class_acts_1_1_cone_volume_bounds.html" target="_top" xlink:title="Volume bound class for describing conical volumes either with cylindrical inlay or outer boundary,...">
<polygon fill="white" stroke="#666666" points="304,-265 163,-265 163,-246 304,-246 304,-265"/>
<text text-anchor="middle" x="233.5" y="-253" font-family="Helvetica,sans-Serif" font-size="10.00">Acts::ConeVolumeBounds</text>
</a>
</g>
</g>
<!-- Node1&#45;&gt;Node2 -->
<g id="edge1_Node000001_Node000002" class="edge">
<title>Node1&#45;&gt;Node2</title>
<g id="a_edge1_Node000001_Node000002"><a xlink:title=" ">
<path fill="none" stroke="#63b8ff" d="M70.04,-150.92C85.35,-174.78 115.32,-215.86 152,-237.5 157.8,-240.92 164.18,-243.69 170.74,-245.94"/>
<polygon fill="#63b8ff" stroke="#63b8ff" points="72.83,-148.77 64.57,-142.14 66.89,-152.48 72.83,-148.77"/>
</a>
</g>
</g>
<!-- Node3 -->
<g id="Node000003" class="node">
<title>Node3</title>
<g id="a_Node000003"><a xlink:href="class_acts_1_1_cuboid_volume_bounds.html" target="_top" xlink:title="Bounds for a cubical Volume, the orientedSurfaces(...) method creates a vector of 6 surfaces:">
<polygon fill="white" stroke="#666666" points="308.5,-228 158.5,-228 158.5,-209 308.5,-209 308.5,-228"/>
<text text-anchor="middle" x="233.5" y="-216" font-family="Helvetica,sans-Serif" font-size="10.00">Acts::CuboidVolumeBounds</text>
</a>
</g>
</g>
<!-- Node1&#45;&gt;Node3 -->
<g id="edge2_Node000001_Node000003" class="edge">
<title>Node1&#45;&gt;Node3</title>
<g id="a_edge2_Node000001_Node000003"><a xlink:title=" ">
<path fill="none" stroke="#63b8ff" d="M77.12,-148.91C94.94,-164.19 123.53,-186.51 152,-199.5 160.36,-203.31 169.57,-206.41 178.69,-208.91"/>
<polygon fill="#63b8ff" stroke="#63b8ff" points="79.12,-146.01 69.29,-142.05 74.51,-151.27 79.12,-146.01"/>
</a>
</g>
</g>
<!-- Node4 -->
<g id="Node000004" class="node">
<title>Node4</title>
<g id="a_Node000004"><a xlink:href="class_acts_1_1_cutout_cylinder_volume_bounds.html" target="_top" xlink:title="Class which implements a cutout cylinder.">
<polygon fill="white" stroke="#666666" points="310,-190.5 157,-190.5 157,-160.5 310,-160.5 310,-190.5"/>
<text text-anchor="start" x="165" y="-178.5" font-family="Helvetica,sans-Serif" font-size="10.00">Acts::CutoutCylinderVolume</text>
<text text-anchor="middle" x="233.5" y="-167.5" font-family="Helvetica,sans-Serif" font-size="10.00">Bounds</text>
</a>
</g>
</g>
<!-- Node1&#45;&gt;Node4 -->
<g id="edge3_Node000001_Node000004" class="edge">
<title>Node1&#45;&gt;Node4</title>
<g id="a_edge3_Node000001_Node000004"><a xlink:title=" ">
<path fill="none" stroke="#63b8ff" d="M107.33,-144.48C127.36,-149.44 150.8,-155.25 171.95,-160.49"/>
<polygon fill="#63b8ff" stroke="#63b8ff" points="108.05,-141.05 97.51,-142.04 106.37,-147.85 108.05,-141.05"/>
</a>
</g>
</g>
<!-- Node5 -->
<g id="Node000005" class="node">
<title>Node5</title>
<g id="a_Node000005"><a xlink:href="class_acts_1_1_cylinder_volume_bounds.html" target="_top" xlink:title="[0] and [1] at positive">
<polygon fill="white" stroke="#666666" points="312,-142 155,-142 155,-123 312,-123 312,-142"/>
<text text-anchor="middle" x="233.5" y="-130" font-family="Helvetica,sans-Serif" font-size="10.00">Acts::CylinderVolumeBounds</text>
</a>
</g>
</g>
<!-- Node1&#45;&gt;Node5 -->
<g id="edge4_Node000001_Node000005" class="edge">
<title>Node1&#45;&gt;Node5</title>
<g id="a_edge4_Node000001_Node000005"><a xlink:title=" ">
<path fill="none" stroke="#63b8ff" d="M126.29,-132.5C135.64,-132.5 145.31,-132.5 154.84,-132.5"/>
<polygon fill="#63b8ff" stroke="#63b8ff" points="126.29,-129 116.29,-132.5 126.29,-136 126.29,-129"/>
</a>
</g>
</g>
<!-- Node6 -->
<g id="Node000006" class="node">
<title>Node6</title>
<g id="a_Node000006"><a xlink:href="class_acts_1_1_diamond_volume_bounds.html" target="_top" xlink:title="Bounds for a polygonal prism shaped Volume, the orientedSurface(...) method creates a vector of 8 sur...">
<polygon fill="white" stroke="#666666" points="314,-105 153,-105 153,-86 314,-86 314,-105"/>
<text text-anchor="middle" x="233.5" y="-93" font-family="Helvetica,sans-Serif" font-size="10.00">Acts::DiamondVolumeBounds</text>
</a>
</g>
</g>
<!-- Node1&#45;&gt;Node6 -->
<g id="edge5_Node000001_Node000006" class="edge">
<title>Node1&#45;&gt;Node6</title>
<g id="a_edge5_Node000001_Node000006"><a xlink:title=" ">
<path fill="none" stroke="#63b8ff" d="M113.64,-120.85C137.47,-115.77 165.07,-109.88 187.67,-105.06"/>
<polygon fill="#63b8ff" stroke="#63b8ff" points="112.73,-117.46 103.68,-122.97 114.19,-124.31 112.73,-117.46"/>
</a>
</g>
</g>
<!-- Node7 -->
<g id="Node000007" class="node">
<title>Node7</title>
<g id="a_Node000007"><a xlink:href="class_acts_1_1_generic_cuboid_volume_bounds.html" target="_top" xlink:title=" ">
<polygon fill="white" stroke="#666666" points="309.5,-67.5 157.5,-67.5 157.5,-37.5 309.5,-37.5 309.5,-67.5"/>
<text text-anchor="start" x="165.5" y="-55.5" font-family="Helvetica,sans-Serif" font-size="10.00">Acts::GenericCuboidVolume</text>
<text text-anchor="middle" x="233.5" y="-44.5" font-family="Helvetica,sans-Serif" font-size="10.00">Bounds</text>
</a>
</g>
</g>
<!-- Node1&#45;&gt;Node7 -->
<g id="edge6_Node000001_Node000007" class="edge">
<title>Node1&#45;&gt;Node7</title>
<g id="a_edge6_Node000001_Node000007"><a xlink:title=" ">
<path fill="none" stroke="#63b8ff" d="M81.46,-117.19C99.82,-105.19 126.77,-88.69 152,-77.5 160.16,-73.88 169,-70.57 177.74,-67.62"/>
<polygon fill="#63b8ff" stroke="#63b8ff" points="79.34,-114.4 72.94,-122.85 83.21,-120.24 79.34,-114.4"/>
</a>
</g>
</g>
<!-- Node8 -->
<g id="Node000008" class="node">
<title>Node8</title>
<g id="a_Node000008"><a xlink:href="class_acts_1_1_trapezoid_volume_bounds.html" target="_top" xlink:title="Bounds for a trapezoidal shaped Volume, the orientedSurface(...) method creates a vector of 6 surface...">
<polygon fill="white" stroke="#666666" points="315,-19 152,-19 152,0 315,0 315,-19"/>
<text text-anchor="middle" x="233.5" y="-7" font-family="Helvetica,sans-Serif" font-size="10.00">Acts::TrapezoidVolumeBounds</text>
</a>
</g>
</g>
<!-- Node1&#45;&gt;Node8 -->
<g id="edge7_Node000001_Node000008" class="edge">
<title>Node1&#45;&gt;Node8</title>
<g id="a_edge7_Node000001_Node000008"><a xlink:title=" ">
<path fill="none" stroke="#63b8ff" d="M70.12,-114.32C85.52,-90.76 115.59,-50.15 152,-28.5 158.54,-24.61 165.82,-21.52 173.26,-19.06"/>
<polygon fill="#63b8ff" stroke="#63b8ff" points="67.02,-112.67 64.62,-122.99 72.93,-116.43 67.02,-112.67"/>
</a>
</g>
</g>
</g>
</svg>
</svg>

<style type='text/css'>
<![CDATA[
[data-mouse-over-selected='false'] { opacity: 0.7; }
[data-mouse-over-selected='true']  { opacity: 1.0; }
]]>
</style>
<script type="application/ecmascript"><![CDATA[
document.addEventListener('DOMContentLoaded', (event) => {
  highlightEdges();
  highlightAdjacentNodes();
});
]]></script>
</svg>
