<?xml version="1.0" encoding="UTF-8" standalone="no"?>
<!DOCTYPE svg PUBLIC "-//W3C//DTD SVG 1.1//EN"
 "http://www.w3.org/Graphics/SVG/1.1/DTD/svg11.dtd">
<!-- Generated by graphviz version 2.43.0 (0)
 -->
<!-- Title: Acts::TrackProxyCommon&lt; Derived, index_t, read_only &gt; Pages: 1 -->
<svg width="1022pt" height="625pt"
 viewBox="0.00 0.00 1022.00 625.11" xmlns="http://www.w3.org/2000/svg" xmlns:xlink="http://www.w3.org/1999/xlink">
<g id="graph0" class="graph" transform="scale(1 1) rotate(0) translate(4 621.11)">
<title>Acts::TrackProxyCommon&lt; Derived, index_t, read_only &gt;</title>
<!-- Node1 -->
<g id="Node000001" class="node">
<title>Node1</title>
<g id="a_Node000001"><a xlink:title="Common CRTP implementation shared by the various track proxy front&#45;ends.">
<polygon fill="#999999" stroke="#666666" points="141,-298.1 0,-298.1 0,-257.1 141,-257.1 141,-298.1"/>
<text text-anchor="start" x="8" y="-286.1" font-family="Helvetica,sans-Serif" font-size="10.00">Acts::TrackProxyCommon</text>
<text text-anchor="start" x="8" y="-275.1" font-family="Helvetica,sans-Serif" font-size="10.00">&lt; Derived, index_t, read</text>
<text text-anchor="middle" x="70.5" y="-264.1" font-family="Helvetica,sans-Serif" font-size="10.00">_only &gt;</text>
</a>
</g>
</g>
<!-- Node2 -->
<g id="Node000002" class="node">
<title>Node2</title>
<g id="a_Node000002"><a xlink:href="class_acts_1_1_track_proxy.html" target="_top" xlink:title=" ">
<polygon fill="white" stroke="#666666" points="1014,-602.1 881,-602.1 881,-561.1 1014,-561.1 1014,-602.1"/>
<text text-anchor="start" x="889" y="-590.1" font-family="Helvetica,sans-Serif" font-size="10.00">Acts::TrackProxy&lt; track</text>
<text text-anchor="start" x="889" y="-579.1" font-family="Helvetica,sans-Serif" font-size="10.00">_container_t, traj_t,</text>
<text text-anchor="middle" x="947.5" y="-568.1" font-family="Helvetica,sans-Serif" font-size="10.00"> holder_t, false &gt;</text>
</a>
</g>
</g>
<!-- Node1&#45;&gt;Node2 -->
<g id="edge1_Node000001_Node000002" class="edge">
<title>Node1&#45;&gt;Node2</title>
<g id="a_edge1_Node000001_Node000002"><a xlink:title=" ">
<path fill="none" stroke="#63b8ff" d="M77.25,-307.89C86.85,-350.45 110.14,-427.74 159,-472.6 363.11,-659.99 731.36,-620.51 880.81,-594.75"/>
<polygon fill="#63b8ff" stroke="#63b8ff" points="80.67,-307.15 75.14,-298.11 73.82,-308.63 80.67,-307.15"/>
</a>
</g>
</g>
<!-- Node3 -->
<g id="Node000003" class="node">
<title>Node3</title>
<g id="a_Node000003"><a xlink:href="class_acts_1_1_track_proxy.html" target="_top" xlink:title=" ">
<polygon fill="white" stroke="#666666" points="1014,-503.1 881,-503.1 881,-462.1 1014,-462.1 1014,-503.1"/>
<text text-anchor="start" x="889" y="-491.1" font-family="Helvetica,sans-Serif" font-size="10.00">Acts::TrackProxy&lt; track</text>
<text text-anchor="start" x="889" y="-480.1" font-family="Helvetica,sans-Serif" font-size="10.00">_container_t, traj_t,</text>
<text text-anchor="middle" x="947.5" y="-469.1" font-family="Helvetica,sans-Serif" font-size="10.00"> holder_t, true &gt;</text>
</a>
</g>
</g>
<!-- Node1&#45;&gt;Node3 -->
<g id="edge2_Node000001_Node000003" class="edge">
<title>Node1&#45;&gt;Node3</title>
<g id="a_edge2_Node000001_Node000003"><a xlink:title=" ">
<path fill="none" stroke="#63b8ff" d="M82.71,-307.72C96.03,-339.26 121.31,-387.85 159,-414.6 373.52,-566.82 473.73,-520.18 735,-550.6 791.51,-557.18 809.4,-569.67 863,-550.6 889.25,-541.27 913.23,-519.76 928.69,-503.42"/>
<polygon fill="#63b8ff" stroke="#63b8ff" points="85.82,-306.07 78.8,-298.13 79.33,-308.71 85.82,-306.07"/>
</a>
</g>
</g>
<!-- Node4 -->
<g id="Node000004" class="node">
<title>Node4</title>
<g id="a_Node000004"><a xlink:href="class_acts_1_1_track_proxy.html" target="_top" xlink:title=" ">
<polygon fill="white" stroke="#666666" points="1014,-395.1 881,-395.1 881,-354.1 1014,-354.1 1014,-395.1"/>
<text text-anchor="start" x="889" y="-383.1" font-family="Helvetica,sans-Serif" font-size="10.00">Acts::TrackProxy&lt; track</text>
<text text-anchor="start" x="889" y="-372.1" font-family="Helvetica,sans-Serif" font-size="10.00">_container_t, trajectory</text>
<text text-anchor="middle" x="947.5" y="-361.1" font-family="Helvetica,sans-Serif" font-size="10.00">_t, holder_t, false &gt;</text>
</a>
</g>
</g>
<!-- Node1&#45;&gt;Node4 -->
<g id="edge3_Node000001_Node000004" class="edge">
<title>Node1&#45;&gt;Node4</title>
<g id="a_edge3_Node000001_Node000004"><a xlink:title=" ">
<path fill="none" stroke="#63b8ff" d="M151.31,-282.25C153.9,-282.38 156.47,-282.49 159,-282.6 198.09,-284.3 828.08,-285.94 863,-303.6 874.58,-309.46 871.68,-317.57 881,-326.6 891.23,-336.51 903.58,-346.07 914.79,-354.02"/>
<polygon fill="#63b8ff" stroke="#63b8ff" points="151.38,-278.75 141.22,-281.76 151.04,-285.74 151.38,-278.75"/>
</a>
</g>
</g>
<!-- Node5 -->
<g id="Node000005" class="node">
<title>Node5</title>
<g id="a_Node000005"><a xlink:href="class_acts_1_1_track_proxy.html" target="_top" xlink:title=" ">
<polygon fill="white" stroke="#666666" points="1014,-317.1 881,-317.1 881,-276.1 1014,-276.1 1014,-317.1"/>
<text text-anchor="start" x="889" y="-305.1" font-family="Helvetica,sans-Serif" font-size="10.00">Acts::TrackProxy&lt; track</text>
<text text-anchor="start" x="889" y="-294.1" font-family="Helvetica,sans-Serif" font-size="10.00">_container_t, trajectory</text>
<text text-anchor="middle" x="947.5" y="-283.1" font-family="Helvetica,sans-Serif" font-size="10.00">_t, holder_t, true &gt;</text>
</a>
</g>
</g>
<!-- Node1&#45;&gt;Node5 -->
<g id="edge4_Node000001_Node000005" class="edge">
<title>Node1&#45;&gt;Node5</title>
<g id="a_edge4_Node000001_Node000005"><a xlink:title=" ">
<path fill="none" stroke="#63b8ff" d="M151.45,-277.28C276.11,-276.8 524.36,-275.92 735,-275.6 791.89,-275.52 806.54,-268.61 863,-275.6 868.79,-276.32 874.75,-277.3 880.69,-278.46"/>
<polygon fill="#63b8ff" stroke="#63b8ff" points="151.22,-273.78 141.23,-277.32 151.25,-280.78 151.22,-273.78"/>
</a>
</g>
</g>
<!-- Node6 -->
<g id="Node000006" class="node">
<title>Node6</title>
<g id="a_Node000006"><a xlink:href="class_acts_1_1_track_proxy_common.html" target="_top" xlink:title=" ">
<polygon fill="white" stroke="#666666" points="717,-149.6 576,-149.6 576,-97.6 717,-97.6 717,-149.6"/>
<text text-anchor="start" x="584" y="-137.6" font-family="Helvetica,sans-Serif" font-size="10.00">Acts::TrackProxyCommon</text>
<text text-anchor="start" x="584" y="-126.6" font-family="Helvetica,sans-Serif" font-size="10.00">&lt; AnyTrackProxy&lt; read</text>
<text text-anchor="start" x="584" y="-115.6" font-family="Helvetica,sans-Serif" font-size="10.00">_only &gt;, TrackIndexType,</text>
<text text-anchor="middle" x="646.5" y="-104.6" font-family="Helvetica,sans-Serif" font-size="10.00"> read_only &gt;</text>
</a>
</g>
</g>
<!-- Node1&#45;&gt;Node6 -->
<g id="edge5_Node000001_Node000006" class="edge">
<title>Node1&#45;&gt;Node6</title>
<g id="a_edge5_Node000001_Node000006"><a xlink:title=" ">
<path fill="none" stroke="orange" stroke-dasharray="5,2" d="M93.51,-249C109.72,-229.73 133.33,-205.08 159,-189.6 289.84,-110.71 475.97,-109.94 575.82,-116.57"/>
<polygon fill="orange" stroke="orange" points="90.67,-246.94 87.03,-256.89 96.08,-251.39 90.67,-246.94"/>
</a>
</g>
<text text-anchor="start" x="376.5" y="-162.1" font-family="Helvetica,sans-Serif" font-size="10.00" fill="grey">&lt; AnyTrackProxy&lt; read</text>
<text text-anchor="start" x="376.5" y="-147.1" font-family="Helvetica,sans-Serif" font-size="10.00" fill="grey">  _only &gt;, TrackIndexType,</text>
<text text-anchor="start" x="376.5" y="-132.1" font-family="Helvetica,sans-Serif" font-size="10.00" fill="grey">   read_only &gt;</text>
</g>
<!-- Node9 -->
<g id="Node000009" class="node">
<title>Node9</title>
<g id="a_Node000009"><a xlink:href="class_acts_1_1_track_proxy_common.html" target="_top" xlink:title=" ">
<polygon fill="white" stroke="#666666" points="539,-63.1 342,-63.1 342,-0.1 539,-0.1 539,-63.1"/>
<text text-anchor="start" x="350" y="-51.1" font-family="Helvetica,sans-Serif" font-size="10.00">Acts::TrackProxyCommon</text>
<text text-anchor="start" x="350" y="-40.1" font-family="Helvetica,sans-Serif" font-size="10.00">&lt; TrackProxy&lt; track_container</text>
<text text-anchor="start" x="350" y="-29.1" font-family="Helvetica,sans-Serif" font-size="10.00">_t, trajectory_t, holder_t,</text>
<text text-anchor="start" x="350" y="-18.1" font-family="Helvetica,sans-Serif" font-size="10.00"> read_only &gt;, typename track</text>
<text text-anchor="middle" x="440.5" y="-7.1" font-family="Helvetica,sans-Serif" font-size="10.00">_container_t::IndexType, read_only &gt;</text>
</a>
</g>
</g>
<!-- Node1&#45;&gt;Node9 -->
<g id="edge8_Node000001_Node000009" class="edge">
<title>Node1&#45;&gt;Node9</title>
<g id="a_edge8_Node000001_Node000009"><a xlink:title=" ">
<path fill="none" stroke="orange" stroke-dasharray="5,2" d="M71.99,-246.89C74.7,-192.93 89,-82.12 159,-32.6 211.18,4.31 283.59,3.64 341.76,-5.79"/>
<polygon fill="orange" stroke="orange" points="68.49,-246.76 71.58,-256.89 75.48,-247.04 68.49,-246.76"/>
</a>
</g>
<text text-anchor="start" x="165.5" y="-98.1" font-family="Helvetica,sans-Serif" font-size="10.00" fill="grey">&lt; TrackProxy&lt; track</text>
<text text-anchor="start" x="165.5" y="-83.1" font-family="Helvetica,sans-Serif" font-size="10.00" fill="grey">  _container_t, trajectory</text>
<text text-anchor="start" x="165.5" y="-68.1" font-family="Helvetica,sans-Serif" font-size="10.00" fill="grey">  _t, holder_t, read_only</text>
<text text-anchor="start" x="165.5" y="-53.1" font-family="Helvetica,sans-Serif" font-size="10.00" fill="grey">   &gt;, typename track_container</text>
<text text-anchor="start" x="165.5" y="-38.1" font-family="Helvetica,sans-Serif" font-size="10.00" fill="grey">  _t::IndexType, read_only &gt;</text>
</g>
<!-- Node10 -->
<g id="Node000010" class="node">
<title>Node10</title>
<g id="a_Node000010"><a xlink:href="class_acts_1_1_track_proxy_common.html" target="_top" xlink:title=" ">
<polygon fill="white" stroke="#666666" points="513.5,-230.1 367.5,-230.1 367.5,-189.1 513.5,-189.1 513.5,-230.1"/>
<text text-anchor="start" x="375.5" y="-218.1" font-family="Helvetica,sans-Serif" font-size="10.00">Acts::TrackProxyCommon</text>
<text text-anchor="start" x="375.5" y="-207.1" font-family="Helvetica,sans-Serif" font-size="10.00">&lt; AnyTrackProxy&lt; true</text>
<text text-anchor="middle" x="440.5" y="-196.1" font-family="Helvetica,sans-Serif" font-size="10.00"> &gt;, TrackIndexType, true &gt;</text>
</a>
</g>
</g>
<!-- Node1&#45;&gt;Node10 -->
<g id="edge9_Node000001_Node000010" class="edge">
<title>Node1&#45;&gt;Node10</title>
<g id="a_edge9_Node000001_Node000010"><a xlink:title=" ">
<path fill="none" stroke="orange" stroke-dasharray="5,2" d="M99,-250.05C115.03,-235.94 136.5,-220.18 159,-212.6 226.96,-189.72 309.54,-192.17 367.44,-198.38"/>
<polygon fill="orange" stroke="orange" points="96.62,-247.48 91.58,-256.8 101.33,-252.66 96.62,-247.48"/>
</a>
</g>
<text text-anchor="start" x="173.5" y="-233.6" font-family="Helvetica,sans-Serif" font-size="10.00" fill="grey">&lt; AnyTrackProxy&lt; true</text>
<text text-anchor="start" x="173.5" y="-218.6" font-family="Helvetica,sans-Serif" font-size="10.00" fill="grey">   &gt;, TrackIndexType, true &gt;</text>
</g>
<!-- Node12 -->
<g id="Node000012" class="node">
<title>Node12</title>
<g id="a_Node000012"><a xlink:href="class_acts_1_1_track_proxy_common.html" target="_top" xlink:title=" ">
<polygon fill="white" stroke="#666666" points="524.5,-403.1 356.5,-403.1 356.5,-340.1 524.5,-340.1 524.5,-403.1"/>
<text text-anchor="start" x="364.5" y="-391.1" font-family="Helvetica,sans-Serif" font-size="10.00">Acts::TrackProxyCommon</text>
<text text-anchor="start" x="364.5" y="-380.1" font-family="Helvetica,sans-Serif" font-size="10.00">&lt; TrackProxy&lt; track_container</text>
<text text-anchor="start" x="364.5" y="-369.1" font-family="Helvetica,sans-Serif" font-size="10.00">_t, trajectory_t, holder_t,</text>
<text text-anchor="start" x="364.5" y="-358.1" font-family="Helvetica,sans-Serif" font-size="10.00"> true &gt;, track_container_t::</text>
<text text-anchor="middle" x="440.5" y="-347.1" font-family="Helvetica,sans-Serif" font-size="10.00">IndexType, true &gt;</text>
</a>
</g>
</g>
<!-- Node1&#45;&gt;Node12 -->
<g id="edge13_Node000001_Node000012" class="edge">
<title>Node1&#45;&gt;Node12</title>
<g id="a_edge13_Node000001_Node000012"><a xlink:title=" ">
<path fill="none" stroke="orange" stroke-dasharray="5,2" d="M132.05,-301.74C141.01,-304.94 150.2,-308 159,-310.6 224.48,-329.96 300.2,-346.06 356.46,-356.86"/>
<polygon fill="orange" stroke="orange" points="133.02,-298.38 122.43,-298.24 130.63,-304.95 133.02,-298.38"/>
</a>
</g>
<text text-anchor="start" x="162.5" y="-399.6" font-family="Helvetica,sans-Serif" font-size="10.00" fill="grey">&lt; TrackProxy&lt; track</text>
<text text-anchor="start" x="162.5" y="-384.6" font-family="Helvetica,sans-Serif" font-size="10.00" fill="grey">  _container_t, trajectory</text>
<text text-anchor="start" x="162.5" y="-369.6" font-family="Helvetica,sans-Serif" font-size="10.00" fill="grey">  _t, holder_t, true &gt;, track</text>
<text text-anchor="start" x="162.5" y="-354.6" font-family="Helvetica,sans-Serif" font-size="10.00" fill="grey">  _container_t::IndexType, true &gt;</text>
</g>
<!-- Node7 -->
<g id="Node000007" class="node">
<title>Node7</title>
<g id="a_Node000007"><a xlink:href="class_acts_1_1_any_track_proxy.html" target="_top" xlink:title=" ">
<polygon fill="white" stroke="#666666" points="1005.5,-218.6 889.5,-218.6 889.5,-188.6 1005.5,-188.6 1005.5,-218.6"/>
<text text-anchor="start" x="897.5" y="-206.6" font-family="Helvetica,sans-Serif" font-size="10.00">Acts::AnyTrackProxy</text>
<text text-anchor="middle" x="947.5" y="-195.6" font-family="Helvetica,sans-Serif" font-size="10.00">&lt; false &gt;</text>
</a>
</g>
</g>
<!-- Node6&#45;&gt;Node7 -->
<g id="edge6_Node000006_Node000007" class="edge">
<title>Node6&#45;&gt;Node7</title>
<g id="a_edge6_Node000006_Node000007"><a xlink:title=" ">
<path fill="none" stroke="#63b8ff" d="M727.47,-128.94C768.79,-133.41 819.53,-141.6 863,-156.6 885.33,-164.31 908.58,-177.93 924.86,-188.53"/>
<polygon fill="#63b8ff" stroke="#63b8ff" points="727.75,-125.45 717.45,-127.91 727.04,-132.41 727.75,-125.45"/>
</a>
</g>
</g>
<!-- Node8 -->
<g id="Node000008" class="node">
<title>Node8</title>
<g id="a_Node000008"><a xlink:href="class_acts_1_1_any_track_proxy.html" target="_top" xlink:title=" ">
<polygon fill="white" stroke="#666666" points="1005.5,-145.6 889.5,-145.6 889.5,-115.6 1005.5,-115.6 1005.5,-145.6"/>
<text text-anchor="start" x="897.5" y="-133.6" font-family="Helvetica,sans-Serif" font-size="10.00">Acts::AnyTrackProxy</text>
<text text-anchor="middle" x="947.5" y="-122.6" font-family="Helvetica,sans-Serif" font-size="10.00">&lt; true &gt;</text>
</a>
</g>
</g>
<!-- Node6&#45;&gt;Node8 -->
<g id="edge7_Node000006_Node000008" class="edge">
<title>Node6&#45;&gt;Node8</title>
<g id="a_edge7_Node000006_Node000008"><a xlink:title=" ">
<path fill="none" stroke="#63b8ff" d="M727.23,-125.47C778.26,-126.66 843.27,-128.19 889.22,-129.26"/>
<polygon fill="#63b8ff" stroke="#63b8ff" points="727.3,-121.97 717.22,-125.24 727.14,-128.97 727.3,-121.97"/>
</a>
</g>
</g>
<!-- Node11 -->
<g id="Node000011" class="node">
<title>Node11</title>
<g id="a_Node000011"><a xlink:href="class_acts_1_1_any_track_proxy.html" target="_top" xlink:title="Type&#45;erased track object This class provides a type&#45;erased interface to track proxies without requiri...">
<polygon fill="white" stroke="#666666" points="704.5,-224.6 588.5,-224.6 588.5,-194.6 704.5,-194.6 704.5,-224.6"/>
<text text-anchor="start" x="596.5" y="-212.6" font-family="Helvetica,sans-Serif" font-size="10.00">Acts::AnyTrackProxy</text>
<text text-anchor="middle" x="646.5" y="-201.6" font-family="Helvetica,sans-Serif" font-size="10.00">&lt; read_only &gt;</text>
</a>
</g>
</g>
<!-- Node10&#45;&gt;Node11 -->
<g id="edge10_Node000010_Node000011" class="edge">
<title>Node10&#45;&gt;Node11</title>
<g id="a_edge10_Node000010_Node000011"><a xlink:title=" ">
<path fill="none" stroke="#63b8ff" d="M523.9,-209.6C545.56,-209.6 568.45,-209.6 588.46,-209.6"/>
<polygon fill="#63b8ff" stroke="#63b8ff" points="523.71,-206.1 513.71,-209.6 523.71,-213.1 523.71,-206.1"/>
</a>
</g>
</g>
<!-- Node11&#45;&gt;Node7 -->
<g id="edge11_Node000011_Node000007" class="edge">
<title>Node11&#45;&gt;Node7</title>
<g id="a_edge11_Node000011_Node000007"><a xlink:title=" ">
<path fill="none" stroke="orange" stroke-dasharray="5,2" d="M715.03,-208.25C767.59,-207.19 839.7,-205.75 889.4,-204.75"/>
<polygon fill="orange" stroke="orange" points="714.72,-204.75 704.8,-208.45 714.86,-211.75 714.72,-204.75"/>
</a>
</g>
<text text-anchor="start" x="776" y="-213.1" font-family="Helvetica,sans-Serif" font-size="10.00" fill="grey">&lt; false &gt;</text>
</g>
<!-- Node11&#45;&gt;Node8 -->
<g id="edge12_Node000011_Node000008" class="edge">
<title>Node11&#45;&gt;Node8</title>
<g id="a_edge12_Node000011_Node000008"><a xlink:title=" ">
<path fill="none" stroke="orange" stroke-dasharray="5,2" d="M706.65,-191.65C716.11,-188.89 725.81,-186.12 735,-183.6 787.03,-169.36 846.67,-154.55 889.32,-144.22"/>
<polygon fill="orange" stroke="orange" points="705.51,-188.34 696.91,-194.52 707.49,-195.05 705.51,-188.34"/>
</a>
</g>
<text text-anchor="start" x="778" y="-189.1" font-family="Helvetica,sans-Serif" font-size="10.00" fill="grey">&lt; true &gt;</text>
</g>
<!-- Node13 -->
<g id="Node000013" class="node">
<title>Node13</title>
<g id="a_Node000013"><a xlink:href="class_acts_1_1_track_proxy.html" target="_top" xlink:title="Proxy class representing a single track.">
<polygon fill="white" stroke="#666666" points="715,-413.1 578,-413.1 578,-372.1 715,-372.1 715,-413.1"/>
<text text-anchor="start" x="586" y="-401.1" font-family="Helvetica,sans-Serif" font-size="10.00">Acts::TrackProxy&lt; track</text>
<text text-anchor="start" x="586" y="-390.1" font-family="Helvetica,sans-Serif" font-size="10.00">_container_t, trajectory</text>
<text text-anchor="middle" x="646.5" y="-379.1" font-family="Helvetica,sans-Serif" font-size="10.00">_t, holder_t, read_only &gt;</text>
</a>
</g>
</g>
<!-- Node12&#45;&gt;Node13 -->
<g id="edge14_Node000012_Node000013" class="edge">
<title>Node12&#45;&gt;Node13</title>
<g id="a_edge14_Node000012_Node000013"><a xlink:title=" ">
<path fill="none" stroke="#63b8ff" d="M534.75,-381.2C549.25,-382.69 563.98,-384.21 577.77,-385.63"/>
<polygon fill="#63b8ff" stroke="#63b8ff" points="535.07,-377.72 524.77,-380.17 534.36,-384.68 535.07,-377.72"/>
</a>
</g>
</g>
<!-- Node13&#45;&gt;Node2 -->
<g id="edge15_Node000013_Node000002" class="edge">
<title>Node13&#45;&gt;Node2</title>
<g id="a_edge15_Node000013_Node000002"><a xlink:title=" ">
<path fill="none" stroke="orange" stroke-dasharray="5,2" d="M666.32,-421.63C682.29,-444.34 707.02,-475.36 735,-495.6 760.17,-513.81 833.81,-541.97 887.13,-561.06"/>
<polygon fill="orange" stroke="orange" points="669.19,-419.63 660.64,-413.38 663.42,-423.6 669.19,-419.63"/>
</a>
</g>
<text text-anchor="start" x="738" y="-572.6" font-family="Helvetica,sans-Serif" font-size="10.00" fill="grey">&lt; track_container_t,</text>
<text text-anchor="start" x="738" y="-557.6" font-family="Helvetica,sans-Serif" font-size="10.00" fill="grey">   traj_t, holder_t, false &gt;</text>
</g>
<!-- Node13&#45;&gt;Node3 -->
<g id="edge16_Node000013_Node000003" class="edge">
<title>Node13&#45;&gt;Node3</title>
<g id="a_edge16_Node000013_Node000003"><a xlink:title=" ">
<path fill="none" stroke="orange" stroke-dasharray="5,2" d="M691.41,-418.17C705.04,-425.28 720.33,-432.45 735,-437.6 789.77,-456.84 806.25,-451.38 863,-463.6 868.81,-464.85 874.85,-466.18 880.9,-467.52"/>
<polygon fill="orange" stroke="orange" points="692.74,-414.91 682.28,-413.28 689.44,-421.08 692.74,-414.91"/>
</a>
</g>
<text text-anchor="start" x="740" y="-484.6" font-family="Helvetica,sans-Serif" font-size="10.00" fill="grey">&lt; track_container_t,</text>
<text text-anchor="start" x="740" y="-469.6" font-family="Helvetica,sans-Serif" font-size="10.00" fill="grey">   traj_t, holder_t, true &gt;</text>
</g>
<!-- Node13&#45;&gt;Node4 -->
<g id="edge17_Node000013_Node000004" class="edge">
<title>Node13&#45;&gt;Node4</title>
<g id="a_edge17_Node000013_Node000004"><a xlink:title=" ">
<path fill="none" stroke="orange" stroke-dasharray="5,2" d="M725.45,-387.91C773.78,-385 835.16,-381.31 880.98,-378.55"/>
<polygon fill="orange" stroke="orange" points="725.12,-384.42 715.35,-388.52 725.54,-391.41 725.12,-384.42"/>
</a>
</g>
<text text-anchor="start" x="748" y="-422.1" font-family="Helvetica,sans-Serif" font-size="10.00" fill="grey">&lt; track_container_t,</text>
<text text-anchor="start" x="748" y="-407.1" font-family="Helvetica,sans-Serif" font-size="10.00" fill="grey">   trajectory_t, holder</text>
<text text-anchor="start" x="748" y="-392.1" font-family="Helvetica,sans-Serif" font-size="10.00" fill="grey">  _t, false &gt;</text>
</g>
<!-- Node13&#45;&gt;Node5 -->
<g id="edge18_Node000013_Node000005" class="edge">
<title>Node13&#45;&gt;Node5</title>
<g id="a_edge18_Node000013_Node000005"><a xlink:title=" ">
<path fill="none" stroke="orange" stroke-dasharray="5,2" d="M677.3,-365.19C693.27,-352.03 713.96,-337.27 735,-328.6 781.53,-309.43 838.05,-301.59 880.96,-298.46"/>
<polygon fill="orange" stroke="orange" points="674.77,-362.75 669.4,-371.89 679.29,-368.09 674.77,-362.75"/>
</a>
</g>
<text text-anchor="start" x="748" y="-364.1" font-family="Helvetica,sans-Serif" font-size="10.00" fill="grey">&lt; track_container_t,</text>
<text text-anchor="start" x="748" y="-349.1" font-family="Helvetica,sans-Serif" font-size="10.00" fill="grey">   trajectory_t, holder</text>
<text text-anchor="start" x="748" y="-334.1" font-family="Helvetica,sans-Serif" font-size="10.00" fill="grey">  _t, true &gt;</text>
</g>
</g>
</svg>
