<?xml version="1.0" encoding="UTF-8" standalone="no"?>
<!DOCTYPE svg PUBLIC "-//W3C//DTD SVG 1.1//EN"
 "http://www.w3.org/Graphics/SVG/1.1/DTD/svg11.dtd">
<!-- Generated by graphviz version 2.43.0 (0)
 -->
<!-- Title: Acts::Experimental::GbtsEtaBin Pages: 1 -->
<!--zoomable 215 -->

<svg id="main" version="1.1" xmlns="http://www.w3.org/2000/svg" xmlns:xlink="http://www.w3.org/1999/xlink" xml:space="preserve" onload="init(evt)">

<style type="text/css"><![CDATA[
.node, .edge {opacity: 0.7;}
.node.selected, .edge.selected {opacity: 1;}
.edge:hover path { stroke: red; }
.edge:hover polygon { stroke: red; fill: red; }
]]></style>

<defs>
  <circle id="rim" cx="0" cy="0" r="7"/>
  <circle id="rim2" cx="0" cy="0" r="3.5"/>
  <g id="zoomPlus">
    <use xlink:href="#rim" fill="#404040"><set attributeName="fill" to="#808080" begin="zoomplus.mouseover" end="zoomplus.mouseout"/></use>
    <path d="M-4,0h8M0,-4v8" fill="none" stroke="white" stroke-width="1.5" pointer-events="none"/>
  </g>
  <g id="zoomMin">
    <use xlink:href="#rim" fill="#404040"><set attributeName="fill" to="#808080" begin="zoomminus.mouseover" end="zoomminus.mouseout"/></use>
    <path d="M-4,0h8" fill="none" stroke="white" stroke-width="1.5" pointer-events="none"/>
  </g>
  <g id="arrowUp" transform="translate(30 24)">
    <use xlink:href="#rim"/>
    <path pointer-events="none" fill="none" stroke="white" stroke-width="1.5" d="M0,-3.0v7 M-2.5,-0.5L0,-3.0L2.5,-0.5"/>
  </g>
  <g id="arrowRight" transform="rotate(90) translate(36 -43)">
    <use xlink:href="#rim"/>
    <path pointer-events="none" fill="none" stroke="white" stroke-width="1.5" d="M0,-3.0v7 M-2.5,-0.5L0,-3.0L2.5,-0.5"/>
  </g>
  <g id="arrowDown" transform="rotate(180) translate(-30 -48)">
    <use xlink:href="#rim"/>
    <path pointer-events="none" fill="none" stroke="white" stroke-width="1.5" d="M0,-3.0v7 M-2.5,-0.5L0,-3.0L2.5,-0.5"/>
  </g>
  <g id="arrowLeft" transform="rotate(270) translate(-36 17)">
    <use xlink:href="#rim"/>
    <path pointer-events="none" fill="none" stroke="white" stroke-width="1.5" d="M0,-3.0v7 M-2.5,-0.5L0,-3.0L2.5,-0.5"/>
  </g>
  <g id="resetDef">
    <use xlink:href="#rim2" fill="#404040"><set attributeName="fill" to="#808080" begin="reset.mouseover" end="reset.mouseout"/></use>
  </g>
</defs>
<script type="application/ecmascript">
var viewWidth = 636;
var viewHeight = 215;
var sectionId = 'dynsection-0';
</script>
<script type="application/ecmascript" xlink:href="svg.min.js"/>
<svg id="graph" class="graph">
<g id="viewport">
<title>Acts::Experimental::GbtsEtaBin</title>
<!-- Node1 -->
<g id="Node000001" class="node">
<title>Node1</title>
<g id="a_Node000001"><a xlink:title=" ">
<polygon fill="#999999" stroke="#666666" points="628,-107.57 519,-107.57 519,-77.57 628,-77.57 628,-107.57"/>
<text text-anchor="start" x="527" y="-95.57" font-family="Helvetica,sans-Serif" font-size="10.00">Acts::Experimental</text>
<text text-anchor="middle" x="573.5" y="-84.57" font-family="Helvetica,sans-Serif" font-size="10.00">::GbtsEtaBin</text>
</a>
</g>
</g>
<!-- Node2 -->
<g id="Node000002" class="node">
<title>Node2</title>
<g id="a_Node000002"><a xlink:title=" ">
<polygon fill="white" stroke="#666666" points="397,-195.07 285,-195.07 285,-154.07 397,-154.07 397,-195.07"/>
<text text-anchor="start" x="293" y="-183.07" font-family="Helvetica,sans-Serif" font-size="10.00">std::vector&lt; const</text>
<text text-anchor="start" x="293" y="-172.07" font-family="Helvetica,sans-Serif" font-size="10.00"> Acts::Experimental</text>
<text text-anchor="middle" x="341" y="-161.07" font-family="Helvetica,sans-Serif" font-size="10.00">::GbtsNode * &gt;</text>
</a>
</g>
</g>
<!-- Node2&#45;&gt;Node1 -->
<g id="edge1_Node000001_Node000002" class="edge">
<title>Node2&#45;&gt;Node1</title>
<g id="a_edge1_Node000001_Node000002"><a xlink:title=" ">
<path fill="none" stroke="#9a32cd" stroke-dasharray="5,2" d="M407.42,-159.24C436.52,-151.61 470.93,-141.46 501,-129.57 516.6,-123.4 533.28,-114.89 546.61,-107.58"/>
<polygon fill="#9a32cd" stroke="#9a32cd" points="406.17,-155.94 397.36,-161.83 407.92,-162.72 406.17,-155.94"/>
</a>
</g>
<text text-anchor="start" x="450.5" y="-159.07" font-family="Helvetica,sans-Serif" font-size="10.00" fill="grey">m_vn</text>
</g>
<!-- Node3 -->
<g id="Node000003" class="node">
<title>Node3</title>
<g id="a_Node000003"><a xlink:title=" ">
<polygon fill="white" stroke="#666666" points="97,-103.07 0,-103.07 0,-84.07 97,-84.07 97,-103.07"/>
<text text-anchor="middle" x="48.5" y="-91.07" font-family="Helvetica,sans-Serif" font-size="10.00">std::vector&lt; T &gt;</text>
</a>
</g>
</g>
<!-- Node3&#45;&gt;Node2 -->
<g id="edge2_Node000002_Node000003" class="edge">
<title>Node3&#45;&gt;Node2</title>
<g id="a_edge2_Node000002_Node000003"><a xlink:title=" ">
<path fill="none" stroke="orange" stroke-dasharray="5,2" d="M65.34,-110.72C77.64,-122.87 95.79,-138.4 115,-146.57 169.52,-169.75 237.7,-175.36 284.63,-176.04"/>
<polygon fill="orange" stroke="orange" points="67.63,-108.06 58.15,-103.34 62.62,-112.94 67.63,-108.06"/>
</a>
</g>
<text text-anchor="start" x="118.5" y="-195.57" font-family="Helvetica,sans-Serif" font-size="10.00" fill="grey">&lt; const Acts::Experimental</text>
<text text-anchor="start" x="118.5" y="-180.57" font-family="Helvetica,sans-Serif" font-size="10.00" fill="grey">  ::GbtsNode * &gt;</text>
</g>
<!-- Node4 -->
<g id="Node000004" class="node">
<title>Node4</title>
<g id="a_Node000004"><a xlink:title=" ">
<polygon fill="white" stroke="#666666" points="410,-133.57 272,-133.57 272,-103.57 410,-103.57 410,-133.57"/>
<text text-anchor="start" x="280" y="-121.57" font-family="Helvetica,sans-Serif" font-size="10.00">std::vector&lt; std::pair</text>
<text text-anchor="middle" x="341" y="-110.57" font-family="Helvetica,sans-Serif" font-size="10.00">&lt; float, unsigned int &gt; &gt;</text>
</a>
</g>
</g>
<!-- Node3&#45;&gt;Node4 -->
<g id="edge4_Node000004_Node000003" class="edge">
<title>Node3&#45;&gt;Node4</title>
<g id="a_edge4_Node000004_Node000003"><a xlink:title=" ">
<path fill="none" stroke="orange" stroke-dasharray="5,2" d="M107.25,-98.88C109.87,-99.12 112.46,-99.35 115,-99.57 167.52,-104.19 226.96,-109.2 271.56,-112.92"/>
<polygon fill="orange" stroke="orange" points="107.35,-95.38 97.08,-97.97 106.72,-102.35 107.35,-95.38"/>
</a>
</g>
<text text-anchor="start" x="138.5" y="-131.57" font-family="Helvetica,sans-Serif" font-size="10.00" fill="grey">&lt; std::pair&lt; float,</text>
<text text-anchor="start" x="138.5" y="-116.57" font-family="Helvetica,sans-Serif" font-size="10.00" fill="grey">   unsigned int &gt; &gt;</text>
</g>
<!-- Node5 -->
<g id="Node000005" class="node">
<title>Node5</title>
<g id="a_Node000005"><a xlink:title=" ">
<polygon fill="white" stroke="#666666" points="406.5,-82.57 275.5,-82.57 275.5,-52.57 406.5,-52.57 406.5,-82.57"/>
<text text-anchor="start" x="283.5" y="-70.57" font-family="Helvetica,sans-Serif" font-size="10.00">std::vector&lt; std::vector</text>
<text text-anchor="middle" x="341" y="-59.57" font-family="Helvetica,sans-Serif" font-size="10.00">&lt; unsigned int &gt; &gt;</text>
</a>
</g>
</g>
<!-- Node3&#45;&gt;Node5 -->
<g id="edge6_Node000005_Node000003" class="edge">
<title>Node3&#45;&gt;Node5</title>
<g id="a_edge6_Node000005_Node000003"><a xlink:title=" ">
<path fill="none" stroke="orange" stroke-dasharray="5,2" d="M74.13,-79.24C86.05,-73.11 100.83,-66.66 115,-63.57 168.06,-52 229.83,-54.17 275.21,-58.58"/>
<polygon fill="orange" stroke="orange" points="72.39,-76.2 65.24,-84.02 75.71,-82.36 72.39,-76.2"/>
</a>
</g>
<text text-anchor="start" x="125.5" y="-84.57" font-family="Helvetica,sans-Serif" font-size="10.00" fill="grey">&lt; std::vector&lt; unsigned</text>
<text text-anchor="start" x="125.5" y="-69.57" font-family="Helvetica,sans-Serif" font-size="10.00" fill="grey">   int &gt; &gt;</text>
</g>
<!-- Node6 -->
<g id="Node000006" class="node">
<title>Node6</title>
<g id="a_Node000006"><a xlink:title=" ">
<polygon fill="white" stroke="#666666" points="404,-31.57 278,-31.57 278,-1.57 404,-1.57 404,-31.57"/>
<text text-anchor="start" x="286" y="-19.57" font-family="Helvetica,sans-Serif" font-size="10.00">std::vector&lt; std::array</text>
<text text-anchor="middle" x="341" y="-8.57" font-family="Helvetica,sans-Serif" font-size="10.00">&lt; float, 5 &gt; &gt;</text>
</a>
</g>
</g>
<!-- Node3&#45;&gt;Node6 -->
<g id="edge8_Node000006_Node000003" class="edge">
<title>Node3&#45;&gt;Node6</title>
<g id="a_edge8_Node000006_Node000003"><a xlink:title=" ">
<path fill="none" stroke="orange" stroke-dasharray="5,2" d="M59.63,-75.09C70.62,-57.16 90,-31.03 115,-19.57 166.14,3.87 230.94,1.89 277.85,-4.33"/>
<polygon fill="orange" stroke="orange" points="56.42,-73.66 54.41,-84.06 62.46,-77.18 56.42,-73.66"/>
</a>
</g>
<text text-anchor="start" x="137.5" y="-40.57" font-family="Helvetica,sans-Serif" font-size="10.00" fill="grey">&lt; std::array&lt; float,</text>
<text text-anchor="start" x="137.5" y="-25.57" font-family="Helvetica,sans-Serif" font-size="10.00" fill="grey">   5 &gt; &gt;</text>
</g>
<!-- Node4&#45;&gt;Node1 -->
<g id="edge3_Node000001_Node000004" class="edge">
<title>Node4&#45;&gt;Node1</title>
<g id="a_edge3_Node000001_Node000004"><a xlink:title=" ">
<path fill="none" stroke="#9a32cd" stroke-dasharray="5,2" d="M420.55,-109.71C452.89,-106.06 489.52,-101.93 518.72,-98.64"/>
<polygon fill="#9a32cd" stroke="#9a32cd" points="419.77,-106.28 410.22,-110.88 420.55,-113.23 419.77,-106.28"/>
</a>
</g>
<text text-anchor="start" x="431.5" y="-114.07" font-family="Helvetica,sans-Serif" font-size="10.00" fill="grey">m_vPhiNodes</text>
</g>
<!-- Node5&#45;&gt;Node1 -->
<g id="edge5_Node000001_Node000005" class="edge">
<title>Node5&#45;&gt;Node1</title>
<g id="a_edge5_Node000001_Node000005"><a xlink:title=" ">
<path fill="none" stroke="#9a32cd" stroke-dasharray="5,2" d="M416.86,-69.29C443.51,-70.56 473.68,-72.77 501,-76.57 506.8,-77.38 512.82,-78.41 518.8,-79.56"/>
<polygon fill="#9a32cd" stroke="#9a32cd" points="416.98,-65.79 406.83,-68.84 416.66,-72.78 416.98,-65.79"/>
</a>
</g>
<text text-anchor="start" x="452.5" y="-82.07" font-family="Helvetica,sans-Serif" font-size="10.00" fill="grey">m_in</text>
</g>
<!-- Node6&#45;&gt;Node1 -->
<g id="edge7_Node000001_Node000006" class="edge">
<title>Node6&#45;&gt;Node1</title>
<g id="a_edge7_Node000001_Node000006"><a xlink:title=" ">
<path fill="none" stroke="#9a32cd" stroke-dasharray="5,2" d="M414.26,-25.58C442.01,-30.46 473.58,-37.77 501,-48.57 519.44,-55.83 538.47,-67.8 552.26,-77.42"/>
<polygon fill="#9a32cd" stroke="#9a32cd" points="414.67,-22.1 404.23,-23.89 413.51,-29 414.67,-22.1"/>
</a>
</g>
<text text-anchor="start" x="438.5" y="-54.07" font-family="Helvetica,sans-Serif" font-size="10.00" fill="grey">m_params</text>
</g>
</g>
</svg>

<g id="navigator" transform="translate(0 0)" fill="#404254">
  <rect fill="#f2f5e9" fill-opacity="0.5" stroke="#606060" stroke-width=".5" x="0" y="0" width="60" height="60"/>
  <use id="zoomplus" xlink:href="#zoomPlus" x="17" y="9" onmousedown="handleZoom(evt,'in')"/>
  <use id="zoomminus" xlink:href="#zoomMin" x="42" y="9" onmousedown="handleZoom(evt,'out')"/>
  <use id="reset" xlink:href="#resetDef" x="30" y="36" onmousedown="handleReset()"/>
   <use id="arrowup" xlink:href="#arrowUp" x="0" y="0" onmousedown="handlePan(0,-1)"/>
  <use id="arrowright" xlink:href="#arrowRight" x="0" y="0" onmousedown="handlePan(1,0)"/>
  <use id="arrowdown" xlink:href="#arrowDown" x="0" y="0" onmousedown="handlePan(0,1)"/>
  <use id="arrowleft" xlink:href="#arrowLeft" x="0" y="0" onmousedown="handlePan(-1,0)"/>
</g>
<svg viewBox="0 0 15 15" width="100%" height="30px" preserveAspectRatio="xMaxYMin meet">
 <g id="arrow_out" transform="scale(0.3 0.3)">
  <a xlink:href="class_acts_1_1_experimental_1_1_gbts_eta_bin__coll__graph_org.svg" target="_base">
   <rect id="button" ry="5" rx="5" y="6" x="6" height="38" width="38"
        fill="#f2f5e9" fill-opacity="0.5" stroke="#606060" stroke-width="1.0"/>
   <path id="arrow"
     d="M 11.500037,31.436501 C 11.940474,20.09759 22.043105,11.32322 32.158766,21.979434 L 37.068811,17.246167 C 37.068811,17.246167 37.088388,32 37.088388,32 L 22.160133,31.978069 C 22.160133,31.978069 26.997745,27.140456 26.997745,27.140456 C 18.528582,18.264221 13.291696,25.230495 11.500037,31.436501 z"
     style="fill:#404040;"/>
  </a>
 </g>
</svg>

<style type='text/css'>
<![CDATA[
[data-mouse-over-selected='false'] { opacity: 0.7; }
[data-mouse-over-selected='true']  { opacity: 1.0; }
]]>
</style>
<script type="application/ecmascript"><![CDATA[
document.addEventListener('DOMContentLoaded', (event) => {
  highlightEdges();
  highlightAdjacentNodes();
});
]]></script>
</svg>
