<?xml version="1.0" encoding="UTF-8" standalone="no"?>
<!DOCTYPE svg PUBLIC "-//W3C//DTD SVG 1.1//EN"
 "http://www.w3.org/Graphics/SVG/1.1/DTD/svg11.dtd">
<!-- Generated by graphviz version 2.43.0 (0)
 -->
<!-- Title: Acts::AnyTrackStateProxy&lt; read_only &gt; Pages: 1 -->
<svg width="308pt" height="297pt"
 viewBox="0.00 0.00 308.00 297.00" xmlns="http://www.w3.org/2000/svg" xmlns:xlink="http://www.w3.org/1999/xlink">
<g id="graph0" class="graph" transform="scale(1 1) rotate(0) translate(4 293)">
<title>Acts::AnyTrackStateProxy&lt; read_only &gt;</title>
<!-- Node1 -->
<g id="Node000001" class="node">
<title>Node1</title>
<g id="a_Node000001"><a xlink:title=" ">
<polygon fill="#999999" stroke="#666666" points="220,-113 79,-113 79,-83 220,-83 220,-113"/>
<text text-anchor="start" x="87" y="-101" font-family="Helvetica,sans-Serif" font-size="10.00">Acts::AnyTrackStateProxy</text>
<text text-anchor="middle" x="149.5" y="-90" font-family="Helvetica,sans-Serif" font-size="10.00">&lt; read_only &gt;</text>
</a>
</g>
</g>
<!-- Node4 -->
<g id="Node000004" class="node">
<title>Node4</title>
<g id="a_Node000004"><a xlink:href="class_acts_1_1_any_track_state_proxy.html" target="_top" xlink:title=" ">
<polygon fill="white" stroke="#666666" points="141,-30 0,-30 0,0 141,0 141,-30"/>
<text text-anchor="start" x="8" y="-18" font-family="Helvetica,sans-Serif" font-size="10.00">Acts::AnyTrackStateProxy</text>
<text text-anchor="middle" x="70.5" y="-7" font-family="Helvetica,sans-Serif" font-size="10.00">&lt; false &gt;</text>
</a>
</g>
</g>
<!-- Node1&#45;&gt;Node4 -->
<g id="edge3_Node000001_Node000004" class="edge">
<title>Node1&#45;&gt;Node4</title>
<g id="a_edge3_Node000001_Node000004"><a xlink:title=" ">
<path fill="none" stroke="orange" stroke-dasharray="5,2" d="M128.45,-75.42C114.49,-61.1 96.56,-42.72 84.37,-30.22"/>
<polygon fill="orange" stroke="orange" points="126.25,-78.18 135.74,-82.89 131.26,-73.29 126.25,-78.18"/>
</a>
</g>
<text text-anchor="start" x="121" y="-53.5" font-family="Helvetica,sans-Serif" font-size="10.00" fill="grey">&lt; false &gt;</text>
</g>
<!-- Node5 -->
<g id="Node000005" class="node">
<title>Node5</title>
<g id="a_Node000005"><a xlink:href="class_acts_1_1_any_track_state_proxy.html" target="_top" xlink:title=" ">
<polygon fill="white" stroke="#666666" points="300,-30 159,-30 159,0 300,0 300,-30"/>
<text text-anchor="start" x="167" y="-18" font-family="Helvetica,sans-Serif" font-size="10.00">Acts::AnyTrackStateProxy</text>
<text text-anchor="middle" x="229.5" y="-7" font-family="Helvetica,sans-Serif" font-size="10.00">&lt; true &gt;</text>
</a>
</g>
</g>
<!-- Node1&#45;&gt;Node5 -->
<g id="edge4_Node000001_Node000005" class="edge">
<title>Node1&#45;&gt;Node5</title>
<g id="a_edge4_Node000001_Node000005"><a xlink:title=" ">
<path fill="none" stroke="orange" stroke-dasharray="5,2" d="M170.81,-75.42C184.95,-61.1 203.11,-42.72 215.46,-30.22"/>
<polygon fill="orange" stroke="orange" points="167.97,-73.32 163.43,-82.89 172.95,-78.24 167.97,-73.32"/>
</a>
</g>
<text text-anchor="start" x="200" y="-53.5" font-family="Helvetica,sans-Serif" font-size="10.00" fill="grey">&lt; true &gt;</text>
</g>
<!-- Node2 -->
<g id="Node000002" class="node">
<title>Node2</title>
<g id="a_Node000002"><a xlink:href="class_acts_1_1_track_state_proxy_common.html" target="_top" xlink:title=" ">
<polygon fill="white" stroke="#666666" points="233,-191 66,-191 66,-150 233,-150 233,-191"/>
<text text-anchor="start" x="74" y="-179" font-family="Helvetica,sans-Serif" font-size="10.00">Acts::TrackStateProxyCommon</text>
<text text-anchor="start" x="74" y="-168" font-family="Helvetica,sans-Serif" font-size="10.00">&lt; AnyTrackStateProxy&lt; read</text>
<text text-anchor="middle" x="149.5" y="-157" font-family="Helvetica,sans-Serif" font-size="10.00">_only &gt;, read_only &gt;</text>
</a>
</g>
</g>
<!-- Node2&#45;&gt;Node1 -->
<g id="edge1_Node000001_Node000002" class="edge">
<title>Node2&#45;&gt;Node1</title>
<g id="a_edge1_Node000001_Node000002"><a xlink:title=" ">
<path fill="none" stroke="#63b8ff" d="M149.5,-139.58C149.5,-130.51 149.5,-120.95 149.5,-113.39"/>
<polygon fill="#63b8ff" stroke="#63b8ff" points="146,-139.86 149.5,-149.86 153,-139.86 146,-139.86"/>
</a>
</g>
</g>
<!-- Node3 -->
<g id="Node000003" class="node">
<title>Node3</title>
<g id="a_Node000003"><a xlink:href="class_acts_1_1_track_state_proxy_common.html" target="_top" xlink:title="Common CRTP implementation shared by track state proxy front&#45;ends.">
<polygon fill="white" stroke="#666666" points="233,-289 66,-289 66,-259 233,-259 233,-289"/>
<text text-anchor="start" x="74" y="-277" font-family="Helvetica,sans-Serif" font-size="10.00">Acts::TrackStateProxyCommon</text>
<text text-anchor="middle" x="149.5" y="-266" font-family="Helvetica,sans-Serif" font-size="10.00">&lt; Derived, read_only &gt;</text>
</a>
</g>
</g>
<!-- Node3&#45;&gt;Node2 -->
<g id="edge2_Node000002_Node000003" class="edge">
<title>Node3&#45;&gt;Node2</title>
<g id="a_edge2_Node000002_Node000003"><a xlink:title=" ">
<path fill="none" stroke="orange" stroke-dasharray="5,2" d="M149.5,-248.78C149.5,-231.13 149.5,-207.52 149.5,-191.06"/>
<polygon fill="orange" stroke="orange" points="146,-248.89 149.5,-258.89 153,-248.89 146,-248.89"/>
</a>
</g>
<text text-anchor="start" x="152.5" y="-230" font-family="Helvetica,sans-Serif" font-size="10.00" fill="grey">&lt; AnyTrackStateProxy</text>
<text text-anchor="start" x="152.5" y="-215" font-family="Helvetica,sans-Serif" font-size="10.00" fill="grey">  &lt; read_only &gt;, read_only &gt;</text>
</g>
</g>
</svg>
