<?xml version="1.0" encoding="UTF-8" standalone="no"?>
<!DOCTYPE svg PUBLIC "-//W3C//DTD SVG 1.1//EN"
 "http://www.w3.org/Graphics/SVG/1.1/DTD/svg11.dtd">
<!-- Generated by graphviz version 2.43.0 (0)
 -->
<!-- Title: Acts::Axis&lt; type, bdt &gt; Pages: 1 -->
<!--zoomable 415 -->

<svg id="main" version="1.1" xmlns="http://www.w3.org/2000/svg" xmlns:xlink="http://www.w3.org/1999/xlink" xml:space="preserve" onload="init(evt)">

<style type="text/css"><![CDATA[
.node, .edge {opacity: 0.7;}
.node.selected, .edge.selected {opacity: 1;}
.edge:hover path { stroke: red; }
.edge:hover polygon { stroke: red; fill: red; }
]]></style>

<defs>
  <circle id="rim" cx="0" cy="0" r="7"/>
  <circle id="rim2" cx="0" cy="0" r="3.5"/>
  <g id="zoomPlus">
    <use xlink:href="#rim" fill="#404040"><set attributeName="fill" to="#808080" begin="zoomplus.mouseover" end="zoomplus.mouseout"/></use>
    <path d="M-4,0h8M0,-4v8" fill="none" stroke="white" stroke-width="1.5" pointer-events="none"/>
  </g>
  <g id="zoomMin">
    <use xlink:href="#rim" fill="#404040"><set attributeName="fill" to="#808080" begin="zoomminus.mouseover" end="zoomminus.mouseout"/></use>
    <path d="M-4,0h8" fill="none" stroke="white" stroke-width="1.5" pointer-events="none"/>
  </g>
  <g id="arrowUp" transform="translate(30 24)">
    <use xlink:href="#rim"/>
    <path pointer-events="none" fill="none" stroke="white" stroke-width="1.5" d="M0,-3.0v7 M-2.5,-0.5L0,-3.0L2.5,-0.5"/>
  </g>
  <g id="arrowRight" transform="rotate(90) translate(36 -43)">
    <use xlink:href="#rim"/>
    <path pointer-events="none" fill="none" stroke="white" stroke-width="1.5" d="M0,-3.0v7 M-2.5,-0.5L0,-3.0L2.5,-0.5"/>
  </g>
  <g id="arrowDown" transform="rotate(180) translate(-30 -48)">
    <use xlink:href="#rim"/>
    <path pointer-events="none" fill="none" stroke="white" stroke-width="1.5" d="M0,-3.0v7 M-2.5,-0.5L0,-3.0L2.5,-0.5"/>
  </g>
  <g id="arrowLeft" transform="rotate(270) translate(-36 17)">
    <use xlink:href="#rim"/>
    <path pointer-events="none" fill="none" stroke="white" stroke-width="1.5" d="M0,-3.0v7 M-2.5,-0.5L0,-3.0L2.5,-0.5"/>
  </g>
  <g id="resetDef">
    <use xlink:href="#rim2" fill="#404040"><set attributeName="fill" to="#808080" begin="reset.mouseover" end="reset.mouseout"/></use>
  </g>
</defs>
<script type="application/ecmascript">
var viewWidth = 509;
var viewHeight = 415;
var sectionId = 'dynsection-0';
</script>
<script type="application/ecmascript" xlink:href="svg.min.js"/>
<svg id="graph" class="graph">
<g id="viewport">
<title>Acts::Axis&lt; type, bdt &gt;</title>
<!-- Node1 -->
<g id="Node000001" class="node">
<title>Node1</title>
<g id="a_Node000001"><a xlink:title="calculate bin indices from a given binning structure">
<polygon fill="#999999" stroke="#666666" points="131,-199.16 0,-199.16 0,-180.16 131,-180.16 131,-199.16"/>
<text text-anchor="middle" x="65.5" y="-187.16" font-family="Helvetica,sans-Serif" font-size="10.00">Acts::Axis&lt; type, bdt &gt;</text>
</a>
</g>
</g>
<!-- Node2 -->
<g id="Node000002" class="node">
<title>Node2</title>
<g id="a_Node000002"><a xlink:href="class_acts_1_1_axis.html" target="_top" xlink:title=" ">
<polygon fill="white" stroke="#666666" points="471.5,-390.66 352.5,-390.66 352.5,-360.66 471.5,-360.66 471.5,-390.66"/>
<text text-anchor="start" x="360.5" y="-378.66" font-family="Helvetica,sans-Serif" font-size="10.00">Acts::Axis&lt; AxisType</text>
<text text-anchor="middle" x="412" y="-367.66" font-family="Helvetica,sans-Serif" font-size="10.00">::Equidistant &gt;</text>
</a>
</g>
</g>
<!-- Node1&#45;&gt;Node2 -->
<g id="edge1_Node000001_Node000002" class="edge">
<title>Node1&#45;&gt;Node2</title>
<g id="a_edge1_Node000001_Node000002"><a xlink:title=" ">
<path fill="none" stroke="orange" stroke-dasharray="5,2" d="M69.97,-209.26C77.4,-244.83 98.48,-319.53 149,-353.66 209.04,-394.24 295.37,-392.95 352.29,-386.12"/>
<polygon fill="orange" stroke="orange" points="73.35,-208.33 68.01,-199.18 66.48,-209.66 73.35,-208.33"/>
</a>
</g>
<text text-anchor="start" x="164" y="-395.16" font-family="Helvetica,sans-Serif" font-size="10.00" fill="grey">&lt; AxisType::Equidistant &gt;</text>
</g>
<!-- Node3 -->
<g id="Node000003" class="node">
<title>Node3</title>
<g id="a_Node000003"><a xlink:href="class_acts_1_1_axis.html" target="_top" xlink:title=" ">
<polygon fill="white" stroke="#666666" points="501,-328.16 323,-328.16 323,-287.16 501,-287.16 501,-328.16"/>
<text text-anchor="start" x="331" y="-316.16" font-family="Helvetica,sans-Serif" font-size="10.00">Acts::Axis&lt; Acts::AxisType</text>
<text text-anchor="start" x="331" y="-305.16" font-family="Helvetica,sans-Serif" font-size="10.00">::Equidistant, Acts::AxisBoundary</text>
<text text-anchor="middle" x="412" y="-294.16" font-family="Helvetica,sans-Serif" font-size="10.00">Type::Bound &gt;</text>
</a>
</g>
</g>
<!-- Node1&#45;&gt;Node3 -->
<g id="edge2_Node000001_Node000003" class="edge">
<title>Node1&#45;&gt;Node3</title>
<g id="a_edge2_Node000001_Node000003"><a xlink:title=" ">
<path fill="none" stroke="orange" stroke-dasharray="5,2" d="M76.93,-208.19C90.42,-230.18 116.15,-265.97 149,-282.66 178.58,-297.7 258.94,-303.72 322.93,-306.12"/>
<polygon fill="orange" stroke="orange" points="79.86,-206.27 71.76,-199.44 73.83,-209.83 79.86,-206.27"/>
</a>
</g>
<text text-anchor="start" x="154" y="-340.16" font-family="Helvetica,sans-Serif" font-size="10.00" fill="grey">&lt; Acts::AxisType::Equidistant,</text>
<text text-anchor="start" x="154" y="-325.16" font-family="Helvetica,sans-Serif" font-size="10.00" fill="grey">   Acts::AxisBoundaryType::</text>
<text text-anchor="start" x="154" y="-310.16" font-family="Helvetica,sans-Serif" font-size="10.00" fill="grey">  Bound &gt;</text>
</g>
<!-- Node4 -->
<g id="Node000004" class="node">
<title>Node4</title>
<g id="a_Node000004"><a xlink:href="class_acts_1_1_axis.html" target="_top" xlink:title=" ">
<polygon fill="white" stroke="#666666" points="487.5,-269.16 336.5,-269.16 336.5,-228.16 487.5,-228.16 487.5,-269.16"/>
<text text-anchor="start" x="344.5" y="-257.16" font-family="Helvetica,sans-Serif" font-size="10.00">Acts::Axis&lt; AxisType</text>
<text text-anchor="start" x="344.5" y="-246.16" font-family="Helvetica,sans-Serif" font-size="10.00">::Equidistant, AxisBoundary</text>
<text text-anchor="middle" x="412" y="-235.16" font-family="Helvetica,sans-Serif" font-size="10.00">Type::Closed &gt;</text>
</a>
</g>
</g>
<!-- Node1&#45;&gt;Node4 -->
<g id="edge3_Node000001_Node000004" class="edge">
<title>Node1&#45;&gt;Node4</title>
<g id="a_edge3_Node000001_Node000004"><a xlink:title=" ">
<path fill="none" stroke="orange" stroke-dasharray="5,2" d="M93.08,-203.89C108.88,-211.67 129.56,-220.71 149,-225.66 210.84,-241.42 283.24,-246.83 336.24,-248.49"/>
<polygon fill="orange" stroke="orange" points="94.43,-200.66 83.93,-199.26 91.27,-206.9 94.43,-200.66"/>
</a>
</g>
<text text-anchor="start" x="152" y="-267.66" font-family="Helvetica,sans-Serif" font-size="10.00" fill="grey">&lt; AxisType::Equidistant,</text>
<text text-anchor="start" x="152" y="-252.66" font-family="Helvetica,sans-Serif" font-size="10.00" fill="grey">   AxisBoundaryType::Closed &gt;</text>
</g>
<!-- Node5 -->
<g id="Node000005" class="node">
<title>Node5</title>
<g id="a_Node000005"><a xlink:href="class_acts_1_1_axis.html" target="_top" xlink:title=" ">
<polygon fill="white" stroke="#666666" points="491,-210.16 333,-210.16 333,-169.16 491,-169.16 491,-210.16"/>
<text text-anchor="start" x="341" y="-198.16" font-family="Helvetica,sans-Serif" font-size="10.00">Acts::Axis&lt; AxisType</text>
<text text-anchor="start" x="341" y="-187.16" font-family="Helvetica,sans-Serif" font-size="10.00">::Variable, AxisBoundaryType</text>
<text text-anchor="middle" x="412" y="-176.16" font-family="Helvetica,sans-Serif" font-size="10.00">::Open &gt;</text>
</a>
</g>
</g>
<!-- Node1&#45;&gt;Node5 -->
<g id="edge4_Node000001_Node000005" class="edge">
<title>Node1&#45;&gt;Node5</title>
<g id="a_edge4_Node000001_Node000005"><a xlink:title=" ">
<path fill="none" stroke="orange" stroke-dasharray="5,2" d="M141.61,-189.66C198.21,-189.66 275.6,-189.66 332.91,-189.66"/>
<polygon fill="orange" stroke="orange" points="141.3,-186.16 131.3,-189.66 141.3,-193.16 141.3,-186.16"/>
</a>
</g>
<text text-anchor="start" x="156" y="-210.66" font-family="Helvetica,sans-Serif" font-size="10.00" fill="grey">&lt; AxisType::Variable,</text>
<text text-anchor="start" x="156" y="-195.66" font-family="Helvetica,sans-Serif" font-size="10.00" fill="grey">   AxisBoundaryType::Open &gt;</text>
</g>
<!-- Node6 -->
<g id="Node000006" class="node">
<title>Node6</title>
<g id="a_Node000006"><a xlink:href="class_acts_1_1_axis.html" target="_top" xlink:title=" ">
<polygon fill="white" stroke="#666666" points="487.5,-151.16 336.5,-151.16 336.5,-110.16 487.5,-110.16 487.5,-151.16"/>
<text text-anchor="start" x="344.5" y="-139.16" font-family="Helvetica,sans-Serif" font-size="10.00">Acts::Axis&lt; AxisType</text>
<text text-anchor="start" x="344.5" y="-128.16" font-family="Helvetica,sans-Serif" font-size="10.00">::Equidistant, AxisBoundary</text>
<text text-anchor="middle" x="412" y="-117.16" font-family="Helvetica,sans-Serif" font-size="10.00">Type::Open &gt;</text>
</a>
</g>
</g>
<!-- Node1&#45;&gt;Node6 -->
<g id="edge5_Node000001_Node000006" class="edge">
<title>Node1&#45;&gt;Node6</title>
<g id="a_edge5_Node000001_Node000006"><a xlink:title=" ">
<path fill="none" stroke="orange" stroke-dasharray="5,2" d="M93.08,-175.43C108.88,-167.65 129.56,-158.62 149,-153.66 210.84,-137.91 283.24,-132.5 336.24,-130.84"/>
<polygon fill="orange" stroke="orange" points="91.27,-172.43 83.93,-180.07 94.43,-178.67 91.27,-172.43"/>
</a>
</g>
<text text-anchor="start" x="156" y="-174.66" font-family="Helvetica,sans-Serif" font-size="10.00" fill="grey">&lt; AxisType::Equidistant,</text>
<text text-anchor="start" x="156" y="-159.66" font-family="Helvetica,sans-Serif" font-size="10.00" fill="grey">   AxisBoundaryType::Open &gt;</text>
</g>
<!-- Node7 -->
<g id="Node000007" class="node">
<title>Node7</title>
<g id="a_Node000007"><a xlink:href="class_acts_1_1_axis_3_01_axis_type_1_1_equidistant_00_01bdt_01_4.html" target="_top" xlink:title="calculate bin indices for an equidistant binning">
<polygon fill="white" stroke="#666666" points="471.5,-91.66 352.5,-91.66 352.5,-61.66 471.5,-61.66 471.5,-91.66"/>
<text text-anchor="start" x="360.5" y="-79.66" font-family="Helvetica,sans-Serif" font-size="10.00">Acts::Axis&lt; AxisType</text>
<text text-anchor="middle" x="412" y="-68.66" font-family="Helvetica,sans-Serif" font-size="10.00">::Equidistant, bdt &gt;</text>
</a>
</g>
</g>
<!-- Node1&#45;&gt;Node7 -->
<g id="edge6_Node000001_Node000007" class="edge">
<title>Node1&#45;&gt;Node7</title>
<g id="a_edge6_Node000001_Node000007"><a xlink:title=" ">
<path fill="none" stroke="orange" stroke-dasharray="5,2" d="M76.61,-171.16C89.93,-148.84 115.64,-112.25 149,-95.66 213.01,-63.84 296.86,-63.86 352.26,-68.67"/>
<polygon fill="orange" stroke="orange" points="73.47,-169.61 71.52,-180.02 79.54,-173.09 73.47,-169.61"/>
</a>
</g>
<text text-anchor="start" x="168" y="-116.66" font-family="Helvetica,sans-Serif" font-size="10.00" fill="grey">&lt; AxisType::Equidistant,</text>
<text text-anchor="start" x="168" y="-101.66" font-family="Helvetica,sans-Serif" font-size="10.00" fill="grey">   bdt &gt;</text>
</g>
<!-- Node8 -->
<g id="Node000008" class="node">
<title>Node8</title>
<g id="a_Node000008"><a xlink:href="class_acts_1_1_axis_3_01_axis_type_1_1_variable_00_01bdt_01_4.html" target="_top" xlink:title="calculate bin indices for a variable binning">
<polygon fill="white" stroke="#666666" points="471.5,-36.66 352.5,-36.66 352.5,-6.66 471.5,-6.66 471.5,-36.66"/>
<text text-anchor="start" x="360.5" y="-24.66" font-family="Helvetica,sans-Serif" font-size="10.00">Acts::Axis&lt; AxisType</text>
<text text-anchor="middle" x="412" y="-13.66" font-family="Helvetica,sans-Serif" font-size="10.00">::Variable, bdt &gt;</text>
</a>
</g>
</g>
<!-- Node1&#45;&gt;Node8 -->
<g id="edge7_Node000001_Node000008" class="edge">
<title>Node1&#45;&gt;Node8</title>
<g id="a_edge7_Node000001_Node000008"><a xlink:title=" ">
<path fill="none" stroke="orange" stroke-dasharray="5,2" d="M70.11,-169.92C77.71,-134.82 98.94,-62.28 149,-30.66 209.99,7.85 295.89,2.13 352.48,-7.83"/>
<polygon fill="orange" stroke="orange" points="66.65,-169.41 68.11,-179.9 73.51,-170.79 66.65,-169.41"/>
</a>
</g>
<text text-anchor="start" x="175" y="-51.66" font-family="Helvetica,sans-Serif" font-size="10.00" fill="grey">&lt; AxisType::Variable,</text>
<text text-anchor="start" x="175" y="-36.66" font-family="Helvetica,sans-Serif" font-size="10.00" fill="grey">   bdt &gt;</text>
</g>
</g>
</svg>

<g id="navigator" transform="translate(0 0)" fill="#404254">
  <rect fill="#f2f5e9" fill-opacity="0.5" stroke="#606060" stroke-width=".5" x="0" y="0" width="60" height="60"/>
  <use id="zoomplus" xlink:href="#zoomPlus" x="17" y="9" onmousedown="handleZoom(evt,'in')"/>
  <use id="zoomminus" xlink:href="#zoomMin" x="42" y="9" onmousedown="handleZoom(evt,'out')"/>
  <use id="reset" xlink:href="#resetDef" x="30" y="36" onmousedown="handleReset()"/>
   <use id="arrowup" xlink:href="#arrowUp" x="0" y="0" onmousedown="handlePan(0,-1)"/>
  <use id="arrowright" xlink:href="#arrowRight" x="0" y="0" onmousedown="handlePan(1,0)"/>
  <use id="arrowdown" xlink:href="#arrowDown" x="0" y="0" onmousedown="handlePan(0,1)"/>
  <use id="arrowleft" xlink:href="#arrowLeft" x="0" y="0" onmousedown="handlePan(-1,0)"/>
</g>
<svg viewBox="0 0 15 15" width="100%" height="30px" preserveAspectRatio="xMaxYMin meet">
 <g id="arrow_out" transform="scale(0.3 0.3)">
  <a xlink:href="class_acts_1_1_axis__inherit__graph_org.svg" target="_base">
   <rect id="button" ry="5" rx="5" y="6" x="6" height="38" width="38"
        fill="#f2f5e9" fill-opacity="0.5" stroke="#606060" stroke-width="1.0"/>
   <path id="arrow"
     d="M 11.500037,31.436501 C 11.940474,20.09759 22.043105,11.32322 32.158766,21.979434 L 37.068811,17.246167 C 37.068811,17.246167 37.088388,32 37.088388,32 L 22.160133,31.978069 C 22.160133,31.978069 26.997745,27.140456 26.997745,27.140456 C 18.528582,18.264221 13.291696,25.230495 11.500037,31.436501 z"
     style="fill:#404040;"/>
  </a>
 </g>
</svg>

<style type='text/css'>
<![CDATA[
[data-mouse-over-selected='false'] { opacity: 0.7; }
[data-mouse-over-selected='true']  { opacity: 1.0; }
]]>
</style>
<script type="application/ecmascript"><![CDATA[
document.addEventListener('DOMContentLoaded', (event) => {
  highlightEdges();
  highlightAdjacentNodes();
});
]]></script>
</svg>
