<?xml version="1.0" encoding="UTF-8" standalone="no"?>
<!DOCTYPE svg PUBLIC "-//W3C//DTD SVG 1.1//EN"
 "http://www.w3.org/Graphics/SVG/1.1/DTD/svg11.dtd">
<!-- Generated by graphviz version 2.43.0 (0)
 -->
<!-- Title: Acts::Experimental::ContainerBlueprintNode Pages: 1 -->
<svg width="509pt" height="86pt"
 viewBox="0.00 0.00 509.00 86.00" xmlns="http://www.w3.org/2000/svg" xmlns:xlink="http://www.w3.org/1999/xlink">
<g id="graph0" class="graph" transform="scale(1 1) rotate(0) translate(4 82)">
<title>Acts::Experimental::ContainerBlueprintNode</title>
<!-- Node1 -->
<g id="Node000001" class="node">
<title>Node1</title>
<g id="a_Node000001"><a xlink:title="A blueprint node that can contain multiple child volumes.">
<polygon fill="#999999" stroke="#666666" points="285,-54 145,-54 145,-24 285,-24 285,-54"/>
<text text-anchor="start" x="153" y="-42" font-family="Helvetica,sans-Serif" font-size="10.00">Acts::Experimental</text>
<text text-anchor="middle" x="215" y="-31" font-family="Helvetica,sans-Serif" font-size="10.00">::ContainerBlueprintNode</text>
</a>
</g>
</g>
<!-- Node3 -->
<g id="Node000003" class="node">
<title>Node3</title>
<g id="a_Node000003"><a xlink:href="class_acts_1_1_experimental_1_1_cuboid_container_blueprint_node.html" target="_top" xlink:title=" ">
<polygon fill="white" stroke="#666666" points="497.5,-78 324.5,-78 324.5,-48 497.5,-48 497.5,-78"/>
<text text-anchor="start" x="332.5" y="-66" font-family="Helvetica,sans-Serif" font-size="10.00">Acts::Experimental</text>
<text text-anchor="middle" x="411" y="-55" font-family="Helvetica,sans-Serif" font-size="10.00">::CuboidContainerBlueprintNode</text>
</a>
</g>
</g>
<!-- Node1&#45;&gt;Node3 -->
<g id="edge2_Node000001_Node000003" class="edge">
<title>Node1&#45;&gt;Node3</title>
<g id="a_edge2_Node000001_Node000003"><a xlink:title=" ">
<path fill="none" stroke="#63b8ff" d="M295.4,-48.82C304.89,-50 314.61,-51.2 324.18,-52.38"/>
<polygon fill="#63b8ff" stroke="#63b8ff" points="295.57,-45.32 285.22,-47.56 294.71,-52.26 295.57,-45.32"/>
</a>
</g>
</g>
<!-- Node4 -->
<g id="Node000004" class="node">
<title>Node4</title>
<g id="a_Node000004"><a xlink:href="class_acts_1_1_experimental_1_1_cylinder_container_blueprint_node.html" target="_top" xlink:title=" ">
<polygon fill="white" stroke="#666666" points="501,-30 321,-30 321,0 501,0 501,-30"/>
<text text-anchor="start" x="329" y="-18" font-family="Helvetica,sans-Serif" font-size="10.00">Acts::Experimental</text>
<text text-anchor="middle" x="411" y="-7" font-family="Helvetica,sans-Serif" font-size="10.00">::CylinderContainerBlueprintNode</text>
</a>
</g>
</g>
<!-- Node1&#45;&gt;Node4 -->
<g id="edge3_Node000001_Node000004" class="edge">
<title>Node1&#45;&gt;Node4</title>
<g id="a_edge3_Node000001_Node000004"><a xlink:title=" ">
<path fill="none" stroke="#63b8ff" d="M295.35,-29.18C303.74,-28.15 312.31,-27.09 320.81,-26.03"/>
<polygon fill="#63b8ff" stroke="#63b8ff" points="294.71,-25.74 285.22,-30.44 295.57,-32.68 294.71,-25.74"/>
</a>
</g>
</g>
<!-- Node2 -->
<g id="Node000002" class="node">
<title>Node2</title>
<g id="a_Node000002"><a xlink:href="class_acts_1_1_experimental_1_1_blueprint_node.html" target="_top" xlink:title="Base class for all nodes in the blueprint tree.">
<polygon fill="white" stroke="#666666" points="109,-54 0,-54 0,-24 109,-24 109,-54"/>
<text text-anchor="start" x="8" y="-42" font-family="Helvetica,sans-Serif" font-size="10.00">Acts::Experimental</text>
<text text-anchor="middle" x="54.5" y="-31" font-family="Helvetica,sans-Serif" font-size="10.00">::BlueprintNode</text>
</a>
</g>
</g>
<!-- Node2&#45;&gt;Node1 -->
<g id="edge1_Node000001_Node000002" class="edge">
<title>Node2&#45;&gt;Node1</title>
<g id="a_edge1_Node000001_Node000002"><a xlink:title=" ">
<path fill="none" stroke="#63b8ff" d="M119.3,-39C127.74,-39 136.42,-39 144.94,-39"/>
<polygon fill="#63b8ff" stroke="#63b8ff" points="119.16,-35.5 109.16,-39 119.16,-42.5 119.16,-35.5"/>
</a>
</g>
</g>
</g>
</svg>
