<?xml version="1.0" encoding="UTF-8" standalone="no"?>
<!DOCTYPE svg PUBLIC "-//W3C//DTD SVG 1.1//EN"
 "http://www.w3.org/Graphics/SVG/1.1/DTD/svg11.dtd">
<!-- Generated by graphviz version 2.43.0 (0)
 -->
<!-- Title: Acts::GridAccess::LocalSubspace&lt; Args &gt; Pages: 1 -->
<svg width="184pt" height="188pt"
 viewBox="0.00 0.00 184.00 188.00" xmlns="http://www.w3.org/2000/svg" xmlns:xlink="http://www.w3.org/1999/xlink">
<g id="graph0" class="graph" transform="scale(1 1) rotate(0) translate(4 184)">
<title>Acts::GridAccess::LocalSubspace&lt; Args &gt;</title>
<!-- Node1 -->
<g id="Node000001" class="node">
<title>Node1</title>
<g id="a_Node000001"><a xlink:title=" ">
<polygon fill="#999999" stroke="#666666" points="176,-113 0,-113 0,-83 176,-83 176,-113"/>
<text text-anchor="start" x="8" y="-101" font-family="Helvetica,sans-Serif" font-size="10.00">Acts::GridAccess::LocalSubspace</text>
<text text-anchor="middle" x="88" y="-90" font-family="Helvetica,sans-Serif" font-size="10.00">&lt; Args &gt;</text>
</a>
</g>
</g>
<!-- Node3 -->
<g id="Node000003" class="node">
<title>Node3</title>
<g id="a_Node000003"><a xlink:href="class_acts_1_1_grid_access_1_1_local_subspace.html" target="_top" xlink:title=" ">
<polygon fill="white" stroke="#666666" points="176,-30 0,-30 0,0 176,0 176,-30"/>
<text text-anchor="start" x="8" y="-18" font-family="Helvetica,sans-Serif" font-size="10.00">Acts::GridAccess::LocalSubspace</text>
<text text-anchor="middle" x="88" y="-7" font-family="Helvetica,sans-Serif" font-size="10.00">&lt; 0u, 1u &gt;</text>
</a>
</g>
</g>
<!-- Node1&#45;&gt;Node3 -->
<g id="edge2_Node000001_Node000003" class="edge">
<title>Node1&#45;&gt;Node3</title>
<g id="a_edge2_Node000001_Node000003"><a xlink:title=" ">
<path fill="none" stroke="orange" stroke-dasharray="5,2" d="M88,-72.59C88,-58.75 88,-41.91 88,-30.22"/>
<polygon fill="orange" stroke="orange" points="84.5,-72.89 88,-82.89 91.5,-72.89 84.5,-72.89"/>
</a>
</g>
<text text-anchor="start" x="91.5" y="-53.5" font-family="Helvetica,sans-Serif" font-size="10.00" fill="grey">&lt; 0u, 1u &gt;</text>
</g>
<!-- Node2 -->
<g id="Node000002" class="node">
<title>Node2</title>
<g id="a_Node000002"><a xlink:href="class_acts_1_1_grid_access_1_1_i_bound_to_grid_local.html" target="_top" xlink:title="Interface class for owning delegate.">
<polygon fill="white" stroke="#666666" points="156.5,-180 19.5,-180 19.5,-150 156.5,-150 156.5,-180"/>
<text text-anchor="start" x="27.5" y="-168" font-family="Helvetica,sans-Serif" font-size="10.00">Acts::GridAccess::IBound</text>
<text text-anchor="middle" x="88" y="-157" font-family="Helvetica,sans-Serif" font-size="10.00">ToGridLocal</text>
</a>
</g>
</g>
<!-- Node2&#45;&gt;Node1 -->
<g id="edge1_Node000001_Node000002" class="edge">
<title>Node2&#45;&gt;Node1</title>
<g id="a_edge1_Node000001_Node000002"><a xlink:title=" ">
<path fill="none" stroke="#63b8ff" d="M88,-139.61C88,-130.65 88,-120.82 88,-113.08"/>
<polygon fill="#63b8ff" stroke="#63b8ff" points="84.5,-139.9 88,-149.9 91.5,-139.9 84.5,-139.9"/>
</a>
</g>
</g>
</g>
</svg>
