<?xml version="1.0" encoding="UTF-8" standalone="no"?>
<!DOCTYPE svg PUBLIC "-//W3C//DTD SVG 1.1//EN"
 "http://www.w3.org/Graphics/SVG/1.1/DTD/svg11.dtd">
<!-- Generated by graphviz version 2.43.0 (0)
 -->
<!-- Title: Acts::TryAllNavigatorBase Pages: 1 -->
<svg width="1030pt" height="139pt"
 viewBox="0.00 0.00 1030.00 139.00" xmlns="http://www.w3.org/2000/svg" xmlns:xlink="http://www.w3.org/1999/xlink">
<g id="graph0" class="graph" transform="scale(1 1) rotate(0) translate(4 135)">
<title>Acts::TryAllNavigatorBase</title>
<!-- Node1 -->
<g id="Node000001" class="node">
<title>Node1</title>
<g id="a_Node000001"><a xlink:title="Captures the common functionality of the try&#45;all navigators.">
<polygon fill="#999999" stroke="#666666" points="1022,-48.5 879,-48.5 879,-29.5 1022,-29.5 1022,-48.5"/>
<text text-anchor="middle" x="950.5" y="-36.5" font-family="Helvetica,sans-Serif" font-size="10.00">Acts::TryAllNavigatorBase</text>
</a>
</g>
</g>
<!-- Node2 -->
<g id="Node000002" class="node">
<title>Node2</title>
<g id="a_Node000002"><a xlink:href="struct_acts_1_1_try_all_navigator_base_1_1_config.html" target="_top" xlink:title="Configuration for this Navigator.">
<polygon fill="white" stroke="#666666" points="791,-78 648,-78 648,-48 791,-48 791,-78"/>
<text text-anchor="start" x="656" y="-66" font-family="Helvetica,sans-Serif" font-size="10.00">Acts::TryAllNavigatorBase</text>
<text text-anchor="middle" x="719.5" y="-55" font-family="Helvetica,sans-Serif" font-size="10.00">::Config</text>
</a>
</g>
</g>
<!-- Node2&#45;&gt;Node1 -->
<g id="edge1_Node000001_Node000002" class="edge">
<title>Node2&#45;&gt;Node1</title>
<g id="a_edge1_Node000001_Node000002"><a xlink:title=" ">
<path fill="none" stroke="#9a32cd" stroke-dasharray="5,2" d="M801.03,-54.56C826.37,-51.9 854.15,-48.99 878.76,-46.41"/>
<polygon fill="#9a32cd" stroke="#9a32cd" points="800.66,-51.08 791.08,-55.6 801.39,-58.04 800.66,-51.08"/>
</a>
</g>
<text text-anchor="start" x="820" y="-59.5" font-family="Helvetica,sans-Serif" font-size="10.00" fill="grey">m_cfg</text>
</g>
<!-- Node3 -->
<g id="Node000003" class="node">
<title>Node3</title>
<g id="a_Node000003"><a xlink:title=" ">
<polygon fill="white" stroke="#666666" points="476,-129 329,-129 329,-99 476,-99 476,-129"/>
<text text-anchor="start" x="337" y="-117" font-family="Helvetica,sans-Serif" font-size="10.00">std::shared_ptr&lt; const</text>
<text text-anchor="middle" x="402.5" y="-106" font-family="Helvetica,sans-Serif" font-size="10.00"> Acts::TrackingGeometry &gt;</text>
</a>
</g>
</g>
<!-- Node3&#45;&gt;Node2 -->
<g id="edge2_Node000002_Node000003" class="edge">
<title>Node3&#45;&gt;Node2</title>
<g id="a_edge2_Node000002_Node000003"><a xlink:title=" ">
<path fill="none" stroke="#9a32cd" stroke-dasharray="5,2" d="M486.21,-110.34C529.4,-107.33 582.93,-101.87 630,-92 646.3,-88.58 663.81,-83.22 678.92,-78.03"/>
<polygon fill="#9a32cd" stroke="#9a32cd" points="485.77,-106.86 476.03,-111.02 486.24,-113.85 485.77,-106.86"/>
</a>
</g>
<text text-anchor="start" x="518" y="-114.5" font-family="Helvetica,sans-Serif" font-size="10.00" fill="grey">trackingGeometry</text>
</g>
<!-- Node4 -->
<g id="Node000004" class="node">
<title>Node4</title>
<g id="a_Node000004"><a xlink:title=" ">
<polygon fill="white" stroke="#666666" points="118,-123.5 0,-123.5 0,-104.5 118,-104.5 118,-123.5"/>
<text text-anchor="middle" x="59" y="-111.5" font-family="Helvetica,sans-Serif" font-size="10.00">std::shared_ptr&lt; T &gt;</text>
</a>
</g>
</g>
<!-- Node4&#45;&gt;Node3 -->
<g id="edge3_Node000003_Node000004" class="edge">
<title>Node4&#45;&gt;Node3</title>
<g id="a_edge3_Node000003_Node000004"><a xlink:title=" ">
<path fill="none" stroke="orange" stroke-dasharray="5,2" d="M128.5,-114C186.58,-114 269.64,-114 328.86,-114"/>
<polygon fill="orange" stroke="orange" points="128.32,-110.5 118.32,-114 128.32,-117.5 128.32,-110.5"/>
</a>
</g>
<text text-anchor="start" x="139.5" y="-119.5" font-family="Helvetica,sans-Serif" font-size="10.00" fill="grey">&lt; const Acts::TrackingGeometry &gt;</text>
</g>
<!-- Node5 -->
<g id="Node000005" class="node">
<title>Node5</title>
<g id="a_Node000005"><a xlink:href="class_acts_1_1_boundary_tolerance.html" target="_top" xlink:title="Variant&#45;like type to capture different types of boundary tolerances.">
<polygon fill="white" stroke="#666666" points="471,-68.5 334,-68.5 334,-49.5 471,-49.5 471,-68.5"/>
<text text-anchor="middle" x="402.5" y="-56.5" font-family="Helvetica,sans-Serif" font-size="10.00">Acts::BoundaryTolerance</text>
</a>
</g>
</g>
<!-- Node5&#45;&gt;Node2 -->
<g id="edge4_Node000002_Node000005" class="edge">
<title>Node5&#45;&gt;Node2</title>
<g id="a_edge4_Node000002_Node000005"><a xlink:title=" ">
<path fill="none" stroke="#9a32cd" stroke-dasharray="5,2" d="M481.66,-58.78C525.31,-58.8 580.68,-59.06 630,-60 635.84,-60.11 641.9,-60.26 647.98,-60.42"/>
<polygon fill="#9a32cd" stroke="#9a32cd" points="481.4,-55.28 471.4,-58.78 481.4,-62.28 481.4,-55.28"/>
</a>
</g>
<text text-anchor="start" x="497" y="-81" font-family="Helvetica,sans-Serif" font-size="10.00" fill="grey">boundaryToleranceSurface</text>
<text text-anchor="start" x="497" y="-66" font-family="Helvetica,sans-Serif" font-size="10.00" fill="grey">  Approach</text>
</g>
<!-- Node6 -->
<g id="Node000006" class="node">
<title>Node6</title>
<g id="a_Node000006"><a xlink:title=" ">
<polygon fill="white" stroke="#666666" points="783,-30 656,-30 656,0 783,0 783,-30"/>
<text text-anchor="start" x="664" y="-18" font-family="Helvetica,sans-Serif" font-size="10.00">std::unique_ptr&lt; const</text>
<text text-anchor="middle" x="719.5" y="-7" font-family="Helvetica,sans-Serif" font-size="10.00"> Acts::Logger &gt;</text>
</a>
</g>
</g>
<!-- Node6&#45;&gt;Node1 -->
<g id="edge5_Node000001_Node000006" class="edge">
<title>Node6&#45;&gt;Node1</title>
<g id="a_edge5_Node000001_Node000006"><a xlink:title=" ">
<path fill="none" stroke="#9a32cd" stroke-dasharray="5,2" d="M793.31,-21.3C815.1,-23.3 839.03,-25.62 861,-28 866.85,-28.63 872.91,-29.32 879,-30.03"/>
<polygon fill="#9a32cd" stroke="#9a32cd" points="793.42,-17.79 783.14,-20.37 792.78,-24.76 793.42,-17.79"/>
</a>
</g>
<text text-anchor="start" x="812" y="-33.5" font-family="Helvetica,sans-Serif" font-size="10.00" fill="grey">m_logger</text>
</g>
<!-- Node7 -->
<g id="Node000007" class="node">
<title>Node7</title>
<g id="a_Node000007"><a xlink:title=" ">
<polygon fill="white" stroke="#666666" points="461.5,-24.5 343.5,-24.5 343.5,-5.5 461.5,-5.5 461.5,-24.5"/>
<text text-anchor="middle" x="402.5" y="-12.5" font-family="Helvetica,sans-Serif" font-size="10.00">std::unique_ptr&lt; T &gt;</text>
</a>
</g>
</g>
<!-- Node7&#45;&gt;Node6 -->
<g id="edge6_Node000006_Node000007" class="edge">
<title>Node7&#45;&gt;Node6</title>
<g id="a_edge6_Node000006_Node000007"><a xlink:title=" ">
<path fill="none" stroke="orange" stroke-dasharray="5,2" d="M471.94,-15C526.65,-15 602.71,-15 655.84,-15"/>
<polygon fill="orange" stroke="orange" points="471.64,-11.5 461.64,-15 471.64,-18.5 471.64,-11.5"/>
</a>
</g>
<text text-anchor="start" x="506" y="-20.5" font-family="Helvetica,sans-Serif" font-size="10.00" fill="grey">&lt; const Acts::Logger &gt;</text>
</g>
</g>
</svg>
