<?xml version="1.0" encoding="UTF-8" standalone="no"?>
<!DOCTYPE svg PUBLIC "-//W3C//DTD SVG 1.1//EN"
 "http://www.w3.org/Graphics/SVG/1.1/DTD/svg11.dtd">
<!-- Generated by graphviz version 2.43.0 (0)
 -->
<!-- Title: Acts::IndexGridNavigationPolicy&lt; GridType &gt; Pages: 1 -->
<!--zoomable 182 -->

<svg id="main" version="1.1" xmlns="http://www.w3.org/2000/svg" xmlns:xlink="http://www.w3.org/1999/xlink" xml:space="preserve" onload="init(evt)">

<style type="text/css"><![CDATA[
.node, .edge {opacity: 0.7;}
.node.selected, .edge.selected {opacity: 1;}
.edge:hover path { stroke: red; }
.edge:hover polygon { stroke: red; fill: red; }
]]></style>

<defs>
  <circle id="rim" cx="0" cy="0" r="7"/>
  <circle id="rim2" cx="0" cy="0" r="3.5"/>
  <g id="zoomPlus">
    <use xlink:href="#rim" fill="#404040"><set attributeName="fill" to="#808080" begin="zoomplus.mouseover" end="zoomplus.mouseout"/></use>
    <path d="M-4,0h8M0,-4v8" fill="none" stroke="white" stroke-width="1.5" pointer-events="none"/>
  </g>
  <g id="zoomMin">
    <use xlink:href="#rim" fill="#404040"><set attributeName="fill" to="#808080" begin="zoomminus.mouseover" end="zoomminus.mouseout"/></use>
    <path d="M-4,0h8" fill="none" stroke="white" stroke-width="1.5" pointer-events="none"/>
  </g>
  <g id="arrowUp" transform="translate(30 24)">
    <use xlink:href="#rim"/>
    <path pointer-events="none" fill="none" stroke="white" stroke-width="1.5" d="M0,-3.0v7 M-2.5,-0.5L0,-3.0L2.5,-0.5"/>
  </g>
  <g id="arrowRight" transform="rotate(90) translate(36 -43)">
    <use xlink:href="#rim"/>
    <path pointer-events="none" fill="none" stroke="white" stroke-width="1.5" d="M0,-3.0v7 M-2.5,-0.5L0,-3.0L2.5,-0.5"/>
  </g>
  <g id="arrowDown" transform="rotate(180) translate(-30 -48)">
    <use xlink:href="#rim"/>
    <path pointer-events="none" fill="none" stroke="white" stroke-width="1.5" d="M0,-3.0v7 M-2.5,-0.5L0,-3.0L2.5,-0.5"/>
  </g>
  <g id="arrowLeft" transform="rotate(270) translate(-36 17)">
    <use xlink:href="#rim"/>
    <path pointer-events="none" fill="none" stroke="white" stroke-width="1.5" d="M0,-3.0v7 M-2.5,-0.5L0,-3.0L2.5,-0.5"/>
  </g>
  <g id="resetDef">
    <use xlink:href="#rim2" fill="#404040"><set attributeName="fill" to="#808080" begin="reset.mouseover" end="reset.mouseout"/></use>
  </g>
</defs>
<script type="application/ecmascript">
var viewWidth = 702;
var viewHeight = 182;
var sectionId = 'dynsection-0';
</script>
<script type="application/ecmascript" xlink:href="svg.min.js"/>
<svg id="graph" class="graph">
<g id="viewport">
<title>Acts::IndexGridNavigationPolicy&lt; GridType &gt;</title>
<!-- Node1 -->
<g id="Node000001" class="node">
<title>Node1</title>
<g id="a_Node000001"><a xlink:title="A navigation policy that uses grid based navigation for indexed surfaces Navigate through a multilaye...">
<polygon fill="#999999" stroke="#666666" points="310,-102 166,-102 166,-72 310,-72 310,-102"/>
<text text-anchor="start" x="174" y="-90" font-family="Helvetica,sans-Serif" font-size="10.00">Acts::IndexGridNavigation</text>
<text text-anchor="middle" x="238" y="-79" font-family="Helvetica,sans-Serif" font-size="10.00">Policy&lt; GridType &gt;</text>
</a>
</g>
</g>
<!-- Node3 -->
<g id="Node000003" class="node">
<title>Node3</title>
<g id="a_Node000003"><a xlink:href="class_acts_1_1_index_grid_navigation_policy.html" target="_top" xlink:title=" ">
<polygon fill="white" stroke="#666666" points="694,-174 500,-174 500,-144 694,-144 694,-174"/>
<text text-anchor="start" x="508" y="-162" font-family="Helvetica,sans-Serif" font-size="10.00">Acts::IndexGridNavigation</text>
<text text-anchor="middle" x="597" y="-151" font-family="Helvetica,sans-Serif" font-size="10.00">Policy&lt; RegularCylinderIndexGrid &gt;</text>
</a>
</g>
</g>
<!-- Node1&#45;&gt;Node3 -->
<g id="edge2_Node000001_Node000003" class="edge">
<title>Node1&#45;&gt;Node3</title>
<g id="a_edge2_Node000001_Node000003"><a xlink:title=" ">
<path fill="none" stroke="orange" stroke-dasharray="5,2" d="M279.1,-106.32C294.13,-112.85 311.56,-119.59 328,-124 383.97,-139.01 448.31,-147.68 499.92,-152.64"/>
<polygon fill="orange" stroke="orange" points="280.16,-102.96 269.6,-102.08 277.31,-109.35 280.16,-102.96"/>
</a>
</g>
<text text-anchor="start" x="331" y="-155.5" font-family="Helvetica,sans-Serif" font-size="10.00" fill="grey">&lt; RegularCylinderIndexGrid &gt;</text>
</g>
<!-- Node4 -->
<g id="Node000004" class="node">
<title>Node4</title>
<g id="a_Node000004"><a xlink:href="class_acts_1_1_index_grid_navigation_policy.html" target="_top" xlink:title=" ">
<polygon fill="white" stroke="#666666" points="684.5,-126 509.5,-126 509.5,-96 684.5,-96 684.5,-126"/>
<text text-anchor="start" x="517.5" y="-114" font-family="Helvetica,sans-Serif" font-size="10.00">Acts::IndexGridNavigation</text>
<text text-anchor="middle" x="597" y="-103" font-family="Helvetica,sans-Serif" font-size="10.00">Policy&lt; RegularRingIndexGrid &gt;</text>
</a>
</g>
</g>
<!-- Node1&#45;&gt;Node4 -->
<g id="edge3_Node000001_Node000004" class="edge">
<title>Node1&#45;&gt;Node4</title>
<g id="a_edge3_Node000001_Node000004"><a xlink:title=" ">
<path fill="none" stroke="orange" stroke-dasharray="5,2" d="M320.69,-92.49C377.05,-96.28 451.87,-101.31 509.29,-105.17"/>
<polygon fill="orange" stroke="orange" points="320.6,-88.98 310.39,-91.8 320.13,-95.96 320.6,-88.98"/>
</a>
</g>
<text text-anchor="start" x="340" y="-108.5" font-family="Helvetica,sans-Serif" font-size="10.00" fill="grey">&lt; RegularRingIndexGrid &gt;</text>
</g>
<!-- Node5 -->
<g id="Node000005" class="node">
<title>Node5</title>
<g id="a_Node000005"><a xlink:href="class_acts_1_1_index_grid_navigation_policy.html" target="_top" xlink:title=" ">
<polygon fill="white" stroke="#666666" points="684,-78 510,-78 510,-48 684,-48 684,-78"/>
<text text-anchor="start" x="518" y="-66" font-family="Helvetica,sans-Serif" font-size="10.00">Acts::IndexGridNavigation</text>
<text text-anchor="middle" x="597" y="-55" font-family="Helvetica,sans-Serif" font-size="10.00">Policy&lt; RegularDiscIndexGrid &gt;</text>
</a>
</g>
</g>
<!-- Node1&#45;&gt;Node5 -->
<g id="edge4_Node000001_Node000005" class="edge">
<title>Node1&#45;&gt;Node5</title>
<g id="a_edge4_Node000001_Node000005"><a xlink:title=" ">
<path fill="none" stroke="orange" stroke-dasharray="5,2" d="M320.33,-72.84C322.92,-72.54 325.48,-72.25 328,-72 388.56,-65.91 457.17,-63.69 509.81,-62.98"/>
<polygon fill="orange" stroke="orange" points="319.77,-69.38 310.3,-74.12 320.66,-76.33 319.77,-69.38"/>
</a>
</g>
<text text-anchor="start" x="341" y="-77.5" font-family="Helvetica,sans-Serif" font-size="10.00" fill="grey">&lt; RegularDiscIndexGrid &gt;</text>
</g>
<!-- Node6 -->
<g id="Node000006" class="node">
<title>Node6</title>
<g id="a_Node000006"><a xlink:href="class_acts_1_1_index_grid_navigation_policy.html" target="_top" xlink:title=" ">
<polygon fill="white" stroke="#666666" points="687,-30 507,-30 507,0 687,0 687,-30"/>
<text text-anchor="start" x="515" y="-18" font-family="Helvetica,sans-Serif" font-size="10.00">Acts::IndexGridNavigation</text>
<text text-anchor="middle" x="597" y="-7" font-family="Helvetica,sans-Serif" font-size="10.00">Policy&lt; RegularPlaneIndexGrid &gt;</text>
</a>
</g>
</g>
<!-- Node1&#45;&gt;Node6 -->
<g id="edge5_Node000001_Node000006" class="edge">
<title>Node1&#45;&gt;Node6</title>
<g id="a_edge5_Node000001_Node000006"><a xlink:title=" ">
<path fill="none" stroke="orange" stroke-dasharray="5,2" d="M272.78,-66.76C288.94,-58.01 308.9,-48.53 328,-43 386.19,-26.16 454.09,-19.2 506.98,-16.42"/>
<polygon fill="orange" stroke="orange" points="270.77,-63.87 263.73,-71.79 274.17,-69.98 270.77,-63.87"/>
</a>
</g>
<text text-anchor="start" x="338" y="-48.5" font-family="Helvetica,sans-Serif" font-size="10.00" fill="grey">&lt; RegularPlaneIndexGrid &gt;</text>
</g>
<!-- Node2 -->
<g id="Node000002" class="node">
<title>Node2</title>
<g id="a_Node000002"><a xlink:href="class_acts_1_1_i_navigation_policy.html" target="_top" xlink:title="Base class for all navigation policies.">
<polygon fill="white" stroke="#666666" points="129,-96.5 0,-96.5 0,-77.5 129,-77.5 129,-96.5"/>
<text text-anchor="middle" x="64.5" y="-84.5" font-family="Helvetica,sans-Serif" font-size="10.00">Acts::INavigationPolicy</text>
</a>
</g>
</g>
<!-- Node2&#45;&gt;Node1 -->
<g id="edge1_Node000001_Node000002" class="edge">
<title>Node2&#45;&gt;Node1</title>
<g id="a_edge1_Node000001_Node000002"><a xlink:title=" ">
<path fill="none" stroke="#63b8ff" d="M139.53,-87C148.27,-87 157.18,-87 165.88,-87"/>
<polygon fill="#63b8ff" stroke="#63b8ff" points="139.36,-83.5 129.36,-87 139.36,-90.5 139.36,-83.5"/>
</a>
</g>
</g>
</g>
</svg>

<g id="navigator" transform="translate(0 0)" fill="#404254">
  <rect fill="#f2f5e9" fill-opacity="0.5" stroke="#606060" stroke-width=".5" x="0" y="0" width="60" height="60"/>
  <use id="zoomplus" xlink:href="#zoomPlus" x="17" y="9" onmousedown="handleZoom(evt,'in')"/>
  <use id="zoomminus" xlink:href="#zoomMin" x="42" y="9" onmousedown="handleZoom(evt,'out')"/>
  <use id="reset" xlink:href="#resetDef" x="30" y="36" onmousedown="handleReset()"/>
   <use id="arrowup" xlink:href="#arrowUp" x="0" y="0" onmousedown="handlePan(0,-1)"/>
  <use id="arrowright" xlink:href="#arrowRight" x="0" y="0" onmousedown="handlePan(1,0)"/>
  <use id="arrowdown" xlink:href="#arrowDown" x="0" y="0" onmousedown="handlePan(0,1)"/>
  <use id="arrowleft" xlink:href="#arrowLeft" x="0" y="0" onmousedown="handlePan(-1,0)"/>
</g>
<svg viewBox="0 0 15 15" width="100%" height="30px" preserveAspectRatio="xMaxYMin meet">
 <g id="arrow_out" transform="scale(0.3 0.3)">
  <a xlink:href="class_acts_1_1_index_grid_navigation_policy__inherit__graph_org.svg" target="_base">
   <rect id="button" ry="5" rx="5" y="6" x="6" height="38" width="38"
        fill="#f2f5e9" fill-opacity="0.5" stroke="#606060" stroke-width="1.0"/>
   <path id="arrow"
     d="M 11.500037,31.436501 C 11.940474,20.09759 22.043105,11.32322 32.158766,21.979434 L 37.068811,17.246167 C 37.068811,17.246167 37.088388,32 37.088388,32 L 22.160133,31.978069 C 22.160133,31.978069 26.997745,27.140456 26.997745,27.140456 C 18.528582,18.264221 13.291696,25.230495 11.500037,31.436501 z"
     style="fill:#404040;"/>
  </a>
 </g>
</svg>

<style type='text/css'>
<![CDATA[
[data-mouse-over-selected='false'] { opacity: 0.7; }
[data-mouse-over-selected='true']  { opacity: 1.0; }
]]>
</style>
<script type="application/ecmascript"><![CDATA[
document.addEventListener('DOMContentLoaded', (event) => {
  highlightEdges();
  highlightAdjacentNodes();
});
]]></script>
</svg>
