<?xml version="1.0" encoding="UTF-8" standalone="no"?>
<!DOCTYPE svg PUBLIC "-//W3C//DTD SVG 1.1//EN"
 "http://www.w3.org/Graphics/SVG/1.1/DTD/svg11.dtd">
<!-- Generated by graphviz version 2.43.0 (0)
 -->
<!-- Title: Acts::PerigeeSurface Pages: 1 -->
<!--zoomable 495 -->

<svg id="main" version="1.1" xmlns="http://www.w3.org/2000/svg" xmlns:xlink="http://www.w3.org/1999/xlink" xml:space="preserve" onload="init(evt)">

<style type="text/css"><![CDATA[
.node, .edge {opacity: 0.7;}
.node.selected, .edge.selected {opacity: 1;}
.edge:hover path { stroke: red; }
.edge:hover polygon { stroke: red; fill: red; }
]]></style>

<defs>
  <circle id="rim" cx="0" cy="0" r="7"/>
  <circle id="rim2" cx="0" cy="0" r="3.5"/>
  <g id="zoomPlus">
    <use xlink:href="#rim" fill="#404040"><set attributeName="fill" to="#808080" begin="zoomplus.mouseover" end="zoomplus.mouseout"/></use>
    <path d="M-4,0h8M0,-4v8" fill="none" stroke="white" stroke-width="1.5" pointer-events="none"/>
  </g>
  <g id="zoomMin">
    <use xlink:href="#rim" fill="#404040"><set attributeName="fill" to="#808080" begin="zoomminus.mouseover" end="zoomminus.mouseout"/></use>
    <path d="M-4,0h8" fill="none" stroke="white" stroke-width="1.5" pointer-events="none"/>
  </g>
  <g id="arrowUp" transform="translate(30 24)">
    <use xlink:href="#rim"/>
    <path pointer-events="none" fill="none" stroke="white" stroke-width="1.5" d="M0,-3.0v7 M-2.5,-0.5L0,-3.0L2.5,-0.5"/>
  </g>
  <g id="arrowRight" transform="rotate(90) translate(36 -43)">
    <use xlink:href="#rim"/>
    <path pointer-events="none" fill="none" stroke="white" stroke-width="1.5" d="M0,-3.0v7 M-2.5,-0.5L0,-3.0L2.5,-0.5"/>
  </g>
  <g id="arrowDown" transform="rotate(180) translate(-30 -48)">
    <use xlink:href="#rim"/>
    <path pointer-events="none" fill="none" stroke="white" stroke-width="1.5" d="M0,-3.0v7 M-2.5,-0.5L0,-3.0L2.5,-0.5"/>
  </g>
  <g id="arrowLeft" transform="rotate(270) translate(-36 17)">
    <use xlink:href="#rim"/>
    <path pointer-events="none" fill="none" stroke="white" stroke-width="1.5" d="M0,-3.0v7 M-2.5,-0.5L0,-3.0L2.5,-0.5"/>
  </g>
  <g id="resetDef">
    <use xlink:href="#rim2" fill="#404040"><set attributeName="fill" to="#808080" begin="reset.mouseover" end="reset.mouseout"/></use>
  </g>
</defs>
<script type="application/ecmascript">
var viewWidth = 1803;
var viewHeight = 495;
var sectionId = 'dynsection-1';
</script>
<script type="application/ecmascript" xlink:href="svg.min.js"/>
<svg id="graph" class="graph">
<g id="viewport">
<title>Acts::PerigeeSurface</title>
<!-- Node1 -->
<g id="Node000001" class="node">
<title>Node1</title>
<g id="a_Node000001"><a xlink:title="Class describing the Line to which the Perigee refers to.">
<polygon fill="#999999" stroke="#666666" points="1795,-158.57 1678,-158.57 1678,-139.57 1795,-139.57 1795,-158.57"/>
<text text-anchor="middle" x="1736.5" y="-146.57" font-family="Helvetica,sans-Serif" font-size="10.00">Acts::PerigeeSurface</text>
</a>
</g>
</g>
<!-- Node2 -->
<g id="Node000002" class="node">
<title>Node2</title>
<g id="a_Node000002"><a xlink:href="class_acts_1_1_line_surface.html" target="_top" xlink:title="Base class for a linear surfaces in the TrackingGeometry to describe dirft tube, straw like detectors...">
<polygon fill="white" stroke="#666666" points="1641,-158.57 1540,-158.57 1540,-139.57 1641,-139.57 1641,-158.57"/>
<text text-anchor="middle" x="1590.5" y="-146.57" font-family="Helvetica,sans-Serif" font-size="10.00">Acts::LineSurface</text>
</a>
</g>
</g>
<!-- Node2&#45;&gt;Node1 -->
<g id="edge1_Node000001_Node000002" class="edge">
<title>Node2&#45;&gt;Node1</title>
<g id="a_edge1_Node000001_Node000002"><a xlink:title=" ">
<path fill="none" stroke="#63b8ff" d="M1651.26,-149.07C1660.08,-149.07 1669.15,-149.07 1677.92,-149.07"/>
<polygon fill="#63b8ff" stroke="#63b8ff" points="1651.06,-145.57 1641.06,-149.07 1651.06,-152.57 1651.06,-145.57"/>
</a>
</g>
</g>
<!-- Node3 -->
<g id="Node000003" class="node">
<title>Node3</title>
<g id="a_Node000003"><a xlink:href="class_acts_1_1_surface.html" target="_top" xlink:title="Abstract Base Class for tracking surfaces.">
<polygon fill="white" stroke="#666666" points="1503,-251.57 1423,-251.57 1423,-232.57 1503,-232.57 1503,-251.57"/>
<text text-anchor="middle" x="1463" y="-239.57" font-family="Helvetica,sans-Serif" font-size="10.00">Acts::Surface</text>
</a>
</g>
</g>
<!-- Node3&#45;&gt;Node2 -->
<g id="edge2_Node000002_Node000003" class="edge">
<title>Node3&#45;&gt;Node2</title>
<g id="a_edge2_Node000002_Node000003"><a xlink:title=" ">
<path fill="none" stroke="#63b8ff" d="M1485.07,-226.46C1511.14,-207.14 1554.74,-174.83 1576.42,-158.76"/>
<polygon fill="#63b8ff" stroke="#63b8ff" points="1482.91,-223.7 1476.96,-232.47 1487.08,-229.33 1482.91,-223.7"/>
</a>
</g>
</g>
<!-- Node4 -->
<g id="Node000004" class="node">
<title>Node4</title>
<g id="a_Node000004"><a xlink:href="class_acts_1_1_geometry_object.html" target="_top" xlink:title="Base class to provide GeometryIdentifier interface:">
<polygon fill="white" stroke="#666666" points="374,-383.57 250,-383.57 250,-364.57 374,-364.57 374,-383.57"/>
<text text-anchor="middle" x="312" y="-371.57" font-family="Helvetica,sans-Serif" font-size="10.00">Acts::GeometryObject</text>
</a>
</g>
</g>
<!-- Node4&#45;&gt;Node3 -->
<g id="edge3_Node000003_Node000004" class="edge">
<title>Node4&#45;&gt;Node3</title>
<g id="a_edge3_Node000003_Node000004"><a xlink:title=" ">
<path fill="none" stroke="#63b8ff" d="M327.17,-391.48C352.41,-420.37 408.21,-475.07 469,-475.07 469,-475.07 469,-475.07 1179.5,-475.07 1280.39,-475.07 1328.39,-514.71 1405,-449.07 1436.14,-422.39 1455.85,-288.69 1460.78,-251.62"/>
<polygon fill="#63b8ff" stroke="#63b8ff" points="329.76,-389.11 320.62,-383.75 324.42,-393.64 329.76,-389.11"/>
</a>
</g>
</g>
<!-- Node12 -->
<g id="Node000012" class="node">
<title>Node12</title>
<g id="a_Node000012"><a xlink:href="class_acts_1_1_layer.html" target="_top" xlink:title="Base Class for a Detector Layer in the Tracking Geometry.">
<polygon fill="white" stroke="#666666" points="1214,-249.57 1143,-249.57 1143,-230.57 1214,-230.57 1214,-249.57"/>
<text text-anchor="middle" x="1178.5" y="-237.57" font-family="Helvetica,sans-Serif" font-size="10.00">Acts::Layer</text>
</a>
</g>
</g>
<!-- Node4&#45;&gt;Node12 -->
<g id="edge12_Node000012_Node000004" class="edge">
<title>Node4&#45;&gt;Node12</title>
<g id="a_edge12_Node000012_Node000004"><a xlink:title=" ">
<path fill="none" stroke="#63b8ff" d="M369.8,-362.66C383.27,-360.23 397.61,-357.86 411,-356.07 448.2,-351.11 1053.35,-319.73 1084,-298.07 1099.59,-287.05 1087.31,-271.26 1102,-259.07 1113.34,-249.66 1128.71,-244.82 1142.62,-242.37"/>
<polygon fill="#63b8ff" stroke="#63b8ff" points="368.91,-359.27 359.71,-364.53 370.18,-366.15 368.91,-359.27"/>
</a>
</g>
</g>
<!-- Node19 -->
<g id="Node000019" class="node">
<title>Node19</title>
<g id="a_Node000019"><a xlink:href="class_acts_1_1_volume.html" target="_top" xlink:title="It inherits from GeometryObject for geometry identification.">
<polygon fill="white" stroke="#666666" points="510,-383.57 430,-383.57 430,-364.57 510,-364.57 510,-383.57"/>
<text text-anchor="middle" x="470" y="-371.57" font-family="Helvetica,sans-Serif" font-size="10.00">Acts::Volume</text>
</a>
</g>
</g>
<!-- Node4&#45;&gt;Node19 -->
<g id="edge22_Node000019_Node000004" class="edge">
<title>Node4&#45;&gt;Node19</title>
<g id="a_edge22_Node000019_Node000004"><a xlink:title=" ">
<path fill="none" stroke="#63b8ff" d="M384.44,-374.07C400.12,-374.07 416.16,-374.07 430,-374.07"/>
<polygon fill="#63b8ff" stroke="#63b8ff" points="384.21,-370.57 374.21,-374.07 384.21,-377.57 384.21,-370.57"/>
</a>
</g>
</g>
<!-- Node5 -->
<g id="Node000005" class="node">
<title>Node5</title>
<g id="a_Node000005"><a xlink:href="class_acts_1_1_geometry_identifier.html" target="_top" xlink:title="Identifier for geometry nodes within the geometry hierarchy.">
<polygon fill="white" stroke="#666666" points="136,-383.57 0,-383.57 0,-364.57 136,-364.57 136,-383.57"/>
<text text-anchor="middle" x="68" y="-371.57" font-family="Helvetica,sans-Serif" font-size="10.00">Acts::GeometryIdentifier</text>
</a>
</g>
</g>
<!-- Node5&#45;&gt;Node4 -->
<g id="edge4_Node000004_Node000005" class="edge">
<title>Node5&#45;&gt;Node4</title>
<g id="a_edge4_Node000004_Node000005"><a xlink:title=" ">
<path fill="none" stroke="#9a32cd" stroke-dasharray="5,2" d="M146.31,-374.07C179.84,-374.07 218.54,-374.07 249.99,-374.07"/>
<polygon fill="#9a32cd" stroke="#9a32cd" points="146.09,-370.57 136.09,-374.07 146.09,-377.57 146.09,-370.57"/>
</a>
</g>
<text text-anchor="start" x="157" y="-379.57" font-family="Helvetica,sans-Serif" font-size="10.00" fill="grey">m_geometryId</text>
</g>
<!-- Node6 -->
<g id="Node000006" class="node">
<title>Node6</title>
<g id="a_Node000006"><a xlink:title=" ">
<polygon fill="white" stroke="#666666" points="1242.5,-298.07 1114.5,-298.07 1114.5,-268.07 1242.5,-268.07 1242.5,-298.07"/>
<text text-anchor="start" x="1122.5" y="-286.07" font-family="Helvetica,sans-Serif" font-size="10.00">std::enable_shared</text>
<text text-anchor="middle" x="1178.5" y="-275.07" font-family="Helvetica,sans-Serif" font-size="10.00">_from_this&lt; Surface &gt;</text>
</a>
</g>
</g>
<!-- Node6&#45;&gt;Node3 -->
<g id="edge5_Node000003_Node000006" class="edge">
<title>Node6&#45;&gt;Node3</title>
<g id="a_edge5_Node000003_Node000006"><a xlink:title=" ">
<path fill="none" stroke="#63b8ff" d="M1252.96,-280.77C1297.39,-278.26 1354.93,-273.01 1405,-262.07 1416.37,-259.59 1428.6,-255.5 1438.8,-251.66"/>
<polygon fill="#63b8ff" stroke="#63b8ff" points="1252.63,-277.28 1242.83,-281.31 1253,-284.27 1252.63,-277.28"/>
</a>
</g>
</g>
<!-- Node7 -->
<g id="Node000007" class="node">
<title>Node7</title>
<g id="a_Node000007"><a xlink:title=" ">
<polygon fill="white" stroke="#666666" points="1255,-446.57 1102,-446.57 1102,-405.57 1255,-405.57 1255,-446.57"/>
<text text-anchor="start" x="1110" y="-434.57" font-family="Helvetica,sans-Serif" font-size="10.00">std::array&lt; std::string</text>
<text text-anchor="start" x="1110" y="-423.57" font-family="Helvetica,sans-Serif" font-size="10.00">_view, Surface::SurfaceType</text>
<text text-anchor="middle" x="1178.5" y="-412.57" font-family="Helvetica,sans-Serif" font-size="10.00">::Other+1 &gt;</text>
</a>
</g>
</g>
<!-- Node7&#45;&gt;Node3 -->
<g id="edge6_Node000003_Node000007" class="edge">
<title>Node7&#45;&gt;Node3</title>
<g id="a_edge6_Node000003_Node000007"><a xlink:title=" ">
<path fill="none" stroke="#9a32cd" stroke-dasharray="5,2" d="M1265.41,-429.15C1311.39,-426.47 1366.35,-415.75 1405,-384.07 1447.53,-349.21 1458.55,-277.88 1461.21,-251.85"/>
<polygon fill="#9a32cd" stroke="#9a32cd" points="1264.97,-425.67 1255.14,-429.63 1265.3,-432.66 1264.97,-425.67"/>
</a>
</g>
<text text-anchor="start" x="1287" y="-433.57" font-family="Helvetica,sans-Serif" font-size="10.00" fill="grey">s_surfaceTypeNames</text>
</g>
<!-- Node8 -->
<g id="Node000008" class="node">
<title>Node8</title>
<g id="a_Node000008"><a xlink:title=" ">
<polygon fill="white" stroke="#666666" points="869,-422.57 777,-422.57 777,-403.57 869,-403.57 869,-422.57"/>
<text text-anchor="middle" x="823" y="-410.57" font-family="Helvetica,sans-Serif" font-size="10.00">std::array&lt; T &gt;</text>
</a>
</g>
</g>
<!-- Node8&#45;&gt;Node7 -->
<g id="edge7_Node000007_Node000008" class="edge">
<title>Node8&#45;&gt;Node7</title>
<g id="a_edge7_Node000007_Node000008"><a xlink:title=" ">
<path fill="none" stroke="orange" stroke-dasharray="5,2" d="M879.29,-411.3C931.97,-410.09 1013.48,-409.43 1084,-414.07 1089.8,-414.45 1095.78,-414.96 1101.8,-415.55"/>
<polygon fill="orange" stroke="orange" points="879.06,-407.81 869.15,-411.55 879.23,-414.81 879.06,-407.81"/>
</a>
</g>
<text text-anchor="start" x="945" y="-449.57" font-family="Helvetica,sans-Serif" font-size="10.00" fill="grey">&lt; std::string_view,</text>
<text text-anchor="start" x="945" y="-434.57" font-family="Helvetica,sans-Serif" font-size="10.00" fill="grey">   Surface::SurfaceType</text>
<text text-anchor="start" x="945" y="-419.57" font-family="Helvetica,sans-Serif" font-size="10.00" fill="grey">  ::Other+1 &gt;</text>
</g>
<!-- Node9 -->
<g id="Node000009" class="node">
<title>Node9</title>
<g id="a_Node000009"><a xlink:title=" ">
<polygon fill="white" stroke="#666666" points="1064.5,-97.07 937.5,-97.07 937.5,-67.07 1064.5,-67.07 1064.5,-97.07"/>
<text text-anchor="start" x="945.5" y="-85.07" font-family="Helvetica,sans-Serif" font-size="10.00">std::unique_ptr&lt; const</text>
<text text-anchor="middle" x="1001" y="-74.07" font-family="Helvetica,sans-Serif" font-size="10.00"> Transform3 &gt;</text>
</a>
</g>
</g>
<!-- Node9&#45;&gt;Node3 -->
<g id="edge8_Node000003_Node000009" class="edge">
<title>Node9&#45;&gt;Node3</title>
<g id="a_edge8_Node000003_Node000009"><a xlink:title=" ">
<path fill="none" stroke="#9a32cd" stroke-dasharray="5,2" d="M1074.5,-98.6C1077.72,-99.42 1080.89,-100.24 1084,-101.07 1228.01,-139.47 1272.49,-129.85 1405,-198.07 1423.01,-207.34 1441.05,-222.5 1451.87,-232.38"/>
<polygon fill="#9a32cd" stroke="#9a32cd" points="1075.33,-95.2 1064.78,-96.17 1073.64,-101.99 1075.33,-95.2"/>
</a>
</g>
<text text-anchor="start" x="1146.5" y="-145.57" font-family="Helvetica,sans-Serif" font-size="10.00" fill="grey">m_transform</text>
</g>
<!-- Node10 -->
<g id="Node000010" class="node">
<title>Node10</title>
<g id="a_Node000010"><a xlink:title=" ">
<polygon fill="white" stroke="#666666" points="529,-182.57 411,-182.57 411,-163.57 529,-163.57 529,-182.57"/>
<text text-anchor="middle" x="470" y="-170.57" font-family="Helvetica,sans-Serif" font-size="10.00">std::unique_ptr&lt; T &gt;</text>
</a>
</g>
</g>
<!-- Node10&#45;&gt;Node9 -->
<g id="edge9_Node000009_Node000010" class="edge">
<title>Node10&#45;&gt;Node9</title>
<g id="a_edge9_Node000009_Node000010"><a xlink:title=" ">
<path fill="none" stroke="orange" stroke-dasharray="5,2" d="M491.78,-157.43C506.49,-147.08 527.06,-134 547,-126.07 678.43,-73.8 847.54,-73.12 937.38,-77.43"/>
<polygon fill="orange" stroke="orange" points="489.5,-154.76 483.44,-163.45 493.6,-160.43 489.5,-154.76"/>
</a>
</g>
<text text-anchor="start" x="584.5" y="-131.57" font-family="Helvetica,sans-Serif" font-size="10.00" fill="grey">&lt; const Transform3 &gt;</text>
</g>
<!-- Node16 -->
<g id="Node000016" class="node">
<title>Node16</title>
<g id="a_Node000016"><a xlink:title=" ">
<polygon fill="white" stroke="#666666" points="886.5,-258.07 759.5,-258.07 759.5,-228.07 886.5,-228.07 886.5,-258.07"/>
<text text-anchor="start" x="767.5" y="-246.07" font-family="Helvetica,sans-Serif" font-size="10.00">std::unique_ptr&lt; const</text>
<text text-anchor="middle" x="823" y="-235.07" font-family="Helvetica,sans-Serif" font-size="10.00"> Acts::SurfaceArray &gt;</text>
</a>
</g>
</g>
<!-- Node10&#45;&gt;Node16 -->
<g id="edge17_Node000016_Node000010" class="edge">
<title>Node10&#45;&gt;Node16</title>
<g id="a_edge17_Node000016_Node000010"><a xlink:title=" ">
<path fill="none" stroke="orange" stroke-dasharray="5,2" d="M495.5,-187.6C509.99,-195.52 528.98,-204.77 547,-210.07 617.92,-230.95 702.85,-238.65 759.38,-241.47"/>
<polygon fill="orange" stroke="orange" points="497.11,-184.49 486.68,-182.64 493.68,-190.59 497.11,-184.49"/>
</a>
</g>
<text text-anchor="start" x="566.5" y="-244.57" font-family="Helvetica,sans-Serif" font-size="10.00" fill="grey">&lt; const Acts::SurfaceArray &gt;</text>
</g>
<!-- Node17 -->
<g id="Node000017" class="node">
<title>Node17</title>
<g id="a_Node000017"><a xlink:title=" ">
<polygon fill="white" stroke="#666666" points="900,-210.07 746,-210.07 746,-180.07 900,-180.07 900,-210.07"/>
<text text-anchor="start" x="754" y="-198.07" font-family="Helvetica,sans-Serif" font-size="10.00">std::unique_ptr&lt; const</text>
<text text-anchor="middle" x="823" y="-187.07" font-family="Helvetica,sans-Serif" font-size="10.00"> Acts::ApproachDescriptor &gt;</text>
</a>
</g>
</g>
<!-- Node10&#45;&gt;Node17 -->
<g id="edge19_Node000017_Node000010" class="edge">
<title>Node10&#45;&gt;Node17</title>
<g id="a_edge19_Node000017_Node000010"><a xlink:title=" ">
<path fill="none" stroke="orange" stroke-dasharray="5,2" d="M539.36,-177.36C598.6,-181.07 684.23,-186.44 745.69,-190.29"/>
<polygon fill="orange" stroke="orange" points="539.55,-173.86 529.35,-176.73 539.12,-180.85 539.55,-173.86"/>
</a>
</g>
<text text-anchor="start" x="550.5" y="-194.57" font-family="Helvetica,sans-Serif" font-size="10.00" fill="grey">&lt; const Acts::ApproachDescriptor &gt;</text>
</g>
<!-- Node20 -->
<g id="Node000020" class="node">
<title>Node20</title>
<g id="a_Node000020"><a xlink:title=" ">
<polygon fill="white" stroke="#666666" points="884,-162.07 762,-162.07 762,-132.07 884,-132.07 884,-162.07"/>
<text text-anchor="start" x="770" y="-150.07" font-family="Helvetica,sans-Serif" font-size="10.00">std::unique_ptr&lt; Acts</text>
<text text-anchor="middle" x="823" y="-139.07" font-family="Helvetica,sans-Serif" font-size="10.00">::Volume &gt;</text>
</a>
</g>
</g>
<!-- Node10&#45;&gt;Node20 -->
<g id="edge24_Node000020_Node000010" class="edge">
<title>Node10&#45;&gt;Node20</title>
<g id="a_edge24_Node000020_Node000010"><a xlink:title=" ">
<path fill="none" stroke="orange" stroke-dasharray="5,2" d="M519.81,-161.51C528.8,-159.75 538.15,-158.15 547,-157.07 620.62,-148.05 706.08,-146.29 761.95,-146.31"/>
<polygon fill="orange" stroke="orange" points="518.93,-158.12 509.84,-163.56 520.34,-164.97 518.93,-158.12"/>
</a>
</g>
<text text-anchor="start" x="594.5" y="-162.57" font-family="Helvetica,sans-Serif" font-size="10.00" fill="grey">&lt; Acts::Volume &gt;</text>
</g>
<!-- Node11 -->
<g id="Node000011" class="node">
<title>Node11</title>
<g id="a_Node000011"><a xlink:href="class_acts_1_1_detector_element_base.html" target="_top" xlink:title="This class is the base of all detector elements that are usable by ACTS.">
<polygon fill="white" stroke="#666666" points="1253.5,-211.57 1103.5,-211.57 1103.5,-192.57 1253.5,-192.57 1253.5,-211.57"/>
<text text-anchor="middle" x="1178.5" y="-199.57" font-family="Helvetica,sans-Serif" font-size="10.00">Acts::DetectorElementBase</text>
</a>
</g>
</g>
<!-- Node11&#45;&gt;Node3 -->
<g id="edge10_Node000003_Node000011" class="edge">
<title>Node11&#45;&gt;Node3</title>
<g id="a_edge10_Node000003_Node000011"><a xlink:title=" ">
<path fill="none" stroke="#9a32cd" stroke-dasharray="5,2" d="M1263.83,-202.29C1306.6,-203.94 1359.08,-208.35 1405,-219.07 1417.99,-222.1 1431.88,-227.66 1442.7,-232.55"/>
<polygon fill="#9a32cd" stroke="#9a32cd" points="1263.86,-198.79 1253.74,-201.95 1263.62,-205.79 1263.86,-198.79"/>
</a>
</g>
<text text-anchor="start" x="1276" y="-224.57" font-family="Helvetica,sans-Serif" font-size="10.00" fill="grey">m_associatedDetElement</text>
</g>
<!-- Node12&#45;&gt;Node3 -->
<g id="edge11_Node000003_Node000012" class="edge">
<title>Node12&#45;&gt;Node3</title>
<g id="a_edge11_Node000003_Node000012"><a xlink:title=" ">
<path fill="none" stroke="#9a32cd" stroke-dasharray="5,2" d="M1224.25,-240.39C1279.05,-240.78 1370.96,-241.43 1423,-241.79"/>
<polygon fill="#9a32cd" stroke="#9a32cd" points="1224.16,-236.89 1214.14,-240.32 1224.11,-243.89 1224.16,-236.89"/>
</a>
</g>
<text text-anchor="start" x="1292" y="-246.57" font-family="Helvetica,sans-Serif" font-size="10.00" fill="grey">m_associatedLayer</text>
</g>
<!-- Node13 -->
<g id="Node000013" class="node">
<title>Node13</title>
<g id="a_Node000013"><a xlink:title=" ">
<polygon fill="white" stroke="#666666" points="885,-306.07 761,-306.07 761,-276.07 885,-276.07 885,-306.07"/>
<text text-anchor="start" x="769" y="-294.07" font-family="Helvetica,sans-Serif" font-size="10.00">std::pair&lt; const Layer</text>
<text text-anchor="middle" x="823" y="-283.07" font-family="Helvetica,sans-Serif" font-size="10.00"> *, const Layer * &gt;</text>
</a>
</g>
</g>
<!-- Node13&#45;&gt;Node12 -->
<g id="edge13_Node000012_Node000013" class="edge">
<title>Node13&#45;&gt;Node12</title>
<g id="a_edge13_Node000012_Node000013"><a xlink:title=" ">
<path fill="none" stroke="#9a32cd" stroke-dasharray="5,2" d="M895.28,-283.27C947.63,-277.23 1020.39,-268.22 1084,-258.07 1103.59,-254.95 1125.36,-250.79 1142.96,-247.27"/>
<polygon fill="#9a32cd" stroke="#9a32cd" points="894.63,-279.82 885.1,-284.43 895.43,-286.77 894.63,-279.82"/>
</a>
</g>
<text text-anchor="start" x="966" y="-284.57" font-family="Helvetica,sans-Serif" font-size="10.00" fill="grey">m_nextLayers</text>
</g>
<!-- Node14 -->
<g id="Node000014" class="node">
<title>Node14</title>
<g id="a_Node000014"><a xlink:title=" ">
<polygon fill="white" stroke="#666666" points="524.5,-296.57 415.5,-296.57 415.5,-277.57 524.5,-277.57 524.5,-296.57"/>
<text text-anchor="middle" x="470" y="-284.57" font-family="Helvetica,sans-Serif" font-size="10.00">std::pair&lt; T1, T2 &gt;</text>
</a>
</g>
</g>
<!-- Node14&#45;&gt;Node13 -->
<g id="edge14_Node000013_Node000014" class="edge">
<title>Node14&#45;&gt;Node13</title>
<g id="a_edge14_Node000013_Node000014"><a xlink:title=" ">
<path fill="none" stroke="orange" stroke-dasharray="5,2" d="M534.74,-286.82C586.75,-286.74 662.13,-286.89 728,-288.07 738.61,-288.26 749.89,-288.55 760.82,-288.87"/>
<polygon fill="orange" stroke="orange" points="534.65,-283.32 524.66,-286.84 534.66,-290.32 534.65,-283.32"/>
</a>
</g>
<text text-anchor="start" x="583.5" y="-309.07" font-family="Helvetica,sans-Serif" font-size="10.00" fill="grey">&lt; const Layer *, const</text>
<text text-anchor="start" x="583.5" y="-294.07" font-family="Helvetica,sans-Serif" font-size="10.00" fill="grey">   Layer * &gt;</text>
</g>
<!-- Node15 -->
<g id="Node000015" class="node">
<title>Node15</title>
<g id="a_Node000015"><a xlink:href="class_acts_1_1_bin_utility.html" target="_top" xlink:title="The BinUtility class that translated global and local position into a bins of a BinnedArray,...">
<polygon fill="white" stroke="#666666" points="867.5,-113.57 778.5,-113.57 778.5,-94.57 867.5,-94.57 867.5,-113.57"/>
<text text-anchor="middle" x="823" y="-101.57" font-family="Helvetica,sans-Serif" font-size="10.00">Acts::BinUtility</text>
</a>
</g>
</g>
<!-- Node15&#45;&gt;Node12 -->
<g id="edge15_Node000012_Node000015" class="edge">
<title>Node15&#45;&gt;Node12</title>
<g id="a_edge15_Node000012_Node000015"><a xlink:title=" ">
<path fill="none" stroke="#9a32cd" stroke-dasharray="5,2" d="M878,-101.73C945.23,-100.03 1054.78,-101.61 1084,-128.07 1115.21,-156.33 1073.07,-190.49 1102,-221.07 1112.5,-232.17 1128.44,-237.17 1142.97,-239.29"/>
<polygon fill="#9a32cd" stroke="#9a32cd" points="877.49,-98.24 867.6,-102.03 877.69,-105.24 877.49,-98.24"/>
</a>
</g>
<text text-anchor="start" x="954" y="-133.57" font-family="Helvetica,sans-Serif" font-size="10.00" fill="grey">m_nextLayerUtility</text>
</g>
<!-- Node16&#45;&gt;Node12 -->
<g id="edge16_Node000012_Node000016" class="edge">
<title>Node16&#45;&gt;Node12</title>
<g id="a_edge16_Node000012_Node000016"><a xlink:title=" ">
<path fill="none" stroke="#9a32cd" stroke-dasharray="5,2" d="M897.04,-241.39C904.13,-241.27 911.2,-241.16 918,-241.07 998.41,-240.06 1092.85,-239.97 1142.66,-240.01"/>
<polygon fill="#9a32cd" stroke="#9a32cd" points="896.63,-237.9 886.7,-241.58 896.76,-244.9 896.63,-237.9"/>
</a>
</g>
<text text-anchor="start" x="962" y="-246.57" font-family="Helvetica,sans-Serif" font-size="10.00" fill="grey">m_surfaceArray</text>
</g>
<!-- Node17&#45;&gt;Node12 -->
<g id="edge18_Node000012_Node000017" class="edge">
<title>Node17&#45;&gt;Node12</title>
<g id="a_edge18_Node000012_Node000017"><a xlink:title=" ">
<path fill="none" stroke="#9a32cd" stroke-dasharray="5,2" d="M910.29,-199.6C961.09,-203.04 1026.45,-208.8 1084,-218.07 1103.59,-221.23 1125.17,-226.2 1142.66,-230.62"/>
<polygon fill="#9a32cd" stroke="#9a32cd" points="910.22,-196.09 900.01,-198.93 909.76,-203.08 910.22,-196.09"/>
</a>
</g>
<text text-anchor="start" x="946" y="-223.57" font-family="Helvetica,sans-Serif" font-size="10.00" fill="grey">m_approachDescriptor</text>
</g>
<!-- Node18 -->
<g id="Node000018" class="node">
<title>Node18</title>
<g id="a_Node000018"><a xlink:href="class_acts_1_1_tracking_volume.html" target="_top" xlink:title="Full Volume description used in Tracking, it inherits from Volume to get the geometrical structure.">
<polygon fill="white" stroke="#666666" points="883.5,-383.57 762.5,-383.57 762.5,-364.57 883.5,-364.57 883.5,-383.57"/>
<text text-anchor="middle" x="823" y="-371.57" font-family="Helvetica,sans-Serif" font-size="10.00">Acts::TrackingVolume</text>
</a>
</g>
</g>
<!-- Node18&#45;&gt;Node3 -->
<g id="edge25_Node000003_Node000018" class="edge">
<title>Node18&#45;&gt;Node3</title>
<g id="a_edge25_Node000003_Node000018"><a xlink:title=" ">
<path fill="none" stroke="#9a32cd" stroke-dasharray="5,2" d="M893.9,-374.87C946.44,-374.56 1020.06,-372.2 1084,-363.07 1229.45,-342.31 1271.96,-346.41 1405,-284.07 1422.81,-275.73 1440.62,-261.41 1451.48,-251.84"/>
<polygon fill="#9a32cd" stroke="#9a32cd" points="893.67,-371.37 883.69,-374.91 893.7,-378.37 893.67,-371.37"/>
</a>
</g>
<text text-anchor="start" x="1106.5" y="-365.57" font-family="Helvetica,sans-Serif" font-size="10.00" fill="grey">m_associatedTrackingVolume</text>
</g>
<!-- Node18&#45;&gt;Node12 -->
<g id="edge20_Node000012_Node000018" class="edge">
<title>Node18&#45;&gt;Node12</title>
<g id="a_edge20_Node000012_Node000018"><a xlink:title=" ">
<path fill="none" stroke="#9a32cd" stroke-dasharray="5,2" d="M861.69,-361.42C878.73,-356.07 899.22,-350.14 918,-346.07 954.4,-338.18 1055.93,-347.55 1084,-323.07 1106.27,-303.65 1080.82,-279.67 1102,-259.07 1112.75,-248.61 1128.38,-243.65 1142.62,-241.38"/>
<polygon fill="#9a32cd" stroke="#9a32cd" points="860.55,-358.11 852.09,-364.48 862.68,-364.77 860.55,-358.11"/>
</a>
</g>
<text text-anchor="start" x="955" y="-351.57" font-family="Helvetica,sans-Serif" font-size="10.00" fill="grey">m_trackingVolume</text>
</g>
<!-- Node19&#45;&gt;Node18 -->
<g id="edge21_Node000018_Node000019" class="edge">
<title>Node19&#45;&gt;Node18</title>
<g id="a_edge21_Node000018_Node000019"><a xlink:title=" ">
<path fill="none" stroke="#63b8ff" d="M520.4,-374.07C583.91,-374.07 694.11,-374.07 762.26,-374.07"/>
<polygon fill="#63b8ff" stroke="#63b8ff" points="520.24,-370.57 510.24,-374.07 520.24,-377.57 520.24,-370.57"/>
</a>
</g>
</g>
<!-- Node20&#45;&gt;Node12 -->
<g id="edge23_Node000012_Node000020" class="edge">
<title>Node20&#45;&gt;Node12</title>
<g id="a_edge23_Node000012_Node000020"><a xlink:title=" ">
<path fill="none" stroke="#9a32cd" stroke-dasharray="5,2" d="M894.25,-147.99C960.86,-150.2 1054.94,-157.25 1084,-179.07 1100.24,-191.27 1086.55,-207.89 1102,-221.07 1113.31,-230.72 1128.84,-235.58 1142.88,-237.99"/>
<polygon fill="#9a32cd" stroke="#9a32cd" points="894.32,-144.49 884.22,-147.68 894.11,-151.48 894.32,-144.49"/>
</a>
</g>
<text text-anchor="start" x="944" y="-184.57" font-family="Helvetica,sans-Serif" font-size="10.00" fill="grey">m_representingVolume</text>
</g>
<!-- Node21 -->
<g id="Node000021" class="node">
<title>Node21</title>
<g id="a_Node000021"><a xlink:title=" ">
<polygon fill="white" stroke="#666666" points="1247.5,-77.07 1109.5,-77.07 1109.5,-47.07 1247.5,-47.07 1247.5,-77.07"/>
<text text-anchor="start" x="1117.5" y="-65.07" font-family="Helvetica,sans-Serif" font-size="10.00">std::shared_ptr&lt; const</text>
<text text-anchor="middle" x="1178.5" y="-54.07" font-family="Helvetica,sans-Serif" font-size="10.00"> Acts::ISurfaceMaterial &gt;</text>
</a>
</g>
</g>
<!-- Node21&#45;&gt;Node3 -->
<g id="edge26_Node000003_Node000021" class="edge">
<title>Node21&#45;&gt;Node3</title>
<g id="a_edge26_Node000003_Node000021"><a xlink:title=" ">
<path fill="none" stroke="#9a32cd" stroke-dasharray="5,2" d="M1257.88,-61.79C1305.18,-65.49 1364.03,-77.45 1405,-111.07 1425.13,-127.59 1450.59,-205.16 1459.09,-232.5"/>
<polygon fill="#9a32cd" stroke="#9a32cd" points="1257.88,-58.28 1247.66,-61.1 1257.41,-65.26 1257.88,-58.28"/>
</a>
</g>
<text text-anchor="start" x="1293" y="-116.57" font-family="Helvetica,sans-Serif" font-size="10.00" fill="grey">m_surfaceMaterial</text>
</g>
<!-- Node22 -->
<g id="Node000022" class="node">
<title>Node22</title>
<g id="a_Node000022"><a xlink:title=" ">
<polygon fill="white" stroke="#666666" points="882,-25.57 764,-25.57 764,-6.57 882,-6.57 882,-25.57"/>
<text text-anchor="middle" x="823" y="-13.57" font-family="Helvetica,sans-Serif" font-size="10.00">std::shared_ptr&lt; T &gt;</text>
</a>
</g>
</g>
<!-- Node22&#45;&gt;Node21 -->
<g id="edge27_Node000021_Node000022" class="edge">
<title>Node22&#45;&gt;Node21</title>
<g id="a_edge27_Node000021_Node000022"><a xlink:title=" ">
<path fill="none" stroke="orange" stroke-dasharray="5,2" d="M892.08,-21.65C956.46,-27.09 1048.35,-35.38 1084,-41.07 1094.27,-42.71 1105.1,-44.8 1115.6,-47.03"/>
<polygon fill="orange" stroke="orange" points="892.26,-18.15 882,-20.8 891.67,-25.12 892.26,-18.15"/>
</a>
</g>
<text text-anchor="start" x="921" y="-46.57" font-family="Helvetica,sans-Serif" font-size="10.00" fill="grey">&lt; const Acts::ISurfaceMaterial &gt;</text>
</g>
<!-- Node23 -->
<g id="Node000023" class="node">
<title>Node23</title>
<g id="a_Node000023"><a xlink:title=" ">
<polygon fill="white" stroke="#666666" points="1402.5,-37.07 1275.5,-37.07 1275.5,-7.07 1402.5,-7.07 1402.5,-37.07"/>
<text text-anchor="start" x="1283.5" y="-25.07" font-family="Helvetica,sans-Serif" font-size="10.00">std::shared_ptr&lt; const</text>
<text text-anchor="middle" x="1339" y="-14.07" font-family="Helvetica,sans-Serif" font-size="10.00"> Acts::LineBounds &gt;</text>
</a>
</g>
</g>
<!-- Node22&#45;&gt;Node23 -->
<g id="edge29_Node000023_Node000022" class="edge">
<title>Node22&#45;&gt;Node23</title>
<g id="a_edge29_Node000023_Node000022"><a xlink:title=" ">
<path fill="none" stroke="orange" stroke-dasharray="5,2" d="M892.15,-5.52C900.83,-4.51 909.61,-3.65 918,-3.07 1044.71,5.65 1193.2,-6.26 1275.33,-14.79"/>
<polygon fill="orange" stroke="orange" points="891.53,-2.07 882.04,-6.77 892.39,-9.02 891.53,-2.07"/>
</a>
</g>
<text text-anchor="start" x="933" y="-8.57" font-family="Helvetica,sans-Serif" font-size="10.00" fill="grey">&lt; const Acts::LineBounds &gt;</text>
</g>
<!-- Node23&#45;&gt;Node2 -->
<g id="edge28_Node000002_Node000023" class="edge">
<title>Node23&#45;&gt;Node2</title>
<g id="a_edge28_Node000002_Node000023"><a xlink:title=" ">
<path fill="none" stroke="#9a32cd" stroke-dasharray="5,2" d="M1378.58,-41.71C1432.89,-69.36 1529.82,-118.69 1570.6,-139.45"/>
<polygon fill="#9a32cd" stroke="#9a32cd" points="1380.1,-38.56 1369.6,-37.14 1376.92,-44.79 1380.1,-38.56"/>
</a>
</g>
<text text-anchor="start" x="1438" y="-110.57" font-family="Helvetica,sans-Serif" font-size="10.00" fill="grey">m_bounds</text>
</g>
</g>
</svg>

<g id="navigator" transform="translate(0 0)" fill="#404254">
  <rect fill="#f2f5e9" fill-opacity="0.5" stroke="#606060" stroke-width=".5" x="0" y="0" width="60" height="60"/>
  <use id="zoomplus" xlink:href="#zoomPlus" x="17" y="9" onmousedown="handleZoom(evt,'in')"/>
  <use id="zoomminus" xlink:href="#zoomMin" x="42" y="9" onmousedown="handleZoom(evt,'out')"/>
  <use id="reset" xlink:href="#resetDef" x="30" y="36" onmousedown="handleReset()"/>
   <use id="arrowup" xlink:href="#arrowUp" x="0" y="0" onmousedown="handlePan(0,-1)"/>
  <use id="arrowright" xlink:href="#arrowRight" x="0" y="0" onmousedown="handlePan(1,0)"/>
  <use id="arrowdown" xlink:href="#arrowDown" x="0" y="0" onmousedown="handlePan(0,1)"/>
  <use id="arrowleft" xlink:href="#arrowLeft" x="0" y="0" onmousedown="handlePan(-1,0)"/>
</g>
<svg viewBox="0 0 15 15" width="100%" height="30px" preserveAspectRatio="xMaxYMin meet">
 <g id="arrow_out" transform="scale(0.3 0.3)">
  <a xlink:href="class_acts_1_1_perigee_surface__coll__graph_org.svg" target="_base">
   <rect id="button" ry="5" rx="5" y="6" x="6" height="38" width="38"
        fill="#f2f5e9" fill-opacity="0.5" stroke="#606060" stroke-width="1.0"/>
   <path id="arrow"
     d="M 11.500037,31.436501 C 11.940474,20.09759 22.043105,11.32322 32.158766,21.979434 L 37.068811,17.246167 C 37.068811,17.246167 37.088388,32 37.088388,32 L 22.160133,31.978069 C 22.160133,31.978069 26.997745,27.140456 26.997745,27.140456 C 18.528582,18.264221 13.291696,25.230495 11.500037,31.436501 z"
     style="fill:#404040;"/>
  </a>
 </g>
</svg>

<style type='text/css'>
<![CDATA[
[data-mouse-over-selected='false'] { opacity: 0.7; }
[data-mouse-over-selected='true']  { opacity: 1.0; }
]]>
</style>
<script type="application/ecmascript"><![CDATA[
document.addEventListener('DOMContentLoaded', (event) => {
  highlightEdges();
  highlightAdjacentNodes();
});
]]></script>
</svg>
