<?xml version="1.0" encoding="UTF-8" standalone="no"?>
<!DOCTYPE svg PUBLIC "-//W3C//DTD SVG 1.1//EN"
 "http://www.w3.org/Graphics/SVG/1.1/DTD/svg11.dtd">
<!-- Generated by graphviz version 2.43.0 (0)
 -->
<!-- Title: Acts::GeometryHierarchyMap&lt; value_t &gt; Pages: 1 -->
<svg width="552pt" height="291pt"
 viewBox="0.00 0.00 552.00 290.50" xmlns="http://www.w3.org/2000/svg" xmlns:xlink="http://www.w3.org/1999/xlink">
<g id="graph0" class="graph" transform="scale(1 1) rotate(0) translate(4 286.5)">
<title>Acts::GeometryHierarchyMap&lt; value_t &gt;</title>
<!-- Node1 -->
<g id="Node000001" class="node">
<title>Node1</title>
<g id="a_Node000001"><a xlink:title="Store values mapped into the geometry hierarchy.">
<polygon fill="#999999" stroke="#666666" points="161,-165.5 0,-165.5 0,-135.5 161,-135.5 161,-165.5"/>
<text text-anchor="start" x="8" y="-153.5" font-family="Helvetica,sans-Serif" font-size="10.00">Acts::GeometryHierarchyMap</text>
<text text-anchor="middle" x="80.5" y="-142.5" font-family="Helvetica,sans-Serif" font-size="10.00">&lt; value_t &gt;</text>
</a>
</g>
</g>
<!-- Node2 -->
<g id="Node000002" class="node">
<title>Node2</title>
<g id="a_Node000002"><a xlink:href="class_acts_1_1_geometry_hierarchy_map.html" target="_top" xlink:title=" ">
<polygon fill="white" stroke="#666666" points="533.5,-282.5 365.5,-282.5 365.5,-252.5 533.5,-252.5 533.5,-282.5"/>
<text text-anchor="start" x="373.5" y="-270.5" font-family="Helvetica,sans-Serif" font-size="10.00">Acts::GeometryHierarchyMap</text>
<text text-anchor="middle" x="449.5" y="-259.5" font-family="Helvetica,sans-Serif" font-size="10.00">&lt; MeasurementSelectorCuts &gt;</text>
</a>
</g>
</g>
<!-- Node1&#45;&gt;Node2 -->
<g id="edge1_Node000001_Node000002" class="edge">
<title>Node1&#45;&gt;Node2</title>
<g id="a_edge1_Node000001_Node000002"><a xlink:title=" ">
<path fill="none" stroke="orange" stroke-dasharray="5,2" d="M102.14,-173.34C120.41,-191.98 148.8,-217.31 179,-230.5 237.97,-256.25 310.51,-265.08 365.47,-267.69"/>
<polygon fill="orange" stroke="orange" points="104.39,-170.63 94.96,-165.82 99.33,-175.47 104.39,-170.63"/>
</a>
</g>
<text text-anchor="start" x="182" y="-271" font-family="Helvetica,sans-Serif" font-size="10.00" fill="grey">&lt; MeasurementSelectorCuts &gt;</text>
</g>
<!-- Node3 -->
<g id="Node000003" class="node">
<title>Node3</title>
<g id="a_Node000003"><a xlink:href="class_acts_1_1_geometry_hierarchy_map.html" target="_top" xlink:title=" ">
<polygon fill="white" stroke="#666666" points="530,-234.5 369,-234.5 369,-204.5 530,-204.5 530,-234.5"/>
<text text-anchor="start" x="377" y="-222.5" font-family="Helvetica,sans-Serif" font-size="10.00">Acts::GeometryHierarchyMap</text>
<text text-anchor="middle" x="449.5" y="-211.5" font-family="Helvetica,sans-Serif" font-size="10.00">&lt; InternalCutBins &gt;</text>
</a>
</g>
</g>
<!-- Node1&#45;&gt;Node3 -->
<g id="edge2_Node000001_Node000003" class="edge">
<title>Node1&#45;&gt;Node3</title>
<g id="a_edge2_Node000001_Node000003"><a xlink:title=" ">
<path fill="none" stroke="orange" stroke-dasharray="5,2" d="M127.22,-169.25C143.35,-175.24 161.76,-181.37 179,-185.5 241.95,-200.58 314.86,-209.26 368.96,-214.07"/>
<polygon fill="orange" stroke="orange" points="128.09,-165.84 117.5,-165.56 125.61,-172.38 128.09,-165.84"/>
</a>
</g>
<text text-anchor="start" x="209" y="-215" font-family="Helvetica,sans-Serif" font-size="10.00" fill="grey">&lt; InternalCutBins &gt;</text>
</g>
<!-- Node4 -->
<g id="Node000004" class="node">
<title>Node4</title>
<g id="a_Node000004"><a xlink:href="class_acts_1_1_geometry_hierarchy_map.html" target="_top" xlink:title=" ">
<polygon fill="white" stroke="#666666" points="530,-186.5 369,-186.5 369,-156.5 530,-156.5 530,-186.5"/>
<text text-anchor="start" x="377" y="-174.5" font-family="Helvetica,sans-Serif" font-size="10.00">Acts::GeometryHierarchyMap</text>
<text text-anchor="middle" x="449.5" y="-163.5" font-family="Helvetica,sans-Serif" font-size="10.00">&lt; LocalVeto &gt;</text>
</a>
</g>
</g>
<!-- Node1&#45;&gt;Node4 -->
<g id="edge3_Node000001_Node000004" class="edge">
<title>Node1&#45;&gt;Node4</title>
<g id="a_edge3_Node000001_Node000004"><a xlink:title=" ">
<path fill="none" stroke="orange" stroke-dasharray="5,2" d="M171.42,-155.65C231.77,-159.1 310.58,-163.61 368.71,-166.93"/>
<polygon fill="orange" stroke="orange" points="171.32,-152.13 161.13,-155.06 170.92,-159.12 171.32,-152.13"/>
</a>
</g>
<text text-anchor="start" x="223" y="-170" font-family="Helvetica,sans-Serif" font-size="10.00" fill="grey">&lt; LocalVeto &gt;</text>
</g>
<!-- Node5 -->
<g id="Node000005" class="node">
<title>Node5</title>
<g id="a_Node000005"><a xlink:href="class_acts_1_1_geometry_hierarchy_map.html" target="_top" xlink:title=" ">
<polygon fill="white" stroke="#666666" points="530,-138.5 369,-138.5 369,-108.5 530,-108.5 530,-138.5"/>
<text text-anchor="start" x="377" y="-126.5" font-family="Helvetica,sans-Serif" font-size="10.00">Acts::GeometryHierarchyMap</text>
<text text-anchor="middle" x="449.5" y="-115.5" font-family="Helvetica,sans-Serif" font-size="10.00">&lt; ReAssignment &gt;</text>
</a>
</g>
</g>
<!-- Node1&#45;&gt;Node5 -->
<g id="edge4_Node000001_Node000005" class="edge">
<title>Node1&#45;&gt;Node5</title>
<g id="a_edge4_Node000001_Node000005"><a xlink:title=" ">
<path fill="none" stroke="orange" stroke-dasharray="5,2" d="M171.29,-135.35C173.89,-135.04 176.46,-134.76 179,-134.5 242.59,-128.01 314.99,-125.31 368.72,-124.21"/>
<polygon fill="orange" stroke="orange" points="170.7,-131.89 161.21,-136.61 171.57,-138.84 170.7,-131.89"/>
</a>
</g>
<text text-anchor="start" x="211" y="-140" font-family="Helvetica,sans-Serif" font-size="10.00" fill="grey">&lt; ReAssignment &gt;</text>
</g>
<!-- Node6 -->
<g id="Node000006" class="node">
<title>Node6</title>
<g id="a_Node000006"><a xlink:href="class_acts_1_1_geometry_hierarchy_map.html" target="_top" xlink:title=" ">
<polygon fill="white" stroke="#666666" points="530,-90.5 369,-90.5 369,-60.5 530,-60.5 530,-90.5"/>
<text text-anchor="start" x="377" y="-78.5" font-family="Helvetica,sans-Serif" font-size="10.00">Acts::GeometryHierarchyMap</text>
<text text-anchor="middle" x="449.5" y="-67.5" font-family="Helvetica,sans-Serif" font-size="10.00">&lt; ActsPlugins::Svg::Style &gt;</text>
</a>
</g>
</g>
<!-- Node1&#45;&gt;Node6 -->
<g id="edge5_Node000001_Node000006" class="edge">
<title>Node1&#45;&gt;Node6</title>
<g id="a_edge5_Node000001_Node000006"><a xlink:title=" ">
<path fill="none" stroke="orange" stroke-dasharray="5,2" d="M107.08,-128.96C125.73,-114.64 152.31,-96.97 179,-88.5 240.61,-68.95 314.11,-66.7 368.78,-68.78"/>
<polygon fill="orange" stroke="orange" points="104.78,-126.32 99.1,-135.26 109.12,-131.81 104.78,-126.32"/>
</a>
</g>
<text text-anchor="start" x="212" y="-109.5" font-family="Helvetica,sans-Serif" font-size="10.00" fill="grey">&lt; ActsPlugins::Svg</text>
<text text-anchor="start" x="212" y="-94.5" font-family="Helvetica,sans-Serif" font-size="10.00" fill="grey">  ::Style &gt;</text>
</g>
<!-- Node7 -->
<g id="Node000007" class="node">
<title>Node7</title>
<g id="a_Node000007"><a xlink:href="class_acts_1_1_geometry_hierarchy_map.html" target="_top" xlink:title=" ">
<polygon fill="white" stroke="#666666" points="544,-41 355,-41 355,0 544,0 544,-41"/>
<text text-anchor="start" x="363" y="-29" font-family="Helvetica,sans-Serif" font-size="10.00">Acts::GeometryHierarchyMap</text>
<text text-anchor="start" x="363" y="-18" font-family="Helvetica,sans-Serif" font-size="10.00">&lt; ActsPlugins::Svg::LayerConverter</text>
<text text-anchor="middle" x="449.5" y="-7" font-family="Helvetica,sans-Serif" font-size="10.00">::Options &gt;</text>
</a>
</g>
</g>
<!-- Node1&#45;&gt;Node7 -->
<g id="edge6_Node000001_Node000007" class="edge">
<title>Node1&#45;&gt;Node7</title>
<g id="a_edge6_Node000001_Node000007"><a xlink:title=" ">
<path fill="none" stroke="orange" stroke-dasharray="5,2" d="M93.48,-126.22C108.91,-97.97 138.61,-52.63 179,-32.5 232.97,-5.6 300.82,-2.72 354.94,-6.51"/>
<polygon fill="orange" stroke="orange" points="90.37,-124.61 88.8,-135.09 96.57,-127.88 90.37,-124.61"/>
</a>
</g>
<text text-anchor="start" x="187" y="-53.5" font-family="Helvetica,sans-Serif" font-size="10.00" fill="grey">&lt; ActsPlugins::Svg</text>
<text text-anchor="start" x="187" y="-38.5" font-family="Helvetica,sans-Serif" font-size="10.00" fill="grey">  ::LayerConverter::Options &gt;</text>
</g>
</g>
</svg>
