<?xml version="1.0" encoding="UTF-8" standalone="no"?>
<!DOCTYPE svg PUBLIC "-//W3C//DTD SVG 1.1//EN"
 "http://www.w3.org/Graphics/SVG/1.1/DTD/svg11.dtd">
<!-- Generated by graphviz version 2.43.0 (0)
 -->
<!-- Title: Acts::ITrackingGeometryVisitor Pages: 1 -->
<svg width="609pt" height="86pt"
 viewBox="0.00 0.00 609.00 86.00" xmlns="http://www.w3.org/2000/svg" xmlns:xlink="http://www.w3.org/1999/xlink">
<g id="graph0" class="graph" transform="scale(1 1) rotate(0) translate(4 82)">
<title>Acts::ITrackingGeometryVisitor</title>
<!-- Node1 -->
<g id="Node000001" class="node">
<title>Node1</title>
<g id="a_Node000001"><a xlink:title="Base class for tracking geometry visitors.">
<polygon fill="#999999" stroke="#666666" points="167,-47.5 0,-47.5 0,-28.5 167,-28.5 167,-47.5"/>
<text text-anchor="middle" x="83.5" y="-35.5" font-family="Helvetica,sans-Serif" font-size="10.00">Acts::ITrackingGeometryVisitor</text>
</a>
</g>
</g>
<!-- Node2 -->
<g id="Node000002" class="node">
<title>Node2</title>
<g id="a_Node000002"><a xlink:href="class_acts_1_1_tracking_geometry_mutable_visitor.html" target="_top" xlink:title="Mutable visitor interface for modifying the tracking geometry hierarchy.">
<polygon fill="white" stroke="#666666" points="376,-76 203,-76 203,-46 376,-46 376,-76"/>
<text text-anchor="start" x="211" y="-64" font-family="Helvetica,sans-Serif" font-size="10.00">Acts::TrackingGeometryMutable</text>
<text text-anchor="middle" x="289.5" y="-53" font-family="Helvetica,sans-Serif" font-size="10.00">Visitor</text>
</a>
</g>
</g>
<!-- Node1&#45;&gt;Node2 -->
<g id="edge1_Node000001_Node000002" class="edge">
<title>Node1&#45;&gt;Node2</title>
<g id="a_edge1_Node000001_Node000002"><a xlink:title=" ">
<path fill="none" stroke="#63b8ff" d="M177.13,-48.44C185.65,-49.4 194.26,-50.37 202.71,-51.33"/>
<polygon fill="#63b8ff" stroke="#63b8ff" points="177.51,-44.96 167.18,-47.32 176.73,-51.92 177.51,-44.96"/>
</a>
</g>
</g>
<!-- Node4 -->
<g id="Node000004" class="node">
<title>Node4</title>
<g id="a_Node000004"><a xlink:href="class_acts_1_1_tracking_geometry_visitor.html" target="_top" xlink:title="Visitor interface for traversing the tracking geometry hierarchy.">
<polygon fill="white" stroke="#666666" points="371.5,-26.5 207.5,-26.5 207.5,-7.5 371.5,-7.5 371.5,-26.5"/>
<text text-anchor="middle" x="289.5" y="-14.5" font-family="Helvetica,sans-Serif" font-size="10.00">Acts::TrackingGeometryVisitor</text>
</a>
</g>
</g>
<!-- Node1&#45;&gt;Node4 -->
<g id="edge3_Node000001_Node000004" class="edge">
<title>Node1&#45;&gt;Node4</title>
<g id="a_edge3_Node000001_Node000004"><a xlink:title=" ">
<path fill="none" stroke="#63b8ff" d="M177.19,-28.46C187.26,-27.42 197.44,-26.37 207.36,-25.35"/>
<polygon fill="#63b8ff" stroke="#63b8ff" points="176.77,-24.98 167.18,-29.49 177.49,-31.95 176.77,-24.98"/>
</a>
</g>
</g>
<!-- Node3 -->
<g id="Node000003" class="node">
<title>Node3</title>
<g id="a_Node000003"><a xlink:title=" ">
<polygon fill="white" stroke="#666666" points="601,-78 412,-78 412,-48 601,-48 601,-78"/>
<text text-anchor="start" x="420" y="-66" font-family="Helvetica,sans-Serif" font-size="10.00">Acts::detail::TrackingGeometry</text>
<text text-anchor="middle" x="506.5" y="-55" font-family="Helvetica,sans-Serif" font-size="10.00">LambdaMutableVisitor&lt; Callable &gt;</text>
</a>
</g>
</g>
<!-- Node2&#45;&gt;Node3 -->
<g id="edge2_Node000002_Node000003" class="edge">
<title>Node2&#45;&gt;Node3</title>
<g id="a_edge2_Node000002_Node000003"><a xlink:title=" ">
<path fill="none" stroke="#63b8ff" d="M386.32,-61.89C394.76,-61.97 403.3,-62.05 411.72,-62.13"/>
<polygon fill="#63b8ff" stroke="#63b8ff" points="386.12,-58.39 376.09,-61.8 386.06,-65.39 386.12,-58.39"/>
</a>
</g>
</g>
<!-- Node5 -->
<g id="Node000005" class="node">
<title>Node5</title>
<g id="a_Node000005"><a xlink:title=" ">
<polygon fill="white" stroke="#666666" points="590,-30 423,-30 423,0 590,0 590,-30"/>
<text text-anchor="start" x="431" y="-18" font-family="Helvetica,sans-Serif" font-size="10.00">Acts::detail::TrackingGeometry</text>
<text text-anchor="middle" x="506.5" y="-7" font-family="Helvetica,sans-Serif" font-size="10.00">LambdaVisitor&lt; Callable &gt;</text>
</a>
</g>
</g>
<!-- Node4&#45;&gt;Node5 -->
<g id="edge4_Node000004_Node000005" class="edge">
<title>Node4&#45;&gt;Node5</title>
<g id="a_edge4_Node000004_Node000005"><a xlink:title=" ">
<path fill="none" stroke="#63b8ff" d="M382.02,-16.15C395.52,-16.02 409.36,-15.89 422.67,-15.77"/>
<polygon fill="#63b8ff" stroke="#63b8ff" points="381.75,-12.65 371.78,-16.24 381.81,-19.65 381.75,-12.65"/>
</a>
</g>
</g>
</g>
</svg>
