<?xml version="1.0" encoding="UTF-8" standalone="no"?>
<!DOCTYPE svg PUBLIC "-//W3C//DTD SVG 1.1//EN"
 "http://www.w3.org/Graphics/SVG/1.1/DTD/svg11.dtd">
<!-- Generated by graphviz version 2.43.0 (0)
 -->
<!-- Title: Acts::GridPortalLinkT&lt; Axes &gt; Pages: 1 -->
<svg width="199pt" height="305pt"
 viewBox="0.00 0.00 199.00 305.00" xmlns="http://www.w3.org/2000/svg" xmlns:xlink="http://www.w3.org/1999/xlink">
<g id="graph0" class="graph" transform="scale(1 1) rotate(0) translate(4 301)">
<title>Acts::GridPortalLinkT&lt; Axes &gt;</title>
<!-- Node1 -->
<g id="Node000001" class="node">
<title>Node1</title>
<g id="a_Node000001"><a xlink:title="Concrete class deriving from GridPortalLink that boxes a concrete grid for lookup.">
<polygon fill="#999999" stroke="#666666" points="120.5,-30 1.5,-30 1.5,0 120.5,0 120.5,-30"/>
<text text-anchor="start" x="9.5" y="-18" font-family="Helvetica,sans-Serif" font-size="10.00">Acts::GridPortalLinkT</text>
<text text-anchor="middle" x="61" y="-7" font-family="Helvetica,sans-Serif" font-size="10.00">&lt; Axes &gt;</text>
</a>
</g>
</g>
<!-- Node2 -->
<g id="Node000002" class="node">
<title>Node2</title>
<g id="a_Node000002"><a xlink:href="class_acts_1_1_grid_portal_link.html" target="_top" xlink:title="GridPortalLink implements a subdivided surface where the target volume depends on the position on the...">
<polygon fill="white" stroke="#666666" points="117.5,-86 4.5,-86 4.5,-67 117.5,-67 117.5,-86"/>
<text text-anchor="middle" x="61" y="-74" font-family="Helvetica,sans-Serif" font-size="10.00">Acts::GridPortalLink</text>
</a>
</g>
</g>
<!-- Node2&#45;&gt;Node1 -->
<g id="edge1_Node000001_Node000002" class="edge">
<title>Node2&#45;&gt;Node1</title>
<g id="a_edge1_Node000001_Node000002"><a xlink:title=" ">
<path fill="none" stroke="#63b8ff" d="M61,-56.73C61,-48.09 61,-38 61,-30.02"/>
<polygon fill="#63b8ff" stroke="#63b8ff" points="57.5,-56.98 61,-66.98 64.5,-56.98 57.5,-56.98"/>
</a>
</g>
</g>
<!-- Node3 -->
<g id="Node000003" class="node">
<title>Node3</title>
<g id="a_Node000003"><a xlink:href="class_acts_1_1_portal_link_base.html" target="_top" xlink:title="PortalLinkBase is the abstract base class for all portal links.">
<polygon fill="white" stroke="#666666" points="119,-142 3,-142 3,-123 119,-123 119,-142"/>
<text text-anchor="middle" x="61" y="-130" font-family="Helvetica,sans-Serif" font-size="10.00">Acts::PortalLinkBase</text>
</a>
</g>
</g>
<!-- Node3&#45;&gt;Node2 -->
<g id="edge2_Node000002_Node000003" class="edge">
<title>Node3&#45;&gt;Node2</title>
<g id="a_edge2_Node000002_Node000003"><a xlink:title=" ">
<path fill="none" stroke="#63b8ff" d="M61,-112.3C61,-103.41 61,-93.28 61,-86.25"/>
<polygon fill="#63b8ff" stroke="#63b8ff" points="57.5,-112.58 61,-122.58 64.5,-112.58 57.5,-112.58"/>
</a>
</g>
</g>
<!-- Node4 -->
<g id="Node000004" class="node">
<title>Node4</title>
<g id="a_Node000004"><a xlink:title=" ">
<polygon fill="white" stroke="#666666" points="122,-225 0,-225 0,-195 122,-195 122,-225"/>
<text text-anchor="start" x="8" y="-213" font-family="Helvetica,sans-Serif" font-size="10.00">std::shared_ptr&lt; Acts</text>
<text text-anchor="middle" x="61" y="-202" font-family="Helvetica,sans-Serif" font-size="10.00">::RegularSurface &gt;</text>
</a>
</g>
</g>
<!-- Node4&#45;&gt;Node3 -->
<g id="edge3_Node000003_Node000004" class="edge">
<title>Node4&#45;&gt;Node3</title>
<g id="a_edge3_Node000003_Node000004"><a xlink:title=" ">
<path fill="none" stroke="#9a32cd" stroke-dasharray="5,2" d="M61,-184.4C61,-169.81 61,-152.22 61,-142.01"/>
<polygon fill="#9a32cd" stroke="#9a32cd" points="57.5,-184.8 61,-194.8 64.5,-184.8 57.5,-184.8"/>
</a>
</g>
<text text-anchor="start" x="64" y="-165.5" font-family="Helvetica,sans-Serif" font-size="10.00" fill="grey">m_surface</text>
</g>
<!-- Node5 -->
<g id="Node000005" class="node">
<title>Node5</title>
<g id="a_Node000005"><a xlink:title=" ">
<polygon fill="white" stroke="#666666" points="120,-297 2,-297 2,-278 120,-278 120,-297"/>
<text text-anchor="middle" x="61" y="-285" font-family="Helvetica,sans-Serif" font-size="10.00">std::shared_ptr&lt; T &gt;</text>
</a>
</g>
</g>
<!-- Node5&#45;&gt;Node4 -->
<g id="edge4_Node000004_Node000005" class="edge">
<title>Node5&#45;&gt;Node4</title>
<g id="a_edge4_Node000004_Node000005"><a xlink:title=" ">
<path fill="none" stroke="orange" stroke-dasharray="5,2" d="M61,-267.57C61,-254.43 61,-237.18 61,-225.21"/>
<polygon fill="orange" stroke="orange" points="57.5,-267.84 61,-277.84 64.5,-267.84 57.5,-267.84"/>
</a>
</g>
<text text-anchor="start" x="64" y="-248.5" font-family="Helvetica,sans-Serif" font-size="10.00" fill="grey">&lt; Acts::RegularSurface &gt;</text>
</g>
</g>
</svg>
