<?xml version="1.0" encoding="UTF-8" standalone="no"?>
<!DOCTYPE svg PUBLIC "-//W3C//DTD SVG 1.1//EN"
 "http://www.w3.org/Graphics/SVG/1.1/DTD/svg11.dtd">
<!-- Generated by graphviz version 2.43.0 (0)
 -->
<!-- Title: Acts::AnyTrackProxy&lt; read_only &gt; Pages: 1 -->
<svg width="275pt" height="308pt"
 viewBox="0.00 0.00 275.00 308.00" xmlns="http://www.w3.org/2000/svg" xmlns:xlink="http://www.w3.org/1999/xlink">
<g id="graph0" class="graph" transform="scale(1 1) rotate(0) translate(4 304)">
<title>Acts::AnyTrackProxy&lt; read_only &gt;</title>
<!-- Node1 -->
<g id="Node000001" class="node">
<title>Node1</title>
<g id="a_Node000001"><a xlink:title="Type&#45;erased track object This class provides a type&#45;erased interface to track proxies without requiri...">
<polygon fill="#999999" stroke="#666666" points="183,-113 67,-113 67,-83 183,-83 183,-113"/>
<text text-anchor="start" x="75" y="-101" font-family="Helvetica,sans-Serif" font-size="10.00">Acts::AnyTrackProxy</text>
<text text-anchor="middle" x="125" y="-90" font-family="Helvetica,sans-Serif" font-size="10.00">&lt; read_only &gt;</text>
</a>
</g>
</g>
<!-- Node4 -->
<g id="Node000004" class="node">
<title>Node4</title>
<g id="a_Node000004"><a xlink:href="class_acts_1_1_any_track_proxy.html" target="_top" xlink:title=" ">
<polygon fill="white" stroke="#666666" points="116,-30 0,-30 0,0 116,0 116,-30"/>
<text text-anchor="start" x="8" y="-18" font-family="Helvetica,sans-Serif" font-size="10.00">Acts::AnyTrackProxy</text>
<text text-anchor="middle" x="58" y="-7" font-family="Helvetica,sans-Serif" font-size="10.00">&lt; false &gt;</text>
</a>
</g>
</g>
<!-- Node1&#45;&gt;Node4 -->
<g id="edge3_Node000001_Node000004" class="edge">
<title>Node1&#45;&gt;Node4</title>
<g id="a_edge3_Node000001_Node000004"><a xlink:title=" ">
<path fill="none" stroke="orange" stroke-dasharray="5,2" d="M106.82,-75.02C95.03,-60.76 80.01,-42.61 69.76,-30.22"/>
<polygon fill="orange" stroke="orange" points="104.26,-77.42 113.33,-82.89 109.65,-72.95 104.26,-77.42"/>
</a>
</g>
<text text-anchor="start" x="101.5" y="-53.5" font-family="Helvetica,sans-Serif" font-size="10.00" fill="grey">&lt; false &gt;</text>
</g>
<!-- Node5 -->
<g id="Node000005" class="node">
<title>Node5</title>
<g id="a_Node000005"><a xlink:href="class_acts_1_1_any_track_proxy.html" target="_top" xlink:title=" ">
<polygon fill="white" stroke="#666666" points="250,-30 134,-30 134,0 250,0 250,-30"/>
<text text-anchor="start" x="142" y="-18" font-family="Helvetica,sans-Serif" font-size="10.00">Acts::AnyTrackProxy</text>
<text text-anchor="middle" x="192" y="-7" font-family="Helvetica,sans-Serif" font-size="10.00">&lt; true &gt;</text>
</a>
</g>
</g>
<!-- Node1&#45;&gt;Node5 -->
<g id="edge4_Node000001_Node000005" class="edge">
<title>Node1&#45;&gt;Node5</title>
<g id="a_edge4_Node000001_Node000005"><a xlink:title=" ">
<path fill="none" stroke="orange" stroke-dasharray="5,2" d="M145.63,-75.62C148.83,-72.12 152.05,-68.5 155,-65 164.61,-53.59 174.78,-40 182.02,-30.03"/>
<polygon fill="orange" stroke="orange" points="143.04,-73.26 138.77,-82.96 148.16,-78.04 143.04,-73.26"/>
</a>
</g>
<text text-anchor="start" x="170.5" y="-53.5" font-family="Helvetica,sans-Serif" font-size="10.00" fill="grey">&lt; true &gt;</text>
</g>
<!-- Node2 -->
<g id="Node000002" class="node">
<title>Node2</title>
<g id="a_Node000002"><a xlink:href="class_acts_1_1_track_proxy_common.html" target="_top" xlink:title=" ">
<polygon fill="white" stroke="#666666" points="198,-191 52,-191 52,-150 198,-150 198,-191"/>
<text text-anchor="start" x="60" y="-179" font-family="Helvetica,sans-Serif" font-size="10.00">Acts::TrackProxyCommon</text>
<text text-anchor="start" x="60" y="-168" font-family="Helvetica,sans-Serif" font-size="10.00">&lt; AnyTrackProxy&lt; true</text>
<text text-anchor="middle" x="125" y="-157" font-family="Helvetica,sans-Serif" font-size="10.00"> &gt;, TrackIndexType, true &gt;</text>
</a>
</g>
</g>
<!-- Node2&#45;&gt;Node1 -->
<g id="edge1_Node000001_Node000002" class="edge">
<title>Node2&#45;&gt;Node1</title>
<g id="a_edge1_Node000001_Node000002"><a xlink:title=" ">
<path fill="none" stroke="#63b8ff" d="M125,-139.58C125,-130.51 125,-120.95 125,-113.39"/>
<polygon fill="#63b8ff" stroke="#63b8ff" points="121.5,-139.86 125,-149.86 128.5,-139.86 121.5,-139.86"/>
</a>
</g>
</g>
<!-- Node3 -->
<g id="Node000003" class="node">
<title>Node3</title>
<g id="a_Node000003"><a xlink:href="class_acts_1_1_track_proxy_common.html" target="_top" xlink:title="Common CRTP implementation shared by the various track proxy front&#45;ends.">
<polygon fill="white" stroke="#666666" points="195.5,-300 54.5,-300 54.5,-259 195.5,-259 195.5,-300"/>
<text text-anchor="start" x="62.5" y="-288" font-family="Helvetica,sans-Serif" font-size="10.00">Acts::TrackProxyCommon</text>
<text text-anchor="start" x="62.5" y="-277" font-family="Helvetica,sans-Serif" font-size="10.00">&lt; Derived, index_t, read</text>
<text text-anchor="middle" x="125" y="-266" font-family="Helvetica,sans-Serif" font-size="10.00">_only &gt;</text>
</a>
</g>
</g>
<!-- Node3&#45;&gt;Node2 -->
<g id="edge2_Node000002_Node000003" class="edge">
<title>Node3&#45;&gt;Node2</title>
<g id="a_edge2_Node000002_Node000003"><a xlink:title=" ">
<path fill="none" stroke="orange" stroke-dasharray="5,2" d="M125,-248.65C125,-230.22 125,-207.1 125,-191"/>
<polygon fill="orange" stroke="orange" points="121.5,-248.87 125,-258.87 128.5,-248.87 121.5,-248.87"/>
</a>
</g>
<text text-anchor="start" x="128" y="-230" font-family="Helvetica,sans-Serif" font-size="10.00" fill="grey">&lt; AnyTrackProxy&lt; true</text>
<text text-anchor="start" x="128" y="-215" font-family="Helvetica,sans-Serif" font-size="10.00" fill="grey">   &gt;, TrackIndexType, true &gt;</text>
</g>
</g>
</svg>
