<?xml version="1.0" encoding="UTF-8" standalone="no"?>
<!DOCTYPE svg PUBLIC "-//W3C//DTD SVG 1.1//EN"
 "http://www.w3.org/Graphics/SVG/1.1/DTD/svg11.dtd">
<!-- Generated by graphviz version 2.43.0 (0)
 -->
<!-- Title: Graphical Class Hierarchy Pages: 1 -->
<svg width="330pt" height="86pt"
 viewBox="0.00 0.00 330.00 86.00" xmlns="http://www.w3.org/2000/svg" xmlns:xlink="http://www.w3.org/1999/xlink">
<g id="graph0" class="graph" transform="scale(1 1) rotate(0) translate(4 82)">
<title>Graphical Class Hierarchy</title>
<!-- Node0 -->
<g id="Node000000" class="node">
<title>Node0</title>
<g id="a_Node000000"><a xlink:href="class_acts_plugins_1_1_fast_jet_1_1_jet.html" target="_top" xlink:title="Common class for jets.">
<polygon fill="white" stroke="#666666" points="130,-48.5 0,-48.5 0,-29.5 130,-29.5 130,-48.5"/>
<text text-anchor="middle" x="65" y="-36.5" font-family="Helvetica,sans-Serif" font-size="10.00">ActsPlugins::FastJet::Jet</text>
</a>
</g>
</g>
<!-- Node1 -->
<g id="Node000001" class="node">
<title>Node1</title>
<g id="a_Node000001"><a xlink:href="class_acts_plugins_1_1_fast_jet_1_1_track_jet.html" target="_top" xlink:title=" ">
<polygon fill="white" stroke="#666666" points="322,-78 166,-78 166,-48 322,-48 322,-78"/>
<text text-anchor="start" x="174" y="-66" font-family="Helvetica,sans-Serif" font-size="10.00">ActsPlugins::FastJet</text>
<text text-anchor="middle" x="244" y="-55" font-family="Helvetica,sans-Serif" font-size="10.00">::TrackJet&lt; TrackContainer &gt;</text>
</a>
</g>
</g>
<!-- Node0&#45;&gt;Node1 -->
<g id="edge246_Node000000_Node000001" class="edge">
<title>Node0&#45;&gt;Node1</title>
<g id="a_edge246_Node000000_Node000001"><a xlink:title=" ">
<path fill="none" stroke="#63b8ff" d="M140.32,-49.08C148.74,-50.22 157.34,-51.39 165.81,-52.53"/>
<polygon fill="#63b8ff" stroke="#63b8ff" points="140.53,-45.57 130.15,-47.7 139.59,-52.51 140.53,-45.57"/>
</a>
</g>
</g>
<!-- Node2 -->
<g id="Node000002" class="node">
<title>Node2</title>
<g id="a_Node000002"><a xlink:href="class_acts_plugins_1_1_fast_jet_1_1_truth_jet.html" target="_top" xlink:title=" ">
<polygon fill="white" stroke="#666666" points="321.5,-30 166.5,-30 166.5,0 321.5,0 321.5,-30"/>
<text text-anchor="start" x="174.5" y="-18" font-family="Helvetica,sans-Serif" font-size="10.00">ActsPlugins::FastJet</text>
<text text-anchor="middle" x="244" y="-7" font-family="Helvetica,sans-Serif" font-size="10.00">::TruthJet&lt; TrackContainer &gt;</text>
</a>
</g>
</g>
<!-- Node0&#45;&gt;Node2 -->
<g id="edge247_Node000000_Node000002" class="edge">
<title>Node0&#45;&gt;Node2</title>
<g id="a_edge247_Node000000_Node000002"><a xlink:title=" ">
<path fill="none" stroke="#63b8ff" d="M140.21,-28.94C148.87,-27.76 157.72,-26.56 166.42,-25.38"/>
<polygon fill="#63b8ff" stroke="#63b8ff" points="139.59,-25.49 130.15,-30.3 140.53,-32.43 139.59,-25.49"/>
</a>
</g>
</g>
</g>
</svg>
