<?xml version="1.0" encoding="UTF-8" standalone="no"?>
<!DOCTYPE svg PUBLIC "-//W3C//DTD SVG 1.1//EN"
 "http://www.w3.org/Graphics/SVG/1.1/DTD/svg11.dtd">
<!-- Generated by graphviz version 2.43.0 (0)
 -->
<!-- Title: Graphical Class Hierarchy Pages: 1 -->
<svg width="749pt" height="323pt"
 viewBox="0.00 0.00 749.00 323.00" xmlns="http://www.w3.org/2000/svg" xmlns:xlink="http://www.w3.org/1999/xlink">
<g id="graph0" class="graph" transform="scale(1 1) rotate(0) translate(4 319)">
<title>Graphical Class Hierarchy</title>
<!-- Node0 -->
<g id="Node000000" class="node">
<title>Node0</title>
<g id="a_Node000000"><a xlink:href="class_acts_1_1_geometry_object.html" target="_top" xlink:title="Base class to provide GeometryIdentifier interface:">
<polygon fill="white" stroke="#666666" points="124,-203 0,-203 0,-184 124,-184 124,-203"/>
<text text-anchor="middle" x="62" y="-191" font-family="Helvetica,sans-Serif" font-size="10.00">Acts::GeometryObject</text>
</a>
</g>
</g>
<!-- Node1 -->
<g id="Node000001" class="node">
<title>Node1</title>
<g id="a_Node000001"><a xlink:href="class_acts_1_1_layer.html" target="_top" xlink:title="Base Class for a Detector Layer in the Tracking Geometry.">
<polygon fill="white" stroke="#666666" points="542.5,-204 471.5,-204 471.5,-185 542.5,-185 542.5,-204"/>
<text text-anchor="middle" x="507" y="-192" font-family="Helvetica,sans-Serif" font-size="10.00">Acts::Layer</text>
</a>
</g>
</g>
<!-- Node0&#45;&gt;Node1 -->
<g id="edge61_Node000000_Node000001" class="edge">
<title>Node0&#45;&gt;Node1</title>
<g id="a_edge61_Node000000_Node000001"><a xlink:title=" ">
<path fill="none" stroke="#63b8ff" d="M134.39,-193.66C230.87,-193.88 399.13,-194.26 471.4,-194.42"/>
<polygon fill="#63b8ff" stroke="#63b8ff" points="134.14,-190.16 124.13,-193.64 134.12,-197.16 134.14,-190.16"/>
</a>
</g>
</g>
<!-- Node11 -->
<g id="Node000011" class="node">
<title>Node11</title>
<g id="a_Node000011"><a xlink:href="class_acts_1_1_surface.html" target="_top" xlink:title="Abstract Base Class for tracking surfaces.">
<polygon fill="white" stroke="#666666" points="240,-145 160,-145 160,-126 240,-126 240,-145"/>
<text text-anchor="middle" x="200" y="-133" font-family="Helvetica,sans-Serif" font-size="10.00">Acts::Surface</text>
</a>
</g>
</g>
<!-- Node0&#45;&gt;Node11 -->
<g id="edge67_Node000000_Node000011" class="edge">
<title>Node0&#45;&gt;Node11</title>
<g id="a_edge67_Node000000_Node000011"><a xlink:title=" ">
<path fill="none" stroke="#63b8ff" d="M94.9,-179.89C119.97,-169.2 154.25,-154.58 176.51,-145.09"/>
<polygon fill="#63b8ff" stroke="#63b8ff" points="93.28,-176.78 85.46,-183.92 96.03,-183.22 93.28,-176.78"/>
</a>
</g>
</g>
<!-- Node17 -->
<g id="Node000017" class="node">
<title>Node17</title>
<g id="a_Node000017"><a xlink:href="class_acts_1_1_volume.html" target="_top" xlink:title="It inherits from GeometryObject for geometry identification.">
<polygon fill="white" stroke="#666666" points="240,-241 160,-241 160,-222 240,-222 240,-241"/>
<text text-anchor="middle" x="200" y="-229" font-family="Helvetica,sans-Serif" font-size="10.00">Acts::Volume</text>
</a>
</g>
</g>
<!-- Node0&#45;&gt;Node17 -->
<g id="edge80_Node000000_Node000017" class="edge">
<title>Node0&#45;&gt;Node17</title>
<g id="a_edge80_Node000000_Node000017"><a xlink:title=" ">
<path fill="none" stroke="#63b8ff" d="M107.09,-205.82C125.77,-211.04 147.22,-217.03 164.69,-221.91"/>
<polygon fill="#63b8ff" stroke="#63b8ff" points="107.89,-202.41 97.32,-203.09 106.01,-209.15 107.89,-202.41"/>
</a>
</g>
</g>
<!-- Node2 -->
<g id="Node000002" class="node">
<title>Node2</title>
<g id="a_Node000002"><a xlink:href="class_acts_1_1_cone_layer.html" target="_top" xlink:title="Class to describe a conical detector layer for tracking, it inhertis from both, Layer base class and ...">
<polygon fill="white" stroke="#666666" points="726.5,-93 631.5,-93 631.5,-74 726.5,-74 726.5,-93"/>
<text text-anchor="middle" x="679" y="-81" font-family="Helvetica,sans-Serif" font-size="10.00">Acts::ConeLayer</text>
</a>
</g>
</g>
<!-- Node1&#45;&gt;Node2 -->
<g id="edge62_Node000001_Node000002" class="edge">
<title>Node1&#45;&gt;Node2</title>
<g id="a_edge62_Node000001_Node000002"><a xlink:title=" ">
<path fill="none" stroke="#63b8ff" d="M552.77,-189.27C562.85,-186.43 572.95,-182.1 581,-175.5 609.29,-152.32 589.08,-125.13 617,-101.5 621.21,-97.93 626.11,-95.07 631.26,-92.78"/>
<polygon fill="#63b8ff" stroke="#63b8ff" points="551.68,-185.93 542.76,-191.64 553.29,-192.74 551.68,-185.93"/>
</a>
</g>
</g>
<!-- Node6 -->
<g id="Node000006" class="node">
<title>Node6</title>
<g id="a_Node000006"><a xlink:href="class_acts_1_1_cylinder_layer.html" target="_top" xlink:title="Class to describe a cylindrical detector layer for tracking, it inhertis from both,...">
<polygon fill="white" stroke="#666666" points="734.5,-241 623.5,-241 623.5,-222 734.5,-222 734.5,-241"/>
<text text-anchor="middle" x="679" y="-229" font-family="Helvetica,sans-Serif" font-size="10.00">Acts::CylinderLayer</text>
</a>
</g>
</g>
<!-- Node1&#45;&gt;Node6 -->
<g id="edge63_Node000001_Node000006" class="edge">
<title>Node1&#45;&gt;Node6</title>
<g id="a_edge63_Node000001_Node000006"><a xlink:title=" ">
<path fill="none" stroke="#63b8ff" d="M552.82,-204.26C577.96,-209.73 609.18,-216.52 634.15,-221.96"/>
<polygon fill="#63b8ff" stroke="#63b8ff" points="553.33,-200.78 542.81,-202.08 551.84,-207.62 553.33,-200.78"/>
</a>
</g>
</g>
<!-- Node8 -->
<g id="Node000008" class="node">
<title>Node8</title>
<g id="a_Node000008"><a xlink:href="class_acts_1_1_disc_layer.html" target="_top" xlink:title="Class to describe a disc&#45;like detector layer for tracking, it inhertis from both, Layer base class an...">
<polygon fill="white" stroke="#666666" points="725,-167 633,-167 633,-148 725,-148 725,-167"/>
<text text-anchor="middle" x="679" y="-155" font-family="Helvetica,sans-Serif" font-size="10.00">Acts::DiscLayer</text>
</a>
</g>
</g>
<!-- Node1&#45;&gt;Node8 -->
<g id="edge64_Node000001_Node000008" class="edge">
<title>Node1&#45;&gt;Node8</title>
<g id="a_edge64_Node000001_Node000008"><a xlink:title=" ">
<path fill="none" stroke="#63b8ff" d="M552.82,-184.74C577.96,-179.27 609.18,-172.48 634.15,-167.04"/>
<polygon fill="#63b8ff" stroke="#63b8ff" points="551.84,-181.38 542.81,-186.92 553.33,-188.22 551.84,-181.38"/>
</a>
</g>
</g>
<!-- Node16 -->
<g id="Node000016" class="node">
<title>Node16</title>
<g id="a_Node000016"><a xlink:href="class_acts_1_1_navigation_layer.html" target="_top" xlink:title="Class to be used for gaps in Volumes as a navigational link.">
<polygon fill="white" stroke="#666666" points="741,-204 617,-204 617,-185 741,-185 741,-204"/>
<text text-anchor="middle" x="679" y="-192" font-family="Helvetica,sans-Serif" font-size="10.00">Acts::NavigationLayer</text>
</a>
</g>
</g>
<!-- Node1&#45;&gt;Node16 -->
<g id="edge65_Node000001_Node000016" class="edge">
<title>Node1&#45;&gt;Node16</title>
<g id="a_edge65_Node000001_Node000016"><a xlink:title=" ">
<path fill="none" stroke="#63b8ff" d="M552.96,-194.5C572.49,-194.5 595.68,-194.5 616.75,-194.5"/>
<polygon fill="#63b8ff" stroke="#63b8ff" points="552.81,-191 542.81,-194.5 552.81,-198 552.81,-191"/>
</a>
</g>
</g>
<!-- Node10 -->
<g id="Node000010" class="node">
<title>Node10</title>
<g id="a_Node000010"><a xlink:href="class_acts_1_1_plane_layer.html" target="_top" xlink:title="Class to describe a planar detector layer for tracking, it inhertis from both, Layer base class and P...">
<polygon fill="white" stroke="#666666" points="728,-130 630,-130 630,-111 728,-111 728,-130"/>
<text text-anchor="middle" x="679" y="-118" font-family="Helvetica,sans-Serif" font-size="10.00">Acts::PlaneLayer</text>
</a>
</g>
</g>
<!-- Node1&#45;&gt;Node10 -->
<g id="edge66_Node000001_Node000010" class="edge">
<title>Node1&#45;&gt;Node10</title>
<g id="a_edge66_Node000001_Node000010"><a xlink:title=" ">
<path fill="none" stroke="#63b8ff" d="M552.28,-187.09C562.14,-184.33 572.26,-180.59 581,-175.5 600.83,-163.96 597.36,-150.36 617,-138.5 622.58,-135.13 628.82,-132.36 635.14,-130.09"/>
<polygon fill="#63b8ff" stroke="#63b8ff" points="551.41,-183.7 542.56,-189.52 553.11,-190.49 551.41,-183.7"/>
</a>
</g>
</g>
<!-- Node12 -->
<g id="Node000012" class="node">
<title>Node12</title>
<g id="a_Node000012"><a xlink:href="class_acts_1_1_line_surface.html" target="_top" xlink:title="Base class for a linear surfaces in the TrackingGeometry to describe dirft tube, straw like detectors...">
<polygon fill="white" stroke="#666666" points="387,-56 286,-56 286,-37 387,-37 387,-56"/>
<text text-anchor="middle" x="336.5" y="-44" font-family="Helvetica,sans-Serif" font-size="10.00">Acts::LineSurface</text>
</a>
</g>
</g>
<!-- Node11&#45;&gt;Node12 -->
<g id="edge68_Node000011_Node000012" class="edge">
<title>Node11&#45;&gt;Node12</title>
<g id="a_edge68_Node000011_Node000012"><a xlink:title=" ">
<path fill="none" stroke="#63b8ff" d="M224.05,-120.25C251.76,-101.91 297.47,-71.67 320.8,-56.23"/>
<polygon fill="#63b8ff" stroke="#63b8ff" points="221.8,-117.54 215.39,-125.98 225.66,-123.38 221.8,-117.54"/>
</a>
</g>
</g>
<!-- Node4 -->
<g id="Node000004" class="node">
<title>Node4</title>
<g id="a_Node000004"><a xlink:href="class_acts_1_1_regular_surface.html" target="_top" xlink:title="A physical surface which does not depend on the direction you look at it from.">
<polygon fill="white" stroke="#666666" points="395.5,-145 277.5,-145 277.5,-126 395.5,-126 395.5,-145"/>
<text text-anchor="middle" x="336.5" y="-133" font-family="Helvetica,sans-Serif" font-size="10.00">Acts::RegularSurface</text>
</a>
</g>
</g>
<!-- Node11&#45;&gt;Node4 -->
<g id="edge71_Node000011_Node000004" class="edge">
<title>Node11&#45;&gt;Node4</title>
<g id="a_edge71_Node000011_Node000004"><a xlink:title=" ">
<path fill="none" stroke="#63b8ff" d="M250.36,-135.5C259.17,-135.5 268.42,-135.5 277.44,-135.5"/>
<polygon fill="#63b8ff" stroke="#63b8ff" points="250.26,-132 240.26,-135.5 250.26,-139 250.26,-132"/>
</a>
</g>
</g>
<!-- Node13 -->
<g id="Node000013" class="node">
<title>Node13</title>
<g id="a_Node000013"><a xlink:href="class_acts_1_1_perigee_surface.html" target="_top" xlink:title="Class describing the Line to which the Perigee refers to.">
<polygon fill="white" stroke="#666666" points="565.5,-19 448.5,-19 448.5,0 565.5,0 565.5,-19"/>
<text text-anchor="middle" x="507" y="-7" font-family="Helvetica,sans-Serif" font-size="10.00">Acts::PerigeeSurface</text>
</a>
</g>
</g>
<!-- Node12&#45;&gt;Node13 -->
<g id="edge69_Node000012_Node000013" class="edge">
<title>Node12&#45;&gt;Node13</title>
<g id="a_edge69_Node000012_Node000013"><a xlink:title=" ">
<path fill="none" stroke="#63b8ff" d="M390.87,-34.78C413.95,-29.71 440.61,-23.86 462.46,-19.06"/>
<polygon fill="#63b8ff" stroke="#63b8ff" points="389.91,-31.41 380.89,-36.97 391.41,-38.25 389.91,-31.41"/>
</a>
</g>
</g>
<!-- Node14 -->
<g id="Node000014" class="node">
<title>Node14</title>
<g id="a_Node000014"><a xlink:href="class_acts_1_1_straw_surface.html" target="_top" xlink:title="Class for a StrawSurface in the TrackingGeometry to describe dirft tube and straw like detectors.">
<polygon fill="white" stroke="#666666" points="561,-56 453,-56 453,-37 561,-37 561,-56"/>
<text text-anchor="middle" x="507" y="-44" font-family="Helvetica,sans-Serif" font-size="10.00">Acts::StrawSurface</text>
</a>
</g>
</g>
<!-- Node12&#45;&gt;Node14 -->
<g id="edge70_Node000012_Node000014" class="edge">
<title>Node12&#45;&gt;Node14</title>
<g id="a_edge70_Node000012_Node000014"><a xlink:title=" ">
<path fill="none" stroke="#63b8ff" d="M397.31,-46.5C415.45,-46.5 435.23,-46.5 452.9,-46.5"/>
<polygon fill="#63b8ff" stroke="#63b8ff" points="397.14,-43 387.14,-46.5 397.14,-50 397.14,-43"/>
</a>
</g>
</g>
<!-- Node3 -->
<g id="Node000003" class="node">
<title>Node3</title>
<g id="a_Node000003"><a xlink:href="class_acts_1_1_cone_surface.html" target="_top" xlink:title="Class for a conical surface in the Tracking geometry.">
<polygon fill="white" stroke="#666666" points="559.5,-93 454.5,-93 454.5,-74 559.5,-74 559.5,-93"/>
<text text-anchor="middle" x="507" y="-81" font-family="Helvetica,sans-Serif" font-size="10.00">Acts::ConeSurface</text>
</a>
</g>
</g>
<!-- Node4&#45;&gt;Node3 -->
<g id="edge72_Node000004_Node000003" class="edge">
<title>Node4&#45;&gt;Node3</title>
<g id="a_edge72_Node000004_Node000003"><a xlink:title=" ">
<path fill="none" stroke="#63b8ff" d="M371.93,-122.3C389.97,-115.62 412.52,-107.65 433,-101.5 443,-98.5 453.88,-95.61 464.11,-93.06"/>
<polygon fill="#63b8ff" stroke="#63b8ff" points="370.55,-119.08 362.41,-125.86 373,-125.64 370.55,-119.08"/>
</a>
</g>
</g>
<!-- Node5 -->
<g id="Node000005" class="node">
<title>Node5</title>
<g id="a_Node000005"><a xlink:href="class_acts_1_1_cylinder_surface.html" target="_top" xlink:title="Class for a CylinderSurface in the TrackingGeometry.">
<polygon fill="white" stroke="#666666" points="567.5,-241 446.5,-241 446.5,-222 567.5,-222 567.5,-241"/>
<text text-anchor="middle" x="507" y="-229" font-family="Helvetica,sans-Serif" font-size="10.00">Acts::CylinderSurface</text>
</a>
</g>
</g>
<!-- Node4&#45;&gt;Node5 -->
<g id="edge74_Node000004_Node000005" class="edge">
<title>Node4&#45;&gt;Node5</title>
<g id="a_edge74_Node000004_Node000005"><a xlink:title=" ">
<path fill="none" stroke="#63b8ff" d="M353.87,-152.41C371.74,-169.93 401.99,-196.88 433,-212.5 440.6,-216.33 449.05,-219.44 457.42,-221.95"/>
<polygon fill="#63b8ff" stroke="#63b8ff" points="356.11,-149.7 346.57,-145.1 351.16,-154.65 356.11,-149.7"/>
</a>
</g>
</g>
<!-- Node7 -->
<g id="Node000007" class="node">
<title>Node7</title>
<g id="a_Node000007"><a xlink:href="class_acts_1_1_disc_surface.html" target="_top" xlink:title="Class for a disc surface (or a segment thereof).">
<polygon fill="white" stroke="#666666" points="557.5,-167 456.5,-167 456.5,-148 557.5,-148 557.5,-167"/>
<text text-anchor="middle" x="507" y="-155" font-family="Helvetica,sans-Serif" font-size="10.00">Acts::DiscSurface</text>
</a>
</g>
</g>
<!-- Node4&#45;&gt;Node7 -->
<g id="edge76_Node000004_Node000007" class="edge">
<title>Node4&#45;&gt;Node7</title>
<g id="a_edge76_Node000004_Node000007"><a xlink:title=" ">
<path fill="none" stroke="#63b8ff" d="M406.26,-144.48C423.03,-146.67 440.64,-148.97 456.32,-151.01"/>
<polygon fill="#63b8ff" stroke="#63b8ff" points="406.33,-140.96 395.96,-143.13 405.42,-147.9 406.33,-140.96"/>
</a>
</g>
</g>
<!-- Node9 -->
<g id="Node000009" class="node">
<title>Node9</title>
<g id="a_Node000009"><a xlink:href="class_acts_1_1_plane_surface.html" target="_top" xlink:title="Class for a planaer in the TrackingGeometry.">
<polygon fill="white" stroke="#666666" points="560.5,-130 453.5,-130 453.5,-111 560.5,-111 560.5,-130"/>
<text text-anchor="middle" x="507" y="-118" font-family="Helvetica,sans-Serif" font-size="10.00">Acts::PlaneSurface</text>
</a>
</g>
</g>
<!-- Node4&#45;&gt;Node9 -->
<g id="edge78_Node000004_Node000009" class="edge">
<title>Node4&#45;&gt;Node9</title>
<g id="a_edge78_Node000004_Node000009"><a xlink:title=" ">
<path fill="none" stroke="#63b8ff" d="M406.16,-129.39C421.88,-127.99 438.35,-126.52 453.28,-125.19"/>
<polygon fill="#63b8ff" stroke="#63b8ff" points="405.61,-125.92 395.96,-130.3 406.23,-132.9 405.61,-125.92"/>
</a>
</g>
</g>
<!-- Node3&#45;&gt;Node2 -->
<g id="edge73_Node000003_Node000002" class="edge">
<title>Node3&#45;&gt;Node2</title>
<g id="a_edge73_Node000003_Node000002"><a xlink:title=" ">
<path fill="none" stroke="#63b8ff" d="M570,-83.5C590.25,-83.5 612.37,-83.5 631.3,-83.5"/>
<polygon fill="#63b8ff" stroke="#63b8ff" points="569.93,-80 559.93,-83.5 569.93,-87 569.93,-80"/>
</a>
</g>
</g>
<!-- Node5&#45;&gt;Node6 -->
<g id="edge75_Node000005_Node000006" class="edge">
<title>Node5&#45;&gt;Node6</title>
<g id="a_edge75_Node000005_Node000006"><a xlink:title=" ">
<path fill="none" stroke="#63b8ff" d="M578.25,-231.5C593.33,-231.5 609.05,-231.5 623.43,-231.5"/>
<polygon fill="#63b8ff" stroke="#63b8ff" points="577.94,-228 567.94,-231.5 577.94,-235 577.94,-228"/>
</a>
</g>
</g>
<!-- Node7&#45;&gt;Node8 -->
<g id="edge77_Node000007_Node000008" class="edge">
<title>Node7&#45;&gt;Node8</title>
<g id="a_edge77_Node000007_Node000008"><a xlink:title=" ">
<path fill="none" stroke="#63b8ff" d="M567.92,-157.5C589.31,-157.5 613.03,-157.5 632.95,-157.5"/>
<polygon fill="#63b8ff" stroke="#63b8ff" points="567.63,-154 557.63,-157.5 567.63,-161 567.63,-154"/>
</a>
</g>
</g>
<!-- Node9&#45;&gt;Node10 -->
<g id="edge79_Node000009_Node000010" class="edge">
<title>Node9&#45;&gt;Node10</title>
<g id="a_edge79_Node000009_Node000010"><a xlink:title=" ">
<path fill="none" stroke="#63b8ff" d="M570.87,-120.5C590.34,-120.5 611.48,-120.5 629.8,-120.5"/>
<polygon fill="#63b8ff" stroke="#63b8ff" points="570.86,-117 560.86,-120.5 570.86,-124 570.86,-117"/>
</a>
</g>
</g>
<!-- Node18 -->
<g id="Node000018" class="node">
<title>Node18</title>
<g id="a_Node000018"><a xlink:href="class_acts_1_1_tracking_volume.html" target="_top" xlink:title="Full Volume description used in Tracking, it inherits from Volume to get the geometrical structure.">
<polygon fill="white" stroke="#666666" points="397,-241 276,-241 276,-222 397,-222 397,-241"/>
<text text-anchor="middle" x="336.5" y="-229" font-family="Helvetica,sans-Serif" font-size="10.00">Acts::TrackingVolume</text>
</a>
</g>
</g>
<!-- Node17&#45;&gt;Node18 -->
<g id="edge81_Node000017_Node000018" class="edge">
<title>Node17&#45;&gt;Node18</title>
<g id="a_edge81_Node000017_Node000018"><a xlink:title=" ">
<path fill="none" stroke="#63b8ff" d="M250.5,-231.5C258.77,-231.5 267.44,-231.5 275.93,-231.5"/>
<polygon fill="#63b8ff" stroke="#63b8ff" points="250.26,-228 240.26,-231.5 250.26,-235 250.26,-228"/>
</a>
</g>
</g>
<!-- Node19 -->
<g id="Node000019" class="node">
<title>Node19</title>
<g id="a_Node000019"><a xlink:href="class_acts_1_1_volume_stack.html" target="_top" xlink:title="A stack of volumes.">
<polygon fill="white" stroke="#666666" points="390,-278 283,-278 283,-259 390,-259 390,-278"/>
<text text-anchor="middle" x="336.5" y="-266" font-family="Helvetica,sans-Serif" font-size="10.00">Acts::VolumeStack</text>
</a>
</g>
</g>
<!-- Node17&#45;&gt;Node19 -->
<g id="edge82_Node000017_Node000019" class="edge">
<title>Node17&#45;&gt;Node19</title>
<g id="a_edge82_Node000017_Node000019"><a xlink:title=" ">
<path fill="none" stroke="#63b8ff" d="M245.31,-243.69C263.24,-248.62 283.65,-254.24 300.51,-258.88"/>
<polygon fill="#63b8ff" stroke="#63b8ff" points="246.21,-240.31 235.64,-241.03 244.35,-247.06 246.21,-240.31"/>
</a>
</g>
</g>
<!-- Node20 -->
<g id="Node000020" class="node">
<title>Node20</title>
<g id="a_Node000020"><a xlink:href="class_acts_1_1_cuboid_volume_stack.html" target="_top" xlink:title="This class implements a x&#45;.">
<polygon fill="white" stroke="#666666" points="577.5,-278 436.5,-278 436.5,-259 577.5,-259 577.5,-278"/>
<text text-anchor="middle" x="507" y="-266" font-family="Helvetica,sans-Serif" font-size="10.00">Acts::CuboidVolumeStack</text>
</a>
</g>
</g>
<!-- Node19&#45;&gt;Node20 -->
<g id="edge83_Node000019_Node000020" class="edge">
<title>Node19&#45;&gt;Node20</title>
<g id="a_edge83_Node000019_Node000020"><a xlink:title=" ">
<path fill="none" stroke="#63b8ff" d="M400.46,-268.5C412.16,-268.5 424.44,-268.5 436.33,-268.5"/>
<polygon fill="#63b8ff" stroke="#63b8ff" points="400.35,-265 390.35,-268.5 400.35,-272 400.35,-265"/>
</a>
</g>
</g>
<!-- Node21 -->
<g id="Node000021" class="node">
<title>Node21</title>
<g id="a_Node000021"><a xlink:href="class_acts_1_1_cylinder_volume_stack.html" target="_top" xlink:title="This class implements a z&#45;aligned or r&#45;aligned stack of cylinder volumes with synchronized bounds.">
<polygon fill="white" stroke="#666666" points="581,-315 433,-315 433,-296 581,-296 581,-315"/>
<text text-anchor="middle" x="507" y="-303" font-family="Helvetica,sans-Serif" font-size="10.00">Acts::CylinderVolumeStack</text>
</a>
</g>
</g>
<!-- Node19&#45;&gt;Node21 -->
<g id="edge84_Node000019_Node000021" class="edge">
<title>Node19&#45;&gt;Node21</title>
<g id="a_edge84_Node000019_Node000021"><a xlink:title=" ">
<path fill="none" stroke="#63b8ff" d="M390.87,-280.22C413.95,-285.29 440.61,-291.14 462.46,-295.94"/>
<polygon fill="#63b8ff" stroke="#63b8ff" points="391.41,-276.75 380.89,-278.03 389.91,-283.59 391.41,-276.75"/>
</a>
</g>
</g>
<!-- Node15 -->
<g id="Node000015" class="node">
<title>Node15</title>
<g id="a_Node000015"><a xlink:title=" ">
<polygon fill="#e0e0e0" stroke="#999999" points="116.5,-150.5 7.5,-150.5 7.5,-120.5 116.5,-120.5 116.5,-150.5"/>
<text text-anchor="start" x="15.5" y="-138.5" font-family="Helvetica,sans-Serif" font-size="10.00">std::enable_shared</text>
<text text-anchor="middle" x="62" y="-127.5" font-family="Helvetica,sans-Serif" font-size="10.00">_from_this</text>
</a>
</g>
</g>
<!-- Node15&#45;&gt;Node11 -->
<g id="edge85_Node000015_Node000011" class="edge">
<title>Node15&#45;&gt;Node11</title>
<g id="a_edge85_Node000015_Node000011"><a xlink:title=" ">
<path fill="none" stroke="#63b8ff" d="M126.99,-135.5C138.22,-135.5 149.6,-135.5 159.9,-135.5"/>
<polygon fill="#63b8ff" stroke="#63b8ff" points="126.75,-132 116.75,-135.5 126.75,-139 126.75,-132"/>
</a>
</g>
</g>
</g>
</svg>
