<?xml version="1.0" encoding="UTF-8" standalone="no"?>
<!DOCTYPE svg PUBLIC "-//W3C//DTD SVG 1.1//EN"
 "http://www.w3.org/Graphics/SVG/1.1/DTD/svg11.dtd">
<!-- Generated by graphviz version 2.43.0 (0)
 -->
<!-- Title: Graphical Class Hierarchy Pages: 1 -->
<svg width="379pt" height="86pt"
 viewBox="0.00 0.00 379.00 86.00" xmlns="http://www.w3.org/2000/svg" xmlns:xlink="http://www.w3.org/1999/xlink">
<g id="graph0" class="graph" transform="scale(1 1) rotate(0) translate(4 82)">
<title>Graphical Class Hierarchy</title>
<!-- Node0 -->
<g id="Node000000" class="node">
<title>Node0</title>
<g id="a_Node000000"><a xlink:href="class_acts_1_1_track_state_proxy_common.html" target="_top" xlink:title=" ">
<polygon fill="white" stroke="#666666" points="171,-59.5 0,-59.5 0,-18.5 171,-18.5 171,-59.5"/>
<text text-anchor="start" x="8" y="-47.5" font-family="Helvetica,sans-Serif" font-size="10.00">Acts::TrackStateProxyCommon</text>
<text text-anchor="start" x="8" y="-36.5" font-family="Helvetica,sans-Serif" font-size="10.00">&lt; TrackStateProxy&lt; trajectory</text>
<text text-anchor="middle" x="85.5" y="-25.5" font-family="Helvetica,sans-Serif" font-size="10.00">_t, M, read_only &gt;, read_only &gt;</text>
</a>
</g>
</g>
<!-- Node1 -->
<g id="Node000001" class="node">
<title>Node1</title>
<g id="a_Node000001"><a xlink:href="class_acts_1_1_track_state_proxy.html" target="_top" xlink:title=" ">
<polygon fill="white" stroke="#666666" points="371,-78 207,-78 207,-48 371,-48 371,-78"/>
<text text-anchor="start" x="215" y="-66" font-family="Helvetica,sans-Serif" font-size="10.00">Acts::TrackStateProxy</text>
<text text-anchor="middle" x="289" y="-55" font-family="Helvetica,sans-Serif" font-size="10.00">&lt; trajectory_t, M, ReadOnly &gt;</text>
</a>
</g>
</g>
<!-- Node0&#45;&gt;Node1 -->
<g id="edge241_Node000000_Node000001" class="edge">
<title>Node0&#45;&gt;Node1</title>
<g id="a_edge241_Node000000_Node000001"><a xlink:title=" ">
<path fill="none" stroke="#63b8ff" d="M181.13,-50.27C189.73,-51.3 198.39,-52.33 206.86,-53.34"/>
<polygon fill="#63b8ff" stroke="#63b8ff" points="181.42,-46.78 171.08,-49.07 180.59,-53.73 181.42,-46.78"/>
</a>
</g>
</g>
<!-- Node2 -->
<g id="Node000002" class="node">
<title>Node2</title>
<g id="a_Node000002"><a xlink:href="class_acts_1_1_track_state_proxy.html" target="_top" xlink:title=" ">
<polygon fill="white" stroke="#666666" points="357,-30 221,-30 221,0 357,0 357,-30"/>
<text text-anchor="start" x="229" y="-18" font-family="Helvetica,sans-Serif" font-size="10.00">Acts::TrackStateProxy</text>
<text text-anchor="middle" x="289" y="-7" font-family="Helvetica,sans-Serif" font-size="10.00">&lt; trajectory_t, M, true &gt;</text>
</a>
</g>
</g>
<!-- Node0&#45;&gt;Node2 -->
<g id="edge242_Node000000_Node000002" class="edge">
<title>Node0&#45;&gt;Node2</title>
<g id="a_edge242_Node000000_Node000002"><a xlink:title=" ">
<path fill="none" stroke="#63b8ff" d="M181.24,-27.72C194.59,-26.13 208.09,-24.52 220.78,-23.01"/>
<polygon fill="#63b8ff" stroke="#63b8ff" points="180.59,-24.27 171.08,-28.93 181.42,-31.22 180.59,-24.27"/>
</a>
</g>
</g>
</g>
</svg>
