<?xml version="1.0" encoding="UTF-8" standalone="no"?>
<!DOCTYPE svg PUBLIC "-//W3C//DTD SVG 1.1//EN"
 "http://www.w3.org/Graphics/SVG/1.1/DTD/svg11.dtd">
<!-- Generated by graphviz version 2.43.0 (0)
 -->
<!-- Title: Graphical Class Hierarchy Pages: 1 -->
<svg width="320pt" height="98pt"
 viewBox="0.00 0.00 320.00 97.50" xmlns="http://www.w3.org/2000/svg" xmlns:xlink="http://www.w3.org/1999/xlink">
<g id="graph0" class="graph" transform="scale(1 1) rotate(0) translate(4 93.5)">
<title>Graphical Class Hierarchy</title>
<!-- Node0 -->
<g id="Node000000" class="node">
<title>Node0</title>
<g id="a_Node000000"><a xlink:href="class_acts_1_1_grid_access_1_1_i_global_to_grid_local.html" target="_top" xlink:title="Interface class for owning delegate.">
<polygon fill="white" stroke="#666666" points="138,-57 0,-57 0,-27 138,-27 138,-57"/>
<text text-anchor="start" x="8" y="-45" font-family="Helvetica,sans-Serif" font-size="10.00">Acts::GridAccess::IGlobal</text>
<text text-anchor="middle" x="69" y="-34" font-family="Helvetica,sans-Serif" font-size="10.00">ToGridLocal</text>
</a>
</g>
</g>
<!-- Node1 -->
<g id="Node000001" class="node">
<title>Node1</title>
<g id="a_Node000001"><a xlink:href="class_acts_1_1_grid_access_1_1_affine3_transformed.html" target="_top" xlink:title=" ">
<polygon fill="white" stroke="#666666" points="312,-89.5 174,-89.5 174,-48.5 312,-48.5 312,-89.5"/>
<text text-anchor="start" x="182" y="-77.5" font-family="Helvetica,sans-Serif" font-size="10.00">Acts::GridAccess::Affine3</text>
<text text-anchor="start" x="182" y="-66.5" font-family="Helvetica,sans-Serif" font-size="10.00">Transformed&lt; global_to</text>
<text text-anchor="middle" x="243" y="-55.5" font-family="Helvetica,sans-Serif" font-size="10.00">_grid_local_t &gt;</text>
</a>
</g>
</g>
<!-- Node0&#45;&gt;Node1 -->
<g id="edge89_Node000000_Node000001" class="edge">
<title>Node0&#45;&gt;Node1</title>
<g id="a_edge89_Node000000_Node000001"><a xlink:title=" ">
<path fill="none" stroke="#63b8ff" d="M148.36,-54.3C156.84,-55.63 165.42,-56.98 173.76,-58.29"/>
<polygon fill="#63b8ff" stroke="#63b8ff" points="148.89,-50.84 138.47,-52.75 147.81,-57.76 148.89,-50.84"/>
</a>
</g>
</g>
<!-- Node2 -->
<g id="Node000002" class="node">
<title>Node2</title>
<g id="a_Node000002"><a xlink:href="class_acts_1_1_grid_access_1_1_global_subspace.html" target="_top" xlink:title="A global (potentially casted) sub space of a global position.">
<polygon fill="white" stroke="#666666" points="310.5,-30 175.5,-30 175.5,0 310.5,0 310.5,-30"/>
<text text-anchor="start" x="183.5" y="-18" font-family="Helvetica,sans-Serif" font-size="10.00">Acts::GridAccess::Global</text>
<text text-anchor="middle" x="243" y="-7" font-family="Helvetica,sans-Serif" font-size="10.00">Subspace&lt; Args &gt;</text>
</a>
</g>
</g>
<!-- Node0&#45;&gt;Node2 -->
<g id="edge90_Node000000_Node000002" class="edge">
<title>Node0&#45;&gt;Node2</title>
<g id="a_edge90_Node000000_Node000002"><a xlink:title=" ">
<path fill="none" stroke="#63b8ff" d="M148.55,-29.67C157.54,-28.26 166.64,-26.83 175.44,-25.45"/>
<polygon fill="#63b8ff" stroke="#63b8ff" points="147.81,-26.24 138.47,-31.25 148.89,-33.16 147.81,-26.24"/>
</a>
</g>
</g>
</g>
</svg>
