<?xml version="1.0" encoding="UTF-8" standalone="no"?>
<!DOCTYPE svg PUBLIC "-//W3C//DTD SVG 1.1//EN"
 "http://www.w3.org/Graphics/SVG/1.1/DTD/svg11.dtd">
<!-- Generated by graphviz version 2.43.0 (0)
 -->
<!-- Title: Graphical Class Hierarchy Pages: 1 -->
<svg width="350pt" height="182pt"
 viewBox="0.00 0.00 350.00 182.00" xmlns="http://www.w3.org/2000/svg" xmlns:xlink="http://www.w3.org/1999/xlink">
<g id="graph0" class="graph" transform="scale(1 1) rotate(0) translate(4 178)">
<title>Graphical Class Hierarchy</title>
<!-- Node0 -->
<g id="Node000000" class="node">
<title>Node0</title>
<g id="a_Node000000"><a xlink:title=" ">
<polygon fill="#e0e0e0" stroke="#999999" points="155,-96.5 0,-96.5 0,-77.5 155,-77.5 155,-96.5"/>
<text text-anchor="middle" x="77.5" y="-84.5" font-family="Helvetica,sans-Serif" font-size="10.00">Acts::detail::ContainerRange</text>
</a>
</g>
</g>
<!-- Node1 -->
<g id="Node000001" class="node">
<title>Node1</title>
<g id="a_Node000001"><a xlink:href="class_acts_1_1_space_point_container2_1_1_range.html" target="_top" xlink:title=" ">
<polygon fill="white" stroke="#666666" points="342,-174 191,-174 191,-144 342,-144 342,-174"/>
<text text-anchor="start" x="199" y="-162" font-family="Helvetica,sans-Serif" font-size="10.00">Acts::SpacePointContainer2</text>
<text text-anchor="middle" x="266.5" y="-151" font-family="Helvetica,sans-Serif" font-size="10.00">::Range&lt; false &gt;</text>
</a>
</g>
</g>
<!-- Node0&#45;&gt;Node1 -->
<g id="edge14_Node000000_Node000001" class="edge">
<title>Node0&#45;&gt;Node1</title>
<g id="a_edge14_Node000000_Node000001"><a xlink:title=" ">
<path fill="none" stroke="#63b8ff" d="M108.76,-100.8C131.23,-110.84 162.76,-124.45 191,-135 199.15,-138.04 207.88,-141.06 216.39,-143.89"/>
<polygon fill="#63b8ff" stroke="#63b8ff" points="109.97,-97.51 99.42,-96.61 107.1,-103.9 109.97,-97.51"/>
</a>
</g>
</g>
<!-- Node2 -->
<g id="Node000002" class="node">
<title>Node2</title>
<g id="a_Node000002"><a xlink:href="class_acts_1_1_space_point_container2_1_1_range.html" target="_top" xlink:title=" ">
<polygon fill="white" stroke="#666666" points="342,-126 191,-126 191,-96 342,-96 342,-126"/>
<text text-anchor="start" x="199" y="-114" font-family="Helvetica,sans-Serif" font-size="10.00">Acts::SpacePointContainer2</text>
<text text-anchor="middle" x="266.5" y="-103" font-family="Helvetica,sans-Serif" font-size="10.00">::Range&lt; true &gt;</text>
</a>
</g>
</g>
<!-- Node0&#45;&gt;Node2 -->
<g id="edge15_Node000000_Node000002" class="edge">
<title>Node0&#45;&gt;Node2</title>
<g id="a_edge15_Node000000_Node000002"><a xlink:title=" ">
<path fill="none" stroke="#63b8ff" d="M162.76,-97.81C172.11,-99.01 181.58,-100.23 190.8,-101.41"/>
<polygon fill="#63b8ff" stroke="#63b8ff" points="163.04,-94.32 152.68,-96.52 162.15,-101.26 163.04,-94.32"/>
</a>
</g>
</g>
<!-- Node3 -->
<g id="Node000003" class="node">
<title>Node3</title>
<g id="a_Node000003"><a xlink:href="class_acts_1_1_doublets_for_middle_sp_1_1_range.html" target="_top" xlink:title=" ">
<polygon fill="white" stroke="#666666" points="340,-78 193,-78 193,-48 340,-48 340,-78"/>
<text text-anchor="start" x="201" y="-66" font-family="Helvetica,sans-Serif" font-size="10.00">Acts::DoubletsForMiddleSp</text>
<text text-anchor="middle" x="266.5" y="-55" font-family="Helvetica,sans-Serif" font-size="10.00">::Range</text>
</a>
</g>
</g>
<!-- Node0&#45;&gt;Node3 -->
<g id="edge16_Node000000_Node000003" class="edge">
<title>Node0&#45;&gt;Node3</title>
<g id="a_edge16_Node000000_Node000003"><a xlink:title=" ">
<path fill="none" stroke="#63b8ff" d="M162.7,-76.19C172.79,-74.9 183.03,-73.58 192.94,-72.31"/>
<polygon fill="#63b8ff" stroke="#63b8ff" points="162.15,-72.74 152.68,-77.48 163.04,-79.68 162.15,-72.74"/>
</a>
</g>
</g>
<!-- Node4 -->
<g id="Node000004" class="node">
<title>Node4</title>
<g id="a_Node000004"><a xlink:href="class_acts_1_1_space_point_container2_1_1_range.html" target="_top" xlink:title=" ">
<polygon fill="white" stroke="#666666" points="342,-30 191,-30 191,0 342,0 342,-30"/>
<text text-anchor="start" x="199" y="-18" font-family="Helvetica,sans-Serif" font-size="10.00">Acts::SpacePointContainer2</text>
<text text-anchor="middle" x="266.5" y="-7" font-family="Helvetica,sans-Serif" font-size="10.00">::Range&lt; read_only &gt;</text>
</a>
</g>
</g>
<!-- Node0&#45;&gt;Node4 -->
<g id="edge17_Node000000_Node000004" class="edge">
<title>Node0&#45;&gt;Node4</title>
<g id="a_edge17_Node000000_Node000004"><a xlink:title=" ">
<path fill="none" stroke="#63b8ff" d="M108.76,-73.2C131.23,-63.16 162.76,-49.55 191,-39 199.15,-35.96 207.88,-32.94 216.39,-30.11"/>
<polygon fill="#63b8ff" stroke="#63b8ff" points="107.1,-70.1 99.42,-77.39 109.97,-76.49 107.1,-70.1"/>
</a>
</g>
</g>
</g>
</svg>
