<?xml version="1.0" encoding="UTF-8" standalone="no"?>
<!DOCTYPE svg PUBLIC "-//W3C//DTD SVG 1.1//EN"
 "http://www.w3.org/Graphics/SVG/1.1/DTD/svg11.dtd">
<!-- Generated by graphviz version 2.43.0 (0)
 -->
<!-- Title: Graphical Class Hierarchy Pages: 1 -->
<svg width="340pt" height="172pt"
 viewBox="0.00 0.00 340.00 172.00" xmlns="http://www.w3.org/2000/svg" xmlns:xlink="http://www.w3.org/1999/xlink">
<g id="graph0" class="graph" transform="scale(1 1) rotate(0) translate(4 168)">
<title>Graphical Class Hierarchy</title>
<!-- Node0 -->
<g id="Node000000" class="node">
<title>Node0</title>
<g id="a_Node000000"><a xlink:href="struct_acts_1_1_navigator_plain_options.html" target="_top" xlink:title=" ">
<polygon fill="white" stroke="#666666" points="153,-93.5 0,-93.5 0,-74.5 153,-74.5 153,-93.5"/>
<text text-anchor="middle" x="76.5" y="-81.5" font-family="Helvetica,sans-Serif" font-size="10.00">Acts::NavigatorPlainOptions</text>
</a>
</g>
</g>
<!-- Node1 -->
<g id="Node000001" class="node">
<title>Node1</title>
<g id="a_Node000001"><a xlink:href="struct_acts_1_1_direct_navigator_1_1_options.html" target="_top" xlink:title="The nested options struct.">
<polygon fill="white" stroke="#666666" points="321,-164 200,-164 200,-134 321,-134 321,-164"/>
<text text-anchor="start" x="208" y="-152" font-family="Helvetica,sans-Serif" font-size="10.00">Acts::DirectNavigator</text>
<text text-anchor="middle" x="260.5" y="-141" font-family="Helvetica,sans-Serif" font-size="10.00">::Options</text>
</a>
</g>
</g>
<!-- Node0&#45;&gt;Node1 -->
<g id="edge188_Node000000_Node000001" class="edge">
<title>Node0&#45;&gt;Node1</title>
<g id="a_edge188_Node000000_Node000001"><a xlink:title=" ">
<path fill="none" stroke="#63b8ff" d="M112.67,-97.18C134.58,-105.33 163.37,-115.93 189,-125 197.29,-127.93 206.15,-131 214.69,-133.93"/>
<polygon fill="#63b8ff" stroke="#63b8ff" points="113.71,-93.83 103.12,-93.62 111.27,-100.39 113.71,-93.83"/>
</a>
</g>
</g>
<!-- Node2 -->
<g id="Node000002" class="node">
<title>Node2</title>
<g id="a_Node000002"><a xlink:href="struct_acts_1_1_navigator_1_1_options.html" target="_top" xlink:title="The navigator options.">
<polygon fill="white" stroke="#666666" points="328,-115.5 193,-115.5 193,-96.5 328,-96.5 328,-115.5"/>
<text text-anchor="middle" x="260.5" y="-103.5" font-family="Helvetica,sans-Serif" font-size="10.00">Acts::Navigator::Options</text>
</a>
</g>
</g>
<!-- Node0&#45;&gt;Node2 -->
<g id="edge189_Node000000_Node000002" class="edge">
<title>Node0&#45;&gt;Node2</title>
<g id="a_edge189_Node000000_Node000002"><a xlink:title=" ">
<path fill="none" stroke="#63b8ff" d="M163.06,-94.34C173.06,-95.55 183.15,-96.77 192.84,-97.94"/>
<polygon fill="#63b8ff" stroke="#63b8ff" points="163.45,-90.86 153.1,-93.14 162.61,-97.81 163.45,-90.86"/>
</a>
</g>
</g>
<!-- Node3 -->
<g id="Node000003" class="node">
<title>Node3</title>
<g id="a_Node000003"><a xlink:href="struct_acts_1_1_try_all_navigator_base_1_1_options.html" target="_top" xlink:title="Options for this Navigator.">
<polygon fill="white" stroke="#666666" points="332,-78 189,-78 189,-48 332,-48 332,-78"/>
<text text-anchor="start" x="197" y="-66" font-family="Helvetica,sans-Serif" font-size="10.00">Acts::TryAllNavigatorBase</text>
<text text-anchor="middle" x="260.5" y="-55" font-family="Helvetica,sans-Serif" font-size="10.00">::Options</text>
</a>
</g>
</g>
<!-- Node0&#45;&gt;Node3 -->
<g id="edge190_Node000000_Node000003" class="edge">
<title>Node0&#45;&gt;Node3</title>
<g id="a_edge190_Node000000_Node000003"><a xlink:title=" ">
<path fill="none" stroke="#63b8ff" d="M163.14,-74.12C171.73,-73.13 180.39,-72.13 188.8,-71.16"/>
<polygon fill="#63b8ff" stroke="#63b8ff" points="162.64,-70.65 153.1,-75.28 163.44,-77.61 162.64,-70.65"/>
</a>
</g>
</g>
<!-- Node4 -->
<g id="Node000004" class="node">
<title>Node4</title>
<g id="a_Node000004"><a xlink:href="struct_acts_1_1_void_navigator_1_1_options.html" target="_top" xlink:title="Nested Options struct.">
<polygon fill="white" stroke="#666666" points="317,-30 204,-30 204,0 317,0 317,-30"/>
<text text-anchor="start" x="212" y="-18" font-family="Helvetica,sans-Serif" font-size="10.00">Acts::VoidNavigator</text>
<text text-anchor="middle" x="260.5" y="-7" font-family="Helvetica,sans-Serif" font-size="10.00">::Options</text>
</a>
</g>
</g>
<!-- Node0&#45;&gt;Node4 -->
<g id="edge191_Node000000_Node000004" class="edge">
<title>Node0&#45;&gt;Node4</title>
<g id="a_edge191_Node000000_Node000004"><a xlink:title=" ">
<path fill="none" stroke="#63b8ff" d="M109.28,-70.63C131.49,-61.42 161.9,-49.07 189,-39 197,-36.03 205.56,-32.99 213.86,-30.12"/>
<polygon fill="#63b8ff" stroke="#63b8ff" points="107.88,-67.42 99.99,-74.49 110.57,-73.88 107.88,-67.42"/>
</a>
</g>
</g>
</g>
</svg>
