<?xml version="1.0" encoding="UTF-8" standalone="no"?>
<!DOCTYPE svg PUBLIC "-//W3C//DTD SVG 1.1//EN"
 "http://www.w3.org/Graphics/SVG/1.1/DTD/svg11.dtd">
<!-- Generated by graphviz version 2.43.0 (0)
 -->
<!-- Title: Graphical Class Hierarchy Pages: 1 -->
<svg width="384pt" height="76pt"
 viewBox="0.00 0.00 384.00 75.50" xmlns="http://www.w3.org/2000/svg" xmlns:xlink="http://www.w3.org/1999/xlink">
<g id="graph0" class="graph" transform="scale(1 1) rotate(0) translate(4 71.5)">
<title>Graphical Class Hierarchy</title>
<!-- Node0 -->
<g id="Node000000" class="node">
<title>Node0</title>
<g id="a_Node000000"><a xlink:href="class_acts_1_1_i_tracking_geometry_visitor.html" target="_top" xlink:title="Base class for tracking geometry visitors.">
<polygon fill="white" stroke="#666666" points="167,-40 0,-40 0,-21 167,-21 167,-40"/>
<text text-anchor="middle" x="83.5" y="-28" font-family="Helvetica,sans-Serif" font-size="10.00">Acts::ITrackingGeometryVisitor</text>
</a>
</g>
</g>
<!-- Node1 -->
<g id="Node000001" class="node">
<title>Node1</title>
<g id="a_Node000001"><a xlink:href="class_acts_1_1_tracking_geometry_mutable_visitor.html" target="_top" xlink:title="Mutable visitor interface for modifying the tracking geometry hierarchy.">
<polygon fill="white" stroke="#666666" points="376,-67.5 203,-67.5 203,-37.5 376,-37.5 376,-67.5"/>
<text text-anchor="start" x="211" y="-55.5" font-family="Helvetica,sans-Serif" font-size="10.00">Acts::TrackingGeometryMutable</text>
<text text-anchor="middle" x="289.5" y="-44.5" font-family="Helvetica,sans-Serif" font-size="10.00">Visitor</text>
</a>
</g>
</g>
<!-- Node0&#45;&gt;Node1 -->
<g id="edge149_Node000000_Node000001" class="edge">
<title>Node0&#45;&gt;Node1</title>
<g id="a_edge149_Node000000_Node000001"><a xlink:title=" ">
<path fill="none" stroke="#63b8ff" d="M177.13,-40.49C185.65,-41.41 194.26,-42.34 202.71,-43.25"/>
<polygon fill="#63b8ff" stroke="#63b8ff" points="177.5,-37.01 167.18,-39.42 176.75,-43.97 177.5,-37.01"/>
</a>
</g>
</g>
<!-- Node2 -->
<g id="Node000002" class="node">
<title>Node2</title>
<g id="a_Node000002"><a xlink:href="class_acts_1_1_tracking_geometry_visitor.html" target="_top" xlink:title="Visitor interface for traversing the tracking geometry hierarchy.">
<polygon fill="white" stroke="#666666" points="371.5,-19 207.5,-19 207.5,0 371.5,0 371.5,-19"/>
<text text-anchor="middle" x="289.5" y="-7" font-family="Helvetica,sans-Serif" font-size="10.00">Acts::TrackingGeometryVisitor</text>
</a>
</g>
</g>
<!-- Node0&#45;&gt;Node2 -->
<g id="edge150_Node000000_Node000002" class="edge">
<title>Node0&#45;&gt;Node2</title>
<g id="a_edge150_Node000000_Node000002"><a xlink:title=" ">
<path fill="none" stroke="#63b8ff" d="M177.19,-20.96C187.26,-19.92 197.44,-18.87 207.36,-17.85"/>
<polygon fill="#63b8ff" stroke="#63b8ff" points="176.77,-17.48 167.18,-21.99 177.49,-24.45 176.77,-17.48"/>
</a>
</g>
</g>
</g>
</svg>
