<?xml version="1.0" encoding="UTF-8" standalone="no"?>
<!DOCTYPE svg PUBLIC "-//W3C//DTD SVG 1.1//EN"
 "http://www.w3.org/Graphics/SVG/1.1/DTD/svg11.dtd">
<!-- Generated by graphviz version 2.43.0 (0)
 -->
<!-- Title: Graphical Class Hierarchy Pages: 1 -->
<svg width="326pt" height="238pt"
 viewBox="0.00 0.00 326.00 238.00" xmlns="http://www.w3.org/2000/svg" xmlns:xlink="http://www.w3.org/1999/xlink">
<g id="graph0" class="graph" transform="scale(1 1) rotate(0) translate(4 234)">
<title>Graphical Class Hierarchy</title>
<!-- Node0 -->
<g id="Node000000" class="node">
<title>Node0</title>
<g id="a_Node000000"><a xlink:title=" ">
<polygon fill="#e0e0e0" stroke="#999999" points="105,-132.5 0,-132.5 0,-113.5 105,-113.5 105,-132.5"/>
<text text-anchor="middle" x="52.5" y="-120.5" font-family="Helvetica,sans-Serif" font-size="10.00">detail::Extendable</text>
</a>
</g>
</g>
<!-- Node1 -->
<g id="Node000001" class="node">
<title>Node1</title>
<g id="a_Node000001"><a xlink:href="struct_acts_1_1_propagator_result.html" target="_top" xlink:title=" ">
<polygon fill="white" stroke="#666666" points="299.5,-230 159.5,-230 159.5,-200 299.5,-200 299.5,-230"/>
<text text-anchor="start" x="167.5" y="-218" font-family="Helvetica,sans-Serif" font-size="10.00">Acts::PropagatorResult</text>
<text text-anchor="middle" x="229.5" y="-207" font-family="Helvetica,sans-Serif" font-size="10.00">&lt; parameters_t, args... &gt;</text>
</a>
</g>
</g>
<!-- Node0&#45;&gt;Node1 -->
<g id="edge277_Node000000_Node000001" class="edge">
<title>Node0&#45;&gt;Node1</title>
<g id="a_edge277_Node000000_Node000001"><a xlink:title=" ">
<path fill="none" stroke="#8b1a1a" d="M70.43,-139.5C87.11,-154.89 113.95,-177.45 141,-191 147.76,-194.38 155.06,-197.34 162.46,-199.92"/>
<polygon fill="#8b1a1a" stroke="#8b1a1a" points="72.78,-136.9 63.11,-132.59 67.98,-142 72.78,-136.9"/>
</a>
</g>
</g>
<!-- Node2 -->
<g id="Node000002" class="node">
<title>Node2</title>
<g id="a_Node000002"><a xlink:href="struct_acts_1_1_propagator_state.html" target="_top" xlink:title=" ">
<polygon fill="white" stroke="#666666" points="318,-182 141,-182 141,-130 318,-130 318,-182"/>
<text text-anchor="start" x="149" y="-170" font-family="Helvetica,sans-Serif" font-size="10.00">Acts::PropagatorState</text>
<text text-anchor="start" x="149" y="-159" font-family="Helvetica,sans-Serif" font-size="10.00">&lt; propagator_options</text>
<text text-anchor="start" x="149" y="-148" font-family="Helvetica,sans-Serif" font-size="10.00">_t, StepperState, NavigatorState,</text>
<text text-anchor="middle" x="229.5" y="-137" font-family="Helvetica,sans-Serif" font-size="10.00"> extension_state_t... &gt;</text>
</a>
</g>
</g>
<!-- Node0&#45;&gt;Node2 -->
<g id="edge278_Node000000_Node000002" class="edge">
<title>Node0&#45;&gt;Node2</title>
<g id="a_edge278_Node000000_Node000002"><a xlink:title=" ">
<path fill="none" stroke="#8b1a1a" d="M114.05,-134.42C122.68,-136.05 131.71,-137.75 140.73,-139.45"/>
<polygon fill="#8b1a1a" stroke="#8b1a1a" points="114.59,-130.96 104.12,-132.54 113.3,-137.84 114.59,-130.96"/>
</a>
</g>
</g>
<!-- Node3 -->
<g id="Node000003" class="node">
<title>Node3</title>
<g id="a_Node000003"><a xlink:href="struct_acts_1_1_propagator_result.html" target="_top" xlink:title="Simple class holding result of propagation call.">
<polygon fill="white" stroke="#666666" points="293.5,-111.5 165.5,-111.5 165.5,-70.5 293.5,-70.5 293.5,-111.5"/>
<text text-anchor="start" x="173.5" y="-99.5" font-family="Helvetica,sans-Serif" font-size="10.00">Acts::PropagatorResult</text>
<text text-anchor="start" x="173.5" y="-88.5" font-family="Helvetica,sans-Serif" font-size="10.00">&lt; parameters_t, result</text>
<text text-anchor="middle" x="229.5" y="-77.5" font-family="Helvetica,sans-Serif" font-size="10.00">_list &gt;</text>
</a>
</g>
</g>
<!-- Node0&#45;&gt;Node3 -->
<g id="edge279_Node000000_Node000003" class="edge">
<title>Node0&#45;&gt;Node3</title>
<g id="a_edge279_Node000000_Node000003"><a xlink:title=" ">
<path fill="none" stroke="#8b1a1a" d="M115,-111.75C131.27,-108.78 148.86,-105.56 165.22,-102.57"/>
<polygon fill="#8b1a1a" stroke="#8b1a1a" points="114.27,-108.33 105.06,-113.57 115.53,-115.22 114.27,-108.33"/>
</a>
</g>
</g>
<!-- Node4 -->
<g id="Node000004" class="node">
<title>Node4</title>
<g id="a_Node000004"><a xlink:href="struct_acts_1_1_propagator_state.html" target="_top" xlink:title="private Propagator state for navigation and debugging">
<polygon fill="white" stroke="#666666" points="309.5,-52 149.5,-52 149.5,0 309.5,0 309.5,-52"/>
<text text-anchor="start" x="157.5" y="-40" font-family="Helvetica,sans-Serif" font-size="10.00">Acts::PropagatorState</text>
<text text-anchor="start" x="157.5" y="-29" font-family="Helvetica,sans-Serif" font-size="10.00">&lt; propagator_options</text>
<text text-anchor="start" x="157.5" y="-18" font-family="Helvetica,sans-Serif" font-size="10.00">_t, stepper_state_t, navigator</text>
<text text-anchor="middle" x="229.5" y="-7" font-family="Helvetica,sans-Serif" font-size="10.00">_state_t, extension_state_t &gt;</text>
</a>
</g>
</g>
<!-- Node0&#45;&gt;Node4 -->
<g id="edge280_Node000000_Node000004" class="edge">
<title>Node0&#45;&gt;Node4</title>
<g id="a_edge280_Node000000_Node000004"><a xlink:title=" ">
<path fill="none" stroke="#8b1a1a" d="M73.58,-107.1C90.81,-93.93 116.64,-75.3 141,-62 147.34,-58.54 154.09,-55.2 160.92,-52.05"/>
<polygon fill="#8b1a1a" stroke="#8b1a1a" points="71.18,-104.54 65.41,-113.43 75.46,-110.07 71.18,-104.54"/>
</a>
</g>
</g>
</g>
</svg>
