<?xml version="1.0" encoding="UTF-8" standalone="no"?>
<!DOCTYPE svg PUBLIC "-//W3C//DTD SVG 1.1//EN"
 "http://www.w3.org/Graphics/SVG/1.1/DTD/svg11.dtd">
<!-- Generated by graphviz version 2.43.0 (0)
 -->
<!-- Title: Graphical Class Hierarchy Pages: 1 -->
<svg width="315pt" height="247pt"
 viewBox="0.00 0.00 315.00 246.50" xmlns="http://www.w3.org/2000/svg" xmlns:xlink="http://www.w3.org/1999/xlink">
<g id="graph0" class="graph" transform="scale(1 1) rotate(0) translate(4 242.5)">
<title>Graphical Class Hierarchy</title>
<!-- Node0 -->
<g id="Node000000" class="node">
<title>Node0</title>
<g id="a_Node000000"><a xlink:href="class_acts_1_1_i_vertex_finder.html" target="_top" xlink:title="Common interface for both vertex finders and vertex seed finders.">
<polygon fill="white" stroke="#666666" points="108,-123 0,-123 0,-104 108,-104 108,-123"/>
<text text-anchor="middle" x="54" y="-111" font-family="Helvetica,sans-Serif" font-size="10.00">Acts::IVertexFinder</text>
</a>
</g>
</g>
<!-- Node1 -->
<g id="Node000001" class="node">
<title>Node1</title>
<g id="a_Node000001"><a xlink:href="class_acts_1_1_adaptive_grid_density_vertex_finder.html" target="_top" xlink:title="Vertex finder that makes use of a track density grid.">
<polygon fill="white" stroke="#666666" points="298,-238.5 153,-238.5 153,-208.5 298,-208.5 298,-238.5"/>
<text text-anchor="start" x="161" y="-226.5" font-family="Helvetica,sans-Serif" font-size="10.00">Acts::AdaptiveGridDensity</text>
<text text-anchor="middle" x="225.5" y="-215.5" font-family="Helvetica,sans-Serif" font-size="10.00">VertexFinder</text>
</a>
</g>
</g>
<!-- Node0&#45;&gt;Node1 -->
<g id="edge159_Node000000_Node000001" class="edge">
<title>Node0&#45;&gt;Node1</title>
<g id="a_edge159_Node000000_Node000001"><a xlink:title=" ">
<path fill="none" stroke="#63b8ff" d="M68.7,-131.06C84.76,-150.5 113.12,-181.45 144,-199.5 149.79,-202.89 156.1,-205.83 162.55,-208.38"/>
<polygon fill="#63b8ff" stroke="#63b8ff" points="71.23,-128.62 62.23,-123.03 65.78,-133.02 71.23,-128.62"/>
</a>
</g>
</g>
<!-- Node2 -->
<g id="Node000002" class="node">
<title>Node2</title>
<g id="a_Node000002"><a xlink:href="class_acts_1_1_adaptive_multi_vertex_finder.html" target="_top" xlink:title="Implements an iterative vertex finder.">
<polygon fill="white" stroke="#666666" points="297,-190.5 154,-190.5 154,-160.5 297,-160.5 297,-190.5"/>
<text text-anchor="start" x="162" y="-178.5" font-family="Helvetica,sans-Serif" font-size="10.00">Acts::AdaptiveMultiVertex</text>
<text text-anchor="middle" x="225.5" y="-167.5" font-family="Helvetica,sans-Serif" font-size="10.00">Finder</text>
</a>
</g>
</g>
<!-- Node0&#45;&gt;Node2 -->
<g id="edge160_Node000000_Node000002" class="edge">
<title>Node0&#45;&gt;Node2</title>
<g id="a_edge160_Node000000_Node000002"><a xlink:title=" ">
<path fill="none" stroke="#63b8ff" d="M85.05,-127.34C102.14,-134.96 124.05,-144.3 144,-151.5 152.64,-154.62 161.9,-157.66 170.96,-160.47"/>
<polygon fill="#63b8ff" stroke="#63b8ff" points="86.15,-124 75.59,-123.08 83.28,-130.38 86.15,-124"/>
</a>
</g>
</g>
<!-- Node3 -->
<g id="Node000003" class="node">
<title>Node3</title>
<g id="a_Node000003"><a xlink:href="class_acts_1_1_grid_density_vertex_finder.html" target="_top" xlink:title="Vertex finder that makes use of a track density grid.">
<polygon fill="white" stroke="#666666" points="307,-142 144,-142 144,-123 307,-123 307,-142"/>
<text text-anchor="middle" x="225.5" y="-130" font-family="Helvetica,sans-Serif" font-size="10.00">Acts::GridDensityVertexFinder</text>
</a>
</g>
</g>
<!-- Node0&#45;&gt;Node3 -->
<g id="edge161_Node000000_Node000003" class="edge">
<title>Node0&#45;&gt;Node3</title>
<g id="a_edge161_Node000000_Node000003"><a xlink:title=" ">
<path fill="none" stroke="#63b8ff" d="M118.21,-120.59C126.59,-121.53 135.27,-122.5 143.9,-123.46"/>
<polygon fill="#63b8ff" stroke="#63b8ff" points="118.49,-117.1 108.17,-119.46 117.71,-124.05 118.49,-117.1"/>
</a>
</g>
</g>
<!-- Node4 -->
<g id="Node000004" class="node">
<title>Node4</title>
<g id="a_Node000004"><a xlink:href="class_acts_1_1_iterative_vertex_finder.html" target="_top" xlink:title="Implements an iterative vertex finder.">
<polygon fill="white" stroke="#666666" points="298.5,-105 152.5,-105 152.5,-86 298.5,-86 298.5,-105"/>
<text text-anchor="middle" x="225.5" y="-93" font-family="Helvetica,sans-Serif" font-size="10.00">Acts::IterativeVertexFinder</text>
</a>
</g>
</g>
<!-- Node0&#45;&gt;Node4 -->
<g id="edge162_Node000000_Node000004" class="edge">
<title>Node0&#45;&gt;Node4</title>
<g id="a_edge162_Node000000_Node000004"><a xlink:title=" ">
<path fill="none" stroke="#63b8ff" d="M118.19,-106.79C129.3,-105.61 140.93,-104.37 152.26,-103.17"/>
<polygon fill="#63b8ff" stroke="#63b8ff" points="117.74,-103.32 108.17,-107.85 118.48,-110.28 117.74,-103.32"/>
</a>
</g>
</g>
<!-- Node5 -->
<g id="Node000005" class="node">
<title>Node5</title>
<g id="a_Node000005"><a xlink:href="class_acts_1_1_track_density_vertex_finder.html" target="_top" xlink:title="Finds a vertex seed based on the maximum of a track density function.">
<polygon fill="white" stroke="#666666" points="294.5,-67.5 156.5,-67.5 156.5,-37.5 294.5,-37.5 294.5,-67.5"/>
<text text-anchor="start" x="164.5" y="-55.5" font-family="Helvetica,sans-Serif" font-size="10.00">Acts::TrackDensityVertex</text>
<text text-anchor="middle" x="225.5" y="-44.5" font-family="Helvetica,sans-Serif" font-size="10.00">Finder</text>
</a>
</g>
</g>
<!-- Node0&#45;&gt;Node5 -->
<g id="edge163_Node000000_Node000005" class="edge">
<title>Node0&#45;&gt;Node5</title>
<g id="a_edge163_Node000000_Node000005"><a xlink:title=" ">
<path fill="none" stroke="#63b8ff" d="M86.52,-100C103.43,-92.95 124.71,-84.38 144,-77.5 153.51,-74.11 163.74,-70.73 173.62,-67.6"/>
<polygon fill="#63b8ff" stroke="#63b8ff" points="84.98,-96.86 77.11,-103.96 87.69,-103.31 84.98,-96.86"/>
</a>
</g>
</g>
<!-- Node6 -->
<g id="Node000006" class="node">
<title>Node6</title>
<g id="a_Node000006"><a xlink:href="class_acts_1_1_z_scan_vertex_finder.html" target="_top" xlink:title="Implements a vertex finder based on the mode of z0 values:">
<polygon fill="white" stroke="#666666" points="293,-19 158,-19 158,0 293,0 293,-19"/>
<text text-anchor="middle" x="225.5" y="-7" font-family="Helvetica,sans-Serif" font-size="10.00">Acts::ZScanVertexFinder</text>
</a>
</g>
</g>
<!-- Node0&#45;&gt;Node6 -->
<g id="edge164_Node000000_Node000006" class="edge">
<title>Node0&#45;&gt;Node6</title>
<g id="a_edge164_Node000000_Node000006"><a xlink:title=" ">
<path fill="none" stroke="#63b8ff" d="M68.56,-95.82C84.49,-76.32 112.73,-45.46 144,-28.5 151.19,-24.6 159.18,-21.49 167.24,-19.02"/>
<polygon fill="#63b8ff" stroke="#63b8ff" points="65.63,-93.88 62.15,-103.89 71.11,-98.24 65.63,-93.88"/>
</a>
</g>
</g>
</g>
</svg>
