<?xml version="1.0" encoding="UTF-8" standalone="no"?>
<!DOCTYPE svg PUBLIC "-//W3C//DTD SVG 1.1//EN"
 "http://www.w3.org/Graphics/SVG/1.1/DTD/svg11.dtd">
<!-- Generated by graphviz version 2.43.0 (0)
 -->
<!-- Title: Graphical Class Hierarchy Pages: 1 -->
<svg width="347pt" height="64pt"
 viewBox="0.00 0.00 347.00 64.00" xmlns="http://www.w3.org/2000/svg" xmlns:xlink="http://www.w3.org/1999/xlink">
<g id="graph0" class="graph" transform="scale(1 1) rotate(0) translate(4 60)">
<title>Graphical Class Hierarchy</title>
<!-- Node0 -->
<g id="Node000000" class="node">
<title>Node0</title>
<g id="a_Node000000"><a xlink:title=" ">
<polygon fill="#e0e0e0" stroke="#999999" points="128,-42.5 0,-42.5 0,-12.5 128,-12.5 128,-42.5"/>
<text text-anchor="start" x="8" y="-30.5" font-family="Helvetica,sans-Serif" font-size="10.00">Acts::detail_vtc::Vector</text>
<text text-anchor="middle" x="64" y="-19.5" font-family="Helvetica,sans-Serif" font-size="10.00">TrackContainerBase</text>
</a>
</g>
</g>
<!-- Node1 -->
<g id="Node000001" class="node">
<title>Node1</title>
<g id="a_Node000001"><a xlink:href="class_acts_1_1_const_vector_track_container.html" target="_top" xlink:title=" ">
<polygon fill="white" stroke="#666666" points="339,-56 164,-56 164,-37 339,-37 339,-56"/>
<text text-anchor="middle" x="251.5" y="-44" font-family="Helvetica,sans-Serif" font-size="10.00">Acts::ConstVectorTrackContainer</text>
</a>
</g>
</g>
<!-- Node0&#45;&gt;Node1 -->
<g id="edge37_Node000000_Node000001" class="edge">
<title>Node0&#45;&gt;Node1</title>
<g id="a_edge37_Node000000_Node000001"><a xlink:title=" ">
<path fill="none" stroke="#63b8ff" d="M138.23,-35C146.68,-35.87 155.35,-36.75 163.95,-37.64"/>
<polygon fill="#63b8ff" stroke="#63b8ff" points="138.37,-31.5 128.06,-33.96 137.65,-38.46 138.37,-31.5"/>
</a>
</g>
</g>
<!-- Node2 -->
<g id="Node000002" class="node">
<title>Node2</title>
<g id="a_Node000002"><a xlink:href="class_acts_1_1_vector_track_container.html" target="_top" xlink:title=" ">
<polygon fill="white" stroke="#666666" points="325,-19 178,-19 178,0 325,0 325,-19"/>
<text text-anchor="middle" x="251.5" y="-7" font-family="Helvetica,sans-Serif" font-size="10.00">Acts::VectorTrackContainer</text>
</a>
</g>
</g>
<!-- Node0&#45;&gt;Node2 -->
<g id="edge38_Node000000_Node000002" class="edge">
<title>Node0&#45;&gt;Node2</title>
<g id="a_edge38_Node000000_Node000002"><a xlink:title=" ">
<path fill="none" stroke="#63b8ff" d="M138.32,-20.39C151.28,-19.13 164.76,-17.82 177.71,-16.56"/>
<polygon fill="#63b8ff" stroke="#63b8ff" points="137.68,-16.93 128.06,-21.38 138.35,-23.9 137.68,-16.93"/>
</a>
</g>
</g>
</g>
</svg>
