<?xml version="1.0" encoding="UTF-8" standalone="no"?>
<!DOCTYPE svg PUBLIC "-//W3C//DTD SVG 1.1//EN"
 "http://www.w3.org/Graphics/SVG/1.1/DTD/svg11.dtd">
<!-- Generated by graphviz version 2.43.0 (0)
 -->
<!-- Title: Graphical Class Hierarchy Pages: 1 -->
<svg width="321pt" height="86pt"
 viewBox="0.00 0.00 321.00 86.00" xmlns="http://www.w3.org/2000/svg" xmlns:xlink="http://www.w3.org/1999/xlink">
<g id="graph0" class="graph" transform="scale(1 1) rotate(0) translate(4 82)">
<title>Graphical Class Hierarchy</title>
<!-- Node0 -->
<g id="Node000000" class="node">
<title>Node0</title>
<g id="a_Node000000"><a xlink:href="class_acts_1_1_i_assignment_finder.html" target="_top" xlink:title="Interface for the material mapping that seeks the possible assignment candidates for the material int...">
<polygon fill="white" stroke="#666666" points="134,-48.5 0,-48.5 0,-29.5 134,-29.5 134,-48.5"/>
<text text-anchor="middle" x="67" y="-36.5" font-family="Helvetica,sans-Serif" font-size="10.00">Acts::IAssignmentFinder</text>
</a>
</g>
</g>
<!-- Node1 -->
<g id="Node000001" class="node">
<title>Node1</title>
<g id="a_Node000001"><a xlink:href="class_acts_1_1_intersection_material_assigner.html" target="_top" xlink:title="A purely intersection based material assigner on a trial and error basis.">
<polygon fill="white" stroke="#666666" points="312.5,-78 170.5,-78 170.5,-48 312.5,-48 312.5,-78"/>
<text text-anchor="start" x="178.5" y="-66" font-family="Helvetica,sans-Serif" font-size="10.00">Acts::IntersectionMaterial</text>
<text text-anchor="middle" x="241.5" y="-55" font-family="Helvetica,sans-Serif" font-size="10.00">Assigner</text>
</a>
</g>
</g>
<!-- Node0&#45;&gt;Node1 -->
<g id="edge91_Node000000_Node000001" class="edge">
<title>Node0&#45;&gt;Node1</title>
<g id="a_edge91_Node000000_Node000001"><a xlink:title=" ">
<path fill="none" stroke="#63b8ff" d="M144.33,-49.62C153.02,-50.83 161.86,-52.06 170.47,-53.26"/>
<polygon fill="#63b8ff" stroke="#63b8ff" points="144.59,-46.12 134.2,-48.21 143.62,-53.06 144.59,-46.12"/>
</a>
</g>
</g>
<!-- Node2 -->
<g id="Node000002" class="node">
<title>Node2</title>
<g id="a_Node000002"><a xlink:href="class_acts_1_1_propagator_material_assigner.html" target="_top" xlink:title="A Propagator based material assigner that uses the navigation and transport of the propagator to assi...">
<polygon fill="white" stroke="#666666" points="313,-30 170,-30 170,0 313,0 313,-30"/>
<text text-anchor="start" x="178" y="-18" font-family="Helvetica,sans-Serif" font-size="10.00">Acts::PropagatorMaterial</text>
<text text-anchor="middle" x="241.5" y="-7" font-family="Helvetica,sans-Serif" font-size="10.00">Assigner&lt; propagator_t &gt;</text>
</a>
</g>
</g>
<!-- Node0&#45;&gt;Node2 -->
<g id="edge92_Node000000_Node000002" class="edge">
<title>Node0&#45;&gt;Node2</title>
<g id="a_edge92_Node000000_Node000002"><a xlink:title=" ">
<path fill="none" stroke="#63b8ff" d="M144.16,-28.4C152.72,-27.21 161.41,-26 169.89,-24.82"/>
<polygon fill="#63b8ff" stroke="#63b8ff" points="143.62,-24.94 134.2,-29.79 144.59,-31.88 143.62,-24.94"/>
</a>
</g>
</g>
</g>
</svg>
