<?xml version="1.0" encoding="UTF-8" standalone="no"?>
<!DOCTYPE svg PUBLIC "-//W3C//DTD SVG 1.1//EN"
 "http://www.w3.org/Graphics/SVG/1.1/DTD/svg11.dtd">
<!-- Generated by graphviz version 2.43.0 (0)
 -->
<!-- Title: Acts::MultiStepperLoop&lt; single_stepper_t, component_reducer_t &gt;::State Pages: 1 -->
<svg width="979pt" height="124pt"
 viewBox="0.00 0.00 979.00 124.00" xmlns="http://www.w3.org/2000/svg" xmlns:xlink="http://www.w3.org/1999/xlink">
<g id="graph0" class="graph" transform="scale(1 1) rotate(0) translate(4 120)">
<title>Acts::MultiStepperLoop&lt; single_stepper_t, component_reducer_t &gt;::State</title>
<!-- Node1 -->
<g id="Node000001" class="node">
<title>Node1</title>
<g id="a_Node000001"><a xlink:title=" ">
<polygon fill="#999999" stroke="#666666" points="971,-70 802,-70 802,-29 971,-29 971,-70"/>
<text text-anchor="start" x="810" y="-58" font-family="Helvetica,sans-Serif" font-size="10.00">Acts::MultiStepperLoop</text>
<text text-anchor="start" x="810" y="-47" font-family="Helvetica,sans-Serif" font-size="10.00">&lt; single_stepper_t, component</text>
<text text-anchor="middle" x="886.5" y="-36" font-family="Helvetica,sans-Serif" font-size="10.00">_reducer_t &gt;::State</text>
</a>
</g>
</g>
<!-- Node2 -->
<g id="Node000002" class="node">
<title>Node2</title>
<g id="a_Node000002"><a xlink:href="struct_acts_1_1_multi_stepper_loop_1_1_options.html" target="_top" xlink:title=" ">
<polygon fill="white" stroke="#666666" points="668,-116 499,-116 499,-75 668,-75 668,-116"/>
<text text-anchor="start" x="507" y="-104" font-family="Helvetica,sans-Serif" font-size="10.00">Acts::MultiStepperLoop</text>
<text text-anchor="start" x="507" y="-93" font-family="Helvetica,sans-Serif" font-size="10.00">&lt; single_stepper_t, component</text>
<text text-anchor="middle" x="583.5" y="-82" font-family="Helvetica,sans-Serif" font-size="10.00">_reducer_t &gt;::Options</text>
</a>
</g>
</g>
<!-- Node2&#45;&gt;Node1 -->
<g id="edge1_Node000001_Node000002" class="edge">
<title>Node2&#45;&gt;Node1</title>
<g id="a_edge1_Node000001_Node000002"><a xlink:title=" ">
<path fill="none" stroke="#9a32cd" stroke-dasharray="5,2" d="M678.37,-84.54C711.79,-80.3 749.64,-75.12 784,-69.5 789.85,-68.54 795.88,-67.5 801.94,-66.41"/>
<polygon fill="#9a32cd" stroke="#9a32cd" points="677.64,-81.11 668.15,-85.83 678.51,-88.05 677.64,-81.11"/>
</a>
</g>
<text text-anchor="start" x="717" y="-89" font-family="Helvetica,sans-Serif" font-size="10.00" fill="grey">options</text>
</g>
<!-- Node3 -->
<g id="Node000003" class="node">
<title>Node3</title>
<g id="a_Node000003"><a xlink:title=" ">
<polygon fill="white" stroke="#666666" points="418,-105 334,-105 334,-86 418,-86 418,-105"/>
<text text-anchor="middle" x="376" y="-93" font-family="Helvetica,sans-Serif" font-size="10.00">SingleOptions</text>
</a>
</g>
</g>
<!-- Node3&#45;&gt;Node2 -->
<g id="edge2_Node000002_Node000003" class="edge">
<title>Node3&#45;&gt;Node2</title>
<g id="a_edge2_Node000002_Node000003"><a xlink:title=" ">
<path fill="none" stroke="#63b8ff" d="M428.19,-95.5C449.47,-95.5 474.73,-95.5 498.58,-95.5"/>
<polygon fill="#63b8ff" stroke="#63b8ff" points="428.09,-92 418.09,-95.5 428.09,-99 428.09,-92"/>
</a>
</g>
</g>
<!-- Node4 -->
<g id="Node000004" class="node">
<title>Node4</title>
<g id="a_Node000004"><a xlink:href="class_acts_1_1_particle_hypothesis.html" target="_top" xlink:title="Specialized particle hypothesis for any kind of charged particles.">
<polygon fill="white" stroke="#666666" points="650.5,-57 516.5,-57 516.5,-38 650.5,-38 650.5,-57"/>
<text text-anchor="middle" x="583.5" y="-45" font-family="Helvetica,sans-Serif" font-size="10.00">Acts::ParticleHypothesis</text>
</a>
</g>
</g>
<!-- Node4&#45;&gt;Node1 -->
<g id="edge3_Node000001_Node000004" class="edge">
<title>Node4&#45;&gt;Node1</title>
<g id="a_edge3_Node000001_Node000004"><a xlink:title=" ">
<path fill="none" stroke="#9a32cd" stroke-dasharray="5,2" d="M660.69,-48.01C703.73,-48.29 757.6,-48.65 801.81,-48.94"/>
<polygon fill="#9a32cd" stroke="#9a32cd" points="660.58,-44.51 650.56,-47.94 660.53,-51.51 660.58,-44.51"/>
</a>
</g>
<text text-anchor="start" x="689" y="-54" font-family="Helvetica,sans-Serif" font-size="10.00" fill="grey">particleHypothesis</text>
</g>
<!-- Node5 -->
<g id="Node000005" class="node">
<title>Node5</title>
<g id="a_Node000005"><a xlink:href="class_acts_1_1_generic_particle_hypothesis.html" target="_top" xlink:title=" ">
<polygon fill="white" stroke="#666666" points="462,-62.5 290,-62.5 290,-32.5 462,-32.5 462,-62.5"/>
<text text-anchor="start" x="298" y="-50.5" font-family="Helvetica,sans-Serif" font-size="10.00">Acts::GenericParticleHypothesis</text>
<text text-anchor="middle" x="376" y="-39.5" font-family="Helvetica,sans-Serif" font-size="10.00">&lt; AnyCharge &gt;</text>
</a>
</g>
</g>
<!-- Node5&#45;&gt;Node4 -->
<g id="edge4_Node000004_Node000005" class="edge">
<title>Node5&#45;&gt;Node4</title>
<g id="a_edge4_Node000004_Node000005"><a xlink:title=" ">
<path fill="none" stroke="#63b8ff" d="M472.32,-47.5C487.2,-47.5 502.28,-47.5 516.32,-47.5"/>
<polygon fill="#63b8ff" stroke="#63b8ff" points="472.07,-44 462.07,-47.5 472.07,-51 472.07,-44"/>
</a>
</g>
</g>
<!-- Node6 -->
<g id="Node000006" class="node">
<title>Node6</title>
<g id="a_Node000006"><a xlink:href="class_acts_1_1_generic_particle_hypothesis.html" target="_top" xlink:title="Particle hypothesis used in reconstruction.">
<polygon fill="white" stroke="#666666" points="172,-62.5 0,-62.5 0,-32.5 172,-32.5 172,-62.5"/>
<text text-anchor="start" x="8" y="-50.5" font-family="Helvetica,sans-Serif" font-size="10.00">Acts::GenericParticleHypothesis</text>
<text text-anchor="middle" x="86" y="-39.5" font-family="Helvetica,sans-Serif" font-size="10.00">&lt; charge_t &gt;</text>
</a>
</g>
</g>
<!-- Node6&#45;&gt;Node5 -->
<g id="edge5_Node000005_Node000006" class="edge">
<title>Node6&#45;&gt;Node5</title>
<g id="a_edge5_Node000005_Node000006"><a xlink:title=" ">
<path fill="none" stroke="orange" stroke-dasharray="5,2" d="M182.4,-47.5C217.15,-47.5 256.18,-47.5 289.98,-47.5"/>
<polygon fill="orange" stroke="orange" points="182.24,-44 172.24,-47.5 182.24,-51 182.24,-44"/>
</a>
</g>
<text text-anchor="start" x="193" y="-53" font-family="Helvetica,sans-Serif" font-size="10.00" fill="grey">&lt; AnyCharge &gt;</text>
</g>
<!-- Node7 -->
<g id="Node000007" class="node">
<title>Node7</title>
<g id="a_Node000007"><a xlink:href="struct_acts_1_1_stepper_statistics.html" target="_top" xlink:title="A struct to hold statistics of the stepper.">
<polygon fill="white" stroke="#666666" points="646.5,-19 520.5,-19 520.5,0 646.5,0 646.5,-19"/>
<text text-anchor="middle" x="583.5" y="-7" font-family="Helvetica,sans-Serif" font-size="10.00">Acts::StepperStatistics</text>
</a>
</g>
</g>
<!-- Node7&#45;&gt;Node1 -->
<g id="edge6_Node000001_Node000007" class="edge">
<title>Node7&#45;&gt;Node1</title>
<g id="a_edge6_Node000001_Node000007"><a xlink:title=" ">
<path fill="none" stroke="#9a32cd" stroke-dasharray="5,2" d="M657.21,-13.28C695.15,-15.86 742.24,-20.02 784,-26.5 789.8,-27.4 795.77,-28.44 801.76,-29.58"/>
<polygon fill="#9a32cd" stroke="#9a32cd" points="656.98,-9.76 646.77,-12.59 656.52,-16.74 656.98,-9.76"/>
</a>
</g>
<text text-anchor="start" x="713" y="-32" font-family="Helvetica,sans-Serif" font-size="10.00" fill="grey">statistics</text>
</g>
</g>
</svg>
