<?xml version="1.0" encoding="UTF-8" standalone="no"?>
<!DOCTYPE svg PUBLIC "-//W3C//DTD SVG 1.1//EN"
 "http://www.w3.org/Graphics/SVG/1.1/DTD/svg11.dtd">
<!-- Generated by graphviz version 2.43.0 (0)
 -->
<!-- Title: ActsPlugins::TGeoLayerBuilder::Config Pages: 1 -->
<svg width="1081pt" height="387pt"
 viewBox="0.00 0.00 1081.00 386.51" xmlns="http://www.w3.org/2000/svg" xmlns:xlink="http://www.w3.org/1999/xlink">
<g id="graph0" class="graph" transform="scale(1 1) rotate(0) translate(4 382.51)">
<title>ActsPlugins::TGeoLayerBuilder::Config</title>
<!-- Node1 -->
<g id="Node000001" class="node">
<title>Node1</title>
<g id="a_Node000001"><a xlink:title="nested configuration struct for steering of the layer builder">
<polygon fill="#999999" stroke="#666666" points="1073,-191.51 907,-191.51 907,-161.51 1073,-161.51 1073,-191.51"/>
<text text-anchor="start" x="915" y="-179.51" font-family="Helvetica,sans-Serif" font-size="10.00">ActsPlugins::TGeoLayerBuilder</text>
<text text-anchor="middle" x="990" y="-168.51" font-family="Helvetica,sans-Serif" font-size="10.00">::Config</text>
</a>
</g>
</g>
<!-- Node2 -->
<g id="Node000002" class="node">
<title>Node2</title>
<g id="a_Node000002"><a xlink:title=" ">
<polygon fill="white" stroke="#666666" points="684,-373.01 619,-373.01 619,-354.01 684,-354.01 684,-373.01"/>
<text text-anchor="middle" x="651.5" y="-361.01" font-family="Helvetica,sans-Serif" font-size="10.00">std::string</text>
</a>
</g>
</g>
<!-- Node2&#45;&gt;Node1 -->
<g id="edge1_Node000001_Node000002" class="edge">
<title>Node2&#45;&gt;Node1</title>
<g id="a_edge1_Node000001_Node000002"><a xlink:title=" ">
<path fill="none" stroke="#9a32cd" stroke-dasharray="5,2" d="M694.51,-364.96C744.69,-364.73 829.34,-357.93 889,-319.51 938.66,-287.52 970.69,-221.29 983.13,-191.55"/>
<polygon fill="#9a32cd" stroke="#9a32cd" points="694.36,-361.46 684.34,-364.92 694.33,-368.46 694.36,-361.46"/>
</a>
</g>
<text text-anchor="start" x="780.5" y="-365.01" font-family="Helvetica,sans-Serif" font-size="10.00" fill="grey">configurationName</text>
</g>
<!-- Node3 -->
<g id="Node000003" class="node">
<title>Node3</title>
<g id="a_Node000003"><a xlink:title=" ">
<polygon fill="white" stroke="#666666" points="306,-378.51 202,-378.51 202,-348.51 306,-348.51 306,-378.51"/>
<text text-anchor="start" x="210" y="-366.51" font-family="Helvetica,sans-Serif" font-size="10.00">std::basic_string&lt;</text>
<text text-anchor="middle" x="254" y="-355.51" font-family="Helvetica,sans-Serif" font-size="10.00"> Char &gt;</text>
</a>
</g>
</g>
<!-- Node3&#45;&gt;Node2 -->
<g id="edge2_Node000002_Node000003" class="edge">
<title>Node3&#45;&gt;Node2</title>
<g id="a_edge2_Node000002_Node000003"><a xlink:title=" ">
<path fill="none" stroke="#63b8ff" d="M316.37,-363.51C401.73,-363.51 553.18,-363.51 618.76,-363.51"/>
<polygon fill="#63b8ff" stroke="#63b8ff" points="316.3,-360.01 306.3,-363.51 316.3,-367.01 316.3,-360.01"/>
</a>
</g>
</g>
<!-- Node4 -->
<g id="Node000004" class="node">
<title>Node4</title>
<g id="a_Node000004"><a xlink:title=" ">
<polygon fill="white" stroke="#666666" points="728.5,-336.01 574.5,-336.01 574.5,-295.01 728.5,-295.01 728.5,-336.01"/>
<text text-anchor="start" x="582.5" y="-324.01" font-family="Helvetica,sans-Serif" font-size="10.00">std::shared_ptr&lt; const</text>
<text text-anchor="start" x="582.5" y="-313.01" font-family="Helvetica,sans-Serif" font-size="10.00"> ActsPlugins::ITGeoIdentifier</text>
<text text-anchor="middle" x="651.5" y="-302.01" font-family="Helvetica,sans-Serif" font-size="10.00">Provider &gt;</text>
</a>
</g>
</g>
<!-- Node4&#45;&gt;Node1 -->
<g id="edge3_Node000001_Node000004" class="edge">
<title>Node4&#45;&gt;Node1</title>
<g id="a_edge3_Node000001_Node000004"><a xlink:title=" ">
<path fill="none" stroke="#9a32cd" stroke-dasharray="5,2" d="M738.58,-305.43C784.95,-297.6 842.1,-283.95 889,-260.51 924.09,-242.97 957.42,-210.77 975.35,-191.74"/>
<polygon fill="#9a32cd" stroke="#9a32cd" points="737.86,-302 728.56,-307.06 738.99,-308.91 737.86,-302"/>
</a>
</g>
<text text-anchor="start" x="785.5" y="-304.01" font-family="Helvetica,sans-Serif" font-size="10.00" fill="grey">identifierProvider</text>
</g>
<!-- Node5 -->
<g id="Node000005" class="node">
<title>Node5</title>
<g id="a_Node000005"><a xlink:title=" ">
<polygon fill="white" stroke="#666666" points="313,-242.01 195,-242.01 195,-223.01 313,-223.01 313,-242.01"/>
<text text-anchor="middle" x="254" y="-230.01" font-family="Helvetica,sans-Serif" font-size="10.00">std::shared_ptr&lt; T &gt;</text>
</a>
</g>
</g>
<!-- Node5&#45;&gt;Node4 -->
<g id="edge4_Node000004_Node000005" class="edge">
<title>Node5&#45;&gt;Node4</title>
<g id="a_edge4_Node000004_Node000005"><a xlink:title=" ">
<path fill="none" stroke="orange" stroke-dasharray="5,2" d="M273.6,-248.77C288.56,-260.85 310.7,-276.55 333,-284.51 412.03,-312.7 508.72,-318.38 574.48,-318.32"/>
<polygon fill="orange" stroke="orange" points="275.59,-245.88 265.67,-242.16 271.11,-251.26 275.59,-245.88"/>
</a>
</g>
<text text-anchor="start" x="367" y="-338.51" font-family="Helvetica,sans-Serif" font-size="10.00" fill="grey">&lt; const ActsPlugins</text>
<text text-anchor="start" x="367" y="-323.51" font-family="Helvetica,sans-Serif" font-size="10.00" fill="grey">  ::ITGeoIdentifierProvider &gt;</text>
</g>
<!-- Node6 -->
<g id="Node000006" class="node">
<title>Node6</title>
<g id="a_Node000006"><a xlink:title=" ">
<polygon fill="white" stroke="#666666" points="748,-277.01 555,-277.01 555,-236.01 748,-236.01 748,-277.01"/>
<text text-anchor="start" x="563" y="-265.01" font-family="Helvetica,sans-Serif" font-size="10.00">std::shared_ptr&lt; const</text>
<text text-anchor="start" x="563" y="-254.01" font-family="Helvetica,sans-Serif" font-size="10.00"> ActsPlugins::ITGeoDetectorElement</text>
<text text-anchor="middle" x="651.5" y="-243.01" font-family="Helvetica,sans-Serif" font-size="10.00">Splitter &gt;</text>
</a>
</g>
</g>
<!-- Node5&#45;&gt;Node6 -->
<g id="edge6_Node000006_Node000005" class="edge">
<title>Node5&#45;&gt;Node6</title>
<g id="a_edge6_Node000006_Node000005"><a xlink:title=" ">
<path fill="none" stroke="orange" stroke-dasharray="5,2" d="M323.72,-236.68C387.59,-240.55 483.33,-246.36 554.69,-250.69"/>
<polygon fill="orange" stroke="orange" points="323.55,-233.16 313.36,-236.05 323.13,-240.15 323.55,-233.16"/>
</a>
</g>
<text text-anchor="start" x="350" y="-269.51" font-family="Helvetica,sans-Serif" font-size="10.00" fill="grey">&lt; const ActsPlugins</text>
<text text-anchor="start" x="350" y="-254.51" font-family="Helvetica,sans-Serif" font-size="10.00" fill="grey">  ::ITGeoDetectorElementSplitter &gt;</text>
</g>
<!-- Node7 -->
<g id="Node000007" class="node">
<title>Node7</title>
<g id="a_Node000007"><a xlink:title=" ">
<polygon fill="white" stroke="#666666" points="715,-217.51 588,-217.51 588,-187.51 715,-187.51 715,-217.51"/>
<text text-anchor="start" x="596" y="-205.51" font-family="Helvetica,sans-Serif" font-size="10.00">std::shared_ptr&lt; const</text>
<text text-anchor="middle" x="651.5" y="-194.51" font-family="Helvetica,sans-Serif" font-size="10.00"> Acts::LayerCreator &gt;</text>
</a>
</g>
</g>
<!-- Node5&#45;&gt;Node7 -->
<g id="edge8_Node000007_Node000005" class="edge">
<title>Node5&#45;&gt;Node7</title>
<g id="a_edge8_Node000007_Node000005"><a xlink:title=" ">
<path fill="none" stroke="orange" stroke-dasharray="5,2" d="M305.12,-221.01C314.35,-219.24 323.93,-217.63 333,-216.51 421.02,-205.61 523.69,-202.88 587.9,-202.35"/>
<polygon fill="orange" stroke="orange" points="304.4,-217.58 295.28,-222.98 305.77,-224.45 304.4,-217.58"/>
</a>
</g>
<text text-anchor="start" x="364" y="-222.01" font-family="Helvetica,sans-Serif" font-size="10.00" fill="grey">&lt; const Acts::LayerCreator &gt;</text>
</g>
<!-- Node8 -->
<g id="Node000008" class="node">
<title>Node8</title>
<g id="a_Node000008"><a xlink:title=" ">
<polygon fill="white" stroke="#666666" points="723,-169.51 580,-169.51 580,-139.51 723,-139.51 723,-169.51"/>
<text text-anchor="start" x="588" y="-157.51" font-family="Helvetica,sans-Serif" font-size="10.00">std::shared_ptr&lt; const</text>
<text text-anchor="middle" x="651.5" y="-146.51" font-family="Helvetica,sans-Serif" font-size="10.00"> Acts::ProtoLayerHelper &gt;</text>
</a>
</g>
</g>
<!-- Node5&#45;&gt;Node8 -->
<g id="edge10_Node000008_Node000005" class="edge">
<title>Node5&#45;&gt;Node8</title>
<g id="a_edge10_Node000008_Node000005"><a xlink:title=" ">
<path fill="none" stroke="orange" stroke-dasharray="5,2" d="M269.41,-214.95C283.67,-199.03 307.09,-176.56 333,-166.51 413.23,-135.39 513.58,-137.74 579.73,-144.32"/>
<polygon fill="orange" stroke="orange" points="266.71,-212.73 262.82,-222.58 272,-217.3 266.71,-212.73"/>
</a>
</g>
<text text-anchor="start" x="375" y="-187.51" font-family="Helvetica,sans-Serif" font-size="10.00" fill="grey">&lt; const Acts::ProtoLayer</text>
<text text-anchor="start" x="375" y="-172.51" font-family="Helvetica,sans-Serif" font-size="10.00" fill="grey">  Helper &gt;</text>
</g>
<!-- Node6&#45;&gt;Node1 -->
<g id="edge5_Node000001_Node000006" class="edge">
<title>Node6&#45;&gt;Node1</title>
<g id="a_edge5_Node000001_Node000006"><a xlink:title=" ">
<path fill="none" stroke="#9a32cd" stroke-dasharray="5,2" d="M758.06,-241.36C799.28,-234.4 846.7,-225.08 889,-213.51 910.6,-207.59 934.13,-199 952.93,-191.59"/>
<polygon fill="#9a32cd" stroke="#9a32cd" points="757.29,-237.94 748,-243.04 758.44,-244.85 757.29,-237.94"/>
</a>
</g>
<text text-anchor="start" x="769.5" y="-245.01" font-family="Helvetica,sans-Serif" font-size="10.00" fill="grey">detectorElementSplitter</text>
</g>
<!-- Node7&#45;&gt;Node1 -->
<g id="edge7_Node000001_Node000007" class="edge">
<title>Node7&#45;&gt;Node1</title>
<g id="a_edge7_Node000001_Node000007"><a xlink:title=" ">
<path fill="none" stroke="#9a32cd" stroke-dasharray="5,2" d="M725.09,-196.9C778.52,-192.77 851.24,-187.15 906.81,-182.86"/>
<polygon fill="#9a32cd" stroke="#9a32cd" points="724.71,-193.42 715,-197.68 725.24,-200.4 724.71,-193.42"/>
</a>
</g>
<text text-anchor="start" x="797.5" y="-198.01" font-family="Helvetica,sans-Serif" font-size="10.00" fill="grey">layerCreator</text>
</g>
<!-- Node8&#45;&gt;Node1 -->
<g id="edge9_Node000001_Node000008" class="edge">
<title>Node8&#45;&gt;Node1</title>
<g id="a_edge9_Node000001_Node000008"><a xlink:title=" ">
<path fill="none" stroke="#9a32cd" stroke-dasharray="5,2" d="M733.16,-154.51C778.95,-155.11 837.27,-156.88 889,-161.51 894.86,-162.03 900.89,-162.67 906.96,-163.4"/>
<polygon fill="#9a32cd" stroke="#9a32cd" points="733.04,-151.01 723,-154.4 732.96,-158.01 733.04,-151.01"/>
</a>
</g>
<text text-anchor="start" x="785.5" y="-167.01" font-family="Helvetica,sans-Serif" font-size="10.00" fill="grey">protoLayerHelper</text>
</g>
<!-- Node9 -->
<g id="Node000009" class="node">
<title>Node9</title>
<g id="a_Node000009"><a xlink:title=" ">
<polygon fill="white" stroke="#666666" points="740,-121.01 563,-121.01 563,-80.01 740,-80.01 740,-121.01"/>
<text text-anchor="start" x="571" y="-109.01" font-family="Helvetica,sans-Serif" font-size="10.00">std::array&lt; std::vector</text>
<text text-anchor="start" x="571" y="-98.01" font-family="Helvetica,sans-Serif" font-size="10.00">&lt; ActsPlugins::TGeoLayerBuilder</text>
<text text-anchor="middle" x="651.5" y="-87.01" font-family="Helvetica,sans-Serif" font-size="10.00">::LayerConfig &gt;, 3 &gt;</text>
</a>
</g>
</g>
<!-- Node9&#45;&gt;Node1 -->
<g id="edge11_Node000001_Node000009" class="edge">
<title>Node9&#45;&gt;Node1</title>
<g id="a_edge11_Node000001_Node000009"><a xlink:title=" ">
<path fill="none" stroke="#9a32cd" stroke-dasharray="5,2" d="M750.33,-108.22C793.4,-113.13 844.27,-121.01 889,-133.51 913.57,-140.37 940.04,-151.95 959.57,-161.37"/>
<polygon fill="#9a32cd" stroke="#9a32cd" points="750.46,-104.72 740.13,-107.1 749.69,-111.67 750.46,-104.72"/>
</a>
</g>
<text text-anchor="start" x="779.5" y="-139.01" font-family="Helvetica,sans-Serif" font-size="10.00" fill="grey">layerConfigurations</text>
</g>
<!-- Node10 -->
<g id="Node000010" class="node">
<title>Node10</title>
<g id="a_Node000010"><a xlink:title=" ">
<polygon fill="white" stroke="#666666" points="300,-88.01 208,-88.01 208,-69.01 300,-69.01 300,-88.01"/>
<text text-anchor="middle" x="254" y="-76.01" font-family="Helvetica,sans-Serif" font-size="10.00">std::array&lt; T &gt;</text>
</a>
</g>
</g>
<!-- Node10&#45;&gt;Node9 -->
<g id="edge12_Node000009_Node000010" class="edge">
<title>Node10&#45;&gt;Node9</title>
<g id="a_edge12_Node000009_Node000010"><a xlink:title=" ">
<path fill="none" stroke="orange" stroke-dasharray="5,2" d="M310.49,-81.59C376.02,-85.24 485.83,-91.35 562.88,-95.63"/>
<polygon fill="orange" stroke="orange" points="310.55,-78.09 300.37,-81.03 310.16,-85.08 310.55,-78.09"/>
</a>
</g>
<text text-anchor="start" x="336" y="-114.51" font-family="Helvetica,sans-Serif" font-size="10.00" fill="grey">&lt; std::vector&lt; ActsPlugins</text>
<text text-anchor="start" x="336" y="-99.51" font-family="Helvetica,sans-Serif" font-size="10.00" fill="grey">  ::TGeoLayerBuilder::LayerConfig &gt;, 3 &gt;</text>
</g>
<!-- Node11 -->
<g id="Node000011" class="node">
<title>Node11</title>
<g id="a_Node000011"><a xlink:title=" ">
<polygon fill="white" stroke="#666666" points="717,-62.01 586,-62.01 586,-43.01 717,-43.01 717,-62.01"/>
<text text-anchor="middle" x="651.5" y="-50.01" font-family="Helvetica,sans-Serif" font-size="10.00">std::array&lt; double, 3 &gt;</text>
</a>
</g>
</g>
<!-- Node10&#45;&gt;Node11 -->
<g id="edge14_Node000011_Node000010" class="edge">
<title>Node10&#45;&gt;Node11</title>
<g id="a_edge14_Node000011_Node000010"><a xlink:title=" ">
<path fill="none" stroke="orange" stroke-dasharray="5,2" d="M301.99,-66.79C312.15,-64.67 322.89,-62.74 333,-61.51 420.03,-50.88 521.43,-49.98 585.78,-50.83"/>
<polygon fill="orange" stroke="orange" points="301.08,-63.4 292.05,-68.95 302.57,-70.24 301.08,-63.4"/>
</a>
</g>
<text text-anchor="start" x="401" y="-67.01" font-family="Helvetica,sans-Serif" font-size="10.00" fill="grey">&lt; double, 3 &gt;</text>
</g>
<!-- Node11&#45;&gt;Node1 -->
<g id="edge13_Node000001_Node000011" class="edge">
<title>Node11&#45;&gt;Node1</title>
<g id="a_edge13_Node000001_Node000011"><a xlink:title=" ">
<path fill="none" stroke="#9a32cd" stroke-dasharray="5,2" d="M727.24,-46.12C775.61,-45.04 838.71,-49.56 889,-73.51 930.41,-93.22 963.95,-137.8 979.54,-161.32"/>
<polygon fill="#9a32cd" stroke="#9a32cd" points="727.04,-42.62 717.15,-46.42 727.25,-49.62 727.04,-42.62"/>
</a>
</g>
<text text-anchor="start" x="777.5" y="-94.51" font-family="Helvetica,sans-Serif" font-size="10.00" fill="grey">layerSplitToleranceR</text>
<text text-anchor="start" x="777.5" y="-79.51" font-family="Helvetica,sans-Serif" font-size="10.00" fill="grey">layerSplitToleranceZ</text>
</g>
<!-- Node12 -->
<g id="Node000012" class="node">
<title>Node12</title>
<g id="a_Node000012"><a xlink:href="struct_acts_1_1_surface_binning_matcher.html" target="_top" xlink:title=" ">
<polygon fill="white" stroke="#666666" points="730,-25.01 573,-25.01 573,-6.01 730,-6.01 730,-25.01"/>
<text text-anchor="middle" x="651.5" y="-13.01" font-family="Helvetica,sans-Serif" font-size="10.00">Acts::SurfaceBinningMatcher</text>
</a>
</g>
</g>
<!-- Node12&#45;&gt;Node1 -->
<g id="edge15_Node000001_Node000012" class="edge">
<title>Node12&#45;&gt;Node1</title>
<g id="a_edge15_Node000001_Node000012"><a xlink:title=" ">
<path fill="none" stroke="#9a32cd" stroke-dasharray="5,2" d="M709.08,-4.5C759.61,2.31 833.94,4.63 889,-26.51 942.67,-56.85 972.96,-129.32 984.07,-161.11"/>
<polygon fill="#9a32cd" stroke="#9a32cd" points="708.38,-1.06 698.98,-5.96 709.38,-7.99 708.38,-1.06"/>
</a>
</g>
<text text-anchor="start" x="781.5" y="-32.01" font-family="Helvetica,sans-Serif" font-size="10.00" fill="grey">surfaceBinMatcher</text>
</g>
<!-- Node13 -->
<g id="Node000013" class="node">
<title>Node13</title>
<g id="a_Node000013"><a xlink:title=" ">
<polygon fill="white" stroke="#666666" points="315,-25.01 193,-25.01 193,-6.01 315,-6.01 315,-25.01"/>
<text text-anchor="middle" x="254" y="-13.01" font-family="Helvetica,sans-Serif" font-size="10.00">std::vector&lt; Range &gt;</text>
</a>
</g>
</g>
<!-- Node13&#45;&gt;Node12 -->
<g id="edge16_Node000012_Node000013" class="edge">
<title>Node13&#45;&gt;Node12</title>
<g id="a_edge16_Node000012_Node000013"><a xlink:title=" ">
<path fill="none" stroke="#9a32cd" stroke-dasharray="5,2" d="M325.47,-15.51C394.97,-15.51 500.94,-15.51 572.83,-15.51"/>
<polygon fill="#9a32cd" stroke="#9a32cd" points="325.07,-12.01 315.07,-15.51 325.07,-19.01 325.07,-12.01"/>
</a>
</g>
<text text-anchor="start" x="409" y="-21.01" font-family="Helvetica,sans-Serif" font-size="10.00" fill="grey">tolerances</text>
</g>
<!-- Node14 -->
<g id="Node000014" class="node">
<title>Node14</title>
<g id="a_Node000014"><a xlink:title=" ">
<polygon fill="white" stroke="#666666" points="97,-25.01 0,-25.01 0,-6.01 97,-6.01 97,-25.01"/>
<text text-anchor="middle" x="48.5" y="-13.01" font-family="Helvetica,sans-Serif" font-size="10.00">std::vector&lt; T &gt;</text>
</a>
</g>
</g>
<!-- Node14&#45;&gt;Node13 -->
<g id="edge17_Node000013_Node000014" class="edge">
<title>Node14&#45;&gt;Node13</title>
<g id="a_edge17_Node000013_Node000014"><a xlink:title=" ">
<path fill="none" stroke="orange" stroke-dasharray="5,2" d="M107.55,-15.51C134.24,-15.51 165.88,-15.51 192.82,-15.51"/>
<polygon fill="orange" stroke="orange" points="107.21,-12.01 97.21,-15.51 107.21,-19.01 107.21,-12.01"/>
</a>
</g>
<text text-anchor="start" x="118" y="-21.01" font-family="Helvetica,sans-Serif" font-size="10.00" fill="grey">&lt; Range &gt;</text>
</g>
</g>
</svg>
