<?xml version="1.0" encoding="UTF-8" standalone="no"?>
<!DOCTYPE svg PUBLIC "-//W3C//DTD SVG 1.1//EN"
 "http://www.w3.org/Graphics/SVG/1.1/DTD/svg11.dtd">
<!-- Generated by graphviz version 2.43.0 (0)
 -->
<!-- Title: Acts::OrientedSurface Pages: 1 -->
<svg width="236pt" height="182pt"
 viewBox="0.00 0.00 236.00 182.00" xmlns="http://www.w3.org/2000/svg" xmlns:xlink="http://www.w3.org/1999/xlink">
<g id="graph0" class="graph" transform="scale(1 1) rotate(0) translate(4 178)">
<title>Acts::OrientedSurface</title>
<!-- Node1 -->
<g id="Node000001" class="node">
<title>Node1</title>
<g id="a_Node000001"><a xlink:title=" ">
<polygon fill="#999999" stroke="#666666" points="211,-19 89,-19 89,0 211,0 211,-19"/>
<text text-anchor="middle" x="150" y="-7" font-family="Helvetica,sans-Serif" font-size="10.00">Acts::OrientedSurface</text>
</a>
</g>
</g>
<!-- Node2 -->
<g id="Node000002" class="node">
<title>Node2</title>
<g id="a_Node000002"><a xlink:title=" ">
<polygon fill="white" stroke="#666666" points="122,-102 0,-102 0,-72 122,-72 122,-102"/>
<text text-anchor="start" x="8" y="-90" font-family="Helvetica,sans-Serif" font-size="10.00">std::shared_ptr&lt; Acts</text>
<text text-anchor="middle" x="61" y="-79" font-family="Helvetica,sans-Serif" font-size="10.00">::RegularSurface &gt;</text>
</a>
</g>
</g>
<!-- Node2&#45;&gt;Node1 -->
<g id="edge1_Node000001_Node000002" class="edge">
<title>Node2&#45;&gt;Node1</title>
<g id="a_edge1_Node000001_Node000002"><a xlink:title=" ">
<path fill="none" stroke="#9a32cd" stroke-dasharray="5,2" d="M82.84,-64.78C92.22,-55.94 103.43,-45.73 114,-37 121.66,-30.67 130.66,-24.05 137.74,-19.01"/>
<polygon fill="#9a32cd" stroke="#9a32cd" points="80.28,-62.39 75.45,-71.82 85.11,-67.46 80.28,-62.39"/>
</a>
</g>
<text text-anchor="start" x="117.5" y="-42.5" font-family="Helvetica,sans-Serif" font-size="10.00" fill="grey">surface</text>
</g>
<!-- Node3 -->
<g id="Node000003" class="node">
<title>Node3</title>
<g id="a_Node000003"><a xlink:title=" ">
<polygon fill="white" stroke="#666666" points="120,-174 2,-174 2,-155 120,-155 120,-174"/>
<text text-anchor="middle" x="61" y="-162" font-family="Helvetica,sans-Serif" font-size="10.00">std::shared_ptr&lt; T &gt;</text>
</a>
</g>
</g>
<!-- Node3&#45;&gt;Node2 -->
<g id="edge2_Node000002_Node000003" class="edge">
<title>Node3&#45;&gt;Node2</title>
<g id="a_edge2_Node000002_Node000003"><a xlink:title=" ">
<path fill="none" stroke="orange" stroke-dasharray="5,2" d="M61,-144.57C61,-131.43 61,-114.18 61,-102.21"/>
<polygon fill="orange" stroke="orange" points="57.5,-144.84 61,-154.84 64.5,-144.84 57.5,-144.84"/>
</a>
</g>
<text text-anchor="start" x="64" y="-125.5" font-family="Helvetica,sans-Serif" font-size="10.00" fill="grey">&lt; Acts::RegularSurface &gt;</text>
</g>
<!-- Node4 -->
<g id="Node000004" class="node">
<title>Node4</title>
<g id="a_Node000004"><a xlink:href="class_acts_1_1_direction.html" target="_top" xlink:title="The direction is always with respect to a given momentum, surface normal or other general axes.">
<polygon fill="white" stroke="#666666" points="228,-96.5 140,-96.5 140,-77.5 228,-77.5 228,-96.5"/>
<text text-anchor="middle" x="184" y="-84.5" font-family="Helvetica,sans-Serif" font-size="10.00">Acts::Direction</text>
</a>
</g>
</g>
<!-- Node4&#45;&gt;Node1 -->
<g id="edge3_Node000001_Node000004" class="edge">
<title>Node4&#45;&gt;Node1</title>
<g id="a_edge3_Node000001_Node000004"><a xlink:title=" ">
<path fill="none" stroke="#9a32cd" stroke-dasharray="5,2" d="M175.8,-67.79C168.84,-52.34 159.16,-30.84 153.85,-19.06"/>
<polygon fill="#9a32cd" stroke="#9a32cd" points="172.8,-69.66 180.1,-77.34 179.18,-66.78 172.8,-69.66"/>
</a>
</g>
<text text-anchor="start" x="172.5" y="-42.5" font-family="Helvetica,sans-Serif" font-size="10.00" fill="grey">direction</text>
</g>
</g>
</svg>
