<?xml version="1.0" encoding="UTF-8" standalone="no"?>
<!DOCTYPE svg PUBLIC "-//W3C//DTD SVG 1.1//EN"
 "http://www.w3.org/Graphics/SVG/1.1/DTD/svg11.dtd">
<!-- Generated by graphviz version 2.43.0 (0)
 -->
<!-- Title: Acts::CuboidVolumeBuilder::VolumeConfig Pages: 1 -->
<svg width="774pt" height="304pt"
 viewBox="0.00 0.00 774.00 304.00" xmlns="http://www.w3.org/2000/svg" xmlns:xlink="http://www.w3.org/1999/xlink">
<g id="graph0" class="graph" transform="scale(1 1) rotate(0) translate(4 300)">
<title>Acts::CuboidVolumeBuilder::VolumeConfig</title>
<!-- Node1 -->
<g id="Node000001" class="node">
<title>Node1</title>
<g id="a_Node000001"><a xlink:title="This struct stores the data for the construction of a cuboid TrackingVolume with a given number of Pl...">
<polygon fill="#999999" stroke="#666666" points="766,-139 617,-139 617,-109 766,-109 766,-139"/>
<text text-anchor="start" x="625" y="-127" font-family="Helvetica,sans-Serif" font-size="10.00">Acts::CuboidVolumeBuilder</text>
<text text-anchor="middle" x="691.5" y="-116" font-family="Helvetica,sans-Serif" font-size="10.00">::VolumeConfig</text>
</a>
</g>
</g>
<!-- Node2 -->
<g id="Node000002" class="node">
<title>Node2</title>
<g id="a_Node000002"><a xlink:title=" ">
<polygon fill="white" stroke="#666666" points="467.5,-284.5 345.5,-284.5 345.5,-243.5 467.5,-243.5 467.5,-284.5"/>
<text text-anchor="start" x="353.5" y="-272.5" font-family="Helvetica,sans-Serif" font-size="10.00">std::vector&lt; Acts::</text>
<text text-anchor="start" x="353.5" y="-261.5" font-family="Helvetica,sans-Serif" font-size="10.00">CuboidVolumeBuilder</text>
<text text-anchor="middle" x="406.5" y="-250.5" font-family="Helvetica,sans-Serif" font-size="10.00">::LayerConfig &gt;</text>
</a>
</g>
</g>
<!-- Node2&#45;&gt;Node1 -->
<g id="edge1_Node000001_Node000002" class="edge">
<title>Node2&#45;&gt;Node1</title>
<g id="a_edge1_Node000001_Node000002"><a xlink:title=" ">
<path fill="none" stroke="#9a32cd" stroke-dasharray="5,2" d="M477.55,-251.6C515.2,-242.99 561.47,-229.17 599,-208 631.31,-189.78 661.5,-158.12 677.85,-139.31"/>
<polygon fill="#9a32cd" stroke="#9a32cd" points="476.68,-248.21 467.67,-253.79 478.19,-255.04 476.68,-248.21"/>
</a>
</g>
<text text-anchor="start" x="534" y="-247.5" font-family="Helvetica,sans-Serif" font-size="10.00" fill="grey">layerCfg</text>
</g>
<!-- Node3 -->
<g id="Node000003" class="node">
<title>Node3</title>
<g id="a_Node000003"><a xlink:title=" ">
<polygon fill="white" stroke="#666666" points="107.5,-190.5 10.5,-190.5 10.5,-171.5 107.5,-171.5 107.5,-190.5"/>
<text text-anchor="middle" x="59" y="-178.5" font-family="Helvetica,sans-Serif" font-size="10.00">std::vector&lt; T &gt;</text>
</a>
</g>
</g>
<!-- Node3&#45;&gt;Node2 -->
<g id="edge2_Node000002_Node000003" class="edge">
<title>Node3&#45;&gt;Node2</title>
<g id="a_edge2_Node000002_Node000003"><a xlink:title=" ">
<path fill="none" stroke="orange" stroke-dasharray="5,2" d="M77.46,-197.41C91.96,-209.98 113.73,-226.56 136,-235 204.53,-260.99 289.43,-266.09 345.41,-266.1"/>
<polygon fill="orange" stroke="orange" points="79.61,-194.63 69.82,-190.57 74.94,-199.85 79.61,-194.63"/>
</a>
</g>
<text text-anchor="start" x="147" y="-285" font-family="Helvetica,sans-Serif" font-size="10.00" fill="grey">&lt; Acts::CuboidVolumeBuilder</text>
<text text-anchor="start" x="147" y="-270" font-family="Helvetica,sans-Serif" font-size="10.00" fill="grey">  ::LayerConfig &gt;</text>
</g>
<!-- Node4 -->
<g id="Node000004" class="node">
<title>Node4</title>
<g id="a_Node000004"><a xlink:title=" ">
<polygon fill="white" stroke="#666666" points="482.5,-224 330.5,-224 330.5,-194 482.5,-194 482.5,-224"/>
<text text-anchor="start" x="338.5" y="-212" font-family="Helvetica,sans-Serif" font-size="10.00">std::vector&lt; std::shared</text>
<text text-anchor="middle" x="406.5" y="-201" font-family="Helvetica,sans-Serif" font-size="10.00">_ptr&lt; const Acts::Layer &gt; &gt;</text>
</a>
</g>
</g>
<!-- Node3&#45;&gt;Node4 -->
<g id="edge4_Node000004_Node000003" class="edge">
<title>Node3&#45;&gt;Node4</title>
<g id="a_edge4_Node000004_Node000003"><a xlink:title=" ">
<path fill="none" stroke="orange" stroke-dasharray="5,2" d="M117.83,-185.69C176.2,-190.42 266.6,-197.74 330.46,-202.92"/>
<polygon fill="orange" stroke="orange" points="117.93,-182.18 107.68,-184.86 117.36,-189.16 117.93,-182.18"/>
</a>
</g>
<text text-anchor="start" x="162" y="-220" font-family="Helvetica,sans-Serif" font-size="10.00" fill="grey">&lt; std::shared_ptr&lt;</text>
<text text-anchor="start" x="162" y="-205" font-family="Helvetica,sans-Serif" font-size="10.00" fill="grey">   const Acts::Layer &gt; &gt;</text>
</g>
<!-- Node5 -->
<g id="Node000005" class="node">
<title>Node5</title>
<g id="a_Node000005"><a xlink:title=" ">
<polygon fill="white" stroke="#666666" points="467.5,-175.5 345.5,-175.5 345.5,-134.5 467.5,-134.5 467.5,-175.5"/>
<text text-anchor="start" x="353.5" y="-163.5" font-family="Helvetica,sans-Serif" font-size="10.00">std::vector&lt; Acts::</text>
<text text-anchor="start" x="353.5" y="-152.5" font-family="Helvetica,sans-Serif" font-size="10.00">CuboidVolumeBuilder</text>
<text text-anchor="middle" x="406.5" y="-141.5" font-family="Helvetica,sans-Serif" font-size="10.00">::VolumeConfig &gt;</text>
</a>
</g>
</g>
<!-- Node3&#45;&gt;Node5 -->
<g id="edge6_Node000005_Node000003" class="edge">
<title>Node3&#45;&gt;Node5</title>
<g id="a_edge6_Node000005_Node000003"><a xlink:title=" ">
<path fill="none" stroke="orange" stroke-dasharray="5,2" d="M91.11,-167.77C104.64,-162.69 120.83,-157.52 136,-155 207.19,-143.16 290.44,-145.59 345.36,-149.39"/>
<polygon fill="orange" stroke="orange" points="89.83,-164.51 81.78,-171.4 92.37,-171.03 89.83,-164.51"/>
</a>
</g>
<text text-anchor="start" x="147" y="-176" font-family="Helvetica,sans-Serif" font-size="10.00" fill="grey">&lt; Acts::CuboidVolumeBuilder</text>
<text text-anchor="start" x="147" y="-161" font-family="Helvetica,sans-Serif" font-size="10.00" fill="grey">  ::VolumeConfig &gt;</text>
</g>
<!-- Node6 -->
<g id="Node000006" class="node">
<title>Node6</title>
<g id="a_Node000006"><a xlink:title=" ">
<polygon fill="white" stroke="#666666" points="493,-116 320,-116 320,-86 493,-86 493,-116"/>
<text text-anchor="start" x="328" y="-104" font-family="Helvetica,sans-Serif" font-size="10.00">std::vector&lt; std::shared</text>
<text text-anchor="middle" x="406.5" y="-93" font-family="Helvetica,sans-Serif" font-size="10.00">_ptr&lt; Acts::TrackingVolume &gt; &gt;</text>
</a>
</g>
</g>
<!-- Node3&#45;&gt;Node6 -->
<g id="edge8_Node000006_Node000003" class="edge">
<title>Node3&#45;&gt;Node6</title>
<g id="a_edge8_Node000006_Node000003"><a xlink:title=" ">
<path fill="none" stroke="orange" stroke-dasharray="5,2" d="M72.76,-163.23C86.26,-146.05 109.29,-121.05 136,-110 193.96,-86.01 265.09,-84.67 319.71,-88.84"/>
<polygon fill="orange" stroke="orange" points="69.84,-161.29 66.6,-171.38 75.42,-165.51 69.84,-161.29"/>
</a>
</g>
<text text-anchor="start" x="151" y="-131" font-family="Helvetica,sans-Serif" font-size="10.00" fill="grey">&lt; std::shared_ptr&lt;</text>
<text text-anchor="start" x="151" y="-116" font-family="Helvetica,sans-Serif" font-size="10.00" fill="grey">   Acts::TrackingVolume &gt; &gt;</text>
</g>
<!-- Node4&#45;&gt;Node1 -->
<g id="edge3_Node000001_Node000004" class="edge">
<title>Node4&#45;&gt;Node1</title>
<g id="a_edge3_Node000001_Node000004"><a xlink:title=" ">
<path fill="none" stroke="#9a32cd" stroke-dasharray="5,2" d="M493.15,-192.35C526.56,-184.96 564.94,-175.34 599,-164 619.73,-157.1 642.22,-147.3 659.71,-139.13"/>
<polygon fill="#9a32cd" stroke="#9a32cd" points="491.98,-189.03 482.95,-194.58 493.47,-195.87 491.98,-189.03"/>
</a>
</g>
<text text-anchor="start" x="540" y="-192.5" font-family="Helvetica,sans-Serif" font-size="10.00" fill="grey">layers</text>
</g>
<!-- Node5&#45;&gt;Node1 -->
<g id="edge5_Node000001_Node000005" class="edge">
<title>Node5&#45;&gt;Node1</title>
<g id="a_edge5_Node000001_Node000005"><a xlink:title=" ">
<path fill="none" stroke="#9a32cd" stroke-dasharray="5,2" d="M477.48,-147.33C519.9,-142.69 573.95,-136.77 616.99,-132.05"/>
<polygon fill="#9a32cd" stroke="#9a32cd" points="477.08,-143.86 467.52,-148.43 477.84,-150.82 477.08,-143.86"/>
</a>
</g>
<text text-anchor="start" x="528" y="-148.5" font-family="Helvetica,sans-Serif" font-size="10.00" fill="grey">volumeCfg</text>
</g>
<!-- Node6&#45;&gt;Node1 -->
<g id="edge7_Node000001_Node000006" class="edge">
<title>Node6&#45;&gt;Node1</title>
<g id="a_edge7_Node000001_Node000006"><a xlink:title=" ">
<path fill="none" stroke="#9a32cd" stroke-dasharray="5,2" d="M503.61,-105.14C534.14,-106.83 568.02,-109.08 599,-112 604.74,-112.54 610.68,-113.17 616.64,-113.84"/>
<polygon fill="#9a32cd" stroke="#9a32cd" points="503.57,-101.64 493.4,-104.59 503.19,-108.63 503.57,-101.64"/>
</a>
</g>
<text text-anchor="start" x="514" y="-117.5" font-family="Helvetica,sans-Serif" font-size="10.00" fill="grey">trackingVolumes</text>
</g>
<!-- Node7 -->
<g id="Node000007" class="node">
<title>Node7</title>
<g id="a_Node000007"><a xlink:title=" ">
<polygon fill="white" stroke="#666666" points="439,-67.5 374,-67.5 374,-48.5 439,-48.5 439,-67.5"/>
<text text-anchor="middle" x="406.5" y="-55.5" font-family="Helvetica,sans-Serif" font-size="10.00">std::string</text>
</a>
</g>
</g>
<!-- Node7&#45;&gt;Node1 -->
<g id="edge9_Node000001_Node000007" class="edge">
<title>Node7&#45;&gt;Node1</title>
<g id="a_edge9_Node000001_Node000007"><a xlink:title=" ">
<path fill="none" stroke="#9a32cd" stroke-dasharray="5,2" d="M449.22,-60.33C488.48,-63.29 548.59,-69.86 599,-84 620.7,-90.09 643.96,-100.31 661.59,-108.89"/>
<polygon fill="#9a32cd" stroke="#9a32cd" points="449.44,-56.83 439.22,-59.61 448.95,-63.82 449.44,-56.83"/>
</a>
</g>
<text text-anchor="start" x="541" y="-89.5" font-family="Helvetica,sans-Serif" font-size="10.00" fill="grey">name</text>
</g>
<!-- Node8 -->
<g id="Node000008" class="node">
<title>Node8</title>
<g id="a_Node000008"><a xlink:title=" ">
<polygon fill="white" stroke="#666666" points="111,-73 7,-73 7,-43 111,-43 111,-73"/>
<text text-anchor="start" x="15" y="-61" font-family="Helvetica,sans-Serif" font-size="10.00">std::basic_string&lt;</text>
<text text-anchor="middle" x="59" y="-50" font-family="Helvetica,sans-Serif" font-size="10.00"> Char &gt;</text>
</a>
</g>
</g>
<!-- Node8&#45;&gt;Node7 -->
<g id="edge10_Node000007_Node000008" class="edge">
<title>Node8&#45;&gt;Node7</title>
<g id="a_edge10_Node000007_Node000008"><a xlink:title=" ">
<path fill="none" stroke="#63b8ff" d="M121.44,-58C195.25,-58 316.27,-58 373.54,-58"/>
<polygon fill="#63b8ff" stroke="#63b8ff" points="121.35,-54.5 111.35,-58 121.35,-61.5 121.35,-54.5"/>
</a>
</g>
</g>
<!-- Node9 -->
<g id="Node000009" class="node">
<title>Node9</title>
<g id="a_Node000009"><a xlink:title=" ">
<polygon fill="white" stroke="#666666" points="475.5,-30 337.5,-30 337.5,0 475.5,0 475.5,-30"/>
<text text-anchor="start" x="345.5" y="-18" font-family="Helvetica,sans-Serif" font-size="10.00">std::shared_ptr&lt; const</text>
<text text-anchor="middle" x="406.5" y="-7" font-family="Helvetica,sans-Serif" font-size="10.00"> Acts::IVolumeMaterial &gt;</text>
</a>
</g>
</g>
<!-- Node9&#45;&gt;Node1 -->
<g id="edge11_Node000001_Node000009" class="edge">
<title>Node9&#45;&gt;Node1</title>
<g id="a_edge11_Node000001_Node000009"><a xlink:title=" ">
<path fill="none" stroke="#9a32cd" stroke-dasharray="5,2" d="M486.09,-18.09C521.87,-21.88 563.94,-29.79 599,-46 631.4,-60.98 661.34,-90.75 677.65,-108.87"/>
<polygon fill="#9a32cd" stroke="#9a32cd" points="485.99,-14.56 475.7,-17.08 485.31,-21.53 485.99,-14.56"/>
</a>
</g>
<text text-anchor="start" x="516" y="-51.5" font-family="Helvetica,sans-Serif" font-size="10.00" fill="grey">volumeMaterial</text>
</g>
<!-- Node10 -->
<g id="Node000010" class="node">
<title>Node10</title>
<g id="a_Node000010"><a xlink:title=" ">
<polygon fill="white" stroke="#666666" points="118,-24.5 0,-24.5 0,-5.5 118,-5.5 118,-24.5"/>
<text text-anchor="middle" x="59" y="-12.5" font-family="Helvetica,sans-Serif" font-size="10.00">std::shared_ptr&lt; T &gt;</text>
</a>
</g>
</g>
<!-- Node10&#45;&gt;Node9 -->
<g id="edge12_Node000009_Node000010" class="edge">
<title>Node10&#45;&gt;Node9</title>
<g id="a_edge12_Node000009_Node000010"><a xlink:title=" ">
<path fill="none" stroke="orange" stroke-dasharray="5,2" d="M128.44,-15C188.95,-15 276.77,-15 337.24,-15"/>
<polygon fill="orange" stroke="orange" points="128.22,-11.5 118.22,-15 128.22,-18.5 128.22,-11.5"/>
</a>
</g>
<text text-anchor="start" x="139" y="-20.5" font-family="Helvetica,sans-Serif" font-size="10.00" fill="grey">&lt; const Acts::IVolumeMaterial &gt;</text>
</g>
</g>
</svg>
