<?xml version="1.0" encoding="UTF-8" standalone="no"?>
<!DOCTYPE svg PUBLIC "-//W3C//DTD SVG 1.1//EN"
 "http://www.w3.org/Graphics/SVG/1.1/DTD/svg11.dtd">
<!-- Generated by graphviz version 2.43.0 (0)
 -->
<!-- Title: Acts::CylindricalSpacePointGrid2::Config Pages: 1 -->
<svg width="299pt" height="223pt"
 viewBox="0.00 0.00 298.50 223.00" xmlns="http://www.w3.org/2000/svg" xmlns:xlink="http://www.w3.org/1999/xlink">

<svg id="main" version="1.1" xmlns="http://www.w3.org/2000/svg" xmlns:xlink="http://www.w3.org/1999/xlink" xml:space="preserve">

<style type="text/css"><![CDATA[
.node, .edge {opacity: 0.7;}
.node.selected, .edge.selected {opacity: 1;}
.edge:hover path { stroke: red; }
.edge:hover polygon { stroke: red; fill: red; }
]]></style>
<script type="application/ecmascript" xlink:href="svg.min.js"/>
<svg id="graph" class="graph">
<g id="graph0" class="graph" transform="scale(1 1) rotate(0) translate(4 219)">
<title>Acts::CylindricalSpacePointGrid2::Config</title>
<!-- Node1 -->
<g id="Node000001" class="node">
<title>Node1</title>
<g id="a_Node000001"><a xlink:title=" ">
<polygon fill="#999999" stroke="#666666" points="200,-30 51,-30 51,0 200,0 200,-30"/>
<text text-anchor="start" x="59" y="-18" font-family="Helvetica,sans-Serif" font-size="10.00">Acts::CylindricalSpacePoint</text>
<text text-anchor="middle" x="125.5" y="-7" font-family="Helvetica,sans-Serif" font-size="10.00">Grid2::Config</text>
</a>
</g>
</g>
<!-- Node2 -->
<g id="Node000002" class="node">
<title>Node2</title>
<g id="a_Node000002"><a xlink:title=" ">
<polygon fill="white" stroke="#666666" points="113,-122.5 0,-122.5 0,-103.5 113,-103.5 113,-122.5"/>
<text text-anchor="middle" x="56.5" y="-110.5" font-family="Helvetica,sans-Serif" font-size="10.00">std::vector&lt; float &gt;</text>
</a>
</g>
</g>
<!-- Node2&#45;&gt;Node1 -->
<g id="edge1_Node000001_Node000002" class="edge">
<title>Node2&#45;&gt;Node1</title>
<g id="a_edge1_Node000001_Node000002"><a xlink:title=" ">
<path fill="none" stroke="#9a32cd" stroke-dasharray="5,2" d="M67.94,-94.75C76.66,-81.76 89.08,-63.57 100.5,-48 104.84,-42.09 109.77,-35.7 114.11,-30.19"/>
<polygon fill="#9a32cd" stroke="#9a32cd" points="64.95,-92.93 62.31,-103.19 70.78,-96.81 64.95,-92.93"/>
</a>
</g>
<text text-anchor="start" x="104" y="-69" font-family="Helvetica,sans-Serif" font-size="10.00" fill="grey">rBinEdges</text>
<text text-anchor="start" x="104" y="-54" font-family="Helvetica,sans-Serif" font-size="10.00" fill="grey">zBinEdges</text>
</g>
<!-- Node3 -->
<g id="Node000003" class="node">
<title>Node3</title>
<g id="a_Node000003"><a xlink:title=" ">
<polygon fill="white" stroke="#666666" points="105,-215 8,-215 8,-196 105,-196 105,-215"/>
<text text-anchor="middle" x="56.5" y="-203" font-family="Helvetica,sans-Serif" font-size="10.00">std::vector&lt; T &gt;</text>
</a>
</g>
</g>
<!-- Node3&#45;&gt;Node2 -->
<g id="edge2_Node000002_Node000003" class="edge">
<title>Node3&#45;&gt;Node2</title>
<g id="a_edge2_Node000002_Node000003"><a xlink:title=" ">
<path fill="none" stroke="orange" stroke-dasharray="5,2" d="M56.5,-185.75C56.5,-166.34 56.5,-136.91 56.5,-122.52"/>
<polygon fill="orange" stroke="orange" points="53,-185.82 56.5,-195.82 60,-185.82 53,-185.82"/>
</a>
</g>
<text text-anchor="start" x="60" y="-159" font-family="Helvetica,sans-Serif" font-size="10.00" fill="grey">&lt; float &gt;</text>
</g>
<!-- Node4 -->
<g id="Node000004" class="node">
<title>Node4</title>
<g id="a_Node000004"><a xlink:title=" ">
<polygon fill="white" stroke="#666666" points="257.5,-128 131.5,-128 131.5,-98 257.5,-98 257.5,-128"/>
<text text-anchor="start" x="139.5" y="-116" font-family="Helvetica,sans-Serif" font-size="10.00">std::array&lt; std::vector</text>
<text text-anchor="middle" x="194.5" y="-105" font-family="Helvetica,sans-Serif" font-size="10.00">&lt; std::size_t &gt;, 3ul &gt;</text>
</a>
</g>
</g>
<!-- Node4&#45;&gt;Node1 -->
<g id="edge3_Node000001_Node000004" class="edge">
<title>Node4&#45;&gt;Node1</title>
<g id="a_edge3_Node000001_Node000004"><a xlink:title=" ">
<path fill="none" stroke="#9a32cd" stroke-dasharray="5,2" d="M183.04,-88.9C176.34,-76.31 167.28,-60.74 157.5,-48 152.72,-41.77 146.79,-35.52 141.34,-30.22"/>
<polygon fill="#9a32cd" stroke="#9a32cd" points="179.98,-90.59 187.69,-97.86 186.19,-87.37 179.98,-90.59"/>
</a>
</g>
<text text-anchor="start" x="180.5" y="-61" font-family="Helvetica,sans-Serif" font-size="10.00" fill="grey">navigation</text>
</g>
<!-- Node5 -->
<g id="Node000005" class="node">
<title>Node5</title>
<g id="a_Node000005"><a xlink:title=" ">
<polygon fill="white" stroke="#666666" points="240.5,-215 148.5,-215 148.5,-196 240.5,-196 240.5,-215"/>
<text text-anchor="middle" x="194.5" y="-203" font-family="Helvetica,sans-Serif" font-size="10.00">std::array&lt; T &gt;</text>
</a>
</g>
</g>
<!-- Node5&#45;&gt;Node4 -->
<g id="edge4_Node000004_Node000005" class="edge">
<title>Node5&#45;&gt;Node4</title>
<g id="a_edge4_Node000004_Node000005"><a xlink:title=" ">
<path fill="none" stroke="orange" stroke-dasharray="5,2" d="M194.5,-185.38C194.5,-168.24 194.5,-143.49 194.5,-128.09"/>
<polygon fill="orange" stroke="orange" points="191,-185.82 194.5,-195.82 198,-185.82 191,-185.82"/>
</a>
</g>
<text text-anchor="start" x="197.5" y="-167" font-family="Helvetica,sans-Serif" font-size="10.00" fill="grey">&lt; std::vector&lt; std</text>
<text text-anchor="start" x="197.5" y="-152" font-family="Helvetica,sans-Serif" font-size="10.00" fill="grey">  ::size_t &gt;, 3ul &gt;</text>
</g>
</g>
</svg>
</svg>

<style type='text/css'>
<![CDATA[
[data-mouse-over-selected='false'] { opacity: 0.7; }
[data-mouse-over-selected='true']  { opacity: 1.0; }
]]>
</style>
<script type="application/ecmascript"><![CDATA[
document.addEventListener('DOMContentLoaded', (event) => {
  highlightEdges();
  highlightAdjacentNodes();
});
]]></script>
</svg>
