<?xml version="1.0" encoding="UTF-8" standalone="no"?>
<!DOCTYPE svg PUBLIC "-//W3C//DTD SVG 1.1//EN"
 "http://www.w3.org/Graphics/SVG/1.1/DTD/svg11.dtd">
<!-- Generated by graphviz version 2.43.0 (0)
 -->
<!-- Title: Acts::Experimental::CompositeSpacePointLineFitter::FitParameters Pages: 1 -->
<svg width="201pt" height="204pt"
 viewBox="0.00 0.00 200.50 204.00" xmlns="http://www.w3.org/2000/svg" xmlns:xlink="http://www.w3.org/1999/xlink">
<g id="graph0" class="graph" transform="scale(1 1) rotate(0) translate(4 200)">
<title>Acts::Experimental::CompositeSpacePointLineFitter::FitParameters</title>
<!-- Node1 -->
<g id="Node000001" class="node">
<title>Node1</title>
<g id="a_Node000001"><a xlink:title="Auxiliary object to store the fitted parameters, covariance, the chi2 / nDoF &amp; the number of required...">
<polygon fill="#999999" stroke="#666666" points="175,-41 0,-41 0,0 175,0 175,-41"/>
<text text-anchor="start" x="8" y="-29" font-family="Helvetica,sans-Serif" font-size="10.00">Acts::Experimental</text>
<text text-anchor="start" x="8" y="-18" font-family="Helvetica,sans-Serif" font-size="10.00">::CompositeSpacePointLineFitter</text>
<text text-anchor="middle" x="87.5" y="-7" font-family="Helvetica,sans-Serif" font-size="10.00">::FitParameters</text>
</a>
</g>
</g>
<!-- Node2 -->
<g id="Node000002" class="node">
<title>Node2</title>
<g id="a_Node000002"><a xlink:title=" ">
<polygon fill="white" stroke="#666666" points="142.5,-124 32.5,-124 32.5,-94 142.5,-94 142.5,-124"/>
<text text-anchor="start" x="40.5" y="-112" font-family="Helvetica,sans-Serif" font-size="10.00">std::array&lt; double,</text>
<text text-anchor="middle" x="87.5" y="-101" font-family="Helvetica,sans-Serif" font-size="10.00"> s_nPars &gt;</text>
</a>
</g>
</g>
<!-- Node2&#45;&gt;Node1 -->
<g id="edge1_Node000001_Node000002" class="edge">
<title>Node2&#45;&gt;Node1</title>
<g id="a_edge1_Node000001_Node000002"><a xlink:title=" ">
<path fill="none" stroke="#9a32cd" stroke-dasharray="5,2" d="M87.5,-83.36C87.5,-70.03 87.5,-53.8 87.5,-41.31"/>
<polygon fill="#9a32cd" stroke="#9a32cd" points="84,-83.72 87.5,-93.72 91,-83.72 84,-83.72"/>
</a>
</g>
<text text-anchor="start" x="91" y="-64.5" font-family="Helvetica,sans-Serif" font-size="10.00" fill="grey">parameters</text>
</g>
<!-- Node3 -->
<g id="Node000003" class="node">
<title>Node3</title>
<g id="a_Node000003"><a xlink:title=" ">
<polygon fill="white" stroke="#666666" points="133.5,-196 41.5,-196 41.5,-177 133.5,-177 133.5,-196"/>
<text text-anchor="middle" x="87.5" y="-184" font-family="Helvetica,sans-Serif" font-size="10.00">std::array&lt; T &gt;</text>
</a>
</g>
</g>
<!-- Node3&#45;&gt;Node2 -->
<g id="edge2_Node000002_Node000003" class="edge">
<title>Node3&#45;&gt;Node2</title>
<g id="a_edge2_Node000002_Node000003"><a xlink:title=" ">
<path fill="none" stroke="orange" stroke-dasharray="5,2" d="M87.5,-166.57C87.5,-153.43 87.5,-136.18 87.5,-124.21"/>
<polygon fill="orange" stroke="orange" points="84,-166.84 87.5,-176.84 91,-166.84 84,-166.84"/>
</a>
</g>
<text text-anchor="start" x="91" y="-147.5" font-family="Helvetica,sans-Serif" font-size="10.00" fill="grey">&lt; double, s_nPars &gt;</text>
</g>
</g>
</svg>
