<?xml version="1.0" encoding="UTF-8" standalone="no"?>
<!DOCTYPE svg PUBLIC "-//W3C//DTD SVG 1.1//EN"
 "http://www.w3.org/Graphics/SVG/1.1/DTD/svg11.dtd">
<!-- Generated by graphviz version 2.43.0 (0)
 -->
<!-- Title: Acts::GridDensityVertexFinder::State Pages: 1 -->
<svg width="770pt" height="159pt"
 viewBox="0.00 0.00 770.00 159.00" xmlns="http://www.w3.org/2000/svg" xmlns:xlink="http://www.w3.org/1999/xlink">
<g id="graph0" class="graph" transform="scale(1 1) rotate(0) translate(4 155)">
<title>Acts::GridDensityVertexFinder::State</title>
<!-- Node1 -->
<g id="Node000001" class="node">
<title>Node1</title>
<g id="a_Node000001"><a xlink:title="The State struct.">
<polygon fill="#999999" stroke="#666666" points="762,-78 599,-78 599,-48 762,-48 762,-78"/>
<text text-anchor="start" x="607" y="-66" font-family="Helvetica,sans-Serif" font-size="10.00">Acts::GridDensityVertexFinder</text>
<text text-anchor="middle" x="680.5" y="-55" font-family="Helvetica,sans-Serif" font-size="10.00">::State</text>
</a>
</g>
</g>
<!-- Node2 -->
<g id="Node000002" class="node">
<title>Node2</title>
<g id="a_Node000002"><a xlink:title=" ">
<polygon fill="white" stroke="#666666" points="456,-129 268,-129 268,-99 456,-99 456,-129"/>
<text text-anchor="start" x="276" y="-117" font-family="Helvetica,sans-Serif" font-size="10.00">std::map&lt; Acts::InputTrack,</text>
<text text-anchor="middle" x="362" y="-106" font-family="Helvetica,sans-Serif" font-size="10.00"> std::pair&lt; int, TrackGridVector &gt; &gt;</text>
</a>
</g>
</g>
<!-- Node2&#45;&gt;Node1 -->
<g id="edge1_Node000001_Node000002" class="edge">
<title>Node2&#45;&gt;Node1</title>
<g id="a_edge1_Node000001_Node000002"><a xlink:title=" ">
<path fill="none" stroke="#9a32cd" stroke-dasharray="5,2" d="M466.18,-101.38C502.56,-96.51 543.68,-90.54 581,-84 591.16,-82.22 601.87,-80.15 612.34,-78.01"/>
<polygon fill="#9a32cd" stroke="#9a32cd" points="465.51,-97.94 456.05,-102.72 466.43,-104.88 465.51,-97.94"/>
</a>
</g>
<text text-anchor="start" x="477.5" y="-104.5" font-family="Helvetica,sans-Serif" font-size="10.00" fill="grey">binAndTrackGridMap</text>
</g>
<!-- Node3 -->
<g id="Node000003" class="node">
<title>Node3</title>
<g id="a_Node000003"><a xlink:title=" ">
<polygon fill="white" stroke="#666666" points="101,-97.5 0,-97.5 0,-78.5 101,-78.5 101,-97.5"/>
<text text-anchor="middle" x="50.5" y="-85.5" font-family="Helvetica,sans-Serif" font-size="10.00">std::map&lt; K, T &gt;</text>
</a>
</g>
</g>
<!-- Node3&#45;&gt;Node2 -->
<g id="edge2_Node000002_Node000003" class="edge">
<title>Node3&#45;&gt;Node2</title>
<g id="a_edge2_Node000002_Node000003"><a xlink:title=" ">
<path fill="none" stroke="orange" stroke-dasharray="5,2" d="M111.33,-93.34C113.92,-93.56 116.49,-93.78 119,-94 168.14,-98.21 222.92,-102.75 267.91,-106.44"/>
<polygon fill="orange" stroke="orange" points="111.53,-89.84 101.26,-92.46 110.92,-96.82 111.53,-89.84"/>
</a>
</g>
<text text-anchor="start" x="122.5" y="-139.5" font-family="Helvetica,sans-Serif" font-size="10.00" fill="grey">&lt; Acts::InputTrack,</text>
<text text-anchor="start" x="122.5" y="-124.5" font-family="Helvetica,sans-Serif" font-size="10.00" fill="grey">   std::pair&lt; int, TrackGrid</text>
<text text-anchor="start" x="122.5" y="-109.5" font-family="Helvetica,sans-Serif" font-size="10.00" fill="grey">  Vector &gt; &gt;</text>
</g>
<!-- Node4 -->
<g id="Node000004" class="node">
<title>Node4</title>
<g id="a_Node000004"><a xlink:title=" ">
<polygon fill="white" stroke="#666666" points="437.5,-78 286.5,-78 286.5,-48 437.5,-48 437.5,-78"/>
<text text-anchor="start" x="294.5" y="-66" font-family="Helvetica,sans-Serif" font-size="10.00">std::map&lt; Acts::InputTrack,</text>
<text text-anchor="middle" x="362" y="-55" font-family="Helvetica,sans-Serif" font-size="10.00"> bool &gt;</text>
</a>
</g>
</g>
<!-- Node3&#45;&gt;Node4 -->
<g id="edge4_Node000004_Node000003" class="edge">
<title>Node3&#45;&gt;Node4</title>
<g id="a_edge4_Node000004_Node000003"><a xlink:title=" ">
<path fill="none" stroke="orange" stroke-dasharray="5,2" d="M80.05,-74.33C91.82,-69.4 105.79,-64.46 119,-62 174.45,-51.69 238.3,-52.47 286.48,-55.54"/>
<polygon fill="orange" stroke="orange" points="78.49,-71.19 70.73,-78.41 81.3,-77.6 78.49,-71.19"/>
</a>
</g>
<text text-anchor="start" x="138.5" y="-83" font-family="Helvetica,sans-Serif" font-size="10.00" fill="grey">&lt; Acts::InputTrack,</text>
<text text-anchor="start" x="138.5" y="-68" font-family="Helvetica,sans-Serif" font-size="10.00" fill="grey">   bool &gt;</text>
</g>
<!-- Node4&#45;&gt;Node1 -->
<g id="edge3_Node000001_Node000004" class="edge">
<title>Node4&#45;&gt;Node1</title>
<g id="a_edge3_Node000001_Node000004"><a xlink:title=" ">
<path fill="none" stroke="#9a32cd" stroke-dasharray="5,2" d="M447.73,-63C494.6,-63 552.52,-63 598.74,-63"/>
<polygon fill="#9a32cd" stroke="#9a32cd" points="447.61,-59.5 437.61,-63 447.61,-66.5 447.61,-59.5"/>
</a>
</g>
<text text-anchor="start" x="482.5" y="-68.5" font-family="Helvetica,sans-Serif" font-size="10.00" fill="grey">trackSelectionMap</text>
</g>
<!-- Node5 -->
<g id="Node000005" class="node">
<title>Node5</title>
<g id="a_Node000005"><a xlink:title=" ">
<polygon fill="white" stroke="#666666" points="415.5,-30 308.5,-30 308.5,0 415.5,0 415.5,-30"/>
<text text-anchor="start" x="316.5" y="-18" font-family="Helvetica,sans-Serif" font-size="10.00">std::vector&lt; Acts::</text>
<text text-anchor="middle" x="362" y="-7" font-family="Helvetica,sans-Serif" font-size="10.00">InputTrack &gt;</text>
</a>
</g>
</g>
<!-- Node5&#45;&gt;Node1 -->
<g id="edge5_Node000001_Node000005" class="edge">
<title>Node5&#45;&gt;Node1</title>
<g id="a_edge5_Node000001_Node000005"><a xlink:title=" ">
<path fill="none" stroke="#9a32cd" stroke-dasharray="5,2" d="M425.79,-21.32C469.46,-26.06 528.95,-33.25 581,-42 591.35,-43.74 602.25,-45.82 612.89,-47.98"/>
<polygon fill="#9a32cd" stroke="#9a32cd" points="425.92,-17.81 415.6,-20.22 425.17,-24.77 425.92,-17.81"/>
</a>
</g>
<text text-anchor="start" x="486.5" y="-47.5" font-family="Helvetica,sans-Serif" font-size="10.00" fill="grey">tracksToRemove</text>
</g>
<!-- Node6 -->
<g id="Node000006" class="node">
<title>Node6</title>
<g id="a_Node000006"><a xlink:title=" ">
<polygon fill="white" stroke="#666666" points="99,-24.5 2,-24.5 2,-5.5 99,-5.5 99,-24.5"/>
<text text-anchor="middle" x="50.5" y="-12.5" font-family="Helvetica,sans-Serif" font-size="10.00">std::vector&lt; T &gt;</text>
</a>
</g>
</g>
<!-- Node6&#45;&gt;Node5 -->
<g id="edge6_Node000005_Node000006" class="edge">
<title>Node6&#45;&gt;Node5</title>
<g id="a_edge6_Node000005_Node000006"><a xlink:title=" ">
<path fill="none" stroke="orange" stroke-dasharray="5,2" d="M109.49,-15C166.62,-15 253.13,-15 308.34,-15"/>
<polygon fill="orange" stroke="orange" points="109.18,-11.5 99.18,-15 109.18,-18.5 109.18,-11.5"/>
</a>
</g>
<text text-anchor="start" x="134.5" y="-20.5" font-family="Helvetica,sans-Serif" font-size="10.00" fill="grey">&lt; Acts::InputTrack &gt;</text>
</g>
</g>
</svg>
