<?xml version="1.0" encoding="UTF-8" standalone="no"?>
<!DOCTYPE svg PUBLIC "-//W3C//DTD SVG 1.1//EN"
 "http://www.w3.org/Graphics/SVG/1.1/DTD/svg11.dtd">
<!-- Generated by graphviz version 2.43.0 (0)
 -->
<!-- Title: Acts::HoughTransformUtils::PeakFinders::LayerGuidedCombinatoric&lt; identifier_t &gt;::Maximum Pages: 1 -->
<svg width="223pt" height="204pt"
 viewBox="0.00 0.00 223.00 204.00" xmlns="http://www.w3.org/2000/svg" xmlns:xlink="http://www.w3.org/1999/xlink">
<g id="graph0" class="graph" transform="scale(1 1) rotate(0) translate(4 200)">
<title>Acts::HoughTransformUtils::PeakFinders::LayerGuidedCombinatoric&lt; identifier_t &gt;::Maximum</title>
<!-- Node1 -->
<g id="Node000001" class="node">
<title>Node1</title>
<g id="a_Node000001"><a xlink:title="data class representing the found maxima.">
<polygon fill="#999999" stroke="#666666" points="215,-41 0,-41 0,0 215,0 215,-41"/>
<text text-anchor="start" x="8" y="-29" font-family="Helvetica,sans-Serif" font-size="10.00">Acts::HoughTransformUtils</text>
<text text-anchor="start" x="8" y="-18" font-family="Helvetica,sans-Serif" font-size="10.00">::PeakFinders::LayerGuidedCombinatoric</text>
<text text-anchor="middle" x="107.5" y="-7" font-family="Helvetica,sans-Serif" font-size="10.00">&lt; identifier_t &gt;::Maximum</text>
</a>
</g>
</g>
<!-- Node2 -->
<g id="Node000002" class="node">
<title>Node2</title>
<g id="a_Node000002"><a xlink:title=" ">
<polygon fill="white" stroke="#666666" points="161,-124 54,-124 54,-94 161,-94 161,-124"/>
<text text-anchor="start" x="62" y="-112" font-family="Helvetica,sans-Serif" font-size="10.00">std::unordered_set</text>
<text text-anchor="middle" x="107.5" y="-101" font-family="Helvetica,sans-Serif" font-size="10.00">&lt; identifier_t &gt;</text>
</a>
</g>
</g>
<!-- Node2&#45;&gt;Node1 -->
<g id="edge1_Node000001_Node000002" class="edge">
<title>Node2&#45;&gt;Node1</title>
<g id="a_edge1_Node000001_Node000002"><a xlink:title=" ">
<path fill="none" stroke="#9a32cd" stroke-dasharray="5,2" d="M107.5,-83.36C107.5,-70.03 107.5,-53.8 107.5,-41.31"/>
<polygon fill="#9a32cd" stroke="#9a32cd" points="104,-83.72 107.5,-93.72 111,-83.72 104,-83.72"/>
</a>
</g>
<text text-anchor="start" x="110.5" y="-64.5" font-family="Helvetica,sans-Serif" font-size="10.00" fill="grey">hitIdentifiers</text>
</g>
<!-- Node3 -->
<g id="Node000003" class="node">
<title>Node3</title>
<g id="a_Node000003"><a xlink:title=" ">
<polygon fill="white" stroke="#666666" points="176,-196 39,-196 39,-177 176,-177 176,-196"/>
<text text-anchor="middle" x="107.5" y="-184" font-family="Helvetica,sans-Serif" font-size="10.00">std::unordered_set&lt; K &gt;</text>
</a>
</g>
</g>
<!-- Node3&#45;&gt;Node2 -->
<g id="edge2_Node000002_Node000003" class="edge">
<title>Node3&#45;&gt;Node2</title>
<g id="a_edge2_Node000002_Node000003"><a xlink:title=" ">
<path fill="none" stroke="orange" stroke-dasharray="5,2" d="M107.5,-166.57C107.5,-153.43 107.5,-136.18 107.5,-124.21"/>
<polygon fill="orange" stroke="orange" points="104,-166.84 107.5,-176.84 111,-166.84 104,-166.84"/>
</a>
</g>
<text text-anchor="start" x="110.5" y="-147.5" font-family="Helvetica,sans-Serif" font-size="10.00" fill="grey">&lt; identifier_t &gt;</text>
</g>
</g>
</svg>
