<?xml version="1.0" encoding="UTF-8" standalone="no"?>
<!DOCTYPE svg PUBLIC "-//W3C//DTD SVG 1.1//EN"
 "http://www.w3.org/Graphics/SVG/1.1/DTD/svg11.dtd">
<!-- Generated by graphviz version 2.43.0 (0)
 -->
<!-- Title: ActsPlugins::TGeoParser::SelectedNode Pages: 1 -->
<svg width="179pt" height="182pt"
 viewBox="0.00 0.00 178.50 182.00" xmlns="http://www.w3.org/2000/svg" xmlns:xlink="http://www.w3.org/1999/xlink">
<g id="graph0" class="graph" transform="scale(1 1) rotate(0) translate(4 178)">
<title>ActsPlugins::TGeoParser::SelectedNode</title>
<!-- Node1 -->
<g id="Node000001" class="node">
<title>Node1</title>
<g id="a_Node000001"><a xlink:title=" ">
<polygon fill="#999999" stroke="#666666" points="151.5,-30 17.5,-30 17.5,0 151.5,0 151.5,-30"/>
<text text-anchor="start" x="25.5" y="-18" font-family="Helvetica,sans-Serif" font-size="10.00">ActsPlugins::TGeoParser</text>
<text text-anchor="middle" x="84.5" y="-7" font-family="Helvetica,sans-Serif" font-size="10.00">::SelectedNode</text>
</a>
</g>
</g>
<!-- Node2 -->
<g id="Node000002" class="node">
<title>Node2</title>
<g id="a_Node000002"><a xlink:title=" ">
<polygon fill="white" stroke="#666666" points="169,-102 0,-102 0,-83 169,-83 169,-102"/>
<text text-anchor="middle" x="84.5" y="-90" font-family="Helvetica,sans-Serif" font-size="10.00">std::unique_ptr&lt; TGeoMatrix &gt;</text>
</a>
</g>
</g>
<!-- Node2&#45;&gt;Node1 -->
<g id="edge1_Node000001_Node000002" class="edge">
<title>Node2&#45;&gt;Node1</title>
<g id="a_edge1_Node000001_Node000002"><a xlink:title=" ">
<path fill="none" stroke="#9a32cd" stroke-dasharray="5,2" d="M84.5,-72.57C84.5,-59.43 84.5,-42.18 84.5,-30.21"/>
<polygon fill="#9a32cd" stroke="#9a32cd" points="81,-72.84 84.5,-82.84 88,-72.84 81,-72.84"/>
</a>
</g>
<text text-anchor="start" x="88" y="-53.5" font-family="Helvetica,sans-Serif" font-size="10.00" fill="grey">transform</text>
</g>
<!-- Node3 -->
<g id="Node000003" class="node">
<title>Node3</title>
<g id="a_Node000003"><a xlink:title=" ">
<polygon fill="white" stroke="#666666" points="143.5,-174 25.5,-174 25.5,-155 143.5,-155 143.5,-174"/>
<text text-anchor="middle" x="84.5" y="-162" font-family="Helvetica,sans-Serif" font-size="10.00">std::unique_ptr&lt; T &gt;</text>
</a>
</g>
</g>
<!-- Node3&#45;&gt;Node2 -->
<g id="edge2_Node000002_Node000003" class="edge">
<title>Node3&#45;&gt;Node2</title>
<g id="a_edge2_Node000002_Node000003"><a xlink:title=" ">
<path fill="none" stroke="orange" stroke-dasharray="5,2" d="M84.5,-144.58C84.5,-130.76 84.5,-112.68 84.5,-102.15"/>
<polygon fill="orange" stroke="orange" points="81,-144.92 84.5,-154.92 88,-144.92 81,-144.92"/>
</a>
</g>
<text text-anchor="start" x="87.5" y="-125.5" font-family="Helvetica,sans-Serif" font-size="10.00" fill="grey">&lt; TGeoMatrix &gt;</text>
</g>
</g>
</svg>
