<?xml version="1.0" encoding="UTF-8" standalone="no"?>
<!DOCTYPE svg PUBLIC "-//W3C//DTD SVG 1.1//EN"
 "http://www.w3.org/Graphics/SVG/1.1/DTD/svg11.dtd">
<!-- Generated by graphviz version 2.43.0 (0)
 -->
<!-- Title: Acts::Navigator::Options Pages: 1 -->
<svg width="2158pt" height="592pt"
 viewBox="0.00 0.00 2158.00 592.38" xmlns="http://www.w3.org/2000/svg" xmlns:xlink="http://www.w3.org/1999/xlink">
<g id="graph0" class="graph" transform="scale(1 1) rotate(0) translate(4 588.38)">
<title>Acts::Navigator::Options</title>
<!-- Node1 -->
<g id="Node000001" class="node">
<title>Node1</title>
<g id="a_Node000001"><a xlink:title="The navigator options.">
<polygon fill="#999999" stroke="#666666" points="2150,-164.88 2015,-164.88 2015,-145.88 2150,-145.88 2150,-164.88"/>
<text text-anchor="middle" x="2082.5" y="-152.88" font-family="Helvetica,sans-Serif" font-size="10.00">Acts::Navigator::Options</text>
</a>
</g>
</g>
<!-- Node2 -->
<g id="Node000002" class="node">
<title>Node2</title>
<g id="a_Node000002"><a xlink:href="struct_acts_1_1_navigator_plain_options.html" target="_top" xlink:title=" ">
<polygon fill="white" stroke="#666666" points="1880.5,-189.88 1727.5,-189.88 1727.5,-170.88 1880.5,-170.88 1880.5,-189.88"/>
<text text-anchor="middle" x="1804" y="-177.88" font-family="Helvetica,sans-Serif" font-size="10.00">Acts::NavigatorPlainOptions</text>
</a>
</g>
</g>
<!-- Node2&#45;&gt;Node1 -->
<g id="edge1_Node000001_Node000002" class="edge">
<title>Node2&#45;&gt;Node1</title>
<g id="a_edge1_Node000001_Node000002"><a xlink:title=" ">
<path fill="none" stroke="#63b8ff" d="M1890.58,-172.64C1930.64,-169.01 1977.64,-164.77 2014.99,-161.39"/>
<polygon fill="#63b8ff" stroke="#63b8ff" points="1890.2,-169.16 1880.55,-173.54 1890.83,-176.13 1890.2,-169.16"/>
</a>
</g>
</g>
<!-- Node3 -->
<g id="Node000003" class="node">
<title>Node3</title>
<g id="a_Node000003"><a xlink:href="class_acts_1_1_surface.html" target="_top" xlink:title="Abstract Base Class for tracking surfaces.">
<polygon fill="white" stroke="#666666" points="1526,-192.88 1446,-192.88 1446,-173.88 1526,-173.88 1526,-192.88"/>
<text text-anchor="middle" x="1486" y="-180.88" font-family="Helvetica,sans-Serif" font-size="10.00">Acts::Surface</text>
</a>
</g>
</g>
<!-- Node3&#45;&gt;Node2 -->
<g id="edge2_Node000002_Node000003" class="edge">
<title>Node3&#45;&gt;Node2</title>
<g id="a_edge2_Node000002_Node000003"><a xlink:title=" ">
<path fill="none" stroke="#9a32cd" stroke-dasharray="5,2" d="M1536.19,-182.91C1587.32,-182.42 1667.98,-181.66 1727.25,-181.09"/>
<polygon fill="#9a32cd" stroke="#9a32cd" points="1536.03,-179.41 1526.06,-183 1536.1,-186.41 1536.03,-179.41"/>
</a>
</g>
<text text-anchor="start" x="1600.5" y="-204.38" font-family="Helvetica,sans-Serif" font-size="10.00" fill="grey">startSurface</text>
<text text-anchor="start" x="1600.5" y="-189.38" font-family="Helvetica,sans-Serif" font-size="10.00" fill="grey">targetSurface</text>
</g>
<!-- Node4 -->
<g id="Node000004" class="node">
<title>Node4</title>
<g id="a_Node000004"><a xlink:href="class_acts_1_1_geometry_object.html" target="_top" xlink:title="Base class to provide GeometryIdentifier interface:">
<polygon fill="white" stroke="#666666" points="374,-264.88 250,-264.88 250,-245.88 374,-245.88 374,-264.88"/>
<text text-anchor="middle" x="312" y="-252.88" font-family="Helvetica,sans-Serif" font-size="10.00">Acts::GeometryObject</text>
</a>
</g>
</g>
<!-- Node4&#45;&gt;Node3 -->
<g id="edge3_Node000003_Node000004" class="edge">
<title>Node4&#45;&gt;Node3</title>
<g id="a_edge3_Node000003_Node000004"><a xlink:title=" ">
<path fill="none" stroke="#63b8ff" d="M339.76,-241.19C370.19,-226.41 421.78,-205.38 469,-205.38 469,-205.38 469,-205.38 1179.5,-205.38 1275.22,-205.38 1387.37,-194.5 1445.52,-188.04"/>
<polygon fill="#63b8ff" stroke="#63b8ff" points="338.04,-238.14 330.66,-245.73 341.17,-244.4 338.04,-238.14"/>
</a>
</g>
</g>
<!-- Node12 -->
<g id="Node000012" class="node">
<title>Node12</title>
<g id="a_Node000012"><a xlink:href="class_acts_1_1_layer.html" target="_top" xlink:title="Base Class for a Detector Layer in the Tracking Geometry.">
<polygon fill="white" stroke="#666666" points="1214,-378.88 1143,-378.88 1143,-359.88 1214,-359.88 1214,-378.88"/>
<text text-anchor="middle" x="1178.5" y="-366.88" font-family="Helvetica,sans-Serif" font-size="10.00">Acts::Layer</text>
</a>
</g>
</g>
<!-- Node4&#45;&gt;Node12 -->
<g id="edge12_Node000012_Node000004" class="edge">
<title>Node4&#45;&gt;Node12</title>
<g id="a_edge12_Node000012_Node000004"><a xlink:title=" ">
<path fill="none" stroke="#63b8ff" d="M367.32,-266.95C381.49,-269.68 396.78,-272.38 411,-274.38 708.54,-316.18 790.58,-273.72 1084,-338.38 1108.05,-343.67 1134.63,-352.82 1153.28,-359.81"/>
<polygon fill="#63b8ff" stroke="#63b8ff" points="367.72,-263.46 357.23,-264.96 366.37,-270.33 367.72,-263.46"/>
</a>
</g>
</g>
<!-- Node19 -->
<g id="Node000019" class="node">
<title>Node19</title>
<g id="a_Node000019"><a xlink:href="class_acts_1_1_volume.html" target="_top" xlink:title="It inherits from GeometryObject for geometry identification.">
<polygon fill="white" stroke="#666666" points="510,-264.88 430,-264.88 430,-245.88 510,-245.88 510,-264.88"/>
<text text-anchor="middle" x="470" y="-252.88" font-family="Helvetica,sans-Serif" font-size="10.00">Acts::Volume</text>
</a>
</g>
</g>
<!-- Node4&#45;&gt;Node19 -->
<g id="edge22_Node000019_Node000004" class="edge">
<title>Node4&#45;&gt;Node19</title>
<g id="a_edge22_Node000019_Node000004"><a xlink:title=" ">
<path fill="none" stroke="#63b8ff" d="M384.44,-255.38C400.12,-255.38 416.16,-255.38 430,-255.38"/>
<polygon fill="#63b8ff" stroke="#63b8ff" points="384.21,-251.88 374.21,-255.38 384.21,-258.88 384.21,-251.88"/>
</a>
</g>
</g>
<!-- Node5 -->
<g id="Node000005" class="node">
<title>Node5</title>
<g id="a_Node000005"><a xlink:href="class_acts_1_1_geometry_identifier.html" target="_top" xlink:title="Identifier for geometry nodes within the geometry hierarchy.">
<polygon fill="white" stroke="#666666" points="136,-264.88 0,-264.88 0,-245.88 136,-245.88 136,-264.88"/>
<text text-anchor="middle" x="68" y="-252.88" font-family="Helvetica,sans-Serif" font-size="10.00">Acts::GeometryIdentifier</text>
</a>
</g>
</g>
<!-- Node5&#45;&gt;Node4 -->
<g id="edge4_Node000004_Node000005" class="edge">
<title>Node5&#45;&gt;Node4</title>
<g id="a_edge4_Node000004_Node000005"><a xlink:title=" ">
<path fill="none" stroke="#9a32cd" stroke-dasharray="5,2" d="M146.31,-255.38C179.84,-255.38 218.54,-255.38 249.99,-255.38"/>
<polygon fill="#9a32cd" stroke="#9a32cd" points="146.09,-251.88 136.09,-255.38 146.09,-258.88 146.09,-251.88"/>
</a>
</g>
<text text-anchor="start" x="157" y="-260.88" font-family="Helvetica,sans-Serif" font-size="10.00" fill="grey">m_geometryId</text>
</g>
<!-- Node6 -->
<g id="Node000006" class="node">
<title>Node6</title>
<g id="a_Node000006"><a xlink:title=" ">
<polygon fill="white" stroke="#666666" points="1242.5,-177.38 1114.5,-177.38 1114.5,-147.38 1242.5,-147.38 1242.5,-177.38"/>
<text text-anchor="start" x="1122.5" y="-165.38" font-family="Helvetica,sans-Serif" font-size="10.00">std::enable_shared</text>
<text text-anchor="middle" x="1178.5" y="-154.38" font-family="Helvetica,sans-Serif" font-size="10.00">_from_this&lt; Surface &gt;</text>
</a>
</g>
</g>
<!-- Node6&#45;&gt;Node3 -->
<g id="edge5_Node000003_Node000006" class="edge">
<title>Node6&#45;&gt;Node3</title>
<g id="a_edge5_Node000003_Node000006"><a xlink:title=" ">
<path fill="none" stroke="#63b8ff" d="M1253.09,-167.43C1313.77,-171.6 1397.49,-177.36 1445.97,-180.69"/>
<polygon fill="#63b8ff" stroke="#63b8ff" points="1253.02,-163.92 1242.8,-166.73 1252.54,-170.9 1253.02,-163.92"/>
</a>
</g>
</g>
<!-- Node7 -->
<g id="Node000007" class="node">
<title>Node7</title>
<g id="a_Node000007"><a xlink:title=" ">
<polygon fill="white" stroke="#666666" points="1255,-128.88 1102,-128.88 1102,-87.88 1255,-87.88 1255,-128.88"/>
<text text-anchor="start" x="1110" y="-116.88" font-family="Helvetica,sans-Serif" font-size="10.00">std::array&lt; std::string</text>
<text text-anchor="start" x="1110" y="-105.88" font-family="Helvetica,sans-Serif" font-size="10.00">_view, Surface::SurfaceType</text>
<text text-anchor="middle" x="1178.5" y="-94.88" font-family="Helvetica,sans-Serif" font-size="10.00">::Other+1 &gt;</text>
</a>
</g>
</g>
<!-- Node7&#45;&gt;Node3 -->
<g id="edge6_Node000003_Node000007" class="edge">
<title>Node7&#45;&gt;Node3</title>
<g id="a_edge6_Node000003_Node000007"><a xlink:title=" ">
<path fill="none" stroke="#9a32cd" stroke-dasharray="5,2" d="M1265.25,-118.71C1307.84,-125.06 1359.73,-134.67 1405,-148.38 1426.76,-154.96 1450.49,-165.85 1466.41,-173.73"/>
<polygon fill="#9a32cd" stroke="#9a32cd" points="1265.6,-115.22 1255.2,-117.24 1264.59,-122.15 1265.6,-115.22"/>
</a>
</g>
<text text-anchor="start" x="1287" y="-153.88" font-family="Helvetica,sans-Serif" font-size="10.00" fill="grey">s_surfaceTypeNames</text>
</g>
<!-- Node8 -->
<g id="Node000008" class="node">
<title>Node8</title>
<g id="a_Node000008"><a xlink:title=" ">
<polygon fill="white" stroke="#666666" points="869,-117.88 777,-117.88 777,-98.88 869,-98.88 869,-117.88"/>
<text text-anchor="middle" x="823" y="-105.88" font-family="Helvetica,sans-Serif" font-size="10.00">std::array&lt; T &gt;</text>
</a>
</g>
</g>
<!-- Node8&#45;&gt;Node7 -->
<g id="edge7_Node000007_Node000008" class="edge">
<title>Node8&#45;&gt;Node7</title>
<g id="a_edge7_Node000007_Node000008"><a xlink:title=" ">
<path fill="none" stroke="orange" stroke-dasharray="5,2" d="M879.14,-108.38C938.95,-108.38 1034.84,-108.38 1101.71,-108.38"/>
<polygon fill="orange" stroke="orange" points="879.13,-104.88 869.13,-108.38 879.13,-111.88 879.13,-104.88"/>
</a>
</g>
<text text-anchor="start" x="945" y="-143.88" font-family="Helvetica,sans-Serif" font-size="10.00" fill="grey">&lt; std::string_view,</text>
<text text-anchor="start" x="945" y="-128.88" font-family="Helvetica,sans-Serif" font-size="10.00" fill="grey">   Surface::SurfaceType</text>
<text text-anchor="start" x="945" y="-113.88" font-family="Helvetica,sans-Serif" font-size="10.00" fill="grey">  ::Other+1 &gt;</text>
</g>
<!-- Node9 -->
<g id="Node000009" class="node">
<title>Node9</title>
<g id="a_Node000009"><a xlink:title=" ">
<polygon fill="white" stroke="#666666" points="1064.5,-578.38 937.5,-578.38 937.5,-548.38 1064.5,-548.38 1064.5,-578.38"/>
<text text-anchor="start" x="945.5" y="-566.38" font-family="Helvetica,sans-Serif" font-size="10.00">std::unique_ptr&lt; const</text>
<text text-anchor="middle" x="1001" y="-555.38" font-family="Helvetica,sans-Serif" font-size="10.00"> Transform3 &gt;</text>
</a>
</g>
</g>
<!-- Node9&#45;&gt;Node3 -->
<g id="edge8_Node000003_Node000009" class="edge">
<title>Node9&#45;&gt;Node3</title>
<g id="a_edge8_Node000003_Node000009"><a xlink:title=" ">
<path fill="none" stroke="#9a32cd" stroke-dasharray="5,2" d="M1067.07,-545.33C1154.83,-517.91 1310.94,-457.81 1405,-355.38 1451.78,-304.44 1475.64,-221.33 1482.71,-193.11"/>
<polygon fill="#9a32cd" stroke="#9a32cd" points="1066.02,-541.99 1057.5,-548.28 1068.08,-548.68 1066.02,-541.99"/>
</a>
</g>
<text text-anchor="start" x="1146.5" y="-537.88" font-family="Helvetica,sans-Serif" font-size="10.00" fill="grey">m_transform</text>
</g>
<!-- Node10 -->
<g id="Node000010" class="node">
<title>Node10</title>
<g id="a_Node000010"><a xlink:title=" ">
<polygon fill="white" stroke="#666666" points="529,-488.88 411,-488.88 411,-469.88 529,-469.88 529,-488.88"/>
<text text-anchor="middle" x="470" y="-476.88" font-family="Helvetica,sans-Serif" font-size="10.00">std::unique_ptr&lt; T &gt;</text>
</a>
</g>
</g>
<!-- Node10&#45;&gt;Node9 -->
<g id="edge9_Node000009_Node000010" class="edge">
<title>Node10&#45;&gt;Node9</title>
<g id="a_edge9_Node000009_Node000010"><a xlink:title=" ">
<path fill="none" stroke="orange" stroke-dasharray="5,2" d="M488.45,-495.67C502.93,-508.12 524.7,-524.44 547,-532.38 679.74,-579.64 847.97,-576.02 937.41,-569.52"/>
<polygon fill="orange" stroke="orange" points="490.61,-492.91 480.81,-488.89 485.96,-498.14 490.61,-492.91"/>
</a>
</g>
<text text-anchor="start" x="584.5" y="-572.88" font-family="Helvetica,sans-Serif" font-size="10.00" fill="grey">&lt; const Transform3 &gt;</text>
</g>
<!-- Node16 -->
<g id="Node000016" class="node">
<title>Node16</title>
<g id="a_Node000016"><a xlink:title=" ">
<polygon fill="white" stroke="#666666" points="886.5,-538.38 759.5,-538.38 759.5,-508.38 886.5,-508.38 886.5,-538.38"/>
<text text-anchor="start" x="767.5" y="-526.38" font-family="Helvetica,sans-Serif" font-size="10.00">std::unique_ptr&lt; const</text>
<text text-anchor="middle" x="823" y="-515.38" font-family="Helvetica,sans-Serif" font-size="10.00"> Acts::SurfaceArray &gt;</text>
</a>
</g>
</g>
<!-- Node10&#45;&gt;Node16 -->
<g id="edge17_Node000016_Node000010" class="edge">
<title>Node10&#45;&gt;Node16</title>
<g id="a_edge17_Node000016_Node000010"><a xlink:title=" ">
<path fill="none" stroke="orange" stroke-dasharray="5,2" d="M539.32,-487.94C603.1,-495.93 697.48,-507.77 759.36,-515.52"/>
<polygon fill="orange" stroke="orange" points="539.71,-484.46 529.35,-486.69 538.84,-491.41 539.71,-484.46"/>
</a>
</g>
<text text-anchor="start" x="566.5" y="-516.88" font-family="Helvetica,sans-Serif" font-size="10.00" fill="grey">&lt; const Acts::SurfaceArray &gt;</text>
</g>
<!-- Node17 -->
<g id="Node000017" class="node">
<title>Node17</title>
<g id="a_Node000017"><a xlink:title=" ">
<polygon fill="white" stroke="#666666" points="900,-452.38 746,-452.38 746,-422.38 900,-422.38 900,-452.38"/>
<text text-anchor="start" x="754" y="-440.38" font-family="Helvetica,sans-Serif" font-size="10.00">std::unique_ptr&lt; const</text>
<text text-anchor="middle" x="823" y="-429.38" font-family="Helvetica,sans-Serif" font-size="10.00"> Acts::ApproachDescriptor &gt;</text>
</a>
</g>
</g>
<!-- Node10&#45;&gt;Node17 -->
<g id="edge19_Node000017_Node000010" class="edge">
<title>Node10&#45;&gt;Node17</title>
<g id="a_edge19_Node000017_Node000010"><a xlink:title=" ">
<path fill="none" stroke="orange" stroke-dasharray="5,2" d="M516.2,-467.53C526.28,-465.21 536.96,-462.99 547,-461.38 613.71,-450.62 690.36,-444.43 745.76,-441.04"/>
<polygon fill="orange" stroke="orange" points="515.28,-464.15 506.36,-469.87 516.9,-470.96 515.28,-464.15"/>
</a>
</g>
<text text-anchor="start" x="550.5" y="-466.88" font-family="Helvetica,sans-Serif" font-size="10.00" fill="grey">&lt; const Acts::ApproachDescriptor &gt;</text>
</g>
<!-- Node20 -->
<g id="Node000020" class="node">
<title>Node20</title>
<g id="a_Node000020"><a xlink:title=" ">
<polygon fill="white" stroke="#666666" points="884,-404.38 762,-404.38 762,-374.38 884,-374.38 884,-404.38"/>
<text text-anchor="start" x="770" y="-392.38" font-family="Helvetica,sans-Serif" font-size="10.00">std::unique_ptr&lt; Acts</text>
<text text-anchor="middle" x="823" y="-381.38" font-family="Helvetica,sans-Serif" font-size="10.00">::Volume &gt;</text>
</a>
</g>
</g>
<!-- Node10&#45;&gt;Node20 -->
<g id="edge24_Node000020_Node000010" class="edge">
<title>Node10&#45;&gt;Node20</title>
<g id="a_edge24_Node000020_Node000010"><a xlink:title=" ">
<path fill="none" stroke="orange" stroke-dasharray="5,2" d="M487.77,-462.25C502.15,-448.72 524.1,-430.62 547,-421.38 616.97,-393.11 704.55,-387.48 761.82,-387.35"/>
<polygon fill="orange" stroke="orange" points="484.96,-460.1 480.24,-469.58 489.84,-465.12 484.96,-460.1"/>
</a>
</g>
<text text-anchor="start" x="594.5" y="-426.88" font-family="Helvetica,sans-Serif" font-size="10.00" fill="grey">&lt; Acts::Volume &gt;</text>
</g>
<!-- Node11 -->
<g id="Node000011" class="node">
<title>Node11</title>
<g id="a_Node000011"><a xlink:href="class_acts_1_1_detector_element_base.html" target="_top" xlink:title="This class is the base of all detector elements that are usable by ACTS.">
<polygon fill="white" stroke="#666666" points="1253.5,-69.88 1103.5,-69.88 1103.5,-50.88 1253.5,-50.88 1253.5,-69.88"/>
<text text-anchor="middle" x="1178.5" y="-57.88" font-family="Helvetica,sans-Serif" font-size="10.00">Acts::DetectorElementBase</text>
</a>
</g>
</g>
<!-- Node11&#45;&gt;Node3 -->
<g id="edge10_Node000003_Node000011" class="edge">
<title>Node11&#45;&gt;Node3</title>
<g id="a_edge10_Node000003_Node000011"><a xlink:title=" ">
<path fill="none" stroke="#9a32cd" stroke-dasharray="5,2" d="M1263.64,-56.21C1310,-58.24 1365.9,-68.32 1405,-100.38 1421.98,-114.29 1408.81,-129.62 1423,-146.38 1433.21,-158.43 1448.39,-167.58 1461.17,-173.76"/>
<polygon fill="#9a32cd" stroke="#9a32cd" points="1263.71,-52.72 1253.6,-55.89 1263.48,-59.71 1263.71,-52.72"/>
</a>
</g>
<text text-anchor="start" x="1276" y="-105.88" font-family="Helvetica,sans-Serif" font-size="10.00" fill="grey">m_associatedDetElement</text>
</g>
<!-- Node12&#45;&gt;Node3 -->
<g id="edge11_Node000003_Node000012" class="edge">
<title>Node12&#45;&gt;Node3</title>
<g id="a_edge11_Node000003_Node000012"><a xlink:title=" ">
<path fill="none" stroke="#9a32cd" stroke-dasharray="5,2" d="M1218.17,-356.48C1264.98,-339.79 1345,-307.75 1405,-265.38 1435.54,-243.8 1464.37,-209.69 1477.53,-193.09"/>
<polygon fill="#9a32cd" stroke="#9a32cd" points="1216.97,-353.19 1208.7,-359.8 1219.29,-359.79 1216.97,-353.19"/>
</a>
</g>
<text text-anchor="start" x="1292" y="-339.88" font-family="Helvetica,sans-Serif" font-size="10.00" fill="grey">m_associatedLayer</text>
</g>
<!-- Node13 -->
<g id="Node000013" class="node">
<title>Node13</title>
<g id="a_Node000013"><a xlink:title=" ">
<polygon fill="white" stroke="#666666" points="885,-356.38 761,-356.38 761,-326.38 885,-326.38 885,-356.38"/>
<text text-anchor="start" x="769" y="-344.38" font-family="Helvetica,sans-Serif" font-size="10.00">std::pair&lt; const Layer</text>
<text text-anchor="middle" x="823" y="-333.38" font-family="Helvetica,sans-Serif" font-size="10.00"> *, const Layer * &gt;</text>
</a>
</g>
</g>
<!-- Node13&#45;&gt;Node12 -->
<g id="edge13_Node000012_Node000013" class="edge">
<title>Node13&#45;&gt;Node12</title>
<g id="a_edge13_Node000012_Node000013"><a xlink:title=" ">
<path fill="none" stroke="#9a32cd" stroke-dasharray="5,2" d="M895.29,-342.3C947.64,-343.55 1020.4,-346.49 1084,-353.38 1103.48,-355.48 1125.06,-359.09 1142.57,-362.34"/>
<polygon fill="#9a32cd" stroke="#9a32cd" points="895.18,-338.8 885.1,-342.07 895.02,-345.79 895.18,-338.8"/>
</a>
</g>
<text text-anchor="start" x="966" y="-358.88" font-family="Helvetica,sans-Serif" font-size="10.00" fill="grey">m_nextLayers</text>
</g>
<!-- Node14 -->
<g id="Node000014" class="node">
<title>Node14</title>
<g id="a_Node000014"><a xlink:title=" ">
<polygon fill="white" stroke="#666666" points="524.5,-350.88 415.5,-350.88 415.5,-331.88 524.5,-331.88 524.5,-350.88"/>
<text text-anchor="middle" x="470" y="-338.88" font-family="Helvetica,sans-Serif" font-size="10.00">std::pair&lt; T1, T2 &gt;</text>
</a>
</g>
</g>
<!-- Node14&#45;&gt;Node13 -->
<g id="edge14_Node000013_Node000014" class="edge">
<title>Node14&#45;&gt;Node13</title>
<g id="a_edge14_Node000013_Node000014"><a xlink:title=" ">
<path fill="none" stroke="orange" stroke-dasharray="5,2" d="M534.71,-341.38C599,-341.38 697.6,-341.38 760.94,-341.38"/>
<polygon fill="orange" stroke="orange" points="534.69,-337.88 524.69,-341.38 534.69,-344.88 534.69,-337.88"/>
</a>
</g>
<text text-anchor="start" x="583.5" y="-362.38" font-family="Helvetica,sans-Serif" font-size="10.00" fill="grey">&lt; const Layer *, const</text>
<text text-anchor="start" x="583.5" y="-347.38" font-family="Helvetica,sans-Serif" font-size="10.00" fill="grey">   Layer * &gt;</text>
</g>
<!-- Node15 -->
<g id="Node000015" class="node">
<title>Node15</title>
<g id="a_Node000015"><a xlink:href="class_acts_1_1_bin_utility.html" target="_top" xlink:title="The BinUtility class that translated global and local position into a bins of a BinnedArray,...">
<polygon fill="white" stroke="#666666" points="867.5,-489.88 778.5,-489.88 778.5,-470.88 867.5,-470.88 867.5,-489.88"/>
<text text-anchor="middle" x="823" y="-477.88" font-family="Helvetica,sans-Serif" font-size="10.00">Acts::BinUtility</text>
</a>
</g>
</g>
<!-- Node15&#45;&gt;Node12 -->
<g id="edge15_Node000012_Node000015" class="edge">
<title>Node15&#45;&gt;Node12</title>
<g id="a_edge15_Node000012_Node000015"><a xlink:title=" ">
<path fill="none" stroke="#9a32cd" stroke-dasharray="5,2" d="M878.01,-483.23C932.34,-484.06 1017.38,-479.68 1084,-450.38 1121.75,-433.77 1155.47,-396.51 1169.97,-378.92"/>
<polygon fill="#9a32cd" stroke="#9a32cd" points="877.98,-479.73 867.9,-483.01 877.82,-486.73 877.98,-479.73"/>
</a>
</g>
<text text-anchor="start" x="954" y="-487.88" font-family="Helvetica,sans-Serif" font-size="10.00" fill="grey">m_nextLayerUtility</text>
</g>
<!-- Node16&#45;&gt;Node12 -->
<g id="edge16_Node000012_Node000016" class="edge">
<title>Node16&#45;&gt;Node12</title>
<g id="a_edge16_Node000012_Node000016"><a xlink:title=" ">
<path fill="none" stroke="#9a32cd" stroke-dasharray="5,2" d="M896.94,-520.04C968.14,-516.28 1068.07,-509.49 1084,-500.38 1090.46,-496.68 1150.9,-408.45 1171.02,-378.91"/>
<polygon fill="#9a32cd" stroke="#9a32cd" points="896.46,-516.56 886.65,-520.57 896.82,-523.55 896.46,-516.56"/>
</a>
</g>
<text text-anchor="start" x="962" y="-523.88" font-family="Helvetica,sans-Serif" font-size="10.00" fill="grey">m_surfaceArray</text>
</g>
<!-- Node17&#45;&gt;Node12 -->
<g id="edge18_Node000012_Node000017" class="edge">
<title>Node17&#45;&gt;Node12</title>
<g id="a_edge18_Node000012_Node000017"><a xlink:title=" ">
<path fill="none" stroke="#9a32cd" stroke-dasharray="5,2" d="M910.24,-431.48C961.3,-426.74 1026.95,-418.47 1084,-404.38 1109.58,-398.06 1137.74,-386.9 1156.41,-378.88"/>
<polygon fill="#9a32cd" stroke="#9a32cd" points="909.87,-428 900.23,-432.38 910.5,-434.97 909.87,-428"/>
</a>
</g>
<text text-anchor="start" x="946" y="-434.88" font-family="Helvetica,sans-Serif" font-size="10.00" fill="grey">m_approachDescriptor</text>
</g>
<!-- Node18 -->
<g id="Node000018" class="node">
<title>Node18</title>
<g id="a_Node000018"><a xlink:href="class_acts_1_1_tracking_volume.html" target="_top" xlink:title="Full Volume description used in Tracking, it inherits from Volume to get the geometrical structure.">
<polygon fill="white" stroke="#666666" points="883.5,-264.88 762.5,-264.88 762.5,-245.88 883.5,-245.88 883.5,-264.88"/>
<text text-anchor="middle" x="823" y="-252.88" font-family="Helvetica,sans-Serif" font-size="10.00">Acts::TrackingVolume</text>
</a>
</g>
</g>
<!-- Node18&#45;&gt;Node3 -->
<g id="edge25_Node000003_Node000018" class="edge">
<title>Node18&#45;&gt;Node3</title>
<g id="a_edge25_Node000003_Node000018"><a xlink:title=" ">
<path fill="none" stroke="#9a32cd" stroke-dasharray="5,2" d="M893.61,-259.04C1003.88,-263.08 1224.71,-263.95 1405,-219.38 1428.06,-213.67 1452.73,-201.55 1468.47,-192.95"/>
<polygon fill="#9a32cd" stroke="#9a32cd" points="893.74,-255.54 883.61,-258.65 893.47,-262.54 893.74,-255.54"/>
</a>
</g>
<text text-anchor="start" x="1106.5" y="-262.88" font-family="Helvetica,sans-Serif" font-size="10.00" fill="grey">m_associatedTrackingVolume</text>
</g>
<!-- Node18&#45;&gt;Node12 -->
<g id="edge20_Node000012_Node000018" class="edge">
<title>Node18&#45;&gt;Node12</title>
<g id="a_edge20_Node000012_Node000018"><a xlink:title=" ">
<path fill="none" stroke="#9a32cd" stroke-dasharray="5,2" d="M893.79,-261.23C964.87,-267.54 1067,-277.71 1084,-285.38 1122.4,-302.68 1156.04,-341.64 1170.28,-359.76"/>
<polygon fill="#9a32cd" stroke="#9a32cd" points="893.81,-257.72 883.55,-260.33 893.2,-264.69 893.81,-257.72"/>
</a>
</g>
<text text-anchor="start" x="955" y="-290.88" font-family="Helvetica,sans-Serif" font-size="10.00" fill="grey">m_trackingVolume</text>
</g>
<!-- Node19&#45;&gt;Node18 -->
<g id="edge21_Node000018_Node000019" class="edge">
<title>Node19&#45;&gt;Node18</title>
<g id="a_edge21_Node000018_Node000019"><a xlink:title=" ">
<path fill="none" stroke="#63b8ff" d="M520.4,-255.38C583.91,-255.38 694.11,-255.38 762.26,-255.38"/>
<polygon fill="#63b8ff" stroke="#63b8ff" points="520.24,-251.88 510.24,-255.38 520.24,-258.88 520.24,-251.88"/>
</a>
</g>
</g>
<!-- Node20&#45;&gt;Node12 -->
<g id="edge23_Node000012_Node000020" class="edge">
<title>Node20&#45;&gt;Node12</title>
<g id="a_edge23_Node000012_Node000020"><a xlink:title=" ">
<path fill="none" stroke="#9a32cd" stroke-dasharray="5,2" d="M894.68,-385.38C969.7,-381.13 1085.2,-374.6 1142.61,-371.35"/>
<polygon fill="#9a32cd" stroke="#9a32cd" points="894.15,-381.9 884.37,-385.96 894.55,-388.89 894.15,-381.9"/>
</a>
</g>
<text text-anchor="start" x="944" y="-388.88" font-family="Helvetica,sans-Serif" font-size="10.00" fill="grey">m_representingVolume</text>
</g>
<!-- Node21 -->
<g id="Node000021" class="node">
<title>Node21</title>
<g id="a_Node000021"><a xlink:title=" ">
<polygon fill="white" stroke="#666666" points="1247.5,-32.38 1109.5,-32.38 1109.5,-2.38 1247.5,-2.38 1247.5,-32.38"/>
<text text-anchor="start" x="1117.5" y="-20.38" font-family="Helvetica,sans-Serif" font-size="10.00">std::shared_ptr&lt; const</text>
<text text-anchor="middle" x="1178.5" y="-9.38" font-family="Helvetica,sans-Serif" font-size="10.00"> Acts::ISurfaceMaterial &gt;</text>
</a>
</g>
</g>
<!-- Node21&#45;&gt;Node3 -->
<g id="edge26_Node000003_Node000021" class="edge">
<title>Node21&#45;&gt;Node3</title>
<g id="a_edge26_Node000003_Node000021"><a xlink:title=" ">
<path fill="none" stroke="#9a32cd" stroke-dasharray="5,2" d="M1257.77,-1.88C1306.19,2.91 1366.29,-0.58 1405,-36.38 1441.37,-70.01 1395.13,-105.42 1423,-146.38 1431.53,-158.91 1445.85,-167.87 1458.58,-173.82"/>
<polygon fill="#9a32cd" stroke="#9a32cd" points="1257.18,1.58 1247.63,-3.01 1257.96,-5.38 1257.18,1.58"/>
</a>
</g>
<text text-anchor="start" x="1293" y="-41.88" font-family="Helvetica,sans-Serif" font-size="10.00" fill="grey">m_surfaceMaterial</text>
</g>
<!-- Node22 -->
<g id="Node000022" class="node">
<title>Node22</title>
<g id="a_Node000022"><a xlink:title=" ">
<polygon fill="white" stroke="#666666" points="882,-26.88 764,-26.88 764,-7.88 882,-7.88 882,-26.88"/>
<text text-anchor="middle" x="823" y="-14.88" font-family="Helvetica,sans-Serif" font-size="10.00">std::shared_ptr&lt; T &gt;</text>
</a>
</g>
</g>
<!-- Node22&#45;&gt;Node21 -->
<g id="edge27_Node000021_Node000022" class="edge">
<title>Node22&#45;&gt;Node21</title>
<g id="a_edge27_Node000021_Node000022"><a xlink:title=" ">
<path fill="none" stroke="orange" stroke-dasharray="5,2" d="M892.53,-17.38C955.06,-17.38 1046.95,-17.38 1109.35,-17.38"/>
<polygon fill="orange" stroke="orange" points="892.37,-13.88 882.37,-17.38 892.37,-20.88 892.37,-13.88"/>
</a>
</g>
<text text-anchor="start" x="921" y="-22.88" font-family="Helvetica,sans-Serif" font-size="10.00" fill="grey">&lt; const Acts::ISurfaceMaterial &gt;</text>
</g>
<!-- Node23 -->
<g id="Node000023" class="node">
<title>Node23</title>
<g id="a_Node000023"><a xlink:title=" ">
<polygon fill="white" stroke="#666666" points="1890,-149.38 1718,-149.38 1718,-119.38 1890,-119.38 1890,-149.38"/>
<text text-anchor="start" x="1726" y="-137.38" font-family="Helvetica,sans-Serif" font-size="10.00">std::multimap&lt; std</text>
<text text-anchor="middle" x="1804" y="-126.38" font-family="Helvetica,sans-Serif" font-size="10.00">::uint64_t, GeometryIdentifier &gt;</text>
</a>
</g>
</g>
<!-- Node23&#45;&gt;Node1 -->
<g id="edge28_Node000001_Node000023" class="edge">
<title>Node23&#45;&gt;Node1</title>
<g id="a_edge28_Node000001_Node000023"><a xlink:title=" ">
<path fill="none" stroke="#9a32cd" stroke-dasharray="5,2" d="M1900.5,-137.08C1931.34,-138.42 1965.66,-140.42 1997,-143.38 2004.23,-144.06 2011.79,-144.92 2019.28,-145.86"/>
<polygon fill="#9a32cd" stroke="#9a32cd" points="1900.32,-133.57 1890.19,-136.64 1900.03,-140.56 1900.32,-133.57"/>
</a>
</g>
<text text-anchor="start" x="1911.5" y="-148.88" font-family="Helvetica,sans-Serif" font-size="10.00" fill="grey">externalSurfaces</text>
</g>
<!-- Node24 -->
<g id="Node000024" class="node">
<title>Node24</title>
<g id="a_Node000024"><a xlink:title=" ">
<polygon fill="white" stroke="#666666" points="1549,-137.88 1423,-137.88 1423,-118.88 1549,-118.88 1549,-137.88"/>
<text text-anchor="middle" x="1486" y="-125.88" font-family="Helvetica,sans-Serif" font-size="10.00">std::multimap&lt; K, T &gt;</text>
</a>
</g>
</g>
<!-- Node24&#45;&gt;Node23 -->
<g id="edge29_Node000023_Node000024" class="edge">
<title>Node24&#45;&gt;Node23</title>
<g id="a_edge29_Node000023_Node000024"><a xlink:title=" ">
<path fill="none" stroke="orange" stroke-dasharray="5,2" d="M1559.19,-129.75C1606.36,-130.64 1668.18,-131.82 1717.77,-132.76"/>
<polygon fill="orange" stroke="orange" points="1559.12,-126.24 1549.05,-129.55 1558.99,-133.24 1559.12,-126.24"/>
</a>
</g>
<text text-anchor="start" x="1570.5" y="-153.38" font-family="Helvetica,sans-Serif" font-size="10.00" fill="grey">&lt; std::uint64_t, Geometry</text>
<text text-anchor="start" x="1570.5" y="-138.38" font-family="Helvetica,sans-Serif" font-size="10.00" fill="grey">  Identifier &gt;</text>
</g>
</g>
</svg>
