<?xml version="1.0" encoding="UTF-8" standalone="no"?>
<!DOCTYPE svg PUBLIC "-//W3C//DTD SVG 1.1//EN"
 "http://www.w3.org/Graphics/SVG/1.1/DTD/svg11.dtd">
<!-- Generated by graphviz version 2.43.0 (0)
 -->
<!-- Title: ActsPlugins::GeoModelDetectorObjectFactory::ConvertedGeoVol Pages: 1 -->
<svg width="655pt" height="128pt"
 viewBox="0.00 0.00 655.00 128.00" xmlns="http://www.w3.org/2000/svg" xmlns:xlink="http://www.w3.org/1999/xlink">
<g id="graph0" class="graph" transform="scale(1 1) rotate(0) translate(4 124)">
<title>ActsPlugins::GeoModelDetectorObjectFactory::ConvertedGeoVol</title>
<!-- Node1 -->
<g id="Node000001" class="node">
<title>Node1</title>
<g id="a_Node000001"><a xlink:title="Tuple describing the shared ptr to a Volume which will be turned into a TrackingVolume,...">
<polygon fill="#999999" stroke="#666666" points="647,-75 474,-75 474,-45 647,-45 647,-75"/>
<text text-anchor="start" x="482" y="-63" font-family="Helvetica,sans-Serif" font-size="10.00">ActsPlugins::GeoModelDetector</text>
<text text-anchor="middle" x="560.5" y="-52" font-family="Helvetica,sans-Serif" font-size="10.00">ObjectFactory::ConvertedGeoVol</text>
</a>
</g>
</g>
<!-- Node2 -->
<g id="Node000002" class="node">
<title>Node2</title>
<g id="a_Node000002"><a xlink:title=" ">
<polygon fill="white" stroke="#666666" points="384,-118 262,-118 262,-88 384,-88 384,-118"/>
<text text-anchor="start" x="270" y="-106" font-family="Helvetica,sans-Serif" font-size="10.00">std::shared_ptr&lt; Acts</text>
<text text-anchor="middle" x="323" y="-95" font-family="Helvetica,sans-Serif" font-size="10.00">::Volume &gt;</text>
</a>
</g>
</g>
<!-- Node2&#45;&gt;Node1 -->
<g id="edge1_Node000001_Node000002" class="edge">
<title>Node2&#45;&gt;Node1</title>
<g id="a_edge1_Node000001_Node000002"><a xlink:title=" ">
<path fill="none" stroke="#9a32cd" stroke-dasharray="5,2" d="M394.09,-90.28C414.09,-86.64 435.91,-82.67 456,-79 463.01,-77.72 470.28,-76.39 477.58,-75.05"/>
<polygon fill="#9a32cd" stroke="#9a32cd" points="393.34,-86.86 384.13,-92.09 394.59,-93.74 393.34,-86.86"/>
</a>
</g>
<text text-anchor="start" x="414" y="-92.5" font-family="Helvetica,sans-Serif" font-size="10.00" fill="grey">volume</text>
</g>
<!-- Node3 -->
<g id="Node000003" class="node">
<title>Node3</title>
<g id="a_Node000003"><a xlink:title=" ">
<polygon fill="white" stroke="#666666" points="118,-112.5 0,-112.5 0,-93.5 118,-93.5 118,-112.5"/>
<text text-anchor="middle" x="59" y="-100.5" font-family="Helvetica,sans-Serif" font-size="10.00">std::shared_ptr&lt; T &gt;</text>
</a>
</g>
</g>
<!-- Node3&#45;&gt;Node2 -->
<g id="edge2_Node000002_Node000003" class="edge">
<title>Node3&#45;&gt;Node2</title>
<g id="a_edge2_Node000002_Node000003"><a xlink:title=" ">
<path fill="none" stroke="orange" stroke-dasharray="5,2" d="M128.41,-103C169.75,-103 221.96,-103 261.74,-103"/>
<polygon fill="orange" stroke="orange" points="128.15,-99.5 118.15,-103 128.15,-106.5 128.15,-99.5"/>
</a>
</g>
<text text-anchor="start" x="144" y="-108.5" font-family="Helvetica,sans-Serif" font-size="10.00" fill="grey">&lt; Acts::Volume &gt;</text>
</g>
<!-- Node4 -->
<g id="Node000004" class="node">
<title>Node4</title>
<g id="a_Node000004"><a xlink:title=" ">
<polygon fill="white" stroke="#666666" points="355.5,-69.5 290.5,-69.5 290.5,-50.5 355.5,-50.5 355.5,-69.5"/>
<text text-anchor="middle" x="323" y="-57.5" font-family="Helvetica,sans-Serif" font-size="10.00">std::string</text>
</a>
</g>
</g>
<!-- Node4&#45;&gt;Node1 -->
<g id="edge3_Node000001_Node000004" class="edge">
<title>Node4&#45;&gt;Node1</title>
<g id="a_edge3_Node000001_Node000004"><a xlink:title=" ">
<path fill="none" stroke="#9a32cd" stroke-dasharray="5,2" d="M365.84,-60C395.76,-60 437.07,-60 473.86,-60"/>
<polygon fill="#9a32cd" stroke="#9a32cd" points="365.76,-56.5 355.76,-60 365.76,-63.5 365.76,-56.5"/>
</a>
</g>
<text text-anchor="start" x="418" y="-65.5" font-family="Helvetica,sans-Serif" font-size="10.00" fill="grey">name</text>
</g>
<!-- Node5 -->
<g id="Node000005" class="node">
<title>Node5</title>
<g id="a_Node000005"><a xlink:title=" ">
<polygon fill="white" stroke="#666666" points="111,-75 7,-75 7,-45 111,-45 111,-75"/>
<text text-anchor="start" x="15" y="-63" font-family="Helvetica,sans-Serif" font-size="10.00">std::basic_string&lt;</text>
<text text-anchor="middle" x="59" y="-52" font-family="Helvetica,sans-Serif" font-size="10.00"> Char &gt;</text>
</a>
</g>
</g>
<!-- Node5&#45;&gt;Node4 -->
<g id="edge4_Node000004_Node000005" class="edge">
<title>Node5&#45;&gt;Node4</title>
<g id="a_edge4_Node000004_Node000005"><a xlink:title=" ">
<path fill="none" stroke="#63b8ff" d="M121.42,-60C174.35,-60 248.63,-60 290.34,-60"/>
<polygon fill="#63b8ff" stroke="#63b8ff" points="121.14,-56.5 111.14,-60 121.14,-63.5 121.14,-56.5"/>
</a>
</g>
</g>
<!-- Node6 -->
<g id="Node000006" class="node">
<title>Node6</title>
<g id="a_Node000006"><a xlink:title=" ">
<polygon fill="white" stroke="#666666" points="390,-30 256,-30 256,0 390,0 390,-30"/>
<text text-anchor="start" x="264" y="-18" font-family="Helvetica,sans-Serif" font-size="10.00">std::vector&lt; std::shared</text>
<text text-anchor="middle" x="323" y="-7" font-family="Helvetica,sans-Serif" font-size="10.00">_ptr&lt; Acts::Surface &gt; &gt;</text>
</a>
</g>
</g>
<!-- Node6&#45;&gt;Node1 -->
<g id="edge5_Node000001_Node000006" class="edge">
<title>Node6&#45;&gt;Node1</title>
<g id="a_edge5_Node000001_Node000006"><a xlink:title=" ">
<path fill="none" stroke="#9a32cd" stroke-dasharray="5,2" d="M400.21,-28.58C418.5,-31.92 437.96,-35.53 456,-39 465.81,-40.89 476.14,-42.92 486.31,-44.96"/>
<polygon fill="#9a32cd" stroke="#9a32cd" points="400.65,-25.11 390.19,-26.76 399.4,-31.99 400.65,-25.11"/>
</a>
</g>
<text text-anchor="start" x="411" y="-44.5" font-family="Helvetica,sans-Serif" font-size="10.00" fill="grey">surfaces</text>
</g>
<!-- Node7 -->
<g id="Node000007" class="node">
<title>Node7</title>
<g id="a_Node000007"><a xlink:title=" ">
<polygon fill="white" stroke="#666666" points="107.5,-22.5 10.5,-22.5 10.5,-3.5 107.5,-3.5 107.5,-22.5"/>
<text text-anchor="middle" x="59" y="-10.5" font-family="Helvetica,sans-Serif" font-size="10.00">std::vector&lt; T &gt;</text>
</a>
</g>
</g>
<!-- Node7&#45;&gt;Node6 -->
<g id="edge6_Node000006_Node000007" class="edge">
<title>Node7&#45;&gt;Node6</title>
<g id="a_edge6_Node000006_Node000007"><a xlink:title=" ">
<path fill="none" stroke="orange" stroke-dasharray="5,2" d="M117.8,-13.44C158.59,-13.75 213.31,-14.17 255.84,-14.49"/>
<polygon fill="orange" stroke="orange" points="117.78,-9.94 107.75,-13.36 117.72,-16.94 117.78,-9.94"/>
</a>
</g>
<text text-anchor="start" x="139" y="-36" font-family="Helvetica,sans-Serif" font-size="10.00" fill="grey">&lt; std::shared_ptr&lt;</text>
<text text-anchor="start" x="139" y="-21" font-family="Helvetica,sans-Serif" font-size="10.00" fill="grey">   Acts::Surface &gt; &gt;</text>
</g>
</g>
</svg>
