<?xml version="1.0" encoding="UTF-8" standalone="no"?>
<!DOCTYPE svg PUBLIC "-//W3C//DTD SVG 1.1//EN"
 "http://www.w3.org/Graphics/SVG/1.1/DTD/svg11.dtd">
<!-- Generated by graphviz version 2.43.0 (0)
 -->
<!-- Title: Acts::JsonSurfacesReader::Options Pages: 1 -->
<svg width="259pt" height="193pt"
 viewBox="0.00 0.00 259.00 193.00" xmlns="http://www.w3.org/2000/svg" xmlns:xlink="http://www.w3.org/1999/xlink">

<svg id="main" version="1.1" xmlns="http://www.w3.org/2000/svg" xmlns:xlink="http://www.w3.org/1999/xlink" xml:space="preserve">

<style type="text/css"><![CDATA[
.node, .edge {opacity: 0.7;}
.node.selected, .edge.selected {opacity: 1;}
.edge:hover path { stroke: red; }
.edge:hover polygon { stroke: red; fill: red; }
]]></style>
<script type="application/ecmascript" xlink:href="svg.min.js"/>
<svg id="graph" class="graph">
<g id="graph0" class="graph" transform="scale(1 1) rotate(0) translate(4 189)">
<title>Acts::JsonSurfacesReader::Options</title>
<!-- Node1 -->
<g id="Node000001" class="node">
<title>Node1</title>
<g id="a_Node000001"><a xlink:title="Options specification for surface reading The file should contain an array of json surfaces as produc...">
<polygon fill="#999999" stroke="#666666" points="182,-30 42,-30 42,0 182,0 182,-30"/>
<text text-anchor="start" x="50" y="-18" font-family="Helvetica,sans-Serif" font-size="10.00">Acts::JsonSurfacesReader</text>
<text text-anchor="middle" x="112" y="-7" font-family="Helvetica,sans-Serif" font-size="10.00">::Options</text>
</a>
</g>
</g>
<!-- Node2 -->
<g id="Node000002" class="node">
<title>Node2</title>
<g id="a_Node000002"><a xlink:title=" ">
<polygon fill="white" stroke="#666666" points="84.5,-102 19.5,-102 19.5,-83 84.5,-83 84.5,-102"/>
<text text-anchor="middle" x="52" y="-90" font-family="Helvetica,sans-Serif" font-size="10.00">std::string</text>
</a>
</g>
</g>
<!-- Node2&#45;&gt;Node1 -->
<g id="edge1_Node000001_Node000002" class="edge">
<title>Node2&#45;&gt;Node1</title>
<g id="a_edge1_Node000001_Node000002"><a xlink:title=" ">
<path fill="none" stroke="#9a32cd" stroke-dasharray="5,2" d="M65.18,-74.92C75.81,-61.54 90.61,-42.91 100.71,-30.21"/>
<polygon fill="#9a32cd" stroke="#9a32cd" points="62.36,-72.83 58.88,-82.84 67.84,-77.19 62.36,-72.83"/>
</a>
</g>
<text text-anchor="start" x="89.5" y="-53.5" font-family="Helvetica,sans-Serif" font-size="10.00" fill="grey">inputFile</text>
</g>
<!-- Node3 -->
<g id="Node000003" class="node">
<title>Node3</title>
<g id="a_Node000003"><a xlink:title=" ">
<polygon fill="white" stroke="#666666" points="104,-185 0,-185 0,-155 104,-155 104,-185"/>
<text text-anchor="start" x="8" y="-173" font-family="Helvetica,sans-Serif" font-size="10.00">std::basic_string&lt;</text>
<text text-anchor="middle" x="52" y="-162" font-family="Helvetica,sans-Serif" font-size="10.00"> Char &gt;</text>
</a>
</g>
</g>
<!-- Node3&#45;&gt;Node2 -->
<g id="edge2_Node000002_Node000003" class="edge">
<title>Node3&#45;&gt;Node2</title>
<g id="a_edge2_Node000002_Node000003"><a xlink:title=" ">
<path fill="none" stroke="#63b8ff" d="M52,-144.4C52,-129.81 52,-112.22 52,-102.01"/>
<polygon fill="#63b8ff" stroke="#63b8ff" points="48.5,-144.8 52,-154.8 55.5,-144.8 48.5,-144.8"/>
</a>
</g>
</g>
<!-- Node4 -->
<g id="Node000004" class="node">
<title>Node4</title>
<g id="a_Node000004"><a xlink:title=" ">
<polygon fill="white" stroke="#666666" points="243,-102 103,-102 103,-83 243,-83 243,-102"/>
<text text-anchor="middle" x="173" y="-90" font-family="Helvetica,sans-Serif" font-size="10.00">std::vector&lt; std::string &gt;</text>
</a>
</g>
</g>
<!-- Node4&#45;&gt;Node1 -->
<g id="edge3_Node000001_Node000004" class="edge">
<title>Node4&#45;&gt;Node1</title>
<g id="a_edge3_Node000001_Node000004"><a xlink:title=" ">
<path fill="none" stroke="#9a32cd" stroke-dasharray="5,2" d="M159.64,-74.86C153.12,-66.75 145.16,-56.86 138,-48 133.23,-42.1 127.95,-35.6 123.4,-30.01"/>
<polygon fill="#9a32cd" stroke="#9a32cd" points="157.05,-77.22 166.04,-82.82 162.51,-72.84 157.05,-77.22"/>
</a>
</g>
<text text-anchor="start" x="155.5" y="-53.5" font-family="Helvetica,sans-Serif" font-size="10.00" fill="grey">jsonEntryPath</text>
</g>
<!-- Node5 -->
<g id="Node000005" class="node">
<title>Node5</title>
<g id="a_Node000005"><a xlink:title=" ">
<polygon fill="white" stroke="#666666" points="221.5,-179.5 124.5,-179.5 124.5,-160.5 221.5,-160.5 221.5,-179.5"/>
<text text-anchor="middle" x="173" y="-167.5" font-family="Helvetica,sans-Serif" font-size="10.00">std::vector&lt; T &gt;</text>
</a>
</g>
</g>
<!-- Node5&#45;&gt;Node4 -->
<g id="edge4_Node000004_Node000005" class="edge">
<title>Node5&#45;&gt;Node4</title>
<g id="a_edge4_Node000004_Node000005"><a xlink:title=" ">
<path fill="none" stroke="orange" stroke-dasharray="5,2" d="M173,-149.9C173,-134.51 173,-113.61 173,-102.06"/>
<polygon fill="orange" stroke="orange" points="169.5,-150.34 173,-160.34 176.5,-150.34 169.5,-150.34"/>
</a>
</g>
<text text-anchor="start" x="176" y="-125.5" font-family="Helvetica,sans-Serif" font-size="10.00" fill="grey">&lt; std::string &gt;</text>
</g>
</g>
</svg>
</svg>

<style type='text/css'>
<![CDATA[
[data-mouse-over-selected='false'] { opacity: 0.7; }
[data-mouse-over-selected='true']  { opacity: 1.0; }
]]>
</style>
<script type="application/ecmascript"><![CDATA[
document.addEventListener('DOMContentLoaded', (event) => {
  highlightEdges();
  highlightAdjacentNodes();
});
]]></script>
</svg>
