<?xml version="1.0" encoding="UTF-8" standalone="no"?>
<!DOCTYPE svg PUBLIC "-//W3C//DTD SVG 1.1//EN"
 "http://www.w3.org/Graphics/SVG/1.1/DTD/svg11.dtd">
<!-- Generated by graphviz version 2.43.0 (0)
 -->
<!-- Title: ActsFatras::SingleParticleSimulation&lt; propagator_t, interactions_t, hit_surface_selector_t, decay_t &gt; Pages: 1 -->
<svg width="210pt" height="215pt"
 viewBox="0.00 0.00 209.50 215.00" xmlns="http://www.w3.org/2000/svg" xmlns:xlink="http://www.w3.org/1999/xlink">
<g id="graph0" class="graph" transform="scale(1 1) rotate(0) translate(4 211)">
<title>ActsFatras::SingleParticleSimulation&lt; propagator_t, interactions_t, hit_surface_selector_t, decay_t &gt;</title>
<!-- Node1 -->
<g id="Node000001" class="node">
<title>Node1</title>
<g id="a_Node000001"><a xlink:title="Single particle simulation with fixed propagator, interactions, and decay.">
<polygon fill="#999999" stroke="#666666" points="167,-52 0,-52 0,0 167,0 167,-52"/>
<text text-anchor="start" x="8" y="-40" font-family="Helvetica,sans-Serif" font-size="10.00">ActsFatras::SingleParticle</text>
<text text-anchor="start" x="8" y="-29" font-family="Helvetica,sans-Serif" font-size="10.00">Simulation&lt; propagator</text>
<text text-anchor="start" x="8" y="-18" font-family="Helvetica,sans-Serif" font-size="10.00">_t, interactions_t, hit</text>
<text text-anchor="middle" x="83.5" y="-7" font-family="Helvetica,sans-Serif" font-size="10.00">_surface_selector_t, decay_t &gt;</text>
</a>
</g>
</g>
<!-- Node2 -->
<g id="Node000002" class="node">
<title>Node2</title>
<g id="a_Node000002"><a xlink:title=" ">
<polygon fill="white" stroke="#666666" points="147,-135 20,-135 20,-105 147,-105 147,-135"/>
<text text-anchor="start" x="28" y="-123" font-family="Helvetica,sans-Serif" font-size="10.00">std::unique_ptr&lt; const</text>
<text text-anchor="middle" x="83.5" y="-112" font-family="Helvetica,sans-Serif" font-size="10.00"> Acts::Logger &gt;</text>
</a>
</g>
</g>
<!-- Node2&#45;&gt;Node1 -->
<g id="edge1_Node000001_Node000002" class="edge">
<title>Node2&#45;&gt;Node1</title>
<g id="a_edge1_Node000001_Node000002"><a xlink:title=" ">
<path fill="none" stroke="#9a32cd" stroke-dasharray="5,2" d="M83.5,-94.44C83.5,-81.32 83.5,-65.21 83.5,-52.02"/>
<polygon fill="#9a32cd" stroke="#9a32cd" points="80,-94.62 83.5,-104.62 87,-94.63 80,-94.62"/>
</a>
</g>
<text text-anchor="start" x="87" y="-75.5" font-family="Helvetica,sans-Serif" font-size="10.00" fill="grey">logger</text>
</g>
<!-- Node3 -->
<g id="Node000003" class="node">
<title>Node3</title>
<g id="a_Node000003"><a xlink:title=" ">
<polygon fill="white" stroke="#666666" points="142.5,-207 24.5,-207 24.5,-188 142.5,-188 142.5,-207"/>
<text text-anchor="middle" x="83.5" y="-195" font-family="Helvetica,sans-Serif" font-size="10.00">std::unique_ptr&lt; T &gt;</text>
</a>
</g>
</g>
<!-- Node3&#45;&gt;Node2 -->
<g id="edge2_Node000002_Node000003" class="edge">
<title>Node3&#45;&gt;Node2</title>
<g id="a_edge2_Node000002_Node000003"><a xlink:title=" ">
<path fill="none" stroke="orange" stroke-dasharray="5,2" d="M83.5,-177.57C83.5,-164.43 83.5,-147.18 83.5,-135.21"/>
<polygon fill="orange" stroke="orange" points="80,-177.84 83.5,-187.84 87,-177.84 80,-177.84"/>
</a>
</g>
<text text-anchor="start" x="86.5" y="-158.5" font-family="Helvetica,sans-Serif" font-size="10.00" fill="grey">&lt; const Acts::Logger &gt;</text>
</g>
</g>
</svg>
