<?xml version="1.0" encoding="UTF-8" standalone="no"?>
<!DOCTYPE svg PUBLIC "-//W3C//DTD SVG 1.1//EN"
 "http://www.w3.org/Graphics/SVG/1.1/DTD/svg11.dtd">
<!-- Generated by graphviz version 2.43.0 (0)
 -->
<!-- Title: Acts::Polyhedron Pages: 1 -->
<svg width="290pt" height="186pt"
 viewBox="0.00 0.00 289.50 186.00" xmlns="http://www.w3.org/2000/svg" xmlns:xlink="http://www.w3.org/1999/xlink">

<svg id="main" version="1.1" xmlns="http://www.w3.org/2000/svg" xmlns:xlink="http://www.w3.org/1999/xlink" xml:space="preserve">

<style type="text/css"><![CDATA[
.node, .edge {opacity: 0.7;}
.node.selected, .edge.selected {opacity: 1;}
.edge:hover path { stroke: red; }
.edge:hover polygon { stroke: red; fill: red; }
]]></style>
<script type="application/ecmascript" xlink:href="svg.min.js"/>
<svg id="graph" class="graph">
<g id="graph0" class="graph" transform="scale(1 1) rotate(0) translate(4 182)">
<title>Acts::Polyhedron</title>
<!-- Node1 -->
<g id="Node000001" class="node">
<title>Node1</title>
<g id="a_Node000001"><a xlink:title="Struct which contains a cartesian approximation for any surface type.">
<polygon fill="#999999" stroke="#666666" points="187,-19 89,-19 89,0 187,0 187,-19"/>
<text text-anchor="middle" x="138" y="-7" font-family="Helvetica,sans-Serif" font-size="10.00">Acts::Polyhedron</text>
</a>
</g>
</g>
<!-- Node2 -->
<g id="Node000002" class="node">
<title>Node2</title>
<g id="a_Node000002"><a xlink:title=" ">
<polygon fill="white" stroke="#666666" points="128,-106 0,-106 0,-87 128,-87 128,-106"/>
<text text-anchor="middle" x="64" y="-94" font-family="Helvetica,sans-Serif" font-size="10.00">std::vector&lt; Vector3 &gt;</text>
</a>
</g>
</g>
<!-- Node2&#45;&gt;Node1 -->
<g id="edge1_Node000001_Node000002" class="edge">
<title>Node2&#45;&gt;Node1</title>
<g id="a_edge1_Node000001_Node000002"><a xlink:title=" ">
<path fill="none" stroke="#9a32cd" stroke-dasharray="5,2" d="M78.49,-78.86C94.01,-61.03 118.06,-33.4 130.29,-19.36"/>
<polygon fill="#9a32cd" stroke="#9a32cd" points="75.57,-76.88 71.64,-86.72 80.85,-81.48 75.57,-76.88"/>
</a>
</g>
<text text-anchor="start" x="118" y="-50" font-family="Helvetica,sans-Serif" font-size="10.00" fill="grey">vertices</text>
</g>
<!-- Node3 -->
<g id="Node000003" class="node">
<title>Node3</title>
<g id="a_Node000003"><a xlink:title=" ">
<polygon fill="white" stroke="#666666" points="186.5,-178 89.5,-178 89.5,-159 186.5,-159 186.5,-178"/>
<text text-anchor="middle" x="138" y="-166" font-family="Helvetica,sans-Serif" font-size="10.00">std::vector&lt; T &gt;</text>
</a>
</g>
</g>
<!-- Node3&#45;&gt;Node2 -->
<g id="edge2_Node000002_Node000003" class="edge">
<title>Node3&#45;&gt;Node2</title>
<g id="a_edge2_Node000002_Node000003"><a xlink:title=" ">
<path fill="none" stroke="orange" stroke-dasharray="5,2" d="M121.41,-151.8C106.5,-137.71 85.17,-117.53 73.15,-106.15"/>
<polygon fill="orange" stroke="orange" points="119.26,-154.59 128.93,-158.92 124.07,-149.5 119.26,-154.59"/>
</a>
</g>
<text text-anchor="start" x="113" y="-129.5" font-family="Helvetica,sans-Serif" font-size="10.00" fill="grey">&lt; Vector3 &gt;</text>
</g>
<!-- Node4 -->
<g id="Node000004" class="node">
<title>Node4</title>
<g id="a_Node000004"><a xlink:title=" ">
<polygon fill="white" stroke="#666666" points="281.5,-106 146.5,-106 146.5,-87 281.5,-87 281.5,-106"/>
<text text-anchor="middle" x="214" y="-94" font-family="Helvetica,sans-Serif" font-size="10.00">std::vector&lt; FaceType &gt;</text>
</a>
</g>
</g>
<!-- Node3&#45;&gt;Node4 -->
<g id="edge4_Node000004_Node000003" class="edge">
<title>Node3&#45;&gt;Node4</title>
<g id="a_edge4_Node000004_Node000003"><a xlink:title=" ">
<path fill="none" stroke="orange" stroke-dasharray="5,2" d="M160.51,-153.16C165.78,-149.43 171.24,-145.26 176,-141 188.25,-130.02 200.4,-115.26 207.55,-106.06"/>
<polygon fill="orange" stroke="orange" points="158.28,-150.43 151.97,-158.94 162.21,-156.23 158.28,-150.43"/>
</a>
</g>
<text text-anchor="start" x="196.5" y="-129.5" font-family="Helvetica,sans-Serif" font-size="10.00" fill="grey">&lt; FaceType &gt;</text>
</g>
<!-- Node4&#45;&gt;Node1 -->
<g id="edge3_Node000001_Node000004" class="edge">
<title>Node4&#45;&gt;Node1</title>
<g id="a_edge3_Node000001_Node000004"><a xlink:title=" ">
<path fill="none" stroke="#9a32cd" stroke-dasharray="5,2" d="M200.74,-78.81C191.11,-66.9 177.61,-50.65 165,-37 159.29,-30.83 152.54,-24.2 147.22,-19.12"/>
<polygon fill="#9a32cd" stroke="#9a32cd" points="198.28,-81.34 207.27,-86.95 203.75,-76.96 198.28,-81.34"/>
</a>
</g>
<text text-anchor="start" x="196" y="-58" font-family="Helvetica,sans-Serif" font-size="10.00" fill="grey">faces</text>
<text text-anchor="start" x="196" y="-43" font-family="Helvetica,sans-Serif" font-size="10.00" fill="grey">triangularMesh</text>
</g>
</g>
</svg>
</svg>

<style type='text/css'>
<![CDATA[
[data-mouse-over-selected='false'] { opacity: 0.7; }
[data-mouse-over-selected='true']  { opacity: 1.0; }
]]>
</style>
<script type="application/ecmascript"><![CDATA[
document.addEventListener('DOMContentLoaded', (event) => {
  highlightEdges();
  highlightAdjacentNodes();
});
]]></script>
</svg>
