<?xml version="1.0" encoding="UTF-8" standalone="no"?>
<!DOCTYPE svg PUBLIC "-//W3C//DTD SVG 1.1//EN"
 "http://www.w3.org/Graphics/SVG/1.1/DTD/svg11.dtd">
<!-- Generated by graphviz version 2.43.0 (0)
 -->
<!-- Title: Acts::TryAllOverstepNavigator::State Pages: 1 -->
<svg width="2613pt" height="571pt"
 viewBox="0.00 0.00 2613.00 571.11" xmlns="http://www.w3.org/2000/svg" xmlns:xlink="http://www.w3.org/1999/xlink">
<g id="graph0" class="graph" transform="scale(1 1) rotate(0) translate(4 567.11)">
<title>Acts::TryAllOverstepNavigator::State</title>
<!-- Node1 -->
<g id="Node000001" class="node">
<title>Node1</title>
<g id="a_Node000001"><a xlink:title="Nested State struct.">
<polygon fill="#999999" stroke="#666666" points="2605,-101.5 2442,-101.5 2442,-71.5 2605,-71.5 2605,-101.5"/>
<text text-anchor="start" x="2450" y="-89.5" font-family="Helvetica,sans-Serif" font-size="10.00">Acts::TryAllOverstepNavigator</text>
<text text-anchor="middle" x="2523.5" y="-78.5" font-family="Helvetica,sans-Serif" font-size="10.00">::State</text>
</a>
</g>
</g>
<!-- Node2 -->
<g id="Node000002" class="node">
<title>Node2</title>
<g id="a_Node000002"><a xlink:href="struct_acts_1_1_try_all_navigator_base_1_1_state.html" target="_top" xlink:title="Nested State struct.">
<polygon fill="white" stroke="#666666" points="2405,-150.5 2262,-150.5 2262,-120.5 2405,-120.5 2405,-150.5"/>
<text text-anchor="start" x="2270" y="-138.5" font-family="Helvetica,sans-Serif" font-size="10.00">Acts::TryAllNavigatorBase</text>
<text text-anchor="middle" x="2333.5" y="-127.5" font-family="Helvetica,sans-Serif" font-size="10.00">::State</text>
</a>
</g>
</g>
<!-- Node2&#45;&gt;Node1 -->
<g id="edge1_Node000001_Node000002" class="edge">
<title>Node2&#45;&gt;Node1</title>
<g id="a_edge1_Node000001_Node000002"><a xlink:title=" ">
<path fill="none" stroke="#63b8ff" d="M2402.11,-117.88C2422.68,-112.52 2445.08,-106.68 2464.93,-101.51"/>
<polygon fill="#63b8ff" stroke="#63b8ff" points="2400.98,-114.56 2392.18,-120.47 2402.74,-121.33 2400.98,-114.56"/>
</a>
</g>
</g>
<!-- Node3 -->
<g id="Node000003" class="node">
<title>Node3</title>
<g id="a_Node000003"><a xlink:href="struct_acts_1_1_try_all_navigator_base_1_1_options.html" target="_top" xlink:title="Options for this Navigator.">
<polygon fill="white" stroke="#666666" points="2100.5,-228.5 1957.5,-228.5 1957.5,-198.5 2100.5,-198.5 2100.5,-228.5"/>
<text text-anchor="start" x="1965.5" y="-216.5" font-family="Helvetica,sans-Serif" font-size="10.00">Acts::TryAllNavigatorBase</text>
<text text-anchor="middle" x="2029" y="-205.5" font-family="Helvetica,sans-Serif" font-size="10.00">::Options</text>
</a>
</g>
</g>
<!-- Node3&#45;&gt;Node2 -->
<g id="edge2_Node000002_Node000003" class="edge">
<title>Node3&#45;&gt;Node2</title>
<g id="a_edge2_Node000002_Node000003"><a xlink:title=" ">
<path fill="none" stroke="#9a32cd" stroke-dasharray="5,2" d="M2110.72,-200.79C2151.16,-193.54 2200.62,-183.33 2244,-170.5 2262.38,-165.07 2282.27,-157.37 2298.54,-150.58"/>
<polygon fill="#9a32cd" stroke="#9a32cd" points="2109.88,-197.38 2100.65,-202.57 2111.1,-204.28 2109.88,-197.38"/>
</a>
</g>
<text text-anchor="start" x="2169.5" y="-201" font-family="Helvetica,sans-Serif" font-size="10.00" fill="grey">options</text>
</g>
<!-- Node4 -->
<g id="Node000004" class="node">
<title>Node4</title>
<g id="a_Node000004"><a xlink:href="struct_acts_1_1_navigator_plain_options.html" target="_top" xlink:title=" ">
<polygon fill="white" stroke="#666666" points="1770,-234 1617,-234 1617,-215 1770,-215 1770,-234"/>
<text text-anchor="middle" x="1693.5" y="-222" font-family="Helvetica,sans-Serif" font-size="10.00">Acts::NavigatorPlainOptions</text>
</a>
</g>
</g>
<!-- Node4&#45;&gt;Node3 -->
<g id="edge3_Node000003_Node000004" class="edge">
<title>Node4&#45;&gt;Node3</title>
<g id="a_edge3_Node000003_Node000004"><a xlink:title=" ">
<path fill="none" stroke="#63b8ff" d="M1780.25,-221.67C1835.24,-219.86 1905.74,-217.53 1957.47,-215.83"/>
<polygon fill="#63b8ff" stroke="#63b8ff" points="1780.06,-218.18 1770.18,-222 1780.29,-225.17 1780.06,-218.18"/>
</a>
</g>
</g>
<!-- Node5 -->
<g id="Node000005" class="node">
<title>Node5</title>
<g id="a_Node000005"><a xlink:href="class_acts_1_1_surface.html" target="_top" xlink:title="Abstract Base Class for tracking surfaces.">
<polygon fill="white" stroke="#666666" points="1503,-288 1423,-288 1423,-269 1503,-269 1503,-288"/>
<text text-anchor="middle" x="1463" y="-276" font-family="Helvetica,sans-Serif" font-size="10.00">Acts::Surface</text>
</a>
</g>
</g>
<!-- Node5&#45;&gt;Node2 -->
<g id="edge30_Node000002_Node000005" class="edge">
<title>Node5&#45;&gt;Node2</title>
<g id="a_edge30_Node000002_Node000005"><a xlink:title=" ">
<path fill="none" stroke="#9a32cd" stroke-dasharray="5,2" d="M1513.26,-277C1621.84,-273.34 1889.9,-262.37 2113,-237.5 2171.6,-230.97 2190.91,-242.15 2244,-216.5 2276.44,-200.82 2305.45,-169.34 2320.86,-150.58"/>
<polygon fill="#9a32cd" stroke="#9a32cd" points="1513.13,-273.5 1503.25,-277.33 1513.36,-280.5 1513.13,-273.5"/>
</a>
</g>
<text text-anchor="start" x="1821.5" y="-299" font-family="Helvetica,sans-Serif" font-size="10.00" fill="grey">currentSurface</text>
<text text-anchor="start" x="1821.5" y="-284" font-family="Helvetica,sans-Serif" font-size="10.00" fill="grey">startSurface</text>
<text text-anchor="start" x="1821.5" y="-269" font-family="Helvetica,sans-Serif" font-size="10.00" fill="grey">targetSurface</text>
</g>
<!-- Node5&#45;&gt;Node4 -->
<g id="edge4_Node000004_Node000005" class="edge">
<title>Node5&#45;&gt;Node4</title>
<g id="a_edge4_Node000004_Node000005"><a xlink:title=" ">
<path fill="none" stroke="#9a32cd" stroke-dasharray="5,2" d="M1479.22,-261.18C1489.76,-250.5 1504.77,-237.7 1521,-231.5 1551.06,-220.01 1586.28,-216.97 1616.96,-217.29"/>
<polygon fill="#9a32cd" stroke="#9a32cd" points="1476.37,-259.1 1472.08,-268.79 1481.47,-263.89 1476.37,-259.1"/>
</a>
</g>
<text text-anchor="start" x="1527" y="-252.5" font-family="Helvetica,sans-Serif" font-size="10.00" fill="grey">startSurface</text>
<text text-anchor="start" x="1527" y="-237.5" font-family="Helvetica,sans-Serif" font-size="10.00" fill="grey">targetSurface</text>
</g>
<!-- Node6 -->
<g id="Node000006" class="node">
<title>Node6</title>
<g id="a_Node000006"><a xlink:href="class_acts_1_1_geometry_object.html" target="_top" xlink:title="Base class to provide GeometryIdentifier interface:">
<polygon fill="white" stroke="#666666" points="374,-208 250,-208 250,-189 374,-189 374,-208"/>
<text text-anchor="middle" x="312" y="-196" font-family="Helvetica,sans-Serif" font-size="10.00">Acts::GeometryObject</text>
</a>
</g>
</g>
<!-- Node6&#45;&gt;Node5 -->
<g id="edge5_Node000005_Node000006" class="edge">
<title>Node6&#45;&gt;Node5</title>
<g id="a_edge5_Node000005_Node000006"><a xlink:title=" ">
<path fill="none" stroke="#63b8ff" d="M312.41,-218.36C311.27,-294.36 317.93,-562.5 469,-562.5 469,-562.5 469,-562.5 1179.5,-562.5 1283.8,-562.5 1332.21,-572.21 1405,-497.5 1464.22,-436.72 1464.09,-322.6 1462.6,-288.42"/>
<polygon fill="#63b8ff" stroke="#63b8ff" points="315.91,-218.31 312.63,-208.24 308.91,-218.16 315.91,-218.31"/>
</a>
</g>
</g>
<!-- Node14 -->
<g id="Node000014" class="node">
<title>Node14</title>
<g id="a_Node000014"><a xlink:href="class_acts_1_1_layer.html" target="_top" xlink:title="Base Class for a Detector Layer in the Tracking Geometry.">
<polygon fill="white" stroke="#666666" points="1214,-294 1143,-294 1143,-275 1214,-275 1214,-294"/>
<text text-anchor="middle" x="1178.5" y="-282" font-family="Helvetica,sans-Serif" font-size="10.00">Acts::Layer</text>
</a>
</g>
</g>
<!-- Node6&#45;&gt;Node14 -->
<g id="edge14_Node000014_Node000006" class="edge">
<title>Node6&#45;&gt;Node14</title>
<g id="a_edge14_Node000014_Node000006"><a xlink:title=" ">
<path fill="none" stroke="#63b8ff" d="M384.43,-198.45C495.08,-198.91 714.52,-201.94 900,-217.5 982.24,-224.4 1012.42,-201.43 1084,-242.5 1095.26,-248.96 1091.12,-258.42 1102,-265.5 1114.12,-273.39 1129.3,-278 1142.86,-280.7"/>
<polygon fill="#63b8ff" stroke="#63b8ff" points="384.4,-194.95 374.39,-198.42 384.38,-201.95 384.4,-194.95"/>
</a>
</g>
</g>
<!-- Node21 -->
<g id="Node000021" class="node">
<title>Node21</title>
<g id="a_Node000021"><a xlink:href="class_acts_1_1_volume.html" target="_top" xlink:title="It inherits from GeometryObject for geometry identification.">
<polygon fill="white" stroke="#666666" points="510,-158 430,-158 430,-139 510,-139 510,-158"/>
<text text-anchor="middle" x="470" y="-146" font-family="Helvetica,sans-Serif" font-size="10.00">Acts::Volume</text>
</a>
</g>
</g>
<!-- Node6&#45;&gt;Node21 -->
<g id="edge24_Node000021_Node000006" class="edge">
<title>Node6&#45;&gt;Node21</title>
<g id="a_edge24_Node000021_Node000006"><a xlink:title=" ">
<path fill="none" stroke="#63b8ff" d="M352.23,-185.93C379.2,-177.28 414.45,-165.98 439.14,-158.07"/>
<polygon fill="#63b8ff" stroke="#63b8ff" points="351.16,-182.59 342.71,-188.98 353.3,-189.26 351.16,-182.59"/>
</a>
</g>
</g>
<!-- Node7 -->
<g id="Node000007" class="node">
<title>Node7</title>
<g id="a_Node000007"><a xlink:href="class_acts_1_1_geometry_identifier.html" target="_top" xlink:title="Identifier for geometry nodes within the geometry hierarchy.">
<polygon fill="white" stroke="#666666" points="136,-208 0,-208 0,-189 136,-189 136,-208"/>
<text text-anchor="middle" x="68" y="-196" font-family="Helvetica,sans-Serif" font-size="10.00">Acts::GeometryIdentifier</text>
</a>
</g>
</g>
<!-- Node7&#45;&gt;Node6 -->
<g id="edge6_Node000006_Node000007" class="edge">
<title>Node7&#45;&gt;Node6</title>
<g id="a_edge6_Node000006_Node000007"><a xlink:title=" ">
<path fill="none" stroke="#9a32cd" stroke-dasharray="5,2" d="M146.31,-198.5C179.84,-198.5 218.54,-198.5 249.99,-198.5"/>
<polygon fill="#9a32cd" stroke="#9a32cd" points="146.09,-195 136.09,-198.5 146.09,-202 146.09,-195"/>
</a>
</g>
<text text-anchor="start" x="157" y="-204" font-family="Helvetica,sans-Serif" font-size="10.00" fill="grey">m_geometryId</text>
</g>
<!-- Node8 -->
<g id="Node000008" class="node">
<title>Node8</title>
<g id="a_Node000008"><a xlink:title=" ">
<polygon fill="white" stroke="#666666" points="1242.5,-256.5 1114.5,-256.5 1114.5,-226.5 1242.5,-226.5 1242.5,-256.5"/>
<text text-anchor="start" x="1122.5" y="-244.5" font-family="Helvetica,sans-Serif" font-size="10.00">std::enable_shared</text>
<text text-anchor="middle" x="1178.5" y="-233.5" font-family="Helvetica,sans-Serif" font-size="10.00">_from_this&lt; Surface &gt;</text>
</a>
</g>
</g>
<!-- Node8&#45;&gt;Node5 -->
<g id="edge7_Node000005_Node000008" class="edge">
<title>Node8&#45;&gt;Node5</title>
<g id="a_edge7_Node000005_Node000008"><a xlink:title=" ">
<path fill="none" stroke="#63b8ff" d="M1252.47,-251.06C1306.74,-258.17 1378.74,-267.6 1422.65,-273.35"/>
<polygon fill="#63b8ff" stroke="#63b8ff" points="1252.92,-247.59 1242.55,-249.76 1252.01,-254.53 1252.92,-247.59"/>
</a>
</g>
</g>
<!-- Node9 -->
<g id="Node000009" class="node">
<title>Node9</title>
<g id="a_Node000009"><a xlink:title=" ">
<polygon fill="white" stroke="#666666" points="1255,-496 1102,-496 1102,-455 1255,-455 1255,-496"/>
<text text-anchor="start" x="1110" y="-484" font-family="Helvetica,sans-Serif" font-size="10.00">std::array&lt; std::string</text>
<text text-anchor="start" x="1110" y="-473" font-family="Helvetica,sans-Serif" font-size="10.00">_view, Surface::SurfaceType</text>
<text text-anchor="middle" x="1178.5" y="-462" font-family="Helvetica,sans-Serif" font-size="10.00">::Other+1 &gt;</text>
</a>
</g>
</g>
<!-- Node9&#45;&gt;Node5 -->
<g id="edge8_Node000005_Node000009" class="edge">
<title>Node9&#45;&gt;Node5</title>
<g id="a_edge8_Node000005_Node000009"><a xlink:title=" ">
<path fill="none" stroke="#9a32cd" stroke-dasharray="5,2" d="M1265.24,-478.13C1311.44,-475.18 1366.67,-464.01 1405,-431.5 1450.18,-393.18 1459.58,-315.45 1461.51,-288.2"/>
<polygon fill="#9a32cd" stroke="#9a32cd" points="1265.02,-474.64 1255.22,-478.66 1265.39,-481.63 1265.02,-474.64"/>
</a>
</g>
<text text-anchor="start" x="1287" y="-482" font-family="Helvetica,sans-Serif" font-size="10.00" fill="grey">s_surfaceTypeNames</text>
</g>
<!-- Node10 -->
<g id="Node000010" class="node">
<title>Node10</title>
<g id="a_Node000010"><a xlink:title=" ">
<polygon fill="white" stroke="#666666" points="869,-513 777,-513 777,-494 869,-494 869,-513"/>
<text text-anchor="middle" x="823" y="-501" font-family="Helvetica,sans-Serif" font-size="10.00">std::array&lt; T &gt;</text>
</a>
</g>
</g>
<!-- Node10&#45;&gt;Node9 -->
<g id="edge9_Node000009_Node000010" class="edge">
<title>Node10&#45;&gt;Node9</title>
<g id="a_edge9_Node000009_Node000010"><a xlink:title=" ">
<path fill="none" stroke="orange" stroke-dasharray="5,2" d="M879.14,-499.13C938.95,-494.39 1034.84,-486.8 1101.71,-481.5"/>
<polygon fill="orange" stroke="orange" points="878.82,-495.65 869.13,-499.93 879.38,-502.62 878.82,-495.65"/>
</a>
</g>
<text text-anchor="start" x="945" y="-531" font-family="Helvetica,sans-Serif" font-size="10.00" fill="grey">&lt; std::string_view,</text>
<text text-anchor="start" x="945" y="-516" font-family="Helvetica,sans-Serif" font-size="10.00" fill="grey">   Surface::SurfaceType</text>
<text text-anchor="start" x="945" y="-501" font-family="Helvetica,sans-Serif" font-size="10.00" fill="grey">  ::Other+1 &gt;</text>
</g>
<!-- Node11 -->
<g id="Node000011" class="node">
<title>Node11</title>
<g id="a_Node000011"><a xlink:title=" ">
<polygon fill="white" stroke="#666666" points="1064.5,-435.5 937.5,-435.5 937.5,-405.5 1064.5,-405.5 1064.5,-435.5"/>
<text text-anchor="start" x="945.5" y="-423.5" font-family="Helvetica,sans-Serif" font-size="10.00">std::unique_ptr&lt; const</text>
<text text-anchor="middle" x="1001" y="-412.5" font-family="Helvetica,sans-Serif" font-size="10.00"> Transform3 &gt;</text>
</a>
</g>
</g>
<!-- Node11&#45;&gt;Node5 -->
<g id="edge10_Node000005_Node000011" class="edge">
<title>Node11&#45;&gt;Node5</title>
<g id="a_edge10_Node000005_Node000011"><a xlink:title=" ">
<path fill="none" stroke="#9a32cd" stroke-dasharray="5,2" d="M1074.19,-405.22C1077.61,-403.51 1080.9,-401.61 1084,-399.5 1095.31,-391.78 1090.62,-382.12 1102,-374.5 1217.01,-297.49 1273.43,-345.5 1405,-302.5 1417.35,-298.46 1430.76,-292.88 1441.47,-288.12"/>
<polygon fill="#9a32cd" stroke="#9a32cd" points="1072.64,-402.08 1064.89,-409.31 1075.46,-408.49 1072.64,-402.08"/>
</a>
</g>
<text text-anchor="start" x="1146.5" y="-380" font-family="Helvetica,sans-Serif" font-size="10.00" fill="grey">m_transform</text>
</g>
<!-- Node12 -->
<g id="Node000012" class="node">
<title>Node12</title>
<g id="a_Node000012"><a xlink:title=" ">
<polygon fill="white" stroke="#666666" points="529,-371 411,-371 411,-352 529,-352 529,-371"/>
<text text-anchor="middle" x="470" y="-359" font-family="Helvetica,sans-Serif" font-size="10.00">std::unique_ptr&lt; T &gt;</text>
</a>
</g>
</g>
<!-- Node12&#45;&gt;Node11 -->
<g id="edge11_Node000011_Node000012" class="edge">
<title>Node12&#45;&gt;Node11</title>
<g id="a_edge11_Node000011_Node000012"><a xlink:title=" ">
<path fill="none" stroke="orange" stroke-dasharray="5,2" d="M494.49,-376.43C509.02,-384.84 528.39,-394.61 547,-399.5 682.54,-435.11 848.6,-431.35 937.21,-425.76"/>
<polygon fill="orange" stroke="orange" points="496.07,-373.3 485.69,-371.17 492.48,-379.31 496.07,-373.3"/>
</a>
</g>
<text text-anchor="start" x="584.5" y="-431" font-family="Helvetica,sans-Serif" font-size="10.00" fill="grey">&lt; const Transform3 &gt;</text>
</g>
<!-- Node18 -->
<g id="Node000018" class="node">
<title>Node18</title>
<g id="a_Node000018"><a xlink:title=" ">
<polygon fill="white" stroke="#666666" points="886.5,-304.5 759.5,-304.5 759.5,-274.5 886.5,-274.5 886.5,-304.5"/>
<text text-anchor="start" x="767.5" y="-292.5" font-family="Helvetica,sans-Serif" font-size="10.00">std::unique_ptr&lt; const</text>
<text text-anchor="middle" x="823" y="-281.5" font-family="Helvetica,sans-Serif" font-size="10.00"> Acts::SurfaceArray &gt;</text>
</a>
</g>
</g>
<!-- Node12&#45;&gt;Node18 -->
<g id="edge19_Node000018_Node000012" class="edge">
<title>Node12&#45;&gt;Node18</title>
<g id="a_edge19_Node000018_Node000012"><a xlink:title=" ">
<path fill="none" stroke="orange" stroke-dasharray="5,2" d="M490.74,-345.71C505.37,-334.94 526.28,-321.42 547,-314.5 617.14,-291.08 702.6,-286.81 759.45,-287.11"/>
<polygon fill="orange" stroke="orange" points="488.34,-343.14 482.5,-351.98 492.58,-348.71 488.34,-343.14"/>
</a>
</g>
<text text-anchor="start" x="566.5" y="-320" font-family="Helvetica,sans-Serif" font-size="10.00" fill="grey">&lt; const Acts::SurfaceArray &gt;</text>
</g>
<!-- Node19 -->
<g id="Node000019" class="node">
<title>Node19</title>
<g id="a_Node000019"><a xlink:title=" ">
<polygon fill="white" stroke="#666666" points="900,-400.5 746,-400.5 746,-370.5 900,-370.5 900,-400.5"/>
<text text-anchor="start" x="754" y="-388.5" font-family="Helvetica,sans-Serif" font-size="10.00">std::unique_ptr&lt; const</text>
<text text-anchor="middle" x="823" y="-377.5" font-family="Helvetica,sans-Serif" font-size="10.00"> Acts::ApproachDescriptor &gt;</text>
</a>
</g>
</g>
<!-- Node12&#45;&gt;Node19 -->
<g id="edge21_Node000019_Node000012" class="edge">
<title>Node12&#45;&gt;Node19</title>
<g id="a_edge21_Node000019_Node000012"><a xlink:title=" ">
<path fill="none" stroke="orange" stroke-dasharray="5,2" d="M539.36,-366.17C598.6,-370.23 684.23,-376.08 745.69,-380.28"/>
<polygon fill="orange" stroke="orange" points="539.57,-362.68 529.35,-365.49 539.09,-369.66 539.57,-362.68"/>
</a>
</g>
<text text-anchor="start" x="550.5" y="-384" font-family="Helvetica,sans-Serif" font-size="10.00" fill="grey">&lt; const Acts::ApproachDescriptor &gt;</text>
</g>
<!-- Node22 -->
<g id="Node000022" class="node">
<title>Node22</title>
<g id="a_Node000022"><a xlink:title=" ">
<polygon fill="white" stroke="#666666" points="884,-352.5 762,-352.5 762,-322.5 884,-322.5 884,-352.5"/>
<text text-anchor="start" x="770" y="-340.5" font-family="Helvetica,sans-Serif" font-size="10.00">std::unique_ptr&lt; Acts</text>
<text text-anchor="middle" x="823" y="-329.5" font-family="Helvetica,sans-Serif" font-size="10.00">::Volume &gt;</text>
</a>
</g>
</g>
<!-- Node12&#45;&gt;Node22 -->
<g id="edge26_Node000022_Node000012" class="edge">
<title>Node12&#45;&gt;Node22</title>
<g id="a_edge26_Node000022_Node000012"><a xlink:title=" ">
<path fill="none" stroke="orange" stroke-dasharray="5,2" d="M519.8,-349.89C528.8,-348.13 538.15,-346.55 547,-345.5 620.63,-336.75 706.1,-335.67 761.96,-336.18"/>
<polygon fill="orange" stroke="orange" points="518.92,-346.49 509.83,-351.93 520.33,-353.35 518.92,-346.49"/>
</a>
</g>
<text text-anchor="start" x="594.5" y="-351" font-family="Helvetica,sans-Serif" font-size="10.00" fill="grey">&lt; Acts::Volume &gt;</text>
</g>
<!-- Node13 -->
<g id="Node000013" class="node">
<title>Node13</title>
<g id="a_Node000013"><a xlink:href="class_acts_1_1_detector_element_base.html" target="_top" xlink:title="This class is the base of all detector elements that are usable by ACTS.">
<polygon fill="white" stroke="#666666" points="1253.5,-208 1103.5,-208 1103.5,-189 1253.5,-189 1253.5,-208"/>
<text text-anchor="middle" x="1178.5" y="-196" font-family="Helvetica,sans-Serif" font-size="10.00">Acts::DetectorElementBase</text>
</a>
</g>
</g>
<!-- Node13&#45;&gt;Node5 -->
<g id="edge12_Node000005_Node000013" class="edge">
<title>Node13&#45;&gt;Node5</title>
<g id="a_edge12_Node000005_Node000013"><a xlink:title=" ">
<path fill="none" stroke="#9a32cd" stroke-dasharray="5,2" d="M1263.76,-201.35C1307.41,-205.33 1360.69,-214.18 1405,-233.5 1424.19,-241.86 1442.46,-258.3 1452.93,-268.83"/>
<polygon fill="#9a32cd" stroke="#9a32cd" points="1264,-197.86 1253.74,-200.51 1263.41,-204.84 1264,-197.86"/>
</a>
</g>
<text text-anchor="start" x="1276" y="-239" font-family="Helvetica,sans-Serif" font-size="10.00" fill="grey">m_associatedDetElement</text>
</g>
<!-- Node14&#45;&gt;Node5 -->
<g id="edge13_Node000005_Node000014" class="edge">
<title>Node14&#45;&gt;Node5</title>
<g id="a_edge13_Node000005_Node000014"><a xlink:title=" ">
<path fill="none" stroke="#9a32cd" stroke-dasharray="5,2" d="M1224.25,-283.55C1279.05,-282.39 1370.96,-280.43 1423,-279.33"/>
<polygon fill="#9a32cd" stroke="#9a32cd" points="1224.06,-280.05 1214.14,-283.76 1224.21,-287.05 1224.06,-280.05"/>
</a>
</g>
<text text-anchor="start" x="1292" y="-287" font-family="Helvetica,sans-Serif" font-size="10.00" fill="grey">m_associatedLayer</text>
</g>
<!-- Node15 -->
<g id="Node000015" class="node">
<title>Node15</title>
<g id="a_Node000015"><a xlink:title=" ">
<polygon fill="white" stroke="#666666" points="885,-256.5 761,-256.5 761,-226.5 885,-226.5 885,-256.5"/>
<text text-anchor="start" x="769" y="-244.5" font-family="Helvetica,sans-Serif" font-size="10.00">std::pair&lt; const Layer</text>
<text text-anchor="middle" x="823" y="-233.5" font-family="Helvetica,sans-Serif" font-size="10.00"> *, const Layer * &gt;</text>
</a>
</g>
</g>
<!-- Node15&#45;&gt;Node14 -->
<g id="edge15_Node000014_Node000015" class="edge">
<title>Node15&#45;&gt;Node14</title>
<g id="a_edge15_Node000014_Node000015"><a xlink:title=" ">
<path fill="none" stroke="#9a32cd" stroke-dasharray="5,2" d="M895.39,-245.45C947.78,-248.93 1020.57,-254.95 1084,-264.5 1103.53,-267.44 1125.11,-271.97 1142.61,-275.97"/>
<polygon fill="#9a32cd" stroke="#9a32cd" points="895.4,-241.95 885.19,-244.79 894.94,-248.93 895.4,-241.95"/>
</a>
</g>
<text text-anchor="start" x="966" y="-270" font-family="Helvetica,sans-Serif" font-size="10.00" fill="grey">m_nextLayers</text>
</g>
<!-- Node16 -->
<g id="Node000016" class="node">
<title>Node16</title>
<g id="a_Node000016"><a xlink:title=" ">
<polygon fill="white" stroke="#666666" points="524.5,-251 415.5,-251 415.5,-232 524.5,-232 524.5,-251"/>
<text text-anchor="middle" x="470" y="-239" font-family="Helvetica,sans-Serif" font-size="10.00">std::pair&lt; T1, T2 &gt;</text>
</a>
</g>
</g>
<!-- Node16&#45;&gt;Node15 -->
<g id="edge16_Node000015_Node000016" class="edge">
<title>Node16&#45;&gt;Node15</title>
<g id="a_edge16_Node000015_Node000016"><a xlink:title=" ">
<path fill="none" stroke="orange" stroke-dasharray="5,2" d="M534.71,-241.5C599,-241.5 697.6,-241.5 760.94,-241.5"/>
<polygon fill="orange" stroke="orange" points="534.69,-238 524.69,-241.5 534.69,-245 534.69,-238"/>
</a>
</g>
<text text-anchor="start" x="583.5" y="-262.5" font-family="Helvetica,sans-Serif" font-size="10.00" fill="grey">&lt; const Layer *, const</text>
<text text-anchor="start" x="583.5" y="-247.5" font-family="Helvetica,sans-Serif" font-size="10.00" fill="grey">   Layer * &gt;</text>
</g>
<!-- Node17 -->
<g id="Node000017" class="node">
<title>Node17</title>
<g id="a_Node000017"><a xlink:href="class_acts_1_1_bin_utility.html" target="_top" xlink:title="The BinUtility class that translated global and local position into a bins of a BinnedArray,...">
<polygon fill="white" stroke="#666666" points="867.5,-170 778.5,-170 778.5,-151 867.5,-151 867.5,-170"/>
<text text-anchor="middle" x="823" y="-158" font-family="Helvetica,sans-Serif" font-size="10.00">Acts::BinUtility</text>
</a>
</g>
</g>
<!-- Node17&#45;&gt;Node14 -->
<g id="edge17_Node000014_Node000017" class="edge">
<title>Node17&#45;&gt;Node14</title>
<g id="a_edge17_Node000014_Node000017"><a xlink:title=" ">
<path fill="none" stroke="#9a32cd" stroke-dasharray="5,2" d="M877.78,-162.34C949.4,-165.3 1068.89,-172.17 1084,-185.5 1111.33,-209.6 1076.56,-239.41 1102,-265.5 1112.57,-276.34 1128.34,-281.33 1142.74,-283.52"/>
<polygon fill="#9a32cd" stroke="#9a32cd" points="877.71,-158.84 867.58,-161.94 877.43,-165.83 877.71,-158.84"/>
</a>
</g>
<text text-anchor="start" x="954" y="-191" font-family="Helvetica,sans-Serif" font-size="10.00" fill="grey">m_nextLayerUtility</text>
</g>
<!-- Node18&#45;&gt;Node14 -->
<g id="edge18_Node000014_Node000018" class="edge">
<title>Node18&#45;&gt;Node14</title>
<g id="a_edge18_Node000014_Node000018"><a xlink:title=" ">
<path fill="none" stroke="#9a32cd" stroke-dasharray="5,2" d="M897.12,-288.47C972.21,-287.4 1085.87,-285.8 1142.65,-284.99"/>
<polygon fill="#9a32cd" stroke="#9a32cd" points="896.74,-284.97 886.79,-288.61 896.84,-291.97 896.74,-284.97"/>
</a>
</g>
<text text-anchor="start" x="962" y="-293" font-family="Helvetica,sans-Serif" font-size="10.00" fill="grey">m_surfaceArray</text>
</g>
<!-- Node19&#45;&gt;Node14 -->
<g id="edge20_Node000014_Node000019" class="edge">
<title>Node19&#45;&gt;Node14</title>
<g id="a_edge20_Node000014_Node000019"><a xlink:title=" ">
<path fill="none" stroke="#9a32cd" stroke-dasharray="5,2" d="M910.13,-380.08C973.8,-374.93 1054.37,-365.67 1084,-350.5 1094.35,-345.2 1092.99,-338.86 1102,-331.5 1120.18,-316.66 1143.39,-302.87 1159.24,-294.12"/>
<polygon fill="#9a32cd" stroke="#9a32cd" points="909.76,-376.6 900.07,-380.87 910.31,-383.57 909.76,-376.6"/>
</a>
</g>
<text text-anchor="start" x="946" y="-384" font-family="Helvetica,sans-Serif" font-size="10.00" fill="grey">m_approachDescriptor</text>
</g>
<!-- Node20 -->
<g id="Node000020" class="node">
<title>Node20</title>
<g id="a_Node000020"><a xlink:href="class_acts_1_1_tracking_volume.html" target="_top" xlink:title="Full Volume description used in Tracking, it inherits from Volume to get the geometrical structure.">
<polygon fill="white" stroke="#666666" points="883.5,-127 762.5,-127 762.5,-108 883.5,-108 883.5,-127"/>
<text text-anchor="middle" x="823" y="-115" font-family="Helvetica,sans-Serif" font-size="10.00">Acts::TrackingVolume</text>
</a>
</g>
</g>
<!-- Node20&#45;&gt;Node2 -->
<g id="edge31_Node000002_Node000020" class="edge">
<title>Node20&#45;&gt;Node2</title>
<g id="a_edge31_Node000002_Node000020"><a xlink:title=" ">
<path fill="none" stroke="#9a32cd" stroke-dasharray="5,2" d="M876.08,-105.86C889.67,-103.13 904.34,-100.45 918,-98.5 1032.58,-82.12 1061.75,-76.5 1177.5,-76.5 1177.5,-76.5 1177.5,-76.5 2030,-76.5 2126.1,-76.5 2150.32,-86.05 2244,-107.5 2259.08,-110.95 2275.3,-115.75 2289.67,-120.41"/>
<polygon fill="#9a32cd" stroke="#9a32cd" points="875.02,-102.51 865.94,-107.95 876.44,-109.36 875.02,-102.51"/>
</a>
</g>
<text text-anchor="start" x="1524" y="-82" font-family="Helvetica,sans-Serif" font-size="10.00" fill="grey">currentVolume</text>
</g>
<!-- Node20&#45;&gt;Node5 -->
<g id="edge27_Node000005_Node000020" class="edge">
<title>Node20&#45;&gt;Node5</title>
<g id="a_edge27_Node000005_Node000020"><a xlink:title=" ">
<path fill="none" stroke="#9a32cd" stroke-dasharray="5,2" d="M894.11,-108.64C1010.68,-97.66 1247.14,-91.75 1405,-197.5 1432.14,-215.68 1450.39,-251.49 1458,-268.75"/>
<polygon fill="#9a32cd" stroke="#9a32cd" points="893.5,-105.18 883.89,-109.64 894.18,-112.15 893.5,-105.18"/>
</a>
</g>
<text text-anchor="start" x="1106.5" y="-136" font-family="Helvetica,sans-Serif" font-size="10.00" fill="grey">m_associatedTrackingVolume</text>
</g>
<!-- Node20&#45;&gt;Node14 -->
<g id="edge22_Node000014_Node000020" class="edge">
<title>Node20&#45;&gt;Node14</title>
<g id="a_edge22_Node000014_Node000020"><a xlink:title=" ">
<path fill="none" stroke="#9a32cd" stroke-dasharray="5,2" d="M894.07,-122.38C968.72,-127.9 1077.15,-136.97 1084,-143.5 1123.65,-181.34 1065.23,-224.85 1102,-265.5 1112.25,-276.83 1128.16,-281.86 1142.74,-283.94"/>
<polygon fill="#9a32cd" stroke="#9a32cd" points="894.01,-118.87 883.78,-121.63 893.5,-125.85 894.01,-118.87"/>
</a>
</g>
<text text-anchor="start" x="955" y="-149" font-family="Helvetica,sans-Serif" font-size="10.00" fill="grey">m_trackingVolume</text>
</g>
<!-- Node21&#45;&gt;Node20 -->
<g id="edge23_Node000020_Node000021" class="edge">
<title>Node21&#45;&gt;Node20</title>
<g id="a_edge23_Node000020_Node000021"><a xlink:title=" ">
<path fill="none" stroke="#63b8ff" d="M520.4,-144.14C583.91,-138.53 694.11,-128.79 762.26,-122.78"/>
<polygon fill="#63b8ff" stroke="#63b8ff" points="519.9,-140.67 510.24,-145.03 520.51,-147.64 519.9,-140.67"/>
</a>
</g>
</g>
<!-- Node22&#45;&gt;Node14 -->
<g id="edge25_Node000014_Node000022" class="edge">
<title>Node22&#45;&gt;Node14</title>
<g id="a_edge25_Node000014_Node000022"><a xlink:title=" ">
<path fill="none" stroke="#9a32cd" stroke-dasharray="5,2" d="M894.46,-332.33C946.99,-327.83 1020.34,-320.16 1084,-308.5 1104.44,-304.76 1127.02,-299.01 1144.86,-294.08"/>
<polygon fill="#9a32cd" stroke="#9a32cd" points="893.92,-328.86 884.24,-333.19 894.5,-335.84 893.92,-328.86"/>
</a>
</g>
<text text-anchor="start" x="944" y="-335" font-family="Helvetica,sans-Serif" font-size="10.00" fill="grey">m_representingVolume</text>
</g>
<!-- Node23 -->
<g id="Node000023" class="node">
<title>Node23</title>
<g id="a_Node000023"><a xlink:title=" ">
<polygon fill="white" stroke="#666666" points="1247.5,-430.5 1109.5,-430.5 1109.5,-400.5 1247.5,-400.5 1247.5,-430.5"/>
<text text-anchor="start" x="1117.5" y="-418.5" font-family="Helvetica,sans-Serif" font-size="10.00">std::shared_ptr&lt; const</text>
<text text-anchor="middle" x="1178.5" y="-407.5" font-family="Helvetica,sans-Serif" font-size="10.00"> Acts::ISurfaceMaterial &gt;</text>
</a>
</g>
</g>
<!-- Node23&#45;&gt;Node5 -->
<g id="edge28_Node000005_Node000023" class="edge">
<title>Node23&#45;&gt;Node5</title>
<g id="a_edge28_Node000005_Node000023"><a xlink:title=" ">
<path fill="none" stroke="#9a32cd" stroke-dasharray="5,2" d="M1257.56,-413.68C1303.94,-409.19 1361.92,-397.32 1405,-367.5 1434.27,-347.24 1451.91,-306.58 1458.74,-288.07"/>
<polygon fill="#9a32cd" stroke="#9a32cd" points="1257.21,-410.2 1247.55,-414.55 1257.81,-417.17 1257.21,-410.2"/>
</a>
</g>
<text text-anchor="start" x="1293" y="-416" font-family="Helvetica,sans-Serif" font-size="10.00" fill="grey">m_surfaceMaterial</text>
</g>
<!-- Node24 -->
<g id="Node000024" class="node">
<title>Node24</title>
<g id="a_Node000024"><a xlink:title=" ">
<polygon fill="white" stroke="#666666" points="882,-476 764,-476 764,-457 882,-457 882,-476"/>
<text text-anchor="middle" x="823" y="-464" font-family="Helvetica,sans-Serif" font-size="10.00">std::shared_ptr&lt; T &gt;</text>
</a>
</g>
</g>
<!-- Node24&#45;&gt;Node23 -->
<g id="edge29_Node000023_Node000024" class="edge">
<title>Node24&#45;&gt;Node23</title>
<g id="a_edge29_Node000023_Node000024"><a xlink:title=" ">
<path fill="none" stroke="orange" stroke-dasharray="5,2" d="M892.37,-461.65C945.01,-457.31 1019.45,-449.86 1084,-438.5 1096.18,-436.36 1109.14,-433.53 1121.39,-430.59"/>
<polygon fill="orange" stroke="orange" points="891.83,-458.19 882.14,-462.48 892.39,-465.16 891.83,-458.19"/>
</a>
</g>
<text text-anchor="start" x="921" y="-464" font-family="Helvetica,sans-Serif" font-size="10.00" fill="grey">&lt; const Acts::ISurfaceMaterial &gt;</text>
</g>
<!-- Node25 -->
<g id="Node000025" class="node">
<title>Node25</title>
<g id="a_Node000025"><a xlink:title=" ">
<polygon fill="white" stroke="#666666" points="2113,-172.5 1945,-172.5 1945,-142.5 2113,-142.5 2113,-172.5"/>
<text text-anchor="start" x="1953" y="-160.5" font-family="Helvetica,sans-Serif" font-size="10.00">std::vector&lt; detail</text>
<text text-anchor="middle" x="2029" y="-149.5" font-family="Helvetica,sans-Serif" font-size="10.00">::NavigationObjectCandidate &gt;</text>
</a>
</g>
</g>
<!-- Node25&#45;&gt;Node2 -->
<g id="edge32_Node000002_Node000025" class="edge">
<title>Node25&#45;&gt;Node2</title>
<g id="a_edge32_Node000002_Node000025"><a xlink:title=" ">
<path fill="none" stroke="#9a32cd" stroke-dasharray="5,2" d="M2123.06,-150.73C2167.8,-147.48 2220.56,-143.64 2261.93,-140.63"/>
<polygon fill="#9a32cd" stroke="#9a32cd" points="2122.78,-147.24 2113.06,-151.46 2123.29,-154.22 2122.78,-147.24"/>
</a>
</g>
<text text-anchor="start" x="2134.5" y="-155" font-family="Helvetica,sans-Serif" font-size="10.00" fill="grey">navigationCandidates</text>
</g>
<!-- Node26 -->
<g id="Node000026" class="node">
<title>Node26</title>
<g id="a_Node000026"><a xlink:title=" ">
<polygon fill="white" stroke="#666666" points="1742,-19 1645,-19 1645,0 1742,0 1742,-19"/>
<text text-anchor="middle" x="1693.5" y="-7" font-family="Helvetica,sans-Serif" font-size="10.00">std::vector&lt; T &gt;</text>
</a>
</g>
</g>
<!-- Node26&#45;&gt;Node25 -->
<g id="edge33_Node000025_Node000026" class="edge">
<title>Node26&#45;&gt;Node25</title>
<g id="a_edge33_Node000025_Node000026"><a xlink:title=" ">
<path fill="none" stroke="orange" stroke-dasharray="5,2" d="M1720.05,-24.06C1764.61,-49.01 1859.91,-100.44 1945,-133.5 1953.25,-136.7 1962.1,-139.71 1970.85,-142.43"/>
<polygon fill="orange" stroke="orange" points="1721.76,-21.01 1711.33,-19.15 1718.33,-27.11 1721.76,-21.01"/>
</a>
</g>
<text text-anchor="start" x="1792.5" y="-145.5" font-family="Helvetica,sans-Serif" font-size="10.00" fill="grey">&lt; detail::NavigationObject</text>
<text text-anchor="start" x="1792.5" y="-130.5" font-family="Helvetica,sans-Serif" font-size="10.00" fill="grey">  Candidate &gt;</text>
</g>
<!-- Node28 -->
<g id="Node000028" class="node">
<title>Node28</title>
<g id="a_Node000028"><a xlink:title=" ">
<polygon fill="white" stroke="#666666" points="2243,-33.5 2132,-33.5 2132,-3.5 2243,-3.5 2243,-33.5"/>
<text text-anchor="start" x="2140" y="-21.5" font-family="Helvetica,sans-Serif" font-size="10.00">std::vector&lt; Acts::</text>
<text text-anchor="middle" x="2187.5" y="-10.5" font-family="Helvetica,sans-Serif" font-size="10.00">NavigationTarget &gt;</text>
</a>
</g>
</g>
<!-- Node26&#45;&gt;Node28 -->
<g id="edge36_Node000028_Node000026" class="edge">
<title>Node26&#45;&gt;Node28</title>
<g id="a_edge36_Node000028_Node000026"><a xlink:title=" ">
<path fill="none" stroke="orange" stroke-dasharray="5,2" d="M1752.2,-10.56C1847.87,-12.31 2038.1,-15.79 2131.78,-17.5"/>
<polygon fill="orange" stroke="orange" points="1752.18,-7.05 1742.12,-10.37 1752.06,-14.05 1752.18,-7.05"/>
</a>
</g>
<text text-anchor="start" x="1791.5" y="-20" font-family="Helvetica,sans-Serif" font-size="10.00" fill="grey">&lt; Acts::NavigationTarget &gt;</text>
</g>
<!-- Node27 -->
<g id="Node000027" class="node">
<title>Node27</title>
<g id="a_Node000027"><a xlink:href="struct_acts_1_1_navigator_statistics.html" target="_top" xlink:title="A struct to hold statistics of the navigator.">
<polygon fill="white" stroke="#666666" points="2097.5,-124 1960.5,-124 1960.5,-105 2097.5,-105 2097.5,-124"/>
<text text-anchor="middle" x="2029" y="-112" font-family="Helvetica,sans-Serif" font-size="10.00">Acts::NavigatorStatistics</text>
</a>
</g>
</g>
<!-- Node27&#45;&gt;Node2 -->
<g id="edge34_Node000002_Node000027" class="edge">
<title>Node27&#45;&gt;Node2</title>
<g id="a_edge34_Node000002_Node000027"><a xlink:title=" ">
<path fill="none" stroke="#9a32cd" stroke-dasharray="5,2" d="M2107.79,-112.11C2148.48,-111.74 2199.05,-112.66 2244,-117.5 2250.86,-118.24 2257.97,-119.26 2265.06,-120.43"/>
<polygon fill="#9a32cd" stroke="#9a32cd" points="2107.62,-108.61 2097.66,-112.23 2107.7,-115.61 2107.62,-108.61"/>
</a>
</g>
<text text-anchor="start" x="2165.5" y="-123" font-family="Helvetica,sans-Serif" font-size="10.00" fill="grey">statistics</text>
</g>
<!-- Node28&#45;&gt;Node1 -->
<g id="edge35_Node000001_Node000028" class="edge">
<title>Node28&#45;&gt;Node1</title>
<g id="a_edge35_Node000001_Node000028"><a xlink:title=" ">
<path fill="none" stroke="#9a32cd" stroke-dasharray="5,2" d="M2253.08,-31.65C2309.07,-43.05 2390.08,-59.54 2448.63,-71.46"/>
<polygon fill="#9a32cd" stroke="#9a32cd" points="2253.78,-28.22 2243.28,-29.65 2252.38,-35.08 2253.78,-28.22"/>
</a>
</g>
<text text-anchor="start" x="2300.5" y="-69" font-family="Helvetica,sans-Serif" font-size="10.00" fill="grey">activeTargets</text>
</g>
</g>
</svg>
