<?xml version="1.0" encoding="UTF-8" standalone="no"?>
<!DOCTYPE svg PUBLIC "-//W3C//DTD SVG 1.1//EN"
 "http://www.w3.org/Graphics/SVG/1.1/DTD/svg11.dtd">
<!-- Generated by graphviz version 2.43.0 (0)
 -->
<!-- Title: Acts::Experimental::GbtsConnector::LayerGroup Pages: 1 -->
<svg width="226pt" height="219pt"
 viewBox="0.00 0.00 225.50 219.00" xmlns="http://www.w3.org/2000/svg" xmlns:xlink="http://www.w3.org/1999/xlink">
<g id="graph0" class="graph" transform="scale(1 1) rotate(0) translate(4 215)">
<title>Acts::Experimental::GbtsConnector::LayerGroup</title>
<!-- Node1 -->
<g id="Node000001" class="node">
<title>Node1</title>
<g id="a_Node000001"><a xlink:title=" ">
<polygon fill="#999999" stroke="#666666" points="157,-30 0,-30 0,0 157,0 157,-30"/>
<text text-anchor="start" x="8" y="-18" font-family="Helvetica,sans-Serif" font-size="10.00">Acts::Experimental</text>
<text text-anchor="middle" x="78.5" y="-7" font-family="Helvetica,sans-Serif" font-size="10.00">::GbtsConnector::LayerGroup</text>
</a>
</g>
</g>
<!-- Node2 -->
<g id="Node000002" class="node">
<title>Node2</title>
<g id="a_Node000002"><a xlink:title=" ">
<polygon fill="white" stroke="#666666" points="138,-124 19,-124 19,-83 138,-83 138,-124"/>
<text text-anchor="start" x="27" y="-112" font-family="Helvetica,sans-Serif" font-size="10.00">std::vector&lt; const</text>
<text text-anchor="start" x="27" y="-101" font-family="Helvetica,sans-Serif" font-size="10.00"> Acts::Experimental</text>
<text text-anchor="middle" x="78.5" y="-90" font-family="Helvetica,sans-Serif" font-size="10.00">::GbtsConnection * &gt;</text>
</a>
</g>
</g>
<!-- Node2&#45;&gt;Node1 -->
<g id="edge1_Node000001_Node000002" class="edge">
<title>Node2&#45;&gt;Node1</title>
<g id="a_edge1_Node000001_Node000002"><a xlink:title=" ">
<path fill="none" stroke="#9a32cd" stroke-dasharray="5,2" d="M78.5,-72.86C78.5,-58.41 78.5,-41.71 78.5,-30.16"/>
<polygon fill="#9a32cd" stroke="#9a32cd" points="75,-72.87 78.5,-82.87 82,-72.87 75,-72.87"/>
</a>
</g>
<text text-anchor="start" x="82" y="-53.5" font-family="Helvetica,sans-Serif" font-size="10.00" fill="grey">m_sources</text>
</g>
<!-- Node3 -->
<g id="Node000003" class="node">
<title>Node3</title>
<g id="a_Node000003"><a xlink:title=" ">
<polygon fill="white" stroke="#666666" points="127,-211 30,-211 30,-192 127,-192 127,-211"/>
<text text-anchor="middle" x="78.5" y="-199" font-family="Helvetica,sans-Serif" font-size="10.00">std::vector&lt; T &gt;</text>
</a>
</g>
</g>
<!-- Node3&#45;&gt;Node2 -->
<g id="edge2_Node000002_Node000003" class="edge">
<title>Node3&#45;&gt;Node2</title>
<g id="a_edge2_Node000002_Node000003"><a xlink:title=" ">
<path fill="none" stroke="orange" stroke-dasharray="5,2" d="M78.5,-181.87C78.5,-165.24 78.5,-140.97 78.5,-124.06"/>
<polygon fill="orange" stroke="orange" points="75,-181.98 78.5,-191.98 82,-181.98 75,-181.98"/>
</a>
</g>
<text text-anchor="start" x="82" y="-163" font-family="Helvetica,sans-Serif" font-size="10.00" fill="grey">&lt; const Acts::Experimental</text>
<text text-anchor="start" x="82" y="-148" font-family="Helvetica,sans-Serif" font-size="10.00" fill="grey">  ::GbtsConnection * &gt;</text>
</g>
</g>
</svg>
