<?xml version="1.0" encoding="UTF-8" standalone="no"?>
<!DOCTYPE svg PUBLIC "-//W3C//DTD SVG 1.1//EN"
 "http://www.w3.org/Graphics/SVG/1.1/DTD/svg11.dtd">
<!-- Generated by graphviz version 2.43.0 (0)
 -->
<!-- Title: ActsPlugins::DetrayConversionUtils::Cache Pages: 1 -->
<svg width="758pt" height="122pt"
 viewBox="0.00 0.00 758.00 122.00" xmlns="http://www.w3.org/2000/svg" xmlns:xlink="http://www.w3.org/1999/xlink">
<g id="graph0" class="graph" transform="scale(1 1) rotate(0) translate(4 118)">
<title>ActsPlugins::DetrayConversionUtils::Cache</title>
<!-- Node1 -->
<g id="Node000001" class="node">
<title>Node1</title>
<g id="a_Node000001"><a xlink:title="Detray conversion cache object.">
<polygon fill="#999999" stroke="#666666" points="750,-73 583,-73 583,-43 750,-43 750,-73"/>
<text text-anchor="start" x="591" y="-61" font-family="Helvetica,sans-Serif" font-size="10.00">ActsPlugins::DetrayConversion</text>
<text text-anchor="middle" x="666.5" y="-50" font-family="Helvetica,sans-Serif" font-size="10.00">Utils::Cache</text>
</a>
</g>
</g>
<!-- Node2 -->
<g id="Node000002" class="node">
<title>Node2</title>
<g id="a_Node000002"><a xlink:title=" ">
<polygon fill="white" stroke="#666666" points="445.5,-103 299.5,-103 299.5,-73 445.5,-73 445.5,-103"/>
<text text-anchor="start" x="307.5" y="-91" font-family="Helvetica,sans-Serif" font-size="10.00">std::map&lt; Acts::Geometry</text>
<text text-anchor="middle" x="372.5" y="-80" font-family="Helvetica,sans-Serif" font-size="10.00">Identifier, unsigned long &gt;</text>
</a>
</g>
</g>
<!-- Node2&#45;&gt;Node1 -->
<g id="edge1_Node000001_Node000002" class="edge">
<title>Node2&#45;&gt;Node1</title>
<g id="a_edge1_Node000001_Node000002"><a xlink:title=" ">
<path fill="none" stroke="#9a32cd" stroke-dasharray="5,2" d="M455.86,-79.54C495.55,-75.46 543.05,-70.58 582.79,-66.5"/>
<polygon fill="#9a32cd" stroke="#9a32cd" points="455.27,-76.08 445.68,-80.58 455.99,-83.04 455.27,-76.08"/>
</a>
</g>
<text text-anchor="start" x="488" y="-82.5" font-family="Helvetica,sans-Serif" font-size="10.00" fill="grey">volumeLinks</text>
</g>
<!-- Node3 -->
<g id="Node000003" class="node">
<title>Node3</title>
<g id="a_Node000003"><a xlink:title=" ">
<polygon fill="white" stroke="#666666" points="101,-65.5 0,-65.5 0,-46.5 101,-46.5 101,-65.5"/>
<text text-anchor="middle" x="50.5" y="-53.5" font-family="Helvetica,sans-Serif" font-size="10.00">std::map&lt; K, T &gt;</text>
</a>
</g>
</g>
<!-- Node3&#45;&gt;Node2 -->
<g id="edge2_Node000002_Node000003" class="edge">
<title>Node3&#45;&gt;Node2</title>
<g id="a_edge2_Node000002_Node000003"><a xlink:title=" ">
<path fill="none" stroke="orange" stroke-dasharray="5,2" d="M107.11,-67.23C111.12,-67.88 115.12,-68.48 119,-69 179.57,-77.08 248.8,-81.99 299.44,-84.79"/>
<polygon fill="orange" stroke="orange" points="107.58,-63.76 97.13,-65.53 106.4,-70.66 107.58,-63.76"/>
</a>
</g>
<text text-anchor="start" x="128.5" y="-103" font-family="Helvetica,sans-Serif" font-size="10.00" fill="grey">&lt; Acts::GeometryIdentifier,</text>
<text text-anchor="start" x="128.5" y="-88" font-family="Helvetica,sans-Serif" font-size="10.00" fill="grey">   unsigned long &gt;</text>
</g>
<!-- Node4 -->
<g id="Node000004" class="node">
<title>Node4</title>
<g id="a_Node000004"><a xlink:title=" ">
<polygon fill="white" stroke="#666666" points="455,-52 290,-52 290,0 455,0 455,-52"/>
<text text-anchor="start" x="298" y="-40" font-family="Helvetica,sans-Serif" font-size="10.00">std::map&lt; std::size</text>
<text text-anchor="start" x="298" y="-29" font-family="Helvetica,sans-Serif" font-size="10.00">_t, std::multimap&lt; Acts</text>
<text text-anchor="start" x="298" y="-18" font-family="Helvetica,sans-Serif" font-size="10.00">::GeometryIdentifier, unsigned</text>
<text text-anchor="middle" x="372.5" y="-7" font-family="Helvetica,sans-Serif" font-size="10.00"> long &gt; &gt;</text>
</a>
</g>
</g>
<!-- Node3&#45;&gt;Node4 -->
<g id="edge4_Node000004_Node000003" class="edge">
<title>Node3&#45;&gt;Node4</title>
<g id="a_edge4_Node000004_Node000003"><a xlink:title=" ">
<path fill="none" stroke="orange" stroke-dasharray="5,2" d="M74.35,-41.12C86.97,-33.79 103.23,-25.75 119,-22 174.98,-8.7 239.93,-10.09 289.94,-14.6"/>
<polygon fill="orange" stroke="orange" points="72.22,-38.32 65.49,-46.49 75.85,-44.3 72.22,-38.32"/>
</a>
</g>
<text text-anchor="start" x="122.5" y="-57.5" font-family="Helvetica,sans-Serif" font-size="10.00" fill="grey">&lt; std::size_t, std</text>
<text text-anchor="start" x="122.5" y="-42.5" font-family="Helvetica,sans-Serif" font-size="10.00" fill="grey">  ::multimap&lt; Acts::Geometry</text>
<text text-anchor="start" x="122.5" y="-27.5" font-family="Helvetica,sans-Serif" font-size="10.00" fill="grey">  Identifier, unsigned long &gt; &gt;</text>
</g>
<!-- Node4&#45;&gt;Node1 -->
<g id="edge3_Node000001_Node000004" class="edge">
<title>Node4&#45;&gt;Node1</title>
<g id="a_edge3_Node000001_Node000004"><a xlink:title=" ">
<path fill="none" stroke="#9a32cd" stroke-dasharray="5,2" d="M465.18,-36.05C502.83,-40.17 546.11,-44.92 582.78,-48.93"/>
<polygon fill="#9a32cd" stroke="#9a32cd" points="465.55,-32.57 455.23,-34.96 464.79,-39.52 465.55,-32.57"/>
</a>
</g>
<text text-anchor="start" x="476" y="-51.5" font-family="Helvetica,sans-Serif" font-size="10.00" fill="grey">localSurfaceLinks</text>
</g>
</g>
</svg>
