<?xml version="1.0" encoding="UTF-8" standalone="no"?>
<!DOCTYPE svg PUBLIC "-//W3C//DTD SVG 1.1//EN"
 "http://www.w3.org/Graphics/SVG/1.1/DTD/svg11.dtd">
<!-- Generated by graphviz version 2.43.0 (0)
 -->
<!-- Title: Acts::AdaptiveMultiVertexFitter::Config Pages: 1 -->
<svg width="909pt" height="244pt"
 viewBox="0.00 0.00 909.00 243.50" xmlns="http://www.w3.org/2000/svg" xmlns:xlink="http://www.w3.org/1999/xlink">
<g id="graph0" class="graph" transform="scale(1 1) rotate(0) translate(4 239.5)">
<title>Acts::AdaptiveMultiVertexFitter::Config</title>
<!-- Node1 -->
<g id="Node000001" class="node">
<title>Node1</title>
<g id="a_Node000001"><a xlink:title=" ">
<polygon fill="#999999" stroke="#666666" points="901,-180 758,-180 758,-150 901,-150 901,-180"/>
<text text-anchor="start" x="766" y="-168" font-family="Helvetica,sans-Serif" font-size="10.00">Acts::AdaptiveMultiVertex</text>
<text text-anchor="middle" x="829.5" y="-157" font-family="Helvetica,sans-Serif" font-size="10.00">Fitter::Config</text>
</a>
</g>
</g>
<!-- Node2 -->
<g id="Node000002" class="node">
<title>Node2</title>
<g id="a_Node000002"><a xlink:href="class_acts_1_1_impact_point_estimator.html" target="_top" xlink:title="Estimator for impact point calculations A description of the underlying mathematics can be found here...">
<polygon fill="white" stroke="#666666" points="580.5,-235.5 431.5,-235.5 431.5,-216.5 580.5,-216.5 580.5,-235.5"/>
<text text-anchor="middle" x="506" y="-223.5" font-family="Helvetica,sans-Serif" font-size="10.00">Acts::ImpactPointEstimator</text>
</a>
</g>
</g>
<!-- Node2&#45;&gt;Node1 -->
<g id="edge1_Node000001_Node000002" class="edge">
<title>Node2&#45;&gt;Node1</title>
<g id="a_edge1_Node000001_Node000002"><a xlink:title=" ">
<path fill="none" stroke="#9a32cd" stroke-dasharray="5,2" d="M590.97,-220.75C635.68,-216.74 691.33,-209.82 740,-198 758.17,-193.59 777.7,-186.56 793.79,-180.12"/>
<polygon fill="#9a32cd" stroke="#9a32cd" points="590.39,-217.29 580.73,-221.63 591,-224.26 590.39,-217.29"/>
</a>
</g>
<text text-anchor="start" x="679.5" y="-219.5" font-family="Helvetica,sans-Serif" font-size="10.00" fill="grey">ipEst</text>
</g>
<!-- Node3 -->
<g id="Node000003" class="node">
<title>Node3</title>
<g id="a_Node000003"><a xlink:href="class_acts_1_1_annealing_utility.html" target="_top" xlink:title="Implements a deterministic thermodynamic annealing scheme Ref.">
<polygon fill="white" stroke="#666666" points="567,-197.5 445,-197.5 445,-178.5 567,-178.5 567,-197.5"/>
<text text-anchor="middle" x="506" y="-185.5" font-family="Helvetica,sans-Serif" font-size="10.00">Acts::AnnealingUtility</text>
</a>
</g>
</g>
<!-- Node3&#45;&gt;Node1 -->
<g id="edge2_Node000001_Node000003" class="edge">
<title>Node3&#45;&gt;Node1</title>
<g id="a_edge2_Node000001_Node000003"><a xlink:title=" ">
<path fill="none" stroke="#9a32cd" stroke-dasharray="5,2" d="M577.18,-182.98C630.71,-179.15 704.11,-173.9 757.77,-170.06"/>
<polygon fill="#9a32cd" stroke="#9a32cd" points="576.82,-179.5 567.09,-183.7 577.32,-186.48 576.82,-179.5"/>
</a>
</g>
<text text-anchor="start" x="657.5" y="-182.5" font-family="Helvetica,sans-Serif" font-size="10.00" fill="grey">annealingTool</text>
</g>
<!-- Node4 -->
<g id="Node000004" class="node">
<title>Node4</title>
<g id="a_Node000004"><a xlink:href="class_acts_1_1_delegate.html" target="_top" xlink:title=" ">
<polygon fill="white" stroke="#666666" points="595,-160 417,-160 417,-130 595,-130 595,-160"/>
<text text-anchor="start" x="425" y="-148" font-family="Helvetica,sans-Serif" font-size="10.00">Acts::Delegate&lt; BoundTrack</text>
<text text-anchor="middle" x="506" y="-137" font-family="Helvetica,sans-Serif" font-size="10.00">Parameters(const InputTrack &amp;)&gt;</text>
</a>
</g>
</g>
<!-- Node4&#45;&gt;Node1 -->
<g id="edge3_Node000001_Node000004" class="edge">
<title>Node4&#45;&gt;Node1</title>
<g id="a_edge3_Node000001_Node000004"><a xlink:title=" ">
<path fill="none" stroke="#9a32cd" stroke-dasharray="5,2" d="M605.33,-141.67C646.97,-141.34 695.96,-142.38 740,-147 747.02,-147.74 754.3,-148.77 761.54,-149.97"/>
<polygon fill="#9a32cd" stroke="#9a32cd" points="605.15,-138.17 595.19,-141.78 605.22,-145.17 605.15,-138.17"/>
</a>
</g>
<text text-anchor="start" x="646.5" y="-152.5" font-family="Helvetica,sans-Serif" font-size="10.00" fill="grey">extractParameters</text>
</g>
<!-- Node5 -->
<g id="Node000005" class="node">
<title>Node5</title>
<g id="a_Node000005"><a xlink:href="class_acts_1_1_delegate.html" target="_top" xlink:title=" ">
<polygon fill="white" stroke="#666666" points="152,-103 0,-103 0,-73 152,-73 152,-103"/>
<text text-anchor="start" x="8" y="-91" font-family="Helvetica,sans-Serif" font-size="10.00">Acts::Delegate&lt; typename,</text>
<text text-anchor="middle" x="76" y="-80" font-family="Helvetica,sans-Serif" font-size="10.00"> H, DelegateType &gt;</text>
</a>
</g>
</g>
<!-- Node5&#45;&gt;Node4 -->
<g id="edge4_Node000004_Node000005" class="edge">
<title>Node5&#45;&gt;Node4</title>
<g id="a_edge4_Node000004_Node000005"><a xlink:title=" ">
<path fill="none" stroke="orange" stroke-dasharray="5,2" d="M106.17,-108.81C123.76,-120.08 147.12,-132.92 170,-139 251.52,-160.66 348.16,-159.71 416.65,-154.81"/>
<polygon fill="orange" stroke="orange" points="107.81,-105.69 97.54,-103.1 103.95,-111.53 107.81,-105.69"/>
</a>
</g>
<text text-anchor="start" x="207.5" y="-178" font-family="Helvetica,sans-Serif" font-size="10.00" fill="grey">&lt; BoundTrackParameters</text>
<text text-anchor="start" x="207.5" y="-163" font-family="Helvetica,sans-Serif" font-size="10.00" fill="grey">  (const InputTrack &amp;)&gt;</text>
</g>
<!-- Node6 -->
<g id="Node000006" class="node">
<title>Node6</title>
<g id="a_Node000006"><a xlink:href="class_acts_1_1_delegate.html" target="_top" xlink:title=" ">
<polygon fill="white" stroke="#666666" points="625,-96 387,-96 387,0 625,0 625,-96"/>
<text text-anchor="start" x="395" y="-84" font-family="Helvetica,sans-Serif" font-size="10.00">Acts::Delegate&lt; Result</text>
<text text-anchor="start" x="395" y="-73" font-family="Helvetica,sans-Serif" font-size="10.00">&lt; LinearizedTrack &gt;(const</text>
<text text-anchor="start" x="395" y="-62" font-family="Helvetica,sans-Serif" font-size="10.00"> BoundTrackParameters &amp;params,</text>
<text text-anchor="start" x="395" y="-51" font-family="Helvetica,sans-Serif" font-size="10.00"> double linPointTime, const</text>
<text text-anchor="start" x="395" y="-40" font-family="Helvetica,sans-Serif" font-size="10.00"> Surface &amp;perigeeSurface, const</text>
<text text-anchor="start" x="395" y="-29" font-family="Helvetica,sans-Serif" font-size="10.00"> Acts::GeometryContext &amp;gctx, const</text>
<text text-anchor="start" x="395" y="-18" font-family="Helvetica,sans-Serif" font-size="10.00"> Acts::MagneticFieldContext &amp;mctx,</text>
<text text-anchor="middle" x="506" y="-7" font-family="Helvetica,sans-Serif" font-size="10.00"> MagneticFieldProvider::Cache &amp;fieldCache)&gt;</text>
</a>
</g>
</g>
<!-- Node5&#45;&gt;Node6 -->
<g id="edge6_Node000006_Node000005" class="edge">
<title>Node5&#45;&gt;Node6</title>
<g id="a_edge6_Node000006_Node000005"><a xlink:title=" ">
<path fill="none" stroke="orange" stroke-dasharray="5,2" d="M98,-65.39C115.41,-48.42 141.8,-26.53 170,-17 239.44,6.48 321.31,-0.51 386.73,-13.74"/>
<polygon fill="orange" stroke="orange" points="95.22,-63.22 90.65,-72.78 100.19,-68.16 95.22,-63.22"/>
</a>
</g>
<text text-anchor="start" x="173.5" y="-128" font-family="Helvetica,sans-Serif" font-size="10.00" fill="grey">&lt; Result&lt; LinearizedTrack</text>
<text text-anchor="start" x="173.5" y="-113" font-family="Helvetica,sans-Serif" font-size="10.00" fill="grey">   &gt;( const BoundTrackParameters</text>
<text text-anchor="start" x="173.5" y="-98" font-family="Helvetica,sans-Serif" font-size="10.00" fill="grey">   &amp;params, double linPointTime,</text>
<text text-anchor="start" x="173.5" y="-83" font-family="Helvetica,sans-Serif" font-size="10.00" fill="grey">   const Surface &amp;perigeeSurface,</text>
<text text-anchor="start" x="173.5" y="-68" font-family="Helvetica,sans-Serif" font-size="10.00" fill="grey">   const Acts::GeometryContext &amp;gctx,</text>
<text text-anchor="start" x="173.5" y="-53" font-family="Helvetica,sans-Serif" font-size="10.00" fill="grey">   const Acts::MagneticFieldContext</text>
<text text-anchor="start" x="173.5" y="-38" font-family="Helvetica,sans-Serif" font-size="10.00" fill="grey">   &amp;mctx, MagneticFieldProvider::Cache</text>
<text text-anchor="start" x="173.5" y="-23" font-family="Helvetica,sans-Serif" font-size="10.00" fill="grey">   &amp;fieldCache)&gt;</text>
</g>
<!-- Node6&#45;&gt;Node1 -->
<g id="edge5_Node000001_Node000006" class="edge">
<title>Node6&#45;&gt;Node1</title>
<g id="a_edge5_Node000001_Node000006"><a xlink:title=" ">
<path fill="none" stroke="#9a32cd" stroke-dasharray="5,2" d="M634.69,-84.02C669.25,-94.85 706.39,-107.48 740,-121 761.01,-129.45 783.89,-140.89 801.11,-149.98"/>
<polygon fill="#9a32cd" stroke="#9a32cd" points="635.6,-80.64 625.01,-81.02 633.52,-87.33 635.6,-80.64"/>
</a>
</g>
<text text-anchor="start" x="655.5" y="-126.5" font-family="Helvetica,sans-Serif" font-size="10.00" fill="grey">trackLinearizer</text>
</g>
</g>
</svg>
