<?xml version="1.0" encoding="UTF-8" standalone="no"?>
<!DOCTYPE svg PUBLIC "-//W3C//DTD SVG 1.1//EN"
 "http://www.w3.org/Graphics/SVG/1.1/DTD/svg11.dtd">
<!-- Generated by graphviz version 2.43.0 (0)
 -->
<!-- Title: ActsPlugins::Svg::Style Pages: 1 -->
<svg width="417pt" height="231pt"
 viewBox="0.00 0.00 417.00 231.00" xmlns="http://www.w3.org/2000/svg" xmlns:xlink="http://www.w3.org/1999/xlink">

<svg id="main" version="1.1" xmlns="http://www.w3.org/2000/svg" xmlns:xlink="http://www.w3.org/1999/xlink" xml:space="preserve">

<style type="text/css"><![CDATA[
.node, .edge {opacity: 0.7;}
.node.selected, .edge.selected {opacity: 1;}
.edge:hover path { stroke: red; }
.edge:hover polygon { stroke: red; fill: red; }
]]></style>
<script type="application/ecmascript" xlink:href="svg.min.js"/>
<svg id="graph" class="graph">
<g id="graph0" class="graph" transform="scale(1 1) rotate(0) translate(4 227)">
<title>ActsPlugins::Svg::Style</title>
<!-- Node1 -->
<g id="Node000001" class="node">
<title>Node1</title>
<g id="a_Node000001"><a xlink:title="Style struct.">
<polygon fill="#999999" stroke="#666666" points="262,-19 134,-19 134,0 262,0 262,-19"/>
<text text-anchor="middle" x="198" y="-7" font-family="Helvetica,sans-Serif" font-size="10.00">ActsPlugins::Svg::Style</text>
</a>
</g>
</g>
<!-- Node2 -->
<g id="Node000002" class="node">
<title>Node2</title>
<g id="a_Node000002"><a xlink:title=" ">
<polygon fill="white" stroke="#666666" points="110,-151 0,-151 0,-132 110,-132 110,-151"/>
<text text-anchor="middle" x="55" y="-139" font-family="Helvetica,sans-Serif" font-size="10.00">std::array&lt; int, 3 &gt;</text>
</a>
</g>
</g>
<!-- Node2&#45;&gt;Node1 -->
<g id="edge1_Node000001_Node000002" class="edge">
<title>Node2&#45;&gt;Node1</title>
<g id="a_edge1_Node000001_Node000002"><a xlink:title=" ">
<path fill="none" stroke="#9a32cd" stroke-dasharray="5,2" d="M55.66,-121.5C57.52,-98.2 64.26,-59.09 88,-37 100.51,-25.36 117.23,-18.57 133.84,-14.68"/>
<polygon fill="#9a32cd" stroke="#9a32cd" points="52.15,-121.61 55.07,-131.8 59.13,-122.01 52.15,-121.61"/>
</a>
</g>
<text text-anchor="start" x="91" y="-102.5" font-family="Helvetica,sans-Serif" font-size="10.00" fill="grey">fillColor</text>
<text text-anchor="start" x="91" y="-87.5" font-family="Helvetica,sans-Serif" font-size="10.00" fill="grey">fontColor</text>
<text text-anchor="start" x="91" y="-72.5" font-family="Helvetica,sans-Serif" font-size="10.00" fill="grey">highlightColor</text>
<text text-anchor="start" x="91" y="-57.5" font-family="Helvetica,sans-Serif" font-size="10.00" fill="grey">highlightStrokeColor</text>
<text text-anchor="start" x="91" y="-42.5" font-family="Helvetica,sans-Serif" font-size="10.00" fill="grey">strokeColor</text>
</g>
<!-- Node3 -->
<g id="Node000003" class="node">
<title>Node3</title>
<g id="a_Node000003"><a xlink:title=" ">
<polygon fill="white" stroke="#666666" points="101,-223 9,-223 9,-204 101,-204 101,-223"/>
<text text-anchor="middle" x="55" y="-211" font-family="Helvetica,sans-Serif" font-size="10.00">std::array&lt; T &gt;</text>
</a>
</g>
</g>
<!-- Node3&#45;&gt;Node2 -->
<g id="edge2_Node000002_Node000003" class="edge">
<title>Node3&#45;&gt;Node2</title>
<g id="a_edge2_Node000002_Node000003"><a xlink:title=" ">
<path fill="none" stroke="orange" stroke-dasharray="5,2" d="M55,-193.58C55,-179.76 55,-161.68 55,-151.15"/>
<polygon fill="orange" stroke="orange" points="51.5,-193.92 55,-203.92 58.5,-193.92 51.5,-193.92"/>
</a>
</g>
<text text-anchor="start" x="58" y="-174.5" font-family="Helvetica,sans-Serif" font-size="10.00" fill="grey">&lt; int, 3 &gt;</text>
</g>
<!-- Node4 -->
<g id="Node000004" class="node">
<title>Node4</title>
<g id="a_Node000004"><a xlink:title=" ">
<polygon fill="white" stroke="#666666" points="268,-151 128,-151 128,-132 268,-132 268,-151"/>
<text text-anchor="middle" x="198" y="-139" font-family="Helvetica,sans-Serif" font-size="10.00">std::vector&lt; std::string &gt;</text>
</a>
</g>
</g>
<!-- Node4&#45;&gt;Node1 -->
<g id="edge3_Node000001_Node000004" class="edge">
<title>Node4&#45;&gt;Node1</title>
<g id="a_edge3_Node000001_Node000004"><a xlink:title=" ">
<path fill="none" stroke="#9a32cd" stroke-dasharray="5,2" d="M198,-121.73C198,-93.22 198,-40.09 198,-19.23"/>
<polygon fill="#9a32cd" stroke="#9a32cd" points="194.5,-121.97 198,-131.97 201.5,-121.97 194.5,-121.97"/>
</a>
</g>
<text text-anchor="start" x="201.5" y="-72.5" font-family="Helvetica,sans-Serif" font-size="10.00" fill="grey">highlights</text>
</g>
<!-- Node5 -->
<g id="Node000005" class="node">
<title>Node5</title>
<g id="a_Node000005"><a xlink:title=" ">
<polygon fill="white" stroke="#666666" points="306.5,-223 209.5,-223 209.5,-204 306.5,-204 306.5,-223"/>
<text text-anchor="middle" x="258" y="-211" font-family="Helvetica,sans-Serif" font-size="10.00">std::vector&lt; T &gt;</text>
</a>
</g>
</g>
<!-- Node5&#45;&gt;Node4 -->
<g id="edge4_Node000004_Node000005" class="edge">
<title>Node5&#45;&gt;Node4</title>
<g id="a_edge4_Node000004_Node000005"><a xlink:title=" ">
<path fill="none" stroke="orange" stroke-dasharray="5,2" d="M239.19,-197.14C235.32,-193.65 231.39,-189.83 228,-186 218.14,-174.88 208.74,-160.41 203.18,-151.29"/>
<polygon fill="orange" stroke="orange" points="237,-199.88 246.86,-203.77 241.58,-194.59 237,-199.88"/>
</a>
</g>
<text text-anchor="start" x="231" y="-174.5" font-family="Helvetica,sans-Serif" font-size="10.00" fill="grey">&lt; std::string &gt;</text>
</g>
<!-- Node6 -->
<g id="Node000006" class="node">
<title>Node6</title>
<g id="a_Node000006"><a xlink:title=" ">
<polygon fill="white" stroke="#666666" points="390,-151 286,-151 286,-132 390,-132 390,-151"/>
<text text-anchor="middle" x="338" y="-139" font-family="Helvetica,sans-Serif" font-size="10.00">std::vector&lt; int &gt;</text>
</a>
</g>
</g>
<!-- Node5&#45;&gt;Node6 -->
<g id="edge6_Node000006_Node000005" class="edge">
<title>Node5&#45;&gt;Node6</title>
<g id="a_edge6_Node000006_Node000005"><a xlink:title=" ">
<path fill="none" stroke="orange" stroke-dasharray="5,2" d="M286.82,-199.23C293.49,-195.47 300.3,-191.01 306,-186 317.7,-175.73 327.68,-160.49 333.25,-151.04"/>
<polygon fill="orange" stroke="orange" points="285.13,-196.17 277.92,-203.93 288.4,-202.36 285.13,-196.17"/>
</a>
</g>
<text text-anchor="start" x="324" y="-174.5" font-family="Helvetica,sans-Serif" font-size="10.00" fill="grey">&lt; int &gt;</text>
</g>
<!-- Node6&#45;&gt;Node1 -->
<g id="edge5_Node000001_Node000006" class="edge">
<title>Node6&#45;&gt;Node1</title>
<g id="a_edge5_Node000001_Node000006"><a xlink:title=" ">
<path fill="none" stroke="#9a32cd" stroke-dasharray="5,2" d="M328.06,-123.07C314.51,-100.6 288.3,-61.51 257,-37 247.28,-29.38 235.02,-23.42 224.19,-19.09"/>
<polygon fill="#9a32cd" stroke="#9a32cd" points="325.14,-125 333.23,-131.85 331.18,-121.45 325.14,-125"/>
</a>
</g>
<text text-anchor="start" x="325.5" y="-72.5" font-family="Helvetica,sans-Serif" font-size="10.00" fill="grey">strokeDasharray</text>
</g>
</g>
</svg>
</svg>

<style type='text/css'>
<![CDATA[
[data-mouse-over-selected='false'] { opacity: 0.7; }
[data-mouse-over-selected='true']  { opacity: 1.0; }
]]>
</style>
<script type="application/ecmascript"><![CDATA[
document.addEventListener('DOMContentLoaded', (event) => {
  highlightEdges();
  highlightAdjacentNodes();
});
]]></script>
</svg>
