<?xml version="1.0" encoding="UTF-8" standalone="no"?>
<!DOCTYPE svg PUBLIC "-//W3C//DTD SVG 1.1//EN"
 "http://www.w3.org/Graphics/SVG/1.1/DTD/svg11.dtd">
<!-- Generated by graphviz version 2.43.0 (0)
 -->
<!-- Title: Acts::Table::Column Pages: 1 -->
<svg width="121pt" height="181pt"
 viewBox="0.00 0.00 121.00 181.00" xmlns="http://www.w3.org/2000/svg" xmlns:xlink="http://www.w3.org/1999/xlink">
<g id="graph0" class="graph" transform="scale(1 1) rotate(0) translate(4 177)">
<title>Acts::Table::Column</title>
<!-- Node1 -->
<g id="Node000001" class="node">
<title>Node1</title>
<g id="a_Node000001"><a xlink:title=" ">
<polygon fill="#999999" stroke="#666666" points="113,-19 0,-19 0,0 113,0 113,-19"/>
<text text-anchor="middle" x="56.5" y="-7" font-family="Helvetica,sans-Serif" font-size="10.00">Acts::Table::Column</text>
</a>
</g>
</g>
<!-- Node2 -->
<g id="Node000002" class="node">
<title>Node2</title>
<g id="a_Node000002"><a xlink:title=" ">
<polygon fill="white" stroke="#666666" points="89,-106 24,-106 24,-87 89,-87 89,-106"/>
<text text-anchor="middle" x="56.5" y="-94" font-family="Helvetica,sans-Serif" font-size="10.00">std::string</text>
</a>
</g>
</g>
<!-- Node2&#45;&gt;Node1 -->
<g id="edge1_Node000001_Node000002" class="edge">
<title>Node2&#45;&gt;Node1</title>
<g id="a_edge1_Node000001_Node000002"><a xlink:title=" ">
<path fill="none" stroke="#9a32cd" stroke-dasharray="5,2" d="M56.5,-76.62C56.5,-58.79 56.5,-32.83 56.5,-19.36"/>
<polygon fill="#9a32cd" stroke="#9a32cd" points="53,-76.72 56.5,-86.72 60,-76.72 53,-76.72"/>
</a>
</g>
<text text-anchor="start" x="59.5" y="-58" font-family="Helvetica,sans-Serif" font-size="10.00" fill="grey">format</text>
<text text-anchor="start" x="59.5" y="-43" font-family="Helvetica,sans-Serif" font-size="10.00" fill="grey">header</text>
</g>
<!-- Node3 -->
<g id="Node000003" class="node">
<title>Node3</title>
<g id="a_Node000003"><a xlink:title=" ">
<polygon fill="white" stroke="#666666" points="108.5,-173 4.5,-173 4.5,-143 108.5,-143 108.5,-173"/>
<text text-anchor="start" x="12.5" y="-161" font-family="Helvetica,sans-Serif" font-size="10.00">std::basic_string&lt;</text>
<text text-anchor="middle" x="56.5" y="-150" font-family="Helvetica,sans-Serif" font-size="10.00"> Char &gt;</text>
</a>
</g>
</g>
<!-- Node3&#45;&gt;Node2 -->
<g id="edge2_Node000002_Node000003" class="edge">
<title>Node3&#45;&gt;Node2</title>
<g id="a_edge2_Node000002_Node000003"><a xlink:title=" ">
<path fill="none" stroke="#63b8ff" d="M56.5,-132.79C56.5,-123.36 56.5,-113.15 56.5,-106.16"/>
<polygon fill="#63b8ff" stroke="#63b8ff" points="53,-132.9 56.5,-142.9 60,-132.9 53,-132.9"/>
</a>
</g>
</g>
</g>
</svg>
