<?xml version="1.0" encoding="UTF-8" standalone="no"?>
<!DOCTYPE svg PUBLIC "-//W3C//DTD SVG 1.1//EN"
 "http://www.w3.org/Graphics/SVG/1.1/DTD/svg11.dtd">
<!-- Generated by graphviz version 2.43.0 (0)
 -->
<!-- Title: Acts::MaterialMapper::Options Pages: 1 -->
<svg width="976pt" height="131pt"
 viewBox="0.00 0.00 976.00 131.00" xmlns="http://www.w3.org/2000/svg" xmlns:xlink="http://www.w3.org/1999/xlink">
<g id="graph0" class="graph" transform="scale(1 1) rotate(0) translate(4 127)">
<title>Acts::MaterialMapper::Options</title>
<!-- Node1 -->
<g id="Node000001" class="node">
<title>Node1</title>
<g id="a_Node000001"><a xlink:title="nested options struct holds some options for the delegated calls">
<polygon fill="#999999" stroke="#666666" points="968,-78 847,-78 847,-48 968,-48 968,-78"/>
<text text-anchor="start" x="855" y="-66" font-family="Helvetica,sans-Serif" font-size="10.00">Acts::MaterialMapper</text>
<text text-anchor="middle" x="907.5" y="-55" font-family="Helvetica,sans-Serif" font-size="10.00">::Options</text>
</a>
</g>
</g>
<!-- Node2 -->
<g id="Node000002" class="node">
<title>Node2</title>
<g id="a_Node000002"><a xlink:href="struct_acts_1_1_material_interaction_assignment_1_1_options.html" target="_top" xlink:title="Options for the material interaction matcher The options are used to specify the vetos for the assign...">
<polygon fill="white" stroke="#666666" points="710,-78 573,-78 573,-48 710,-48 710,-78"/>
<text text-anchor="start" x="581" y="-66" font-family="Helvetica,sans-Serif" font-size="10.00">Acts::MaterialInteraction</text>
<text text-anchor="middle" x="641.5" y="-55" font-family="Helvetica,sans-Serif" font-size="10.00">Assignment::Options</text>
</a>
</g>
</g>
<!-- Node2&#45;&gt;Node1 -->
<g id="edge1_Node000001_Node000002" class="edge">
<title>Node2&#45;&gt;Node1</title>
<g id="a_edge1_Node000001_Node000002"><a xlink:title=" ">
<path fill="none" stroke="#9a32cd" stroke-dasharray="5,2" d="M720.23,-63C760.63,-63 809.25,-63 846.68,-63"/>
<polygon fill="#9a32cd" stroke="#9a32cd" points="720.14,-59.5 710.14,-63 720.14,-66.5 720.14,-59.5"/>
</a>
</g>
<text text-anchor="start" x="731.5" y="-68.5" font-family="Helvetica,sans-Serif" font-size="10.00" fill="grey">assignmentOptions</text>
</g>
<!-- Node3 -->
<g id="Node000003" class="node">
<title>Node3</title>
<g id="a_Node000003"><a xlink:title=" ">
<polygon fill="white" stroke="#666666" points="449.5,-115.5 305.5,-115.5 305.5,-96.5 449.5,-96.5 449.5,-115.5"/>
<text text-anchor="middle" x="377.5" y="-103.5" font-family="Helvetica,sans-Serif" font-size="10.00">std::vector&lt; GlobalVeto &gt;</text>
</a>
</g>
</g>
<!-- Node3&#45;&gt;Node2 -->
<g id="edge2_Node000002_Node000003" class="edge">
<title>Node3&#45;&gt;Node2</title>
<g id="a_edge2_Node000002_Node000003"><a xlink:title=" ">
<path fill="none" stroke="#9a32cd" stroke-dasharray="5,2" d="M459.58,-96.42C489.64,-92.49 523.96,-87.55 555,-82 561.59,-80.82 568.43,-79.49 575.26,-78.09"/>
<polygon fill="#9a32cd" stroke="#9a32cd" points="459.03,-92.96 449.56,-97.71 459.93,-99.9 459.03,-92.96"/>
</a>
</g>
<text text-anchor="start" x="486.5" y="-98.5" font-family="Helvetica,sans-Serif" font-size="10.00" fill="grey">globalVetos</text>
</g>
<!-- Node4 -->
<g id="Node000004" class="node">
<title>Node4</title>
<g id="a_Node000004"><a xlink:title=" ">
<polygon fill="white" stroke="#666666" points="129,-115.5 32,-115.5 32,-96.5 129,-96.5 129,-115.5"/>
<text text-anchor="middle" x="80.5" y="-103.5" font-family="Helvetica,sans-Serif" font-size="10.00">std::vector&lt; T &gt;</text>
</a>
</g>
</g>
<!-- Node4&#45;&gt;Node3 -->
<g id="edge3_Node000003_Node000004" class="edge">
<title>Node4&#45;&gt;Node3</title>
<g id="a_edge3_Node000003_Node000004"><a xlink:title=" ">
<path fill="none" stroke="orange" stroke-dasharray="5,2" d="M139.36,-106C186.94,-106 254.56,-106 305.42,-106"/>
<polygon fill="orange" stroke="orange" points="139.22,-102.5 129.22,-106 139.22,-109.5 139.22,-102.5"/>
</a>
</g>
<text text-anchor="start" x="191" y="-111.5" font-family="Helvetica,sans-Serif" font-size="10.00" fill="grey">&lt; GlobalVeto &gt;</text>
</g>
<!-- Node5 -->
<g id="Node000005" class="node">
<title>Node5</title>
<g id="a_Node000005"><a xlink:href="class_acts_1_1_geometry_hierarchy_map.html" target="_top" xlink:title=" ">
<polygon fill="white" stroke="#666666" points="458,-78 297,-78 297,-48 458,-48 458,-78"/>
<text text-anchor="start" x="305" y="-66" font-family="Helvetica,sans-Serif" font-size="10.00">Acts::GeometryHierarchyMap</text>
<text text-anchor="middle" x="377.5" y="-55" font-family="Helvetica,sans-Serif" font-size="10.00">&lt; LocalVeto &gt;</text>
</a>
</g>
</g>
<!-- Node5&#45;&gt;Node2 -->
<g id="edge4_Node000002_Node000005" class="edge">
<title>Node5&#45;&gt;Node2</title>
<g id="a_edge4_Node000002_Node000005"><a xlink:title=" ">
<path fill="none" stroke="#9a32cd" stroke-dasharray="5,2" d="M468.18,-63C502.41,-63 540.83,-63 572.7,-63"/>
<polygon fill="#9a32cd" stroke="#9a32cd" points="468.18,-59.5 458.18,-63 468.18,-66.5 468.18,-59.5"/>
</a>
</g>
<text text-anchor="start" x="490.5" y="-68.5" font-family="Helvetica,sans-Serif" font-size="10.00" fill="grey">localVetos</text>
</g>
<!-- Node6 -->
<g id="Node000006" class="node">
<title>Node6</title>
<g id="a_Node000006"><a xlink:href="class_acts_1_1_geometry_hierarchy_map.html" target="_top" xlink:title="Store values mapped into the geometry hierarchy.">
<polygon fill="white" stroke="#666666" points="161,-58 0,-58 0,-28 161,-28 161,-58"/>
<text text-anchor="start" x="8" y="-46" font-family="Helvetica,sans-Serif" font-size="10.00">Acts::GeometryHierarchyMap</text>
<text text-anchor="middle" x="80.5" y="-35" font-family="Helvetica,sans-Serif" font-size="10.00">&lt; value_t &gt;</text>
</a>
</g>
</g>
<!-- Node6&#45;&gt;Node5 -->
<g id="edge5_Node000005_Node000006" class="edge">
<title>Node6&#45;&gt;Node5</title>
<g id="a_edge5_Node000005_Node000006"><a xlink:title=" ">
<path fill="none" stroke="orange" stroke-dasharray="5,2" d="M171.35,-49.09C211.37,-51.8 258.11,-54.97 296.86,-57.6"/>
<polygon fill="orange" stroke="orange" points="171.55,-45.6 161.33,-48.41 171.07,-52.58 171.55,-45.6"/>
</a>
</g>
<text text-anchor="start" x="194" y="-61.5" font-family="Helvetica,sans-Serif" font-size="10.00" fill="grey">&lt; LocalVeto &gt;</text>
</g>
<!-- Node7 -->
<g id="Node000007" class="node">
<title>Node7</title>
<g id="a_Node000007"><a xlink:href="class_acts_1_1_geometry_hierarchy_map.html" target="_top" xlink:title=" ">
<polygon fill="white" stroke="#666666" points="458,-30 297,-30 297,0 458,0 458,-30"/>
<text text-anchor="start" x="305" y="-18" font-family="Helvetica,sans-Serif" font-size="10.00">Acts::GeometryHierarchyMap</text>
<text text-anchor="middle" x="377.5" y="-7" font-family="Helvetica,sans-Serif" font-size="10.00">&lt; ReAssignment &gt;</text>
</a>
</g>
</g>
<!-- Node6&#45;&gt;Node7 -->
<g id="edge7_Node000007_Node000006" class="edge">
<title>Node6&#45;&gt;Node7</title>
<g id="a_edge7_Node000007_Node000006"><a xlink:title=" ">
<path fill="none" stroke="orange" stroke-dasharray="5,2" d="M171.21,-30.84C173.84,-30.55 176.44,-30.27 179,-30 217.65,-25.96 260.66,-22.56 296.65,-20.03"/>
<polygon fill="orange" stroke="orange" points="170.54,-27.4 161,-32.02 171.34,-34.35 170.54,-27.4"/>
</a>
</g>
<text text-anchor="start" x="182" y="-35.5" font-family="Helvetica,sans-Serif" font-size="10.00" fill="grey">&lt; ReAssignment &gt;</text>
</g>
<!-- Node7&#45;&gt;Node2 -->
<g id="edge6_Node000002_Node000007" class="edge">
<title>Node7&#45;&gt;Node2</title>
<g id="a_edge6_Node000002_Node000007"><a xlink:title=" ">
<path fill="none" stroke="#9a32cd" stroke-dasharray="5,2" d="M468.4,-27.17C496.25,-31.37 526.97,-36.43 555,-42 563.84,-43.76 573.15,-45.82 582.24,-47.96"/>
<polygon fill="#9a32cd" stroke="#9a32cd" points="468.68,-23.68 458.28,-25.67 467.65,-30.6 468.68,-23.68"/>
</a>
</g>
<text text-anchor="start" x="479.5" y="-47.5" font-family="Helvetica,sans-Serif" font-size="10.00" fill="grey">reAssignments</text>
</g>
</g>
</svg>
