<?xml version="1.0" encoding="UTF-8" standalone="no"?>
<!DOCTYPE svg PUBLIC "-//W3C//DTD SVG 1.1//EN"
 "http://www.w3.org/Graphics/SVG/1.1/DTD/svg11.dtd">
<!-- Generated by graphviz version 2.43.0 (0)
 -->
<!-- Title: Acts::MaterialInteraction Pages: 1 -->
<svg width="1779pt" height="597pt"
 viewBox="0.00 0.00 1779.00 596.83" xmlns="http://www.w3.org/2000/svg" xmlns:xlink="http://www.w3.org/1999/xlink">
<g id="graph0" class="graph" transform="scale(1 1) rotate(0) translate(4 592.83)">
<title>Acts::MaterialInteraction</title>
<!-- Node1 -->
<g id="Node000001" class="node">
<title>Node1</title>
<g id="a_Node000001"><a xlink:title="The Material interaction struct It records the surface and the passed material This is only necessary...">
<polygon fill="#999999" stroke="#666666" points="1771,-365.33 1634,-365.33 1634,-346.33 1771,-346.33 1771,-365.33"/>
<text text-anchor="middle" x="1702.5" y="-353.33" font-family="Helvetica,sans-Serif" font-size="10.00">Acts::MaterialInteraction</text>
</a>
</g>
</g>
<!-- Node2 -->
<g id="Node000002" class="node">
<title>Node2</title>
<g id="a_Node000002"><a xlink:href="class_acts_1_1_geometry_identifier.html" target="_top" xlink:title="Identifier for geometry nodes within the geometry hierarchy.">
<polygon fill="white" stroke="#666666" points="136,-546.33 0,-546.33 0,-527.33 136,-527.33 136,-546.33"/>
<text text-anchor="middle" x="68" y="-534.33" font-family="Helvetica,sans-Serif" font-size="10.00">Acts::GeometryIdentifier</text>
</a>
</g>
</g>
<!-- Node2&#45;&gt;Node1 -->
<g id="edge1_Node000001_Node000002" class="edge">
<title>Node2&#45;&gt;Node1</title>
<g id="a_edge1_Node000001_Node000002"><a xlink:title=" ">
<path fill="none" stroke="#9a32cd" stroke-dasharray="5,2" d="M119.83,-548.52C168.58,-558.69 244.42,-571.83 311,-571.83 311,-571.83 311,-571.83 1477.5,-571.83 1598.24,-571.83 1678.89,-407.19 1697.42,-365.39"/>
<polygon fill="#9a32cd" stroke="#9a32cd" points="120.36,-545.05 109.85,-546.39 118.9,-551.9 120.36,-545.05"/>
</a>
</g>
<text text-anchor="start" x="789" y="-577.33" font-family="Helvetica,sans-Serif" font-size="10.00" fill="grey">intersectionID</text>
</g>
<!-- Node4 -->
<g id="Node000004" class="node">
<title>Node4</title>
<g id="a_Node000004"><a xlink:href="class_acts_1_1_geometry_object.html" target="_top" xlink:title="Base class to provide GeometryIdentifier interface:">
<polygon fill="white" stroke="#666666" points="374,-281.33 250,-281.33 250,-262.33 374,-262.33 374,-281.33"/>
<text text-anchor="middle" x="312" y="-269.33" font-family="Helvetica,sans-Serif" font-size="10.00">Acts::GeometryObject</text>
</a>
</g>
</g>
<!-- Node2&#45;&gt;Node4 -->
<g id="edge4_Node000004_Node000002" class="edge">
<title>Node2&#45;&gt;Node4</title>
<g id="a_edge4_Node000004_Node000002"><a xlink:title=" ">
<path fill="none" stroke="#9a32cd" stroke-dasharray="5,2" d="M84.81,-519.52C131.3,-468.61 266.57,-320.48 302.27,-281.39"/>
<polygon fill="#9a32cd" stroke="#9a32cd" points="82.06,-517.34 77.9,-527.08 87.23,-522.06 82.06,-517.34"/>
</a>
</g>
<text text-anchor="start" x="157" y="-448.33" font-family="Helvetica,sans-Serif" font-size="10.00" fill="grey">m_geometryId</text>
</g>
<!-- Node3 -->
<g id="Node000003" class="node">
<title>Node3</title>
<g id="a_Node000003"><a xlink:href="class_acts_1_1_surface.html" target="_top" xlink:title="Abstract Base Class for tracking surfaces.">
<polygon fill="white" stroke="#666666" points="1516.5,-250.33 1436.5,-250.33 1436.5,-231.33 1516.5,-231.33 1516.5,-250.33"/>
<text text-anchor="middle" x="1476.5" y="-238.33" font-family="Helvetica,sans-Serif" font-size="10.00">Acts::Surface</text>
</a>
</g>
</g>
<!-- Node3&#45;&gt;Node1 -->
<g id="edge2_Node000001_Node000003" class="edge">
<title>Node3&#45;&gt;Node1</title>
<g id="a_edge2_Node000001_Node000003"><a xlink:title=" ">
<path fill="none" stroke="#9a32cd" stroke-dasharray="5,2" d="M1505.37,-255.14C1551.67,-278.91 1643.23,-325.91 1682.68,-346.17"/>
<polygon fill="#9a32cd" stroke="#9a32cd" points="1506.71,-251.89 1496.21,-250.44 1503.51,-258.12 1506.71,-251.89"/>
</a>
</g>
<text text-anchor="start" x="1563.5" y="-313.33" font-family="Helvetica,sans-Serif" font-size="10.00" fill="grey">surface</text>
</g>
<!-- Node4&#45;&gt;Node3 -->
<g id="edge3_Node000003_Node000004" class="edge">
<title>Node4&#45;&gt;Node3</title>
<g id="a_edge3_Node000003_Node000004"><a xlink:title=" ">
<path fill="none" stroke="#63b8ff" d="M317.63,-252.1C331.11,-200.21 375.43,-63.83 469,-63.83 469,-63.83 469,-63.83 1179.5,-63.83 1282.4,-63.83 1334.95,-37.39 1406,-111.83 1440.2,-147.67 1392.48,-183.62 1424,-221.83 1427.34,-225.87 1431.61,-229.06 1436.28,-231.56"/>
<polygon fill="#63b8ff" stroke="#63b8ff" points="314.17,-251.53 315.16,-262.08 320.96,-253.22 314.17,-251.53"/>
</a>
</g>
</g>
<!-- Node11 -->
<g id="Node000011" class="node">
<title>Node11</title>
<g id="a_Node000011"><a xlink:href="class_acts_1_1_layer.html" target="_top" xlink:title="Base Class for a Detector Layer in the Tracking Geometry.">
<polygon fill="white" stroke="#666666" points="1214,-338.33 1143,-338.33 1143,-319.33 1214,-319.33 1214,-338.33"/>
<text text-anchor="middle" x="1178.5" y="-326.33" font-family="Helvetica,sans-Serif" font-size="10.00">Acts::Layer</text>
</a>
</g>
</g>
<!-- Node4&#45;&gt;Node11 -->
<g id="edge12_Node000011_Node000004" class="edge">
<title>Node4&#45;&gt;Node11</title>
<g id="a_edge12_Node000011_Node000004"><a xlink:title=" ">
<path fill="none" stroke="#63b8ff" d="M348.11,-258.85C393.35,-242.88 474.76,-216.68 547,-206.83 626.71,-195.97 647.79,-200.67 728,-206.83 807.81,-212.96 1015.35,-220.65 1084,-261.83 1095.43,-268.69 1092,-277.01 1102,-285.83 1118.07,-299.99 1139.54,-311.68 1155.48,-319.27"/>
<polygon fill="#63b8ff" stroke="#63b8ff" points="346.73,-255.63 338.49,-262.28 349.08,-262.22 346.73,-255.63"/>
</a>
</g>
</g>
<!-- Node18 -->
<g id="Node000018" class="node">
<title>Node18</title>
<g id="a_Node000018"><a xlink:href="class_acts_1_1_volume.html" target="_top" xlink:title="It inherits from GeometryObject for geometry identification.">
<polygon fill="white" stroke="#666666" points="510,-504.33 430,-504.33 430,-485.33 510,-485.33 510,-504.33"/>
<text text-anchor="middle" x="470" y="-492.33" font-family="Helvetica,sans-Serif" font-size="10.00">Acts::Volume</text>
</a>
</g>
</g>
<!-- Node4&#45;&gt;Node18 -->
<g id="edge22_Node000018_Node000004" class="edge">
<title>Node4&#45;&gt;Node18</title>
<g id="a_edge22_Node000018_Node000004"><a xlink:title=" ">
<path fill="none" stroke="#63b8ff" d="M317.68,-291.48C327.97,-330.73 356.14,-419.44 411,-470.83 417.6,-477.01 426.02,-481.71 434.38,-485.23"/>
<polygon fill="#63b8ff" stroke="#63b8ff" points="321.02,-290.44 315.19,-281.59 314.23,-292.14 321.02,-290.44"/>
</a>
</g>
</g>
<!-- Node5 -->
<g id="Node000005" class="node">
<title>Node5</title>
<g id="a_Node000005"><a xlink:title=" ">
<polygon fill="white" stroke="#666666" points="1242.5,-181.83 1114.5,-181.83 1114.5,-151.83 1242.5,-151.83 1242.5,-181.83"/>
<text text-anchor="start" x="1122.5" y="-169.83" font-family="Helvetica,sans-Serif" font-size="10.00">std::enable_shared</text>
<text text-anchor="middle" x="1178.5" y="-158.83" font-family="Helvetica,sans-Serif" font-size="10.00">_from_this&lt; Surface &gt;</text>
</a>
</g>
</g>
<!-- Node5&#45;&gt;Node3 -->
<g id="edge5_Node000003_Node000005" class="edge">
<title>Node5&#45;&gt;Node3</title>
<g id="a_edge5_Node000003_Node000005"><a xlink:title=" ">
<path fill="none" stroke="#63b8ff" d="M1252.6,-182.7C1297.12,-192.67 1355.04,-206.19 1406,-219.83 1419.03,-223.32 1433.31,-227.56 1445.52,-231.32"/>
<polygon fill="#63b8ff" stroke="#63b8ff" points="1253.26,-179.26 1242.74,-180.5 1251.74,-186.09 1253.26,-179.26"/>
</a>
</g>
</g>
<!-- Node6 -->
<g id="Node000006" class="node">
<title>Node6</title>
<g id="a_Node000006"><a xlink:title=" ">
<polygon fill="white" stroke="#666666" points="1255,-133.33 1102,-133.33 1102,-92.33 1255,-92.33 1255,-133.33"/>
<text text-anchor="start" x="1110" y="-121.33" font-family="Helvetica,sans-Serif" font-size="10.00">std::array&lt; std::string</text>
<text text-anchor="start" x="1110" y="-110.33" font-family="Helvetica,sans-Serif" font-size="10.00">_view, Surface::SurfaceType</text>
<text text-anchor="middle" x="1178.5" y="-99.33" font-family="Helvetica,sans-Serif" font-size="10.00">::Other+1 &gt;</text>
</a>
</g>
</g>
<!-- Node6&#45;&gt;Node3 -->
<g id="edge6_Node000003_Node000006" class="edge">
<title>Node6&#45;&gt;Node3</title>
<g id="a_edge6_Node000003_Node000006"><a xlink:title=" ">
<path fill="none" stroke="#9a32cd" stroke-dasharray="5,2" d="M1265.33,-114.16C1312.19,-119.25 1368.19,-133.06 1406,-167.83 1424.62,-184.96 1406.4,-203.66 1424,-221.83 1427.78,-225.73 1432.43,-228.84 1437.37,-231.31"/>
<polygon fill="#9a32cd" stroke="#9a32cd" points="1265.47,-110.66 1255.18,-113.17 1264.79,-117.62 1265.47,-110.66"/>
</a>
</g>
<text text-anchor="start" x="1287.5" y="-173.33" font-family="Helvetica,sans-Serif" font-size="10.00" fill="grey">s_surfaceTypeNames</text>
</g>
<!-- Node7 -->
<g id="Node000007" class="node">
<title>Node7</title>
<g id="a_Node000007"><a xlink:title=" ">
<polygon fill="white" stroke="#666666" points="869,-111.33 777,-111.33 777,-92.33 869,-92.33 869,-111.33"/>
<text text-anchor="middle" x="823" y="-99.33" font-family="Helvetica,sans-Serif" font-size="10.00">std::array&lt; T &gt;</text>
</a>
</g>
</g>
<!-- Node7&#45;&gt;Node6 -->
<g id="edge7_Node000006_Node000007" class="edge">
<title>Node7&#45;&gt;Node6</title>
<g id="a_edge7_Node000006_Node000007"><a xlink:title=" ">
<path fill="none" stroke="orange" stroke-dasharray="5,2" d="M879.3,-98.95C931.98,-96.79 1013.5,-94.95 1084,-99.83 1089.8,-100.23 1095.8,-100.77 1101.81,-101.4"/>
<polygon fill="orange" stroke="orange" points="879,-95.46 869.16,-99.39 879.3,-102.45 879,-95.46"/>
</a>
</g>
<text text-anchor="start" x="945" y="-135.33" font-family="Helvetica,sans-Serif" font-size="10.00" fill="grey">&lt; std::string_view,</text>
<text text-anchor="start" x="945" y="-120.33" font-family="Helvetica,sans-Serif" font-size="10.00" fill="grey">   Surface::SurfaceType</text>
<text text-anchor="start" x="945" y="-105.33" font-family="Helvetica,sans-Serif" font-size="10.00" fill="grey">  ::Other+1 &gt;</text>
</g>
<!-- Node8 -->
<g id="Node000008" class="node">
<title>Node8</title>
<g id="a_Node000008"><a xlink:title=" ">
<polygon fill="white" stroke="#666666" points="1064.5,-220.83 937.5,-220.83 937.5,-190.83 1064.5,-190.83 1064.5,-220.83"/>
<text text-anchor="start" x="945.5" y="-208.83" font-family="Helvetica,sans-Serif" font-size="10.00">std::unique_ptr&lt; const</text>
<text text-anchor="middle" x="1001" y="-197.83" font-family="Helvetica,sans-Serif" font-size="10.00"> Transform3 &gt;</text>
</a>
</g>
</g>
<!-- Node8&#45;&gt;Node3 -->
<g id="edge8_Node000003_Node000008" class="edge">
<title>Node8&#45;&gt;Node3</title>
<g id="a_edge8_Node000003_Node000008"><a xlink:title=" ">
<path fill="none" stroke="#9a32cd" stroke-dasharray="5,2" d="M1074.29,-220.69C1077.62,-221.96 1080.87,-223.34 1084,-224.83 1093.15,-229.19 1092.55,-235.18 1102,-238.83 1216.78,-283.15 1366.61,-262.87 1436.47,-249.4"/>
<polygon fill="#9a32cd" stroke="#9a32cd" points="1075.35,-217.35 1064.76,-217.38 1073.05,-223.97 1075.35,-217.35"/>
</a>
</g>
<text text-anchor="start" x="1146.5" y="-270.33" font-family="Helvetica,sans-Serif" font-size="10.00" fill="grey">m_transform</text>
</g>
<!-- Node9 -->
<g id="Node000009" class="node">
<title>Node9</title>
<g id="a_Node000009"><a xlink:title=" ">
<polygon fill="white" stroke="#666666" points="529,-303.33 411,-303.33 411,-284.33 529,-284.33 529,-303.33"/>
<text text-anchor="middle" x="470" y="-291.33" font-family="Helvetica,sans-Serif" font-size="10.00">std::unique_ptr&lt; T &gt;</text>
</a>
</g>
</g>
<!-- Node9&#45;&gt;Node8 -->
<g id="edge9_Node000008_Node000009" class="edge">
<title>Node9&#45;&gt;Node8</title>
<g id="a_edge9_Node000008_Node000009"><a xlink:title=" ">
<path fill="none" stroke="orange" stroke-dasharray="5,2" d="M490.74,-278.04C505.37,-267.27 526.28,-253.74 547,-246.83 680.71,-202.21 848.2,-199.88 937.35,-202.56"/>
<polygon fill="orange" stroke="orange" points="488.34,-275.47 482.5,-284.31 492.58,-281.04 488.34,-275.47"/>
</a>
</g>
<text text-anchor="start" x="584.5" y="-252.33" font-family="Helvetica,sans-Serif" font-size="10.00" fill="grey">&lt; const Transform3 &gt;</text>
</g>
<!-- Node15 -->
<g id="Node000015" class="node">
<title>Node15</title>
<g id="a_Node000015"><a xlink:title=" ">
<polygon fill="white" stroke="#666666" points="886.5,-332.83 759.5,-332.83 759.5,-302.83 886.5,-302.83 886.5,-332.83"/>
<text text-anchor="start" x="767.5" y="-320.83" font-family="Helvetica,sans-Serif" font-size="10.00">std::unique_ptr&lt; const</text>
<text text-anchor="middle" x="823" y="-309.83" font-family="Helvetica,sans-Serif" font-size="10.00"> Acts::SurfaceArray &gt;</text>
</a>
</g>
</g>
<!-- Node9&#45;&gt;Node15 -->
<g id="edge17_Node000015_Node000009" class="edge">
<title>Node9&#45;&gt;Node15</title>
<g id="a_edge17_Node000015_Node000009"><a xlink:title=" ">
<path fill="none" stroke="orange" stroke-dasharray="5,2" d="M539.71,-298.53C603.48,-302.89 697.61,-309.32 759.36,-313.55"/>
<polygon fill="orange" stroke="orange" points="539.57,-295.01 529.35,-297.82 539.09,-301.99 539.57,-295.01"/>
</a>
</g>
<text text-anchor="start" x="566.5" y="-316.33" font-family="Helvetica,sans-Serif" font-size="10.00" fill="grey">&lt; const Acts::SurfaceArray &gt;</text>
</g>
<!-- Node16 -->
<g id="Node000016" class="node">
<title>Node16</title>
<g id="a_Node000016"><a xlink:title=" ">
<polygon fill="white" stroke="#666666" points="900,-284.83 746,-284.83 746,-254.83 900,-254.83 900,-284.83"/>
<text text-anchor="start" x="754" y="-272.83" font-family="Helvetica,sans-Serif" font-size="10.00">std::unique_ptr&lt; const</text>
<text text-anchor="middle" x="823" y="-261.83" font-family="Helvetica,sans-Serif" font-size="10.00"> Acts::ApproachDescriptor &gt;</text>
</a>
</g>
</g>
<!-- Node9&#45;&gt;Node16 -->
<g id="edge19_Node000016_Node000009" class="edge">
<title>Node9&#45;&gt;Node16</title>
<g id="a_edge19_Node000016_Node000009"><a xlink:title=" ">
<path fill="none" stroke="orange" stroke-dasharray="5,2" d="M519.8,-282.22C528.8,-280.46 538.15,-278.88 547,-277.83 613.88,-269.88 690.51,-268.26 745.86,-268.41"/>
<polygon fill="orange" stroke="orange" points="518.92,-278.82 509.83,-284.26 520.33,-285.68 518.92,-278.82"/>
</a>
</g>
<text text-anchor="start" x="550.5" y="-283.33" font-family="Helvetica,sans-Serif" font-size="10.00" fill="grey">&lt; const Acts::ApproachDescriptor &gt;</text>
</g>
<!-- Node19 -->
<g id="Node000019" class="node">
<title>Node19</title>
<g id="a_Node000019"><a xlink:title=" ">
<polygon fill="white" stroke="#666666" points="884,-418.83 762,-418.83 762,-388.83 884,-388.83 884,-418.83"/>
<text text-anchor="start" x="770" y="-406.83" font-family="Helvetica,sans-Serif" font-size="10.00">std::unique_ptr&lt; Acts</text>
<text text-anchor="middle" x="823" y="-395.83" font-family="Helvetica,sans-Serif" font-size="10.00">::Volume &gt;</text>
</a>
</g>
</g>
<!-- Node9&#45;&gt;Node19 -->
<g id="edge24_Node000019_Node000009" class="edge">
<title>Node9&#45;&gt;Node19</title>
<g id="a_edge24_Node000019_Node000009"><a xlink:title=" ">
<path fill="none" stroke="orange" stroke-dasharray="5,2" d="M496.6,-308.3C511.07,-316.05 529.67,-325.31 547,-331.83 619.06,-358.94 705.41,-379.75 761.88,-391.87"/>
<polygon fill="orange" stroke="orange" points="498.2,-305.19 487.75,-303.47 494.85,-311.34 498.2,-305.19"/>
</a>
</g>
<text text-anchor="start" x="594.5" y="-388.33" font-family="Helvetica,sans-Serif" font-size="10.00" fill="grey">&lt; Acts::Volume &gt;</text>
</g>
<!-- Node10 -->
<g id="Node000010" class="node">
<title>Node10</title>
<g id="a_Node000010"><a xlink:href="class_acts_1_1_detector_element_base.html" target="_top" xlink:title="This class is the base of all detector elements that are usable by ACTS.">
<polygon fill="white" stroke="#666666" points="1253.5,-35.33 1103.5,-35.33 1103.5,-16.33 1253.5,-16.33 1253.5,-35.33"/>
<text text-anchor="middle" x="1178.5" y="-23.33" font-family="Helvetica,sans-Serif" font-size="10.00">Acts::DetectorElementBase</text>
</a>
</g>
</g>
<!-- Node10&#45;&gt;Node3 -->
<g id="edge10_Node000003_Node000010" class="edge">
<title>Node10&#45;&gt;Node3</title>
<g id="a_edge10_Node000003_Node000010"><a xlink:title=" ">
<path fill="none" stroke="#9a32cd" stroke-dasharray="5,2" d="M1217.74,-13.44C1267.96,0.18 1355.66,14.38 1406,-32.83 1436.77,-61.69 1398.26,-188.4 1424,-221.83 1427.26,-226.06 1431.55,-229.35 1436.28,-231.9"/>
<polygon fill="#9a32cd" stroke="#9a32cd" points="1216.58,-10.13 1207.92,-16.23 1218.49,-16.86 1216.58,-10.13"/>
</a>
</g>
<text text-anchor="start" x="1276.5" y="-38.33" font-family="Helvetica,sans-Serif" font-size="10.00" fill="grey">m_associatedDetElement</text>
</g>
<!-- Node11&#45;&gt;Node3 -->
<g id="edge11_Node000003_Node000011" class="edge">
<title>Node11&#45;&gt;Node3</title>
<g id="a_edge11_Node000003_Node000011"><a xlink:title=" ">
<path fill="none" stroke="#9a32cd" stroke-dasharray="5,2" d="M1224.24,-323.17C1270.75,-316.37 1345.14,-302.89 1406,-279.83 1426.31,-272.13 1447.85,-259.21 1461.47,-250.36"/>
<polygon fill="#9a32cd" stroke="#9a32cd" points="1223.59,-319.73 1214.18,-324.6 1224.57,-326.66 1223.59,-319.73"/>
</a>
</g>
<text text-anchor="start" x="1292.5" y="-320.33" font-family="Helvetica,sans-Serif" font-size="10.00" fill="grey">m_associatedLayer</text>
</g>
<!-- Node12 -->
<g id="Node000012" class="node">
<title>Node12</title>
<g id="a_Node000012"><a xlink:title=" ">
<polygon fill="white" stroke="#666666" points="885,-466.83 761,-466.83 761,-436.83 885,-436.83 885,-466.83"/>
<text text-anchor="start" x="769" y="-454.83" font-family="Helvetica,sans-Serif" font-size="10.00">std::pair&lt; const Layer</text>
<text text-anchor="middle" x="823" y="-443.83" font-family="Helvetica,sans-Serif" font-size="10.00"> *, const Layer * &gt;</text>
</a>
</g>
</g>
<!-- Node12&#45;&gt;Node11 -->
<g id="edge13_Node000011_Node000012" class="edge">
<title>Node12&#45;&gt;Node11</title>
<g id="a_edge13_Node000011_Node000012"><a xlink:title=" ">
<path fill="none" stroke="#9a32cd" stroke-dasharray="5,2" d="M894.48,-434.6C902.39,-432.88 910.35,-431.25 918,-429.83 991.23,-416.22 1015.88,-436.96 1084,-406.83 1120.73,-390.58 1154.44,-355.49 1169.38,-338.47"/>
<polygon fill="#9a32cd" stroke="#9a32cd" points="893.51,-431.22 884.51,-436.8 895.03,-438.06 893.51,-431.22"/>
</a>
</g>
<text text-anchor="start" x="966" y="-435.33" font-family="Helvetica,sans-Serif" font-size="10.00" fill="grey">m_nextLayers</text>
</g>
<!-- Node13 -->
<g id="Node000013" class="node">
<title>Node13</title>
<g id="a_Node000013"><a xlink:title=" ">
<polygon fill="white" stroke="#666666" points="524.5,-461.33 415.5,-461.33 415.5,-442.33 524.5,-442.33 524.5,-461.33"/>
<text text-anchor="middle" x="470" y="-449.33" font-family="Helvetica,sans-Serif" font-size="10.00">std::pair&lt; T1, T2 &gt;</text>
</a>
</g>
</g>
<!-- Node13&#45;&gt;Node12 -->
<g id="edge14_Node000012_Node000013" class="edge">
<title>Node13&#45;&gt;Node12</title>
<g id="a_edge14_Node000012_Node000013"><a xlink:title=" ">
<path fill="none" stroke="orange" stroke-dasharray="5,2" d="M534.71,-451.83C599,-451.83 697.6,-451.83 760.94,-451.83"/>
<polygon fill="orange" stroke="orange" points="534.69,-448.33 524.69,-451.83 534.69,-455.33 534.69,-448.33"/>
</a>
</g>
<text text-anchor="start" x="583.5" y="-472.83" font-family="Helvetica,sans-Serif" font-size="10.00" fill="grey">&lt; const Layer *, const</text>
<text text-anchor="start" x="583.5" y="-457.83" font-family="Helvetica,sans-Serif" font-size="10.00" fill="grey">   Layer * &gt;</text>
</g>
<!-- Node14 -->
<g id="Node000014" class="node">
<title>Node14</title>
<g id="a_Node000014"><a xlink:href="class_acts_1_1_bin_utility.html" target="_top" xlink:title="The BinUtility class that translated global and local position into a bins of a BinnedArray,...">
<polygon fill="white" stroke="#666666" points="867.5,-370.33 778.5,-370.33 778.5,-351.33 867.5,-351.33 867.5,-370.33"/>
<text text-anchor="middle" x="823" y="-358.33" font-family="Helvetica,sans-Serif" font-size="10.00">Acts::BinUtility</text>
</a>
</g>
</g>
<!-- Node14&#45;&gt;Node11 -->
<g id="edge15_Node000011_Node000014" class="edge">
<title>Node14&#45;&gt;Node11</title>
<g id="a_edge15_Node000011_Node000014"><a xlink:title=" ">
<path fill="none" stroke="#9a32cd" stroke-dasharray="5,2" d="M878.19,-354.15C891.22,-352.64 905.1,-351.11 918,-349.83 998.29,-341.89 1092.78,-334.81 1142.63,-331.25"/>
<polygon fill="#9a32cd" stroke="#9a32cd" points="877.48,-350.71 867.96,-355.36 878.3,-357.67 877.48,-350.71"/>
</a>
</g>
<text text-anchor="start" x="954" y="-355.33" font-family="Helvetica,sans-Serif" font-size="10.00" fill="grey">m_nextLayerUtility</text>
</g>
<!-- Node15&#45;&gt;Node11 -->
<g id="edge16_Node000011_Node000015" class="edge">
<title>Node15&#45;&gt;Node11</title>
<g id="a_edge16_Node000011_Node000015"><a xlink:title=" ">
<path fill="none" stroke="#9a32cd" stroke-dasharray="5,2" d="M896.85,-310.51C949.07,-306.5 1021.02,-303.5 1084,-309.83 1103.61,-311.8 1125.2,-316.05 1142.68,-320.02"/>
<polygon fill="#9a32cd" stroke="#9a32cd" points="896.37,-307.03 886.68,-311.32 896.92,-314.01 896.37,-307.03"/>
</a>
</g>
<text text-anchor="start" x="962" y="-315.33" font-family="Helvetica,sans-Serif" font-size="10.00" fill="grey">m_surfaceArray</text>
</g>
<!-- Node16&#45;&gt;Node11 -->
<g id="edge18_Node000011_Node000016" class="edge">
<title>Node16&#45;&gt;Node11</title>
<g id="a_edge18_Node000011_Node000016"><a xlink:title=" ">
<path fill="none" stroke="#9a32cd" stroke-dasharray="5,2" d="M910.29,-266.64C961.51,-266.75 1027.3,-270.43 1084,-284.83 1113.04,-292.21 1143.98,-308.68 1161.98,-319.25"/>
<polygon fill="#9a32cd" stroke="#9a32cd" points="910.24,-263.14 900.25,-266.66 910.26,-270.14 910.24,-263.14"/>
</a>
</g>
<text text-anchor="start" x="946" y="-290.33" font-family="Helvetica,sans-Serif" font-size="10.00" fill="grey">m_approachDescriptor</text>
</g>
<!-- Node17 -->
<g id="Node000017" class="node">
<title>Node17</title>
<g id="a_Node000017"><a xlink:href="class_acts_1_1_tracking_volume.html" target="_top" xlink:title="Full Volume description used in Tracking, it inherits from Volume to get the geometrical structure.">
<polygon fill="white" stroke="#666666" points="883.5,-510.33 762.5,-510.33 762.5,-491.33 883.5,-491.33 883.5,-510.33"/>
<text text-anchor="middle" x="823" y="-498.33" font-family="Helvetica,sans-Serif" font-size="10.00">Acts::TrackingVolume</text>
</a>
</g>
</g>
<!-- Node17&#45;&gt;Node3 -->
<g id="edge25_Node000003_Node000017" class="edge">
<title>Node17&#45;&gt;Node3</title>
<g id="a_edge25_Node000003_Node000017"><a xlink:title=" ">
<path fill="none" stroke="#9a32cd" stroke-dasharray="5,2" d="M893.86,-504.25C946.83,-505.13 1021.01,-502.66 1084,-486.83 1237.3,-448.32 1283.98,-436.3 1406,-335.83 1436.61,-310.63 1460.74,-269.07 1470.63,-250.41"/>
<polygon fill="#9a32cd" stroke="#9a32cd" points="893.63,-500.74 883.56,-504.03 893.49,-507.74 893.63,-500.74"/>
</a>
</g>
<text text-anchor="start" x="1106.5" y="-487.33" font-family="Helvetica,sans-Serif" font-size="10.00" fill="grey">m_associatedTrackingVolume</text>
</g>
<!-- Node17&#45;&gt;Node11 -->
<g id="edge20_Node000011_Node000017" class="edge">
<title>Node17&#45;&gt;Node11</title>
<g id="a_edge20_Node000011_Node000017"><a xlink:title=" ">
<path fill="none" stroke="#9a32cd" stroke-dasharray="5,2" d="M862.9,-488.07C874.81,-484.15 887.95,-479.82 900,-475.83 908.01,-473.18 909.79,-471.75 918,-469.83 990.53,-452.87 1019.33,-483.79 1084,-446.83 1130.07,-420.5 1161.87,-361.73 1173.06,-338.52"/>
<polygon fill="#9a32cd" stroke="#9a32cd" points="861.65,-484.79 853.24,-491.24 863.83,-491.44 861.65,-484.79"/>
</a>
</g>
<text text-anchor="start" x="955" y="-475.33" font-family="Helvetica,sans-Serif" font-size="10.00" fill="grey">m_trackingVolume</text>
</g>
<!-- Node22 -->
<g id="Node000022" class="node">
<title>Node22</title>
<g id="a_Node000022"><a xlink:href="struct_acts_1_1_interaction_volume.html" target="_top" xlink:title="The Material interaction volume struct.">
<polygon fill="white" stroke="#666666" points="1406,-533.33 1273,-533.33 1273,-514.33 1406,-514.33 1406,-533.33"/>
<text text-anchor="middle" x="1339.5" y="-521.33" font-family="Helvetica,sans-Serif" font-size="10.00">Acts::InteractionVolume</text>
</a>
</g>
</g>
<!-- Node17&#45;&gt;Node22 -->
<g id="edge29_Node000022_Node000017" class="edge">
<title>Node17&#45;&gt;Node22</title>
<g id="a_edge29_Node000022_Node000017"><a xlink:title=" ">
<path fill="none" stroke="#9a32cd" stroke-dasharray="5,2" d="M893.57,-509.67C901.8,-510.5 910.08,-511.25 918,-511.83 1043.29,-520.93 1190.04,-523.22 1272.86,-523.74"/>
<polygon fill="#9a32cd" stroke="#9a32cd" points="893.91,-506.18 883.6,-508.6 893.17,-513.14 893.91,-506.18"/>
</a>
</g>
<text text-anchor="start" x="963" y="-525.33" font-family="Helvetica,sans-Serif" font-size="10.00" fill="grey">trackingVolume</text>
</g>
<!-- Node18&#45;&gt;Node17 -->
<g id="edge21_Node000017_Node000018" class="edge">
<title>Node18&#45;&gt;Node17</title>
<g id="a_edge21_Node000017_Node000018"><a xlink:title=" ">
<path fill="none" stroke="#63b8ff" d="M520.4,-495.67C583.91,-496.76 694.11,-498.64 762.26,-499.81"/>
<polygon fill="#63b8ff" stroke="#63b8ff" points="520.3,-492.17 510.24,-495.5 520.18,-499.17 520.3,-492.17"/>
</a>
</g>
</g>
<!-- Node19&#45;&gt;Node11 -->
<g id="edge23_Node000011_Node000019" class="edge">
<title>Node19&#45;&gt;Node11</title>
<g id="a_edge23_Node000011_Node000019"><a xlink:title=" ">
<path fill="none" stroke="#9a32cd" stroke-dasharray="5,2" d="M894.25,-393.29C902.26,-392.11 910.31,-390.94 918,-389.83 991.72,-379.23 1012.06,-386.11 1084,-366.83 1110.4,-359.75 1139.35,-347.19 1157.93,-338.46"/>
<polygon fill="#9a32cd" stroke="#9a32cd" points="893.54,-389.85 884.16,-394.78 894.57,-396.78 893.54,-389.85"/>
</a>
</g>
<text text-anchor="start" x="944" y="-395.33" font-family="Helvetica,sans-Serif" font-size="10.00" fill="grey">m_representingVolume</text>
</g>
<!-- Node20 -->
<g id="Node000020" class="node">
<title>Node20</title>
<g id="a_Node000020"><a xlink:title=" ">
<polygon fill="white" stroke="#666666" points="1247.5,-229.83 1109.5,-229.83 1109.5,-199.83 1247.5,-199.83 1247.5,-229.83"/>
<text text-anchor="start" x="1117.5" y="-217.83" font-family="Helvetica,sans-Serif" font-size="10.00">std::shared_ptr&lt; const</text>
<text text-anchor="middle" x="1178.5" y="-206.83" font-family="Helvetica,sans-Serif" font-size="10.00"> Acts::ISurfaceMaterial &gt;</text>
</a>
</g>
</g>
<!-- Node20&#45;&gt;Node3 -->
<g id="edge26_Node000003_Node000020" class="edge">
<title>Node20&#45;&gt;Node3</title>
<g id="a_edge26_Node000003_Node000020"><a xlink:title=" ">
<path fill="none" stroke="#9a32cd" stroke-dasharray="5,2" d="M1257.92,-221.72C1315.35,-226.76 1390.88,-233.4 1436.17,-237.38"/>
<polygon fill="#9a32cd" stroke="#9a32cd" points="1258.05,-218.22 1247.78,-220.83 1257.44,-225.19 1258.05,-218.22"/>
</a>
</g>
<text text-anchor="start" x="1293.5" y="-240.33" font-family="Helvetica,sans-Serif" font-size="10.00" fill="grey">m_surfaceMaterial</text>
</g>
<!-- Node21 -->
<g id="Node000021" class="node">
<title>Node21</title>
<g id="a_Node000021"><a xlink:title=" ">
<polygon fill="white" stroke="#666666" points="882,-160.33 764,-160.33 764,-141.33 882,-141.33 882,-160.33"/>
<text text-anchor="middle" x="823" y="-148.33" font-family="Helvetica,sans-Serif" font-size="10.00">std::shared_ptr&lt; T &gt;</text>
</a>
</g>
</g>
<!-- Node21&#45;&gt;Node20 -->
<g id="edge27_Node000020_Node000021" class="edge">
<title>Node21&#45;&gt;Node20</title>
<g id="a_edge27_Node000020_Node000021"><a xlink:title=" ">
<path fill="none" stroke="orange" stroke-dasharray="5,2" d="M892.43,-147.83C958.27,-146.13 1052.35,-147.15 1084,-164.83 1096.27,-171.69 1090.7,-182.48 1102,-190.83 1106.65,-194.26 1111.8,-197.22 1117.17,-199.75"/>
<polygon fill="orange" stroke="orange" points="892.02,-144.34 882.12,-148.13 892.22,-151.34 892.02,-144.34"/>
</a>
</g>
<text text-anchor="start" x="921" y="-170.33" font-family="Helvetica,sans-Serif" font-size="10.00" fill="grey">&lt; const Acts::ISurfaceMaterial &gt;</text>
</g>
<!-- Node22&#45;&gt;Node1 -->
<g id="edge28_Node000001_Node000022" class="edge">
<title>Node22&#45;&gt;Node1</title>
<g id="a_edge28_Node000001_Node000022"><a xlink:title=" ">
<path fill="none" stroke="#9a32cd" stroke-dasharray="5,2" d="M1383.08,-511.21C1390.79,-508.64 1398.69,-505.8 1406,-502.83 1515.35,-458.4 1640.06,-390.29 1684.6,-365.38"/>
<polygon fill="#9a32cd" stroke="#9a32cd" points="1381.93,-507.91 1373.5,-514.32 1384.09,-514.57 1381.93,-507.91"/>
</a>
</g>
<text text-anchor="start" x="1458.5" y="-498.33" font-family="Helvetica,sans-Serif" font-size="10.00" fill="grey">volume</text>
</g>
<!-- Node23 -->
<g id="Node000023" class="node">
<title>Node23</title>
<g id="a_Node000023"><a xlink:href="class_acts_1_1_material_slab.html" target="_top" xlink:title="Material description for an object with defined thickness.">
<polygon fill="white" stroke="#666666" points="1529,-213.33 1424,-213.33 1424,-194.33 1529,-194.33 1529,-213.33"/>
<text text-anchor="middle" x="1476.5" y="-201.33" font-family="Helvetica,sans-Serif" font-size="10.00">Acts::MaterialSlab</text>
</a>
</g>
</g>
<!-- Node23&#45;&gt;Node1 -->
<g id="edge30_Node000001_Node000023" class="edge">
<title>Node23&#45;&gt;Node1</title>
<g id="a_edge30_Node000001_Node000023"><a xlink:title=" ">
<path fill="none" stroke="#9a32cd" stroke-dasharray="5,2" d="M1527.65,-216.27C1555.39,-224.74 1589.51,-237.9 1616,-256.83 1652.22,-282.71 1683.09,-326.99 1695.58,-346.33"/>
<polygon fill="#9a32cd" stroke="#9a32cd" points="1528.32,-212.82 1517.74,-213.35 1526.35,-219.53 1528.32,-212.82"/>
</a>
</g>
<text text-anchor="start" x="1550.5" y="-262.33" font-family="Helvetica,sans-Serif" font-size="10.00" fill="grey">materialSlab</text>
</g>
</g>
</svg>
