<?xml version="1.0" encoding="UTF-8" standalone="no"?>
<!DOCTYPE svg PUBLIC "-//W3C//DTD SVG 1.1//EN"
 "http://www.w3.org/Graphics/SVG/1.1/DTD/svg11.dtd">
<!-- Generated by graphviz version 2.43.0 (0)
 -->
<!-- Title: Acts::GridAxisGenerators::Var&lt; aType &gt; Pages: 1 -->
<svg width="431pt" height="173pt"
 viewBox="0.00 0.00 431.00 172.50" xmlns="http://www.w3.org/2000/svg" xmlns:xlink="http://www.w3.org/1999/xlink">
<g id="graph0" class="graph" transform="scale(1 1) rotate(0) translate(4 168.5)">
<title>Acts::GridAxisGenerators::Var&lt; aType &gt;</title>
<!-- Node1 -->
<g id="Node000001" class="node">
<title>Node1</title>
<g id="a_Node000001"><a xlink:title="Templated base generator for variable axis as a tuple &#45; 1D.">
<polygon fill="#999999" stroke="#666666" points="139,-94.5 0,-94.5 0,-64.5 139,-64.5 139,-94.5"/>
<text text-anchor="start" x="8" y="-82.5" font-family="Helvetica,sans-Serif" font-size="10.00">Acts::GridAxisGenerators</text>
<text text-anchor="middle" x="69.5" y="-71.5" font-family="Helvetica,sans-Serif" font-size="10.00">::Var&lt; aType &gt;</text>
</a>
</g>
</g>
<!-- Node2 -->
<g id="Node000002" class="node">
<title>Node2</title>
<g id="a_Node000002"><a xlink:href="struct_acts_1_1_grid_axis_generators_1_1_var.html" target="_top" xlink:title=" ">
<polygon fill="white" stroke="#666666" points="423,-159 283,-159 283,-118 423,-118 423,-159"/>
<text text-anchor="start" x="291" y="-147" font-family="Helvetica,sans-Serif" font-size="10.00">Acts::GridAxisGenerators</text>
<text text-anchor="start" x="291" y="-136" font-family="Helvetica,sans-Serif" font-size="10.00">::Var&lt; AxisBoundaryType</text>
<text text-anchor="middle" x="353" y="-125" font-family="Helvetica,sans-Serif" font-size="10.00">::Bound &gt;</text>
</a>
</g>
</g>
<!-- Node1&#45;&gt;Node2 -->
<g id="edge1_Node000001_Node000002" class="edge">
<title>Node1&#45;&gt;Node2</title>
<g id="a_edge1_Node000001_Node000002"><a xlink:title=" ">
<path fill="none" stroke="orange" stroke-dasharray="5,2" d="M110.15,-98.71C124.6,-104.98 141.25,-111.38 157,-115.5 197.89,-126.2 244.92,-131.93 282.55,-134.99"/>
<polygon fill="orange" stroke="orange" points="111.57,-95.51 101.01,-94.64 108.72,-101.9 111.57,-95.51"/>
</a>
</g>
<text text-anchor="start" x="160" y="-153.5" font-family="Helvetica,sans-Serif" font-size="10.00" fill="grey">&lt; AxisBoundaryType</text>
<text text-anchor="start" x="160" y="-138.5" font-family="Helvetica,sans-Serif" font-size="10.00" fill="grey">  ::Bound &gt;</text>
</g>
<!-- Node3 -->
<g id="Node000003" class="node">
<title>Node3</title>
<g id="a_Node000003"><a xlink:href="struct_acts_1_1_grid_axis_generators_1_1_var.html" target="_top" xlink:title=" ">
<polygon fill="white" stroke="#666666" points="423,-100 283,-100 283,-59 423,-59 423,-100"/>
<text text-anchor="start" x="291" y="-88" font-family="Helvetica,sans-Serif" font-size="10.00">Acts::GridAxisGenerators</text>
<text text-anchor="start" x="291" y="-77" font-family="Helvetica,sans-Serif" font-size="10.00">::Var&lt; AxisBoundaryType</text>
<text text-anchor="middle" x="353" y="-66" font-family="Helvetica,sans-Serif" font-size="10.00">::Open &gt;</text>
</a>
</g>
</g>
<!-- Node1&#45;&gt;Node3 -->
<g id="edge2_Node000001_Node000003" class="edge">
<title>Node1&#45;&gt;Node3</title>
<g id="a_edge2_Node000001_Node000003"><a xlink:title=" ">
<path fill="none" stroke="orange" stroke-dasharray="5,2" d="M149.18,-79.5C191.12,-79.5 242.27,-79.5 282.7,-79.5"/>
<polygon fill="orange" stroke="orange" points="149,-76 139,-79.5 149,-83 149,-76"/>
</a>
</g>
<text text-anchor="start" x="160" y="-100.5" font-family="Helvetica,sans-Serif" font-size="10.00" fill="grey">&lt; AxisBoundaryType</text>
<text text-anchor="start" x="160" y="-85.5" font-family="Helvetica,sans-Serif" font-size="10.00" fill="grey">  ::Open &gt;</text>
</g>
<!-- Node4 -->
<g id="Node000004" class="node">
<title>Node4</title>
<g id="a_Node000004"><a xlink:href="struct_acts_1_1_grid_axis_generators_1_1_var.html" target="_top" xlink:title=" ">
<polygon fill="white" stroke="#666666" points="423,-41 283,-41 283,0 423,0 423,-41"/>
<text text-anchor="start" x="291" y="-29" font-family="Helvetica,sans-Serif" font-size="10.00">Acts::GridAxisGenerators</text>
<text text-anchor="start" x="291" y="-18" font-family="Helvetica,sans-Serif" font-size="10.00">::Var&lt; AxisBoundaryType</text>
<text text-anchor="middle" x="353" y="-7" font-family="Helvetica,sans-Serif" font-size="10.00">::Closed &gt;</text>
</a>
</g>
</g>
<!-- Node1&#45;&gt;Node4 -->
<g id="edge3_Node000001_Node000004" class="edge">
<title>Node1&#45;&gt;Node4</title>
<g id="a_edge3_Node000001_Node000004"><a xlink:title=" ">
<path fill="none" stroke="orange" stroke-dasharray="5,2" d="M110.15,-60.29C124.6,-54.02 141.25,-47.62 157,-43.5 197.89,-32.8 244.92,-27.07 282.55,-24.01"/>
<polygon fill="orange" stroke="orange" points="108.72,-57.1 101.01,-64.36 111.57,-63.49 108.72,-57.1"/>
</a>
</g>
<text text-anchor="start" x="160" y="-64.5" font-family="Helvetica,sans-Serif" font-size="10.00" fill="grey">&lt; AxisBoundaryType</text>
<text text-anchor="start" x="160" y="-49.5" font-family="Helvetica,sans-Serif" font-size="10.00" fill="grey">  ::Closed &gt;</text>
</g>
</g>
</svg>
