<?xml version="1.0" encoding="UTF-8" standalone="no"?>
<!DOCTYPE svg PUBLIC "-//W3C//DTD SVG 1.1//EN"
 "http://www.w3.org/Graphics/SVG/1.1/DTD/svg11.dtd">
<!-- Generated by graphviz version 2.43.0 (0)
 -->
<!-- Title: Acts::NumericalTrackLinearizer::Config Pages: 1 -->
<svg width="755pt" height="95pt"
 viewBox="0.00 0.00 755.00 95.00" xmlns="http://www.w3.org/2000/svg" xmlns:xlink="http://www.w3.org/1999/xlink">
<g id="graph0" class="graph" transform="scale(1 1) rotate(0) translate(4 91)">
<title>Acts::NumericalTrackLinearizer::Config</title>
<!-- Node1 -->
<g id="Node000001" class="node">
<title>Node1</title>
<g id="a_Node000001"><a xlink:title="Configuration struct.">
<polygon fill="#999999" stroke="#666666" points="747,-55 580,-55 580,-25 747,-25 747,-55"/>
<text text-anchor="start" x="588" y="-43" font-family="Helvetica,sans-Serif" font-size="10.00">Acts::NumericalTrackLinearizer</text>
<text text-anchor="middle" x="663.5" y="-32" font-family="Helvetica,sans-Serif" font-size="10.00">::Config</text>
</a>
</g>
</g>
<!-- Node2 -->
<g id="Node000002" class="node">
<title>Node2</title>
<g id="a_Node000002"><a xlink:title=" ">
<polygon fill="white" stroke="#666666" points="484,-78 317,-78 317,-48 484,-48 484,-78"/>
<text text-anchor="start" x="325" y="-66" font-family="Helvetica,sans-Serif" font-size="10.00">std::shared_ptr&lt; const</text>
<text text-anchor="middle" x="400.5" y="-55" font-family="Helvetica,sans-Serif" font-size="10.00"> Acts::MagneticFieldProvider &gt;</text>
</a>
</g>
</g>
<!-- Node2&#45;&gt;Node1 -->
<g id="edge1_Node000001_Node000002" class="edge">
<title>Node2&#45;&gt;Node1</title>
<g id="a_edge1_Node000001_Node000002"><a xlink:title=" ">
<path fill="none" stroke="#9a32cd" stroke-dasharray="5,2" d="M494.21,-54.83C522.05,-52.38 552.4,-49.7 579.56,-47.31"/>
<polygon fill="#9a32cd" stroke="#9a32cd" points="493.74,-51.36 484.08,-55.72 494.35,-58.33 493.74,-51.36"/>
</a>
</g>
<text text-anchor="start" x="517" y="-58.5" font-family="Helvetica,sans-Serif" font-size="10.00" fill="grey">bField</text>
</g>
<!-- Node3 -->
<g id="Node000003" class="node">
<title>Node3</title>
<g id="a_Node000003"><a xlink:title=" ">
<polygon fill="white" stroke="#666666" points="118,-48.5 0,-48.5 0,-29.5 118,-29.5 118,-48.5"/>
<text text-anchor="middle" x="59" y="-36.5" font-family="Helvetica,sans-Serif" font-size="10.00">std::shared_ptr&lt; T &gt;</text>
</a>
</g>
</g>
<!-- Node3&#45;&gt;Node2 -->
<g id="edge2_Node000002_Node000003" class="edge">
<title>Node3&#45;&gt;Node2</title>
<g id="a_edge2_Node000002_Node000003"><a xlink:title=" ">
<path fill="none" stroke="orange" stroke-dasharray="5,2" d="M128.59,-43.85C182.95,-47.69 259.1,-53.07 316.82,-57.16"/>
<polygon fill="orange" stroke="orange" points="128.58,-40.34 118.36,-43.13 128.09,-47.32 128.58,-40.34"/>
</a>
</g>
<text text-anchor="start" x="149.5" y="-76" font-family="Helvetica,sans-Serif" font-size="10.00" fill="grey">&lt; const Acts::MagneticField</text>
<text text-anchor="start" x="149.5" y="-61" font-family="Helvetica,sans-Serif" font-size="10.00" fill="grey">  Provider &gt;</text>
</g>
<!-- Node4 -->
<g id="Node000004" class="node">
<title>Node4</title>
<g id="a_Node000004"><a xlink:title=" ">
<polygon fill="white" stroke="#666666" points="468,-30 333,-30 333,0 468,0 468,-30"/>
<text text-anchor="start" x="341" y="-18" font-family="Helvetica,sans-Serif" font-size="10.00">std::shared_ptr&lt; const</text>
<text text-anchor="middle" x="400.5" y="-7" font-family="Helvetica,sans-Serif" font-size="10.00"> Acts::BasePropagator &gt;</text>
</a>
</g>
</g>
<!-- Node3&#45;&gt;Node4 -->
<g id="edge4_Node000004_Node000003" class="edge">
<title>Node3&#45;&gt;Node4</title>
<g id="a_edge4_Node000004_Node000003"><a xlink:title=" ">
<path fill="none" stroke="orange" stroke-dasharray="5,2" d="M108.8,-27.4C117.8,-25.64 127.15,-24.06 136,-23 202.69,-15.03 279.51,-13.57 332.93,-13.77"/>
<polygon fill="orange" stroke="orange" points="107.93,-24 98.83,-29.44 109.33,-30.86 107.93,-24"/>
</a>
</g>
<text text-anchor="start" x="139.5" y="-28.5" font-family="Helvetica,sans-Serif" font-size="10.00" fill="grey">&lt; const Acts::BasePropagator &gt;</text>
</g>
<!-- Node4&#45;&gt;Node1 -->
<g id="edge3_Node000001_Node000004" class="edge">
<title>Node4&#45;&gt;Node1</title>
<g id="a_edge3_Node000001_Node000004"><a xlink:title=" ">
<path fill="none" stroke="#9a32cd" stroke-dasharray="5,2" d="M478.31,-20.62C504.84,-22.73 534.74,-25.27 562,-28 567.86,-28.59 573.9,-29.23 579.99,-29.89"/>
<polygon fill="#9a32cd" stroke="#9a32cd" points="478.56,-17.13 468.32,-19.84 478.01,-24.11 478.56,-17.13"/>
</a>
</g>
<text text-anchor="start" x="505" y="-33.5" font-family="Helvetica,sans-Serif" font-size="10.00" fill="grey">propagator</text>
</g>
</g>
</svg>
