<?xml version="1.0" encoding="UTF-8" standalone="no"?>
<!DOCTYPE svg PUBLIC "-//W3C//DTD SVG 1.1//EN"
 "http://www.w3.org/Graphics/SVG/1.1/DTD/svg11.dtd">
<!-- Generated by graphviz version 2.43.0 (0)
 -->
<!-- Title: Acts::IsReadOnlyTrackContainer&lt; VectorTrackContainer &gt; Pages: 1 -->
<svg width="320pt" height="110pt"
 viewBox="0.00 0.00 319.50 110.00" xmlns="http://www.w3.org/2000/svg" xmlns:xlink="http://www.w3.org/1999/xlink">
<g id="graph0" class="graph" transform="scale(1 1) rotate(0) translate(4 106)">
<title>Acts::IsReadOnlyTrackContainer&lt; VectorTrackContainer &gt;</title>
<!-- Node1 -->
<g id="Node000001" class="node">
<title>Node1</title>
<g id="a_Node000001"><a xlink:title=" ">
<polygon fill="#999999" stroke="#666666" points="211.5,-30 39.5,-30 39.5,0 211.5,0 211.5,-30"/>
<text text-anchor="start" x="47.5" y="-18" font-family="Helvetica,sans-Serif" font-size="10.00">Acts::IsReadOnlyTrackContainer</text>
<text text-anchor="middle" x="125.5" y="-7" font-family="Helvetica,sans-Serif" font-size="10.00">&lt; VectorTrackContainer &gt;</text>
</a>
</g>
</g>
<!-- Node2 -->
<g id="Node000002" class="node">
<title>Node2</title>
<g id="a_Node000002"><a xlink:title=" ">
<polygon fill="white" stroke="#666666" points="89,-102 0,-102 0,-83 89,-83 89,-102"/>
<text text-anchor="middle" x="44.5" y="-90" font-family="Helvetica,sans-Serif" font-size="10.00">std::false_type</text>
</a>
</g>
</g>
<!-- Node2&#45;&gt;Node1 -->
<g id="edge1_Node000001_Node000002" class="edge">
<title>Node2&#45;&gt;Node1</title>
<g id="a_edge1_Node000001_Node000002"><a xlink:title=" ">
<path fill="none" stroke="#63b8ff" d="M61.48,-75.68C75.88,-62.25 96.37,-43.15 110.26,-30.21"/>
<polygon fill="#63b8ff" stroke="#63b8ff" points="58.72,-73.46 53.79,-82.84 63.49,-78.58 58.72,-73.46"/>
</a>
</g>
</g>
<!-- Node3 -->
<g id="Node000003" class="node">
<title>Node3</title>
<g id="a_Node000003"><a xlink:href="struct_acts_1_1_is_read_only_track_container.html" target="_top" xlink:title=" ">
<polygon fill="white" stroke="#666666" points="307.5,-102 107.5,-102 107.5,-83 307.5,-83 307.5,-102"/>
<text text-anchor="middle" x="207.5" y="-90" font-family="Helvetica,sans-Serif" font-size="10.00">Acts::IsReadOnlyTrackContainer&lt; T &gt;</text>
</a>
</g>
</g>
<!-- Node3&#45;&gt;Node1 -->
<g id="edge2_Node000001_Node000003" class="edge">
<title>Node3&#45;&gt;Node1</title>
<g id="a_edge2_Node000001_Node000003"><a xlink:title=" ">
<path fill="none" stroke="orange" stroke-dasharray="5,2" d="M190.72,-76.05C176.12,-62.61 155.12,-43.27 140.93,-30.21"/>
<polygon fill="orange" stroke="orange" points="188.37,-78.64 198.09,-82.84 193.11,-73.49 188.37,-78.64"/>
</a>
</g>
<text text-anchor="start" x="182" y="-53.5" font-family="Helvetica,sans-Serif" font-size="10.00" fill="grey">&lt; VectorTrackContainer &gt;</text>
</g>
</g>
</svg>
