<?xml version="1.0" encoding="UTF-8" standalone="no"?>
<!DOCTYPE svg PUBLIC "-//W3C//DTD SVG 1.1//EN"
 "http://www.w3.org/Graphics/SVG/1.1/DTD/svg11.dtd">
<!-- Generated by graphviz version 2.43.0 (0)
 -->
<!-- Title: Acts::BinningData Pages: 1 -->
<svg width="217pt" height="182pt"
 viewBox="0.00 0.00 216.50 182.00" xmlns="http://www.w3.org/2000/svg" xmlns:xlink="http://www.w3.org/1999/xlink">
<g id="graph0" class="graph" transform="scale(1 1) rotate(0) translate(4 178)">
<title>Acts::BinningData</title>
<!-- Node1 -->
<g id="Node000001" class="node">
<title>Node1</title>
<g id="a_Node000001"><a xlink:title="This class holds all the data necessary for the bin calculation.">
<polygon fill="#999999" stroke="#666666" points="115.5,-19 11.5,-19 11.5,0 115.5,0 115.5,-19"/>
<text text-anchor="middle" x="63.5" y="-7" font-family="Helvetica,sans-Serif" font-size="10.00">Acts::BinningData</text>
</a>
</g>
</g>
<!-- Node2 -->
<g id="Node000002" class="node">
<title>Node2</title>
<g id="a_Node000002"><a xlink:title=" ">
<polygon fill="white" stroke="#666666" points="127,-102 0,-102 0,-72 127,-72 127,-102"/>
<text text-anchor="start" x="8" y="-90" font-family="Helvetica,sans-Serif" font-size="10.00">std::unique_ptr&lt; const</text>
<text text-anchor="middle" x="63.5" y="-79" font-family="Helvetica,sans-Serif" font-size="10.00"> Acts::BinningData &gt;</text>
</a>
</g>
</g>
<!-- Node2&#45;&gt;Node1 -->
<g id="edge1_Node000001_Node000002" class="edge">
<title>Node2&#45;&gt;Node1</title>
<g id="a_edge1_Node000001_Node000002"><a xlink:title=" ">
<path fill="none" stroke="#9a32cd" stroke-dasharray="5,2" d="M63.5,-61.4C63.5,-46.81 63.5,-29.22 63.5,-19.01"/>
<polygon fill="#9a32cd" stroke="#9a32cd" points="60,-61.8 63.5,-71.8 67,-61.8 60,-61.8"/>
</a>
</g>
<text text-anchor="start" x="66.5" y="-42.5" font-family="Helvetica,sans-Serif" font-size="10.00" fill="grey">subBinningData</text>
</g>
<!-- Node3 -->
<g id="Node000003" class="node">
<title>Node3</title>
<g id="a_Node000003"><a xlink:title=" ">
<polygon fill="white" stroke="#666666" points="122.5,-174 4.5,-174 4.5,-155 122.5,-155 122.5,-174"/>
<text text-anchor="middle" x="63.5" y="-162" font-family="Helvetica,sans-Serif" font-size="10.00">std::unique_ptr&lt; T &gt;</text>
</a>
</g>
</g>
<!-- Node3&#45;&gt;Node2 -->
<g id="edge2_Node000002_Node000003" class="edge">
<title>Node3&#45;&gt;Node2</title>
<g id="a_edge2_Node000002_Node000003"><a xlink:title=" ">
<path fill="none" stroke="orange" stroke-dasharray="5,2" d="M63.5,-144.57C63.5,-131.43 63.5,-114.18 63.5,-102.21"/>
<polygon fill="orange" stroke="orange" points="60,-144.84 63.5,-154.84 67,-144.84 60,-144.84"/>
</a>
</g>
<text text-anchor="start" x="67" y="-125.5" font-family="Helvetica,sans-Serif" font-size="10.00" fill="grey">&lt; const Acts::BinningData &gt;</text>
</g>
</g>
</svg>
