<?xml version="1.0" encoding="UTF-8" standalone="no"?>
<!DOCTYPE svg PUBLIC "-//W3C//DTD SVG 1.1//EN"
 "http://www.w3.org/Graphics/SVG/1.1/DTD/svg11.dtd">
<!-- Generated by graphviz version 2.43.0 (0)
 -->
<!-- Title: Acts::CylinderVolumeBounds Pages: 1 -->
<svg width="196pt" height="227pt"
 viewBox="0.00 0.00 195.50 227.00" xmlns="http://www.w3.org/2000/svg" xmlns:xlink="http://www.w3.org/1999/xlink">

<svg id="main" version="1.1" xmlns="http://www.w3.org/2000/svg" xmlns:xlink="http://www.w3.org/1999/xlink" xml:space="preserve">

<style type="text/css"><![CDATA[
.node, .edge {opacity: 0.7;}
.node.selected, .edge.selected {opacity: 1;}
.edge:hover path { stroke: red; }
.edge:hover polygon { stroke: red; fill: red; }
]]></style>
<script type="application/ecmascript" xlink:href="svg.min.js"/>
<svg id="graph" class="graph">
<g id="graph0" class="graph" transform="scale(1 1) rotate(0) translate(4 223)">
<title>Acts::CylinderVolumeBounds</title>
<!-- Node1 -->
<g id="Node000001" class="node">
<title>Node1</title>
<g id="a_Node000001"><a xlink:title="[0] and [1] at positive">
<polygon fill="#999999" stroke="#666666" points="157,-19 0,-19 0,0 157,0 157,-19"/>
<text text-anchor="middle" x="78.5" y="-7" font-family="Helvetica,sans-Serif" font-size="10.00">Acts::CylinderVolumeBounds</text>
</a>
</g>
</g>
<!-- Node2 -->
<g id="Node000002" class="node">
<title>Node2</title>
<g id="a_Node000002"><a xlink:href="class_acts_1_1_volume_bounds.html" target="_top" xlink:title="Pure Absract Base Class for Volume bounds.">
<polygon fill="white" stroke="#666666" points="136.5,-75 20.5,-75 20.5,-56 136.5,-56 136.5,-75"/>
<text text-anchor="middle" x="78.5" y="-63" font-family="Helvetica,sans-Serif" font-size="10.00">Acts::VolumeBounds</text>
</a>
</g>
</g>
<!-- Node2&#45;&gt;Node1 -->
<g id="edge1_Node000001_Node000002" class="edge">
<title>Node2&#45;&gt;Node1</title>
<g id="a_edge1_Node000001_Node000002"><a xlink:title=" ">
<path fill="none" stroke="#63b8ff" d="M78.5,-45.3C78.5,-36.41 78.5,-26.28 78.5,-19.25"/>
<polygon fill="#63b8ff" stroke="#63b8ff" points="75,-45.58 78.5,-55.58 82,-45.58 75,-45.58"/>
</a>
</g>
</g>
<!-- Node3 -->
<g id="Node000003" class="node">
<title>Node3</title>
<g id="a_Node000003"><a xlink:title=" ">
<polygon fill="white" stroke="#666666" points="148.5,-147 8.5,-147 8.5,-128 148.5,-128 148.5,-147"/>
<text text-anchor="middle" x="78.5" y="-135" font-family="Helvetica,sans-Serif" font-size="10.00">std::vector&lt; std::string &gt;</text>
</a>
</g>
</g>
<!-- Node3&#45;&gt;Node2 -->
<g id="edge2_Node000002_Node000003" class="edge">
<title>Node3&#45;&gt;Node2</title>
<g id="a_edge2_Node000002_Node000003"><a xlink:title=" ">
<path fill="none" stroke="#9a32cd" stroke-dasharray="5,2" d="M78.5,-117.58C78.5,-103.76 78.5,-85.68 78.5,-75.15"/>
<polygon fill="#9a32cd" stroke="#9a32cd" points="75,-117.92 78.5,-127.92 82,-117.92 75,-117.92"/>
</a>
</g>
<text text-anchor="start" x="82" y="-98.5" font-family="Helvetica,sans-Serif" font-size="10.00" fill="grey">s_boundsTypeNames</text>
</g>
<!-- Node4 -->
<g id="Node000004" class="node">
<title>Node4</title>
<g id="a_Node000004"><a xlink:title=" ">
<polygon fill="white" stroke="#666666" points="127,-219 30,-219 30,-200 127,-200 127,-219"/>
<text text-anchor="middle" x="78.5" y="-207" font-family="Helvetica,sans-Serif" font-size="10.00">std::vector&lt; T &gt;</text>
</a>
</g>
</g>
<!-- Node4&#45;&gt;Node3 -->
<g id="edge3_Node000003_Node000004" class="edge">
<title>Node4&#45;&gt;Node3</title>
<g id="a_edge3_Node000003_Node000004"><a xlink:title=" ">
<path fill="none" stroke="orange" stroke-dasharray="5,2" d="M78.5,-189.58C78.5,-175.76 78.5,-157.68 78.5,-147.15"/>
<polygon fill="orange" stroke="orange" points="75,-189.92 78.5,-199.92 82,-189.92 75,-189.92"/>
</a>
</g>
<text text-anchor="start" x="81.5" y="-170.5" font-family="Helvetica,sans-Serif" font-size="10.00" fill="grey">&lt; std::string &gt;</text>
</g>
</g>
</svg>
</svg>

<style type='text/css'>
<![CDATA[
[data-mouse-over-selected='false'] { opacity: 0.7; }
[data-mouse-over-selected='true']  { opacity: 1.0; }
]]>
</style>
<script type="application/ecmascript"><![CDATA[
document.addEventListener('DOMContentLoaded', (event) => {
  highlightEdges();
  highlightAdjacentNodes();
});
]]></script>
</svg>
