<?xml version="1.0" encoding="UTF-8" standalone="no"?>
<!DOCTYPE svg PUBLIC "-//W3C//DTD SVG 1.1//EN"
 "http://www.w3.org/Graphics/SVG/1.1/DTD/svg11.dtd">
<!-- Generated by graphviz version 2.43.0 (0)
 -->
<!-- Title: ActsFatras::InteractionList&lt; processes_t &gt; Pages: 1 -->
<svg width="558pt" height="119pt"
 viewBox="0.00 0.00 558.00 119.00" xmlns="http://www.w3.org/2000/svg" xmlns:xlink="http://www.w3.org/1999/xlink">
<g id="graph0" class="graph" transform="scale(1 1) rotate(0) translate(4 115)">
<title>ActsFatras::InteractionList&lt; processes_t &gt;</title>
<!-- Node1 -->
<g id="Node000001" class="node">
<title>Node1</title>
<g id="a_Node000001"><a xlink:title="Compile&#45;time set of interaction processes for the simulation.">
<polygon fill="#999999" stroke="#666666" points="143,-59 0,-59 0,-29 143,-29 143,-59"/>
<text text-anchor="start" x="8" y="-47" font-family="Helvetica,sans-Serif" font-size="10.00">ActsFatras::InteractionList</text>
<text text-anchor="middle" x="71.5" y="-36" font-family="Helvetica,sans-Serif" font-size="10.00">&lt; processes_t &gt;</text>
</a>
</g>
</g>
<!-- Node2 -->
<g id="Node000002" class="node">
<title>Node2</title>
<g id="a_Node000002"><a xlink:title=" ">
<polygon fill="white" stroke="#666666" points="532.5,-100 362.5,-100 362.5,-48 532.5,-48 532.5,-100"/>
<text text-anchor="start" x="370.5" y="-88" font-family="Helvetica,sans-Serif" font-size="10.00">ActsFatras::InteractionList</text>
<text text-anchor="start" x="370.5" y="-77" font-family="Helvetica,sans-Serif" font-size="10.00">&lt; detail::StandardScattering,</text>
<text text-anchor="start" x="370.5" y="-66" font-family="Helvetica,sans-Serif" font-size="10.00"> detail::StandardBetheBloch,</text>
<text text-anchor="middle" x="447.5" y="-55" font-family="Helvetica,sans-Serif" font-size="10.00"> detail::StandardBetheHeitler &gt;</text>
</a>
</g>
</g>
<!-- Node1&#45;&gt;Node2 -->
<g id="edge1_Node000001_Node000002" class="edge">
<title>Node1&#45;&gt;Node2</title>
<g id="a_edge1_Node000001_Node000002"><a xlink:title=" ">
<path fill="none" stroke="orange" stroke-dasharray="5,2" d="M153.22,-51.34C155.85,-51.57 158.44,-51.79 161,-52 228.75,-57.67 305.58,-63.56 362.46,-67.82"/>
<polygon fill="orange" stroke="orange" points="153.28,-47.83 143.02,-50.46 152.68,-54.81 153.28,-47.83"/>
</a>
</g>
<text text-anchor="start" x="164" y="-99.5" font-family="Helvetica,sans-Serif" font-size="10.00" fill="grey">&lt; detail::StandardScattering,</text>
<text text-anchor="start" x="164" y="-84.5" font-family="Helvetica,sans-Serif" font-size="10.00" fill="grey">   detail::StandardBetheBloch,</text>
<text text-anchor="start" x="164" y="-69.5" font-family="Helvetica,sans-Serif" font-size="10.00" fill="grey">   detail::StandardBetheHeitler &gt;</text>
</g>
<!-- Node3 -->
<g id="Node000003" class="node">
<title>Node3</title>
<g id="a_Node000003"><a xlink:title=" ">
<polygon fill="white" stroke="#666666" points="550,-30 345,-30 345,0 550,0 550,-30"/>
<text text-anchor="start" x="353" y="-18" font-family="Helvetica,sans-Serif" font-size="10.00">ActsFatras::InteractionList</text>
<text text-anchor="middle" x="447.5" y="-7" font-family="Helvetica,sans-Serif" font-size="10.00">&lt; detail::StandardPhotonConversion &gt;</text>
</a>
</g>
</g>
<!-- Node1&#45;&gt;Node3 -->
<g id="edge2_Node000001_Node000003" class="edge">
<title>Node1&#45;&gt;Node3</title>
<g id="a_edge2_Node000001_Node000003"><a xlink:title=" ">
<path fill="none" stroke="orange" stroke-dasharray="5,2" d="M129.23,-26.4C139.7,-23.78 150.61,-21.48 161,-20 221.61,-11.39 290.19,-9.92 344.94,-10.71"/>
<polygon fill="orange" stroke="orange" points="128.15,-23.06 119.36,-28.98 129.92,-29.84 128.15,-23.06"/>
</a>
</g>
<text text-anchor="start" x="183" y="-41" font-family="Helvetica,sans-Serif" font-size="10.00" fill="grey">&lt; detail::StandardPhoton</text>
<text text-anchor="start" x="183" y="-26" font-family="Helvetica,sans-Serif" font-size="10.00" fill="grey">  Conversion &gt;</text>
</g>
</g>
</svg>
