<?xml version="1.0" encoding="UTF-8" standalone="no"?>
<!DOCTYPE svg PUBLIC "-//W3C//DTD SVG 1.1//EN"
 "http://www.w3.org/Graphics/SVG/1.1/DTD/svg11.dtd">
<!-- Generated by graphviz version 2.43.0 (0)
 -->
<!-- Title: Acts::ConvexPolygonBoundsBase Pages: 1 -->
<svg width="187pt" height="137pt"
 viewBox="0.00 0.00 187.00 137.00" xmlns="http://www.w3.org/2000/svg" xmlns:xlink="http://www.w3.org/1999/xlink">
<g id="graph0" class="graph" transform="scale(1 1) rotate(0) translate(4 133)">
<title>Acts::ConvexPolygonBoundsBase</title>
<!-- Node1 -->
<g id="Node000001" class="node">
<title>Node1</title>
<g id="a_Node000001"><a xlink:title="base class for convex polygon bounds">
<polygon fill="#999999" stroke="#666666" points="179,-19 0,-19 0,0 179,0 179,-19"/>
<text text-anchor="middle" x="89.5" y="-7" font-family="Helvetica,sans-Serif" font-size="10.00">Acts::ConvexPolygonBoundsBase</text>
</a>
</g>
</g>
<!-- Node2 -->
<g id="Node000002" class="node">
<title>Node2</title>
<g id="a_Node000002"><a xlink:href="class_acts_1_1_planar_bounds.html" target="_top" xlink:title="common base class for all bounds that are in a local x/y cartesian frame">
<polygon fill="white" stroke="#666666" points="144.5,-74 34.5,-74 34.5,-55 144.5,-55 144.5,-74"/>
<text text-anchor="middle" x="89.5" y="-62" font-family="Helvetica,sans-Serif" font-size="10.00">Acts::PlanarBounds</text>
</a>
</g>
</g>
<!-- Node2&#45;&gt;Node1 -->
<g id="edge1_Node000001_Node000002" class="edge">
<title>Node2&#45;&gt;Node1</title>
<g id="a_edge1_Node000001_Node000002"><a xlink:title=" ">
<path fill="none" stroke="#63b8ff" d="M89.5,-44.66C89.5,-35.93 89.5,-25.99 89.5,-19.09"/>
<polygon fill="#63b8ff" stroke="#63b8ff" points="86,-44.75 89.5,-54.75 93,-44.75 86,-44.75"/>
</a>
</g>
</g>
<!-- Node3 -->
<g id="Node000003" class="node">
<title>Node3</title>
<g id="a_Node000003"><a xlink:href="class_acts_1_1_surface_bounds.html" target="_top" xlink:title="Interface for surface bounds.">
<polygon fill="white" stroke="#666666" points="147.5,-129 31.5,-129 31.5,-110 147.5,-110 147.5,-129"/>
<text text-anchor="middle" x="89.5" y="-117" font-family="Helvetica,sans-Serif" font-size="10.00">Acts::SurfaceBounds</text>
</a>
</g>
</g>
<!-- Node3&#45;&gt;Node2 -->
<g id="edge2_Node000002_Node000003" class="edge">
<title>Node3&#45;&gt;Node2</title>
<g id="a_edge2_Node000002_Node000003"><a xlink:title=" ">
<path fill="none" stroke="#63b8ff" d="M89.5,-99.66C89.5,-90.93 89.5,-80.99 89.5,-74.09"/>
<polygon fill="#63b8ff" stroke="#63b8ff" points="86,-99.75 89.5,-109.75 93,-99.75 86,-99.75"/>
</a>
</g>
</g>
</g>
</svg>
