<?xml version="1.0" encoding="UTF-8" standalone="no"?>
<!DOCTYPE svg PUBLIC "-//W3C//DTD SVG 1.1//EN"
 "http://www.w3.org/Graphics/SVG/1.1/DTD/svg11.dtd">
<!-- Generated by graphviz version 2.43.0 (0)
 -->
<!-- Title: Acts::Logging::NamedOutputDecorator Pages: 1 -->
<svg width="932pt" height="86pt"
 viewBox="0.00 0.00 932.00 86.00" xmlns="http://www.w3.org/2000/svg" xmlns:xlink="http://www.w3.org/1999/xlink">
<g id="graph0" class="graph" transform="scale(1 1) rotate(0) translate(4 82)">
<title>Acts::Logging::NamedOutputDecorator</title>
<!-- Node1 -->
<g id="Node000001" class="node">
<title>Node1</title>
<g id="a_Node000001"><a xlink:title="decorate debug message with a name">
<polygon fill="#999999" stroke="#666666" points="924,-54 768,-54 768,-24 924,-24 924,-54"/>
<text text-anchor="start" x="776" y="-42" font-family="Helvetica,sans-Serif" font-size="10.00">Acts::Logging::NamedOutput</text>
<text text-anchor="middle" x="846" y="-31" font-family="Helvetica,sans-Serif" font-size="10.00">Decorator</text>
</a>
</g>
</g>
<!-- Node2 -->
<g id="Node000002" class="node">
<title>Node2</title>
<g id="a_Node000002"><a xlink:href="class_acts_1_1_logging_1_1_output_decorator.html" target="_top" xlink:title="base class for decorating the debug output">
<polygon fill="white" stroke="#666666" points="731,-48.5 562,-48.5 562,-29.5 731,-29.5 731,-48.5"/>
<text text-anchor="middle" x="646.5" y="-36.5" font-family="Helvetica,sans-Serif" font-size="10.00">Acts::Logging::OutputDecorator</text>
</a>
</g>
</g>
<!-- Node2&#45;&gt;Node1 -->
<g id="edge1_Node000001_Node000002" class="edge">
<title>Node2&#45;&gt;Node1</title>
<g id="a_edge1_Node000001_Node000002"><a xlink:title=" ">
<path fill="none" stroke="#63b8ff" d="M741.52,-39C750.29,-39 759.11,-39 767.7,-39"/>
<polygon fill="#63b8ff" stroke="#63b8ff" points="741.26,-35.5 731.26,-39 741.26,-42.5 741.26,-35.5"/>
</a>
</g>
</g>
<!-- Node3 -->
<g id="Node000003" class="node">
<title>Node3</title>
<g id="a_Node000003"><a xlink:href="class_acts_1_1_logging_1_1_output_print_policy.html" target="_top" xlink:title="abstract base class for printing debug output">
<polygon fill="white" stroke="#666666" points="452,-78 309,-78 309,-48 452,-48 452,-78"/>
<text text-anchor="start" x="317" y="-66" font-family="Helvetica,sans-Serif" font-size="10.00">Acts::Logging::OutputPrint</text>
<text text-anchor="middle" x="380.5" y="-55" font-family="Helvetica,sans-Serif" font-size="10.00">Policy</text>
</a>
</g>
</g>
<!-- Node3&#45;&gt;Node2 -->
<g id="edge2_Node000002_Node000003" class="edge">
<title>Node3&#45;&gt;Node2</title>
<g id="a_edge2_Node000002_Node000003"><a xlink:title=" ">
<path fill="none" stroke="#63b8ff" d="M462.32,-55.65C493.88,-52.78 530.07,-49.49 561.89,-46.6"/>
<polygon fill="#63b8ff" stroke="#63b8ff" points="461.89,-52.18 452.25,-56.57 462.52,-59.15 461.89,-52.18"/>
</a>
</g>
</g>
<!-- Node4 -->
<g id="Node000004" class="node">
<title>Node4</title>
<g id="a_Node000004"><a xlink:title=" ">
<polygon fill="white" stroke="#666666" points="462,-30 299,-30 299,0 462,0 462,-30"/>
<text text-anchor="start" x="307" y="-18" font-family="Helvetica,sans-Serif" font-size="10.00">std::unique_ptr&lt; Acts</text>
<text text-anchor="middle" x="380.5" y="-7" font-family="Helvetica,sans-Serif" font-size="10.00">::Logging::OutputPrintPolicy &gt;</text>
</a>
</g>
</g>
<!-- Node4&#45;&gt;Node2 -->
<g id="edge3_Node000002_Node000004" class="edge">
<title>Node4&#45;&gt;Node2</title>
<g id="a_edge3_Node000002_Node000004"><a xlink:title=" ">
<path fill="none" stroke="#9a32cd" stroke-dasharray="5,2" d="M472.39,-21C495.74,-22.74 520.82,-24.77 544,-27 551.77,-27.75 559.87,-28.59 567.95,-29.48"/>
<polygon fill="#9a32cd" stroke="#9a32cd" points="472.38,-17.49 462.15,-20.25 471.86,-24.47 472.38,-17.49"/>
</a>
</g>
<text text-anchor="start" x="483" y="-32.5" font-family="Helvetica,sans-Serif" font-size="10.00" fill="grey">m_wrappee</text>
</g>
<!-- Node5 -->
<g id="Node000005" class="node">
<title>Node5</title>
<g id="a_Node000005"><a xlink:title=" ">
<polygon fill="white" stroke="#666666" points="118,-24.5 0,-24.5 0,-5.5 118,-5.5 118,-24.5"/>
<text text-anchor="middle" x="59" y="-12.5" font-family="Helvetica,sans-Serif" font-size="10.00">std::unique_ptr&lt; T &gt;</text>
</a>
</g>
</g>
<!-- Node5&#45;&gt;Node4 -->
<g id="edge4_Node000004_Node000005" class="edge">
<title>Node5&#45;&gt;Node4</title>
<g id="a_edge4_Node000004_Node000005"><a xlink:title=" ">
<path fill="none" stroke="orange" stroke-dasharray="5,2" d="M128.29,-15C178.24,-15 246.19,-15 298.83,-15"/>
<polygon fill="orange" stroke="orange" points="128.23,-11.5 118.23,-15 128.23,-18.5 128.23,-11.5"/>
</a>
</g>
<text text-anchor="start" x="139.5" y="-36" font-family="Helvetica,sans-Serif" font-size="10.00" fill="grey">&lt; Acts::Logging::OutputPrint</text>
<text text-anchor="start" x="139.5" y="-21" font-family="Helvetica,sans-Serif" font-size="10.00" fill="grey">  Policy &gt;</text>
</g>
</g>
</svg>
