<?xml version="1.0" encoding="UTF-8" standalone="no"?>
<!DOCTYPE svg PUBLIC "-//W3C//DTD SVG 1.1//EN"
 "http://www.w3.org/Graphics/SVG/1.1/DTD/svg11.dtd">
<!-- Generated by graphviz version 2.43.0 (0)
 -->
<!-- Title: Acts::LineSurface Pages: 1 -->
<svg width="278pt" height="203pt"
 viewBox="0.00 0.00 278.00 203.00" xmlns="http://www.w3.org/2000/svg" xmlns:xlink="http://www.w3.org/1999/xlink">
<g id="graph0" class="graph" transform="scale(1 1) rotate(0) translate(4 199)">
<title>Acts::LineSurface</title>
<!-- Node1 -->
<g id="Node000001" class="node">
<title>Node1</title>
<g id="a_Node000001"><a xlink:title="Base class for a linear surfaces in the TrackingGeometry to describe dirft tube, straw like detectors...">
<polygon fill="#999999" stroke="#666666" points="184.5,-74 83.5,-74 83.5,-55 184.5,-55 184.5,-74"/>
<text text-anchor="middle" x="134" y="-62" font-family="Helvetica,sans-Serif" font-size="10.00">Acts::LineSurface</text>
</a>
</g>
</g>
<!-- Node5 -->
<g id="Node000005" class="node">
<title>Node5</title>
<g id="a_Node000005"><a xlink:href="class_acts_1_1_perigee_surface.html" target="_top" xlink:title="Class describing the Line to which the Perigee refers to.">
<polygon fill="white" stroke="#666666" points="127.5,-19 10.5,-19 10.5,0 127.5,0 127.5,-19"/>
<text text-anchor="middle" x="69" y="-7" font-family="Helvetica,sans-Serif" font-size="10.00">Acts::PerigeeSurface</text>
</a>
</g>
</g>
<!-- Node1&#45;&gt;Node5 -->
<g id="edge4_Node000001_Node000005" class="edge">
<title>Node1&#45;&gt;Node5</title>
<g id="a_edge4_Node000001_Node000005"><a xlink:title=" ">
<path fill="none" stroke="#63b8ff" d="M115.73,-48.6C104.08,-39.11 89.4,-27.13 79.63,-19.17"/>
<polygon fill="#63b8ff" stroke="#63b8ff" points="113.59,-51.38 123.56,-54.98 118.02,-45.95 113.59,-51.38"/>
</a>
</g>
</g>
<!-- Node6 -->
<g id="Node000006" class="node">
<title>Node6</title>
<g id="a_Node000006"><a xlink:href="class_acts_1_1_straw_surface.html" target="_top" xlink:title="Class for a StrawSurface in the TrackingGeometry to describe dirft tube and straw like detectors.">
<polygon fill="white" stroke="#666666" points="254,-19 146,-19 146,0 254,0 254,-19"/>
<text text-anchor="middle" x="200" y="-7" font-family="Helvetica,sans-Serif" font-size="10.00">Acts::StrawSurface</text>
</a>
</g>
</g>
<!-- Node1&#45;&gt;Node6 -->
<g id="edge5_Node000001_Node000006" class="edge">
<title>Node1&#45;&gt;Node6</title>
<g id="a_edge5_Node000001_Node000006"><a xlink:title=" ">
<path fill="none" stroke="#63b8ff" d="M152.55,-48.6C164.38,-39.11 179.29,-27.13 189.2,-19.17"/>
<polygon fill="#63b8ff" stroke="#63b8ff" points="150.21,-45.99 144.6,-54.98 154.59,-51.45 150.21,-45.99"/>
</a>
</g>
</g>
<!-- Node2 -->
<g id="Node000002" class="node">
<title>Node2</title>
<g id="a_Node000002"><a xlink:href="class_acts_1_1_surface.html" target="_top" xlink:title="Abstract Base Class for tracking surfaces.">
<polygon fill="white" stroke="#666666" points="174,-129 94,-129 94,-110 174,-110 174,-129"/>
<text text-anchor="middle" x="134" y="-117" font-family="Helvetica,sans-Serif" font-size="10.00">Acts::Surface</text>
</a>
</g>
</g>
<!-- Node2&#45;&gt;Node1 -->
<g id="edge1_Node000001_Node000002" class="edge">
<title>Node2&#45;&gt;Node1</title>
<g id="a_edge1_Node000001_Node000002"><a xlink:title=" ">
<path fill="none" stroke="#63b8ff" d="M134,-99.66C134,-90.93 134,-80.99 134,-74.09"/>
<polygon fill="#63b8ff" stroke="#63b8ff" points="130.5,-99.75 134,-109.75 137.5,-99.75 130.5,-99.75"/>
</a>
</g>
</g>
<!-- Node3 -->
<g id="Node000003" class="node">
<title>Node3</title>
<g id="a_Node000003"><a xlink:href="class_acts_1_1_geometry_object.html" target="_top" xlink:title="Base class to provide GeometryIdentifier interface:">
<polygon fill="white" stroke="#666666" points="124,-189.5 0,-189.5 0,-170.5 124,-170.5 124,-189.5"/>
<text text-anchor="middle" x="62" y="-177.5" font-family="Helvetica,sans-Serif" font-size="10.00">Acts::GeometryObject</text>
</a>
</g>
</g>
<!-- Node3&#45;&gt;Node2 -->
<g id="edge2_Node000002_Node000003" class="edge">
<title>Node3&#45;&gt;Node2</title>
<g id="a_edge2_Node000002_Node000003"><a xlink:title=" ">
<path fill="none" stroke="#63b8ff" d="M80.42,-164.04C94.01,-152.99 112.04,-138.34 123.33,-129.17"/>
<polygon fill="#63b8ff" stroke="#63b8ff" points="78.18,-161.35 72.62,-170.37 82.59,-166.78 78.18,-161.35"/>
</a>
</g>
</g>
<!-- Node4 -->
<g id="Node000004" class="node">
<title>Node4</title>
<g id="a_Node000004"><a xlink:title=" ">
<polygon fill="white" stroke="#666666" points="270,-195 142,-195 142,-165 270,-165 270,-195"/>
<text text-anchor="start" x="150" y="-183" font-family="Helvetica,sans-Serif" font-size="10.00">std::enable_shared</text>
<text text-anchor="middle" x="206" y="-172" font-family="Helvetica,sans-Serif" font-size="10.00">_from_this&lt; Surface &gt;</text>
</a>
</g>
</g>
<!-- Node4&#45;&gt;Node2 -->
<g id="edge3_Node000002_Node000004" class="edge">
<title>Node4&#45;&gt;Node2</title>
<g id="a_edge3_Node000002_Node000004"><a xlink:title=" ">
<path fill="none" stroke="#63b8ff" d="M180.81,-158.53C168.48,-148.51 154.28,-136.98 144.79,-129.27"/>
<polygon fill="#63b8ff" stroke="#63b8ff" points="178.6,-161.25 188.57,-164.84 183.02,-155.82 178.6,-161.25"/>
</a>
</g>
</g>
</g>
</svg>
