<?xml version="1.0" encoding="UTF-8" standalone="no"?>
<!DOCTYPE svg PUBLIC "-//W3C//DTD SVG 1.1//EN"
 "http://www.w3.org/Graphics/SVG/1.1/DTD/svg11.dtd">
<!-- Generated by graphviz version 2.43.0 (0)
 -->
<!-- Title: Acts::Experimental::GbtsGeometry Pages: 1 -->
<svg width="676pt" height="217pt"
 viewBox="0.00 0.00 676.00 217.00" xmlns="http://www.w3.org/2000/svg" xmlns:xlink="http://www.w3.org/1999/xlink">
<g id="graph0" class="graph" transform="scale(1 1) rotate(0) translate(4 213)">
<title>Acts::Experimental::GbtsGeometry</title>
<!-- Node1 -->
<g id="Node000001" class="node">
<title>Node1</title>
<g id="a_Node000001"><a xlink:title=" ">
<polygon fill="#999999" stroke="#666666" points="668,-105 559,-105 559,-75 668,-75 668,-105"/>
<text text-anchor="start" x="567" y="-93" font-family="Helvetica,sans-Serif" font-size="10.00">Acts::Experimental</text>
<text text-anchor="middle" x="613.5" y="-82" font-family="Helvetica,sans-Serif" font-size="10.00">::GbtsGeometry</text>
</a>
</g>
</g>
<!-- Node2 -->
<g id="Node000002" class="node">
<title>Node2</title>
<g id="a_Node000002"><a xlink:title=" ">
<polygon fill="white" stroke="#666666" points="439.5,-197.5 308.5,-197.5 308.5,-156.5 439.5,-156.5 439.5,-197.5"/>
<text text-anchor="start" x="316.5" y="-185.5" font-family="Helvetica,sans-Serif" font-size="10.00">std::map&lt; unsigned</text>
<text text-anchor="start" x="316.5" y="-174.5" font-family="Helvetica,sans-Serif" font-size="10.00"> int, Acts::Experimental</text>
<text text-anchor="middle" x="374" y="-163.5" font-family="Helvetica,sans-Serif" font-size="10.00">::GbtsLayer * &gt;</text>
</a>
</g>
</g>
<!-- Node2&#45;&gt;Node1 -->
<g id="edge1_Node000001_Node000002" class="edge">
<title>Node2&#45;&gt;Node1</title>
<g id="a_edge1_Node000001_Node000002"><a xlink:title=" ">
<path fill="none" stroke="#9a32cd" stroke-dasharray="5,2" d="M449.46,-157.75C478.45,-149.44 511.68,-138.88 541,-127 556.41,-120.75 572.95,-112.32 586.23,-105.08"/>
<polygon fill="#9a32cd" stroke="#9a32cd" points="448.48,-154.39 439.81,-160.48 450.38,-161.13 448.48,-154.39"/>
</a>
</g>
<text text-anchor="start" x="479.5" y="-155.5" font-family="Helvetica,sans-Serif" font-size="10.00" fill="grey">m_layMap</text>
</g>
<!-- Node3 -->
<g id="Node000003" class="node">
<title>Node3</title>
<g id="a_Node000003"><a xlink:title=" ">
<polygon fill="white" stroke="#666666" points="101,-187.5 0,-187.5 0,-168.5 101,-168.5 101,-187.5"/>
<text text-anchor="middle" x="50.5" y="-175.5" font-family="Helvetica,sans-Serif" font-size="10.00">std::map&lt; K, T &gt;</text>
</a>
</g>
</g>
<!-- Node3&#45;&gt;Node2 -->
<g id="edge2_Node000002_Node000003" class="edge">
<title>Node3&#45;&gt;Node2</title>
<g id="a_edge2_Node000002_Node000003"><a xlink:title=" ">
<path fill="none" stroke="orange" stroke-dasharray="5,2" d="M111.16,-177.81C167.2,-177.64 250.83,-177.38 308.42,-177.2"/>
<polygon fill="orange" stroke="orange" points="111.02,-174.31 101.03,-177.85 111.04,-181.31 111.02,-174.31"/>
</a>
</g>
<text text-anchor="start" x="122.5" y="-198" font-family="Helvetica,sans-Serif" font-size="10.00" fill="grey">&lt; unsigned int, Acts</text>
<text text-anchor="start" x="122.5" y="-183" font-family="Helvetica,sans-Serif" font-size="10.00" fill="grey">  ::Experimental::GbtsLayer * &gt;</text>
</g>
<!-- Node4 -->
<g id="Node000004" class="node">
<title>Node4</title>
<g id="a_Node000004"><a xlink:title=" ">
<polygon fill="white" stroke="#666666" points="443.5,-138.5 304.5,-138.5 304.5,-97.5 443.5,-97.5 443.5,-138.5"/>
<text text-anchor="start" x="312.5" y="-126.5" font-family="Helvetica,sans-Serif" font-size="10.00">std::vector&lt; std::unique</text>
<text text-anchor="start" x="312.5" y="-115.5" font-family="Helvetica,sans-Serif" font-size="10.00">_ptr&lt; Acts::Experimental</text>
<text text-anchor="middle" x="374" y="-104.5" font-family="Helvetica,sans-Serif" font-size="10.00">::GbtsLayer &gt; &gt;</text>
</a>
</g>
</g>
<!-- Node4&#45;&gt;Node1 -->
<g id="edge3_Node000001_Node000004" class="edge">
<title>Node4&#45;&gt;Node1</title>
<g id="a_edge3_Node000001_Node000004"><a xlink:title=" ">
<path fill="none" stroke="#9a32cd" stroke-dasharray="5,2" d="M453.73,-108.72C488.16,-104.66 527.67,-100 558.66,-96.35"/>
<polygon fill="#9a32cd" stroke="#9a32cd" points="453.22,-105.25 443.69,-109.9 454.04,-112.21 453.22,-105.25"/>
</a>
</g>
<text text-anchor="start" x="477.5" y="-111.5" font-family="Helvetica,sans-Serif" font-size="10.00" fill="grey">m_layArray</text>
</g>
<!-- Node5 -->
<g id="Node000005" class="node">
<title>Node5</title>
<g id="a_Node000005"><a xlink:title=" ">
<polygon fill="white" stroke="#666666" points="99,-77.5 2,-77.5 2,-58.5 99,-58.5 99,-77.5"/>
<text text-anchor="middle" x="50.5" y="-65.5" font-family="Helvetica,sans-Serif" font-size="10.00">std::vector&lt; T &gt;</text>
</a>
</g>
</g>
<!-- Node5&#45;&gt;Node4 -->
<g id="edge4_Node000004_Node000005" class="edge">
<title>Node5&#45;&gt;Node4</title>
<g id="a_edge4_Node000004_Node000005"><a xlink:title=" ">
<path fill="none" stroke="orange" stroke-dasharray="5,2" d="M93.27,-80.08C101.74,-82.26 110.62,-84.36 119,-86 181.27,-98.17 253.07,-106.71 304.41,-111.9"/>
<polygon fill="orange" stroke="orange" points="94.13,-76.69 83.57,-77.5 92.33,-83.45 94.13,-76.69"/>
</a>
</g>
<text text-anchor="start" x="147.5" y="-143.5" font-family="Helvetica,sans-Serif" font-size="10.00" fill="grey">&lt; std::unique_ptr&lt;</text>
<text text-anchor="start" x="147.5" y="-128.5" font-family="Helvetica,sans-Serif" font-size="10.00" fill="grey">   Acts::Experimental</text>
<text text-anchor="start" x="147.5" y="-113.5" font-family="Helvetica,sans-Serif" font-size="10.00" fill="grey">  ::GbtsLayer &gt; &gt;</text>
</g>
<!-- Node6 -->
<g id="Node000006" class="node">
<title>Node6</title>
<g id="a_Node000006"><a xlink:title=" ">
<polygon fill="white" stroke="#666666" points="436,-79 312,-79 312,-49 436,-49 436,-79"/>
<text text-anchor="start" x="320" y="-67" font-family="Helvetica,sans-Serif" font-size="10.00">std::vector&lt; unsigned</text>
<text text-anchor="middle" x="374" y="-56" font-family="Helvetica,sans-Serif" font-size="10.00"> int &gt;</text>
</a>
</g>
</g>
<!-- Node5&#45;&gt;Node6 -->
<g id="edge6_Node000006_Node000005" class="edge">
<title>Node5&#45;&gt;Node6</title>
<g id="a_edge6_Node000006_Node000005"><a xlink:title=" ">
<path fill="none" stroke="orange" stroke-dasharray="5,2" d="M109.59,-67.28C166.71,-66.57 253.55,-65.49 311.74,-64.76"/>
<polygon fill="orange" stroke="orange" points="109.24,-63.78 99.28,-67.41 109.33,-70.78 109.24,-63.78"/>
</a>
</g>
<text text-anchor="start" x="157.5" y="-72.5" font-family="Helvetica,sans-Serif" font-size="10.00" fill="grey">&lt; unsigned int &gt;</text>
</g>
<!-- Node7 -->
<g id="Node000007" class="node">
<title>Node7</title>
<g id="a_Node000007"><a xlink:title=" ">
<polygon fill="white" stroke="#666666" points="452,-30 296,-30 296,0 452,0 452,-30"/>
<text text-anchor="start" x="304" y="-18" font-family="Helvetica,sans-Serif" font-size="10.00">std::vector&lt; std::pair</text>
<text text-anchor="middle" x="374" y="-7" font-family="Helvetica,sans-Serif" font-size="10.00">&lt; int, std::vector&lt; int &gt; &gt; &gt;</text>
</a>
</g>
</g>
<!-- Node5&#45;&gt;Node7 -->
<g id="edge8_Node000007_Node000005" class="edge">
<title>Node5&#45;&gt;Node7</title>
<g id="a_edge8_Node000007_Node000005"><a xlink:title=" ">
<path fill="none" stroke="orange" stroke-dasharray="5,2" d="M72.57,-52.36C85.32,-43.81 102.3,-33.97 119,-29 176.56,-11.85 244.65,-8.97 295.84,-10.04"/>
<polygon fill="orange" stroke="orange" points="70.3,-49.68 64.1,-58.27 74.31,-55.42 70.3,-49.68"/>
</a>
</g>
<text text-anchor="start" x="148.5" y="-50" font-family="Helvetica,sans-Serif" font-size="10.00" fill="grey">&lt; std::pair&lt; int, std</text>
<text text-anchor="start" x="148.5" y="-35" font-family="Helvetica,sans-Serif" font-size="10.00" fill="grey">  ::vector&lt; int &gt; &gt; &gt;</text>
</g>
<!-- Node6&#45;&gt;Node1 -->
<g id="edge5_Node000001_Node000006" class="edge">
<title>Node6&#45;&gt;Node1</title>
<g id="a_edge5_Node000001_Node000006"><a xlink:title=" ">
<path fill="none" stroke="#9a32cd" stroke-dasharray="5,2" d="M446.48,-66.53C475.86,-68.15 510.16,-70.76 541,-75 546.78,-75.79 552.79,-76.79 558.76,-77.88"/>
<polygon fill="#9a32cd" stroke="#9a32cd" points="446.48,-63.03 436.31,-66 446.11,-70.02 446.48,-63.03"/>
</a>
</g>
<text text-anchor="start" x="473.5" y="-80.5" font-family="Helvetica,sans-Serif" font-size="10.00" fill="grey">m_layerKeys</text>
</g>
<!-- Node7&#45;&gt;Node1 -->
<g id="edge7_Node000001_Node000007" class="edge">
<title>Node7&#45;&gt;Node1</title>
<g id="a_edge7_Node000001_Node000007"><a xlink:title=" ">
<path fill="none" stroke="#9a32cd" stroke-dasharray="5,2" d="M462.34,-25.91C488.19,-30.71 516.2,-37.5 541,-47 559.26,-54 578.15,-65.57 591.92,-74.95"/>
<polygon fill="#9a32cd" stroke="#9a32cd" points="462.63,-22.41 452.17,-24.11 461.41,-29.3 462.63,-22.41"/>
</a>
</g>
<text text-anchor="start" x="473.5" y="-52.5" font-family="Helvetica,sans-Serif" font-size="10.00" fill="grey">m_binGroups</text>
</g>
</g>
</svg>
