<?xml version="1.0" encoding="UTF-8" standalone="no"?>
<!DOCTYPE svg PUBLIC "-//W3C//DTD SVG 1.1//EN"
 "http://www.w3.org/Graphics/SVG/1.1/DTD/svg11.dtd">
<!-- Generated by graphviz version 2.43.0 (0)
 -->
<!-- Title: Acts::BoundarySurfaceT&lt; volume_t &gt; Pages: 1 -->
<svg width="783pt" height="93pt"
 viewBox="0.00 0.00 783.00 93.00" xmlns="http://www.w3.org/2000/svg" xmlns:xlink="http://www.w3.org/1999/xlink">
<g id="graph0" class="graph" transform="scale(1 1) rotate(0) translate(4 89)">
<title>Acts::BoundarySurfaceT&lt; volume_t &gt;</title>
<!-- Node1 -->
<g id="Node000001" class="node">
<title>Node1</title>
<g id="a_Node000001"><a xlink:title=" ">
<polygon fill="#999999" stroke="#666666" points="775,-57 642,-57 642,-27 775,-27 775,-57"/>
<text text-anchor="start" x="650" y="-45" font-family="Helvetica,sans-Serif" font-size="10.00">Acts::BoundarySurfaceT</text>
<text text-anchor="middle" x="708.5" y="-34" font-family="Helvetica,sans-Serif" font-size="10.00">&lt; volume_t &gt;</text>
</a>
</g>
</g>
<!-- Node2 -->
<g id="Node000002" class="node">
<title>Node2</title>
<g id="a_Node000002"><a xlink:title=" ">
<polygon fill="white" stroke="#666666" points="444.5,-85 322.5,-85 322.5,-55 444.5,-55 444.5,-85"/>
<text text-anchor="start" x="330.5" y="-73" font-family="Helvetica,sans-Serif" font-size="10.00">std::shared_ptr&lt; Acts</text>
<text text-anchor="middle" x="383.5" y="-62" font-family="Helvetica,sans-Serif" font-size="10.00">::RegularSurface &gt;</text>
</a>
</g>
</g>
<!-- Node2&#45;&gt;Node1 -->
<g id="edge1_Node000001_Node000002" class="edge">
<title>Node2&#45;&gt;Node1</title>
<g id="a_edge1_Node000001_Node000002"><a xlink:title=" ">
<path fill="none" stroke="#9a32cd" stroke-dasharray="5,2" d="M455,-63.89C510.6,-59.07 587.57,-52.4 641.87,-47.69"/>
<polygon fill="#9a32cd" stroke="#9a32cd" points="454.54,-60.42 444.87,-64.77 455.14,-67.39 454.54,-60.42"/>
</a>
</g>
<text text-anchor="start" x="534.5" y="-65.5" font-family="Helvetica,sans-Serif" font-size="10.00" fill="grey">m_surface</text>
</g>
<!-- Node3 -->
<g id="Node000003" class="node">
<title>Node3</title>
<g id="a_Node000003"><a xlink:title=" ">
<polygon fill="white" stroke="#666666" points="118,-51.5 0,-51.5 0,-32.5 118,-32.5 118,-51.5"/>
<text text-anchor="middle" x="59" y="-39.5" font-family="Helvetica,sans-Serif" font-size="10.00">std::shared_ptr&lt; T &gt;</text>
</a>
</g>
</g>
<!-- Node3&#45;&gt;Node2 -->
<g id="edge2_Node000002_Node000003" class="edge">
<title>Node3&#45;&gt;Node2</title>
<g id="a_edge2_Node000002_Node000003"><a xlink:title=" ">
<path fill="none" stroke="orange" stroke-dasharray="5,2" d="M128.13,-47.91C185.69,-52.91 267.34,-60 322.48,-64.79"/>
<polygon fill="orange" stroke="orange" points="128.29,-44.42 118.03,-47.04 127.69,-51.39 128.29,-44.42"/>
</a>
</g>
<text text-anchor="start" x="141" y="-65.5" font-family="Helvetica,sans-Serif" font-size="10.00" fill="grey">&lt; Acts::RegularSurface &gt;</text>
</g>
<!-- Node4 -->
<g id="Node000004" class="node">
<title>Node4</title>
<g id="a_Node000004"><a xlink:title=" ">
<polygon fill="white" stroke="#666666" points="479,-30 288,-30 288,0 479,0 479,-30"/>
<text text-anchor="start" x="296" y="-18" font-family="Helvetica,sans-Serif" font-size="10.00">std::shared_ptr&lt; const</text>
<text text-anchor="middle" x="383.5" y="-7" font-family="Helvetica,sans-Serif" font-size="10.00"> Acts::BinnedArray&lt; VolumePtr &gt; &gt;</text>
</a>
</g>
</g>
<!-- Node3&#45;&gt;Node4 -->
<g id="edge4_Node000004_Node000003" class="edge">
<title>Node3&#45;&gt;Node4</title>
<g id="a_edge4_Node000004_Node000003"><a xlink:title=" ">
<path fill="none" stroke="orange" stroke-dasharray="5,2" d="M91.11,-28.79C104.64,-23.73 120.84,-18.55 136,-16 185.69,-7.63 241.82,-6.75 287.95,-8.24"/>
<polygon fill="orange" stroke="orange" points="89.84,-25.54 81.79,-32.43 92.37,-32.06 89.84,-25.54"/>
</a>
</g>
<text text-anchor="start" x="139" y="-37" font-family="Helvetica,sans-Serif" font-size="10.00" fill="grey">&lt; const Acts::BinnedArray</text>
<text text-anchor="start" x="139" y="-22" font-family="Helvetica,sans-Serif" font-size="10.00" fill="grey">  &lt; VolumePtr &gt; &gt;</text>
</g>
<!-- Node4&#45;&gt;Node1 -->
<g id="edge3_Node000001_Node000004" class="edge">
<title>Node4&#45;&gt;Node1</title>
<g id="a_edge3_Node000001_Node000004"><a xlink:title=" ">
<path fill="none" stroke="#9a32cd" stroke-dasharray="5,2" d="M489.39,-8.72C531.46,-7.94 580.25,-9.25 624,-16 638.56,-18.24 654.07,-22.52 667.72,-26.97"/>
<polygon fill="#9a32cd" stroke="#9a32cd" points="489.05,-5.23 479.13,-8.95 489.21,-12.22 489.05,-5.23"/>
</a>
</g>
<text text-anchor="start" x="500.5" y="-37" font-family="Helvetica,sans-Serif" font-size="10.00" fill="grey">m_alongVolumeArray</text>
<text text-anchor="start" x="500.5" y="-22" font-family="Helvetica,sans-Serif" font-size="10.00" fill="grey">m_oppositeVolumeArray</text>
</g>
</g>
</svg>
