<?xml version="1.0" encoding="UTF-8" standalone="no"?>
<!DOCTYPE svg PUBLIC "-//W3C//DTD SVG 1.1//EN"
 "http://www.w3.org/Graphics/SVG/1.1/DTD/svg11.dtd">
<!-- Generated by graphviz version 2.43.0 (0)
 -->
<!-- Title: Acts::Experimental::GbtsLayer Pages: 1 -->
<!--zoomable 155 -->

<svg id="main" version="1.1" xmlns="http://www.w3.org/2000/svg" xmlns:xlink="http://www.w3.org/1999/xlink" xml:space="preserve" onload="init(evt)">

<style type="text/css"><![CDATA[
.node, .edge {opacity: 0.7;}
.node.selected, .edge.selected {opacity: 1;}
.edge:hover path { stroke: red; }
.edge:hover polygon { stroke: red; fill: red; }
]]></style>

<defs>
  <circle id="rim" cx="0" cy="0" r="7"/>
  <circle id="rim2" cx="0" cy="0" r="3.5"/>
  <g id="zoomPlus">
    <use xlink:href="#rim" fill="#404040"><set attributeName="fill" to="#808080" begin="zoomplus.mouseover" end="zoomplus.mouseout"/></use>
    <path d="M-4,0h8M0,-4v8" fill="none" stroke="white" stroke-width="1.5" pointer-events="none"/>
  </g>
  <g id="zoomMin">
    <use xlink:href="#rim" fill="#404040"><set attributeName="fill" to="#808080" begin="zoomminus.mouseover" end="zoomminus.mouseout"/></use>
    <path d="M-4,0h8" fill="none" stroke="white" stroke-width="1.5" pointer-events="none"/>
  </g>
  <g id="arrowUp" transform="translate(30 24)">
    <use xlink:href="#rim"/>
    <path pointer-events="none" fill="none" stroke="white" stroke-width="1.5" d="M0,-3.0v7 M-2.5,-0.5L0,-3.0L2.5,-0.5"/>
  </g>
  <g id="arrowRight" transform="rotate(90) translate(36 -43)">
    <use xlink:href="#rim"/>
    <path pointer-events="none" fill="none" stroke="white" stroke-width="1.5" d="M0,-3.0v7 M-2.5,-0.5L0,-3.0L2.5,-0.5"/>
  </g>
  <g id="arrowDown" transform="rotate(180) translate(-30 -48)">
    <use xlink:href="#rim"/>
    <path pointer-events="none" fill="none" stroke="white" stroke-width="1.5" d="M0,-3.0v7 M-2.5,-0.5L0,-3.0L2.5,-0.5"/>
  </g>
  <g id="arrowLeft" transform="rotate(270) translate(-36 17)">
    <use xlink:href="#rim"/>
    <path pointer-events="none" fill="none" stroke="white" stroke-width="1.5" d="M0,-3.0v7 M-2.5,-0.5L0,-3.0L2.5,-0.5"/>
  </g>
  <g id="resetDef">
    <use xlink:href="#rim2" fill="#404040"><set attributeName="fill" to="#808080" begin="reset.mouseover" end="reset.mouseout"/></use>
  </g>
</defs>
<script type="application/ecmascript">
var viewWidth = 604;
var viewHeight = 155;
var sectionId = 'dynsection-0';
</script>
<script type="application/ecmascript" xlink:href="svg.min.js"/>
<svg id="graph" class="graph">
<g id="viewport">
<title>Acts::Experimental::GbtsLayer</title>
<!-- Node1 -->
<g id="Node000001" class="node">
<title>Node1</title>
<g id="a_Node000001"><a xlink:title=" ">
<polygon fill="#999999" stroke="#666666" points="596,-106.5 487,-106.5 487,-76.5 596,-76.5 596,-106.5"/>
<text text-anchor="start" x="495" y="-94.5" font-family="Helvetica,sans-Serif" font-size="10.00">Acts::Experimental</text>
<text text-anchor="middle" x="541.5" y="-83.5" font-family="Helvetica,sans-Serif" font-size="10.00">::GbtsLayer</text>
</a>
</g>
</g>
<!-- Node2 -->
<g id="Node000002" class="node">
<title>Node2</title>
<g id="a_Node000002"><a xlink:href="class_acts_1_1_experimental_1_1_trig_in_det_si_layer.html" target="_top" xlink:title=" ">
<polygon fill="white" stroke="#666666" points="344.5,-146.5 235.5,-146.5 235.5,-116.5 344.5,-116.5 344.5,-146.5"/>
<text text-anchor="start" x="243.5" y="-134.5" font-family="Helvetica,sans-Serif" font-size="10.00">Acts::Experimental</text>
<text text-anchor="middle" x="290" y="-123.5" font-family="Helvetica,sans-Serif" font-size="10.00">::TrigInDetSiLayer</text>
</a>
</g>
</g>
<!-- Node2&#45;&gt;Node1 -->
<g id="edge1_Node000001_Node000002" class="edge">
<title>Node2&#45;&gt;Node1</title>
<g id="a_edge1_Node000001_Node000002"><a xlink:title=" ">
<path fill="none" stroke="#9a32cd" stroke-dasharray="5,2" d="M354.9,-125.54C388.93,-121.87 431.41,-116.53 469,-109.5 474.79,-108.42 480.8,-107.14 486.78,-105.78"/>
<polygon fill="#9a32cd" stroke="#9a32cd" points="354.2,-122.09 344.62,-126.62 354.93,-129.05 354.2,-122.09"/>
</a>
</g>
<text text-anchor="start" x="405" y="-127" font-family="Helvetica,sans-Serif" font-size="10.00" fill="grey">m_layer</text>
</g>
<!-- Node3 -->
<g id="Node000003" class="node">
<title>Node3</title>
<g id="a_Node000003"><a xlink:title=" ">
<polygon fill="white" stroke="#666666" points="363,-93 217,-93 217,-74 363,-74 363,-93"/>
<text text-anchor="middle" x="290" y="-81" font-family="Helvetica,sans-Serif" font-size="10.00">std::vector&lt; std::int32_t &gt;</text>
</a>
</g>
</g>
<!-- Node3&#45;&gt;Node1 -->
<g id="edge2_Node000001_Node000003" class="edge">
<title>Node3&#45;&gt;Node1</title>
<g id="a_edge2_Node000001_Node000003"><a xlink:title=" ">
<path fill="none" stroke="#9a32cd" stroke-dasharray="5,2" d="M373.51,-86.15C410.76,-87.34 453.72,-88.72 486.73,-89.78"/>
<polygon fill="#9a32cd" stroke="#9a32cd" points="373.27,-82.64 363.17,-85.81 373.05,-89.63 373.27,-82.64"/>
</a>
</g>
<text text-anchor="start" x="407" y="-94" font-family="Helvetica,sans-Serif" font-size="10.00" fill="grey">m_bins</text>
</g>
<!-- Node4 -->
<g id="Node000004" class="node">
<title>Node4</title>
<g id="a_Node000004"><a xlink:title=" ">
<polygon fill="white" stroke="#666666" points="97,-60 0,-60 0,-41 97,-41 97,-60"/>
<text text-anchor="middle" x="48.5" y="-48" font-family="Helvetica,sans-Serif" font-size="10.00">std::vector&lt; T &gt;</text>
</a>
</g>
</g>
<!-- Node4&#45;&gt;Node3 -->
<g id="edge3_Node000003_Node000004" class="edge">
<title>Node4&#45;&gt;Node3</title>
<g id="a_edge3_Node000003_Node000004"><a xlink:title=" ">
<path fill="none" stroke="orange" stroke-dasharray="5,2" d="M107.29,-58.46C141.12,-63.12 184.06,-69.04 219.7,-73.95"/>
<polygon fill="orange" stroke="orange" points="107.49,-54.96 97.1,-57.06 106.53,-61.89 107.49,-54.96"/>
</a>
</g>
<text text-anchor="start" x="118" y="-76" font-family="Helvetica,sans-Serif" font-size="10.00" fill="grey">&lt; std::int32_t &gt;</text>
</g>
<!-- Node5 -->
<g id="Node000005" class="node">
<title>Node5</title>
<g id="a_Node000005"><a xlink:title=" ">
<polygon fill="white" stroke="#666666" points="346.5,-19 233.5,-19 233.5,0 346.5,0 346.5,-19"/>
<text text-anchor="middle" x="290" y="-7" font-family="Helvetica,sans-Serif" font-size="10.00">std::vector&lt; float &gt;</text>
</a>
</g>
</g>
<!-- Node4&#45;&gt;Node5 -->
<g id="edge5_Node000005_Node000004" class="edge">
<title>Node4&#45;&gt;Node5</title>
<g id="a_edge5_Node000005_Node000004"><a xlink:title=" ">
<path fill="none" stroke="orange" stroke-dasharray="5,2" d="M106.96,-39.92C109.68,-39.44 112.37,-38.96 115,-38.5 154.52,-31.59 199.16,-24.16 233.32,-18.55"/>
<polygon fill="orange" stroke="orange" points="106.29,-36.48 97.06,-41.69 107.53,-43.37 106.29,-36.48"/>
</a>
</g>
<text text-anchor="start" x="135" y="-44" font-family="Helvetica,sans-Serif" font-size="10.00" fill="grey">&lt; float &gt;</text>
</g>
<!-- Node5&#45;&gt;Node1 -->
<g id="edge4_Node000001_Node000005" class="edge">
<title>Node5&#45;&gt;Node1</title>
<g id="a_edge4_Node000001_Node000005"><a xlink:title=" ">
<path fill="none" stroke="#9a32cd" stroke-dasharray="5,2" d="M356.8,-2.7C391.58,-1.74 434.16,-4.87 469,-20.5 495.81,-32.53 518.23,-59.35 530.47,-76.36"/>
<polygon fill="#9a32cd" stroke="#9a32cd" points="356.6,0.79 346.75,-3.1 356.88,-6.2 356.6,0.79"/>
</a>
</g>
<text text-anchor="start" x="384" y="-71.5" font-family="Helvetica,sans-Serif" font-size="10.00" fill="grey">m_maxBinCoord</text>
<text text-anchor="start" x="384" y="-56.5" font-family="Helvetica,sans-Serif" font-size="10.00" fill="grey">m_maxRadius</text>
<text text-anchor="start" x="384" y="-41.5" font-family="Helvetica,sans-Serif" font-size="10.00" fill="grey">m_minBinCoord</text>
<text text-anchor="start" x="384" y="-26.5" font-family="Helvetica,sans-Serif" font-size="10.00" fill="grey">m_minRadius</text>
</g>
</g>
</svg>

<g id="navigator" transform="translate(0 0)" fill="#404254">
  <rect fill="#f2f5e9" fill-opacity="0.5" stroke="#606060" stroke-width=".5" x="0" y="0" width="60" height="60"/>
  <use id="zoomplus" xlink:href="#zoomPlus" x="17" y="9" onmousedown="handleZoom(evt,'in')"/>
  <use id="zoomminus" xlink:href="#zoomMin" x="42" y="9" onmousedown="handleZoom(evt,'out')"/>
  <use id="reset" xlink:href="#resetDef" x="30" y="36" onmousedown="handleReset()"/>
   <use id="arrowup" xlink:href="#arrowUp" x="0" y="0" onmousedown="handlePan(0,-1)"/>
  <use id="arrowright" xlink:href="#arrowRight" x="0" y="0" onmousedown="handlePan(1,0)"/>
  <use id="arrowdown" xlink:href="#arrowDown" x="0" y="0" onmousedown="handlePan(0,1)"/>
  <use id="arrowleft" xlink:href="#arrowLeft" x="0" y="0" onmousedown="handlePan(-1,0)"/>
</g>
<svg viewBox="0 0 15 15" width="100%" height="30px" preserveAspectRatio="xMaxYMin meet">
 <g id="arrow_out" transform="scale(0.3 0.3)">
  <a xlink:href="class_acts_1_1_experimental_1_1_gbts_layer__coll__graph_org.svg" target="_base">
   <rect id="button" ry="5" rx="5" y="6" x="6" height="38" width="38"
        fill="#f2f5e9" fill-opacity="0.5" stroke="#606060" stroke-width="1.0"/>
   <path id="arrow"
     d="M 11.500037,31.436501 C 11.940474,20.09759 22.043105,11.32322 32.158766,21.979434 L 37.068811,17.246167 C 37.068811,17.246167 37.088388,32 37.088388,32 L 22.160133,31.978069 C 22.160133,31.978069 26.997745,27.140456 26.997745,27.140456 C 18.528582,18.264221 13.291696,25.230495 11.500037,31.436501 z"
     style="fill:#404040;"/>
  </a>
 </g>
</svg>

<style type='text/css'>
<![CDATA[
[data-mouse-over-selected='false'] { opacity: 0.7; }
[data-mouse-over-selected='true']  { opacity: 1.0; }
]]>
</style>
<script type="application/ecmascript"><![CDATA[
document.addEventListener('DOMContentLoaded', (event) => {
  highlightEdges();
  highlightAdjacentNodes();
});
]]></script>
</svg>
