<?xml version="1.0" encoding="UTF-8" standalone="no"?>
<!DOCTYPE svg PUBLIC "-//W3C//DTD SVG 1.1//EN"
 "http://www.w3.org/Graphics/SVG/1.1/DTD/svg11.dtd">
<!-- Generated by graphviz version 2.43.0 (0)
 -->
<!-- Title: Acts::Experimental::GbtsDataStorage Pages: 1 -->
<svg width="979pt" height="365pt"
 viewBox="0.00 0.00 979.00 365.00" xmlns="http://www.w3.org/2000/svg" xmlns:xlink="http://www.w3.org/1999/xlink">
<g id="graph0" class="graph" transform="scale(1 1) rotate(0) translate(4 361)">
<title>Acts::Experimental::GbtsDataStorage</title>
<!-- Node1 -->
<g id="Node000001" class="node">
<title>Node1</title>
<g id="a_Node000001"><a xlink:title=" ">
<polygon fill="#999999" stroke="#666666" points="971,-108 862,-108 862,-78 971,-78 971,-108"/>
<text text-anchor="start" x="870" y="-96" font-family="Helvetica,sans-Serif" font-size="10.00">Acts::Experimental</text>
<text text-anchor="middle" x="916.5" y="-85" font-family="Helvetica,sans-Serif" font-size="10.00">::GbtsDataStorage</text>
</a>
</g>
</g>
<!-- Node2 -->
<g id="Node000002" class="node">
<title>Node2</title>
<g id="a_Node000002"><a xlink:href="class_acts_1_1_experimental_1_1_gbts_geometry.html" target="_top" xlink:title=" ">
<polygon fill="white" stroke="#666666" points="764.5,-238 655.5,-238 655.5,-208 764.5,-208 764.5,-238"/>
<text text-anchor="start" x="663.5" y="-226" font-family="Helvetica,sans-Serif" font-size="10.00">Acts::Experimental</text>
<text text-anchor="middle" x="710" y="-215" font-family="Helvetica,sans-Serif" font-size="10.00">::GbtsGeometry</text>
</a>
</g>
</g>
<!-- Node2&#45;&gt;Node1 -->
<g id="edge1_Node000001_Node000002" class="edge">
<title>Node2&#45;&gt;Node1</title>
<g id="a_edge1_Node000001_Node000002"><a xlink:title=" ">
<path fill="none" stroke="#9a32cd" stroke-dasharray="5,2" d="M743.46,-202.37C784.78,-176.1 855.17,-131.35 891.79,-108.07"/>
<polygon fill="#9a32cd" stroke="#9a32cd" points="741.42,-199.51 734.86,-207.83 745.18,-205.42 741.42,-199.51"/>
</a>
</g>
<text text-anchor="start" x="801.5" y="-174.5" font-family="Helvetica,sans-Serif" font-size="10.00" fill="grey">m_geo</text>
</g>
<!-- Node3 -->
<g id="Node000003" class="node">
<title>Node3</title>
<g id="a_Node000003"><a xlink:title=" ">
<polygon fill="white" stroke="#666666" points="443,-345.5 312,-345.5 312,-304.5 443,-304.5 443,-345.5"/>
<text text-anchor="start" x="320" y="-333.5" font-family="Helvetica,sans-Serif" font-size="10.00">std::map&lt; unsigned</text>
<text text-anchor="start" x="320" y="-322.5" font-family="Helvetica,sans-Serif" font-size="10.00"> int, Acts::Experimental</text>
<text text-anchor="middle" x="377.5" y="-311.5" font-family="Helvetica,sans-Serif" font-size="10.00">::GbtsLayer * &gt;</text>
</a>
</g>
</g>
<!-- Node3&#45;&gt;Node2 -->
<g id="edge2_Node000002_Node000003" class="edge">
<title>Node3&#45;&gt;Node2</title>
<g id="a_edge2_Node000002_Node000003"><a xlink:title=" ">
<path fill="none" stroke="#9a32cd" stroke-dasharray="5,2" d="M453.34,-321.89C504.05,-317.59 571.65,-307.5 627,-284 652.8,-273.04 677.99,-252.37 693.49,-238.16"/>
<polygon fill="#9a32cd" stroke="#9a32cd" points="452.8,-318.42 443.11,-322.69 453.36,-325.4 452.8,-318.42"/>
</a>
</g>
<text text-anchor="start" x="524.5" y="-324.5" font-family="Helvetica,sans-Serif" font-size="10.00" fill="grey">m_layMap</text>
</g>
<!-- Node4 -->
<g id="Node000004" class="node">
<title>Node4</title>
<g id="a_Node000004"><a xlink:title=" ">
<polygon fill="white" stroke="#666666" points="102.5,-334.5 1.5,-334.5 1.5,-315.5 102.5,-315.5 102.5,-334.5"/>
<text text-anchor="middle" x="52" y="-322.5" font-family="Helvetica,sans-Serif" font-size="10.00">std::map&lt; K, T &gt;</text>
</a>
</g>
</g>
<!-- Node4&#45;&gt;Node3 -->
<g id="edge3_Node000003_Node000004" class="edge">
<title>Node4&#45;&gt;Node3</title>
<g id="a_edge3_Node000003_Node000004"><a xlink:title=" ">
<path fill="none" stroke="orange" stroke-dasharray="5,2" d="M113.05,-325C169.53,-325 253.86,-325 311.81,-325"/>
<polygon fill="orange" stroke="orange" points="112.84,-321.5 102.84,-325 112.84,-328.5 112.84,-321.5"/>
</a>
</g>
<text text-anchor="start" x="125.5" y="-346" font-family="Helvetica,sans-Serif" font-size="10.00" fill="grey">&lt; unsigned int, Acts</text>
<text text-anchor="start" x="125.5" y="-331" font-family="Helvetica,sans-Serif" font-size="10.00" fill="grey">  ::Experimental::GbtsLayer * &gt;</text>
</g>
<!-- Node5 -->
<g id="Node000005" class="node">
<title>Node5</title>
<g id="a_Node000005"><a xlink:title=" ">
<polygon fill="white" stroke="#666666" points="456,-286 299,-286 299,-256 456,-256 456,-286"/>
<text text-anchor="start" x="307" y="-274" font-family="Helvetica,sans-Serif" font-size="10.00">std::vector&lt; Acts::</text>
<text text-anchor="middle" x="377.5" y="-263" font-family="Helvetica,sans-Serif" font-size="10.00">Experimental::GbtsLayer * &gt;</text>
</a>
</g>
</g>
<!-- Node5&#45;&gt;Node2 -->
<g id="edge4_Node000002_Node000005" class="edge">
<title>Node5&#45;&gt;Node2</title>
<g id="a_edge4_Node000002_Node000005"><a xlink:title=" ">
<path fill="none" stroke="#9a32cd" stroke-dasharray="5,2" d="M466.15,-264.55C513.93,-260.26 573.98,-253.62 627,-244 636.25,-242.32 646.01,-240.17 655.43,-237.89"/>
<polygon fill="#9a32cd" stroke="#9a32cd" points="465.8,-261.06 456.14,-265.43 466.41,-268.04 465.8,-261.06"/>
</a>
</g>
<text text-anchor="start" x="522.5" y="-268.5" font-family="Helvetica,sans-Serif" font-size="10.00" fill="grey">m_layArray</text>
</g>
<!-- Node6 -->
<g id="Node000006" class="node">
<title>Node6</title>
<g id="a_Node000006"><a xlink:title=" ">
<polygon fill="white" stroke="#666666" points="100.5,-184.5 3.5,-184.5 3.5,-165.5 100.5,-165.5 100.5,-184.5"/>
<text text-anchor="middle" x="52" y="-172.5" font-family="Helvetica,sans-Serif" font-size="10.00">std::vector&lt; T &gt;</text>
</a>
</g>
</g>
<!-- Node6&#45;&gt;Node5 -->
<g id="edge5_Node000005_Node000006" class="edge">
<title>Node6&#45;&gt;Node5</title>
<g id="a_edge5_Node000005_Node000006"><a xlink:title=" ">
<path fill="none" stroke="orange" stroke-dasharray="5,2" d="M64.89,-193.14C77.04,-210 97.57,-234.23 122,-246 177,-272.49 246.34,-277.73 298.74,-276.91"/>
<polygon fill="orange" stroke="orange" points="67.59,-190.89 59.02,-184.65 61.83,-194.87 67.59,-190.89"/>
</a>
</g>
<text text-anchor="start" x="149.5" y="-297" font-family="Helvetica,sans-Serif" font-size="10.00" fill="grey">&lt; Acts::Experimental</text>
<text text-anchor="start" x="149.5" y="-282" font-family="Helvetica,sans-Serif" font-size="10.00" fill="grey">  ::GbtsLayer * &gt;</text>
</g>
<!-- Node7 -->
<g id="Node000007" class="node">
<title>Node7</title>
<g id="a_Node000007"><a xlink:title=" ">
<polygon fill="white" stroke="#666666" points="439.5,-238 315.5,-238 315.5,-208 439.5,-208 439.5,-238"/>
<text text-anchor="start" x="323.5" y="-226" font-family="Helvetica,sans-Serif" font-size="10.00">std::vector&lt; unsigned</text>
<text text-anchor="middle" x="377.5" y="-215" font-family="Helvetica,sans-Serif" font-size="10.00"> int &gt;</text>
</a>
</g>
</g>
<!-- Node6&#45;&gt;Node7 -->
<g id="edge7_Node000007_Node000006" class="edge">
<title>Node6&#45;&gt;Node7</title>
<g id="a_edge7_Node000007_Node000006"><a xlink:title=" ">
<path fill="none" stroke="orange" stroke-dasharray="5,2" d="M77.56,-189.62C90.36,-196.48 106.53,-204.01 122,-208 186.5,-224.64 263.12,-226.9 315.32,-225.94"/>
<polygon fill="orange" stroke="orange" points="78.94,-186.38 68.5,-184.57 75.54,-192.5 78.94,-186.38"/>
</a>
</g>
<text text-anchor="start" x="160.5" y="-230.5" font-family="Helvetica,sans-Serif" font-size="10.00" fill="grey">&lt; unsigned int &gt;</text>
</g>
<!-- Node8 -->
<g id="Node000008" class="node">
<title>Node8</title>
<g id="a_Node000008"><a xlink:title=" ">
<polygon fill="white" stroke="#666666" points="455.5,-190 299.5,-190 299.5,-160 455.5,-160 455.5,-190"/>
<text text-anchor="start" x="307.5" y="-178" font-family="Helvetica,sans-Serif" font-size="10.00">std::vector&lt; std::pair</text>
<text text-anchor="middle" x="377.5" y="-167" font-family="Helvetica,sans-Serif" font-size="10.00">&lt; int, std::vector&lt; int &gt; &gt; &gt;</text>
</a>
</g>
</g>
<!-- Node6&#45;&gt;Node8 -->
<g id="edge9_Node000008_Node000006" class="edge">
<title>Node6&#45;&gt;Node8</title>
<g id="a_edge9_Node000008_Node000006"><a xlink:title=" ">
<path fill="none" stroke="orange" stroke-dasharray="5,2" d="M110.9,-175C163.51,-175 241.51,-175 299.38,-175"/>
<polygon fill="orange" stroke="orange" points="110.73,-171.5 100.73,-175 110.73,-178.5 110.73,-171.5"/>
</a>
</g>
<text text-anchor="start" x="151.5" y="-196" font-family="Helvetica,sans-Serif" font-size="10.00" fill="grey">&lt; std::pair&lt; int, std</text>
<text text-anchor="start" x="151.5" y="-181" font-family="Helvetica,sans-Serif" font-size="10.00" fill="grey">  ::vector&lt; int &gt; &gt; &gt;</text>
</g>
<!-- Node12 -->
<g id="Node000012" class="node">
<title>Node12</title>
<g id="a_Node000012"><a xlink:title=" ">
<polygon fill="white" stroke="#666666" points="613.5,-135 487.5,-135 487.5,-105 613.5,-105 613.5,-135"/>
<text text-anchor="start" x="495.5" y="-123" font-family="Helvetica,sans-Serif" font-size="10.00">std::vector&lt; std::array</text>
<text text-anchor="middle" x="550.5" y="-112" font-family="Helvetica,sans-Serif" font-size="10.00">&lt; float, 5 &gt; &gt;</text>
</a>
</g>
</g>
<!-- Node6&#45;&gt;Node12 -->
<g id="edge14_Node000012_Node000006" class="edge">
<title>Node6&#45;&gt;Node12</title>
<g id="a_edge14_Node000012_Node000006"><a xlink:title=" ">
<path fill="none" stroke="orange" stroke-dasharray="5,2" d="M75.49,-160.06C88.5,-152.26 105.52,-143.43 122,-139 248.27,-105.05 402.98,-108.8 487.34,-114.46"/>
<polygon fill="orange" stroke="orange" points="73.42,-157.22 66.79,-165.48 77.12,-163.16 73.42,-157.22"/>
</a>
</g>
<text text-anchor="start" x="154.5" y="-160" font-family="Helvetica,sans-Serif" font-size="10.00" fill="grey">&lt; std::array&lt; float,</text>
<text text-anchor="start" x="154.5" y="-145" font-family="Helvetica,sans-Serif" font-size="10.00" fill="grey">   5 &gt; &gt;</text>
</g>
<!-- Node13 -->
<g id="Node000013" class="node">
<title>Node13</title>
<g id="a_Node000013"><a xlink:title=" ">
<polygon fill="white" stroke="#666666" points="627,-82 474,-82 474,-52 627,-52 627,-82"/>
<text text-anchor="start" x="482" y="-70" font-family="Helvetica,sans-Serif" font-size="10.00">std::vector&lt; Acts::</text>
<text text-anchor="middle" x="550.5" y="-59" font-family="Helvetica,sans-Serif" font-size="10.00">Experimental::GbtsEtaBin &gt;</text>
</a>
</g>
</g>
<!-- Node6&#45;&gt;Node13 -->
<g id="edge16_Node000013_Node000006" class="edge">
<title>Node6&#45;&gt;Node13</title>
<g id="a_edge16_Node000013_Node000006"><a xlink:title=" ">
<path fill="none" stroke="orange" stroke-dasharray="5,2" d="M60.33,-155.8C70.33,-132.62 90.68,-94.67 122,-78 238.17,-16.17 398.41,-34.69 486.01,-51.93"/>
<polygon fill="orange" stroke="orange" points="57,-154.7 56.46,-165.28 63.48,-157.34 57,-154.7"/>
</a>
</g>
<text text-anchor="start" x="149.5" y="-99" font-family="Helvetica,sans-Serif" font-size="10.00" fill="grey">&lt; Acts::Experimental</text>
<text text-anchor="start" x="149.5" y="-84" font-family="Helvetica,sans-Serif" font-size="10.00" fill="grey">  ::GbtsEtaBin &gt;</text>
</g>
<!-- Node7&#45;&gt;Node2 -->
<g id="edge6_Node000002_Node000007" class="edge">
<title>Node7&#45;&gt;Node2</title>
<g id="a_edge6_Node000002_Node000007"><a xlink:title=" ">
<path fill="none" stroke="#9a32cd" stroke-dasharray="5,2" d="M449.57,-223C511.34,-223 599.48,-223 655.45,-223"/>
<polygon fill="#9a32cd" stroke="#9a32cd" points="449.5,-219.5 439.5,-223 449.5,-226.5 449.5,-219.5"/>
</a>
</g>
<text text-anchor="start" x="518.5" y="-228.5" font-family="Helvetica,sans-Serif" font-size="10.00" fill="grey">m_layerKeys</text>
</g>
<!-- Node8&#45;&gt;Node2 -->
<g id="edge8_Node000002_Node000008" class="edge">
<title>Node8&#45;&gt;Node2</title>
<g id="a_edge8_Node000002_Node000008"><a xlink:title=" ">
<path fill="none" stroke="#9a32cd" stroke-dasharray="5,2" d="M465.61,-181.41C513.48,-185.69 573.78,-192.35 627,-202 636.25,-203.68 646.01,-205.83 655.43,-208.11"/>
<polygon fill="#9a32cd" stroke="#9a32cd" points="465.86,-177.91 455.59,-180.53 465.24,-184.89 465.86,-177.91"/>
</a>
</g>
<text text-anchor="start" x="518.5" y="-207.5" font-family="Helvetica,sans-Serif" font-size="10.00" fill="grey">m_binGroups</text>
</g>
<!-- Node9 -->
<g id="Node000009" class="node">
<title>Node9</title>
<g id="a_Node000009"><a xlink:href="struct_acts_1_1_experimental_1_1_seed_finder_gbts_config.html" target="_top" xlink:title=" ">
<polygon fill="white" stroke="#666666" points="775,-31 645,-31 645,-1 775,-1 775,-31"/>
<text text-anchor="start" x="653" y="-19" font-family="Helvetica,sans-Serif" font-size="10.00">Acts::Experimental</text>
<text text-anchor="middle" x="710" y="-8" font-family="Helvetica,sans-Serif" font-size="10.00">::SeedFinderGbtsConfig</text>
</a>
</g>
</g>
<!-- Node9&#45;&gt;Node1 -->
<g id="edge10_Node000001_Node000009" class="edge">
<title>Node9&#45;&gt;Node1</title>
<g id="a_edge10_Node000001_Node000009"><a xlink:title=" ">
<path fill="none" stroke="#9a32cd" stroke-dasharray="5,2" d="M785.29,-20.22C804.96,-23.18 825.77,-28.05 844,-36 866.56,-45.83 888.01,-64.66 901.43,-77.98"/>
<polygon fill="#9a32cd" stroke="#9a32cd" points="785.51,-16.71 775.13,-18.83 784.56,-23.65 785.51,-16.71"/>
</a>
</g>
<text text-anchor="start" x="796.5" y="-41.5" font-family="Helvetica,sans-Serif" font-size="10.00" fill="grey">m_config</text>
</g>
<!-- Node10 -->
<g id="Node000010" class="node">
<title>Node10</title>
<g id="a_Node000010"><a xlink:title=" ">
<polygon fill="white" stroke="#666666" points="410,-24.5 345,-24.5 345,-5.5 410,-5.5 410,-24.5"/>
<text text-anchor="middle" x="377.5" y="-12.5" font-family="Helvetica,sans-Serif" font-size="10.00">std::string</text>
</a>
</g>
</g>
<!-- Node10&#45;&gt;Node9 -->
<g id="edge11_Node000009_Node000010" class="edge">
<title>Node10&#45;&gt;Node9</title>
<g id="a_edge11_Node000009_Node000010"><a xlink:title=" ">
<path fill="none" stroke="#9a32cd" stroke-dasharray="5,2" d="M420.33,-12.87C437.02,-12.12 456.41,-11.37 474,-11 541.99,-9.58 559.03,-8.93 627,-11 632.7,-11.17 638.62,-11.42 644.56,-11.7"/>
<polygon fill="#9a32cd" stroke="#9a32cd" points="420.15,-9.37 410.32,-13.33 420.47,-16.37 420.15,-9.37"/>
</a>
</g>
<text text-anchor="start" x="505.5" y="-32" font-family="Helvetica,sans-Serif" font-size="10.00" fill="grey">connectorInputFile</text>
<text text-anchor="start" x="505.5" y="-17" font-family="Helvetica,sans-Serif" font-size="10.00" fill="grey">lutInputFile</text>
</g>
<!-- Node11 -->
<g id="Node000011" class="node">
<title>Node11</title>
<g id="a_Node000011"><a xlink:title=" ">
<polygon fill="white" stroke="#666666" points="104,-30 0,-30 0,0 104,0 104,-30"/>
<text text-anchor="start" x="8" y="-18" font-family="Helvetica,sans-Serif" font-size="10.00">std::basic_string&lt;</text>
<text text-anchor="middle" x="52" y="-7" font-family="Helvetica,sans-Serif" font-size="10.00"> Char &gt;</text>
</a>
</g>
</g>
<!-- Node11&#45;&gt;Node10 -->
<g id="edge12_Node000010_Node000011" class="edge">
<title>Node11&#45;&gt;Node10</title>
<g id="a_edge12_Node000010_Node000011"><a xlink:title=" ">
<path fill="none" stroke="#63b8ff" d="M114.49,-15C183.04,-15 291.25,-15 344.6,-15"/>
<polygon fill="#63b8ff" stroke="#63b8ff" points="114.26,-11.5 104.26,-15 114.26,-18.5 114.26,-11.5"/>
</a>
</g>
</g>
<!-- Node12&#45;&gt;Node1 -->
<g id="edge13_Node000001_Node000012" class="edge">
<title>Node12&#45;&gt;Node1</title>
<g id="a_edge13_Node000001_Node000012"><a xlink:title=" ">
<path fill="none" stroke="#9a32cd" stroke-dasharray="5,2" d="M623.75,-114.64C693.93,-109.44 798.85,-101.65 861.89,-96.98"/>
<polygon fill="#9a32cd" stroke="#9a32cd" points="623.37,-111.16 613.66,-115.39 623.89,-118.14 623.37,-111.16"/>
</a>
</g>
<text text-anchor="start" x="687" y="-117.5" font-family="Helvetica,sans-Serif" font-size="10.00" fill="grey">m_mlLUT</text>
</g>
<!-- Node13&#45;&gt;Node1 -->
<g id="edge15_Node000001_Node000013" class="edge">
<title>Node13&#45;&gt;Node1</title>
<g id="a_edge15_Node000001_Node000013"><a xlink:title=" ">
<path fill="none" stroke="#9a32cd" stroke-dasharray="5,2" d="M637.15,-71.91C678.77,-74.41 729.51,-77.63 775,-81 803.69,-83.12 835.64,-85.83 861.82,-88.13"/>
<polygon fill="#9a32cd" stroke="#9a32cd" points="637.24,-68.41 627.05,-71.31 636.82,-75.4 637.24,-68.41"/>
</a>
</g>
<text text-anchor="start" x="684" y="-86.5" font-family="Helvetica,sans-Serif" font-size="10.00" fill="grey">m_etaBins</text>
</g>
</g>
</svg>
