<?xml version="1.0" encoding="UTF-8" standalone="no"?>
<!DOCTYPE svg PUBLIC "-//W3C//DTD SVG 1.1//EN"
 "http://www.w3.org/Graphics/SVG/1.1/DTD/svg11.dtd">
<!-- Generated by graphviz version 2.43.0 (0)
 -->
<!-- Title: Acts::PlanarBounds Pages: 1 -->
<svg width="1012pt" height="181pt"
 viewBox="0.00 0.00 1012.00 180.50" xmlns="http://www.w3.org/2000/svg" xmlns:xlink="http://www.w3.org/1999/xlink">
<g id="graph0" class="graph" transform="scale(1 1) rotate(0) translate(4 176.5)">
<title>Acts::PlanarBounds</title>
<!-- Node1 -->
<g id="Node000001" class="node">
<title>Node1</title>
<g id="a_Node000001"><a xlink:title="common base class for all bounds that are in a local x/y cartesian frame">
<polygon fill="#999999" stroke="#666666" points="263,-93 153,-93 153,-74 263,-74 263,-93"/>
<text text-anchor="middle" x="208" y="-81" font-family="Helvetica,sans-Serif" font-size="10.00">Acts::PlanarBounds</text>
</a>
</g>
</g>
<!-- Node3 -->
<g id="Node000003" class="node">
<title>Node3</title>
<g id="a_Node000003"><a xlink:href="class_acts_1_1_convex_polygon_bounds_base.html" target="_top" xlink:title="base class for convex polygon bounds">
<polygon fill="white" stroke="#666666" points="479,-167 300,-167 300,-148 479,-148 479,-167"/>
<text text-anchor="middle" x="389.5" y="-155" font-family="Helvetica,sans-Serif" font-size="10.00">Acts::ConvexPolygonBoundsBase</text>
</a>
</g>
</g>
<!-- Node1&#45;&gt;Node3 -->
<g id="edge2_Node000001_Node000003" class="edge">
<title>Node1&#45;&gt;Node3</title>
<g id="a_edge2_Node000001_Node000003"><a xlink:title=" ">
<path fill="none" stroke="#63b8ff" d="M229.92,-99.34C247.67,-112.04 274.29,-129.34 300,-139.5 308.6,-142.9 317.94,-145.69 327.22,-147.96"/>
<polygon fill="#63b8ff" stroke="#63b8ff" points="231.64,-96.26 221.5,-93.19 227.51,-101.91 231.64,-96.26"/>
</a>
</g>
</g>
<!-- Node6 -->
<g id="Node000006" class="node">
<title>Node6</title>
<g id="a_Node000006"><a xlink:href="class_acts_1_1_diamond_bounds.html" target="_top" xlink:title=" ">
<polygon fill="white" stroke="#666666" points="451.5,-130 327.5,-130 327.5,-111 451.5,-111 451.5,-130"/>
<text text-anchor="middle" x="389.5" y="-118" font-family="Helvetica,sans-Serif" font-size="10.00">Acts::DiamondBounds</text>
</a>
</g>
</g>
<!-- Node1&#45;&gt;Node6 -->
<g id="edge7_Node000001_Node000006" class="edge">
<title>Node1&#45;&gt;Node6</title>
<g id="a_edge7_Node000001_Node000006"><a xlink:title=" ">
<path fill="none" stroke="#63b8ff" d="M265.2,-95.08C289.93,-100.18 318.63,-106.1 342.12,-110.94"/>
<polygon fill="#63b8ff" stroke="#63b8ff" points="265.73,-91.62 255.23,-93.03 264.31,-98.48 265.73,-91.62"/>
</a>
</g>
</g>
<!-- Node7 -->
<g id="Node000007" class="node">
<title>Node7</title>
<g id="a_Node000007"><a xlink:href="class_acts_1_1_ellipse_bounds.html" target="_top" xlink:title=" ">
<polygon fill="white" stroke="#666666" points="445.5,-93 333.5,-93 333.5,-74 445.5,-74 445.5,-93"/>
<text text-anchor="middle" x="389.5" y="-81" font-family="Helvetica,sans-Serif" font-size="10.00">Acts::EllipseBounds</text>
</a>
</g>
</g>
<!-- Node1&#45;&gt;Node7 -->
<g id="edge8_Node000001_Node000007" class="edge">
<title>Node1&#45;&gt;Node7</title>
<g id="a_edge8_Node000001_Node000007"><a xlink:title=" ">
<path fill="none" stroke="#63b8ff" d="M273.43,-83.5C293.06,-83.5 314.46,-83.5 333.41,-83.5"/>
<polygon fill="#63b8ff" stroke="#63b8ff" points="273.34,-80 263.34,-83.5 273.34,-87 273.34,-80"/>
</a>
</g>
</g>
<!-- Node8 -->
<g id="Node000008" class="node">
<title>Node8</title>
<g id="a_Node000008"><a xlink:href="class_acts_1_1_rectangle_bounds.html" target="_top" xlink:title=" ">
<polygon fill="white" stroke="#666666" points="453.5,-56 325.5,-56 325.5,-37 453.5,-37 453.5,-56"/>
<text text-anchor="middle" x="389.5" y="-44" font-family="Helvetica,sans-Serif" font-size="10.00">Acts::RectangleBounds</text>
</a>
</g>
</g>
<!-- Node1&#45;&gt;Node8 -->
<g id="edge9_Node000001_Node000008" class="edge">
<title>Node1&#45;&gt;Node8</title>
<g id="a_edge9_Node000001_Node000008"><a xlink:title=" ">
<path fill="none" stroke="#63b8ff" d="M264.48,-71.87C276.2,-69.42 288.51,-66.87 300,-64.5 313.36,-61.75 327.86,-58.79 341.18,-56.08"/>
<polygon fill="#63b8ff" stroke="#63b8ff" points="263.43,-68.51 254.35,-73.98 264.86,-75.37 263.43,-68.51"/>
</a>
</g>
</g>
<!-- Node9 -->
<g id="Node000009" class="node">
<title>Node9</title>
<g id="a_Node000009"><a xlink:href="class_acts_1_1_trapezoid_bounds.html" target="_top" xlink:title="Bounds for a trapezoidal, planar Surface.">
<polygon fill="white" stroke="#666666" points="452.5,-19 326.5,-19 326.5,0 452.5,0 452.5,-19"/>
<text text-anchor="middle" x="389.5" y="-7" font-family="Helvetica,sans-Serif" font-size="10.00">Acts::TrapezoidBounds</text>
</a>
</g>
</g>
<!-- Node1&#45;&gt;Node9 -->
<g id="edge10_Node000001_Node000009" class="edge">
<title>Node1&#45;&gt;Node9</title>
<g id="a_edge10_Node000001_Node000009"><a xlink:title=" ">
<path fill="none" stroke="#63b8ff" d="M229.92,-67.66C247.67,-54.96 274.29,-37.66 300,-27.5 308.6,-24.1 317.94,-21.31 327.22,-19.04"/>
<polygon fill="#63b8ff" stroke="#63b8ff" points="227.51,-65.09 221.5,-73.81 231.64,-70.74 227.51,-65.09"/>
</a>
</g>
</g>
<!-- Node2 -->
<g id="Node000002" class="node">
<title>Node2</title>
<g id="a_Node000002"><a xlink:href="class_acts_1_1_surface_bounds.html" target="_top" xlink:title="Interface for surface bounds.">
<polygon fill="white" stroke="#666666" points="116,-93 0,-93 0,-74 116,-74 116,-93"/>
<text text-anchor="middle" x="58" y="-81" font-family="Helvetica,sans-Serif" font-size="10.00">Acts::SurfaceBounds</text>
</a>
</g>
</g>
<!-- Node2&#45;&gt;Node1 -->
<g id="edge1_Node000001_Node000002" class="edge">
<title>Node2&#45;&gt;Node1</title>
<g id="a_edge1_Node000001_Node000002"><a xlink:title=" ">
<path fill="none" stroke="#63b8ff" d="M126.5,-83.5C135.32,-83.5 144.28,-83.5 152.85,-83.5"/>
<polygon fill="#63b8ff" stroke="#63b8ff" points="126.22,-80 116.22,-83.5 126.22,-87 126.22,-80"/>
</a>
</g>
</g>
<!-- Node4 -->
<g id="Node000004" class="node">
<title>Node4</title>
<g id="a_Node000004"><a xlink:href="class_acts_1_1_convex_polygon_bounds_3_01_polygon_dynamic_01_4.html" target="_top" xlink:title="This is the specialization handling a polygon with a dynamic number of points.">
<polygon fill="white" stroke="#666666" points="1004,-172.5 849,-172.5 849,-142.5 1004,-142.5 1004,-172.5"/>
<text text-anchor="start" x="857" y="-160.5" font-family="Helvetica,sans-Serif" font-size="10.00">Acts::ConvexPolygonBounds</text>
<text text-anchor="middle" x="926.5" y="-149.5" font-family="Helvetica,sans-Serif" font-size="10.00">&lt; PolygonDynamic &gt;</text>
</a>
</g>
</g>
<!-- Node3&#45;&gt;Node4 -->
<g id="edge3_Node000003_Node000004" class="edge">
<title>Node3&#45;&gt;Node4</title>
<g id="a_edge3_Node000003_Node000004"><a xlink:title=" ">
<path fill="none" stroke="#63b8ff" d="M489.32,-152.12C593.14,-150.15 754.22,-150.3 848.84,-152.6"/>
<polygon fill="#63b8ff" stroke="#63b8ff" points="489.07,-148.63 479.14,-152.33 489.21,-155.63 489.07,-148.63"/>
</a>
</g>
</g>
<!-- Node3&#45;&gt;Node4 -->
<g id="edge6_Node000003_Node000004" class="edge">
<title>Node3&#45;&gt;Node4</title>
<g id="a_edge6_Node000003_Node000004"><a xlink:title=" ">
<path fill="none" stroke="#63b8ff" d="M489.32,-162.88C593.14,-164.85 754.22,-164.7 848.84,-162.4"/>
<polygon fill="#63b8ff" stroke="#63b8ff" points="489.21,-159.37 479.14,-162.67 489.07,-166.37 489.21,-159.37"/>
</a>
</g>
</g>
<!-- Node5 -->
<g id="Node000005" class="node">
<title>Node5</title>
<g id="a_Node000005"><a xlink:href="class_acts_1_1_convex_polygon_bounds.html" target="_top" xlink:title="This is the actual implementation of the bounds.">
<polygon fill="white" stroke="#666666" points="701,-120 516,-120 516,-101 701,-101 701,-120"/>
<text text-anchor="middle" x="608.5" y="-108" font-family="Helvetica,sans-Serif" font-size="10.00">Acts::ConvexPolygonBounds&lt; N &gt;</text>
</a>
</g>
</g>
<!-- Node3&#45;&gt;Node5 -->
<g id="edge4_Node000003_Node000005" class="edge">
<title>Node3&#45;&gt;Node5</title>
<g id="a_edge4_Node000003_Node000005"><a xlink:title=" ">
<path fill="none" stroke="#63b8ff" d="M450.55,-145.88C460.09,-143.86 469.83,-141.7 479,-139.5 487.07,-137.56 488.94,-136.49 497,-134.5 517.87,-129.34 541.1,-124.2 560.86,-120.01"/>
<polygon fill="#63b8ff" stroke="#63b8ff" points="449.79,-142.46 440.72,-147.93 451.22,-149.32 449.79,-142.46"/>
</a>
</g>
</g>
<!-- Node5&#45;&gt;Node4 -->
<g id="edge5_Node000005_Node000004" class="edge">
<title>Node5&#45;&gt;Node4</title>
<g id="a_edge5_Node000005_Node000004"><a xlink:title=" ">
<path fill="none" stroke="orange" stroke-dasharray="5,2" d="M711.27,-105.91C749.23,-106.24 792.45,-109.04 831,-117.5 854.32,-122.62 879.12,-133.34 897.46,-142.39"/>
<polygon fill="orange" stroke="orange" points="711.24,-102.41 701.23,-105.89 711.21,-109.41 711.24,-102.41"/>
</a>
</g>
<text text-anchor="start" x="722" y="-123" font-family="Helvetica,sans-Serif" font-size="10.00" fill="grey">&lt; PolygonDynamic &gt;</text>
</g>
</g>
</svg>
