<?xml version="1.0" encoding="UTF-8" standalone="no"?>
<!DOCTYPE svg PUBLIC "-//W3C//DTD SVG 1.1//EN"
 "http://www.w3.org/Graphics/SVG/1.1/DTD/svg11.dtd">
<!-- Generated by graphviz version 2.43.0 (0)
 -->
<!-- Title: Acts::Experimental::GbtsDataStorage Pages: 1 -->
<!--zoomable 211 -->

<svg id="main" version="1.1" xmlns="http://www.w3.org/2000/svg" xmlns:xlink="http://www.w3.org/1999/xlink" xml:space="preserve" onload="init(evt)">

<style type="text/css"><![CDATA[
.node, .edge {opacity: 0.7;}
.node.selected, .edge.selected {opacity: 1;}
.edge:hover path { stroke: red; }
.edge:hover polygon { stroke: red; fill: red; }
]]></style>

<defs>
  <circle id="rim" cx="0" cy="0" r="7"/>
  <circle id="rim2" cx="0" cy="0" r="3.5"/>
  <g id="zoomPlus">
    <use xlink:href="#rim" fill="#404040"><set attributeName="fill" to="#808080" begin="zoomplus.mouseover" end="zoomplus.mouseout"/></use>
    <path d="M-4,0h8M0,-4v8" fill="none" stroke="white" stroke-width="1.5" pointer-events="none"/>
  </g>
  <g id="zoomMin">
    <use xlink:href="#rim" fill="#404040"><set attributeName="fill" to="#808080" begin="zoomminus.mouseover" end="zoomminus.mouseout"/></use>
    <path d="M-4,0h8" fill="none" stroke="white" stroke-width="1.5" pointer-events="none"/>
  </g>
  <g id="arrowUp" transform="translate(30 24)">
    <use xlink:href="#rim"/>
    <path pointer-events="none" fill="none" stroke="white" stroke-width="1.5" d="M0,-3.0v7 M-2.5,-0.5L0,-3.0L2.5,-0.5"/>
  </g>
  <g id="arrowRight" transform="rotate(90) translate(36 -43)">
    <use xlink:href="#rim"/>
    <path pointer-events="none" fill="none" stroke="white" stroke-width="1.5" d="M0,-3.0v7 M-2.5,-0.5L0,-3.0L2.5,-0.5"/>
  </g>
  <g id="arrowDown" transform="rotate(180) translate(-30 -48)">
    <use xlink:href="#rim"/>
    <path pointer-events="none" fill="none" stroke="white" stroke-width="1.5" d="M0,-3.0v7 M-2.5,-0.5L0,-3.0L2.5,-0.5"/>
  </g>
  <g id="arrowLeft" transform="rotate(270) translate(-36 17)">
    <use xlink:href="#rim"/>
    <path pointer-events="none" fill="none" stroke="white" stroke-width="1.5" d="M0,-3.0v7 M-2.5,-0.5L0,-3.0L2.5,-0.5"/>
  </g>
  <g id="resetDef">
    <use xlink:href="#rim2" fill="#404040"><set attributeName="fill" to="#808080" begin="reset.mouseover" end="reset.mouseout"/></use>
  </g>
</defs>
<script type="application/ecmascript">
var viewWidth = 845;
var viewHeight = 211;
var sectionId = 'dynsection-0';
</script>
<script type="application/ecmascript" xlink:href="svg.min.js"/>
<svg id="graph" class="graph">
<g id="viewport">
<title>Acts::Experimental::GbtsDataStorage</title>
<!-- Node1 -->
<g id="Node000001" class="node">
<title>Node1</title>
<g id="a_Node000001"><a xlink:title=" ">
<polygon fill="#999999" stroke="#666666" points="837,-107 728,-107 728,-77 837,-77 837,-107"/>
<text text-anchor="start" x="736" y="-95" font-family="Helvetica,sans-Serif" font-size="10.00">Acts::Experimental</text>
<text text-anchor="middle" x="782.5" y="-84" font-family="Helvetica,sans-Serif" font-size="10.00">::GbtsDataStorage</text>
</a>
</g>
</g>
<!-- Node2 -->
<g id="Node000002" class="node">
<title>Node2</title>
<g id="a_Node000002"><a xlink:title=" ">
<polygon fill="white" stroke="#666666" points="634,-183 434,-183 434,-153 634,-153 634,-183"/>
<text text-anchor="start" x="442" y="-171" font-family="Helvetica,sans-Serif" font-size="10.00">std::shared_ptr&lt; const</text>
<text text-anchor="middle" x="534" y="-160" font-family="Helvetica,sans-Serif" font-size="10.00"> Acts::Experimental::GbtsGeometry &gt;</text>
</a>
</g>
</g>
<!-- Node2&#45;&gt;Node1 -->
<g id="edge1_Node000001_Node000002" class="edge">
<title>Node2&#45;&gt;Node1</title>
<g id="a_edge1_Node000001_Node000002"><a xlink:title=" ">
<path fill="none" stroke="#9a32cd" stroke-dasharray="5,2" d="M619.67,-150.64C648.67,-143.8 681.08,-135.12 710,-125 724.19,-120.03 739.39,-113.24 752.11,-107.11"/>
<polygon fill="#9a32cd" stroke="#9a32cd" points="618.52,-147.32 609.57,-152.99 620.1,-154.14 618.52,-147.32"/>
</a>
</g>
<text text-anchor="start" x="664" y="-147.5" font-family="Helvetica,sans-Serif" font-size="10.00" fill="grey">m_geo</text>
</g>
<!-- Node3 -->
<g id="Node000003" class="node">
<title>Node3</title>
<g id="a_Node000003"><a xlink:title=" ">
<polygon fill="white" stroke="#666666" points="259,-182.5 141,-182.5 141,-163.5 259,-163.5 259,-182.5"/>
<text text-anchor="middle" x="200" y="-170.5" font-family="Helvetica,sans-Serif" font-size="10.00">std::shared_ptr&lt; T &gt;</text>
</a>
</g>
</g>
<!-- Node3&#45;&gt;Node2 -->
<g id="edge2_Node000002_Node000003" class="edge">
<title>Node3&#45;&gt;Node2</title>
<g id="a_edge2_Node000002_Node000003"><a xlink:title=" ">
<path fill="none" stroke="orange" stroke-dasharray="5,2" d="M269.38,-171.97C316.82,-171.26 380.76,-170.29 433.79,-169.49"/>
<polygon fill="orange" stroke="orange" points="269.16,-168.47 259.21,-172.12 269.26,-175.47 269.16,-168.47"/>
</a>
</g>
<text text-anchor="start" x="280.5" y="-192" font-family="Helvetica,sans-Serif" font-size="10.00" fill="grey">&lt; const Acts::Experimental</text>
<text text-anchor="start" x="280.5" y="-177" font-family="Helvetica,sans-Serif" font-size="10.00" fill="grey">  ::GbtsGeometry &gt;</text>
</g>
<!-- Node4 -->
<g id="Node000004" class="node">
<title>Node4</title>
<g id="a_Node000004"><a xlink:href="struct_acts_1_1_experimental_1_1_seed_finder_gbts_config.html" target="_top" xlink:title=" ">
<polygon fill="white" stroke="#666666" points="599,-131 469,-131 469,-101 599,-101 599,-131"/>
<text text-anchor="start" x="477" y="-119" font-family="Helvetica,sans-Serif" font-size="10.00">Acts::Experimental</text>
<text text-anchor="middle" x="534" y="-108" font-family="Helvetica,sans-Serif" font-size="10.00">::SeedFinderGbtsConfig</text>
</a>
</g>
</g>
<!-- Node4&#45;&gt;Node1 -->
<g id="edge3_Node000001_Node000004" class="edge">
<title>Node4&#45;&gt;Node1</title>
<g id="a_edge3_Node000001_Node000004"><a xlink:title=" ">
<path fill="none" stroke="#9a32cd" stroke-dasharray="5,2" d="M609.16,-108.78C647.31,-105.07 692.97,-100.62 727.7,-97.24"/>
<polygon fill="#9a32cd" stroke="#9a32cd" points="608.74,-105.3 599.12,-109.76 609.41,-112.27 608.74,-105.3"/>
</a>
</g>
<text text-anchor="start" x="659" y="-109.5" font-family="Helvetica,sans-Serif" font-size="10.00" fill="grey">m_config</text>
</g>
<!-- Node5 -->
<g id="Node000005" class="node">
<title>Node5</title>
<g id="a_Node000005"><a xlink:title=" ">
<polygon fill="white" stroke="#666666" points="232.5,-127.5 167.5,-127.5 167.5,-108.5 232.5,-108.5 232.5,-127.5"/>
<text text-anchor="middle" x="200" y="-115.5" font-family="Helvetica,sans-Serif" font-size="10.00">std::string</text>
</a>
</g>
</g>
<!-- Node5&#45;&gt;Node4 -->
<g id="edge4_Node000004_Node000005" class="edge">
<title>Node5&#45;&gt;Node4</title>
<g id="a_edge4_Node000004_Node000005"><a xlink:title=" ">
<path fill="none" stroke="#9a32cd" stroke-dasharray="5,2" d="M242.61,-117.75C299.51,-117.41 402.14,-116.79 468.91,-116.39"/>
<polygon fill="#9a32cd" stroke="#9a32cd" points="242.51,-114.25 232.53,-117.81 242.55,-121.25 242.51,-114.25"/>
</a>
</g>
<text text-anchor="start" x="301.5" y="-138" font-family="Helvetica,sans-Serif" font-size="10.00" fill="grey">connectorInputFile</text>
<text text-anchor="start" x="301.5" y="-123" font-family="Helvetica,sans-Serif" font-size="10.00" fill="grey">lutInputFile</text>
</g>
<!-- Node6 -->
<g id="Node000006" class="node">
<title>Node6</title>
<g id="a_Node000006"><a xlink:title=" ">
<polygon fill="white" stroke="#666666" points="104,-133 0,-133 0,-103 104,-103 104,-133"/>
<text text-anchor="start" x="8" y="-121" font-family="Helvetica,sans-Serif" font-size="10.00">std::basic_string&lt;</text>
<text text-anchor="middle" x="52" y="-110" font-family="Helvetica,sans-Serif" font-size="10.00"> Char &gt;</text>
</a>
</g>
</g>
<!-- Node6&#45;&gt;Node5 -->
<g id="edge5_Node000005_Node000006" class="edge">
<title>Node6&#45;&gt;Node5</title>
<g id="a_edge5_Node000005_Node000006"><a xlink:title=" ">
<path fill="none" stroke="#63b8ff" d="M114.1,-118C132.4,-118 151.74,-118 167.32,-118"/>
<polygon fill="#63b8ff" stroke="#63b8ff" points="114.06,-114.5 104.06,-118 114.06,-121.5 114.06,-114.5"/>
</a>
</g>
</g>
<!-- Node7 -->
<g id="Node000007" class="node">
<title>Node7</title>
<g id="a_Node000007"><a xlink:title=" ">
<polygon fill="white" stroke="#666666" points="597,-81 471,-81 471,-51 597,-51 597,-81"/>
<text text-anchor="start" x="479" y="-69" font-family="Helvetica,sans-Serif" font-size="10.00">std::vector&lt; std::array</text>
<text text-anchor="middle" x="534" y="-58" font-family="Helvetica,sans-Serif" font-size="10.00">&lt; float, 5 &gt; &gt;</text>
</a>
</g>
</g>
<!-- Node7&#45;&gt;Node1 -->
<g id="edge6_Node000001_Node000007" class="edge">
<title>Node7&#45;&gt;Node1</title>
<g id="a_edge6_Node000001_Node000007"><a xlink:title=" ">
<path fill="none" stroke="#9a32cd" stroke-dasharray="5,2" d="M607.2,-68.92C638.84,-70.72 676.35,-73.57 710,-78 715.77,-78.76 721.77,-79.7 727.74,-80.73"/>
<polygon fill="#9a32cd" stroke="#9a32cd" points="607.32,-65.42 597.15,-68.37 606.94,-72.41 607.32,-65.42"/>
</a>
</g>
<text text-anchor="start" x="658" y="-83.5" font-family="Helvetica,sans-Serif" font-size="10.00" fill="grey">m_mlLUT</text>
</g>
<!-- Node8 -->
<g id="Node000008" class="node">
<title>Node8</title>
<g id="a_Node000008"><a xlink:title=" ">
<polygon fill="white" stroke="#666666" points="248.5,-45.5 151.5,-45.5 151.5,-26.5 248.5,-26.5 248.5,-45.5"/>
<text text-anchor="middle" x="200" y="-33.5" font-family="Helvetica,sans-Serif" font-size="10.00">std::vector&lt; T &gt;</text>
</a>
</g>
</g>
<!-- Node8&#45;&gt;Node7 -->
<g id="edge7_Node000007_Node000008" class="edge">
<title>Node8&#45;&gt;Node7</title>
<g id="a_edge7_Node000007_Node000008"><a xlink:title=" ">
<path fill="none" stroke="orange" stroke-dasharray="5,2" d="M258.88,-41.23C318.16,-46.59 410,-54.89 470.8,-60.38"/>
<polygon fill="orange" stroke="orange" points="258.84,-37.71 248.57,-40.3 258.21,-44.68 258.84,-37.71"/>
</a>
</g>
<text text-anchor="start" x="299.5" y="-76" font-family="Helvetica,sans-Serif" font-size="10.00" fill="grey">&lt; std::array&lt; float,</text>
<text text-anchor="start" x="299.5" y="-61" font-family="Helvetica,sans-Serif" font-size="10.00" fill="grey">   5 &gt; &gt;</text>
</g>
<!-- Node9 -->
<g id="Node000009" class="node">
<title>Node9</title>
<g id="a_Node000009"><a xlink:title=" ">
<polygon fill="white" stroke="#666666" points="610.5,-30 457.5,-30 457.5,0 610.5,0 610.5,-30"/>
<text text-anchor="start" x="465.5" y="-18" font-family="Helvetica,sans-Serif" font-size="10.00">std::vector&lt; Acts::</text>
<text text-anchor="middle" x="534" y="-7" font-family="Helvetica,sans-Serif" font-size="10.00">Experimental::GbtsEtaBin &gt;</text>
</a>
</g>
</g>
<!-- Node8&#45;&gt;Node9 -->
<g id="edge9_Node000009_Node000008" class="edge">
<title>Node8&#45;&gt;Node9</title>
<g id="a_edge9_Node000009_Node000008"><a xlink:title=" ">
<path fill="none" stroke="orange" stroke-dasharray="5,2" d="M231.18,-22.6C244.87,-17.23 261.45,-11.68 277,-9 337.02,1.34 406.12,-1.1 457.39,-5.61"/>
<polygon fill="orange" stroke="orange" points="229.71,-19.42 221.77,-26.44 232.35,-25.9 229.71,-19.42"/>
</a>
</g>
<text text-anchor="start" x="294.5" y="-30" font-family="Helvetica,sans-Serif" font-size="10.00" fill="grey">&lt; Acts::Experimental</text>
<text text-anchor="start" x="294.5" y="-15" font-family="Helvetica,sans-Serif" font-size="10.00" fill="grey">  ::GbtsEtaBin &gt;</text>
</g>
<!-- Node9&#45;&gt;Node1 -->
<g id="edge8_Node000001_Node000009" class="edge">
<title>Node9&#45;&gt;Node1</title>
<g id="a_edge8_Node000001_Node000009"><a xlink:title=" ">
<path fill="none" stroke="#9a32cd" stroke-dasharray="5,2" d="M620.65,-27C649.59,-32.52 681.71,-40.3 710,-51 727.53,-57.63 745.84,-68.22 759.55,-76.97"/>
<polygon fill="#9a32cd" stroke="#9a32cd" points="621.03,-23.51 610.56,-25.14 619.76,-30.4 621.03,-23.51"/>
</a>
</g>
<text text-anchor="start" x="655" y="-56.5" font-family="Helvetica,sans-Serif" font-size="10.00" fill="grey">m_etaBins</text>
</g>
</g>
</svg>

<g id="navigator" transform="translate(0 0)" fill="#404254">
  <rect fill="#f2f5e9" fill-opacity="0.5" stroke="#606060" stroke-width=".5" x="0" y="0" width="60" height="60"/>
  <use id="zoomplus" xlink:href="#zoomPlus" x="17" y="9" onmousedown="handleZoom(evt,'in')"/>
  <use id="zoomminus" xlink:href="#zoomMin" x="42" y="9" onmousedown="handleZoom(evt,'out')"/>
  <use id="reset" xlink:href="#resetDef" x="30" y="36" onmousedown="handleReset()"/>
   <use id="arrowup" xlink:href="#arrowUp" x="0" y="0" onmousedown="handlePan(0,-1)"/>
  <use id="arrowright" xlink:href="#arrowRight" x="0" y="0" onmousedown="handlePan(1,0)"/>
  <use id="arrowdown" xlink:href="#arrowDown" x="0" y="0" onmousedown="handlePan(0,1)"/>
  <use id="arrowleft" xlink:href="#arrowLeft" x="0" y="0" onmousedown="handlePan(-1,0)"/>
</g>
<svg viewBox="0 0 15 15" width="100%" height="30px" preserveAspectRatio="xMaxYMin meet">
 <g id="arrow_out" transform="scale(0.3 0.3)">
  <a xlink:href="class_acts_1_1_experimental_1_1_gbts_data_storage__coll__graph_org.svg" target="_base">
   <rect id="button" ry="5" rx="5" y="6" x="6" height="38" width="38"
        fill="#f2f5e9" fill-opacity="0.5" stroke="#606060" stroke-width="1.0"/>
   <path id="arrow"
     d="M 11.500037,31.436501 C 11.940474,20.09759 22.043105,11.32322 32.158766,21.979434 L 37.068811,17.246167 C 37.068811,17.246167 37.088388,32 37.088388,32 L 22.160133,31.978069 C 22.160133,31.978069 26.997745,27.140456 26.997745,27.140456 C 18.528582,18.264221 13.291696,25.230495 11.500037,31.436501 z"
     style="fill:#404040;"/>
  </a>
 </g>
</svg>

<style type='text/css'>
<![CDATA[
[data-mouse-over-selected='false'] { opacity: 0.7; }
[data-mouse-over-selected='true']  { opacity: 1.0; }
]]>
</style>
<script type="application/ecmascript"><![CDATA[
document.addEventListener('DOMContentLoaded', (event) => {
  highlightEdges();
  highlightAdjacentNodes();
});
]]></script>
</svg>
