<?xml version="1.0" encoding="UTF-8" standalone="no"?>
<!DOCTYPE svg PUBLIC "-//W3C//DTD SVG 1.1//EN"
 "http://www.w3.org/Graphics/SVG/1.1/DTD/svg11.dtd">
<!-- Generated by graphviz version 2.43.0 (0)
 -->
<!-- Title: Acts::SympyStepper Pages: 1 -->
<svg width="234pt" height="197pt"
 viewBox="0.00 0.00 233.50 197.00" xmlns="http://www.w3.org/2000/svg" xmlns:xlink="http://www.w3.org/1999/xlink">
<g id="graph0" class="graph" transform="scale(1 1) rotate(0) translate(4 193)">
<title>Acts::SympyStepper</title>
<!-- Node1 -->
<g id="Node000001" class="node">
<title>Node1</title>
<g id="a_Node000001"><a xlink:title=" ">
<polygon fill="#999999" stroke="#666666" points="141,-19 26,-19 26,0 141,0 141,-19"/>
<text text-anchor="middle" x="83.5" y="-7" font-family="Helvetica,sans-Serif" font-size="10.00">Acts::SympyStepper</text>
</a>
</g>
</g>
<!-- Node2 -->
<g id="Node000002" class="node">
<title>Node2</title>
<g id="a_Node000002"><a xlink:title=" ">
<polygon fill="white" stroke="#666666" points="167,-102 0,-102 0,-72 167,-72 167,-102"/>
<text text-anchor="start" x="8" y="-90" font-family="Helvetica,sans-Serif" font-size="10.00">std::shared_ptr&lt; const</text>
<text text-anchor="middle" x="83.5" y="-79" font-family="Helvetica,sans-Serif" font-size="10.00"> Acts::MagneticFieldProvider &gt;</text>
</a>
</g>
</g>
<!-- Node2&#45;&gt;Node1 -->
<g id="edge1_Node000001_Node000002" class="edge">
<title>Node2&#45;&gt;Node1</title>
<g id="a_edge1_Node000001_Node000002"><a xlink:title=" ">
<path fill="none" stroke="#9a32cd" stroke-dasharray="5,2" d="M83.5,-61.4C83.5,-46.81 83.5,-29.22 83.5,-19.01"/>
<polygon fill="#9a32cd" stroke="#9a32cd" points="80,-61.8 83.5,-71.8 87,-61.8 80,-61.8"/>
</a>
</g>
<text text-anchor="start" x="87" y="-42.5" font-family="Helvetica,sans-Serif" font-size="10.00" fill="grey">m_bField</text>
</g>
<!-- Node3 -->
<g id="Node000003" class="node">
<title>Node3</title>
<g id="a_Node000003"><a xlink:title=" ">
<polygon fill="white" stroke="#666666" points="142.5,-189 24.5,-189 24.5,-170 142.5,-170 142.5,-189"/>
<text text-anchor="middle" x="83.5" y="-177" font-family="Helvetica,sans-Serif" font-size="10.00">std::shared_ptr&lt; T &gt;</text>
</a>
</g>
</g>
<!-- Node3&#45;&gt;Node2 -->
<g id="edge2_Node000002_Node000003" class="edge">
<title>Node3&#45;&gt;Node2</title>
<g id="a_edge2_Node000002_Node000003"><a xlink:title=" ">
<path fill="none" stroke="orange" stroke-dasharray="5,2" d="M83.5,-159.38C83.5,-142.24 83.5,-117.49 83.5,-102.09"/>
<polygon fill="orange" stroke="orange" points="80,-159.82 83.5,-169.82 87,-159.82 80,-159.82"/>
</a>
</g>
<text text-anchor="start" x="86.5" y="-141" font-family="Helvetica,sans-Serif" font-size="10.00" fill="grey">&lt; const Acts::MagneticField</text>
<text text-anchor="start" x="86.5" y="-126" font-family="Helvetica,sans-Serif" font-size="10.00" fill="grey">  Provider &gt;</text>
</g>
</g>
</svg>
