<?xml version="1.0" encoding="UTF-8" standalone="no"?>
<!DOCTYPE svg PUBLIC "-//W3C//DTD SVG 1.1//EN"
 "http://www.w3.org/Graphics/SVG/1.1/DTD/svg11.dtd">
<!-- Generated by graphviz version 2.43.0 (0)
 -->
<!-- Title: Acts::Propagator&lt; stepper_t, navigator_t &gt; Pages: 1 -->
<svg width="686pt" height="82pt"
 viewBox="0.00 0.00 686.00 82.00" xmlns="http://www.w3.org/2000/svg" xmlns:xlink="http://www.w3.org/1999/xlink">
<g id="graph0" class="graph" transform="scale(1 1) rotate(0) translate(4 78)">
<title>Acts::Propagator&lt; stepper_t, navigator_t &gt;</title>
<!-- Node1 -->
<g id="Node000001" class="node">
<title>Node1</title>
<g id="a_Node000001"><a xlink:title="Propagator for particles (optionally in a magnetic field).">
<polygon fill="#999999" stroke="#666666" points="379,-52 234,-52 234,-22 379,-22 379,-52"/>
<text text-anchor="start" x="242" y="-40" font-family="Helvetica,sans-Serif" font-size="10.00">Acts::Propagator&lt; stepper</text>
<text text-anchor="middle" x="306.5" y="-29" font-family="Helvetica,sans-Serif" font-size="10.00">_t, navigator_t &gt;</text>
</a>
</g>
</g>
<!-- Node3 -->
<g id="Node000003" class="node">
<title>Node3</title>
<g id="a_Node000003"><a xlink:href="class_acts_1_1_propagator.html" target="_top" xlink:title=" ">
<polygon fill="white" stroke="#666666" points="678,-52 532,-52 532,-22 678,-22 678,-52"/>
<text text-anchor="start" x="540" y="-40" font-family="Helvetica,sans-Serif" font-size="10.00">Acts::Propagator&lt; Straight</text>
<text text-anchor="middle" x="605" y="-29" font-family="Helvetica,sans-Serif" font-size="10.00">LineStepper, Navigator &gt;</text>
</a>
</g>
</g>
<!-- Node1&#45;&gt;Node3 -->
<g id="edge2_Node000001_Node000003" class="edge">
<title>Node1&#45;&gt;Node3</title>
<g id="a_edge2_Node000001_Node000003"><a xlink:title=" ">
<path fill="none" stroke="orange" stroke-dasharray="5,2" d="M389.51,-37C434.14,-37 488.86,-37 531.86,-37"/>
<polygon fill="orange" stroke="orange" points="389.27,-33.5 379.27,-37 389.27,-40.5 389.27,-33.5"/>
</a>
</g>
<text text-anchor="start" x="400.5" y="-58" font-family="Helvetica,sans-Serif" font-size="10.00" fill="grey">&lt; StraightLineStepper,</text>
<text text-anchor="start" x="400.5" y="-43" font-family="Helvetica,sans-Serif" font-size="10.00" fill="grey">   Navigator &gt;</text>
</g>
<!-- Node2 -->
<g id="Node000002" class="node">
<title>Node2</title>
<g id="a_Node000002"><a xlink:title=" ">
<polygon fill="white" stroke="#666666" points="197,-74 0,-74 0,0 197,0 197,-74"/>
<text text-anchor="start" x="8" y="-62" font-family="Helvetica,sans-Serif" font-size="10.00">std::conditional_t</text>
<text text-anchor="start" x="8" y="-51" font-family="Helvetica,sans-Serif" font-size="10.00">&lt; SupportsBoundParameters</text>
<text text-anchor="start" x="8" y="-40" font-family="Helvetica,sans-Serif" font-size="10.00">_v&lt; stepper_t &gt;, detail</text>
<text text-anchor="start" x="8" y="-29" font-family="Helvetica,sans-Serif" font-size="10.00">::BasePropagatorHelper&lt; Propagator</text>
<text text-anchor="start" x="8" y="-18" font-family="Helvetica,sans-Serif" font-size="10.00">&lt; stepper_t, VoidNavigator &gt; &gt;,</text>
<text text-anchor="middle" x="98.5" y="-7" font-family="Helvetica,sans-Serif" font-size="10.00"> detail::PropagatorStub &gt;</text>
</a>
</g>
</g>
<!-- Node2&#45;&gt;Node1 -->
<g id="edge1_Node000001_Node000002" class="edge">
<title>Node2&#45;&gt;Node1</title>
<g id="a_edge1_Node000001_Node000002"><a xlink:title=" ">
<path fill="none" stroke="#63b8ff" d="M207.23,-37C216.23,-37 225.17,-37 233.79,-37"/>
<polygon fill="#63b8ff" stroke="#63b8ff" points="207.07,-33.5 197.07,-37 207.07,-40.5 207.07,-33.5"/>
</a>
</g>
</g>
</g>
</svg>
