<?xml version="1.0" encoding="UTF-8" standalone="no"?>
<!DOCTYPE svg PUBLIC "-//W3C//DTD SVG 1.1//EN"
 "http://www.w3.org/Graphics/SVG/1.1/DTD/svg11.dtd">
<!-- Generated by graphviz version 2.43.0 (0)
 -->
<!-- Title: Acts::ObjVisualization3D Pages: 1 -->
<svg width="154pt" height="299pt"
 viewBox="0.00 0.00 153.50 299.00" xmlns="http://www.w3.org/2000/svg" xmlns:xlink="http://www.w3.org/1999/xlink">
<g id="graph0" class="graph" transform="scale(1 1) rotate(0) translate(4 295)">
<title>Acts::ObjVisualization3D</title>
<!-- Node1 -->
<g id="Node000001" class="node">
<title>Node1</title>
<g id="a_Node000001"><a xlink:title="This helper produces output in the OBJ format.">
<polygon fill="#999999" stroke="#666666" points="137,-19 0,-19 0,0 137,0 137,-19"/>
<text text-anchor="middle" x="68.5" y="-7" font-family="Helvetica,sans-Serif" font-size="10.00">Acts::ObjVisualization3D</text>
</a>
</g>
</g>
<!-- Node2 -->
<g id="Node000002" class="node">
<title>Node2</title>
<g id="a_Node000002"><a xlink:href="class_acts_1_1_i_visualization3_d.html" target="_top" xlink:title="Partially abstract base class which provides an interface to visualization helper classes.">
<polygon fill="white" stroke="#666666" points="130,-75 7,-75 7,-56 130,-56 130,-75"/>
<text text-anchor="middle" x="68.5" y="-63" font-family="Helvetica,sans-Serif" font-size="10.00">Acts::IVisualization3D</text>
</a>
</g>
</g>
<!-- Node2&#45;&gt;Node1 -->
<g id="edge1_Node000001_Node000002" class="edge">
<title>Node2&#45;&gt;Node1</title>
<g id="a_edge1_Node000001_Node000002"><a xlink:title=" ">
<path fill="none" stroke="#63b8ff" d="M68.5,-45.3C68.5,-36.41 68.5,-26.28 68.5,-19.25"/>
<polygon fill="#63b8ff" stroke="#63b8ff" points="65,-45.58 68.5,-55.58 72,-45.58 65,-45.58"/>
</a>
</g>
</g>
<!-- Node3 -->
<g id="Node000003" class="node">
<title>Node3</title>
<g id="a_Node000003"><a xlink:href="struct_acts_1_1_color.html" target="_top" xlink:title="Struct describing a color.">
<polygon fill="white" stroke="#666666" points="103,-147 34,-147 34,-128 103,-128 103,-147"/>
<text text-anchor="middle" x="68.5" y="-135" font-family="Helvetica,sans-Serif" font-size="10.00">Acts::Color</text>
</a>
</g>
</g>
<!-- Node3&#45;&gt;Node2 -->
<g id="edge2_Node000002_Node000003" class="edge">
<title>Node3&#45;&gt;Node2</title>
<g id="a_edge2_Node000002_Node000003"><a xlink:title=" ">
<path fill="none" stroke="#9a32cd" stroke-dasharray="5,2" d="M68.5,-117.58C68.5,-103.76 68.5,-85.68 68.5,-75.15"/>
<polygon fill="#9a32cd" stroke="#9a32cd" points="65,-117.92 68.5,-127.92 72,-117.92 65,-117.92"/>
</a>
</g>
<text text-anchor="start" x="72" y="-98.5" font-family="Helvetica,sans-Serif" font-size="10.00" fill="grey">s_defaultColor</text>
</g>
<!-- Node4 -->
<g id="Node000004" class="node">
<title>Node4</title>
<g id="a_Node000004"><a xlink:title=" ">
<polygon fill="white" stroke="#666666" points="123.5,-219 13.5,-219 13.5,-200 123.5,-200 123.5,-219"/>
<text text-anchor="middle" x="68.5" y="-207" font-family="Helvetica,sans-Serif" font-size="10.00">std::array&lt; int, 3 &gt;</text>
</a>
</g>
</g>
<!-- Node4&#45;&gt;Node3 -->
<g id="edge3_Node000003_Node000004" class="edge">
<title>Node4&#45;&gt;Node3</title>
<g id="a_edge3_Node000003_Node000004"><a xlink:title=" ">
<path fill="none" stroke="#9a32cd" stroke-dasharray="5,2" d="M68.5,-189.58C68.5,-175.76 68.5,-157.68 68.5,-147.15"/>
<polygon fill="#9a32cd" stroke="#9a32cd" points="65,-189.92 68.5,-199.92 72,-189.92 65,-189.92"/>
</a>
</g>
<text text-anchor="start" x="71.5" y="-170.5" font-family="Helvetica,sans-Serif" font-size="10.00" fill="grey">rgb</text>
</g>
<!-- Node5 -->
<g id="Node000005" class="node">
<title>Node5</title>
<g id="a_Node000005"><a xlink:title=" ">
<polygon fill="white" stroke="#666666" points="114.5,-291 22.5,-291 22.5,-272 114.5,-272 114.5,-291"/>
<text text-anchor="middle" x="68.5" y="-279" font-family="Helvetica,sans-Serif" font-size="10.00">std::array&lt; T &gt;</text>
</a>
</g>
</g>
<!-- Node5&#45;&gt;Node4 -->
<g id="edge4_Node000004_Node000005" class="edge">
<title>Node5&#45;&gt;Node4</title>
<g id="a_edge4_Node000004_Node000005"><a xlink:title=" ">
<path fill="none" stroke="orange" stroke-dasharray="5,2" d="M68.5,-261.58C68.5,-247.76 68.5,-229.68 68.5,-219.15"/>
<polygon fill="orange" stroke="orange" points="65,-261.92 68.5,-271.92 72,-261.92 65,-261.92"/>
</a>
</g>
<text text-anchor="start" x="71.5" y="-242.5" font-family="Helvetica,sans-Serif" font-size="10.00" fill="grey">&lt; int, 3 &gt;</text>
</g>
</g>
</svg>
