<?xml version="1.0" encoding="UTF-8" standalone="no"?>
<!DOCTYPE svg PUBLIC "-//W3C//DTD SVG 1.1//EN"
 "http://www.w3.org/Graphics/SVG/1.1/DTD/svg11.dtd">
<!-- Generated by graphviz version 2.43.0 (0)
 -->
<!-- Title: Acts::DiamondVolumeBounds Pages: 1 -->
<svg width="198pt" height="227pt"
 viewBox="0.00 0.00 197.50 227.00" xmlns="http://www.w3.org/2000/svg" xmlns:xlink="http://www.w3.org/1999/xlink">
<g id="graph0" class="graph" transform="scale(1 1) rotate(0) translate(4 223)">
<title>Acts::DiamondVolumeBounds</title>
<!-- Node1 -->
<g id="Node000001" class="node">
<title>Node1</title>
<g id="a_Node000001"><a xlink:title="Bounds for a polygonal prism shaped Volume, the orientedSurface(...) method creates a vector of 8 sur...">
<polygon fill="#999999" stroke="#666666" points="161,-19 0,-19 0,0 161,0 161,-19"/>
<text text-anchor="middle" x="80.5" y="-7" font-family="Helvetica,sans-Serif" font-size="10.00">Acts::DiamondVolumeBounds</text>
</a>
</g>
</g>
<!-- Node2 -->
<g id="Node000002" class="node">
<title>Node2</title>
<g id="a_Node000002"><a xlink:href="class_acts_1_1_volume_bounds.html" target="_top" xlink:title="Pure Absract Base Class for Volume bounds.">
<polygon fill="white" stroke="#666666" points="138.5,-75 22.5,-75 22.5,-56 138.5,-56 138.5,-75"/>
<text text-anchor="middle" x="80.5" y="-63" font-family="Helvetica,sans-Serif" font-size="10.00">Acts::VolumeBounds</text>
</a>
</g>
</g>
<!-- Node2&#45;&gt;Node1 -->
<g id="edge1_Node000001_Node000002" class="edge">
<title>Node2&#45;&gt;Node1</title>
<g id="a_edge1_Node000001_Node000002"><a xlink:title=" ">
<path fill="none" stroke="#63b8ff" d="M80.5,-45.3C80.5,-36.41 80.5,-26.28 80.5,-19.25"/>
<polygon fill="#63b8ff" stroke="#63b8ff" points="77,-45.58 80.5,-55.58 84,-45.58 77,-45.58"/>
</a>
</g>
</g>
<!-- Node3 -->
<g id="Node000003" class="node">
<title>Node3</title>
<g id="a_Node000003"><a xlink:title=" ">
<polygon fill="white" stroke="#666666" points="150.5,-147 10.5,-147 10.5,-128 150.5,-128 150.5,-147"/>
<text text-anchor="middle" x="80.5" y="-135" font-family="Helvetica,sans-Serif" font-size="10.00">std::vector&lt; std::string &gt;</text>
</a>
</g>
</g>
<!-- Node3&#45;&gt;Node2 -->
<g id="edge2_Node000002_Node000003" class="edge">
<title>Node3&#45;&gt;Node2</title>
<g id="a_edge2_Node000002_Node000003"><a xlink:title=" ">
<path fill="none" stroke="#9a32cd" stroke-dasharray="5,2" d="M80.5,-117.58C80.5,-103.76 80.5,-85.68 80.5,-75.15"/>
<polygon fill="#9a32cd" stroke="#9a32cd" points="77,-117.92 80.5,-127.92 84,-117.92 77,-117.92"/>
</a>
</g>
<text text-anchor="start" x="84" y="-98.5" font-family="Helvetica,sans-Serif" font-size="10.00" fill="grey">s_boundsTypeNames</text>
</g>
<!-- Node4 -->
<g id="Node000004" class="node">
<title>Node4</title>
<g id="a_Node000004"><a xlink:title=" ">
<polygon fill="white" stroke="#666666" points="129,-219 32,-219 32,-200 129,-200 129,-219"/>
<text text-anchor="middle" x="80.5" y="-207" font-family="Helvetica,sans-Serif" font-size="10.00">std::vector&lt; T &gt;</text>
</a>
</g>
</g>
<!-- Node4&#45;&gt;Node3 -->
<g id="edge3_Node000003_Node000004" class="edge">
<title>Node4&#45;&gt;Node3</title>
<g id="a_edge3_Node000003_Node000004"><a xlink:title=" ">
<path fill="none" stroke="orange" stroke-dasharray="5,2" d="M80.5,-189.58C80.5,-175.76 80.5,-157.68 80.5,-147.15"/>
<polygon fill="orange" stroke="orange" points="77,-189.92 80.5,-199.92 84,-189.92 77,-189.92"/>
</a>
</g>
<text text-anchor="start" x="83.5" y="-170.5" font-family="Helvetica,sans-Serif" font-size="10.00" fill="grey">&lt; std::string &gt;</text>
</g>
</g>
</svg>
