<?xml version="1.0" encoding="UTF-8" standalone="no"?>
<!DOCTYPE svg PUBLIC "-//W3C//DTD SVG 1.1//EN"
 "http://www.w3.org/Graphics/SVG/1.1/DTD/svg11.dtd">
<!-- Generated by graphviz version 2.43.0 (0)
 -->
<!-- Title: Acts::AnyBaseAll Pages: 1 -->
<svg width="597pt" height="259pt"
 viewBox="0.00 0.00 597.00 259.00" xmlns="http://www.w3.org/2000/svg" xmlns:xlink="http://www.w3.org/1999/xlink">
<g id="graph0" class="graph" transform="scale(1 1) rotate(0) translate(4 255)">
<title>Acts::AnyBaseAll</title>
<!-- Node1 -->
<g id="Node000001" class="node">
<title>Node1</title>
<g id="a_Node000001"><a xlink:title="Base class for all instances of AnyBase regarfless of SBO size.">
<polygon fill="#999999" stroke="#666666" points="99,-135.5 0,-135.5 0,-116.5 99,-116.5 99,-135.5"/>
<text text-anchor="middle" x="49.5" y="-123.5" font-family="Helvetica,sans-Serif" font-size="10.00">Acts::AnyBaseAll</text>
</a>
</g>
</g>
<!-- Node2 -->
<g id="Node000002" class="node">
<title>Node2</title>
<g id="a_Node000002"><a xlink:href="class_acts_1_1_any_base.html" target="_top" xlink:title=" ">
<polygon fill="white" stroke="#666666" points="589,-164 440,-164 440,-134 589,-134 589,-164"/>
<text text-anchor="start" x="448" y="-152" font-family="Helvetica,sans-Serif" font-size="10.00">Acts::AnyBase&lt; ACTS</text>
<text text-anchor="middle" x="514.5" y="-141" font-family="Helvetica,sans-Serif" font-size="10.00">_SOURCELINK_SBO_SIZE &gt;</text>
</a>
</g>
</g>
<!-- Node1&#45;&gt;Node2 -->
<g id="edge1_Node000001_Node000002" class="edge">
<title>Node1&#45;&gt;Node2</title>
<g id="a_edge1_Node000001_Node000002"><a xlink:title=" ">
<path fill="none" stroke="#63b8ff" d="M77.14,-140.45C119.62,-162.59 205.98,-203.9 285,-219 344.81,-230.43 364.33,-238.53 422,-219 454.02,-208.16 483.64,-181.12 500.07,-164"/>
<polygon fill="#63b8ff" stroke="#63b8ff" points="78.52,-137.22 68.04,-135.65 75.25,-143.41 78.52,-137.22"/>
</a>
</g>
</g>
<!-- Node3 -->
<g id="Node000003" class="node">
<title>Node3</title>
<g id="a_Node000003"><a xlink:href="class_acts_1_1_any_base.html" target="_top" xlink:title=" ">
<polygon fill="white" stroke="#666666" points="578,-251 451,-251 451,-221 578,-221 578,-251"/>
<text text-anchor="start" x="459" y="-239" font-family="Helvetica,sans-Serif" font-size="10.00">Acts::AnyBase&lt; sizeof</text>
<text text-anchor="middle" x="514.5" y="-228" font-family="Helvetica,sans-Serif" font-size="10.00">(char) *512 &gt;</text>
</a>
</g>
</g>
<!-- Node1&#45;&gt;Node3 -->
<g id="edge2_Node000001_Node000003" class="edge">
<title>Node1&#45;&gt;Node3</title>
<g id="a_edge2_Node000001_Node000003"><a xlink:title=" ">
<path fill="none" stroke="#63b8ff" d="M64.24,-143.58C79.67,-162.06 106.45,-190.55 136,-206 236.35,-258.48 372.56,-253.92 450.95,-245.32"/>
<polygon fill="#63b8ff" stroke="#63b8ff" points="66.81,-141.2 57.79,-135.64 61.38,-145.61 66.81,-141.2"/>
</a>
</g>
</g>
<!-- Node4 -->
<g id="Node000004" class="node">
<title>Node4</title>
<g id="a_Node000004"><a xlink:href="class_acts_1_1_any_base.html" target="_top" xlink:title=" ">
<polygon fill="white" stroke="#666666" points="578,-30 451,-30 451,0 578,0 578,-30"/>
<text text-anchor="start" x="459" y="-18" font-family="Helvetica,sans-Serif" font-size="10.00">Acts::AnyBase&lt; sizeof</text>
<text text-anchor="middle" x="514.5" y="-7" font-family="Helvetica,sans-Serif" font-size="10.00">(void *)&gt;</text>
</a>
</g>
</g>
<!-- Node1&#45;&gt;Node4 -->
<g id="edge3_Node000001_Node000004" class="edge">
<title>Node1&#45;&gt;Node4</title>
<g id="a_edge3_Node000001_Node000004"><a xlink:title=" ">
<path fill="none" stroke="#63b8ff" d="M63.14,-108.3C78.09,-88.95 104.9,-58.85 136,-45 239.01,0.86 373.42,-1.26 450.93,-7.66"/>
<polygon fill="#63b8ff" stroke="#63b8ff" points="60.32,-106.23 57.13,-116.34 65.92,-110.42 60.32,-106.23"/>
</a>
</g>
</g>
<!-- Node5 -->
<g id="Node000005" class="node">
<title>Node5</title>
<g id="a_Node000005"><a xlink:href="class_acts_1_1_any_base.html" target="_top" xlink:title=" ">
<polygon fill="white" stroke="#666666" points="578,-99.5 451,-99.5 451,-80.5 578,-80.5 578,-99.5"/>
<text text-anchor="middle" x="514.5" y="-87.5" font-family="Helvetica,sans-Serif" font-size="10.00">Acts::AnyBase&lt; 128 &gt;</text>
</a>
</g>
</g>
<!-- Node1&#45;&gt;Node5 -->
<g id="edge4_Node000001_Node000005" class="edge">
<title>Node1&#45;&gt;Node5</title>
<g id="a_edge4_Node000001_Node000005"><a xlink:title=" ">
<path fill="none" stroke="#63b8ff" d="M78.19,-111.89C139.97,-82.22 293.72,-18.36 422,-47 450.61,-53.39 480.83,-69.74 498.39,-80.34"/>
<polygon fill="#63b8ff" stroke="#63b8ff" points="76.53,-108.81 69.08,-116.34 79.6,-115.1 76.53,-108.81"/>
</a>
</g>
</g>
<!-- Node6 -->
<g id="Node000006" class="node">
<title>Node6</title>
<g id="a_Node000006"><a xlink:href="class_acts_1_1_any_base.html" target="_top" xlink:title="Small opaque cache type with configurable small buffer optimization.">
<polygon fill="white" stroke="#666666" points="267,-135.5 136,-135.5 136,-116.5 267,-116.5 267,-135.5"/>
<text text-anchor="middle" x="201.5" y="-123.5" font-family="Helvetica,sans-Serif" font-size="10.00">Acts::AnyBase&lt; SIZE &gt;</text>
</a>
</g>
</g>
<!-- Node1&#45;&gt;Node6 -->
<g id="edge5_Node000001_Node000006" class="edge">
<title>Node1&#45;&gt;Node6</title>
<g id="a_edge5_Node000001_Node000006"><a xlink:title=" ">
<path fill="none" stroke="#63b8ff" d="M109.29,-126C118.03,-126 127.09,-126 135.94,-126"/>
<polygon fill="#63b8ff" stroke="#63b8ff" points="109.2,-122.5 99.2,-126 109.2,-129.5 109.2,-122.5"/>
</a>
</g>
</g>
<!-- Node6&#45;&gt;Node2 -->
<g id="edge6_Node000006_Node000002" class="edge">
<title>Node6&#45;&gt;Node2</title>
<g id="a_edge6_Node000006_Node000002"><a xlink:title=" ">
<path fill="none" stroke="orange" stroke-dasharray="5,2" d="M277.58,-131.55C326.79,-135.19 390.83,-139.93 439.77,-143.55"/>
<polygon fill="orange" stroke="orange" points="277.55,-128.04 267.32,-130.79 277.03,-135.02 277.55,-128.04"/>
</a>
</g>
<text text-anchor="start" x="288.5" y="-163" font-family="Helvetica,sans-Serif" font-size="10.00" fill="grey">&lt; ACTS_SOURCELINK_SBO</text>
<text text-anchor="start" x="288.5" y="-148" font-family="Helvetica,sans-Serif" font-size="10.00" fill="grey">  _SIZE &gt;</text>
</g>
<!-- Node6&#45;&gt;Node3 -->
<g id="edge7_Node000006_Node000003" class="edge">
<title>Node6&#45;&gt;Node3</title>
<g id="a_edge7_Node000006_Node000003"><a xlink:title=" ">
<path fill="none" stroke="orange" stroke-dasharray="5,2" d="M223.1,-141.56C239.2,-153.07 262.55,-168.36 285,-178 338.78,-201.09 403.78,-216.48 450.68,-225.57"/>
<polygon fill="orange" stroke="orange" points="225.09,-138.68 214.95,-135.61 220.96,-144.34 225.09,-138.68"/>
</a>
</g>
<text text-anchor="start" x="300.5" y="-223.5" font-family="Helvetica,sans-Serif" font-size="10.00" fill="grey">&lt; sizeof(char) *512 &gt;</text>
</g>
<!-- Node6&#45;&gt;Node4 -->
<g id="edge8_Node000006_Node000004" class="edge">
<title>Node6&#45;&gt;Node4</title>
<g id="a_edge8_Node000006_Node000004"><a xlink:title=" ">
<path fill="none" stroke="orange" stroke-dasharray="5,2" d="M224.24,-110.46C240.37,-99.54 263.23,-85.28 285,-76 339.01,-52.98 403.98,-36.64 450.81,-26.71"/>
<polygon fill="orange" stroke="orange" points="221.82,-107.88 215.59,-116.45 225.8,-113.64 221.82,-107.88"/>
</a>
</g>
<text text-anchor="start" x="310.5" y="-81.5" font-family="Helvetica,sans-Serif" font-size="10.00" fill="grey">&lt; sizeof(void *)&gt;</text>
</g>
<!-- Node6&#45;&gt;Node5 -->
<g id="edge9_Node000006_Node000005" class="edge">
<title>Node6&#45;&gt;Node5</title>
<g id="a_edge9_Node000006_Node000005"><a xlink:title=" ">
<path fill="none" stroke="orange" stroke-dasharray="5,2" d="M260.92,-114.72C268.99,-113.35 277.19,-112.07 285,-111 340.85,-103.37 404.77,-97.76 450.78,-94.27"/>
<polygon fill="orange" stroke="orange" points="260.06,-111.32 250.81,-116.48 261.26,-118.21 260.06,-111.32"/>
</a>
</g>
<text text-anchor="start" x="333.5" y="-116.5" font-family="Helvetica,sans-Serif" font-size="10.00" fill="grey">&lt; 128 &gt;</text>
</g>
</g>
</svg>
