<?xml version="1.0" encoding="UTF-8" standalone="no"?>
<!DOCTYPE svg PUBLIC "-//W3C//DTD SVG 1.1//EN"
 "http://www.w3.org/Graphics/SVG/1.1/DTD/svg11.dtd">
<!-- Generated by graphviz version 2.43.0 (0)
 -->
<!-- Title: Acts::OwningDelegate&lt; typename, H &gt; Pages: 1 -->
<svg width="535pt" height="532pt"
 viewBox="0.00 0.00 535.00 531.75" xmlns="http://www.w3.org/2000/svg" xmlns:xlink="http://www.w3.org/1999/xlink">
<g id="graph0" class="graph" transform="scale(1 1) rotate(0) translate(4 527.75)">
<title>Acts::OwningDelegate&lt; typename, H &gt;</title>
<!-- Node1 -->
<g id="Node000001" class="node">
<title>Node1</title>
<g id="a_Node000001"><a xlink:title=" ">
<polygon fill="#999999" stroke="#666666" points="125,-234.75 0,-234.75 0,-204.75 125,-204.75 125,-234.75"/>
<text text-anchor="start" x="8" y="-222.75" font-family="Helvetica,sans-Serif" font-size="10.00">Acts::OwningDelegate</text>
<text text-anchor="middle" x="62.5" y="-211.75" font-family="Helvetica,sans-Serif" font-size="10.00">&lt; typename, H &gt;</text>
</a>
</g>
</g>
<!-- Node2 -->
<g id="Node000002" class="node">
<title>Node2</title>
<g id="a_Node000002"><a xlink:href="class_acts_1_1_owning_delegate.html" target="_top" xlink:title=" ">
<polygon fill="white" stroke="#666666" points="519.5,-470.75 349.5,-470.75 349.5,-418.75 519.5,-418.75 519.5,-470.75"/>
<text text-anchor="start" x="357.5" y="-458.75" font-family="Helvetica,sans-Serif" font-size="10.00">Acts::OwningDelegate</text>
<text text-anchor="start" x="357.5" y="-447.75" font-family="Helvetica,sans-Serif" font-size="10.00">&lt; typename grid_t::point</text>
<text text-anchor="start" x="357.5" y="-436.75" font-family="Helvetica,sans-Serif" font-size="10.00">_t(const Vector2 &amp;), GridAccess</text>
<text text-anchor="middle" x="434.5" y="-425.75" font-family="Helvetica,sans-Serif" font-size="10.00">::IBoundToGridLocal &gt;</text>
</a>
</g>
</g>
<!-- Node1&#45;&gt;Node2 -->
<g id="edge1_Node000001_Node000002" class="edge">
<title>Node1&#45;&gt;Node2</title>
<g id="a_edge1_Node000001_Node000002"><a xlink:title=" ">
<path fill="none" stroke="orange" stroke-dasharray="5,2" d="M65.25,-244.85C69.78,-288.65 85.91,-378.39 143,-420.75 201.63,-464.24 286.42,-466.34 349.28,-459.88"/>
<polygon fill="orange" stroke="orange" points="68.72,-244.4 64.33,-234.76 61.75,-245.04 68.72,-244.4"/>
</a>
</g>
<text text-anchor="start" x="158.5" y="-512.75" font-family="Helvetica,sans-Serif" font-size="10.00" fill="grey">&lt; typename grid_t::</text>
<text text-anchor="start" x="158.5" y="-497.75" font-family="Helvetica,sans-Serif" font-size="10.00" fill="grey">  point_t(const Vector2</text>
<text text-anchor="start" x="158.5" y="-482.75" font-family="Helvetica,sans-Serif" font-size="10.00" fill="grey">   &amp;), GridAccess::IBoundToGrid</text>
<text text-anchor="start" x="158.5" y="-467.75" font-family="Helvetica,sans-Serif" font-size="10.00" fill="grey">  Local &gt;</text>
</g>
<!-- Node3 -->
<g id="Node000003" class="node">
<title>Node3</title>
<g id="a_Node000003"><a xlink:href="class_acts_1_1_owning_delegate.html" target="_top" xlink:title=" ">
<polygon fill="white" stroke="#666666" points="519.5,-385.75 349.5,-385.75 349.5,-333.75 519.5,-333.75 519.5,-385.75"/>
<text text-anchor="start" x="357.5" y="-373.75" font-family="Helvetica,sans-Serif" font-size="10.00">Acts::OwningDelegate</text>
<text text-anchor="start" x="357.5" y="-362.75" font-family="Helvetica,sans-Serif" font-size="10.00">&lt; typename grid_t::point</text>
<text text-anchor="start" x="357.5" y="-351.75" font-family="Helvetica,sans-Serif" font-size="10.00">_t(const Vector3 &amp;), GridAccess</text>
<text text-anchor="middle" x="434.5" y="-340.75" font-family="Helvetica,sans-Serif" font-size="10.00">::IGlobalToGridLocal &gt;</text>
</a>
</g>
</g>
<!-- Node1&#45;&gt;Node3 -->
<g id="edge2_Node000001_Node000003" class="edge">
<title>Node1&#45;&gt;Node3</title>
<g id="a_edge2_Node000001_Node000003"><a xlink:title=" ">
<path fill="none" stroke="orange" stroke-dasharray="5,2" d="M72.51,-244.21C84.15,-271.93 107.26,-315.98 143,-336.75 160.52,-346.93 269.94,-353.38 349.34,-356.78"/>
<polygon fill="orange" stroke="orange" points="75.71,-242.78 68.74,-234.8 69.21,-245.39 75.71,-242.78"/>
</a>
</g>
<text text-anchor="start" x="157.5" y="-405.75" font-family="Helvetica,sans-Serif" font-size="10.00" fill="grey">&lt; typename grid_t::</text>
<text text-anchor="start" x="157.5" y="-390.75" font-family="Helvetica,sans-Serif" font-size="10.00" fill="grey">  point_t(const Vector3</text>
<text text-anchor="start" x="157.5" y="-375.75" font-family="Helvetica,sans-Serif" font-size="10.00" fill="grey">   &amp;), GridAccess::IGlobalToGrid</text>
<text text-anchor="start" x="157.5" y="-360.75" font-family="Helvetica,sans-Serif" font-size="10.00" fill="grey">  Local &gt;</text>
</g>
<!-- Node4 -->
<g id="Node000004" class="node">
<title>Node4</title>
<g id="a_Node000004"><a xlink:title=" ">
<polygon fill="white" stroke="#666666" points="526.5,-315.75 342.5,-315.75 342.5,-263.75 526.5,-263.75 526.5,-315.75"/>
<text text-anchor="start" x="350.5" y="-303.75" font-family="Helvetica,sans-Serif" font-size="10.00">Acts::OwningDelegate</text>
<text text-anchor="start" x="350.5" y="-292.75" font-family="Helvetica,sans-Serif" font-size="10.00">&lt; std::array&lt; double,</text>
<text text-anchor="start" x="350.5" y="-281.75" font-family="Helvetica,sans-Serif" font-size="10.00"> 1u &gt;(const Vector2 &amp;)</text>
<text text-anchor="middle" x="434.5" y="-270.75" font-family="Helvetica,sans-Serif" font-size="10.00">, GridAccess::IBoundToGridLocal &gt;</text>
</a>
</g>
</g>
<!-- Node1&#45;&gt;Node4 -->
<g id="edge3_Node000001_Node000004" class="edge">
<title>Node1&#45;&gt;Node4</title>
<g id="a_edge3_Node000001_Node000004"><a xlink:title=" ">
<path fill="none" stroke="orange" stroke-dasharray="5,2" d="M91.04,-240.78C105.67,-250.78 124.43,-261.81 143,-267.75 178.89,-279.22 271.41,-284.79 342.49,-287.44"/>
<polygon fill="orange" stroke="orange" points="92.69,-237.66 82.5,-234.75 88.65,-243.38 92.69,-237.66"/>
</a>
</g>
<text text-anchor="start" x="146.5" y="-321.25" font-family="Helvetica,sans-Serif" font-size="10.00" fill="grey">&lt; std::array&lt; double,</text>
<text text-anchor="start" x="146.5" y="-306.25" font-family="Helvetica,sans-Serif" font-size="10.00" fill="grey">   1u &gt;(const Vector2 &amp;)</text>
<text text-anchor="start" x="146.5" y="-291.25" font-family="Helvetica,sans-Serif" font-size="10.00" fill="grey">  , GridAccess::IBoundToGridLocal &gt;</text>
</g>
<!-- Node5 -->
<g id="Node000005" class="node">
<title>Node5</title>
<g id="a_Node000005"><a xlink:title=" ">
<polygon fill="white" stroke="#666666" points="527,-245.75 342,-245.75 342,-193.75 527,-193.75 527,-245.75"/>
<text text-anchor="start" x="350" y="-233.75" font-family="Helvetica,sans-Serif" font-size="10.00">Acts::OwningDelegate</text>
<text text-anchor="start" x="350" y="-222.75" font-family="Helvetica,sans-Serif" font-size="10.00">&lt; std::array&lt; double,</text>
<text text-anchor="start" x="350" y="-211.75" font-family="Helvetica,sans-Serif" font-size="10.00"> 1u &gt;(const Vector3 &amp;)</text>
<text text-anchor="middle" x="434.5" y="-200.75" font-family="Helvetica,sans-Serif" font-size="10.00">, GridAccess::IGlobalToGridLocal &gt;</text>
</a>
</g>
</g>
<!-- Node1&#45;&gt;Node5 -->
<g id="edge4_Node000001_Node000005" class="edge">
<title>Node1&#45;&gt;Node5</title>
<g id="a_edge4_Node000001_Node000005"><a xlink:title=" ">
<path fill="none" stroke="orange" stroke-dasharray="5,2" d="M135.34,-219.75C194.22,-219.75 277.92,-219.75 341.66,-219.75"/>
<polygon fill="orange" stroke="orange" points="135.01,-216.25 125.01,-219.75 135.01,-223.25 135.01,-216.25"/>
</a>
</g>
<text text-anchor="start" x="146.5" y="-255.25" font-family="Helvetica,sans-Serif" font-size="10.00" fill="grey">&lt; std::array&lt; double,</text>
<text text-anchor="start" x="146.5" y="-240.25" font-family="Helvetica,sans-Serif" font-size="10.00" fill="grey">   1u &gt;(const Vector3 &amp;)</text>
<text text-anchor="start" x="146.5" y="-225.25" font-family="Helvetica,sans-Serif" font-size="10.00" fill="grey">  , GridAccess::IGlobalToGridLocal &gt;</text>
</g>
<!-- Node6 -->
<g id="Node000006" class="node">
<title>Node6</title>
<g id="a_Node000006"><a xlink:title=" ">
<polygon fill="white" stroke="#666666" points="526.5,-175.75 342.5,-175.75 342.5,-123.75 526.5,-123.75 526.5,-175.75"/>
<text text-anchor="start" x="350.5" y="-163.75" font-family="Helvetica,sans-Serif" font-size="10.00">Acts::OwningDelegate</text>
<text text-anchor="start" x="350.5" y="-152.75" font-family="Helvetica,sans-Serif" font-size="10.00">&lt; std::array&lt; double,</text>
<text text-anchor="start" x="350.5" y="-141.75" font-family="Helvetica,sans-Serif" font-size="10.00"> 2u &gt;(const Vector2 &amp;)</text>
<text text-anchor="middle" x="434.5" y="-130.75" font-family="Helvetica,sans-Serif" font-size="10.00">, GridAccess::IBoundToGridLocal &gt;</text>
</a>
</g>
</g>
<!-- Node1&#45;&gt;Node6 -->
<g id="edge5_Node000001_Node000006" class="edge">
<title>Node1&#45;&gt;Node6</title>
<g id="a_edge5_Node000001_Node000006"><a xlink:title=" ">
<path fill="none" stroke="orange" stroke-dasharray="5,2" d="M89.21,-198.49C104,-187.54 123.47,-175.17 143,-168.75 207.33,-147.58 283.91,-143.37 342.29,-144.16"/>
<polygon fill="orange" stroke="orange" points="86.9,-195.85 81.09,-204.71 91.15,-201.41 86.9,-195.85"/>
</a>
</g>
<text text-anchor="start" x="146.5" y="-204.25" font-family="Helvetica,sans-Serif" font-size="10.00" fill="grey">&lt; std::array&lt; double,</text>
<text text-anchor="start" x="146.5" y="-189.25" font-family="Helvetica,sans-Serif" font-size="10.00" fill="grey">   2u &gt;(const Vector2 &amp;)</text>
<text text-anchor="start" x="146.5" y="-174.25" font-family="Helvetica,sans-Serif" font-size="10.00" fill="grey">  , GridAccess::IBoundToGridLocal &gt;</text>
</g>
<!-- Node7 -->
<g id="Node000007" class="node">
<title>Node7</title>
<g id="a_Node000007"><a xlink:title=" ">
<polygon fill="white" stroke="#666666" points="527,-105.75 342,-105.75 342,-53.75 527,-53.75 527,-105.75"/>
<text text-anchor="start" x="350" y="-93.75" font-family="Helvetica,sans-Serif" font-size="10.00">Acts::OwningDelegate</text>
<text text-anchor="start" x="350" y="-82.75" font-family="Helvetica,sans-Serif" font-size="10.00">&lt; std::array&lt; double,</text>
<text text-anchor="start" x="350" y="-71.75" font-family="Helvetica,sans-Serif" font-size="10.00"> 2u &gt;(const Vector3 &amp;)</text>
<text text-anchor="middle" x="434.5" y="-60.75" font-family="Helvetica,sans-Serif" font-size="10.00">, GridAccess::IGlobalToGridLocal &gt;</text>
</a>
</g>
</g>
<!-- Node1&#45;&gt;Node7 -->
<g id="edge6_Node000001_Node000007" class="edge">
<title>Node1&#45;&gt;Node7</title>
<g id="a_edge6_Node000001_Node000007"><a xlink:title=" ">
<path fill="none" stroke="orange" stroke-dasharray="5,2" d="M71.13,-194.85C81.82,-164.73 104.41,-115.26 143,-92.75 202.63,-57.96 281.45,-56.63 341.94,-62.94"/>
<polygon fill="orange" stroke="orange" points="67.71,-194.03 67.83,-204.62 74.34,-196.26 67.71,-194.03"/>
</a>
</g>
<text text-anchor="start" x="146.5" y="-128.25" font-family="Helvetica,sans-Serif" font-size="10.00" fill="grey">&lt; std::array&lt; double,</text>
<text text-anchor="start" x="146.5" y="-113.25" font-family="Helvetica,sans-Serif" font-size="10.00" fill="grey">   2u &gt;(const Vector3 &amp;)</text>
<text text-anchor="start" x="146.5" y="-98.25" font-family="Helvetica,sans-Serif" font-size="10.00" fill="grey">  , GridAccess::IGlobalToGridLocal &gt;</text>
</g>
<!-- Node8 -->
<g id="Node000008" class="node">
<title>Node8</title>
<g id="a_Node000008"><a xlink:href="class_acts_1_1_owning_delegate_3_01_r_07_args_8_8_8_08_00_01_h_01_4.html" target="_top" xlink:title="Alias for an owning delegate.">
<polygon fill="white" stroke="#666666" points="497,-35.75 372,-35.75 372,-5.75 497,-5.75 497,-35.75"/>
<text text-anchor="start" x="380" y="-23.75" font-family="Helvetica,sans-Serif" font-size="10.00">Acts::OwningDelegate</text>
<text text-anchor="middle" x="434.5" y="-12.75" font-family="Helvetica,sans-Serif" font-size="10.00">&lt; R(Args...), H &gt;</text>
</a>
</g>
</g>
<!-- Node1&#45;&gt;Node8 -->
<g id="edge7_Node000001_Node000008" class="edge">
<title>Node1&#45;&gt;Node8</title>
<g id="a_edge7_Node000001_Node000008"><a xlink:title=" ">
<path fill="none" stroke="orange" stroke-dasharray="5,2" d="M66.39,-194.41C72.51,-153.85 90.8,-75.19 143,-38.75 210.12,8.11 308.63,2.87 371.91,-7.29"/>
<polygon fill="orange" stroke="orange" points="62.89,-194.17 65,-204.55 69.83,-195.12 62.89,-194.17"/>
</a>
</g>
<text text-anchor="start" x="192.5" y="-44.25" font-family="Helvetica,sans-Serif" font-size="10.00" fill="grey">&lt; R(Args...), H &gt;</text>
</g>
</g>
</svg>
