<?xml version="1.0" encoding="UTF-8" standalone="no"?>
<!DOCTYPE svg PUBLIC "-//W3C//DTD SVG 1.1//EN"
 "http://www.w3.org/Graphics/SVG/1.1/DTD/svg11.dtd">
<!-- Generated by graphviz version 2.43.0 (0)
 -->
<!-- Title: Acts::GridSurfaceMaterialT&lt; grid_t, material_accessor_t &gt; Pages: 1 -->
<svg width="270pt" height="326pt"
 viewBox="0.00 0.00 269.50 326.00" xmlns="http://www.w3.org/2000/svg" xmlns:xlink="http://www.w3.org/1999/xlink">
<g id="graph0" class="graph" transform="scale(1 1) rotate(0) translate(4 322)">
<title>Acts::GridSurfaceMaterialT&lt; grid_t, material_accessor_t &gt;</title>
<!-- Node1 -->
<g id="Node000001" class="node">
<title>Node1</title>
<g id="a_Node000001"><a xlink:title="GridSurfaceMaterialT.">
<polygon fill="#999999" stroke="#666666" points="177,-30 0,-30 0,0 177,0 177,-30"/>
<text text-anchor="start" x="8" y="-18" font-family="Helvetica,sans-Serif" font-size="10.00">Acts::GridSurfaceMaterial</text>
<text text-anchor="middle" x="88.5" y="-7" font-family="Helvetica,sans-Serif" font-size="10.00">T&lt; grid_t, material_accessor_t &gt;</text>
</a>
</g>
</g>
<!-- Node2 -->
<g id="Node000002" class="node">
<title>Node2</title>
<g id="a_Node000002"><a xlink:href="class_acts_1_1_i_grid_surface_material.html" target="_top" xlink:title=" ">
<polygon fill="white" stroke="#666666" points="164,-108 13,-108 13,-67 164,-67 164,-108"/>
<text text-anchor="start" x="21" y="-96" font-family="Helvetica,sans-Serif" font-size="10.00">Acts::IGridSurfaceMaterial</text>
<text text-anchor="start" x="21" y="-85" font-family="Helvetica,sans-Serif" font-size="10.00">&lt; material_accessor_t::grid</text>
<text text-anchor="middle" x="88.5" y="-74" font-family="Helvetica,sans-Serif" font-size="10.00">_value_type &gt;</text>
</a>
</g>
</g>
<!-- Node2&#45;&gt;Node1 -->
<g id="edge1_Node000001_Node000002" class="edge">
<title>Node2&#45;&gt;Node1</title>
<g id="a_edge1_Node000001_Node000002"><a xlink:title=" ">
<path fill="none" stroke="#63b8ff" d="M88.5,-56.58C88.5,-47.51 88.5,-37.95 88.5,-30.39"/>
<polygon fill="#63b8ff" stroke="#63b8ff" points="85,-56.86 88.5,-66.86 92,-56.86 85,-56.86"/>
</a>
</g>
</g>
<!-- Node3 -->
<g id="Node000003" class="node">
<title>Node3</title>
<g id="a_Node000003"><a xlink:href="class_acts_1_1_i_grid_surface_material_base.html" target="_top" xlink:title="Base class for the concrete templated grid surface material types.">
<polygon fill="white" stroke="#666666" points="168.5,-262 0.5,-262 0.5,-243 168.5,-243 168.5,-262"/>
<text text-anchor="middle" x="84.5" y="-250" font-family="Helvetica,sans-Serif" font-size="10.00">Acts::IGridSurfaceMaterialBase</text>
</a>
</g>
</g>
<!-- Node3&#45;&gt;Node2 -->
<g id="edge2_Node000002_Node000003" class="edge">
<title>Node3&#45;&gt;Node2</title>
<g id="a_edge2_Node000002_Node000003"><a xlink:title=" ">
<path fill="none" stroke="#63b8ff" d="M84.97,-232.39C85.73,-201.19 87.25,-139.64 88.02,-108.12"/>
<polygon fill="#63b8ff" stroke="#63b8ff" points="81.46,-232.65 84.72,-242.74 88.46,-232.83 81.46,-232.65"/>
</a>
</g>
</g>
<!-- Node5 -->
<g id="Node000005" class="node">
<title>Node5</title>
<g id="a_Node000005"><a xlink:href="class_acts_1_1_i_grid_surface_material.html" target="_top" xlink:title="Intermediate interface to the grid surface material given access to the grid and the material accesso...">
<polygon fill="white" stroke="#666666" points="244.5,-206 100.5,-206 100.5,-176 244.5,-176 244.5,-206"/>
<text text-anchor="start" x="108.5" y="-194" font-family="Helvetica,sans-Serif" font-size="10.00">Acts::IGridSurfaceMaterial</text>
<text text-anchor="middle" x="172.5" y="-183" font-family="Helvetica,sans-Serif" font-size="10.00">&lt; grid_value_t &gt;</text>
</a>
</g>
</g>
<!-- Node3&#45;&gt;Node5 -->
<g id="edge5_Node000005_Node000003" class="edge">
<title>Node3&#45;&gt;Node5</title>
<g id="a_edge5_Node000005_Node000003"><a xlink:title=" ">
<path fill="none" stroke="#63b8ff" d="M105.59,-237.24C119.58,-227.78 137.85,-215.43 151.76,-206.02"/>
<polygon fill="#63b8ff" stroke="#63b8ff" points="103.43,-234.47 97.11,-242.98 107.35,-240.27 103.43,-234.47"/>
</a>
</g>
</g>
<!-- Node4 -->
<g id="Node000004" class="node">
<title>Node4</title>
<g id="a_Node000004"><a xlink:href="class_acts_1_1_i_surface_material.html" target="_top" xlink:title="Base class of all surface&#45;based material description.">
<polygon fill="white" stroke="#666666" points="146.5,-318 22.5,-318 22.5,-299 146.5,-299 146.5,-318"/>
<text text-anchor="middle" x="84.5" y="-306" font-family="Helvetica,sans-Serif" font-size="10.00">Acts::ISurfaceMaterial</text>
</a>
</g>
</g>
<!-- Node4&#45;&gt;Node3 -->
<g id="edge3_Node000003_Node000004" class="edge">
<title>Node4&#45;&gt;Node3</title>
<g id="a_edge3_Node000003_Node000004"><a xlink:title=" ">
<path fill="none" stroke="#63b8ff" d="M84.5,-288.3C84.5,-279.41 84.5,-269.28 84.5,-262.25"/>
<polygon fill="#63b8ff" stroke="#63b8ff" points="81,-288.58 84.5,-298.58 88,-288.58 81,-288.58"/>
</a>
</g>
</g>
<!-- Node5&#45;&gt;Node2 -->
<g id="edge4_Node000002_Node000005" class="edge">
<title>Node5&#45;&gt;Node2</title>
<g id="a_edge4_Node000002_Node000005"><a xlink:title=" ">
<path fill="none" stroke="orange" stroke-dasharray="5,2" d="M154.09,-167.75C139.33,-149.92 118.82,-125.14 104.68,-108.06"/>
<polygon fill="orange" stroke="orange" points="151.75,-170.41 160.82,-175.89 157.14,-165.95 151.75,-170.41"/>
</a>
</g>
<text text-anchor="start" x="148" y="-147" font-family="Helvetica,sans-Serif" font-size="10.00" fill="grey">&lt; material_accessor</text>
<text text-anchor="start" x="148" y="-132" font-family="Helvetica,sans-Serif" font-size="10.00" fill="grey">  _t::grid_value_type &gt;</text>
</g>
</g>
</svg>
