<?xml version="1.0" encoding="UTF-8" standalone="no"?>
<!DOCTYPE svg PUBLIC "-//W3C//DTD SVG 1.1//EN"
 "http://www.w3.org/Graphics/SVG/1.1/DTD/svg11.dtd">
<!-- Generated by graphviz version 2.43.0 (0)
 -->
<!-- Title: Acts::ConeLayer Pages: 1 -->
<!--zoomable 530 -->

<svg id="main" version="1.1" xmlns="http://www.w3.org/2000/svg" xmlns:xlink="http://www.w3.org/1999/xlink" xml:space="preserve" onload="init(evt)">

<style type="text/css"><![CDATA[
.node, .edge {opacity: 0.7;}
.node.selected, .edge.selected {opacity: 1;}
.edge:hover path { stroke: red; }
.edge:hover polygon { stroke: red; fill: red; }
]]></style>

<defs>
  <circle id="rim" cx="0" cy="0" r="7"/>
  <circle id="rim2" cx="0" cy="0" r="3.5"/>
  <g id="zoomPlus">
    <use xlink:href="#rim" fill="#404040"><set attributeName="fill" to="#808080" begin="zoomplus.mouseover" end="zoomplus.mouseout"/></use>
    <path d="M-4,0h8M0,-4v8" fill="none" stroke="white" stroke-width="1.5" pointer-events="none"/>
  </g>
  <g id="zoomMin">
    <use xlink:href="#rim" fill="#404040"><set attributeName="fill" to="#808080" begin="zoomminus.mouseover" end="zoomminus.mouseout"/></use>
    <path d="M-4,0h8" fill="none" stroke="white" stroke-width="1.5" pointer-events="none"/>
  </g>
  <g id="arrowUp" transform="translate(30 24)">
    <use xlink:href="#rim"/>
    <path pointer-events="none" fill="none" stroke="white" stroke-width="1.5" d="M0,-3.0v7 M-2.5,-0.5L0,-3.0L2.5,-0.5"/>
  </g>
  <g id="arrowRight" transform="rotate(90) translate(36 -43)">
    <use xlink:href="#rim"/>
    <path pointer-events="none" fill="none" stroke="white" stroke-width="1.5" d="M0,-3.0v7 M-2.5,-0.5L0,-3.0L2.5,-0.5"/>
  </g>
  <g id="arrowDown" transform="rotate(180) translate(-30 -48)">
    <use xlink:href="#rim"/>
    <path pointer-events="none" fill="none" stroke="white" stroke-width="1.5" d="M0,-3.0v7 M-2.5,-0.5L0,-3.0L2.5,-0.5"/>
  </g>
  <g id="arrowLeft" transform="rotate(270) translate(-36 17)">
    <use xlink:href="#rim"/>
    <path pointer-events="none" fill="none" stroke="white" stroke-width="1.5" d="M0,-3.0v7 M-2.5,-0.5L0,-3.0L2.5,-0.5"/>
  </g>
  <g id="resetDef">
    <use xlink:href="#rim2" fill="#404040"><set attributeName="fill" to="#808080" begin="reset.mouseover" end="reset.mouseout"/></use>
  </g>
</defs>
<script type="application/ecmascript">
var viewWidth = 1996;
var viewHeight = 530;
var sectionId = 'dynsection-1';
</script>
<script type="application/ecmascript" xlink:href="svg.min.js"/>
<svg id="graph" class="graph">
<g id="viewport">
<title>Acts::ConeLayer</title>
<!-- Node1 -->
<g id="Node000001" class="node">
<title>Node1</title>
<g id="a_Node000001"><a xlink:title="Class to describe a conical detector layer for tracking, it inhertis from both, Layer base class and ...">
<polygon fill="#999999" stroke="#666666" points="1988,-85.5 1893,-85.5 1893,-66.5 1988,-66.5 1988,-85.5"/>
<text text-anchor="middle" x="1940.5" y="-73.5" font-family="Helvetica,sans-Serif" font-size="10.00">Acts::ConeLayer</text>
</a>
</g>
</g>
<!-- Node2 -->
<g id="Node000002" class="node">
<title>Node2</title>
<g id="a_Node000002"><a xlink:href="class_acts_1_1_cone_surface.html" target="_top" xlink:title="Class for a conical surface in the Tracking geometry.">
<polygon fill="white" stroke="#666666" points="1856,-313.5 1751,-313.5 1751,-294.5 1856,-294.5 1856,-313.5"/>
<text text-anchor="middle" x="1803.5" y="-301.5" font-family="Helvetica,sans-Serif" font-size="10.00">Acts::ConeSurface</text>
</a>
</g>
</g>
<!-- Node2&#45;&gt;Node1 -->
<g id="edge1_Node000001_Node000002" class="edge">
<title>Node2&#45;&gt;Node1</title>
<g id="a_edge1_Node000001_Node000002"><a xlink:title=" ">
<path fill="none" stroke="#63b8ff" d="M1815.23,-285.87C1842.42,-239.95 1913.31,-120.23 1933.85,-85.55"/>
<polygon fill="#63b8ff" stroke="#63b8ff" points="1812.21,-284.11 1810.13,-294.49 1818.24,-287.67 1812.21,-284.11"/>
</a>
</g>
</g>
<!-- Node3 -->
<g id="Node000003" class="node">
<title>Node3</title>
<g id="a_Node000003"><a xlink:href="class_acts_1_1_regular_surface.html" target="_top" xlink:title="A physical surface which does not depend on the direction you look at it from.">
<polygon fill="white" stroke="#666666" points="1714,-313.5 1596,-313.5 1596,-294.5 1714,-294.5 1714,-313.5"/>
<text text-anchor="middle" x="1655" y="-301.5" font-family="Helvetica,sans-Serif" font-size="10.00">Acts::RegularSurface</text>
</a>
</g>
</g>
<!-- Node3&#45;&gt;Node2 -->
<g id="edge2_Node000002_Node000003" class="edge">
<title>Node3&#45;&gt;Node2</title>
<g id="a_edge2_Node000002_Node000003"><a xlink:title=" ">
<path fill="none" stroke="#63b8ff" d="M1724.52,-304C1733.27,-304 1742.11,-304 1750.54,-304"/>
<polygon fill="#63b8ff" stroke="#63b8ff" points="1724.32,-300.5 1714.32,-304 1724.32,-307.5 1724.32,-300.5"/>
</a>
</g>
</g>
<!-- Node4 -->
<g id="Node000004" class="node">
<title>Node4</title>
<g id="a_Node000004"><a xlink:href="class_acts_1_1_surface.html" target="_top" xlink:title="Abstract Base Class for tracking surfaces.">
<polygon fill="white" stroke="#666666" points="1503,-313.5 1423,-313.5 1423,-294.5 1503,-294.5 1503,-313.5"/>
<text text-anchor="middle" x="1463" y="-301.5" font-family="Helvetica,sans-Serif" font-size="10.00">Acts::Surface</text>
</a>
</g>
</g>
<!-- Node4&#45;&gt;Node3 -->
<g id="edge3_Node000003_Node000004" class="edge">
<title>Node4&#45;&gt;Node3</title>
<g id="a_edge3_Node000003_Node000004"><a xlink:title=" ">
<path fill="none" stroke="#63b8ff" d="M1513.45,-304C1538.7,-304 1569.56,-304 1595.92,-304"/>
<polygon fill="#63b8ff" stroke="#63b8ff" points="1513.37,-300.5 1503.37,-304 1513.37,-307.5 1513.37,-300.5"/>
</a>
</g>
</g>
<!-- Node5 -->
<g id="Node000005" class="node">
<title>Node5</title>
<g id="a_Node000005"><a xlink:href="class_acts_1_1_geometry_object.html" target="_top" xlink:title="Base class to provide GeometryIdentifier interface:">
<polygon fill="white" stroke="#666666" points="374,-264.5 250,-264.5 250,-245.5 374,-245.5 374,-264.5"/>
<text text-anchor="middle" x="312" y="-252.5" font-family="Helvetica,sans-Serif" font-size="10.00">Acts::GeometryObject</text>
</a>
</g>
</g>
<!-- Node5&#45;&gt;Node4 -->
<g id="edge4_Node000004_Node000005" class="edge">
<title>Node5&#45;&gt;Node4</title>
<g id="a_edge4_Node000004_Node000005"><a xlink:title=" ">
<path fill="none" stroke="#63b8ff" d="M319.83,-274.23C337.15,-319.12 387.27,-427 469,-427 469,-427 469,-427 1179.5,-427 1282.77,-427 1317.21,-425.38 1405,-371 1428.63,-356.36 1447.47,-328.67 1456.39,-313.89"/>
<polygon fill="#63b8ff" stroke="#63b8ff" points="323.07,-272.89 316.3,-264.74 316.51,-275.33 323.07,-272.89"/>
</a>
</g>
</g>
<!-- Node13 -->
<g id="Node000013" class="node">
<title>Node13</title>
<g id="a_Node000013"><a xlink:href="class_acts_1_1_layer.html" target="_top" xlink:title="Base Class for a Detector Layer in the Tracking Geometry.">
<polygon fill="white" stroke="#666666" points="1214,-187.5 1143,-187.5 1143,-168.5 1214,-168.5 1214,-187.5"/>
<text text-anchor="middle" x="1178.5" y="-175.5" font-family="Helvetica,sans-Serif" font-size="10.00">Acts::Layer</text>
</a>
</g>
</g>
<!-- Node5&#45;&gt;Node13 -->
<g id="edge13_Node000013_Node000005" class="edge">
<title>Node5&#45;&gt;Node13</title>
<g id="a_edge13_Node000013_Node000005"><a xlink:title=" ">
<path fill="none" stroke="#63b8ff" d="M384.29,-256.96C549.37,-260.8 953.71,-266.07 1084,-230 1115.51,-221.28 1147.88,-199.97 1165.04,-187.51"/>
<polygon fill="#63b8ff" stroke="#63b8ff" points="384.32,-253.46 374.24,-256.72 384.16,-260.45 384.32,-253.46"/>
</a>
</g>
</g>
<!-- Node20 -->
<g id="Node000020" class="node">
<title>Node20</title>
<g id="a_Node000020"><a xlink:href="class_acts_1_1_volume.html" target="_top" xlink:title="It inherits from GeometryObject for geometry identification.">
<polygon fill="white" stroke="#666666" points="510,-37.5 430,-37.5 430,-18.5 510,-18.5 510,-37.5"/>
<text text-anchor="middle" x="470" y="-25.5" font-family="Helvetica,sans-Serif" font-size="10.00">Acts::Volume</text>
</a>
</g>
</g>
<!-- Node5&#45;&gt;Node20 -->
<g id="edge23_Node000020_Node000005" class="edge">
<title>Node5&#45;&gt;Node20</title>
<g id="a_edge23_Node000020_Node000005"><a xlink:title=" ">
<path fill="none" stroke="#63b8ff" d="M317.08,-235.28C326.47,-194.71 353.37,-101.31 411,-49 416.39,-44.11 423.01,-40.33 429.83,-37.42"/>
<polygon fill="#63b8ff" stroke="#63b8ff" points="313.62,-234.73 314.88,-245.24 320.45,-236.23 313.62,-234.73"/>
</a>
</g>
</g>
<!-- Node6 -->
<g id="Node000006" class="node">
<title>Node6</title>
<g id="a_Node000006"><a xlink:href="class_acts_1_1_geometry_identifier.html" target="_top" xlink:title="Identifier for geometry nodes within the geometry hierarchy.">
<polygon fill="white" stroke="#666666" points="136,-264.5 0,-264.5 0,-245.5 136,-245.5 136,-264.5"/>
<text text-anchor="middle" x="68" y="-252.5" font-family="Helvetica,sans-Serif" font-size="10.00">Acts::GeometryIdentifier</text>
</a>
</g>
</g>
<!-- Node6&#45;&gt;Node5 -->
<g id="edge5_Node000005_Node000006" class="edge">
<title>Node6&#45;&gt;Node5</title>
<g id="a_edge5_Node000005_Node000006"><a xlink:title=" ">
<path fill="none" stroke="#9a32cd" stroke-dasharray="5,2" d="M146.31,-255C179.84,-255 218.54,-255 249.99,-255"/>
<polygon fill="#9a32cd" stroke="#9a32cd" points="146.09,-251.5 136.09,-255 146.09,-258.5 146.09,-251.5"/>
</a>
</g>
<text text-anchor="start" x="157" y="-260.5" font-family="Helvetica,sans-Serif" font-size="10.00" fill="grey">m_geometryId</text>
</g>
<!-- Node7 -->
<g id="Node000007" class="node">
<title>Node7</title>
<g id="a_Node000007"><a xlink:title=" ">
<polygon fill="white" stroke="#666666" points="1242.5,-399 1114.5,-399 1114.5,-369 1242.5,-369 1242.5,-399"/>
<text text-anchor="start" x="1122.5" y="-387" font-family="Helvetica,sans-Serif" font-size="10.00">std::enable_shared</text>
<text text-anchor="middle" x="1178.5" y="-376" font-family="Helvetica,sans-Serif" font-size="10.00">_from_this&lt; Surface &gt;</text>
</a>
</g>
</g>
<!-- Node7&#45;&gt;Node4 -->
<g id="edge6_Node000004_Node000007" class="edge">
<title>Node7&#45;&gt;Node4</title>
<g id="a_edge6_Node000004_Node000007"><a xlink:title=" ">
<path fill="none" stroke="#63b8ff" d="M1252.59,-377.32C1297.74,-371.44 1356.18,-360.62 1405,-341 1421.86,-334.23 1439.06,-322.21 1450.09,-313.71"/>
<polygon fill="#63b8ff" stroke="#63b8ff" points="1252.07,-373.85 1242.59,-378.57 1252.94,-380.8 1252.07,-373.85"/>
</a>
</g>
</g>
<!-- Node8 -->
<g id="Node000008" class="node">
<title>Node8</title>
<g id="a_Node000008"><a xlink:title=" ">
<polygon fill="white" stroke="#666666" points="1255,-350.5 1102,-350.5 1102,-309.5 1255,-309.5 1255,-350.5"/>
<text text-anchor="start" x="1110" y="-338.5" font-family="Helvetica,sans-Serif" font-size="10.00">std::array&lt; std::string</text>
<text text-anchor="start" x="1110" y="-327.5" font-family="Helvetica,sans-Serif" font-size="10.00">_view, Surface::SurfaceType</text>
<text text-anchor="middle" x="1178.5" y="-316.5" font-family="Helvetica,sans-Serif" font-size="10.00">::Other+1 &gt;</text>
</a>
</g>
</g>
<!-- Node8&#45;&gt;Node4 -->
<g id="edge7_Node000004_Node000008" class="edge">
<title>Node8&#45;&gt;Node4</title>
<g id="a_edge7_Node000004_Node000008"><a xlink:title=" ">
<path fill="none" stroke="#9a32cd" stroke-dasharray="5,2" d="M1265.17,-322.12C1317.55,-317.29 1382.07,-311.36 1422.63,-307.62"/>
<polygon fill="#9a32cd" stroke="#9a32cd" points="1264.84,-318.63 1255.2,-323.03 1265.48,-325.6 1264.84,-318.63"/>
</a>
</g>
<text text-anchor="start" x="1287" y="-325.5" font-family="Helvetica,sans-Serif" font-size="10.00" fill="grey">s_surfaceTypeNames</text>
</g>
<!-- Node9 -->
<g id="Node000009" class="node">
<title>Node9</title>
<g id="a_Node000009"><a xlink:title=" ">
<polygon fill="white" stroke="#666666" points="869,-378.5 777,-378.5 777,-359.5 869,-359.5 869,-378.5"/>
<text text-anchor="middle" x="823" y="-366.5" font-family="Helvetica,sans-Serif" font-size="10.00">std::array&lt; T &gt;</text>
</a>
</g>
</g>
<!-- Node9&#45;&gt;Node8 -->
<g id="edge8_Node000008_Node000009" class="edge">
<title>Node9&#45;&gt;Node8</title>
<g id="a_edge8_Node000008_Node000009"><a xlink:title=" ">
<path fill="none" stroke="orange" stroke-dasharray="5,2" d="M879.29,-364.09C931.97,-359.27 1013.48,-351.43 1084,-343 1089.78,-342.31 1095.75,-341.56 1101.75,-340.78"/>
<polygon fill="orange" stroke="orange" points="878.79,-360.62 869.15,-365.02 879.43,-367.59 878.79,-360.62"/>
</a>
</g>
<text text-anchor="start" x="945" y="-394.5" font-family="Helvetica,sans-Serif" font-size="10.00" fill="grey">&lt; std::string_view,</text>
<text text-anchor="start" x="945" y="-379.5" font-family="Helvetica,sans-Serif" font-size="10.00" fill="grey">   Surface::SurfaceType</text>
<text text-anchor="start" x="945" y="-364.5" font-family="Helvetica,sans-Serif" font-size="10.00" fill="grey">  ::Other+1 &gt;</text>
</g>
<!-- Node10 -->
<g id="Node000010" class="node">
<title>Node10</title>
<g id="a_Node000010"><a xlink:title=" ">
<polygon fill="white" stroke="#666666" points="1064.5,-342 937.5,-342 937.5,-312 1064.5,-312 1064.5,-342"/>
<text text-anchor="start" x="945.5" y="-330" font-family="Helvetica,sans-Serif" font-size="10.00">std::unique_ptr&lt; const</text>
<text text-anchor="middle" x="1001" y="-319" font-family="Helvetica,sans-Serif" font-size="10.00"> Transform3 &gt;</text>
</a>
</g>
</g>
<!-- Node10&#45;&gt;Node4 -->
<g id="edge9_Node000004_Node000010" class="edge">
<title>Node10&#45;&gt;Node4</title>
<g id="a_edge9_Node000004_Node000010"><a xlink:title=" ">
<path fill="none" stroke="#9a32cd" stroke-dasharray="5,2" d="M1073.74,-313.77C1077.44,-311.55 1080.9,-308.98 1084,-306 1104.08,-286.72 1079.66,-262.62 1102,-246 1156.27,-205.62 1341.03,-253.03 1405,-275 1419.49,-279.98 1434.92,-288.01 1446.07,-294.37"/>
<polygon fill="#9a32cd" stroke="#9a32cd" points="1072.06,-310.69 1064.72,-318.33 1075.23,-316.93 1072.06,-310.69"/>
</a>
</g>
<text text-anchor="start" x="1146.5" y="-251.5" font-family="Helvetica,sans-Serif" font-size="10.00" fill="grey">m_transform</text>
</g>
<!-- Node11 -->
<g id="Node000011" class="node">
<title>Node11</title>
<g id="a_Node000011"><a xlink:title=" ">
<polygon fill="white" stroke="#666666" points="529,-199.5 411,-199.5 411,-180.5 529,-180.5 529,-199.5"/>
<text text-anchor="middle" x="470" y="-187.5" font-family="Helvetica,sans-Serif" font-size="10.00">std::unique_ptr&lt; T &gt;</text>
</a>
</g>
</g>
<!-- Node11&#45;&gt;Node10 -->
<g id="edge10_Node000010_Node000011" class="edge">
<title>Node11&#45;&gt;Node10</title>
<g id="a_edge10_Node000010_Node000011"><a xlink:title=" ">
<path fill="none" stroke="orange" stroke-dasharray="5,2" d="M498.55,-204.35C512.89,-211.66 530.76,-220.56 547,-228 634.13,-267.9 652.67,-289.24 746,-311 810.01,-325.92 885.39,-328.9 937.31,-328.79"/>
<polygon fill="orange" stroke="orange" points="499.75,-201.03 489.26,-199.57 496.55,-207.25 499.75,-201.03"/>
</a>
</g>
<text text-anchor="start" x="584.5" y="-312.5" font-family="Helvetica,sans-Serif" font-size="10.00" fill="grey">&lt; const Transform3 &gt;</text>
</g>
<!-- Node17 -->
<g id="Node000017" class="node">
<title>Node17</title>
<g id="a_Node000017"><a xlink:title=" ">
<polygon fill="white" stroke="#666666" points="886.5,-227 759.5,-227 759.5,-197 886.5,-197 886.5,-227"/>
<text text-anchor="start" x="767.5" y="-215" font-family="Helvetica,sans-Serif" font-size="10.00">std::unique_ptr&lt; const</text>
<text text-anchor="middle" x="823" y="-204" font-family="Helvetica,sans-Serif" font-size="10.00"> Acts::SurfaceArray &gt;</text>
</a>
</g>
</g>
<!-- Node11&#45;&gt;Node17 -->
<g id="edge18_Node000017_Node000011" class="edge">
<title>Node11&#45;&gt;Node17</title>
<g id="a_edge18_Node000017_Node000011"><a xlink:title=" ">
<path fill="none" stroke="orange" stroke-dasharray="5,2" d="M539.71,-194.31C603.48,-198.3 697.61,-204.2 759.36,-208.07"/>
<polygon fill="orange" stroke="orange" points="539.55,-190.79 529.35,-193.66 539.12,-197.78 539.55,-190.79"/>
</a>
</g>
<text text-anchor="start" x="566.5" y="-212.5" font-family="Helvetica,sans-Serif" font-size="10.00" fill="grey">&lt; const Acts::SurfaceArray &gt;</text>
</g>
<!-- Node18 -->
<g id="Node000018" class="node">
<title>Node18</title>
<g id="a_Node000018"><a xlink:title=" ">
<polygon fill="white" stroke="#666666" points="900,-179 746,-179 746,-149 900,-149 900,-179"/>
<text text-anchor="start" x="754" y="-167" font-family="Helvetica,sans-Serif" font-size="10.00">std::unique_ptr&lt; const</text>
<text text-anchor="middle" x="823" y="-156" font-family="Helvetica,sans-Serif" font-size="10.00"> Acts::ApproachDescriptor &gt;</text>
</a>
</g>
</g>
<!-- Node11&#45;&gt;Node18 -->
<g id="edge20_Node000018_Node000011" class="edge">
<title>Node11&#45;&gt;Node18</title>
<g id="a_edge20_Node000018_Node000011"><a xlink:title=" ">
<path fill="none" stroke="orange" stroke-dasharray="5,2" d="M523.01,-178.63C531.01,-177.2 539.21,-175.92 547,-175 613.91,-167.11 690.54,-164.57 745.88,-163.89"/>
<polygon fill="orange" stroke="orange" points="522.21,-175.22 513.03,-180.5 523.5,-182.1 522.21,-175.22"/>
</a>
</g>
<text text-anchor="start" x="550.5" y="-180.5" font-family="Helvetica,sans-Serif" font-size="10.00" fill="grey">&lt; const Acts::ApproachDescriptor &gt;</text>
</g>
<!-- Node21 -->
<g id="Node000021" class="node">
<title>Node21</title>
<g id="a_Node000021"><a xlink:title=" ">
<polygon fill="white" stroke="#666666" points="884,-131 762,-131 762,-101 884,-101 884,-131"/>
<text text-anchor="start" x="770" y="-119" font-family="Helvetica,sans-Serif" font-size="10.00">std::unique_ptr&lt; Acts</text>
<text text-anchor="middle" x="823" y="-108" font-family="Helvetica,sans-Serif" font-size="10.00">::Volume &gt;</text>
</a>
</g>
</g>
<!-- Node11&#45;&gt;Node21 -->
<g id="edge25_Node000021_Node000011" class="edge">
<title>Node11&#45;&gt;Node21</title>
<g id="a_edge25_Node000021_Node000011"><a xlink:title=" ">
<path fill="none" stroke="orange" stroke-dasharray="5,2" d="M491.33,-174.25C505.97,-163.8 526.65,-150.81 547,-144 618.22,-120.17 705.14,-115.01 761.94,-114.6"/>
<polygon fill="orange" stroke="orange" points="489.03,-171.6 483.06,-180.34 493.18,-177.23 489.03,-171.6"/>
</a>
</g>
<text text-anchor="start" x="594.5" y="-149.5" font-family="Helvetica,sans-Serif" font-size="10.00" fill="grey">&lt; Acts::Volume &gt;</text>
</g>
<!-- Node12 -->
<g id="Node000012" class="node">
<title>Node12</title>
<g id="a_Node000012"><a xlink:href="class_acts_1_1_detector_element_base.html" target="_top" xlink:title="This class is the base of all detector elements that are usable by ACTS.">
<polygon fill="white" stroke="#666666" points="1253.5,-291.5 1103.5,-291.5 1103.5,-272.5 1253.5,-272.5 1253.5,-291.5"/>
<text text-anchor="middle" x="1178.5" y="-279.5" font-family="Helvetica,sans-Serif" font-size="10.00">Acts::DetectorElementBase</text>
</a>
</g>
</g>
<!-- Node12&#45;&gt;Node4 -->
<g id="edge11_Node000004_Node000012" class="edge">
<title>Node12&#45;&gt;Node4</title>
<g id="a_edge11_Node000004_Node000012"><a xlink:title=" ">
<path fill="none" stroke="#9a32cd" stroke-dasharray="5,2" d="M1263.62,-278.55C1306.23,-278.15 1358.62,-279.71 1405,-287 1415.1,-288.59 1425.91,-291.49 1435.38,-294.45"/>
<polygon fill="#9a32cd" stroke="#9a32cd" points="1263.53,-275.05 1253.57,-278.68 1263.62,-282.05 1263.53,-275.05"/>
</a>
</g>
<text text-anchor="start" x="1276" y="-292.5" font-family="Helvetica,sans-Serif" font-size="10.00" fill="grey">m_associatedDetElement</text>
</g>
<!-- Node13&#45;&gt;Node1 -->
<g id="edge31_Node000001_Node000013" class="edge">
<title>Node13&#45;&gt;Node1</title>
<g id="a_edge31_Node000001_Node000013"><a xlink:title=" ">
<path fill="none" stroke="#63b8ff" d="M1193.58,-160.73C1231.7,-116.02 1342.19,0 1462,0 1462,0 1462,0 1804.5,0 1858.02,0 1909.91,-45.92 1930.36,-66.37"/>
<polygon fill="#63b8ff" stroke="#63b8ff" points="1190.86,-158.52 1187.12,-168.43 1196.23,-163.01 1190.86,-158.52"/>
</a>
</g>
</g>
<!-- Node13&#45;&gt;Node4 -->
<g id="edge12_Node000004_Node000013" class="edge">
<title>Node13&#45;&gt;Node4</title>
<g id="a_edge12_Node000004_Node000013"><a xlink:title=" ">
<path fill="none" stroke="#9a32cd" stroke-dasharray="5,2" d="M1224.22,-172.49C1272.8,-168.86 1350.72,-170.14 1405,-206 1437.52,-227.48 1453.83,-274.36 1459.56,-294.5"/>
<polygon fill="#9a32cd" stroke="#9a32cd" points="1223.69,-169.02 1214.02,-173.36 1224.28,-176 1223.69,-169.02"/>
</a>
</g>
<text text-anchor="start" x="1292" y="-211.5" font-family="Helvetica,sans-Serif" font-size="10.00" fill="grey">m_associatedLayer</text>
</g>
<!-- Node14 -->
<g id="Node000014" class="node">
<title>Node14</title>
<g id="a_Node000014"><a xlink:title=" ">
<polygon fill="white" stroke="#666666" points="885,-83 761,-83 761,-53 885,-53 885,-83"/>
<text text-anchor="start" x="769" y="-71" font-family="Helvetica,sans-Serif" font-size="10.00">std::pair&lt; const Layer</text>
<text text-anchor="middle" x="823" y="-60" font-family="Helvetica,sans-Serif" font-size="10.00"> *, const Layer * &gt;</text>
</a>
</g>
</g>
<!-- Node14&#45;&gt;Node13 -->
<g id="edge14_Node000013_Node000014" class="edge">
<title>Node14&#45;&gt;Node13</title>
<g id="a_edge14_Node000013_Node000014"><a xlink:title=" ">
<path fill="none" stroke="#9a32cd" stroke-dasharray="5,2" d="M895.27,-75.61C966.22,-83.5 1066.94,-95.69 1084,-103 1120.15,-118.49 1153.89,-151.99 1169.07,-168.46"/>
<polygon fill="#9a32cd" stroke="#9a32cd" points="895.36,-72.1 885.04,-74.48 894.59,-79.05 895.36,-72.1"/>
</a>
</g>
<text text-anchor="start" x="966" y="-108.5" font-family="Helvetica,sans-Serif" font-size="10.00" fill="grey">m_nextLayers</text>
</g>
<!-- Node15 -->
<g id="Node000015" class="node">
<title>Node15</title>
<g id="a_Node000015"><a xlink:title=" ">
<polygon fill="white" stroke="#666666" points="524.5,-77.5 415.5,-77.5 415.5,-58.5 524.5,-58.5 524.5,-77.5"/>
<text text-anchor="middle" x="470" y="-65.5" font-family="Helvetica,sans-Serif" font-size="10.00">std::pair&lt; T1, T2 &gt;</text>
</a>
</g>
</g>
<!-- Node15&#45;&gt;Node14 -->
<g id="edge15_Node000014_Node000015" class="edge">
<title>Node15&#45;&gt;Node14</title>
<g id="a_edge15_Node000014_Node000015"><a xlink:title=" ">
<path fill="none" stroke="orange" stroke-dasharray="5,2" d="M534.71,-68C599,-68 697.6,-68 760.94,-68"/>
<polygon fill="orange" stroke="orange" points="534.69,-64.5 524.69,-68 534.69,-71.5 534.69,-64.5"/>
</a>
</g>
<text text-anchor="start" x="583.5" y="-89" font-family="Helvetica,sans-Serif" font-size="10.00" fill="grey">&lt; const Layer *, const</text>
<text text-anchor="start" x="583.5" y="-74" font-family="Helvetica,sans-Serif" font-size="10.00" fill="grey">   Layer * &gt;</text>
</g>
<!-- Node16 -->
<g id="Node000016" class="node">
<title>Node16</title>
<g id="a_Node000016"><a xlink:href="class_acts_1_1_bin_utility.html" target="_top" xlink:title="The BinUtility class that translated global and local position into a bins of a BinnedArray,...">
<polygon fill="white" stroke="#666666" points="867.5,-302.5 778.5,-302.5 778.5,-283.5 867.5,-283.5 867.5,-302.5"/>
<text text-anchor="middle" x="823" y="-290.5" font-family="Helvetica,sans-Serif" font-size="10.00">Acts::BinUtility</text>
</a>
</g>
</g>
<!-- Node16&#45;&gt;Node13 -->
<g id="edge16_Node000013_Node000016" class="edge">
<title>Node16&#45;&gt;Node13</title>
<g id="a_edge16_Node000013_Node000016"><a xlink:title=" ">
<path fill="none" stroke="#9a32cd" stroke-dasharray="5,2" d="M877.74,-288.56C952.7,-282.27 1079.99,-271.17 1084,-268 1103.5,-252.56 1085.57,-233.68 1102,-215 1113.28,-202.17 1130.02,-193.34 1144.87,-187.54"/>
<polygon fill="#9a32cd" stroke="#9a32cd" points="877.21,-285.1 867.53,-289.42 877.79,-292.07 877.21,-285.1"/>
</a>
</g>
<text text-anchor="start" x="954" y="-290.5" font-family="Helvetica,sans-Serif" font-size="10.00" fill="grey">m_nextLayerUtility</text>
</g>
<!-- Node17&#45;&gt;Node13 -->
<g id="edge17_Node000013_Node000017" class="edge">
<title>Node17&#45;&gt;Node13</title>
<g id="a_edge17_Node000013_Node000017"><a xlink:title=" ">
<path fill="none" stroke="#9a32cd" stroke-dasharray="5,2" d="M896.91,-210.02C949.16,-207.99 1021.12,-203.95 1084,-196 1103.52,-193.53 1125.09,-189.47 1142.6,-185.83"/>
<polygon fill="#9a32cd" stroke="#9a32cd" points="896.59,-206.53 886.73,-210.4 896.85,-213.53 896.59,-206.53"/>
</a>
</g>
<text text-anchor="start" x="962" y="-214.5" font-family="Helvetica,sans-Serif" font-size="10.00" fill="grey">m_surfaceArray</text>
</g>
<!-- Node18&#45;&gt;Node13 -->
<g id="edge19_Node000013_Node000018" class="edge">
<title>Node18&#45;&gt;Node13</title>
<g id="a_edge19_Node000013_Node000018"><a xlink:title=" ">
<path fill="none" stroke="#9a32cd" stroke-dasharray="5,2" d="M910.6,-167.43C985.26,-170.39 1089.22,-174.5 1142.68,-176.62"/>
<polygon fill="#9a32cd" stroke="#9a32cd" points="910.4,-163.92 900.27,-167.02 910.12,-170.91 910.4,-163.92"/>
</a>
</g>
<text text-anchor="start" x="946" y="-180.5" font-family="Helvetica,sans-Serif" font-size="10.00" fill="grey">m_approachDescriptor</text>
</g>
<!-- Node19 -->
<g id="Node000019" class="node">
<title>Node19</title>
<g id="a_Node000019"><a xlink:href="class_acts_1_1_tracking_volume.html" target="_top" xlink:title="Full Volume description used in Tracking, it inherits from Volume to get the geometrical structure.">
<polygon fill="white" stroke="#666666" points="883.5,-34.5 762.5,-34.5 762.5,-15.5 883.5,-15.5 883.5,-34.5"/>
<text text-anchor="middle" x="823" y="-22.5" font-family="Helvetica,sans-Serif" font-size="10.00">Acts::TrackingVolume</text>
</a>
</g>
</g>
<!-- Node19&#45;&gt;Node4 -->
<g id="edge26_Node000004_Node000019" class="edge">
<title>Node19&#45;&gt;Node4</title>
<g id="a_edge26_Node000004_Node000019"><a xlink:title=" ">
<path fill="none" stroke="#9a32cd" stroke-dasharray="5,2" d="M893.84,-20.94C1015.14,-17.93 1265.16,-30.21 1405,-168 1442.38,-204.84 1456.45,-269.89 1460.57,-294.34"/>
<polygon fill="#9a32cd" stroke="#9a32cd" points="893.46,-17.45 883.56,-21.24 893.66,-24.45 893.46,-17.45"/>
</a>
</g>
<text text-anchor="start" x="1106.5" y="-77.5" font-family="Helvetica,sans-Serif" font-size="10.00" fill="grey">m_associatedTrackingVolume</text>
</g>
<!-- Node19&#45;&gt;Node13 -->
<g id="edge21_Node000013_Node000019" class="edge">
<title>Node19&#45;&gt;Node13</title>
<g id="a_edge21_Node000013_Node000019"><a xlink:title=" ">
<path fill="none" stroke="#9a32cd" stroke-dasharray="5,2" d="M893.63,-33.19C969.23,-42.17 1079.85,-55.64 1084,-58 1130.82,-84.66 1162.39,-145.03 1173.29,-168.46"/>
<polygon fill="#9a32cd" stroke="#9a32cd" points="894.01,-29.71 883.67,-32 893.19,-36.66 894.01,-29.71"/>
</a>
</g>
<text text-anchor="start" x="955" y="-63.5" font-family="Helvetica,sans-Serif" font-size="10.00" fill="grey">m_trackingVolume</text>
</g>
<!-- Node20&#45;&gt;Node19 -->
<g id="edge22_Node000019_Node000020" class="edge">
<title>Node20&#45;&gt;Node19</title>
<g id="a_edge22_Node000019_Node000020"><a xlink:title=" ">
<path fill="none" stroke="#63b8ff" d="M520.4,-27.58C583.91,-27.03 694.11,-26.09 762.26,-25.51"/>
<polygon fill="#63b8ff" stroke="#63b8ff" points="520.21,-24.08 510.24,-27.66 520.27,-31.08 520.21,-24.08"/>
</a>
</g>
</g>
<!-- Node21&#45;&gt;Node13 -->
<g id="edge24_Node000013_Node000021" class="edge">
<title>Node21&#45;&gt;Node13</title>
<g id="a_edge24_Node000013_Node000021"><a xlink:title=" ">
<path fill="none" stroke="#9a32cd" stroke-dasharray="5,2" d="M894.46,-120.54C947.13,-124.87 1020.67,-132.88 1084,-147 1108.04,-152.36 1134.62,-161.5 1153.27,-168.47"/>
<polygon fill="#9a32cd" stroke="#9a32cd" points="894.46,-117.03 884.21,-119.73 893.9,-124.01 894.46,-117.03"/>
</a>
</g>
<text text-anchor="start" x="944" y="-152.5" font-family="Helvetica,sans-Serif" font-size="10.00" fill="grey">m_representingVolume</text>
</g>
<!-- Node22 -->
<g id="Node000022" class="node">
<title>Node22</title>
<g id="a_Node000022"><a xlink:title=" ">
<polygon fill="white" stroke="#666666" points="1247.5,-485 1109.5,-485 1109.5,-455 1247.5,-455 1247.5,-485"/>
<text text-anchor="start" x="1117.5" y="-473" font-family="Helvetica,sans-Serif" font-size="10.00">std::shared_ptr&lt; const</text>
<text text-anchor="middle" x="1178.5" y="-462" font-family="Helvetica,sans-Serif" font-size="10.00"> Acts::ISurfaceMaterial &gt;</text>
</a>
</g>
</g>
<!-- Node22&#45;&gt;Node4 -->
<g id="edge27_Node000004_Node000022" class="edge">
<title>Node22&#45;&gt;Node4</title>
<g id="a_edge27_Node000004_Node000022"><a xlink:title=" ">
<path fill="none" stroke="#9a32cd" stroke-dasharray="5,2" d="M1257.91,-463.78C1318.24,-458.35 1393.27,-449.96 1405,-441 1426.6,-424.5 1451.32,-342.13 1459.34,-313.68"/>
<polygon fill="#9a32cd" stroke="#9a32cd" points="1257.25,-460.32 1247.6,-464.69 1257.87,-467.3 1257.25,-460.32"/>
</a>
</g>
<text text-anchor="start" x="1293" y="-466.5" font-family="Helvetica,sans-Serif" font-size="10.00" fill="grey">m_surfaceMaterial</text>
</g>
<!-- Node23 -->
<g id="Node000023" class="node">
<title>Node23</title>
<g id="a_Node000023"><a xlink:title=" ">
<polygon fill="white" stroke="#666666" points="882,-501.5 764,-501.5 764,-482.5 882,-482.5 882,-501.5"/>
<text text-anchor="middle" x="823" y="-489.5" font-family="Helvetica,sans-Serif" font-size="10.00">std::shared_ptr&lt; T &gt;</text>
</a>
</g>
</g>
<!-- Node23&#45;&gt;Node22 -->
<g id="edge28_Node000022_Node000023" class="edge">
<title>Node23&#45;&gt;Node22</title>
<g id="a_edge28_Node000022_Node000023"><a xlink:title=" ">
<path fill="none" stroke="orange" stroke-dasharray="5,2" d="M875.24,-480.52C889.05,-477.88 904.03,-475.43 918,-474 982.66,-467.36 1056.84,-466.93 1109.29,-467.83"/>
<polygon fill="orange" stroke="orange" points="874.55,-477.09 865.42,-482.46 875.91,-483.95 874.55,-477.09"/>
</a>
</g>
<text text-anchor="start" x="921" y="-479.5" font-family="Helvetica,sans-Serif" font-size="10.00" fill="grey">&lt; const Acts::ISurfaceMaterial &gt;</text>
</g>
<!-- Node24 -->
<g id="Node000024" class="node">
<title>Node24</title>
<g id="a_Node000024"><a xlink:title=" ">
<polygon fill="white" stroke="#666666" points="1402.5,-522 1275.5,-522 1275.5,-492 1402.5,-492 1402.5,-522"/>
<text text-anchor="start" x="1283.5" y="-510" font-family="Helvetica,sans-Serif" font-size="10.00">std::shared_ptr&lt; const</text>
<text text-anchor="middle" x="1339" y="-499" font-family="Helvetica,sans-Serif" font-size="10.00"> Acts::ConeBounds &gt;</text>
</a>
</g>
</g>
<!-- Node23&#45;&gt;Node24 -->
<g id="edge30_Node000024_Node000023" class="edge">
<title>Node23&#45;&gt;Node24</title>
<g id="a_edge30_Node000024_Node000023"><a xlink:title=" ">
<path fill="none" stroke="orange" stroke-dasharray="5,2" d="M892.49,-494C992.79,-496.93 1178.22,-502.34 1275.19,-505.17"/>
<polygon fill="orange" stroke="orange" points="892.56,-490.5 882.46,-493.71 892.36,-497.5 892.56,-490.5"/>
</a>
</g>
<text text-anchor="start" x="931" y="-504.5" font-family="Helvetica,sans-Serif" font-size="10.00" fill="grey">&lt; const Acts::ConeBounds &gt;</text>
</g>
<!-- Node24&#45;&gt;Node2 -->
<g id="edge29_Node000002_Node000024" class="edge">
<title>Node24&#45;&gt;Node2</title>
<g id="a_edge29_Node000002_Node000024"><a xlink:title=" ">
<path fill="none" stroke="#9a32cd" stroke-dasharray="5,2" d="M1390.05,-488.06C1395.12,-486.05 1400.17,-484.01 1405,-482 1550.92,-421.32 1723.52,-341.08 1781.98,-313.66"/>
<polygon fill="#9a32cd" stroke="#9a32cd" points="1388.39,-484.96 1380.36,-491.87 1390.94,-491.47 1388.39,-484.96"/>
</a>
</g>
<text text-anchor="start" x="1524.5" y="-437.5" font-family="Helvetica,sans-Serif" font-size="10.00" fill="grey">m_bounds</text>
</g>
</g>
</svg>

<g id="navigator" transform="translate(0 0)" fill="#404254">
  <rect fill="#f2f5e9" fill-opacity="0.5" stroke="#606060" stroke-width=".5" x="0" y="0" width="60" height="60"/>
  <use id="zoomplus" xlink:href="#zoomPlus" x="17" y="9" onmousedown="handleZoom(evt,'in')"/>
  <use id="zoomminus" xlink:href="#zoomMin" x="42" y="9" onmousedown="handleZoom(evt,'out')"/>
  <use id="reset" xlink:href="#resetDef" x="30" y="36" onmousedown="handleReset()"/>
   <use id="arrowup" xlink:href="#arrowUp" x="0" y="0" onmousedown="handlePan(0,-1)"/>
  <use id="arrowright" xlink:href="#arrowRight" x="0" y="0" onmousedown="handlePan(1,0)"/>
  <use id="arrowdown" xlink:href="#arrowDown" x="0" y="0" onmousedown="handlePan(0,1)"/>
  <use id="arrowleft" xlink:href="#arrowLeft" x="0" y="0" onmousedown="handlePan(-1,0)"/>
</g>
<svg viewBox="0 0 15 15" width="100%" height="30px" preserveAspectRatio="xMaxYMin meet">
 <g id="arrow_out" transform="scale(0.3 0.3)">
  <a xlink:href="class_acts_1_1_cone_layer__coll__graph_org.svg" target="_base">
   <rect id="button" ry="5" rx="5" y="6" x="6" height="38" width="38"
        fill="#f2f5e9" fill-opacity="0.5" stroke="#606060" stroke-width="1.0"/>
   <path id="arrow"
     d="M 11.500037,31.436501 C 11.940474,20.09759 22.043105,11.32322 32.158766,21.979434 L 37.068811,17.246167 C 37.068811,17.246167 37.088388,32 37.088388,32 L 22.160133,31.978069 C 22.160133,31.978069 26.997745,27.140456 26.997745,27.140456 C 18.528582,18.264221 13.291696,25.230495 11.500037,31.436501 z"
     style="fill:#404040;"/>
  </a>
 </g>
</svg>

<style type='text/css'>
<![CDATA[
[data-mouse-over-selected='false'] { opacity: 0.7; }
[data-mouse-over-selected='true']  { opacity: 1.0; }
]]>
</style>
<script type="application/ecmascript"><![CDATA[
document.addEventListener('DOMContentLoaded', (event) => {
  highlightEdges();
  highlightAdjacentNodes();
});
]]></script>
</svg>
