<?xml version="1.0" encoding="UTF-8" standalone="no"?>
<!DOCTYPE svg PUBLIC "-//W3C//DTD SVG 1.1//EN"
 "http://www.w3.org/Graphics/SVG/1.1/DTD/svg11.dtd">
<!-- Generated by graphviz version 2.43.0 (0)
 -->
<!-- Title: ActsPlugins::ConstPodioTrackStateContainer Pages: 1 -->
<svg width="730pt" height="86pt"
 viewBox="0.00 0.00 730.00 86.00" xmlns="http://www.w3.org/2000/svg" xmlns:xlink="http://www.w3.org/1999/xlink">
<g id="graph0" class="graph" transform="scale(1 1) rotate(0) translate(4 82)">
<title>ActsPlugins::ConstPodioTrackStateContainer</title>
<!-- Node1 -->
<g id="Node000001" class="node">
<title>Node1</title>
<g id="a_Node000001"><a xlink:title=" ">
<polygon fill="#999999" stroke="#666666" points="722,-54 563,-54 563,-24 722,-24 722,-54"/>
<text text-anchor="start" x="571" y="-42" font-family="Helvetica,sans-Serif" font-size="10.00">ActsPlugins::ConstPodioTrack</text>
<text text-anchor="middle" x="642.5" y="-31" font-family="Helvetica,sans-Serif" font-size="10.00">StateContainer</text>
</a>
</g>
</g>
<!-- Node2 -->
<g id="Node000002" class="node">
<title>Node2</title>
<g id="a_Node000002"><a xlink:href="class_acts_plugins_1_1_podio_track_state_container_base.html" target="_top" xlink:title=" ">
<polygon fill="white" stroke="#666666" points="508.5,-78 351.5,-78 351.5,-48 508.5,-48 508.5,-78"/>
<text text-anchor="start" x="359.5" y="-66" font-family="Helvetica,sans-Serif" font-size="10.00">ActsPlugins::PodioTrackState</text>
<text text-anchor="middle" x="430" y="-55" font-family="Helvetica,sans-Serif" font-size="10.00">ContainerBase</text>
</a>
</g>
</g>
<!-- Node2&#45;&gt;Node1 -->
<g id="edge1_Node000001_Node000002" class="edge">
<title>Node2&#45;&gt;Node1</title>
<g id="a_edge1_Node000001_Node000002"><a xlink:title=" ">
<path fill="none" stroke="#63b8ff" d="M518.83,-52.99C533.48,-51.32 548.59,-49.59 562.98,-47.95"/>
<polygon fill="#63b8ff" stroke="#63b8ff" points="518.32,-49.52 508.78,-54.13 519.12,-56.48 518.32,-49.52"/>
</a>
</g>
</g>
<!-- Node3 -->
<g id="Node000003" class="node">
<title>Node3</title>
<g id="a_Node000003"><a xlink:href="class_acts_1_1_multi_trajectory.html" target="_top" xlink:title=" ">
<polygon fill="white" stroke="#666666" points="526,-30 334,-30 334,0 526,0 526,-30"/>
<text text-anchor="start" x="342" y="-18" font-family="Helvetica,sans-Serif" font-size="10.00">Acts::MultiTrajectory</text>
<text text-anchor="middle" x="430" y="-7" font-family="Helvetica,sans-Serif" font-size="10.00">&lt; ConstPodioTrackStateContainer &gt;</text>
</a>
</g>
</g>
<!-- Node3&#45;&gt;Node1 -->
<g id="edge2_Node000001_Node000003" class="edge">
<title>Node3&#45;&gt;Node1</title>
<g id="a_edge2_Node000001_Node000003"><a xlink:title=" ">
<path fill="none" stroke="#63b8ff" d="M536.22,-27C545.2,-28.02 554.18,-29.04 562.9,-30.04"/>
<polygon fill="#63b8ff" stroke="#63b8ff" points="536.42,-23.5 526.09,-25.84 535.63,-30.45 536.42,-23.5"/>
</a>
</g>
</g>
<!-- Node4 -->
<g id="Node000004" class="node">
<title>Node4</title>
<g id="a_Node000004"><a xlink:href="class_acts_1_1_multi_trajectory.html" target="_top" xlink:title="Store a trajectory of track states with multiple components.">
<polygon fill="white" stroke="#666666" points="116,-30 0,-30 0,0 116,0 116,-30"/>
<text text-anchor="start" x="8" y="-18" font-family="Helvetica,sans-Serif" font-size="10.00">Acts::MultiTrajectory</text>
<text text-anchor="middle" x="58" y="-7" font-family="Helvetica,sans-Serif" font-size="10.00">&lt; derived_t &gt;</text>
</a>
</g>
</g>
<!-- Node4&#45;&gt;Node3 -->
<g id="edge3_Node000003_Node000004" class="edge">
<title>Node4&#45;&gt;Node3</title>
<g id="a_edge3_Node000003_Node000004"><a xlink:title=" ">
<path fill="none" stroke="orange" stroke-dasharray="5,2" d="M126.16,-15C184.2,-15 268.75,-15 333.77,-15"/>
<polygon fill="orange" stroke="orange" points="126,-11.5 116,-15 126,-18.5 126,-11.5"/>
</a>
</g>
<text text-anchor="start" x="137" y="-20.5" font-family="Helvetica,sans-Serif" font-size="10.00" fill="grey">&lt; ConstPodioTrackStateContainer &gt;</text>
</g>
</g>
</svg>
