<?xml version="1.0" encoding="UTF-8" standalone="no"?>
<!DOCTYPE svg PUBLIC "-//W3C//DTD SVG 1.1//EN"
 "http://www.w3.org/Graphics/SVG/1.1/DTD/svg11.dtd">
<!-- Generated by graphviz version 2.43.0 (0)
 -->
<!-- Title: Acts::AnyBase&lt; SIZE &gt; Pages: 1 -->
<svg width="597pt" height="181pt"
 viewBox="0.00 0.00 597.00 180.50" xmlns="http://www.w3.org/2000/svg" xmlns:xlink="http://www.w3.org/1999/xlink">
<g id="graph0" class="graph" transform="scale(1 1) rotate(0) translate(4 176.5)">
<title>Acts::AnyBase&lt; SIZE &gt;</title>
<!-- Node1 -->
<g id="Node000001" class="node">
<title>Node1</title>
<g id="a_Node000001"><a xlink:title="Small opaque cache type with configurable small buffer optimization.">
<polygon fill="#999999" stroke="#666666" points="267,-86 136,-86 136,-67 267,-67 267,-86"/>
<text text-anchor="middle" x="201.5" y="-74" font-family="Helvetica,sans-Serif" font-size="10.00">Acts::AnyBase&lt; SIZE &gt;</text>
</a>
</g>
</g>
<!-- Node3 -->
<g id="Node000003" class="node">
<title>Node3</title>
<g id="a_Node000003"><a xlink:href="class_acts_1_1_any_base.html" target="_top" xlink:title=" ">
<polygon fill="white" stroke="#666666" points="589,-163.5 440,-163.5 440,-133.5 589,-133.5 589,-163.5"/>
<text text-anchor="start" x="448" y="-151.5" font-family="Helvetica,sans-Serif" font-size="10.00">Acts::AnyBase&lt; ACTS</text>
<text text-anchor="middle" x="514.5" y="-140.5" font-family="Helvetica,sans-Serif" font-size="10.00">_SOURCELINK_SBO_SIZE &gt;</text>
</a>
</g>
</g>
<!-- Node1&#45;&gt;Node3 -->
<g id="edge2_Node000001_Node000003" class="edge">
<title>Node1&#45;&gt;Node3</title>
<g id="a_edge2_Node000001_Node000003"><a xlink:title=" ">
<path fill="none" stroke="orange" stroke-dasharray="5,2" d="M228.8,-90.95C244.65,-99.06 265.48,-108.68 285,-114.5 335.54,-129.56 394.45,-138.12 439.8,-142.89"/>
<polygon fill="orange" stroke="orange" points="230.12,-87.69 219.64,-86.15 226.87,-93.89 230.12,-87.69"/>
</a>
</g>
<text text-anchor="start" x="288.5" y="-161.5" font-family="Helvetica,sans-Serif" font-size="10.00" fill="grey">&lt; ACTS_SOURCELINK_SBO</text>
<text text-anchor="start" x="288.5" y="-146.5" font-family="Helvetica,sans-Serif" font-size="10.00" fill="grey">  _SIZE &gt;</text>
</g>
<!-- Node4 -->
<g id="Node000004" class="node">
<title>Node4</title>
<g id="a_Node000004"><a xlink:href="class_acts_1_1_any_base.html" target="_top" xlink:title=" ">
<polygon fill="white" stroke="#666666" points="578,-115.5 451,-115.5 451,-85.5 578,-85.5 578,-115.5"/>
<text text-anchor="start" x="459" y="-103.5" font-family="Helvetica,sans-Serif" font-size="10.00">Acts::AnyBase&lt; sizeof</text>
<text text-anchor="middle" x="514.5" y="-92.5" font-family="Helvetica,sans-Serif" font-size="10.00">(char) *512 &gt;</text>
</a>
</g>
</g>
<!-- Node1&#45;&gt;Node4 -->
<g id="edge3_Node000001_Node000004" class="edge">
<title>Node1&#45;&gt;Node4</title>
<g id="a_edge3_Node000001_Node000004"><a xlink:title=" ">
<path fill="none" stroke="orange" stroke-dasharray="5,2" d="M277.35,-82.28C330.41,-86.37 400.8,-91.8 450.89,-95.67"/>
<polygon fill="orange" stroke="orange" points="277.56,-78.78 267.32,-81.5 277.02,-85.76 277.56,-78.78"/>
</a>
</g>
<text text-anchor="start" x="300.5" y="-99" font-family="Helvetica,sans-Serif" font-size="10.00" fill="grey">&lt; sizeof(char) *512 &gt;</text>
</g>
<!-- Node5 -->
<g id="Node000005" class="node">
<title>Node5</title>
<g id="a_Node000005"><a xlink:href="class_acts_1_1_any_base.html" target="_top" xlink:title=" ">
<polygon fill="white" stroke="#666666" points="578,-67.5 451,-67.5 451,-37.5 578,-37.5 578,-67.5"/>
<text text-anchor="start" x="459" y="-55.5" font-family="Helvetica,sans-Serif" font-size="10.00">Acts::AnyBase&lt; sizeof</text>
<text text-anchor="middle" x="514.5" y="-44.5" font-family="Helvetica,sans-Serif" font-size="10.00">(void *)&gt;</text>
</a>
</g>
</g>
<!-- Node1&#45;&gt;Node5 -->
<g id="edge4_Node000001_Node000005" class="edge">
<title>Node1&#45;&gt;Node5</title>
<g id="a_edge4_Node000001_Node000005"><a xlink:title=" ">
<path fill="none" stroke="orange" stroke-dasharray="5,2" d="M262.42,-65.44C270,-64.3 277.67,-63.28 285,-62.5 340.87,-56.56 404.79,-54.13 450.79,-53.15"/>
<polygon fill="orange" stroke="orange" points="261.87,-61.98 252.53,-66.98 262.96,-68.89 261.87,-61.98"/>
</a>
</g>
<text text-anchor="start" x="310.5" y="-68" font-family="Helvetica,sans-Serif" font-size="10.00" fill="grey">&lt; sizeof(void *)&gt;</text>
</g>
<!-- Node6 -->
<g id="Node000006" class="node">
<title>Node6</title>
<g id="a_Node000006"><a xlink:href="class_acts_1_1_any_base.html" target="_top" xlink:title=" ">
<polygon fill="white" stroke="#666666" points="578,-19 451,-19 451,0 578,0 578,-19"/>
<text text-anchor="middle" x="514.5" y="-7" font-family="Helvetica,sans-Serif" font-size="10.00">Acts::AnyBase&lt; 128 &gt;</text>
</a>
</g>
</g>
<!-- Node1&#45;&gt;Node6 -->
<g id="edge5_Node000001_Node000006" class="edge">
<title>Node1&#45;&gt;Node6</title>
<g id="a_edge5_Node000001_Node000006"><a xlink:title=" ">
<path fill="none" stroke="orange" stroke-dasharray="5,2" d="M225.35,-61.6C241.37,-51.91 263.67,-39.93 285,-33.5 339.43,-17.11 404.06,-11.53 450.68,-9.8"/>
<polygon fill="orange" stroke="orange" points="223.34,-58.73 216.69,-66.98 227.03,-64.67 223.34,-58.73"/>
</a>
</g>
<text text-anchor="start" x="333.5" y="-39" font-family="Helvetica,sans-Serif" font-size="10.00" fill="grey">&lt; 128 &gt;</text>
</g>
<!-- Node2 -->
<g id="Node000002" class="node">
<title>Node2</title>
<g id="a_Node000002"><a xlink:href="class_acts_1_1_any_base_all.html" target="_top" xlink:title="Base class for all instances of AnyBase regarfless of SBO size.">
<polygon fill="white" stroke="#666666" points="99,-86 0,-86 0,-67 99,-67 99,-86"/>
<text text-anchor="middle" x="49.5" y="-74" font-family="Helvetica,sans-Serif" font-size="10.00">Acts::AnyBaseAll</text>
</a>
</g>
</g>
<!-- Node2&#45;&gt;Node1 -->
<g id="edge1_Node000001_Node000002" class="edge">
<title>Node2&#45;&gt;Node1</title>
<g id="a_edge1_Node000001_Node000002"><a xlink:title=" ">
<path fill="none" stroke="#63b8ff" d="M109.29,-76.5C118.03,-76.5 127.09,-76.5 135.94,-76.5"/>
<polygon fill="#63b8ff" stroke="#63b8ff" points="109.2,-73 99.2,-76.5 109.2,-80 109.2,-73"/>
</a>
</g>
</g>
</g>
</svg>
