<?xml version="1.0" encoding="UTF-8" standalone="no"?>
<!DOCTYPE svg PUBLIC "-//W3C//DTD SVG 1.1//EN"
 "http://www.w3.org/Graphics/SVG/1.1/DTD/svg11.dtd">
<!-- Generated by graphviz version 2.43.0 (0)
 -->
<!-- Title: Acts::CylinderVolumeHelper Pages: 1 -->
<svg width="1079pt" height="101pt"
 viewBox="0.00 0.00 1079.00 100.50" xmlns="http://www.w3.org/2000/svg" xmlns:xlink="http://www.w3.org/1999/xlink">
<g id="graph0" class="graph" transform="scale(1 1) rotate(0) translate(4 96.5)">
<title>Acts::CylinderVolumeHelper</title>
<!-- Node1 -->
<g id="Node000001" class="node">
<title>Node1</title>
<g id="a_Node000001"><a xlink:title="The concrete implementation for cylindrical TrackingVolume objects of the ITrackingVolumeCreator inte...">
<polygon fill="#999999" stroke="#666666" points="1071,-71.5 918,-71.5 918,-52.5 1071,-52.5 1071,-71.5"/>
<text text-anchor="middle" x="994.5" y="-59.5" font-family="Helvetica,sans-Serif" font-size="10.00">Acts::CylinderVolumeHelper</text>
</a>
</g>
</g>
<!-- Node2 -->
<g id="Node000002" class="node">
<title>Node2</title>
<g id="a_Node000002"><a xlink:href="class_acts_1_1_i_tracking_volume_helper.html" target="_top" xlink:title="Interface class ITrackingVolumeHelper tools, it inherits from IAlgTool.">
<polygon fill="white" stroke="#666666" points="845,-92.5 689,-92.5 689,-73.5 845,-73.5 845,-92.5"/>
<text text-anchor="middle" x="767" y="-80.5" font-family="Helvetica,sans-Serif" font-size="10.00">Acts::ITrackingVolumeHelper</text>
</a>
</g>
</g>
<!-- Node2&#45;&gt;Node1 -->
<g id="edge1_Node000001_Node000002" class="edge">
<title>Node2&#45;&gt;Node1</title>
<g id="a_edge1_Node000001_Node000002"><a xlink:title=" ">
<path fill="none" stroke="#63b8ff" d="M855.31,-74.87C875.94,-72.95 897.77,-70.91 917.84,-69.05"/>
<polygon fill="#63b8ff" stroke="#63b8ff" points="854.92,-71.39 845.29,-75.8 855.57,-78.36 854.92,-71.39"/>
</a>
</g>
</g>
<!-- Node3 -->
<g id="Node000003" class="node">
<title>Node3</title>
<g id="a_Node000003"><a xlink:href="struct_acts_1_1_cylinder_volume_helper_1_1_config.html" target="_top" xlink:title="Nested configuration struct for this CylinderVolumeHelper.">
<polygon fill="white" stroke="#666666" points="843.5,-55 690.5,-55 690.5,-25 843.5,-25 843.5,-55"/>
<text text-anchor="start" x="698.5" y="-43" font-family="Helvetica,sans-Serif" font-size="10.00">Acts::CylinderVolumeHelper</text>
<text text-anchor="middle" x="767" y="-32" font-family="Helvetica,sans-Serif" font-size="10.00">::Config</text>
</a>
</g>
</g>
<!-- Node3&#45;&gt;Node1 -->
<g id="edge2_Node000001_Node000003" class="edge">
<title>Node3&#45;&gt;Node1</title>
<g id="a_edge2_Node000001_Node000003"><a xlink:title=" ">
<path fill="none" stroke="#9a32cd" stroke-dasharray="5,2" d="M853.82,-45.85C869.21,-47.08 885.09,-48.48 900,-50 907.25,-50.74 914.8,-51.58 922.33,-52.47"/>
<polygon fill="#9a32cd" stroke="#9a32cd" points="854.04,-42.36 843.8,-45.06 853.49,-49.34 854.04,-42.36"/>
</a>
</g>
<text text-anchor="start" x="866.5" y="-55.5" font-family="Helvetica,sans-Serif" font-size="10.00" fill="grey">m_cfg</text>
</g>
<!-- Node4 -->
<g id="Node000004" class="node">
<title>Node4</title>
<g id="a_Node000004"><a xlink:title=" ">
<polygon fill="white" stroke="#666666" points="483,-80 333,-80 333,-50 483,-50 483,-80"/>
<text text-anchor="start" x="341" y="-68" font-family="Helvetica,sans-Serif" font-size="10.00">std::shared_ptr&lt; const</text>
<text text-anchor="middle" x="408" y="-57" font-family="Helvetica,sans-Serif" font-size="10.00"> Acts::ILayerArrayCreator &gt;</text>
</a>
</g>
</g>
<!-- Node4&#45;&gt;Node3 -->
<g id="edge3_Node000003_Node000004" class="edge">
<title>Node4&#45;&gt;Node3</title>
<g id="a_edge3_Node000003_Node000004"><a xlink:title=" ">
<path fill="none" stroke="#9a32cd" stroke-dasharray="5,2" d="M493.57,-59.08C553.36,-54.89 632.8,-49.33 690.46,-45.29"/>
<polygon fill="#9a32cd" stroke="#9a32cd" points="493.14,-55.6 483.4,-59.79 493.62,-62.58 493.14,-55.6"/>
</a>
</g>
<text text-anchor="start" x="554.5" y="-62.5" font-family="Helvetica,sans-Serif" font-size="10.00" fill="grey">layerArrayCreator</text>
</g>
<!-- Node5 -->
<g id="Node000005" class="node">
<title>Node5</title>
<g id="a_Node000005"><a xlink:title=" ">
<polygon fill="white" stroke="#666666" points="118,-48.5 0,-48.5 0,-29.5 118,-29.5 118,-48.5"/>
<text text-anchor="middle" x="59" y="-36.5" font-family="Helvetica,sans-Serif" font-size="10.00">std::shared_ptr&lt; T &gt;</text>
</a>
</g>
</g>
<!-- Node5&#45;&gt;Node4 -->
<g id="edge4_Node000004_Node000005" class="edge">
<title>Node5&#45;&gt;Node4</title>
<g id="a_edge4_Node000004_Node000005"><a xlink:title=" ">
<path fill="none" stroke="orange" stroke-dasharray="5,2" d="M128.26,-44.41C130.87,-44.61 133.46,-44.81 136,-45 202.56,-50.08 278.34,-55.66 332.8,-59.63"/>
<polygon fill="orange" stroke="orange" points="128.33,-40.9 118.09,-43.62 127.79,-47.88 128.33,-40.9"/>
</a>
</g>
<text text-anchor="start" x="151" y="-78" font-family="Helvetica,sans-Serif" font-size="10.00" fill="grey">&lt; const Acts::ILayerArray</text>
<text text-anchor="start" x="151" y="-63" font-family="Helvetica,sans-Serif" font-size="10.00" fill="grey">  Creator &gt;</text>
</g>
<!-- Node6 -->
<g id="Node000006" class="node">
<title>Node6</title>
<g id="a_Node000006"><a xlink:title=" ">
<polygon fill="white" stroke="#666666" points="508,-30 308,-30 308,0 508,0 508,-30"/>
<text text-anchor="start" x="316" y="-18" font-family="Helvetica,sans-Serif" font-size="10.00">std::shared_ptr&lt; const</text>
<text text-anchor="middle" x="408" y="-7" font-family="Helvetica,sans-Serif" font-size="10.00"> Acts::ITrackingVolumeArrayCreator &gt;</text>
</a>
</g>
</g>
<!-- Node5&#45;&gt;Node6 -->
<g id="edge6_Node000006_Node000005" class="edge">
<title>Node5&#45;&gt;Node6</title>
<g id="a_edge6_Node000006_Node000005"><a xlink:title=" ">
<path fill="none" stroke="orange" stroke-dasharray="5,2" d="M91.11,-25.77C104.64,-20.69 120.83,-15.52 136,-13 192.39,-3.62 256.3,-3.6 307.89,-6.16"/>
<polygon fill="orange" stroke="orange" points="89.83,-22.51 81.78,-29.4 92.37,-29.03 89.83,-22.51"/>
</a>
</g>
<text text-anchor="start" x="139" y="-34" font-family="Helvetica,sans-Serif" font-size="10.00" fill="grey">&lt; const Acts::ITrackingVolume</text>
<text text-anchor="start" x="139" y="-19" font-family="Helvetica,sans-Serif" font-size="10.00" fill="grey">  ArrayCreator &gt;</text>
</g>
<!-- Node6&#45;&gt;Node3 -->
<g id="edge5_Node000003_Node000006" class="edge">
<title>Node6&#45;&gt;Node3</title>
<g id="a_edge5_Node000003_Node000006"><a xlink:title=" ">
<path fill="none" stroke="#9a32cd" stroke-dasharray="5,2" d="M518.29,-17.04C565.36,-18.58 620.96,-21.28 671,-26 677.31,-26.6 683.83,-27.32 690.38,-28.13"/>
<polygon fill="#9a32cd" stroke="#9a32cd" points="518.18,-13.54 508.07,-16.72 517.96,-20.53 518.18,-13.54"/>
</a>
</g>
<text text-anchor="start" x="529.5" y="-31.5" font-family="Helvetica,sans-Serif" font-size="10.00" fill="grey">trackingVolumeArrayCreator</text>
</g>
</g>
</svg>
