<?xml version="1.0" encoding="UTF-8" standalone="no"?>
<!DOCTYPE svg PUBLIC "-//W3C//DTD SVG 1.1//EN"
 "http://www.w3.org/Graphics/SVG/1.1/DTD/svg11.dtd">
<!-- Generated by graphviz version 2.43.0 (0)
 -->
<!-- Title: Acts::IGrid Pages: 1 -->
<!--zoomable 1847 -->

<svg id="main" version="1.1" xmlns="http://www.w3.org/2000/svg" xmlns:xlink="http://www.w3.org/1999/xlink" xml:space="preserve" onload="init(evt)">

<style type="text/css"><![CDATA[
.node, .edge {opacity: 0.7;}
.node.selected, .edge.selected {opacity: 1;}
.edge:hover path { stroke: red; }
.edge:hover polygon { stroke: red; fill: red; }
]]></style>

<defs>
  <circle id="rim" cx="0" cy="0" r="7"/>
  <circle id="rim2" cx="0" cy="0" r="3.5"/>
  <g id="zoomPlus">
    <use xlink:href="#rim" fill="#404040"><set attributeName="fill" to="#808080" begin="zoomplus.mouseover" end="zoomplus.mouseout"/></use>
    <path d="M-4,0h8M0,-4v8" fill="none" stroke="white" stroke-width="1.5" pointer-events="none"/>
  </g>
  <g id="zoomMin">
    <use xlink:href="#rim" fill="#404040"><set attributeName="fill" to="#808080" begin="zoomminus.mouseover" end="zoomminus.mouseout"/></use>
    <path d="M-4,0h8" fill="none" stroke="white" stroke-width="1.5" pointer-events="none"/>
  </g>
  <g id="arrowUp" transform="translate(30 24)">
    <use xlink:href="#rim"/>
    <path pointer-events="none" fill="none" stroke="white" stroke-width="1.5" d="M0,-3.0v7 M-2.5,-0.5L0,-3.0L2.5,-0.5"/>
  </g>
  <g id="arrowRight" transform="rotate(90) translate(36 -43)">
    <use xlink:href="#rim"/>
    <path pointer-events="none" fill="none" stroke="white" stroke-width="1.5" d="M0,-3.0v7 M-2.5,-0.5L0,-3.0L2.5,-0.5"/>
  </g>
  <g id="arrowDown" transform="rotate(180) translate(-30 -48)">
    <use xlink:href="#rim"/>
    <path pointer-events="none" fill="none" stroke="white" stroke-width="1.5" d="M0,-3.0v7 M-2.5,-0.5L0,-3.0L2.5,-0.5"/>
  </g>
  <g id="arrowLeft" transform="rotate(270) translate(-36 17)">
    <use xlink:href="#rim"/>
    <path pointer-events="none" fill="none" stroke="white" stroke-width="1.5" d="M0,-3.0v7 M-2.5,-0.5L0,-3.0L2.5,-0.5"/>
  </g>
  <g id="resetDef">
    <use xlink:href="#rim2" fill="#404040"><set attributeName="fill" to="#808080" begin="reset.mouseover" end="reset.mouseout"/></use>
  </g>
</defs>
<script type="application/ecmascript">
var viewWidth = 651;
var viewHeight = 1847;
var sectionId = 'dynsection-0';
</script>
<script type="application/ecmascript" xlink:href="svg.min.js"/>
<svg id="graph" class="graph">
<g id="viewport">
<title>Acts::IGrid</title>
<!-- Node1 -->
<g id="Node000001" class="node">
<title>Node1</title>
<g id="a_Node000001"><a xlink:title="Base class for all grid types.">
<polygon fill="#999999" stroke="#666666" points="67,-816.96 0,-816.96 0,-797.96 67,-797.96 67,-816.96"/>
<text text-anchor="middle" x="33.5" y="-804.96" font-family="Helvetica,sans-Serif" font-size="10.00">Acts::IGrid</text>
</a>
</g>
</g>
<!-- Node2 -->
<g id="Node000002" class="node">
<title>Node2</title>
<g id="a_Node000002"><a xlink:href="class_acts_1_1_grid.html" target="_top" xlink:title=" ">
<polygon fill="white" stroke="#666666" points="629,-708.46 484,-708.46 484,-678.46 629,-678.46 629,-708.46"/>
<text text-anchor="start" x="492" y="-696.46" font-family="Helvetica,sans-Serif" font-size="10.00">Acts::Grid&lt; const Tracking</text>
<text text-anchor="middle" x="556.5" y="-685.46" font-family="Helvetica,sans-Serif" font-size="10.00">Volume *, Axes... &gt;</text>
</a>
</g>
</g>
<!-- Node1&#45;&gt;Node2 -->
<g id="edge1_Node000001_Node000002" class="edge">
<title>Node1&#45;&gt;Node2</title>
<g id="a_edge1_Node000001_Node000002"><a xlink:title=" ">
<path fill="none" stroke="#63b8ff" d="M55.64,-791.96C91.96,-766.4 169.48,-716.34 244,-697.46 324.21,-677.13 419.81,-679.67 483.75,-685.01"/>
<polygon fill="#63b8ff" stroke="#63b8ff" points="53.43,-789.24 47.33,-797.9 57.5,-794.94 53.43,-789.24"/>
</a>
</g>
</g>
<!-- Node3 -->
<g id="Node000003" class="node">
<title>Node3</title>
<g id="a_Node000003"><a xlink:href="class_acts_1_1_grid.html" target="_top" xlink:title=" ">
<polygon fill="white" stroke="#666666" points="642,-1236.46 471,-1236.46 471,-1206.46 642,-1206.46 642,-1236.46"/>
<text text-anchor="start" x="479" y="-1224.46" font-family="Helvetica,sans-Serif" font-size="10.00">Acts::Grid&lt; Acts::Accumulated</text>
<text text-anchor="middle" x="556.5" y="-1213.46" font-family="Helvetica,sans-Serif" font-size="10.00">VolumeMaterial, EAxis, EAxis &gt;</text>
</a>
</g>
</g>
<!-- Node1&#45;&gt;Node3 -->
<g id="edge2_Node000001_Node000003" class="edge">
<title>Node1&#45;&gt;Node3</title>
<g id="a_edge2_Node000001_Node000003"><a xlink:title=" ">
<path fill="none" stroke="#63b8ff" d="M33.85,-827.24C32.25,-913.48 39.11,-1256.69 244,-1354.46 285.72,-1374.36 416.05,-1383.52 452,-1354.46 481.69,-1330.45 447.48,-1301.29 470,-1270.46 481,-1255.4 498.13,-1244.28 514.18,-1236.47"/>
<polygon fill="#63b8ff" stroke="#63b8ff" points="37.35,-827.11 34.1,-817.02 30.36,-826.93 37.35,-827.11"/>
</a>
</g>
</g>
<!-- Node4 -->
<g id="Node000004" class="node">
<title>Node4</title>
<g id="a_Node000004"><a xlink:href="class_acts_1_1_grid.html" target="_top" xlink:title=" ">
<polygon fill="white" stroke="#666666" points="639.5,-1055.96 473.5,-1055.96 473.5,-1014.96 639.5,-1014.96 639.5,-1055.96"/>
<text text-anchor="start" x="481.5" y="-1043.96" font-family="Helvetica,sans-Serif" font-size="10.00">Acts::Grid&lt; Acts::Accumulated</text>
<text text-anchor="start" x="481.5" y="-1032.96" font-family="Helvetica,sans-Serif" font-size="10.00">VolumeMaterial, EAxis, EAxis,</text>
<text text-anchor="middle" x="556.5" y="-1021.96" font-family="Helvetica,sans-Serif" font-size="10.00"> EAxis &gt;</text>
</a>
</g>
</g>
<!-- Node1&#45;&gt;Node4 -->
<g id="edge3_Node000001_Node000004" class="edge">
<title>Node1&#45;&gt;Node4</title>
<g id="a_edge3_Node000001_Node000004"><a xlink:title=" ">
<path fill="none" stroke="#63b8ff" d="M38.26,-827.18C51.85,-891.89 105.09,-1097.45 244,-1164.46 285.63,-1184.54 416.32,-1193.84 452,-1164.46 484.17,-1137.98 443.87,-1104.91 470,-1072.46 475.27,-1065.91 481.93,-1060.49 489.2,-1056.02"/>
<polygon fill="#63b8ff" stroke="#63b8ff" points="41.64,-826.22 36.24,-817.11 34.78,-827.6 41.64,-826.22"/>
</a>
</g>
</g>
<!-- Node5 -->
<g id="Node000005" class="node">
<title>Node5</title>
<g id="a_Node000005"><a xlink:href="class_acts_1_1_grid.html" target="_top" xlink:title=" ">
<polygon fill="white" stroke="#666666" points="629,-1823.96 484,-1823.96 484,-1782.96 629,-1782.96 629,-1823.96"/>
<text text-anchor="start" x="492" y="-1811.96" font-family="Helvetica,sans-Serif" font-size="10.00">Acts::Grid&lt; Acts::Material</text>
<text text-anchor="start" x="492" y="-1800.96" font-family="Helvetica,sans-Serif" font-size="10.00">::ParametersVector, EAxis,</text>
<text text-anchor="middle" x="556.5" y="-1789.96" font-family="Helvetica,sans-Serif" font-size="10.00"> EAxis &gt;</text>
</a>
</g>
</g>
<!-- Node1&#45;&gt;Node5 -->
<g id="edge4_Node000001_Node000005" class="edge">
<title>Node1&#45;&gt;Node5</title>
<g id="a_edge4_Node000001_Node000005"><a xlink:title=" ">
<path fill="none" stroke="#63b8ff" d="M35.02,-827.33C38.42,-952.83 58.84,-1632.89 104,-1712.46 143.06,-1781.28 169.22,-1796.59 244,-1822.46 322.73,-1849.69 419.25,-1837.35 483.79,-1823.16"/>
<polygon fill="#63b8ff" stroke="#63b8ff" points="38.51,-827.13 34.75,-817.23 31.52,-827.32 38.51,-827.13"/>
</a>
</g>
</g>
<!-- Node6 -->
<g id="Node000006" class="node">
<title>Node6</title>
<g id="a_Node000006"><a xlink:href="class_acts_1_1_grid.html" target="_top" xlink:title=" ">
<polygon fill="white" stroke="#666666" points="629,-960.96 484,-960.96 484,-919.96 629,-919.96 629,-960.96"/>
<text text-anchor="start" x="492" y="-948.96" font-family="Helvetica,sans-Serif" font-size="10.00">Acts::Grid&lt; Acts::Material</text>
<text text-anchor="start" x="492" y="-937.96" font-family="Helvetica,sans-Serif" font-size="10.00">::ParametersVector, EAxis,</text>
<text text-anchor="middle" x="556.5" y="-926.96" font-family="Helvetica,sans-Serif" font-size="10.00"> EAxis, EAxis &gt;</text>
</a>
</g>
</g>
<!-- Node1&#45;&gt;Node6 -->
<g id="edge5_Node000001_Node000006" class="edge">
<title>Node1&#45;&gt;Node6</title>
<g id="a_edge5_Node000001_Node000006"><a xlink:title=" ">
<path fill="none" stroke="#63b8ff" d="M44.04,-826.06C69.18,-872.73 142.35,-994.29 244,-1039.46 286.24,-1058.23 412.25,-1063.05 452,-1039.46 466.37,-1030.93 459.16,-1019.17 470,-1006.46 484.97,-988.91 505.29,-972.99 522.37,-961.18"/>
<polygon fill="#63b8ff" stroke="#63b8ff" points="47.05,-824.27 39.29,-817.05 40.86,-827.53 47.05,-824.27"/>
</a>
</g>
</g>
<!-- Node7 -->
<g id="Node000007" class="node">
<title>Node7</title>
<g id="a_Node000007"><a xlink:title=" ">
<polygon fill="white" stroke="#666666" points="643,-1718.46 470,-1718.46 470,-1644.46 643,-1644.46 643,-1718.46"/>
<text text-anchor="start" x="478" y="-1706.46" font-family="Helvetica,sans-Serif" font-size="10.00">Acts::Grid&lt; std::vector</text>
<text text-anchor="start" x="478" y="-1695.46" font-family="Helvetica,sans-Serif" font-size="10.00">&lt; std::size_t &gt;, Axis</text>
<text text-anchor="start" x="478" y="-1684.46" font-family="Helvetica,sans-Serif" font-size="10.00">&lt; AxisType::Equidistant,</text>
<text text-anchor="start" x="478" y="-1673.46" font-family="Helvetica,sans-Serif" font-size="10.00"> AxisBoundaryType::Closed</text>
<text text-anchor="start" x="478" y="-1662.46" font-family="Helvetica,sans-Serif" font-size="10.00"> &gt;, Axis&lt; AxisType::Equidistant,</text>
<text text-anchor="middle" x="556.5" y="-1651.46" font-family="Helvetica,sans-Serif" font-size="10.00"> AxisBoundaryType::Bound &gt; &gt;</text>
</a>
</g>
</g>
<!-- Node1&#45;&gt;Node7 -->
<g id="edge6_Node000001_Node000007" class="edge">
<title>Node1&#45;&gt;Node7</title>
<g id="a_edge6_Node000001_Node000007"><a xlink:title=" ">
<path fill="none" stroke="#63b8ff" d="M34.64,-827.3C35.64,-936.53 43.6,-1465.09 104,-1614.46 142,-1708.41 152.96,-1749.93 244,-1794.46 327.04,-1835.07 367.55,-1832.07 452,-1794.46 462.92,-1789.59 461.95,-1783.3 470,-1774.46 486.82,-1755.96 505.62,-1735.5 521.29,-1718.48"/>
<polygon fill="#63b8ff" stroke="#63b8ff" points="38.14,-827.04 34.56,-817.07 31.14,-827.09 38.14,-827.04"/>
</a>
</g>
</g>
<!-- Node8 -->
<g id="Node000008" class="node">
<title>Node8</title>
<g id="a_Node000008"><a xlink:title=" ">
<polygon fill="white" stroke="#666666" points="642,-1331.46 471,-1331.46 471,-1279.46 642,-1279.46 642,-1331.46"/>
<text text-anchor="start" x="479" y="-1319.46" font-family="Helvetica,sans-Serif" font-size="10.00">Acts::Grid&lt; std::vector</text>
<text text-anchor="start" x="479" y="-1308.46" font-family="Helvetica,sans-Serif" font-size="10.00">&lt; std::size_t &gt;, Axis</text>
<text text-anchor="start" x="479" y="-1297.46" font-family="Helvetica,sans-Serif" font-size="10.00">&lt; AxisType::Equidistant,</text>
<text text-anchor="middle" x="556.5" y="-1286.46" font-family="Helvetica,sans-Serif" font-size="10.00"> AxisBoundaryType::Closed &gt; &gt;</text>
</a>
</g>
</g>
<!-- Node1&#45;&gt;Node8 -->
<g id="edge7_Node000001_Node000008" class="edge">
<title>Node1&#45;&gt;Node8</title>
<g id="a_edge7_Node000001_Node000008"><a xlink:title=" ">
<path fill="none" stroke="#63b8ff" d="M35.99,-827.06C42.21,-906.39 67.53,-1203.39 104,-1289.46 144.92,-1386.04 150.38,-1432.15 244,-1479.46 285.25,-1500.3 416.59,-1509.17 452,-1479.46 487.27,-1449.87 447.02,-1417.34 470,-1377.46 480.46,-1359.3 497.32,-1343.65 513.3,-1331.62"/>
<polygon fill="#63b8ff" stroke="#63b8ff" points="39.47,-826.69 35.21,-816.99 32.49,-827.23 39.47,-826.69"/>
</a>
</g>
</g>
<!-- Node9 -->
<g id="Node000009" class="node">
<title>Node9</title>
<g id="a_Node000009"><a xlink:title=" ">
<polygon fill="white" stroke="#666666" points="643,-1460.46 470,-1460.46 470,-1386.46 643,-1386.46 643,-1460.46"/>
<text text-anchor="start" x="478" y="-1448.46" font-family="Helvetica,sans-Serif" font-size="10.00">Acts::Grid&lt; std::vector</text>
<text text-anchor="start" x="478" y="-1437.46" font-family="Helvetica,sans-Serif" font-size="10.00">&lt; std::size_t &gt;, Axis</text>
<text text-anchor="start" x="478" y="-1426.46" font-family="Helvetica,sans-Serif" font-size="10.00">&lt; AxisType::Equidistant,</text>
<text text-anchor="start" x="478" y="-1415.46" font-family="Helvetica,sans-Serif" font-size="10.00"> AxisBoundaryType::Bound</text>
<text text-anchor="start" x="478" y="-1404.46" font-family="Helvetica,sans-Serif" font-size="10.00"> &gt;, Axis&lt; AxisType::Equidistant,</text>
<text text-anchor="middle" x="556.5" y="-1393.46" font-family="Helvetica,sans-Serif" font-size="10.00"> AxisBoundaryType::Closed &gt; &gt;</text>
</a>
</g>
</g>
<!-- Node1&#45;&gt;Node9 -->
<g id="edge8_Node000001_Node000009" class="edge">
<title>Node1&#45;&gt;Node9</title>
<g id="a_edge8_Node000001_Node000009"><a xlink:title=" ">
<path fill="none" stroke="#63b8ff" d="M35.53,-827.38C40.39,-917.3 62.51,-1285.59 104,-1392.46 142.87,-1492.59 148.55,-1540.19 244,-1589.46 285.07,-1610.66 414.98,-1617.13 452,-1589.46 474.64,-1572.53 456.82,-1553.46 470,-1528.46 482.94,-1503.92 502.11,-1479.69 519.03,-1460.71"/>
<polygon fill="#63b8ff" stroke="#63b8ff" points="39.02,-827 34.99,-817.2 32.03,-827.38 39.02,-827"/>
</a>
</g>
</g>
<!-- Node10 -->
<g id="Node000010" class="node">
<title>Node10</title>
<g id="a_Node000010"><a xlink:title=" ">
<polygon fill="white" stroke="#666666" points="643,-1155.46 470,-1155.46 470,-1081.46 643,-1081.46 643,-1155.46"/>
<text text-anchor="start" x="478" y="-1143.46" font-family="Helvetica,sans-Serif" font-size="10.00">Acts::Grid&lt; std::vector</text>
<text text-anchor="start" x="478" y="-1132.46" font-family="Helvetica,sans-Serif" font-size="10.00">&lt; std::size_t &gt;, Axis</text>
<text text-anchor="start" x="478" y="-1121.46" font-family="Helvetica,sans-Serif" font-size="10.00">&lt; AxisType::Equidistant,</text>
<text text-anchor="start" x="478" y="-1110.46" font-family="Helvetica,sans-Serif" font-size="10.00"> AxisBoundaryType::Bound</text>
<text text-anchor="start" x="478" y="-1099.46" font-family="Helvetica,sans-Serif" font-size="10.00"> &gt;, Axis&lt; AxisType::Equidistant,</text>
<text text-anchor="middle" x="556.5" y="-1088.46" font-family="Helvetica,sans-Serif" font-size="10.00"> AxisBoundaryType::Bound &gt; &gt;</text>
</a>
</g>
</g>
<!-- Node1&#45;&gt;Node10 -->
<g id="edge9_Node000001_Node000010" class="edge">
<title>Node1&#45;&gt;Node10</title>
<g id="a_edge9_Node000001_Node000010"><a xlink:title=" ">
<path fill="none" stroke="#63b8ff" d="M35.72,-827.39C41.61,-903.09 74.31,-1172.07 244,-1244.46 286.52,-1262.59 413.92,-1270.65 452,-1244.46 470.43,-1231.78 457.46,-1215.98 470,-1197.46 480.31,-1182.23 494.1,-1167.85 507.58,-1155.63"/>
<polygon fill="#63b8ff" stroke="#63b8ff" points="39.18,-826.69 34.99,-816.96 32.2,-827.18 39.18,-826.69"/>
</a>
</g>
</g>
<!-- Node11 -->
<g id="Node000011" class="node">
<title>Node11</title>
<g id="a_Node000011"><a xlink:href="class_acts_1_1_grid.html" target="_top" xlink:title=" ">
<polygon fill="white" stroke="#666666" points="619,-260.96 494,-260.96 494,-219.96 619,-219.96 619,-260.96"/>
<text text-anchor="start" x="502" y="-248.96" font-family="Helvetica,sans-Serif" font-size="10.00">Acts::Grid&lt; HoughCell</text>
<text text-anchor="start" x="502" y="-237.96" font-family="Helvetica,sans-Serif" font-size="10.00">&lt; identifier_t &gt;, Axis,</text>
<text text-anchor="middle" x="556.5" y="-226.96" font-family="Helvetica,sans-Serif" font-size="10.00"> Axis &gt;</text>
</a>
</g>
</g>
<!-- Node1&#45;&gt;Node11 -->
<g id="edge10_Node000001_Node000011" class="edge">
<title>Node1&#45;&gt;Node11</title>
<g id="a_edge10_Node000001_Node000011"><a xlink:title=" ">
<path fill="none" stroke="#63b8ff" d="M34.23,-787.4C33.41,-696.97 34.45,-327.93 104,-241.46 153.05,-180.48 377.54,-163.38 452,-187.46 461.39,-190.49 461.49,-195.46 470,-200.46 481.73,-207.35 494.84,-213.98 507.2,-219.79"/>
<polygon fill="#63b8ff" stroke="#63b8ff" points="30.73,-787.67 34.34,-797.64 37.73,-787.6 30.73,-787.67"/>
</a>
</g>
</g>
<!-- Node12 -->
<g id="Node000012" class="node">
<title>Node12</title>
<g id="a_Node000012"><a xlink:href="class_acts_1_1_grid.html" target="_top" xlink:title=" ">
<polygon fill="white" stroke="#666666" points="625,-641.96 488,-641.96 488,-600.96 625,-600.96 625,-641.96"/>
<text text-anchor="start" x="496" y="-629.96" font-family="Helvetica,sans-Serif" font-size="10.00">Acts::Grid&lt; BinType,</text>
<text text-anchor="start" x="496" y="-618.96" font-family="Helvetica,sans-Serif" font-size="10.00"> PhiAxisType, ZAxisType,</text>
<text text-anchor="middle" x="556.5" y="-607.96" font-family="Helvetica,sans-Serif" font-size="10.00"> RAxisType &gt;</text>
</a>
</g>
</g>
<!-- Node1&#45;&gt;Node12 -->
<g id="edge11_Node000001_Node000012" class="edge">
<title>Node1&#45;&gt;Node12</title>
<g id="a_edge11_Node000001_Node000012"><a xlink:title=" ">
<path fill="none" stroke="#63b8ff" d="M43.18,-788.62C54.56,-765.45 76.38,-725.94 104,-699.46 156.05,-649.55 174.41,-636.34 244,-617.46 325.69,-595.29 423.91,-601.72 487.93,-610.07"/>
<polygon fill="#63b8ff" stroke="#63b8ff" points="39.97,-787.2 38.82,-797.74 46.29,-790.22 39.97,-787.2"/>
</a>
</g>
</g>
<!-- Node13 -->
<g id="Node000013" class="node">
<title>Node13</title>
<g id="a_Node000013"><a xlink:href="class_acts_1_1_grid.html" target="_top" xlink:title=" ">
<polygon fill="white" stroke="#666666" points="629.5,-327.46 483.5,-327.46 483.5,-297.46 629.5,-297.46 629.5,-327.46"/>
<text text-anchor="start" x="491.5" y="-315.46" font-family="Helvetica,sans-Serif" font-size="10.00">Acts::Grid&lt; SurfaceVector,</text>
<text text-anchor="middle" x="556.5" y="-304.46" font-family="Helvetica,sans-Serif" font-size="10.00"> Axis1, Axis2 &gt;</text>
</a>
</g>
</g>
<!-- Node1&#45;&gt;Node13 -->
<g id="edge12_Node000001_Node000013" class="edge">
<title>Node1&#45;&gt;Node13</title>
<g id="a_edge12_Node000001_Node000013"><a xlink:title=" ">
<path fill="none" stroke="#63b8ff" d="M34.95,-787.53C37.14,-706.98 48.92,-406.33 104,-332.46 198.05,-206.32 297.96,-235.42 452,-267.46 479.62,-273.2 508.92,-286.72 529.26,-297.45"/>
<polygon fill="#63b8ff" stroke="#63b8ff" points="31.45,-787.67 34.69,-797.76 38.44,-787.85 31.45,-787.67"/>
</a>
</g>
</g>
<!-- Node14 -->
<g id="Node000014" class="node">
<title>Node14</title>
<g id="a_Node000014"><a xlink:href="class_acts_1_1_grid.html" target="_top" xlink:title=" ">
<polygon fill="white" stroke="#666666" points="624,-398.96 489,-398.96 489,-357.96 624,-357.96 624,-398.96"/>
<text text-anchor="start" x="497" y="-386.96" font-family="Helvetica,sans-Serif" font-size="10.00">Acts::Grid&lt; T, Axis</text>
<text text-anchor="start" x="497" y="-375.96" font-family="Helvetica,sans-Serif" font-size="10.00">&lt; AxisType::Equidistant,</text>
<text text-anchor="middle" x="556.5" y="-364.96" font-family="Helvetica,sans-Serif" font-size="10.00"> aType &gt; &gt;</text>
</a>
</g>
</g>
<!-- Node1&#45;&gt;Node14 -->
<g id="edge13_Node000001_Node000014" class="edge">
<title>Node1&#45;&gt;Node14</title>
<g id="a_edge13_Node000001_Node000014"><a xlink:title=" ">
<path fill="none" stroke="#63b8ff" d="M35.94,-787.81C41.34,-718.69 62.21,-487.77 104,-428.46 195.47,-298.64 294.88,-324.43 452,-347.46 467.03,-349.66 482.91,-353.57 497.6,-357.89"/>
<polygon fill="#63b8ff" stroke="#63b8ff" points="32.45,-787.55 35.18,-797.79 39.43,-788.08 32.45,-787.55"/>
</a>
</g>
</g>
<!-- Node15 -->
<g id="Node000015" class="node">
<title>Node15</title>
<g id="a_Node000015"><a xlink:href="class_acts_1_1_grid.html" target="_top" xlink:title=" ">
<polygon fill="white" stroke="#666666" points="616.5,-191.96 496.5,-191.96 496.5,-150.96 616.5,-150.96 616.5,-191.96"/>
<text text-anchor="start" x="504.5" y="-179.96" font-family="Helvetica,sans-Serif" font-size="10.00">Acts::Grid&lt; T, Axis</text>
<text text-anchor="start" x="504.5" y="-168.96" font-family="Helvetica,sans-Serif" font-size="10.00">&lt; AxisType::Variable,</text>
<text text-anchor="middle" x="556.5" y="-157.96" font-family="Helvetica,sans-Serif" font-size="10.00"> aType &gt; &gt;</text>
</a>
</g>
</g>
<!-- Node1&#45;&gt;Node15 -->
<g id="edge14_Node000001_Node000015" class="edge">
<title>Node1&#45;&gt;Node15</title>
<g id="a_edge14_Node000001_Node000015"><a xlink:title=" ">
<path fill="none" stroke="#63b8ff" d="M34.43,-787.62C34.41,-693.21 38.26,-289.67 104,-186.46 191.07,-49.76 303.11,-13.42 452,-77.46 462.69,-82.05 461.62,-88.39 470,-96.46 489.78,-115.49 513.28,-135.96 530.64,-150.71"/>
<polygon fill="#63b8ff" stroke="#63b8ff" points="30.93,-787.78 34.44,-797.78 37.93,-787.77 30.93,-787.78"/>
</a>
</g>
</g>
<!-- Node16 -->
<g id="Node000016" class="node">
<title>Node16</title>
<g id="a_Node000016"><a xlink:href="class_acts_1_1_grid.html" target="_top" xlink:title=" ">
<polygon fill="white" stroke="#666666" points="627,-833.46 486,-833.46 486,-781.46 627,-781.46 627,-833.46"/>
<text text-anchor="start" x="494" y="-821.46" font-family="Helvetica,sans-Serif" font-size="10.00">Acts::Grid&lt; T, Axis</text>
<text text-anchor="start" x="494" y="-810.46" font-family="Helvetica,sans-Serif" font-size="10.00">&lt; AxisType::Equidistant,</text>
<text text-anchor="start" x="494" y="-799.46" font-family="Helvetica,sans-Serif" font-size="10.00"> aType &gt;, Axis&lt; AxisType</text>
<text text-anchor="middle" x="556.5" y="-788.46" font-family="Helvetica,sans-Serif" font-size="10.00">::Equidistant, bType &gt; &gt;</text>
</a>
</g>
</g>
<!-- Node1&#45;&gt;Node16 -->
<g id="edge15_Node000001_Node000016" class="edge">
<title>Node1&#45;&gt;Node16</title>
<g id="a_edge15_Node000001_Node000016"><a xlink:title=" ">
<path fill="none" stroke="#63b8ff" d="M77.25,-798.42C153.08,-783.73 315.94,-758.14 452,-777.46 463.11,-779.04 474.7,-781.52 485.93,-784.4"/>
<polygon fill="#63b8ff" stroke="#63b8ff" points="76.28,-795.05 67.14,-800.42 77.63,-801.92 76.28,-795.05"/>
</a>
</g>
</g>
<!-- Node17 -->
<g id="Node000017" class="node">
<title>Node17</title>
<g id="a_Node000017"><a xlink:href="class_acts_1_1_grid.html" target="_top" xlink:title=" ">
<polygon fill="white" stroke="#666666" points="627,-1589.46 486,-1589.46 486,-1537.46 627,-1537.46 627,-1589.46"/>
<text text-anchor="start" x="494" y="-1577.46" font-family="Helvetica,sans-Serif" font-size="10.00">Acts::Grid&lt; T, Axis</text>
<text text-anchor="start" x="494" y="-1566.46" font-family="Helvetica,sans-Serif" font-size="10.00">&lt; AxisType::Equidistant,</text>
<text text-anchor="start" x="494" y="-1555.46" font-family="Helvetica,sans-Serif" font-size="10.00"> aType &gt;, Axis&lt; AxisType</text>
<text text-anchor="middle" x="556.5" y="-1544.46" font-family="Helvetica,sans-Serif" font-size="10.00">::Variable, bType &gt; &gt;</text>
</a>
</g>
</g>
<!-- Node1&#45;&gt;Node17 -->
<g id="edge16_Node000001_Node000017" class="edge">
<title>Node1&#45;&gt;Node17</title>
<g id="a_edge16_Node000001_Node000017"><a xlink:title=" ">
<path fill="none" stroke="#63b8ff" d="M35.19,-827.08C38.86,-925.92 57.69,-1369.68 104,-1498.46 142.71,-1606.11 143.49,-1659.83 244,-1714.46 284.61,-1736.53 415.87,-1743.28 452,-1714.46 480.15,-1692 451.26,-1666.21 470,-1635.46 481.01,-1617.4 498.14,-1601.66 514.19,-1589.55"/>
<polygon fill="#63b8ff" stroke="#63b8ff" points="38.68,-826.87 34.82,-817 31.69,-827.12 38.68,-826.87"/>
</a>
</g>
</g>
<!-- Node18 -->
<g id="Node000018" class="node">
<title>Node18</title>
<g id="a_Node000018"><a xlink:href="class_acts_1_1_grid.html" target="_top" xlink:title=" ">
<polygon fill="white" stroke="#666666" points="627,-87.46 486,-87.46 486,-35.46 627,-35.46 627,-87.46"/>
<text text-anchor="start" x="494" y="-75.46" font-family="Helvetica,sans-Serif" font-size="10.00">Acts::Grid&lt; T, Axis</text>
<text text-anchor="start" x="494" y="-64.46" font-family="Helvetica,sans-Serif" font-size="10.00">&lt; AxisType::Variable,</text>
<text text-anchor="start" x="494" y="-53.46" font-family="Helvetica,sans-Serif" font-size="10.00"> aType &gt;, Axis&lt; AxisType</text>
<text text-anchor="middle" x="556.5" y="-42.46" font-family="Helvetica,sans-Serif" font-size="10.00">::Equidistant, bType &gt; &gt;</text>
</a>
</g>
</g>
<!-- Node1&#45;&gt;Node18 -->
<g id="edge17_Node000001_Node000018" class="edge">
<title>Node1&#45;&gt;Node18</title>
<g id="a_edge17_Node000001_Node000018"><a xlink:title=" ">
<path fill="none" stroke="#63b8ff" d="M34.91,-787.51C37.42,-674.61 52.37,-118.96 104,-65.46 201.99,36.07 385.4,-3.2 485.66,-35.46"/>
<polygon fill="#63b8ff" stroke="#63b8ff" points="31.41,-787.72 34.69,-797.79 38.4,-787.87 31.41,-787.72"/>
</a>
</g>
</g>
<!-- Node19 -->
<g id="Node000019" class="node">
<title>Node19</title>
<g id="a_Node000019"><a xlink:href="class_acts_1_1_grid.html" target="_top" xlink:title=" ">
<polygon fill="white" stroke="#666666" points="627,-475.46 486,-475.46 486,-423.46 627,-423.46 627,-475.46"/>
<text text-anchor="start" x="494" y="-463.46" font-family="Helvetica,sans-Serif" font-size="10.00">Acts::Grid&lt; T, Axis</text>
<text text-anchor="start" x="494" y="-452.46" font-family="Helvetica,sans-Serif" font-size="10.00">&lt; AxisType::Variable,</text>
<text text-anchor="start" x="494" y="-441.46" font-family="Helvetica,sans-Serif" font-size="10.00"> aType &gt;, Axis&lt; AxisType</text>
<text text-anchor="middle" x="556.5" y="-430.46" font-family="Helvetica,sans-Serif" font-size="10.00">::Variable, bType &gt; &gt;</text>
</a>
</g>
</g>
<!-- Node1&#45;&gt;Node19 -->
<g id="edge18_Node000001_Node000019" class="edge">
<title>Node1&#45;&gt;Node19</title>
<g id="a_edge18_Node000001_Node000019"><a xlink:title=" ">
<path fill="none" stroke="#63b8ff" d="M34.03,-787.58C33.83,-736.45 39.65,-598.21 104,-510.46 189.25,-394.21 381.95,-412.56 485.9,-432.78"/>
<polygon fill="#63b8ff" stroke="#63b8ff" points="30.54,-787.93 34.17,-797.88 37.54,-787.84 30.54,-787.93"/>
</a>
</g>
</g>
<!-- Node20 -->
<g id="Node000020" class="node">
<title>Node20</title>
<g id="a_Node000020"><a xlink:href="class_acts_1_1_grid.html" target="_top" xlink:title=" ">
<polygon fill="white" stroke="#666666" points="633.5,-579.46 479.5,-579.46 479.5,-549.46 633.5,-549.46 633.5,-579.46"/>
<text text-anchor="start" x="487.5" y="-567.46" font-family="Helvetica,sans-Serif" font-size="10.00">Acts::Grid&lt; HoughCount</text>
<text text-anchor="middle" x="556.5" y="-556.46" font-family="Helvetica,sans-Serif" font-size="10.00">_t, HoughAxis, HoughAxis &gt;</text>
</a>
</g>
</g>
<!-- Node1&#45;&gt;Node20 -->
<g id="edge19_Node000001_Node000020" class="edge">
<title>Node1&#45;&gt;Node20</title>
<g id="a_edge19_Node000001_Node000020"><a xlink:title=" ">
<path fill="none" stroke="#63b8ff" d="M38.22,-787.33C45.69,-750.98 65.23,-673.18 104,-619.46 150.63,-554.84 168.81,-533.83 244,-507.46 331.23,-476.86 362.47,-484.43 452,-507.46 483.39,-515.53 515.46,-535.35 535.41,-549.34"/>
<polygon fill="#63b8ff" stroke="#63b8ff" points="34.69,-787.11 36.2,-797.59 41.56,-788.45 34.69,-787.11"/>
</a>
</g>
</g>
<!-- Node21 -->
<g id="Node000021" class="node">
<title>Node21</title>
<g id="a_Node000021"><a xlink:href="class_acts_1_1_grid.html" target="_top" xlink:title="class for describing a regular multi&#45;dimensional grid">
<polygon fill="white" stroke="#666666" points="226,-849.96 104,-849.96 104,-830.96 226,-830.96 226,-849.96"/>
<text text-anchor="middle" x="165" y="-837.96" font-family="Helvetica,sans-Serif" font-size="10.00">Acts::Grid&lt; T, Axes &gt;</text>
</a>
</g>
</g>
<!-- Node1&#45;&gt;Node21 -->
<g id="edge20_Node000001_Node000021" class="edge">
<title>Node1&#45;&gt;Node21</title>
<g id="a_edge20_Node000001_Node000021"><a xlink:title=" ">
<path fill="none" stroke="#63b8ff" d="M77.25,-818.35C93.09,-822.39 110.92,-826.93 126.28,-830.85"/>
<polygon fill="#63b8ff" stroke="#63b8ff" points="77.73,-814.86 67.18,-815.78 76,-821.65 77.73,-814.86"/>
</a>
</g>
</g>
<!-- Node21&#45;&gt;Node2 -->
<g id="edge21_Node000021_Node000002" class="edge">
<title>Node21&#45;&gt;Node2</title>
<g id="a_edge21_Node000021_Node000002"><a xlink:title=" ">
<path fill="none" stroke="orange" stroke-dasharray="5,2" d="M187.37,-824.78C202.48,-814.42 223.6,-801.33 244,-793.46 331.9,-759.52 363.7,-785.33 452,-752.46 482.04,-741.27 513.65,-722 533.91,-708.54"/>
<polygon fill="orange" stroke="orange" points="184.96,-822.2 178.8,-830.81 188.99,-827.92 184.96,-822.2"/>
</a>
</g>
<text text-anchor="start" x="289" y="-814.46" font-family="Helvetica,sans-Serif" font-size="10.00" fill="grey">&lt; const TrackingVolume</text>
<text text-anchor="start" x="289" y="-799.46" font-family="Helvetica,sans-Serif" font-size="10.00" fill="grey">   *, Axes... &gt;</text>
</g>
<!-- Node21&#45;&gt;Node3 -->
<g id="edge22_Node000021_Node000003" class="edge">
<title>Node21&#45;&gt;Node3</title>
<g id="a_edge22_Node000021_Node000003"><a xlink:title=" ">
<path fill="none" stroke="orange" stroke-dasharray="5,2" d="M167.45,-860.09C172.81,-927.07 193.88,-1144.91 244,-1189.46 276.51,-1218.35 390.06,-1223.63 470.65,-1223.52"/>
<polygon fill="orange" stroke="orange" points="170.93,-859.74 166.67,-850.04 163.95,-860.28 170.93,-859.74"/>
</a>
</g>
<text text-anchor="start" x="279" y="-1243.46" font-family="Helvetica,sans-Serif" font-size="10.00" fill="grey">&lt; Acts::AccumulatedVolume</text>
<text text-anchor="start" x="279" y="-1228.46" font-family="Helvetica,sans-Serif" font-size="10.00" fill="grey">  Material, EAxis, EAxis &gt;</text>
</g>
<!-- Node21&#45;&gt;Node4 -->
<g id="edge23_Node000021_Node000004" class="edge">
<title>Node21&#45;&gt;Node4</title>
<g id="a_edge23_Node000021_Node000004"><a xlink:title=" ">
<path fill="none" stroke="orange" stroke-dasharray="5,2" d="M172.09,-859.75C182.19,-888.43 205.22,-941.9 244,-969.46 253.45,-976.17 384.27,-1002.43 473.34,-1019.73"/>
<polygon fill="orange" stroke="orange" points="175.34,-858.45 168.85,-850.08 168.71,-860.67 175.34,-858.45"/>
</a>
</g>
<text text-anchor="start" x="279" y="-1049.96" font-family="Helvetica,sans-Serif" font-size="10.00" fill="grey">&lt; Acts::AccumulatedVolume</text>
<text text-anchor="start" x="279" y="-1034.96" font-family="Helvetica,sans-Serif" font-size="10.00" fill="grey">  Material, EAxis, EAxis,</text>
<text text-anchor="start" x="279" y="-1019.96" font-family="Helvetica,sans-Serif" font-size="10.00" fill="grey">   EAxis &gt;</text>
</g>
<!-- Node21&#45;&gt;Node5 -->
<g id="edge24_Node000021_Node000005" class="edge">
<title>Node21&#45;&gt;Node5</title>
<g id="a_edge24_Node000021_Node000005"><a xlink:title=" ">
<path fill="none" stroke="orange" stroke-dasharray="5,2" d="M166.32,-860.09C168.55,-985.49 183.46,-1671.44 244,-1739.46 275.16,-1774.46 401.96,-1791.18 483.86,-1798.48"/>
<polygon fill="orange" stroke="orange" points="169.82,-859.96 166.15,-850.02 162.82,-860.08 169.82,-859.96"/>
</a>
</g>
<text text-anchor="start" x="278" y="-1815.46" font-family="Helvetica,sans-Serif" font-size="10.00" fill="grey">&lt; Acts::Material::Parameters</text>
<text text-anchor="start" x="278" y="-1800.46" font-family="Helvetica,sans-Serif" font-size="10.00" fill="grey">  Vector, EAxis, EAxis &gt;</text>
</g>
<!-- Node21&#45;&gt;Node6 -->
<g id="edge25_Node000021_Node000006" class="edge">
<title>Node21&#45;&gt;Node6</title>
<g id="a_edge25_Node000021_Node000006"><a xlink:title=" ">
<path fill="none" stroke="orange" stroke-dasharray="5,2" d="M180.58,-857.6C194.96,-873.23 218.46,-895.49 244,-906.46 285.74,-924.38 405.58,-933.39 483.87,-937.48"/>
<polygon fill="orange" stroke="orange" points="183.19,-855.27 173.92,-850.13 177.96,-859.92 183.19,-855.27"/>
</a>
</g>
<text text-anchor="start" x="274" y="-955.46" font-family="Helvetica,sans-Serif" font-size="10.00" fill="grey">&lt; Acts::Material::Parameters</text>
<text text-anchor="start" x="274" y="-940.46" font-family="Helvetica,sans-Serif" font-size="10.00" fill="grey">  Vector, EAxis, EAxis, EAxis &gt;</text>
</g>
<!-- Node21&#45;&gt;Node7 -->
<g id="edge26_Node000021_Node000007" class="edge">
<title>Node21&#45;&gt;Node7</title>
<g id="a_edge26_Node000021_Node000007"><a xlink:title=" ">
<path fill="none" stroke="orange" stroke-dasharray="5,2" d="M166.64,-860.42C170.52,-975.84 192.46,-1554.48 244,-1612.46 251.64,-1621.05 380.35,-1647.51 469.9,-1665.05"/>
<polygon fill="orange" stroke="orange" points="170.13,-860.09 166.3,-850.21 163.14,-860.32 170.13,-860.09"/>
</a>
</g>
<text text-anchor="start" x="247" y="-1725.96" font-family="Helvetica,sans-Serif" font-size="10.00" fill="grey">&lt; std::vector&lt; std</text>
<text text-anchor="start" x="247" y="-1710.96" font-family="Helvetica,sans-Serif" font-size="10.00" fill="grey">  ::size_t &gt;, Axis&lt; AxisType</text>
<text text-anchor="start" x="247" y="-1695.96" font-family="Helvetica,sans-Serif" font-size="10.00" fill="grey">  ::Equidistant, AxisBoundaryType</text>
<text text-anchor="start" x="247" y="-1680.96" font-family="Helvetica,sans-Serif" font-size="10.00" fill="grey">  ::Closed &gt;, Axis&lt; AxisType::Equidistant,</text>
<text text-anchor="start" x="247" y="-1665.96" font-family="Helvetica,sans-Serif" font-size="10.00" fill="grey">   AxisBoundaryType::Bound &gt; &gt;</text>
</g>
<!-- Node21&#45;&gt;Node8 -->
<g id="edge27_Node000021_Node000008" class="edge">
<title>Node21&#45;&gt;Node8</title>
<g id="a_edge27_Node000021_Node000008"><a xlink:title=" ">
<path fill="none" stroke="orange" stroke-dasharray="5,2" d="M166.76,-860.36C170.08,-935.72 185.79,-1202.24 244,-1258.46 275.57,-1288.95 390,-1299.68 470.97,-1303.45"/>
<polygon fill="orange" stroke="orange" points="170.26,-860.16 166.35,-850.31 163.26,-860.45 170.26,-860.16"/>
</a>
</g>
<text text-anchor="start" x="267" y="-1352.46" font-family="Helvetica,sans-Serif" font-size="10.00" fill="grey">&lt; std::vector&lt; std</text>
<text text-anchor="start" x="267" y="-1337.46" font-family="Helvetica,sans-Serif" font-size="10.00" fill="grey">  ::size_t &gt;, Axis&lt; AxisType</text>
<text text-anchor="start" x="267" y="-1322.46" font-family="Helvetica,sans-Serif" font-size="10.00" fill="grey">  ::Equidistant, AxisBoundaryType</text>
<text text-anchor="start" x="267" y="-1307.46" font-family="Helvetica,sans-Serif" font-size="10.00" fill="grey">  ::Closed &gt; &gt;</text>
</g>
<!-- Node21&#45;&gt;Node9 -->
<g id="edge28_Node000021_Node000009" class="edge">
<title>Node21&#45;&gt;Node9</title>
<g id="a_edge28_Node000021_Node000009"><a xlink:title=" ">
<path fill="none" stroke="orange" stroke-dasharray="5,2" d="M165.97,-860.23C166.28,-947.03 172.07,-1293.26 244,-1367.46 274.6,-1399.02 388.63,-1413 469.85,-1419.05"/>
<polygon fill="orange" stroke="orange" points="169.47,-860.15 165.96,-850.16 162.47,-860.16 169.47,-860.15"/>
</a>
</g>
<text text-anchor="start" x="248" y="-1482.96" font-family="Helvetica,sans-Serif" font-size="10.00" fill="grey">&lt; std::vector&lt; std</text>
<text text-anchor="start" x="248" y="-1467.96" font-family="Helvetica,sans-Serif" font-size="10.00" fill="grey">  ::size_t &gt;, Axis&lt; AxisType</text>
<text text-anchor="start" x="248" y="-1452.96" font-family="Helvetica,sans-Serif" font-size="10.00" fill="grey">  ::Equidistant, AxisBoundaryType</text>
<text text-anchor="start" x="248" y="-1437.96" font-family="Helvetica,sans-Serif" font-size="10.00" fill="grey">  ::Bound &gt;, Axis&lt; AxisType::Equidistant,</text>
<text text-anchor="start" x="248" y="-1422.96" font-family="Helvetica,sans-Serif" font-size="10.00" fill="grey">   AxisBoundaryType::Closed &gt; &gt;</text>
</g>
<!-- Node21&#45;&gt;Node10 -->
<g id="edge29_Node000021_Node000010" class="edge">
<title>Node21&#45;&gt;Node10</title>
<g id="a_edge29_Node000021_Node000010"><a xlink:title=" ">
<path fill="none" stroke="orange" stroke-dasharray="5,2" d="M166.55,-860.2C168.91,-904.3 181.17,-1011.14 244,-1064.46 277.32,-1092.73 389.73,-1106.73 469.93,-1113.27"/>
<polygon fill="orange" stroke="orange" points="170.03,-859.81 166.12,-849.96 163.04,-860.1 170.03,-859.81"/>
</a>
</g>
<text text-anchor="start" x="248" y="-1175.96" font-family="Helvetica,sans-Serif" font-size="10.00" fill="grey">&lt; std::vector&lt; std</text>
<text text-anchor="start" x="248" y="-1160.96" font-family="Helvetica,sans-Serif" font-size="10.00" fill="grey">  ::size_t &gt;, Axis&lt; AxisType</text>
<text text-anchor="start" x="248" y="-1145.96" font-family="Helvetica,sans-Serif" font-size="10.00" fill="grey">  ::Equidistant, AxisBoundaryType</text>
<text text-anchor="start" x="248" y="-1130.96" font-family="Helvetica,sans-Serif" font-size="10.00" fill="grey">  ::Bound &gt;, Axis&lt; AxisType::Equidistant,</text>
<text text-anchor="start" x="248" y="-1115.96" font-family="Helvetica,sans-Serif" font-size="10.00" fill="grey">   AxisBoundaryType::Bound &gt; &gt;</text>
</g>
<!-- Node21&#45;&gt;Node11 -->
<g id="edge30_Node000021_Node000011" class="edge">
<title>Node21&#45;&gt;Node11</title>
<g id="a_edge30_Node000021_Node000011"><a xlink:title=" ">
<path fill="none" stroke="orange" stroke-dasharray="5,2" d="M165.79,-820.6C165.3,-731.16 168.02,-366.62 244,-289.46 277.9,-255.03 413.12,-244.78 493.84,-241.74"/>
<polygon fill="orange" stroke="orange" points="162.29,-820.76 165.87,-830.73 169.29,-820.71 162.29,-820.76"/>
</a>
</g>
<text text-anchor="start" x="290" y="-310.46" font-family="Helvetica,sans-Serif" font-size="10.00" fill="grey">&lt; HoughCell&lt; identifier</text>
<text text-anchor="start" x="290" y="-295.46" font-family="Helvetica,sans-Serif" font-size="10.00" fill="grey">  _t &gt;, Axis, Axis &gt;</text>
</g>
<!-- Node21&#45;&gt;Node12 -->
<g id="edge31_Node000021_Node000012" class="edge">
<title>Node21&#45;&gt;Node12</title>
<g id="a_edge31_Node000021_Node000012"><a xlink:title=" ">
<path fill="none" stroke="orange" stroke-dasharray="5,2" d="M172.6,-821.13C183.12,-793.36 206.43,-742.65 244,-716.46 321.51,-662.41 362.71,-703.36 452,-672.46 475.1,-664.47 499.68,-652.51 519.1,-642.18"/>
<polygon fill="orange" stroke="orange" points="169.19,-820.27 169.08,-830.86 175.77,-822.64 169.19,-820.27"/>
</a>
</g>
<text text-anchor="start" x="285" y="-737.46" font-family="Helvetica,sans-Serif" font-size="10.00" fill="grey">&lt; BinType, PhiAxisType,</text>
<text text-anchor="start" x="285" y="-722.46" font-family="Helvetica,sans-Serif" font-size="10.00" fill="grey">   ZAxisType, RAxisType &gt;</text>
</g>
<!-- Node21&#45;&gt;Node13 -->
<g id="edge32_Node000021_Node000013" class="edge">
<title>Node21&#45;&gt;Node13</title>
<g id="a_edge32_Node000021_Node000013"><a xlink:title=" ">
<path fill="none" stroke="orange" stroke-dasharray="5,2" d="M166.32,-820.64C168.07,-739.27 178.94,-432.08 244,-366.46 260.69,-349.62 396.7,-330.92 483.39,-320.53"/>
<polygon fill="orange" stroke="orange" points="162.82,-820.88 166.13,-830.95 169.82,-821.02 162.82,-820.88"/>
</a>
</g>
<text text-anchor="start" x="291" y="-387.46" font-family="Helvetica,sans-Serif" font-size="10.00" fill="grey">&lt; SurfaceVector, Axis1,</text>
<text text-anchor="start" x="291" y="-372.46" font-family="Helvetica,sans-Serif" font-size="10.00" fill="grey">   Axis2 &gt;</text>
</g>
<!-- Node21&#45;&gt;Node14 -->
<g id="edge33_Node000021_Node000014" class="edge">
<title>Node21&#45;&gt;Node14</title>
<g id="a_edge33_Node000021_Node000014"><a xlink:title=" ">
<path fill="none" stroke="orange" stroke-dasharray="5,2" d="M167.12,-820.44C171.61,-747.94 190.64,-500.52 244,-446.46 310.38,-379.21 359.75,-422.91 452,-402.46 463.89,-399.82 476.52,-396.95 488.73,-394.14"/>
<polygon fill="orange" stroke="orange" points="163.6,-820.67 166.51,-830.86 170.59,-821.08 163.6,-820.67"/>
</a>
</g>
<text text-anchor="start" x="286" y="-467.46" font-family="Helvetica,sans-Serif" font-size="10.00" fill="grey">&lt; T, Axis&lt; AxisType</text>
<text text-anchor="start" x="286" y="-452.46" font-family="Helvetica,sans-Serif" font-size="10.00" fill="grey">  ::Equidistant, aType &gt; &gt;</text>
</g>
<!-- Node21&#45;&gt;Node15 -->
<g id="edge34_Node000021_Node000015" class="edge">
<title>Node21&#45;&gt;Node15</title>
<g id="a_edge34_Node000021_Node000015"><a xlink:title=" ">
<path fill="none" stroke="orange" stroke-dasharray="5,2" d="M167.01,-820.65C172.43,-718.36 199.39,-252.86 244,-208.46 278.4,-174.21 415.92,-169.72 496.27,-170.15"/>
<polygon fill="orange" stroke="orange" points="163.51,-820.65 166.48,-830.82 170.5,-821.01 163.51,-820.65"/>
</a>
</g>
<text text-anchor="start" x="294" y="-229.46" font-family="Helvetica,sans-Serif" font-size="10.00" fill="grey">&lt; T, Axis&lt; AxisType</text>
<text text-anchor="start" x="294" y="-214.46" font-family="Helvetica,sans-Serif" font-size="10.00" fill="grey">  ::Variable, aType &gt; &gt;</text>
</g>
<!-- Node21&#45;&gt;Node16 -->
<g id="edge35_Node000021_Node000016" class="edge">
<title>Node21&#45;&gt;Node16</title>
<g id="a_edge35_Node000021_Node000016"><a xlink:title=" ">
<path fill="none" stroke="orange" stroke-dasharray="5,2" d="M236.39,-841.09C294.45,-840.82 378.85,-838.57 452,-829.46 463.03,-828.08 474.63,-826.13 485.91,-823.95"/>
<polygon fill="orange" stroke="orange" points="236.21,-837.59 226.22,-841.12 236.23,-844.59 236.21,-837.59"/>
</a>
</g>
<text text-anchor="start" x="267" y="-891.46" font-family="Helvetica,sans-Serif" font-size="10.00" fill="grey">&lt; T, Axis&lt; AxisType</text>
<text text-anchor="start" x="267" y="-876.46" font-family="Helvetica,sans-Serif" font-size="10.00" fill="grey">  ::Equidistant, aType</text>
<text text-anchor="start" x="267" y="-861.46" font-family="Helvetica,sans-Serif" font-size="10.00" fill="grey">   &gt;, Axis&lt; AxisType::Equidistant,</text>
<text text-anchor="start" x="267" y="-846.46" font-family="Helvetica,sans-Serif" font-size="10.00" fill="grey">   bType &gt; &gt;</text>
</g>
<!-- Node21&#45;&gt;Node17 -->
<g id="edge36_Node000021_Node000017" class="edge">
<title>Node21&#45;&gt;Node17</title>
<g id="a_edge36_Node000021_Node000017"><a xlink:title=" ">
<path fill="none" stroke="orange" stroke-dasharray="5,2" d="M166.97,-860.01C172.34,-964.09 199.63,-1450.01 244,-1498.46 260.28,-1516.23 399.1,-1539.97 485.84,-1553.29"/>
<polygon fill="orange" stroke="orange" points="170.47,-859.77 166.46,-849.96 163.48,-860.13 170.47,-859.77"/>
</a>
</g>
<text text-anchor="start" x="274" y="-1597.46" font-family="Helvetica,sans-Serif" font-size="10.00" fill="grey">&lt; T, Axis&lt; AxisType</text>
<text text-anchor="start" x="274" y="-1582.46" font-family="Helvetica,sans-Serif" font-size="10.00" fill="grey">  ::Equidistant, aType</text>
<text text-anchor="start" x="274" y="-1567.46" font-family="Helvetica,sans-Serif" font-size="10.00" fill="grey">   &gt;, Axis&lt; AxisType::Variable,</text>
<text text-anchor="start" x="274" y="-1552.46" font-family="Helvetica,sans-Serif" font-size="10.00" fill="grey">   bType &gt; &gt;</text>
</g>
<!-- Node21&#45;&gt;Node18 -->
<g id="edge37_Node000021_Node000018" class="edge">
<title>Node21&#45;&gt;Node18</title>
<g id="a_edge37_Node000021_Node000018"><a xlink:title=" ">
<path fill="none" stroke="orange" stroke-dasharray="5,2" d="M166.67,-820.7C170.65,-708.88 192.77,-158.49 244,-105.46 305.66,-41.62 414.55,-41.1 485.87,-49.23"/>
<polygon fill="orange" stroke="orange" points="163.17,-820.77 166.32,-830.88 170.16,-821.01 163.17,-820.77"/>
</a>
</g>
<text text-anchor="start" x="274" y="-156.46" font-family="Helvetica,sans-Serif" font-size="10.00" fill="grey">&lt; T, Axis&lt; AxisType</text>
<text text-anchor="start" x="274" y="-141.46" font-family="Helvetica,sans-Serif" font-size="10.00" fill="grey">  ::Variable, aType &gt;,</text>
<text text-anchor="start" x="274" y="-126.46" font-family="Helvetica,sans-Serif" font-size="10.00" fill="grey">   Axis&lt; AxisType::Equidistant,</text>
<text text-anchor="start" x="274" y="-111.46" font-family="Helvetica,sans-Serif" font-size="10.00" fill="grey">   bType &gt; &gt;</text>
</g>
<!-- Node21&#45;&gt;Node19 -->
<g id="edge38_Node000021_Node000019" class="edge">
<title>Node21&#45;&gt;Node19</title>
<g id="a_edge38_Node000021_Node000019"><a xlink:title=" ">
<path fill="none" stroke="orange" stroke-dasharray="5,2" d="M168.2,-820.57C175.49,-758.2 200.92,-568.06 244,-526.46 311.97,-460.82 360.65,-506.62 452,-482.46 463.03,-479.54 474.63,-476.16 485.91,-472.69"/>
<polygon fill="orange" stroke="orange" points="164.7,-820.34 167.05,-830.67 171.66,-821.13 164.7,-820.34"/>
</a>
</g>
<text text-anchor="start" x="281" y="-577.46" font-family="Helvetica,sans-Serif" font-size="10.00" fill="grey">&lt; T, Axis&lt; AxisType</text>
<text text-anchor="start" x="281" y="-562.46" font-family="Helvetica,sans-Serif" font-size="10.00" fill="grey">  ::Variable, aType &gt;,</text>
<text text-anchor="start" x="281" y="-547.46" font-family="Helvetica,sans-Serif" font-size="10.00" fill="grey">   Axis&lt; AxisType::Variable,</text>
<text text-anchor="start" x="281" y="-532.46" font-family="Helvetica,sans-Serif" font-size="10.00" fill="grey">   bType &gt; &gt;</text>
</g>
<!-- Node21&#45;&gt;Node20 -->
<g id="edge39_Node000021_Node000020" class="edge">
<title>Node21&#45;&gt;Node20</title>
<g id="a_edge39_Node000021_Node000020"><a xlink:title=" ">
<path fill="none" stroke="orange" stroke-dasharray="5,2" d="M167.5,-820.38C171.71,-779.17 187.35,-684.86 244,-636.46 315.84,-575.08 360.14,-614.58 452,-592.46 468.38,-588.51 486.11,-583.86 502.19,-579.49"/>
<polygon fill="orange" stroke="orange" points="164,-820.24 166.59,-830.51 170.97,-820.86 164,-820.24"/>
</a>
</g>
<text text-anchor="start" x="277" y="-657.46" font-family="Helvetica,sans-Serif" font-size="10.00" fill="grey">&lt; HoughCount_t, HoughAxis,</text>
<text text-anchor="start" x="277" y="-642.46" font-family="Helvetica,sans-Serif" font-size="10.00" fill="grey">   HoughAxis &gt;</text>
</g>
</g>
</svg>

<g id="navigator" transform="translate(0 0)" fill="#404254">
  <rect fill="#f2f5e9" fill-opacity="0.5" stroke="#606060" stroke-width=".5" x="0" y="0" width="60" height="60"/>
  <use id="zoomplus" xlink:href="#zoomPlus" x="17" y="9" onmousedown="handleZoom(evt,'in')"/>
  <use id="zoomminus" xlink:href="#zoomMin" x="42" y="9" onmousedown="handleZoom(evt,'out')"/>
  <use id="reset" xlink:href="#resetDef" x="30" y="36" onmousedown="handleReset()"/>
   <use id="arrowup" xlink:href="#arrowUp" x="0" y="0" onmousedown="handlePan(0,-1)"/>
  <use id="arrowright" xlink:href="#arrowRight" x="0" y="0" onmousedown="handlePan(1,0)"/>
  <use id="arrowdown" xlink:href="#arrowDown" x="0" y="0" onmousedown="handlePan(0,1)"/>
  <use id="arrowleft" xlink:href="#arrowLeft" x="0" y="0" onmousedown="handlePan(-1,0)"/>
</g>
<svg viewBox="0 0 15 15" width="100%" height="30px" preserveAspectRatio="xMaxYMin meet">
 <g id="arrow_out" transform="scale(0.3 0.3)">
  <a xlink:href="class_acts_1_1_i_grid__inherit__graph_org.svg" target="_base">
   <rect id="button" ry="5" rx="5" y="6" x="6" height="38" width="38"
        fill="#f2f5e9" fill-opacity="0.5" stroke="#606060" stroke-width="1.0"/>
   <path id="arrow"
     d="M 11.500037,31.436501 C 11.940474,20.09759 22.043105,11.32322 32.158766,21.979434 L 37.068811,17.246167 C 37.068811,17.246167 37.088388,32 37.088388,32 L 22.160133,31.978069 C 22.160133,31.978069 26.997745,27.140456 26.997745,27.140456 C 18.528582,18.264221 13.291696,25.230495 11.500037,31.436501 z"
     style="fill:#404040;"/>
  </a>
 </g>
</svg>

<style type='text/css'>
<![CDATA[
[data-mouse-over-selected='false'] { opacity: 0.7; }
[data-mouse-over-selected='true']  { opacity: 1.0; }
]]>
</style>
<script type="application/ecmascript"><![CDATA[
document.addEventListener('DOMContentLoaded', (event) => {
  highlightEdges();
  highlightAdjacentNodes();
});
]]></script>
</svg>
