<?xml version="1.0" encoding="UTF-8" standalone="no"?>
<!DOCTYPE svg PUBLIC "-//W3C//DTD SVG 1.1//EN"
 "http://www.w3.org/Graphics/SVG/1.1/DTD/svg11.dtd">
<!-- Generated by graphviz version 2.43.0 (0)
 -->
<!-- Title: Acts::GridPortalLink Pages: 1 -->
<svg width="199pt" height="238pt"
 viewBox="0.00 0.00 199.00 238.00" xmlns="http://www.w3.org/2000/svg" xmlns:xlink="http://www.w3.org/1999/xlink">
<g id="graph0" class="graph" transform="scale(1 1) rotate(0) translate(4 234)">
<title>Acts::GridPortalLink</title>
<!-- Node1 -->
<g id="Node000001" class="node">
<title>Node1</title>
<g id="a_Node000001"><a xlink:title="GridPortalLink implements a subdivided surface where the target volume depends on the position on the...">
<polygon fill="#999999" stroke="#666666" points="117.5,-19 4.5,-19 4.5,0 117.5,0 117.5,-19"/>
<text text-anchor="middle" x="61" y="-7" font-family="Helvetica,sans-Serif" font-size="10.00">Acts::GridPortalLink</text>
</a>
</g>
</g>
<!-- Node2 -->
<g id="Node000002" class="node">
<title>Node2</title>
<g id="a_Node000002"><a xlink:href="class_acts_1_1_portal_link_base.html" target="_top" xlink:title="PortalLinkBase is the abstract base class for all portal links.">
<polygon fill="white" stroke="#666666" points="119,-75 3,-75 3,-56 119,-56 119,-75"/>
<text text-anchor="middle" x="61" y="-63" font-family="Helvetica,sans-Serif" font-size="10.00">Acts::PortalLinkBase</text>
</a>
</g>
</g>
<!-- Node2&#45;&gt;Node1 -->
<g id="edge1_Node000001_Node000002" class="edge">
<title>Node2&#45;&gt;Node1</title>
<g id="a_edge1_Node000001_Node000002"><a xlink:title=" ">
<path fill="none" stroke="#63b8ff" d="M61,-45.3C61,-36.41 61,-26.28 61,-19.25"/>
<polygon fill="#63b8ff" stroke="#63b8ff" points="57.5,-45.58 61,-55.58 64.5,-45.58 57.5,-45.58"/>
</a>
</g>
</g>
<!-- Node3 -->
<g id="Node000003" class="node">
<title>Node3</title>
<g id="a_Node000003"><a xlink:title=" ">
<polygon fill="white" stroke="#666666" points="122,-158 0,-158 0,-128 122,-128 122,-158"/>
<text text-anchor="start" x="8" y="-146" font-family="Helvetica,sans-Serif" font-size="10.00">std::shared_ptr&lt; Acts</text>
<text text-anchor="middle" x="61" y="-135" font-family="Helvetica,sans-Serif" font-size="10.00">::RegularSurface &gt;</text>
</a>
</g>
</g>
<!-- Node3&#45;&gt;Node2 -->
<g id="edge2_Node000002_Node000003" class="edge">
<title>Node3&#45;&gt;Node2</title>
<g id="a_edge2_Node000002_Node000003"><a xlink:title=" ">
<path fill="none" stroke="#9a32cd" stroke-dasharray="5,2" d="M61,-117.4C61,-102.81 61,-85.22 61,-75.01"/>
<polygon fill="#9a32cd" stroke="#9a32cd" points="57.5,-117.8 61,-127.8 64.5,-117.8 57.5,-117.8"/>
</a>
</g>
<text text-anchor="start" x="64" y="-98.5" font-family="Helvetica,sans-Serif" font-size="10.00" fill="grey">m_surface</text>
</g>
<!-- Node4 -->
<g id="Node000004" class="node">
<title>Node4</title>
<g id="a_Node000004"><a xlink:title=" ">
<polygon fill="white" stroke="#666666" points="120,-230 2,-230 2,-211 120,-211 120,-230"/>
<text text-anchor="middle" x="61" y="-218" font-family="Helvetica,sans-Serif" font-size="10.00">std::shared_ptr&lt; T &gt;</text>
</a>
</g>
</g>
<!-- Node4&#45;&gt;Node3 -->
<g id="edge3_Node000003_Node000004" class="edge">
<title>Node4&#45;&gt;Node3</title>
<g id="a_edge3_Node000003_Node000004"><a xlink:title=" ">
<path fill="none" stroke="orange" stroke-dasharray="5,2" d="M61,-200.57C61,-187.43 61,-170.18 61,-158.21"/>
<polygon fill="orange" stroke="orange" points="57.5,-200.84 61,-210.84 64.5,-200.84 57.5,-200.84"/>
</a>
</g>
<text text-anchor="start" x="64" y="-181.5" font-family="Helvetica,sans-Serif" font-size="10.00" fill="grey">&lt; Acts::RegularSurface &gt;</text>
</g>
</g>
</svg>
