<?xml version="1.0" encoding="UTF-8" standalone="no"?>
<!DOCTYPE svg PUBLIC "-//W3C//DTD SVG 1.1//EN"
 "http://www.w3.org/Graphics/SVG/1.1/DTD/svg11.dtd">
<!-- Generated by graphviz version 2.43.0 (0)
 -->
<!-- Title: Acts::TrackStateTypeMap&lt; ReadOnly &gt; Pages: 1 -->
<svg width="302pt" height="297pt"
 viewBox="0.00 0.00 302.00 297.00" xmlns="http://www.w3.org/2000/svg" xmlns:xlink="http://www.w3.org/1999/xlink">
<g id="graph0" class="graph" transform="scale(1 1) rotate(0) translate(4 293)">
<title>Acts::TrackStateTypeMap&lt; ReadOnly &gt;</title>
<!-- Node1 -->
<g id="Node000001" class="node">
<title>Node1</title>
<g id="a_Node000001"><a xlink:title="TrackStateTypeBase mapped to external storage.">
<polygon fill="#999999" stroke="#666666" points="216,-113 78,-113 78,-83 216,-83 216,-113"/>
<text text-anchor="start" x="86" y="-101" font-family="Helvetica,sans-Serif" font-size="10.00">Acts::TrackStateTypeMap</text>
<text text-anchor="middle" x="147" y="-90" font-family="Helvetica,sans-Serif" font-size="10.00">&lt; ReadOnly &gt;</text>
</a>
</g>
</g>
<!-- Node4 -->
<g id="Node000004" class="node">
<title>Node4</title>
<g id="a_Node000004"><a xlink:href="class_acts_1_1_track_state_type_map.html" target="_top" xlink:title=" ">
<polygon fill="white" stroke="#666666" points="138,-30 0,-30 0,0 138,0 138,-30"/>
<text text-anchor="start" x="8" y="-18" font-family="Helvetica,sans-Serif" font-size="10.00">Acts::TrackStateTypeMap</text>
<text text-anchor="middle" x="69" y="-7" font-family="Helvetica,sans-Serif" font-size="10.00">&lt; false &gt;</text>
</a>
</g>
</g>
<!-- Node1&#45;&gt;Node4 -->
<g id="edge3_Node000001_Node000004" class="edge">
<title>Node1&#45;&gt;Node4</title>
<g id="a_edge3_Node000001_Node000004"><a xlink:title=" ">
<path fill="none" stroke="orange" stroke-dasharray="5,2" d="M126.22,-75.42C112.43,-61.1 94.73,-42.72 82.69,-30.22"/>
<polygon fill="orange" stroke="orange" points="123.96,-78.12 133.41,-82.89 129,-73.26 123.96,-78.12"/>
</a>
</g>
<text text-anchor="start" x="118.5" y="-53.5" font-family="Helvetica,sans-Serif" font-size="10.00" fill="grey">&lt; false &gt;</text>
</g>
<!-- Node5 -->
<g id="Node000005" class="node">
<title>Node5</title>
<g id="a_Node000005"><a xlink:href="class_acts_1_1_track_state_type_map.html" target="_top" xlink:title=" ">
<polygon fill="white" stroke="#666666" points="294,-30 156,-30 156,0 294,0 294,-30"/>
<text text-anchor="start" x="164" y="-18" font-family="Helvetica,sans-Serif" font-size="10.00">Acts::TrackStateTypeMap</text>
<text text-anchor="middle" x="225" y="-7" font-family="Helvetica,sans-Serif" font-size="10.00">&lt; true &gt;</text>
</a>
</g>
</g>
<!-- Node1&#45;&gt;Node5 -->
<g id="edge4_Node000001_Node000005" class="edge">
<title>Node1&#45;&gt;Node5</title>
<g id="a_edge4_Node000001_Node000005"><a xlink:title=" ">
<path fill="none" stroke="orange" stroke-dasharray="5,2" d="M167.78,-75.42C181.57,-61.1 199.27,-42.72 211.31,-30.22"/>
<polygon fill="orange" stroke="orange" points="165,-73.26 160.59,-82.89 170.04,-78.12 165,-73.26"/>
</a>
</g>
<text text-anchor="start" x="195.5" y="-53.5" font-family="Helvetica,sans-Serif" font-size="10.00" fill="grey">&lt; true &gt;</text>
</g>
<!-- Node2 -->
<g id="Node000002" class="node">
<title>Node2</title>
<g id="a_Node000002"><a xlink:href="class_acts_1_1_track_state_type_base.html" target="_top" xlink:title=" ">
<polygon fill="white" stroke="#666666" points="237.5,-191 56.5,-191 56.5,-150 237.5,-150 237.5,-191"/>
<text text-anchor="start" x="64.5" y="-179" font-family="Helvetica,sans-Serif" font-size="10.00">Acts::TrackStateTypeBase</text>
<text text-anchor="start" x="64.5" y="-168" font-family="Helvetica,sans-Serif" font-size="10.00">&lt; TrackStateTypeMap&lt; ReadOnly</text>
<text text-anchor="middle" x="147" y="-157" font-family="Helvetica,sans-Serif" font-size="10.00"> &gt;, ReadOnly &gt;</text>
</a>
</g>
</g>
<!-- Node2&#45;&gt;Node1 -->
<g id="edge1_Node000001_Node000002" class="edge">
<title>Node2&#45;&gt;Node1</title>
<g id="a_edge1_Node000001_Node000002"><a xlink:title=" ">
<path fill="none" stroke="#63b8ff" d="M147,-139.58C147,-130.51 147,-120.95 147,-113.39"/>
<polygon fill="#63b8ff" stroke="#63b8ff" points="143.5,-139.86 147,-149.86 150.5,-139.86 143.5,-139.86"/>
</a>
</g>
</g>
<!-- Node3 -->
<g id="Node000003" class="node">
<title>Node3</title>
<g id="a_Node000003"><a xlink:href="class_acts_1_1_track_state_type_base.html" target="_top" xlink:title="CRTP base class for TrackStateType and TrackStateTypeMap.">
<polygon fill="white" stroke="#666666" points="217.5,-289 76.5,-289 76.5,-259 217.5,-259 217.5,-289"/>
<text text-anchor="start" x="84.5" y="-277" font-family="Helvetica,sans-Serif" font-size="10.00">Acts::TrackStateTypeBase</text>
<text text-anchor="middle" x="147" y="-266" font-family="Helvetica,sans-Serif" font-size="10.00">&lt; Derived, ReadOnly &gt;</text>
</a>
</g>
</g>
<!-- Node3&#45;&gt;Node2 -->
<g id="edge2_Node000002_Node000003" class="edge">
<title>Node3&#45;&gt;Node2</title>
<g id="a_edge2_Node000002_Node000003"><a xlink:title=" ">
<path fill="none" stroke="orange" stroke-dasharray="5,2" d="M147,-248.78C147,-231.13 147,-207.52 147,-191.06"/>
<polygon fill="orange" stroke="orange" points="143.5,-248.89 147,-258.89 150.5,-248.89 143.5,-248.89"/>
</a>
</g>
<text text-anchor="start" x="150.5" y="-230" font-family="Helvetica,sans-Serif" font-size="10.00" fill="grey">&lt; TrackStateTypeMap</text>
<text text-anchor="start" x="150.5" y="-215" font-family="Helvetica,sans-Serif" font-size="10.00" fill="grey">  &lt; ReadOnly &gt;, ReadOnly &gt;</text>
</g>
</g>
</svg>
