<?xml version="1.0" encoding="UTF-8" standalone="no"?>
<!DOCTYPE svg PUBLIC "-//W3C//DTD SVG 1.1//EN"
 "http://www.w3.org/Graphics/SVG/1.1/DTD/svg11.dtd">
<!-- Generated by graphviz version 2.43.0 (0)
 -->
<!-- Title: Acts::CylinderLayer Pages: 1 -->
<svg width="1511pt" height="459pt"
 viewBox="0.00 0.00 1511.00 459.00" xmlns="http://www.w3.org/2000/svg" xmlns:xlink="http://www.w3.org/1999/xlink">
<g id="graph0" class="graph" transform="scale(1 1) rotate(0) translate(4 455)">
<title>Acts::CylinderLayer</title>
<!-- Node1 -->
<g id="Node000001" class="node">
<title>Node1</title>
<g id="a_Node000001"><a xlink:title="Class to describe a cylindrical detector layer for tracking, it inherits from both,...">
<polygon fill="#999999" stroke="#666666" points="1503,-186.5 1392,-186.5 1392,-167.5 1503,-167.5 1503,-186.5"/>
<text text-anchor="middle" x="1447.5" y="-174.5" font-family="Helvetica,sans-Serif" font-size="10.00">Acts::CylinderLayer</text>
</a>
</g>
</g>
<!-- Node2 -->
<g id="Node000002" class="node">
<title>Node2</title>
<g id="a_Node000002"><a xlink:href="class_acts_1_1_cylinder_surface.html" target="_top" xlink:title="Class for a CylinderSurface in the TrackingGeometry.">
<polygon fill="white" stroke="#666666" points="1355,-128.5 1234,-128.5 1234,-109.5 1355,-109.5 1355,-128.5"/>
<text text-anchor="middle" x="1294.5" y="-116.5" font-family="Helvetica,sans-Serif" font-size="10.00">Acts::CylinderSurface</text>
</a>
</g>
</g>
<!-- Node2&#45;&gt;Node1 -->
<g id="edge1_Node000001_Node000002" class="edge">
<title>Node2&#45;&gt;Node1</title>
<g id="a_edge1_Node000001_Node000002"><a xlink:title=" ">
<path fill="none" stroke="#63b8ff" d="M1329.82,-132.18C1357.74,-142.91 1396.49,-157.79 1421.53,-167.41"/>
<polygon fill="#63b8ff" stroke="#63b8ff" points="1331.02,-128.9 1320.43,-128.58 1328.51,-135.43 1331.02,-128.9"/>
</a>
</g>
</g>
<!-- Node3 -->
<g id="Node000003" class="node">
<title>Node3</title>
<g id="a_Node000003"><a xlink:href="class_acts_1_1_regular_surface.html" target="_top" xlink:title="A physical surface which does not depend on the direction you look at it from.">
<polygon fill="white" stroke="#666666" points="1060,-128.5 942,-128.5 942,-109.5 1060,-109.5 1060,-128.5"/>
<text text-anchor="middle" x="1001" y="-116.5" font-family="Helvetica,sans-Serif" font-size="10.00">Acts::RegularSurface</text>
</a>
</g>
</g>
<!-- Node3&#45;&gt;Node2 -->
<g id="edge2_Node000002_Node000003" class="edge">
<title>Node3&#45;&gt;Node2</title>
<g id="a_edge2_Node000002_Node000003"><a xlink:title=" ">
<path fill="none" stroke="#63b8ff" d="M1070.6,-119C1120.16,-119 1186.43,-119 1233.81,-119"/>
<polygon fill="#63b8ff" stroke="#63b8ff" points="1070.29,-115.5 1060.29,-119 1070.29,-122.5 1070.29,-115.5"/>
</a>
</g>
</g>
<!-- Node4 -->
<g id="Node000004" class="node">
<title>Node4</title>
<g id="a_Node000004"><a xlink:href="class_acts_1_1_surface.html" target="_top" xlink:title="Abstract Base Class for tracking surfaces.">
<polygon fill="white" stroke="#666666" points="688,-128.5 608,-128.5 608,-109.5 688,-109.5 688,-128.5"/>
<text text-anchor="middle" x="648" y="-116.5" font-family="Helvetica,sans-Serif" font-size="10.00">Acts::Surface</text>
</a>
</g>
</g>
<!-- Node4&#45;&gt;Node3 -->
<g id="edge3_Node000003_Node000004" class="edge">
<title>Node4&#45;&gt;Node3</title>
<g id="a_edge3_Node000003_Node000004"><a xlink:title=" ">
<path fill="none" stroke="#63b8ff" d="M698.48,-119C762.49,-119 873.84,-119 941.83,-119"/>
<polygon fill="#63b8ff" stroke="#63b8ff" points="698.24,-115.5 688.24,-119 698.24,-122.5 698.24,-115.5"/>
</a>
</g>
</g>
<!-- Node5 -->
<g id="Node000005" class="node">
<title>Node5</title>
<g id="a_Node000005"><a xlink:href="class_acts_1_1_geometry_object.html" target="_top" xlink:title="Base class to provide GeometryIdentifier interface:">
<polygon fill="white" stroke="#666666" points="428.5,-178.5 304.5,-178.5 304.5,-159.5 428.5,-159.5 428.5,-178.5"/>
<text text-anchor="middle" x="366.5" y="-166.5" font-family="Helvetica,sans-Serif" font-size="10.00">Acts::GeometryObject</text>
</a>
</g>
</g>
<!-- Node5&#45;&gt;Node4 -->
<g id="edge4_Node000004_Node000005" class="edge">
<title>Node5&#45;&gt;Node4</title>
<g id="a_edge4_Node000004_Node000005"><a xlink:title=" ">
<path fill="none" stroke="#63b8ff" d="M430.62,-157.71C485.07,-147.97 561.97,-134.21 607.93,-125.99"/>
<polygon fill="#63b8ff" stroke="#63b8ff" points="429.96,-154.27 420.73,-159.48 431.19,-161.16 429.96,-154.27"/>
</a>
</g>
</g>
<!-- Node14 -->
<g id="Node000014" class="node">
<title>Node14</title>
<g id="a_Node000014"><a xlink:href="class_acts_1_1_layer.html" target="_top" xlink:title="Base Class for a Detector Layer in the Tracking Geometry.">
<polygon fill="white" stroke="#666666" points="1330,-270.5 1259,-270.5 1259,-251.5 1330,-251.5 1330,-270.5"/>
<text text-anchor="middle" x="1294.5" y="-258.5" font-family="Helvetica,sans-Serif" font-size="10.00">Acts::Layer</text>
</a>
</g>
</g>
<!-- Node5&#45;&gt;Node14 -->
<g id="edge14_Node000014_Node000005" class="edge">
<title>Node5&#45;&gt;Node14</title>
<g id="a_edge14_Node000014_Node000005"><a xlink:title=" ">
<path fill="none" stroke="#63b8ff" d="M438.79,-174.45C446.29,-174.99 453.8,-175.51 461,-176 735.09,-194.48 804.43,-187.97 1078,-213 1139.54,-218.63 1156.15,-214.62 1216,-230 1236.21,-235.19 1258.21,-244.35 1273.58,-251.37"/>
<polygon fill="#63b8ff" stroke="#63b8ff" points="438.83,-170.94 428.6,-173.71 438.32,-177.92 438.83,-170.94"/>
</a>
</g>
</g>
<!-- Node22 -->
<g id="Node000022" class="node">
<title>Node22</title>
<g id="a_Node000022"><a xlink:href="class_acts_1_1_volume.html" target="_top" xlink:title="It inherits from GeometryObject for geometry identification.">
<polygon fill="white" stroke="#666666" points="688,-165.5 608,-165.5 608,-146.5 688,-146.5 688,-165.5"/>
<text text-anchor="middle" x="648" y="-153.5" font-family="Helvetica,sans-Serif" font-size="10.00">Acts::Volume</text>
</a>
</g>
</g>
<!-- Node5&#45;&gt;Node22 -->
<g id="edge24_Node000022_Node000005" class="edge">
<title>Node5&#45;&gt;Node22</title>
<g id="a_edge24_Node000022_Node000005"><a xlink:title=" ">
<path fill="none" stroke="#63b8ff" d="M438.98,-165.68C492.64,-163.18 564.1,-159.86 607.77,-157.82"/>
<polygon fill="#63b8ff" stroke="#63b8ff" points="438.66,-162.19 428.84,-166.15 438.99,-169.18 438.66,-162.19"/>
</a>
</g>
</g>
<!-- Node6 -->
<g id="Node000006" class="node">
<title>Node6</title>
<g id="a_Node000006"><a xlink:href="class_acts_1_1_geometry_identifier.html" target="_top" xlink:title="Identifier for geometry nodes within the geometry hierarchy.">
<polygon fill="white" stroke="#666666" points="136,-178.5 0,-178.5 0,-159.5 136,-159.5 136,-178.5"/>
<text text-anchor="middle" x="68" y="-166.5" font-family="Helvetica,sans-Serif" font-size="10.00">Acts::GeometryIdentifier</text>
</a>
</g>
</g>
<!-- Node6&#45;&gt;Node5 -->
<g id="edge5_Node000005_Node000006" class="edge">
<title>Node6&#45;&gt;Node5</title>
<g id="a_edge5_Node000005_Node000006"><a xlink:title=" ">
<path fill="none" stroke="#9a32cd" stroke-dasharray="5,2" d="M146.55,-169C195.68,-169 258.35,-169 304.04,-169"/>
<polygon fill="#9a32cd" stroke="#9a32cd" points="146.28,-165.5 136.28,-169 146.28,-172.5 146.28,-165.5"/>
</a>
</g>
<text text-anchor="start" x="177" y="-174.5" font-family="Helvetica,sans-Serif" font-size="10.00" fill="grey">m_geometryId</text>
</g>
<!-- Node7 -->
<g id="Node000007" class="node">
<title>Node7</title>
<g id="a_Node000007"><a xlink:title=" ">
<polygon fill="white" stroke="#bfbfbf" points="430.5,-138 302.5,-138 302.5,-108 430.5,-108 430.5,-138"/>
<text text-anchor="start" x="310.5" y="-126" font-family="Helvetica,sans-Serif" font-size="10.00">std::enable_shared</text>
<text text-anchor="middle" x="366.5" y="-115" font-family="Helvetica,sans-Serif" font-size="10.00">_from_this&lt; Surface &gt;</text>
</a>
</g>
</g>
<!-- Node7&#45;&gt;Node4 -->
<g id="edge6_Node000004_Node000007" class="edge">
<title>Node7&#45;&gt;Node4</title>
<g id="a_edge6_Node000004_Node000007"><a xlink:title=" ">
<path fill="none" stroke="#63b8ff" d="M440.69,-121.95C494.19,-121.19 564.67,-120.18 607.86,-119.56"/>
<polygon fill="#63b8ff" stroke="#63b8ff" points="440.52,-118.45 430.57,-122.1 440.62,-125.45 440.52,-118.45"/>
</a>
</g>
</g>
<!-- Node8 -->
<g id="Node000008" class="node">
<title>Node8</title>
<g id="a_Node000008"><a xlink:title=" ">
<polygon fill="white" stroke="#666666" points="443,-89.5 290,-89.5 290,-48.5 443,-48.5 443,-89.5"/>
<text text-anchor="start" x="298" y="-77.5" font-family="Helvetica,sans-Serif" font-size="10.00">std::array&lt; std::string</text>
<text text-anchor="start" x="298" y="-66.5" font-family="Helvetica,sans-Serif" font-size="10.00">_view, Surface::SurfaceType</text>
<text text-anchor="middle" x="366.5" y="-55.5" font-family="Helvetica,sans-Serif" font-size="10.00">::Other+1 &gt;</text>
</a>
</g>
</g>
<!-- Node8&#45;&gt;Node4 -->
<g id="edge7_Node000004_Node000008" class="edge">
<title>Node8&#45;&gt;Node4</title>
<g id="a_edge7_Node000004_Node000008"><a xlink:title=" ">
<path fill="none" stroke="#9a32cd" stroke-dasharray="5,2" d="M453.33,-79.5C489.77,-84.52 532.62,-91.15 571,-99 585.17,-101.9 600.63,-105.83 613.89,-109.43"/>
<polygon fill="#9a32cd" stroke="#9a32cd" points="453.61,-76.01 443.23,-78.13 452.67,-82.94 453.61,-76.01"/>
</a>
</g>
<text text-anchor="start" x="464" y="-104.5" font-family="Helvetica,sans-Serif" font-size="10.00" fill="grey">s_surfaceTypeNames</text>
</g>
<!-- Node9 -->
<g id="Node000009" class="node">
<title>Node9</title>
<g id="a_Node000009"><a xlink:title=" ">
<polygon fill="white" stroke="#666666" points="114,-78.5 22,-78.5 22,-59.5 114,-59.5 114,-78.5"/>
<text text-anchor="middle" x="68" y="-66.5" font-family="Helvetica,sans-Serif" font-size="10.00">std::array&lt; T &gt;</text>
</a>
</g>
</g>
<!-- Node9&#45;&gt;Node8 -->
<g id="edge8_Node000008_Node000009" class="edge">
<title>Node9&#45;&gt;Node8</title>
<g id="a_edge8_Node000008_Node000009"><a xlink:title=" ">
<path fill="none" stroke="orange" stroke-dasharray="5,2" d="M124.24,-69C170.86,-69 238.07,-69 289.72,-69"/>
<polygon fill="orange" stroke="orange" points="124.03,-65.5 114.03,-69 124.03,-72.5 124.03,-65.5"/>
</a>
</g>
<text text-anchor="start" x="157" y="-104.5" font-family="Helvetica,sans-Serif" font-size="10.00" fill="grey">&lt; std::string_view,</text>
<text text-anchor="start" x="157" y="-89.5" font-family="Helvetica,sans-Serif" font-size="10.00" fill="grey">   Surface::SurfaceType</text>
<text text-anchor="start" x="157" y="-74.5" font-family="Helvetica,sans-Serif" font-size="10.00" fill="grey">  ::Other+1 &gt;</text>
</g>
<!-- Node10 -->
<g id="Node000010" class="node">
<title>Node10</title>
<g id="a_Node000010"><a xlink:href="class_acts_1_1_cloneable_ptr.html" target="_top" xlink:title=" ">
<polygon fill="white" stroke="#666666" points="428,-30 305,-30 305,0 428,0 428,-30"/>
<text text-anchor="start" x="313" y="-18" font-family="Helvetica,sans-Serif" font-size="10.00">Acts::CloneablePtr</text>
<text text-anchor="middle" x="366.5" y="-7" font-family="Helvetica,sans-Serif" font-size="10.00">&lt; const Transform3 &gt;</text>
</a>
</g>
</g>
<!-- Node10&#45;&gt;Node4 -->
<g id="edge9_Node000004_Node000010" class="edge">
<title>Node10&#45;&gt;Node4</title>
<g id="a_edge9_Node000004_Node000010"><a xlink:title=" ">
<path fill="none" stroke="#9a32cd" stroke-dasharray="5,2" d="M438.64,-15.99C480.9,-19.93 533.41,-31.02 571,-60 584.85,-70.68 576.13,-83.15 589,-95 595.73,-101.2 604.29,-105.91 612.76,-109.45"/>
<polygon fill="#9a32cd" stroke="#9a32cd" points="438.67,-12.48 428.41,-15.16 438.1,-19.46 438.67,-12.48"/>
</a>
</g>
<text text-anchor="start" x="484" y="-65.5" font-family="Helvetica,sans-Serif" font-size="10.00" fill="grey">m_transform</text>
</g>
<!-- Node11 -->
<g id="Node000011" class="node">
<title>Node11</title>
<g id="a_Node000011"><a xlink:href="class_acts_1_1_cloneable_ptr.html" target="_top" xlink:title="A copyable smart pointer that uses a cloner function to copy the managed object.">
<polygon fill="white" stroke="#666666" points="135,-24.5 1,-24.5 1,-5.5 135,-5.5 135,-24.5"/>
<text text-anchor="middle" x="68" y="-12.5" font-family="Helvetica,sans-Serif" font-size="10.00">Acts::CloneablePtr&lt; T &gt;</text>
</a>
</g>
</g>
<!-- Node11&#45;&gt;Node10 -->
<g id="edge10_Node000010_Node000011" class="edge">
<title>Node11&#45;&gt;Node10</title>
<g id="a_edge10_Node000010_Node000011"><a xlink:title=" ">
<path fill="none" stroke="orange" stroke-dasharray="5,2" d="M145.2,-15C194.72,-15 258.43,-15 304.58,-15"/>
<polygon fill="orange" stroke="orange" points="145.17,-11.5 135.17,-15 145.17,-18.5 145.17,-11.5"/>
</a>
</g>
<text text-anchor="start" x="160" y="-20.5" font-family="Helvetica,sans-Serif" font-size="10.00" fill="grey">&lt; const Transform3 &gt;</text>
</g>
<!-- Node12 -->
<g id="Node000012" class="node">
<title>Node12</title>
<g id="a_Node000012"><a xlink:title=" ">
<polygon fill="white" stroke="#666666" points="1068,-91 934,-91 934,-61 1068,-61 1068,-91"/>
<text text-anchor="start" x="942" y="-79" font-family="Helvetica,sans-Serif" font-size="10.00">std::shared_ptr&lt; const</text>
<text text-anchor="middle" x="1001" y="-68" font-family="Helvetica,sans-Serif" font-size="10.00"> Acts::CylinderBounds &gt;</text>
</a>
</g>
</g>
<!-- Node12&#45;&gt;Node2 -->
<g id="edge11_Node000002_Node000012" class="edge">
<title>Node12&#45;&gt;Node2</title>
<g id="a_edge11_Node000002_Node000012"><a xlink:title=" ">
<path fill="none" stroke="#9a32cd" stroke-dasharray="5,2" d="M1078.62,-80.85C1119.61,-84.2 1170.81,-89.61 1216,-98 1231.62,-100.9 1248.7,-105.38 1262.84,-109.46"/>
<polygon fill="#9a32cd" stroke="#9a32cd" points="1078.68,-77.34 1068.43,-80.04 1078.12,-84.32 1078.68,-77.34"/>
</a>
</g>
<text text-anchor="start" x="1131" y="-103.5" font-family="Helvetica,sans-Serif" font-size="10.00" fill="grey">m_bounds</text>
</g>
<!-- Node13 -->
<g id="Node000013" class="node">
<title>Node13</title>
<g id="a_Node000013"><a xlink:title=" ">
<polygon fill="white" stroke="#666666" points="707,-85.5 589,-85.5 589,-66.5 707,-66.5 707,-85.5"/>
<text text-anchor="middle" x="648" y="-73.5" font-family="Helvetica,sans-Serif" font-size="10.00">std::shared_ptr&lt; T &gt;</text>
</a>
</g>
</g>
<!-- Node13&#45;&gt;Node12 -->
<g id="edge12_Node000012_Node000013" class="edge">
<title>Node13&#45;&gt;Node12</title>
<g id="a_edge12_Node000012_Node000013"><a xlink:title=" ">
<path fill="none" stroke="orange" stroke-dasharray="5,2" d="M717.52,-76C780.05,-76 871.9,-76 933.72,-76"/>
<polygon fill="orange" stroke="orange" points="717.35,-72.5 707.35,-76 717.35,-79.5 717.35,-72.5"/>
</a>
</g>
<text text-anchor="start" x="737.5" y="-81.5" font-family="Helvetica,sans-Serif" font-size="10.00" fill="grey">&lt; const Acts::CylinderBounds &gt;</text>
</g>
<!-- Node14&#45;&gt;Node1 -->
<g id="edge13_Node000001_Node000014" class="edge">
<title>Node14&#45;&gt;Node1</title>
<g id="a_edge13_Node000001_Node000014"><a xlink:title=" ">
<path fill="none" stroke="#63b8ff" d="M1321.74,-246.4C1352.65,-229.21 1403.11,-201.14 1429.38,-186.52"/>
<polygon fill="#63b8ff" stroke="#63b8ff" points="1319.86,-243.44 1312.82,-251.36 1323.26,-249.56 1319.86,-243.44"/>
</a>
</g>
</g>
<!-- Node15 -->
<g id="Node000015" class="node">
<title>Node15</title>
<g id="a_Node000015"><a xlink:title=" ">
<polygon fill="white" stroke="#666666" points="1063,-434 939,-434 939,-404 1063,-404 1063,-434"/>
<text text-anchor="start" x="947" y="-422" font-family="Helvetica,sans-Serif" font-size="10.00">std::pair&lt; const Layer</text>
<text text-anchor="middle" x="1001" y="-411" font-family="Helvetica,sans-Serif" font-size="10.00"> *, const Layer * &gt;</text>
</a>
</g>
</g>
<!-- Node15&#45;&gt;Node14 -->
<g id="edge15_Node000014_Node000015" class="edge">
<title>Node15&#45;&gt;Node14</title>
<g id="a_edge15_Node000014_Node000015"><a xlink:title=" ">
<path fill="none" stroke="#9a32cd" stroke-dasharray="5,2" d="M1073.32,-426.53C1117.75,-427.67 1174.2,-422.33 1216,-395 1262.56,-364.56 1284.5,-295.73 1291.19,-270.5"/>
<polygon fill="#9a32cd" stroke="#9a32cd" points="1073.29,-423.03 1063.17,-426.16 1073.03,-430.02 1073.29,-423.03"/>
</a>
</g>
<text text-anchor="start" x="1121" y="-431.5" font-family="Helvetica,sans-Serif" font-size="10.00" fill="grey">m_nextLayers</text>
</g>
<!-- Node16 -->
<g id="Node000016" class="node">
<title>Node16</title>
<g id="a_Node000016"><a xlink:title=" ">
<polygon fill="white" stroke="#666666" points="702.5,-428.5 593.5,-428.5 593.5,-409.5 702.5,-409.5 702.5,-428.5"/>
<text text-anchor="middle" x="648" y="-416.5" font-family="Helvetica,sans-Serif" font-size="10.00">std::pair&lt; T1, T2 &gt;</text>
</a>
</g>
</g>
<!-- Node16&#45;&gt;Node15 -->
<g id="edge16_Node000015_Node000016" class="edge">
<title>Node16&#45;&gt;Node15</title>
<g id="a_edge16_Node000015_Node000016"><a xlink:title=" ">
<path fill="none" stroke="orange" stroke-dasharray="5,2" d="M712.71,-419C777,-419 875.6,-419 938.94,-419"/>
<polygon fill="orange" stroke="orange" points="712.69,-415.5 702.69,-419 712.69,-422.5 712.69,-415.5"/>
</a>
</g>
<text text-anchor="start" x="761.5" y="-440" font-family="Helvetica,sans-Serif" font-size="10.00" fill="grey">&lt; const Layer *, const</text>
<text text-anchor="start" x="761.5" y="-425" font-family="Helvetica,sans-Serif" font-size="10.00" fill="grey">   Layer * &gt;</text>
</g>
<!-- Node17 -->
<g id="Node000017" class="node">
<title>Node17</title>
<g id="a_Node000017"><a xlink:href="class_acts_1_1_bin_utility.html" target="_top" xlink:title="The BinUtility class that translated global and local position into a bins of a BinnedArray,...">
<polygon fill="white" stroke="#666666" points="1045.5,-385.5 956.5,-385.5 956.5,-366.5 1045.5,-366.5 1045.5,-385.5"/>
<text text-anchor="middle" x="1001" y="-373.5" font-family="Helvetica,sans-Serif" font-size="10.00">Acts::BinUtility</text>
</a>
</g>
</g>
<!-- Node17&#45;&gt;Node14 -->
<g id="edge17_Node000014_Node000017" class="edge">
<title>Node17&#45;&gt;Node14</title>
<g id="a_edge17_Node000014_Node000017"><a xlink:title=" ">
<path fill="none" stroke="#9a32cd" stroke-dasharray="5,2" d="M1055.74,-377.2C1100.93,-376.06 1165.97,-369.25 1216,-343 1249.3,-325.52 1276.24,-288.14 1287.63,-270.54"/>
<polygon fill="#9a32cd" stroke="#9a32cd" points="1055.5,-373.7 1045.56,-377.37 1055.62,-380.7 1055.5,-373.7"/>
</a>
</g>
<text text-anchor="start" x="1109" y="-379.5" font-family="Helvetica,sans-Serif" font-size="10.00" fill="grey">m_nextLayerUtility</text>
</g>
<!-- Node18 -->
<g id="Node000018" class="node">
<title>Node18</title>
<g id="a_Node000018"><a xlink:title=" ">
<polygon fill="white" stroke="#666666" points="1064.5,-252 937.5,-252 937.5,-222 1064.5,-222 1064.5,-252"/>
<text text-anchor="start" x="945.5" y="-240" font-family="Helvetica,sans-Serif" font-size="10.00">std::unique_ptr&lt; const</text>
<text text-anchor="middle" x="1001" y="-229" font-family="Helvetica,sans-Serif" font-size="10.00"> Acts::SurfaceArray &gt;</text>
</a>
</g>
</g>
<!-- Node18&#45;&gt;Node14 -->
<g id="edge18_Node000014_Node000018" class="edge">
<title>Node18&#45;&gt;Node14</title>
<g id="a_edge18_Node000014_Node000018"><a xlink:title=" ">
<path fill="none" stroke="#9a32cd" stroke-dasharray="5,2" d="M1074.59,-234.8C1116.16,-234.51 1169.2,-235.79 1216,-242 1231.11,-244 1247.54,-247.79 1261.37,-251.46"/>
<polygon fill="#9a32cd" stroke="#9a32cd" points="1074.51,-231.3 1064.55,-234.9 1074.58,-238.3 1074.51,-231.3"/>
</a>
</g>
<text text-anchor="start" x="1117" y="-247.5" font-family="Helvetica,sans-Serif" font-size="10.00" fill="grey">m_surfaceArray</text>
</g>
<!-- Node19 -->
<g id="Node000019" class="node">
<title>Node19</title>
<g id="a_Node000019"><a xlink:title=" ">
<polygon fill="white" stroke="#666666" points="707,-294.5 589,-294.5 589,-275.5 707,-275.5 707,-294.5"/>
<text text-anchor="middle" x="648" y="-282.5" font-family="Helvetica,sans-Serif" font-size="10.00">std::unique_ptr&lt; T &gt;</text>
</a>
</g>
</g>
<!-- Node19&#45;&gt;Node18 -->
<g id="edge19_Node000018_Node000019" class="edge">
<title>Node19&#45;&gt;Node18</title>
<g id="a_edge19_Node000018_Node000019"><a xlink:title=" ">
<path fill="none" stroke="orange" stroke-dasharray="5,2" d="M688.86,-272.6C700.43,-269.38 713.13,-266.21 725,-264 797.16,-250.59 881.3,-243.57 937.32,-240.08"/>
<polygon fill="orange" stroke="orange" points="687.7,-269.29 679.05,-275.42 689.63,-276.02 687.7,-269.29"/>
</a>
</g>
<text text-anchor="start" x="744.5" y="-269.5" font-family="Helvetica,sans-Serif" font-size="10.00" fill="grey">&lt; const Acts::SurfaceArray &gt;</text>
</g>
<!-- Node20 -->
<g id="Node000020" class="node">
<title>Node20</title>
<g id="a_Node000020"><a xlink:title=" ">
<polygon fill="white" stroke="#666666" points="1078,-348 924,-348 924,-318 1078,-318 1078,-348"/>
<text text-anchor="start" x="932" y="-336" font-family="Helvetica,sans-Serif" font-size="10.00">std::unique_ptr&lt; const</text>
<text text-anchor="middle" x="1001" y="-325" font-family="Helvetica,sans-Serif" font-size="10.00"> Acts::ApproachDescriptor &gt;</text>
</a>
</g>
</g>
<!-- Node19&#45;&gt;Node20 -->
<g id="edge21_Node000020_Node000019" class="edge">
<title>Node19&#45;&gt;Node20</title>
<g id="a_edge21_Node000020_Node000019"><a xlink:title=" ">
<path fill="none" stroke="orange" stroke-dasharray="5,2" d="M688.86,-297.4C700.43,-300.62 713.13,-303.79 725,-306 791.62,-318.38 868.44,-325.32 923.93,-329.05"/>
<polygon fill="orange" stroke="orange" points="689.63,-293.98 679.05,-294.58 687.7,-300.71 689.63,-293.98"/>
</a>
</g>
<text text-anchor="start" x="728.5" y="-332.5" font-family="Helvetica,sans-Serif" font-size="10.00" fill="grey">&lt; const Acts::ApproachDescriptor &gt;</text>
</g>
<!-- Node23 -->
<g id="Node000023" class="node">
<title>Node23</title>
<g id="a_Node000023"><a xlink:title=" ">
<polygon fill="white" stroke="#666666" points="1062,-300 940,-300 940,-270 1062,-270 1062,-300"/>
<text text-anchor="start" x="948" y="-288" font-family="Helvetica,sans-Serif" font-size="10.00">std::unique_ptr&lt; Acts</text>
<text text-anchor="middle" x="1001" y="-277" font-family="Helvetica,sans-Serif" font-size="10.00">::Volume &gt;</text>
</a>
</g>
</g>
<!-- Node19&#45;&gt;Node23 -->
<g id="edge26_Node000023_Node000019" class="edge">
<title>Node19&#45;&gt;Node23</title>
<g id="a_edge26_Node000023_Node000019"><a xlink:title=" ">
<path fill="none" stroke="orange" stroke-dasharray="5,2" d="M717.44,-285C782.04,-285 877.96,-285 939.74,-285"/>
<polygon fill="orange" stroke="orange" points="717.35,-281.5 707.35,-285 717.35,-288.5 717.35,-281.5"/>
</a>
</g>
<text text-anchor="start" x="772.5" y="-290.5" font-family="Helvetica,sans-Serif" font-size="10.00" fill="grey">&lt; Acts::Volume &gt;</text>
</g>
<!-- Node20&#45;&gt;Node14 -->
<g id="edge20_Node000014_Node000020" class="edge">
<title>Node20&#45;&gt;Node14</title>
<g id="a_edge20_Node000014_Node000020"><a xlink:title=" ">
<path fill="none" stroke="#9a32cd" stroke-dasharray="5,2" d="M1088.61,-324.5C1128.07,-319.19 1175.02,-310.85 1216,-298 1238.05,-291.09 1261.81,-278.98 1277.13,-270.51"/>
<polygon fill="#9a32cd" stroke="#9a32cd" points="1087.95,-321.06 1078.49,-325.82 1088.85,-328 1087.95,-321.06"/>
</a>
</g>
<text text-anchor="start" x="1101" y="-327.5" font-family="Helvetica,sans-Serif" font-size="10.00" fill="grey">m_approachDescriptor</text>
</g>
<!-- Node21 -->
<g id="Node000021" class="node">
<title>Node21</title>
<g id="a_Node000021"><a xlink:href="class_acts_1_1_tracking_volume.html" target="_top" xlink:title="Full Volume description used in Tracking, it inherits from Volume to get the geometrical structure.">
<polygon fill="white" stroke="#666666" points="1061.5,-165.5 940.5,-165.5 940.5,-146.5 1061.5,-146.5 1061.5,-165.5"/>
<text text-anchor="middle" x="1001" y="-153.5" font-family="Helvetica,sans-Serif" font-size="10.00">Acts::TrackingVolume</text>
</a>
</g>
</g>
<!-- Node21&#45;&gt;Node14 -->
<g id="edge22_Node000014_Node000021" class="edge">
<title>Node21&#45;&gt;Node14</title>
<g id="a_edge22_Node000014_Node000021"><a xlink:title=" ">
<path fill="none" stroke="#9a32cd" stroke-dasharray="5,2" d="M1060.49,-145.14C1105.45,-139.71 1167.81,-138.69 1216,-163 1254.54,-182.44 1279.99,-230.88 1289.42,-251.48"/>
<polygon fill="#9a32cd" stroke="#9a32cd" points="1059.77,-141.7 1050.31,-146.48 1060.69,-148.64 1059.77,-141.7"/>
</a>
</g>
<text text-anchor="start" x="1110" y="-168.5" font-family="Helvetica,sans-Serif" font-size="10.00" fill="grey">m_trackingVolume</text>
</g>
<!-- Node22&#45;&gt;Node21 -->
<g id="edge23_Node000021_Node000022" class="edge">
<title>Node22&#45;&gt;Node21</title>
<g id="a_edge23_Node000021_Node000022"><a xlink:title=" ">
<path fill="none" stroke="#63b8ff" d="M698.4,-156C761.91,-156 872.11,-156 940.26,-156"/>
<polygon fill="#63b8ff" stroke="#63b8ff" points="698.24,-152.5 688.24,-156 698.24,-159.5 698.24,-152.5"/>
</a>
</g>
</g>
<!-- Node23&#45;&gt;Node14 -->
<g id="edge25_Node000014_Node000023" class="edge">
<title>Node23&#45;&gt;Node14</title>
<g id="a_edge25_Node000014_Node000023"><a xlink:title=" ">
<path fill="none" stroke="#9a32cd" stroke-dasharray="5,2" d="M1072.03,-279.23C1130.96,-274.38 1212.76,-267.65 1258.66,-263.87"/>
<polygon fill="#9a32cd" stroke="#9a32cd" points="1071.72,-275.75 1062.05,-280.06 1072.3,-282.72 1071.72,-275.75"/>
</a>
</g>
<text text-anchor="start" x="1099" y="-282.5" font-family="Helvetica,sans-Serif" font-size="10.00" fill="grey">m_representingVolume</text>
</g>
</g>
</svg>
