<?xml version="1.0" encoding="UTF-8" standalone="no"?>
<!DOCTYPE svg PUBLIC "-//W3C//DTD SVG 1.1//EN"
 "http://www.w3.org/Graphics/SVG/1.1/DTD/svg11.dtd">
<!-- Generated by graphviz version 2.43.0 (0)
 -->
<!-- Title: Acts::OwningDelegate&lt; R(Args...), H &gt; Pages: 1 -->
<svg width="729pt" height="103pt"
 viewBox="0.00 0.00 729.00 103.00" xmlns="http://www.w3.org/2000/svg" xmlns:xlink="http://www.w3.org/1999/xlink">
<g id="graph0" class="graph" transform="scale(1 1) rotate(0) translate(4 99)">
<title>Acts::OwningDelegate&lt; R(Args...), H &gt;</title>
<!-- Node1 -->
<g id="Node000001" class="node">
<title>Node1</title>
<g id="a_Node000001"><a xlink:title="Alias for an owning delegate.">
<polygon fill="#999999" stroke="#666666" points="721,-46 596,-46 596,-16 721,-16 721,-46"/>
<text text-anchor="start" x="604" y="-34" font-family="Helvetica,sans-Serif" font-size="10.00">Acts::OwningDelegate</text>
<text text-anchor="middle" x="658.5" y="-23" font-family="Helvetica,sans-Serif" font-size="10.00">&lt; R(Args...), H &gt;</text>
</a>
</g>
</g>
<!-- Node2 -->
<g id="Node000002" class="node">
<title>Node2</title>
<g id="a_Node000002"><a xlink:href="class_acts_1_1_delegate.html" target="_top" xlink:title=" ">
<polygon fill="white" stroke="#666666" points="472,-78 315,-78 315,-48 472,-48 472,-78"/>
<text text-anchor="start" x="323" y="-66" font-family="Helvetica,sans-Serif" font-size="10.00">Acts::Delegate&lt; R(Args...)</text>
<text text-anchor="middle" x="393.5" y="-55" font-family="Helvetica,sans-Serif" font-size="10.00">, H, DelegateType::Owning &gt;</text>
</a>
</g>
</g>
<!-- Node2&#45;&gt;Node1 -->
<g id="edge1_Node000001_Node000002" class="edge">
<title>Node2&#45;&gt;Node1</title>
<g id="a_edge1_Node000001_Node000002"><a xlink:title=" ">
<path fill="none" stroke="#63b8ff" d="M482.32,-52.58C512.63,-48.95 546.81,-44.83 578,-41 583.8,-40.29 589.84,-39.54 595.87,-38.79"/>
<polygon fill="#63b8ff" stroke="#63b8ff" points="481.71,-49.12 472.19,-53.79 482.54,-56.08 481.71,-49.12"/>
</a>
</g>
</g>
<!-- Node3 -->
<g id="Node000003" class="node">
<title>Node3</title>
<g id="a_Node000003"><a xlink:href="class_acts_1_1_delegate.html" target="_top" xlink:title=" ">
<polygon fill="white" stroke="#666666" points="152,-78 0,-78 0,-48 152,-48 152,-78"/>
<text text-anchor="start" x="8" y="-66" font-family="Helvetica,sans-Serif" font-size="10.00">Acts::Delegate&lt; typename,</text>
<text text-anchor="middle" x="76" y="-55" font-family="Helvetica,sans-Serif" font-size="10.00"> H, DelegateType &gt;</text>
</a>
</g>
</g>
<!-- Node3&#45;&gt;Node2 -->
<g id="edge2_Node000002_Node000003" class="edge">
<title>Node3&#45;&gt;Node2</title>
<g id="a_edge2_Node000002_Node000003"><a xlink:title=" ">
<path fill="none" stroke="orange" stroke-dasharray="5,2" d="M162.44,-63C209.97,-63 268.68,-63 314.89,-63"/>
<polygon fill="orange" stroke="orange" points="162.17,-59.5 152.17,-63 162.17,-66.5 162.17,-59.5"/>
</a>
</g>
<text text-anchor="start" x="173.5" y="-84" font-family="Helvetica,sans-Serif" font-size="10.00" fill="grey">&lt; R(Args...), H, Delegate</text>
<text text-anchor="start" x="173.5" y="-69" font-family="Helvetica,sans-Serif" font-size="10.00" fill="grey">  Type::Owning &gt;</text>
</g>
<!-- Node4 -->
<g id="Node000004" class="node">
<title>Node4</title>
<g id="a_Node000004"><a xlink:href="class_acts_1_1_owning_delegate.html" target="_top" xlink:title=" ">
<polygon fill="white" stroke="#666666" points="456,-30 331,-30 331,0 456,0 456,-30"/>
<text text-anchor="start" x="339" y="-18" font-family="Helvetica,sans-Serif" font-size="10.00">Acts::OwningDelegate</text>
<text text-anchor="middle" x="393.5" y="-7" font-family="Helvetica,sans-Serif" font-size="10.00">&lt; typename, H &gt;</text>
</a>
</g>
</g>
<!-- Node4&#45;&gt;Node1 -->
<g id="edge3_Node000001_Node000004" class="edge">
<title>Node4&#45;&gt;Node1</title>
<g id="a_edge3_Node000001_Node000004"><a xlink:title=" ">
<path fill="none" stroke="orange" stroke-dasharray="5,2" d="M466.39,-17.88C500.27,-19.4 541.23,-21.48 578,-24 583.81,-24.4 589.85,-24.85 595.89,-25.34"/>
<polygon fill="orange" stroke="orange" points="466.27,-14.37 456.12,-17.42 465.96,-21.36 466.27,-14.37"/>
</a>
</g>
<text text-anchor="start" x="493" y="-29.5" font-family="Helvetica,sans-Serif" font-size="10.00" fill="grey">&lt; R(Args...), H &gt;</text>
</g>
</g>
</svg>
