<?xml version="1.0" encoding="UTF-8" standalone="no"?>
<!DOCTYPE svg PUBLIC "-//W3C//DTD SVG 1.1//EN"
 "http://www.w3.org/Graphics/SVG/1.1/DTD/svg11.dtd">
<!-- Generated by graphviz version 2.43.0 (0)
 -->
<!-- Title: Acts::CylinderLayer Pages: 1 -->
<svg width="2030pt" height="530pt"
 viewBox="0.00 0.00 2030.00 530.00" xmlns="http://www.w3.org/2000/svg" xmlns:xlink="http://www.w3.org/1999/xlink">
<g id="graph0" class="graph" transform="scale(1 1) rotate(0) translate(4 526)">
<title>Acts::CylinderLayer</title>
<!-- Node1 -->
<g id="Node000001" class="node">
<title>Node1</title>
<g id="a_Node000001"><a xlink:title="Class to describe a cylindrical detector layer for tracking, it inherits from both,...">
<polygon fill="#999999" stroke="#666666" points="2022,-85.5 1911,-85.5 1911,-66.5 2022,-66.5 2022,-85.5"/>
<text text-anchor="middle" x="1966.5" y="-73.5" font-family="Helvetica,sans-Serif" font-size="10.00">Acts::CylinderLayer</text>
</a>
</g>
</g>
<!-- Node2 -->
<g id="Node000002" class="node">
<title>Node2</title>
<g id="a_Node000002"><a xlink:href="class_acts_1_1_cylinder_surface.html" target="_top" xlink:title="Class for a CylinderSurface in the TrackingGeometry.">
<polygon fill="white" stroke="#666666" points="1874,-313.5 1753,-313.5 1753,-294.5 1874,-294.5 1874,-313.5"/>
<text text-anchor="middle" x="1813.5" y="-301.5" font-family="Helvetica,sans-Serif" font-size="10.00">Acts::CylinderSurface</text>
</a>
</g>
</g>
<!-- Node2&#45;&gt;Node1 -->
<g id="edge1_Node000001_Node000002" class="edge">
<title>Node2&#45;&gt;Node1</title>
<g id="a_edge1_Node000001_Node000002"><a xlink:title=" ">
<path fill="none" stroke="#63b8ff" d="M1826.51,-285.87C1856.92,-239.95 1936.2,-120.23 1959.18,-85.55"/>
<polygon fill="#63b8ff" stroke="#63b8ff" points="1823.4,-284.22 1820.8,-294.49 1829.24,-288.09 1823.4,-284.22"/>
</a>
</g>
</g>
<!-- Node3 -->
<g id="Node000003" class="node">
<title>Node3</title>
<g id="a_Node000003"><a xlink:href="class_acts_1_1_regular_surface.html" target="_top" xlink:title="A physical surface which does not depend on the direction you look at it from.">
<polygon fill="white" stroke="#666666" points="1716,-313.5 1598,-313.5 1598,-294.5 1716,-294.5 1716,-313.5"/>
<text text-anchor="middle" x="1657" y="-301.5" font-family="Helvetica,sans-Serif" font-size="10.00">Acts::RegularSurface</text>
</a>
</g>
</g>
<!-- Node3&#45;&gt;Node2 -->
<g id="edge2_Node000002_Node000003" class="edge">
<title>Node3&#45;&gt;Node2</title>
<g id="a_edge2_Node000002_Node000003"><a xlink:title=" ">
<path fill="none" stroke="#63b8ff" d="M1726.63,-304C1735.42,-304 1744.35,-304 1752.98,-304"/>
<polygon fill="#63b8ff" stroke="#63b8ff" points="1726.41,-300.5 1716.41,-304 1726.41,-307.5 1726.41,-300.5"/>
</a>
</g>
</g>
<!-- Node4 -->
<g id="Node000004" class="node">
<title>Node4</title>
<g id="a_Node000004"><a xlink:href="class_acts_1_1_surface.html" target="_top" xlink:title="Abstract Base Class for tracking surfaces.">
<polygon fill="white" stroke="#666666" points="1505,-313.5 1425,-313.5 1425,-294.5 1505,-294.5 1505,-313.5"/>
<text text-anchor="middle" x="1465" y="-301.5" font-family="Helvetica,sans-Serif" font-size="10.00">Acts::Surface</text>
</a>
</g>
</g>
<!-- Node4&#45;&gt;Node3 -->
<g id="edge3_Node000003_Node000004" class="edge">
<title>Node4&#45;&gt;Node3</title>
<g id="a_edge3_Node000003_Node000004"><a xlink:title=" ">
<path fill="none" stroke="#63b8ff" d="M1515.45,-304C1540.7,-304 1571.56,-304 1597.92,-304"/>
<polygon fill="#63b8ff" stroke="#63b8ff" points="1515.37,-300.5 1505.37,-304 1515.37,-307.5 1515.37,-300.5"/>
</a>
</g>
</g>
<!-- Node5 -->
<g id="Node000005" class="node">
<title>Node5</title>
<g id="a_Node000005"><a xlink:href="class_acts_1_1_geometry_object.html" target="_top" xlink:title="Base class to provide GeometryIdentifier interface:">
<polygon fill="white" stroke="#666666" points="374,-264.5 250,-264.5 250,-245.5 374,-245.5 374,-264.5"/>
<text text-anchor="middle" x="312" y="-252.5" font-family="Helvetica,sans-Serif" font-size="10.00">Acts::GeometryObject</text>
</a>
</g>
</g>
<!-- Node5&#45;&gt;Node4 -->
<g id="edge4_Node000004_Node000005" class="edge">
<title>Node5&#45;&gt;Node4</title>
<g id="a_edge4_Node000004_Node000005"><a xlink:title=" ">
<path fill="none" stroke="#63b8ff" d="M319.83,-274.23C337.15,-319.12 387.27,-427 469,-427 469,-427 469,-427 1179.5,-427 1283.63,-427 1318.42,-425.75 1407,-371 1430.64,-356.39 1449.48,-328.69 1458.39,-313.9"/>
<polygon fill="#63b8ff" stroke="#63b8ff" points="323.07,-272.89 316.3,-264.74 316.51,-275.33 323.07,-272.89"/>
</a>
</g>
</g>
<!-- Node13 -->
<g id="Node000013" class="node">
<title>Node13</title>
<g id="a_Node000013"><a xlink:href="class_acts_1_1_layer.html" target="_top" xlink:title="Base Class for a Detector Layer in the Tracking Geometry.">
<polygon fill="white" stroke="#666666" points="1214,-187.5 1143,-187.5 1143,-168.5 1214,-168.5 1214,-187.5"/>
<text text-anchor="middle" x="1178.5" y="-175.5" font-family="Helvetica,sans-Serif" font-size="10.00">Acts::Layer</text>
</a>
</g>
</g>
<!-- Node5&#45;&gt;Node13 -->
<g id="edge13_Node000013_Node000005" class="edge">
<title>Node5&#45;&gt;Node13</title>
<g id="a_edge13_Node000013_Node000005"><a xlink:title=" ">
<path fill="none" stroke="#63b8ff" d="M384.29,-256.96C549.37,-260.8 953.71,-266.07 1084,-230 1115.51,-221.28 1147.88,-199.97 1165.04,-187.51"/>
<polygon fill="#63b8ff" stroke="#63b8ff" points="384.32,-253.46 374.24,-256.72 384.16,-260.45 384.32,-253.46"/>
</a>
</g>
</g>
<!-- Node20 -->
<g id="Node000020" class="node">
<title>Node20</title>
<g id="a_Node000020"><a xlink:href="class_acts_1_1_volume.html" target="_top" xlink:title="It inherits from GeometryObject for geometry identification.">
<polygon fill="white" stroke="#666666" points="510,-37.5 430,-37.5 430,-18.5 510,-18.5 510,-37.5"/>
<text text-anchor="middle" x="470" y="-25.5" font-family="Helvetica,sans-Serif" font-size="10.00">Acts::Volume</text>
</a>
</g>
</g>
<!-- Node5&#45;&gt;Node20 -->
<g id="edge23_Node000020_Node000005" class="edge">
<title>Node5&#45;&gt;Node20</title>
<g id="a_edge23_Node000020_Node000005"><a xlink:title=" ">
<path fill="none" stroke="#63b8ff" d="M317.08,-235.28C326.47,-194.71 353.37,-101.31 411,-49 416.39,-44.11 423.01,-40.33 429.83,-37.42"/>
<polygon fill="#63b8ff" stroke="#63b8ff" points="313.62,-234.73 314.88,-245.24 320.45,-236.23 313.62,-234.73"/>
</a>
</g>
</g>
<!-- Node6 -->
<g id="Node000006" class="node">
<title>Node6</title>
<g id="a_Node000006"><a xlink:href="class_acts_1_1_geometry_identifier.html" target="_top" xlink:title="Identifier for geometry nodes within the geometry hierarchy.">
<polygon fill="white" stroke="#666666" points="136,-264.5 0,-264.5 0,-245.5 136,-245.5 136,-264.5"/>
<text text-anchor="middle" x="68" y="-252.5" font-family="Helvetica,sans-Serif" font-size="10.00">Acts::GeometryIdentifier</text>
</a>
</g>
</g>
<!-- Node6&#45;&gt;Node5 -->
<g id="edge5_Node000005_Node000006" class="edge">
<title>Node6&#45;&gt;Node5</title>
<g id="a_edge5_Node000005_Node000006"><a xlink:title=" ">
<path fill="none" stroke="#9a32cd" stroke-dasharray="5,2" d="M146.31,-255C179.84,-255 218.54,-255 249.99,-255"/>
<polygon fill="#9a32cd" stroke="#9a32cd" points="146.09,-251.5 136.09,-255 146.09,-258.5 146.09,-251.5"/>
</a>
</g>
<text text-anchor="start" x="157" y="-260.5" font-family="Helvetica,sans-Serif" font-size="10.00" fill="grey">m_geometryId</text>
</g>
<!-- Node7 -->
<g id="Node000007" class="node">
<title>Node7</title>
<g id="a_Node000007"><a xlink:title=" ">
<polygon fill="white" stroke="#666666" points="1242.5,-399 1114.5,-399 1114.5,-369 1242.5,-369 1242.5,-399"/>
<text text-anchor="start" x="1122.5" y="-387" font-family="Helvetica,sans-Serif" font-size="10.00">std::enable_shared</text>
<text text-anchor="middle" x="1178.5" y="-376" font-family="Helvetica,sans-Serif" font-size="10.00">_from_this&lt; Surface &gt;</text>
</a>
</g>
</g>
<!-- Node7&#45;&gt;Node4 -->
<g id="edge6_Node000004_Node000007" class="edge">
<title>Node7&#45;&gt;Node4</title>
<g id="a_edge6_Node000004_Node000007"><a xlink:title=" ">
<path fill="none" stroke="#63b8ff" d="M1252.76,-377.47C1298.38,-371.64 1357.57,-360.82 1407,-341 1423.86,-334.24 1441.07,-322.22 1452.1,-313.72"/>
<polygon fill="#63b8ff" stroke="#63b8ff" points="1252.15,-374.02 1242.65,-378.71 1253,-380.96 1252.15,-374.02"/>
</a>
</g>
</g>
<!-- Node8 -->
<g id="Node000008" class="node">
<title>Node8</title>
<g id="a_Node000008"><a xlink:title=" ">
<polygon fill="white" stroke="#666666" points="1255,-350.5 1102,-350.5 1102,-309.5 1255,-309.5 1255,-350.5"/>
<text text-anchor="start" x="1110" y="-338.5" font-family="Helvetica,sans-Serif" font-size="10.00">std::array&lt; std::string</text>
<text text-anchor="start" x="1110" y="-327.5" font-family="Helvetica,sans-Serif" font-size="10.00">_view, Surface::SurfaceType</text>
<text text-anchor="middle" x="1178.5" y="-316.5" font-family="Helvetica,sans-Serif" font-size="10.00">::Other+1 &gt;</text>
</a>
</g>
</g>
<!-- Node8&#45;&gt;Node4 -->
<g id="edge7_Node000004_Node000008" class="edge">
<title>Node8&#45;&gt;Node4</title>
<g id="a_edge7_Node000004_Node000008"><a xlink:title=" ">
<path fill="none" stroke="#9a32cd" stroke-dasharray="5,2" d="M1265.44,-322.15C1318.38,-317.31 1383.72,-311.34 1424.64,-307.6"/>
<polygon fill="#9a32cd" stroke="#9a32cd" points="1265.01,-318.67 1255.37,-323.07 1265.64,-325.64 1265.01,-318.67"/>
</a>
</g>
<text text-anchor="start" x="1288" y="-325.5" font-family="Helvetica,sans-Serif" font-size="10.00" fill="grey">s_surfaceTypeNames</text>
</g>
<!-- Node9 -->
<g id="Node000009" class="node">
<title>Node9</title>
<g id="a_Node000009"><a xlink:title=" ">
<polygon fill="white" stroke="#666666" points="869,-378.5 777,-378.5 777,-359.5 869,-359.5 869,-378.5"/>
<text text-anchor="middle" x="823" y="-366.5" font-family="Helvetica,sans-Serif" font-size="10.00">std::array&lt; T &gt;</text>
</a>
</g>
</g>
<!-- Node9&#45;&gt;Node8 -->
<g id="edge8_Node000008_Node000009" class="edge">
<title>Node9&#45;&gt;Node8</title>
<g id="a_edge8_Node000008_Node000009"><a xlink:title=" ">
<path fill="none" stroke="orange" stroke-dasharray="5,2" d="M879.29,-364.09C931.97,-359.27 1013.48,-351.43 1084,-343 1089.78,-342.31 1095.75,-341.56 1101.75,-340.78"/>
<polygon fill="orange" stroke="orange" points="878.79,-360.62 869.15,-365.02 879.43,-367.59 878.79,-360.62"/>
</a>
</g>
<text text-anchor="start" x="945" y="-394.5" font-family="Helvetica,sans-Serif" font-size="10.00" fill="grey">&lt; std::string_view,</text>
<text text-anchor="start" x="945" y="-379.5" font-family="Helvetica,sans-Serif" font-size="10.00" fill="grey">   Surface::SurfaceType</text>
<text text-anchor="start" x="945" y="-364.5" font-family="Helvetica,sans-Serif" font-size="10.00" fill="grey">  ::Other+1 &gt;</text>
</g>
<!-- Node10 -->
<g id="Node000010" class="node">
<title>Node10</title>
<g id="a_Node000010"><a xlink:title=" ">
<polygon fill="white" stroke="#666666" points="1064.5,-342 937.5,-342 937.5,-312 1064.5,-312 1064.5,-342"/>
<text text-anchor="start" x="945.5" y="-330" font-family="Helvetica,sans-Serif" font-size="10.00">std::unique_ptr&lt; const</text>
<text text-anchor="middle" x="1001" y="-319" font-family="Helvetica,sans-Serif" font-size="10.00"> Transform3 &gt;</text>
</a>
</g>
</g>
<!-- Node10&#45;&gt;Node4 -->
<g id="edge9_Node000004_Node000010" class="edge">
<title>Node10&#45;&gt;Node4</title>
<g id="a_edge9_Node000004_Node000010"><a xlink:title=" ">
<path fill="none" stroke="#9a32cd" stroke-dasharray="5,2" d="M1073.74,-313.77C1077.44,-311.55 1080.9,-308.98 1084,-306 1104.08,-286.72 1079.66,-262.62 1102,-246 1156.62,-205.36 1342.58,-252.96 1407,-275 1421.5,-279.96 1436.93,-288 1448.07,-294.36"/>
<polygon fill="#9a32cd" stroke="#9a32cd" points="1072.06,-310.69 1064.72,-318.33 1075.23,-316.93 1072.06,-310.69"/>
</a>
</g>
<text text-anchor="start" x="1146.5" y="-251.5" font-family="Helvetica,sans-Serif" font-size="10.00" fill="grey">m_transform</text>
</g>
<!-- Node11 -->
<g id="Node000011" class="node">
<title>Node11</title>
<g id="a_Node000011"><a xlink:title=" ">
<polygon fill="white" stroke="#666666" points="529,-199.5 411,-199.5 411,-180.5 529,-180.5 529,-199.5"/>
<text text-anchor="middle" x="470" y="-187.5" font-family="Helvetica,sans-Serif" font-size="10.00">std::unique_ptr&lt; T &gt;</text>
</a>
</g>
</g>
<!-- Node11&#45;&gt;Node10 -->
<g id="edge10_Node000010_Node000011" class="edge">
<title>Node11&#45;&gt;Node10</title>
<g id="a_edge10_Node000010_Node000011"><a xlink:title=" ">
<path fill="none" stroke="orange" stroke-dasharray="5,2" d="M498.55,-204.35C512.89,-211.66 530.76,-220.56 547,-228 634.13,-267.9 652.67,-289.24 746,-311 810.01,-325.92 885.39,-328.9 937.31,-328.79"/>
<polygon fill="orange" stroke="orange" points="499.75,-201.03 489.26,-199.57 496.55,-207.25 499.75,-201.03"/>
</a>
</g>
<text text-anchor="start" x="584.5" y="-312.5" font-family="Helvetica,sans-Serif" font-size="10.00" fill="grey">&lt; const Transform3 &gt;</text>
</g>
<!-- Node17 -->
<g id="Node000017" class="node">
<title>Node17</title>
<g id="a_Node000017"><a xlink:title=" ">
<polygon fill="white" stroke="#666666" points="886.5,-227 759.5,-227 759.5,-197 886.5,-197 886.5,-227"/>
<text text-anchor="start" x="767.5" y="-215" font-family="Helvetica,sans-Serif" font-size="10.00">std::unique_ptr&lt; const</text>
<text text-anchor="middle" x="823" y="-204" font-family="Helvetica,sans-Serif" font-size="10.00"> Acts::SurfaceArray &gt;</text>
</a>
</g>
</g>
<!-- Node11&#45;&gt;Node17 -->
<g id="edge18_Node000017_Node000011" class="edge">
<title>Node11&#45;&gt;Node17</title>
<g id="a_edge18_Node000017_Node000011"><a xlink:title=" ">
<path fill="none" stroke="orange" stroke-dasharray="5,2" d="M539.71,-194.31C603.48,-198.3 697.61,-204.2 759.36,-208.07"/>
<polygon fill="orange" stroke="orange" points="539.55,-190.79 529.35,-193.66 539.12,-197.78 539.55,-190.79"/>
</a>
</g>
<text text-anchor="start" x="566.5" y="-212.5" font-family="Helvetica,sans-Serif" font-size="10.00" fill="grey">&lt; const Acts::SurfaceArray &gt;</text>
</g>
<!-- Node18 -->
<g id="Node000018" class="node">
<title>Node18</title>
<g id="a_Node000018"><a xlink:title=" ">
<polygon fill="white" stroke="#666666" points="900,-179 746,-179 746,-149 900,-149 900,-179"/>
<text text-anchor="start" x="754" y="-167" font-family="Helvetica,sans-Serif" font-size="10.00">std::unique_ptr&lt; const</text>
<text text-anchor="middle" x="823" y="-156" font-family="Helvetica,sans-Serif" font-size="10.00"> Acts::ApproachDescriptor &gt;</text>
</a>
</g>
</g>
<!-- Node11&#45;&gt;Node18 -->
<g id="edge20_Node000018_Node000011" class="edge">
<title>Node11&#45;&gt;Node18</title>
<g id="a_edge20_Node000018_Node000011"><a xlink:title=" ">
<path fill="none" stroke="orange" stroke-dasharray="5,2" d="M523.01,-178.63C531.01,-177.2 539.21,-175.92 547,-175 613.91,-167.11 690.54,-164.57 745.88,-163.89"/>
<polygon fill="orange" stroke="orange" points="522.21,-175.22 513.03,-180.5 523.5,-182.1 522.21,-175.22"/>
</a>
</g>
<text text-anchor="start" x="550.5" y="-180.5" font-family="Helvetica,sans-Serif" font-size="10.00" fill="grey">&lt; const Acts::ApproachDescriptor &gt;</text>
</g>
<!-- Node21 -->
<g id="Node000021" class="node">
<title>Node21</title>
<g id="a_Node000021"><a xlink:title=" ">
<polygon fill="white" stroke="#666666" points="884,-131 762,-131 762,-101 884,-101 884,-131"/>
<text text-anchor="start" x="770" y="-119" font-family="Helvetica,sans-Serif" font-size="10.00">std::unique_ptr&lt; Acts</text>
<text text-anchor="middle" x="823" y="-108" font-family="Helvetica,sans-Serif" font-size="10.00">::Volume &gt;</text>
</a>
</g>
</g>
<!-- Node11&#45;&gt;Node21 -->
<g id="edge25_Node000021_Node000011" class="edge">
<title>Node11&#45;&gt;Node21</title>
<g id="a_edge25_Node000021_Node000011"><a xlink:title=" ">
<path fill="none" stroke="orange" stroke-dasharray="5,2" d="M491.33,-174.25C505.97,-163.8 526.65,-150.81 547,-144 618.22,-120.17 705.14,-115.01 761.94,-114.6"/>
<polygon fill="orange" stroke="orange" points="489.03,-171.6 483.06,-180.34 493.18,-177.23 489.03,-171.6"/>
</a>
</g>
<text text-anchor="start" x="594.5" y="-149.5" font-family="Helvetica,sans-Serif" font-size="10.00" fill="grey">&lt; Acts::Volume &gt;</text>
</g>
<!-- Node12 -->
<g id="Node000012" class="node">
<title>Node12</title>
<g id="a_Node000012"><a xlink:href="class_acts_1_1_detector_element_base.html" target="_top" xlink:title="This class is the base of all detector elements that are usable by ACTS.">
<polygon fill="white" stroke="#666666" points="1253.5,-291.5 1103.5,-291.5 1103.5,-272.5 1253.5,-272.5 1253.5,-291.5"/>
<text text-anchor="middle" x="1178.5" y="-279.5" font-family="Helvetica,sans-Serif" font-size="10.00">Acts::DetectorElementBase</text>
</a>
</g>
</g>
<!-- Node12&#45;&gt;Node4 -->
<g id="edge11_Node000004_Node000012" class="edge">
<title>Node12&#45;&gt;Node4</title>
<g id="a_edge11_Node000004_Node000012"><a xlink:title=" ">
<path fill="none" stroke="#9a32cd" stroke-dasharray="5,2" d="M1263.87,-278.51C1306.94,-278.07 1360.03,-279.62 1407,-287 1417.1,-288.59 1427.91,-291.49 1437.38,-294.45"/>
<polygon fill="#9a32cd" stroke="#9a32cd" points="1263.66,-275.01 1253.71,-278.65 1263.76,-282.01 1263.66,-275.01"/>
</a>
</g>
<text text-anchor="start" x="1277" y="-292.5" font-family="Helvetica,sans-Serif" font-size="10.00" fill="grey">m_associatedDetElement</text>
</g>
<!-- Node13&#45;&gt;Node1 -->
<g id="edge31_Node000001_Node000013" class="edge">
<title>Node13&#45;&gt;Node1</title>
<g id="a_edge31_Node000001_Node000013"><a xlink:title=" ">
<path fill="none" stroke="#63b8ff" d="M1193.7,-160.73C1232.16,-116.02 1343.58,0 1464,0 1464,0 1464,0 1814.5,0 1872.9,0 1931.75,-45.92 1955.06,-66.37"/>
<polygon fill="#63b8ff" stroke="#63b8ff" points="1190.97,-158.53 1187.19,-168.43 1196.32,-163.05 1190.97,-158.53"/>
</a>
</g>
</g>
<!-- Node13&#45;&gt;Node4 -->
<g id="edge12_Node000004_Node000013" class="edge">
<title>Node13&#45;&gt;Node4</title>
<g id="a_edge12_Node000004_Node000013"><a xlink:title=" ">
<path fill="none" stroke="#9a32cd" stroke-dasharray="5,2" d="M1224.31,-172.41C1273.29,-168.66 1352.11,-169.79 1407,-206 1439.53,-227.46 1455.84,-274.35 1461.56,-294.49"/>
<polygon fill="#9a32cd" stroke="#9a32cd" points="1223.99,-168.92 1214.33,-173.27 1224.59,-175.9 1223.99,-168.92"/>
</a>
</g>
<text text-anchor="start" x="1293" y="-211.5" font-family="Helvetica,sans-Serif" font-size="10.00" fill="grey">m_associatedLayer</text>
</g>
<!-- Node14 -->
<g id="Node000014" class="node">
<title>Node14</title>
<g id="a_Node000014"><a xlink:title=" ">
<polygon fill="white" stroke="#666666" points="885,-83 761,-83 761,-53 885,-53 885,-83"/>
<text text-anchor="start" x="769" y="-71" font-family="Helvetica,sans-Serif" font-size="10.00">std::pair&lt; const Layer</text>
<text text-anchor="middle" x="823" y="-60" font-family="Helvetica,sans-Serif" font-size="10.00"> *, const Layer * &gt;</text>
</a>
</g>
</g>
<!-- Node14&#45;&gt;Node13 -->
<g id="edge14_Node000013_Node000014" class="edge">
<title>Node14&#45;&gt;Node13</title>
<g id="a_edge14_Node000013_Node000014"><a xlink:title=" ">
<path fill="none" stroke="#9a32cd" stroke-dasharray="5,2" d="M895.27,-75.61C966.22,-83.5 1066.94,-95.69 1084,-103 1120.15,-118.49 1153.89,-151.99 1169.07,-168.46"/>
<polygon fill="#9a32cd" stroke="#9a32cd" points="895.36,-72.1 885.04,-74.48 894.59,-79.05 895.36,-72.1"/>
</a>
</g>
<text text-anchor="start" x="966" y="-108.5" font-family="Helvetica,sans-Serif" font-size="10.00" fill="grey">m_nextLayers</text>
</g>
<!-- Node15 -->
<g id="Node000015" class="node">
<title>Node15</title>
<g id="a_Node000015"><a xlink:title=" ">
<polygon fill="white" stroke="#666666" points="524.5,-77.5 415.5,-77.5 415.5,-58.5 524.5,-58.5 524.5,-77.5"/>
<text text-anchor="middle" x="470" y="-65.5" font-family="Helvetica,sans-Serif" font-size="10.00">std::pair&lt; T1, T2 &gt;</text>
</a>
</g>
</g>
<!-- Node15&#45;&gt;Node14 -->
<g id="edge15_Node000014_Node000015" class="edge">
<title>Node15&#45;&gt;Node14</title>
<g id="a_edge15_Node000014_Node000015"><a xlink:title=" ">
<path fill="none" stroke="orange" stroke-dasharray="5,2" d="M534.71,-68C599,-68 697.6,-68 760.94,-68"/>
<polygon fill="orange" stroke="orange" points="534.69,-64.5 524.69,-68 534.69,-71.5 534.69,-64.5"/>
</a>
</g>
<text text-anchor="start" x="583.5" y="-89" font-family="Helvetica,sans-Serif" font-size="10.00" fill="grey">&lt; const Layer *, const</text>
<text text-anchor="start" x="583.5" y="-74" font-family="Helvetica,sans-Serif" font-size="10.00" fill="grey">   Layer * &gt;</text>
</g>
<!-- Node16 -->
<g id="Node000016" class="node">
<title>Node16</title>
<g id="a_Node000016"><a xlink:href="class_acts_1_1_bin_utility.html" target="_top" xlink:title="The BinUtility class that translated global and local position into a bins of a BinnedArray,...">
<polygon fill="white" stroke="#666666" points="867.5,-302.5 778.5,-302.5 778.5,-283.5 867.5,-283.5 867.5,-302.5"/>
<text text-anchor="middle" x="823" y="-290.5" font-family="Helvetica,sans-Serif" font-size="10.00">Acts::BinUtility</text>
</a>
</g>
</g>
<!-- Node16&#45;&gt;Node13 -->
<g id="edge16_Node000013_Node000016" class="edge">
<title>Node16&#45;&gt;Node13</title>
<g id="a_edge16_Node000013_Node000016"><a xlink:title=" ">
<path fill="none" stroke="#9a32cd" stroke-dasharray="5,2" d="M877.74,-288.56C952.7,-282.27 1079.99,-271.17 1084,-268 1103.5,-252.56 1085.57,-233.68 1102,-215 1113.28,-202.17 1130.02,-193.34 1144.87,-187.54"/>
<polygon fill="#9a32cd" stroke="#9a32cd" points="877.21,-285.1 867.53,-289.42 877.79,-292.07 877.21,-285.1"/>
</a>
</g>
<text text-anchor="start" x="954" y="-290.5" font-family="Helvetica,sans-Serif" font-size="10.00" fill="grey">m_nextLayerUtility</text>
</g>
<!-- Node17&#45;&gt;Node13 -->
<g id="edge17_Node000013_Node000017" class="edge">
<title>Node17&#45;&gt;Node13</title>
<g id="a_edge17_Node000013_Node000017"><a xlink:title=" ">
<path fill="none" stroke="#9a32cd" stroke-dasharray="5,2" d="M896.91,-210.02C949.16,-207.99 1021.12,-203.95 1084,-196 1103.52,-193.53 1125.09,-189.47 1142.6,-185.83"/>
<polygon fill="#9a32cd" stroke="#9a32cd" points="896.59,-206.53 886.73,-210.4 896.85,-213.53 896.59,-206.53"/>
</a>
</g>
<text text-anchor="start" x="962" y="-214.5" font-family="Helvetica,sans-Serif" font-size="10.00" fill="grey">m_surfaceArray</text>
</g>
<!-- Node18&#45;&gt;Node13 -->
<g id="edge19_Node000013_Node000018" class="edge">
<title>Node18&#45;&gt;Node13</title>
<g id="a_edge19_Node000013_Node000018"><a xlink:title=" ">
<path fill="none" stroke="#9a32cd" stroke-dasharray="5,2" d="M910.6,-167.43C985.26,-170.39 1089.22,-174.5 1142.68,-176.62"/>
<polygon fill="#9a32cd" stroke="#9a32cd" points="910.4,-163.92 900.27,-167.02 910.12,-170.91 910.4,-163.92"/>
</a>
</g>
<text text-anchor="start" x="946" y="-180.5" font-family="Helvetica,sans-Serif" font-size="10.00" fill="grey">m_approachDescriptor</text>
</g>
<!-- Node19 -->
<g id="Node000019" class="node">
<title>Node19</title>
<g id="a_Node000019"><a xlink:href="class_acts_1_1_tracking_volume.html" target="_top" xlink:title="Full Volume description used in Tracking, it inherits from Volume to get the geometrical structure.">
<polygon fill="white" stroke="#666666" points="883.5,-34.5 762.5,-34.5 762.5,-15.5 883.5,-15.5 883.5,-34.5"/>
<text text-anchor="middle" x="823" y="-22.5" font-family="Helvetica,sans-Serif" font-size="10.00">Acts::TrackingVolume</text>
</a>
</g>
</g>
<!-- Node19&#45;&gt;Node4 -->
<g id="edge26_Node000004_Node000019" class="edge">
<title>Node19&#45;&gt;Node4</title>
<g id="a_edge26_Node000004_Node000019"><a xlink:title=" ">
<path fill="none" stroke="#9a32cd" stroke-dasharray="5,2" d="M894.05,-20.88C1015.74,-17.77 1266.56,-29.91 1407,-168 1444.42,-204.8 1458.46,-269.87 1462.57,-294.34"/>
<polygon fill="#9a32cd" stroke="#9a32cd" points="893.64,-17.39 883.75,-21.19 893.85,-24.39 893.64,-17.39"/>
</a>
</g>
<text text-anchor="start" x="1106.5" y="-77.5" font-family="Helvetica,sans-Serif" font-size="10.00" fill="grey">m_associatedTrackingVolume</text>
</g>
<!-- Node19&#45;&gt;Node13 -->
<g id="edge21_Node000013_Node000019" class="edge">
<title>Node19&#45;&gt;Node13</title>
<g id="a_edge21_Node000013_Node000019"><a xlink:title=" ">
<path fill="none" stroke="#9a32cd" stroke-dasharray="5,2" d="M893.63,-33.19C969.23,-42.17 1079.85,-55.64 1084,-58 1130.82,-84.66 1162.39,-145.03 1173.29,-168.46"/>
<polygon fill="#9a32cd" stroke="#9a32cd" points="894.01,-29.71 883.67,-32 893.19,-36.66 894.01,-29.71"/>
</a>
</g>
<text text-anchor="start" x="955" y="-63.5" font-family="Helvetica,sans-Serif" font-size="10.00" fill="grey">m_trackingVolume</text>
</g>
<!-- Node20&#45;&gt;Node19 -->
<g id="edge22_Node000019_Node000020" class="edge">
<title>Node20&#45;&gt;Node19</title>
<g id="a_edge22_Node000019_Node000020"><a xlink:title=" ">
<path fill="none" stroke="#63b8ff" d="M520.4,-27.58C583.91,-27.03 694.11,-26.09 762.26,-25.51"/>
<polygon fill="#63b8ff" stroke="#63b8ff" points="520.21,-24.08 510.24,-27.66 520.27,-31.08 520.21,-24.08"/>
</a>
</g>
</g>
<!-- Node21&#45;&gt;Node13 -->
<g id="edge24_Node000013_Node000021" class="edge">
<title>Node21&#45;&gt;Node13</title>
<g id="a_edge24_Node000013_Node000021"><a xlink:title=" ">
<path fill="none" stroke="#9a32cd" stroke-dasharray="5,2" d="M894.46,-120.54C947.13,-124.87 1020.67,-132.88 1084,-147 1108.04,-152.36 1134.62,-161.5 1153.27,-168.47"/>
<polygon fill="#9a32cd" stroke="#9a32cd" points="894.46,-117.03 884.21,-119.73 893.9,-124.01 894.46,-117.03"/>
</a>
</g>
<text text-anchor="start" x="944" y="-152.5" font-family="Helvetica,sans-Serif" font-size="10.00" fill="grey">m_representingVolume</text>
</g>
<!-- Node22 -->
<g id="Node000022" class="node">
<title>Node22</title>
<g id="a_Node000022"><a xlink:title=" ">
<polygon fill="white" stroke="#666666" points="1247.5,-485 1109.5,-485 1109.5,-455 1247.5,-455 1247.5,-485"/>
<text text-anchor="start" x="1117.5" y="-473" font-family="Helvetica,sans-Serif" font-size="10.00">std::shared_ptr&lt; const</text>
<text text-anchor="middle" x="1178.5" y="-462" font-family="Helvetica,sans-Serif" font-size="10.00"> Acts::ISurfaceMaterial &gt;</text>
</a>
</g>
</g>
<!-- Node22&#45;&gt;Node4 -->
<g id="edge27_Node000004_Node000022" class="edge">
<title>Node22&#45;&gt;Node4</title>
<g id="a_edge27_Node000004_Node000022"><a xlink:title=" ">
<path fill="none" stroke="#9a32cd" stroke-dasharray="5,2" d="M1257.65,-463.9C1318.68,-458.5 1395.1,-450.08 1407,-441 1428.61,-424.52 1453.32,-342.14 1461.34,-313.68"/>
<polygon fill="#9a32cd" stroke="#9a32cd" points="1257.27,-460.42 1247.61,-464.77 1257.88,-467.39 1257.27,-460.42"/>
</a>
</g>
<text text-anchor="start" x="1294" y="-466.5" font-family="Helvetica,sans-Serif" font-size="10.00" fill="grey">m_surfaceMaterial</text>
</g>
<!-- Node23 -->
<g id="Node000023" class="node">
<title>Node23</title>
<g id="a_Node000023"><a xlink:title=" ">
<polygon fill="white" stroke="#666666" points="882,-501.5 764,-501.5 764,-482.5 882,-482.5 882,-501.5"/>
<text text-anchor="middle" x="823" y="-489.5" font-family="Helvetica,sans-Serif" font-size="10.00">std::shared_ptr&lt; T &gt;</text>
</a>
</g>
</g>
<!-- Node23&#45;&gt;Node22 -->
<g id="edge28_Node000022_Node000023" class="edge">
<title>Node23&#45;&gt;Node22</title>
<g id="a_edge28_Node000022_Node000023"><a xlink:title=" ">
<path fill="none" stroke="orange" stroke-dasharray="5,2" d="M875.24,-480.52C889.05,-477.88 904.03,-475.43 918,-474 982.66,-467.36 1056.84,-466.93 1109.29,-467.83"/>
<polygon fill="orange" stroke="orange" points="874.55,-477.09 865.42,-482.46 875.91,-483.95 874.55,-477.09"/>
</a>
</g>
<text text-anchor="start" x="921" y="-479.5" font-family="Helvetica,sans-Serif" font-size="10.00" fill="grey">&lt; const Acts::ISurfaceMaterial &gt;</text>
</g>
<!-- Node24 -->
<g id="Node000024" class="node">
<title>Node24</title>
<g id="a_Node000024"><a xlink:title=" ">
<polygon fill="white" stroke="#666666" points="1407,-522 1273,-522 1273,-492 1407,-492 1407,-522"/>
<text text-anchor="start" x="1281" y="-510" font-family="Helvetica,sans-Serif" font-size="10.00">std::shared_ptr&lt; const</text>
<text text-anchor="middle" x="1340" y="-499" font-family="Helvetica,sans-Serif" font-size="10.00"> Acts::CylinderBounds &gt;</text>
</a>
</g>
</g>
<!-- Node23&#45;&gt;Node24 -->
<g id="edge30_Node000024_Node000023" class="edge">
<title>Node23&#45;&gt;Node24</title>
<g id="a_edge30_Node000024_Node000023"><a xlink:title=" ">
<path fill="none" stroke="orange" stroke-dasharray="5,2" d="M892.29,-493.99C991.54,-496.88 1174.47,-502.21 1272.63,-505.07"/>
<polygon fill="orange" stroke="orange" points="892.17,-490.48 882.08,-493.69 891.97,-497.48 892.17,-490.48"/>
</a>
</g>
<text text-anchor="start" x="923" y="-504.5" font-family="Helvetica,sans-Serif" font-size="10.00" fill="grey">&lt; const Acts::CylinderBounds &gt;</text>
</g>
<!-- Node24&#45;&gt;Node2 -->
<g id="edge29_Node000002_Node000024" class="edge">
<title>Node24&#45;&gt;Node2</title>
<g id="a_edge29_Node000002_Node000024"><a xlink:title=" ">
<path fill="none" stroke="#9a32cd" stroke-dasharray="5,2" d="M1391.2,-488.3C1396.55,-486.21 1401.9,-484.09 1407,-482 1555.75,-421.23 1731.89,-341.04 1791.56,-313.65"/>
<polygon fill="#9a32cd" stroke="#9a32cd" points="1389.69,-485.13 1381.62,-491.99 1392.21,-491.66 1389.69,-485.13"/>
</a>
</g>
<text text-anchor="start" x="1526.5" y="-437.5" font-family="Helvetica,sans-Serif" font-size="10.00" fill="grey">m_bounds</text>
</g>
</g>
</svg>
