<?xml version="1.0" encoding="UTF-8" standalone="no"?>
<!DOCTYPE svg PUBLIC "-//W3C//DTD SVG 1.1//EN"
 "http://www.w3.org/Graphics/SVG/1.1/DTD/svg11.dtd">
<!-- Generated by graphviz version 2.43.0 (0)
 -->
<!-- Title: ActsPlugins::MutablePodioTrackStateContainer Pages: 1 -->
<svg width="683pt" height="86pt"
 viewBox="0.00 0.00 683.00 86.00" xmlns="http://www.w3.org/2000/svg" xmlns:xlink="http://www.w3.org/1999/xlink">
<g id="graph0" class="graph" transform="scale(1 1) rotate(0) translate(4 82)">
<title>ActsPlugins::MutablePodioTrackStateContainer</title>
<!-- Node1 -->
<g id="Node000001" class="node">
<title>Node1</title>
<g id="a_Node000001"><a xlink:title=" ">
<polygon fill="#999999" stroke="#666666" points="675,-54 529,-54 529,-24 675,-24 675,-54"/>
<text text-anchor="start" x="537" y="-42" font-family="Helvetica,sans-Serif" font-size="10.00">ActsPlugins::MutablePodio</text>
<text text-anchor="middle" x="602" y="-31" font-family="Helvetica,sans-Serif" font-size="10.00">TrackStateContainer</text>
</a>
</g>
</g>
<!-- Node2 -->
<g id="Node000002" class="node">
<title>Node2</title>
<g id="a_Node000002"><a xlink:href="class_acts_plugins_1_1_podio_track_state_container_base.html" target="_top" xlink:title=" ">
<polygon fill="white" stroke="#666666" points="468.5,-78 311.5,-78 311.5,-48 468.5,-48 468.5,-78"/>
<text text-anchor="start" x="319.5" y="-66" font-family="Helvetica,sans-Serif" font-size="10.00">ActsPlugins::PodioTrackState</text>
<text text-anchor="middle" x="390" y="-55" font-family="Helvetica,sans-Serif" font-size="10.00">ContainerBase</text>
</a>
</g>
</g>
<!-- Node2&#45;&gt;Node1 -->
<g id="edge1_Node000001_Node000002" class="edge">
<title>Node2&#45;&gt;Node1</title>
<g id="a_edge1_Node000001_Node000002"><a xlink:title=" ">
<path fill="none" stroke="#63b8ff" d="M478.89,-52.96C495.56,-51.05 512.83,-49.08 528.94,-47.24"/>
<polygon fill="#63b8ff" stroke="#63b8ff" points="478.14,-49.52 468.6,-54.13 478.93,-56.47 478.14,-49.52"/>
</a>
</g>
</g>
<!-- Node3 -->
<g id="Node000003" class="node">
<title>Node3</title>
<g id="a_Node000003"><a xlink:href="class_acts_1_1_multi_trajectory.html" target="_top" xlink:title=" ">
<polygon fill="white" stroke="#666666" points="492,-30 288,-30 288,0 492,0 492,-30"/>
<text text-anchor="start" x="296" y="-18" font-family="Helvetica,sans-Serif" font-size="10.00">Acts::MultiTrajectory</text>
<text text-anchor="middle" x="390" y="-7" font-family="Helvetica,sans-Serif" font-size="10.00">&lt; MutablePodioTrackStateContainer &gt;</text>
</a>
</g>
</g>
<!-- Node3&#45;&gt;Node1 -->
<g id="edge2_Node000001_Node000003" class="edge">
<title>Node3&#45;&gt;Node1</title>
<g id="a_edge2_Node000001_Node000003"><a xlink:title=" ">
<path fill="none" stroke="#63b8ff" d="M502.18,-27.71C511.18,-28.73 520.12,-29.76 528.73,-30.74"/>
<polygon fill="#63b8ff" stroke="#63b8ff" points="502.33,-24.2 492,-26.54 501.54,-31.16 502.33,-24.2"/>
</a>
</g>
</g>
<!-- Node4 -->
<g id="Node000004" class="node">
<title>Node4</title>
<g id="a_Node000004"><a xlink:href="class_acts_1_1_multi_trajectory.html" target="_top" xlink:title="Store a trajectory of track states with multiple components.">
<polygon fill="white" stroke="#666666" points="116,-30 0,-30 0,0 116,0 116,-30"/>
<text text-anchor="start" x="8" y="-18" font-family="Helvetica,sans-Serif" font-size="10.00">Acts::MultiTrajectory</text>
<text text-anchor="middle" x="58" y="-7" font-family="Helvetica,sans-Serif" font-size="10.00">&lt; derived_t &gt;</text>
</a>
</g>
</g>
<!-- Node4&#45;&gt;Node3 -->
<g id="edge3_Node000003_Node000004" class="edge">
<title>Node4&#45;&gt;Node3</title>
<g id="a_edge3_Node000003_Node000004"><a xlink:title=" ">
<path fill="none" stroke="orange" stroke-dasharray="5,2" d="M126.37,-15C172.87,-15 235.52,-15 287.97,-15"/>
<polygon fill="orange" stroke="orange" points="126.1,-11.5 116.1,-15 126.1,-18.5 126.1,-11.5"/>
</a>
</g>
<text text-anchor="start" x="137" y="-36" font-family="Helvetica,sans-Serif" font-size="10.00" fill="grey">&lt; MutablePodioTrackState</text>
<text text-anchor="start" x="137" y="-21" font-family="Helvetica,sans-Serif" font-size="10.00" fill="grey">  Container &gt;</text>
</g>
</g>
</svg>
