<?xml version="1.0" encoding="UTF-8" standalone="no"?>
<!DOCTYPE svg PUBLIC "-//W3C//DTD SVG 1.1//EN"
 "http://www.w3.org/Graphics/SVG/1.1/DTD/svg11.dtd">
<!-- Generated by graphviz version 2.43.0 (0)
 -->
<!-- Title: Acts::Experimental::GbtsConnector Pages: 1 -->
<svg width="712pt" height="138pt"
 viewBox="0.00 0.00 712.00 137.50" xmlns="http://www.w3.org/2000/svg" xmlns:xlink="http://www.w3.org/1999/xlink">
<g id="graph0" class="graph" transform="scale(1 1) rotate(0) translate(4 133.5)">
<title>Acts::Experimental::GbtsConnector</title>
<!-- Node1 -->
<g id="Node000001" class="node">
<title>Node1</title>
<g id="a_Node000001"><a xlink:title=" ">
<polygon fill="#999999" stroke="#666666" points="704,-70.5 595,-70.5 595,-40.5 704,-40.5 704,-70.5"/>
<text text-anchor="start" x="603" y="-58.5" font-family="Helvetica,sans-Serif" font-size="10.00">Acts::Experimental</text>
<text text-anchor="middle" x="649.5" y="-47.5" font-family="Helvetica,sans-Serif" font-size="10.00">::GbtsConnector</text>
</a>
</g>
</g>
<!-- Node2 -->
<g id="Node000002" class="node">
<title>Node2</title>
<g id="a_Node000002"><a xlink:title=" ">
<polygon fill="white" stroke="#666666" points="478,-112.5 312,-112.5 312,-60.5 478,-60.5 478,-112.5"/>
<text text-anchor="start" x="320" y="-100.5" font-family="Helvetica,sans-Serif" font-size="10.00">std::map&lt; int, std</text>
<text text-anchor="start" x="320" y="-89.5" font-family="Helvetica,sans-Serif" font-size="10.00">::vector&lt; struct Acts</text>
<text text-anchor="start" x="320" y="-78.5" font-family="Helvetica,sans-Serif" font-size="10.00">::Experimental::GbtsConnector</text>
<text text-anchor="middle" x="395" y="-67.5" font-family="Helvetica,sans-Serif" font-size="10.00">::LayerGroup &gt; &gt;</text>
</a>
</g>
</g>
<!-- Node2&#45;&gt;Node1 -->
<g id="edge1_Node000001_Node000002" class="edge">
<title>Node2&#45;&gt;Node1</title>
<g id="a_edge1_Node000001_Node000002"><a xlink:title=" ">
<path fill="none" stroke="#9a32cd" stroke-dasharray="5,2" d="M488.32,-75.17C524.17,-70.76 563.96,-65.88 594.91,-62.08"/>
<polygon fill="#9a32cd" stroke="#9a32cd" points="487.83,-71.7 478.33,-76.39 488.68,-78.65 487.83,-71.7"/>
</a>
</g>
<text text-anchor="start" x="499.5" y="-80" font-family="Helvetica,sans-Serif" font-size="10.00" fill="grey">m_layerGroups</text>
</g>
<!-- Node3 -->
<g id="Node000003" class="node">
<title>Node3</title>
<g id="a_Node000003"><a xlink:title=" ">
<polygon fill="white" stroke="#666666" points="101,-63 0,-63 0,-44 101,-44 101,-63"/>
<text text-anchor="middle" x="50.5" y="-51" font-family="Helvetica,sans-Serif" font-size="10.00">std::map&lt; K, T &gt;</text>
</a>
</g>
</g>
<!-- Node3&#45;&gt;Node2 -->
<g id="edge2_Node000002_Node000003" class="edge">
<title>Node3&#45;&gt;Node2</title>
<g id="a_edge2_Node000002_Node000003"><a xlink:title=" ">
<path fill="none" stroke="orange" stroke-dasharray="5,2" d="M107.11,-64.74C111.12,-65.39 115.12,-65.99 119,-66.5 183.54,-75.03 257.12,-80.14 311.92,-83.06"/>
<polygon fill="orange" stroke="orange" points="107.58,-61.27 97.13,-63.04 106.4,-68.17 107.58,-61.27"/>
</a>
</g>
<text text-anchor="start" x="122.5" y="-118" font-family="Helvetica,sans-Serif" font-size="10.00" fill="grey">&lt; int, std::vector</text>
<text text-anchor="start" x="122.5" y="-103" font-family="Helvetica,sans-Serif" font-size="10.00" fill="grey">  &lt; struct Acts::Experimental</text>
<text text-anchor="start" x="122.5" y="-88" font-family="Helvetica,sans-Serif" font-size="10.00" fill="grey">  ::GbtsConnector::LayerGroup &gt; &gt;</text>
</g>
<!-- Node4 -->
<g id="Node000004" class="node">
<title>Node4</title>
<g id="a_Node000004"><a xlink:title=" ">
<polygon fill="white" stroke="#666666" points="473.5,-41 316.5,-41 316.5,0 473.5,0 473.5,-41"/>
<text text-anchor="start" x="324.5" y="-29" font-family="Helvetica,sans-Serif" font-size="10.00">std::map&lt; int, std</text>
<text text-anchor="start" x="324.5" y="-18" font-family="Helvetica,sans-Serif" font-size="10.00">::vector&lt; Acts::Experimental</text>
<text text-anchor="middle" x="395" y="-7" font-family="Helvetica,sans-Serif" font-size="10.00">::GbtsConnection * &gt; &gt;</text>
</a>
</g>
</g>
<!-- Node3&#45;&gt;Node4 -->
<g id="edge4_Node000004_Node000003" class="edge">
<title>Node3&#45;&gt;Node4</title>
<g id="a_edge4_Node000004_Node000003"><a xlink:title=" ">
<path fill="none" stroke="orange" stroke-dasharray="5,2" d="M72.54,-37.92C85.28,-29.48 102.25,-19.89 119,-15.5 183.9,1.51 260.39,-1.66 316.21,-7.98"/>
<polygon fill="orange" stroke="orange" points="70.31,-35.21 64.08,-43.78 74.29,-40.97 70.31,-35.21"/>
</a>
</g>
<text text-anchor="start" x="146.5" y="-51" font-family="Helvetica,sans-Serif" font-size="10.00" fill="grey">&lt; int, std::vector</text>
<text text-anchor="start" x="146.5" y="-36" font-family="Helvetica,sans-Serif" font-size="10.00" fill="grey">  &lt; Acts::Experimental</text>
<text text-anchor="start" x="146.5" y="-21" font-family="Helvetica,sans-Serif" font-size="10.00" fill="grey">  ::GbtsConnection * &gt; &gt;</text>
</g>
<!-- Node4&#45;&gt;Node1 -->
<g id="edge3_Node000001_Node000004" class="edge">
<title>Node4&#45;&gt;Node1</title>
<g id="a_edge3_Node000001_Node000004"><a xlink:title=" ">
<path fill="none" stroke="#9a32cd" stroke-dasharray="5,2" d="M483.48,-31.73C513.18,-35.64 546.55,-40.14 577,-44.5 582.72,-45.32 588.69,-46.2 594.64,-47.09"/>
<polygon fill="#9a32cd" stroke="#9a32cd" points="483.93,-28.25 473.56,-30.42 483.02,-35.2 483.93,-28.25"/>
</a>
</g>
<text text-anchor="start" x="506.5" y="-50" font-family="Helvetica,sans-Serif" font-size="10.00" fill="grey">m_connMap</text>
</g>
</g>
</svg>
