<?xml version="1.0" encoding="UTF-8" standalone="no"?>
<!DOCTYPE svg PUBLIC "-//W3C//DTD SVG 1.1//EN"
 "http://www.w3.org/Graphics/SVG/1.1/DTD/svg11.dtd">
<!-- Generated by graphviz version 2.43.0 (0)
 -->
<!-- Title: Acts::Experimental::StaticBlueprintNode Pages: 1 -->
<svg width="741pt" height="182pt"
 viewBox="0.00 0.00 741.00 182.00" xmlns="http://www.w3.org/2000/svg" xmlns:xlink="http://www.w3.org/1999/xlink">
<g id="graph0" class="graph" transform="scale(1 1) rotate(0) translate(4 178)">
<title>Acts::Experimental::StaticBlueprintNode</title>
<!-- Node1 -->
<g id="Node000001" class="node">
<title>Node1</title>
<g id="a_Node000001"><a xlink:title="The static blueprint node wraps a single already&#45;constructred TrackingVolume.">
<polygon fill="#999999" stroke="#666666" points="733,-100 613,-100 613,-70 733,-70 733,-100"/>
<text text-anchor="start" x="621" y="-88" font-family="Helvetica,sans-Serif" font-size="10.00">Acts::Experimental</text>
<text text-anchor="middle" x="673" y="-77" font-family="Helvetica,sans-Serif" font-size="10.00">::StaticBlueprintNode</text>
</a>
</g>
</g>
<!-- Node2 -->
<g id="Node000002" class="node">
<title>Node2</title>
<g id="a_Node000002"><a xlink:href="class_acts_1_1_experimental_1_1_blueprint_node.html" target="_top" xlink:title="Base class for all nodes in the blueprint tree.">
<polygon fill="white" stroke="#666666" points="417.5,-174 308.5,-174 308.5,-144 417.5,-144 417.5,-174"/>
<text text-anchor="start" x="316.5" y="-162" font-family="Helvetica,sans-Serif" font-size="10.00">Acts::Experimental</text>
<text text-anchor="middle" x="363" y="-151" font-family="Helvetica,sans-Serif" font-size="10.00">::BlueprintNode</text>
</a>
</g>
</g>
<!-- Node2&#45;&gt;Node1 -->
<g id="edge1_Node000001_Node000002" class="edge">
<title>Node2&#45;&gt;Node1</title>
<g id="a_edge1_Node000001_Node000002"><a xlink:title=" ">
<path fill="none" stroke="#63b8ff" d="M427.86,-154.29C474.92,-149.58 540.02,-140.4 595,-123 612.91,-117.33 631.84,-108.04 646.45,-100.06"/>
<polygon fill="#63b8ff" stroke="#63b8ff" points="427.42,-150.82 417.81,-155.26 428.1,-157.79 427.42,-150.82"/>
</a>
</g>
</g>
<!-- Node3 -->
<g id="Node000003" class="node">
<title>Node3</title>
<g id="a_Node000003"><a xlink:title=" ">
<polygon fill="white" stroke="#666666" points="424,-126 302,-126 302,-96 424,-96 424,-126"/>
<text text-anchor="start" x="310" y="-114" font-family="Helvetica,sans-Serif" font-size="10.00">std::unique_ptr&lt; Acts</text>
<text text-anchor="middle" x="363" y="-103" font-family="Helvetica,sans-Serif" font-size="10.00">::TrackingVolume &gt;</text>
</a>
</g>
</g>
<!-- Node3&#45;&gt;Node1 -->
<g id="edge2_Node000001_Node000003" class="edge">
<title>Node3&#45;&gt;Node1</title>
<g id="a_edge2_Node000001_Node000003"><a xlink:title=" ">
<path fill="none" stroke="#9a32cd" stroke-dasharray="5,2" d="M434.29,-105.07C488.23,-100.51 561.86,-94.3 612.82,-90"/>
<polygon fill="#9a32cd" stroke="#9a32cd" points="433.79,-101.6 424.12,-105.93 434.38,-108.57 433.79,-101.6"/>
</a>
</g>
<text text-anchor="start" x="500" y="-107.5" font-family="Helvetica,sans-Serif" font-size="10.00" fill="grey">m_volume</text>
</g>
<!-- Node4 -->
<g id="Node000004" class="node">
<title>Node4</title>
<g id="a_Node000004"><a xlink:title=" ">
<polygon fill="white" stroke="#666666" points="118,-99.5 0,-99.5 0,-80.5 118,-80.5 118,-99.5"/>
<text text-anchor="middle" x="59" y="-87.5" font-family="Helvetica,sans-Serif" font-size="10.00">std::unique_ptr&lt; T &gt;</text>
</a>
</g>
</g>
<!-- Node4&#45;&gt;Node3 -->
<g id="edge3_Node000003_Node000004" class="edge">
<title>Node4&#45;&gt;Node3</title>
<g id="a_edge3_Node000003_Node000004"><a xlink:title=" ">
<path fill="none" stroke="orange" stroke-dasharray="5,2" d="M128.4,-94.76C180.61,-98.39 251.85,-103.34 301.88,-106.82"/>
<polygon fill="orange" stroke="orange" points="128.45,-91.25 118.23,-94.05 127.96,-98.23 128.45,-91.25"/>
</a>
</g>
<text text-anchor="start" x="139.5" y="-109.5" font-family="Helvetica,sans-Serif" font-size="10.00" fill="grey">&lt; Acts::TrackingVolume &gt;</text>
</g>
<!-- Node5 -->
<g id="Node000005" class="node">
<title>Node5</title>
<g id="a_Node000005"><a xlink:title=" ">
<polygon fill="white" stroke="#666666" points="424,-78 302,-78 302,-48 424,-48 424,-78"/>
<text text-anchor="start" x="310" y="-66" font-family="Helvetica,sans-Serif" font-size="10.00">std::unique_ptr&lt; Acts</text>
<text text-anchor="middle" x="363" y="-55" font-family="Helvetica,sans-Serif" font-size="10.00">::PortalShellBase &gt;</text>
</a>
</g>
</g>
<!-- Node4&#45;&gt;Node5 -->
<g id="edge5_Node000005_Node000004" class="edge">
<title>Node4&#45;&gt;Node5</title>
<g id="a_edge5_Node000005_Node000004"><a xlink:title=" ">
<path fill="none" stroke="orange" stroke-dasharray="5,2" d="M109.11,-78.47C118.02,-76.72 127.26,-75.13 136,-74 191.91,-66.8 256.15,-64.22 301.82,-63.33"/>
<polygon fill="orange" stroke="orange" points="108.33,-75.06 99.24,-80.5 109.74,-81.92 108.33,-75.06"/>
</a>
</g>
<text text-anchor="start" x="139.5" y="-79.5" font-family="Helvetica,sans-Serif" font-size="10.00" fill="grey">&lt; Acts::PortalShellBase &gt;</text>
</g>
<!-- Node5&#45;&gt;Node1 -->
<g id="edge4_Node000001_Node000005" class="edge">
<title>Node5&#45;&gt;Node1</title>
<g id="a_edge4_Node000001_Node000005"><a xlink:title=" ">
<path fill="none" stroke="#9a32cd" stroke-dasharray="5,2" d="M434.2,-60.97C480.11,-60.51 541.31,-61.56 595,-68 600.84,-68.7 606.9,-69.65 612.93,-70.73"/>
<polygon fill="#9a32cd" stroke="#9a32cd" points="434.01,-57.47 424.05,-61.1 434.1,-64.47 434.01,-57.47"/>
</a>
</g>
<text text-anchor="start" x="507" y="-73.5" font-family="Helvetica,sans-Serif" font-size="10.00" fill="grey">m_shell</text>
</g>
<!-- Node6 -->
<g id="Node000006" class="node">
<title>Node6</title>
<g id="a_Node000006"><a xlink:title=" ">
<polygon fill="white" stroke="#666666" points="439,-30 287,-30 287,0 439,0 439,-30"/>
<text text-anchor="start" x="295" y="-18" font-family="Helvetica,sans-Serif" font-size="10.00">std::shared_ptr&lt; Acts</text>
<text text-anchor="middle" x="363" y="-7" font-family="Helvetica,sans-Serif" font-size="10.00">::NavigationPolicyFactory &gt;</text>
</a>
</g>
</g>
<!-- Node6&#45;&gt;Node1 -->
<g id="edge6_Node000001_Node000006" class="edge">
<title>Node6&#45;&gt;Node1</title>
<g id="a_edge6_Node000001_Node000006"><a xlink:title=" ">
<path fill="none" stroke="#9a32cd" stroke-dasharray="5,2" d="M449.25,-15.09C493.67,-17.3 548.32,-23.48 595,-39 615.98,-45.98 637.38,-59.37 652.27,-69.91"/>
<polygon fill="#9a32cd" stroke="#9a32cd" points="449.21,-11.58 439.07,-14.64 448.9,-18.57 449.21,-11.58"/>
</a>
</g>
<text text-anchor="start" x="460" y="-44.5" font-family="Helvetica,sans-Serif" font-size="10.00" fill="grey">m_navigationPolicyFactory</text>
</g>
<!-- Node7 -->
<g id="Node000007" class="node">
<title>Node7</title>
<g id="a_Node000007"><a xlink:title=" ">
<polygon fill="white" stroke="#666666" points="118,-24.5 0,-24.5 0,-5.5 118,-5.5 118,-24.5"/>
<text text-anchor="middle" x="59" y="-12.5" font-family="Helvetica,sans-Serif" font-size="10.00">std::shared_ptr&lt; T &gt;</text>
</a>
</g>
</g>
<!-- Node7&#45;&gt;Node6 -->
<g id="edge7_Node000006_Node000007" class="edge">
<title>Node7&#45;&gt;Node6</title>
<g id="a_edge7_Node000006_Node000007"><a xlink:title=" ">
<path fill="none" stroke="orange" stroke-dasharray="5,2" d="M128.35,-15C175.5,-15 238.19,-15 286.77,-15"/>
<polygon fill="orange" stroke="orange" points="128.23,-11.5 118.23,-15 128.23,-18.5 128.23,-11.5"/>
</a>
</g>
<text text-anchor="start" x="142.5" y="-36" font-family="Helvetica,sans-Serif" font-size="10.00" fill="grey">&lt; Acts::NavigationPolicy</text>
<text text-anchor="start" x="142.5" y="-21" font-family="Helvetica,sans-Serif" font-size="10.00" fill="grey">  Factory &gt;</text>
</g>
</g>
</svg>
