<?xml version="1.0" encoding="UTF-8" standalone="no"?>
<!DOCTYPE svg PUBLIC "-//W3C//DTD SVG 1.1//EN"
 "http://www.w3.org/Graphics/SVG/1.1/DTD/svg11.dtd">
<!-- Generated by graphviz version 2.43.0 (0)
 -->
<!-- Title: Acts::INavigationPolicy Pages: 1 -->
<svg width="718pt" height="489pt"
 viewBox="0.00 0.00 718.00 488.95" xmlns="http://www.w3.org/2000/svg" xmlns:xlink="http://www.w3.org/1999/xlink">
<g id="graph0" class="graph" transform="scale(1 1) rotate(0) translate(4 484.95)">
<title>Acts::INavigationPolicy</title>
<!-- Node1 -->
<g id="Node000001" class="node">
<title>Node1</title>
<g id="a_Node000001"><a xlink:title="Base class for all navigation policies.">
<polygon fill="#999999" stroke="#666666" points="129,-217 0,-217 0,-198 129,-198 129,-217"/>
<text text-anchor="middle" x="64.5" y="-205" font-family="Helvetica,sans-Serif" font-size="10.00">Acts::INavigationPolicy</text>
</a>
</g>
</g>
<!-- Node2 -->
<g id="Node000002" class="node">
<title>Node2</title>
<g id="a_Node000002"><a xlink:href="class_acts_1_1_index_grid_navigation_policy.html" target="_top" xlink:title=" ">
<polygon fill="white" stroke="#666666" points="710,-397.5 516,-397.5 516,-367.5 710,-367.5 710,-397.5"/>
<text text-anchor="start" x="524" y="-385.5" font-family="Helvetica,sans-Serif" font-size="10.00">Acts::IndexGridNavigation</text>
<text text-anchor="middle" x="613" y="-374.5" font-family="Helvetica,sans-Serif" font-size="10.00">Policy&lt; RegularCylinderIndexGrid &gt;</text>
</a>
</g>
</g>
<!-- Node1&#45;&gt;Node2 -->
<g id="edge1_Node000001_Node000002" class="edge">
<title>Node1&#45;&gt;Node2</title>
<g id="a_edge1_Node000001_Node000002"><a xlink:title=" ">
<path fill="none" stroke="#63b8ff" d="M73.83,-226.73C88.31,-258.1 120.94,-320.52 166,-357.5 232.23,-411.85 259.98,-414.73 344,-431.5 411.12,-444.9 430.96,-445.3 498,-431.5 529.44,-425.03 562.9,-409.49 585.38,-397.63"/>
<polygon fill="#63b8ff" stroke="#63b8ff" points="76.91,-225.05 69.62,-217.36 70.53,-227.91 76.91,-225.05"/>
</a>
</g>
</g>
<!-- Node3 -->
<g id="Node000003" class="node">
<title>Node3</title>
<g id="a_Node000003"><a xlink:href="class_acts_1_1_index_grid_navigation_policy.html" target="_top" xlink:title=" ">
<polygon fill="white" stroke="#666666" points="700.5,-476.5 525.5,-476.5 525.5,-446.5 700.5,-446.5 700.5,-476.5"/>
<text text-anchor="start" x="533.5" y="-464.5" font-family="Helvetica,sans-Serif" font-size="10.00">Acts::IndexGridNavigation</text>
<text text-anchor="middle" x="613" y="-453.5" font-family="Helvetica,sans-Serif" font-size="10.00">Policy&lt; RegularRingIndexGrid &gt;</text>
</a>
</g>
</g>
<!-- Node1&#45;&gt;Node3 -->
<g id="edge2_Node000001_Node000003" class="edge">
<title>Node1&#45;&gt;Node3</title>
<g id="a_edge2_Node000001_Node000003"><a xlink:title=" ">
<path fill="none" stroke="#63b8ff" d="M69.62,-227.06C79.13,-267.2 106.51,-359.1 166,-406.5 268.05,-487.81 427.13,-486.35 525.15,-475.57"/>
<polygon fill="#63b8ff" stroke="#63b8ff" points="73.01,-226.18 67.4,-217.19 66.18,-227.71 73.01,-226.18"/>
</a>
</g>
</g>
<!-- Node4 -->
<g id="Node000004" class="node">
<title>Node4</title>
<g id="a_Node000004"><a xlink:href="class_acts_1_1_index_grid_navigation_policy.html" target="_top" xlink:title=" ">
<polygon fill="white" stroke="#666666" points="700,-270.5 526,-270.5 526,-240.5 700,-240.5 700,-270.5"/>
<text text-anchor="start" x="534" y="-258.5" font-family="Helvetica,sans-Serif" font-size="10.00">Acts::IndexGridNavigation</text>
<text text-anchor="middle" x="613" y="-247.5" font-family="Helvetica,sans-Serif" font-size="10.00">Policy&lt; RegularDiscIndexGrid &gt;</text>
</a>
</g>
</g>
<!-- Node1&#45;&gt;Node4 -->
<g id="edge3_Node000001_Node000004" class="edge">
<title>Node1&#45;&gt;Node4</title>
<g id="a_edge3_Node000001_Node000004"><a xlink:title=" ">
<path fill="none" stroke="#63b8ff" d="M139.33,-213.98C239.8,-222.81 419.24,-238.57 525.78,-247.93"/>
<polygon fill="#63b8ff" stroke="#63b8ff" points="139.53,-210.49 129.26,-213.1 138.92,-217.46 139.53,-210.49"/>
</a>
</g>
</g>
<!-- Node5 -->
<g id="Node000005" class="node">
<title>Node5</title>
<g id="a_Node000005"><a xlink:href="class_acts_1_1_index_grid_navigation_policy.html" target="_top" xlink:title=" ">
<polygon fill="white" stroke="#666666" points="703,-339.5 523,-339.5 523,-309.5 703,-309.5 703,-339.5"/>
<text text-anchor="start" x="531" y="-327.5" font-family="Helvetica,sans-Serif" font-size="10.00">Acts::IndexGridNavigation</text>
<text text-anchor="middle" x="613" y="-316.5" font-family="Helvetica,sans-Serif" font-size="10.00">Policy&lt; RegularPlaneIndexGrid &gt;</text>
</a>
</g>
</g>
<!-- Node1&#45;&gt;Node5 -->
<g id="edge4_Node000001_Node000005" class="edge">
<title>Node1&#45;&gt;Node5</title>
<g id="a_edge4_Node000001_Node000005"><a xlink:title=" ">
<path fill="none" stroke="#63b8ff" d="M103.39,-220.06C122.06,-225.83 145.02,-232.3 166,-236.5 311.63,-265.63 354.61,-235.8 498,-274.5 528.46,-282.72 561.26,-297.83 583.82,-309.29"/>
<polygon fill="#63b8ff" stroke="#63b8ff" points="104.37,-216.69 93.78,-217.03 102.27,-223.37 104.37,-216.69"/>
</a>
</g>
</g>
<!-- Node6 -->
<g id="Node000006" class="node">
<title>Node6</title>
<g id="a_Node000006"><a xlink:href="class_acts_1_1_cylinder_navigation_policy.html" target="_top" xlink:title="Optimized navigation policy for cylindrical volumes that intelligently selects which portals to add a...">
<polygon fill="white" stroke="#666666" points="314.5,-201.5 177.5,-201.5 177.5,-171.5 314.5,-171.5 314.5,-201.5"/>
<text text-anchor="start" x="185.5" y="-189.5" font-family="Helvetica,sans-Serif" font-size="10.00">Acts::CylinderNavigation</text>
<text text-anchor="middle" x="246" y="-178.5" font-family="Helvetica,sans-Serif" font-size="10.00">Policy</text>
</a>
</g>
</g>
<!-- Node1&#45;&gt;Node6 -->
<g id="edge5_Node000001_Node000006" class="edge">
<title>Node1&#45;&gt;Node6</title>
<g id="a_edge5_Node000001_Node000006"><a xlink:title=" ">
<path fill="none" stroke="#63b8ff" d="M139.06,-198.89C151.71,-197.41 164.8,-195.88 177.29,-194.42"/>
<polygon fill="#63b8ff" stroke="#63b8ff" points="138.56,-195.43 129.04,-200.07 139.38,-202.38 138.56,-195.43"/>
</a>
</g>
</g>
<!-- Node7 -->
<g id="Node000007" class="node">
<title>Node7</title>
<g id="a_Node000007"><a xlink:href="class_acts_1_1_experimental_1_1_multi_layer_navigation_policy.html" target="_top" xlink:title="A navigation policy that uses grid based navigation for indexed surfaces Navigate through a multilaye...">
<polygon fill="white" stroke="#666666" points="324.5,-153.5 167.5,-153.5 167.5,-123.5 324.5,-123.5 324.5,-153.5"/>
<text text-anchor="start" x="175.5" y="-141.5" font-family="Helvetica,sans-Serif" font-size="10.00">Acts::Experimental</text>
<text text-anchor="middle" x="246" y="-130.5" font-family="Helvetica,sans-Serif" font-size="10.00">::MultiLayerNavigationPolicy</text>
</a>
</g>
</g>
<!-- Node1&#45;&gt;Node7 -->
<g id="edge6_Node000001_Node000007" class="edge">
<title>Node1&#45;&gt;Node7</title>
<g id="a_edge6_Node000001_Node000007"><a xlink:title=" ">
<path fill="none" stroke="#63b8ff" d="M93.97,-193.6C113.87,-184.16 141.23,-171.77 166,-162.5 174.32,-159.39 183.25,-156.37 192,-153.59"/>
<polygon fill="#63b8ff" stroke="#63b8ff" points="92.35,-190.49 84.84,-197.96 95.37,-196.81 92.35,-190.49"/>
</a>
</g>
</g>
<!-- Node8 -->
<g id="Node000008" class="node">
<title>Node8</title>
<g id="a_Node000008"><a xlink:href="class_acts_1_1_index_grid_navigation_policy.html" target="_top" xlink:title="A navigation policy that uses grid based navigation for indexed surfaces Navigate through a multilaye...">
<polygon fill="white" stroke="#666666" points="318,-348.5 174,-348.5 174,-318.5 318,-318.5 318,-348.5"/>
<text text-anchor="start" x="182" y="-336.5" font-family="Helvetica,sans-Serif" font-size="10.00">Acts::IndexGridNavigation</text>
<text text-anchor="middle" x="246" y="-325.5" font-family="Helvetica,sans-Serif" font-size="10.00">Policy&lt; GridType &gt;</text>
</a>
</g>
</g>
<!-- Node1&#45;&gt;Node8 -->
<g id="edge7_Node000001_Node000008" class="edge">
<title>Node1&#45;&gt;Node8</title>
<g id="a_edge7_Node000001_Node000008"><a xlink:title=" ">
<path fill="none" stroke="#63b8ff" d="M81.98,-224.76C97.73,-240.68 122.63,-264.38 147,-281.5 167.33,-295.78 192.05,-308.88 211.58,-318.35"/>
<polygon fill="#63b8ff" stroke="#63b8ff" points="84.11,-221.93 74.62,-217.21 79.1,-226.82 84.11,-221.93"/>
</a>
</g>
</g>
<!-- Node9 -->
<g id="Node000009" class="node">
<title>Node9</title>
<g id="a_Node000009"><a xlink:href="class_acts_1_1_multi_navigation_policy.html" target="_top" xlink:title="Combined navigation policy that calls all contained other navigation policies.">
<polygon fill="white" stroke="#666666" points="321.5,-105 170.5,-105 170.5,-86 321.5,-86 321.5,-105"/>
<text text-anchor="middle" x="246" y="-93" font-family="Helvetica,sans-Serif" font-size="10.00">Acts::MultiNavigationPolicy</text>
</a>
</g>
</g>
<!-- Node1&#45;&gt;Node9 -->
<g id="edge12_Node000001_Node000009" class="edge">
<title>Node1&#45;&gt;Node9</title>
<g id="a_edge12_Node000001_Node000009"><a xlink:title=" ">
<path fill="none" stroke="#63b8ff" d="M79.41,-190.04C97.21,-168.89 130.08,-133.72 166,-114.5 173.21,-110.64 181.21,-107.55 189.27,-105.09"/>
<polygon fill="#63b8ff" stroke="#63b8ff" points="76.59,-187.95 72.94,-197.9 81.99,-192.4 76.59,-187.95"/>
</a>
</g>
</g>
<!-- Node10 -->
<g id="Node000010" class="node">
<title>Node10</title>
<g id="a_Node000010"><a xlink:href="class_acts_1_1_surface_array_navigation_policy.html" target="_top" xlink:title="A navigation policy that internally uses the Gen1 SurfaceArray class.">
<polygon fill="white" stroke="#666666" points="326,-67.5 166,-67.5 166,-37.5 326,-37.5 326,-67.5"/>
<text text-anchor="start" x="174" y="-55.5" font-family="Helvetica,sans-Serif" font-size="10.00">Acts::SurfaceArrayNavigation</text>
<text text-anchor="middle" x="246" y="-44.5" font-family="Helvetica,sans-Serif" font-size="10.00">Policy</text>
</a>
</g>
</g>
<!-- Node1&#45;&gt;Node10 -->
<g id="edge13_Node000001_Node000010" class="edge">
<title>Node1&#45;&gt;Node10</title>
<g id="a_edge13_Node000001_Node000010"><a xlink:title=" ">
<path fill="none" stroke="#63b8ff" d="M75.04,-188.87C90.42,-160.67 123.32,-107.3 166,-77.5 171.54,-73.63 177.71,-70.34 184.1,-67.54"/>
<polygon fill="#63b8ff" stroke="#63b8ff" points="71.95,-187.24 70.35,-197.71 78.13,-190.52 71.95,-187.24"/>
</a>
</g>
</g>
<!-- Node11 -->
<g id="Node000011" class="node">
<title>Node11</title>
<g id="a_Node000011"><a xlink:href="class_acts_1_1_try_all_navigation_policy.html" target="_top" xlink:title="Policy which adds all candidates of the configured type to the stream.">
<polygon fill="white" stroke="#666666" points="322.5,-19 169.5,-19 169.5,0 322.5,0 322.5,-19"/>
<text text-anchor="middle" x="246" y="-7" font-family="Helvetica,sans-Serif" font-size="10.00">Acts::TryAllNavigationPolicy</text>
</a>
</g>
</g>
<!-- Node1&#45;&gt;Node11 -->
<g id="edge14_Node000001_Node000011" class="edge">
<title>Node1&#45;&gt;Node11</title>
<g id="a_edge14_Node000001_Node000011"><a xlink:title=" ">
<path fill="none" stroke="#63b8ff" d="M70.79,-187.87C81.87,-150.69 111.13,-70 166,-28.5 171.06,-24.67 176.79,-21.6 182.78,-19.14"/>
<polygon fill="#63b8ff" stroke="#63b8ff" points="67.3,-187.35 67.93,-197.92 74.03,-189.26 67.3,-187.35"/>
</a>
</g>
</g>
<!-- Node8&#45;&gt;Node2 -->
<g id="edge8_Node000008_Node000002" class="edge">
<title>Node8&#45;&gt;Node2</title>
<g id="a_edge8_Node000008_Node000002"><a xlink:title=" ">
<path fill="none" stroke="orange" stroke-dasharray="5,2" d="M328.35,-349.01C333.64,-349.89 338.89,-350.73 344,-351.5 400.85,-360.05 464.8,-367.53 515.97,-373"/>
<polygon fill="orange" stroke="orange" points="328.6,-345.51 318.16,-347.28 327.43,-352.41 328.6,-345.51"/>
</a>
</g>
<text text-anchor="start" x="347" y="-376" font-family="Helvetica,sans-Serif" font-size="10.00" fill="grey">&lt; RegularCylinderIndexGrid &gt;</text>
</g>
<!-- Node8&#45;&gt;Node3 -->
<g id="edge9_Node000008_Node000003" class="edge">
<title>Node8&#45;&gt;Node3</title>
<g id="a_edge9_Node000008_Node000003"><a xlink:title=" ">
<path fill="none" stroke="orange" stroke-dasharray="5,2" d="M276.75,-354.31C295.37,-366.55 320.26,-381.54 344,-391.5 404.31,-416.8 476.18,-434.97 530.3,-446.45"/>
<polygon fill="orange" stroke="orange" points="278.66,-351.38 268.4,-348.73 274.77,-357.2 278.66,-351.38"/>
</a>
</g>
<text text-anchor="start" x="356" y="-443" font-family="Helvetica,sans-Serif" font-size="10.00" fill="grey">&lt; RegularRingIndexGrid &gt;</text>
</g>
<!-- Node8&#45;&gt;Node4 -->
<g id="edge10_Node000008_Node000004" class="edge">
<title>Node8&#45;&gt;Node4</title>
<g id="a_edge10_Node000008_Node000004"><a xlink:title=" ">
<path fill="none" stroke="orange" stroke-dasharray="5,2" d="M305.55,-315.61C318.17,-312.03 331.48,-308.47 344,-305.5 404.33,-291.2 473.09,-278.44 525.86,-269.39"/>
<polygon fill="orange" stroke="orange" points="304.25,-312.34 295.61,-318.47 306.18,-319.07 304.25,-312.34"/>
</a>
</g>
<text text-anchor="start" x="357" y="-311" font-family="Helvetica,sans-Serif" font-size="10.00" fill="grey">&lt; RegularDiscIndexGrid &gt;</text>
</g>
<!-- Node8&#45;&gt;Node5 -->
<g id="edge11_Node000008_Node000005" class="edge">
<title>Node8&#45;&gt;Node5</title>
<g id="a_edge11_Node000008_Node000005"><a xlink:title=" ">
<path fill="none" stroke="orange" stroke-dasharray="5,2" d="M328.41,-331.49C386.1,-330.07 463.48,-328.16 522.84,-326.7"/>
<polygon fill="orange" stroke="orange" points="328.15,-328 318.24,-331.74 328.33,-335 328.15,-328"/>
</a>
</g>
<text text-anchor="start" x="354" y="-336" font-family="Helvetica,sans-Serif" font-size="10.00" fill="grey">&lt; RegularPlaneIndexGrid &gt;</text>
</g>
</g>
</svg>
