<?xml version="1.0" encoding="UTF-8" standalone="no"?>
<!DOCTYPE svg PUBLIC "-//W3C//DTD SVG 1.1//EN"
 "http://www.w3.org/Graphics/SVG/1.1/DTD/svg11.dtd">
<!-- Generated by graphviz version 2.43.0 (0)
 -->
<!-- Title: ActsPlugins::RootMaterialDecorator::Config Pages: 1 -->
<svg width="823pt" height="289pt"
 viewBox="0.00 0.00 823.00 288.75" xmlns="http://www.w3.org/2000/svg" xmlns:xlink="http://www.w3.org/1999/xlink">
<g id="graph0" class="graph" transform="scale(1 1) rotate(0) translate(4 284.75)">
<title>ActsPlugins::RootMaterialDecorator::Config</title>
<!-- Node1 -->
<g id="Node000001" class="node">
<title>Node1</title>
<g id="a_Node000001"><a xlink:title="Configuration of the Reader.">
<polygon fill="#999999" stroke="#666666" points="815,-103.81 673,-103.81 673,-73.81 815,-73.81 815,-103.81"/>
<text text-anchor="start" x="681" y="-91.81" font-family="Helvetica,sans-Serif" font-size="10.00">ActsPlugins::RootMaterial</text>
<text text-anchor="middle" x="744" y="-80.81" font-family="Helvetica,sans-Serif" font-size="10.00">Decorator::Config</text>
</a>
</g>
</g>
<!-- Node2 -->
<g id="Node000002" class="node">
<title>Node2</title>
<g id="a_Node000002"><a xlink:href="struct_acts_plugins_1_1_root_material_map_io_1_1_config.html" target="_top" xlink:title="Configuration for the accessor Contains the tags used for writing and reading, tag names are configur...">
<polygon fill="white" stroke="#666666" points="550,-103.81 408,-103.81 408,-73.81 550,-73.81 550,-103.81"/>
<text text-anchor="start" x="416" y="-91.81" font-family="Helvetica,sans-Serif" font-size="10.00">ActsPlugins::RootMaterial</text>
<text text-anchor="middle" x="479" y="-80.81" font-family="Helvetica,sans-Serif" font-size="10.00">MapIo::Config</text>
</a>
</g>
</g>
<!-- Node2&#45;&gt;Node1 -->
<g id="edge1_Node000001_Node000002" class="edge">
<title>Node2&#45;&gt;Node1</title>
<g id="a_edge1_Node000001_Node000002"><a xlink:title=" ">
<path fill="none" stroke="#9a32cd" stroke-dasharray="5,2" d="M560.55,-88.81C596.34,-88.81 638.08,-88.81 672.61,-88.81"/>
<polygon fill="#9a32cd" stroke="#9a32cd" points="560.13,-85.31 550.13,-88.81 560.13,-92.31 560.13,-85.31"/>
</a>
</g>
<text text-anchor="start" x="574.5" y="-94.31" font-family="Helvetica,sans-Serif" font-size="10.00" fill="grey">accessorConfig</text>
</g>
<!-- Node3 -->
<g id="Node000003" class="node">
<title>Node3</title>
<g id="a_Node000003"><a xlink:title=" ">
<polygon fill="white" stroke="#666666" points="206,-98.31 141,-98.31 141,-79.31 206,-79.31 206,-98.31"/>
<text text-anchor="middle" x="173.5" y="-86.31" font-family="Helvetica,sans-Serif" font-size="10.00">std::string</text>
</a>
</g>
</g>
<!-- Node3&#45;&gt;Node1 -->
<g id="edge6_Node000001_Node000003" class="edge">
<title>Node3&#45;&gt;Node1</title>
<g id="a_edge6_Node000001_Node000003"><a xlink:title=" ">
<path fill="none" stroke="#9a32cd" stroke-dasharray="5,2" d="M177.31,-108.34C183.56,-148.66 199.96,-238.83 224,-256.81 283.08,-301 318.03,-273.06 390,-256.81 523.73,-226.61 666.2,-139.47 720.36,-104.05"/>
<polygon fill="#9a32cd" stroke="#9a32cd" points="180.76,-107.76 175.82,-98.39 173.84,-108.8 180.76,-107.76"/>
</a>
</g>
<text text-anchor="start" x="457" y="-256.31" font-family="Helvetica,sans-Serif" font-size="10.00" fill="grey">fileName</text>
</g>
<!-- Node3&#45;&gt;Node2 -->
<g id="edge2_Node000002_Node000003" class="edge">
<title>Node3&#45;&gt;Node2</title>
<g id="a_edge2_Node000002_Node000003"><a xlink:title=" ">
<path fill="none" stroke="#9a32cd" stroke-dasharray="5,2" d="M216.13,-88.81C265.51,-88.81 348.6,-88.81 407.94,-88.81"/>
<polygon fill="#9a32cd" stroke="#9a32cd" points="216.12,-85.31 206.12,-88.81 216.12,-92.31 216.12,-85.31"/>
</a>
</g>
<text text-anchor="start" x="238" y="-244.31" font-family="Helvetica,sans-Serif" font-size="10.00" fill="grey">aHistName</text>
<text text-anchor="start" x="238" y="-229.31" font-family="Helvetica,sans-Serif" font-size="10.00" fill="grey">axisBoundaryTypeHistName</text>
<text text-anchor="start" x="238" y="-214.31" font-family="Helvetica,sans-Serif" font-size="10.00" fill="grey">axisDirHistName</text>
<text text-anchor="start" x="238" y="-199.31" font-family="Helvetica,sans-Serif" font-size="10.00" fill="grey">indexHistName</text>
<text text-anchor="start" x="238" y="-184.31" font-family="Helvetica,sans-Serif" font-size="10.00" fill="grey">l0HistName</text>
<text text-anchor="start" x="238" y="-169.31" font-family="Helvetica,sans-Serif" font-size="10.00" fill="grey">layerPrefix</text>
<text text-anchor="start" x="238" y="-154.31" font-family="Helvetica,sans-Serif" font-size="10.00" fill="grey">maxRangeHistName</text>
<text text-anchor="start" x="238" y="-139.31" font-family="Helvetica,sans-Serif" font-size="10.00" fill="grey">minRangeHistName</text>
<text text-anchor="start" x="238" y="-124.31" font-family="Helvetica,sans-Serif" font-size="10.00" fill="grey">nBinsHistName</text>
<text text-anchor="start" x="238" y="-109.31" font-family="Helvetica,sans-Serif" font-size="10.00" fill="grey">passivePrefix</text>
<text text-anchor="start" x="238" y="-94.31" font-family="Helvetica,sans-Serif" font-size="10.00" fill="grey"> &#160;...</text>
</g>
<!-- Node5 -->
<g id="Node000005" class="node">
<title>Node5</title>
<g id="a_Node000005"><a xlink:href="struct_acts_plugins_1_1_root_material_map_io_1_1_options.html" target="_top" xlink:title="Options for writing the material maps Folder names are optional as it allows to write more maps into ...">
<polygon fill="white" stroke="#666666" points="550,-37.81 408,-37.81 408,-7.81 550,-7.81 550,-37.81"/>
<text text-anchor="start" x="416" y="-25.81" font-family="Helvetica,sans-Serif" font-size="10.00">ActsPlugins::RootMaterial</text>
<text text-anchor="middle" x="479" y="-14.81" font-family="Helvetica,sans-Serif" font-size="10.00">MapIo::Options</text>
</a>
</g>
</g>
<!-- Node3&#45;&gt;Node5 -->
<g id="edge5_Node000005_Node000003" class="edge">
<title>Node3&#45;&gt;Node5</title>
<g id="a_edge5_Node000005_Node000003"><a xlink:title=" ">
<path fill="none" stroke="#9a32cd" stroke-dasharray="5,2" d="M182.9,-69.47C190.92,-53.69 204.66,-32.48 224,-22.81 283.56,6.97 361.23,1.62 414.92,-7.78"/>
<polygon fill="#9a32cd" stroke="#9a32cd" points="179.56,-68.35 178.45,-78.88 185.89,-71.34 179.56,-68.35"/>
</a>
</g>
<text text-anchor="start" x="227" y="-73.81" font-family="Helvetica,sans-Serif" font-size="10.00" fill="grey">folderSurfaceNameBase</text>
<text text-anchor="start" x="227" y="-58.81" font-family="Helvetica,sans-Serif" font-size="10.00" fill="grey">folderVolumeNameBase</text>
<text text-anchor="start" x="227" y="-43.81" font-family="Helvetica,sans-Serif" font-size="10.00" fill="grey">homogeneousMaterialTreeName</text>
<text text-anchor="start" x="227" y="-28.81" font-family="Helvetica,sans-Serif" font-size="10.00" fill="grey">indexedMaterialTreeName</text>
</g>
<!-- Node4 -->
<g id="Node000004" class="node">
<title>Node4</title>
<g id="a_Node000004"><a xlink:title=" ">
<polygon fill="white" stroke="#666666" points="104,-103.81 0,-103.81 0,-73.81 104,-73.81 104,-103.81"/>
<text text-anchor="start" x="8" y="-91.81" font-family="Helvetica,sans-Serif" font-size="10.00">std::basic_string&lt;</text>
<text text-anchor="middle" x="52" y="-80.81" font-family="Helvetica,sans-Serif" font-size="10.00"> Char &gt;</text>
</a>
</g>
</g>
<!-- Node4&#45;&gt;Node3 -->
<g id="edge3_Node000003_Node000004" class="edge">
<title>Node4&#45;&gt;Node3</title>
<g id="a_edge3_Node000003_Node000004"><a xlink:title=" ">
<path fill="none" stroke="#63b8ff" d="M114.1,-88.81C123.41,-88.81 132.68,-88.81 141,-88.81"/>
<polygon fill="#63b8ff" stroke="#63b8ff" points="114.03,-85.31 104.03,-88.81 114.03,-92.31 114.03,-85.31"/>
</a>
</g>
</g>
<!-- Node5&#45;&gt;Node1 -->
<g id="edge4_Node000001_Node000005" class="edge">
<title>Node5&#45;&gt;Node1</title>
<g id="a_edge4_Node000001_Node000005"><a xlink:title=" ">
<path fill="none" stroke="#9a32cd" stroke-dasharray="5,2" d="M549.75,-40.32C591.18,-50.71 643.17,-63.76 682.8,-73.7"/>
<polygon fill="#9a32cd" stroke="#9a32cd" points="550.56,-36.91 540.01,-37.87 548.86,-43.7 550.56,-36.91"/>
</a>
</g>
<text text-anchor="start" x="571.5" y="-71.31" font-family="Helvetica,sans-Serif" font-size="10.00" fill="grey">accessorOptions</text>
</g>
</g>
</svg>
