<?xml version="1.0" encoding="UTF-8" standalone="no"?>
<!DOCTYPE svg PUBLIC "-//W3C//DTD SVG 1.1//EN"
 "http://www.w3.org/Graphics/SVG/1.1/DTD/svg11.dtd">
<!-- Generated by graphviz version 2.43.0 (0)
 -->
<!-- Title: Acts::Result&lt; T, E &gt; Pages: 1 -->
<svg width="513pt" height="152pt"
 viewBox="0.00 0.00 513.00 151.50" xmlns="http://www.w3.org/2000/svg" xmlns:xlink="http://www.w3.org/1999/xlink">
<g id="graph0" class="graph" transform="scale(1 1) rotate(0) translate(4 147.5)">
<title>Acts::Result&lt; T, E &gt;</title>
<!-- Node1 -->
<g id="Node000001" class="node">
<title>Node1</title>
<g id="a_Node000001"><a xlink:title="Class which encapsulates either a valid result, or an error.">
<polygon fill="#999999" stroke="#666666" points="115,-67 0,-67 0,-48 115,-48 115,-67"/>
<text text-anchor="middle" x="57.5" y="-55" font-family="Helvetica,sans-Serif" font-size="10.00">Acts::Result&lt; T, E &gt;</text>
</a>
</g>
</g>
<!-- Node2 -->
<g id="Node000002" class="node">
<title>Node2</title>
<g id="a_Node000002"><a xlink:href="class_acts_1_1_result.html" target="_top" xlink:title=" ">
<polygon fill="white" stroke="#666666" points="505,-127.5 309,-127.5 309,-97.5 505,-97.5 505,-127.5"/>
<text text-anchor="start" x="317" y="-115.5" font-family="Helvetica,sans-Serif" font-size="10.00">Acts::Result&lt; CkfTypes</text>
<text text-anchor="middle" x="407" y="-104.5" font-family="Helvetica,sans-Serif" font-size="10.00">::BranchVector&lt; TrackIndexType &gt; &gt;</text>
</a>
</g>
</g>
<!-- Node1&#45;&gt;Node2 -->
<g id="edge1_Node000001_Node000002" class="edge">
<title>Node1&#45;&gt;Node2</title>
<g id="a_edge1_Node000001_Node000002"><a xlink:title=" ">
<path fill="none" stroke="orange" stroke-dasharray="5,2" d="M84.66,-71.69C98.61,-78.57 116.29,-86.26 133,-90.5 190.15,-105.01 255.98,-110.63 308.68,-112.56"/>
<polygon fill="orange" stroke="orange" points="86.16,-68.53 75.66,-67.1 82.98,-74.76 86.16,-68.53"/>
</a>
</g>
<text text-anchor="start" x="149" y="-132.5" font-family="Helvetica,sans-Serif" font-size="10.00" fill="grey">&lt; CkfTypes::BranchVector</text>
<text text-anchor="start" x="149" y="-117.5" font-family="Helvetica,sans-Serif" font-size="10.00" fill="grey">  &lt; TrackIndexType &gt; &gt;</text>
</g>
<!-- Node3 -->
<g id="Node000003" class="node">
<title>Node3</title>
<g id="a_Node000003"><a xlink:title=" ">
<polygon fill="white" stroke="#666666" points="475,-78 339,-78 339,-37 475,-37 475,-78"/>
<text text-anchor="start" x="347" y="-66" font-family="Helvetica,sans-Serif" font-size="10.00">Acts::Result&lt; std::</text>
<text text-anchor="start" x="347" y="-55" font-family="Helvetica,sans-Serif" font-size="10.00">pair&lt; ParametersVector,</text>
<text text-anchor="middle" x="407" y="-44" font-family="Helvetica,sans-Serif" font-size="10.00"> CovarianceMatrix &gt; &gt;</text>
</a>
</g>
</g>
<!-- Node1&#45;&gt;Node3 -->
<g id="edge2_Node000001_Node000003" class="edge">
<title>Node1&#45;&gt;Node3</title>
<g id="a_edge2_Node000001_Node000003"><a xlink:title=" ">
<path fill="none" stroke="orange" stroke-dasharray="5,2" d="M125.45,-57.5C186.82,-57.5 277.22,-57.5 338.7,-57.5"/>
<polygon fill="orange" stroke="orange" points="125.11,-54 115.11,-57.5 125.11,-61 125.11,-54"/>
</a>
</g>
<text text-anchor="start" x="136" y="-78.5" font-family="Helvetica,sans-Serif" font-size="10.00" fill="grey">&lt; std::pair&lt; ParametersVector,</text>
<text text-anchor="start" x="136" y="-63.5" font-family="Helvetica,sans-Serif" font-size="10.00" fill="grey">   CovarianceMatrix &gt; &gt;</text>
</g>
<!-- Node4 -->
<g id="Node000004" class="node">
<title>Node4</title>
<g id="a_Node000004"><a xlink:href="class_acts_1_1_result_3_01void_00_01_e_01_4.html" target="_top" xlink:title="Template specialization for the void case.">
<polygon fill="white" stroke="#666666" points="472,-19 342,-19 342,0 472,0 472,-19"/>
<text text-anchor="middle" x="407" y="-7" font-family="Helvetica,sans-Serif" font-size="10.00">Acts::Result&lt; void, E &gt;</text>
</a>
</g>
</g>
<!-- Node1&#45;&gt;Node4 -->
<g id="edge3_Node000001_Node000004" class="edge">
<title>Node1&#45;&gt;Node4</title>
<g id="a_edge3_Node000001_Node000004"><a xlink:title=" ">
<path fill="none" stroke="orange" stroke-dasharray="5,2" d="M97.56,-45.09C108.9,-41.87 121.36,-38.7 133,-36.5 203.78,-23.13 286.22,-16.13 341.84,-12.65"/>
<polygon fill="orange" stroke="orange" points="96.56,-41.74 87.94,-47.91 98.52,-48.46 96.56,-41.74"/>
</a>
</g>
<text text-anchor="start" x="184" y="-42" font-family="Helvetica,sans-Serif" font-size="10.00" fill="grey">&lt; void, E &gt;</text>
</g>
</g>
</svg>
