<?xml version="1.0" encoding="UTF-8" standalone="no"?>
<!DOCTYPE svg PUBLIC "-//W3C//DTD SVG 1.1//EN"
 "http://www.w3.org/Graphics/SVG/1.1/DTD/svg11.dtd">
<!-- Generated by graphviz version 2.43.0 (0)
 -->
<!-- Title: Acts::TypeDispatcher&lt; base_t, signature_t &gt; Pages: 1 -->
<svg width="664pt" height="313pt"
 viewBox="0.00 0.00 664.00 313.31" xmlns="http://www.w3.org/2000/svg" xmlns:xlink="http://www.w3.org/1999/xlink">
<g id="graph0" class="graph" transform="scale(1 1) rotate(0) translate(4 309.31)">
<title>Acts::TypeDispatcher&lt; base_t, signature_t &gt;</title>
<!-- Node1 -->
<g id="Node000001" class="node">
<title>Node1</title>
<g id="a_Node000001"><a xlink:title="Template class for type&#45;based function dispatch.">
<polygon fill="#999999" stroke="#666666" points="132,-164.31 0,-164.31 0,-134.31 132,-134.31 132,-164.31"/>
<text text-anchor="start" x="8" y="-152.31" font-family="Helvetica,sans-Serif" font-size="10.00">Acts::TypeDispatcher</text>
<text text-anchor="middle" x="66" y="-141.31" font-family="Helvetica,sans-Serif" font-size="10.00">&lt; base_t, signature_t &gt;</text>
</a>
</g>
</g>
<!-- Node2 -->
<g id="Node000002" class="node">
<title>Node2</title>
<g id="a_Node000002"><a xlink:href="class_acts_1_1_type_dispatcher.html" target="_top" xlink:title=" ">
<polygon fill="white" stroke="#666666" points="603,-278.81 463,-278.81 463,-237.81 603,-237.81 603,-278.81"/>
<text text-anchor="start" x="471" y="-266.81" font-family="Helvetica,sans-Serif" font-size="10.00">Acts::TypeDispatcher</text>
<text text-anchor="start" x="471" y="-255.81" font-family="Helvetica,sans-Serif" font-size="10.00">&lt; base_type, return_type</text>
<text text-anchor="middle" x="533" y="-244.81" font-family="Helvetica,sans-Serif" font-size="10.00">(args_t...)&gt;</text>
</a>
</g>
</g>
<!-- Node1&#45;&gt;Node2 -->
<g id="edge1_Node000001_Node000002" class="edge">
<title>Node1&#45;&gt;Node2</title>
<g id="a_edge1_Node000001_Node000002"><a xlink:title=" ">
<path fill="none" stroke="orange" stroke-dasharray="5,2" d="M82.15,-172.95C96.78,-193.47 120.94,-221.93 150,-235.31 251.08,-281.87 383.42,-277.35 462.85,-268.66"/>
<polygon fill="orange" stroke="orange" points="84.85,-170.7 76.3,-164.44 79.08,-174.66 84.85,-170.7"/>
</a>
</g>
<text text-anchor="start" x="223" y="-294.31" font-family="Helvetica,sans-Serif" font-size="10.00" fill="grey">&lt; base_type, return</text>
<text text-anchor="start" x="223" y="-279.31" font-family="Helvetica,sans-Serif" font-size="10.00" fill="grey">  _type(args_t...)&gt;</text>
</g>
<!-- Node3 -->
<g id="Node000003" class="node">
<title>Node3</title>
<g id="a_Node000003"><a xlink:href="class_acts_1_1_type_dispatcher_3_01base__t_00_01return__t_07args__t_8_8_8_08_4.html" target="_top" xlink:title=" ">
<polygon fill="white" stroke="#666666" points="597.5,-219.81 468.5,-219.81 468.5,-178.81 597.5,-178.81 597.5,-219.81"/>
<text text-anchor="start" x="476.5" y="-207.81" font-family="Helvetica,sans-Serif" font-size="10.00">Acts::TypeDispatcher</text>
<text text-anchor="start" x="476.5" y="-196.81" font-family="Helvetica,sans-Serif" font-size="10.00">&lt; base_t, return_t(args</text>
<text text-anchor="middle" x="533" y="-185.81" font-family="Helvetica,sans-Serif" font-size="10.00">_t...)&gt;</text>
</a>
</g>
</g>
<!-- Node1&#45;&gt;Node3 -->
<g id="edge2_Node000001_Node000003" class="edge">
<title>Node1&#45;&gt;Node3</title>
<g id="a_edge2_Node000001_Node000003"><a xlink:title=" ">
<path fill="none" stroke="orange" stroke-dasharray="5,2" d="M113.95,-167.58C125.57,-171.42 138.1,-175.01 150,-177.31 260.54,-198.74 392.17,-201.44 468.5,-200.81"/>
<polygon fill="orange" stroke="orange" points="115.03,-164.25 104.44,-164.32 112.76,-170.87 115.03,-164.25"/>
</a>
</g>
<text text-anchor="start" x="227" y="-220.31" font-family="Helvetica,sans-Serif" font-size="10.00" fill="grey">&lt; base_t, return_t</text>
<text text-anchor="start" x="227" y="-205.31" font-family="Helvetica,sans-Serif" font-size="10.00" fill="grey">  (args_t...)&gt;</text>
</g>
<!-- Node4 -->
<g id="Node000004" class="node">
<title>Node4</title>
<g id="a_Node000004"><a xlink:title=" ">
<polygon fill="white" stroke="#666666" points="656,-136.31 410,-136.31 410,-62.31 656,-62.31 656,-136.31"/>
<text text-anchor="start" x="418" y="-124.31" font-family="Helvetica,sans-Serif" font-size="10.00">Acts::TypeDispatcher</text>
<text text-anchor="start" x="418" y="-113.31" font-family="Helvetica,sans-Serif" font-size="10.00">&lt; Acts::INavigationPolicy,</text>
<text text-anchor="start" x="418" y="-102.31" font-family="Helvetica,sans-Serif" font-size="10.00"> std::optional&lt; DetraySurfaceGrid</text>
<text text-anchor="start" x="418" y="-91.31" font-family="Helvetica,sans-Serif" font-size="10.00"> &gt;(const Acts::GeometryContext</text>
<text text-anchor="start" x="418" y="-80.31" font-family="Helvetica,sans-Serif" font-size="10.00"> &amp;gctx, const SurfaceLookupFunction</text>
<text text-anchor="middle" x="533" y="-69.31" font-family="Helvetica,sans-Serif" font-size="10.00"> &amp;surfaceLookup, const Acts::Logger &amp;logger)&gt;</text>
</a>
</g>
</g>
<!-- Node1&#45;&gt;Node4 -->
<g id="edge3_Node000001_Node000004" class="edge">
<title>Node1&#45;&gt;Node4</title>
<g id="a_edge3_Node000001_Node000004"><a xlink:title=" ">
<path fill="none" stroke="orange" stroke-dasharray="5,2" d="M92.04,-127.95C107.62,-116.1 128.68,-102.54 150,-96.31 234.35,-71.68 333.72,-73.35 409.96,-80.69"/>
<polygon fill="orange" stroke="orange" points="89.68,-125.35 83.99,-134.29 94.01,-130.85 89.68,-125.35"/>
</a>
</g>
<text text-anchor="start" x="153" y="-161.81" font-family="Helvetica,sans-Serif" font-size="10.00" fill="grey">&lt; Acts::INavigationPolicy,</text>
<text text-anchor="start" x="153" y="-146.81" font-family="Helvetica,sans-Serif" font-size="10.00" fill="grey">   std::optional&lt; DetraySurfaceGrid</text>
<text text-anchor="start" x="153" y="-131.81" font-family="Helvetica,sans-Serif" font-size="10.00" fill="grey">   &gt;(const Acts::GeometryContext</text>
<text text-anchor="start" x="153" y="-116.81" font-family="Helvetica,sans-Serif" font-size="10.00" fill="grey">   &amp;gctx, const SurfaceLookupFunction</text>
<text text-anchor="start" x="153" y="-101.81" font-family="Helvetica,sans-Serif" font-size="10.00" fill="grey">   &amp;surfaceLookup, const Acts::Logger &amp;logger)&gt;</text>
</g>
<!-- Node5 -->
<g id="Node000005" class="node">
<title>Node5</title>
<g id="a_Node000005"><a xlink:title=" ">
<polygon fill="white" stroke="#666666" points="647.5,-43.81 418.5,-43.81 418.5,-2.81 647.5,-2.81 647.5,-43.81"/>
<text text-anchor="start" x="426.5" y="-31.81" font-family="Helvetica,sans-Serif" font-size="10.00">Acts::TypeDispatcher</text>
<text text-anchor="start" x="426.5" y="-20.81" font-family="Helvetica,sans-Serif" font-size="10.00">&lt; Acts::ISurfaceMaterial,</text>
<text text-anchor="middle" x="533" y="-9.81" font-family="Helvetica,sans-Serif" font-size="10.00"> std::optional&lt; DetraySurfaceMaterial &gt;()&gt;</text>
</a>
</g>
</g>
<!-- Node1&#45;&gt;Node5 -->
<g id="edge4_Node000001_Node000005" class="edge">
<title>Node1&#45;&gt;Node5</title>
<g id="a_edge4_Node000001_Node000005"><a xlink:title=" ">
<path fill="none" stroke="orange" stroke-dasharray="5,2" d="M77.84,-124.65C90.82,-98.5 115.24,-58.51 150,-40.31 232.34,2.79 338.87,3.83 418.5,-4.07"/>
<polygon fill="orange" stroke="orange" points="74.57,-123.39 73.43,-133.92 80.89,-126.4 74.57,-123.39"/>
</a>
</g>
<text text-anchor="start" x="162" y="-61.31" font-family="Helvetica,sans-Serif" font-size="10.00" fill="grey">&lt; Acts::ISurfaceMaterial,</text>
<text text-anchor="start" x="162" y="-46.31" font-family="Helvetica,sans-Serif" font-size="10.00" fill="grey">   std::optional&lt; DetraySurfaceMaterial &gt;()&gt;</text>
</g>
</g>
</svg>
