<?xml version="1.0" encoding="UTF-8" standalone="no"?>
<!DOCTYPE svg PUBLIC "-//W3C//DTD SVG 1.1//EN"
 "http://www.w3.org/Graphics/SVG/1.1/DTD/svg11.dtd">
<!-- Generated by graphviz version 2.43.0 (0)
 -->
<!-- Title: Acts::KDTree&lt; Dims, Type, Scalar, Vector, LeafSize &gt; Pages: 1 -->
<svg width="452pt" height="275pt"
 viewBox="0.00 0.00 452.00 274.50" xmlns="http://www.w3.org/2000/svg" xmlns:xlink="http://www.w3.org/1999/xlink">
<g id="graph0" class="graph" transform="scale(1 1) rotate(0) translate(4 270.5)">
<title>Acts::KDTree&lt; Dims, Type, Scalar, Vector, LeafSize &gt;</title>
<!-- Node1 -->
<g id="Node000001" class="node">
<title>Node1</title>
<g id="a_Node000001"><a xlink:title="A general k&#45;d tree with fast range search.">
<polygon fill="#999999" stroke="#666666" points="118,-138 0,-138 0,-97 118,-97 118,-138"/>
<text text-anchor="start" x="8" y="-126" font-family="Helvetica,sans-Serif" font-size="10.00">Acts::KDTree&lt; Dims,</text>
<text text-anchor="start" x="8" y="-115" font-family="Helvetica,sans-Serif" font-size="10.00"> Type, Scalar, Vector,</text>
<text text-anchor="middle" x="59" y="-104" font-family="Helvetica,sans-Serif" font-size="10.00"> LeafSize &gt;</text>
</a>
</g>
</g>
<!-- Node2 -->
<g id="Node000002" class="node">
<title>Node2</title>
<g id="a_Node000002"><a xlink:title=" ">
<polygon fill="white" stroke="#666666" points="439.5,-243.5 299.5,-243.5 299.5,-191.5 439.5,-191.5 439.5,-243.5"/>
<text text-anchor="start" x="307.5" y="-231.5" font-family="Helvetica,sans-Serif" font-size="10.00">Acts::KDTree&lt; kDIM,</text>
<text text-anchor="start" x="307.5" y="-220.5" font-family="Helvetica,sans-Serif" font-size="10.00"> std::shared_ptr&lt; Surface</text>
<text text-anchor="start" x="307.5" y="-209.5" font-family="Helvetica,sans-Serif" font-size="10.00"> &gt;, double, std::array,</text>
<text text-anchor="middle" x="369.5" y="-198.5" font-family="Helvetica,sans-Serif" font-size="10.00"> bSize &gt;</text>
</a>
</g>
</g>
<!-- Node1&#45;&gt;Node2 -->
<g id="edge1_Node000001_Node000002" class="edge">
<title>Node1&#45;&gt;Node2</title>
<g id="a_edge1_Node000001_Node000002"><a xlink:title=" ">
<path fill="none" stroke="orange" stroke-dasharray="5,2" d="M82.02,-145.87C95.77,-161.44 114.85,-179.56 136,-189.5 187.15,-213.53 251.3,-219.72 299.25,-220.36"/>
<polygon fill="orange" stroke="orange" points="84.48,-143.36 75.33,-138.01 79.15,-147.9 84.48,-143.36"/>
</a>
</g>
<text text-anchor="start" x="143.5" y="-255" font-family="Helvetica,sans-Serif" font-size="10.00" fill="grey">&lt; kDIM, std::shared</text>
<text text-anchor="start" x="143.5" y="-240" font-family="Helvetica,sans-Serif" font-size="10.00" fill="grey">  _ptr&lt; Surface &gt;, double,</text>
<text text-anchor="start" x="143.5" y="-225" font-family="Helvetica,sans-Serif" font-size="10.00" fill="grey">   std::array, bSize &gt;</text>
</g>
<!-- Node3 -->
<g id="Node000003" class="node">
<title>Node3</title>
<g id="a_Node000003"><a xlink:title=" ">
<polygon fill="white" stroke="#666666" points="444,-169 295,-169 295,-128 444,-128 444,-169"/>
<text text-anchor="start" x="303" y="-157" font-family="Helvetica,sans-Serif" font-size="10.00">Acts::KDTree&lt; NDims,</text>
<text text-anchor="start" x="303" y="-146" font-family="Helvetica,sans-Serif" font-size="10.00"> const external_spacepoint</text>
<text text-anchor="middle" x="369.5" y="-135" font-family="Helvetica,sans-Serif" font-size="10.00">_t *, double, std::array, 4 &gt;</text>
</a>
</g>
</g>
<!-- Node1&#45;&gt;Node3 -->
<g id="edge2_Node000001_Node000003" class="edge">
<title>Node1&#45;&gt;Node3</title>
<g id="a_edge2_Node000001_Node000003"><a xlink:title=" ">
<path fill="none" stroke="orange" stroke-dasharray="5,2" d="M128.26,-124.71C130.87,-124.97 133.46,-125.24 136,-125.5 189.16,-130.93 249.19,-136.86 294.93,-141.34"/>
<polygon fill="orange" stroke="orange" points="128.4,-121.2 118.09,-123.65 127.67,-128.16 128.4,-121.2"/>
</a>
</g>
<text text-anchor="start" x="144.5" y="-174" font-family="Helvetica,sans-Serif" font-size="10.00" fill="grey">&lt; NDims, const external</text>
<text text-anchor="start" x="144.5" y="-159" font-family="Helvetica,sans-Serif" font-size="10.00" fill="grey">  _spacepoint_t *, double,</text>
<text text-anchor="start" x="144.5" y="-144" font-family="Helvetica,sans-Serif" font-size="10.00" fill="grey">   std::array, 4 &gt;</text>
</g>
<!-- Node4 -->
<g id="Node000004" class="node">
<title>Node4</title>
<g id="a_Node000004"><a xlink:title=" ">
<polygon fill="white" stroke="#666666" points="435,-110 304,-110 304,-69 435,-69 435,-110"/>
<text text-anchor="start" x="312" y="-98" font-family="Helvetica,sans-Serif" font-size="10.00">Acts::KDTree&lt; NDims,</text>
<text text-anchor="start" x="312" y="-87" font-family="Helvetica,sans-Serif" font-size="10.00"> SpacePointIndex, float,</text>
<text text-anchor="middle" x="369.5" y="-76" font-family="Helvetica,sans-Serif" font-size="10.00"> std::array, 4 &gt;</text>
</a>
</g>
</g>
<!-- Node1&#45;&gt;Node4 -->
<g id="edge3_Node000001_Node000004" class="edge">
<title>Node1&#45;&gt;Node4</title>
<g id="a_edge3_Node000001_Node000004"><a xlink:title=" ">
<path fill="none" stroke="orange" stroke-dasharray="5,2" d="M127.93,-95.01C130.64,-94.44 133.34,-93.93 136,-93.5 192.18,-84.34 257.01,-84.06 303.91,-85.65"/>
<polygon fill="orange" stroke="orange" points="127.04,-91.62 118.09,-97.29 128.62,-98.44 127.04,-91.62"/>
</a>
</g>
<text text-anchor="start" x="139.5" y="-114.5" font-family="Helvetica,sans-Serif" font-size="10.00" fill="grey">&lt; NDims, SpacePointIndex,</text>
<text text-anchor="start" x="139.5" y="-99.5" font-family="Helvetica,sans-Serif" font-size="10.00" fill="grey">   float, std::array, 4 &gt;</text>
</g>
<!-- Node5 -->
<g id="Node000005" class="node">
<title>Node5</title>
<g id="a_Node000005"><a xlink:title=" ">
<polygon fill="white" stroke="#666666" points="441,-41 298,-41 298,0 441,0 441,-41"/>
<text text-anchor="start" x="306" y="-29" font-family="Helvetica,sans-Serif" font-size="10.00">Acts::KDTree&lt; kDims,</text>
<text text-anchor="start" x="306" y="-18" font-family="Helvetica,sans-Serif" font-size="10.00"> std::size_t, scalar</text>
<text text-anchor="middle" x="369.5" y="-7" font-family="Helvetica,sans-Serif" font-size="10.00">_t, std::array, kLeafSize &gt;</text>
</a>
</g>
</g>
<!-- Node1&#45;&gt;Node5 -->
<g id="edge4_Node000001_Node000005" class="edge">
<title>Node1&#45;&gt;Node5</title>
<g id="a_edge4_Node000001_Node000005"><a xlink:title=" ">
<path fill="none" stroke="orange" stroke-dasharray="5,2" d="M77.73,-88.18C91.12,-68.95 111.38,-45.26 136,-33.5 186.34,-9.45 249.97,-7.56 297.93,-10.91"/>
<polygon fill="orange" stroke="orange" points="74.72,-86.39 72.07,-96.64 80.54,-90.28 74.72,-86.39"/>
</a>
</g>
<text text-anchor="start" x="149.5" y="-69" font-family="Helvetica,sans-Serif" font-size="10.00" fill="grey">&lt; kDims, std::size</text>
<text text-anchor="start" x="149.5" y="-54" font-family="Helvetica,sans-Serif" font-size="10.00" fill="grey">  _t, scalar_t, std::array,</text>
<text text-anchor="start" x="149.5" y="-39" font-family="Helvetica,sans-Serif" font-size="10.00" fill="grey">   kLeafSize &gt;</text>
</g>
</g>
</svg>
