<?xml version="1.0" encoding="UTF-8" standalone="no"?>
<!DOCTYPE svg PUBLIC "-//W3C//DTD SVG 1.1//EN"
 "http://www.w3.org/Graphics/SVG/1.1/DTD/svg11.dtd">
<!-- Generated by graphviz version 2.43.0 (0)
 -->
<!-- Title: Acts::Experimental::GbtsGeometry Pages: 1 -->
<svg width="677pt" height="205pt"
 viewBox="0.00 0.00 677.00 205.00" xmlns="http://www.w3.org/2000/svg" xmlns:xlink="http://www.w3.org/1999/xlink">
<g id="graph0" class="graph" transform="scale(1 1) rotate(0) translate(4 201)">
<title>Acts::Experimental::GbtsGeometry</title>
<!-- Node1 -->
<g id="Node000001" class="node">
<title>Node1</title>
<g id="a_Node000001"><a xlink:title=" ">
<polygon fill="#999999" stroke="#666666" points="669,-102 560,-102 560,-72 669,-72 669,-102"/>
<text text-anchor="start" x="568" y="-90" font-family="Helvetica,sans-Serif" font-size="10.00">Acts::Experimental</text>
<text text-anchor="middle" x="614.5" y="-79" font-family="Helvetica,sans-Serif" font-size="10.00">::GbtsGeometry</text>
</a>
</g>
</g>
<!-- Node2 -->
<g id="Node000002" class="node">
<title>Node2</title>
<g id="a_Node000002"><a xlink:title=" ">
<polygon fill="white" stroke="#666666" points="440,-185.5 309,-185.5 309,-144.5 440,-144.5 440,-185.5"/>
<text text-anchor="start" x="317" y="-173.5" font-family="Helvetica,sans-Serif" font-size="10.00">std::map&lt; unsigned</text>
<text text-anchor="start" x="317" y="-162.5" font-family="Helvetica,sans-Serif" font-size="10.00"> int, Acts::Experimental</text>
<text text-anchor="middle" x="374.5" y="-151.5" font-family="Helvetica,sans-Serif" font-size="10.00">::GbtsLayer * &gt;</text>
</a>
</g>
</g>
<!-- Node2&#45;&gt;Node1 -->
<g id="edge1_Node000001_Node000002" class="edge">
<title>Node2&#45;&gt;Node1</title>
<g id="a_edge1_Node000001_Node000002"><a xlink:title=" ">
<path fill="none" stroke="#9a32cd" stroke-dasharray="5,2" d="M450.17,-149.13C479.23,-142.07 512.57,-132.88 542,-122 556.91,-116.49 572.85,-108.87 585.89,-102.14"/>
<polygon fill="#9a32cd" stroke="#9a32cd" points="448.99,-145.81 440.08,-151.54 450.62,-152.62 448.99,-145.81"/>
</a>
</g>
<text text-anchor="start" x="480.5" y="-147.5" font-family="Helvetica,sans-Serif" font-size="10.00" fill="grey">m_layMap</text>
</g>
<!-- Node3 -->
<g id="Node000003" class="node">
<title>Node3</title>
<g id="a_Node000003"><a xlink:title=" ">
<polygon fill="white" stroke="#666666" points="101,-174.5 0,-174.5 0,-155.5 101,-155.5 101,-174.5"/>
<text text-anchor="middle" x="50.5" y="-162.5" font-family="Helvetica,sans-Serif" font-size="10.00">std::map&lt; K, T &gt;</text>
</a>
</g>
</g>
<!-- Node3&#45;&gt;Node2 -->
<g id="edge2_Node000002_Node000003" class="edge">
<title>Node3&#45;&gt;Node2</title>
<g id="a_edge2_Node000002_Node000003"><a xlink:title=" ">
<path fill="none" stroke="orange" stroke-dasharray="5,2" d="M111.25,-165C167.38,-165 251.14,-165 308.82,-165"/>
<polygon fill="orange" stroke="orange" points="111.11,-161.5 101.11,-165 111.11,-168.5 111.11,-161.5"/>
</a>
</g>
<text text-anchor="start" x="122.5" y="-186" font-family="Helvetica,sans-Serif" font-size="10.00" fill="grey">&lt; unsigned int, Acts</text>
<text text-anchor="start" x="122.5" y="-171" font-family="Helvetica,sans-Serif" font-size="10.00" fill="grey">  ::Experimental::GbtsLayer * &gt;</text>
</g>
<!-- Node4 -->
<g id="Node000004" class="node">
<title>Node4</title>
<g id="a_Node000004"><a xlink:title=" ">
<polygon fill="white" stroke="#666666" points="453,-126 296,-126 296,-96 453,-96 453,-126"/>
<text text-anchor="start" x="304" y="-114" font-family="Helvetica,sans-Serif" font-size="10.00">std::vector&lt; Acts::</text>
<text text-anchor="middle" x="374.5" y="-103" font-family="Helvetica,sans-Serif" font-size="10.00">Experimental::GbtsLayer * &gt;</text>
</a>
</g>
</g>
<!-- Node4&#45;&gt;Node1 -->
<g id="edge3_Node000001_Node000004" class="edge">
<title>Node4&#45;&gt;Node1</title>
<g id="a_edge3_Node000001_Node000004"><a xlink:title=" ">
<path fill="none" stroke="#9a32cd" stroke-dasharray="5,2" d="M463.46,-102.13C495.75,-98.87 531.31,-95.29 559.71,-92.42"/>
<polygon fill="#9a32cd" stroke="#9a32cd" points="462.7,-98.69 453.1,-103.17 463.4,-105.65 462.7,-98.69"/>
</a>
</g>
<text text-anchor="start" x="478.5" y="-106.5" font-family="Helvetica,sans-Serif" font-size="10.00" fill="grey">m_layArray</text>
</g>
<!-- Node5 -->
<g id="Node000005" class="node">
<title>Node5</title>
<g id="a_Node000005"><a xlink:title=" ">
<polygon fill="white" stroke="#666666" points="99,-79.5 2,-79.5 2,-60.5 99,-60.5 99,-79.5"/>
<text text-anchor="middle" x="50.5" y="-67.5" font-family="Helvetica,sans-Serif" font-size="10.00">std::vector&lt; T &gt;</text>
</a>
</g>
</g>
<!-- Node5&#45;&gt;Node4 -->
<g id="edge4_Node000004_Node000005" class="edge">
<title>Node5&#45;&gt;Node4</title>
<g id="a_edge4_Node000004_Node000005"><a xlink:title=" ">
<path fill="none" stroke="orange" stroke-dasharray="5,2" d="M92.7,-82.18C101.33,-84.39 110.42,-86.48 119,-88 177.86,-98.43 245.27,-104.25 295.92,-107.43"/>
<polygon fill="orange" stroke="orange" points="93.41,-78.75 82.84,-79.55 91.6,-85.51 93.41,-78.75"/>
</a>
</g>
<text text-anchor="start" x="146.5" y="-127" font-family="Helvetica,sans-Serif" font-size="10.00" fill="grey">&lt; Acts::Experimental</text>
<text text-anchor="start" x="146.5" y="-112" font-family="Helvetica,sans-Serif" font-size="10.00" fill="grey">  ::GbtsLayer * &gt;</text>
</g>
<!-- Node6 -->
<g id="Node000006" class="node">
<title>Node6</title>
<g id="a_Node000006"><a xlink:title=" ">
<polygon fill="white" stroke="#666666" points="436.5,-78 312.5,-78 312.5,-48 436.5,-48 436.5,-78"/>
<text text-anchor="start" x="320.5" y="-66" font-family="Helvetica,sans-Serif" font-size="10.00">std::vector&lt; unsigned</text>
<text text-anchor="middle" x="374.5" y="-55" font-family="Helvetica,sans-Serif" font-size="10.00"> int &gt;</text>
</a>
</g>
</g>
<!-- Node5&#45;&gt;Node6 -->
<g id="edge6_Node000006_Node000005" class="edge">
<title>Node5&#45;&gt;Node6</title>
<g id="a_edge6_Node000006_Node000005"><a xlink:title=" ">
<path fill="none" stroke="orange" stroke-dasharray="5,2" d="M109.34,-68.74C166.59,-67.5 253.9,-65.6 312.29,-64.33"/>
<polygon fill="orange" stroke="orange" points="108.93,-65.25 99.01,-68.97 109.09,-72.25 108.93,-65.25"/>
</a>
</g>
<text text-anchor="start" x="157.5" y="-73.5" font-family="Helvetica,sans-Serif" font-size="10.00" fill="grey">&lt; unsigned int &gt;</text>
</g>
<!-- Node7 -->
<g id="Node000007" class="node">
<title>Node7</title>
<g id="a_Node000007"><a xlink:title=" ">
<polygon fill="white" stroke="#666666" points="452.5,-30 296.5,-30 296.5,0 452.5,0 452.5,-30"/>
<text text-anchor="start" x="304.5" y="-18" font-family="Helvetica,sans-Serif" font-size="10.00">std::vector&lt; std::pair</text>
<text text-anchor="middle" x="374.5" y="-7" font-family="Helvetica,sans-Serif" font-size="10.00">&lt; int, std::vector&lt; int &gt; &gt; &gt;</text>
</a>
</g>
</g>
<!-- Node5&#45;&gt;Node7 -->
<g id="edge8_Node000007_Node000005" class="edge">
<title>Node5&#45;&gt;Node7</title>
<g id="a_edge8_Node000007_Node000005"><a xlink:title=" ">
<path fill="none" stroke="orange" stroke-dasharray="5,2" d="M71.14,-54.49C83.98,-45.29 101.55,-34.41 119,-29 176.59,-11.16 244.97,-8.34 296.34,-9.61"/>
<polygon fill="orange" stroke="orange" points="69,-51.72 63.06,-60.5 73.18,-57.33 69,-51.72"/>
</a>
</g>
<text text-anchor="start" x="148.5" y="-50" font-family="Helvetica,sans-Serif" font-size="10.00" fill="grey">&lt; std::pair&lt; int, std</text>
<text text-anchor="start" x="148.5" y="-35" font-family="Helvetica,sans-Serif" font-size="10.00" fill="grey">  ::vector&lt; int &gt; &gt; &gt;</text>
</g>
<!-- Node6&#45;&gt;Node1 -->
<g id="edge5_Node000001_Node000006" class="edge">
<title>Node6&#45;&gt;Node1</title>
<g id="a_edge5_Node000001_Node000006"><a xlink:title=" ">
<path fill="none" stroke="#9a32cd" stroke-dasharray="5,2" d="M446.8,-65.19C476.34,-66.64 510.91,-69.04 542,-73 547.77,-73.74 553.78,-74.66 559.75,-75.68"/>
<polygon fill="#9a32cd" stroke="#9a32cd" points="446.73,-61.68 436.57,-64.72 446.4,-68.68 446.73,-61.68"/>
</a>
</g>
<text text-anchor="start" x="474.5" y="-78.5" font-family="Helvetica,sans-Serif" font-size="10.00" fill="grey">m_layerKeys</text>
</g>
<!-- Node7&#45;&gt;Node1 -->
<g id="edge7_Node000001_Node000007" class="edge">
<title>Node7&#45;&gt;Node1</title>
<g id="a_edge7_Node000001_Node000007"><a xlink:title=" ">
<path fill="none" stroke="#9a32cd" stroke-dasharray="5,2" d="M463.04,-24.83C488.97,-29.32 517.08,-35.77 542,-45 559.96,-51.65 578.55,-62.73 592.28,-71.84"/>
<polygon fill="#9a32cd" stroke="#9a32cd" points="463.28,-21.32 452.85,-23.15 462.14,-28.23 463.28,-21.32"/>
</a>
</g>
<text text-anchor="start" x="474.5" y="-50.5" font-family="Helvetica,sans-Serif" font-size="10.00" fill="grey">m_binGroups</text>
</g>
</g>
</svg>
