<?xml version="1.0" encoding="UTF-8" standalone="no"?>
<!DOCTYPE svg PUBLIC "-//W3C//DTD SVG 1.1//EN"
 "http://www.w3.org/Graphics/SVG/1.1/DTD/svg11.dtd">
<!-- Generated by graphviz version 2.43.0 (0)
 -->
<!-- Title: Acts::VariableSubspaceHelper&lt; FullSize, index_t &gt; Pages: 1 -->
<svg width="1008pt" height="81pt"
 viewBox="0.00 0.00 1008.00 81.00" xmlns="http://www.w3.org/2000/svg" xmlns:xlink="http://www.w3.org/1999/xlink">
<g id="graph0" class="graph" transform="scale(1 1) rotate(0) translate(4 77)">
<title>Acts::VariableSubspaceHelper&lt; FullSize, index_t &gt;</title>
<!-- Node1 -->
<g id="Node000001" class="node">
<title>Node1</title>
<g id="a_Node000001"><a xlink:title="Helper class for variable subspace operations.">
<polygon fill="#999999" stroke="#666666" points="697,-41 535,-41 535,-11 697,-11 697,-41"/>
<text text-anchor="start" x="543" y="-29" font-family="Helvetica,sans-Serif" font-size="10.00">Acts::VariableSubspaceHelper</text>
<text text-anchor="middle" x="616" y="-18" font-family="Helvetica,sans-Serif" font-size="10.00">&lt; FullSize, index_t &gt;</text>
</a>
</g>
</g>
<!-- Node4 -->
<g id="Node000004" class="node">
<title>Node4</title>
<g id="a_Node000004"><a xlink:title=" ">
<polygon fill="white" stroke="#666666" points="1000,-46.5 838,-46.5 838,-5.5 1000,-5.5 1000,-46.5"/>
<text text-anchor="start" x="846" y="-34.5" font-family="Helvetica,sans-Serif" font-size="10.00">Acts::VariableSubspaceHelper</text>
<text text-anchor="start" x="846" y="-23.5" font-family="Helvetica,sans-Serif" font-size="10.00">&lt; Acts::eBoundSize, std::</text>
<text text-anchor="middle" x="919" y="-12.5" font-family="Helvetica,sans-Serif" font-size="10.00">uint8_t &gt;</text>
</a>
</g>
</g>
<!-- Node1&#45;&gt;Node4 -->
<g id="edge3_Node000001_Node000004" class="edge">
<title>Node1&#45;&gt;Node4</title>
<g id="a_edge3_Node000001_Node000004"><a xlink:title=" ">
<path fill="none" stroke="orange" stroke-dasharray="5,2" d="M707.38,-26C748.92,-26 797.77,-26 837.96,-26"/>
<polygon fill="orange" stroke="orange" points="707.27,-22.5 697.27,-26 707.27,-29.5 707.27,-22.5"/>
</a>
</g>
<text text-anchor="start" x="718.5" y="-47" font-family="Helvetica,sans-Serif" font-size="10.00" fill="grey">&lt; Acts::eBoundSize,</text>
<text text-anchor="start" x="718.5" y="-32" font-family="Helvetica,sans-Serif" font-size="10.00" fill="grey">   std::uint8_t &gt;</text>
</g>
<!-- Node2 -->
<g id="Node000002" class="node">
<title>Node2</title>
<g id="a_Node000002"><a xlink:title=" ">
<polygon fill="white" stroke="#666666" points="498,-52 328,-52 328,0 498,0 498,-52"/>
<text text-anchor="start" x="336" y="-40" font-family="Helvetica,sans-Serif" font-size="10.00">Acts::detail::SubspaceHelper</text>
<text text-anchor="start" x="336" y="-29" font-family="Helvetica,sans-Serif" font-size="10.00">Base&lt; VariableSubspaceHelper</text>
<text text-anchor="start" x="336" y="-18" font-family="Helvetica,sans-Serif" font-size="10.00">&lt; FullSize, std::uint8_t &gt;,</text>
<text text-anchor="middle" x="413" y="-7" font-family="Helvetica,sans-Serif" font-size="10.00"> FullSize &gt;</text>
</a>
</g>
</g>
<!-- Node2&#45;&gt;Node1 -->
<g id="edge1_Node000001_Node000002" class="edge">
<title>Node2&#45;&gt;Node1</title>
<g id="a_edge1_Node000001_Node000002"><a xlink:title=" ">
<path fill="none" stroke="#63b8ff" d="M508.11,-26C517.03,-26 526.02,-26 534.8,-26"/>
<polygon fill="#63b8ff" stroke="#63b8ff" points="508.08,-22.5 498.08,-26 508.08,-29.5 508.08,-22.5"/>
</a>
</g>
</g>
<!-- Node3 -->
<g id="Node000003" class="node">
<title>Node3</title>
<g id="a_Node000003"><a xlink:title=" ">
<polygon fill="white" stroke="#666666" points="156,-41 0,-41 0,-11 156,-11 156,-41"/>
<text text-anchor="start" x="8" y="-29" font-family="Helvetica,sans-Serif" font-size="10.00">Acts::detail::SubspaceHelper</text>
<text text-anchor="middle" x="78" y="-18" font-family="Helvetica,sans-Serif" font-size="10.00">Base&lt; Derived, FullSize &gt;</text>
</a>
</g>
</g>
<!-- Node3&#45;&gt;Node2 -->
<g id="edge2_Node000002_Node000003" class="edge">
<title>Node3&#45;&gt;Node2</title>
<g id="a_edge2_Node000002_Node000003"><a xlink:title=" ">
<path fill="none" stroke="orange" stroke-dasharray="5,2" d="M166.36,-26C216.27,-26 278.54,-26 327.89,-26"/>
<polygon fill="orange" stroke="orange" points="166.23,-22.5 156.23,-26 166.23,-29.5 166.23,-22.5"/>
</a>
</g>
<text text-anchor="start" x="177" y="-61.5" font-family="Helvetica,sans-Serif" font-size="10.00" fill="grey">&lt; VariableSubspaceHelper</text>
<text text-anchor="start" x="177" y="-46.5" font-family="Helvetica,sans-Serif" font-size="10.00" fill="grey">  &lt; FullSize, std::uint8</text>
<text text-anchor="start" x="177" y="-31.5" font-family="Helvetica,sans-Serif" font-size="10.00" fill="grey">  _t &gt;, FullSize &gt;</text>
</g>
</g>
</svg>
