<?xml version="1.0" encoding="UTF-8" standalone="no"?>
<!DOCTYPE svg PUBLIC "-//W3C//DTD SVG 1.1//EN"
 "http://www.w3.org/Graphics/SVG/1.1/DTD/svg11.dtd">
<!-- Generated by graphviz version 2.43.0 (0)
 -->
<!-- Title: Acts::TrackStateTypeBase&lt; Derived, ReadOnly &gt; Pages: 1 -->
<!--zoomable 157 -->

<svg id="main" version="1.1" xmlns="http://www.w3.org/2000/svg" xmlns:xlink="http://www.w3.org/1999/xlink" xml:space="preserve" onload="init(evt)">

<style type="text/css"><![CDATA[
.node, .edge {opacity: 0.7;}
.node.selected, .edge.selected {opacity: 1;}
.edge:hover path { stroke: red; }
.edge:hover polygon { stroke: red; fill: red; }
]]></style>

<defs>
  <circle id="rim" cx="0" cy="0" r="7"/>
  <circle id="rim2" cx="0" cy="0" r="3.5"/>
  <g id="zoomPlus">
    <use xlink:href="#rim" fill="#404040"><set attributeName="fill" to="#808080" begin="zoomplus.mouseover" end="zoomplus.mouseout"/></use>
    <path d="M-4,0h8M0,-4v8" fill="none" stroke="white" stroke-width="1.5" pointer-events="none"/>
  </g>
  <g id="zoomMin">
    <use xlink:href="#rim" fill="#404040"><set attributeName="fill" to="#808080" begin="zoomminus.mouseover" end="zoomminus.mouseout"/></use>
    <path d="M-4,0h8" fill="none" stroke="white" stroke-width="1.5" pointer-events="none"/>
  </g>
  <g id="arrowUp" transform="translate(30 24)">
    <use xlink:href="#rim"/>
    <path pointer-events="none" fill="none" stroke="white" stroke-width="1.5" d="M0,-3.0v7 M-2.5,-0.5L0,-3.0L2.5,-0.5"/>
  </g>
  <g id="arrowRight" transform="rotate(90) translate(36 -43)">
    <use xlink:href="#rim"/>
    <path pointer-events="none" fill="none" stroke="white" stroke-width="1.5" d="M0,-3.0v7 M-2.5,-0.5L0,-3.0L2.5,-0.5"/>
  </g>
  <g id="arrowDown" transform="rotate(180) translate(-30 -48)">
    <use xlink:href="#rim"/>
    <path pointer-events="none" fill="none" stroke="white" stroke-width="1.5" d="M0,-3.0v7 M-2.5,-0.5L0,-3.0L2.5,-0.5"/>
  </g>
  <g id="arrowLeft" transform="rotate(270) translate(-36 17)">
    <use xlink:href="#rim"/>
    <path pointer-events="none" fill="none" stroke="white" stroke-width="1.5" d="M0,-3.0v7 M-2.5,-0.5L0,-3.0L2.5,-0.5"/>
  </g>
  <g id="resetDef">
    <use xlink:href="#rim2" fill="#404040"><set attributeName="fill" to="#808080" begin="reset.mouseover" end="reset.mouseout"/></use>
  </g>
</defs>
<script type="application/ecmascript">
var viewWidth = 915;
var viewHeight = 157;
var sectionId = 'dynsection-0';
</script>
<script type="application/ecmascript" xlink:href="svg.min.js"/>
<svg id="graph" class="graph">
<g id="viewport">
<title>Acts::TrackStateTypeBase&lt; Derived, ReadOnly &gt;</title>
<!-- Node1 -->
<g id="Node000001" class="node">
<title>Node1</title>
<g id="a_Node000001"><a xlink:title="CRTP base class for TrackStateType and TrackStateTypeMap.">
<polygon fill="#999999" stroke="#666666" points="141,-114 0,-114 0,-84 141,-84 141,-114"/>
<text text-anchor="start" x="8" y="-102" font-family="Helvetica,sans-Serif" font-size="10.00">Acts::TrackStateTypeBase</text>
<text text-anchor="middle" x="70.5" y="-91" font-family="Helvetica,sans-Serif" font-size="10.00">&lt; Derived, ReadOnly &gt;</text>
</a>
</g>
</g>
<!-- Node2 -->
<g id="Node000002" class="node">
<title>Node2</title>
<g id="a_Node000002"><a xlink:href="class_acts_1_1_track_state_type_base.html" target="_top" xlink:title=" ">
<polygon fill="white" stroke="#666666" points="486,-149 343,-149 343,-119 486,-119 486,-149"/>
<text text-anchor="start" x="351" y="-137" font-family="Helvetica,sans-Serif" font-size="10.00">Acts::TrackStateTypeBase</text>
<text text-anchor="middle" x="414.5" y="-126" font-family="Helvetica,sans-Serif" font-size="10.00">&lt; TrackStateType, false &gt;</text>
</a>
</g>
</g>
<!-- Node1&#45;&gt;Node2 -->
<g id="edge1_Node000001_Node000002" class="edge">
<title>Node1&#45;&gt;Node2</title>
<g id="a_edge1_Node000001_Node000002"><a xlink:title=" ">
<path fill="none" stroke="orange" stroke-dasharray="5,2" d="M151.32,-107.21C153.91,-107.48 156.47,-107.74 159,-108 221.08,-114.36 291.67,-121.57 342.74,-126.78"/>
<polygon fill="orange" stroke="orange" points="151.54,-103.72 141.23,-106.18 150.82,-110.68 151.54,-103.72"/>
</a>
</g>
<text text-anchor="start" x="169.5" y="-127.5" font-family="Helvetica,sans-Serif" font-size="10.00" fill="grey">&lt; TrackStateType, false &gt;</text>
</g>
<!-- Node4 -->
<g id="Node000004" class="node">
<title>Node4</title>
<g id="a_Node000004"><a xlink:href="class_acts_1_1_track_state_type_base.html" target="_top" xlink:title=" ">
<polygon fill="white" stroke="#666666" points="505,-79.5 324,-79.5 324,-38.5 505,-38.5 505,-79.5"/>
<text text-anchor="start" x="332" y="-67.5" font-family="Helvetica,sans-Serif" font-size="10.00">Acts::TrackStateTypeBase</text>
<text text-anchor="start" x="332" y="-56.5" font-family="Helvetica,sans-Serif" font-size="10.00">&lt; TrackStateTypeMap&lt; ReadOnly</text>
<text text-anchor="middle" x="414.5" y="-45.5" font-family="Helvetica,sans-Serif" font-size="10.00"> &gt;, ReadOnly &gt;</text>
</a>
</g>
</g>
<!-- Node1&#45;&gt;Node4 -->
<g id="edge3_Node000001_Node000004" class="edge">
<title>Node1&#45;&gt;Node4</title>
<g id="a_edge3_Node000001_Node000004"><a xlink:title=" ">
<path fill="none" stroke="orange" stroke-dasharray="5,2" d="M122.54,-80.93C134.37,-77.39 147.01,-74.12 159,-72 213.24,-62.4 274.91,-59.06 323.97,-58.17"/>
<polygon fill="orange" stroke="orange" points="121.33,-77.64 112.82,-83.94 123.41,-84.32 121.33,-77.64"/>
</a>
</g>
<text text-anchor="start" x="162.5" y="-93" font-family="Helvetica,sans-Serif" font-size="10.00" fill="grey">&lt; TrackStateTypeMap</text>
<text text-anchor="start" x="162.5" y="-78" font-family="Helvetica,sans-Serif" font-size="10.00" fill="grey">  &lt; ReadOnly &gt;, ReadOnly &gt;</text>
</g>
<!-- Node3 -->
<g id="Node000003" class="node">
<title>Node3</title>
<g id="a_Node000003"><a xlink:href="class_acts_1_1_track_state_type.html" target="_top" xlink:title="TrackStateTypeBase captured by value.">
<polygon fill="white" stroke="#666666" points="669.5,-144.5 552.5,-144.5 552.5,-125.5 669.5,-125.5 669.5,-144.5"/>
<text text-anchor="middle" x="611" y="-132.5" font-family="Helvetica,sans-Serif" font-size="10.00">Acts::TrackStateType</text>
</a>
</g>
</g>
<!-- Node2&#45;&gt;Node3 -->
<g id="edge2_Node000002_Node000003" class="edge">
<title>Node2&#45;&gt;Node3</title>
<g id="a_edge2_Node000002_Node000003"><a xlink:title=" ">
<path fill="none" stroke="#63b8ff" d="M496.31,-134.42C515.13,-134.51 534.78,-134.61 552.36,-134.7"/>
<polygon fill="#63b8ff" stroke="#63b8ff" points="496.29,-130.92 486.27,-134.36 496.25,-137.92 496.29,-130.92"/>
</a>
</g>
</g>
<!-- Node5 -->
<g id="Node000005" class="node">
<title>Node5</title>
<g id="a_Node000005"><a xlink:href="class_acts_1_1_track_state_type_map.html" target="_top" xlink:title=" ">
<polygon fill="white" stroke="#666666" points="907,-90 769,-90 769,-60 907,-60 907,-90"/>
<text text-anchor="start" x="777" y="-78" font-family="Helvetica,sans-Serif" font-size="10.00">Acts::TrackStateTypeMap</text>
<text text-anchor="middle" x="838" y="-67" font-family="Helvetica,sans-Serif" font-size="10.00">&lt; false &gt;</text>
</a>
</g>
</g>
<!-- Node4&#45;&gt;Node5 -->
<g id="edge4_Node000004_Node000005" class="edge">
<title>Node4&#45;&gt;Node5</title>
<g id="a_edge4_Node000004_Node000005"><a xlink:title=" ">
<path fill="none" stroke="#63b8ff" d="M515.33,-75.1C524.33,-76.22 533.32,-77.21 542,-78 634.53,-86.4 658.18,-87.31 751,-83 756.84,-82.73 762.9,-82.35 768.97,-81.92"/>
<polygon fill="#63b8ff" stroke="#63b8ff" points="515.55,-71.6 505.18,-73.79 514.65,-78.54 515.55,-71.6"/>
</a>
</g>
</g>
<!-- Node6 -->
<g id="Node000006" class="node">
<title>Node6</title>
<g id="a_Node000006"><a xlink:href="class_acts_1_1_track_state_type_map.html" target="_top" xlink:title=" ">
<polygon fill="white" stroke="#666666" points="907,-30 769,-30 769,0 907,0 907,-30"/>
<text text-anchor="start" x="777" y="-18" font-family="Helvetica,sans-Serif" font-size="10.00">Acts::TrackStateTypeMap</text>
<text text-anchor="middle" x="838" y="-7" font-family="Helvetica,sans-Serif" font-size="10.00">&lt; true &gt;</text>
</a>
</g>
</g>
<!-- Node4&#45;&gt;Node6 -->
<g id="edge5_Node000004_Node000006" class="edge">
<title>Node4&#45;&gt;Node6</title>
<g id="a_edge5_Node000004_Node000006"><a xlink:title=" ">
<path fill="none" stroke="#63b8ff" d="M505.22,-36.41C517.51,-33.9 530.03,-31.66 542,-30 619.21,-19.27 708.73,-15.99 768.72,-15.1"/>
<polygon fill="#63b8ff" stroke="#63b8ff" points="504.48,-32.98 495.41,-38.46 505.92,-39.84 504.48,-32.98"/>
</a>
</g>
</g>
<!-- Node7 -->
<g id="Node000007" class="node">
<title>Node7</title>
<g id="a_Node000007"><a xlink:href="class_acts_1_1_track_state_type_map.html" target="_top" xlink:title="TrackStateTypeBase mapped to external storage.">
<polygon fill="white" stroke="#666666" points="680,-69 542,-69 542,-39 680,-39 680,-69"/>
<text text-anchor="start" x="550" y="-57" font-family="Helvetica,sans-Serif" font-size="10.00">Acts::TrackStateTypeMap</text>
<text text-anchor="middle" x="611" y="-46" font-family="Helvetica,sans-Serif" font-size="10.00">&lt; ReadOnly &gt;</text>
</a>
</g>
</g>
<!-- Node4&#45;&gt;Node7 -->
<g id="edge6_Node000004_Node000007" class="edge">
<title>Node4&#45;&gt;Node7</title>
<g id="a_edge6_Node000004_Node000007"><a xlink:title=" ">
<path fill="none" stroke="#63b8ff" d="M515.23,-56.44C524.23,-56.2 533.21,-55.97 541.85,-55.75"/>
<polygon fill="#63b8ff" stroke="#63b8ff" points="514.97,-52.94 505.06,-56.7 515.15,-59.94 514.97,-52.94"/>
</a>
</g>
</g>
<!-- Node7&#45;&gt;Node5 -->
<g id="edge7_Node000007_Node000005" class="edge">
<title>Node7&#45;&gt;Node5</title>
<g id="a_edge7_Node000007_Node000005"><a xlink:title=" ">
<path fill="none" stroke="orange" stroke-dasharray="5,2" d="M690.44,-60.52C710.21,-62.23 731.39,-64.13 751,-66 756.83,-66.56 762.88,-67.15 768.94,-67.76"/>
<polygon fill="orange" stroke="orange" points="690.51,-57.01 680.25,-59.64 689.91,-63.99 690.51,-57.01"/>
</a>
</g>
<text text-anchor="start" x="701.5" y="-71.5" font-family="Helvetica,sans-Serif" font-size="10.00" fill="grey">&lt; false &gt;</text>
</g>
<!-- Node7&#45;&gt;Node6 -->
<g id="edge8_Node000007_Node000006" class="edge">
<title>Node7&#45;&gt;Node6</title>
<g id="a_edge8_Node000007_Node000006"><a xlink:title=" ">
<path fill="none" stroke="orange" stroke-dasharray="5,2" d="M690.15,-40.45C715.73,-36.02 743.93,-31.13 768.73,-26.83"/>
<polygon fill="orange" stroke="orange" points="689.37,-37.04 680.12,-42.19 690.57,-43.93 689.37,-37.04"/>
</a>
</g>
<text text-anchor="start" x="703.5" y="-42.5" font-family="Helvetica,sans-Serif" font-size="10.00" fill="grey">&lt; true &gt;</text>
</g>
</g>
</svg>

<g id="navigator" transform="translate(0 0)" fill="#404254">
  <rect fill="#f2f5e9" fill-opacity="0.5" stroke="#606060" stroke-width=".5" x="0" y="0" width="60" height="60"/>
  <use id="zoomplus" xlink:href="#zoomPlus" x="17" y="9" onmousedown="handleZoom(evt,'in')"/>
  <use id="zoomminus" xlink:href="#zoomMin" x="42" y="9" onmousedown="handleZoom(evt,'out')"/>
  <use id="reset" xlink:href="#resetDef" x="30" y="36" onmousedown="handleReset()"/>
   <use id="arrowup" xlink:href="#arrowUp" x="0" y="0" onmousedown="handlePan(0,-1)"/>
  <use id="arrowright" xlink:href="#arrowRight" x="0" y="0" onmousedown="handlePan(1,0)"/>
  <use id="arrowdown" xlink:href="#arrowDown" x="0" y="0" onmousedown="handlePan(0,1)"/>
  <use id="arrowleft" xlink:href="#arrowLeft" x="0" y="0" onmousedown="handlePan(-1,0)"/>
</g>
<svg viewBox="0 0 15 15" width="100%" height="30px" preserveAspectRatio="xMaxYMin meet">
 <g id="arrow_out" transform="scale(0.3 0.3)">
  <a xlink:href="class_acts_1_1_track_state_type_base__inherit__graph_org.svg" target="_base">
   <rect id="button" ry="5" rx="5" y="6" x="6" height="38" width="38"
        fill="#f2f5e9" fill-opacity="0.5" stroke="#606060" stroke-width="1.0"/>
   <path id="arrow"
     d="M 11.500037,31.436501 C 11.940474,20.09759 22.043105,11.32322 32.158766,21.979434 L 37.068811,17.246167 C 37.068811,17.246167 37.088388,32 37.088388,32 L 22.160133,31.978069 C 22.160133,31.978069 26.997745,27.140456 26.997745,27.140456 C 18.528582,18.264221 13.291696,25.230495 11.500037,31.436501 z"
     style="fill:#404040;"/>
  </a>
 </g>
</svg>

<style type='text/css'>
<![CDATA[
[data-mouse-over-selected='false'] { opacity: 0.7; }
[data-mouse-over-selected='true']  { opacity: 1.0; }
]]>
</style>
<script type="application/ecmascript"><![CDATA[
document.addEventListener('DOMContentLoaded', (event) => {
  highlightEdges();
  highlightAdjacentNodes();
});
]]></script>
</svg>
