<?xml version="1.0" encoding="UTF-8" standalone="no"?>
<!DOCTYPE svg PUBLIC "-//W3C//DTD SVG 1.1//EN"
 "http://www.w3.org/Graphics/SVG/1.1/DTD/svg11.dtd">
<!-- Generated by graphviz version 2.43.0 (0)
 -->
<!-- Title: Acts::GenericParticleHypothesis&lt; charge_t &gt; Pages: 1 -->
<svg width="720pt" height="182pt"
 viewBox="0.00 0.00 720.00 182.00" xmlns="http://www.w3.org/2000/svg" xmlns:xlink="http://www.w3.org/1999/xlink">
<g id="graph0" class="graph" transform="scale(1 1) rotate(0) translate(4 178)">
<title>Acts::GenericParticleHypothesis&lt; charge_t &gt;</title>
<!-- Node1 -->
<g id="Node000001" class="node">
<title>Node1</title>
<g id="a_Node000001"><a xlink:title="Particle hypothesis used in reconstruction.">
<polygon fill="#999999" stroke="#666666" points="172,-100 0,-100 0,-70 172,-70 172,-100"/>
<text text-anchor="start" x="8" y="-88" font-family="Helvetica,sans-Serif" font-size="10.00">Acts::GenericParticleHypothesis</text>
<text text-anchor="middle" x="86" y="-77" font-family="Helvetica,sans-Serif" font-size="10.00">&lt; charge_t &gt;</text>
</a>
</g>
</g>
<!-- Node2 -->
<g id="Node000002" class="node">
<title>Node2</title>
<g id="a_Node000002"><a xlink:href="class_acts_1_1_generic_particle_hypothesis.html" target="_top" xlink:title=" ">
<polygon fill="white" stroke="#666666" points="499,-174 327,-174 327,-144 499,-144 499,-174"/>
<text text-anchor="start" x="335" y="-162" font-family="Helvetica,sans-Serif" font-size="10.00">Acts::GenericParticleHypothesis</text>
<text text-anchor="middle" x="413" y="-151" font-family="Helvetica,sans-Serif" font-size="10.00">&lt; Neutral &gt;</text>
</a>
</g>
</g>
<!-- Node1&#45;&gt;Node2 -->
<g id="edge1_Node000001_Node000002" class="edge">
<title>Node1&#45;&gt;Node2</title>
<g id="a_edge1_Node000001_Node000002"><a xlink:title=" ">
<path fill="none" stroke="orange" stroke-dasharray="5,2" d="M132.22,-103.83C149.99,-110.66 170.71,-117.93 190,-123 234.56,-134.72 285.21,-143.28 326.86,-149.11"/>
<polygon fill="orange" stroke="orange" points="133.27,-100.48 122.68,-100.1 130.72,-107 133.27,-100.48"/>
</a>
</g>
<text text-anchor="start" x="220.5" y="-150.5" font-family="Helvetica,sans-Serif" font-size="10.00" fill="grey">&lt; Neutral &gt;</text>
</g>
<!-- Node4 -->
<g id="Node000004" class="node">
<title>Node4</title>
<g id="a_Node000004"><a xlink:href="class_acts_1_1_generic_particle_hypothesis.html" target="_top" xlink:title=" ">
<polygon fill="white" stroke="#666666" points="499,-126 327,-126 327,-96 499,-96 499,-126"/>
<text text-anchor="start" x="335" y="-114" font-family="Helvetica,sans-Serif" font-size="10.00">Acts::GenericParticleHypothesis</text>
<text text-anchor="middle" x="413" y="-103" font-family="Helvetica,sans-Serif" font-size="10.00">&lt; NonNeutralCharge &gt;</text>
</a>
</g>
</g>
<!-- Node1&#45;&gt;Node4 -->
<g id="edge3_Node000001_Node000004" class="edge">
<title>Node1&#45;&gt;Node4</title>
<g id="a_edge3_Node000001_Node000004"><a xlink:title=" ">
<path fill="none" stroke="orange" stroke-dasharray="5,2" d="M182.61,-92.65C228.33,-96.31 282.62,-100.65 326.9,-104.19"/>
<polygon fill="orange" stroke="orange" points="182.64,-89.14 172.39,-91.83 182.08,-96.12 182.64,-89.14"/>
</a>
</g>
<text text-anchor="start" x="193.5" y="-107.5" font-family="Helvetica,sans-Serif" font-size="10.00" fill="grey">&lt; NonNeutralCharge &gt;</text>
</g>
<!-- Node6 -->
<g id="Node000006" class="node">
<title>Node6</title>
<g id="a_Node000006"><a xlink:href="class_acts_1_1_generic_particle_hypothesis.html" target="_top" xlink:title=" ">
<polygon fill="white" stroke="#666666" points="499,-78 327,-78 327,-48 499,-48 499,-78"/>
<text text-anchor="start" x="335" y="-66" font-family="Helvetica,sans-Serif" font-size="10.00">Acts::GenericParticleHypothesis</text>
<text text-anchor="middle" x="413" y="-55" font-family="Helvetica,sans-Serif" font-size="10.00">&lt; AnyCharge &gt;</text>
</a>
</g>
</g>
<!-- Node1&#45;&gt;Node6 -->
<g id="edge5_Node000001_Node000006" class="edge">
<title>Node1&#45;&gt;Node6</title>
<g id="a_edge5_Node000001_Node000006"><a xlink:title=" ">
<path fill="none" stroke="orange" stroke-dasharray="5,2" d="M182.23,-70.74C184.85,-70.47 187.44,-70.23 190,-70 235.04,-66.02 285.39,-64.22 326.74,-63.44"/>
<polygon fill="orange" stroke="orange" points="181.63,-67.28 172.06,-71.85 182.38,-74.24 181.63,-67.28"/>
</a>
</g>
<text text-anchor="start" x="211.5" y="-75.5" font-family="Helvetica,sans-Serif" font-size="10.00" fill="grey">&lt; AnyCharge &gt;</text>
</g>
<!-- Node8 -->
<g id="Node000008" class="node">
<title>Node8</title>
<g id="a_Node000008"><a xlink:href="class_acts_1_1_generic_particle_hypothesis.html" target="_top" xlink:title=" ">
<polygon fill="white" stroke="#666666" points="499,-30 327,-30 327,0 499,0 499,-30"/>
<text text-anchor="start" x="335" y="-18" font-family="Helvetica,sans-Serif" font-size="10.00">Acts::GenericParticleHypothesis</text>
<text text-anchor="middle" x="413" y="-7" font-family="Helvetica,sans-Serif" font-size="10.00">&lt; SinglyCharged &gt;</text>
</a>
</g>
</g>
<!-- Node1&#45;&gt;Node8 -->
<g id="edge7_Node000001_Node000008" class="edge">
<title>Node1&#45;&gt;Node8</title>
<g id="a_edge7_Node000001_Node000008"><a xlink:title=" ">
<path fill="none" stroke="orange" stroke-dasharray="5,2" d="M126.05,-65.71C144.94,-57.16 168.2,-47.76 190,-42 234.39,-30.27 285.14,-23.62 326.9,-19.85"/>
<polygon fill="orange" stroke="orange" points="124.49,-62.58 116.88,-69.95 127.43,-68.93 124.49,-62.58"/>
</a>
</g>
<text text-anchor="start" x="202.5" y="-47.5" font-family="Helvetica,sans-Serif" font-size="10.00" fill="grey">&lt; SinglyCharged &gt;</text>
</g>
<!-- Node3 -->
<g id="Node000003" class="node">
<title>Node3</title>
<g id="a_Node000003"><a xlink:href="class_acts_1_1_neutral_particle_hypothesis.html" target="_top" xlink:title="Specialized particle hypothesis for neutral particles.">
<polygon fill="white" stroke="#666666" points="709,-168.5 539,-168.5 539,-149.5 709,-149.5 709,-168.5"/>
<text text-anchor="middle" x="624" y="-156.5" font-family="Helvetica,sans-Serif" font-size="10.00">Acts::NeutralParticleHypothesis</text>
</a>
</g>
</g>
<!-- Node2&#45;&gt;Node3 -->
<g id="edge2_Node000002_Node000003" class="edge">
<title>Node2&#45;&gt;Node3</title>
<g id="a_edge2_Node000002_Node000003"><a xlink:title=" ">
<path fill="none" stroke="#63b8ff" d="M509.22,-159C519.07,-159 529.03,-159 538.74,-159"/>
<polygon fill="#63b8ff" stroke="#63b8ff" points="509.01,-155.5 499.01,-159 509.01,-162.5 509.01,-155.5"/>
</a>
</g>
</g>
<!-- Node5 -->
<g id="Node000005" class="node">
<title>Node5</title>
<g id="a_Node000005"><a xlink:href="class_acts_1_1_non_neutral_charged_particle_hypothesis.html" target="_top" xlink:title="Specialized particle hypothesis for non&#45;neutral particles.">
<polygon fill="white" stroke="#666666" points="712,-126 536,-126 536,-96 712,-96 712,-126"/>
<text text-anchor="start" x="544" y="-114" font-family="Helvetica,sans-Serif" font-size="10.00">Acts::NonNeutralChargedParticle</text>
<text text-anchor="middle" x="624" y="-103" font-family="Helvetica,sans-Serif" font-size="10.00">Hypothesis</text>
</a>
</g>
</g>
<!-- Node4&#45;&gt;Node5 -->
<g id="edge4_Node000004_Node000005" class="edge">
<title>Node4&#45;&gt;Node5</title>
<g id="a_edge4_Node000004_Node000005"><a xlink:title=" ">
<path fill="none" stroke="#63b8ff" d="M509.28,-111C518.08,-111 526.97,-111 535.69,-111"/>
<polygon fill="#63b8ff" stroke="#63b8ff" points="509.01,-107.5 499.01,-111 509.01,-114.5 509.01,-107.5"/>
</a>
</g>
</g>
<!-- Node7 -->
<g id="Node000007" class="node">
<title>Node7</title>
<g id="a_Node000007"><a xlink:href="class_acts_1_1_particle_hypothesis.html" target="_top" xlink:title="Specialized particle hypothesis for any kind of charged particles.">
<polygon fill="white" stroke="#666666" points="691,-72.5 557,-72.5 557,-53.5 691,-53.5 691,-72.5"/>
<text text-anchor="middle" x="624" y="-60.5" font-family="Helvetica,sans-Serif" font-size="10.00">Acts::ParticleHypothesis</text>
</a>
</g>
</g>
<!-- Node6&#45;&gt;Node7 -->
<g id="edge6_Node000006_Node000007" class="edge">
<title>Node6&#45;&gt;Node7</title>
<g id="a_edge6_Node000006_Node000007"><a xlink:title=" ">
<path fill="none" stroke="#63b8ff" d="M509.04,-63C525.24,-63 541.74,-63 556.98,-63"/>
<polygon fill="#63b8ff" stroke="#63b8ff" points="509.01,-59.5 499.01,-63 509.01,-66.5 509.01,-59.5"/>
</a>
</g>
</g>
<!-- Node9 -->
<g id="Node000009" class="node">
<title>Node9</title>
<g id="a_Node000009"><a xlink:href="class_acts_1_1_singly_charged_particle_hypothesis.html" target="_top" xlink:title="Specialized particle hypothesis for singly charged particles.">
<polygon fill="white" stroke="#666666" points="699,-30 549,-30 549,0 699,0 699,-30"/>
<text text-anchor="start" x="557" y="-18" font-family="Helvetica,sans-Serif" font-size="10.00">Acts::SinglyChargedParticle</text>
<text text-anchor="middle" x="624" y="-7" font-family="Helvetica,sans-Serif" font-size="10.00">Hypothesis</text>
</a>
</g>
</g>
<!-- Node8&#45;&gt;Node9 -->
<g id="edge8_Node000008_Node000009" class="edge">
<title>Node8&#45;&gt;Node9</title>
<g id="a_edge8_Node000008_Node000009"><a xlink:title=" ">
<path fill="none" stroke="#63b8ff" d="M509.13,-15C522.44,-15 535.95,-15 548.8,-15"/>
<polygon fill="#63b8ff" stroke="#63b8ff" points="509.01,-11.5 499.01,-15 509.01,-18.5 509.01,-11.5"/>
</a>
</g>
</g>
</g>
</svg>
