<?xml version="1.0" encoding="UTF-8" standalone="no"?>
<!DOCTYPE svg PUBLIC "-//W3C//DTD SVG 1.1//EN"
 "http://www.w3.org/Graphics/SVG/1.1/DTD/svg11.dtd">
<!-- Generated by graphviz version 2.43.0 (0)
 -->
<!-- Title: Acts::SurfaceBounds Pages: 1 -->
<svg width="1022pt" height="313pt"
 viewBox="0.00 0.00 1022.00 313.00" xmlns="http://www.w3.org/2000/svg" xmlns:xlink="http://www.w3.org/1999/xlink">
<g id="graph0" class="graph" transform="scale(1 1) rotate(0) translate(4 309)">
<title>Acts::SurfaceBounds</title>
<!-- Node1 -->
<g id="Node000001" class="node">
<title>Node1</title>
<g id="a_Node000001"><a xlink:title="Interface for surface bounds.">
<polygon fill="#999999" stroke="#666666" points="116,-212 0,-212 0,-193 116,-193 116,-212"/>
<text text-anchor="middle" x="58" y="-200" font-family="Helvetica,sans-Serif" font-size="10.00">Acts::SurfaceBounds</text>
</a>
</g>
</g>
<!-- Node2 -->
<g id="Node000002" class="node">
<title>Node2</title>
<g id="a_Node000002"><a xlink:href="class_acts_1_1_cone_bounds.html" target="_top" xlink:title="Bounds for a conical surface, the opening angle is stored in &#160;and always positively defined.">
<polygon fill="white" stroke="#666666" points="265,-305 161,-305 161,-286 265,-286 265,-305"/>
<text text-anchor="middle" x="213" y="-293" font-family="Helvetica,sans-Serif" font-size="10.00">Acts::ConeBounds</text>
</a>
</g>
</g>
<!-- Node1&#45;&gt;Node2 -->
<g id="edge1_Node000001_Node000002" class="edge">
<title>Node1&#45;&gt;Node2</title>
<g id="a_edge1_Node000001_Node000002"><a xlink:title=" ">
<path fill="none" stroke="#63b8ff" d="M75.84,-219.25C93.64,-236.12 123.21,-261.81 153,-277.5 159.25,-280.79 166.2,-283.59 173.08,-285.92"/>
<polygon fill="#63b8ff" stroke="#63b8ff" points="78.16,-216.63 68.53,-212.2 73.3,-221.66 78.16,-216.63"/>
</a>
</g>
</g>
<!-- Node3 -->
<g id="Node000003" class="node">
<title>Node3</title>
<g id="a_Node000003"><a xlink:href="class_acts_1_1_cylinder_bounds.html" target="_top" xlink:title=" ">
<polygon fill="white" stroke="#666666" points="273,-268 153,-268 153,-249 273,-249 273,-268"/>
<text text-anchor="middle" x="213" y="-256" font-family="Helvetica,sans-Serif" font-size="10.00">Acts::CylinderBounds</text>
</a>
</g>
</g>
<!-- Node1&#45;&gt;Node3 -->
<g id="edge2_Node000001_Node000003" class="edge">
<title>Node1&#45;&gt;Node3</title>
<g id="a_edge2_Node000001_Node000003"><a xlink:title=" ">
<path fill="none" stroke="#63b8ff" d="M90.68,-216.12C108.79,-223.7 132,-233.07 153,-240.5 161.28,-243.43 170.31,-246.33 178.76,-248.92"/>
<polygon fill="#63b8ff" stroke="#63b8ff" points="91.77,-212.78 81.2,-212.12 89.05,-219.23 91.77,-212.78"/>
</a>
</g>
</g>
<!-- Node4 -->
<g id="Node000004" class="node">
<title>Node4</title>
<g id="a_Node000004"><a xlink:href="class_acts_1_1_disc_bounds.html" target="_top" xlink:title=" ">
<polygon fill="white" stroke="#666666" points="263.5,-231 162.5,-231 162.5,-212 263.5,-212 263.5,-231"/>
<text text-anchor="middle" x="213" y="-219" font-family="Helvetica,sans-Serif" font-size="10.00">Acts::DiscBounds</text>
</a>
</g>
</g>
<!-- Node1&#45;&gt;Node4 -->
<g id="edge3_Node000001_Node000004" class="edge">
<title>Node1&#45;&gt;Node4</title>
<g id="a_edge3_Node000001_Node000004"><a xlink:title=" ">
<path fill="none" stroke="#63b8ff" d="M126.44,-210.87C138.5,-212.37 150.86,-213.91 162.3,-215.33"/>
<polygon fill="#63b8ff" stroke="#63b8ff" points="126.76,-207.39 116.41,-209.63 125.9,-214.33 126.76,-207.39"/>
</a>
</g>
</g>
<!-- Node8 -->
<g id="Node000008" class="node">
<title>Node8</title>
<g id="a_Node000008"><a xlink:href="class_acts_1_1_infinite_bounds.html" target="_top" xlink:title="templated boundless extension to forward the interface Returns all inside checks to true and can temp...">
<polygon fill="white" stroke="#666666" points="269.5,-194 156.5,-194 156.5,-175 269.5,-175 269.5,-194"/>
<text text-anchor="middle" x="213" y="-182" font-family="Helvetica,sans-Serif" font-size="10.00">Acts::InfiniteBounds</text>
</a>
</g>
</g>
<!-- Node1&#45;&gt;Node8 -->
<g id="edge7_Node000001_Node000008" class="edge">
<title>Node1&#45;&gt;Node8</title>
<g id="a_edge7_Node000001_Node000008"><a xlink:title=" ">
<path fill="none" stroke="#63b8ff" d="M126.64,-194.54C136.55,-193.38 146.66,-192.19 156.3,-191.05"/>
<polygon fill="#63b8ff" stroke="#63b8ff" points="125.93,-191.1 116.41,-195.75 126.75,-198.05 125.93,-191.1"/>
</a>
</g>
</g>
<!-- Node9 -->
<g id="Node000009" class="node">
<title>Node9</title>
<g id="a_Node000009"><a xlink:href="class_acts_1_1_line_bounds.html" target="_top" xlink:title="Bounds for a LineSurface.">
<polygon fill="white" stroke="#666666" points="263,-157 163,-157 163,-138 263,-138 263,-157"/>
<text text-anchor="middle" x="213" y="-145" font-family="Helvetica,sans-Serif" font-size="10.00">Acts::LineBounds</text>
</a>
</g>
</g>
<!-- Node1&#45;&gt;Node9 -->
<g id="edge8_Node000001_Node000009" class="edge">
<title>Node1&#45;&gt;Node9</title>
<g id="a_edge8_Node000001_Node000009"><a xlink:title=" ">
<path fill="none" stroke="#63b8ff" d="M92.25,-189.26C110.17,-182.26 132.7,-173.65 153,-166.5 162.13,-163.28 172.14,-159.98 181.27,-157.05"/>
<polygon fill="#63b8ff" stroke="#63b8ff" points="90.85,-186.05 82.82,-192.97 93.41,-192.57 90.85,-186.05"/>
</a>
</g>
</g>
<!-- Node10 -->
<g id="Node000010" class="node">
<title>Node10</title>
<g id="a_Node000010"><a xlink:href="class_acts_1_1_planar_bounds.html" target="_top" xlink:title="common base class for all bounds that are in a local x/y cartesian frame">
<polygon fill="white" stroke="#666666" points="268,-111 158,-111 158,-92 268,-92 268,-111"/>
<text text-anchor="middle" x="213" y="-99" font-family="Helvetica,sans-Serif" font-size="10.00">Acts::PlanarBounds</text>
</a>
</g>
</g>
<!-- Node1&#45;&gt;Node10 -->
<g id="edge9_Node000001_Node000010" class="edge">
<title>Node1&#45;&gt;Node10</title>
<g id="a_edge9_Node000001_Node000010"><a xlink:title=" ">
<path fill="none" stroke="#63b8ff" d="M77.31,-186.33C95.65,-170.62 125.07,-146.69 153,-129.5 164.39,-122.49 177.82,-115.99 188.98,-111.02"/>
<polygon fill="#63b8ff" stroke="#63b8ff" points="74.98,-183.72 69.72,-192.91 79.56,-189.01 74.98,-183.72"/>
</a>
</g>
</g>
<!-- Node5 -->
<g id="Node000005" class="node">
<title>Node5</title>
<g id="a_Node000005"><a xlink:href="class_acts_1_1_annulus_bounds.html" target="_top" xlink:title="Class that implements a (potentially asymmetric) bounds with difference between surface bound center ...">
<polygon fill="white" stroke="#666666" points="459,-278 340,-278 340,-259 459,-259 459,-278"/>
<text text-anchor="middle" x="399.5" y="-266" font-family="Helvetica,sans-Serif" font-size="10.00">Acts::AnnulusBounds</text>
</a>
</g>
</g>
<!-- Node4&#45;&gt;Node5 -->
<g id="edge4_Node000004_Node000005" class="edge">
<title>Node4&#45;&gt;Node5</title>
<g id="a_edge4_Node000004_Node000005"><a xlink:title=" ">
<path fill="none" stroke="#63b8ff" d="M253,-234.18C270.35,-239.58 291.09,-245.73 310,-250.5 322.01,-253.53 335.04,-256.4 347.31,-258.93"/>
<polygon fill="#63b8ff" stroke="#63b8ff" points="253.8,-230.76 243.21,-231.09 251.7,-237.44 253.8,-230.76"/>
</a>
</g>
</g>
<!-- Node6 -->
<g id="Node000006" class="node">
<title>Node6</title>
<g id="a_Node000006"><a xlink:href="class_acts_1_1_disc_trapezoid_bounds.html" target="_top" xlink:title="Class to describe the bounds for a planar DiscSurface.">
<polygon fill="white" stroke="#666666" points="473,-241 326,-241 326,-222 473,-222 473,-241"/>
<text text-anchor="middle" x="399.5" y="-229" font-family="Helvetica,sans-Serif" font-size="10.00">Acts::DiscTrapezoidBounds</text>
</a>
</g>
</g>
<!-- Node4&#45;&gt;Node6 -->
<g id="edge5_Node000004_Node000006" class="edge">
<title>Node4&#45;&gt;Node6</title>
<g id="a_edge5_Node000004_Node000006"><a xlink:title=" ">
<path fill="none" stroke="#63b8ff" d="M273.97,-224.75C290.46,-225.64 308.53,-226.62 325.67,-227.55"/>
<polygon fill="#63b8ff" stroke="#63b8ff" points="274.1,-221.25 263.93,-224.21 273.72,-228.24 274.1,-221.25"/>
</a>
</g>
</g>
<!-- Node7 -->
<g id="Node000007" class="node">
<title>Node7</title>
<g id="a_Node000007"><a xlink:href="class_acts_1_1_radial_bounds.html" target="_top" xlink:title="Class to describe the bounds for a planar DiscSurface.">
<polygon fill="white" stroke="#666666" points="454.5,-204 344.5,-204 344.5,-185 454.5,-185 454.5,-204"/>
<text text-anchor="middle" x="399.5" y="-192" font-family="Helvetica,sans-Serif" font-size="10.00">Acts::RadialBounds</text>
</a>
</g>
</g>
<!-- Node4&#45;&gt;Node7 -->
<g id="edge6_Node000004_Node000007" class="edge">
<title>Node4&#45;&gt;Node7</title>
<g id="a_edge6_Node000004_Node000007"><a xlink:title=" ">
<path fill="none" stroke="#63b8ff" d="M274.09,-212.71C296.71,-209.4 322.27,-205.66 344.32,-202.43"/>
<polygon fill="#63b8ff" stroke="#63b8ff" points="273.32,-209.28 263.93,-214.19 274.33,-216.21 273.32,-209.28"/>
</a>
</g>
</g>
<!-- Node11 -->
<g id="Node000011" class="node">
<title>Node11</title>
<g id="a_Node000011"><a xlink:href="class_acts_1_1_convex_polygon_bounds_base.html" target="_top" xlink:title="base class for convex polygon bounds">
<polygon fill="white" stroke="#666666" points="489,-167 310,-167 310,-148 489,-148 489,-167"/>
<text text-anchor="middle" x="399.5" y="-155" font-family="Helvetica,sans-Serif" font-size="10.00">Acts::ConvexPolygonBoundsBase</text>
</a>
</g>
</g>
<!-- Node10&#45;&gt;Node11 -->
<g id="edge10_Node000010_Node000011" class="edge">
<title>Node10&#45;&gt;Node11</title>
<g id="a_edge10_Node000010_Node000011"><a xlink:title=" ">
<path fill="none" stroke="#63b8ff" d="M244.15,-115.02C262.83,-123 287.47,-132.81 310,-139.5 320.82,-142.71 332.56,-145.55 343.83,-147.95"/>
<polygon fill="#63b8ff" stroke="#63b8ff" points="245.54,-111.81 234.97,-111.05 242.76,-118.23 245.54,-111.81"/>
</a>
</g>
</g>
<!-- Node14 -->
<g id="Node000014" class="node">
<title>Node14</title>
<g id="a_Node000014"><a xlink:href="class_acts_1_1_diamond_bounds.html" target="_top" xlink:title=" ">
<polygon fill="white" stroke="#666666" points="461.5,-130 337.5,-130 337.5,-111 461.5,-111 461.5,-130"/>
<text text-anchor="middle" x="399.5" y="-118" font-family="Helvetica,sans-Serif" font-size="10.00">Acts::DiamondBounds</text>
</a>
</g>
</g>
<!-- Node10&#45;&gt;Node14 -->
<g id="edge15_Node000010_Node000014" class="edge">
<title>Node10&#45;&gt;Node14</title>
<g id="a_edge15_Node000010_Node000014"><a xlink:title=" ">
<path fill="none" stroke="#63b8ff" d="M278.48,-108.14C297.62,-110.11 318.51,-112.26 337.42,-114.21"/>
<polygon fill="#63b8ff" stroke="#63b8ff" points="278.66,-104.64 268.36,-107.1 277.95,-111.6 278.66,-104.64"/>
</a>
</g>
</g>
<!-- Node15 -->
<g id="Node000015" class="node">
<title>Node15</title>
<g id="a_Node000015"><a xlink:href="class_acts_1_1_ellipse_bounds.html" target="_top" xlink:title=" ">
<polygon fill="white" stroke="#666666" points="455.5,-93 343.5,-93 343.5,-74 455.5,-74 455.5,-93"/>
<text text-anchor="middle" x="399.5" y="-81" font-family="Helvetica,sans-Serif" font-size="10.00">Acts::EllipseBounds</text>
</a>
</g>
</g>
<!-- Node10&#45;&gt;Node15 -->
<g id="edge16_Node000010_Node000015" class="edge">
<title>Node10&#45;&gt;Node15</title>
<g id="a_edge16_Node000010_Node000015"><a xlink:title=" ">
<path fill="none" stroke="#63b8ff" d="M278.53,-95.2C299.64,-93.14 322.89,-90.88 343.25,-88.89"/>
<polygon fill="#63b8ff" stroke="#63b8ff" points="277.97,-91.74 268.36,-96.2 278.65,-98.71 277.97,-91.74"/>
</a>
</g>
</g>
<!-- Node16 -->
<g id="Node000016" class="node">
<title>Node16</title>
<g id="a_Node000016"><a xlink:href="class_acts_1_1_rectangle_bounds.html" target="_top" xlink:title=" ">
<polygon fill="white" stroke="#666666" points="463.5,-56 335.5,-56 335.5,-37 463.5,-37 463.5,-56"/>
<text text-anchor="middle" x="399.5" y="-44" font-family="Helvetica,sans-Serif" font-size="10.00">Acts::RectangleBounds</text>
</a>
</g>
</g>
<!-- Node10&#45;&gt;Node16 -->
<g id="edge17_Node000010_Node000016" class="edge">
<title>Node10&#45;&gt;Node16</title>
<g id="a_edge17_Node000010_Node000016"><a xlink:title=" ">
<path fill="none" stroke="#63b8ff" d="M245.97,-88.16C264.46,-80.79 288.28,-71.87 310,-65.5 322.06,-61.96 335.23,-58.78 347.63,-56.08"/>
<polygon fill="#63b8ff" stroke="#63b8ff" points="244.53,-84.97 236.57,-91.96 247.15,-91.46 244.53,-84.97"/>
</a>
</g>
</g>
<!-- Node17 -->
<g id="Node000017" class="node">
<title>Node17</title>
<g id="a_Node000017"><a xlink:href="class_acts_1_1_trapezoid_bounds.html" target="_top" xlink:title="Bounds for a trapezoidal, planar Surface.">
<polygon fill="white" stroke="#666666" points="462.5,-19 336.5,-19 336.5,0 462.5,0 462.5,-19"/>
<text text-anchor="middle" x="399.5" y="-7" font-family="Helvetica,sans-Serif" font-size="10.00">Acts::TrapezoidBounds</text>
</a>
</g>
</g>
<!-- Node10&#45;&gt;Node17 -->
<g id="edge18_Node000010_Node000017" class="edge">
<title>Node10&#45;&gt;Node17</title>
<g id="a_edge18_Node000010_Node000017"><a xlink:title=" ">
<path fill="none" stroke="#63b8ff" d="M230.73,-84.68C248.73,-67.59 278.96,-41.68 310,-27.5 318.27,-23.72 327.34,-20.73 336.41,-18.36"/>
<polygon fill="#63b8ff" stroke="#63b8ff" points="228.1,-82.36 223.36,-91.84 232.97,-87.38 228.1,-82.36"/>
</a>
</g>
</g>
<!-- Node12 -->
<g id="Node000012" class="node">
<title>Node12</title>
<g id="a_Node000012"><a xlink:href="class_acts_1_1_convex_polygon_bounds_3_01_polygon_dynamic_01_4.html" target="_top" xlink:title="This is the specialization handling a polygon with a dynamic number of points.">
<polygon fill="white" stroke="#666666" points="1014,-172.5 859,-172.5 859,-142.5 1014,-142.5 1014,-172.5"/>
<text text-anchor="start" x="867" y="-160.5" font-family="Helvetica,sans-Serif" font-size="10.00">Acts::ConvexPolygonBounds</text>
<text text-anchor="middle" x="936.5" y="-149.5" font-family="Helvetica,sans-Serif" font-size="10.00">&lt; PolygonDynamic &gt;</text>
</a>
</g>
</g>
<!-- Node11&#45;&gt;Node12 -->
<g id="edge11_Node000011_Node000012" class="edge">
<title>Node11&#45;&gt;Node12</title>
<g id="a_edge11_Node000011_Node000012"><a xlink:title=" ">
<path fill="none" stroke="#63b8ff" d="M499.32,-152.12C603.14,-150.15 764.22,-150.3 858.84,-152.6"/>
<polygon fill="#63b8ff" stroke="#63b8ff" points="499.07,-148.63 489.14,-152.33 499.21,-155.63 499.07,-148.63"/>
</a>
</g>
</g>
<!-- Node11&#45;&gt;Node12 -->
<g id="edge14_Node000011_Node000012" class="edge">
<title>Node11&#45;&gt;Node12</title>
<g id="a_edge14_Node000011_Node000012"><a xlink:title=" ">
<path fill="none" stroke="#63b8ff" d="M499.32,-162.88C603.14,-164.85 764.22,-164.7 858.84,-162.4"/>
<polygon fill="#63b8ff" stroke="#63b8ff" points="499.21,-159.37 489.14,-162.67 499.07,-166.37 499.21,-159.37"/>
</a>
</g>
</g>
<!-- Node13 -->
<g id="Node000013" class="node">
<title>Node13</title>
<g id="a_Node000013"><a xlink:href="class_acts_1_1_convex_polygon_bounds.html" target="_top" xlink:title="This is the actual implementation of the bounds.">
<polygon fill="white" stroke="#666666" points="711,-120 526,-120 526,-101 711,-101 711,-120"/>
<text text-anchor="middle" x="618.5" y="-108" font-family="Helvetica,sans-Serif" font-size="10.00">Acts::ConvexPolygonBounds&lt; N &gt;</text>
</a>
</g>
</g>
<!-- Node11&#45;&gt;Node13 -->
<g id="edge12_Node000011_Node000013" class="edge">
<title>Node11&#45;&gt;Node13</title>
<g id="a_edge12_Node000011_Node000013"><a xlink:title=" ">
<path fill="none" stroke="#63b8ff" d="M460.55,-145.88C470.09,-143.86 479.83,-141.7 489,-139.5 497.07,-137.56 498.94,-136.49 507,-134.5 527.87,-129.34 551.1,-124.2 570.86,-120.01"/>
<polygon fill="#63b8ff" stroke="#63b8ff" points="459.79,-142.46 450.72,-147.93 461.22,-149.32 459.79,-142.46"/>
</a>
</g>
</g>
<!-- Node13&#45;&gt;Node12 -->
<g id="edge13_Node000013_Node000012" class="edge">
<title>Node13&#45;&gt;Node12</title>
<g id="a_edge13_Node000013_Node000012"><a xlink:title=" ">
<path fill="none" stroke="orange" stroke-dasharray="5,2" d="M721.27,-105.91C759.23,-106.24 802.45,-109.04 841,-117.5 864.32,-122.62 889.12,-133.34 907.46,-142.39"/>
<polygon fill="orange" stroke="orange" points="721.24,-102.41 711.23,-105.89 721.21,-109.41 721.24,-102.41"/>
</a>
</g>
<text text-anchor="start" x="732" y="-123" font-family="Helvetica,sans-Serif" font-size="10.00" fill="grey">&lt; PolygonDynamic &gt;</text>
</g>
</g>
</svg>
