<?xml version="1.0" encoding="UTF-8" standalone="no"?>
<!DOCTYPE svg PUBLIC "-//W3C//DTD SVG 1.1//EN"
 "http://www.w3.org/Graphics/SVG/1.1/DTD/svg11.dtd">
<!-- Generated by graphviz version 2.43.0 (0)
 -->
<!-- Title: Acts::KDTree&lt; Dims, Type, Scalar, Vector, LeafSize &gt; Pages: 1 -->
<svg width="452pt" height="351pt"
 viewBox="0.00 0.00 452.00 350.50" xmlns="http://www.w3.org/2000/svg" xmlns:xlink="http://www.w3.org/1999/xlink">
<g id="graph0" class="graph" transform="scale(1 1) rotate(0) translate(4 346.5)">
<title>Acts::KDTree&lt; Dims, Type, Scalar, Vector, LeafSize &gt;</title>
<!-- Node1 -->
<g id="Node000001" class="node">
<title>Node1</title>
<g id="a_Node000001"><a xlink:title="A general k&#45;d tree with fast range search.">
<polygon fill="#999999" stroke="#666666" points="118,-168 0,-168 0,-127 118,-127 118,-168"/>
<text text-anchor="start" x="8" y="-156" font-family="Helvetica,sans-Serif" font-size="10.00">Acts::KDTree&lt; Dims,</text>
<text text-anchor="start" x="8" y="-145" font-family="Helvetica,sans-Serif" font-size="10.00"> Type, Scalar, Vector,</text>
<text text-anchor="middle" x="59" y="-134" font-family="Helvetica,sans-Serif" font-size="10.00"> LeafSize &gt;</text>
</a>
</g>
</g>
<!-- Node2 -->
<g id="Node000002" class="node">
<title>Node2</title>
<g id="a_Node000002"><a xlink:title=" ">
<polygon fill="white" stroke="#666666" points="430.5,-313.5 308.5,-313.5 308.5,-261.5 430.5,-261.5 430.5,-313.5"/>
<text text-anchor="start" x="316.5" y="-301.5" font-family="Helvetica,sans-Serif" font-size="10.00">Acts::KDTree&lt; 2u, std</text>
<text text-anchor="start" x="316.5" y="-290.5" font-family="Helvetica,sans-Serif" font-size="10.00">::shared_ptr&lt; Surface</text>
<text text-anchor="start" x="316.5" y="-279.5" font-family="Helvetica,sans-Serif" font-size="10.00"> &gt;, double, std::array,</text>
<text text-anchor="middle" x="369.5" y="-268.5" font-family="Helvetica,sans-Serif" font-size="10.00"> 100 &gt;</text>
</a>
</g>
</g>
<!-- Node1&#45;&gt;Node2 -->
<g id="edge1_Node000001_Node000002" class="edge">
<title>Node1&#45;&gt;Node2</title>
<g id="a_edge1_Node000001_Node000002"><a xlink:title=" ">
<path fill="none" stroke="orange" stroke-dasharray="5,2" d="M71.08,-177.91C82.75,-205.24 103.95,-243.99 136,-263.5 187.82,-295.04 258.41,-297.93 308.17,-294.87"/>
<polygon fill="orange" stroke="orange" points="74.22,-176.35 67.2,-168.41 67.74,-178.99 74.22,-176.35"/>
</a>
</g>
<text text-anchor="start" x="152.5" y="-331" font-family="Helvetica,sans-Serif" font-size="10.00" fill="grey">&lt; 2u, std::shared_ptr</text>
<text text-anchor="start" x="152.5" y="-316" font-family="Helvetica,sans-Serif" font-size="10.00" fill="grey">  &lt; Surface &gt;, double,</text>
<text text-anchor="start" x="152.5" y="-301" font-family="Helvetica,sans-Serif" font-size="10.00" fill="grey">   std::array, 100 &gt;</text>
</g>
<!-- Node3 -->
<g id="Node000003" class="node">
<title>Node3</title>
<g id="a_Node000003"><a xlink:title=" ">
<polygon fill="white" stroke="#666666" points="439.5,-243.5 299.5,-243.5 299.5,-191.5 439.5,-191.5 439.5,-243.5"/>
<text text-anchor="start" x="307.5" y="-231.5" font-family="Helvetica,sans-Serif" font-size="10.00">Acts::KDTree&lt; kDIM,</text>
<text text-anchor="start" x="307.5" y="-220.5" font-family="Helvetica,sans-Serif" font-size="10.00"> std::shared_ptr&lt; Surface</text>
<text text-anchor="start" x="307.5" y="-209.5" font-family="Helvetica,sans-Serif" font-size="10.00"> &gt;, double, std::array,</text>
<text text-anchor="middle" x="369.5" y="-198.5" font-family="Helvetica,sans-Serif" font-size="10.00"> bSize &gt;</text>
</a>
</g>
</g>
<!-- Node1&#45;&gt;Node3 -->
<g id="edge2_Node000001_Node000003" class="edge">
<title>Node1&#45;&gt;Node3</title>
<g id="a_edge2_Node000001_Node000003"><a xlink:title=" ">
<path fill="none" stroke="orange" stroke-dasharray="5,2" d="M94.15,-173.86C106.66,-182.18 121.36,-190.5 136,-195.5 165.21,-205.47 241.91,-211.36 299.28,-214.5"/>
<polygon fill="orange" stroke="orange" points="96.08,-170.93 85.86,-168.13 92.1,-176.69 96.08,-170.93"/>
</a>
</g>
<text text-anchor="start" x="143.5" y="-248" font-family="Helvetica,sans-Serif" font-size="10.00" fill="grey">&lt; kDIM, std::shared</text>
<text text-anchor="start" x="143.5" y="-233" font-family="Helvetica,sans-Serif" font-size="10.00" fill="grey">  _ptr&lt; Surface &gt;, double,</text>
<text text-anchor="start" x="143.5" y="-218" font-family="Helvetica,sans-Serif" font-size="10.00" fill="grey">   std::array, bSize &gt;</text>
</g>
<!-- Node4 -->
<g id="Node000004" class="node">
<title>Node4</title>
<g id="a_Node000004"><a xlink:title=" ">
<polygon fill="white" stroke="#666666" points="444,-169 295,-169 295,-128 444,-128 444,-169"/>
<text text-anchor="start" x="303" y="-157" font-family="Helvetica,sans-Serif" font-size="10.00">Acts::KDTree&lt; NDims,</text>
<text text-anchor="start" x="303" y="-146" font-family="Helvetica,sans-Serif" font-size="10.00"> const external_spacepoint</text>
<text text-anchor="middle" x="369.5" y="-135" font-family="Helvetica,sans-Serif" font-size="10.00">_t *, double, std::array, 4 &gt;</text>
</a>
</g>
</g>
<!-- Node1&#45;&gt;Node4 -->
<g id="edge3_Node000001_Node000004" class="edge">
<title>Node1&#45;&gt;Node4</title>
<g id="a_edge3_Node000001_Node000004"><a xlink:title=" ">
<path fill="none" stroke="orange" stroke-dasharray="5,2" d="M128.29,-147.72C177.69,-147.88 244.35,-148.1 294.92,-148.26"/>
<polygon fill="orange" stroke="orange" points="128.04,-144.22 118.03,-147.69 128.02,-151.22 128.04,-144.22"/>
</a>
</g>
<text text-anchor="start" x="144.5" y="-183" font-family="Helvetica,sans-Serif" font-size="10.00" fill="grey">&lt; NDims, const external</text>
<text text-anchor="start" x="144.5" y="-168" font-family="Helvetica,sans-Serif" font-size="10.00" fill="grey">  _spacepoint_t *, double,</text>
<text text-anchor="start" x="144.5" y="-153" font-family="Helvetica,sans-Serif" font-size="10.00" fill="grey">   std::array, 4 &gt;</text>
</g>
<!-- Node5 -->
<g id="Node000005" class="node">
<title>Node5</title>
<g id="a_Node000005"><a xlink:title=" ">
<polygon fill="white" stroke="#666666" points="435,-110 304,-110 304,-69 435,-69 435,-110"/>
<text text-anchor="start" x="312" y="-98" font-family="Helvetica,sans-Serif" font-size="10.00">Acts::KDTree&lt; NDims,</text>
<text text-anchor="start" x="312" y="-87" font-family="Helvetica,sans-Serif" font-size="10.00"> SpacePointIndex, float,</text>
<text text-anchor="middle" x="369.5" y="-76" font-family="Helvetica,sans-Serif" font-size="10.00"> std::array, 4 &gt;</text>
</a>
</g>
</g>
<!-- Node1&#45;&gt;Node5 -->
<g id="edge4_Node000001_Node000005" class="edge">
<title>Node1&#45;&gt;Node5</title>
<g id="a_edge4_Node000001_Node000005"><a xlink:title=" ">
<path fill="none" stroke="orange" stroke-dasharray="5,2" d="M105.95,-122.62C115.64,-118.27 125.97,-114.26 136,-111.5 191.32,-96.29 256.52,-91.17 303.77,-89.64"/>
<polygon fill="orange" stroke="orange" points="104.46,-119.46 96.89,-126.87 107.43,-125.79 104.46,-119.46"/>
</a>
</g>
<text text-anchor="start" x="139.5" y="-132.5" font-family="Helvetica,sans-Serif" font-size="10.00" fill="grey">&lt; NDims, SpacePointIndex,</text>
<text text-anchor="start" x="139.5" y="-117.5" font-family="Helvetica,sans-Serif" font-size="10.00" fill="grey">   float, std::array, 4 &gt;</text>
</g>
<!-- Node6 -->
<g id="Node000006" class="node">
<title>Node6</title>
<g id="a_Node000006"><a xlink:title=" ">
<polygon fill="white" stroke="#666666" points="441,-41 298,-41 298,0 441,0 441,-41"/>
<text text-anchor="start" x="306" y="-29" font-family="Helvetica,sans-Serif" font-size="10.00">Acts::KDTree&lt; kDims,</text>
<text text-anchor="start" x="306" y="-18" font-family="Helvetica,sans-Serif" font-size="10.00"> std::size_t, scalar</text>
<text text-anchor="middle" x="369.5" y="-7" font-family="Helvetica,sans-Serif" font-size="10.00">_t, std::array, kLeafSize &gt;</text>
</a>
</g>
</g>
<!-- Node1&#45;&gt;Node6 -->
<g id="edge5_Node000001_Node000006" class="edge">
<title>Node1&#45;&gt;Node6</title>
<g id="a_edge5_Node000001_Node000006"><a xlink:title=" ">
<path fill="none" stroke="orange" stroke-dasharray="5,2" d="M72.34,-117.34C84.49,-91.87 105.65,-56.86 136,-39.5 184.87,-11.55 249.21,-8.35 297.82,-11.26"/>
<polygon fill="orange" stroke="orange" points="69.09,-116.02 68.12,-126.57 75.46,-118.93 69.09,-116.02"/>
</a>
</g>
<text text-anchor="start" x="149.5" y="-75" font-family="Helvetica,sans-Serif" font-size="10.00" fill="grey">&lt; kDims, std::size</text>
<text text-anchor="start" x="149.5" y="-60" font-family="Helvetica,sans-Serif" font-size="10.00" fill="grey">  _t, scalar_t, std::array,</text>
<text text-anchor="start" x="149.5" y="-45" font-family="Helvetica,sans-Serif" font-size="10.00" fill="grey">   kLeafSize &gt;</text>
</g>
</g>
</svg>
