<?xml version="1.0" encoding="UTF-8" standalone="no"?>
<!DOCTYPE svg PUBLIC "-//W3C//DTD SVG 1.1//EN"
 "http://www.w3.org/Graphics/SVG/1.1/DTD/svg11.dtd">
<!-- Generated by graphviz version 2.43.0 (0)
 -->
<!-- Title: ActsPlugins::PodioTrackContainerBase Pages: 1 -->
<svg width="241pt" height="197pt"
 viewBox="0.00 0.00 240.50 197.00" xmlns="http://www.w3.org/2000/svg" xmlns:xlink="http://www.w3.org/1999/xlink">
<g id="graph0" class="graph" transform="scale(1 1) rotate(0) translate(4 193)">
<title>ActsPlugins::PodioTrackContainerBase</title>
<!-- Node1 -->
<g id="Node000001" class="node">
<title>Node1</title>
<g id="a_Node000001"><a xlink:title=" ">
<polygon fill="#999999" stroke="#666666" points="203,-19 0,-19 0,0 203,0 203,-19"/>
<text text-anchor="middle" x="101.5" y="-7" font-family="Helvetica,sans-Serif" font-size="10.00">ActsPlugins::PodioTrackContainerBase</text>
</a>
</g>
</g>
<!-- Node2 -->
<g id="Node000002" class="node">
<title>Node2</title>
<g id="a_Node000002"><a xlink:title=" ">
<polygon fill="white" stroke="#666666" points="182.5,-102 20.5,-102 20.5,-72 182.5,-72 182.5,-102"/>
<text text-anchor="start" x="28.5" y="-90" font-family="Helvetica,sans-Serif" font-size="10.00">std::vector&lt; std::shared</text>
<text text-anchor="middle" x="101.5" y="-79" font-family="Helvetica,sans-Serif" font-size="10.00">_ptr&lt; const Acts::Surface &gt; &gt;</text>
</a>
</g>
</g>
<!-- Node2&#45;&gt;Node1 -->
<g id="edge1_Node000001_Node000002" class="edge">
<title>Node2&#45;&gt;Node1</title>
<g id="a_edge1_Node000001_Node000002"><a xlink:title=" ">
<path fill="none" stroke="#9a32cd" stroke-dasharray="5,2" d="M101.5,-61.4C101.5,-46.81 101.5,-29.22 101.5,-19.01"/>
<polygon fill="#9a32cd" stroke="#9a32cd" points="98,-61.8 101.5,-71.8 105,-61.8 98,-61.8"/>
</a>
</g>
<text text-anchor="start" x="105" y="-42.5" font-family="Helvetica,sans-Serif" font-size="10.00" fill="grey">m_surfaces</text>
</g>
<!-- Node3 -->
<g id="Node000003" class="node">
<title>Node3</title>
<g id="a_Node000003"><a xlink:title=" ">
<polygon fill="white" stroke="#666666" points="150,-189 53,-189 53,-170 150,-170 150,-189"/>
<text text-anchor="middle" x="101.5" y="-177" font-family="Helvetica,sans-Serif" font-size="10.00">std::vector&lt; T &gt;</text>
</a>
</g>
</g>
<!-- Node3&#45;&gt;Node2 -->
<g id="edge2_Node000002_Node000003" class="edge">
<title>Node3&#45;&gt;Node2</title>
<g id="a_edge2_Node000002_Node000003"><a xlink:title=" ">
<path fill="none" stroke="orange" stroke-dasharray="5,2" d="M101.5,-159.38C101.5,-142.24 101.5,-117.49 101.5,-102.09"/>
<polygon fill="orange" stroke="orange" points="98,-159.82 101.5,-169.82 105,-159.82 98,-159.82"/>
</a>
</g>
<text text-anchor="start" x="105" y="-141" font-family="Helvetica,sans-Serif" font-size="10.00" fill="grey">&lt; std::shared_ptr&lt;</text>
<text text-anchor="start" x="105" y="-126" font-family="Helvetica,sans-Serif" font-size="10.00" fill="grey">   const Acts::Surface &gt; &gt;</text>
</g>
</g>
</svg>
