<?xml version="1.0" encoding="UTF-8" standalone="no"?>
<!DOCTYPE svg PUBLIC "-//W3C//DTD SVG 1.1//EN"
 "http://www.w3.org/Graphics/SVG/1.1/DTD/svg11.dtd">
<!-- Generated by graphviz version 2.43.0 (0)
 -->
<!-- Title: Acts::Experimental::GbtsTrackingFilter Pages: 1 -->
<!--zoomable 285 -->

<svg id="main" version="1.1" xmlns="http://www.w3.org/2000/svg" xmlns:xlink="http://www.w3.org/1999/xlink" xml:space="preserve" onload="init(evt)">

<style type="text/css"><![CDATA[
.node, .edge {opacity: 0.7;}
.node.selected, .edge.selected {opacity: 1;}
.edge:hover path { stroke: red; }
.edge:hover polygon { stroke: red; fill: red; }
]]></style>

<defs>
  <circle id="rim" cx="0" cy="0" r="7"/>
  <circle id="rim2" cx="0" cy="0" r="3.5"/>
  <g id="zoomPlus">
    <use xlink:href="#rim" fill="#404040"><set attributeName="fill" to="#808080" begin="zoomplus.mouseover" end="zoomplus.mouseout"/></use>
    <path d="M-4,0h8M0,-4v8" fill="none" stroke="white" stroke-width="1.5" pointer-events="none"/>
  </g>
  <g id="zoomMin">
    <use xlink:href="#rim" fill="#404040"><set attributeName="fill" to="#808080" begin="zoomminus.mouseover" end="zoomminus.mouseout"/></use>
    <path d="M-4,0h8" fill="none" stroke="white" stroke-width="1.5" pointer-events="none"/>
  </g>
  <g id="arrowUp" transform="translate(30 24)">
    <use xlink:href="#rim"/>
    <path pointer-events="none" fill="none" stroke="white" stroke-width="1.5" d="M0,-3.0v7 M-2.5,-0.5L0,-3.0L2.5,-0.5"/>
  </g>
  <g id="arrowRight" transform="rotate(90) translate(36 -43)">
    <use xlink:href="#rim"/>
    <path pointer-events="none" fill="none" stroke="white" stroke-width="1.5" d="M0,-3.0v7 M-2.5,-0.5L0,-3.0L2.5,-0.5"/>
  </g>
  <g id="arrowDown" transform="rotate(180) translate(-30 -48)">
    <use xlink:href="#rim"/>
    <path pointer-events="none" fill="none" stroke="white" stroke-width="1.5" d="M0,-3.0v7 M-2.5,-0.5L0,-3.0L2.5,-0.5"/>
  </g>
  <g id="arrowLeft" transform="rotate(270) translate(-36 17)">
    <use xlink:href="#rim"/>
    <path pointer-events="none" fill="none" stroke="white" stroke-width="1.5" d="M0,-3.0v7 M-2.5,-0.5L0,-3.0L2.5,-0.5"/>
  </g>
  <g id="resetDef">
    <use xlink:href="#rim2" fill="#404040"><set attributeName="fill" to="#808080" begin="reset.mouseover" end="reset.mouseout"/></use>
  </g>
</defs>
<script type="application/ecmascript">
var viewWidth = 820;
var viewHeight = 285;
var sectionId = 'dynsection-0';
</script>
<script type="application/ecmascript" xlink:href="svg.min.js"/>
<svg id="graph" class="graph">
<g id="viewport">
<title>Acts::Experimental::GbtsTrackingFilter</title>
<!-- Node1 -->
<g id="Node000001" class="node">
<title>Node1</title>
<g id="a_Node000001"><a xlink:title=" ">
<polygon fill="#999999" stroke="#666666" points="812,-155 702,-155 702,-125 812,-125 812,-155"/>
<text text-anchor="start" x="710" y="-143" font-family="Helvetica,sans-Serif" font-size="10.00">Acts::Experimental</text>
<text text-anchor="middle" x="757" y="-132" font-family="Helvetica,sans-Serif" font-size="10.00">::GbtsTrackingFilter</text>
</a>
</g>
</g>
<!-- Node2 -->
<g id="Node000002" class="node">
<title>Node2</title>
<g id="a_Node000002"><a xlink:title=" ">
<polygon fill="white" stroke="#666666" points="583,-259 404,-259 404,-229 583,-229 583,-259"/>
<text text-anchor="start" x="412" y="-247" font-family="Helvetica,sans-Serif" font-size="10.00">std::vector&lt; Acts::</text>
<text text-anchor="middle" x="493.5" y="-236" font-family="Helvetica,sans-Serif" font-size="10.00">Experimental::TrigInDetSiLayer &gt;</text>
</a>
</g>
</g>
<!-- Node2&#45;&gt;Node1 -->
<g id="edge1_Node000001_Node000002" class="edge">
<title>Node2&#45;&gt;Node1</title>
<g id="a_edge1_Node000001_Node000002"><a xlink:title=" ">
<path fill="none" stroke="#9a32cd" stroke-dasharray="5,2" d="M589.49,-226.52C620.53,-218.84 654.57,-208.24 684,-194 704.96,-183.86 725.91,-167.23 739.76,-155.1"/>
<polygon fill="#9a32cd" stroke="#9a32cd" points="588.43,-223.17 579.53,-228.91 590.07,-229.98 588.43,-223.17"/>
</a>
</g>
<text text-anchor="start" x="631" y="-225.5" font-family="Helvetica,sans-Serif" font-size="10.00" fill="grey">m_geo</text>
</g>
<!-- Node3 -->
<g id="Node000003" class="node">
<title>Node3</title>
<g id="a_Node000003"><a xlink:title=" ">
<polygon fill="white" stroke="#666666" points="238,-204.5 141,-204.5 141,-185.5 238,-185.5 238,-204.5"/>
<text text-anchor="middle" x="189.5" y="-192.5" font-family="Helvetica,sans-Serif" font-size="10.00">std::vector&lt; T &gt;</text>
</a>
</g>
</g>
<!-- Node3&#45;&gt;Node2 -->
<g id="edge2_Node000002_Node000003" class="edge">
<title>Node3&#45;&gt;Node2</title>
<g id="a_edge2_Node000002_Node000003"><a xlink:title=" ">
<path fill="none" stroke="orange" stroke-dasharray="5,2" d="M214.1,-209.78C226.17,-216.57 241.37,-224 256,-228 303.73,-241.06 358.8,-245.38 403.79,-246.29"/>
<polygon fill="orange" stroke="orange" points="215.56,-206.57 205.16,-204.54 212.02,-212.61 215.56,-206.57"/>
</a>
</g>
<text text-anchor="start" x="263.5" y="-266" font-family="Helvetica,sans-Serif" font-size="10.00" fill="grey">&lt; Acts::Experimental</text>
<text text-anchor="start" x="263.5" y="-251" font-family="Helvetica,sans-Serif" font-size="10.00" fill="grey">  ::TrigInDetSiLayer &gt;</text>
</g>
<!-- Node4 -->
<g id="Node000004" class="node">
<title>Node4</title>
<g id="a_Node000004"><a xlink:title=" ">
<polygon fill="white" stroke="#666666" points="566.5,-206 420.5,-206 420.5,-176 566.5,-176 566.5,-206"/>
<text text-anchor="start" x="428.5" y="-194" font-family="Helvetica,sans-Serif" font-size="10.00">std::vector&lt; Acts::</text>
<text text-anchor="middle" x="493.5" y="-183" font-family="Helvetica,sans-Serif" font-size="10.00">Experimental::GbtsEdge &gt;</text>
</a>
</g>
</g>
<!-- Node3&#45;&gt;Node4 -->
<g id="edge4_Node000004_Node000003" class="edge">
<title>Node3&#45;&gt;Node4</title>
<g id="a_edge4_Node000004_Node000003"><a xlink:title=" ">
<path fill="none" stroke="orange" stroke-dasharray="5,2" d="M248.12,-194.24C297.05,-193.59 367.53,-192.66 420.23,-191.96"/>
<polygon fill="orange" stroke="orange" points="247.97,-190.74 238.02,-194.37 248.07,-197.74 247.97,-190.74"/>
</a>
</g>
<text text-anchor="start" x="263.5" y="-215" font-family="Helvetica,sans-Serif" font-size="10.00" fill="grey">&lt; Acts::Experimental</text>
<text text-anchor="start" x="263.5" y="-200" font-family="Helvetica,sans-Serif" font-size="10.00" fill="grey">  ::GbtsEdge &gt;</text>
</g>
<!-- Node5 -->
<g id="Node000005" class="node">
<title>Node5</title>
<g id="a_Node000005"><a xlink:title=" ">
<polygon fill="white" stroke="#666666" points="583,-155 404,-155 404,-125 583,-125 583,-155"/>
<text text-anchor="start" x="412" y="-143" font-family="Helvetica,sans-Serif" font-size="10.00">std::vector&lt; Acts::</text>
<text text-anchor="middle" x="493.5" y="-132" font-family="Helvetica,sans-Serif" font-size="10.00">Experimental::GbtsEdgeState * &gt;</text>
</a>
</g>
</g>
<!-- Node3&#45;&gt;Node5 -->
<g id="edge6_Node000005_Node000003" class="edge">
<title>Node3&#45;&gt;Node5</title>
<g id="a_edge6_Node000005_Node000003"><a xlink:title=" ">
<path fill="none" stroke="orange" stroke-dasharray="5,2" d="M210.9,-179.43C223.26,-170.91 239.73,-161.07 256,-156 303.44,-141.21 358.74,-136.81 403.94,-136.29"/>
<polygon fill="orange" stroke="orange" points="208.78,-176.65 202.7,-185.32 212.86,-182.33 208.78,-176.65"/>
</a>
</g>
<text text-anchor="start" x="263.5" y="-177" font-family="Helvetica,sans-Serif" font-size="10.00" fill="grey">&lt; Acts::Experimental</text>
<text text-anchor="start" x="263.5" y="-162" font-family="Helvetica,sans-Serif" font-size="10.00" fill="grey">  ::GbtsEdgeState * &gt;</text>
</g>
<!-- Node4&#45;&gt;Node1 -->
<g id="edge3_Node000001_Node000004" class="edge">
<title>Node4&#45;&gt;Node1</title>
<g id="a_edge3_Node000001_Node000004"><a xlink:title=" ">
<path fill="none" stroke="#9a32cd" stroke-dasharray="5,2" d="M577.07,-180.25C610.46,-175.3 649.24,-168.79 684,-161 691.62,-159.29 699.63,-157.23 707.42,-155.08"/>
<polygon fill="#9a32cd" stroke="#9a32cd" points="576.29,-176.83 566.9,-181.74 577.3,-183.76 576.29,-176.83"/>
</a>
</g>
<text text-anchor="start" x="619" y="-178.5" font-family="Helvetica,sans-Serif" font-size="10.00" fill="grey">m_segStore</text>
</g>
<!-- Node5&#45;&gt;Node1 -->
<g id="edge5_Node000001_Node000005" class="edge">
<title>Node5&#45;&gt;Node1</title>
<g id="a_edge5_Node000001_Node000005"><a xlink:title=" ">
<path fill="none" stroke="#9a32cd" stroke-dasharray="5,2" d="M593.31,-140C630.12,-140 670.54,-140 701.88,-140"/>
<polygon fill="#9a32cd" stroke="#9a32cd" points="593.03,-136.5 583.03,-140 593.03,-143.5 593.03,-136.5"/>
</a>
</g>
<text text-anchor="start" x="619" y="-145.5" font-family="Helvetica,sans-Serif" font-size="10.00" fill="grey">m_stateVec</text>
</g>
<!-- Node6 -->
<g id="Node000006" class="node">
<title>Node6</title>
<g id="a_Node000006"><a xlink:title=" ">
<polygon fill="white" stroke="#666666" points="594,-100 393,-100 393,-70 594,-70 594,-100"/>
<text text-anchor="start" x="401" y="-88" font-family="Helvetica,sans-Serif" font-size="10.00">std::array&lt; Acts::Experimental</text>
<text text-anchor="middle" x="493.5" y="-77" font-family="Helvetica,sans-Serif" font-size="10.00">::GbtsEdgeState, MAX_EDGE_STATE &gt;</text>
</a>
</g>
</g>
<!-- Node6&#45;&gt;Node1 -->
<g id="edge7_Node000001_Node000006" class="edge">
<title>Node6&#45;&gt;Node1</title>
<g id="a_edge7_Node000001_Node000006"><a xlink:title=" ">
<path fill="none" stroke="#9a32cd" stroke-dasharray="5,2" d="M599.88,-101.86C627.38,-106.82 656.9,-112.64 684,-119 691.48,-120.76 699.33,-122.82 707,-124.95"/>
<polygon fill="#9a32cd" stroke="#9a32cd" points="600.31,-98.38 589.85,-100.07 599.08,-105.27 600.31,-98.38"/>
</a>
</g>
<text text-anchor="start" x="615" y="-124.5" font-family="Helvetica,sans-Serif" font-size="10.00" fill="grey">m_stateStore</text>
</g>
<!-- Node7 -->
<g id="Node000007" class="node">
<title>Node7</title>
<g id="a_Node000007"><a xlink:title=" ">
<polygon fill="white" stroke="#666666" points="235.5,-79.5 143.5,-79.5 143.5,-60.5 235.5,-60.5 235.5,-79.5"/>
<text text-anchor="middle" x="189.5" y="-67.5" font-family="Helvetica,sans-Serif" font-size="10.00">std::array&lt; T &gt;</text>
</a>
</g>
</g>
<!-- Node7&#45;&gt;Node6 -->
<g id="edge8_Node000006_Node000007" class="edge">
<title>Node7&#45;&gt;Node6</title>
<g id="a_edge8_Node000006_Node000007"><a xlink:title=" ">
<path fill="none" stroke="orange" stroke-dasharray="5,2" d="M245.66,-68.67C282.36,-68.19 331.6,-68.31 375,-71 380.84,-71.36 386.84,-71.82 392.89,-72.34"/>
<polygon fill="orange" stroke="orange" points="245.61,-65.17 235.66,-68.82 245.71,-72.17 245.61,-65.17"/>
</a>
</g>
<text text-anchor="start" x="259.5" y="-106.5" font-family="Helvetica,sans-Serif" font-size="10.00" fill="grey">&lt; Acts::Experimental</text>
<text text-anchor="start" x="259.5" y="-91.5" font-family="Helvetica,sans-Serif" font-size="10.00" fill="grey">  ::GbtsEdgeState, MAX</text>
<text text-anchor="start" x="259.5" y="-76.5" font-family="Helvetica,sans-Serif" font-size="10.00" fill="grey">  _EDGE_STATE &gt;</text>
</g>
<!-- Node8 -->
<g id="Node000008" class="node">
<title>Node8</title>
<g id="a_Node000008"><a xlink:href="struct_acts_1_1_experimental_1_1_seed_finder_gbts_config.html" target="_top" xlink:title=" ">
<polygon fill="white" stroke="#666666" points="558.5,-38 428.5,-38 428.5,-8 558.5,-8 558.5,-38"/>
<text text-anchor="start" x="436.5" y="-26" font-family="Helvetica,sans-Serif" font-size="10.00">Acts::Experimental</text>
<text text-anchor="middle" x="493.5" y="-15" font-family="Helvetica,sans-Serif" font-size="10.00">::SeedFinderGbtsConfig</text>
</a>
</g>
</g>
<!-- Node8&#45;&gt;Node1 -->
<g id="edge9_Node000001_Node000008" class="edge">
<title>Node8&#45;&gt;Node1</title>
<g id="a_edge9_Node000001_Node000008"><a xlink:title=" ">
<path fill="none" stroke="#9a32cd" stroke-dasharray="5,2" d="M568.64,-39.77C604.69,-49.57 647.92,-63.84 684,-83 705.26,-94.29 726.49,-112.09 740.33,-124.8"/>
<polygon fill="#9a32cd" stroke="#9a32cd" points="569.24,-36.3 558.67,-37.12 567.44,-43.07 569.24,-36.3"/>
</a>
</g>
<text text-anchor="start" x="626" y="-88.5" font-family="Helvetica,sans-Serif" font-size="10.00" fill="grey">m_config</text>
</g>
<!-- Node9 -->
<g id="Node000009" class="node">
<title>Node9</title>
<g id="a_Node000009"><a xlink:title=" ">
<polygon fill="white" stroke="#666666" points="222,-24.5 157,-24.5 157,-5.5 222,-5.5 222,-24.5"/>
<text text-anchor="middle" x="189.5" y="-12.5" font-family="Helvetica,sans-Serif" font-size="10.00">std::string</text>
</a>
</g>
</g>
<!-- Node9&#45;&gt;Node8 -->
<g id="edge10_Node000008_Node000009" class="edge">
<title>Node9&#45;&gt;Node8</title>
<g id="a_edge10_Node000008_Node000009"><a xlink:title=" ">
<path fill="none" stroke="#9a32cd" stroke-dasharray="5,2" d="M232.2,-14.58C269.6,-14.36 325.98,-14.41 375,-16 392.36,-16.56 411.15,-17.52 428.5,-18.56"/>
<polygon fill="#9a32cd" stroke="#9a32cd" points="232.15,-11.08 222.18,-14.65 232.2,-18.08 232.15,-11.08"/>
</a>
</g>
<text text-anchor="start" x="270.5" y="-37" font-family="Helvetica,sans-Serif" font-size="10.00" fill="grey">connectorInputFile</text>
<text text-anchor="start" x="270.5" y="-22" font-family="Helvetica,sans-Serif" font-size="10.00" fill="grey">lutInputFile</text>
</g>
<!-- Node10 -->
<g id="Node000010" class="node">
<title>Node10</title>
<g id="a_Node000010"><a xlink:title=" ">
<polygon fill="white" stroke="#666666" points="104,-30 0,-30 0,0 104,0 104,-30"/>
<text text-anchor="start" x="8" y="-18" font-family="Helvetica,sans-Serif" font-size="10.00">std::basic_string&lt;</text>
<text text-anchor="middle" x="52" y="-7" font-family="Helvetica,sans-Serif" font-size="10.00"> Char &gt;</text>
</a>
</g>
</g>
<!-- Node10&#45;&gt;Node9 -->
<g id="edge11_Node000009_Node000010" class="edge">
<title>Node10&#45;&gt;Node9</title>
<g id="a_edge11_Node000009_Node000010"><a xlink:title=" ">
<path fill="none" stroke="#63b8ff" d="M114.31,-15C129.02,-15 144.14,-15 156.85,-15"/>
<polygon fill="#63b8ff" stroke="#63b8ff" points="114.23,-11.5 104.23,-15 114.23,-18.5 114.23,-11.5"/>
</a>
</g>
</g>
</g>
</svg>

<g id="navigator" transform="translate(0 0)" fill="#404254">
  <rect fill="#f2f5e9" fill-opacity="0.5" stroke="#606060" stroke-width=".5" x="0" y="0" width="60" height="60"/>
  <use id="zoomplus" xlink:href="#zoomPlus" x="17" y="9" onmousedown="handleZoom(evt,'in')"/>
  <use id="zoomminus" xlink:href="#zoomMin" x="42" y="9" onmousedown="handleZoom(evt,'out')"/>
  <use id="reset" xlink:href="#resetDef" x="30" y="36" onmousedown="handleReset()"/>
   <use id="arrowup" xlink:href="#arrowUp" x="0" y="0" onmousedown="handlePan(0,-1)"/>
  <use id="arrowright" xlink:href="#arrowRight" x="0" y="0" onmousedown="handlePan(1,0)"/>
  <use id="arrowdown" xlink:href="#arrowDown" x="0" y="0" onmousedown="handlePan(0,1)"/>
  <use id="arrowleft" xlink:href="#arrowLeft" x="0" y="0" onmousedown="handlePan(-1,0)"/>
</g>
<svg viewBox="0 0 15 15" width="100%" height="30px" preserveAspectRatio="xMaxYMin meet">
 <g id="arrow_out" transform="scale(0.3 0.3)">
  <a xlink:href="class_acts_1_1_experimental_1_1_gbts_tracking_filter__coll__graph_org.svg" target="_base">
   <rect id="button" ry="5" rx="5" y="6" x="6" height="38" width="38"
        fill="#f2f5e9" fill-opacity="0.5" stroke="#606060" stroke-width="1.0"/>
   <path id="arrow"
     d="M 11.500037,31.436501 C 11.940474,20.09759 22.043105,11.32322 32.158766,21.979434 L 37.068811,17.246167 C 37.068811,17.246167 37.088388,32 37.088388,32 L 22.160133,31.978069 C 22.160133,31.978069 26.997745,27.140456 26.997745,27.140456 C 18.528582,18.264221 13.291696,25.230495 11.500037,31.436501 z"
     style="fill:#404040;"/>
  </a>
 </g>
</svg>

<style type='text/css'>
<![CDATA[
[data-mouse-over-selected='false'] { opacity: 0.7; }
[data-mouse-over-selected='true']  { opacity: 1.0; }
]]>
</style>
<script type="application/ecmascript"><![CDATA[
document.addEventListener('DOMContentLoaded', (event) => {
  highlightEdges();
  highlightAdjacentNodes();
});
]]></script>
</svg>
