<?xml version="1.0" encoding="UTF-8" standalone="no"?>
<!DOCTYPE svg PUBLIC "-//W3C//DTD SVG 1.1//EN"
 "http://www.w3.org/Graphics/SVG/1.1/DTD/svg11.dtd">
<!-- Generated by graphviz version 2.43.0 (0)
 -->
<!-- Title: Acts::CylinderSurface Pages: 1 -->
<svg width="1882pt" height="495pt"
 viewBox="0.00 0.00 1882.00 495.32" xmlns="http://www.w3.org/2000/svg" xmlns:xlink="http://www.w3.org/1999/xlink">
<g id="graph0" class="graph" transform="scale(1 1) rotate(0) translate(4 491.32)">
<title>Acts::CylinderSurface</title>
<!-- Node1 -->
<g id="Node000001" class="node">
<title>Node1</title>
<g id="a_Node000001"><a xlink:title="Class for a CylinderSurface in the TrackingGeometry.">
<polygon fill="#999999" stroke="#666666" points="1874,-149.56 1753,-149.56 1753,-130.56 1874,-130.56 1874,-149.56"/>
<text text-anchor="middle" x="1813.5" y="-137.56" font-family="Helvetica,sans-Serif" font-size="10.00">Acts::CylinderSurface</text>
</a>
</g>
</g>
<!-- Node2 -->
<g id="Node000002" class="node">
<title>Node2</title>
<g id="a_Node000002"><a xlink:href="class_acts_1_1_regular_surface.html" target="_top" xlink:title="A physical surface which does not depend on the direction you look at it from.">
<polygon fill="white" stroke="#666666" points="1716,-205.56 1598,-205.56 1598,-186.56 1716,-186.56 1716,-205.56"/>
<text text-anchor="middle" x="1657" y="-193.56" font-family="Helvetica,sans-Serif" font-size="10.00">Acts::RegularSurface</text>
</a>
</g>
</g>
<!-- Node2&#45;&gt;Node1 -->
<g id="edge1_Node000001_Node000002" class="edge">
<title>Node2&#45;&gt;Node1</title>
<g id="a_edge1_Node000001_Node000002"><a xlink:title=" ">
<path fill="none" stroke="#63b8ff" d="M1694.08,-182.98C1722.32,-172.75 1760.94,-158.75 1786.29,-149.56"/>
<polygon fill="#63b8ff" stroke="#63b8ff" points="1692.77,-179.74 1684.56,-186.43 1695.15,-186.32 1692.77,-179.74"/>
</a>
</g>
</g>
<!-- Node3 -->
<g id="Node000003" class="node">
<title>Node3</title>
<g id="a_Node000003"><a xlink:href="class_acts_1_1_surface.html" target="_top" xlink:title="Abstract Base Class for tracking surfaces.">
<polygon fill="white" stroke="#666666" points="1505,-251.56 1425,-251.56 1425,-232.56 1505,-232.56 1505,-251.56"/>
<text text-anchor="middle" x="1465" y="-239.56" font-family="Helvetica,sans-Serif" font-size="10.00">Acts::Surface</text>
</a>
</g>
</g>
<!-- Node3&#45;&gt;Node2 -->
<g id="edge2_Node000002_Node000003" class="edge">
<title>Node3&#45;&gt;Node2</title>
<g id="a_edge2_Node000002_Node000003"><a xlink:title=" ">
<path fill="none" stroke="#63b8ff" d="M1515.28,-230.13C1546.85,-222.49 1587.27,-212.7 1616.68,-205.58"/>
<polygon fill="#63b8ff" stroke="#63b8ff" points="1514.26,-226.77 1505.37,-232.53 1515.91,-233.58 1514.26,-226.77"/>
</a>
</g>
</g>
<!-- Node4 -->
<g id="Node000004" class="node">
<title>Node4</title>
<g id="a_Node000004"><a xlink:href="class_acts_1_1_geometry_object.html" target="_top" xlink:title="Base class to provide GeometryIdentifier interface:">
<polygon fill="white" stroke="#666666" points="374,-383.56 250,-383.56 250,-364.56 374,-364.56 374,-383.56"/>
<text text-anchor="middle" x="312" y="-371.56" font-family="Helvetica,sans-Serif" font-size="10.00">Acts::GeometryObject</text>
</a>
</g>
</g>
<!-- Node4&#45;&gt;Node3 -->
<g id="edge3_Node000003_Node000004" class="edge">
<title>Node4&#45;&gt;Node3</title>
<g id="a_edge3_Node000003_Node000004"><a xlink:title=" ">
<path fill="none" stroke="#63b8ff" d="M327.17,-391.47C352.41,-420.36 408.21,-475.06 469,-475.06 469,-475.06 469,-475.06 1179.5,-475.06 1281.27,-475.06 1329.69,-515.24 1407,-449.06 1438.15,-422.4 1457.86,-288.69 1462.78,-251.61"/>
<polygon fill="#63b8ff" stroke="#63b8ff" points="329.76,-389.1 320.62,-383.74 324.42,-393.63 329.76,-389.1"/>
</a>
</g>
</g>
<!-- Node12 -->
<g id="Node000012" class="node">
<title>Node12</title>
<g id="a_Node000012"><a xlink:href="class_acts_1_1_layer.html" target="_top" xlink:title="Base Class for a Detector Layer in the Tracking Geometry.">
<polygon fill="white" stroke="#666666" points="1214,-249.56 1143,-249.56 1143,-230.56 1214,-230.56 1214,-249.56"/>
<text text-anchor="middle" x="1178.5" y="-237.56" font-family="Helvetica,sans-Serif" font-size="10.00">Acts::Layer</text>
</a>
</g>
</g>
<!-- Node4&#45;&gt;Node12 -->
<g id="edge12_Node000012_Node000004" class="edge">
<title>Node4&#45;&gt;Node12</title>
<g id="a_edge12_Node000012_Node000004"><a xlink:title=" ">
<path fill="none" stroke="#63b8ff" d="M369.8,-362.65C383.27,-360.22 397.61,-357.85 411,-356.06 448.2,-351.1 1053.35,-319.72 1084,-298.06 1099.59,-287.04 1087.31,-271.25 1102,-259.06 1113.34,-249.65 1128.71,-244.81 1142.62,-242.36"/>
<polygon fill="#63b8ff" stroke="#63b8ff" points="368.91,-359.26 359.71,-364.52 370.18,-366.14 368.91,-359.26"/>
</a>
</g>
</g>
<!-- Node19 -->
<g id="Node000019" class="node">
<title>Node19</title>
<g id="a_Node000019"><a xlink:href="class_acts_1_1_volume.html" target="_top" xlink:title="It inherits from GeometryObject for geometry identification.">
<polygon fill="white" stroke="#666666" points="510,-383.56 430,-383.56 430,-364.56 510,-364.56 510,-383.56"/>
<text text-anchor="middle" x="470" y="-371.56" font-family="Helvetica,sans-Serif" font-size="10.00">Acts::Volume</text>
</a>
</g>
</g>
<!-- Node4&#45;&gt;Node19 -->
<g id="edge22_Node000019_Node000004" class="edge">
<title>Node4&#45;&gt;Node19</title>
<g id="a_edge22_Node000019_Node000004"><a xlink:title=" ">
<path fill="none" stroke="#63b8ff" d="M384.44,-374.06C400.12,-374.06 416.16,-374.06 430,-374.06"/>
<polygon fill="#63b8ff" stroke="#63b8ff" points="384.21,-370.56 374.21,-374.06 384.21,-377.56 384.21,-370.56"/>
</a>
</g>
</g>
<!-- Node5 -->
<g id="Node000005" class="node">
<title>Node5</title>
<g id="a_Node000005"><a xlink:href="class_acts_1_1_geometry_identifier.html" target="_top" xlink:title="Identifier for geometry nodes within the geometry hierarchy.">
<polygon fill="white" stroke="#666666" points="136,-383.56 0,-383.56 0,-364.56 136,-364.56 136,-383.56"/>
<text text-anchor="middle" x="68" y="-371.56" font-family="Helvetica,sans-Serif" font-size="10.00">Acts::GeometryIdentifier</text>
</a>
</g>
</g>
<!-- Node5&#45;&gt;Node4 -->
<g id="edge4_Node000004_Node000005" class="edge">
<title>Node5&#45;&gt;Node4</title>
<g id="a_edge4_Node000004_Node000005"><a xlink:title=" ">
<path fill="none" stroke="#9a32cd" stroke-dasharray="5,2" d="M146.31,-374.06C179.84,-374.06 218.54,-374.06 249.99,-374.06"/>
<polygon fill="#9a32cd" stroke="#9a32cd" points="146.09,-370.56 136.09,-374.06 146.09,-377.56 146.09,-370.56"/>
</a>
</g>
<text text-anchor="start" x="157" y="-379.56" font-family="Helvetica,sans-Serif" font-size="10.00" fill="grey">m_geometryId</text>
</g>
<!-- Node6 -->
<g id="Node000006" class="node">
<title>Node6</title>
<g id="a_Node000006"><a xlink:title=" ">
<polygon fill="white" stroke="#666666" points="1242.5,-298.06 1114.5,-298.06 1114.5,-268.06 1242.5,-268.06 1242.5,-298.06"/>
<text text-anchor="start" x="1122.5" y="-286.06" font-family="Helvetica,sans-Serif" font-size="10.00">std::enable_shared</text>
<text text-anchor="middle" x="1178.5" y="-275.06" font-family="Helvetica,sans-Serif" font-size="10.00">_from_this&lt; Surface &gt;</text>
</a>
</g>
</g>
<!-- Node6&#45;&gt;Node3 -->
<g id="edge5_Node000003_Node000006" class="edge">
<title>Node6&#45;&gt;Node3</title>
<g id="a_edge5_Node000003_Node000006"><a xlink:title=" ">
<path fill="none" stroke="#63b8ff" d="M1253.14,-280.84C1298.02,-278.36 1356.31,-273.12 1407,-262.06 1418.37,-259.58 1430.6,-255.49 1440.8,-251.65"/>
<polygon fill="#63b8ff" stroke="#63b8ff" points="1252.71,-277.36 1242.9,-281.37 1253.07,-284.35 1252.71,-277.36"/>
</a>
</g>
</g>
<!-- Node7 -->
<g id="Node000007" class="node">
<title>Node7</title>
<g id="a_Node000007"><a xlink:title=" ">
<polygon fill="white" stroke="#666666" points="1255,-446.56 1102,-446.56 1102,-405.56 1255,-405.56 1255,-446.56"/>
<text text-anchor="start" x="1110" y="-434.56" font-family="Helvetica,sans-Serif" font-size="10.00">std::array&lt; std::string</text>
<text text-anchor="start" x="1110" y="-423.56" font-family="Helvetica,sans-Serif" font-size="10.00">_view, Surface::SurfaceType</text>
<text text-anchor="middle" x="1178.5" y="-412.56" font-family="Helvetica,sans-Serif" font-size="10.00">::Other+1 &gt;</text>
</a>
</g>
</g>
<!-- Node7&#45;&gt;Node3 -->
<g id="edge6_Node000003_Node000007" class="edge">
<title>Node7&#45;&gt;Node3</title>
<g id="a_edge6_Node000003_Node000007"><a xlink:title=" ">
<path fill="none" stroke="#9a32cd" stroke-dasharray="5,2" d="M1265.1,-429.39C1311.7,-426.86 1367.69,-416.23 1407,-384.06 1449.56,-349.24 1460.56,-277.89 1463.21,-251.85"/>
<polygon fill="#9a32cd" stroke="#9a32cd" points="1264.84,-425.9 1255,-429.82 1265.14,-432.89 1264.84,-425.9"/>
</a>
</g>
<text text-anchor="start" x="1288" y="-433.56" font-family="Helvetica,sans-Serif" font-size="10.00" fill="grey">s_surfaceTypeNames</text>
</g>
<!-- Node8 -->
<g id="Node000008" class="node">
<title>Node8</title>
<g id="a_Node000008"><a xlink:title=" ">
<polygon fill="white" stroke="#666666" points="869,-422.56 777,-422.56 777,-403.56 869,-403.56 869,-422.56"/>
<text text-anchor="middle" x="823" y="-410.56" font-family="Helvetica,sans-Serif" font-size="10.00">std::array&lt; T &gt;</text>
</a>
</g>
</g>
<!-- Node8&#45;&gt;Node7 -->
<g id="edge7_Node000007_Node000008" class="edge">
<title>Node8&#45;&gt;Node7</title>
<g id="a_edge7_Node000007_Node000008"><a xlink:title=" ">
<path fill="none" stroke="orange" stroke-dasharray="5,2" d="M879.29,-411.29C931.97,-410.08 1013.48,-409.42 1084,-414.06 1089.8,-414.44 1095.78,-414.95 1101.8,-415.54"/>
<polygon fill="orange" stroke="orange" points="879.06,-407.8 869.15,-411.54 879.23,-414.8 879.06,-407.8"/>
</a>
</g>
<text text-anchor="start" x="945" y="-449.56" font-family="Helvetica,sans-Serif" font-size="10.00" fill="grey">&lt; std::string_view,</text>
<text text-anchor="start" x="945" y="-434.56" font-family="Helvetica,sans-Serif" font-size="10.00" fill="grey">   Surface::SurfaceType</text>
<text text-anchor="start" x="945" y="-419.56" font-family="Helvetica,sans-Serif" font-size="10.00" fill="grey">  ::Other+1 &gt;</text>
</g>
<!-- Node9 -->
<g id="Node000009" class="node">
<title>Node9</title>
<g id="a_Node000009"><a xlink:title=" ">
<polygon fill="white" stroke="#666666" points="1064.5,-97.06 937.5,-97.06 937.5,-67.06 1064.5,-67.06 1064.5,-97.06"/>
<text text-anchor="start" x="945.5" y="-85.06" font-family="Helvetica,sans-Serif" font-size="10.00">std::unique_ptr&lt; const</text>
<text text-anchor="middle" x="1001" y="-74.06" font-family="Helvetica,sans-Serif" font-size="10.00"> Transform3 &gt;</text>
</a>
</g>
</g>
<!-- Node9&#45;&gt;Node3 -->
<g id="edge8_Node000003_Node000009" class="edge">
<title>Node9&#45;&gt;Node3</title>
<g id="a_edge8_Node000003_Node000009"><a xlink:title=" ">
<path fill="none" stroke="#9a32cd" stroke-dasharray="5,2" d="M1074.5,-98.59C1077.71,-99.41 1080.89,-100.23 1084,-101.06 1228.86,-139.55 1273.67,-129.57 1407,-198.06 1425.01,-207.31 1443.05,-222.48 1453.87,-232.36"/>
<polygon fill="#9a32cd" stroke="#9a32cd" points="1075.33,-95.19 1064.78,-96.17 1073.64,-101.99 1075.33,-95.19"/>
</a>
</g>
<text text-anchor="start" x="1146.5" y="-145.56" font-family="Helvetica,sans-Serif" font-size="10.00" fill="grey">m_transform</text>
</g>
<!-- Node10 -->
<g id="Node000010" class="node">
<title>Node10</title>
<g id="a_Node000010"><a xlink:title=" ">
<polygon fill="white" stroke="#666666" points="529,-176.56 411,-176.56 411,-157.56 529,-157.56 529,-176.56"/>
<text text-anchor="middle" x="470" y="-164.56" font-family="Helvetica,sans-Serif" font-size="10.00">std::unique_ptr&lt; T &gt;</text>
</a>
</g>
</g>
<!-- Node10&#45;&gt;Node9 -->
<g id="edge9_Node000009_Node000010" class="edge">
<title>Node10&#45;&gt;Node9</title>
<g id="a_edge9_Node000009_Node000010"><a xlink:title=" ">
<path fill="none" stroke="orange" stroke-dasharray="5,2" d="M493.03,-152.08C507.72,-142.73 527.81,-131.16 547,-124.06 679.42,-75.09 847.77,-74.03 937.32,-77.85"/>
<polygon fill="orange" stroke="orange" points="491.09,-149.16 484.63,-157.55 494.91,-155.02 491.09,-149.16"/>
</a>
</g>
<text text-anchor="start" x="584.5" y="-129.56" font-family="Helvetica,sans-Serif" font-size="10.00" fill="grey">&lt; const Transform3 &gt;</text>
</g>
<!-- Node16 -->
<g id="Node000016" class="node">
<title>Node16</title>
<g id="a_Node000016"><a xlink:title=" ">
<polygon fill="white" stroke="#666666" points="886.5,-258.06 759.5,-258.06 759.5,-228.06 886.5,-228.06 886.5,-258.06"/>
<text text-anchor="start" x="767.5" y="-246.06" font-family="Helvetica,sans-Serif" font-size="10.00">std::unique_ptr&lt; const</text>
<text text-anchor="middle" x="823" y="-235.06" font-family="Helvetica,sans-Serif" font-size="10.00"> Acts::SurfaceArray &gt;</text>
</a>
</g>
</g>
<!-- Node10&#45;&gt;Node16 -->
<g id="edge17_Node000016_Node000010" class="edge">
<title>Node10&#45;&gt;Node16</title>
<g id="a_edge17_Node000016_Node000010"><a xlink:title=" ">
<path fill="none" stroke="orange" stroke-dasharray="5,2" d="M493.66,-182.16C508.28,-191.15 528.03,-201.97 547,-208.06 617.57,-230.72 702.75,-238.78 759.43,-241.61"/>
<polygon fill="orange" stroke="orange" points="495.18,-178.98 484.86,-176.58 491.43,-184.89 495.18,-178.98"/>
</a>
</g>
<text text-anchor="start" x="566.5" y="-244.56" font-family="Helvetica,sans-Serif" font-size="10.00" fill="grey">&lt; const Acts::SurfaceArray &gt;</text>
</g>
<!-- Node17 -->
<g id="Node000017" class="node">
<title>Node17</title>
<g id="a_Node000017"><a xlink:title=" ">
<polygon fill="white" stroke="#666666" points="900,-210.06 746,-210.06 746,-180.06 900,-180.06 900,-210.06"/>
<text text-anchor="start" x="754" y="-198.06" font-family="Helvetica,sans-Serif" font-size="10.00">std::unique_ptr&lt; const</text>
<text text-anchor="middle" x="823" y="-187.06" font-family="Helvetica,sans-Serif" font-size="10.00"> Acts::ApproachDescriptor &gt;</text>
</a>
</g>
</g>
<!-- Node10&#45;&gt;Node17 -->
<g id="edge19_Node000017_Node000010" class="edge">
<title>Node10&#45;&gt;Node17</title>
<g id="a_edge19_Node000017_Node000010"><a xlink:title=" ">
<path fill="none" stroke="orange" stroke-dasharray="5,2" d="M539.36,-172.51C598.6,-177.24 684.23,-184.07 745.69,-188.97"/>
<polygon fill="orange" stroke="orange" points="539.6,-169.02 529.35,-171.72 539.04,-176 539.6,-169.02"/>
</a>
</g>
<text text-anchor="start" x="550.5" y="-192.56" font-family="Helvetica,sans-Serif" font-size="10.00" fill="grey">&lt; const Acts::ApproachDescriptor &gt;</text>
</g>
<!-- Node20 -->
<g id="Node000020" class="node">
<title>Node20</title>
<g id="a_Node000020"><a xlink:title=" ">
<polygon fill="white" stroke="#666666" points="884,-162.06 762,-162.06 762,-132.06 884,-132.06 884,-162.06"/>
<text text-anchor="start" x="770" y="-150.06" font-family="Helvetica,sans-Serif" font-size="10.00">std::unique_ptr&lt; Acts</text>
<text text-anchor="middle" x="823" y="-139.06" font-family="Helvetica,sans-Serif" font-size="10.00">::Volume &gt;</text>
</a>
</g>
</g>
<!-- Node10&#45;&gt;Node20 -->
<g id="edge24_Node000020_Node000010" class="edge">
<title>Node10&#45;&gt;Node20</title>
<g id="a_edge24_Node000020_Node000010"><a xlink:title=" ">
<path fill="none" stroke="orange" stroke-dasharray="5,2" d="M522.15,-155.69C530.42,-154.22 538.92,-152.92 547,-152.06 620.71,-144.18 706.16,-144.02 762,-145.11"/>
<polygon fill="orange" stroke="orange" points="521.4,-152.27 512.21,-157.55 522.69,-159.15 521.4,-152.27"/>
</a>
</g>
<text text-anchor="start" x="594.5" y="-157.56" font-family="Helvetica,sans-Serif" font-size="10.00" fill="grey">&lt; Acts::Volume &gt;</text>
</g>
<!-- Node11 -->
<g id="Node000011" class="node">
<title>Node11</title>
<g id="a_Node000011"><a xlink:href="class_acts_1_1_detector_element_base.html" target="_top" xlink:title="This class is the base of all detector elements that are usable by ACTS.">
<polygon fill="white" stroke="#666666" points="1253.5,-211.56 1103.5,-211.56 1103.5,-192.56 1253.5,-192.56 1253.5,-211.56"/>
<text text-anchor="middle" x="1178.5" y="-199.56" font-family="Helvetica,sans-Serif" font-size="10.00">Acts::DetectorElementBase</text>
</a>
</g>
</g>
<!-- Node11&#45;&gt;Node3 -->
<g id="edge10_Node000003_Node000011" class="edge">
<title>Node11&#45;&gt;Node3</title>
<g id="a_edge10_Node000003_Node000011"><a xlink:title=" ">
<path fill="none" stroke="#9a32cd" stroke-dasharray="5,2" d="M1263.83,-202.19C1307.11,-203.8 1360.4,-208.2 1407,-219.06 1419.99,-222.09 1433.88,-227.64 1444.7,-232.54"/>
<polygon fill="#9a32cd" stroke="#9a32cd" points="1263.74,-198.68 1253.63,-201.85 1263.51,-205.68 1263.74,-198.68"/>
</a>
</g>
<text text-anchor="start" x="1277" y="-224.56" font-family="Helvetica,sans-Serif" font-size="10.00" fill="grey">m_associatedDetElement</text>
</g>
<!-- Node12&#45;&gt;Node3 -->
<g id="edge11_Node000003_Node000012" class="edge">
<title>Node12&#45;&gt;Node3</title>
<g id="a_edge11_Node000003_Node000012"><a xlink:title=" ">
<path fill="none" stroke="#9a32cd" stroke-dasharray="5,2" d="M1224.27,-240.37C1279.38,-240.76 1372.12,-241.41 1424.63,-241.78"/>
<polygon fill="#9a32cd" stroke="#9a32cd" points="1224.13,-236.87 1214.1,-240.3 1224.08,-243.87 1224.13,-236.87"/>
</a>
</g>
<text text-anchor="start" x="1293" y="-246.56" font-family="Helvetica,sans-Serif" font-size="10.00" fill="grey">m_associatedLayer</text>
</g>
<!-- Node13 -->
<g id="Node000013" class="node">
<title>Node13</title>
<g id="a_Node000013"><a xlink:title=" ">
<polygon fill="white" stroke="#666666" points="885,-306.06 761,-306.06 761,-276.06 885,-276.06 885,-306.06"/>
<text text-anchor="start" x="769" y="-294.06" font-family="Helvetica,sans-Serif" font-size="10.00">std::pair&lt; const Layer</text>
<text text-anchor="middle" x="823" y="-283.06" font-family="Helvetica,sans-Serif" font-size="10.00"> *, const Layer * &gt;</text>
</a>
</g>
</g>
<!-- Node13&#45;&gt;Node12 -->
<g id="edge13_Node000012_Node000013" class="edge">
<title>Node13&#45;&gt;Node12</title>
<g id="a_edge13_Node000012_Node000013"><a xlink:title=" ">
<path fill="none" stroke="#9a32cd" stroke-dasharray="5,2" d="M895.28,-283.26C947.63,-277.22 1020.39,-268.21 1084,-258.06 1103.59,-254.93 1125.36,-250.78 1142.96,-247.26"/>
<polygon fill="#9a32cd" stroke="#9a32cd" points="894.63,-279.81 885.1,-284.42 895.43,-286.76 894.63,-279.81"/>
</a>
</g>
<text text-anchor="start" x="966" y="-284.56" font-family="Helvetica,sans-Serif" font-size="10.00" fill="grey">m_nextLayers</text>
</g>
<!-- Node14 -->
<g id="Node000014" class="node">
<title>Node14</title>
<g id="a_Node000014"><a xlink:title=" ">
<polygon fill="white" stroke="#666666" points="524.5,-296.56 415.5,-296.56 415.5,-277.56 524.5,-277.56 524.5,-296.56"/>
<text text-anchor="middle" x="470" y="-284.56" font-family="Helvetica,sans-Serif" font-size="10.00">std::pair&lt; T1, T2 &gt;</text>
</a>
</g>
</g>
<!-- Node14&#45;&gt;Node13 -->
<g id="edge14_Node000013_Node000014" class="edge">
<title>Node14&#45;&gt;Node13</title>
<g id="a_edge14_Node000013_Node000014"><a xlink:title=" ">
<path fill="none" stroke="orange" stroke-dasharray="5,2" d="M534.74,-286.81C586.75,-286.73 662.13,-286.88 728,-288.06 738.61,-288.25 749.89,-288.54 760.82,-288.86"/>
<polygon fill="orange" stroke="orange" points="534.65,-283.31 524.66,-286.83 534.66,-290.31 534.65,-283.31"/>
</a>
</g>
<text text-anchor="start" x="583.5" y="-309.06" font-family="Helvetica,sans-Serif" font-size="10.00" fill="grey">&lt; const Layer *, const</text>
<text text-anchor="start" x="583.5" y="-294.06" font-family="Helvetica,sans-Serif" font-size="10.00" fill="grey">   Layer * &gt;</text>
</g>
<!-- Node15 -->
<g id="Node000015" class="node">
<title>Node15</title>
<g id="a_Node000015"><a xlink:href="class_acts_1_1_bin_utility.html" target="_top" xlink:title="The BinUtility class that translated global and local position into a bins of a BinnedArray,...">
<polygon fill="white" stroke="#666666" points="867.5,-113.56 778.5,-113.56 778.5,-94.56 867.5,-94.56 867.5,-113.56"/>
<text text-anchor="middle" x="823" y="-101.56" font-family="Helvetica,sans-Serif" font-size="10.00">Acts::BinUtility</text>
</a>
</g>
</g>
<!-- Node15&#45;&gt;Node12 -->
<g id="edge15_Node000012_Node000015" class="edge">
<title>Node15&#45;&gt;Node12</title>
<g id="a_edge15_Node000012_Node000015"><a xlink:title=" ">
<path fill="none" stroke="#9a32cd" stroke-dasharray="5,2" d="M878.01,-101.95C945.24,-100.53 1054.79,-102.56 1084,-129.06 1114.86,-157.05 1073.33,-190.82 1102,-221.06 1112.51,-232.14 1128.45,-237.15 1142.98,-239.27"/>
<polygon fill="#9a32cd" stroke="#9a32cd" points="877.51,-98.46 867.6,-102.21 877.68,-105.46 877.51,-98.46"/>
</a>
</g>
<text text-anchor="start" x="954" y="-134.56" font-family="Helvetica,sans-Serif" font-size="10.00" fill="grey">m_nextLayerUtility</text>
</g>
<!-- Node16&#45;&gt;Node12 -->
<g id="edge16_Node000012_Node000016" class="edge">
<title>Node16&#45;&gt;Node12</title>
<g id="a_edge16_Node000012_Node000016"><a xlink:title=" ">
<path fill="none" stroke="#9a32cd" stroke-dasharray="5,2" d="M897.04,-241.38C904.13,-241.26 911.2,-241.15 918,-241.06 998.41,-240.05 1092.85,-239.96 1142.66,-240"/>
<polygon fill="#9a32cd" stroke="#9a32cd" points="896.63,-237.89 886.7,-241.57 896.76,-244.89 896.63,-237.89"/>
</a>
</g>
<text text-anchor="start" x="962" y="-246.56" font-family="Helvetica,sans-Serif" font-size="10.00" fill="grey">m_surfaceArray</text>
</g>
<!-- Node17&#45;&gt;Node12 -->
<g id="edge18_Node000012_Node000017" class="edge">
<title>Node17&#45;&gt;Node12</title>
<g id="a_edge18_Node000012_Node000017"><a xlink:title=" ">
<path fill="none" stroke="#9a32cd" stroke-dasharray="5,2" d="M910.29,-199.59C961.09,-203.03 1026.45,-208.79 1084,-218.06 1103.59,-221.22 1125.17,-226.19 1142.66,-230.61"/>
<polygon fill="#9a32cd" stroke="#9a32cd" points="910.22,-196.08 900.01,-198.91 909.76,-203.07 910.22,-196.08"/>
</a>
</g>
<text text-anchor="start" x="946" y="-223.56" font-family="Helvetica,sans-Serif" font-size="10.00" fill="grey">m_approachDescriptor</text>
</g>
<!-- Node18 -->
<g id="Node000018" class="node">
<title>Node18</title>
<g id="a_Node000018"><a xlink:href="class_acts_1_1_tracking_volume.html" target="_top" xlink:title="Full Volume description used in Tracking, it inherits from Volume to get the geometrical structure.">
<polygon fill="white" stroke="#666666" points="883.5,-383.56 762.5,-383.56 762.5,-364.56 883.5,-364.56 883.5,-383.56"/>
<text text-anchor="middle" x="823" y="-371.56" font-family="Helvetica,sans-Serif" font-size="10.00">Acts::TrackingVolume</text>
</a>
</g>
</g>
<!-- Node18&#45;&gt;Node3 -->
<g id="edge25_Node000003_Node000018" class="edge">
<title>Node18&#45;&gt;Node3</title>
<g id="a_edge25_Node000003_Node000018"><a xlink:title=" ">
<path fill="none" stroke="#9a32cd" stroke-dasharray="5,2" d="M893.9,-374.83C946.44,-374.51 1020.05,-372.14 1084,-363.06 1230.32,-342.28 1273.13,-346.67 1407,-284.06 1424.82,-275.73 1442.63,-261.41 1453.48,-251.83"/>
<polygon fill="#9a32cd" stroke="#9a32cd" points="893.67,-371.33 883.68,-374.87 893.69,-378.33 893.67,-371.33"/>
</a>
</g>
<text text-anchor="start" x="1106.5" y="-365.56" font-family="Helvetica,sans-Serif" font-size="10.00" fill="grey">m_associatedTrackingVolume</text>
</g>
<!-- Node18&#45;&gt;Node12 -->
<g id="edge20_Node000012_Node000018" class="edge">
<title>Node18&#45;&gt;Node12</title>
<g id="a_edge20_Node000012_Node000018"><a xlink:title=" ">
<path fill="none" stroke="#9a32cd" stroke-dasharray="5,2" d="M861.69,-361.41C878.73,-356.06 899.22,-350.13 918,-346.06 954.4,-338.17 1055.93,-347.54 1084,-323.06 1106.27,-303.64 1080.82,-279.66 1102,-259.06 1112.75,-248.6 1128.38,-243.64 1142.62,-241.37"/>
<polygon fill="#9a32cd" stroke="#9a32cd" points="860.55,-358.1 852.09,-364.47 862.68,-364.76 860.55,-358.1"/>
</a>
</g>
<text text-anchor="start" x="955" y="-351.56" font-family="Helvetica,sans-Serif" font-size="10.00" fill="grey">m_trackingVolume</text>
</g>
<!-- Node19&#45;&gt;Node18 -->
<g id="edge21_Node000018_Node000019" class="edge">
<title>Node19&#45;&gt;Node18</title>
<g id="a_edge21_Node000018_Node000019"><a xlink:title=" ">
<path fill="none" stroke="#63b8ff" d="M520.4,-374.06C583.91,-374.06 694.11,-374.06 762.26,-374.06"/>
<polygon fill="#63b8ff" stroke="#63b8ff" points="520.24,-370.56 510.24,-374.06 520.24,-377.56 520.24,-370.56"/>
</a>
</g>
</g>
<!-- Node20&#45;&gt;Node12 -->
<g id="edge23_Node000012_Node000020" class="edge">
<title>Node20&#45;&gt;Node12</title>
<g id="a_edge23_Node000012_Node000020"><a xlink:title=" ">
<path fill="none" stroke="#9a32cd" stroke-dasharray="5,2" d="M894.25,-147.98C960.86,-150.19 1054.94,-157.24 1084,-179.06 1100.24,-191.26 1086.55,-207.88 1102,-221.06 1113.31,-230.71 1128.84,-235.57 1142.88,-237.98"/>
<polygon fill="#9a32cd" stroke="#9a32cd" points="894.32,-144.48 884.22,-147.67 894.11,-151.47 894.32,-144.48"/>
</a>
</g>
<text text-anchor="start" x="944" y="-184.56" font-family="Helvetica,sans-Serif" font-size="10.00" fill="grey">m_representingVolume</text>
</g>
<!-- Node21 -->
<g id="Node000021" class="node">
<title>Node21</title>
<g id="a_Node000021"><a xlink:title=" ">
<polygon fill="white" stroke="#666666" points="1247.5,-77.06 1109.5,-77.06 1109.5,-47.06 1247.5,-47.06 1247.5,-77.06"/>
<text text-anchor="start" x="1117.5" y="-65.06" font-family="Helvetica,sans-Serif" font-size="10.00">std::shared_ptr&lt; const</text>
<text text-anchor="middle" x="1178.5" y="-54.06" font-family="Helvetica,sans-Serif" font-size="10.00"> Acts::ISurfaceMaterial &gt;</text>
</a>
</g>
</g>
<!-- Node21&#45;&gt;Node3 -->
<g id="edge26_Node000003_Node000021" class="edge">
<title>Node21&#45;&gt;Node3</title>
<g id="a_edge26_Node000003_Node000021"><a xlink:title=" ">
<path fill="none" stroke="#9a32cd" stroke-dasharray="5,2" d="M1257.76,-61.54C1305.62,-65.11 1365.42,-77 1407,-111.06 1446.33,-143.28 1459.22,-207.9 1462.8,-232.37"/>
<polygon fill="#9a32cd" stroke="#9a32cd" points="1257.94,-58.05 1247.74,-60.9 1257.5,-65.03 1257.94,-58.05"/>
</a>
</g>
<text text-anchor="start" x="1294" y="-116.56" font-family="Helvetica,sans-Serif" font-size="10.00" fill="grey">m_surfaceMaterial</text>
</g>
<!-- Node22 -->
<g id="Node000022" class="node">
<title>Node22</title>
<g id="a_Node000022"><a xlink:title=" ">
<polygon fill="white" stroke="#666666" points="882,-25.56 764,-25.56 764,-6.56 882,-6.56 882,-25.56"/>
<text text-anchor="middle" x="823" y="-13.56" font-family="Helvetica,sans-Serif" font-size="10.00">std::shared_ptr&lt; T &gt;</text>
</a>
</g>
</g>
<!-- Node22&#45;&gt;Node21 -->
<g id="edge27_Node000021_Node000022" class="edge">
<title>Node22&#45;&gt;Node21</title>
<g id="a_edge27_Node000021_Node000022"><a xlink:title=" ">
<path fill="none" stroke="orange" stroke-dasharray="5,2" d="M892.08,-21.63C956.46,-27.08 1048.35,-35.37 1084,-41.06 1094.27,-42.7 1105.1,-44.79 1115.6,-47.02"/>
<polygon fill="orange" stroke="orange" points="892.26,-18.14 882,-20.79 891.67,-25.11 892.26,-18.14"/>
</a>
</g>
<text text-anchor="start" x="921" y="-46.56" font-family="Helvetica,sans-Serif" font-size="10.00" fill="grey">&lt; const Acts::ISurfaceMaterial &gt;</text>
</g>
<!-- Node23 -->
<g id="Node000023" class="node">
<title>Node23</title>
<g id="a_Node000023"><a xlink:title=" ">
<polygon fill="white" stroke="#666666" points="1407,-37.06 1273,-37.06 1273,-7.06 1407,-7.06 1407,-37.06"/>
<text text-anchor="start" x="1281" y="-25.06" font-family="Helvetica,sans-Serif" font-size="10.00">std::shared_ptr&lt; const</text>
<text text-anchor="middle" x="1340" y="-14.06" font-family="Helvetica,sans-Serif" font-size="10.00"> Acts::CylinderBounds &gt;</text>
</a>
</g>
</g>
<!-- Node22&#45;&gt;Node23 -->
<g id="edge29_Node000023_Node000022" class="edge">
<title>Node22&#45;&gt;Node23</title>
<g id="a_edge29_Node000023_Node000022"><a xlink:title=" ">
<path fill="none" stroke="orange" stroke-dasharray="5,2" d="M892.15,-5.51C900.83,-4.5 909.61,-3.64 918,-3.06 1043.36,5.57 1190.01,-5.93 1272.95,-14.44"/>
<polygon fill="orange" stroke="orange" points="891.53,-2.06 882.04,-6.76 892.39,-9.01 891.53,-2.06"/>
</a>
</g>
<text text-anchor="start" x="923" y="-8.56" font-family="Helvetica,sans-Serif" font-size="10.00" fill="grey">&lt; const Acts::CylinderBounds &gt;</text>
</g>
<!-- Node23&#45;&gt;Node1 -->
<g id="edge28_Node000001_Node000023" class="edge">
<title>Node23&#45;&gt;Node1</title>
<g id="a_edge28_Node000001_Node000023"><a xlink:title=" ">
<path fill="none" stroke="#9a32cd" stroke-dasharray="5,2" d="M1411.01,-39.58C1512.08,-64.88 1695.39,-110.75 1774.49,-130.55"/>
<polygon fill="#9a32cd" stroke="#9a32cd" points="1411.75,-36.16 1401.19,-37.12 1410.05,-42.95 1411.75,-36.16"/>
</a>
</g>
<text text-anchor="start" x="1526.5" y="-87.56" font-family="Helvetica,sans-Serif" font-size="10.00" fill="grey">m_bounds</text>
</g>
</g>
</svg>
