<?xml version="1.0" encoding="UTF-8" standalone="no"?>
<!DOCTYPE svg PUBLIC "-//W3C//DTD SVG 1.1//EN"
 "http://www.w3.org/Graphics/SVG/1.1/DTD/svg11.dtd">
<!-- Generated by graphviz version 2.43.0 (0)
 -->
<!-- Title: Acts::Experimental::GbtsLayer Pages: 1 -->
<svg width="378pt" height="238pt"
 viewBox="0.00 0.00 377.50 238.00" xmlns="http://www.w3.org/2000/svg" xmlns:xlink="http://www.w3.org/1999/xlink">
<g id="graph0" class="graph" transform="scale(1 1) rotate(0) translate(4 234)">
<title>Acts::Experimental::GbtsLayer</title>
<!-- Node1 -->
<g id="Node000001" class="node">
<title>Node1</title>
<g id="a_Node000001"><a xlink:title=" ">
<polygon fill="#999999" stroke="#666666" points="234,-30 125,-30 125,0 234,0 234,-30"/>
<text text-anchor="start" x="133" y="-18" font-family="Helvetica,sans-Serif" font-size="10.00">Acts::Experimental</text>
<text text-anchor="middle" x="179.5" y="-7" font-family="Helvetica,sans-Serif" font-size="10.00">::GbtsLayer</text>
</a>
</g>
</g>
<!-- Node2 -->
<g id="Node000002" class="node">
<title>Node2</title>
<g id="a_Node000002"><a xlink:href="class_acts_1_1_experimental_1_1_trig_in_det_si_layer.html" target="_top" xlink:title=" ">
<polygon fill="white" stroke="#666666" points="109,-158 0,-158 0,-128 109,-128 109,-158"/>
<text text-anchor="start" x="8" y="-146" font-family="Helvetica,sans-Serif" font-size="10.00">Acts::Experimental</text>
<text text-anchor="middle" x="54.5" y="-135" font-family="Helvetica,sans-Serif" font-size="10.00">::TrigInDetSiLayer</text>
</a>
</g>
</g>
<!-- Node2&#45;&gt;Node1 -->
<g id="edge1_Node000001_Node000002" class="edge">
<title>Node2&#45;&gt;Node1</title>
<g id="a_edge1_Node000001_Node000002"><a xlink:title=" ">
<path fill="none" stroke="#9a32cd" stroke-dasharray="5,2" d="M69.31,-119.44C83.27,-99.24 105.58,-69.55 129.5,-48 136.85,-41.38 145.72,-35.22 153.93,-30.11"/>
<polygon fill="#9a32cd" stroke="#9a32cd" points="66.4,-117.5 63.68,-127.74 72.19,-121.43 66.4,-117.5"/>
</a>
</g>
<text text-anchor="start" x="132.5" y="-76" font-family="Helvetica,sans-Serif" font-size="10.00" fill="grey">m_layer</text>
</g>
<!-- Node3 -->
<g id="Node000003" class="node">
<title>Node3</title>
<g id="a_Node000003"><a xlink:title=" ">
<polygon fill="white" stroke="#666666" points="231.5,-152.5 127.5,-152.5 127.5,-133.5 231.5,-133.5 231.5,-152.5"/>
<text text-anchor="middle" x="179.5" y="-140.5" font-family="Helvetica,sans-Serif" font-size="10.00">std::vector&lt; int &gt;</text>
</a>
</g>
</g>
<!-- Node3&#45;&gt;Node1 -->
<g id="edge2_Node000001_Node000003" class="edge">
<title>Node3&#45;&gt;Node1</title>
<g id="a_edge2_Node000001_Node000003"><a xlink:title=" ">
<path fill="none" stroke="#9a32cd" stroke-dasharray="5,2" d="M179.5,-123.18C179.5,-97.8 179.5,-53.16 179.5,-30.33"/>
<polygon fill="#9a32cd" stroke="#9a32cd" points="176,-123.34 179.5,-133.34 183,-123.34 176,-123.34"/>
</a>
</g>
<text text-anchor="start" x="182.5" y="-76" font-family="Helvetica,sans-Serif" font-size="10.00" fill="grey">m_bins</text>
</g>
<!-- Node4 -->
<g id="Node000004" class="node">
<title>Node4</title>
<g id="a_Node000004"><a xlink:title=" ">
<polygon fill="white" stroke="#666666" points="291,-230 194,-230 194,-211 291,-211 291,-230"/>
<text text-anchor="middle" x="242.5" y="-218" font-family="Helvetica,sans-Serif" font-size="10.00">std::vector&lt; T &gt;</text>
</a>
</g>
</g>
<!-- Node4&#45;&gt;Node3 -->
<g id="edge3_Node000003_Node000004" class="edge">
<title>Node4&#45;&gt;Node3</title>
<g id="a_edge3_Node000003_Node000004"><a xlink:title=" ">
<path fill="none" stroke="orange" stroke-dasharray="5,2" d="M228.77,-203.05C215.8,-187.5 196.85,-164.79 186.64,-152.56"/>
<polygon fill="orange" stroke="orange" points="226.18,-205.4 235.27,-210.84 231.55,-200.92 226.18,-205.4"/>
</a>
</g>
<text text-anchor="start" x="223.5" y="-181.5" font-family="Helvetica,sans-Serif" font-size="10.00" fill="grey">&lt; int &gt;</text>
</g>
<!-- Node5 -->
<g id="Node000005" class="node">
<title>Node5</title>
<g id="a_Node000005"><a xlink:title=" ">
<polygon fill="white" stroke="#666666" points="363,-152.5 250,-152.5 250,-133.5 363,-133.5 363,-152.5"/>
<text text-anchor="middle" x="306.5" y="-140.5" font-family="Helvetica,sans-Serif" font-size="10.00">std::vector&lt; float &gt;</text>
</a>
</g>
</g>
<!-- Node4&#45;&gt;Node5 -->
<g id="edge5_Node000005_Node000004" class="edge">
<title>Node4&#45;&gt;Node5</title>
<g id="a_edge5_Node000005_Node000004"><a xlink:title=" ">
<path fill="none" stroke="orange" stroke-dasharray="5,2" d="M257.36,-203.36C260.41,-199.97 263.59,-196.39 266.5,-193 278.39,-179.18 291.68,-162.68 299.55,-152.79"/>
<polygon fill="orange" stroke="orange" points="254.76,-201.02 250.61,-210.77 259.93,-205.73 254.76,-201.02"/>
</a>
</g>
<text text-anchor="start" x="284" y="-181.5" font-family="Helvetica,sans-Serif" font-size="10.00" fill="grey">&lt; float &gt;</text>
</g>
<!-- Node5&#45;&gt;Node1 -->
<g id="edge4_Node000001_Node000005" class="edge">
<title>Node5&#45;&gt;Node1</title>
<g id="a_edge4_Node000001_Node000005"><a xlink:title=" ">
<path fill="none" stroke="#9a32cd" stroke-dasharray="5,2" d="M294.19,-125.29C279.21,-105.58 252.56,-72.39 225.5,-48 218.42,-41.62 210.02,-35.43 202.35,-30.23"/>
<polygon fill="#9a32cd" stroke="#9a32cd" points="291.41,-127.42 300.21,-133.32 297.01,-123.22 291.41,-127.42"/>
</a>
</g>
<text text-anchor="start" x="284.5" y="-99" font-family="Helvetica,sans-Serif" font-size="10.00" fill="grey">m_maxBinCoord</text>
<text text-anchor="start" x="284.5" y="-84" font-family="Helvetica,sans-Serif" font-size="10.00" fill="grey">m_maxRadius</text>
<text text-anchor="start" x="284.5" y="-69" font-family="Helvetica,sans-Serif" font-size="10.00" fill="grey">m_minBinCoord</text>
<text text-anchor="start" x="284.5" y="-54" font-family="Helvetica,sans-Serif" font-size="10.00" fill="grey">m_minRadius</text>
</g>
</g>
</svg>
