<?xml version="1.0" encoding="UTF-8" standalone="no"?>
<!DOCTYPE svg PUBLIC "-//W3C//DTD SVG 1.1//EN"
 "http://www.w3.org/Graphics/SVG/1.1/DTD/svg11.dtd">
<!-- Generated by graphviz version 2.43.0 (0)
 -->
<!-- Title: Acts::ISurfaceMaterial Pages: 1 -->
<!--zoomable 440 -->

<svg id="main" version="1.1" xmlns="http://www.w3.org/2000/svg" xmlns:xlink="http://www.w3.org/1999/xlink" xml:space="preserve" onload="init(evt)">

<style type="text/css"><![CDATA[
.node, .edge {opacity: 0.7;}
.node.selected, .edge.selected {opacity: 1;}
.edge:hover path { stroke: red; }
.edge:hover polygon { stroke: red; fill: red; }
]]></style>

<defs>
  <circle id="rim" cx="0" cy="0" r="7"/>
  <circle id="rim2" cx="0" cy="0" r="3.5"/>
  <g id="zoomPlus">
    <use xlink:href="#rim" fill="#404040"><set attributeName="fill" to="#808080" begin="zoomplus.mouseover" end="zoomplus.mouseout"/></use>
    <path d="M-4,0h8M0,-4v8" fill="none" stroke="white" stroke-width="1.5" pointer-events="none"/>
  </g>
  <g id="zoomMin">
    <use xlink:href="#rim" fill="#404040"><set attributeName="fill" to="#808080" begin="zoomminus.mouseover" end="zoomminus.mouseout"/></use>
    <path d="M-4,0h8" fill="none" stroke="white" stroke-width="1.5" pointer-events="none"/>
  </g>
  <g id="arrowUp" transform="translate(30 24)">
    <use xlink:href="#rim"/>
    <path pointer-events="none" fill="none" stroke="white" stroke-width="1.5" d="M0,-3.0v7 M-2.5,-0.5L0,-3.0L2.5,-0.5"/>
  </g>
  <g id="arrowRight" transform="rotate(90) translate(36 -43)">
    <use xlink:href="#rim"/>
    <path pointer-events="none" fill="none" stroke="white" stroke-width="1.5" d="M0,-3.0v7 M-2.5,-0.5L0,-3.0L2.5,-0.5"/>
  </g>
  <g id="arrowDown" transform="rotate(180) translate(-30 -48)">
    <use xlink:href="#rim"/>
    <path pointer-events="none" fill="none" stroke="white" stroke-width="1.5" d="M0,-3.0v7 M-2.5,-0.5L0,-3.0L2.5,-0.5"/>
  </g>
  <g id="arrowLeft" transform="rotate(270) translate(-36 17)">
    <use xlink:href="#rim"/>
    <path pointer-events="none" fill="none" stroke="white" stroke-width="1.5" d="M0,-3.0v7 M-2.5,-0.5L0,-3.0L2.5,-0.5"/>
  </g>
  <g id="resetDef">
    <use xlink:href="#rim2" fill="#404040"><set attributeName="fill" to="#808080" begin="reset.mouseover" end="reset.mouseout"/></use>
  </g>
</defs>
<script type="application/ecmascript">
var viewWidth = 1649;
var viewHeight = 440;
var sectionId = 'dynsection-0';
</script>
<script type="application/ecmascript" xlink:href="svg.min.js"/>
<svg id="graph" class="graph">
<g id="viewport">
<title>Acts::ISurfaceMaterial</title>
<!-- Node1 -->
<g id="Node000001" class="node">
<title>Node1</title>
<g id="a_Node000001"><a xlink:title="Base class of all surface&#45;based material description.">
<polygon fill="#999999" stroke="#666666" points="124,-302 0,-302 0,-283 124,-283 124,-302"/>
<text text-anchor="middle" x="62" y="-290" font-family="Helvetica,sans-Serif" font-size="10.00">Acts::ISurfaceMaterial</text>
</a>
</g>
</g>
<!-- Node2 -->
<g id="Node000002" class="node">
<title>Node2</title>
<g id="a_Node000002"><a xlink:href="class_acts_1_1_proto_surface_material_t.html" target="_top" xlink:title=" ">
<polygon fill="white" stroke="#666666" points="689.5,-430.5 543.5,-430.5 543.5,-400.5 689.5,-400.5 689.5,-430.5"/>
<text text-anchor="start" x="551.5" y="-418.5" font-family="Helvetica,sans-Serif" font-size="10.00">Acts::ProtoSurfaceMaterial</text>
<text text-anchor="middle" x="616.5" y="-407.5" font-family="Helvetica,sans-Serif" font-size="10.00">T&lt; Acts::BinUtility &gt;</text>
</a>
</g>
</g>
<!-- Node1&#45;&gt;Node2 -->
<g id="edge1_Node000001_Node000002" class="edge">
<title>Node1&#45;&gt;Node2</title>
<g id="a_edge1_Node000001_Node000002"><a xlink:title=" ">
<path fill="none" stroke="#63b8ff" d="M77.45,-309.66C95.08,-329.44 126.81,-361.41 161,-378.5 284.22,-440.08 449.9,-435.04 543.4,-425.5"/>
<polygon fill="#63b8ff" stroke="#63b8ff" points="79.99,-307.26 70.78,-302.01 74.71,-311.85 79.99,-307.26"/>
</a>
</g>
</g>
<!-- Node3 -->
<g id="Node000003" class="node">
<title>Node3</title>
<g id="a_Node000003"><a xlink:title=" ">
<polygon fill="white" stroke="#666666" points="720,-343.5 513,-343.5 513,-313.5 720,-313.5 720,-343.5"/>
<text text-anchor="start" x="521" y="-331.5" font-family="Helvetica,sans-Serif" font-size="10.00">Acts::ProtoSurfaceMaterial</text>
<text text-anchor="middle" x="616.5" y="-320.5" font-family="Helvetica,sans-Serif" font-size="10.00">T&lt; std::vector&lt; DirectedProtoAxis &gt; &gt;</text>
</a>
</g>
</g>
<!-- Node1&#45;&gt;Node3 -->
<g id="edge2_Node000001_Node000003" class="edge">
<title>Node1&#45;&gt;Node3</title>
<g id="a_edge2_Node000001_Node000003"><a xlink:title=" ">
<path fill="none" stroke="#63b8ff" d="M134.46,-297.16C230.77,-303.43 402.83,-314.64 512.94,-321.82"/>
<polygon fill="#63b8ff" stroke="#63b8ff" points="134.44,-293.65 124.24,-296.49 133.99,-300.63 134.44,-293.65"/>
</a>
</g>
</g>
<!-- Node4 -->
<g id="Node000004" class="node">
<title>Node4</title>
<g id="a_Node000004"><a xlink:href="class_acts_1_1_binned_surface_material.html" target="_top" xlink:title="It extends the ISurfaceMaterial base class and is an array pf MaterialSlab.">
<polygon fill="white" stroke="#666666" points="322.5,-283 167.5,-283 167.5,-264 322.5,-264 322.5,-283"/>
<text text-anchor="middle" x="245" y="-271" font-family="Helvetica,sans-Serif" font-size="10.00">Acts::BinnedSurfaceMaterial</text>
</a>
</g>
</g>
<!-- Node1&#45;&gt;Node4 -->
<g id="edge3_Node000001_Node000004" class="edge">
<title>Node1&#45;&gt;Node4</title>
<g id="a_edge3_Node000001_Node000004"><a xlink:title=" ">
<path fill="none" stroke="#63b8ff" d="M134.25,-285.02C145.07,-283.89 156.26,-282.71 167.19,-281.56"/>
<polygon fill="#63b8ff" stroke="#63b8ff" points="133.61,-281.57 124.03,-286.09 134.34,-288.53 133.61,-281.57"/>
</a>
</g>
</g>
<!-- Node5 -->
<g id="Node000005" class="node">
<title>Node5</title>
<g id="a_Node000005"><a xlink:href="class_acts_1_1_homogeneous_surface_material.html" target="_top" xlink:title="It extends the ISurfaceMaterial virtual base class to describe a simple homogeneous material on a sur...">
<polygon fill="white" stroke="#666666" points="320.5,-245.5 169.5,-245.5 169.5,-215.5 320.5,-215.5 320.5,-245.5"/>
<text text-anchor="start" x="177.5" y="-233.5" font-family="Helvetica,sans-Serif" font-size="10.00">Acts::HomogeneousSurface</text>
<text text-anchor="middle" x="245" y="-222.5" font-family="Helvetica,sans-Serif" font-size="10.00">Material</text>
</a>
</g>
</g>
<!-- Node1&#45;&gt;Node5 -->
<g id="edge4_Node000001_Node000005" class="edge">
<title>Node1&#45;&gt;Node5</title>
<g id="a_edge4_Node000001_Node000005"><a xlink:title=" ">
<path fill="none" stroke="#63b8ff" d="M96.35,-279.26C115.21,-271.94 139.29,-262.86 161,-255.5 170.98,-252.12 181.7,-248.72 192.02,-245.56"/>
<polygon fill="#63b8ff" stroke="#63b8ff" points="95.04,-276.01 87,-282.91 97.59,-282.53 95.04,-276.01"/>
</a>
</g>
</g>
<!-- Node6 -->
<g id="Node000006" class="node">
<title>Node6</title>
<g id="a_Node000006"><a xlink:href="class_acts_1_1_i_grid_surface_material_base.html" target="_top" xlink:title="Base class for the concrete templated grid surface material types.">
<polygon fill="white" stroke="#666666" points="329,-197 161,-197 161,-178 329,-178 329,-197"/>
<text text-anchor="middle" x="245" y="-185" font-family="Helvetica,sans-Serif" font-size="10.00">Acts::IGridSurfaceMaterialBase</text>
</a>
</g>
</g>
<!-- Node1&#45;&gt;Node6 -->
<g id="edge5_Node000001_Node000006" class="edge">
<title>Node1&#45;&gt;Node6</title>
<g id="a_edge5_Node000001_Node000006"><a xlink:title=" ">
<path fill="none" stroke="#63b8ff" d="M77.78,-275.14C95.52,-255.44 127.14,-223.81 161,-206.5 168.63,-202.6 177.07,-199.49 185.55,-197.01"/>
<polygon fill="#63b8ff" stroke="#63b8ff" points="75.04,-272.95 71.06,-282.77 80.29,-277.58 75.04,-272.95"/>
</a>
</g>
</g>
<!-- Node13 -->
<g id="Node000013" class="node">
<title>Node13</title>
<g id="a_Node000013"><a xlink:href="class_acts_1_1_proto_surface_material_t.html" target="_top" xlink:title="proxy to SurfaceMaterial hand over BinUtility or other suitable binning description">
<polygon fill="white" stroke="#666666" points="318,-369.5 172,-369.5 172,-339.5 318,-339.5 318,-369.5"/>
<text text-anchor="start" x="180" y="-357.5" font-family="Helvetica,sans-Serif" font-size="10.00">Acts::ProtoSurfaceMaterial</text>
<text text-anchor="middle" x="245" y="-346.5" font-family="Helvetica,sans-Serif" font-size="10.00">T&lt; BinningType &gt;</text>
</a>
</g>
</g>
<!-- Node1&#45;&gt;Node13 -->
<g id="edge16_Node000001_Node000013" class="edge">
<title>Node1&#45;&gt;Node13</title>
<g id="a_edge16_Node000001_Node000013"><a xlink:title=" ">
<path fill="none" stroke="#63b8ff" d="M93.36,-306.18C107.92,-312.48 125.7,-319.8 142,-325.5 156.25,-330.48 171.84,-335.25 186.44,-339.43"/>
<polygon fill="#63b8ff" stroke="#63b8ff" points="94.42,-302.82 83.86,-302.01 91.61,-309.23 94.42,-302.82"/>
</a>
</g>
</g>
<!-- Node7 -->
<g id="Node000007" class="node">
<title>Node7</title>
<g id="a_Node000007"><a xlink:href="class_acts_1_1_i_grid_surface_material.html" target="_top" xlink:title=" ">
<polygon fill="white" stroke="#666666" points="1024,-177 873,-177 873,-136 1024,-136 1024,-177"/>
<text text-anchor="start" x="881" y="-165" font-family="Helvetica,sans-Serif" font-size="10.00">Acts::IGridSurfaceMaterial</text>
<text text-anchor="start" x="881" y="-154" font-family="Helvetica,sans-Serif" font-size="10.00">&lt; material_accessor_t::grid</text>
<text text-anchor="middle" x="948.5" y="-143" font-family="Helvetica,sans-Serif" font-size="10.00">_value_type &gt;</text>
</a>
</g>
</g>
<!-- Node6&#45;&gt;Node7 -->
<g id="edge6_Node000006_Node000007" class="edge">
<title>Node6&#45;&gt;Node7</title>
<g id="a_edge6_Node000006_Node000007"><a xlink:title=" ">
<path fill="none" stroke="#63b8ff" d="M328.56,-198.16C446.49,-211.15 669.46,-227.33 855,-192.5 871.6,-189.38 889.04,-183.38 904.26,-177.15"/>
<polygon fill="#63b8ff" stroke="#63b8ff" points="328.84,-194.67 318.52,-197.04 328.06,-201.63 328.84,-194.67"/>
</a>
</g>
</g>
<!-- Node12 -->
<g id="Node000012" class="node">
<title>Node12</title>
<g id="a_Node000012"><a xlink:href="class_acts_1_1_i_grid_surface_material.html" target="_top" xlink:title="Intermediate interface to the grid surface material given access to the grid and the material accesso...">
<polygon fill="white" stroke="#666666" points="688.5,-171.5 544.5,-171.5 544.5,-141.5 688.5,-141.5 688.5,-171.5"/>
<text text-anchor="start" x="552.5" y="-159.5" font-family="Helvetica,sans-Serif" font-size="10.00">Acts::IGridSurfaceMaterial</text>
<text text-anchor="middle" x="616.5" y="-148.5" font-family="Helvetica,sans-Serif" font-size="10.00">&lt; grid_value_t &gt;</text>
</a>
</g>
</g>
<!-- Node6&#45;&gt;Node12 -->
<g id="edge11_Node000006_Node000012" class="edge">
<title>Node6&#45;&gt;Node12</title>
<g id="a_edge11_Node000006_Node000012"><a xlink:title=" ">
<path fill="none" stroke="#63b8ff" d="M339.42,-179.66C403.03,-174.33 485.94,-167.37 544.24,-162.48"/>
<polygon fill="#63b8ff" stroke="#63b8ff" points="339.06,-176.18 329.38,-180.5 339.64,-183.16 339.06,-176.18"/>
</a>
</g>
</g>
<!-- Node8 -->
<g id="Node000008" class="node">
<title>Node8</title>
<g id="a_Node000008"><a xlink:href="class_acts_1_1_grid_surface_material_t.html" target="_top" xlink:title="GridSurfaceMaterialT.">
<polygon fill="white" stroke="#666666" points="1238,-132.5 1061,-132.5 1061,-102.5 1238,-102.5 1238,-132.5"/>
<text text-anchor="start" x="1069" y="-120.5" font-family="Helvetica,sans-Serif" font-size="10.00">Acts::GridSurfaceMaterial</text>
<text text-anchor="middle" x="1149.5" y="-109.5" font-family="Helvetica,sans-Serif" font-size="10.00">T&lt; grid_t, material_accessor_t &gt;</text>
</a>
</g>
</g>
<!-- Node7&#45;&gt;Node8 -->
<g id="edge7_Node000007_Node000008" class="edge">
<title>Node7&#45;&gt;Node8</title>
<g id="a_edge7_Node000007_Node000008"><a xlink:title=" ">
<path fill="none" stroke="#63b8ff" d="M1034.11,-139.92C1046.61,-137.47 1059.43,-134.96 1071.76,-132.54"/>
<polygon fill="#63b8ff" stroke="#63b8ff" points="1033.31,-136.51 1024.17,-141.87 1034.65,-143.38 1033.31,-136.51"/>
</a>
</g>
</g>
<!-- Node9 -->
<g id="Node000009" class="node">
<title>Node9</title>
<g id="a_Node000009"><a xlink:href="class_acts_1_1_grid_surface_material_t.html" target="_top" xlink:title=" ">
<polygon fill="white" stroke="#666666" points="1641,-203.5 1422,-203.5 1422,-173.5 1641,-173.5 1641,-203.5"/>
<text text-anchor="start" x="1430" y="-191.5" font-family="Helvetica,sans-Serif" font-size="10.00">Acts::GridSurfaceMaterial</text>
<text text-anchor="middle" x="1531.5" y="-180.5" font-family="Helvetica,sans-Serif" font-size="10.00">T&lt; grid_type, IndexedMaterialAccessor &gt;</text>
</a>
</g>
</g>
<!-- Node8&#45;&gt;Node9 -->
<g id="edge8_Node000008_Node000009" class="edge">
<title>Node8&#45;&gt;Node9</title>
<g id="a_edge8_Node000008_Node000009"><a xlink:title=" ">
<path fill="none" stroke="orange" stroke-dasharray="5,2" d="M1217.58,-134.96C1230.29,-138.01 1243.52,-141 1256,-143.5 1321.27,-156.59 1338.32,-155.69 1404,-166.5 1417.42,-168.71 1431.62,-171.11 1445.48,-173.5"/>
<polygon fill="orange" stroke="orange" points="1218.06,-131.48 1207.51,-132.52 1216.4,-138.28 1218.06,-131.48"/>
</a>
</g>
<text text-anchor="start" x="1259" y="-187.5" font-family="Helvetica,sans-Serif" font-size="10.00" fill="grey">&lt; grid_type, IndexedMaterial</text>
<text text-anchor="start" x="1259" y="-172.5" font-family="Helvetica,sans-Serif" font-size="10.00" fill="grey">  Accessor &gt;</text>
</g>
<!-- Node10 -->
<g id="Node000010" class="node">
<title>Node10</title>
<g id="a_Node000010"><a xlink:href="class_acts_1_1_grid_surface_material_t.html" target="_top" xlink:title=" ">
<polygon fill="white" stroke="#666666" points="1634,-41 1429,-41 1429,0 1634,0 1634,-41"/>
<text text-anchor="start" x="1437" y="-29" font-family="Helvetica,sans-Serif" font-size="10.00">Acts::GridSurfaceMaterial</text>
<text text-anchor="start" x="1437" y="-18" font-family="Helvetica,sans-Serif" font-size="10.00">T&lt; grid_type, GloballyIndexedMaterial</text>
<text text-anchor="middle" x="1531.5" y="-7" font-family="Helvetica,sans-Serif" font-size="10.00">Accessor &gt;</text>
</a>
</g>
</g>
<!-- Node8&#45;&gt;Node10 -->
<g id="edge9_Node000008_Node000010" class="edge">
<title>Node8&#45;&gt;Node10</title>
<g id="a_edge9_Node000008_Node000010"><a xlink:title=" ">
<path fill="none" stroke="orange" stroke-dasharray="5,2" d="M1184.42,-97.57C1204.59,-86.55 1231.04,-73.5 1256,-65.5 1311.76,-47.63 1376.28,-36.59 1428.75,-29.92"/>
<polygon fill="orange" stroke="orange" points="1182.66,-94.55 1175.62,-102.47 1186.06,-100.67 1182.66,-94.55"/>
</a>
</g>
<text text-anchor="start" x="1259" y="-86.5" font-family="Helvetica,sans-Serif" font-size="10.00" fill="grey">&lt; grid_type, GloballyIndexed</text>
<text text-anchor="start" x="1259" y="-71.5" font-family="Helvetica,sans-Serif" font-size="10.00" fill="grey">  MaterialAccessor &gt;</text>
</g>
<!-- Node11 -->
<g id="Node000011" class="node">
<title>Node11</title>
<g id="a_Node000011"><a xlink:href="class_acts_1_1_grid_surface_material_t.html" target="_top" xlink:title=" ">
<polygon fill="white" stroke="#666666" points="1632,-107.5 1431,-107.5 1431,-77.5 1632,-77.5 1632,-107.5"/>
<text text-anchor="start" x="1439" y="-95.5" font-family="Helvetica,sans-Serif" font-size="10.00">Acts::GridSurfaceMaterial</text>
<text text-anchor="middle" x="1531.5" y="-84.5" font-family="Helvetica,sans-Serif" font-size="10.00">T&lt; grid_type, GridMaterialAccessor &gt;</text>
</a>
</g>
</g>
<!-- Node8&#45;&gt;Node11 -->
<g id="edge10_Node000008_Node000011" class="edge">
<title>Node8&#45;&gt;Node11</title>
<g id="a_edge10_Node000008_Node000011"><a xlink:title=" ">
<path fill="none" stroke="orange" stroke-dasharray="5,2" d="M1248.45,-111.06C1304.47,-107.37 1374.58,-102.76 1430.88,-99.05"/>
<polygon fill="orange" stroke="orange" points="1247.91,-107.58 1238.16,-111.73 1248.37,-114.57 1247.91,-107.58"/>
</a>
</g>
<text text-anchor="start" x="1268" y="-131.5" font-family="Helvetica,sans-Serif" font-size="10.00" fill="grey">&lt; grid_type, GridMaterial</text>
<text text-anchor="start" x="1268" y="-116.5" font-family="Helvetica,sans-Serif" font-size="10.00" fill="grey">  Accessor &gt;</text>
</g>
<!-- Node12&#45;&gt;Node7 -->
<g id="edge15_Node000012_Node000007" class="edge">
<title>Node12&#45;&gt;Node7</title>
<g id="a_edge15_Node000012_Node000007"><a xlink:title=" ">
<path fill="none" stroke="orange" stroke-dasharray="5,2" d="M698.79,-156.5C752.06,-156.5 821.15,-156.5 872.99,-156.5"/>
<polygon fill="orange" stroke="orange" points="698.7,-153 688.7,-156.5 698.7,-160 698.7,-153"/>
</a>
</g>
<text text-anchor="start" x="741.5" y="-177.5" font-family="Helvetica,sans-Serif" font-size="10.00" fill="grey">&lt; material_accessor</text>
<text text-anchor="start" x="741.5" y="-162.5" font-family="Helvetica,sans-Serif" font-size="10.00" fill="grey">  _t::grid_value_type &gt;</text>
</g>
<!-- Node12&#45;&gt;Node9 -->
<g id="edge12_Node000012_Node000009" class="edge">
<title>Node12&#45;&gt;Node9</title>
<g id="a_edge12_Node000012_Node000009"><a xlink:title=" ">
<path fill="none" stroke="#63b8ff" d="M667.13,-174.72C688.61,-181.72 714.23,-188.88 738,-192.5 979.95,-229.3 1268.28,-213.03 1421.73,-199.67"/>
<polygon fill="#63b8ff" stroke="#63b8ff" points="668.17,-171.38 657.57,-171.53 665.95,-178.02 668.17,-171.38"/>
</a>
</g>
</g>
<!-- Node12&#45;&gt;Node10 -->
<g id="edge13_Node000012_Node000010" class="edge">
<title>Node12&#45;&gt;Node10</title>
<g id="a_edge13_Node000012_Node000010"><a xlink:title=" ">
<path fill="none" stroke="#63b8ff" d="M652.96,-136.61C676.51,-124.05 708.42,-108.22 738,-97.5 796.07,-76.46 812.45,-76.71 873,-64.5 1040.86,-30.65 1084.86,-28.39 1256,-22.5 1313.16,-20.53 1377.04,-19.97 1428.79,-19.93"/>
<polygon fill="#63b8ff" stroke="#63b8ff" points="651.19,-133.6 644.05,-141.43 654.51,-139.75 651.19,-133.6"/>
</a>
</g>
</g>
<!-- Node12&#45;&gt;Node11 -->
<g id="edge14_Node000012_Node000011" class="edge">
<title>Node12&#45;&gt;Node11</title>
<g id="a_edge14_Node000012_Node000011"><a xlink:title=" ">
<path fill="none" stroke="#63b8ff" d="M687.15,-139C803.87,-110.68 1046.75,-55.99 1256,-36.5 1321.49,-30.4 1341.41,-16.26 1404,-36.5 1413.39,-39.54 1413.35,-44.76 1422,-49.5 1441.99,-60.46 1465.36,-70.09 1485.29,-77.44"/>
<polygon fill="#63b8ff" stroke="#63b8ff" points="686.16,-135.64 677.27,-141.41 687.82,-142.44 686.16,-135.64"/>
</a>
</g>
</g>
<!-- Node13&#45;&gt;Node2 -->
<g id="edge17_Node000013_Node000002" class="edge">
<title>Node13&#45;&gt;Node2</title>
<g id="a_edge17_Node000013_Node000002"><a xlink:title=" ">
<path fill="none" stroke="orange" stroke-dasharray="5,2" d="M318.29,-371.73C327.92,-373.8 337.68,-375.78 347,-377.5 383.52,-384.23 476.98,-397.1 543.35,-405.98"/>
<polygon fill="orange" stroke="orange" points="318.85,-368.27 308.33,-369.55 317.35,-375.11 318.85,-368.27"/>
</a>
</g>
<text text-anchor="start" x="373" y="-404" font-family="Helvetica,sans-Serif" font-size="10.00" fill="grey">&lt; Acts::BinUtility &gt;</text>
</g>
<!-- Node13&#45;&gt;Node3 -->
<g id="edge18_Node000013_Node000003" class="edge">
<title>Node13&#45;&gt;Node3</title>
<g id="a_edge18_Node000013_Node000003"><a xlink:title=" ">
<path fill="none" stroke="orange" stroke-dasharray="5,2" d="M328.24,-347C334.58,-346.47 340.89,-345.97 347,-345.5 401.72,-341.33 462.78,-337.41 512.82,-334.38"/>
<polygon fill="orange" stroke="orange" points="327.93,-343.51 318.26,-347.83 328.51,-350.48 327.93,-343.51"/>
</a>
</g>
<text text-anchor="start" x="350" y="-366.5" font-family="Helvetica,sans-Serif" font-size="10.00" fill="grey">&lt; std::vector&lt; DirectedProto</text>
<text text-anchor="start" x="350" y="-351.5" font-family="Helvetica,sans-Serif" font-size="10.00" fill="grey">  Axis &gt; &gt;</text>
</g>
</g>
</svg>

<g id="navigator" transform="translate(0 0)" fill="#404254">
  <rect fill="#f2f5e9" fill-opacity="0.5" stroke="#606060" stroke-width=".5" x="0" y="0" width="60" height="60"/>
  <use id="zoomplus" xlink:href="#zoomPlus" x="17" y="9" onmousedown="handleZoom(evt,'in')"/>
  <use id="zoomminus" xlink:href="#zoomMin" x="42" y="9" onmousedown="handleZoom(evt,'out')"/>
  <use id="reset" xlink:href="#resetDef" x="30" y="36" onmousedown="handleReset()"/>
   <use id="arrowup" xlink:href="#arrowUp" x="0" y="0" onmousedown="handlePan(0,-1)"/>
  <use id="arrowright" xlink:href="#arrowRight" x="0" y="0" onmousedown="handlePan(1,0)"/>
  <use id="arrowdown" xlink:href="#arrowDown" x="0" y="0" onmousedown="handlePan(0,1)"/>
  <use id="arrowleft" xlink:href="#arrowLeft" x="0" y="0" onmousedown="handlePan(-1,0)"/>
</g>
<svg viewBox="0 0 15 15" width="100%" height="30px" preserveAspectRatio="xMaxYMin meet">
 <g id="arrow_out" transform="scale(0.3 0.3)">
  <a xlink:href="class_acts_1_1_i_surface_material__inherit__graph_org.svg" target="_base">
   <rect id="button" ry="5" rx="5" y="6" x="6" height="38" width="38"
        fill="#f2f5e9" fill-opacity="0.5" stroke="#606060" stroke-width="1.0"/>
   <path id="arrow"
     d="M 11.500037,31.436501 C 11.940474,20.09759 22.043105,11.32322 32.158766,21.979434 L 37.068811,17.246167 C 37.068811,17.246167 37.088388,32 37.088388,32 L 22.160133,31.978069 C 22.160133,31.978069 26.997745,27.140456 26.997745,27.140456 C 18.528582,18.264221 13.291696,25.230495 11.500037,31.436501 z"
     style="fill:#404040;"/>
  </a>
 </g>
</svg>

<style type='text/css'>
<![CDATA[
[data-mouse-over-selected='false'] { opacity: 0.7; }
[data-mouse-over-selected='true']  { opacity: 1.0; }
]]>
</style>
<script type="application/ecmascript"><![CDATA[
document.addEventListener('DOMContentLoaded', (event) => {
  highlightEdges();
  highlightAdjacentNodes();
});
]]></script>
</svg>
