<?xml version="1.0" encoding="UTF-8" standalone="no"?>
<!DOCTYPE svg PUBLIC "-//W3C//DTD SVG 1.1//EN"
 "http://www.w3.org/Graphics/SVG/1.1/DTD/svg11.dtd">
<!-- Generated by graphviz version 2.43.0 (0)
 -->
<!-- Title: Acts::GenericCuboidVolumeBounds Pages: 1 -->
<svg width="193pt" height="238pt"
 viewBox="0.00 0.00 193.00 238.00" xmlns="http://www.w3.org/2000/svg" xmlns:xlink="http://www.w3.org/1999/xlink">
<g id="graph0" class="graph" transform="scale(1 1) rotate(0) translate(4 234)">
<title>Acts::GenericCuboidVolumeBounds</title>
<!-- Node1 -->
<g id="Node000001" class="node">
<title>Node1</title>
<g id="a_Node000001"><a xlink:title=" ">
<polygon fill="#999999" stroke="#666666" points="152,-30 0,-30 0,0 152,0 152,-30"/>
<text text-anchor="start" x="8" y="-18" font-family="Helvetica,sans-Serif" font-size="10.00">Acts::GenericCuboidVolume</text>
<text text-anchor="middle" x="76" y="-7" font-family="Helvetica,sans-Serif" font-size="10.00">Bounds</text>
</a>
</g>
</g>
<!-- Node2 -->
<g id="Node000002" class="node">
<title>Node2</title>
<g id="a_Node000002"><a xlink:href="class_acts_1_1_volume_bounds.html" target="_top" xlink:title="Pure Absract Base Class for Volume bounds.">
<polygon fill="white" stroke="#666666" points="134,-86 18,-86 18,-67 134,-67 134,-86"/>
<text text-anchor="middle" x="76" y="-74" font-family="Helvetica,sans-Serif" font-size="10.00">Acts::VolumeBounds</text>
</a>
</g>
</g>
<!-- Node2&#45;&gt;Node1 -->
<g id="edge1_Node000001_Node000002" class="edge">
<title>Node2&#45;&gt;Node1</title>
<g id="a_edge1_Node000001_Node000002"><a xlink:title=" ">
<path fill="none" stroke="#63b8ff" d="M76,-56.73C76,-48.09 76,-38 76,-30.02"/>
<polygon fill="#63b8ff" stroke="#63b8ff" points="72.5,-56.98 76,-66.98 79.5,-56.98 72.5,-56.98"/>
</a>
</g>
</g>
<!-- Node3 -->
<g id="Node000003" class="node">
<title>Node3</title>
<g id="a_Node000003"><a xlink:title=" ">
<polygon fill="white" stroke="#666666" points="146,-158 6,-158 6,-139 146,-139 146,-158"/>
<text text-anchor="middle" x="76" y="-146" font-family="Helvetica,sans-Serif" font-size="10.00">std::vector&lt; std::string &gt;</text>
</a>
</g>
</g>
<!-- Node3&#45;&gt;Node2 -->
<g id="edge2_Node000002_Node000003" class="edge">
<title>Node3&#45;&gt;Node2</title>
<g id="a_edge2_Node000002_Node000003"><a xlink:title=" ">
<path fill="none" stroke="#9a32cd" stroke-dasharray="5,2" d="M76,-128.58C76,-114.76 76,-96.68 76,-86.15"/>
<polygon fill="#9a32cd" stroke="#9a32cd" points="72.5,-128.92 76,-138.92 79.5,-128.92 72.5,-128.92"/>
</a>
</g>
<text text-anchor="start" x="79.5" y="-109.5" font-family="Helvetica,sans-Serif" font-size="10.00" fill="grey">s_boundsTypeNames</text>
</g>
<!-- Node4 -->
<g id="Node000004" class="node">
<title>Node4</title>
<g id="a_Node000004"><a xlink:title=" ">
<polygon fill="white" stroke="#666666" points="124.5,-230 27.5,-230 27.5,-211 124.5,-211 124.5,-230"/>
<text text-anchor="middle" x="76" y="-218" font-family="Helvetica,sans-Serif" font-size="10.00">std::vector&lt; T &gt;</text>
</a>
</g>
</g>
<!-- Node4&#45;&gt;Node3 -->
<g id="edge3_Node000003_Node000004" class="edge">
<title>Node4&#45;&gt;Node3</title>
<g id="a_edge3_Node000003_Node000004"><a xlink:title=" ">
<path fill="none" stroke="orange" stroke-dasharray="5,2" d="M76,-200.58C76,-186.76 76,-168.68 76,-158.15"/>
<polygon fill="orange" stroke="orange" points="72.5,-200.92 76,-210.92 79.5,-200.92 72.5,-200.92"/>
</a>
</g>
<text text-anchor="start" x="79" y="-181.5" font-family="Helvetica,sans-Serif" font-size="10.00" fill="grey">&lt; std::string &gt;</text>
</g>
</g>
</svg>
