<?xml version="1.0" encoding="UTF-8" standalone="no"?>
<!DOCTYPE svg PUBLIC "-//W3C//DTD SVG 1.1//EN"
 "http://www.w3.org/Graphics/SVG/1.1/DTD/svg11.dtd">
<!-- Generated by graphviz version 2.43.0 (0)
 -->
<!-- Title: Acts::ConvexPolygonBounds&lt; PolygonDynamic &gt; Pages: 1 -->
<svg width="320pt" height="278pt"
 viewBox="0.00 0.00 320.00 278.00" xmlns="http://www.w3.org/2000/svg" xmlns:xlink="http://www.w3.org/1999/xlink">

<svg id="main" version="1.1" xmlns="http://www.w3.org/2000/svg" xmlns:xlink="http://www.w3.org/1999/xlink" xml:space="preserve">

<style type="text/css"><![CDATA[
.node, .edge {opacity: 0.7;}
.node.selected, .edge.selected {opacity: 1;}
.edge:hover path { stroke: red; }
.edge:hover polygon { stroke: red; fill: red; }
]]></style>
<script type="application/ecmascript" xlink:href="svg.min.js"/>
<svg id="graph" class="graph">
<g id="graph0" class="graph" transform="scale(1 1) rotate(0) translate(4 274)">
<title>Acts::ConvexPolygonBounds&lt; PolygonDynamic &gt;</title>
<!-- Node1 -->
<g id="Node000001" class="node">
<title>Node1</title>
<g id="a_Node000001"><a xlink:title="This is the specialization handling a polygon with a dynamic number of points.">
<polygon fill="#999999" stroke="#666666" points="167,-30 12,-30 12,0 167,0 167,-30"/>
<text text-anchor="start" x="20" y="-18" font-family="Helvetica,sans-Serif" font-size="10.00">Acts::ConvexPolygonBounds</text>
<text text-anchor="middle" x="89.5" y="-7" font-family="Helvetica,sans-Serif" font-size="10.00">&lt; PolygonDynamic &gt;</text>
</a>
</g>
</g>
<!-- Node2 -->
<g id="Node000002" class="node">
<title>Node2</title>
<g id="a_Node000002"><a xlink:href="class_acts_1_1_convex_polygon_bounds_base.html" target="_top" xlink:title="base class for convex polygon bounds">
<polygon fill="white" stroke="#666666" points="179,-158 0,-158 0,-139 179,-139 179,-158"/>
<text text-anchor="middle" x="89.5" y="-146" font-family="Helvetica,sans-Serif" font-size="10.00">Acts::ConvexPolygonBoundsBase</text>
</a>
</g>
</g>
<!-- Node2&#45;&gt;Node1 -->
<g id="edge1_Node000001_Node000002" class="edge">
<title>Node2&#45;&gt;Node1</title>
<g id="a_edge1_Node000001_Node000002"><a xlink:title=" ">
<path fill="none" stroke="#63b8ff" d="M84.59,-128.6C81.97,-101.99 82.15,-54.05 85.11,-30.23"/>
<polygon fill="#63b8ff" stroke="#63b8ff" points="81.17,-129.41 85.94,-138.87 88.11,-128.5 81.17,-129.41"/>
</a>
</g>
</g>
<!-- Node2&#45;&gt;Node1 -->
<g id="edge4_Node000001_Node000002" class="edge">
<title>Node2&#45;&gt;Node1</title>
<g id="a_edge4_Node000001_Node000002"><a xlink:title=" ">
<path fill="none" stroke="#63b8ff" d="M94.41,-128.6C97.03,-101.99 96.85,-54.05 93.89,-30.23"/>
<polygon fill="#63b8ff" stroke="#63b8ff" points="90.89,-128.5 93.06,-138.87 97.83,-129.41 90.89,-128.5"/>
</a>
</g>
</g>
<!-- Node5 -->
<g id="Node000005" class="node">
<title>Node5</title>
<g id="a_Node000005"><a xlink:href="class_acts_1_1_convex_polygon_bounds.html" target="_top" xlink:title="This is the actual implementation of the bounds.">
<polygon fill="white" stroke="#666666" points="312,-102 127,-102 127,-83 312,-83 312,-102"/>
<text text-anchor="middle" x="219.5" y="-90" font-family="Helvetica,sans-Serif" font-size="10.00">Acts::ConvexPolygonBounds&lt; N &gt;</text>
</a>
</g>
</g>
<!-- Node2&#45;&gt;Node5 -->
<g id="edge6_Node000005_Node000002" class="edge">
<title>Node2&#45;&gt;Node5</title>
<g id="a_edge6_Node000005_Node000002"><a xlink:title=" ">
<path fill="none" stroke="#63b8ff" d="M119.59,-135C143.96,-124.88 177.64,-110.89 199,-102.02"/>
<polygon fill="#63b8ff" stroke="#63b8ff" points="117.99,-131.88 110.1,-138.94 120.68,-138.34 117.99,-131.88"/>
</a>
</g>
</g>
<!-- Node3 -->
<g id="Node000003" class="node">
<title>Node3</title>
<g id="a_Node000003"><a xlink:href="class_acts_1_1_planar_bounds.html" target="_top" xlink:title="common base class for all bounds that are in a local x/y cartesian frame">
<polygon fill="white" stroke="#666666" points="144.5,-214 34.5,-214 34.5,-195 144.5,-195 144.5,-214"/>
<text text-anchor="middle" x="89.5" y="-202" font-family="Helvetica,sans-Serif" font-size="10.00">Acts::PlanarBounds</text>
</a>
</g>
</g>
<!-- Node3&#45;&gt;Node2 -->
<g id="edge2_Node000002_Node000003" class="edge">
<title>Node3&#45;&gt;Node2</title>
<g id="a_edge2_Node000002_Node000003"><a xlink:title=" ">
<path fill="none" stroke="#63b8ff" d="M89.5,-184.3C89.5,-175.41 89.5,-165.28 89.5,-158.25"/>
<polygon fill="#63b8ff" stroke="#63b8ff" points="86,-184.58 89.5,-194.58 93,-184.58 86,-184.58"/>
</a>
</g>
</g>
<!-- Node4 -->
<g id="Node000004" class="node">
<title>Node4</title>
<g id="a_Node000004"><a xlink:href="class_acts_1_1_surface_bounds.html" target="_top" xlink:title="Interface for surface bounds.">
<polygon fill="white" stroke="#666666" points="147.5,-270 31.5,-270 31.5,-251 147.5,-251 147.5,-270"/>
<text text-anchor="middle" x="89.5" y="-258" font-family="Helvetica,sans-Serif" font-size="10.00">Acts::SurfaceBounds</text>
</a>
</g>
</g>
<!-- Node4&#45;&gt;Node3 -->
<g id="edge3_Node000003_Node000004" class="edge">
<title>Node4&#45;&gt;Node3</title>
<g id="a_edge3_Node000003_Node000004"><a xlink:title=" ">
<path fill="none" stroke="#63b8ff" d="M89.5,-240.3C89.5,-231.41 89.5,-221.28 89.5,-214.25"/>
<polygon fill="#63b8ff" stroke="#63b8ff" points="86,-240.58 89.5,-250.58 93,-240.58 86,-240.58"/>
</a>
</g>
</g>
<!-- Node5&#45;&gt;Node1 -->
<g id="edge5_Node000001_Node000005" class="edge">
<title>Node5&#45;&gt;Node1</title>
<g id="a_edge5_Node000001_Node000005"><a xlink:title=" ">
<path fill="none" stroke="orange" stroke-dasharray="5,2" d="M196.02,-77.86C172.86,-64.41 137.6,-43.93 114.07,-30.27"/>
<polygon fill="orange" stroke="orange" points="194.43,-80.99 204.84,-82.99 197.95,-74.94 194.43,-80.99"/>
</a>
</g>
<text text-anchor="start" x="176.5" y="-53.5" font-family="Helvetica,sans-Serif" font-size="10.00" fill="grey">&lt; PolygonDynamic &gt;</text>
</g>
</g>
</svg>
</svg>

<style type='text/css'>
<![CDATA[
[data-mouse-over-selected='false'] { opacity: 0.7; }
[data-mouse-over-selected='true']  { opacity: 1.0; }
]]>
</style>
<script type="application/ecmascript"><![CDATA[
document.addEventListener('DOMContentLoaded', (event) => {
  highlightEdges();
  highlightAdjacentNodes();
});
]]></script>
</svg>
