<?xml version="1.0" encoding="UTF-8" standalone="no"?>
<!DOCTYPE svg PUBLIC "-//W3C//DTD SVG 1.1//EN"
 "http://www.w3.org/Graphics/SVG/1.1/DTD/svg11.dtd">
<!-- Generated by graphviz version 2.43.0 (0)
 -->
<!-- Title: Acts::PlyVisualization3D&lt; T &gt; Pages: 1 -->
<svg width="172pt" height="299pt"
 viewBox="0.00 0.00 172.00 299.00" xmlns="http://www.w3.org/2000/svg" xmlns:xlink="http://www.w3.org/1999/xlink">
<g id="graph0" class="graph" transform="scale(1 1) rotate(0) translate(4 295)">
<title>Acts::PlyVisualization3D&lt; T &gt;</title>
<!-- Node1 -->
<g id="Node000001" class="node">
<title>Node1</title>
<g id="a_Node000001"><a xlink:title="Helper to write out PlyVisualization3D visualization format.">
<polygon fill="#999999" stroke="#666666" points="164,-19 0,-19 0,0 164,0 164,-19"/>
<text text-anchor="middle" x="82" y="-7" font-family="Helvetica,sans-Serif" font-size="10.00">Acts::PlyVisualization3D&lt; T &gt;</text>
</a>
</g>
</g>
<!-- Node2 -->
<g id="Node000002" class="node">
<title>Node2</title>
<g id="a_Node000002"><a xlink:href="class_acts_1_1_i_visualization3_d.html" target="_top" xlink:title="Partially abstract base class which provides an interface to visualization helper classes.">
<polygon fill="white" stroke="#666666" points="143.5,-75 20.5,-75 20.5,-56 143.5,-56 143.5,-75"/>
<text text-anchor="middle" x="82" y="-63" font-family="Helvetica,sans-Serif" font-size="10.00">Acts::IVisualization3D</text>
</a>
</g>
</g>
<!-- Node2&#45;&gt;Node1 -->
<g id="edge1_Node000001_Node000002" class="edge">
<title>Node2&#45;&gt;Node1</title>
<g id="a_edge1_Node000001_Node000002"><a xlink:title=" ">
<path fill="none" stroke="#63b8ff" d="M82,-45.3C82,-36.41 82,-26.28 82,-19.25"/>
<polygon fill="#63b8ff" stroke="#63b8ff" points="78.5,-45.58 82,-55.58 85.5,-45.58 78.5,-45.58"/>
</a>
</g>
</g>
<!-- Node3 -->
<g id="Node000003" class="node">
<title>Node3</title>
<g id="a_Node000003"><a xlink:href="struct_acts_1_1_color.html" target="_top" xlink:title="Struct describing a color.">
<polygon fill="white" stroke="#666666" points="116.5,-147 47.5,-147 47.5,-128 116.5,-128 116.5,-147"/>
<text text-anchor="middle" x="82" y="-135" font-family="Helvetica,sans-Serif" font-size="10.00">Acts::Color</text>
</a>
</g>
</g>
<!-- Node3&#45;&gt;Node2 -->
<g id="edge2_Node000002_Node000003" class="edge">
<title>Node3&#45;&gt;Node2</title>
<g id="a_edge2_Node000002_Node000003"><a xlink:title=" ">
<path fill="none" stroke="#9a32cd" stroke-dasharray="5,2" d="M82,-117.58C82,-103.76 82,-85.68 82,-75.15"/>
<polygon fill="#9a32cd" stroke="#9a32cd" points="78.5,-117.92 82,-127.92 85.5,-117.92 78.5,-117.92"/>
</a>
</g>
<text text-anchor="start" x="85.5" y="-98.5" font-family="Helvetica,sans-Serif" font-size="10.00" fill="grey">s_defaultColor</text>
</g>
<!-- Node4 -->
<g id="Node000004" class="node">
<title>Node4</title>
<g id="a_Node000004"><a xlink:title=" ">
<polygon fill="white" stroke="#666666" points="137,-219 27,-219 27,-200 137,-200 137,-219"/>
<text text-anchor="middle" x="82" y="-207" font-family="Helvetica,sans-Serif" font-size="10.00">std::array&lt; int, 3 &gt;</text>
</a>
</g>
</g>
<!-- Node4&#45;&gt;Node3 -->
<g id="edge3_Node000003_Node000004" class="edge">
<title>Node4&#45;&gt;Node3</title>
<g id="a_edge3_Node000003_Node000004"><a xlink:title=" ">
<path fill="none" stroke="#9a32cd" stroke-dasharray="5,2" d="M82,-189.58C82,-175.76 82,-157.68 82,-147.15"/>
<polygon fill="#9a32cd" stroke="#9a32cd" points="78.5,-189.92 82,-199.92 85.5,-189.92 78.5,-189.92"/>
</a>
</g>
<text text-anchor="start" x="85" y="-170.5" font-family="Helvetica,sans-Serif" font-size="10.00" fill="grey">rgb</text>
</g>
<!-- Node5 -->
<g id="Node000005" class="node">
<title>Node5</title>
<g id="a_Node000005"><a xlink:title=" ">
<polygon fill="white" stroke="#666666" points="128,-291 36,-291 36,-272 128,-272 128,-291"/>
<text text-anchor="middle" x="82" y="-279" font-family="Helvetica,sans-Serif" font-size="10.00">std::array&lt; T &gt;</text>
</a>
</g>
</g>
<!-- Node5&#45;&gt;Node4 -->
<g id="edge4_Node000004_Node000005" class="edge">
<title>Node5&#45;&gt;Node4</title>
<g id="a_edge4_Node000004_Node000005"><a xlink:title=" ">
<path fill="none" stroke="orange" stroke-dasharray="5,2" d="M82,-261.58C82,-247.76 82,-229.68 82,-219.15"/>
<polygon fill="orange" stroke="orange" points="78.5,-261.92 82,-271.92 85.5,-261.92 78.5,-261.92"/>
</a>
</g>
<text text-anchor="start" x="85" y="-242.5" font-family="Helvetica,sans-Serif" font-size="10.00" fill="grey">&lt; int, 3 &gt;</text>
</g>
</g>
</svg>
