<?xml version="1.0" encoding="UTF-8" standalone="no"?>
<!DOCTYPE svg PUBLIC "-//W3C//DTD SVG 1.1//EN"
 "http://www.w3.org/Graphics/SVG/1.1/DTD/svg11.dtd">
<!-- Generated by graphviz version 2.43.0 (0)
 -->
<!-- Title: Acts::Experimental::GbtsTrackingFilter Pages: 1 -->
<svg width="975pt" height="262pt"
 viewBox="0.00 0.00 975.00 262.00" xmlns="http://www.w3.org/2000/svg" xmlns:xlink="http://www.w3.org/1999/xlink">
<g id="graph0" class="graph" transform="scale(1 1) rotate(0) translate(4 258)">
<title>Acts::Experimental::GbtsTrackingFilter</title>
<!-- Node1 -->
<g id="Node000001" class="node">
<title>Node1</title>
<g id="a_Node000001"><a xlink:title=" ">
<polygon fill="#999999" stroke="#666666" points="967,-136 857,-136 857,-106 967,-106 967,-136"/>
<text text-anchor="start" x="865" y="-124" font-family="Helvetica,sans-Serif" font-size="10.00">Acts::Experimental</text>
<text text-anchor="middle" x="912" y="-113" font-family="Helvetica,sans-Serif" font-size="10.00">::GbtsTrackingFilter</text>
</a>
</g>
</g>
<!-- Node2 -->
<g id="Node000002" class="node">
<title>Node2</title>
<g id="a_Node000002"><a xlink:title=" ">
<polygon fill="white" stroke="#666666" points="601,-245 422,-245 422,-215 601,-215 601,-245"/>
<text text-anchor="start" x="430" y="-233" font-family="Helvetica,sans-Serif" font-size="10.00">std::vector&lt; Acts::</text>
<text text-anchor="middle" x="511.5" y="-222" font-family="Helvetica,sans-Serif" font-size="10.00">Experimental::TrigInDetSiLayer &gt;</text>
</a>
</g>
</g>
<!-- Node2&#45;&gt;Node1 -->
<g id="edge1_Node000001_Node000002" class="edge">
<title>Node2&#45;&gt;Node1</title>
<g id="a_edge1_Node000001_Node000002"><a xlink:title=" ">
<path fill="none" stroke="#9a32cd" stroke-dasharray="5,2" d="M611.38,-213.72C654,-205.95 704.24,-195.76 749,-184 789.78,-173.29 799.78,-169.47 839,-154 852.69,-148.6 867.51,-141.95 880.13,-136.04"/>
<polygon fill="#9a32cd" stroke="#9a32cd" points="610.5,-210.32 601.28,-215.55 611.74,-217.21 610.5,-210.32"/>
</a>
</g>
<text text-anchor="start" x="667" y="-216.5" font-family="Helvetica,sans-Serif" font-size="10.00" fill="grey">m_geo</text>
</g>
<!-- Node3 -->
<g id="Node000003" class="node">
<title>Node3</title>
<g id="a_Node000003"><a xlink:title=" ">
<polygon fill="white" stroke="#666666" points="100.5,-156.5 3.5,-156.5 3.5,-137.5 100.5,-137.5 100.5,-156.5"/>
<text text-anchor="middle" x="52" y="-144.5" font-family="Helvetica,sans-Serif" font-size="10.00">std::vector&lt; T &gt;</text>
</a>
</g>
</g>
<!-- Node3&#45;&gt;Node2 -->
<g id="edge2_Node000002_Node000003" class="edge">
<title>Node3&#45;&gt;Node2</title>
<g id="a_edge2_Node000002_Node000003"><a xlink:title=" ">
<path fill="none" stroke="orange" stroke-dasharray="5,2" d="M70.47,-163.43C83.57,-174.69 102.54,-188.85 122,-196 220.02,-232.05 340.96,-237 421.62,-235.24"/>
<polygon fill="orange" stroke="orange" points="72.54,-160.59 62.75,-156.55 67.88,-165.82 72.54,-160.59"/>
</a>
</g>
<text text-anchor="start" x="125" y="-243" font-family="Helvetica,sans-Serif" font-size="10.00" fill="grey">&lt; Acts::Experimental</text>
<text text-anchor="start" x="125" y="-228" font-family="Helvetica,sans-Serif" font-size="10.00" fill="grey">  ::TrigInDetSiLayer &gt;</text>
</g>
<!-- Node4 -->
<g id="Node000004" class="node">
<title>Node4</title>
<g id="a_Node000004"><a xlink:title=" ">
<polygon fill="white" stroke="#666666" points="584.5,-190 438.5,-190 438.5,-160 584.5,-160 584.5,-190"/>
<text text-anchor="start" x="446.5" y="-178" font-family="Helvetica,sans-Serif" font-size="10.00">std::vector&lt; Acts::</text>
<text text-anchor="middle" x="511.5" y="-167" font-family="Helvetica,sans-Serif" font-size="10.00">Experimental::GbtsEdge &gt;</text>
</a>
</g>
</g>
<!-- Node3&#45;&gt;Node4 -->
<g id="edge4_Node000004_Node000003" class="edge">
<title>Node3&#45;&gt;Node4</title>
<g id="a_edge4_Node000004_Node000003"><a xlink:title=" ">
<path fill="none" stroke="orange" stroke-dasharray="5,2" d="M110.86,-152.16C114.63,-152.46 118.37,-152.74 122,-153 232.34,-160.92 360.48,-167.71 438.5,-171.57"/>
<polygon fill="orange" stroke="orange" points="111.12,-148.67 100.87,-151.35 110.55,-155.65 111.12,-148.67"/>
</a>
</g>
<text text-anchor="start" x="125" y="-181" font-family="Helvetica,sans-Serif" font-size="10.00" fill="grey">&lt; Acts::Experimental</text>
<text text-anchor="start" x="125" y="-166" font-family="Helvetica,sans-Serif" font-size="10.00" fill="grey">  ::GbtsEdge &gt;</text>
</g>
<!-- Node5 -->
<g id="Node000005" class="node">
<title>Node5</title>
<g id="a_Node000005"><a xlink:title=" ">
<polygon fill="white" stroke="#666666" points="601,-136 422,-136 422,-106 601,-106 601,-136"/>
<text text-anchor="start" x="430" y="-124" font-family="Helvetica,sans-Serif" font-size="10.00">std::vector&lt; Acts::</text>
<text text-anchor="middle" x="511.5" y="-113" font-family="Helvetica,sans-Serif" font-size="10.00">Experimental::GbtsEdgeState * &gt;</text>
</a>
</g>
</g>
<!-- Node3&#45;&gt;Node5 -->
<g id="edge6_Node000005_Node000003" class="edge">
<title>Node3&#45;&gt;Node5</title>
<g id="a_edge6_Node000005_Node000003"><a xlink:title=" ">
<path fill="none" stroke="orange" stroke-dasharray="5,2" d="M82.21,-133.33C94.25,-128.4 108.52,-123.46 122,-121 223.52,-102.51 342.47,-106.12 421.74,-112.02"/>
<polygon fill="orange" stroke="orange" points="80.5,-130.25 72.68,-137.41 83.25,-136.69 80.5,-130.25"/>
</a>
</g>
<text text-anchor="start" x="125" y="-142" font-family="Helvetica,sans-Serif" font-size="10.00" fill="grey">&lt; Acts::Experimental</text>
<text text-anchor="start" x="125" y="-127" font-family="Helvetica,sans-Serif" font-size="10.00" fill="grey">  ::GbtsEdgeState * &gt;</text>
</g>
<!-- Node7 -->
<g id="Node000007" class="node">
<title>Node7</title>
<g id="a_Node000007"><a xlink:title=" ">
<polygon fill="white" stroke="#666666" points="404,-82 250,-82 250,-52 404,-52 404,-82"/>
<text text-anchor="start" x="258" y="-70" font-family="Helvetica,sans-Serif" font-size="10.00">std::vector&lt; Acts::</text>
<text text-anchor="middle" x="327" y="-59" font-family="Helvetica,sans-Serif" font-size="10.00">Experimental::GbtsEdge * &gt;</text>
</a>
</g>
</g>
<!-- Node3&#45;&gt;Node7 -->
<g id="edge9_Node000007_Node000003" class="edge">
<title>Node3&#45;&gt;Node7</title>
<g id="a_edge9_Node000007_Node000003"><a xlink:title=" ">
<path fill="none" stroke="orange" stroke-dasharray="5,2" d="M62.45,-128.45C73.64,-108.77 94.31,-78.79 122,-66 162.35,-47.37 212.17,-47.24 252.47,-51.96"/>
<polygon fill="orange" stroke="orange" points="59.28,-126.95 57.6,-137.41 65.44,-130.28 59.28,-126.95"/>
</a>
</g>
<text text-anchor="start" x="125" y="-87" font-family="Helvetica,sans-Serif" font-size="10.00" fill="grey">&lt; Acts::Experimental</text>
<text text-anchor="start" x="125" y="-72" font-family="Helvetica,sans-Serif" font-size="10.00" fill="grey">  ::GbtsEdge * &gt;</text>
</g>
<!-- Node4&#45;&gt;Node1 -->
<g id="edge3_Node000001_Node000004" class="edge">
<title>Node4&#45;&gt;Node1</title>
<g id="a_edge3_Node000001_Node000004"><a xlink:title=" ">
<path fill="none" stroke="#9a32cd" stroke-dasharray="5,2" d="M594.63,-166.55C660.79,-159.36 756.11,-148.12 839,-135 844.79,-134.08 850.82,-133.05 856.82,-131.96"/>
<polygon fill="#9a32cd" stroke="#9a32cd" points="594.25,-163.07 584.68,-167.63 595,-170.03 594.25,-163.07"/>
</a>
</g>
<text text-anchor="start" x="655" y="-168.5" font-family="Helvetica,sans-Serif" font-size="10.00" fill="grey">m_segStore</text>
</g>
<!-- Node5&#45;&gt;Node1 -->
<g id="edge5_Node000001_Node000005" class="edge">
<title>Node5&#45;&gt;Node1</title>
<g id="a_edge5_Node000001_Node000005"><a xlink:title=" ">
<path fill="none" stroke="#9a32cd" stroke-dasharray="5,2" d="M611.71,-121C689.27,-121 794.15,-121 856.94,-121"/>
<polygon fill="#9a32cd" stroke="#9a32cd" points="611.44,-117.5 601.44,-121 611.44,-124.5 611.44,-117.5"/>
</a>
</g>
<text text-anchor="start" x="655" y="-126.5" font-family="Helvetica,sans-Serif" font-size="10.00" fill="grey">m_stateVec</text>
</g>
<!-- Node6 -->
<g id="Node000006" class="node">
<title>Node6</title>
<g id="a_Node000006"><a xlink:href="struct_acts_1_1_experimental_1_1_gbts_edge_state.html" target="_top" xlink:title=" ">
<polygon fill="white" stroke="#666666" points="738.5,-85 629.5,-85 629.5,-55 738.5,-55 738.5,-85"/>
<text text-anchor="start" x="637.5" y="-73" font-family="Helvetica,sans-Serif" font-size="10.00">Acts::Experimental</text>
<text text-anchor="middle" x="684" y="-62" font-family="Helvetica,sans-Serif" font-size="10.00">::GbtsEdgeState</text>
</a>
</g>
</g>
<!-- Node6&#45;&gt;Node1 -->
<g id="edge7_Node000001_Node000006" class="edge">
<title>Node6&#45;&gt;Node1</title>
<g id="a_edge7_Node000001_Node000006"><a xlink:title=" ">
<path fill="none" stroke="#9a32cd" stroke-dasharray="5,2" d="M748.89,-74.3C776.9,-77.2 809.94,-82.02 839,-90 853.31,-93.93 868.48,-100.13 881.19,-105.96"/>
<polygon fill="#9a32cd" stroke="#9a32cd" points="749.11,-70.8 738.82,-73.31 748.43,-77.77 749.11,-70.8"/>
</a>
</g>
<text text-anchor="start" x="770" y="-95.5" font-family="Helvetica,sans-Serif" font-size="10.00" fill="grey">m_stateStore</text>
</g>
<!-- Node7&#45;&gt;Node6 -->
<g id="edge8_Node000006_Node000007" class="edge">
<title>Node7&#45;&gt;Node6</title>
<g id="a_edge8_Node000006_Node000007"><a xlink:title=" ">
<path fill="none" stroke="#9a32cd" stroke-dasharray="5,2" d="M414.3,-67.73C481.44,-68.3 572.47,-69.07 629.46,-69.55"/>
<polygon fill="#9a32cd" stroke="#9a32cd" points="414.19,-64.23 404.16,-67.64 414.13,-71.23 414.19,-64.23"/>
</a>
</g>
<text text-anchor="start" x="498.5" y="-74.5" font-family="Helvetica,sans-Serif" font-size="10.00" fill="grey">m_vs</text>
</g>
<!-- Node8 -->
<g id="Node000008" class="node">
<title>Node8</title>
<g id="a_Node000008"><a xlink:href="struct_acts_1_1_experimental_1_1_seed_finder_gbts_config.html" target="_top" xlink:title=" ">
<polygon fill="white" stroke="#666666" points="749,-34 619,-34 619,-4 749,-4 749,-34"/>
<text text-anchor="start" x="627" y="-22" font-family="Helvetica,sans-Serif" font-size="10.00">Acts::Experimental</text>
<text text-anchor="middle" x="684" y="-11" font-family="Helvetica,sans-Serif" font-size="10.00">::SeedFinderGbtsConfig</text>
</a>
</g>
</g>
<!-- Node8&#45;&gt;Node1 -->
<g id="edge10_Node000001_Node000008" class="edge">
<title>Node8&#45;&gt;Node1</title>
<g id="a_edge10_Node000001_Node000008"><a xlink:title=" ">
<path fill="none" stroke="#9a32cd" stroke-dasharray="5,2" d="M758.96,-28.36C785.28,-33.7 814.46,-42.04 839,-55 863.14,-67.75 885.4,-90.57 898.59,-105.75"/>
<polygon fill="#9a32cd" stroke="#9a32cd" points="759.51,-24.9 749.03,-26.45 758.19,-31.77 759.51,-24.9"/>
</a>
</g>
<text text-anchor="start" x="781" y="-60.5" font-family="Helvetica,sans-Serif" font-size="10.00" fill="grey">m_config</text>
</g>
<!-- Node9 -->
<g id="Node000009" class="node">
<title>Node9</title>
<g id="a_Node000009"><a xlink:title=" ">
<polygon fill="white" stroke="#666666" points="359.5,-24.5 294.5,-24.5 294.5,-5.5 359.5,-5.5 359.5,-24.5"/>
<text text-anchor="middle" x="327" y="-12.5" font-family="Helvetica,sans-Serif" font-size="10.00">std::string</text>
</a>
</g>
</g>
<!-- Node9&#45;&gt;Node8 -->
<g id="edge11_Node000008_Node000009" class="edge">
<title>Node9&#45;&gt;Node8</title>
<g id="a_edge11_Node000008_Node000009"><a xlink:title=" ">
<path fill="none" stroke="#9a32cd" stroke-dasharray="5,2" d="M369.61,-15.47C431.05,-16.16 546.56,-17.46 618.89,-18.28"/>
<polygon fill="#9a32cd" stroke="#9a32cd" points="369.54,-11.97 359.5,-15.35 369.46,-18.97 369.54,-11.97"/>
</a>
</g>
<text text-anchor="start" x="466.5" y="-40" font-family="Helvetica,sans-Serif" font-size="10.00" fill="grey">connectorInputFile</text>
<text text-anchor="start" x="466.5" y="-25" font-family="Helvetica,sans-Serif" font-size="10.00" fill="grey">lutInputFile</text>
</g>
<!-- Node10 -->
<g id="Node000010" class="node">
<title>Node10</title>
<g id="a_Node000010"><a xlink:title=" ">
<polygon fill="white" stroke="#666666" points="104,-30 0,-30 0,0 104,0 104,-30"/>
<text text-anchor="start" x="8" y="-18" font-family="Helvetica,sans-Serif" font-size="10.00">std::basic_string&lt;</text>
<text text-anchor="middle" x="52" y="-7" font-family="Helvetica,sans-Serif" font-size="10.00"> Char &gt;</text>
</a>
</g>
</g>
<!-- Node10&#45;&gt;Node9 -->
<g id="edge12_Node000009_Node000010" class="edge">
<title>Node10&#45;&gt;Node9</title>
<g id="a_edge12_Node000009_Node000010"><a xlink:title=" ">
<path fill="none" stroke="#63b8ff" d="M114.16,-15C170.05,-15 250.46,-15 294.39,-15"/>
<polygon fill="#63b8ff" stroke="#63b8ff" points="114.03,-11.5 104.03,-15 114.03,-18.5 114.03,-11.5"/>
</a>
</g>
</g>
</g>
</svg>
