<?xml version="1.0" encoding="UTF-8" standalone="no"?>
<!DOCTYPE svg PUBLIC "-//W3C//DTD SVG 1.1//EN"
 "http://www.w3.org/Graphics/SVG/1.1/DTD/svg11.dtd">
<!-- Generated by graphviz version 2.43.0 (0)
 -->
<!-- Title: Acts::PlaneSurface Pages: 1 -->
<svg width="1230pt" height="191pt"
 viewBox="0.00 0.00 1230.00 191.00" xmlns="http://www.w3.org/2000/svg" xmlns:xlink="http://www.w3.org/1999/xlink">
<g id="graph0" class="graph" transform="scale(1 1) rotate(0) translate(4 187)">
<title>Acts::PlaneSurface</title>
<!-- Node1 -->
<g id="Node000001" class="node">
<title>Node1</title>
<g id="a_Node000001"><a xlink:title="Class for a planaer in the TrackingGeometry.">
<polygon fill="#999999" stroke="#666666" points="1222,-94.5 1115,-94.5 1115,-75.5 1222,-75.5 1222,-94.5"/>
<text text-anchor="middle" x="1168.5" y="-82.5" font-family="Helvetica,sans-Serif" font-size="10.00">Acts::PlaneSurface</text>
</a>
</g>
</g>
<!-- Node2 -->
<g id="Node000002" class="node">
<title>Node2</title>
<g id="a_Node000002"><a xlink:href="class_acts_1_1_regular_surface.html" target="_top" xlink:title="A physical surface which does not depend on the direction you look at it from.">
<polygon fill="white" stroke="#666666" points="1017.5,-116.5 899.5,-116.5 899.5,-97.5 1017.5,-97.5 1017.5,-116.5"/>
<text text-anchor="middle" x="958.5" y="-104.5" font-family="Helvetica,sans-Serif" font-size="10.00">Acts::RegularSurface</text>
</a>
</g>
</g>
<!-- Node2&#45;&gt;Node1 -->
<g id="edge1_Node000001_Node000002" class="edge">
<title>Node2&#45;&gt;Node1</title>
<g id="a_edge1_Node000001_Node000002"><a xlink:title=" ">
<path fill="none" stroke="#63b8ff" d="M1027.95,-99.76C1056.27,-96.76 1088.59,-93.35 1114.98,-90.55"/>
<polygon fill="#63b8ff" stroke="#63b8ff" points="1027.29,-96.31 1017.72,-100.84 1028.03,-103.27 1027.29,-96.31"/>
</a>
</g>
</g>
<!-- Node3 -->
<g id="Node000003" class="node">
<title>Node3</title>
<g id="a_Node000003"><a xlink:href="class_acts_1_1_surface.html" target="_top" xlink:title="Abstract Base Class for tracking surfaces.">
<polygon fill="white" stroke="#666666" points="688,-116.5 608,-116.5 608,-97.5 688,-97.5 688,-116.5"/>
<text text-anchor="middle" x="648" y="-104.5" font-family="Helvetica,sans-Serif" font-size="10.00">Acts::Surface</text>
</a>
</g>
</g>
<!-- Node3&#45;&gt;Node2 -->
<g id="edge2_Node000002_Node000003" class="edge">
<title>Node3&#45;&gt;Node2</title>
<g id="a_edge2_Node000002_Node000003"><a xlink:title=" ">
<path fill="none" stroke="#63b8ff" d="M698.21,-107C752.92,-107 841.2,-107 899.29,-107"/>
<polygon fill="#63b8ff" stroke="#63b8ff" points="698.07,-103.5 688.07,-107 698.07,-110.5 698.07,-103.5"/>
</a>
</g>
</g>
<!-- Node4 -->
<g id="Node000004" class="node">
<title>Node4</title>
<g id="a_Node000004"><a xlink:href="class_acts_1_1_geometry_object.html" target="_top" xlink:title="Base class to provide GeometryIdentifier interface:">
<polygon fill="white" stroke="#666666" points="428.5,-175.5 304.5,-175.5 304.5,-156.5 428.5,-156.5 428.5,-175.5"/>
<text text-anchor="middle" x="366.5" y="-163.5" font-family="Helvetica,sans-Serif" font-size="10.00">Acts::GeometryObject</text>
</a>
</g>
</g>
<!-- Node4&#45;&gt;Node3 -->
<g id="edge3_Node000003_Node000004" class="edge">
<title>Node4&#45;&gt;Node3</title>
<g id="a_edge3_Node000003_Node000004"><a xlink:title=" ">
<path fill="none" stroke="#63b8ff" d="M435.75,-154.75C475.41,-147.84 526.22,-138.35 571,-128 585.4,-124.67 601.18,-120.41 614.61,-116.6"/>
<polygon fill="#63b8ff" stroke="#63b8ff" points="434.92,-151.34 425.66,-156.49 436.12,-158.24 434.92,-151.34"/>
</a>
</g>
</g>
<!-- Node5 -->
<g id="Node000005" class="node">
<title>Node5</title>
<g id="a_Node000005"><a xlink:href="class_acts_1_1_geometry_identifier.html" target="_top" xlink:title="Identifier for geometry nodes within the geometry hierarchy.">
<polygon fill="white" stroke="#666666" points="136,-175.5 0,-175.5 0,-156.5 136,-156.5 136,-175.5"/>
<text text-anchor="middle" x="68" y="-163.5" font-family="Helvetica,sans-Serif" font-size="10.00">Acts::GeometryIdentifier</text>
</a>
</g>
</g>
<!-- Node5&#45;&gt;Node4 -->
<g id="edge4_Node000004_Node000005" class="edge">
<title>Node5&#45;&gt;Node4</title>
<g id="a_edge4_Node000004_Node000005"><a xlink:title=" ">
<path fill="none" stroke="#9a32cd" stroke-dasharray="5,2" d="M146.55,-166C195.68,-166 258.35,-166 304.04,-166"/>
<polygon fill="#9a32cd" stroke="#9a32cd" points="146.28,-162.5 136.28,-166 146.28,-169.5 146.28,-162.5"/>
</a>
</g>
<text text-anchor="start" x="177" y="-171.5" font-family="Helvetica,sans-Serif" font-size="10.00" fill="grey">m_geometryId</text>
</g>
<!-- Node6 -->
<g id="Node000006" class="node">
<title>Node6</title>
<g id="a_Node000006"><a xlink:title=" ">
<polygon fill="white" stroke="#666666" points="430.5,-138 302.5,-138 302.5,-108 430.5,-108 430.5,-138"/>
<text text-anchor="start" x="310.5" y="-126" font-family="Helvetica,sans-Serif" font-size="10.00">std::enable_shared</text>
<text text-anchor="middle" x="366.5" y="-115" font-family="Helvetica,sans-Serif" font-size="10.00">_from_this&lt; Surface &gt;</text>
</a>
</g>
</g>
<!-- Node6&#45;&gt;Node3 -->
<g id="edge5_Node000003_Node000006" class="edge">
<title>Node6&#45;&gt;Node3</title>
<g id="a_edge5_Node000003_Node000006"><a xlink:title=" ">
<path fill="none" stroke="#63b8ff" d="M440.69,-118.81C494.19,-115.75 564.67,-111.71 607.86,-109.24"/>
<polygon fill="#63b8ff" stroke="#63b8ff" points="440.36,-115.32 430.57,-119.39 440.76,-122.31 440.36,-115.32"/>
</a>
</g>
</g>
<!-- Node7 -->
<g id="Node000007" class="node">
<title>Node7</title>
<g id="a_Node000007"><a xlink:title=" ">
<polygon fill="white" stroke="#666666" points="443,-89.5 290,-89.5 290,-48.5 443,-48.5 443,-89.5"/>
<text text-anchor="start" x="298" y="-77.5" font-family="Helvetica,sans-Serif" font-size="10.00">std::array&lt; std::string</text>
<text text-anchor="start" x="298" y="-66.5" font-family="Helvetica,sans-Serif" font-size="10.00">_view, Surface::SurfaceType</text>
<text text-anchor="middle" x="366.5" y="-55.5" font-family="Helvetica,sans-Serif" font-size="10.00">::Other+1 &gt;</text>
</a>
</g>
</g>
<!-- Node7&#45;&gt;Node3 -->
<g id="edge6_Node000003_Node000007" class="edge">
<title>Node7&#45;&gt;Node3</title>
<g id="a_edge6_Node000003_Node000007"><a xlink:title=" ">
<path fill="none" stroke="#9a32cd" stroke-dasharray="5,2" d="M453.26,-75.6C489.69,-78.99 532.55,-83.74 571,-90 583.28,-92 596.55,-94.76 608.51,-97.47"/>
<polygon fill="#9a32cd" stroke="#9a32cd" points="453.44,-72.1 443.16,-74.68 452.8,-79.07 453.44,-72.1"/>
</a>
</g>
<text text-anchor="start" x="464" y="-95.5" font-family="Helvetica,sans-Serif" font-size="10.00" fill="grey">s_surfaceTypeNames</text>
</g>
<!-- Node8 -->
<g id="Node000008" class="node">
<title>Node8</title>
<g id="a_Node000008"><a xlink:title=" ">
<polygon fill="white" stroke="#666666" points="114,-78.5 22,-78.5 22,-59.5 114,-59.5 114,-78.5"/>
<text text-anchor="middle" x="68" y="-66.5" font-family="Helvetica,sans-Serif" font-size="10.00">std::array&lt; T &gt;</text>
</a>
</g>
</g>
<!-- Node8&#45;&gt;Node7 -->
<g id="edge7_Node000007_Node000008" class="edge">
<title>Node8&#45;&gt;Node7</title>
<g id="a_edge7_Node000007_Node000008"><a xlink:title=" ">
<path fill="none" stroke="orange" stroke-dasharray="5,2" d="M124.24,-69C170.86,-69 238.07,-69 289.72,-69"/>
<polygon fill="orange" stroke="orange" points="124.03,-65.5 114.03,-69 124.03,-72.5 124.03,-65.5"/>
</a>
</g>
<text text-anchor="start" x="157" y="-104.5" font-family="Helvetica,sans-Serif" font-size="10.00" fill="grey">&lt; std::string_view,</text>
<text text-anchor="start" x="157" y="-89.5" font-family="Helvetica,sans-Serif" font-size="10.00" fill="grey">   Surface::SurfaceType</text>
<text text-anchor="start" x="157" y="-74.5" font-family="Helvetica,sans-Serif" font-size="10.00" fill="grey">  ::Other+1 &gt;</text>
</g>
<!-- Node9 -->
<g id="Node000009" class="node">
<title>Node9</title>
<g id="a_Node000009"><a xlink:title=" ">
<polygon fill="white" stroke="#666666" points="430,-30 303,-30 303,0 430,0 430,-30"/>
<text text-anchor="start" x="311" y="-18" font-family="Helvetica,sans-Serif" font-size="10.00">std::unique_ptr&lt; const</text>
<text text-anchor="middle" x="366.5" y="-7" font-family="Helvetica,sans-Serif" font-size="10.00"> Transform3 &gt;</text>
</a>
</g>
</g>
<!-- Node9&#45;&gt;Node3 -->
<g id="edge8_Node000003_Node000009" class="edge">
<title>Node9&#45;&gt;Node3</title>
<g id="a_edge8_Node000003_Node000009"><a xlink:title=" ">
<path fill="none" stroke="#9a32cd" stroke-dasharray="5,2" d="M440.26,-15.54C481.68,-19.04 532.76,-29.02 571,-55 583.24,-63.31 577.65,-73.52 589,-83 596.28,-89.08 605.31,-93.8 614.06,-97.38"/>
<polygon fill="#9a32cd" stroke="#9a32cd" points="440.45,-12.05 430.23,-14.8 439.94,-19.03 440.45,-12.05"/>
</a>
</g>
<text text-anchor="start" x="484" y="-60.5" font-family="Helvetica,sans-Serif" font-size="10.00" fill="grey">m_transform</text>
</g>
<!-- Node10 -->
<g id="Node000010" class="node">
<title>Node10</title>
<g id="a_Node000010"><a xlink:title=" ">
<polygon fill="white" stroke="#666666" points="127,-24.5 9,-24.5 9,-5.5 127,-5.5 127,-24.5"/>
<text text-anchor="middle" x="68" y="-12.5" font-family="Helvetica,sans-Serif" font-size="10.00">std::unique_ptr&lt; T &gt;</text>
</a>
</g>
</g>
<!-- Node10&#45;&gt;Node9 -->
<g id="edge9_Node000009_Node000010" class="edge">
<title>Node10&#45;&gt;Node9</title>
<g id="a_edge9_Node000009_Node000010"><a xlink:title=" ">
<path fill="none" stroke="orange" stroke-dasharray="5,2" d="M137.28,-15C187.16,-15 254.27,-15 302.8,-15"/>
<polygon fill="orange" stroke="orange" points="137.23,-11.5 127.23,-15 137.23,-18.5 137.23,-11.5"/>
</a>
</g>
<text text-anchor="start" x="160" y="-20.5" font-family="Helvetica,sans-Serif" font-size="10.00" fill="grey">&lt; const Transform3 &gt;</text>
</g>
<!-- Node11 -->
<g id="Node000011" class="node">
<title>Node11</title>
<g id="a_Node000011"><a xlink:title=" ">
<polygon fill="white" stroke="#666666" points="1022,-79 895,-79 895,-49 1022,-49 1022,-79"/>
<text text-anchor="start" x="903" y="-67" font-family="Helvetica,sans-Serif" font-size="10.00">std::shared_ptr&lt; const</text>
<text text-anchor="middle" x="958.5" y="-56" font-family="Helvetica,sans-Serif" font-size="10.00"> Acts::PlanarBounds &gt;</text>
</a>
</g>
</g>
<!-- Node11&#45;&gt;Node1 -->
<g id="edge10_Node000001_Node000011" class="edge">
<title>Node11&#45;&gt;Node1</title>
<g id="a_edge10_Node000001_Node000011"><a xlink:title=" ">
<path fill="none" stroke="#9a32cd" stroke-dasharray="5,2" d="M1032.35,-67.36C1053.27,-68.71 1076.07,-70.54 1097,-73 1102.92,-73.7 1109.1,-74.55 1115.23,-75.48"/>
<polygon fill="#9a32cd" stroke="#9a32cd" points="1032.45,-63.86 1022.26,-66.74 1032.02,-70.85 1032.45,-63.86"/>
</a>
</g>
<text text-anchor="start" x="1043.5" y="-78.5" font-family="Helvetica,sans-Serif" font-size="10.00" fill="grey">m_bounds</text>
</g>
<!-- Node12 -->
<g id="Node000012" class="node">
<title>Node12</title>
<g id="a_Node000012"><a xlink:title=" ">
<polygon fill="white" stroke="#666666" points="707,-73.5 589,-73.5 589,-54.5 707,-54.5 707,-73.5"/>
<text text-anchor="middle" x="648" y="-61.5" font-family="Helvetica,sans-Serif" font-size="10.00">std::shared_ptr&lt; T &gt;</text>
</a>
</g>
</g>
<!-- Node12&#45;&gt;Node11 -->
<g id="edge11_Node000011_Node000012" class="edge">
<title>Node12&#45;&gt;Node11</title>
<g id="a_edge11_Node000011_Node000012"><a xlink:title=" ">
<path fill="none" stroke="orange" stroke-dasharray="5,2" d="M717.03,-64C770.13,-64 843.32,-64 894.96,-64"/>
<polygon fill="orange" stroke="orange" points="717.03,-60.5 707.03,-64 717.03,-67.5 717.03,-60.5"/>
</a>
</g>
<text text-anchor="start" x="728" y="-69.5" font-family="Helvetica,sans-Serif" font-size="10.00" fill="grey">&lt; const Acts::PlanarBounds &gt;</text>
</g>
</g>
</svg>
