<?xml version="1.0" encoding="UTF-8" standalone="no"?>
<!DOCTYPE svg PUBLIC "-//W3C//DTD SVG 1.1//EN"
 "http://www.w3.org/Graphics/SVG/1.1/DTD/svg11.dtd">
<!-- Generated by graphviz version 2.43.0 (0)
 -->
<!-- Title: Acts::IVisualization3D Pages: 1 -->
<svg width="147pt" height="243pt"
 viewBox="0.00 0.00 146.50 243.00" xmlns="http://www.w3.org/2000/svg" xmlns:xlink="http://www.w3.org/1999/xlink">
<g id="graph0" class="graph" transform="scale(1 1) rotate(0) translate(4 239)">
<title>Acts::IVisualization3D</title>
<!-- Node1 -->
<g id="Node000001" class="node">
<title>Node1</title>
<g id="a_Node000001"><a xlink:title="Partially abstract base class which provides an interface to visualization helper classes.">
<polygon fill="#999999" stroke="#666666" points="123,-19 0,-19 0,0 123,0 123,-19"/>
<text text-anchor="middle" x="61.5" y="-7" font-family="Helvetica,sans-Serif" font-size="10.00">Acts::IVisualization3D</text>
</a>
</g>
</g>
<!-- Node2 -->
<g id="Node000002" class="node">
<title>Node2</title>
<g id="a_Node000002"><a xlink:href="struct_acts_1_1_color.html" target="_top" xlink:title="Struct describing a color.">
<polygon fill="white" stroke="#666666" points="96,-91 27,-91 27,-72 96,-72 96,-91"/>
<text text-anchor="middle" x="61.5" y="-79" font-family="Helvetica,sans-Serif" font-size="10.00">Acts::Color</text>
</a>
</g>
</g>
<!-- Node2&#45;&gt;Node1 -->
<g id="edge1_Node000001_Node000002" class="edge">
<title>Node2&#45;&gt;Node1</title>
<g id="a_edge1_Node000001_Node000002"><a xlink:title=" ">
<path fill="none" stroke="#9a32cd" stroke-dasharray="5,2" d="M61.5,-61.58C61.5,-47.76 61.5,-29.68 61.5,-19.15"/>
<polygon fill="#9a32cd" stroke="#9a32cd" points="58,-61.92 61.5,-71.92 65,-61.92 58,-61.92"/>
</a>
</g>
<text text-anchor="start" x="65" y="-42.5" font-family="Helvetica,sans-Serif" font-size="10.00" fill="grey">s_defaultColor</text>
</g>
<!-- Node3 -->
<g id="Node000003" class="node">
<title>Node3</title>
<g id="a_Node000003"><a xlink:title=" ">
<polygon fill="white" stroke="#666666" points="116.5,-163 6.5,-163 6.5,-144 116.5,-144 116.5,-163"/>
<text text-anchor="middle" x="61.5" y="-151" font-family="Helvetica,sans-Serif" font-size="10.00">std::array&lt; int, 3 &gt;</text>
</a>
</g>
</g>
<!-- Node3&#45;&gt;Node2 -->
<g id="edge2_Node000002_Node000003" class="edge">
<title>Node3&#45;&gt;Node2</title>
<g id="a_edge2_Node000002_Node000003"><a xlink:title=" ">
<path fill="none" stroke="#9a32cd" stroke-dasharray="5,2" d="M61.5,-133.58C61.5,-119.76 61.5,-101.68 61.5,-91.15"/>
<polygon fill="#9a32cd" stroke="#9a32cd" points="58,-133.92 61.5,-143.92 65,-133.92 58,-133.92"/>
</a>
</g>
<text text-anchor="start" x="64.5" y="-114.5" font-family="Helvetica,sans-Serif" font-size="10.00" fill="grey">rgb</text>
</g>
<!-- Node4 -->
<g id="Node000004" class="node">
<title>Node4</title>
<g id="a_Node000004"><a xlink:title=" ">
<polygon fill="white" stroke="#666666" points="107.5,-235 15.5,-235 15.5,-216 107.5,-216 107.5,-235"/>
<text text-anchor="middle" x="61.5" y="-223" font-family="Helvetica,sans-Serif" font-size="10.00">std::array&lt; T &gt;</text>
</a>
</g>
</g>
<!-- Node4&#45;&gt;Node3 -->
<g id="edge3_Node000003_Node000004" class="edge">
<title>Node4&#45;&gt;Node3</title>
<g id="a_edge3_Node000003_Node000004"><a xlink:title=" ">
<path fill="none" stroke="orange" stroke-dasharray="5,2" d="M61.5,-205.58C61.5,-191.76 61.5,-173.68 61.5,-163.15"/>
<polygon fill="orange" stroke="orange" points="58,-205.92 61.5,-215.92 65,-205.92 58,-205.92"/>
</a>
</g>
<text text-anchor="start" x="64.5" y="-186.5" font-family="Helvetica,sans-Serif" font-size="10.00" fill="grey">&lt; int, 3 &gt;</text>
</g>
</g>
</svg>
