<?xml version="1.0" encoding="UTF-8" standalone="no"?>
<!DOCTYPE svg PUBLIC "-//W3C//DTD SVG 1.1//EN"
 "http://www.w3.org/Graphics/SVG/1.1/DTD/svg11.dtd">
<!-- Generated by graphviz version 2.43.0 (0)
 -->
<!-- Title: Acts::GeometryObject Pages: 1 -->
<svg width="749pt" height="323pt"
 viewBox="0.00 0.00 749.00 323.00" xmlns="http://www.w3.org/2000/svg" xmlns:xlink="http://www.w3.org/1999/xlink">
<g id="graph0" class="graph" transform="scale(1 1) rotate(0) translate(4 319)">
<title>Acts::GeometryObject</title>
<!-- Node1 -->
<g id="Node000001" class="node">
<title>Node1</title>
<g id="a_Node000001"><a xlink:title="Base class to provide GeometryIdentifier interface:">
<polygon fill="#999999" stroke="#666666" points="124,-130 0,-130 0,-111 124,-111 124,-130"/>
<text text-anchor="middle" x="62" y="-118" font-family="Helvetica,sans-Serif" font-size="10.00">Acts::GeometryObject</text>
</a>
</g>
</g>
<!-- Node2 -->
<g id="Node000002" class="node">
<title>Node2</title>
<g id="a_Node000002"><a xlink:href="class_acts_1_1_layer.html" target="_top" xlink:title="Base Class for a Detector Layer in the Tracking Geometry.">
<polygon fill="white" stroke="#666666" points="542.5,-130 471.5,-130 471.5,-111 542.5,-111 542.5,-130"/>
<text text-anchor="middle" x="507" y="-118" font-family="Helvetica,sans-Serif" font-size="10.00">Acts::Layer</text>
</a>
</g>
</g>
<!-- Node1&#45;&gt;Node2 -->
<g id="edge1_Node000001_Node000002" class="edge">
<title>Node1&#45;&gt;Node2</title>
<g id="a_edge1_Node000001_Node000002"><a xlink:title=" ">
<path fill="none" stroke="#63b8ff" d="M134.39,-120.5C230.87,-120.5 399.13,-120.5 471.4,-120.5"/>
<polygon fill="#63b8ff" stroke="#63b8ff" points="134.13,-117 124.13,-120.5 134.13,-124 134.13,-117"/>
</a>
</g>
</g>
<!-- Node8 -->
<g id="Node000008" class="node">
<title>Node8</title>
<g id="a_Node000008"><a xlink:href="class_acts_1_1_surface.html" target="_top" xlink:title="Abstract Base Class for tracking surfaces.">
<polygon fill="white" stroke="#666666" points="240,-186 160,-186 160,-167 240,-167 240,-186"/>
<text text-anchor="middle" x="200" y="-174" font-family="Helvetica,sans-Serif" font-size="10.00">Acts::Surface</text>
</a>
</g>
</g>
<!-- Node1&#45;&gt;Node8 -->
<g id="edge7_Node000001_Node000008" class="edge">
<title>Node1&#45;&gt;Node8</title>
<g id="a_edge7_Node000001_Node000008"><a xlink:title=" ">
<path fill="none" stroke="#63b8ff" d="M95.74,-133.98C120.51,-144.18 153.91,-157.93 175.93,-167"/>
<polygon fill="#63b8ff" stroke="#63b8ff" points="96.96,-130.7 86.38,-130.13 94.29,-137.17 96.96,-130.7"/>
</a>
</g>
</g>
<!-- Node17 -->
<g id="Node000017" class="node">
<title>Node17</title>
<g id="a_Node000017"><a xlink:href="class_acts_1_1_volume.html" target="_top" xlink:title="It inherits from GeometryObject for geometry identification.">
<polygon fill="white" stroke="#666666" points="240,-56 160,-56 160,-37 240,-37 240,-56"/>
<text text-anchor="middle" x="200" y="-44" font-family="Helvetica,sans-Serif" font-size="10.00">Acts::Volume</text>
</a>
</g>
</g>
<!-- Node1&#45;&gt;Node17 -->
<g id="edge20_Node000001_Node000017" class="edge">
<title>Node1&#45;&gt;Node17</title>
<g id="a_edge20_Node000001_Node000017"><a xlink:title=" ">
<path fill="none" stroke="#63b8ff" d="M89.42,-106.13C116.45,-91.42 157.72,-68.96 181.13,-56.22"/>
<polygon fill="#63b8ff" stroke="#63b8ff" points="87.61,-103.12 80.5,-110.98 90.96,-109.27 87.61,-103.12"/>
</a>
</g>
</g>
<!-- Node3 -->
<g id="Node000003" class="node">
<title>Node3</title>
<g id="a_Node000003"><a xlink:href="class_acts_1_1_cone_layer.html" target="_top" xlink:title="Class to describe a conical detector layer for tracking, it inhertis from both, Layer base class and ...">
<polygon fill="white" stroke="#666666" points="726.5,-93 631.5,-93 631.5,-74 726.5,-74 726.5,-93"/>
<text text-anchor="middle" x="679" y="-81" font-family="Helvetica,sans-Serif" font-size="10.00">Acts::ConeLayer</text>
</a>
</g>
</g>
<!-- Node2&#45;&gt;Node3 -->
<g id="edge2_Node000002_Node000003" class="edge">
<title>Node2&#45;&gt;Node3</title>
<g id="a_edge2_Node000002_Node000003"><a xlink:title=" ">
<path fill="none" stroke="#63b8ff" d="M552.82,-110.74C577.96,-105.27 609.18,-98.48 634.15,-93.04"/>
<polygon fill="#63b8ff" stroke="#63b8ff" points="551.84,-107.38 542.81,-112.92 553.33,-114.22 551.84,-107.38"/>
</a>
</g>
</g>
<!-- Node4 -->
<g id="Node000004" class="node">
<title>Node4</title>
<g id="a_Node000004"><a xlink:href="class_acts_1_1_cylinder_layer.html" target="_top" xlink:title="Class to describe a cylindrical detector layer for tracking, it inhertis from both,...">
<polygon fill="white" stroke="#666666" points="734.5,-241 623.5,-241 623.5,-222 734.5,-222 734.5,-241"/>
<text text-anchor="middle" x="679" y="-229" font-family="Helvetica,sans-Serif" font-size="10.00">Acts::CylinderLayer</text>
</a>
</g>
</g>
<!-- Node2&#45;&gt;Node4 -->
<g id="edge3_Node000002_Node000004" class="edge">
<title>Node2&#45;&gt;Node4</title>
<g id="a_edge3_Node000002_Node000004"><a xlink:title=" ">
<path fill="none" stroke="#63b8ff" d="M552.77,-125.73C562.85,-128.57 572.95,-132.9 581,-139.5 609.29,-162.68 589.08,-189.87 617,-213.5 621.05,-216.92 625.72,-219.7 630.64,-221.94"/>
<polygon fill="#63b8ff" stroke="#63b8ff" points="553.29,-122.26 542.76,-123.36 551.68,-129.07 553.29,-122.26"/>
</a>
</g>
</g>
<!-- Node5 -->
<g id="Node000005" class="node">
<title>Node5</title>
<g id="a_Node000005"><a xlink:href="class_acts_1_1_disc_layer.html" target="_top" xlink:title="Class to describe a disc&#45;like detector layer for tracking, it inhertis from both, Layer base class an...">
<polygon fill="white" stroke="#666666" points="725,-204 633,-204 633,-185 725,-185 725,-204"/>
<text text-anchor="middle" x="679" y="-192" font-family="Helvetica,sans-Serif" font-size="10.00">Acts::DiscLayer</text>
</a>
</g>
</g>
<!-- Node2&#45;&gt;Node5 -->
<g id="edge4_Node000002_Node000005" class="edge">
<title>Node2&#45;&gt;Node5</title>
<g id="a_edge4_Node000002_Node000005"><a xlink:title=" ">
<path fill="none" stroke="#63b8ff" d="M552.28,-127.91C562.14,-130.67 572.26,-134.41 581,-139.5 600.83,-151.04 597.36,-164.64 617,-176.5 622.58,-179.87 628.82,-182.64 635.14,-184.91"/>
<polygon fill="#63b8ff" stroke="#63b8ff" points="553.11,-124.51 542.56,-125.48 551.41,-131.3 553.11,-124.51"/>
</a>
</g>
</g>
<!-- Node6 -->
<g id="Node000006" class="node">
<title>Node6</title>
<g id="a_Node000006"><a xlink:href="class_acts_1_1_navigation_layer.html" target="_top" xlink:title="Class to be used for gaps in Volumes as a navigational link.">
<polygon fill="white" stroke="#666666" points="741,-130 617,-130 617,-111 741,-111 741,-130"/>
<text text-anchor="middle" x="679" y="-118" font-family="Helvetica,sans-Serif" font-size="10.00">Acts::NavigationLayer</text>
</a>
</g>
</g>
<!-- Node2&#45;&gt;Node6 -->
<g id="edge5_Node000002_Node000006" class="edge">
<title>Node2&#45;&gt;Node6</title>
<g id="a_edge5_Node000002_Node000006"><a xlink:title=" ">
<path fill="none" stroke="#63b8ff" d="M552.96,-120.5C572.49,-120.5 595.68,-120.5 616.75,-120.5"/>
<polygon fill="#63b8ff" stroke="#63b8ff" points="552.81,-117 542.81,-120.5 552.81,-124 552.81,-117"/>
</a>
</g>
</g>
<!-- Node7 -->
<g id="Node000007" class="node">
<title>Node7</title>
<g id="a_Node000007"><a xlink:href="class_acts_1_1_plane_layer.html" target="_top" xlink:title="Class to describe a planar detector layer for tracking, it inhertis from both, Layer base class and P...">
<polygon fill="white" stroke="#666666" points="728,-167 630,-167 630,-148 728,-148 728,-167"/>
<text text-anchor="middle" x="679" y="-155" font-family="Helvetica,sans-Serif" font-size="10.00">Acts::PlaneLayer</text>
</a>
</g>
</g>
<!-- Node2&#45;&gt;Node7 -->
<g id="edge6_Node000002_Node000007" class="edge">
<title>Node2&#45;&gt;Node7</title>
<g id="a_edge6_Node000002_Node000007"><a xlink:title=" ">
<path fill="none" stroke="#63b8ff" d="M552.82,-130.26C577.96,-135.73 609.18,-142.52 634.15,-147.96"/>
<polygon fill="#63b8ff" stroke="#63b8ff" points="553.33,-126.78 542.81,-128.08 551.84,-133.62 553.33,-126.78"/>
</a>
</g>
</g>
<!-- Node9 -->
<g id="Node000009" class="node">
<title>Node9</title>
<g id="a_Node000009"><a xlink:href="class_acts_1_1_line_surface.html" target="_top" xlink:title="Base class for a linear surfaces in the TrackingGeometry to describe dirft tube, straw like detectors...">
<polygon fill="white" stroke="#666666" points="387,-278 286,-278 286,-259 387,-259 387,-278"/>
<text text-anchor="middle" x="336.5" y="-266" font-family="Helvetica,sans-Serif" font-size="10.00">Acts::LineSurface</text>
</a>
</g>
</g>
<!-- Node8&#45;&gt;Node9 -->
<g id="edge8_Node000008_Node000009" class="edge">
<title>Node8&#45;&gt;Node9</title>
<g id="a_edge8_Node000008_Node000009"><a xlink:title=" ">
<path fill="none" stroke="#63b8ff" d="M223.73,-192.05C251.58,-211.1 297.92,-242.79 321.21,-258.73"/>
<polygon fill="#63b8ff" stroke="#63b8ff" points="225.62,-189.1 215.39,-186.35 221.67,-194.88 225.62,-189.1"/>
</a>
</g>
</g>
<!-- Node12 -->
<g id="Node000012" class="node">
<title>Node12</title>
<g id="a_Node000012"><a xlink:href="class_acts_1_1_regular_surface.html" target="_top" xlink:title="A physical surface which does not depend on the direction you look at it from.">
<polygon fill="white" stroke="#666666" points="395.5,-186 277.5,-186 277.5,-167 395.5,-167 395.5,-186"/>
<text text-anchor="middle" x="336.5" y="-174" font-family="Helvetica,sans-Serif" font-size="10.00">Acts::RegularSurface</text>
</a>
</g>
</g>
<!-- Node8&#45;&gt;Node12 -->
<g id="edge11_Node000008_Node000012" class="edge">
<title>Node8&#45;&gt;Node12</title>
<g id="a_edge11_Node000008_Node000012"><a xlink:title=" ">
<path fill="none" stroke="#63b8ff" d="M250.36,-176.5C259.17,-176.5 268.42,-176.5 277.44,-176.5"/>
<polygon fill="#63b8ff" stroke="#63b8ff" points="250.26,-173 240.26,-176.5 250.26,-180 250.26,-173"/>
</a>
</g>
</g>
<!-- Node10 -->
<g id="Node000010" class="node">
<title>Node10</title>
<g id="a_Node000010"><a xlink:href="class_acts_1_1_perigee_surface.html" target="_top" xlink:title="Class describing the Line to which the Perigee refers to.">
<polygon fill="white" stroke="#666666" points="565.5,-278 448.5,-278 448.5,-259 565.5,-259 565.5,-278"/>
<text text-anchor="middle" x="507" y="-266" font-family="Helvetica,sans-Serif" font-size="10.00">Acts::PerigeeSurface</text>
</a>
</g>
</g>
<!-- Node9&#45;&gt;Node10 -->
<g id="edge9_Node000009_Node000010" class="edge">
<title>Node9&#45;&gt;Node10</title>
<g id="a_edge9_Node000009_Node000010"><a xlink:title=" ">
<path fill="none" stroke="#63b8ff" d="M397.29,-268.5C413.91,-268.5 431.92,-268.5 448.41,-268.5"/>
<polygon fill="#63b8ff" stroke="#63b8ff" points="397.14,-265 387.14,-268.5 397.14,-272 397.14,-265"/>
</a>
</g>
</g>
<!-- Node11 -->
<g id="Node000011" class="node">
<title>Node11</title>
<g id="a_Node000011"><a xlink:href="class_acts_1_1_straw_surface.html" target="_top" xlink:title="Class for a StrawSurface in the TrackingGeometry to describe dirft tube and straw like detectors.">
<polygon fill="white" stroke="#666666" points="561,-315 453,-315 453,-296 561,-296 561,-315"/>
<text text-anchor="middle" x="507" y="-303" font-family="Helvetica,sans-Serif" font-size="10.00">Acts::StrawSurface</text>
</a>
</g>
</g>
<!-- Node9&#45;&gt;Node11 -->
<g id="edge10_Node000009_Node000011" class="edge">
<title>Node9&#45;&gt;Node11</title>
<g id="a_edge10_Node000009_Node000011"><a xlink:title=" ">
<path fill="none" stroke="#63b8ff" d="M390.87,-280.22C413.95,-285.29 440.61,-291.14 462.46,-295.94"/>
<polygon fill="#63b8ff" stroke="#63b8ff" points="391.41,-276.75 380.89,-278.03 389.91,-283.59 391.41,-276.75"/>
</a>
</g>
</g>
<!-- Node13 -->
<g id="Node000013" class="node">
<title>Node13</title>
<g id="a_Node000013"><a xlink:href="class_acts_1_1_cone_surface.html" target="_top" xlink:title="Class for a conical surface in the Tracking geometry.">
<polygon fill="white" stroke="#666666" points="559.5,-93 454.5,-93 454.5,-74 559.5,-74 559.5,-93"/>
<text text-anchor="middle" x="507" y="-81" font-family="Helvetica,sans-Serif" font-size="10.00">Acts::ConeSurface</text>
</a>
</g>
</g>
<!-- Node12&#45;&gt;Node13 -->
<g id="edge12_Node000012_Node000013" class="edge">
<title>Node12&#45;&gt;Node13</title>
<g id="a_edge12_Node000012_Node000013"><a xlink:title=" ">
<path fill="none" stroke="#63b8ff" d="M354.57,-159.74C372.62,-142.92 402.64,-117.43 433,-102.5 440.76,-98.69 449.37,-95.58 457.87,-93.06"/>
<polygon fill="#63b8ff" stroke="#63b8ff" points="352,-157.36 347.16,-166.79 356.82,-162.43 352,-157.36"/>
</a>
</g>
</g>
<!-- Node14 -->
<g id="Node000014" class="node">
<title>Node14</title>
<g id="a_Node000014"><a xlink:href="class_acts_1_1_cylinder_surface.html" target="_top" xlink:title="Class for a CylinderSurface in the TrackingGeometry.">
<polygon fill="white" stroke="#666666" points="567.5,-241 446.5,-241 446.5,-222 567.5,-222 567.5,-241"/>
<text text-anchor="middle" x="507" y="-229" font-family="Helvetica,sans-Serif" font-size="10.00">Acts::CylinderSurface</text>
</a>
</g>
</g>
<!-- Node12&#45;&gt;Node14 -->
<g id="edge14_Node000012_Node000014" class="edge">
<title>Node12&#45;&gt;Node14</title>
<g id="a_edge14_Node000012_Node000014"><a xlink:title=" ">
<path fill="none" stroke="#63b8ff" d="M369.34,-190.01C387.74,-197.52 411.44,-206.7 433,-213.5 442.71,-216.56 453.28,-219.43 463.28,-221.94"/>
<polygon fill="#63b8ff" stroke="#63b8ff" points="370.56,-186.73 359.98,-186.15 367.89,-193.2 370.56,-186.73"/>
</a>
</g>
</g>
<!-- Node15 -->
<g id="Node000015" class="node">
<title>Node15</title>
<g id="a_Node000015"><a xlink:href="class_acts_1_1_disc_surface.html" target="_top" xlink:title="Class for a disc surface (or a segment thereof).">
<polygon fill="white" stroke="#666666" points="557.5,-204 456.5,-204 456.5,-185 557.5,-185 557.5,-204"/>
<text text-anchor="middle" x="507" y="-192" font-family="Helvetica,sans-Serif" font-size="10.00">Acts::DiscSurface</text>
</a>
</g>
</g>
<!-- Node12&#45;&gt;Node15 -->
<g id="edge16_Node000012_Node000015" class="edge">
<title>Node12&#45;&gt;Node15</title>
<g id="a_edge16_Node000012_Node000015"><a xlink:title=" ">
<path fill="none" stroke="#63b8ff" d="M406.26,-183.85C423.03,-185.64 440.64,-187.52 456.32,-189.19"/>
<polygon fill="#63b8ff" stroke="#63b8ff" points="406.28,-180.33 395.96,-182.75 405.53,-187.29 406.28,-180.33"/>
</a>
</g>
</g>
<!-- Node16 -->
<g id="Node000016" class="node">
<title>Node16</title>
<g id="a_Node000016"><a xlink:href="class_acts_1_1_plane_surface.html" target="_top" xlink:title="Class for a planaer in the TrackingGeometry.">
<polygon fill="white" stroke="#666666" points="560.5,-167 453.5,-167 453.5,-148 560.5,-148 560.5,-167"/>
<text text-anchor="middle" x="507" y="-155" font-family="Helvetica,sans-Serif" font-size="10.00">Acts::PlaneSurface</text>
</a>
</g>
</g>
<!-- Node12&#45;&gt;Node16 -->
<g id="edge18_Node000012_Node000016" class="edge">
<title>Node12&#45;&gt;Node16</title>
<g id="a_edge18_Node000012_Node000016"><a xlink:title=" ">
<path fill="none" stroke="#63b8ff" d="M406.16,-168.76C421.88,-166.99 438.35,-165.13 453.28,-163.44"/>
<polygon fill="#63b8ff" stroke="#63b8ff" points="405.51,-165.31 395.96,-169.91 406.29,-172.27 405.51,-165.31"/>
</a>
</g>
</g>
<!-- Node13&#45;&gt;Node3 -->
<g id="edge13_Node000013_Node000003" class="edge">
<title>Node13&#45;&gt;Node3</title>
<g id="a_edge13_Node000013_Node000003"><a xlink:title=" ">
<path fill="none" stroke="#63b8ff" d="M570,-83.5C590.25,-83.5 612.37,-83.5 631.3,-83.5"/>
<polygon fill="#63b8ff" stroke="#63b8ff" points="569.93,-80 559.93,-83.5 569.93,-87 569.93,-80"/>
</a>
</g>
</g>
<!-- Node14&#45;&gt;Node4 -->
<g id="edge15_Node000014_Node000004" class="edge">
<title>Node14&#45;&gt;Node4</title>
<g id="a_edge15_Node000014_Node000004"><a xlink:title=" ">
<path fill="none" stroke="#63b8ff" d="M578.25,-231.5C593.33,-231.5 609.05,-231.5 623.43,-231.5"/>
<polygon fill="#63b8ff" stroke="#63b8ff" points="577.94,-228 567.94,-231.5 577.94,-235 577.94,-228"/>
</a>
</g>
</g>
<!-- Node15&#45;&gt;Node5 -->
<g id="edge17_Node000015_Node000005" class="edge">
<title>Node15&#45;&gt;Node5</title>
<g id="a_edge17_Node000015_Node000005"><a xlink:title=" ">
<path fill="none" stroke="#63b8ff" d="M567.92,-194.5C589.31,-194.5 613.03,-194.5 632.95,-194.5"/>
<polygon fill="#63b8ff" stroke="#63b8ff" points="567.63,-191 557.63,-194.5 567.63,-198 567.63,-191"/>
</a>
</g>
</g>
<!-- Node16&#45;&gt;Node7 -->
<g id="edge19_Node000016_Node000007" class="edge">
<title>Node16&#45;&gt;Node7</title>
<g id="a_edge19_Node000016_Node000007"><a xlink:title=" ">
<path fill="none" stroke="#63b8ff" d="M570.87,-157.5C590.34,-157.5 611.48,-157.5 629.8,-157.5"/>
<polygon fill="#63b8ff" stroke="#63b8ff" points="570.86,-154 560.86,-157.5 570.86,-161 570.86,-154"/>
</a>
</g>
</g>
<!-- Node18 -->
<g id="Node000018" class="node">
<title>Node18</title>
<g id="a_Node000018"><a xlink:href="class_acts_1_1_tracking_volume.html" target="_top" xlink:title="Full Volume description used in Tracking, it inherits from Volume to get the geometrical structure.">
<polygon fill="white" stroke="#666666" points="397,-19 276,-19 276,0 397,0 397,-19"/>
<text text-anchor="middle" x="336.5" y="-7" font-family="Helvetica,sans-Serif" font-size="10.00">Acts::TrackingVolume</text>
</a>
</g>
</g>
<!-- Node17&#45;&gt;Node18 -->
<g id="edge21_Node000017_Node000018" class="edge">
<title>Node17&#45;&gt;Node18</title>
<g id="a_edge21_Node000017_Node000018"><a xlink:title=" ">
<path fill="none" stroke="#63b8ff" d="M245.31,-34.31C263.24,-29.38 283.65,-23.76 300.51,-19.12"/>
<polygon fill="#63b8ff" stroke="#63b8ff" points="244.35,-30.94 235.64,-36.97 246.21,-37.69 244.35,-30.94"/>
</a>
</g>
</g>
<!-- Node19 -->
<g id="Node000019" class="node">
<title>Node19</title>
<g id="a_Node000019"><a xlink:href="class_acts_1_1_volume_stack.html" target="_top" xlink:title="A stack of volumes.">
<polygon fill="white" stroke="#666666" points="390,-56 283,-56 283,-37 390,-37 390,-56"/>
<text text-anchor="middle" x="336.5" y="-44" font-family="Helvetica,sans-Serif" font-size="10.00">Acts::VolumeStack</text>
</a>
</g>
</g>
<!-- Node17&#45;&gt;Node19 -->
<g id="edge22_Node000017_Node000019" class="edge">
<title>Node17&#45;&gt;Node19</title>
<g id="a_edge22_Node000017_Node000019"><a xlink:title=" ">
<path fill="none" stroke="#63b8ff" d="M250.56,-46.5C261.11,-46.5 272.28,-46.5 282.93,-46.5"/>
<polygon fill="#63b8ff" stroke="#63b8ff" points="250.26,-43 240.26,-46.5 250.26,-50 250.26,-43"/>
</a>
</g>
</g>
<!-- Node20 -->
<g id="Node000020" class="node">
<title>Node20</title>
<g id="a_Node000020"><a xlink:href="class_acts_1_1_cuboid_volume_stack.html" target="_top" xlink:title="This class implements a x&#45;.">
<polygon fill="white" stroke="#666666" points="577.5,-19 436.5,-19 436.5,0 577.5,0 577.5,-19"/>
<text text-anchor="middle" x="507" y="-7" font-family="Helvetica,sans-Serif" font-size="10.00">Acts::CuboidVolumeStack</text>
</a>
</g>
</g>
<!-- Node19&#45;&gt;Node20 -->
<g id="edge23_Node000019_Node000020" class="edge">
<title>Node19&#45;&gt;Node20</title>
<g id="a_edge23_Node000019_Node000020"><a xlink:title=" ">
<path fill="none" stroke="#63b8ff" d="M390.87,-34.78C413.95,-29.71 440.61,-23.86 462.46,-19.06"/>
<polygon fill="#63b8ff" stroke="#63b8ff" points="389.91,-31.41 380.89,-36.97 391.41,-38.25 389.91,-31.41"/>
</a>
</g>
</g>
<!-- Node21 -->
<g id="Node000021" class="node">
<title>Node21</title>
<g id="a_Node000021"><a xlink:href="class_acts_1_1_cylinder_volume_stack.html" target="_top" xlink:title="This class implements a z&#45;aligned or r&#45;aligned stack of cylinder volumes with synchronized bounds.">
<polygon fill="white" stroke="#666666" points="581,-56 433,-56 433,-37 581,-37 581,-56"/>
<text text-anchor="middle" x="507" y="-44" font-family="Helvetica,sans-Serif" font-size="10.00">Acts::CylinderVolumeStack</text>
</a>
</g>
</g>
<!-- Node19&#45;&gt;Node21 -->
<g id="edge24_Node000019_Node000021" class="edge">
<title>Node19&#45;&gt;Node21</title>
<g id="a_edge24_Node000019_Node000021"><a xlink:title=" ">
<path fill="none" stroke="#63b8ff" d="M400.37,-46.5C410.99,-46.5 422.1,-46.5 432.96,-46.5"/>
<polygon fill="#63b8ff" stroke="#63b8ff" points="400.35,-43 390.35,-46.5 400.35,-50 400.35,-43"/>
</a>
</g>
</g>
</g>
</svg>
