<?xml version="1.0" encoding="UTF-8" standalone="no"?>
<!DOCTYPE svg PUBLIC "-//W3C//DTD SVG 1.1//EN"
 "http://www.w3.org/Graphics/SVG/1.1/DTD/svg11.dtd">
<!-- Generated by graphviz version 2.43.0 (0)
 -->
<!-- Title: ActsPlugins::RootMaterialDecorator::Config Pages: 1 -->
<!--zoomable 289 -->

<svg id="main" version="1.1" xmlns="http://www.w3.org/2000/svg" xmlns:xlink="http://www.w3.org/1999/xlink" xml:space="preserve" onload="init(evt)">

<style type="text/css"><![CDATA[
.node, .edge {opacity: 0.7;}
.node.selected, .edge.selected {opacity: 1;}
.edge:hover path { stroke: red; }
.edge:hover polygon { stroke: red; fill: red; }
]]></style>

<defs>
  <circle id="rim" cx="0" cy="0" r="7"/>
  <circle id="rim2" cx="0" cy="0" r="3.5"/>
  <g id="zoomPlus">
    <use xlink:href="#rim" fill="#404040"><set attributeName="fill" to="#808080" begin="zoomplus.mouseover" end="zoomplus.mouseout"/></use>
    <path d="M-4,0h8M0,-4v8" fill="none" stroke="white" stroke-width="1.5" pointer-events="none"/>
  </g>
  <g id="zoomMin">
    <use xlink:href="#rim" fill="#404040"><set attributeName="fill" to="#808080" begin="zoomminus.mouseover" end="zoomminus.mouseout"/></use>
    <path d="M-4,0h8" fill="none" stroke="white" stroke-width="1.5" pointer-events="none"/>
  </g>
  <g id="arrowUp" transform="translate(30 24)">
    <use xlink:href="#rim"/>
    <path pointer-events="none" fill="none" stroke="white" stroke-width="1.5" d="M0,-3.0v7 M-2.5,-0.5L0,-3.0L2.5,-0.5"/>
  </g>
  <g id="arrowRight" transform="rotate(90) translate(36 -43)">
    <use xlink:href="#rim"/>
    <path pointer-events="none" fill="none" stroke="white" stroke-width="1.5" d="M0,-3.0v7 M-2.5,-0.5L0,-3.0L2.5,-0.5"/>
  </g>
  <g id="arrowDown" transform="rotate(180) translate(-30 -48)">
    <use xlink:href="#rim"/>
    <path pointer-events="none" fill="none" stroke="white" stroke-width="1.5" d="M0,-3.0v7 M-2.5,-0.5L0,-3.0L2.5,-0.5"/>
  </g>
  <g id="arrowLeft" transform="rotate(270) translate(-36 17)">
    <use xlink:href="#rim"/>
    <path pointer-events="none" fill="none" stroke="white" stroke-width="1.5" d="M0,-3.0v7 M-2.5,-0.5L0,-3.0L2.5,-0.5"/>
  </g>
  <g id="resetDef">
    <use xlink:href="#rim2" fill="#404040"><set attributeName="fill" to="#808080" begin="reset.mouseover" end="reset.mouseout"/></use>
  </g>
</defs>
<script type="application/ecmascript">
var viewWidth = 823;
var viewHeight = 289;
var sectionId = 'dynsection-0';
</script>
<script type="application/ecmascript" xlink:href="svg.min.js"/>
<svg id="graph" class="graph">
<g id="viewport">
<title>ActsPlugins::RootMaterialDecorator::Config</title>
<!-- Node1 -->
<g id="Node000001" class="node">
<title>Node1</title>
<g id="a_Node000001"><a xlink:title="Configuration of the Reader.">
<polygon fill="#999999" stroke="#666666" points="815,-103.81 673,-103.81 673,-73.81 815,-73.81 815,-103.81"/>
<text text-anchor="start" x="681" y="-91.81" font-family="Helvetica,sans-Serif" font-size="10.00">ActsPlugins::RootMaterial</text>
<text text-anchor="middle" x="744" y="-80.81" font-family="Helvetica,sans-Serif" font-size="10.00">Decorator::Config</text>
</a>
</g>
</g>
<!-- Node2 -->
<g id="Node000002" class="node">
<title>Node2</title>
<g id="a_Node000002"><a xlink:href="struct_acts_plugins_1_1_root_material_map_io_1_1_config.html" target="_top" xlink:title="Configuration for the accessor Contains the tags used for writing and reading, tag names are configur...">
<polygon fill="white" stroke="#666666" points="550,-103.81 408,-103.81 408,-73.81 550,-73.81 550,-103.81"/>
<text text-anchor="start" x="416" y="-91.81" font-family="Helvetica,sans-Serif" font-size="10.00">ActsPlugins::RootMaterial</text>
<text text-anchor="middle" x="479" y="-80.81" font-family="Helvetica,sans-Serif" font-size="10.00">MapIo::Config</text>
</a>
</g>
</g>
<!-- Node2&#45;&gt;Node1 -->
<g id="edge1_Node000001_Node000002" class="edge">
<title>Node2&#45;&gt;Node1</title>
<g id="a_edge1_Node000001_Node000002"><a xlink:title=" ">
<path fill="none" stroke="#9a32cd" stroke-dasharray="5,2" d="M560.55,-88.81C596.34,-88.81 638.08,-88.81 672.61,-88.81"/>
<polygon fill="#9a32cd" stroke="#9a32cd" points="560.13,-85.31 550.13,-88.81 560.13,-92.31 560.13,-85.31"/>
</a>
</g>
<text text-anchor="start" x="574.5" y="-94.31" font-family="Helvetica,sans-Serif" font-size="10.00" fill="grey">accessorConfig</text>
</g>
<!-- Node3 -->
<g id="Node000003" class="node">
<title>Node3</title>
<g id="a_Node000003"><a xlink:title=" ">
<polygon fill="white" stroke="#666666" points="206,-98.31 141,-98.31 141,-79.31 206,-79.31 206,-98.31"/>
<text text-anchor="middle" x="173.5" y="-86.31" font-family="Helvetica,sans-Serif" font-size="10.00">std::string</text>
</a>
</g>
</g>
<!-- Node3&#45;&gt;Node1 -->
<g id="edge6_Node000001_Node000003" class="edge">
<title>Node3&#45;&gt;Node1</title>
<g id="a_edge6_Node000001_Node000003"><a xlink:title=" ">
<path fill="none" stroke="#9a32cd" stroke-dasharray="5,2" d="M177.31,-108.34C183.56,-148.66 199.96,-238.83 224,-256.81 283.08,-301 318.03,-273.06 390,-256.81 523.73,-226.61 666.2,-139.47 720.36,-104.05"/>
<polygon fill="#9a32cd" stroke="#9a32cd" points="180.76,-107.76 175.82,-98.39 173.84,-108.8 180.76,-107.76"/>
</a>
</g>
<text text-anchor="start" x="457" y="-256.31" font-family="Helvetica,sans-Serif" font-size="10.00" fill="grey">fileName</text>
</g>
<!-- Node3&#45;&gt;Node2 -->
<g id="edge2_Node000002_Node000003" class="edge">
<title>Node3&#45;&gt;Node2</title>
<g id="a_edge2_Node000002_Node000003"><a xlink:title=" ">
<path fill="none" stroke="#9a32cd" stroke-dasharray="5,2" d="M216.13,-88.81C265.51,-88.81 348.6,-88.81 407.94,-88.81"/>
<polygon fill="#9a32cd" stroke="#9a32cd" points="216.12,-85.31 206.12,-88.81 216.12,-92.31 216.12,-85.31"/>
</a>
</g>
<text text-anchor="start" x="238" y="-244.31" font-family="Helvetica,sans-Serif" font-size="10.00" fill="grey">aHistName</text>
<text text-anchor="start" x="238" y="-229.31" font-family="Helvetica,sans-Serif" font-size="10.00" fill="grey">axisBoundaryTypeHistName</text>
<text text-anchor="start" x="238" y="-214.31" font-family="Helvetica,sans-Serif" font-size="10.00" fill="grey">axisDirHistName</text>
<text text-anchor="start" x="238" y="-199.31" font-family="Helvetica,sans-Serif" font-size="10.00" fill="grey">indexHistName</text>
<text text-anchor="start" x="238" y="-184.31" font-family="Helvetica,sans-Serif" font-size="10.00" fill="grey">l0HistName</text>
<text text-anchor="start" x="238" y="-169.31" font-family="Helvetica,sans-Serif" font-size="10.00" fill="grey">layerPrefix</text>
<text text-anchor="start" x="238" y="-154.31" font-family="Helvetica,sans-Serif" font-size="10.00" fill="grey">maxRangeHistName</text>
<text text-anchor="start" x="238" y="-139.31" font-family="Helvetica,sans-Serif" font-size="10.00" fill="grey">minRangeHistName</text>
<text text-anchor="start" x="238" y="-124.31" font-family="Helvetica,sans-Serif" font-size="10.00" fill="grey">nBinsHistName</text>
<text text-anchor="start" x="238" y="-109.31" font-family="Helvetica,sans-Serif" font-size="10.00" fill="grey">passivePrefix</text>
<text text-anchor="start" x="238" y="-94.31" font-family="Helvetica,sans-Serif" font-size="10.00" fill="grey"> &#160;...</text>
</g>
<!-- Node5 -->
<g id="Node000005" class="node">
<title>Node5</title>
<g id="a_Node000005"><a xlink:href="struct_acts_plugins_1_1_root_material_map_io_1_1_options.html" target="_top" xlink:title="Options for writing the material maps Folder names are optional as it allows to write more maps into ...">
<polygon fill="white" stroke="#666666" points="550,-37.81 408,-37.81 408,-7.81 550,-7.81 550,-37.81"/>
<text text-anchor="start" x="416" y="-25.81" font-family="Helvetica,sans-Serif" font-size="10.00">ActsPlugins::RootMaterial</text>
<text text-anchor="middle" x="479" y="-14.81" font-family="Helvetica,sans-Serif" font-size="10.00">MapIo::Options</text>
</a>
</g>
</g>
<!-- Node3&#45;&gt;Node5 -->
<g id="edge5_Node000005_Node000003" class="edge">
<title>Node3&#45;&gt;Node5</title>
<g id="a_edge5_Node000005_Node000003"><a xlink:title=" ">
<path fill="none" stroke="#9a32cd" stroke-dasharray="5,2" d="M182.9,-69.47C190.92,-53.69 204.66,-32.48 224,-22.81 283.56,6.97 361.23,1.62 414.92,-7.78"/>
<polygon fill="#9a32cd" stroke="#9a32cd" points="179.56,-68.35 178.45,-78.88 185.89,-71.34 179.56,-68.35"/>
</a>
</g>
<text text-anchor="start" x="227" y="-73.81" font-family="Helvetica,sans-Serif" font-size="10.00" fill="grey">folderSurfaceNameBase</text>
<text text-anchor="start" x="227" y="-58.81" font-family="Helvetica,sans-Serif" font-size="10.00" fill="grey">folderVolumeNameBase</text>
<text text-anchor="start" x="227" y="-43.81" font-family="Helvetica,sans-Serif" font-size="10.00" fill="grey">homogeneousMaterialTreeName</text>
<text text-anchor="start" x="227" y="-28.81" font-family="Helvetica,sans-Serif" font-size="10.00" fill="grey">indexedMaterialTreeName</text>
</g>
<!-- Node4 -->
<g id="Node000004" class="node">
<title>Node4</title>
<g id="a_Node000004"><a xlink:title=" ">
<polygon fill="white" stroke="#666666" points="104,-103.81 0,-103.81 0,-73.81 104,-73.81 104,-103.81"/>
<text text-anchor="start" x="8" y="-91.81" font-family="Helvetica,sans-Serif" font-size="10.00">std::basic_string&lt;</text>
<text text-anchor="middle" x="52" y="-80.81" font-family="Helvetica,sans-Serif" font-size="10.00"> Char &gt;</text>
</a>
</g>
</g>
<!-- Node4&#45;&gt;Node3 -->
<g id="edge3_Node000003_Node000004" class="edge">
<title>Node4&#45;&gt;Node3</title>
<g id="a_edge3_Node000003_Node000004"><a xlink:title=" ">
<path fill="none" stroke="#63b8ff" d="M114.1,-88.81C123.41,-88.81 132.68,-88.81 141,-88.81"/>
<polygon fill="#63b8ff" stroke="#63b8ff" points="114.03,-85.31 104.03,-88.81 114.03,-92.31 114.03,-85.31"/>
</a>
</g>
</g>
<!-- Node5&#45;&gt;Node1 -->
<g id="edge4_Node000001_Node000005" class="edge">
<title>Node5&#45;&gt;Node1</title>
<g id="a_edge4_Node000001_Node000005"><a xlink:title=" ">
<path fill="none" stroke="#9a32cd" stroke-dasharray="5,2" d="M549.75,-40.32C591.18,-50.71 643.17,-63.76 682.8,-73.7"/>
<polygon fill="#9a32cd" stroke="#9a32cd" points="550.56,-36.91 540.01,-37.87 548.86,-43.7 550.56,-36.91"/>
</a>
</g>
<text text-anchor="start" x="571.5" y="-71.31" font-family="Helvetica,sans-Serif" font-size="10.00" fill="grey">accessorOptions</text>
</g>
</g>
</svg>

<g id="navigator" transform="translate(0 0)" fill="#404254">
  <rect fill="#f2f5e9" fill-opacity="0.5" stroke="#606060" stroke-width=".5" x="0" y="0" width="60" height="60"/>
  <use id="zoomplus" xlink:href="#zoomPlus" x="17" y="9" onmousedown="handleZoom(evt,'in')"/>
  <use id="zoomminus" xlink:href="#zoomMin" x="42" y="9" onmousedown="handleZoom(evt,'out')"/>
  <use id="reset" xlink:href="#resetDef" x="30" y="36" onmousedown="handleReset()"/>
   <use id="arrowup" xlink:href="#arrowUp" x="0" y="0" onmousedown="handlePan(0,-1)"/>
  <use id="arrowright" xlink:href="#arrowRight" x="0" y="0" onmousedown="handlePan(1,0)"/>
  <use id="arrowdown" xlink:href="#arrowDown" x="0" y="0" onmousedown="handlePan(0,1)"/>
  <use id="arrowleft" xlink:href="#arrowLeft" x="0" y="0" onmousedown="handlePan(-1,0)"/>
</g>
<svg viewBox="0 0 15 15" width="100%" height="30px" preserveAspectRatio="xMaxYMin meet">
 <g id="arrow_out" transform="scale(0.3 0.3)">
  <a xlink:href="class_acts_plugins_1_1_root_material_decorator_1_1_config__coll__graph_org.svg" target="_base">
   <rect id="button" ry="5" rx="5" y="6" x="6" height="38" width="38"
        fill="#f2f5e9" fill-opacity="0.5" stroke="#606060" stroke-width="1.0"/>
   <path id="arrow"
     d="M 11.500037,31.436501 C 11.940474,20.09759 22.043105,11.32322 32.158766,21.979434 L 37.068811,17.246167 C 37.068811,17.246167 37.088388,32 37.088388,32 L 22.160133,31.978069 C 22.160133,31.978069 26.997745,27.140456 26.997745,27.140456 C 18.528582,18.264221 13.291696,25.230495 11.500037,31.436501 z"
     style="fill:#404040;"/>
  </a>
 </g>
</svg>

<style type='text/css'>
<![CDATA[
[data-mouse-over-selected='false'] { opacity: 0.7; }
[data-mouse-over-selected='true']  { opacity: 1.0; }
]]>
</style>
<script type="application/ecmascript"><![CDATA[
document.addEventListener('DOMContentLoaded', (event) => {
  highlightEdges();
  highlightAdjacentNodes();
});
]]></script>
</svg>
