<?xml version="1.0" encoding="UTF-8" standalone="no"?>
<!DOCTYPE svg PUBLIC "-//W3C//DTD SVG 1.1//EN"
 "http://www.w3.org/Graphics/SVG/1.1/DTD/svg11.dtd">
<!-- Generated by graphviz version 2.43.0 (0)
 -->
<!-- Title: Acts::GridSurfaceMaterialT&lt; grid_t, material_accessor_t &gt; Pages: 1 -->
<svg width="1439pt" height="160pt"
 viewBox="0.00 0.00 1439.00 160.00" xmlns="http://www.w3.org/2000/svg" xmlns:xlink="http://www.w3.org/1999/xlink">
<g id="graph0" class="graph" transform="scale(1 1) rotate(0) translate(4 156)">
<title>Acts::GridSurfaceMaterialT&lt; grid_t, material_accessor_t &gt;</title>
<!-- Node1 -->
<g id="Node000001" class="node">
<title>Node1</title>
<g id="a_Node000001"><a xlink:title="GridSurfaceMaterialT.">
<polygon fill="#999999" stroke="#666666" points="1028,-85 851,-85 851,-55 1028,-55 1028,-85"/>
<text text-anchor="start" x="859" y="-73" font-family="Helvetica,sans-Serif" font-size="10.00">Acts::GridSurfaceMaterial</text>
<text text-anchor="middle" x="939.5" y="-62" font-family="Helvetica,sans-Serif" font-size="10.00">T&lt; grid_t, material_accessor_t &gt;</text>
</a>
</g>
</g>
<!-- Node6 -->
<g id="Node000006" class="node">
<title>Node6</title>
<g id="a_Node000006"><a xlink:href="class_acts_1_1_grid_surface_material_t.html" target="_top" xlink:title=" ">
<polygon fill="white" stroke="#666666" points="1431,-140 1212,-140 1212,-110 1431,-110 1431,-140"/>
<text text-anchor="start" x="1220" y="-128" font-family="Helvetica,sans-Serif" font-size="10.00">Acts::GridSurfaceMaterial</text>
<text text-anchor="middle" x="1321.5" y="-117" font-family="Helvetica,sans-Serif" font-size="10.00">T&lt; grid_type, IndexedMaterialAccessor &gt;</text>
</a>
</g>
</g>
<!-- Node1&#45;&gt;Node6 -->
<g id="edge6_Node000001_Node000006" class="edge">
<title>Node1&#45;&gt;Node6</title>
<g id="a_edge6_Node000001_Node000006"><a xlink:title=" ">
<path fill="none" stroke="orange" stroke-dasharray="5,2" d="M990.91,-88.28C1008.17,-93.86 1027.73,-99.46 1046,-103 1100.09,-113.49 1161.11,-118.99 1211.86,-121.88"/>
<polygon fill="orange" stroke="orange" points="991.63,-84.83 981.04,-85.01 989.43,-91.48 991.63,-84.83"/>
</a>
</g>
<text text-anchor="start" x="1049" y="-141" font-family="Helvetica,sans-Serif" font-size="10.00" fill="grey">&lt; grid_type, IndexedMaterial</text>
<text text-anchor="start" x="1049" y="-126" font-family="Helvetica,sans-Serif" font-size="10.00" fill="grey">  Accessor &gt;</text>
</g>
<!-- Node7 -->
<g id="Node000007" class="node">
<title>Node7</title>
<g id="a_Node000007"><a xlink:href="class_acts_1_1_grid_surface_material_t.html" target="_top" xlink:title=" ">
<polygon fill="white" stroke="#666666" points="1424,-90.5 1219,-90.5 1219,-49.5 1424,-49.5 1424,-90.5"/>
<text text-anchor="start" x="1227" y="-78.5" font-family="Helvetica,sans-Serif" font-size="10.00">Acts::GridSurfaceMaterial</text>
<text text-anchor="start" x="1227" y="-67.5" font-family="Helvetica,sans-Serif" font-size="10.00">T&lt; grid_type, GloballyIndexedMaterial</text>
<text text-anchor="middle" x="1321.5" y="-56.5" font-family="Helvetica,sans-Serif" font-size="10.00">Accessor &gt;</text>
</a>
</g>
</g>
<!-- Node1&#45;&gt;Node7 -->
<g id="edge7_Node000001_Node000007" class="edge">
<title>Node1&#45;&gt;Node7</title>
<g id="a_edge7_Node000001_Node000007"><a xlink:title=" ">
<path fill="none" stroke="orange" stroke-dasharray="5,2" d="M1038.33,-70C1093.69,-70 1162.84,-70 1218.83,-70"/>
<polygon fill="orange" stroke="orange" points="1038.16,-66.5 1028.16,-70 1038.16,-73.5 1038.16,-66.5"/>
</a>
</g>
<text text-anchor="start" x="1049" y="-91" font-family="Helvetica,sans-Serif" font-size="10.00" fill="grey">&lt; grid_type, GloballyIndexed</text>
<text text-anchor="start" x="1049" y="-76" font-family="Helvetica,sans-Serif" font-size="10.00" fill="grey">  MaterialAccessor &gt;</text>
</g>
<!-- Node8 -->
<g id="Node000008" class="node">
<title>Node8</title>
<g id="a_Node000008"><a xlink:href="class_acts_1_1_grid_surface_material_t.html" target="_top" xlink:title=" ">
<polygon fill="white" stroke="#666666" points="1422,-30 1221,-30 1221,0 1422,0 1422,-30"/>
<text text-anchor="start" x="1229" y="-18" font-family="Helvetica,sans-Serif" font-size="10.00">Acts::GridSurfaceMaterial</text>
<text text-anchor="middle" x="1321.5" y="-7" font-family="Helvetica,sans-Serif" font-size="10.00">T&lt; grid_type, GridMaterialAccessor &gt;</text>
</a>
</g>
</g>
<!-- Node1&#45;&gt;Node8 -->
<g id="edge8_Node000001_Node000008" class="edge">
<title>Node1&#45;&gt;Node8</title>
<g id="a_edge8_Node000001_Node000008"><a xlink:title=" ">
<path fill="none" stroke="orange" stroke-dasharray="5,2" d="M986.47,-51.41C1004.71,-44.81 1026.06,-38.02 1046,-34 1103.25,-22.46 1168.42,-17.61 1220.89,-15.69"/>
<polygon fill="orange" stroke="orange" points="985.12,-48.18 976.96,-54.94 987.55,-54.74 985.12,-48.18"/>
</a>
</g>
<text text-anchor="start" x="1058" y="-55" font-family="Helvetica,sans-Serif" font-size="10.00" fill="grey">&lt; grid_type, GridMaterial</text>
<text text-anchor="start" x="1058" y="-40" font-family="Helvetica,sans-Serif" font-size="10.00" fill="grey">  Accessor &gt;</text>
</g>
<!-- Node2 -->
<g id="Node000002" class="node">
<title>Node2</title>
<g id="a_Node000002"><a xlink:href="class_acts_1_1_i_grid_surface_material.html" target="_top" xlink:title=" ">
<polygon fill="white" stroke="#666666" points="814,-90.5 663,-90.5 663,-49.5 814,-49.5 814,-90.5"/>
<text text-anchor="start" x="671" y="-78.5" font-family="Helvetica,sans-Serif" font-size="10.00">Acts::IGridSurfaceMaterial</text>
<text text-anchor="start" x="671" y="-67.5" font-family="Helvetica,sans-Serif" font-size="10.00">&lt; material_accessor_t::grid</text>
<text text-anchor="middle" x="738.5" y="-56.5" font-family="Helvetica,sans-Serif" font-size="10.00">_value_type &gt;</text>
</a>
</g>
</g>
<!-- Node2&#45;&gt;Node1 -->
<g id="edge1_Node000001_Node000002" class="edge">
<title>Node2&#45;&gt;Node1</title>
<g id="a_edge1_Node000001_Node000002"><a xlink:title=" ">
<path fill="none" stroke="#63b8ff" d="M824.32,-70C833.04,-70 841.92,-70 850.68,-70"/>
<polygon fill="#63b8ff" stroke="#63b8ff" points="824.17,-66.5 814.17,-70 824.17,-73.5 824.17,-66.5"/>
</a>
</g>
</g>
<!-- Node3 -->
<g id="Node000003" class="node">
<title>Node3</title>
<g id="a_Node000003"><a xlink:href="class_acts_1_1_i_grid_surface_material_base.html" target="_top" xlink:title="Base class for the concrete templated grid surface material types.">
<polygon fill="white" stroke="#666666" points="329,-80.5 161,-80.5 161,-61.5 329,-61.5 329,-80.5"/>
<text text-anchor="middle" x="245" y="-68.5" font-family="Helvetica,sans-Serif" font-size="10.00">Acts::IGridSurfaceMaterialBase</text>
</a>
</g>
</g>
<!-- Node3&#45;&gt;Node2 -->
<g id="edge2_Node000002_Node000003" class="edge">
<title>Node3&#45;&gt;Node2</title>
<g id="a_edge2_Node000002_Node000003"><a xlink:title=" ">
<path fill="none" stroke="#63b8ff" d="M339.52,-77.14C420.42,-81.49 540.5,-85.63 645,-80 650.81,-79.69 656.81,-79.26 662.84,-78.77"/>
<polygon fill="#63b8ff" stroke="#63b8ff" points="339.53,-73.63 329.36,-76.58 339.15,-80.62 339.53,-73.63"/>
</a>
</g>
</g>
<!-- Node5 -->
<g id="Node000005" class="node">
<title>Node5</title>
<g id="a_Node000005"><a xlink:href="class_acts_1_1_i_grid_surface_material.html" target="_top" xlink:title="Intermediate interface to the grid surface material given access to the grid and the material accesso...">
<polygon fill="white" stroke="#666666" points="510,-64 366,-64 366,-34 510,-34 510,-64"/>
<text text-anchor="start" x="374" y="-52" font-family="Helvetica,sans-Serif" font-size="10.00">Acts::IGridSurfaceMaterial</text>
<text text-anchor="middle" x="438" y="-41" font-family="Helvetica,sans-Serif" font-size="10.00">&lt; grid_value_t &gt;</text>
</a>
</g>
</g>
<!-- Node3&#45;&gt;Node5 -->
<g id="edge5_Node000005_Node000003" class="edge">
<title>Node3&#45;&gt;Node5</title>
<g id="a_edge5_Node000005_Node000003"><a xlink:title=" ">
<path fill="none" stroke="#63b8ff" d="M338.89,-60.3C347.97,-59.26 357.08,-58.21 365.89,-57.19"/>
<polygon fill="#63b8ff" stroke="#63b8ff" points="338.2,-56.86 328.66,-61.48 339,-63.81 338.2,-56.86"/>
</a>
</g>
</g>
<!-- Node4 -->
<g id="Node000004" class="node">
<title>Node4</title>
<g id="a_Node000004"><a xlink:href="class_acts_1_1_i_surface_material.html" target="_top" xlink:title="Base class of all surface&#45;based material description.">
<polygon fill="white" stroke="#666666" points="124,-80.5 0,-80.5 0,-61.5 124,-61.5 124,-80.5"/>
<text text-anchor="middle" x="62" y="-68.5" font-family="Helvetica,sans-Serif" font-size="10.00">Acts::ISurfaceMaterial</text>
</a>
</g>
</g>
<!-- Node4&#45;&gt;Node3 -->
<g id="edge3_Node000003_Node000004" class="edge">
<title>Node4&#45;&gt;Node3</title>
<g id="a_edge3_Node000003_Node000004"><a xlink:title=" ">
<path fill="none" stroke="#63b8ff" d="M134.14,-71C142.88,-71 151.86,-71 160.75,-71"/>
<polygon fill="#63b8ff" stroke="#63b8ff" points="134.03,-67.5 124.03,-71 134.03,-74.5 134.03,-67.5"/>
</a>
</g>
</g>
<!-- Node5&#45;&gt;Node2 -->
<g id="edge4_Node000002_Node000005" class="edge">
<title>Node5&#45;&gt;Node2</title>
<g id="a_edge4_Node000002_Node000005"><a xlink:title=" ">
<path fill="none" stroke="orange" stroke-dasharray="5,2" d="M520.74,-44.06C558.66,-42.93 604.25,-43.22 645,-48 650.82,-48.68 656.8,-49.6 662.8,-50.67"/>
<polygon fill="orange" stroke="orange" points="520.14,-40.57 510.26,-44.41 520.38,-47.57 520.14,-40.57"/>
</a>
</g>
<text text-anchor="start" x="531.5" y="-69" font-family="Helvetica,sans-Serif" font-size="10.00" fill="grey">&lt; material_accessor</text>
<text text-anchor="start" x="531.5" y="-54" font-family="Helvetica,sans-Serif" font-size="10.00" fill="grey">  _t::grid_value_type &gt;</text>
</g>
</g>
</svg>
