<?xml version="1.0" encoding="UTF-8" standalone="no"?>
<!DOCTYPE svg PUBLIC "-//W3C//DTD SVG 1.1//EN"
 "http://www.w3.org/Graphics/SVG/1.1/DTD/svg11.dtd">
<!-- Generated by graphviz version 2.43.0 (0)
 -->
<!-- Title: Acts::Axis&lt; type, bdt &gt; Pages: 1 -->
<svg width="509pt" height="415pt"
 viewBox="0.00 0.00 509.00 414.66" xmlns="http://www.w3.org/2000/svg" xmlns:xlink="http://www.w3.org/1999/xlink">
<g id="graph0" class="graph" transform="scale(1 1) rotate(0) translate(4 410.66)">
<title>Acts::Axis&lt; type, bdt &gt;</title>
<!-- Node1 -->
<g id="Node000001" class="node">
<title>Node1</title>
<g id="a_Node000001"><a xlink:title="calculate bin indices from a given binning structure">
<polygon fill="#999999" stroke="#666666" points="131,-199.16 0,-199.16 0,-180.16 131,-180.16 131,-199.16"/>
<text text-anchor="middle" x="65.5" y="-187.16" font-family="Helvetica,sans-Serif" font-size="10.00">Acts::Axis&lt; type, bdt &gt;</text>
</a>
</g>
</g>
<!-- Node2 -->
<g id="Node000002" class="node">
<title>Node2</title>
<g id="a_Node000002"><a xlink:href="class_acts_1_1_axis.html" target="_top" xlink:title=" ">
<polygon fill="white" stroke="#666666" points="471.5,-390.66 352.5,-390.66 352.5,-360.66 471.5,-360.66 471.5,-390.66"/>
<text text-anchor="start" x="360.5" y="-378.66" font-family="Helvetica,sans-Serif" font-size="10.00">Acts::Axis&lt; AxisType</text>
<text text-anchor="middle" x="412" y="-367.66" font-family="Helvetica,sans-Serif" font-size="10.00">::Equidistant &gt;</text>
</a>
</g>
</g>
<!-- Node1&#45;&gt;Node2 -->
<g id="edge1_Node000001_Node000002" class="edge">
<title>Node1&#45;&gt;Node2</title>
<g id="a_edge1_Node000001_Node000002"><a xlink:title=" ">
<path fill="none" stroke="orange" stroke-dasharray="5,2" d="M69.97,-209.26C77.4,-244.83 98.48,-319.53 149,-353.66 209.04,-394.24 295.37,-392.95 352.29,-386.12"/>
<polygon fill="orange" stroke="orange" points="73.35,-208.33 68.01,-199.18 66.48,-209.66 73.35,-208.33"/>
</a>
</g>
<text text-anchor="start" x="164" y="-395.16" font-family="Helvetica,sans-Serif" font-size="10.00" fill="grey">&lt; AxisType::Equidistant &gt;</text>
</g>
<!-- Node3 -->
<g id="Node000003" class="node">
<title>Node3</title>
<g id="a_Node000003"><a xlink:href="class_acts_1_1_axis.html" target="_top" xlink:title=" ">
<polygon fill="white" stroke="#666666" points="501,-328.16 323,-328.16 323,-287.16 501,-287.16 501,-328.16"/>
<text text-anchor="start" x="331" y="-316.16" font-family="Helvetica,sans-Serif" font-size="10.00">Acts::Axis&lt; Acts::AxisType</text>
<text text-anchor="start" x="331" y="-305.16" font-family="Helvetica,sans-Serif" font-size="10.00">::Equidistant, Acts::AxisBoundary</text>
<text text-anchor="middle" x="412" y="-294.16" font-family="Helvetica,sans-Serif" font-size="10.00">Type::Bound &gt;</text>
</a>
</g>
</g>
<!-- Node1&#45;&gt;Node3 -->
<g id="edge2_Node000001_Node000003" class="edge">
<title>Node1&#45;&gt;Node3</title>
<g id="a_edge2_Node000001_Node000003"><a xlink:title=" ">
<path fill="none" stroke="orange" stroke-dasharray="5,2" d="M76.93,-208.19C90.42,-230.18 116.15,-265.97 149,-282.66 178.58,-297.7 258.94,-303.72 322.93,-306.12"/>
<polygon fill="orange" stroke="orange" points="79.86,-206.27 71.76,-199.44 73.83,-209.83 79.86,-206.27"/>
</a>
</g>
<text text-anchor="start" x="154" y="-340.16" font-family="Helvetica,sans-Serif" font-size="10.00" fill="grey">&lt; Acts::AxisType::Equidistant,</text>
<text text-anchor="start" x="154" y="-325.16" font-family="Helvetica,sans-Serif" font-size="10.00" fill="grey">   Acts::AxisBoundaryType::</text>
<text text-anchor="start" x="154" y="-310.16" font-family="Helvetica,sans-Serif" font-size="10.00" fill="grey">  Bound &gt;</text>
</g>
<!-- Node4 -->
<g id="Node000004" class="node">
<title>Node4</title>
<g id="a_Node000004"><a xlink:href="class_acts_1_1_axis.html" target="_top" xlink:title=" ">
<polygon fill="white" stroke="#666666" points="487.5,-269.16 336.5,-269.16 336.5,-228.16 487.5,-228.16 487.5,-269.16"/>
<text text-anchor="start" x="344.5" y="-257.16" font-family="Helvetica,sans-Serif" font-size="10.00">Acts::Axis&lt; AxisType</text>
<text text-anchor="start" x="344.5" y="-246.16" font-family="Helvetica,sans-Serif" font-size="10.00">::Equidistant, AxisBoundary</text>
<text text-anchor="middle" x="412" y="-235.16" font-family="Helvetica,sans-Serif" font-size="10.00">Type::Closed &gt;</text>
</a>
</g>
</g>
<!-- Node1&#45;&gt;Node4 -->
<g id="edge3_Node000001_Node000004" class="edge">
<title>Node1&#45;&gt;Node4</title>
<g id="a_edge3_Node000001_Node000004"><a xlink:title=" ">
<path fill="none" stroke="orange" stroke-dasharray="5,2" d="M93.08,-203.89C108.88,-211.67 129.56,-220.71 149,-225.66 210.84,-241.42 283.24,-246.83 336.24,-248.49"/>
<polygon fill="orange" stroke="orange" points="94.43,-200.66 83.93,-199.26 91.27,-206.9 94.43,-200.66"/>
</a>
</g>
<text text-anchor="start" x="152" y="-267.66" font-family="Helvetica,sans-Serif" font-size="10.00" fill="grey">&lt; AxisType::Equidistant,</text>
<text text-anchor="start" x="152" y="-252.66" font-family="Helvetica,sans-Serif" font-size="10.00" fill="grey">   AxisBoundaryType::Closed &gt;</text>
</g>
<!-- Node5 -->
<g id="Node000005" class="node">
<title>Node5</title>
<g id="a_Node000005"><a xlink:href="class_acts_1_1_axis.html" target="_top" xlink:title=" ">
<polygon fill="white" stroke="#666666" points="491,-210.16 333,-210.16 333,-169.16 491,-169.16 491,-210.16"/>
<text text-anchor="start" x="341" y="-198.16" font-family="Helvetica,sans-Serif" font-size="10.00">Acts::Axis&lt; AxisType</text>
<text text-anchor="start" x="341" y="-187.16" font-family="Helvetica,sans-Serif" font-size="10.00">::Variable, AxisBoundaryType</text>
<text text-anchor="middle" x="412" y="-176.16" font-family="Helvetica,sans-Serif" font-size="10.00">::Open &gt;</text>
</a>
</g>
</g>
<!-- Node1&#45;&gt;Node5 -->
<g id="edge4_Node000001_Node000005" class="edge">
<title>Node1&#45;&gt;Node5</title>
<g id="a_edge4_Node000001_Node000005"><a xlink:title=" ">
<path fill="none" stroke="orange" stroke-dasharray="5,2" d="M141.61,-189.66C198.21,-189.66 275.6,-189.66 332.91,-189.66"/>
<polygon fill="orange" stroke="orange" points="141.3,-186.16 131.3,-189.66 141.3,-193.16 141.3,-186.16"/>
</a>
</g>
<text text-anchor="start" x="156" y="-210.66" font-family="Helvetica,sans-Serif" font-size="10.00" fill="grey">&lt; AxisType::Variable,</text>
<text text-anchor="start" x="156" y="-195.66" font-family="Helvetica,sans-Serif" font-size="10.00" fill="grey">   AxisBoundaryType::Open &gt;</text>
</g>
<!-- Node6 -->
<g id="Node000006" class="node">
<title>Node6</title>
<g id="a_Node000006"><a xlink:href="class_acts_1_1_axis.html" target="_top" xlink:title=" ">
<polygon fill="white" stroke="#666666" points="487.5,-151.16 336.5,-151.16 336.5,-110.16 487.5,-110.16 487.5,-151.16"/>
<text text-anchor="start" x="344.5" y="-139.16" font-family="Helvetica,sans-Serif" font-size="10.00">Acts::Axis&lt; AxisType</text>
<text text-anchor="start" x="344.5" y="-128.16" font-family="Helvetica,sans-Serif" font-size="10.00">::Equidistant, AxisBoundary</text>
<text text-anchor="middle" x="412" y="-117.16" font-family="Helvetica,sans-Serif" font-size="10.00">Type::Open &gt;</text>
</a>
</g>
</g>
<!-- Node1&#45;&gt;Node6 -->
<g id="edge5_Node000001_Node000006" class="edge">
<title>Node1&#45;&gt;Node6</title>
<g id="a_edge5_Node000001_Node000006"><a xlink:title=" ">
<path fill="none" stroke="orange" stroke-dasharray="5,2" d="M93.08,-175.43C108.88,-167.65 129.56,-158.62 149,-153.66 210.84,-137.91 283.24,-132.5 336.24,-130.84"/>
<polygon fill="orange" stroke="orange" points="91.27,-172.43 83.93,-180.07 94.43,-178.67 91.27,-172.43"/>
</a>
</g>
<text text-anchor="start" x="156" y="-174.66" font-family="Helvetica,sans-Serif" font-size="10.00" fill="grey">&lt; AxisType::Equidistant,</text>
<text text-anchor="start" x="156" y="-159.66" font-family="Helvetica,sans-Serif" font-size="10.00" fill="grey">   AxisBoundaryType::Open &gt;</text>
</g>
<!-- Node7 -->
<g id="Node000007" class="node">
<title>Node7</title>
<g id="a_Node000007"><a xlink:href="class_acts_1_1_axis_3_01_axis_type_1_1_equidistant_00_01bdt_01_4.html" target="_top" xlink:title="calculate bin indices for an equidistant binning">
<polygon fill="white" stroke="#666666" points="471.5,-91.66 352.5,-91.66 352.5,-61.66 471.5,-61.66 471.5,-91.66"/>
<text text-anchor="start" x="360.5" y="-79.66" font-family="Helvetica,sans-Serif" font-size="10.00">Acts::Axis&lt; AxisType</text>
<text text-anchor="middle" x="412" y="-68.66" font-family="Helvetica,sans-Serif" font-size="10.00">::Equidistant, bdt &gt;</text>
</a>
</g>
</g>
<!-- Node1&#45;&gt;Node7 -->
<g id="edge6_Node000001_Node000007" class="edge">
<title>Node1&#45;&gt;Node7</title>
<g id="a_edge6_Node000001_Node000007"><a xlink:title=" ">
<path fill="none" stroke="orange" stroke-dasharray="5,2" d="M76.61,-171.16C89.93,-148.84 115.64,-112.25 149,-95.66 213.01,-63.84 296.86,-63.86 352.26,-68.67"/>
<polygon fill="orange" stroke="orange" points="73.47,-169.61 71.52,-180.02 79.54,-173.09 73.47,-169.61"/>
</a>
</g>
<text text-anchor="start" x="168" y="-116.66" font-family="Helvetica,sans-Serif" font-size="10.00" fill="grey">&lt; AxisType::Equidistant,</text>
<text text-anchor="start" x="168" y="-101.66" font-family="Helvetica,sans-Serif" font-size="10.00" fill="grey">   bdt &gt;</text>
</g>
<!-- Node8 -->
<g id="Node000008" class="node">
<title>Node8</title>
<g id="a_Node000008"><a xlink:href="class_acts_1_1_axis_3_01_axis_type_1_1_variable_00_01bdt_01_4.html" target="_top" xlink:title="calculate bin indices for a variable binning">
<polygon fill="white" stroke="#666666" points="471.5,-36.66 352.5,-36.66 352.5,-6.66 471.5,-6.66 471.5,-36.66"/>
<text text-anchor="start" x="360.5" y="-24.66" font-family="Helvetica,sans-Serif" font-size="10.00">Acts::Axis&lt; AxisType</text>
<text text-anchor="middle" x="412" y="-13.66" font-family="Helvetica,sans-Serif" font-size="10.00">::Variable, bdt &gt;</text>
</a>
</g>
</g>
<!-- Node1&#45;&gt;Node8 -->
<g id="edge7_Node000001_Node000008" class="edge">
<title>Node1&#45;&gt;Node8</title>
<g id="a_edge7_Node000001_Node000008"><a xlink:title=" ">
<path fill="none" stroke="orange" stroke-dasharray="5,2" d="M70.11,-169.92C77.71,-134.82 98.94,-62.28 149,-30.66 209.99,7.85 295.89,2.13 352.48,-7.83"/>
<polygon fill="orange" stroke="orange" points="66.65,-169.41 68.11,-179.9 73.51,-170.79 66.65,-169.41"/>
</a>
</g>
<text text-anchor="start" x="175" y="-51.66" font-family="Helvetica,sans-Serif" font-size="10.00" fill="grey">&lt; AxisType::Variable,</text>
<text text-anchor="start" x="175" y="-36.66" font-family="Helvetica,sans-Serif" font-size="10.00" fill="grey">   bdt &gt;</text>
</g>
</g>
</svg>
