<?xml version="1.0" encoding="UTF-8" standalone="no"?>
<!DOCTYPE svg PUBLIC "-//W3C//DTD SVG 1.1//EN"
 "http://www.w3.org/Graphics/SVG/1.1/DTD/svg11.dtd">
<!-- Generated by graphviz version 2.43.0 (0)
 -->
<!-- Title: Acts::IndexGridNavigationConfig Pages: 1 -->
<svg width="742pt" height="163pt"
 viewBox="0.00 0.00 742.00 163.00" xmlns="http://www.w3.org/2000/svg" xmlns:xlink="http://www.w3.org/1999/xlink">
<g id="graph0" class="graph" transform="scale(1 1) rotate(0) translate(4 159)">
<title>Acts::IndexGridNavigationConfig</title>
<!-- Node1 -->
<g id="Node000001" class="node">
<title>Node1</title>
<g id="a_Node000001"><a xlink:title=" ">
<polygon fill="#999999" stroke="#666666" points="734,-98 590,-98 590,-68 734,-68 734,-98"/>
<text text-anchor="start" x="598" y="-86" font-family="Helvetica,sans-Serif" font-size="10.00">Acts::IndexGridNavigation</text>
<text text-anchor="middle" x="662" y="-75" font-family="Helvetica,sans-Serif" font-size="10.00">Config</text>
</a>
</g>
</g>
<!-- Node2 -->
<g id="Node000002" class="node">
<title>Node2</title>
<g id="a_Node000002"><a xlink:title=" ">
<polygon fill="white" stroke="#666666" points="451,-153.5 311,-153.5 311,-134.5 451,-134.5 451,-153.5"/>
<text text-anchor="middle" x="381" y="-141.5" font-family="Helvetica,sans-Serif" font-size="10.00">std::vector&lt; std::size_t &gt;</text>
</a>
</g>
</g>
<!-- Node2&#45;&gt;Node1 -->
<g id="edge1_Node000001_Node000002" class="edge">
<title>Node2&#45;&gt;Node1</title>
<g id="a_edge1_Node000001_Node000002"><a xlink:title=" ">
<path fill="none" stroke="#9a32cd" stroke-dasharray="5,2" d="M461.41,-138.08C495.8,-134.36 536.28,-128.41 572,-119 591.66,-113.82 612.8,-105.4 629.54,-98.01"/>
<polygon fill="#9a32cd" stroke="#9a32cd" points="461,-134.61 451.41,-139.12 461.72,-141.57 461,-134.61"/>
</a>
</g>
<text text-anchor="start" x="487.5" y="-142.5" font-family="Helvetica,sans-Serif" font-size="10.00" fill="grey">binExpansion</text>
</g>
<!-- Node3 -->
<g id="Node000003" class="node">
<title>Node3</title>
<g id="a_Node000003"><a xlink:title=" ">
<polygon fill="white" stroke="#666666" points="107.5,-133.5 10.5,-133.5 10.5,-114.5 107.5,-114.5 107.5,-133.5"/>
<text text-anchor="middle" x="59" y="-121.5" font-family="Helvetica,sans-Serif" font-size="10.00">std::vector&lt; T &gt;</text>
</a>
</g>
</g>
<!-- Node3&#45;&gt;Node2 -->
<g id="edge2_Node000002_Node000003" class="edge">
<title>Node3&#45;&gt;Node2</title>
<g id="a_edge2_Node000002_Node000003"><a xlink:title=" ">
<path fill="none" stroke="orange" stroke-dasharray="5,2" d="M117.7,-127.61C171.93,-131 253.17,-136.07 310.85,-139.68"/>
<polygon fill="orange" stroke="orange" points="117.76,-124.1 107.56,-126.97 117.32,-131.09 117.76,-124.1"/>
</a>
</g>
<text text-anchor="start" x="178.5" y="-143.5" font-family="Helvetica,sans-Serif" font-size="10.00" fill="grey">&lt; std::size_t &gt;</text>
</g>
<!-- Node4 -->
<g id="Node000004" class="node">
<title>Node4</title>
<g id="a_Node000004"><a xlink:title=" ">
<polygon fill="white" stroke="#666666" points="443,-115.5 319,-115.5 319,-96.5 443,-96.5 443,-115.5"/>
<text text-anchor="middle" x="381" y="-103.5" font-family="Helvetica,sans-Serif" font-size="10.00">std::vector&lt; double &gt;</text>
</a>
</g>
</g>
<!-- Node3&#45;&gt;Node4 -->
<g id="edge4_Node000004_Node000003" class="edge">
<title>Node3&#45;&gt;Node4</title>
<g id="a_edge4_Node000004_Node000003"><a xlink:title=" ">
<path fill="none" stroke="orange" stroke-dasharray="5,2" d="M100.43,-111.94C111.83,-109.08 124.31,-106.44 136,-105 197.91,-97.38 269.33,-98.86 318.83,-101.49"/>
<polygon fill="orange" stroke="orange" points="99.52,-108.56 90.74,-114.49 101.3,-115.33 99.52,-108.56"/>
</a>
</g>
<text text-anchor="start" x="186.5" y="-110.5" font-family="Helvetica,sans-Serif" font-size="10.00" fill="grey">&lt; double &gt;</text>
</g>
<!-- Node4&#45;&gt;Node1 -->
<g id="edge3_Node000001_Node000004" class="edge">
<title>Node4&#45;&gt;Node1</title>
<g id="a_edge3_Node000001_Node000004"><a xlink:title=" ">
<path fill="none" stroke="#9a32cd" stroke-dasharray="5,2" d="M453.35,-100.12C495.23,-96.67 547.96,-92.32 589.81,-88.87"/>
<polygon fill="#9a32cd" stroke="#9a32cd" points="452.91,-96.64 443.23,-100.95 453.48,-103.62 452.91,-96.64"/>
</a>
</g>
<text text-anchor="start" x="472.5" y="-103.5" font-family="Helvetica,sans-Serif" font-size="10.00" fill="grey">referenceExpansion</text>
</g>
<!-- Node5 -->
<g id="Node000005" class="node">
<title>Node5</title>
<g id="a_Node000005"><a xlink:title=" ">
<polygon fill="white" stroke="#666666" points="442,-78 320,-78 320,-48 442,-48 442,-78"/>
<text text-anchor="start" x="328" y="-66" font-family="Helvetica,sans-Serif" font-size="10.00">std::shared_ptr&lt; Acts</text>
<text text-anchor="middle" x="381" y="-55" font-family="Helvetica,sans-Serif" font-size="10.00">::Surface &gt;</text>
</a>
</g>
</g>
<!-- Node5&#45;&gt;Node1 -->
<g id="edge5_Node000001_Node000005" class="edge">
<title>Node5&#45;&gt;Node1</title>
<g id="a_edge5_Node000001_Node000005"><a xlink:title=" ">
<path fill="none" stroke="#9a32cd" stroke-dasharray="5,2" d="M452.45,-59.94C488.33,-59.25 532.6,-59.74 572,-64 580.64,-64.93 589.67,-66.35 598.54,-67.98"/>
<polygon fill="#9a32cd" stroke="#9a32cd" points="452,-56.45 442.08,-60.18 452.16,-63.45 452,-56.45"/>
</a>
</g>
<text text-anchor="start" x="502.5" y="-69.5" font-family="Helvetica,sans-Serif" font-size="10.00" fill="grey">surface</text>
</g>
<!-- Node6 -->
<g id="Node000006" class="node">
<title>Node6</title>
<g id="a_Node000006"><a xlink:title=" ">
<polygon fill="white" stroke="#666666" points="118,-51.5 0,-51.5 0,-32.5 118,-32.5 118,-51.5"/>
<text text-anchor="middle" x="59" y="-39.5" font-family="Helvetica,sans-Serif" font-size="10.00">std::shared_ptr&lt; T &gt;</text>
</a>
</g>
</g>
<!-- Node6&#45;&gt;Node5 -->
<g id="edge6_Node000005_Node000006" class="edge">
<title>Node6&#45;&gt;Node5</title>
<g id="a_edge6_Node000005_Node000006"><a xlink:title=" ">
<path fill="none" stroke="orange" stroke-dasharray="5,2" d="M128.3,-46.48C185.19,-50.22 265.43,-55.48 319.91,-59.06"/>
<polygon fill="orange" stroke="orange" points="128.53,-42.99 118.32,-45.83 128.07,-49.97 128.53,-42.99"/>
</a>
</g>
<text text-anchor="start" x="171.5" y="-62.5" font-family="Helvetica,sans-Serif" font-size="10.00" fill="grey">&lt; Acts::Surface &gt;</text>
</g>
<!-- Node7 -->
<g id="Node000007" class="node">
<title>Node7</title>
<g id="a_Node000007"><a xlink:title=" ">
<polygon fill="white" stroke="#666666" points="448.5,-30 313.5,-30 313.5,0 448.5,0 448.5,-30"/>
<text text-anchor="start" x="321.5" y="-18" font-family="Helvetica,sans-Serif" font-size="10.00">std::shared_ptr&lt; Acts</text>
<text text-anchor="middle" x="381" y="-7" font-family="Helvetica,sans-Serif" font-size="10.00">::IReferenceGenerator &gt;</text>
</a>
</g>
</g>
<!-- Node6&#45;&gt;Node7 -->
<g id="edge8_Node000007_Node000006" class="edge">
<title>Node6&#45;&gt;Node7</title>
<g id="a_edge8_Node000007_Node000006"><a xlink:title=" ">
<path fill="none" stroke="orange" stroke-dasharray="5,2" d="M112.31,-30.64C120.22,-29.22 128.3,-27.94 136,-27 195.78,-19.67 264.31,-16.78 313.5,-15.66"/>
<polygon fill="orange" stroke="orange" points="111.62,-27.21 102.43,-32.49 112.91,-34.09 111.62,-27.21"/>
</a>
</g>
<text text-anchor="start" x="139.5" y="-32.5" font-family="Helvetica,sans-Serif" font-size="10.00" fill="grey">&lt; Acts::IReferenceGenerator &gt;</text>
</g>
<!-- Node7&#45;&gt;Node1 -->
<g id="edge7_Node000001_Node000007" class="edge">
<title>Node7&#45;&gt;Node1</title>
<g id="a_edge7_Node000001_Node000007"><a xlink:title=" ">
<path fill="none" stroke="#9a32cd" stroke-dasharray="5,2" d="M458.86,-18.22C493.94,-21.23 535.68,-26.99 572,-38 595.2,-45.03 619.64,-57.83 637.03,-67.99"/>
<polygon fill="#9a32cd" stroke="#9a32cd" points="458.92,-14.71 448.67,-17.41 458.36,-21.69 458.92,-14.71"/>
</a>
</g>
<text text-anchor="start" x="472.5" y="-43.5" font-family="Helvetica,sans-Serif" font-size="10.00" fill="grey">referenceGenerator</text>
</g>
</g>
</svg>
