<?xml version="1.0" encoding="UTF-8" standalone="no"?>
<!DOCTYPE svg PUBLIC "-//W3C//DTD SVG 1.1//EN"
 "http://www.w3.org/Graphics/SVG/1.1/DTD/svg11.dtd">
<!-- Generated by graphviz version 2.43.0 (0)
 -->
<!-- Title: ActsPlugins::HashingAnnoy&lt; external_spacepoint_t, SpacePointContainer &gt; Pages: 1 -->
<svg width="258pt" height="230pt"
 viewBox="0.00 0.00 257.50 230.00" xmlns="http://www.w3.org/2000/svg" xmlns:xlink="http://www.w3.org/1999/xlink">
<g id="graph0" class="graph" transform="scale(1 1) rotate(0) translate(4 226)">
<title>ActsPlugins::HashingAnnoy&lt; external_spacepoint_t, SpacePointContainer &gt;</title>
<!-- Node1 -->
<g id="Node000001" class="node">
<title>Node1</title>
<g id="a_Node000001"><a xlink:title=" ">
<polygon fill="#999999" stroke="#666666" points="149,-41 0,-41 0,0 149,0 149,-41"/>
<text text-anchor="start" x="8" y="-29" font-family="Helvetica,sans-Serif" font-size="10.00">ActsPlugins::HashingAnnoy</text>
<text text-anchor="start" x="8" y="-18" font-family="Helvetica,sans-Serif" font-size="10.00">&lt; external_spacepoint_t,</text>
<text text-anchor="middle" x="74.5" y="-7" font-family="Helvetica,sans-Serif" font-size="10.00"> SpacePointContainer &gt;</text>
</a>
</g>
</g>
<!-- Node2 -->
<g id="Node000002" class="node">
<title>Node2</title>
<g id="a_Node000002"><a xlink:title=" ">
<polygon fill="white" stroke="#666666" points="137.5,-135 11.5,-135 11.5,-94 137.5,-94 137.5,-135"/>
<text text-anchor="start" x="19.5" y="-123" font-family="Helvetica,sans-Serif" font-size="10.00">std::map&lt; unsigned</text>
<text text-anchor="start" x="19.5" y="-112" font-family="Helvetica,sans-Serif" font-size="10.00"> int, std::set&lt; external</text>
<text text-anchor="middle" x="74.5" y="-101" font-family="Helvetica,sans-Serif" font-size="10.00">_spacepoint_t &gt; &gt;</text>
</a>
</g>
</g>
<!-- Node2&#45;&gt;Node1 -->
<g id="edge1_Node000001_Node000002" class="edge">
<title>Node2&#45;&gt;Node1</title>
<g id="a_edge1_Node000001_Node000002"><a xlink:title=" ">
<path fill="none" stroke="#9a32cd" stroke-dasharray="5,2" d="M74.5,-83.89C74.5,-69.96 74.5,-53.72 74.5,-41.3"/>
<polygon fill="#9a32cd" stroke="#9a32cd" points="71,-83.99 74.5,-93.99 78,-83.99 71,-83.99"/>
</a>
</g>
<text text-anchor="start" x="77.5" y="-64.5" font-family="Helvetica,sans-Serif" font-size="10.00" fill="grey">m_bucketsSPMap</text>
</g>
<!-- Node3 -->
<g id="Node000003" class="node">
<title>Node3</title>
<g id="a_Node000003"><a xlink:title=" ">
<polygon fill="white" stroke="#666666" points="125,-222 24,-222 24,-203 125,-203 125,-222"/>
<text text-anchor="middle" x="74.5" y="-210" font-family="Helvetica,sans-Serif" font-size="10.00">std::map&lt; K, T &gt;</text>
</a>
</g>
</g>
<!-- Node3&#45;&gt;Node2 -->
<g id="edge2_Node000002_Node000003" class="edge">
<title>Node3&#45;&gt;Node2</title>
<g id="a_edge2_Node000002_Node000003"><a xlink:title=" ">
<path fill="none" stroke="orange" stroke-dasharray="5,2" d="M74.5,-192.87C74.5,-176.24 74.5,-151.97 74.5,-135.06"/>
<polygon fill="orange" stroke="orange" points="71,-192.98 74.5,-202.98 78,-192.98 71,-192.98"/>
</a>
</g>
<text text-anchor="start" x="78" y="-174" font-family="Helvetica,sans-Serif" font-size="10.00" fill="grey">&lt; unsigned int, std</text>
<text text-anchor="start" x="78" y="-159" font-family="Helvetica,sans-Serif" font-size="10.00" fill="grey">  ::set&lt; external_spacepoint_t &gt; &gt;</text>
</g>
</g>
</svg>
