<?xml version="1.0" encoding="UTF-8" standalone="no"?>
<!DOCTYPE svg PUBLIC "-//W3C//DTD SVG 1.1//EN"
 "http://www.w3.org/Graphics/SVG/1.1/DTD/svg11.dtd">
<!-- Generated by graphviz version 2.43.0 (0)
 -->
<!-- Title: Acts::Experimental::CylinderContainerBlueprintNode Pages: 1 -->
<svg width="188pt" height="170pt"
 viewBox="0.00 0.00 188.00 170.00" xmlns="http://www.w3.org/2000/svg" xmlns:xlink="http://www.w3.org/1999/xlink">
<g id="graph0" class="graph" transform="scale(1 1) rotate(0) translate(4 166)">
<title>Acts::Experimental::CylinderContainerBlueprintNode</title>
<!-- Node1 -->
<g id="Node000001" class="node">
<title>Node1</title>
<g id="a_Node000001"><a xlink:title=" ">
<polygon fill="#999999" stroke="#666666" points="180,-30 0,-30 0,0 180,0 180,-30"/>
<text text-anchor="start" x="8" y="-18" font-family="Helvetica,sans-Serif" font-size="10.00">Acts::Experimental</text>
<text text-anchor="middle" x="90" y="-7" font-family="Helvetica,sans-Serif" font-size="10.00">::CylinderContainerBlueprintNode</text>
</a>
</g>
</g>
<!-- Node2 -->
<g id="Node000002" class="node">
<title>Node2</title>
<g id="a_Node000002"><a xlink:href="class_acts_1_1_experimental_1_1_container_blueprint_node.html" target="_top" xlink:title="A blueprint node that can contain multiple child volumes.">
<polygon fill="white" stroke="#666666" points="160,-96 20,-96 20,-66 160,-66 160,-96"/>
<text text-anchor="start" x="28" y="-84" font-family="Helvetica,sans-Serif" font-size="10.00">Acts::Experimental</text>
<text text-anchor="middle" x="90" y="-73" font-family="Helvetica,sans-Serif" font-size="10.00">::ContainerBlueprintNode</text>
</a>
</g>
</g>
<!-- Node2&#45;&gt;Node1 -->
<g id="edge1_Node000001_Node000002" class="edge">
<title>Node2&#45;&gt;Node1</title>
<g id="a_edge1_Node000001_Node000002"><a xlink:title=" ">
<path fill="none" stroke="#63b8ff" d="M90,-55.54C90,-46.96 90,-37.61 90,-30.16"/>
<polygon fill="#63b8ff" stroke="#63b8ff" points="86.5,-55.8 90,-65.8 93.5,-55.8 86.5,-55.8"/>
</a>
</g>
</g>
<!-- Node3 -->
<g id="Node000003" class="node">
<title>Node3</title>
<g id="a_Node000003"><a xlink:href="class_acts_1_1_experimental_1_1_blueprint_node.html" target="_top" xlink:title="Base class for all nodes in the blueprint tree.">
<polygon fill="white" stroke="#666666" points="144.5,-162 35.5,-162 35.5,-132 144.5,-132 144.5,-162"/>
<text text-anchor="start" x="43.5" y="-150" font-family="Helvetica,sans-Serif" font-size="10.00">Acts::Experimental</text>
<text text-anchor="middle" x="90" y="-139" font-family="Helvetica,sans-Serif" font-size="10.00">::BlueprintNode</text>
</a>
</g>
</g>
<!-- Node3&#45;&gt;Node2 -->
<g id="edge2_Node000002_Node000003" class="edge">
<title>Node3&#45;&gt;Node2</title>
<g id="a_edge2_Node000002_Node000003"><a xlink:title=" ">
<path fill="none" stroke="#63b8ff" d="M90,-121.54C90,-112.96 90,-103.61 90,-96.16"/>
<polygon fill="#63b8ff" stroke="#63b8ff" points="86.5,-121.8 90,-131.8 93.5,-121.8 86.5,-121.8"/>
</a>
</g>
</g>
</g>
</svg>
