<?xml version="1.0" encoding="UTF-8" standalone="no"?>
<!DOCTYPE svg PUBLIC "-//W3C//DTD SVG 1.1//EN"
 "http://www.w3.org/Graphics/SVG/1.1/DTD/svg11.dtd">
<!-- Generated by graphviz version 2.43.0 (0)
 -->
<!-- Title: Acts::TrackStateProxy&lt; trajectory_t, M, read_only &gt; Pages: 1 -->
<svg width="505pt" height="221pt"
 viewBox="0.00 0.00 505.00 221.00" xmlns="http://www.w3.org/2000/svg" xmlns:xlink="http://www.w3.org/1999/xlink">
<g id="graph0" class="graph" transform="scale(1 1) rotate(0) translate(4 217)">
<title>Acts::TrackStateProxy&lt; trajectory_t, M, read_only &gt;</title>
<!-- Node1 -->
<g id="Node000001" class="node">
<title>Node1</title>
<g id="a_Node000001"><a xlink:title="Proxy object to access a single point on the trajectory.">
<polygon fill="#999999" stroke="#666666" points="127,-118.5 0,-118.5 0,-77.5 127,-77.5 127,-118.5"/>
<text text-anchor="start" x="8" y="-106.5" font-family="Helvetica,sans-Serif" font-size="10.00">Acts::TrackStateProxy</text>
<text text-anchor="start" x="8" y="-95.5" font-family="Helvetica,sans-Serif" font-size="10.00">&lt; trajectory_t, M, read</text>
<text text-anchor="middle" x="63.5" y="-84.5" font-family="Helvetica,sans-Serif" font-size="10.00">_only &gt;</text>
</a>
</g>
</g>
<!-- Node2 -->
<g id="Node000002" class="node">
<title>Node2</title>
<g id="a_Node000002"><a xlink:href="class_acts_1_1_track_state_proxy.html" target="_top" xlink:title=" ">
<polygon fill="white" stroke="#666666" points="487,-197 323,-197 323,-167 487,-167 487,-197"/>
<text text-anchor="start" x="331" y="-185" font-family="Helvetica,sans-Serif" font-size="10.00">Acts::TrackStateProxy</text>
<text text-anchor="middle" x="405" y="-174" font-family="Helvetica,sans-Serif" font-size="10.00">&lt; trajectory_t, M, ReadOnly &gt;</text>
</a>
</g>
</g>
<!-- Node1&#45;&gt;Node2 -->
<g id="edge1_Node000001_Node000002" class="edge">
<title>Node1&#45;&gt;Node2</title>
<g id="a_edge1_Node000001_Node000002"><a xlink:title=" ">
<path fill="none" stroke="orange" stroke-dasharray="5,2" d="M95.3,-124.88C109.49,-135.77 127.14,-147.32 145,-154 201.98,-175.3 270.58,-181.95 322.86,-183.46"/>
<polygon fill="orange" stroke="orange" points="97.37,-122.06 87.36,-118.59 93.03,-127.54 97.37,-122.06"/>
</a>
</g>
<text text-anchor="start" x="177" y="-202" font-family="Helvetica,sans-Serif" font-size="10.00" fill="grey">&lt; trajectory_t, M,</text>
<text text-anchor="start" x="177" y="-187" font-family="Helvetica,sans-Serif" font-size="10.00" fill="grey">   ReadOnly &gt;</text>
</g>
<!-- Node3 -->
<g id="Node000003" class="node">
<title>Node3</title>
<g id="a_Node000003"><a xlink:href="class_acts_1_1_track_state_proxy.html" target="_top" xlink:title=" ">
<polygon fill="white" stroke="#666666" points="497,-148.5 313,-148.5 313,-107.5 497,-107.5 497,-148.5"/>
<text text-anchor="start" x="321" y="-136.5" font-family="Helvetica,sans-Serif" font-size="10.00">Acts::TrackStateProxy</text>
<text text-anchor="start" x="321" y="-125.5" font-family="Helvetica,sans-Serif" font-size="10.00">&lt; Derived, MeasurementSizeMax,</text>
<text text-anchor="middle" x="405" y="-114.5" font-family="Helvetica,sans-Serif" font-size="10.00"> true &gt;</text>
</a>
</g>
</g>
<!-- Node1&#45;&gt;Node3 -->
<g id="edge2_Node000001_Node000003" class="edge">
<title>Node1&#45;&gt;Node3</title>
<g id="a_edge2_Node000001_Node000003"><a xlink:title=" ">
<path fill="none" stroke="orange" stroke-dasharray="5,2" d="M137.19,-104.42C188.58,-108.96 257.82,-115.08 312.89,-119.95"/>
<polygon fill="orange" stroke="orange" points="137.43,-100.93 127.17,-103.54 136.82,-107.9 137.43,-100.93"/>
</a>
</g>
<text text-anchor="start" x="148" y="-139" font-family="Helvetica,sans-Serif" font-size="10.00" fill="grey">&lt; Derived, MeasurementSize</text>
<text text-anchor="start" x="148" y="-124" font-family="Helvetica,sans-Serif" font-size="10.00" fill="grey">  Max, true &gt;</text>
</g>
<!-- Node4 -->
<g id="Node000004" class="node">
<title>Node4</title>
<g id="a_Node000004"><a xlink:href="class_acts_1_1_track_state_proxy.html" target="_top" xlink:title=" ">
<polygon fill="white" stroke="#666666" points="497,-89.5 313,-89.5 313,-48.5 497,-48.5 497,-89.5"/>
<text text-anchor="start" x="321" y="-77.5" font-family="Helvetica,sans-Serif" font-size="10.00">Acts::TrackStateProxy</text>
<text text-anchor="start" x="321" y="-66.5" font-family="Helvetica,sans-Serif" font-size="10.00">&lt; Derived, MeasurementSizeMax,</text>
<text text-anchor="middle" x="405" y="-55.5" font-family="Helvetica,sans-Serif" font-size="10.00"> false &gt;</text>
</a>
</g>
</g>
<!-- Node1&#45;&gt;Node4 -->
<g id="edge3_Node000001_Node000004" class="edge">
<title>Node1&#45;&gt;Node4</title>
<g id="a_edge3_Node000001_Node000004"><a xlink:title=" ">
<path fill="none" stroke="orange" stroke-dasharray="5,2" d="M133.8,-75.13C137.57,-74.31 141.31,-73.59 145,-73 200.29,-64.18 263.06,-62.99 312.95,-64.1"/>
<polygon fill="orange" stroke="orange" points="132.75,-71.78 123.83,-77.5 134.37,-78.59 132.75,-71.78"/>
</a>
</g>
<text text-anchor="start" x="148" y="-94" font-family="Helvetica,sans-Serif" font-size="10.00" fill="grey">&lt; Derived, MeasurementSize</text>
<text text-anchor="start" x="148" y="-79" font-family="Helvetica,sans-Serif" font-size="10.00" fill="grey">  Max, false &gt;</text>
</g>
<!-- Node5 -->
<g id="Node000005" class="node">
<title>Node5</title>
<g id="a_Node000005"><a xlink:href="class_acts_1_1_track_state_proxy.html" target="_top" xlink:title=" ">
<polygon fill="white" stroke="#666666" points="473,-30 337,-30 337,0 473,0 473,-30"/>
<text text-anchor="start" x="345" y="-18" font-family="Helvetica,sans-Serif" font-size="10.00">Acts::TrackStateProxy</text>
<text text-anchor="middle" x="405" y="-7" font-family="Helvetica,sans-Serif" font-size="10.00">&lt; trajectory_t, M, true &gt;</text>
</a>
</g>
</g>
<!-- Node1&#45;&gt;Node5 -->
<g id="edge4_Node000001_Node000005" class="edge">
<title>Node1&#45;&gt;Node5</title>
<g id="a_edge4_Node000001_Node000005"><a xlink:title=" ">
<path fill="none" stroke="orange" stroke-dasharray="5,2" d="M88.35,-69.55C102.97,-54.29 123.06,-36.84 145,-28 206.49,-3.23 282.93,-2.65 336.78,-6.63"/>
<polygon fill="orange" stroke="orange" points="85.43,-67.55 81.22,-77.27 90.57,-72.3 85.43,-67.55"/>
</a>
</g>
<text text-anchor="start" x="177" y="-49" font-family="Helvetica,sans-Serif" font-size="10.00" fill="grey">&lt; trajectory_t, M,</text>
<text text-anchor="start" x="177" y="-34" font-family="Helvetica,sans-Serif" font-size="10.00" fill="grey">   true &gt;</text>
</g>
</g>
</svg>
