<?xml version="1.0" encoding="UTF-8" standalone="no"?>
<!DOCTYPE svg PUBLIC "-//W3C//DTD SVG 1.1//EN"
 "http://www.w3.org/Graphics/SVG/1.1/DTD/svg11.dtd">
<!-- Generated by graphviz version 2.43.0 (0)
 -->
<!-- Title: Acts::Experimental::GbtsLayer Pages: 1 -->
<svg width="604pt" height="155pt"
 viewBox="0.00 0.00 604.00 154.50" xmlns="http://www.w3.org/2000/svg" xmlns:xlink="http://www.w3.org/1999/xlink">
<g id="graph0" class="graph" transform="scale(1 1) rotate(0) translate(4 150.5)">
<title>Acts::Experimental::GbtsLayer</title>
<!-- Node1 -->
<g id="Node000001" class="node">
<title>Node1</title>
<g id="a_Node000001"><a xlink:title=" ">
<polygon fill="#999999" stroke="#666666" points="596,-106.5 487,-106.5 487,-76.5 596,-76.5 596,-106.5"/>
<text text-anchor="start" x="495" y="-94.5" font-family="Helvetica,sans-Serif" font-size="10.00">Acts::Experimental</text>
<text text-anchor="middle" x="541.5" y="-83.5" font-family="Helvetica,sans-Serif" font-size="10.00">::GbtsLayer</text>
</a>
</g>
</g>
<!-- Node2 -->
<g id="Node000002" class="node">
<title>Node2</title>
<g id="a_Node000002"><a xlink:href="class_acts_1_1_experimental_1_1_trig_in_det_si_layer.html" target="_top" xlink:title=" ">
<polygon fill="white" stroke="#666666" points="344.5,-146.5 235.5,-146.5 235.5,-116.5 344.5,-116.5 344.5,-146.5"/>
<text text-anchor="start" x="243.5" y="-134.5" font-family="Helvetica,sans-Serif" font-size="10.00">Acts::Experimental</text>
<text text-anchor="middle" x="290" y="-123.5" font-family="Helvetica,sans-Serif" font-size="10.00">::TrigInDetSiLayer</text>
</a>
</g>
</g>
<!-- Node2&#45;&gt;Node1 -->
<g id="edge1_Node000001_Node000002" class="edge">
<title>Node2&#45;&gt;Node1</title>
<g id="a_edge1_Node000001_Node000002"><a xlink:title=" ">
<path fill="none" stroke="#9a32cd" stroke-dasharray="5,2" d="M354.9,-125.54C388.93,-121.87 431.41,-116.53 469,-109.5 474.79,-108.42 480.8,-107.14 486.78,-105.78"/>
<polygon fill="#9a32cd" stroke="#9a32cd" points="354.2,-122.09 344.62,-126.62 354.93,-129.05 354.2,-122.09"/>
</a>
</g>
<text text-anchor="start" x="405" y="-127" font-family="Helvetica,sans-Serif" font-size="10.00" fill="grey">m_layer</text>
</g>
<!-- Node3 -->
<g id="Node000003" class="node">
<title>Node3</title>
<g id="a_Node000003"><a xlink:title=" ">
<polygon fill="white" stroke="#666666" points="363,-93 217,-93 217,-74 363,-74 363,-93"/>
<text text-anchor="middle" x="290" y="-81" font-family="Helvetica,sans-Serif" font-size="10.00">std::vector&lt; std::int32_t &gt;</text>
</a>
</g>
</g>
<!-- Node3&#45;&gt;Node1 -->
<g id="edge2_Node000001_Node000003" class="edge">
<title>Node3&#45;&gt;Node1</title>
<g id="a_edge2_Node000001_Node000003"><a xlink:title=" ">
<path fill="none" stroke="#9a32cd" stroke-dasharray="5,2" d="M373.51,-86.15C410.76,-87.34 453.72,-88.72 486.73,-89.78"/>
<polygon fill="#9a32cd" stroke="#9a32cd" points="373.27,-82.64 363.17,-85.81 373.05,-89.63 373.27,-82.64"/>
</a>
</g>
<text text-anchor="start" x="407" y="-94" font-family="Helvetica,sans-Serif" font-size="10.00" fill="grey">m_bins</text>
</g>
<!-- Node4 -->
<g id="Node000004" class="node">
<title>Node4</title>
<g id="a_Node000004"><a xlink:title=" ">
<polygon fill="white" stroke="#666666" points="97,-60 0,-60 0,-41 97,-41 97,-60"/>
<text text-anchor="middle" x="48.5" y="-48" font-family="Helvetica,sans-Serif" font-size="10.00">std::vector&lt; T &gt;</text>
</a>
</g>
</g>
<!-- Node4&#45;&gt;Node3 -->
<g id="edge3_Node000003_Node000004" class="edge">
<title>Node4&#45;&gt;Node3</title>
<g id="a_edge3_Node000003_Node000004"><a xlink:title=" ">
<path fill="none" stroke="orange" stroke-dasharray="5,2" d="M107.29,-58.46C141.12,-63.12 184.06,-69.04 219.7,-73.95"/>
<polygon fill="orange" stroke="orange" points="107.49,-54.96 97.1,-57.06 106.53,-61.89 107.49,-54.96"/>
</a>
</g>
<text text-anchor="start" x="118" y="-76" font-family="Helvetica,sans-Serif" font-size="10.00" fill="grey">&lt; std::int32_t &gt;</text>
</g>
<!-- Node5 -->
<g id="Node000005" class="node">
<title>Node5</title>
<g id="a_Node000005"><a xlink:title=" ">
<polygon fill="white" stroke="#666666" points="346.5,-19 233.5,-19 233.5,0 346.5,0 346.5,-19"/>
<text text-anchor="middle" x="290" y="-7" font-family="Helvetica,sans-Serif" font-size="10.00">std::vector&lt; float &gt;</text>
</a>
</g>
</g>
<!-- Node4&#45;&gt;Node5 -->
<g id="edge5_Node000005_Node000004" class="edge">
<title>Node4&#45;&gt;Node5</title>
<g id="a_edge5_Node000005_Node000004"><a xlink:title=" ">
<path fill="none" stroke="orange" stroke-dasharray="5,2" d="M106.96,-39.92C109.68,-39.44 112.37,-38.96 115,-38.5 154.52,-31.59 199.16,-24.16 233.32,-18.55"/>
<polygon fill="orange" stroke="orange" points="106.29,-36.48 97.06,-41.69 107.53,-43.37 106.29,-36.48"/>
</a>
</g>
<text text-anchor="start" x="135" y="-44" font-family="Helvetica,sans-Serif" font-size="10.00" fill="grey">&lt; float &gt;</text>
</g>
<!-- Node5&#45;&gt;Node1 -->
<g id="edge4_Node000001_Node000005" class="edge">
<title>Node5&#45;&gt;Node1</title>
<g id="a_edge4_Node000001_Node000005"><a xlink:title=" ">
<path fill="none" stroke="#9a32cd" stroke-dasharray="5,2" d="M356.8,-2.7C391.58,-1.74 434.16,-4.87 469,-20.5 495.81,-32.53 518.23,-59.35 530.47,-76.36"/>
<polygon fill="#9a32cd" stroke="#9a32cd" points="356.6,0.79 346.75,-3.1 356.88,-6.2 356.6,0.79"/>
</a>
</g>
<text text-anchor="start" x="384" y="-71.5" font-family="Helvetica,sans-Serif" font-size="10.00" fill="grey">m_maxBinCoord</text>
<text text-anchor="start" x="384" y="-56.5" font-family="Helvetica,sans-Serif" font-size="10.00" fill="grey">m_maxRadius</text>
<text text-anchor="start" x="384" y="-41.5" font-family="Helvetica,sans-Serif" font-size="10.00" fill="grey">m_minBinCoord</text>
<text text-anchor="start" x="384" y="-26.5" font-family="Helvetica,sans-Serif" font-size="10.00" fill="grey">m_minRadius</text>
</g>
</g>
</svg>
