<?xml version="1.0" encoding="UTF-8" standalone="no"?>
<!DOCTYPE svg PUBLIC "-//W3C//DTD SVG 1.1//EN"
 "http://www.w3.org/Graphics/SVG/1.1/DTD/svg11.dtd">
<!-- Generated by graphviz version 2.43.0 (0)
 -->
<!-- Title: Acts::Experimental::GbtsEdge Pages: 1 -->
<svg width="543pt" height="130pt"
 viewBox="0.00 0.00 543.00 130.00" xmlns="http://www.w3.org/2000/svg" xmlns:xlink="http://www.w3.org/1999/xlink">
<g id="graph0" class="graph" transform="scale(1 1) rotate(0) translate(4 126)">
<title>Acts::Experimental::GbtsEdge</title>
<!-- Node1 -->
<g id="Node000001" class="node">
<title>Node1</title>
<g id="a_Node000001"><a xlink:title=" ">
<polygon fill="#999999" stroke="#666666" points="535,-76 426,-76 426,-46 535,-46 535,-76"/>
<text text-anchor="start" x="434" y="-64" font-family="Helvetica,sans-Serif" font-size="10.00">Acts::Experimental</text>
<text text-anchor="middle" x="480.5" y="-53" font-family="Helvetica,sans-Serif" font-size="10.00">::GbtsEdge</text>
</a>
</g>
</g>
<!-- Node2 -->
<g id="Node000002" class="node">
<title>Node2</title>
<g id="a_Node000002"><a xlink:href="class_acts_1_1_experimental_1_1_gbts_node.html" target="_top" xlink:title=" ">
<polygon fill="white" stroke="#666666" points="337.5,-119 228.5,-119 228.5,-89 337.5,-89 337.5,-119"/>
<text text-anchor="start" x="236.5" y="-107" font-family="Helvetica,sans-Serif" font-size="10.00">Acts::Experimental</text>
<text text-anchor="middle" x="283" y="-96" font-family="Helvetica,sans-Serif" font-size="10.00">::GbtsNode</text>
</a>
</g>
</g>
<!-- Node2&#45;&gt;Node1 -->
<g id="edge1_Node000001_Node000002" class="edge">
<title>Node2&#45;&gt;Node1</title>
<g id="a_edge1_Node000001_Node000002"><a xlink:title=" ">
<path fill="none" stroke="#9a32cd" stroke-dasharray="5,2" d="M347.65,-94.09C367.11,-90.69 388.52,-86.58 408,-82 415.43,-80.26 423.23,-78.2 430.84,-76.07"/>
<polygon fill="#9a32cd" stroke="#9a32cd" points="346.93,-90.66 337.67,-95.8 348.12,-97.56 346.93,-90.66"/>
</a>
</g>
<text text-anchor="start" x="372" y="-111" font-family="Helvetica,sans-Serif" font-size="10.00" fill="grey">m_n1</text>
<text text-anchor="start" x="372" y="-96" font-family="Helvetica,sans-Serif" font-size="10.00" fill="grey">m_n2</text>
</g>
<!-- Node3 -->
<g id="Node000003" class="node">
<title>Node3</title>
<g id="a_Node000003"><a xlink:title=" ">
<polygon fill="white" stroke="#666666" points="342.5,-70.5 223.5,-70.5 223.5,-51.5 342.5,-51.5 342.5,-70.5"/>
<text text-anchor="middle" x="283" y="-58.5" font-family="Helvetica,sans-Serif" font-size="10.00">std::array&lt; float, 3 &gt;</text>
</a>
</g>
</g>
<!-- Node3&#45;&gt;Node1 -->
<g id="edge2_Node000001_Node000003" class="edge">
<title>Node3&#45;&gt;Node1</title>
<g id="a_edge2_Node000001_Node000003"><a xlink:title=" ">
<path fill="none" stroke="#9a32cd" stroke-dasharray="5,2" d="M352.76,-61C376.76,-61 403.31,-61 425.89,-61"/>
<polygon fill="#9a32cd" stroke="#9a32cd" points="352.66,-57.5 342.66,-61 352.66,-64.5 352.66,-57.5"/>
</a>
</g>
<text text-anchor="start" x="375" y="-66.5" font-family="Helvetica,sans-Serif" font-size="10.00" fill="grey">m_p</text>
</g>
<!-- Node4 -->
<g id="Node000004" class="node">
<title>Node4</title>
<g id="a_Node000004"><a xlink:title=" ">
<polygon fill="white" stroke="#666666" points="92,-45.5 0,-45.5 0,-26.5 92,-26.5 92,-45.5"/>
<text text-anchor="middle" x="46" y="-33.5" font-family="Helvetica,sans-Serif" font-size="10.00">std::array&lt; T &gt;</text>
</a>
</g>
</g>
<!-- Node4&#45;&gt;Node3 -->
<g id="edge3_Node000003_Node000004" class="edge">
<title>Node4&#45;&gt;Node3</title>
<g id="a_edge3_Node000003_Node000004"><a xlink:title=" ">
<path fill="none" stroke="orange" stroke-dasharray="5,2" d="M101.99,-41.85C138.42,-45.73 186.16,-50.8 223.32,-54.76"/>
<polygon fill="orange" stroke="orange" points="102.35,-38.37 92.03,-40.79 101.61,-45.33 102.35,-38.37"/>
</a>
</g>
<text text-anchor="start" x="128" y="-58.5" font-family="Helvetica,sans-Serif" font-size="10.00" fill="grey">&lt; float, 3 &gt;</text>
</g>
<!-- Node5 -->
<g id="Node000005" class="node">
<title>Node5</title>
<g id="a_Node000005"><a xlink:title=" ">
<polygon fill="white" stroke="#666666" points="346,-30 220,-30 220,0 346,0 346,-30"/>
<text text-anchor="start" x="228" y="-18" font-family="Helvetica,sans-Serif" font-size="10.00">std::array&lt; std::uint32</text>
<text text-anchor="middle" x="283" y="-7" font-family="Helvetica,sans-Serif" font-size="10.00">_t, N_SEG_CONNS &gt;</text>
</a>
</g>
</g>
<!-- Node4&#45;&gt;Node5 -->
<g id="edge5_Node000005_Node000004" class="edge">
<title>Node4&#45;&gt;Node5</title>
<g id="a_edge5_Node000005_Node000004"><a xlink:title=" ">
<path fill="none" stroke="orange" stroke-dasharray="5,2" d="M74.21,-22.04C85.05,-17.21 97.83,-12.41 110,-10 145.9,-2.88 186.82,-3.72 219.75,-6.53"/>
<polygon fill="orange" stroke="orange" points="72.45,-19 64.88,-26.41 75.42,-25.34 72.45,-19"/>
</a>
</g>
<text text-anchor="start" x="113" y="-31" font-family="Helvetica,sans-Serif" font-size="10.00" fill="grey">&lt; std::uint32_t, N</text>
<text text-anchor="start" x="113" y="-16" font-family="Helvetica,sans-Serif" font-size="10.00" fill="grey">  _SEG_CONNS &gt;</text>
</g>
<!-- Node5&#45;&gt;Node1 -->
<g id="edge4_Node000001_Node000005" class="edge">
<title>Node5&#45;&gt;Node1</title>
<g id="a_edge4_Node000001_Node000005"><a xlink:title=" ">
<path fill="none" stroke="#9a32cd" stroke-dasharray="5,2" d="M355.98,-28.41C373.1,-31.91 391.25,-35.86 408,-40 415.28,-41.8 422.94,-43.86 430.42,-45.98"/>
<polygon fill="#9a32cd" stroke="#9a32cd" points="356.54,-24.96 346.05,-26.41 355.16,-31.82 356.54,-24.96"/>
</a>
</g>
<text text-anchor="start" x="367" y="-45.5" font-family="Helvetica,sans-Serif" font-size="10.00" fill="grey">m_vNei</text>
</g>
</g>
</svg>
