<?xml version="1.0" encoding="UTF-8" standalone="no"?>
<!DOCTYPE svg PUBLIC "-//W3C//DTD SVG 1.1//EN"
 "http://www.w3.org/Graphics/SVG/1.1/DTD/svg11.dtd">
<!-- Generated by graphviz version 2.43.0 (0)
 -->
<!-- Title: Acts::GenericFreeTrackParameters&lt; particle_hypothesis_t &gt; Pages: 1 -->
<svg width="617pt" height="134pt"
 viewBox="0.00 0.00 617.00 134.00" xmlns="http://www.w3.org/2000/svg" xmlns:xlink="http://www.w3.org/1999/xlink">
<g id="graph0" class="graph" transform="scale(1 1) rotate(0) translate(4 130)">
<title>Acts::GenericFreeTrackParameters&lt; particle_hypothesis_t &gt;</title>
<!-- Node1 -->
<g id="Node000001" class="node">
<title>Node1</title>
<g id="a_Node000001"><a xlink:title="Track parameters not bound to a surface for a single track.">
<polygon fill="#999999" stroke="#666666" points="183,-78 0,-78 0,-48 183,-48 183,-78"/>
<text text-anchor="start" x="8" y="-66" font-family="Helvetica,sans-Serif" font-size="10.00">Acts::GenericFreeTrackParameters</text>
<text text-anchor="middle" x="91.5" y="-55" font-family="Helvetica,sans-Serif" font-size="10.00">&lt; particle_hypothesis_t &gt;</text>
</a>
</g>
</g>
<!-- Node2 -->
<g id="Node000002" class="node">
<title>Node2</title>
<g id="a_Node000002"><a xlink:href="class_acts_1_1_generic_free_track_parameters.html" target="_top" xlink:title=" ">
<polygon fill="white" stroke="#666666" points="609,-126 409,-126 409,-96 609,-96 609,-126"/>
<text text-anchor="start" x="417" y="-114" font-family="Helvetica,sans-Serif" font-size="10.00">Acts::GenericFreeTrackParameters</text>
<text text-anchor="middle" x="509" y="-103" font-family="Helvetica,sans-Serif" font-size="10.00">&lt; SinglyChargedParticleHypothesis &gt;</text>
</a>
</g>
</g>
<!-- Node1&#45;&gt;Node2 -->
<g id="edge1_Node000001_Node000002" class="edge">
<title>Node1&#45;&gt;Node2</title>
<g id="a_edge1_Node000001_Node000002"><a xlink:title=" ">
<path fill="none" stroke="orange" stroke-dasharray="5,2" d="M174.67,-79.83C183.53,-81.37 192.44,-82.8 201,-84 270.15,-93.71 348.57,-100.53 408.85,-104.89"/>
<polygon fill="orange" stroke="orange" points="175.15,-76.36 164.7,-78.05 173.93,-83.25 175.15,-76.36"/>
</a>
</g>
<text text-anchor="start" x="204" y="-108.5" font-family="Helvetica,sans-Serif" font-size="10.00" fill="grey">&lt; SinglyChargedParticleHypothesis &gt;</text>
</g>
<!-- Node3 -->
<g id="Node000003" class="node">
<title>Node3</title>
<g id="a_Node000003"><a xlink:href="class_acts_1_1_generic_free_track_parameters.html" target="_top" xlink:title=" ">
<polygon fill="white" stroke="#666666" points="600.5,-78 417.5,-78 417.5,-48 600.5,-48 600.5,-78"/>
<text text-anchor="start" x="425.5" y="-66" font-family="Helvetica,sans-Serif" font-size="10.00">Acts::GenericFreeTrackParameters</text>
<text text-anchor="middle" x="509" y="-55" font-family="Helvetica,sans-Serif" font-size="10.00">&lt; NeutralParticleHypothesis &gt;</text>
</a>
</g>
</g>
<!-- Node1&#45;&gt;Node3 -->
<g id="edge2_Node000001_Node000003" class="edge">
<title>Node1&#45;&gt;Node3</title>
<g id="a_edge2_Node000001_Node000003"><a xlink:title=" ">
<path fill="none" stroke="orange" stroke-dasharray="5,2" d="M193.51,-63C261.77,-63 351.15,-63 417.17,-63"/>
<polygon fill="orange" stroke="orange" points="193.17,-59.5 183.17,-63 193.17,-66.5 193.17,-59.5"/>
</a>
</g>
<text text-anchor="start" x="221" y="-68.5" font-family="Helvetica,sans-Serif" font-size="10.00" fill="grey">&lt; NeutralParticleHypothesis &gt;</text>
</g>
<!-- Node4 -->
<g id="Node000004" class="node">
<title>Node4</title>
<g id="a_Node000004"><a xlink:href="class_acts_1_1_generic_free_track_parameters.html" target="_top" xlink:title=" ">
<polygon fill="white" stroke="#666666" points="600.5,-30 417.5,-30 417.5,0 600.5,0 600.5,-30"/>
<text text-anchor="start" x="425.5" y="-18" font-family="Helvetica,sans-Serif" font-size="10.00">Acts::GenericFreeTrackParameters</text>
<text text-anchor="middle" x="509" y="-7" font-family="Helvetica,sans-Serif" font-size="10.00">&lt; ParticleHypothesis &gt;</text>
</a>
</g>
</g>
<!-- Node1&#45;&gt;Node4 -->
<g id="edge3_Node000001_Node000004" class="edge">
<title>Node1&#45;&gt;Node4</title>
<g id="a_edge3_Node000001_Node000004"><a xlink:title=" ">
<path fill="none" stroke="orange" stroke-dasharray="5,2" d="M174.67,-46.17C183.53,-44.63 192.44,-43.2 201,-42 273.46,-31.83 356.11,-24.82 417.38,-20.5"/>
<polygon fill="orange" stroke="orange" points="173.93,-42.75 164.7,-47.95 175.15,-49.64 173.93,-42.75"/>
</a>
</g>
<text text-anchor="start" x="239" y="-47.5" font-family="Helvetica,sans-Serif" font-size="10.00" fill="grey">&lt; ParticleHypothesis &gt;</text>
</g>
</g>
</svg>
