<?xml version="1.0" encoding="UTF-8" standalone="no"?>
<!DOCTYPE svg PUBLIC "-//W3C//DTD SVG 1.1//EN"
 "http://www.w3.org/Graphics/SVG/1.1/DTD/svg11.dtd">
<!-- Generated by graphviz version 2.43.0 (0)
 -->
<!-- Title: Acts::GridSurfaceMaterialT&lt; grid_t, material_accessor_t &gt; Pages: 1 -->
<!--zoomable 160 -->

<svg id="main" version="1.1" xmlns="http://www.w3.org/2000/svg" xmlns:xlink="http://www.w3.org/1999/xlink" xml:space="preserve" onload="init(evt)">

<style type="text/css"><![CDATA[
.node, .edge {opacity: 0.7;}
.node.selected, .edge.selected {opacity: 1;}
.edge:hover path { stroke: red; }
.edge:hover polygon { stroke: red; fill: red; }
]]></style>

<defs>
  <circle id="rim" cx="0" cy="0" r="7"/>
  <circle id="rim2" cx="0" cy="0" r="3.5"/>
  <g id="zoomPlus">
    <use xlink:href="#rim" fill="#404040"><set attributeName="fill" to="#808080" begin="zoomplus.mouseover" end="zoomplus.mouseout"/></use>
    <path d="M-4,0h8M0,-4v8" fill="none" stroke="white" stroke-width="1.5" pointer-events="none"/>
  </g>
  <g id="zoomMin">
    <use xlink:href="#rim" fill="#404040"><set attributeName="fill" to="#808080" begin="zoomminus.mouseover" end="zoomminus.mouseout"/></use>
    <path d="M-4,0h8" fill="none" stroke="white" stroke-width="1.5" pointer-events="none"/>
  </g>
  <g id="arrowUp" transform="translate(30 24)">
    <use xlink:href="#rim"/>
    <path pointer-events="none" fill="none" stroke="white" stroke-width="1.5" d="M0,-3.0v7 M-2.5,-0.5L0,-3.0L2.5,-0.5"/>
  </g>
  <g id="arrowRight" transform="rotate(90) translate(36 -43)">
    <use xlink:href="#rim"/>
    <path pointer-events="none" fill="none" stroke="white" stroke-width="1.5" d="M0,-3.0v7 M-2.5,-0.5L0,-3.0L2.5,-0.5"/>
  </g>
  <g id="arrowDown" transform="rotate(180) translate(-30 -48)">
    <use xlink:href="#rim"/>
    <path pointer-events="none" fill="none" stroke="white" stroke-width="1.5" d="M0,-3.0v7 M-2.5,-0.5L0,-3.0L2.5,-0.5"/>
  </g>
  <g id="arrowLeft" transform="rotate(270) translate(-36 17)">
    <use xlink:href="#rim"/>
    <path pointer-events="none" fill="none" stroke="white" stroke-width="1.5" d="M0,-3.0v7 M-2.5,-0.5L0,-3.0L2.5,-0.5"/>
  </g>
  <g id="resetDef">
    <use xlink:href="#rim2" fill="#404040"><set attributeName="fill" to="#808080" begin="reset.mouseover" end="reset.mouseout"/></use>
  </g>
</defs>
<script type="application/ecmascript">
var viewWidth = 1439;
var viewHeight = 160;
var sectionId = 'dynsection-0';
</script>
<script type="application/ecmascript" xlink:href="svg.min.js"/>
<svg id="graph" class="graph">
<g id="viewport">
<title>Acts::GridSurfaceMaterialT&lt; grid_t, material_accessor_t &gt;</title>
<!-- Node1 -->
<g id="Node000001" class="node">
<title>Node1</title>
<g id="a_Node000001"><a xlink:title="GridSurfaceMaterialT.">
<polygon fill="#999999" stroke="#666666" points="1028,-85 851,-85 851,-55 1028,-55 1028,-85"/>
<text text-anchor="start" x="859" y="-73" font-family="Helvetica,sans-Serif" font-size="10.00">Acts::GridSurfaceMaterial</text>
<text text-anchor="middle" x="939.5" y="-62" font-family="Helvetica,sans-Serif" font-size="10.00">T&lt; grid_t, material_accessor_t &gt;</text>
</a>
</g>
</g>
<!-- Node6 -->
<g id="Node000006" class="node">
<title>Node6</title>
<g id="a_Node000006"><a xlink:href="class_acts_1_1_grid_surface_material_t.html" target="_top" xlink:title=" ">
<polygon fill="white" stroke="#666666" points="1431,-140 1212,-140 1212,-110 1431,-110 1431,-140"/>
<text text-anchor="start" x="1220" y="-128" font-family="Helvetica,sans-Serif" font-size="10.00">Acts::GridSurfaceMaterial</text>
<text text-anchor="middle" x="1321.5" y="-117" font-family="Helvetica,sans-Serif" font-size="10.00">T&lt; grid_type, IndexedMaterialAccessor &gt;</text>
</a>
</g>
</g>
<!-- Node1&#45;&gt;Node6 -->
<g id="edge6_Node000001_Node000006" class="edge">
<title>Node1&#45;&gt;Node6</title>
<g id="a_edge6_Node000001_Node000006"><a xlink:title=" ">
<path fill="none" stroke="orange" stroke-dasharray="5,2" d="M990.91,-88.28C1008.17,-93.86 1027.73,-99.46 1046,-103 1100.09,-113.49 1161.11,-118.99 1211.86,-121.88"/>
<polygon fill="orange" stroke="orange" points="991.63,-84.83 981.04,-85.01 989.43,-91.48 991.63,-84.83"/>
</a>
</g>
<text text-anchor="start" x="1049" y="-141" font-family="Helvetica,sans-Serif" font-size="10.00" fill="grey">&lt; grid_type, IndexedMaterial</text>
<text text-anchor="start" x="1049" y="-126" font-family="Helvetica,sans-Serif" font-size="10.00" fill="grey">  Accessor &gt;</text>
</g>
<!-- Node7 -->
<g id="Node000007" class="node">
<title>Node7</title>
<g id="a_Node000007"><a xlink:href="class_acts_1_1_grid_surface_material_t.html" target="_top" xlink:title=" ">
<polygon fill="white" stroke="#666666" points="1424,-90.5 1219,-90.5 1219,-49.5 1424,-49.5 1424,-90.5"/>
<text text-anchor="start" x="1227" y="-78.5" font-family="Helvetica,sans-Serif" font-size="10.00">Acts::GridSurfaceMaterial</text>
<text text-anchor="start" x="1227" y="-67.5" font-family="Helvetica,sans-Serif" font-size="10.00">T&lt; grid_type, GloballyIndexedMaterial</text>
<text text-anchor="middle" x="1321.5" y="-56.5" font-family="Helvetica,sans-Serif" font-size="10.00">Accessor &gt;</text>
</a>
</g>
</g>
<!-- Node1&#45;&gt;Node7 -->
<g id="edge7_Node000001_Node000007" class="edge">
<title>Node1&#45;&gt;Node7</title>
<g id="a_edge7_Node000001_Node000007"><a xlink:title=" ">
<path fill="none" stroke="orange" stroke-dasharray="5,2" d="M1038.33,-70C1093.69,-70 1162.84,-70 1218.83,-70"/>
<polygon fill="orange" stroke="orange" points="1038.16,-66.5 1028.16,-70 1038.16,-73.5 1038.16,-66.5"/>
</a>
</g>
<text text-anchor="start" x="1049" y="-91" font-family="Helvetica,sans-Serif" font-size="10.00" fill="grey">&lt; grid_type, GloballyIndexed</text>
<text text-anchor="start" x="1049" y="-76" font-family="Helvetica,sans-Serif" font-size="10.00" fill="grey">  MaterialAccessor &gt;</text>
</g>
<!-- Node8 -->
<g id="Node000008" class="node">
<title>Node8</title>
<g id="a_Node000008"><a xlink:href="class_acts_1_1_grid_surface_material_t.html" target="_top" xlink:title=" ">
<polygon fill="white" stroke="#666666" points="1422,-30 1221,-30 1221,0 1422,0 1422,-30"/>
<text text-anchor="start" x="1229" y="-18" font-family="Helvetica,sans-Serif" font-size="10.00">Acts::GridSurfaceMaterial</text>
<text text-anchor="middle" x="1321.5" y="-7" font-family="Helvetica,sans-Serif" font-size="10.00">T&lt; grid_type, GridMaterialAccessor &gt;</text>
</a>
</g>
</g>
<!-- Node1&#45;&gt;Node8 -->
<g id="edge8_Node000001_Node000008" class="edge">
<title>Node1&#45;&gt;Node8</title>
<g id="a_edge8_Node000001_Node000008"><a xlink:title=" ">
<path fill="none" stroke="orange" stroke-dasharray="5,2" d="M986.47,-51.41C1004.71,-44.81 1026.06,-38.02 1046,-34 1103.25,-22.46 1168.42,-17.61 1220.89,-15.69"/>
<polygon fill="orange" stroke="orange" points="985.12,-48.18 976.96,-54.94 987.55,-54.74 985.12,-48.18"/>
</a>
</g>
<text text-anchor="start" x="1058" y="-55" font-family="Helvetica,sans-Serif" font-size="10.00" fill="grey">&lt; grid_type, GridMaterial</text>
<text text-anchor="start" x="1058" y="-40" font-family="Helvetica,sans-Serif" font-size="10.00" fill="grey">  Accessor &gt;</text>
</g>
<!-- Node2 -->
<g id="Node000002" class="node">
<title>Node2</title>
<g id="a_Node000002"><a xlink:href="class_acts_1_1_i_grid_surface_material.html" target="_top" xlink:title=" ">
<polygon fill="white" stroke="#666666" points="814,-90.5 663,-90.5 663,-49.5 814,-49.5 814,-90.5"/>
<text text-anchor="start" x="671" y="-78.5" font-family="Helvetica,sans-Serif" font-size="10.00">Acts::IGridSurfaceMaterial</text>
<text text-anchor="start" x="671" y="-67.5" font-family="Helvetica,sans-Serif" font-size="10.00">&lt; material_accessor_t::grid</text>
<text text-anchor="middle" x="738.5" y="-56.5" font-family="Helvetica,sans-Serif" font-size="10.00">_value_type &gt;</text>
</a>
</g>
</g>
<!-- Node2&#45;&gt;Node1 -->
<g id="edge1_Node000001_Node000002" class="edge">
<title>Node2&#45;&gt;Node1</title>
<g id="a_edge1_Node000001_Node000002"><a xlink:title=" ">
<path fill="none" stroke="#63b8ff" d="M824.32,-70C833.04,-70 841.92,-70 850.68,-70"/>
<polygon fill="#63b8ff" stroke="#63b8ff" points="824.17,-66.5 814.17,-70 824.17,-73.5 824.17,-66.5"/>
</a>
</g>
</g>
<!-- Node3 -->
<g id="Node000003" class="node">
<title>Node3</title>
<g id="a_Node000003"><a xlink:href="class_acts_1_1_i_grid_surface_material_base.html" target="_top" xlink:title="Base class for the concrete templated grid surface material types.">
<polygon fill="white" stroke="#666666" points="329,-80.5 161,-80.5 161,-61.5 329,-61.5 329,-80.5"/>
<text text-anchor="middle" x="245" y="-68.5" font-family="Helvetica,sans-Serif" font-size="10.00">Acts::IGridSurfaceMaterialBase</text>
</a>
</g>
</g>
<!-- Node3&#45;&gt;Node2 -->
<g id="edge2_Node000002_Node000003" class="edge">
<title>Node3&#45;&gt;Node2</title>
<g id="a_edge2_Node000002_Node000003"><a xlink:title=" ">
<path fill="none" stroke="#63b8ff" d="M339.52,-77.14C420.42,-81.49 540.5,-85.63 645,-80 650.81,-79.69 656.81,-79.26 662.84,-78.77"/>
<polygon fill="#63b8ff" stroke="#63b8ff" points="339.53,-73.63 329.36,-76.58 339.15,-80.62 339.53,-73.63"/>
</a>
</g>
</g>
<!-- Node5 -->
<g id="Node000005" class="node">
<title>Node5</title>
<g id="a_Node000005"><a xlink:href="class_acts_1_1_i_grid_surface_material.html" target="_top" xlink:title="Intermediate interface to the grid surface material given access to the grid and the material accesso...">
<polygon fill="white" stroke="#666666" points="510,-64 366,-64 366,-34 510,-34 510,-64"/>
<text text-anchor="start" x="374" y="-52" font-family="Helvetica,sans-Serif" font-size="10.00">Acts::IGridSurfaceMaterial</text>
<text text-anchor="middle" x="438" y="-41" font-family="Helvetica,sans-Serif" font-size="10.00">&lt; grid_value_t &gt;</text>
</a>
</g>
</g>
<!-- Node3&#45;&gt;Node5 -->
<g id="edge5_Node000005_Node000003" class="edge">
<title>Node3&#45;&gt;Node5</title>
<g id="a_edge5_Node000005_Node000003"><a xlink:title=" ">
<path fill="none" stroke="#63b8ff" d="M338.89,-60.3C347.97,-59.26 357.08,-58.21 365.89,-57.19"/>
<polygon fill="#63b8ff" stroke="#63b8ff" points="338.2,-56.86 328.66,-61.48 339,-63.81 338.2,-56.86"/>
</a>
</g>
</g>
<!-- Node4 -->
<g id="Node000004" class="node">
<title>Node4</title>
<g id="a_Node000004"><a xlink:href="class_acts_1_1_i_surface_material.html" target="_top" xlink:title="Base class of all surface&#45;based material description.">
<polygon fill="white" stroke="#666666" points="124,-80.5 0,-80.5 0,-61.5 124,-61.5 124,-80.5"/>
<text text-anchor="middle" x="62" y="-68.5" font-family="Helvetica,sans-Serif" font-size="10.00">Acts::ISurfaceMaterial</text>
</a>
</g>
</g>
<!-- Node4&#45;&gt;Node3 -->
<g id="edge3_Node000003_Node000004" class="edge">
<title>Node4&#45;&gt;Node3</title>
<g id="a_edge3_Node000003_Node000004"><a xlink:title=" ">
<path fill="none" stroke="#63b8ff" d="M134.14,-71C142.88,-71 151.86,-71 160.75,-71"/>
<polygon fill="#63b8ff" stroke="#63b8ff" points="134.03,-67.5 124.03,-71 134.03,-74.5 134.03,-67.5"/>
</a>
</g>
</g>
<!-- Node5&#45;&gt;Node2 -->
<g id="edge4_Node000002_Node000005" class="edge">
<title>Node5&#45;&gt;Node2</title>
<g id="a_edge4_Node000002_Node000005"><a xlink:title=" ">
<path fill="none" stroke="orange" stroke-dasharray="5,2" d="M520.74,-44.06C558.66,-42.93 604.25,-43.22 645,-48 650.82,-48.68 656.8,-49.6 662.8,-50.67"/>
<polygon fill="orange" stroke="orange" points="520.14,-40.57 510.26,-44.41 520.38,-47.57 520.14,-40.57"/>
</a>
</g>
<text text-anchor="start" x="531.5" y="-69" font-family="Helvetica,sans-Serif" font-size="10.00" fill="grey">&lt; material_accessor</text>
<text text-anchor="start" x="531.5" y="-54" font-family="Helvetica,sans-Serif" font-size="10.00" fill="grey">  _t::grid_value_type &gt;</text>
</g>
</g>
</svg>

<g id="navigator" transform="translate(0 0)" fill="#404254">
  <rect fill="#f2f5e9" fill-opacity="0.5" stroke="#606060" stroke-width=".5" x="0" y="0" width="60" height="60"/>
  <use id="zoomplus" xlink:href="#zoomPlus" x="17" y="9" onmousedown="handleZoom(evt,'in')"/>
  <use id="zoomminus" xlink:href="#zoomMin" x="42" y="9" onmousedown="handleZoom(evt,'out')"/>
  <use id="reset" xlink:href="#resetDef" x="30" y="36" onmousedown="handleReset()"/>
   <use id="arrowup" xlink:href="#arrowUp" x="0" y="0" onmousedown="handlePan(0,-1)"/>
  <use id="arrowright" xlink:href="#arrowRight" x="0" y="0" onmousedown="handlePan(1,0)"/>
  <use id="arrowdown" xlink:href="#arrowDown" x="0" y="0" onmousedown="handlePan(0,1)"/>
  <use id="arrowleft" xlink:href="#arrowLeft" x="0" y="0" onmousedown="handlePan(-1,0)"/>
</g>
<svg viewBox="0 0 15 15" width="100%" height="30px" preserveAspectRatio="xMaxYMin meet">
 <g id="arrow_out" transform="scale(0.3 0.3)">
  <a xlink:href="class_acts_1_1_grid_surface_material_t__inherit__graph_org.svg" target="_base">
   <rect id="button" ry="5" rx="5" y="6" x="6" height="38" width="38"
        fill="#f2f5e9" fill-opacity="0.5" stroke="#606060" stroke-width="1.0"/>
   <path id="arrow"
     d="M 11.500037,31.436501 C 11.940474,20.09759 22.043105,11.32322 32.158766,21.979434 L 37.068811,17.246167 C 37.068811,17.246167 37.088388,32 37.088388,32 L 22.160133,31.978069 C 22.160133,31.978069 26.997745,27.140456 26.997745,27.140456 C 18.528582,18.264221 13.291696,25.230495 11.500037,31.436501 z"
     style="fill:#404040;"/>
  </a>
 </g>
</svg>

<style type='text/css'>
<![CDATA[
[data-mouse-over-selected='false'] { opacity: 0.7; }
[data-mouse-over-selected='true']  { opacity: 1.0; }
]]>
</style>
<script type="application/ecmascript"><![CDATA[
document.addEventListener('DOMContentLoaded', (event) => {
  highlightEdges();
  highlightAdjacentNodes();
});
]]></script>
</svg>
