<?xml version="1.0" encoding="UTF-8" standalone="no"?>
<!DOCTYPE svg PUBLIC "-//W3C//DTD SVG 1.1//EN"
 "http://www.w3.org/Graphics/SVG/1.1/DTD/svg11.dtd">
<!-- Generated by graphviz version 2.43.0 (0)
 -->
<!-- Title: Acts::Axis&lt; AxisType::Equidistant, bdt &gt; Pages: 1 -->
<svg width="267pt" height="125pt"
 viewBox="0.00 0.00 267.00 125.00" xmlns="http://www.w3.org/2000/svg" xmlns:xlink="http://www.w3.org/1999/xlink">
<g id="graph0" class="graph" transform="scale(1 1) rotate(0) translate(4 121)">
<title>Acts::Axis&lt; AxisType::Equidistant, bdt &gt;</title>
<!-- Node1 -->
<g id="Node000001" class="node">
<title>Node1</title>
<g id="a_Node000001"><a xlink:title="calculate bin indices for an equidistant binning">
<polygon fill="#999999" stroke="#666666" points="152.5,-30 33.5,-30 33.5,0 152.5,0 152.5,-30"/>
<text text-anchor="start" x="41.5" y="-18" font-family="Helvetica,sans-Serif" font-size="10.00">Acts::Axis&lt; AxisType</text>
<text text-anchor="middle" x="93" y="-7" font-family="Helvetica,sans-Serif" font-size="10.00">::Equidistant, bdt &gt;</text>
</a>
</g>
</g>
<!-- Node2 -->
<g id="Node000002" class="node">
<title>Node2</title>
<g id="a_Node000002"><a xlink:href="class_acts_1_1_i_axis.html" target="_top" xlink:title="Common base class for all Axis instance.">
<polygon fill="white" stroke="#666666" points="68,-117 0,-117 0,-98 68,-98 68,-117"/>
<text text-anchor="middle" x="34" y="-105" font-family="Helvetica,sans-Serif" font-size="10.00">Acts::IAxis</text>
</a>
</g>
</g>
<!-- Node2&#45;&gt;Node1 -->
<g id="edge1_Node000001_Node000002" class="edge">
<title>Node2&#45;&gt;Node1</title>
<g id="a_edge1_Node000001_Node000002"><a xlink:title=" ">
<path fill="none" stroke="#63b8ff" d="M45.2,-89.32C56.39,-72.16 73.39,-46.08 83.81,-30.09"/>
<polygon fill="#63b8ff" stroke="#63b8ff" points="42.19,-87.53 39.66,-97.82 48.05,-91.36 42.19,-87.53"/>
</a>
</g>
</g>
<!-- Node3 -->
<g id="Node000003" class="node">
<title>Node3</title>
<g id="a_Node000003"><a xlink:href="class_acts_1_1_axis.html" target="_top" xlink:title="calculate bin indices from a given binning structure">
<polygon fill="white" stroke="#666666" points="217.5,-117 86.5,-117 86.5,-98 217.5,-98 217.5,-117"/>
<text text-anchor="middle" x="152" y="-105" font-family="Helvetica,sans-Serif" font-size="10.00">Acts::Axis&lt; type, bdt &gt;</text>
</a>
</g>
</g>
<!-- Node3&#45;&gt;Node1 -->
<g id="edge2_Node000001_Node000003" class="edge">
<title>Node3&#45;&gt;Node1</title>
<g id="a_edge2_Node000001_Node000003"><a xlink:title=" ">
<path fill="none" stroke="orange" stroke-dasharray="5,2" d="M140.8,-89.32C129.61,-72.16 112.61,-46.08 102.19,-30.09"/>
<polygon fill="orange" stroke="orange" points="137.95,-91.36 146.34,-97.82 143.81,-87.53 137.95,-91.36"/>
</a>
</g>
<text text-anchor="start" x="137.5" y="-69" font-family="Helvetica,sans-Serif" font-size="10.00" fill="grey">&lt; AxisType::Equidistant,</text>
<text text-anchor="start" x="137.5" y="-54" font-family="Helvetica,sans-Serif" font-size="10.00" fill="grey">   bdt &gt;</text>
</g>
</g>
</svg>
