<?xml version="1.0" encoding="UTF-8" standalone="no"?>
<!DOCTYPE svg PUBLIC "-//W3C//DTD SVG 1.1//EN"
 "http://www.w3.org/Graphics/SVG/1.1/DTD/svg11.dtd">
<!-- Generated by graphviz version 2.43.0 (0)
 -->
<!-- Title: Acts::SpacePointContainer2::Subset&lt; read_only &gt; Pages: 1 -->
<svg width="671pt" height="86pt"
 viewBox="0.00 0.00 671.00 86.00" xmlns="http://www.w3.org/2000/svg" xmlns:xlink="http://www.w3.org/1999/xlink">
<g id="graph0" class="graph" transform="scale(1 1) rotate(0) translate(4 82)">
<title>Acts::SpacePointContainer2::Subset&lt; read_only &gt;</title>
<!-- Node1 -->
<g id="Node000001" class="node">
<title>Node1</title>
<g id="a_Node000001"><a xlink:title=" ">
<polygon fill="#999999" stroke="#666666" points="423,-54 272,-54 272,-24 423,-24 423,-54"/>
<text text-anchor="start" x="280" y="-42" font-family="Helvetica,sans-Serif" font-size="10.00">Acts::SpacePointContainer2</text>
<text text-anchor="middle" x="347.5" y="-31" font-family="Helvetica,sans-Serif" font-size="10.00">::Subset&lt; read_only &gt;</text>
</a>
</g>
</g>
<!-- Node3 -->
<g id="Node000003" class="node">
<title>Node3</title>
<g id="a_Node000003"><a xlink:href="class_acts_1_1_space_point_container2_1_1_subset.html" target="_top" xlink:title=" ">
<polygon fill="white" stroke="#666666" points="663,-78 512,-78 512,-48 663,-48 663,-78"/>
<text text-anchor="start" x="520" y="-66" font-family="Helvetica,sans-Serif" font-size="10.00">Acts::SpacePointContainer2</text>
<text text-anchor="middle" x="587.5" y="-55" font-family="Helvetica,sans-Serif" font-size="10.00">::Subset&lt; false &gt;</text>
</a>
</g>
</g>
<!-- Node1&#45;&gt;Node3 -->
<g id="edge2_Node000001_Node000003" class="edge">
<title>Node1&#45;&gt;Node3</title>
<g id="a_edge2_Node000001_Node000003"><a xlink:title=" ">
<path fill="none" stroke="orange" stroke-dasharray="5,2" d="M433.22,-47.54C458.84,-50.13 486.78,-52.94 511.7,-55.46"/>
<polygon fill="orange" stroke="orange" points="433.45,-44.05 423.15,-46.53 432.75,-51.01 433.45,-44.05"/>
</a>
</g>
<text text-anchor="start" x="444.5" y="-58.5" font-family="Helvetica,sans-Serif" font-size="10.00" fill="grey">&lt; false &gt;</text>
</g>
<!-- Node4 -->
<g id="Node000004" class="node">
<title>Node4</title>
<g id="a_Node000004"><a xlink:href="class_acts_1_1_space_point_container2_1_1_subset.html" target="_top" xlink:title=" ">
<polygon fill="white" stroke="#666666" points="663,-30 512,-30 512,0 663,0 663,-30"/>
<text text-anchor="start" x="520" y="-18" font-family="Helvetica,sans-Serif" font-size="10.00">Acts::SpacePointContainer2</text>
<text text-anchor="middle" x="587.5" y="-7" font-family="Helvetica,sans-Serif" font-size="10.00">::Subset&lt; true &gt;</text>
</a>
</g>
</g>
<!-- Node1&#45;&gt;Node4 -->
<g id="edge3_Node000001_Node000004" class="edge">
<title>Node1&#45;&gt;Node4</title>
<g id="a_edge3_Node000001_Node000004"><a xlink:title=" ">
<path fill="none" stroke="orange" stroke-dasharray="5,2" d="M433.29,-27.84C435.89,-27.55 438.46,-27.27 441,-27 463.94,-24.57 488.95,-22.35 511.67,-20.5"/>
<polygon fill="orange" stroke="orange" points="432.72,-24.38 423.18,-29.01 433.52,-31.34 432.72,-24.38"/>
</a>
</g>
<text text-anchor="start" x="446.5" y="-32.5" font-family="Helvetica,sans-Serif" font-size="10.00" fill="grey">&lt; true &gt;</text>
</g>
<!-- Node2 -->
<g id="Node000002" class="node">
<title>Node2</title>
<g id="a_Node000002"><a xlink:title=" ">
<polygon fill="white" stroke="#666666" points="235,-76 0,-76 0,-2 235,-2 235,-76"/>
<text text-anchor="start" x="8" y="-64" font-family="Helvetica,sans-Serif" font-size="10.00">Acts::detail::ContainerSubset</text>
<text text-anchor="start" x="8" y="-53" font-family="Helvetica,sans-Serif" font-size="10.00">&lt; Subset&lt; read_only &gt;, Subset</text>
<text text-anchor="start" x="8" y="-42" font-family="Helvetica,sans-Serif" font-size="10.00">&lt; true &gt;, SpacePointContainer2,</text>
<text text-anchor="start" x="8" y="-31" font-family="Helvetica,sans-Serif" font-size="10.00"> std::conditional_t&lt; read_only,</text>
<text text-anchor="start" x="8" y="-20" font-family="Helvetica,sans-Serif" font-size="10.00"> ConstSpacePointProxy2, MutableSpacePoint</text>
<text text-anchor="middle" x="117.5" y="-9" font-family="Helvetica,sans-Serif" font-size="10.00">Proxy2 &gt;, SpacePointIndex2, read_only &gt;</text>
</a>
</g>
</g>
<!-- Node2&#45;&gt;Node1 -->
<g id="edge1_Node000001_Node000002" class="edge">
<title>Node2&#45;&gt;Node1</title>
<g id="a_edge1_Node000001_Node000002"><a xlink:title=" ">
<path fill="none" stroke="#63b8ff" d="M245.4,-39C254.42,-39 263.34,-39 271.91,-39"/>
<polygon fill="#63b8ff" stroke="#63b8ff" points="245.17,-35.5 235.17,-39 245.17,-42.5 245.17,-35.5"/>
</a>
</g>
</g>
</g>
</svg>
