<?xml version="1.0" encoding="UTF-8" standalone="no"?>
<!DOCTYPE svg PUBLIC "-//W3C//DTD SVG 1.1//EN"
 "http://www.w3.org/Graphics/SVG/1.1/DTD/svg11.dtd">
<!-- Generated by graphviz version 2.43.0 (0)
 -->
<!-- Title: Acts::TrackStateProxyCommon&lt; Derived, read_only &gt; Pages: 1 -->
<!--zoomable 438 -->

<svg id="main" version="1.1" xmlns="http://www.w3.org/2000/svg" xmlns:xlink="http://www.w3.org/1999/xlink" xml:space="preserve" onload="init(evt)">

<style type="text/css"><![CDATA[
.node, .edge {opacity: 0.7;}
.node.selected, .edge.selected {opacity: 1;}
.edge:hover path { stroke: red; }
.edge:hover polygon { stroke: red; fill: red; }
]]></style>

<defs>
  <circle id="rim" cx="0" cy="0" r="7"/>
  <circle id="rim2" cx="0" cy="0" r="3.5"/>
  <g id="zoomPlus">
    <use xlink:href="#rim" fill="#404040"><set attributeName="fill" to="#808080" begin="zoomplus.mouseover" end="zoomplus.mouseout"/></use>
    <path d="M-4,0h8M0,-4v8" fill="none" stroke="white" stroke-width="1.5" pointer-events="none"/>
  </g>
  <g id="zoomMin">
    <use xlink:href="#rim" fill="#404040"><set attributeName="fill" to="#808080" begin="zoomminus.mouseover" end="zoomminus.mouseout"/></use>
    <path d="M-4,0h8" fill="none" stroke="white" stroke-width="1.5" pointer-events="none"/>
  </g>
  <g id="arrowUp" transform="translate(30 24)">
    <use xlink:href="#rim"/>
    <path pointer-events="none" fill="none" stroke="white" stroke-width="1.5" d="M0,-3.0v7 M-2.5,-0.5L0,-3.0L2.5,-0.5"/>
  </g>
  <g id="arrowRight" transform="rotate(90) translate(36 -43)">
    <use xlink:href="#rim"/>
    <path pointer-events="none" fill="none" stroke="white" stroke-width="1.5" d="M0,-3.0v7 M-2.5,-0.5L0,-3.0L2.5,-0.5"/>
  </g>
  <g id="arrowDown" transform="rotate(180) translate(-30 -48)">
    <use xlink:href="#rim"/>
    <path pointer-events="none" fill="none" stroke="white" stroke-width="1.5" d="M0,-3.0v7 M-2.5,-0.5L0,-3.0L2.5,-0.5"/>
  </g>
  <g id="arrowLeft" transform="rotate(270) translate(-36 17)">
    <use xlink:href="#rim"/>
    <path pointer-events="none" fill="none" stroke="white" stroke-width="1.5" d="M0,-3.0v7 M-2.5,-0.5L0,-3.0L2.5,-0.5"/>
  </g>
  <g id="resetDef">
    <use xlink:href="#rim2" fill="#404040"><set attributeName="fill" to="#808080" begin="reset.mouseover" end="reset.mouseout"/></use>
  </g>
</defs>
<script type="application/ecmascript">
var viewWidth = 1104;
var viewHeight = 438;
var sectionId = 'dynsection-0';
</script>
<script type="application/ecmascript" xlink:href="svg.min.js"/>
<svg id="graph" class="graph">
<g id="viewport">
<title>Acts::TrackStateProxyCommon&lt; Derived, read_only &gt;</title>
<!-- Node1 -->
<g id="Node000001" class="node">
<title>Node1</title>
<g id="a_Node000001"><a xlink:title="Common CRTP implementation shared by track state proxy front&#45;ends.">
<polygon fill="#999999" stroke="#666666" points="167,-262 0,-262 0,-232 167,-232 167,-262"/>
<text text-anchor="start" x="8" y="-250" font-family="Helvetica,sans-Serif" font-size="10.00">Acts::TrackStateProxyCommon</text>
<text text-anchor="middle" x="83.5" y="-239" font-family="Helvetica,sans-Serif" font-size="10.00">&lt; Derived, read_only &gt;</text>
</a>
</g>
</g>
<!-- Node2 -->
<g id="Node000002" class="node">
<title>Node2</title>
<g id="a_Node000002"><a xlink:href="class_acts_1_1_track_state_proxy.html" target="_top" xlink:title=" ">
<polygon fill="white" stroke="#666666" points="1096,-429.5 912,-429.5 912,-388.5 1096,-388.5 1096,-429.5"/>
<text text-anchor="start" x="920" y="-417.5" font-family="Helvetica,sans-Serif" font-size="10.00">Acts::TrackStateProxy</text>
<text text-anchor="start" x="920" y="-406.5" font-family="Helvetica,sans-Serif" font-size="10.00">&lt; Derived, MeasurementSizeMax,</text>
<text text-anchor="middle" x="1004" y="-395.5" font-family="Helvetica,sans-Serif" font-size="10.00"> true &gt;</text>
</a>
</g>
</g>
<!-- Node1&#45;&gt;Node2 -->
<g id="edge1_Node000001_Node000002" class="edge">
<title>Node1&#45;&gt;Node2</title>
<g id="a_edge1_Node000001_Node000002"><a xlink:title=" ">
<path fill="none" stroke="#63b8ff" d="M104.74,-269.51C123.59,-289.06 153.47,-316.58 185,-332 252.73,-365.13 276.42,-355.89 351,-367 549.58,-396.59 785.24,-405.34 911.78,-407.92"/>
<polygon fill="#63b8ff" stroke="#63b8ff" points="107.24,-267.07 97.83,-262.2 102.15,-271.87 107.24,-267.07"/>
</a>
</g>
</g>
<!-- Node3 -->
<g id="Node000003" class="node">
<title>Node3</title>
<g id="a_Node000003"><a xlink:href="class_acts_1_1_track_state_proxy.html" target="_top" xlink:title=" ">
<polygon fill="white" stroke="#666666" points="1096,-330.5 912,-330.5 912,-289.5 1096,-289.5 1096,-330.5"/>
<text text-anchor="start" x="920" y="-318.5" font-family="Helvetica,sans-Serif" font-size="10.00">Acts::TrackStateProxy</text>
<text text-anchor="start" x="920" y="-307.5" font-family="Helvetica,sans-Serif" font-size="10.00">&lt; Derived, MeasurementSizeMax,</text>
<text text-anchor="middle" x="1004" y="-296.5" font-family="Helvetica,sans-Serif" font-size="10.00"> false &gt;</text>
</a>
</g>
</g>
<!-- Node1&#45;&gt;Node3 -->
<g id="edge2_Node000001_Node000003" class="edge">
<title>Node1&#45;&gt;Node3</title>
<g id="a_edge2_Node000001_Node000003"><a xlink:title=" ">
<path fill="none" stroke="#63b8ff" d="M117.59,-267.27C136.65,-278.04 161.43,-290.56 185,-298 424.33,-373.58 493.66,-360.18 744,-378 810.5,-382.73 829.91,-396.35 894,-378 926.16,-368.79 958.06,-347.03 978.96,-330.58"/>
<polygon fill="#63b8ff" stroke="#63b8ff" points="119.14,-264.12 108.73,-262.15 115.64,-270.18 119.14,-264.12"/>
</a>
</g>
</g>
<!-- Node4 -->
<g id="Node000004" class="node">
<title>Node4</title>
<g id="a_Node000004"><a xlink:href="class_acts_1_1_track_state_proxy_common.html" target="_top" xlink:title=" ">
<polygon fill="white" stroke="#666666" points="518,-104.5 351,-104.5 351,-63.5 518,-63.5 518,-104.5"/>
<text text-anchor="start" x="359" y="-92.5" font-family="Helvetica,sans-Serif" font-size="10.00">Acts::TrackStateProxyCommon</text>
<text text-anchor="start" x="359" y="-81.5" font-family="Helvetica,sans-Serif" font-size="10.00">&lt; AnyTrackStateProxy&lt; read</text>
<text text-anchor="middle" x="434.5" y="-70.5" font-family="Helvetica,sans-Serif" font-size="10.00">_only &gt;, read_only &gt;</text>
</a>
</g>
</g>
<!-- Node1&#45;&gt;Node4 -->
<g id="edge3_Node000001_Node000004" class="edge">
<title>Node1&#45;&gt;Node4</title>
<g id="a_edge3_Node000001_Node000004"><a xlink:title=" ">
<path fill="none" stroke="orange" stroke-dasharray="5,2" d="M95.35,-222.61C110.55,-191.62 141.31,-139.13 185,-114 235.01,-85.24 299.97,-78.24 350.94,-78.17"/>
<polygon fill="orange" stroke="orange" points="92.09,-221.32 90.97,-231.86 98.41,-224.32 92.09,-221.32"/>
</a>
</g>
<text text-anchor="start" x="188" y="-135" font-family="Helvetica,sans-Serif" font-size="10.00" fill="grey">&lt; AnyTrackStateProxy</text>
<text text-anchor="start" x="188" y="-120" font-family="Helvetica,sans-Serif" font-size="10.00" fill="grey">  &lt; read_only &gt;, read_only &gt;</text>
</g>
<!-- Node8 -->
<g id="Node000008" class="node">
<title>Node8</title>
<g id="a_Node000008"><a xlink:href="class_acts_1_1_track_state_proxy_common.html" target="_top" xlink:title=" ">
<polygon fill="white" stroke="#666666" points="726,-167.5 555,-167.5 555,-126.5 726,-126.5 726,-167.5"/>
<text text-anchor="start" x="563" y="-155.5" font-family="Helvetica,sans-Serif" font-size="10.00">Acts::TrackStateProxyCommon</text>
<text text-anchor="start" x="563" y="-144.5" font-family="Helvetica,sans-Serif" font-size="10.00">&lt; TrackStateProxy&lt; trajectory</text>
<text text-anchor="middle" x="640.5" y="-133.5" font-family="Helvetica,sans-Serif" font-size="10.00">_t, M, read_only &gt;, read_only &gt;</text>
</a>
</g>
</g>
<!-- Node1&#45;&gt;Node8 -->
<g id="edge9_Node000001_Node000008" class="edge">
<title>Node1&#45;&gt;Node8</title>
<g id="a_edge9_Node000001_Node000008"><a xlink:title=" ">
<path fill="none" stroke="orange" stroke-dasharray="5,2" d="M137.31,-228.64C190.56,-210.9 275.47,-184.77 351,-171 418.99,-158.6 497.17,-152.6 554.98,-149.7"/>
<polygon fill="orange" stroke="orange" points="136.11,-225.35 127.74,-231.84 138.33,-231.98 136.11,-225.35"/>
</a>
</g>
<text text-anchor="start" x="380.5" y="-206.5" font-family="Helvetica,sans-Serif" font-size="10.00" fill="grey">&lt; TrackStateProxy&lt;</text>
<text text-anchor="start" x="380.5" y="-191.5" font-family="Helvetica,sans-Serif" font-size="10.00" fill="grey">   trajectory_t, M, read</text>
<text text-anchor="start" x="380.5" y="-176.5" font-family="Helvetica,sans-Serif" font-size="10.00" fill="grey">  _only &gt;, read_only &gt;</text>
</g>
<!-- Node11 -->
<g id="Node000011" class="node">
<title>Node11</title>
<g id="a_Node000011"><a xlink:href="class_acts_1_1_track_state_proxy_common.html" target="_top" xlink:title=" ">
<polygon fill="white" stroke="#666666" points="518,-267.5 351,-267.5 351,-226.5 518,-226.5 518,-267.5"/>
<text text-anchor="start" x="359" y="-255.5" font-family="Helvetica,sans-Serif" font-size="10.00">Acts::TrackStateProxyCommon</text>
<text text-anchor="start" x="359" y="-244.5" font-family="Helvetica,sans-Serif" font-size="10.00">&lt; TrackStateProxy&lt; trajectory</text>
<text text-anchor="middle" x="434.5" y="-233.5" font-family="Helvetica,sans-Serif" font-size="10.00">_t, M, true &gt;, true &gt;</text>
</a>
</g>
</g>
<!-- Node1&#45;&gt;Node11 -->
<g id="edge12_Node000001_Node000011" class="edge">
<title>Node1&#45;&gt;Node11</title>
<g id="a_edge12_Node000001_Node000011"><a xlink:title=" ">
<path fill="none" stroke="orange" stroke-dasharray="5,2" d="M177.46,-247C231.38,-247 298.7,-247 350.78,-247"/>
<polygon fill="orange" stroke="orange" points="177.21,-243.5 167.21,-247 177.21,-250.5 177.21,-243.5"/>
</a>
</g>
<text text-anchor="start" x="206" y="-282.5" font-family="Helvetica,sans-Serif" font-size="10.00" fill="grey">&lt; TrackStateProxy&lt;</text>
<text text-anchor="start" x="206" y="-267.5" font-family="Helvetica,sans-Serif" font-size="10.00" fill="grey">   trajectory_t, M, true</text>
<text text-anchor="start" x="206" y="-252.5" font-family="Helvetica,sans-Serif" font-size="10.00" fill="grey">   &gt;, true &gt;</text>
</g>
<!-- Node5 -->
<g id="Node000005" class="node">
<title>Node5</title>
<g id="a_Node000005"><a xlink:href="class_acts_1_1_any_track_state_proxy.html" target="_top" xlink:title=" ">
<polygon fill="white" stroke="#666666" points="1074.5,-30 933.5,-30 933.5,0 1074.5,0 1074.5,-30"/>
<text text-anchor="start" x="941.5" y="-18" font-family="Helvetica,sans-Serif" font-size="10.00">Acts::AnyTrackStateProxy</text>
<text text-anchor="middle" x="1004" y="-7" font-family="Helvetica,sans-Serif" font-size="10.00">&lt; false &gt;</text>
</a>
</g>
</g>
<!-- Node4&#45;&gt;Node5 -->
<g id="edge4_Node000004_Node000005" class="edge">
<title>Node4&#45;&gt;Node5</title>
<g id="a_edge4_Node000004_Node000005"><a xlink:title=" ">
<path fill="none" stroke="#63b8ff" d="M480.64,-58.8C502.43,-47.9 529.35,-36.24 555,-30 685.63,1.78 843.96,-2.5 933.12,-8.65"/>
<polygon fill="#63b8ff" stroke="#63b8ff" points="478.95,-55.73 471.64,-63.4 482.13,-61.97 478.95,-55.73"/>
</a>
</g>
</g>
<!-- Node6 -->
<g id="Node000006" class="node">
<title>Node6</title>
<g id="a_Node000006"><a xlink:href="class_acts_1_1_any_track_state_proxy.html" target="_top" xlink:title=" ">
<polygon fill="white" stroke="#666666" points="1074.5,-90 933.5,-90 933.5,-60 1074.5,-60 1074.5,-90"/>
<text text-anchor="start" x="941.5" y="-78" font-family="Helvetica,sans-Serif" font-size="10.00">Acts::AnyTrackStateProxy</text>
<text text-anchor="middle" x="1004" y="-67" font-family="Helvetica,sans-Serif" font-size="10.00">&lt; true &gt;</text>
</a>
</g>
</g>
<!-- Node4&#45;&gt;Node6 -->
<g id="edge5_Node000004_Node000006" class="edge">
<title>Node4&#45;&gt;Node6</title>
<g id="a_edge5_Node000004_Node000006"><a xlink:title=" ">
<path fill="none" stroke="#63b8ff" d="M528.56,-85.73C621.22,-87 767.49,-87.77 894,-83 906.7,-82.52 920.22,-81.74 933.26,-80.86"/>
<polygon fill="#63b8ff" stroke="#63b8ff" points="528.41,-82.23 518.36,-85.59 528.31,-89.23 528.41,-82.23"/>
</a>
</g>
</g>
<!-- Node7 -->
<g id="Node000007" class="node">
<title>Node7</title>
<g id="a_Node000007"><a xlink:href="class_acts_1_1_any_track_state_proxy.html" target="_top" xlink:title=" ">
<polygon fill="white" stroke="#666666" points="711,-69 570,-69 570,-39 711,-39 711,-69"/>
<text text-anchor="start" x="578" y="-57" font-family="Helvetica,sans-Serif" font-size="10.00">Acts::AnyTrackStateProxy</text>
<text text-anchor="middle" x="640.5" y="-46" font-family="Helvetica,sans-Serif" font-size="10.00">&lt; read_only &gt;</text>
</a>
</g>
</g>
<!-- Node4&#45;&gt;Node7 -->
<g id="edge6_Node000004_Node000007" class="edge">
<title>Node4&#45;&gt;Node7</title>
<g id="a_edge6_Node000004_Node000007"><a xlink:title=" ">
<path fill="none" stroke="#63b8ff" d="M528.28,-70.36C542.23,-68.3 556.41,-66.22 569.77,-64.25"/>
<polygon fill="#63b8ff" stroke="#63b8ff" points="527.56,-66.92 518.18,-71.84 528.58,-73.85 527.56,-66.92"/>
</a>
</g>
</g>
<!-- Node7&#45;&gt;Node5 -->
<g id="edge7_Node000007_Node000005" class="edge">
<title>Node7&#45;&gt;Node5</title>
<g id="a_edge7_Node000007_Node000005"><a xlink:title=" ">
<path fill="none" stroke="orange" stroke-dasharray="5,2" d="M721.24,-41.03C728.92,-39.93 736.6,-38.9 744,-38 807.96,-30.18 881.13,-23.93 933.34,-19.93"/>
<polygon fill="orange" stroke="orange" points="720.55,-37.59 711.16,-42.49 721.56,-44.52 720.55,-37.59"/>
</a>
</g>
<text text-anchor="start" x="796" y="-43.5" font-family="Helvetica,sans-Serif" font-size="10.00" fill="grey">&lt; false &gt;</text>
</g>
<!-- Node7&#45;&gt;Node6 -->
<g id="edge8_Node000007_Node000006" class="edge">
<title>Node7&#45;&gt;Node6</title>
<g id="a_edge8_Node000007_Node000006"><a xlink:title=" ">
<path fill="none" stroke="orange" stroke-dasharray="5,2" d="M721.24,-57.08C770.95,-59.17 836.23,-62.24 894,-66 906.7,-66.83 920.21,-67.84 933.25,-68.88"/>
<polygon fill="orange" stroke="orange" points="721.34,-53.58 711.2,-56.66 721.05,-60.57 721.34,-53.58"/>
</a>
</g>
<text text-anchor="start" x="798" y="-71.5" font-family="Helvetica,sans-Serif" font-size="10.00" fill="grey">&lt; true &gt;</text>
</g>
<!-- Node9 -->
<g id="Node000009" class="node">
<title>Node9</title>
<g id="a_Node000009"><a xlink:href="class_acts_1_1_track_state_proxy.html" target="_top" xlink:title=" ">
<polygon fill="white" stroke="#666666" points="1086,-218 922,-218 922,-188 1086,-188 1086,-218"/>
<text text-anchor="start" x="930" y="-206" font-family="Helvetica,sans-Serif" font-size="10.00">Acts::TrackStateProxy</text>
<text text-anchor="middle" x="1004" y="-195" font-family="Helvetica,sans-Serif" font-size="10.00">&lt; trajectory_t, M, ReadOnly &gt;</text>
</a>
</g>
</g>
<!-- Node8&#45;&gt;Node9 -->
<g id="edge10_Node000008_Node000009" class="edge">
<title>Node8&#45;&gt;Node9</title>
<g id="a_edge10_Node000008_Node000009"><a xlink:title=" ">
<path fill="none" stroke="#63b8ff" d="M736.28,-145.29C784.05,-146.18 842.6,-149.96 894,-161 921.16,-166.83 950.47,-178.45 971.85,-187.99"/>
<polygon fill="#63b8ff" stroke="#63b8ff" points="736.3,-141.79 726.25,-145.15 736.2,-148.79 736.3,-141.79"/>
</a>
</g>
</g>
<!-- Node10 -->
<g id="Node000010" class="node">
<title>Node10</title>
<g id="a_Node000010"><a xlink:href="class_acts_1_1_track_state_proxy.html" target="_top" xlink:title=" ">
<polygon fill="white" stroke="#666666" points="1072,-153 936,-153 936,-123 1072,-123 1072,-153"/>
<text text-anchor="start" x="944" y="-141" font-family="Helvetica,sans-Serif" font-size="10.00">Acts::TrackStateProxy</text>
<text text-anchor="middle" x="1004" y="-130" font-family="Helvetica,sans-Serif" font-size="10.00">&lt; trajectory_t, M, true &gt;</text>
</a>
</g>
</g>
<!-- Node8&#45;&gt;Node10 -->
<g id="edge11_Node000008_Node000010" class="edge">
<title>Node8&#45;&gt;Node10</title>
<g id="a_edge11_Node000008_Node000010"><a xlink:title=" ">
<path fill="none" stroke="#63b8ff" d="M736.29,-136.46C738.88,-136.29 741.46,-136.14 744,-136 809.11,-132.52 883.55,-133.62 935.87,-135.23"/>
<polygon fill="#63b8ff" stroke="#63b8ff" points="735.9,-132.98 726.18,-137.2 736.41,-139.96 735.9,-132.98"/>
</a>
</g>
</g>
<!-- Node12 -->
<g id="Node000012" class="node">
<title>Node12</title>
<g id="a_Node000012"><a xlink:href="class_acts_1_1_track_state_proxy.html" target="_top" xlink:title="Proxy object to access a single point on the trajectory.">
<polygon fill="white" stroke="#666666" points="704,-267.5 577,-267.5 577,-226.5 704,-226.5 704,-267.5"/>
<text text-anchor="start" x="585" y="-255.5" font-family="Helvetica,sans-Serif" font-size="10.00">Acts::TrackStateProxy</text>
<text text-anchor="start" x="585" y="-244.5" font-family="Helvetica,sans-Serif" font-size="10.00">&lt; trajectory_t, M, read</text>
<text text-anchor="middle" x="640.5" y="-233.5" font-family="Helvetica,sans-Serif" font-size="10.00">_only &gt;</text>
</a>
</g>
</g>
<!-- Node11&#45;&gt;Node12 -->
<g id="edge13_Node000011_Node000012" class="edge">
<title>Node11&#45;&gt;Node12</title>
<g id="a_edge13_Node000011_Node000012"><a xlink:title=" ">
<path fill="none" stroke="#63b8ff" d="M528.33,-247C544.73,-247 561.44,-247 576.76,-247"/>
<polygon fill="#63b8ff" stroke="#63b8ff" points="528.18,-243.5 518.18,-247 528.18,-250.5 528.18,-243.5"/>
</a>
</g>
</g>
<!-- Node12&#45;&gt;Node2 -->
<g id="edge15_Node000012_Node000002" class="edge">
<title>Node12&#45;&gt;Node2</title>
<g id="a_edge15_Node000012_Node000002"><a xlink:title=" ">
<path fill="none" stroke="orange" stroke-dasharray="5,2" d="M672.81,-274.32C692.26,-290.22 718.37,-309.68 744,-323 799.7,-351.95 867.13,-373.97 919.22,-388.48"/>
<polygon fill="orange" stroke="orange" points="674.83,-271.45 664.9,-267.75 670.36,-276.84 674.83,-271.45"/>
</a>
</g>
<text text-anchor="start" x="747" y="-400" font-family="Helvetica,sans-Serif" font-size="10.00" fill="grey">&lt; Derived, MeasurementSize</text>
<text text-anchor="start" x="747" y="-385" font-family="Helvetica,sans-Serif" font-size="10.00" fill="grey">  Max, true &gt;</text>
</g>
<!-- Node12&#45;&gt;Node3 -->
<g id="edge16_Node000012_Node000003" class="edge">
<title>Node12&#45;&gt;Node3</title>
<g id="a_edge16_Node000012_Node000003"><a xlink:title=" ">
<path fill="none" stroke="orange" stroke-dasharray="5,2" d="M714,-262.32C724.06,-264.31 734.28,-266.26 744,-268 810.39,-279.88 827.44,-280.1 894,-291 899.78,-291.95 905.73,-292.94 911.73,-293.95"/>
<polygon fill="orange" stroke="orange" points="714.5,-258.85 704.01,-260.32 713.13,-265.72 714.5,-258.85"/>
</a>
</g>
<text text-anchor="start" x="747" y="-312" font-family="Helvetica,sans-Serif" font-size="10.00" fill="grey">&lt; Derived, MeasurementSize</text>
<text text-anchor="start" x="747" y="-297" font-family="Helvetica,sans-Serif" font-size="10.00" fill="grey">  Max, false &gt;</text>
</g>
<!-- Node12&#45;&gt;Node9 -->
<g id="edge14_Node000012_Node000009" class="edge">
<title>Node12&#45;&gt;Node9</title>
<g id="a_edge14_Node000012_Node000009"><a xlink:title=" ">
<path fill="none" stroke="orange" stroke-dasharray="5,2" d="M714.22,-238.15C774.32,-230.83 859.58,-220.46 921.87,-212.87"/>
<polygon fill="orange" stroke="orange" points="713.56,-234.7 704.06,-239.39 714.41,-241.65 713.56,-234.7"/>
</a>
</g>
<text text-anchor="start" x="776" y="-254" font-family="Helvetica,sans-Serif" font-size="10.00" fill="grey">&lt; trajectory_t, M,</text>
<text text-anchor="start" x="776" y="-239" font-family="Helvetica,sans-Serif" font-size="10.00" fill="grey">   ReadOnly &gt;</text>
</g>
<!-- Node12&#45;&gt;Node10 -->
<g id="edge17_Node000012_Node000010" class="edge">
<title>Node12&#45;&gt;Node10</title>
<g id="a_edge17_Node000012_Node000010"><a xlink:title=" ">
<path fill="none" stroke="orange" stroke-dasharray="5,2" d="M674.96,-220.47C694.13,-206.6 719.23,-190.56 744,-181 778.07,-167.85 870.98,-154.31 935.71,-146.03"/>
<polygon fill="orange" stroke="orange" points="672.82,-217.7 666.86,-226.46 676.98,-223.32 672.82,-217.7"/>
</a>
</g>
<text text-anchor="start" x="776" y="-202" font-family="Helvetica,sans-Serif" font-size="10.00" fill="grey">&lt; trajectory_t, M,</text>
<text text-anchor="start" x="776" y="-187" font-family="Helvetica,sans-Serif" font-size="10.00" fill="grey">   true &gt;</text>
</g>
</g>
</svg>

<g id="navigator" transform="translate(0 0)" fill="#404254">
  <rect fill="#f2f5e9" fill-opacity="0.5" stroke="#606060" stroke-width=".5" x="0" y="0" width="60" height="60"/>
  <use id="zoomplus" xlink:href="#zoomPlus" x="17" y="9" onmousedown="handleZoom(evt,'in')"/>
  <use id="zoomminus" xlink:href="#zoomMin" x="42" y="9" onmousedown="handleZoom(evt,'out')"/>
  <use id="reset" xlink:href="#resetDef" x="30" y="36" onmousedown="handleReset()"/>
   <use id="arrowup" xlink:href="#arrowUp" x="0" y="0" onmousedown="handlePan(0,-1)"/>
  <use id="arrowright" xlink:href="#arrowRight" x="0" y="0" onmousedown="handlePan(1,0)"/>
  <use id="arrowdown" xlink:href="#arrowDown" x="0" y="0" onmousedown="handlePan(0,1)"/>
  <use id="arrowleft" xlink:href="#arrowLeft" x="0" y="0" onmousedown="handlePan(-1,0)"/>
</g>
<svg viewBox="0 0 15 15" width="100%" height="30px" preserveAspectRatio="xMaxYMin meet">
 <g id="arrow_out" transform="scale(0.3 0.3)">
  <a xlink:href="class_acts_1_1_track_state_proxy_common__inherit__graph_org.svg" target="_base">
   <rect id="button" ry="5" rx="5" y="6" x="6" height="38" width="38"
        fill="#f2f5e9" fill-opacity="0.5" stroke="#606060" stroke-width="1.0"/>
   <path id="arrow"
     d="M 11.500037,31.436501 C 11.940474,20.09759 22.043105,11.32322 32.158766,21.979434 L 37.068811,17.246167 C 37.068811,17.246167 37.088388,32 37.088388,32 L 22.160133,31.978069 C 22.160133,31.978069 26.997745,27.140456 26.997745,27.140456 C 18.528582,18.264221 13.291696,25.230495 11.500037,31.436501 z"
     style="fill:#404040;"/>
  </a>
 </g>
</svg>

<style type='text/css'>
<![CDATA[
[data-mouse-over-selected='false'] { opacity: 0.7; }
[data-mouse-over-selected='true']  { opacity: 1.0; }
]]>
</style>
<script type="application/ecmascript"><![CDATA[
document.addEventListener('DOMContentLoaded', (event) => {
  highlightEdges();
  highlightAdjacentNodes();
});
]]></script>
</svg>
