<?xml version="1.0" encoding="UTF-8" standalone="no"?>
<!DOCTYPE svg PUBLIC "-//W3C//DTD SVG 1.1//EN"
 "http://www.w3.org/Graphics/SVG/1.1/DTD/svg11.dtd">
<!-- Generated by graphviz version 2.43.0 (0)
 -->
<!-- Title: Fatras/include/ActsFatras Pages: 1 -->
<!--zoomable 94 -->

<svg id="main" version="1.1" xmlns="http://www.w3.org/2000/svg" xmlns:xlink="http://www.w3.org/1999/xlink" xml:space="preserve" onload="init(evt)">

<style type="text/css"><![CDATA[
.node, .edge {opacity: 0.7;}
.node.selected, .edge.selected {opacity: 1;}
.edge:hover path { stroke: red; }
.edge:hover polygon { stroke: red; fill: red; }
]]></style>

<defs>
  <circle id="rim" cx="0" cy="0" r="7"/>
  <circle id="rim2" cx="0" cy="0" r="3.5"/>
  <g id="zoomPlus">
    <use xlink:href="#rim" fill="#404040"><set attributeName="fill" to="#808080" begin="zoomplus.mouseover" end="zoomplus.mouseout"/></use>
    <path d="M-4,0h8M0,-4v8" fill="none" stroke="white" stroke-width="1.5" pointer-events="none"/>
  </g>
  <g id="zoomMin">
    <use xlink:href="#rim" fill="#404040"><set attributeName="fill" to="#808080" begin="zoomminus.mouseover" end="zoomminus.mouseout"/></use>
    <path d="M-4,0h8" fill="none" stroke="white" stroke-width="1.5" pointer-events="none"/>
  </g>
  <g id="arrowUp" transform="translate(30 24)">
    <use xlink:href="#rim"/>
    <path pointer-events="none" fill="none" stroke="white" stroke-width="1.5" d="M0,-3.0v7 M-2.5,-0.5L0,-3.0L2.5,-0.5"/>
  </g>
  <g id="arrowRight" transform="rotate(90) translate(36 -43)">
    <use xlink:href="#rim"/>
    <path pointer-events="none" fill="none" stroke="white" stroke-width="1.5" d="M0,-3.0v7 M-2.5,-0.5L0,-3.0L2.5,-0.5"/>
  </g>
  <g id="arrowDown" transform="rotate(180) translate(-30 -48)">
    <use xlink:href="#rim"/>
    <path pointer-events="none" fill="none" stroke="white" stroke-width="1.5" d="M0,-3.0v7 M-2.5,-0.5L0,-3.0L2.5,-0.5"/>
  </g>
  <g id="arrowLeft" transform="rotate(270) translate(-36 17)">
    <use xlink:href="#rim"/>
    <path pointer-events="none" fill="none" stroke="white" stroke-width="1.5" d="M0,-3.0v7 M-2.5,-0.5L0,-3.0L2.5,-0.5"/>
  </g>
  <g id="resetDef">
    <use xlink:href="#rim2" fill="#404040"><set attributeName="fill" to="#808080" begin="reset.mouseover" end="reset.mouseout"/></use>
  </g>
</defs>
<script type="application/ecmascript">
var viewWidth = 592;
var viewHeight = 94;
var sectionId = 'dynsection-0';
</script>
<script type="application/ecmascript" xlink:href="svg.min.js"/>
<svg id="graph" class="graph">
<g id="viewport">
<title>Fatras/include/ActsFatras</title>
<g id="clust1" class="cluster">
<title>clusterdir_0fc0dceac8f892a463386aca73b2602c</title>
<g id="a_clust1"><a xlink:href="dir_0fc0dceac8f892a463386aca73b2602c.html" target="_top" xlink:title="include">
<polygon fill="#edf0f7" stroke="#7f7f7f" stroke-dasharray="5,2" points="8,-8 8,-78 576,-78 576,-8 8,-8"/>
<text text-anchor="middle" x="292" y="-66" font-family="Helvetica,sans-Serif" font-size="10.00">include</text>
</a>
</g>
</g>
<g id="clust2" class="cluster">
<title>clusterdir_a81e18118aac009de686b0db7cc53071</title>
<g id="a_clust2"><a xlink:href="dir_a81e18118aac009de686b0db7cc53071.html" target="_top">
<polygon fill="#edf0f7" stroke="#404040" stroke-width="2" points="16,-16 16,-51 568,-51 568,-16 16,-16"/>
</a>
</g>
</g>
<!-- dir_a81e18118aac009de686b0db7cc53071 -->
<g id="node1" class="node">
<title>dir_a81e18118aac009de686b0db7cc53071</title>
<text text-anchor="middle" x="526" y="-31" font-family="Helvetica,sans-Serif" font-size="10.00">ActsFatras</text>
</g>
<!-- dir_e5bb0d128ccfa672d9ba6993c90ab91c -->
<g id="node2" class="node">
<title>dir_e5bb0d128ccfa672d9ba6993c90ab91c</title>
<g id="a_node2"><a xlink:href="dir_e5bb0d128ccfa672d9ba6993c90ab91c.html" target="_top" xlink:title="Digitization">
<polygon fill="#a2b4d6" stroke="#404040" points="474.5,-43 401.5,-43 401.5,-24 474.5,-24 474.5,-43"/>
<text text-anchor="middle" x="438" y="-31" font-family="Helvetica,sans-Serif" font-size="10.00">Digitization</text>
</a>
</g>
</g>
<!-- dir_2f7d91c183d1d9dbe010d735e4a4bedb -->
<g id="node3" class="node">
<title>dir_2f7d91c183d1d9dbe010d735e4a4bedb</title>
<g id="a_node3"><a xlink:href="dir_2f7d91c183d1d9dbe010d735e4a4bedb.html" target="_top" xlink:title="EventData">
<polygon fill="#a2b4d6" stroke="#404040" points="383,-43 315,-43 315,-24 383,-24 383,-43"/>
<text text-anchor="middle" x="349" y="-31" font-family="Helvetica,sans-Serif" font-size="10.00">EventData</text>
</a>
</g>
</g>
<!-- dir_926d7566311631f5d5895d150daa8047 -->
<g id="node4" class="node">
<title>dir_926d7566311631f5d5895d150daa8047</title>
<g id="a_node4"><a xlink:href="dir_926d7566311631f5d5895d150daa8047.html" target="_top" xlink:title="Kernel">
<polygon fill="#a2b4d6" stroke="#404040" points="296.5,-43 249.5,-43 249.5,-24 296.5,-24 296.5,-43"/>
<text text-anchor="middle" x="273" y="-31" font-family="Helvetica,sans-Serif" font-size="10.00">Kernel</text>
</a>
</g>
</g>
<!-- dir_005efb55f094d722880758a9d8219974 -->
<g id="node5" class="node">
<title>dir_005efb55f094d722880758a9d8219974</title>
<g id="a_node5"><a xlink:href="dir_005efb55f094d722880758a9d8219974.html" target="_top" xlink:title="Physics">
<polygon fill="#a2b4d6" stroke="#404040" points="231.5,-43 178.5,-43 178.5,-24 231.5,-24 231.5,-43"/>
<text text-anchor="middle" x="205" y="-31" font-family="Helvetica,sans-Serif" font-size="10.00">Physics</text>
</a>
</g>
</g>
<!-- dir_e90d3e9f60c89bc5c182906a38cae97b -->
<g id="node6" class="node">
<title>dir_e90d3e9f60c89bc5c182906a38cae97b</title>
<g id="a_node6"><a xlink:href="dir_e90d3e9f60c89bc5c182906a38cae97b.html" target="_top" xlink:title="Selectors">
<polygon fill="#a2b4d6" stroke="#404040" points="160,-43 98,-43 98,-24 160,-24 160,-43"/>
<text text-anchor="middle" x="129" y="-31" font-family="Helvetica,sans-Serif" font-size="10.00">Selectors</text>
</a>
</g>
</g>
<!-- dir_ed0f93a04fcf63bbde5c731948e148b4 -->
<g id="node7" class="node">
<title>dir_ed0f93a04fcf63bbde5c731948e148b4</title>
<g id="a_node7"><a xlink:href="dir_ed0f93a04fcf63bbde5c731948e148b4.html" target="_top" xlink:title="Utilities">
<polygon fill="#a2b4d6" stroke="#404040" points="79.5,-43 24.5,-43 24.5,-24 79.5,-24 79.5,-43"/>
<text text-anchor="middle" x="52" y="-31" font-family="Helvetica,sans-Serif" font-size="10.00">Utilities</text>
</a>
</g>
</g>
</g>
</svg>

<g id="navigator" transform="translate(0 0)" fill="#404254">
  <rect fill="#f2f5e9" fill-opacity="0.5" stroke="#606060" stroke-width=".5" x="0" y="0" width="60" height="60"/>
  <use id="zoomplus" xlink:href="#zoomPlus" x="17" y="9" onmousedown="handleZoom(evt,'in')"/>
  <use id="zoomminus" xlink:href="#zoomMin" x="42" y="9" onmousedown="handleZoom(evt,'out')"/>
  <use id="reset" xlink:href="#resetDef" x="30" y="36" onmousedown="handleReset()"/>
   <use id="arrowup" xlink:href="#arrowUp" x="0" y="0" onmousedown="handlePan(0,-1)"/>
  <use id="arrowright" xlink:href="#arrowRight" x="0" y="0" onmousedown="handlePan(1,0)"/>
  <use id="arrowdown" xlink:href="#arrowDown" x="0" y="0" onmousedown="handlePan(0,1)"/>
  <use id="arrowleft" xlink:href="#arrowLeft" x="0" y="0" onmousedown="handlePan(-1,0)"/>
</g>
<svg viewBox="0 0 15 15" width="100%" height="30px" preserveAspectRatio="xMaxYMin meet">
 <g id="arrow_out" transform="scale(0.3 0.3)">
  <a xlink:href="dir_a81e18118aac009de686b0db7cc53071_dep_org.svg" target="_base">
   <rect id="button" ry="5" rx="5" y="6" x="6" height="38" width="38"
        fill="#f2f5e9" fill-opacity="0.5" stroke="#606060" stroke-width="1.0"/>
   <path id="arrow"
     d="M 11.500037,31.436501 C 11.940474,20.09759 22.043105,11.32322 32.158766,21.979434 L 37.068811,17.246167 C 37.068811,17.246167 37.088388,32 37.088388,32 L 22.160133,31.978069 C 22.160133,31.978069 26.997745,27.140456 26.997745,27.140456 C 18.528582,18.264221 13.291696,25.230495 11.500037,31.436501 z"
     style="fill:#404040;"/>
  </a>
 </g>
</svg>

<style type='text/css'>
<![CDATA[
[data-mouse-over-selected='false'] { opacity: 0.7; }
[data-mouse-over-selected='true']  { opacity: 1.0; }
]]>
</style>
<script type="application/ecmascript"><![CDATA[
document.addEventListener('DOMContentLoaded', (event) => {
  highlightEdges();
  highlightAdjacentNodes();
});
]]></script>
</svg>
