<?xml version="1.0" encoding="UTF-8" standalone="no"?>
<!DOCTYPE svg PUBLIC "-//W3C//DTD SVG 1.1//EN"
 "http://www.w3.org/Graphics/SVG/1.1/DTD/svg11.dtd">
<!-- Generated by graphviz version 2.43.0 (0)
 -->
<!-- Title: docs/groups Pages: 1 -->
<!--zoomable 94 -->

<svg id="main" version="1.1" xmlns="http://www.w3.org/2000/svg" xmlns:xlink="http://www.w3.org/1999/xlink" xml:space="preserve" onload="init(evt)">

<style type="text/css"><![CDATA[
.node, .edge {opacity: 0.7;}
.node.selected, .edge.selected {opacity: 1;}
.edge:hover path { stroke: red; }
.edge:hover polygon { stroke: red; fill: red; }
]]></style>

<defs>
  <circle id="rim" cx="0" cy="0" r="7"/>
  <circle id="rim2" cx="0" cy="0" r="3.5"/>
  <g id="zoomPlus">
    <use xlink:href="#rim" fill="#404040"><set attributeName="fill" to="#808080" begin="zoomplus.mouseover" end="zoomplus.mouseout"/></use>
    <path d="M-4,0h8M0,-4v8" fill="none" stroke="white" stroke-width="1.5" pointer-events="none"/>
  </g>
  <g id="zoomMin">
    <use xlink:href="#rim" fill="#404040"><set attributeName="fill" to="#808080" begin="zoomminus.mouseover" end="zoomminus.mouseout"/></use>
    <path d="M-4,0h8" fill="none" stroke="white" stroke-width="1.5" pointer-events="none"/>
  </g>
  <g id="arrowUp" transform="translate(30 24)">
    <use xlink:href="#rim"/>
    <path pointer-events="none" fill="none" stroke="white" stroke-width="1.5" d="M0,-3.0v7 M-2.5,-0.5L0,-3.0L2.5,-0.5"/>
  </g>
  <g id="arrowRight" transform="rotate(90) translate(36 -43)">
    <use xlink:href="#rim"/>
    <path pointer-events="none" fill="none" stroke="white" stroke-width="1.5" d="M0,-3.0v7 M-2.5,-0.5L0,-3.0L2.5,-0.5"/>
  </g>
  <g id="arrowDown" transform="rotate(180) translate(-30 -48)">
    <use xlink:href="#rim"/>
    <path pointer-events="none" fill="none" stroke="white" stroke-width="1.5" d="M0,-3.0v7 M-2.5,-0.5L0,-3.0L2.5,-0.5"/>
  </g>
  <g id="arrowLeft" transform="rotate(270) translate(-36 17)">
    <use xlink:href="#rim"/>
    <path pointer-events="none" fill="none" stroke="white" stroke-width="1.5" d="M0,-3.0v7 M-2.5,-0.5L0,-3.0L2.5,-0.5"/>
  </g>
  <g id="resetDef">
    <use xlink:href="#rim2" fill="#404040"><set attributeName="fill" to="#808080" begin="reset.mouseover" end="reset.mouseout"/></use>
  </g>
</defs>
<script type="application/ecmascript">
var viewWidth = 641;
var viewHeight = 94;
var sectionId = 'dynsection-0';
</script>
<script type="application/ecmascript" xlink:href="svg.min.js"/>
<svg id="graph" class="graph">
<g id="viewport">
<title>docs/groups</title>
<g id="clust1" class="cluster">
<title>clusterdir_49e56c817e5e54854c35e136979f97ca</title>
<g id="a_clust1"><a xlink:href="dir_49e56c817e5e54854c35e136979f97ca.html" target="_top" xlink:title="docs">
<polygon fill="#edf0f7" stroke="#404040" stroke-dasharray="5,2" points="8,-8 8,-78 625,-78 625,-8 8,-8"/>
<text text-anchor="middle" x="316.5" y="-66" font-family="Helvetica,sans-Serif" font-size="10.00">docs</text>
</a>
</g>
</g>
<g id="clust2" class="cluster">
<title>clusterdir_746ca47e5eb1a465ce9afe341cd5778b</title>
<g id="a_clust2"><a xlink:href="dir_746ca47e5eb1a465ce9afe341cd5778b.html" target="_top">
<polygon fill="#edf0f7" stroke="#404040" stroke-width="2" points="16,-16 16,-51 617,-51 617,-16 16,-16"/>
</a>
</g>
</g>
<!-- dir_746ca47e5eb1a465ce9afe341cd5778b -->
<g id="node1" class="node">
<title>dir_746ca47e5eb1a465ce9afe341cd5778b</title>
<text text-anchor="middle" x="584" y="-31" font-family="Helvetica,sans-Serif" font-size="10.00">groups</text>
</g>
<!-- dir_3cb25b179ad139c2b9451544837c9279 -->
<g id="node2" class="node">
<title>dir_3cb25b179ad139c2b9451544837c9279</title>
<g id="a_node2"><a xlink:href="dir_3cb25b179ad139c2b9451544837c9279.html" target="_top" xlink:title="contributing">
<polygon fill="#a2b4d6" stroke="#404040" points="540.5,-43 465.5,-43 465.5,-24 540.5,-24 540.5,-43"/>
<text text-anchor="middle" x="503" y="-31" font-family="Helvetica,sans-Serif" font-size="10.00">contributing</text>
</a>
</g>
</g>
<!-- dir_d3f96311a31e416dd474cb67eca7fcef -->
<g id="node3" class="node">
<title>dir_d3f96311a31e416dd474cb67eca7fcef</title>
<g id="a_node3"><a xlink:href="dir_d3f96311a31e416dd474cb67eca7fcef.html" target="_top" xlink:title="dataprep">
<polygon fill="#a2b4d6" stroke="#404040" points="447,-43 387,-43 387,-24 447,-24 447,-43"/>
<text text-anchor="middle" x="417" y="-31" font-family="Helvetica,sans-Serif" font-size="10.00">dataprep</text>
</a>
</g>
</g>
<!-- dir_1476de719cc6e0eca14c97b74ba49835 -->
<g id="node4" class="node">
<title>dir_1476de719cc6e0eca14c97b74ba49835</title>
<g id="a_node4"><a xlink:href="dir_1476de719cc6e0eca14c97b74ba49835.html" target="_top" xlink:title="detector_descr">
<polygon fill="#a2b4d6" stroke="#404040" points="369.5,-43 280.5,-43 280.5,-24 369.5,-24 369.5,-43"/>
<text text-anchor="middle" x="325" y="-31" font-family="Helvetica,sans-Serif" font-size="10.00">detector_descr</text>
</a>
</g>
</g>
<!-- dir_05eefe645292851bbee2ed9eeb114141 -->
<g id="node5" class="node">
<title>dir_05eefe645292851bbee2ed9eeb114141</title>
<g id="a_node5"><a xlink:href="dir_05eefe645292851bbee2ed9eeb114141.html" target="_top" xlink:title="eventdata">
<polygon fill="#a2b4d6" stroke="#404040" points="262,-43 196,-43 196,-24 262,-24 262,-43"/>
<text text-anchor="middle" x="229" y="-31" font-family="Helvetica,sans-Serif" font-size="10.00">eventdata</text>
</a>
</g>
</g>
<!-- dir_95b6bb3006a34307983107ef269d6b23 -->
<g id="node6" class="node">
<title>dir_95b6bb3006a34307983107ef269d6b23</title>
<g id="a_node6"><a xlink:href="dir_95b6bb3006a34307983107ef269d6b23.html" target="_top" xlink:title="pattern_recog">
<polygon fill="#a2b4d6" stroke="#404040" points="178,-43 94,-43 94,-24 178,-24 178,-43"/>
<text text-anchor="middle" x="136" y="-31" font-family="Helvetica,sans-Serif" font-size="10.00">pattern_recog</text>
</a>
</g>
</g>
<!-- dir_7114388a7e44881efa8dc3a82f9d9182 -->
<g id="node7" class="node">
<title>dir_7114388a7e44881efa8dc3a82f9d9182</title>
<g id="a_node7"><a xlink:href="dir_7114388a7e44881efa8dc3a82f9d9182.html" target="_top" xlink:title="plugins">
<polygon fill="#a2b4d6" stroke="#404040" points="76,-43 24,-43 24,-24 76,-24 76,-43"/>
<text text-anchor="middle" x="50" y="-31" font-family="Helvetica,sans-Serif" font-size="10.00">plugins</text>
</a>
</g>
</g>
</g>
</svg>

<g id="navigator" transform="translate(0 0)" fill="#404254">
  <rect fill="#f2f5e9" fill-opacity="0.5" stroke="#606060" stroke-width=".5" x="0" y="0" width="60" height="60"/>
  <use id="zoomplus" xlink:href="#zoomPlus" x="17" y="9" onmousedown="handleZoom(evt,'in')"/>
  <use id="zoomminus" xlink:href="#zoomMin" x="42" y="9" onmousedown="handleZoom(evt,'out')"/>
  <use id="reset" xlink:href="#resetDef" x="30" y="36" onmousedown="handleReset()"/>
   <use id="arrowup" xlink:href="#arrowUp" x="0" y="0" onmousedown="handlePan(0,-1)"/>
  <use id="arrowright" xlink:href="#arrowRight" x="0" y="0" onmousedown="handlePan(1,0)"/>
  <use id="arrowdown" xlink:href="#arrowDown" x="0" y="0" onmousedown="handlePan(0,1)"/>
  <use id="arrowleft" xlink:href="#arrowLeft" x="0" y="0" onmousedown="handlePan(-1,0)"/>
</g>
<svg viewBox="0 0 15 15" width="100%" height="30px" preserveAspectRatio="xMaxYMin meet">
 <g id="arrow_out" transform="scale(0.3 0.3)">
  <a xlink:href="dir_746ca47e5eb1a465ce9afe341cd5778b_dep_org.svg" target="_base">
   <rect id="button" ry="5" rx="5" y="6" x="6" height="38" width="38"
        fill="#f2f5e9" fill-opacity="0.5" stroke="#606060" stroke-width="1.0"/>
   <path id="arrow"
     d="M 11.500037,31.436501 C 11.940474,20.09759 22.043105,11.32322 32.158766,21.979434 L 37.068811,17.246167 C 37.068811,17.246167 37.088388,32 37.088388,32 L 22.160133,31.978069 C 22.160133,31.978069 26.997745,27.140456 26.997745,27.140456 C 18.528582,18.264221 13.291696,25.230495 11.500037,31.436501 z"
     style="fill:#404040;"/>
  </a>
 </g>
</svg>

<style type='text/css'>
<![CDATA[
[data-mouse-over-selected='false'] { opacity: 0.7; }
[data-mouse-over-selected='true']  { opacity: 1.0; }
]]>
</style>
<script type="application/ecmascript"><![CDATA[
document.addEventListener('DOMContentLoaded', (event) => {
  highlightEdges();
  highlightAdjacentNodes();
});
]]></script>
</svg>
