<?xml version="1.0" encoding="UTF-8" standalone="no"?>
<!DOCTYPE svg PUBLIC "-//W3C//DTD SVG 1.1//EN"
 "http://www.w3.org/Graphics/SVG/1.1/DTD/svg11.dtd">
<!-- Generated by graphviz version 2.43.0 (0)
 -->
<!-- Title: %3 Pages: 1 -->
<svg width="386pt" height="98pt"
 viewBox="0.00 0.00 385.89 98.00" xmlns="http://www.w3.org/2000/svg" xmlns:xlink="http://www.w3.org/1999/xlink">

<svg id="main" version="1.1" xmlns="http://www.w3.org/2000/svg" xmlns:xlink="http://www.w3.org/1999/xlink" xml:space="preserve">

<style type="text/css"><![CDATA[
.node, .edge {opacity: 0.7;}
.node.selected, .edge.selected {opacity: 1;}
.edge:hover path { stroke: red; }
.edge:hover polygon { stroke: red; fill: red; }
]]></style>
<script type="application/ecmascript" xlink:href="svg.min.js"/>
<svg id="graph" class="graph">
<g id="graph0" class="graph" transform="scale(1 1) rotate(0) translate(4 94)">
<title>%3</title>
<polygon fill="white" stroke="transparent" points="-4,4 -4,-94 381.89,-94 381.89,4 -4,4"/>
<!-- S11 -->
<g id="node1" class="node">
<title>S11</title>
<ellipse fill="none" stroke="black" cx="53.95" cy="-18" rx="53.89" ry="18"/>
<text text-anchor="middle" x="53.95" y="-14.3" font-family="Times,serif" font-size="14.00">S1 (copy)</text>
</g>
<!-- S4 -->
<g id="node5" class="node">
<title>S4</title>
<ellipse fill="none" stroke="black" cx="170.89" cy="-18" rx="27" ry="18"/>
<text text-anchor="middle" x="170.89" y="-14.3" font-family="Times,serif" font-size="14.00">S4</text>
</g>
<!-- S11&#45;&gt;S4 -->
<g id="edge4" class="edge">
<title>S11&#45;&gt;S4</title>
<path fill="none" stroke="black" d="M104.36,-11.31C114.73,-11.16 125.45,-11.3 135.15,-11.74"/>
<polygon fill="black" stroke="black" points="135.01,-15.24 145.2,-12.34 135.42,-8.25 135.01,-15.24"/>
</g>
<!-- S12 -->
<g id="node2" class="node">
<title>S12</title>
<ellipse fill="none" stroke="black" cx="53.95" cy="-72" rx="53.89" ry="18"/>
<text text-anchor="middle" x="53.95" y="-68.3" font-family="Times,serif" font-size="14.00">S1 (copy)</text>
</g>
<!-- S3 -->
<g id="node7" class="node">
<title>S3</title>
<ellipse fill="none" stroke="black" cx="170.89" cy="-72" rx="27" ry="18"/>
<text text-anchor="middle" x="170.89" y="-68.3" font-family="Times,serif" font-size="14.00">S3</text>
</g>
<!-- S12&#45;&gt;S3 -->
<g id="edge9" class="edge">
<title>S12&#45;&gt;S3</title>
<path fill="none" stroke="black" d="M104.36,-65.31C114.73,-65.16 125.45,-65.3 135.15,-65.74"/>
<polygon fill="black" stroke="black" points="135.01,-69.24 145.2,-66.34 135.42,-62.25 135.01,-69.24"/>
</g>
<!-- S7 -->
<g id="node3" class="node">
<title>S7</title>
<ellipse fill="none" stroke="black" cx="350.89" cy="-18" rx="27" ry="18"/>
<text text-anchor="middle" x="350.89" y="-14.3" font-family="Times,serif" font-size="14.00">S7</text>
</g>
<!-- S5 -->
<g id="node4" class="node">
<title>S5</title>
<ellipse fill="none" stroke="black" cx="260.89" cy="-18" rx="27" ry="18"/>
<text text-anchor="middle" x="260.89" y="-14.3" font-family="Times,serif" font-size="14.00">S5</text>
</g>
<!-- S7&#45;&gt;S5 -->
<g id="edge1" class="edge">
<title>S7&#45;&gt;S5</title>
<path fill="none" stroke="black" d="M325.2,-24.14C316.3,-24.74 306.07,-24.9 296.48,-24.61"/>
<polygon fill="black" stroke="black" points="296.56,-21.11 286.4,-24.12 296.22,-28.1 296.56,-21.11"/>
</g>
<!-- S5&#45;&gt;S7 -->
<g id="edge6" class="edge">
<title>S5&#45;&gt;S7</title>
<path fill="none" stroke="black" d="M286.4,-11.88C295.29,-11.27 305.51,-11.1 315.11,-11.38"/>
<polygon fill="black" stroke="black" points="315.05,-14.88 325.2,-11.86 315.38,-7.89 315.05,-14.88"/>
</g>
<!-- S5&#45;&gt;S4 -->
<g id="edge2" class="edge">
<title>S5&#45;&gt;S4</title>
<path fill="none" stroke="black" d="M235.2,-24.14C226.3,-24.74 216.07,-24.9 206.48,-24.61"/>
<polygon fill="black" stroke="black" points="206.56,-21.11 196.4,-24.12 206.22,-28.1 206.56,-21.11"/>
</g>
<!-- S4&#45;&gt;S11 -->
<g id="edge3" class="edge">
<title>S4&#45;&gt;S11</title>
<path fill="none" stroke="black" d="M145.2,-23.66C136.15,-24.34 125.47,-24.7 114.68,-24.75"/>
<polygon fill="black" stroke="black" points="114.38,-21.24 104.36,-24.69 114.34,-28.24 114.38,-21.24"/>
</g>
<!-- S4&#45;&gt;S5 -->
<g id="edge5" class="edge">
<title>S4&#45;&gt;S5</title>
<path fill="none" stroke="black" d="M196.4,-11.88C205.29,-11.27 215.51,-11.1 225.11,-11.38"/>
<polygon fill="black" stroke="black" points="225.05,-14.88 235.2,-11.86 225.38,-7.89 225.05,-14.88"/>
</g>
<!-- S6 -->
<g id="node6" class="node">
<title>S6</title>
<ellipse fill="none" stroke="black" cx="260.89" cy="-72" rx="27" ry="18"/>
<text text-anchor="middle" x="260.89" y="-68.3" font-family="Times,serif" font-size="14.00">S6</text>
</g>
<!-- S6&#45;&gt;S3 -->
<g id="edge7" class="edge">
<title>S6&#45;&gt;S3</title>
<path fill="none" stroke="black" d="M235.2,-78.14C226.3,-78.74 216.07,-78.9 206.48,-78.61"/>
<polygon fill="black" stroke="black" points="206.56,-75.11 196.4,-78.12 206.22,-82.1 206.56,-75.11"/>
</g>
<!-- S3&#45;&gt;S12 -->
<g id="edge8" class="edge">
<title>S3&#45;&gt;S12</title>
<path fill="none" stroke="black" d="M145.2,-77.66C136.15,-78.34 125.47,-78.7 114.68,-78.75"/>
<polygon fill="black" stroke="black" points="114.38,-75.24 104.36,-78.69 114.34,-82.24 114.38,-75.24"/>
</g>
<!-- S3&#45;&gt;S6 -->
<g id="edge10" class="edge">
<title>S3&#45;&gt;S6</title>
<path fill="none" stroke="black" d="M196.4,-65.88C205.29,-65.27 215.51,-65.1 225.11,-65.38"/>
<polygon fill="black" stroke="black" points="225.05,-68.88 235.2,-65.86 225.38,-61.89 225.05,-68.88"/>
</g>
</g>
</svg>
</svg>

<style type='text/css'>
<![CDATA[
[data-mouse-over-selected='false'] { opacity: 0.7; }
[data-mouse-over-selected='true']  { opacity: 1.0; }
]]>
</style>
<script type="application/ecmascript"><![CDATA[
document.addEventListener('DOMContentLoaded', (event) => {
  highlightEdges();
  highlightAdjacentNodes();
});
]]></script>
</svg>
