<?xml version="1.0" encoding="UTF-8" standalone="no"?>
<!DOCTYPE svg PUBLIC "-//W3C//DTD SVG 1.1//EN"
 "http://www.w3.org/Graphics/SVG/1.1/DTD/svg11.dtd">
<!-- Generated by graphviz version 2.43.0 (0)
 -->
<!-- Title: %3 Pages: 1 -->
<svg width="422pt" height="98pt"
 viewBox="0.00 0.00 422.00 98.00" xmlns="http://www.w3.org/2000/svg" xmlns:xlink="http://www.w3.org/1999/xlink">
<g id="graph0" class="graph" transform="scale(1 1) rotate(0) translate(4 94)">
<title>%3</title>
<polygon fill="white" stroke="transparent" points="-4,4 -4,-94 418,-94 418,4 -4,4"/>
<!-- S2 -->
<g id="node1" class="node">
<title>S2</title>
<ellipse fill="none" stroke="black" cx="297" cy="-18" rx="27" ry="18"/>
<text text-anchor="middle" x="297" y="-14.3" font-family="Times,serif" font-size="14.00">S2</text>
</g>
<!-- S1 -->
<g id="node2" class="node">
<title>S1</title>
<ellipse fill="none" stroke="black" cx="387" cy="-45" rx="27" ry="18"/>
<text text-anchor="middle" x="387" y="-41.3" font-family="Times,serif" font-size="14.00">S1</text>
</g>
<!-- S2&#45;&gt;S1 -->
<g id="edge1" class="edge">
<title>S2&#45;&gt;S1</title>
<path fill="none" stroke="black" d="M322.05,-25.38C331.44,-28.26 342.36,-31.61 352.5,-34.72"/>
<polygon fill="black" stroke="black" points="351.7,-38.14 362.29,-37.72 353.75,-31.45 351.7,-38.14"/>
</g>
<!-- S3 -->
<g id="node3" class="node">
<title>S3</title>
<ellipse fill="none" stroke="black" cx="297" cy="-72" rx="27" ry="18"/>
<text text-anchor="middle" x="297" y="-68.3" font-family="Times,serif" font-size="14.00">S3</text>
</g>
<!-- S3&#45;&gt;S1 -->
<g id="edge2" class="edge">
<title>S3&#45;&gt;S1</title>
<path fill="none" stroke="black" d="M322.05,-64.62C331.44,-61.74 342.36,-58.39 352.5,-55.28"/>
<polygon fill="black" stroke="black" points="353.75,-58.55 362.29,-52.28 351.7,-51.86 353.75,-58.55"/>
</g>
<!-- S7 -->
<g id="node4" class="node">
<title>S7</title>
<ellipse fill="none" stroke="black" cx="27" cy="-18" rx="27" ry="18"/>
<text text-anchor="middle" x="27" y="-14.3" font-family="Times,serif" font-size="14.00">S7</text>
</g>
<!-- S5 -->
<g id="node5" class="node">
<title>S5</title>
<ellipse fill="none" stroke="black" cx="117" cy="-18" rx="27" ry="18"/>
<text text-anchor="middle" x="117" y="-14.3" font-family="Times,serif" font-size="14.00">S5</text>
</g>
<!-- S7&#45;&gt;S5 -->
<g id="edge3" class="edge">
<title>S7&#45;&gt;S5</title>
<path fill="none" stroke="black" d="M54.4,-18C62.39,-18 71.31,-18 79.82,-18"/>
<polygon fill="black" stroke="black" points="79.92,-21.5 89.92,-18 79.92,-14.5 79.92,-21.5"/>
</g>
<!-- S4 -->
<g id="node6" class="node">
<title>S4</title>
<ellipse fill="none" stroke="black" cx="207" cy="-18" rx="27" ry="18"/>
<text text-anchor="middle" x="207" y="-14.3" font-family="Times,serif" font-size="14.00">S4</text>
</g>
<!-- S5&#45;&gt;S4 -->
<g id="edge4" class="edge">
<title>S5&#45;&gt;S4</title>
<path fill="none" stroke="black" d="M144.4,-18C152.39,-18 161.31,-18 169.82,-18"/>
<polygon fill="black" stroke="black" points="169.92,-21.5 179.92,-18 169.92,-14.5 169.92,-21.5"/>
</g>
<!-- S4&#45;&gt;S2 -->
<g id="edge5" class="edge">
<title>S4&#45;&gt;S2</title>
<path fill="none" stroke="black" d="M234.4,-18C242.39,-18 251.31,-18 259.82,-18"/>
<polygon fill="black" stroke="black" points="259.92,-21.5 269.92,-18 259.92,-14.5 259.92,-21.5"/>
</g>
<!-- S6 -->
<g id="node7" class="node">
<title>S6</title>
<ellipse fill="none" stroke="black" cx="207" cy="-72" rx="27" ry="18"/>
<text text-anchor="middle" x="207" y="-68.3" font-family="Times,serif" font-size="14.00">S6</text>
</g>
<!-- S6&#45;&gt;S3 -->
<g id="edge6" class="edge">
<title>S6&#45;&gt;S3</title>
<path fill="none" stroke="black" d="M234.4,-72C242.39,-72 251.31,-72 259.82,-72"/>
<polygon fill="black" stroke="black" points="259.92,-75.5 269.92,-72 259.92,-68.5 259.92,-75.5"/>
</g>
</g>
</svg>
