<?xml version="1.0" encoding="UTF-8" standalone="no"?>
<!DOCTYPE svg PUBLIC "-//W3C//DTD SVG 1.1//EN"
 "http://www.w3.org/Graphics/SVG/1.1/DTD/svg11.dtd">
<!-- Generated by graphviz version 2.43.0 (0)
 -->
<!-- Title: Graphical Class Hierarchy Pages: 1 -->
<svg width="389pt" height="134pt"
 viewBox="0.00 0.00 389.00 134.00" xmlns="http://www.w3.org/2000/svg" xmlns:xlink="http://www.w3.org/1999/xlink">
<g id="graph0" class="graph" transform="scale(1 1) rotate(0) translate(4 130)">
<title>Graphical Class Hierarchy</title>
<!-- Node0 -->
<g id="Node000000" class="node">
<title>Node0</title>
<g id="a_Node000000"><a xlink:title=" ">
<polygon fill="#e0e0e0" stroke="#999999" points="151.5,-78 18.5,-78 18.5,-48 151.5,-48 151.5,-78"/>
<text text-anchor="start" x="26.5" y="-66" font-family="Helvetica,sans-Serif" font-size="10.00">Acts::detail_vmt::Vector</text>
<text text-anchor="middle" x="85" y="-55" font-family="Helvetica,sans-Serif" font-size="10.00">MultiTrajectoryBase</text>
</a>
</g>
</g>
<!-- Node1 -->
<g id="Node000001" class="node">
<title>Node1</title>
<g id="a_Node000001"><a xlink:href="class_acts_1_1_const_vector_multi_trajectory.html" target="_top" xlink:title="Const version of VectorMultiTrajectory.">
<polygon fill="white" stroke="#666666" points="381,-93.5 206,-93.5 206,-74.5 381,-74.5 381,-93.5"/>
<text text-anchor="middle" x="293.5" y="-81.5" font-family="Helvetica,sans-Serif" font-size="10.00">Acts::ConstVectorMultiTrajectory</text>
</a>
</g>
</g>
<!-- Node0&#45;&gt;Node1 -->
<g id="edge33_Node000000_Node000001" class="edge">
<title>Node0&#45;&gt;Node1</title>
<g id="a_edge33_Node000000_Node000001"><a xlink:title=" ">
<path fill="none" stroke="#63b8ff" d="M161.89,-70.72C176.21,-72.17 191.27,-73.71 205.89,-75.19"/>
<polygon fill="#63b8ff" stroke="#63b8ff" points="161.92,-67.2 151.62,-69.67 161.22,-74.17 161.92,-67.2"/>
</a>
</g>
</g>
<!-- Node3 -->
<g id="Node000003" class="node">
<title>Node3</title>
<g id="a_Node000003"><a xlink:href="class_acts_1_1_vector_multi_trajectory.html" target="_top" xlink:title="In&#45;memory transient multi&#45;trajectory implementation using std::vector as backend.">
<polygon fill="white" stroke="#666666" points="367,-51.5 220,-51.5 220,-32.5 367,-32.5 367,-51.5"/>
<text text-anchor="middle" x="293.5" y="-39.5" font-family="Helvetica,sans-Serif" font-size="10.00">Acts::VectorMultiTrajectory</text>
</a>
</g>
</g>
<!-- Node0&#45;&gt;Node3 -->
<g id="edge34_Node000000_Node000003" class="edge">
<title>Node0&#45;&gt;Node3</title>
<g id="a_edge34_Node000000_Node000003"><a xlink:title=" ">
<path fill="none" stroke="#63b8ff" d="M161.72,-55.3C180.71,-53.37 201.04,-51.3 219.88,-49.38"/>
<polygon fill="#63b8ff" stroke="#63b8ff" points="161.22,-51.83 151.62,-56.33 161.92,-58.8 161.22,-51.83"/>
</a>
</g>
</g>
<!-- Node2 -->
<g id="Node000002" class="node">
<title>Node2</title>
<g id="a_Node000002"><a xlink:href="class_acts_1_1_multi_trajectory.html" target="_top" xlink:title=" ">
<polygon fill="white" stroke="#666666" points="170,-126 0,-126 0,-96 170,-96 170,-126"/>
<text text-anchor="start" x="8" y="-114" font-family="Helvetica,sans-Serif" font-size="10.00">Acts::MultiTrajectory</text>
<text text-anchor="middle" x="85" y="-103" font-family="Helvetica,sans-Serif" font-size="10.00">&lt; ConstVectorMultiTrajectory &gt;</text>
</a>
</g>
</g>
<!-- Node2&#45;&gt;Node1 -->
<g id="edge35_Node000002_Node000001" class="edge">
<title>Node2&#45;&gt;Node1</title>
<g id="a_edge35_Node000002_Node000001"><a xlink:title=" ">
<path fill="none" stroke="#63b8ff" d="M180.35,-98.66C193.57,-96.94 206.98,-95.18 219.72,-93.52"/>
<polygon fill="#63b8ff" stroke="#63b8ff" points="179.75,-95.21 170.29,-99.98 180.66,-102.15 179.75,-95.21"/>
</a>
</g>
</g>
<!-- Node4 -->
<g id="Node000004" class="node">
<title>Node4</title>
<g id="a_Node000004"><a xlink:href="class_acts_1_1_multi_trajectory.html" target="_top" xlink:title=" ">
<polygon fill="white" stroke="#666666" points="156.5,-30 13.5,-30 13.5,0 156.5,0 156.5,-30"/>
<text text-anchor="start" x="21.5" y="-18" font-family="Helvetica,sans-Serif" font-size="10.00">Acts::MultiTrajectory</text>
<text text-anchor="middle" x="85" y="-7" font-family="Helvetica,sans-Serif" font-size="10.00">&lt; VectorMultiTrajectory &gt;</text>
</a>
</g>
</g>
<!-- Node4&#45;&gt;Node3 -->
<g id="edge36_Node000004_Node000003" class="edge">
<title>Node4&#45;&gt;Node3</title>
<g id="a_edge36_Node000004_Node000003"><a xlink:title=" ">
<path fill="none" stroke="#63b8ff" d="M166.91,-25.58C184.32,-27.86 202.63,-30.25 219.71,-32.48"/>
<polygon fill="#63b8ff" stroke="#63b8ff" points="167.15,-22.08 156.78,-24.25 166.24,-29.02 167.15,-22.08"/>
</a>
</g>
</g>
</g>
</svg>
