<?xml version="1.0" encoding="UTF-8" standalone="no"?>
<!DOCTYPE svg PUBLIC "-//W3C//DTD SVG 1.1//EN"
 "http://www.w3.org/Graphics/SVG/1.1/DTD/svg11.dtd">
<!-- Generated by graphviz version 2.43.0 (0)
 -->
<!-- Title: Graphical Class Hierarchy Pages: 1 -->
<svg width="399pt" height="76pt"
 viewBox="0.00 0.00 399.00 75.50" xmlns="http://www.w3.org/2000/svg" xmlns:xlink="http://www.w3.org/1999/xlink">
<g id="graph0" class="graph" transform="scale(1 1) rotate(0) translate(4 71.5)">
<title>Graphical Class Hierarchy</title>
<!-- Node0 -->
<g id="Node000000" class="node">
<title>Node0</title>
<g id="a_Node000000"><a xlink:href="class_acts_plugins_1_1_graph_construction_base.html" target="_top" xlink:title=" ">
<polygon fill="white" stroke="#666666" points="194,-45.5 0,-45.5 0,-26.5 194,-26.5 194,-45.5"/>
<text text-anchor="middle" x="97" y="-33.5" font-family="Helvetica,sans-Serif" font-size="10.00">ActsPlugins::GraphConstructionBase</text>
</a>
</g>
</g>
<!-- Node1 -->
<g id="Node000001" class="node">
<title>Node1</title>
<g id="a_Node000001"><a xlink:href="class_acts_plugins_1_1_module_map_cuda.html" target="_top" xlink:title=" ">
<polygon fill="white" stroke="#666666" points="391,-67.5 230,-67.5 230,-48.5 391,-48.5 391,-67.5"/>
<text text-anchor="middle" x="310.5" y="-55.5" font-family="Helvetica,sans-Serif" font-size="10.00">ActsPlugins::ModuleMapCuda</text>
</a>
</g>
</g>
<!-- Node0&#45;&gt;Node1 -->
<g id="edge250_Node000000_Node000001" class="edge">
<title>Node0&#45;&gt;Node1</title>
<g id="a_edge250_Node000000_Node000001"><a xlink:title=" ">
<path fill="none" stroke="#63b8ff" d="M199.63,-46.57C209.75,-47.62 219.92,-48.68 229.78,-49.71"/>
<polygon fill="#63b8ff" stroke="#63b8ff" points="199.85,-43.08 189.54,-45.52 199.12,-50.04 199.85,-43.08"/>
</a>
</g>
</g>
<!-- Node2 -->
<g id="Node000002" class="node">
<title>Node2</title>
<g id="a_Node000002"><a xlink:href="class_acts_plugins_1_1_torch_metric_learning.html" target="_top" xlink:title=" ">
<polygon fill="white" stroke="#666666" points="378,-30 243,-30 243,0 378,0 378,-30"/>
<text text-anchor="start" x="251" y="-18" font-family="Helvetica,sans-Serif" font-size="10.00">ActsPlugins::TorchMetric</text>
<text text-anchor="middle" x="310.5" y="-7" font-family="Helvetica,sans-Serif" font-size="10.00">Learning</text>
</a>
</g>
</g>
<!-- Node0&#45;&gt;Node2 -->
<g id="edge251_Node000000_Node000002" class="edge">
<title>Node0&#45;&gt;Node2</title>
<g id="a_edge251_Node000000_Node000002"><a xlink:title=" ">
<path fill="none" stroke="#63b8ff" d="M203.93,-25.48C217.14,-24.17 230.33,-22.86 242.71,-21.63"/>
<polygon fill="#63b8ff" stroke="#63b8ff" points="203.45,-22.01 193.85,-26.48 204.15,-28.98 203.45,-22.01"/>
</a>
</g>
</g>
</g>
</svg>
