<?xml version="1.0" encoding="UTF-8" standalone="no"?>
<!DOCTYPE svg PUBLIC "-//W3C//DTD SVG 1.1//EN"
 "http://www.w3.org/Graphics/SVG/1.1/DTD/svg11.dtd">
<!-- Generated by graphviz version 2.43.0 (0)
 -->
<!-- Title: Graphical Class Hierarchy Pages: 1 -->
<svg width="357pt" height="64pt"
 viewBox="0.00 0.00 357.00 64.00" xmlns="http://www.w3.org/2000/svg" xmlns:xlink="http://www.w3.org/1999/xlink">
<g id="graph0" class="graph" transform="scale(1 1) rotate(0) translate(4 60)">
<title>Graphical Class Hierarchy</title>
<!-- Node0 -->
<g id="Node000000" class="node">
<title>Node0</title>
<g id="a_Node000000"><a xlink:href="class_acts_1_1_i_tracking_volume_builder.html" target="_top" xlink:title="Interface class ITrackingVolumeBuilders.">
<polygon fill="white" stroke="#666666" points="158,-37 0,-37 0,-18 158,-18 158,-37"/>
<text text-anchor="middle" x="79" y="-25" font-family="Helvetica,sans-Serif" font-size="10.00">Acts::ITrackingVolumeBuilder</text>
</a>
</g>
</g>
<!-- Node1 -->
<g id="Node000001" class="node">
<title>Node1</title>
<g id="a_Node000001"><a xlink:href="class_acts_1_1_cuboid_volume_builder.html" target="_top" xlink:title="This class builds a box detector with a configurable amount of surfaces in it.">
<polygon fill="white" stroke="#666666" points="346,-56 197,-56 197,-37 346,-37 346,-56"/>
<text text-anchor="middle" x="271.5" y="-44" font-family="Helvetica,sans-Serif" font-size="10.00">Acts::CuboidVolumeBuilder</text>
</a>
</g>
</g>
<!-- Node0&#45;&gt;Node1 -->
<g id="edge152_Node000000_Node000001" class="edge">
<title>Node0&#45;&gt;Node1</title>
<g id="a_edge152_Node000000_Node000001"><a xlink:title=" ">
<path fill="none" stroke="#63b8ff" d="M168.04,-36.28C177.69,-37.24 187.44,-38.22 196.88,-39.16"/>
<polygon fill="#63b8ff" stroke="#63b8ff" points="168.33,-32.79 158.03,-35.28 167.64,-39.76 168.33,-32.79"/>
</a>
</g>
</g>
<!-- Node2 -->
<g id="Node000002" class="node">
<title>Node2</title>
<g id="a_Node000002"><a xlink:href="class_acts_1_1_cylinder_volume_builder.html" target="_top" xlink:title="A volume builder to be used for building concentric cylinder volumes.">
<polygon fill="white" stroke="#666666" points="349,-19 194,-19 194,0 349,0 349,-19"/>
<text text-anchor="middle" x="271.5" y="-7" font-family="Helvetica,sans-Serif" font-size="10.00">Acts::CylinderVolumeBuilder</text>
</a>
</g>
</g>
<!-- Node0&#45;&gt;Node2 -->
<g id="edge153_Node000000_Node000002" class="edge">
<title>Node0&#45;&gt;Node2</title>
<g id="a_edge153_Node000000_Node000002"><a xlink:title=" ">
<path fill="none" stroke="#63b8ff" d="M168.07,-19.18C176.67,-18.37 185.35,-17.55 193.82,-16.75"/>
<polygon fill="#63b8ff" stroke="#63b8ff" points="167.66,-15.7 158.03,-20.13 168.32,-22.67 167.66,-15.7"/>
</a>
</g>
</g>
</g>
</svg>
