<?xml version="1.0" encoding="UTF-8" standalone="no"?>
<!DOCTYPE svg PUBLIC "-//W3C//DTD SVG 1.1//EN"
 "http://www.w3.org/Graphics/SVG/1.1/DTD/svg11.dtd">
<!-- Generated by graphviz version 2.43.0 (0)
 -->
<!-- Title: Graphical Class Hierarchy Pages: 1 -->
<svg width="357pt" height="134pt"
 viewBox="0.00 0.00 357.00 134.00" xmlns="http://www.w3.org/2000/svg" xmlns:xlink="http://www.w3.org/1999/xlink">
<g id="graph0" class="graph" transform="scale(1 1) rotate(0) translate(4 130)">
<title>Graphical Class Hierarchy</title>
<!-- Node0 -->
<g id="Node000000" class="node">
<title>Node0</title>
<g id="a_Node000000"><a xlink:href="class_acts_1_1_grid_access_1_1_i_bound_to_grid_local.html" target="_top" xlink:title="Interface class for owning delegate.">
<polygon fill="white" stroke="#666666" points="137,-78 0,-78 0,-48 137,-48 137,-78"/>
<text text-anchor="start" x="8" y="-66" font-family="Helvetica,sans-Serif" font-size="10.00">Acts::GridAccess::IBound</text>
<text text-anchor="middle" x="68.5" y="-55" font-family="Helvetica,sans-Serif" font-size="10.00">ToGridLocal</text>
</a>
</g>
</g>
<!-- Node1 -->
<g id="Node000001" class="node">
<title>Node1</title>
<g id="a_Node000001"><a xlink:href="class_acts_1_1_grid_access_1_1_local_subspace.html" target="_top" xlink:title=" ">
<polygon fill="white" stroke="#666666" points="349,-126 173,-126 173,-96 349,-96 349,-126"/>
<text text-anchor="start" x="181" y="-114" font-family="Helvetica,sans-Serif" font-size="10.00">Acts::GridAccess::LocalSubspace</text>
<text text-anchor="middle" x="261" y="-103" font-family="Helvetica,sans-Serif" font-size="10.00">&lt; 0u, 1u &gt;</text>
</a>
</g>
</g>
<!-- Node0&#45;&gt;Node1 -->
<g id="edge86_Node000000_Node000001" class="edge">
<title>Node0&#45;&gt;Node1</title>
<g id="a_edge86_Node000000_Node000001"><a xlink:title=" ">
<path fill="none" stroke="#63b8ff" d="M139,-80.51C159.15,-85.59 180.97,-91.09 200.46,-96"/>
<polygon fill="#63b8ff" stroke="#63b8ff" points="139.8,-77.11 129.25,-78.06 138.09,-83.89 139.8,-77.11"/>
</a>
</g>
</g>
<!-- Node2 -->
<g id="Node000002" class="node">
<title>Node2</title>
<g id="a_Node000002"><a xlink:href="class_acts_1_1_grid_access_1_1_bound_cylinder_to_z_phi.html" target="_top" xlink:title=" ">
<polygon fill="white" stroke="#666666" points="348.5,-78 173.5,-78 173.5,-48 348.5,-48 348.5,-78"/>
<text text-anchor="start" x="181.5" y="-66" font-family="Helvetica,sans-Serif" font-size="10.00">Acts::GridAccess::BoundCylinder</text>
<text text-anchor="middle" x="261" y="-55" font-family="Helvetica,sans-Serif" font-size="10.00">ToZPhi</text>
</a>
</g>
</g>
<!-- Node0&#45;&gt;Node2 -->
<g id="edge87_Node000000_Node000002" class="edge">
<title>Node0&#45;&gt;Node2</title>
<g id="a_edge87_Node000000_Node000002"><a xlink:title=" ">
<path fill="none" stroke="#63b8ff" d="M147.44,-63C155.93,-63 164.61,-63 173.19,-63"/>
<polygon fill="#63b8ff" stroke="#63b8ff" points="147.2,-59.5 137.2,-63 147.2,-66.5 147.2,-59.5"/>
</a>
</g>
</g>
<!-- Node3 -->
<g id="Node000003" class="node">
<title>Node3</title>
<g id="a_Node000003"><a xlink:href="class_acts_1_1_grid_access_1_1_local_subspace.html" target="_top" xlink:title=" ">
<polygon fill="white" stroke="#666666" points="349,-30 173,-30 173,0 349,0 349,-30"/>
<text text-anchor="start" x="181" y="-18" font-family="Helvetica,sans-Serif" font-size="10.00">Acts::GridAccess::LocalSubspace</text>
<text text-anchor="middle" x="261" y="-7" font-family="Helvetica,sans-Serif" font-size="10.00">&lt; Args &gt;</text>
</a>
</g>
</g>
<!-- Node0&#45;&gt;Node3 -->
<g id="edge88_Node000000_Node000003" class="edge">
<title>Node0&#45;&gt;Node3</title>
<g id="a_edge88_Node000000_Node000003"><a xlink:title=" ">
<path fill="none" stroke="#63b8ff" d="M139,-45.49C159.15,-40.41 180.97,-34.91 200.46,-30"/>
<polygon fill="#63b8ff" stroke="#63b8ff" points="138.09,-42.11 129.25,-47.94 139.8,-48.89 138.09,-42.11"/>
</a>
</g>
</g>
</g>
</svg>
