<?xml version="1.0" encoding="UTF-8" standalone="no"?>
<!DOCTYPE svg PUBLIC "-//W3C//DTD SVG 1.1//EN"
 "http://www.w3.org/Graphics/SVG/1.1/DTD/svg11.dtd">
<!-- Generated by graphviz version 2.43.0 (0)
 -->
<!-- Title: Graphical Class Hierarchy Pages: 1 -->
<svg width="393pt" height="145pt"
 viewBox="0.00 0.00 393.00 145.00" xmlns="http://www.w3.org/2000/svg" xmlns:xlink="http://www.w3.org/1999/xlink">
<g id="graph0" class="graph" transform="scale(1 1) rotate(0) translate(4 141)">
<title>Graphical Class Hierarchy</title>
<!-- Node0 -->
<g id="Node000000" class="node">
<title>Node0</title>
<g id="a_Node000000"><a xlink:title=" ">
<polygon fill="#e0e0e0" stroke="#999999" points="152,-72.5 0,-72.5 0,-42.5 152,-42.5 152,-72.5"/>
<text text-anchor="start" x="8" y="-60.5" font-family="Helvetica,sans-Serif" font-size="10.00">Acts::detail::PurePropagator</text>
<text text-anchor="middle" x="76" y="-49.5" font-family="Helvetica,sans-Serif" font-size="10.00">PlainOptions</text>
</a>
</g>
</g>
<!-- Node1 -->
<g id="Node000001" class="node">
<title>Node1</title>
<g id="a_Node000001"><a xlink:href="struct_acts_1_1_propagator_options.html" target="_top" xlink:title=" ">
<polygon fill="white" stroke="#666666" points="385,-137 188,-137 188,-96 385,-96 385,-137"/>
<text text-anchor="start" x="196" y="-125" font-family="Helvetica,sans-Serif" font-size="10.00">Acts::PropagatorOptions</text>
<text text-anchor="start" x="196" y="-114" font-family="Helvetica,sans-Serif" font-size="10.00">&lt; StepperOptions, NavigatorOptions,</text>
<text text-anchor="middle" x="286.5" y="-103" font-family="Helvetica,sans-Serif" font-size="10.00"> actor_list_t &gt;</text>
</a>
</g>
</g>
<!-- Node0&#45;&gt;Node1 -->
<g id="edge28_Node000000_Node000001" class="edge">
<title>Node0&#45;&gt;Node1</title>
<g id="a_edge28_Node000000_Node000001"><a xlink:title=" ">
<path fill="none" stroke="#63b8ff" d="M139.79,-75.27C162.78,-81.77 188.99,-89.19 212.78,-95.92"/>
<polygon fill="#63b8ff" stroke="#63b8ff" points="140.73,-71.9 130.15,-72.54 138.82,-78.63 140.73,-71.9"/>
</a>
</g>
</g>
<!-- Node2 -->
<g id="Node000002" class="node">
<title>Node2</title>
<g id="a_Node000002"><a xlink:href="struct_acts_1_1_propagator_options.html" target="_top" xlink:title="Options for propagate() call.">
<polygon fill="white" stroke="#666666" points="370,-78 203,-78 203,-37 370,-37 370,-78"/>
<text text-anchor="start" x="211" y="-66" font-family="Helvetica,sans-Serif" font-size="10.00">Acts::PropagatorOptions</text>
<text text-anchor="start" x="211" y="-55" font-family="Helvetica,sans-Serif" font-size="10.00">&lt; stepper_options_t, navigator</text>
<text text-anchor="middle" x="286.5" y="-44" font-family="Helvetica,sans-Serif" font-size="10.00">_options_t, actor_list_t &gt;</text>
</a>
</g>
</g>
<!-- Node0&#45;&gt;Node2 -->
<g id="edge29_Node000000_Node000002" class="edge">
<title>Node0&#45;&gt;Node2</title>
<g id="a_edge29_Node000000_Node000002"><a xlink:title=" ">
<path fill="none" stroke="#63b8ff" d="M162.41,-57.5C175.79,-57.5 189.61,-57.5 202.93,-57.5"/>
<polygon fill="#63b8ff" stroke="#63b8ff" points="162.27,-54 152.27,-57.5 162.27,-61 162.27,-54"/>
</a>
</g>
</g>
<!-- Node3 -->
<g id="Node000003" class="node">
<title>Node3</title>
<g id="a_Node000003"><a xlink:href="struct_acts_1_1_propagator_plain_options.html" target="_top" xlink:title="Holds the generic propagator options.">
<polygon fill="white" stroke="#666666" points="365.5,-19 207.5,-19 207.5,0 365.5,0 365.5,-19"/>
<text text-anchor="middle" x="286.5" y="-7" font-family="Helvetica,sans-Serif" font-size="10.00">Acts::PropagatorPlainOptions</text>
</a>
</g>
</g>
<!-- Node0&#45;&gt;Node3 -->
<g id="edge30_Node000000_Node000003" class="edge">
<title>Node0&#45;&gt;Node3</title>
<g id="a_edge30_Node000000_Node000003"><a xlink:title=" ">
<path fill="none" stroke="#63b8ff" d="M141.68,-39.87C156.83,-35.94 172.95,-31.93 188,-28.5 202.71,-25.15 218.76,-21.87 233.51,-19"/>
<polygon fill="#63b8ff" stroke="#63b8ff" points="140.67,-36.51 131.88,-42.43 142.44,-43.29 140.67,-36.51"/>
</a>
</g>
</g>
</g>
</svg>
