<?xml version="1.0" encoding="UTF-8" standalone="no"?>
<!DOCTYPE svg PUBLIC "-//W3C//DTD SVG 1.1//EN"
 "http://www.w3.org/Graphics/SVG/1.1/DTD/svg11.dtd">
<!-- Generated by graphviz version 2.43.0 (0)
 -->
<!-- Title: Graphical Class Hierarchy Pages: 1 -->
<svg width="301pt" height="86pt"
 viewBox="0.00 0.00 301.00 86.00" xmlns="http://www.w3.org/2000/svg" xmlns:xlink="http://www.w3.org/1999/xlink">
<g id="graph0" class="graph" transform="scale(1 1) rotate(0) translate(4 82)">
<title>Graphical Class Hierarchy</title>
<!-- Node0 -->
<g id="Node000000" class="node">
<title>Node0</title>
<g id="a_Node000000"><a xlink:href="class_acts_1_1_track_proxy_common.html" target="_top" xlink:title=" ">
<polygon fill="white" stroke="#666666" points="141,-65 0,-65 0,-13 141,-13 141,-65"/>
<text text-anchor="start" x="8" y="-53" font-family="Helvetica,sans-Serif" font-size="10.00">Acts::TrackProxyCommon</text>
<text text-anchor="start" x="8" y="-42" font-family="Helvetica,sans-Serif" font-size="10.00">&lt; AnyTrackProxy&lt; read</text>
<text text-anchor="start" x="8" y="-31" font-family="Helvetica,sans-Serif" font-size="10.00">_only &gt;, TrackIndexType,</text>
<text text-anchor="middle" x="70.5" y="-20" font-family="Helvetica,sans-Serif" font-size="10.00"> read_only &gt;</text>
</a>
</g>
</g>
<!-- Node1 -->
<g id="Node000001" class="node">
<title>Node1</title>
<g id="a_Node000001"><a xlink:href="class_acts_1_1_any_track_proxy.html" target="_top" xlink:title=" ">
<polygon fill="white" stroke="#666666" points="293,-78 177,-78 177,-48 293,-48 293,-78"/>
<text text-anchor="start" x="185" y="-66" font-family="Helvetica,sans-Serif" font-size="10.00">Acts::AnyTrackProxy</text>
<text text-anchor="middle" x="235" y="-55" font-family="Helvetica,sans-Serif" font-size="10.00">&lt; false &gt;</text>
</a>
</g>
</g>
<!-- Node0&#45;&gt;Node1 -->
<g id="edge228_Node000000_Node000001" class="edge">
<title>Node0&#45;&gt;Node1</title>
<g id="a_edge228_Node000000_Node000001"><a xlink:title=" ">
<path fill="none" stroke="#63b8ff" d="M151.43,-50.8C160.04,-52.08 168.66,-53.35 176.92,-54.57"/>
<polygon fill="#63b8ff" stroke="#63b8ff" points="151.76,-47.32 141.36,-49.32 150.74,-54.24 151.76,-47.32"/>
</a>
</g>
</g>
<!-- Node2 -->
<g id="Node000002" class="node">
<title>Node2</title>
<g id="a_Node000002"><a xlink:href="class_acts_1_1_any_track_proxy.html" target="_top" xlink:title=" ">
<polygon fill="white" stroke="#666666" points="293,-30 177,-30 177,0 293,0 293,-30"/>
<text text-anchor="start" x="185" y="-18" font-family="Helvetica,sans-Serif" font-size="10.00">Acts::AnyTrackProxy</text>
<text text-anchor="middle" x="235" y="-7" font-family="Helvetica,sans-Serif" font-size="10.00">&lt; true &gt;</text>
</a>
</g>
</g>
<!-- Node0&#45;&gt;Node2 -->
<g id="edge229_Node000000_Node000002" class="edge">
<title>Node0&#45;&gt;Node2</title>
<g id="a_edge229_Node000000_Node000002"><a xlink:title=" ">
<path fill="none" stroke="#63b8ff" d="M151.43,-27.2C160.04,-25.92 168.66,-24.65 176.92,-23.43"/>
<polygon fill="#63b8ff" stroke="#63b8ff" points="150.74,-23.76 141.36,-28.68 151.76,-30.68 150.74,-23.76"/>
</a>
</g>
</g>
</g>
</svg>
