<?xml version="1.0" encoding="UTF-8" standalone="no"?>
<!DOCTYPE svg PUBLIC "-//W3C//DTD SVG 1.1//EN"
 "http://www.w3.org/Graphics/SVG/1.1/DTD/svg11.dtd">
<!-- Generated by graphviz version 2.43.0 (0)
 -->
<!-- Title: Graphical Class Hierarchy Pages: 1 -->
<svg width="350pt" height="64pt"
 viewBox="0.00 0.00 350.00 64.00" xmlns="http://www.w3.org/2000/svg" xmlns:xlink="http://www.w3.org/1999/xlink">
<g id="graph0" class="graph" transform="scale(1 1) rotate(0) translate(4 60)">
<title>Graphical Class Hierarchy</title>
<!-- Node0 -->
<g id="Node000000" class="node">
<title>Node0</title>
<g id="a_Node000000"><a xlink:href="class_acts_1_1_try_all_navigator_base.html" target="_top" xlink:title="Captures the common functionality of the try&#45;all navigators.">
<polygon fill="white" stroke="#666666" points="143,-37 0,-37 0,-18 143,-18 143,-37"/>
<text text-anchor="middle" x="71.5" y="-25" font-family="Helvetica,sans-Serif" font-size="10.00">Acts::TryAllNavigatorBase</text>
</a>
</g>
</g>
<!-- Node1 -->
<g id="Node000001" class="node">
<title>Node1</title>
<g id="a_Node000001"><a xlink:href="class_acts_1_1_try_all_navigator.html" target="_top" xlink:title="Alternative Navigator which tries all possible intersections.">
<polygon fill="white" stroke="#666666" points="320,-56 201,-56 201,-37 320,-37 320,-56"/>
<text text-anchor="middle" x="260.5" y="-44" font-family="Helvetica,sans-Serif" font-size="10.00">Acts::TryAllNavigator</text>
</a>
</g>
</g>
<!-- Node0&#45;&gt;Node1 -->
<g id="edge249_Node000000_Node000001" class="edge">
<title>Node0&#45;&gt;Node1</title>
<g id="a_edge249_Node000000_Node000001"><a xlink:title=" ">
<path fill="none" stroke="#63b8ff" d="M153.57,-35.74C169.48,-37.35 185.89,-39.02 200.89,-40.55"/>
<polygon fill="#63b8ff" stroke="#63b8ff" points="153.5,-32.21 143.2,-34.68 152.79,-39.18 153.5,-32.21"/>
</a>
</g>
</g>
<!-- Node2 -->
<g id="Node000002" class="node">
<title>Node2</title>
<g id="a_Node000002"><a xlink:href="class_acts_1_1_try_all_overstep_navigator.html" target="_top" xlink:title="Alternative Navigator which tries all possible intersections.">
<polygon fill="white" stroke="#666666" points="342,-19 179,-19 179,0 342,0 342,-19"/>
<text text-anchor="middle" x="260.5" y="-7" font-family="Helvetica,sans-Serif" font-size="10.00">Acts::TryAllOverstepNavigator</text>
</a>
</g>
</g>
<!-- Node0&#45;&gt;Node2 -->
<g id="edge250_Node000000_Node000002" class="edge">
<title>Node0&#45;&gt;Node2</title>
<g id="a_edge250_Node000000_Node000002"><a xlink:title=" ">
<path fill="none" stroke="#63b8ff" d="M153.16,-19.74C161.72,-18.91 170.43,-18.07 178.98,-17.25"/>
<polygon fill="#63b8ff" stroke="#63b8ff" points="152.82,-16.25 143.2,-20.69 153.49,-23.22 152.82,-16.25"/>
</a>
</g>
</g>
</g>
</svg>
