<?xml version="1.0" encoding="UTF-8" standalone="no"?>
<!DOCTYPE svg PUBLIC "-//W3C//DTD SVG 1.1//EN"
 "http://www.w3.org/Graphics/SVG/1.1/DTD/svg11.dtd">
<!-- Generated by graphviz version 2.43.0 (0)
 -->
<!-- Title: Graphical Class Hierarchy Pages: 1 -->
<svg width="318pt" height="226pt"
 viewBox="0.00 0.00 318.00 226.00" xmlns="http://www.w3.org/2000/svg" xmlns:xlink="http://www.w3.org/1999/xlink">
<g id="graph0" class="graph" transform="scale(1 1) rotate(0) translate(4 222)">
<title>Graphical Class Hierarchy</title>
<!-- Node0 -->
<g id="Node000000" class="node">
<title>Node0</title>
<g id="a_Node000000"><a xlink:href="class_acts_1_1_track_proxy_common.html" target="_top" xlink:title="Common CRTP implementation shared by the various track proxy front&#45;ends.">
<polygon fill="white" stroke="#666666" points="141,-129 0,-129 0,-88 141,-88 141,-129"/>
<text text-anchor="start" x="8" y="-117" font-family="Helvetica,sans-Serif" font-size="10.00">Acts::TrackProxyCommon</text>
<text text-anchor="start" x="8" y="-106" font-family="Helvetica,sans-Serif" font-size="10.00">&lt; Derived, index_t, read</text>
<text text-anchor="middle" x="70.5" y="-95" font-family="Helvetica,sans-Serif" font-size="10.00">_only &gt;</text>
</a>
</g>
</g>
<!-- Node1 -->
<g id="Node000001" class="node">
<title>Node1</title>
<g id="a_Node000001"><a xlink:href="class_acts_1_1_track_proxy.html" target="_top" xlink:title=" ">
<polygon fill="white" stroke="#666666" points="310,-218 177,-218 177,-177 310,-177 310,-218"/>
<text text-anchor="start" x="185" y="-206" font-family="Helvetica,sans-Serif" font-size="10.00">Acts::TrackProxy&lt; track</text>
<text text-anchor="start" x="185" y="-195" font-family="Helvetica,sans-Serif" font-size="10.00">_container_t, traj_t,</text>
<text text-anchor="middle" x="243.5" y="-184" font-family="Helvetica,sans-Serif" font-size="10.00"> holder_t, false &gt;</text>
</a>
</g>
</g>
<!-- Node0&#45;&gt;Node1 -->
<g id="edge231_Node000000_Node000001" class="edge">
<title>Node0&#45;&gt;Node1</title>
<g id="a_edge231_Node000000_Node000001"><a xlink:title=" ">
<path fill="none" stroke="#63b8ff" d="M114.41,-134.2C133.36,-145.21 156.05,-157.94 177,-168.5 182.66,-171.36 188.67,-174.22 194.66,-176.99"/>
<polygon fill="#63b8ff" stroke="#63b8ff" points="116.11,-131.14 105.71,-129.11 112.58,-137.18 116.11,-131.14"/>
</a>
</g>
</g>
<!-- Node2 -->
<g id="Node000002" class="node">
<title>Node2</title>
<g id="a_Node000002"><a xlink:href="class_acts_1_1_track_proxy.html" target="_top" xlink:title=" ">
<polygon fill="white" stroke="#666666" points="310,-159 177,-159 177,-118 310,-118 310,-159"/>
<text text-anchor="start" x="185" y="-147" font-family="Helvetica,sans-Serif" font-size="10.00">Acts::TrackProxy&lt; track</text>
<text text-anchor="start" x="185" y="-136" font-family="Helvetica,sans-Serif" font-size="10.00">_container_t, traj_t,</text>
<text text-anchor="middle" x="243.5" y="-125" font-family="Helvetica,sans-Serif" font-size="10.00"> holder_t, true &gt;</text>
</a>
</g>
</g>
<!-- Node0&#45;&gt;Node2 -->
<g id="edge232_Node000000_Node000002" class="edge">
<title>Node0&#45;&gt;Node2</title>
<g id="a_edge232_Node000000_Node000002"><a xlink:title=" ">
<path fill="none" stroke="#63b8ff" d="M151.12,-122.47C159.74,-123.98 168.45,-125.51 176.88,-126.99"/>
<polygon fill="#63b8ff" stroke="#63b8ff" points="151.51,-118.98 141.05,-120.7 150.3,-125.88 151.51,-118.98"/>
</a>
</g>
</g>
<!-- Node3 -->
<g id="Node000003" class="node">
<title>Node3</title>
<g id="a_Node000003"><a xlink:href="class_acts_1_1_track_proxy.html" target="_top" xlink:title=" ">
<polygon fill="white" stroke="#666666" points="310,-100 177,-100 177,-59 310,-59 310,-100"/>
<text text-anchor="start" x="185" y="-88" font-family="Helvetica,sans-Serif" font-size="10.00">Acts::TrackProxy&lt; track</text>
<text text-anchor="start" x="185" y="-77" font-family="Helvetica,sans-Serif" font-size="10.00">_container_t, trajectory</text>
<text text-anchor="middle" x="243.5" y="-66" font-family="Helvetica,sans-Serif" font-size="10.00">_t, holder_t, false &gt;</text>
</a>
</g>
</g>
<!-- Node0&#45;&gt;Node3 -->
<g id="edge233_Node000000_Node000003" class="edge">
<title>Node0&#45;&gt;Node3</title>
<g id="a_edge233_Node000000_Node000003"><a xlink:title=" ">
<path fill="none" stroke="#63b8ff" d="M151.12,-95C159.74,-93.54 168.45,-92.06 176.88,-90.63"/>
<polygon fill="#63b8ff" stroke="#63b8ff" points="150.33,-91.58 141.05,-96.7 151.5,-98.48 150.33,-91.58"/>
</a>
</g>
</g>
<!-- Node4 -->
<g id="Node000004" class="node">
<title>Node4</title>
<g id="a_Node000004"><a xlink:href="class_acts_1_1_track_proxy.html" target="_top" xlink:title=" ">
<polygon fill="white" stroke="#666666" points="310,-41 177,-41 177,0 310,0 310,-41"/>
<text text-anchor="start" x="185" y="-29" font-family="Helvetica,sans-Serif" font-size="10.00">Acts::TrackProxy&lt; track</text>
<text text-anchor="start" x="185" y="-18" font-family="Helvetica,sans-Serif" font-size="10.00">_container_t, trajectory</text>
<text text-anchor="middle" x="243.5" y="-7" font-family="Helvetica,sans-Serif" font-size="10.00">_t, holder_t, true &gt;</text>
</a>
</g>
</g>
<!-- Node0&#45;&gt;Node4 -->
<g id="edge234_Node000000_Node000004" class="edge">
<title>Node0&#45;&gt;Node4</title>
<g id="a_edge234_Node000000_Node000004"><a xlink:title=" ">
<path fill="none" stroke="#63b8ff" d="M116.15,-83.01C134.79,-72.61 156.78,-60.67 177,-50.5 183.26,-47.35 189.91,-44.15 196.49,-41.06"/>
<polygon fill="#63b8ff" stroke="#63b8ff" points="114.3,-80.03 107.29,-87.98 117.72,-86.14 114.3,-80.03"/>
</a>
</g>
</g>
</g>
</svg>
