<?xml version="1.0" encoding="UTF-8" standalone="no"?>
<!DOCTYPE svg PUBLIC "-//W3C//DTD SVG 1.1//EN"
 "http://www.w3.org/Graphics/SVG/1.1/DTD/svg11.dtd">
<!-- Generated by graphviz version 2.43.0 (0)
 -->
<!-- Title: Graphical Class Hierarchy Pages: 1 -->
<svg width="282pt" height="915pt"
 viewBox="0.00 0.00 282.00 914.50" xmlns="http://www.w3.org/2000/svg" xmlns:xlink="http://www.w3.org/1999/xlink">
<g id="graph0" class="graph" transform="scale(1 1) rotate(0) translate(4 910.5)">
<title>Graphical Class Hierarchy</title>
<!-- Node0 -->
<g id="Node000000" class="node">
<title>Node0</title>
<g id="a_Node000000"><a xlink:href="class_acts_1_1_i_grid.html" target="_top" xlink:title="Base class for all grid types.">
<polygon fill="white" stroke="#666666" points="67,-482 0,-482 0,-463 67,-463 67,-482"/>
<text text-anchor="middle" x="33.5" y="-470" font-family="Helvetica,sans-Serif" font-size="10.00">Acts::IGrid</text>
</a>
</g>
</g>
<!-- Node1 -->
<g id="Node000001" class="node">
<title>Node1</title>
<g id="a_Node000001"><a xlink:href="class_acts_1_1_grid.html" target="_top" xlink:title=" ">
<polygon fill="white" stroke="#666666" points="261,-906.5 116,-906.5 116,-876.5 261,-876.5 261,-906.5"/>
<text text-anchor="start" x="124" y="-894.5" font-family="Helvetica,sans-Serif" font-size="10.00">Acts::Grid&lt; const Tracking</text>
<text text-anchor="middle" x="188.5" y="-883.5" font-family="Helvetica,sans-Serif" font-size="10.00">Volume *, Axes... &gt;</text>
</a>
</g>
</g>
<!-- Node0&#45;&gt;Node1 -->
<g id="edge96_Node000000_Node000001" class="edge">
<title>Node0&#45;&gt;Node1</title>
<g id="a_edge96_Node000000_Node000001"><a xlink:title=" ">
<path fill="none" stroke="#63b8ff" d="M35.23,-492.43C38.28,-564.61 52.28,-811.15 103,-867.5 106.67,-871.58 110.98,-874.99 115.68,-877.83"/>
<polygon fill="#63b8ff" stroke="#63b8ff" points="38.71,-491.91 34.82,-482.05 31.72,-492.19 38.71,-491.91"/>
</a>
</g>
</g>
<!-- Node2 -->
<g id="Node000002" class="node">
<title>Node2</title>
<g id="a_Node000002"><a xlink:href="class_acts_1_1_grid.html" target="_top" xlink:title=" ">
<polygon fill="white" stroke="#666666" points="274,-858.5 103,-858.5 103,-828.5 274,-828.5 274,-858.5"/>
<text text-anchor="start" x="111" y="-846.5" font-family="Helvetica,sans-Serif" font-size="10.00">Acts::Grid&lt; Acts::Accumulated</text>
<text text-anchor="middle" x="188.5" y="-835.5" font-family="Helvetica,sans-Serif" font-size="10.00">VolumeMaterial, EAxis, EAxis &gt;</text>
</a>
</g>
</g>
<!-- Node0&#45;&gt;Node2 -->
<g id="edge97_Node000000_Node000002" class="edge">
<title>Node0&#45;&gt;Node2</title>
<g id="a_edge97_Node000000_Node000002"><a xlink:title=" ">
<path fill="none" stroke="#63b8ff" d="M35.76,-492.54C40.34,-559.03 58.25,-770.93 103,-819.5 106.1,-822.86 109.63,-825.77 113.46,-828.28"/>
<polygon fill="#63b8ff" stroke="#63b8ff" points="39.23,-491.94 35.08,-482.2 32.24,-492.41 39.23,-491.94"/>
</a>
</g>
</g>
<!-- Node3 -->
<g id="Node000003" class="node">
<title>Node3</title>
<g id="a_Node000003"><a xlink:href="class_acts_1_1_grid.html" target="_top" xlink:title=" ">
<polygon fill="white" stroke="#666666" points="271.5,-810 105.5,-810 105.5,-769 271.5,-769 271.5,-810"/>
<text text-anchor="start" x="113.5" y="-798" font-family="Helvetica,sans-Serif" font-size="10.00">Acts::Grid&lt; Acts::Accumulated</text>
<text text-anchor="start" x="113.5" y="-787" font-family="Helvetica,sans-Serif" font-size="10.00">VolumeMaterial, EAxis, EAxis,</text>
<text text-anchor="middle" x="188.5" y="-776" font-family="Helvetica,sans-Serif" font-size="10.00"> EAxis &gt;</text>
</a>
</g>
</g>
<!-- Node0&#45;&gt;Node3 -->
<g id="edge98_Node000000_Node000003" class="edge">
<title>Node0&#45;&gt;Node3</title>
<g id="a_edge98_Node000000_Node000003"><a xlink:title=" ">
<path fill="none" stroke="#63b8ff" d="M36.73,-492.4C43.67,-550.83 66.58,-720.36 103,-760.5 105.81,-763.6 108.97,-766.37 112.38,-768.84"/>
<polygon fill="#63b8ff" stroke="#63b8ff" points="40.19,-491.79 35.56,-482.26 33.23,-492.6 40.19,-491.79"/>
</a>
</g>
</g>
<!-- Node4 -->
<g id="Node000004" class="node">
<title>Node4</title>
<g id="a_Node000004"><a xlink:href="class_acts_1_1_grid.html" target="_top" xlink:title=" ">
<polygon fill="white" stroke="#666666" points="261,-751 116,-751 116,-710 261,-710 261,-751"/>
<text text-anchor="start" x="124" y="-739" font-family="Helvetica,sans-Serif" font-size="10.00">Acts::Grid&lt; Acts::Material</text>
<text text-anchor="start" x="124" y="-728" font-family="Helvetica,sans-Serif" font-size="10.00">::ParametersVector, EAxis,</text>
<text text-anchor="middle" x="188.5" y="-717" font-family="Helvetica,sans-Serif" font-size="10.00"> EAxis &gt;</text>
</a>
</g>
</g>
<!-- Node0&#45;&gt;Node4 -->
<g id="edge99_Node000000_Node000004" class="edge">
<title>Node0&#45;&gt;Node4</title>
<g id="a_edge99_Node000000_Node000004"><a xlink:title=" ">
<path fill="none" stroke="#63b8ff" d="M34.66,-492.51C36.11,-536.4 45.73,-641.89 103,-701.5 106.76,-705.41 111.07,-708.8 115.72,-711.73"/>
<polygon fill="#63b8ff" stroke="#63b8ff" points="38.16,-492.23 34.44,-482.3 31.16,-492.38 38.16,-492.23"/>
</a>
</g>
</g>
<!-- Node5 -->
<g id="Node000005" class="node">
<title>Node5</title>
<g id="a_Node000005"><a xlink:href="class_acts_1_1_grid.html" target="_top" xlink:title=" ">
<polygon fill="white" stroke="#666666" points="261,-692 116,-692 116,-651 261,-651 261,-692"/>
<text text-anchor="start" x="124" y="-680" font-family="Helvetica,sans-Serif" font-size="10.00">Acts::Grid&lt; Acts::Material</text>
<text text-anchor="start" x="124" y="-669" font-family="Helvetica,sans-Serif" font-size="10.00">::ParametersVector, EAxis,</text>
<text text-anchor="middle" x="188.5" y="-658" font-family="Helvetica,sans-Serif" font-size="10.00"> EAxis, EAxis &gt;</text>
</a>
</g>
</g>
<!-- Node0&#45;&gt;Node5 -->
<g id="edge100_Node000000_Node000005" class="edge">
<title>Node0&#45;&gt;Node5</title>
<g id="a_edge100_Node000000_Node000005"><a xlink:title=" ">
<path fill="none" stroke="#63b8ff" d="M37.03,-492.06C42.59,-527.09 59.05,-600.8 103,-642.5 106.83,-646.13 111.13,-649.31 115.71,-652.09"/>
<polygon fill="#63b8ff" stroke="#63b8ff" points="40.49,-491.52 35.59,-482.13 33.56,-492.53 40.49,-491.52"/>
</a>
</g>
</g>
<!-- Node6 -->
<g id="Node000006" class="node">
<title>Node6</title>
<g id="a_Node000006"><a xlink:href="class_acts_1_1_grid.html" target="_top" xlink:title=" ">
<polygon fill="white" stroke="#666666" points="251,-633 126,-633 126,-592 251,-592 251,-633"/>
<text text-anchor="start" x="134" y="-621" font-family="Helvetica,sans-Serif" font-size="10.00">Acts::Grid&lt; HoughCell</text>
<text text-anchor="start" x="134" y="-610" font-family="Helvetica,sans-Serif" font-size="10.00">&lt; identifier_t &gt;, Axis,</text>
<text text-anchor="middle" x="188.5" y="-599" font-family="Helvetica,sans-Serif" font-size="10.00"> Axis &gt;</text>
</a>
</g>
</g>
<!-- Node0&#45;&gt;Node6 -->
<g id="edge101_Node000000_Node000006" class="edge">
<title>Node0&#45;&gt;Node6</title>
<g id="a_edge101_Node000000_Node000006"><a xlink:title=" ">
<path fill="none" stroke="#63b8ff" d="M41.57,-491.71C51.58,-516.36 72.18,-558.87 103,-583.5 109.79,-588.92 117.65,-593.36 125.79,-596.98"/>
<polygon fill="#63b8ff" stroke="#63b8ff" points="44.7,-490.11 37.82,-482.05 38.18,-492.64 44.7,-490.11"/>
</a>
</g>
</g>
<!-- Node7 -->
<g id="Node000007" class="node">
<title>Node7</title>
<g id="a_Node000007"><a xlink:href="class_acts_1_1_grid.html" target="_top" xlink:title=" ">
<polygon fill="white" stroke="#666666" points="257,-574 120,-574 120,-533 257,-533 257,-574"/>
<text text-anchor="start" x="128" y="-562" font-family="Helvetica,sans-Serif" font-size="10.00">Acts::Grid&lt; BinType,</text>
<text text-anchor="start" x="128" y="-551" font-family="Helvetica,sans-Serif" font-size="10.00"> PhiAxisType, ZAxisType,</text>
<text text-anchor="middle" x="188.5" y="-540" font-family="Helvetica,sans-Serif" font-size="10.00"> RAxisType &gt;</text>
</a>
</g>
</g>
<!-- Node0&#45;&gt;Node7 -->
<g id="edge102_Node000000_Node000007" class="edge">
<title>Node0&#45;&gt;Node7</title>
<g id="a_edge102_Node000000_Node000007"><a xlink:title=" ">
<path fill="none" stroke="#63b8ff" d="M53.3,-488.92C66.51,-499.83 84.98,-513.87 103,-523.5 109.32,-526.87 116.09,-530 122.96,-532.87"/>
<polygon fill="#63b8ff" stroke="#63b8ff" points="55.33,-486.05 45.43,-482.28 50.81,-491.4 55.33,-486.05"/>
</a>
</g>
</g>
<!-- Node8 -->
<g id="Node000008" class="node">
<title>Node8</title>
<g id="a_Node000008"><a xlink:href="class_acts_1_1_grid.html" target="_top" xlink:title=" ">
<polygon fill="white" stroke="#666666" points="261.5,-514.5 115.5,-514.5 115.5,-484.5 261.5,-484.5 261.5,-514.5"/>
<text text-anchor="start" x="123.5" y="-502.5" font-family="Helvetica,sans-Serif" font-size="10.00">Acts::Grid&lt; SurfaceVector,</text>
<text text-anchor="middle" x="188.5" y="-491.5" font-family="Helvetica,sans-Serif" font-size="10.00"> Axis1, Axis2 &gt;</text>
</a>
</g>
</g>
<!-- Node0&#45;&gt;Node8 -->
<g id="edge103_Node000000_Node000008" class="edge">
<title>Node0&#45;&gt;Node8</title>
<g id="a_edge103_Node000000_Node000008"><a xlink:title=" ">
<path fill="none" stroke="#63b8ff" d="M77.35,-480.06C89.21,-482.15 102.4,-484.48 115.43,-486.78"/>
<polygon fill="#63b8ff" stroke="#63b8ff" points="77.78,-476.58 67.32,-478.29 76.56,-483.48 77.78,-476.58"/>
</a>
</g>
</g>
<!-- Node9 -->
<g id="Node000009" class="node">
<title>Node9</title>
<g id="a_Node000009"><a xlink:href="class_acts_1_1_grid.html" target="_top" xlink:title=" ">
<polygon fill="white" stroke="#666666" points="256,-466 121,-466 121,-425 256,-425 256,-466"/>
<text text-anchor="start" x="129" y="-454" font-family="Helvetica,sans-Serif" font-size="10.00">Acts::Grid&lt; T, Axis</text>
<text text-anchor="start" x="129" y="-443" font-family="Helvetica,sans-Serif" font-size="10.00">&lt; AxisType::Equidistant,</text>
<text text-anchor="middle" x="188.5" y="-432" font-family="Helvetica,sans-Serif" font-size="10.00"> aType &gt; &gt;</text>
</a>
</g>
</g>
<!-- Node0&#45;&gt;Node9 -->
<g id="edge104_Node000000_Node000009" class="edge">
<title>Node0&#45;&gt;Node9</title>
<g id="a_edge104_Node000000_Node000009"><a xlink:title=" ">
<path fill="none" stroke="#63b8ff" d="M77.26,-464.95C90.76,-462.57 106,-459.88 120.75,-457.28"/>
<polygon fill="#63b8ff" stroke="#63b8ff" points="76.56,-461.52 67.32,-466.71 77.78,-468.42 76.56,-461.52"/>
</a>
</g>
</g>
<!-- Node10 -->
<g id="Node000010" class="node">
<title>Node10</title>
<g id="a_Node000010"><a xlink:href="class_acts_1_1_grid.html" target="_top" xlink:title=" ">
<polygon fill="white" stroke="#666666" points="248.5,-407 128.5,-407 128.5,-366 248.5,-366 248.5,-407"/>
<text text-anchor="start" x="136.5" y="-395" font-family="Helvetica,sans-Serif" font-size="10.00">Acts::Grid&lt; T, Axis</text>
<text text-anchor="start" x="136.5" y="-384" font-family="Helvetica,sans-Serif" font-size="10.00">&lt; AxisType::Variable,</text>
<text text-anchor="middle" x="188.5" y="-373" font-family="Helvetica,sans-Serif" font-size="10.00"> aType &gt; &gt;</text>
</a>
</g>
</g>
<!-- Node0&#45;&gt;Node10 -->
<g id="edge105_Node000000_Node000010" class="edge">
<title>Node0&#45;&gt;Node10</title>
<g id="a_edge105_Node000000_Node000010"><a xlink:title=" ">
<path fill="none" stroke="#63b8ff" d="M51.27,-455.98C64.44,-443.74 83.72,-427.37 103,-416.5 110.87,-412.07 119.5,-408.1 128.16,-404.62"/>
<polygon fill="#63b8ff" stroke="#63b8ff" points="48.75,-453.55 43.92,-462.98 53.57,-458.62 48.75,-453.55"/>
</a>
</g>
</g>
<!-- Node11 -->
<g id="Node000011" class="node">
<title>Node11</title>
<g id="a_Node000011"><a xlink:href="class_acts_1_1_grid.html" target="_top" xlink:title=" ">
<polygon fill="white" stroke="#666666" points="259,-347.5 118,-347.5 118,-295.5 259,-295.5 259,-347.5"/>
<text text-anchor="start" x="126" y="-335.5" font-family="Helvetica,sans-Serif" font-size="10.00">Acts::Grid&lt; T, Axis</text>
<text text-anchor="start" x="126" y="-324.5" font-family="Helvetica,sans-Serif" font-size="10.00">&lt; AxisType::Equidistant,</text>
<text text-anchor="start" x="126" y="-313.5" font-family="Helvetica,sans-Serif" font-size="10.00"> aType &gt;, Axis&lt; AxisType</text>
<text text-anchor="middle" x="188.5" y="-302.5" font-family="Helvetica,sans-Serif" font-size="10.00">::Equidistant, bType &gt; &gt;</text>
</a>
</g>
</g>
<!-- Node0&#45;&gt;Node11 -->
<g id="edge106_Node000000_Node000011" class="edge">
<title>Node0&#45;&gt;Node11</title>
<g id="a_edge106_Node000000_Node000011"><a xlink:title=" ">
<path fill="none" stroke="#63b8ff" d="M41.54,-453.28C51.61,-428.17 72.38,-384.26 103,-357.5 107.56,-353.51 112.63,-349.92 117.96,-346.68"/>
<polygon fill="#63b8ff" stroke="#63b8ff" points="38.2,-452.2 37.88,-462.79 44.74,-454.72 38.2,-452.2"/>
</a>
</g>
</g>
<!-- Node12 -->
<g id="Node000012" class="node">
<title>Node12</title>
<g id="a_Node000012"><a xlink:href="class_acts_1_1_grid.html" target="_top" xlink:title=" ">
<polygon fill="white" stroke="#666666" points="259,-277.5 118,-277.5 118,-225.5 259,-225.5 259,-277.5"/>
<text text-anchor="start" x="126" y="-265.5" font-family="Helvetica,sans-Serif" font-size="10.00">Acts::Grid&lt; T, Axis</text>
<text text-anchor="start" x="126" y="-254.5" font-family="Helvetica,sans-Serif" font-size="10.00">&lt; AxisType::Equidistant,</text>
<text text-anchor="start" x="126" y="-243.5" font-family="Helvetica,sans-Serif" font-size="10.00"> aType &gt;, Axis&lt; AxisType</text>
<text text-anchor="middle" x="188.5" y="-232.5" font-family="Helvetica,sans-Serif" font-size="10.00">::Variable, bType &gt; &gt;</text>
</a>
</g>
</g>
<!-- Node0&#45;&gt;Node12 -->
<g id="edge107_Node000000_Node000012" class="edge">
<title>Node0&#45;&gt;Node12</title>
<g id="a_edge107_Node000000_Node000012"><a xlink:title=" ">
<path fill="none" stroke="#63b8ff" d="M36.54,-452.97C41.41,-415.81 56.97,-334.4 103,-286.5 107.4,-281.92 112.49,-277.92 117.94,-274.42"/>
<polygon fill="#63b8ff" stroke="#63b8ff" points="33.05,-452.65 35.35,-462.99 40,-453.48 33.05,-452.65"/>
</a>
</g>
</g>
<!-- Node13 -->
<g id="Node000013" class="node">
<title>Node13</title>
<g id="a_Node000013"><a xlink:href="class_acts_1_1_grid.html" target="_top" xlink:title=" ">
<polygon fill="white" stroke="#666666" points="259,-207.5 118,-207.5 118,-155.5 259,-155.5 259,-207.5"/>
<text text-anchor="start" x="126" y="-195.5" font-family="Helvetica,sans-Serif" font-size="10.00">Acts::Grid&lt; T, Axis</text>
<text text-anchor="start" x="126" y="-184.5" font-family="Helvetica,sans-Serif" font-size="10.00">&lt; AxisType::Variable,</text>
<text text-anchor="start" x="126" y="-173.5" font-family="Helvetica,sans-Serif" font-size="10.00"> aType &gt;, Axis&lt; AxisType</text>
<text text-anchor="middle" x="188.5" y="-162.5" font-family="Helvetica,sans-Serif" font-size="10.00">::Equidistant, bType &gt; &gt;</text>
</a>
</g>
</g>
<!-- Node0&#45;&gt;Node13 -->
<g id="edge108_Node000000_Node000013" class="edge">
<title>Node0&#45;&gt;Node13</title>
<g id="a_edge108_Node000000_Node000013"><a xlink:title=" ">
<path fill="none" stroke="#63b8ff" d="M34.18,-452.68C34.48,-405.75 41.64,-286.49 103,-216.5 107.29,-211.6 112.38,-207.38 117.89,-203.74"/>
<polygon fill="#63b8ff" stroke="#63b8ff" points="30.68,-452.76 34.22,-462.75 37.68,-452.74 30.68,-452.76"/>
</a>
</g>
</g>
<!-- Node14 -->
<g id="Node000014" class="node">
<title>Node14</title>
<g id="a_Node000014"><a xlink:href="class_acts_1_1_grid.html" target="_top" xlink:title=" ">
<polygon fill="white" stroke="#666666" points="259,-137.5 118,-137.5 118,-85.5 259,-85.5 259,-137.5"/>
<text text-anchor="start" x="126" y="-125.5" font-family="Helvetica,sans-Serif" font-size="10.00">Acts::Grid&lt; T, Axis</text>
<text text-anchor="start" x="126" y="-114.5" font-family="Helvetica,sans-Serif" font-size="10.00">&lt; AxisType::Variable,</text>
<text text-anchor="start" x="126" y="-103.5" font-family="Helvetica,sans-Serif" font-size="10.00"> aType &gt;, Axis&lt; AxisType</text>
<text text-anchor="middle" x="188.5" y="-92.5" font-family="Helvetica,sans-Serif" font-size="10.00">::Variable, bType &gt; &gt;</text>
</a>
</g>
</g>
<!-- Node0&#45;&gt;Node14 -->
<g id="edge109_Node000000_Node000014" class="edge">
<title>Node0&#45;&gt;Node14</title>
<g id="a_edge109_Node000000_Node000014"><a xlink:title=" ">
<path fill="none" stroke="#63b8ff" d="M36.26,-452.63C42.23,-389.38 63.54,-194.06 103,-146.5 107.16,-141.49 112.15,-137.19 117.6,-133.49"/>
<polygon fill="#63b8ff" stroke="#63b8ff" points="32.75,-452.56 35.32,-462.84 39.72,-453.2 32.75,-452.56"/>
</a>
</g>
</g>
<!-- Node15 -->
<g id="Node000015" class="node">
<title>Node15</title>
<g id="a_Node000015"><a xlink:href="class_acts_1_1_grid.html" target="_top" xlink:title=" ">
<polygon fill="white" stroke="#666666" points="265.5,-67.5 111.5,-67.5 111.5,-37.5 265.5,-37.5 265.5,-67.5"/>
<text text-anchor="start" x="119.5" y="-55.5" font-family="Helvetica,sans-Serif" font-size="10.00">Acts::Grid&lt; HoughCount</text>
<text text-anchor="middle" x="188.5" y="-44.5" font-family="Helvetica,sans-Serif" font-size="10.00">_t, HoughAxis, HoughAxis &gt;</text>
</a>
</g>
</g>
<!-- Node0&#45;&gt;Node15 -->
<g id="edge110_Node000000_Node000015" class="edge">
<title>Node0&#45;&gt;Node15</title>
<g id="a_edge110_Node000000_Node000015"><a xlink:title=" ">
<path fill="none" stroke="#63b8ff" d="M35.22,-452.52C38.24,-380.15 52.16,-133 103,-76.5 106.06,-73.1 109.56,-70.17 113.36,-67.64"/>
<polygon fill="#63b8ff" stroke="#63b8ff" points="31.71,-452.79 34.82,-462.92 38.7,-453.07 31.71,-452.79"/>
</a>
</g>
</g>
<!-- Node16 -->
<g id="Node000016" class="node">
<title>Node16</title>
<g id="a_Node000016"><a xlink:href="class_acts_1_1_grid.html" target="_top" xlink:title="class for describing a regular multi&#45;dimensional grid">
<polygon fill="white" stroke="#666666" points="249.5,-19 127.5,-19 127.5,0 249.5,0 249.5,-19"/>
<text text-anchor="middle" x="188.5" y="-7" font-family="Helvetica,sans-Serif" font-size="10.00">Acts::Grid&lt; T, Axes &gt;</text>
</a>
</g>
</g>
<!-- Node0&#45;&gt;Node16 -->
<g id="edge111_Node000000_Node000016" class="edge">
<title>Node0&#45;&gt;Node16</title>
<g id="a_edge111_Node000000_Node000016"><a xlink:title=" ">
<path fill="none" stroke="#63b8ff" d="M34.71,-452.56C35.92,-374.54 44.38,-91.25 103,-28.5 109.57,-21.47 118.13,-16.76 127.29,-13.66"/>
<polygon fill="#63b8ff" stroke="#63b8ff" points="31.2,-452.85 34.57,-462.89 38.2,-452.94 31.2,-452.85"/>
</a>
</g>
</g>
</g>
</svg>
