<?xml version="1.0" encoding="UTF-8" standalone="no"?>
<!DOCTYPE svg PUBLIC "-//W3C//DTD SVG 1.1//EN"
 "http://www.w3.org/Graphics/SVG/1.1/DTD/svg11.dtd">
<!-- Generated by graphviz version 2.43.0 (0)
 -->
<!-- Title: Graphical Class Hierarchy Pages: 1 -->
<svg width="285pt" height="86pt"
 viewBox="0.00 0.00 285.00 86.00" xmlns="http://www.w3.org/2000/svg" xmlns:xlink="http://www.w3.org/1999/xlink">
<g id="graph0" class="graph" transform="scale(1 1) rotate(0) translate(4 82)">
<title>Graphical Class Hierarchy</title>
<!-- Node0 -->
<g id="Node000000" class="node">
<title>Node0</title>
<g id="a_Node000000"><a xlink:href="class_acts_plugins_1_1_fast_jet_1_1_jet.html" target="_top" xlink:title="Common class for jets.">
<polygon fill="white" stroke="#666666" points="130,-48.5 0,-48.5 0,-29.5 130,-29.5 130,-48.5"/>
<text text-anchor="middle" x="65" y="-36.5" font-family="Helvetica,sans-Serif" font-size="10.00">ActsPlugins::FastJet::Jet</text>
</a>
</g>
</g>
<!-- Node1 -->
<g id="Node000001" class="node">
<title>Node1</title>
<g id="a_Node000001"><a xlink:href="class_acts_plugins_1_1_fast_jet_1_1_track_jet.html" target="_top" xlink:title=" ">
<polygon fill="white" stroke="#666666" points="277,-78 166,-78 166,-48 277,-48 277,-78"/>
<text text-anchor="start" x="174" y="-66" font-family="Helvetica,sans-Serif" font-size="10.00">ActsPlugins::FastJet</text>
<text text-anchor="middle" x="221.5" y="-55" font-family="Helvetica,sans-Serif" font-size="10.00">::TrackJet</text>
</a>
</g>
</g>
<!-- Node0&#45;&gt;Node1 -->
<g id="edge263_Node000000_Node000001" class="edge">
<title>Node0&#45;&gt;Node1</title>
<g id="a_edge263_Node000000_Node000001"><a xlink:title=" ">
<path fill="none" stroke="#63b8ff" d="M137.66,-50.13C147.09,-51.6 156.62,-53.08 165.7,-54.49"/>
<polygon fill="#63b8ff" stroke="#63b8ff" points="137.93,-46.63 127.51,-48.55 136.85,-53.55 137.93,-46.63"/>
</a>
</g>
</g>
<!-- Node2 -->
<g id="Node000002" class="node">
<title>Node2</title>
<g id="a_Node000002"><a xlink:href="class_acts_plugins_1_1_fast_jet_1_1_truth_jet.html" target="_top" xlink:title=" ">
<polygon fill="white" stroke="#666666" points="277,-30 166,-30 166,0 277,0 277,-30"/>
<text text-anchor="start" x="174" y="-18" font-family="Helvetica,sans-Serif" font-size="10.00">ActsPlugins::FastJet</text>
<text text-anchor="middle" x="221.5" y="-7" font-family="Helvetica,sans-Serif" font-size="10.00">::TruthJet</text>
</a>
</g>
</g>
<!-- Node0&#45;&gt;Node2 -->
<g id="edge264_Node000000_Node000002" class="edge">
<title>Node0&#45;&gt;Node2</title>
<g id="a_edge264_Node000000_Node000002"><a xlink:title=" ">
<path fill="none" stroke="#63b8ff" d="M137.66,-27.87C147.09,-26.4 156.62,-24.92 165.7,-23.51"/>
<polygon fill="#63b8ff" stroke="#63b8ff" points="136.85,-24.45 127.51,-29.45 137.93,-31.37 136.85,-24.45"/>
</a>
</g>
</g>
</g>
</svg>
