<?xml version="1.0" encoding="UTF-8" standalone="no"?>
<!DOCTYPE svg PUBLIC "-//W3C//DTD SVG 1.1//EN"
 "http://www.w3.org/Graphics/SVG/1.1/DTD/svg11.dtd">
<!-- Generated by graphviz version 2.43.0 (0)
 -->
<!-- Title: Graphical Class Hierarchy Pages: 1 -->
<svg width="292pt" height="209pt"
 viewBox="0.00 0.00 292.00 208.50" xmlns="http://www.w3.org/2000/svg" xmlns:xlink="http://www.w3.org/1999/xlink">
<g id="graph0" class="graph" transform="scale(1 1) rotate(0) translate(4 204.5)">
<title>Graphical Class Hierarchy</title>
<!-- Node0 -->
<g id="Node000000" class="node">
<title>Node0</title>
<g id="a_Node000000"><a xlink:href="class_acts_1_1_any_base_all.html" target="_top" xlink:title="Base class for all instances of AnyBase regarfless of SBO size.">
<polygon fill="white" stroke="#666666" points="99,-99 0,-99 0,-80 99,-80 99,-99"/>
<text text-anchor="middle" x="49.5" y="-87" font-family="Helvetica,sans-Serif" font-size="10.00">Acts::AnyBaseAll</text>
</a>
</g>
</g>
<!-- Node1 -->
<g id="Node000001" class="node">
<title>Node1</title>
<g id="a_Node000001"><a xlink:href="class_acts_1_1_any_base.html" target="_top" xlink:title=" ">
<polygon fill="white" stroke="#666666" points="284,-200.5 135,-200.5 135,-170.5 284,-170.5 284,-200.5"/>
<text text-anchor="start" x="143" y="-188.5" font-family="Helvetica,sans-Serif" font-size="10.00">Acts::AnyBase&lt; ACTS</text>
<text text-anchor="middle" x="209.5" y="-177.5" font-family="Helvetica,sans-Serif" font-size="10.00">_SOURCELINK_SBO_SIZE &gt;</text>
</a>
</g>
</g>
<!-- Node0&#45;&gt;Node1 -->
<g id="edge1_Node000000_Node000001" class="edge">
<title>Node0&#45;&gt;Node1</title>
<g id="a_edge1_Node000000_Node000001"><a xlink:title=" ">
<path fill="none" stroke="#63b8ff" d="M66.45,-106.49C82.43,-122.64 108.41,-146.6 135,-161.5 140.97,-164.85 147.48,-167.81 154.08,-170.41"/>
<polygon fill="#63b8ff" stroke="#63b8ff" points="68.92,-104.02 59.45,-99.27 63.9,-108.89 68.92,-104.02"/>
</a>
</g>
</g>
<!-- Node2 -->
<g id="Node000002" class="node">
<title>Node2</title>
<g id="a_Node000002"><a xlink:href="class_acts_1_1_any_base.html" target="_top" xlink:title=" ">
<polygon fill="white" stroke="#666666" points="273,-152.5 146,-152.5 146,-122.5 273,-122.5 273,-152.5"/>
<text text-anchor="start" x="154" y="-140.5" font-family="Helvetica,sans-Serif" font-size="10.00">Acts::AnyBase&lt; sizeof</text>
<text text-anchor="middle" x="209.5" y="-129.5" font-family="Helvetica,sans-Serif" font-size="10.00">(char) *512 &gt;</text>
</a>
</g>
</g>
<!-- Node0&#45;&gt;Node2 -->
<g id="edge2_Node000000_Node000002" class="edge">
<title>Node0&#45;&gt;Node2</title>
<g id="a_edge2_Node000000_Node000002"><a xlink:title=" ">
<path fill="none" stroke="#63b8ff" d="M91.79,-102.04C112.34,-108.29 137.34,-115.88 158.92,-122.44"/>
<polygon fill="#63b8ff" stroke="#63b8ff" points="92.68,-98.66 82.09,-99.1 90.64,-105.35 92.68,-98.66"/>
</a>
</g>
</g>
<!-- Node3 -->
<g id="Node000003" class="node">
<title>Node3</title>
<g id="a_Node000003"><a xlink:href="class_acts_1_1_any_base.html" target="_top" xlink:title=" ">
<polygon fill="white" stroke="#666666" points="273,-104.5 146,-104.5 146,-74.5 273,-74.5 273,-104.5"/>
<text text-anchor="start" x="154" y="-92.5" font-family="Helvetica,sans-Serif" font-size="10.00">Acts::AnyBase&lt; sizeof</text>
<text text-anchor="middle" x="209.5" y="-81.5" font-family="Helvetica,sans-Serif" font-size="10.00">(void *)&gt;</text>
</a>
</g>
</g>
<!-- Node0&#45;&gt;Node3 -->
<g id="edge3_Node000000_Node000003" class="edge">
<title>Node0&#45;&gt;Node3</title>
<g id="a_edge3_Node000000_Node000003"><a xlink:title=" ">
<path fill="none" stroke="#63b8ff" d="M109.47,-89.5C121.38,-89.5 133.95,-89.5 145.98,-89.5"/>
<polygon fill="#63b8ff" stroke="#63b8ff" points="109.19,-86 99.19,-89.5 109.19,-93 109.19,-86"/>
</a>
</g>
</g>
<!-- Node4 -->
<g id="Node000004" class="node">
<title>Node4</title>
<g id="a_Node000004"><a xlink:href="class_acts_1_1_any_base.html" target="_top" xlink:title=" ">
<polygon fill="white" stroke="#666666" points="273,-56 146,-56 146,-37 273,-37 273,-56"/>
<text text-anchor="middle" x="209.5" y="-44" font-family="Helvetica,sans-Serif" font-size="10.00">Acts::AnyBase&lt; 128 &gt;</text>
</a>
</g>
</g>
<!-- Node0&#45;&gt;Node4 -->
<g id="edge4_Node000000_Node000004" class="edge">
<title>Node0&#45;&gt;Node4</title>
<g id="a_edge4_Node000000_Node000004"><a xlink:title=" ">
<path fill="none" stroke="#63b8ff" d="M93.24,-77.15C106.6,-73.34 121.39,-69.19 135,-65.5 146.58,-62.36 159.21,-59.05 170.69,-56.09"/>
<polygon fill="#63b8ff" stroke="#63b8ff" points="92.01,-73.86 83.36,-79.97 93.93,-80.59 92.01,-73.86"/>
</a>
</g>
</g>
<!-- Node5 -->
<g id="Node000005" class="node">
<title>Node5</title>
<g id="a_Node000005"><a xlink:href="class_acts_1_1_any_base.html" target="_top" xlink:title="Small opaque cache type with configurable small buffer optimization.">
<polygon fill="white" stroke="#666666" points="275,-19 144,-19 144,0 275,0 275,-19"/>
<text text-anchor="middle" x="209.5" y="-7" font-family="Helvetica,sans-Serif" font-size="10.00">Acts::AnyBase&lt; SIZE &gt;</text>
</a>
</g>
</g>
<!-- Node0&#45;&gt;Node5 -->
<g id="edge5_Node000000_Node000005" class="edge">
<title>Node0&#45;&gt;Node5</title>
<g id="a_edge5_Node000000_Node000005"><a xlink:title=" ">
<path fill="none" stroke="#63b8ff" d="M68.82,-73.15C85.12,-59.4 110.18,-40.16 135,-28.5 143.11,-24.69 152.1,-21.56 160.93,-19.03"/>
<polygon fill="#63b8ff" stroke="#63b8ff" points="66.42,-70.59 61.13,-79.78 70.99,-75.9 66.42,-70.59"/>
</a>
</g>
</g>
</g>
</svg>
