<?xml version="1.0" encoding="UTF-8" standalone="no"?>
<!DOCTYPE svg PUBLIC "-//W3C//DTD SVG 1.1//EN"
 "http://www.w3.org/Graphics/SVG/1.1/DTD/svg11.dtd">
<!-- Generated by graphviz version 2.43.0 (0)
 -->
<!-- Title: Graphical Class Hierarchy Pages: 1 -->
<svg width="365pt" height="278pt"
 viewBox="0.00 0.00 365.00 278.00" xmlns="http://www.w3.org/2000/svg" xmlns:xlink="http://www.w3.org/1999/xlink">
<g id="graph0" class="graph" transform="scale(1 1) rotate(0) translate(4 274)">
<title>Graphical Class Hierarchy</title>
<!-- Node0 -->
<g id="Node000000" class="node">
<title>Node0</title>
<g id="a_Node000000"><a xlink:title=" ">
<polygon fill="#e0e0e0" stroke="#999999" points="158,-144.5 0,-144.5 0,-125.5 158,-125.5 158,-144.5"/>
<text text-anchor="middle" x="79" y="-132.5" font-family="Helvetica,sans-Serif" font-size="10.00">Acts::detail::ContainerSubset</text>
</a>
</g>
</g>
<!-- Node1 -->
<g id="Node000001" class="node">
<title>Node1</title>
<g id="a_Node000001"><a xlink:href="class_acts_1_1_space_point_container2_1_1_subset.html" target="_top" xlink:title=" ">
<polygon fill="white" stroke="#666666" points="351,-270 200,-270 200,-240 351,-240 351,-270"/>
<text text-anchor="start" x="208" y="-258" font-family="Helvetica,sans-Serif" font-size="10.00">Acts::SpacePointContainer2</text>
<text text-anchor="middle" x="275.5" y="-247" font-family="Helvetica,sans-Serif" font-size="10.00">::Subset&lt; false &gt;</text>
</a>
</g>
</g>
<!-- Node0&#45;&gt;Node1 -->
<g id="edge18_Node000000_Node000001" class="edge">
<title>Node0&#45;&gt;Node1</title>
<g id="a_edge18_Node000000_Node000001"><a xlink:title=" ">
<path fill="none" stroke="#63b8ff" d="M95.79,-152.06C116.43,-173.41 154.63,-209.75 194,-231 200.29,-234.39 207.12,-237.37 214.05,-239.96"/>
<polygon fill="#63b8ff" stroke="#63b8ff" points="98.2,-149.51 88.77,-144.67 93.12,-154.33 98.2,-149.51"/>
</a>
</g>
</g>
<!-- Node2 -->
<g id="Node000002" class="node">
<title>Node2</title>
<g id="a_Node000002"><a xlink:href="class_acts_1_1_space_point_container2_1_1_subset.html" target="_top" xlink:title=" ">
<polygon fill="white" stroke="#666666" points="351,-222 200,-222 200,-192 351,-192 351,-222"/>
<text text-anchor="start" x="208" y="-210" font-family="Helvetica,sans-Serif" font-size="10.00">Acts::SpacePointContainer2</text>
<text text-anchor="middle" x="275.5" y="-199" font-family="Helvetica,sans-Serif" font-size="10.00">::Subset&lt; true &gt;</text>
</a>
</g>
</g>
<!-- Node0&#45;&gt;Node2 -->
<g id="edge19_Node000000_Node000002" class="edge">
<title>Node0&#45;&gt;Node2</title>
<g id="a_edge19_Node000000_Node000002"><a xlink:title=" ">
<path fill="none" stroke="#63b8ff" d="M109.89,-148.64C132.68,-158.78 164.99,-172.6 194,-183 202.65,-186.1 211.92,-189.13 220.97,-191.93"/>
<polygon fill="#63b8ff" stroke="#63b8ff" points="111.3,-145.43 100.74,-144.54 108.44,-151.82 111.3,-145.43"/>
</a>
</g>
</g>
<!-- Node3 -->
<g id="Node000003" class="node">
<title>Node3</title>
<g id="a_Node000003"><a xlink:href="class_acts_1_1_doublets_for_middle_sp_1_1_subset.html" target="_top" xlink:title=" ">
<polygon fill="white" stroke="#666666" points="349,-174 202,-174 202,-144 349,-144 349,-174"/>
<text text-anchor="start" x="210" y="-162" font-family="Helvetica,sans-Serif" font-size="10.00">Acts::DoubletsForMiddleSp</text>
<text text-anchor="middle" x="275.5" y="-151" font-family="Helvetica,sans-Serif" font-size="10.00">::Subset</text>
</a>
</g>
</g>
<!-- Node0&#45;&gt;Node3 -->
<g id="edge20_Node000000_Node000003" class="edge">
<title>Node0&#45;&gt;Node3</title>
<g id="a_edge20_Node000000_Node000003"><a xlink:title=" ">
<path fill="none" stroke="#63b8ff" d="M167.25,-145.77C178.82,-147.19 190.59,-148.65 201.87,-150.04"/>
<polygon fill="#63b8ff" stroke="#63b8ff" points="167.5,-142.27 157.15,-144.52 166.65,-149.22 167.5,-142.27"/>
</a>
</g>
</g>
<!-- Node4 -->
<g id="Node000004" class="node">
<title>Node4</title>
<g id="a_Node000004"><a xlink:href="class_acts_1_1_doublets_for_middle_sp_1_1_subset2.html" target="_top" xlink:title=" ">
<polygon fill="white" stroke="#666666" points="349,-126 202,-126 202,-96 349,-96 349,-126"/>
<text text-anchor="start" x="210" y="-114" font-family="Helvetica,sans-Serif" font-size="10.00">Acts::DoubletsForMiddleSp</text>
<text text-anchor="middle" x="275.5" y="-103" font-family="Helvetica,sans-Serif" font-size="10.00">::Subset2</text>
</a>
</g>
</g>
<!-- Node0&#45;&gt;Node4 -->
<g id="edge21_Node000000_Node000004" class="edge">
<title>Node0&#45;&gt;Node4</title>
<g id="a_edge21_Node000000_Node000004"><a xlink:title=" ">
<path fill="none" stroke="#63b8ff" d="M167.25,-124.23C178.82,-122.81 190.59,-121.35 201.87,-119.96"/>
<polygon fill="#63b8ff" stroke="#63b8ff" points="166.65,-120.78 157.15,-125.48 167.5,-127.73 166.65,-120.78"/>
</a>
</g>
</g>
<!-- Node5 -->
<g id="Node000005" class="node">
<title>Node5</title>
<g id="a_Node000005"><a xlink:href="class_acts_1_1_space_point_column_proxy_1_1_subset.html" target="_top" xlink:title=" ">
<polygon fill="white" stroke="#666666" points="357,-78 194,-78 194,-48 357,-48 357,-78"/>
<text text-anchor="start" x="202" y="-66" font-family="Helvetica,sans-Serif" font-size="10.00">Acts::SpacePointColumnProxy</text>
<text text-anchor="middle" x="275.5" y="-55" font-family="Helvetica,sans-Serif" font-size="10.00">&lt; T, read_only &gt;::Subset</text>
</a>
</g>
</g>
<!-- Node0&#45;&gt;Node5 -->
<g id="edge22_Node000000_Node000005" class="edge">
<title>Node0&#45;&gt;Node5</title>
<g id="a_edge22_Node000000_Node000005"><a xlink:title=" ">
<path fill="none" stroke="#63b8ff" d="M109.89,-121.36C132.68,-111.22 164.99,-97.4 194,-87 202.65,-83.9 211.92,-80.87 220.97,-78.07"/>
<polygon fill="#63b8ff" stroke="#63b8ff" points="108.44,-118.18 100.74,-125.46 111.3,-124.57 108.44,-118.18"/>
</a>
</g>
</g>
<!-- Node6 -->
<g id="Node000006" class="node">
<title>Node6</title>
<g id="a_Node000006"><a xlink:href="class_acts_1_1_space_point_container2_1_1_subset.html" target="_top" xlink:title=" ">
<polygon fill="white" stroke="#666666" points="351,-30 200,-30 200,0 351,0 351,-30"/>
<text text-anchor="start" x="208" y="-18" font-family="Helvetica,sans-Serif" font-size="10.00">Acts::SpacePointContainer2</text>
<text text-anchor="middle" x="275.5" y="-7" font-family="Helvetica,sans-Serif" font-size="10.00">::Subset&lt; read_only &gt;</text>
</a>
</g>
</g>
<!-- Node0&#45;&gt;Node6 -->
<g id="edge23_Node000000_Node000006" class="edge">
<title>Node0&#45;&gt;Node6</title>
<g id="a_edge23_Node000000_Node000006"><a xlink:title=" ">
<path fill="none" stroke="#63b8ff" d="M95.79,-117.94C116.43,-96.59 154.63,-60.25 194,-39 200.29,-35.61 207.12,-32.63 214.05,-30.04"/>
<polygon fill="#63b8ff" stroke="#63b8ff" points="93.12,-115.67 88.77,-125.33 98.2,-120.49 93.12,-115.67"/>
</a>
</g>
</g>
</g>
</svg>
