<?xml version="1.0" encoding="UTF-8" standalone="no"?>
<!DOCTYPE svg PUBLIC "-//W3C//DTD SVG 1.1//EN"
 "http://www.w3.org/Graphics/SVG/1.1/DTD/svg11.dtd">
<!-- Generated by graphviz version 2.43.0 (0)
 -->
<!-- Title: Graphical Class Hierarchy Pages: 1 -->
<svg width="310pt" height="108pt"
 viewBox="0.00 0.00 310.00 108.00" xmlns="http://www.w3.org/2000/svg" xmlns:xlink="http://www.w3.org/1999/xlink">
<g id="graph0" class="graph" transform="scale(1 1) rotate(0) translate(4 104)">
<title>Graphical Class Hierarchy</title>
<!-- Node0 -->
<g id="Node000000" class="node">
<title>Node0</title>
<g id="a_Node000000"><a xlink:title=" ">
<polygon fill="#e0e0e0" stroke="#999999" points="97,-59 0,-59 0,-40 97,-40 97,-59"/>
<text text-anchor="middle" x="48.5" y="-47" font-family="Helvetica,sans-Serif" font-size="10.00">single_stepper_t</text>
</a>
</g>
</g>
<!-- Node1 -->
<g id="Node000001" class="node">
<title>Node1</title>
<g id="a_Node000001"><a xlink:href="class_acts_1_1_multi_stepper_loop.html" target="_top" xlink:title=" ">
<polygon fill="white" stroke="#666666" points="293.5,-100 141.5,-100 141.5,-59 293.5,-59 293.5,-100"/>
<text text-anchor="start" x="149.5" y="-88" font-family="Helvetica,sans-Serif" font-size="10.00">Acts::MultiStepperLoop</text>
<text text-anchor="start" x="149.5" y="-77" font-family="Helvetica,sans-Serif" font-size="10.00">&lt; EigenStepper&lt; extension</text>
<text text-anchor="middle" x="217.5" y="-66" font-family="Helvetica,sans-Serif" font-size="10.00">_t &gt;, reducer_t &gt;</text>
</a>
</g>
</g>
<!-- Node0&#45;&gt;Node1 -->
<g id="edge270_Node000000_Node000001" class="edge">
<title>Node0&#45;&gt;Node1</title>
<g id="a_edge270_Node000000_Node000001"><a xlink:title=" ">
<path fill="none" stroke="#63b8ff" d="M107.21,-59.87C118.18,-61.84 129.79,-63.92 141.21,-65.97"/>
<polygon fill="#63b8ff" stroke="#63b8ff" points="107.82,-56.42 97.36,-58.1 106.58,-63.31 107.82,-56.42"/>
</a>
</g>
</g>
<!-- Node2 -->
<g id="Node000002" class="node">
<title>Node2</title>
<g id="a_Node000002"><a xlink:href="class_acts_1_1_multi_stepper_loop.html" target="_top" xlink:title="Stepper based on a single&#45;component stepper, but can handle Multi&#45;Component Tracks (e....">
<polygon fill="white" stroke="#666666" points="302,-41 133,-41 133,0 302,0 302,-41"/>
<text text-anchor="start" x="141" y="-29" font-family="Helvetica,sans-Serif" font-size="10.00">Acts::MultiStepperLoop</text>
<text text-anchor="start" x="141" y="-18" font-family="Helvetica,sans-Serif" font-size="10.00">&lt; single_stepper_t, component</text>
<text text-anchor="middle" x="217.5" y="-7" font-family="Helvetica,sans-Serif" font-size="10.00">_reducer_t &gt;</text>
</a>
</g>
</g>
<!-- Node0&#45;&gt;Node2 -->
<g id="edge271_Node000000_Node000002" class="edge">
<title>Node0&#45;&gt;Node2</title>
<g id="a_edge271_Node000000_Node000002"><a xlink:title=" ">
<path fill="none" stroke="#63b8ff" d="M107.29,-39.46C115.61,-38.02 124.3,-36.51 133,-35"/>
<polygon fill="#63b8ff" stroke="#63b8ff" points="106.61,-36.03 97.36,-41.19 107.81,-42.93 106.61,-36.03"/>
</a>
</g>
</g>
</g>
</svg>
