<?xml version="1.0" encoding="UTF-8" standalone="no"?>
<!DOCTYPE svg PUBLIC "-//W3C//DTD SVG 1.1//EN"
 "http://www.w3.org/Graphics/SVG/1.1/DTD/svg11.dtd">
<!-- Generated by graphviz version 2.43.0 (0)
 -->
<!-- Title: Graphical Class Hierarchy Pages: 1 -->
<svg width="271pt" height="101pt"
 viewBox="0.00 0.00 271.00 101.00" xmlns="http://www.w3.org/2000/svg" xmlns:xlink="http://www.w3.org/1999/xlink">
<g id="graph0" class="graph" transform="scale(1 1) rotate(0) translate(4 97)">
<title>Graphical Class Hierarchy</title>
<!-- Node0 -->
<g id="Node000000" class="node">
<title>Node0</title>
<g id="a_Node000000"><a xlink:title=" ">
<polygon fill="#e0e0e0" stroke="#999999" points="77,-56 0,-56 0,-37 77,-37 77,-56"/>
<text text-anchor="middle" x="38.5" y="-44" font-family="Helvetica,sans-Serif" font-size="10.00">ContextType</text>
</a>
</g>
</g>
<!-- Node1 -->
<g id="Node000001" class="node">
<title>Node1</title>
<g id="a_Node000001"><a xlink:href="class_acts_1_1_calibration_context.html" target="_top" xlink:title="This is the central definition of the Acts payload object regarding detector calibration.">
<polygon fill="white" stroke="#666666" points="255.5,-93 120.5,-93 120.5,-74 255.5,-74 255.5,-93"/>
<text text-anchor="middle" x="188" y="-81" font-family="Helvetica,sans-Serif" font-size="10.00">Acts::CalibrationContext</text>
</a>
</g>
</g>
<!-- Node0&#45;&gt;Node1 -->
<g id="edge261_Node000000_Node000001" class="edge">
<title>Node0&#45;&gt;Node1</title>
<g id="a_edge261_Node000000_Node000001"><a xlink:title=" ">
<path fill="none" stroke="#63b8ff" d="M86.02,-58.63C94.97,-60.94 104.27,-63.31 113,-65.5 124.16,-68.3 136.28,-71.27 147.42,-73.98"/>
<polygon fill="#63b8ff" stroke="#63b8ff" points="86.67,-55.19 76.11,-56.07 84.92,-61.96 86.67,-55.19"/>
</a>
</g>
</g>
<!-- Node2 -->
<g id="Node000002" class="node">
<title>Node2</title>
<g id="a_Node000002"><a xlink:href="class_acts_1_1_geometry_context.html" target="_top" xlink:title="This is the central definition of the Acts payload object regarding detector geometry status (e....">
<polygon fill="white" stroke="#666666" points="253.5,-56 122.5,-56 122.5,-37 253.5,-37 253.5,-56"/>
<text text-anchor="middle" x="188" y="-44" font-family="Helvetica,sans-Serif" font-size="10.00">Acts::GeometryContext</text>
</a>
</g>
</g>
<!-- Node0&#45;&gt;Node2 -->
<g id="edge262_Node000000_Node000002" class="edge">
<title>Node0&#45;&gt;Node2</title>
<g id="a_edge262_Node000000_Node000002"><a xlink:title=" ">
<path fill="none" stroke="#63b8ff" d="M87.44,-46.5C98.55,-46.5 110.55,-46.5 122.24,-46.5"/>
<polygon fill="#63b8ff" stroke="#63b8ff" points="87.1,-43 77.1,-46.5 87.1,-50 87.1,-43"/>
</a>
</g>
</g>
<!-- Node3 -->
<g id="Node000003" class="node">
<title>Node3</title>
<g id="a_Node000003"><a xlink:href="class_acts_1_1_magnetic_field_context.html" target="_top" xlink:title="Context object for lookup of magnetic field values.">
<polygon fill="white" stroke="#666666" points="263,-19 113,-19 113,0 263,0 263,-19"/>
<text text-anchor="middle" x="188" y="-7" font-family="Helvetica,sans-Serif" font-size="10.00">Acts::MagneticFieldContext</text>
</a>
</g>
</g>
<!-- Node0&#45;&gt;Node3 -->
<g id="edge263_Node000000_Node000003" class="edge">
<title>Node0&#45;&gt;Node3</title>
<g id="a_edge263_Node000000_Node000003"><a xlink:title=" ">
<path fill="none" stroke="#63b8ff" d="M86.97,-34.59C107.02,-29.56 130.05,-23.79 148.95,-19.04"/>
<polygon fill="#63b8ff" stroke="#63b8ff" points="85.95,-31.24 77.1,-37.07 87.65,-38.03 85.95,-31.24"/>
</a>
</g>
</g>
</g>
</svg>
