<?xml version="1.0" encoding="UTF-8" standalone="no"?>
<!DOCTYPE svg PUBLIC "-//W3C//DTD SVG 1.1//EN"
 "http://www.w3.org/Graphics/SVG/1.1/DTD/svg11.dtd">
<!-- Generated by graphviz version 2.43.0 (0)
 -->
<!-- Title: Graphical Class Hierarchy Pages: 1 -->
<svg width="406pt" height="86pt"
 viewBox="0.00 0.00 406.00 86.00" xmlns="http://www.w3.org/2000/svg" xmlns:xlink="http://www.w3.org/1999/xlink">
<g id="graph0" class="graph" transform="scale(1 1) rotate(0) translate(4 82)">
<title>Graphical Class Hierarchy</title>
<!-- Node0 -->
<g id="Node000000" class="node">
<title>Node0</title>
<g id="a_Node000000"><a xlink:href="class_acts_plugins_1_1_podio_track_container_base.html" target="_top" xlink:title=" ">
<polygon fill="white" stroke="#666666" points="203,-48.5 0,-48.5 0,-29.5 203,-29.5 203,-48.5"/>
<text text-anchor="middle" x="101.5" y="-36.5" font-family="Helvetica,sans-Serif" font-size="10.00">ActsPlugins::PodioTrackContainerBase</text>
</a>
</g>
</g>
<!-- Node1 -->
<g id="Node000001" class="node">
<title>Node1</title>
<g id="a_Node000001"><a xlink:href="class_acts_plugins_1_1_const_podio_track_container.html" target="_top" xlink:title=" ">
<polygon fill="white" stroke="#666666" points="398,-78 239,-78 239,-48 398,-48 398,-78"/>
<text text-anchor="start" x="247" y="-66" font-family="Helvetica,sans-Serif" font-size="10.00">ActsPlugins::ConstPodioTrack</text>
<text text-anchor="middle" x="318.5" y="-55" font-family="Helvetica,sans-Serif" font-size="10.00">Container</text>
</a>
</g>
</g>
<!-- Node0&#45;&gt;Node1 -->
<g id="edge274_Node000000_Node000001" class="edge">
<title>Node0&#45;&gt;Node1</title>
<g id="a_edge274_Node000000_Node000001"><a xlink:title=" ">
<path fill="none" stroke="#63b8ff" d="M197.75,-49.63C211.52,-51.17 225.56,-52.74 238.96,-54.23"/>
<polygon fill="#63b8ff" stroke="#63b8ff" points="198.11,-46.15 187.78,-48.52 197.33,-53.11 198.11,-46.15"/>
</a>
</g>
</g>
<!-- Node2 -->
<g id="Node000002" class="node">
<title>Node2</title>
<g id="a_Node000002"><a xlink:href="class_acts_plugins_1_1_mutable_podio_track_container.html" target="_top" xlink:title=" ">
<polygon fill="white" stroke="#666666" points="391.5,-30 245.5,-30 245.5,0 391.5,0 391.5,-30"/>
<text text-anchor="start" x="253.5" y="-18" font-family="Helvetica,sans-Serif" font-size="10.00">ActsPlugins::MutablePodio</text>
<text text-anchor="middle" x="318.5" y="-7" font-family="Helvetica,sans-Serif" font-size="10.00">TrackContainer</text>
</a>
</g>
</g>
<!-- Node0&#45;&gt;Node2 -->
<g id="edge275_Node000000_Node000002" class="edge">
<title>Node0&#45;&gt;Node2</title>
<g id="a_edge275_Node000000_Node000002"><a xlink:title=" ">
<path fill="none" stroke="#63b8ff" d="M198.16,-28.32C214.06,-26.55 230.31,-24.73 245.49,-23.04"/>
<polygon fill="#63b8ff" stroke="#63b8ff" points="197.33,-24.89 187.78,-29.48 198.11,-31.85 197.33,-24.89"/>
</a>
</g>
</g>
</g>
</svg>
