<?xml version="1.0" encoding="UTF-8" standalone="no"?>
<!DOCTYPE svg PUBLIC "-//W3C//DTD SVG 1.1//EN"
 "http://www.w3.org/Graphics/SVG/1.1/DTD/svg11.dtd">
<!-- Generated by graphviz version 2.43.0 (0)
 -->
<!-- Title: Graphical Class Hierarchy Pages: 1 -->
<svg width="352pt" height="134pt"
 viewBox="0.00 0.00 352.00 134.00" xmlns="http://www.w3.org/2000/svg" xmlns:xlink="http://www.w3.org/1999/xlink">
<g id="graph0" class="graph" transform="scale(1 1) rotate(0) translate(4 130)">
<title>Graphical Class Hierarchy</title>
<!-- Node0 -->
<g id="Node000000" class="node">
<title>Node0</title>
<g id="a_Node000000"><a xlink:href="class_acts_1_1_track_state_proxy_common.html" target="_top" xlink:title=" ">
<polygon fill="white" stroke="#666666" points="167,-83.5 0,-83.5 0,-42.5 167,-42.5 167,-83.5"/>
<text text-anchor="start" x="8" y="-71.5" font-family="Helvetica,sans-Serif" font-size="10.00">Acts::TrackStateProxyCommon</text>
<text text-anchor="start" x="8" y="-60.5" font-family="Helvetica,sans-Serif" font-size="10.00">&lt; AnyTrackStateProxy&lt; read</text>
<text text-anchor="middle" x="83.5" y="-49.5" font-family="Helvetica,sans-Serif" font-size="10.00">_only &gt;, read_only &gt;</text>
</a>
</g>
</g>
<!-- Node1 -->
<g id="Node000001" class="node">
<title>Node1</title>
<g id="a_Node000001"><a xlink:href="class_acts_1_1_any_track_state_proxy.html" target="_top" xlink:title=" ">
<polygon fill="white" stroke="#666666" points="344,-126 203,-126 203,-96 344,-96 344,-126"/>
<text text-anchor="start" x="211" y="-114" font-family="Helvetica,sans-Serif" font-size="10.00">Acts::AnyTrackStateProxy</text>
<text text-anchor="middle" x="273.5" y="-103" font-family="Helvetica,sans-Serif" font-size="10.00">&lt; false &gt;</text>
</a>
</g>
</g>
<!-- Node0&#45;&gt;Node1 -->
<g id="edge236_Node000000_Node000001" class="edge">
<title>Node0&#45;&gt;Node1</title>
<g id="a_edge236_Node000000_Node000001"><a xlink:title=" ">
<path fill="none" stroke="#63b8ff" d="M175.06,-86.12C188.2,-89.48 201.42,-92.85 213.71,-95.99"/>
<polygon fill="#63b8ff" stroke="#63b8ff" points="175.6,-82.65 165.05,-83.57 173.87,-89.43 175.6,-82.65"/>
</a>
</g>
</g>
<!-- Node2 -->
<g id="Node000002" class="node">
<title>Node2</title>
<g id="a_Node000002"><a xlink:href="class_acts_1_1_any_track_state_proxy.html" target="_top" xlink:title=" ">
<polygon fill="white" stroke="#666666" points="344,-78 203,-78 203,-48 344,-48 344,-78"/>
<text text-anchor="start" x="211" y="-66" font-family="Helvetica,sans-Serif" font-size="10.00">Acts::AnyTrackStateProxy</text>
<text text-anchor="middle" x="273.5" y="-55" font-family="Helvetica,sans-Serif" font-size="10.00">&lt; true &gt;</text>
</a>
</g>
</g>
<!-- Node0&#45;&gt;Node2 -->
<g id="edge237_Node000000_Node000002" class="edge">
<title>Node0&#45;&gt;Node2</title>
<g id="a_edge237_Node000000_Node000002"><a xlink:title=" ">
<path fill="none" stroke="#63b8ff" d="M177.33,-63C185.95,-63 194.59,-63 202.95,-63"/>
<polygon fill="#63b8ff" stroke="#63b8ff" points="177.23,-59.5 167.23,-63 177.23,-66.5 177.23,-59.5"/>
</a>
</g>
</g>
<!-- Node3 -->
<g id="Node000003" class="node">
<title>Node3</title>
<g id="a_Node000003"><a xlink:href="class_acts_1_1_any_track_state_proxy.html" target="_top" xlink:title=" ">
<polygon fill="white" stroke="#666666" points="344,-30 203,-30 203,0 344,0 344,-30"/>
<text text-anchor="start" x="211" y="-18" font-family="Helvetica,sans-Serif" font-size="10.00">Acts::AnyTrackStateProxy</text>
<text text-anchor="middle" x="273.5" y="-7" font-family="Helvetica,sans-Serif" font-size="10.00">&lt; read_only &gt;</text>
</a>
</g>
</g>
<!-- Node0&#45;&gt;Node3 -->
<g id="edge238_Node000000_Node000003" class="edge">
<title>Node0&#45;&gt;Node3</title>
<g id="a_edge238_Node000000_Node000003"><a xlink:title=" ">
<path fill="none" stroke="#63b8ff" d="M175.06,-39.88C188.2,-36.52 201.42,-33.15 213.71,-30.01"/>
<polygon fill="#63b8ff" stroke="#63b8ff" points="173.87,-36.57 165.05,-42.43 175.6,-43.35 173.87,-36.57"/>
</a>
</g>
</g>
</g>
</svg>
