<?xml version="1.0" encoding="UTF-8" standalone="no"?>
<!DOCTYPE svg PUBLIC "-//W3C//DTD SVG 1.1//EN"
 "http://www.w3.org/Graphics/SVG/1.1/DTD/svg11.dtd">
<!-- Generated by graphviz version 2.43.0 (0)
 -->
<!-- Title: Graphical Class Hierarchy Pages: 1 -->
<svg width="363pt" height="134pt"
 viewBox="0.00 0.00 363.00 134.00" xmlns="http://www.w3.org/2000/svg" xmlns:xlink="http://www.w3.org/1999/xlink">
<g id="graph0" class="graph" transform="scale(1 1) rotate(0) translate(4 130)">
<title>Graphical Class Hierarchy</title>
<!-- Node0 -->
<g id="Node000000" class="node">
<title>Node0</title>
<g id="a_Node000000"><a xlink:href="class_acts_1_1_track_state_type_base.html" target="_top" xlink:title=" ">
<polygon fill="white" stroke="#666666" points="181,-83.5 0,-83.5 0,-42.5 181,-42.5 181,-83.5"/>
<text text-anchor="start" x="8" y="-71.5" font-family="Helvetica,sans-Serif" font-size="10.00">Acts::TrackStateTypeBase</text>
<text text-anchor="start" x="8" y="-60.5" font-family="Helvetica,sans-Serif" font-size="10.00">&lt; TrackStateTypeMap&lt; ReadOnly</text>
<text text-anchor="middle" x="90.5" y="-49.5" font-family="Helvetica,sans-Serif" font-size="10.00"> &gt;, ReadOnly &gt;</text>
</a>
</g>
</g>
<!-- Node1 -->
<g id="Node000001" class="node">
<title>Node1</title>
<g id="a_Node000001"><a xlink:href="class_acts_1_1_track_state_type_map.html" target="_top" xlink:title=" ">
<polygon fill="white" stroke="#666666" points="355,-126 217,-126 217,-96 355,-96 355,-126"/>
<text text-anchor="start" x="225" y="-114" font-family="Helvetica,sans-Serif" font-size="10.00">Acts::TrackStateTypeMap</text>
<text text-anchor="middle" x="286" y="-103" font-family="Helvetica,sans-Serif" font-size="10.00">&lt; false &gt;</text>
</a>
</g>
</g>
<!-- Node0&#45;&gt;Node1 -->
<g id="edge245_Node000000_Node000001" class="edge">
<title>Node0&#45;&gt;Node1</title>
<g id="a_edge245_Node000000_Node000001"><a xlink:title=" ">
<path fill="none" stroke="#63b8ff" d="M184.31,-86.02C197.96,-89.41 211.72,-92.82 224.49,-95.99"/>
<polygon fill="#63b8ff" stroke="#63b8ff" points="184.95,-82.58 174.4,-83.57 183.27,-89.37 184.95,-82.58"/>
</a>
</g>
</g>
<!-- Node2 -->
<g id="Node000002" class="node">
<title>Node2</title>
<g id="a_Node000002"><a xlink:href="class_acts_1_1_track_state_type_map.html" target="_top" xlink:title=" ">
<polygon fill="white" stroke="#666666" points="355,-78 217,-78 217,-48 355,-48 355,-78"/>
<text text-anchor="start" x="225" y="-66" font-family="Helvetica,sans-Serif" font-size="10.00">Acts::TrackStateTypeMap</text>
<text text-anchor="middle" x="286" y="-55" font-family="Helvetica,sans-Serif" font-size="10.00">&lt; true &gt;</text>
</a>
</g>
</g>
<!-- Node0&#45;&gt;Node2 -->
<g id="edge246_Node000000_Node000002" class="edge">
<title>Node0&#45;&gt;Node2</title>
<g id="a_edge246_Node000000_Node000002"><a xlink:title=" ">
<path fill="none" stroke="#63b8ff" d="M191.28,-63C199.89,-63 208.48,-63 216.75,-63"/>
<polygon fill="#63b8ff" stroke="#63b8ff" points="191.17,-59.5 181.17,-63 191.17,-66.5 191.17,-59.5"/>
</a>
</g>
</g>
<!-- Node3 -->
<g id="Node000003" class="node">
<title>Node3</title>
<g id="a_Node000003"><a xlink:href="class_acts_1_1_track_state_type_map.html" target="_top" xlink:title="TrackStateTypeBase mapped to external storage.">
<polygon fill="white" stroke="#666666" points="355,-30 217,-30 217,0 355,0 355,-30"/>
<text text-anchor="start" x="225" y="-18" font-family="Helvetica,sans-Serif" font-size="10.00">Acts::TrackStateTypeMap</text>
<text text-anchor="middle" x="286" y="-7" font-family="Helvetica,sans-Serif" font-size="10.00">&lt; ReadOnly &gt;</text>
</a>
</g>
</g>
<!-- Node0&#45;&gt;Node3 -->
<g id="edge247_Node000000_Node000003" class="edge">
<title>Node0&#45;&gt;Node3</title>
<g id="a_edge247_Node000000_Node000003"><a xlink:title=" ">
<path fill="none" stroke="#63b8ff" d="M184.31,-39.98C197.96,-36.59 211.72,-33.18 224.49,-30.01"/>
<polygon fill="#63b8ff" stroke="#63b8ff" points="183.27,-36.63 174.4,-42.43 184.95,-43.42 183.27,-36.63"/>
</a>
</g>
</g>
</g>
</svg>
