<?xml version="1.0" encoding="UTF-8" standalone="no"?>
<!DOCTYPE svg PUBLIC "-//W3C//DTD SVG 1.1//EN"
 "http://www.w3.org/Graphics/SVG/1.1/DTD/svg11.dtd">
<!-- Generated by graphviz version 2.43.0 (0)
 -->
<!-- Title: Graphical Class Hierarchy Pages: 1 -->
<svg width="344pt" height="86pt"
 viewBox="0.00 0.00 344.00 86.00" xmlns="http://www.w3.org/2000/svg" xmlns:xlink="http://www.w3.org/1999/xlink">
<g id="graph0" class="graph" transform="scale(1 1) rotate(0) translate(4 82)">
<title>Graphical Class Hierarchy</title>
<!-- Node0 -->
<g id="Node000000" class="node">
<title>Node0</title>
<g id="a_Node000000"><a xlink:title=" ">
<polygon fill="#e0e0e0" stroke="#999999" points="129,-54 0,-54 0,-24 129,-24 129,-54"/>
<text text-anchor="start" x="8" y="-42" font-family="Helvetica,sans-Serif" font-size="10.00">propagator_t::template</text>
<text text-anchor="middle" x="64.5" y="-31" font-family="Helvetica,sans-Serif" font-size="10.00"> Options</text>
</a>
</g>
</g>
<!-- Node1 -->
<g id="Node000001" class="node">
<title>Node1</title>
<g id="a_Node000001"><a xlink:href="struct_acts_1_1_ridders_propagator_options.html" target="_top" xlink:title=" ">
<polygon fill="white" stroke="#666666" points="336,-78 165,-78 165,-48 336,-48 336,-78"/>
<text text-anchor="start" x="173" y="-66" font-family="Helvetica,sans-Serif" font-size="10.00">Acts::RiddersPropagatorOptions</text>
<text text-anchor="middle" x="250.5" y="-55" font-family="Helvetica,sans-Serif" font-size="10.00">&lt; propagator_t, actor_list_t &gt;</text>
</a>
</g>
</g>
<!-- Node0&#45;&gt;Node1 -->
<g id="edge281_Node000000_Node000001" class="edge">
<title>Node0&#45;&gt;Node1</title>
<g id="a_edge281_Node000000_Node000001"><a xlink:title=" ">
<path fill="none" stroke="#63b8ff" d="M139.22,-48.62C147.64,-49.71 156.28,-50.84 164.82,-51.96"/>
<polygon fill="#63b8ff" stroke="#63b8ff" points="139.45,-45.12 129.08,-47.29 138.54,-52.06 139.45,-45.12"/>
</a>
</g>
</g>
<!-- Node2 -->
<g id="Node000002" class="node">
<title>Node2</title>
<g id="a_Node000002"><a xlink:href="struct_acts_1_1_ridders_propagator_options.html" target="_top" xlink:title=" ">
<polygon fill="white" stroke="#666666" points="336,-30 165,-30 165,0 336,0 336,-30"/>
<text text-anchor="start" x="173" y="-18" font-family="Helvetica,sans-Serif" font-size="10.00">Acts::RiddersPropagatorOptions</text>
<text text-anchor="middle" x="250.5" y="-7" font-family="Helvetica,sans-Serif" font-size="10.00">&lt; propagator_t, actor_list_t &gt;</text>
</a>
</g>
</g>
<!-- Node0&#45;&gt;Node2 -->
<g id="edge282_Node000000_Node000002" class="edge">
<title>Node0&#45;&gt;Node2</title>
<g id="a_edge282_Node000000_Node000002"><a xlink:title=" ">
<path fill="none" stroke="#63b8ff" d="M139.22,-29.38C147.64,-28.29 156.28,-27.16 164.82,-26.04"/>
<polygon fill="#63b8ff" stroke="#63b8ff" points="138.54,-25.94 129.08,-30.71 139.45,-32.88 138.54,-25.94"/>
</a>
</g>
</g>
</g>
</svg>
