<?xml version="1.0" encoding="UTF-8" standalone="no"?>
<!DOCTYPE svg PUBLIC "-//W3C//DTD SVG 1.1//EN"
 "http://www.w3.org/Graphics/SVG/1.1/DTD/svg11.dtd">
<!-- Generated by graphviz version 2.43.0 (0)
 -->
<!-- Title: Graphical Class Hierarchy Pages: 1 -->
<svg width="385pt" height="134pt"
 viewBox="0.00 0.00 385.00 134.00" xmlns="http://www.w3.org/2000/svg" xmlns:xlink="http://www.w3.org/1999/xlink">
<g id="graph0" class="graph" transform="scale(1 1) rotate(0) translate(4 130)">
<title>Graphical Class Hierarchy</title>
<!-- Node0 -->
<g id="Node000000" class="node">
<title>Node0</title>
<g id="a_Node000000"><a xlink:href="class_acts_plugins_1_1_i_geant4_physical_volume_selector.html" target="_top" xlink:title="Interface class for selectors from physical volumes.">
<polygon fill="white" stroke="#666666" points="158,-78 0,-78 0,-48 158,-48 158,-78"/>
<text text-anchor="start" x="8" y="-66" font-family="Helvetica,sans-Serif" font-size="10.00">ActsPlugins::IGeant4Physical</text>
<text text-anchor="middle" x="79" y="-55" font-family="Helvetica,sans-Serif" font-size="10.00">VolumeSelector</text>
</a>
</g>
</g>
<!-- Node1 -->
<g id="Node000001" class="node">
<title>Node1</title>
<g id="a_Node000001"><a xlink:href="struct_acts_plugins_1_1_geant4_physical_volume_selectors_1_1_all_selector.html" target="_top" xlink:title="Struct that selects all G4VPhysicalVolume objects.">
<polygon fill="white" stroke="#666666" points="364,-126 207,-126 207,-96 364,-96 364,-126"/>
<text text-anchor="start" x="215" y="-114" font-family="Helvetica,sans-Serif" font-size="10.00">ActsPlugins::Geant4Physical</text>
<text text-anchor="middle" x="285.5" y="-103" font-family="Helvetica,sans-Serif" font-size="10.00">VolumeSelectors::AllSelector</text>
</a>
</g>
</g>
<!-- Node0&#45;&gt;Node1 -->
<g id="edge269_Node000000_Node000001" class="edge">
<title>Node0&#45;&gt;Node1</title>
<g id="a_edge269_Node000000_Node000001"><a xlink:title=" ">
<path fill="none" stroke="#63b8ff" d="M154.01,-80.37C175.81,-85.49 199.47,-91.04 220.58,-96"/>
<polygon fill="#63b8ff" stroke="#63b8ff" points="154.68,-76.93 144.14,-78.06 153.08,-83.75 154.68,-76.93"/>
</a>
</g>
</g>
<!-- Node2 -->
<g id="Node000002" class="node">
<title>Node2</title>
<g id="a_Node000002"><a xlink:href="struct_acts_plugins_1_1_geant4_physical_volume_selectors_1_1_name_selector.html" target="_top" xlink:title="Struct that selects G4VPhysicalVolume objects that match one of the provided names,...">
<polygon fill="white" stroke="#666666" points="372,-78 199,-78 199,-48 372,-48 372,-78"/>
<text text-anchor="start" x="207" y="-66" font-family="Helvetica,sans-Serif" font-size="10.00">ActsPlugins::Geant4Physical</text>
<text text-anchor="middle" x="285.5" y="-55" font-family="Helvetica,sans-Serif" font-size="10.00">VolumeSelectors::NameSelector</text>
</a>
</g>
</g>
<!-- Node0&#45;&gt;Node2 -->
<g id="edge270_Node000000_Node000002" class="edge">
<title>Node0&#45;&gt;Node2</title>
<g id="a_edge270_Node000000_Node000002"><a xlink:title=" ">
<path fill="none" stroke="#63b8ff" d="M168.26,-63C178.41,-63 188.75,-63 198.86,-63"/>
<polygon fill="#63b8ff" stroke="#63b8ff" points="168.19,-59.5 158.19,-63 168.19,-66.5 168.19,-59.5"/>
</a>
</g>
</g>
<!-- Node3 -->
<g id="Node000003" class="node">
<title>Node3</title>
<g id="a_Node000003"><a xlink:href="struct_acts_plugins_1_1_geant4_physical_volume_selectors_1_1_position_selector.html" target="_top" xlink:title="Struct that selects G4VPhysicalVolume objects based on the allowed range of their position.">
<polygon fill="white" stroke="#666666" points="377,-30 194,-30 194,0 377,0 377,-30"/>
<text text-anchor="start" x="202" y="-18" font-family="Helvetica,sans-Serif" font-size="10.00">ActsPlugins::Geant4Physical</text>
<text text-anchor="middle" x="285.5" y="-7" font-family="Helvetica,sans-Serif" font-size="10.00">VolumeSelectors::PositionSelector</text>
</a>
</g>
</g>
<!-- Node0&#45;&gt;Node3 -->
<g id="edge271_Node000000_Node000003" class="edge">
<title>Node0&#45;&gt;Node3</title>
<g id="a_edge271_Node000000_Node000003"><a xlink:title=" ">
<path fill="none" stroke="#63b8ff" d="M154.01,-45.63C175.81,-40.51 199.47,-34.96 220.58,-30"/>
<polygon fill="#63b8ff" stroke="#63b8ff" points="153.08,-42.25 144.14,-47.94 154.68,-49.07 153.08,-42.25"/>
</a>
</g>
</g>
</g>
</svg>
