<?xml version="1.0" encoding="UTF-8" standalone="no"?>
<!DOCTYPE svg PUBLIC "-//W3C//DTD SVG 1.1//EN"
 "http://www.w3.org/Graphics/SVG/1.1/DTD/svg11.dtd">
<!-- Generated by graphviz version 2.43.0 (0)
 -->
<!-- Title: Graphical Class Hierarchy Pages: 1 -->
<svg width="407pt" height="134pt"
 viewBox="0.00 0.00 407.00 134.00" xmlns="http://www.w3.org/2000/svg" xmlns:xlink="http://www.w3.org/1999/xlink">
<g id="graph0" class="graph" transform="scale(1 1) rotate(0) translate(4 130)">
<title>Graphical Class Hierarchy</title>
<!-- Node0 -->
<g id="Node000000" class="node">
<title>Node0</title>
<g id="a_Node000000"><a xlink:href="class_acts_1_1_multi_trajectory.html" target="_top" xlink:title=" ">
<polygon fill="white" stroke="#666666" points="198,-126 6,-126 6,-96 198,-96 198,-126"/>
<text text-anchor="start" x="14" y="-114" font-family="Helvetica,sans-Serif" font-size="10.00">Acts::MultiTrajectory</text>
<text text-anchor="middle" x="102" y="-103" font-family="Helvetica,sans-Serif" font-size="10.00">&lt; ConstPodioTrackStateContainer &gt;</text>
</a>
</g>
</g>
<!-- Node1 -->
<g id="Node000001" class="node">
<title>Node1</title>
<g id="a_Node000001"><a xlink:href="class_acts_plugins_1_1_const_podio_track_state_container.html" target="_top" xlink:title=" ">
<polygon fill="white" stroke="#666666" points="399,-102 240,-102 240,-72 399,-72 399,-102"/>
<text text-anchor="start" x="248" y="-90" font-family="Helvetica,sans-Serif" font-size="10.00">ActsPlugins::ConstPodioTrack</text>
<text text-anchor="middle" x="319.5" y="-79" font-family="Helvetica,sans-Serif" font-size="10.00">StateContainer</text>
</a>
</g>
</g>
<!-- Node0&#45;&gt;Node1 -->
<g id="edge184_Node000000_Node000001" class="edge">
<title>Node0&#45;&gt;Node1</title>
<g id="a_edge184_Node000000_Node000001"><a xlink:title=" ">
<path fill="none" stroke="#63b8ff" d="M208.34,-99.27C219,-98.08 229.69,-96.89 239.99,-95.74"/>
<polygon fill="#63b8ff" stroke="#63b8ff" points="207.7,-95.82 198.15,-100.4 208.47,-102.77 207.7,-95.82"/>
</a>
</g>
</g>
<!-- Node4 -->
<g id="Node000004" class="node">
<title>Node4</title>
<g id="a_Node000004"><a xlink:href="class_acts_1_1_multi_trajectory.html" target="_top" xlink:title=" ">
<polygon fill="white" stroke="#666666" points="204,-30 0,-30 0,0 204,0 204,-30"/>
<text text-anchor="start" x="8" y="-18" font-family="Helvetica,sans-Serif" font-size="10.00">Acts::MultiTrajectory</text>
<text text-anchor="middle" x="102" y="-7" font-family="Helvetica,sans-Serif" font-size="10.00">&lt; MutablePodioTrackStateContainer &gt;</text>
</a>
</g>
</g>
<!-- Node3 -->
<g id="Node000003" class="node">
<title>Node3</title>
<g id="a_Node000003"><a xlink:href="class_acts_plugins_1_1_mutable_podio_track_state_container.html" target="_top" xlink:title=" ">
<polygon fill="white" stroke="#666666" points="392.5,-42 246.5,-42 246.5,-12 392.5,-12 392.5,-42"/>
<text text-anchor="start" x="254.5" y="-30" font-family="Helvetica,sans-Serif" font-size="10.00">ActsPlugins::MutablePodio</text>
<text text-anchor="middle" x="319.5" y="-19" font-family="Helvetica,sans-Serif" font-size="10.00">TrackStateContainer</text>
</a>
</g>
</g>
<!-- Node4&#45;&gt;Node3 -->
<g id="edge185_Node000004_Node000003" class="edge">
<title>Node4&#45;&gt;Node3</title>
<g id="a_edge185_Node000004_Node000003"><a xlink:title=" ">
<path fill="none" stroke="#63b8ff" d="M214.13,-21.19C225.03,-21.8 235.88,-22.4 246.24,-22.98"/>
<polygon fill="#63b8ff" stroke="#63b8ff" points="214.3,-17.69 204.12,-20.63 213.91,-24.68 214.3,-17.69"/>
</a>
</g>
</g>
<!-- Node2 -->
<g id="Node000002" class="node">
<title>Node2</title>
<g id="a_Node000002"><a xlink:href="class_acts_plugins_1_1_podio_track_state_container_base.html" target="_top" xlink:title=" ">
<polygon fill="white" stroke="#666666" points="180.5,-78 23.5,-78 23.5,-48 180.5,-48 180.5,-78"/>
<text text-anchor="start" x="31.5" y="-66" font-family="Helvetica,sans-Serif" font-size="10.00">ActsPlugins::PodioTrackState</text>
<text text-anchor="middle" x="102" y="-55" font-family="Helvetica,sans-Serif" font-size="10.00">ContainerBase</text>
</a>
</g>
</g>
<!-- Node2&#45;&gt;Node1 -->
<g id="edge186_Node000002_Node000001" class="edge">
<title>Node2&#45;&gt;Node1</title>
<g id="a_edge186_Node000002_Node000001"><a xlink:title=" ">
<path fill="none" stroke="#63b8ff" d="M190.79,-72.78C206.99,-74.58 223.82,-76.46 239.73,-78.23"/>
<polygon fill="#63b8ff" stroke="#63b8ff" points="191.13,-69.29 180.8,-71.66 190.35,-76.25 191.13,-69.29"/>
</a>
</g>
</g>
<!-- Node2&#45;&gt;Node3 -->
<g id="edge187_Node000002_Node000003" class="edge">
<title>Node2&#45;&gt;Node3</title>
<g id="a_edge187_Node000002_Node000003"><a xlink:title=" ">
<path fill="none" stroke="#63b8ff" d="M190.91,-48.31C209.29,-45.24 228.47,-42.04 246.2,-39.08"/>
<polygon fill="#63b8ff" stroke="#63b8ff" points="190.09,-44.9 180.8,-50 191.24,-51.81 190.09,-44.9"/>
</a>
</g>
</g>
</g>
</svg>
