<?xml version="1.0" encoding="UTF-8" standalone="no"?>
<!DOCTYPE svg PUBLIC "-//W3C//DTD SVG 1.1//EN"
 "http://www.w3.org/Graphics/SVG/1.1/DTD/svg11.dtd">
<!-- Generated by graphviz version 2.43.0 (0)
 -->
<!-- Title: Graphical Class Hierarchy Pages: 1 -->
<svg width="350pt" height="86pt"
 viewBox="0.00 0.00 350.00 86.00" xmlns="http://www.w3.org/2000/svg" xmlns:xlink="http://www.w3.org/1999/xlink">
<g id="graph0" class="graph" transform="scale(1 1) rotate(0) translate(4 82)">
<title>Graphical Class Hierarchy</title>
<!-- Node0 -->
<g id="Node000000" class="node">
<title>Node0</title>
<g id="a_Node000000"><a xlink:href="struct_acts_1_1_try_all_navigator_base_1_1_state.html" target="_top" xlink:title="Nested State struct.">
<polygon fill="white" stroke="#666666" points="143,-54 0,-54 0,-24 143,-24 143,-54"/>
<text text-anchor="start" x="8" y="-42" font-family="Helvetica,sans-Serif" font-size="10.00">Acts::TryAllNavigatorBase</text>
<text text-anchor="middle" x="71.5" y="-31" font-family="Helvetica,sans-Serif" font-size="10.00">::State</text>
</a>
</g>
</g>
<!-- Node1 -->
<g id="Node000001" class="node">
<title>Node1</title>
<g id="a_Node000001"><a xlink:href="struct_acts_1_1_try_all_navigator_1_1_state.html" target="_top" xlink:title="Nested State struct.">
<polygon fill="white" stroke="#666666" points="320,-78 201,-78 201,-48 320,-48 320,-78"/>
<text text-anchor="start" x="209" y="-66" font-family="Helvetica,sans-Serif" font-size="10.00">Acts::TryAllNavigator</text>
<text text-anchor="middle" x="260.5" y="-55" font-family="Helvetica,sans-Serif" font-size="10.00">::State</text>
</a>
</g>
</g>
<!-- Node0&#45;&gt;Node1 -->
<g id="edge251_Node000000_Node000001" class="edge">
<title>Node0&#45;&gt;Node1</title>
<g id="a_edge251_Node000000_Node000001"><a xlink:title=" ">
<path fill="none" stroke="#63b8ff" d="M153.57,-49.4C169.48,-51.45 185.89,-53.55 200.89,-55.48"/>
<polygon fill="#63b8ff" stroke="#63b8ff" points="153.56,-45.87 143.2,-48.07 152.67,-52.82 153.56,-45.87"/>
</a>
</g>
</g>
<!-- Node2 -->
<g id="Node000002" class="node">
<title>Node2</title>
<g id="a_Node000002"><a xlink:href="struct_acts_1_1_try_all_overstep_navigator_1_1_state.html" target="_top" xlink:title="Nested State struct.">
<polygon fill="white" stroke="#666666" points="342,-30 179,-30 179,0 342,0 342,-30"/>
<text text-anchor="start" x="187" y="-18" font-family="Helvetica,sans-Serif" font-size="10.00">Acts::TryAllOverstepNavigator</text>
<text text-anchor="middle" x="260.5" y="-7" font-family="Helvetica,sans-Serif" font-size="10.00">::State</text>
</a>
</g>
</g>
<!-- Node0&#45;&gt;Node2 -->
<g id="edge252_Node000000_Node000002" class="edge">
<title>Node0&#45;&gt;Node2</title>
<g id="a_edge252_Node000000_Node000002"><a xlink:title=" ">
<path fill="none" stroke="#63b8ff" d="M153.16,-28.65C161.72,-27.55 170.43,-26.43 178.98,-25.33"/>
<polygon fill="#63b8ff" stroke="#63b8ff" points="152.67,-25.18 143.2,-29.93 153.56,-32.13 152.67,-25.18"/>
</a>
</g>
</g>
</g>
</svg>
