<?xml version="1.0" encoding="UTF-8" standalone="no"?>
<!DOCTYPE svg PUBLIC "-//W3C//DTD SVG 1.1//EN"
 "http://www.w3.org/Graphics/SVG/1.1/DTD/svg11.dtd">
<!-- Generated by graphviz version 2.43.0 (0)
 -->
<!-- Title: Graphical Class Hierarchy Pages: 1 -->
<svg width="289pt" height="98pt"
 viewBox="0.00 0.00 289.00 97.50" xmlns="http://www.w3.org/2000/svg" xmlns:xlink="http://www.w3.org/1999/xlink">
<g id="graph0" class="graph" transform="scale(1 1) rotate(0) translate(4 93.5)">
<title>Graphical Class Hierarchy</title>
<!-- Node0 -->
<g id="Node000000" class="node">
<title>Node0</title>
<g id="a_Node000000"><a xlink:href="struct_acts_1_1_surface_array_1_1_i_surface_grid_lookup.html" target="_top" xlink:title="Base interface for all surface lookups.">
<polygon fill="white" stroke="#666666" points="117,-62.5 0,-62.5 0,-32.5 117,-32.5 117,-62.5"/>
<text text-anchor="start" x="8" y="-50.5" font-family="Helvetica,sans-Serif" font-size="10.00">Acts::SurfaceArray</text>
<text text-anchor="middle" x="58.5" y="-39.5" font-family="Helvetica,sans-Serif" font-size="10.00">::ISurfaceGridLookup</text>
</a>
</g>
</g>
<!-- Node1 -->
<g id="Node000001" class="node">
<title>Node1</title>
<g id="a_Node000001"><a xlink:href="struct_acts_1_1_surface_array_1_1_single_element_lookup.html" target="_top" xlink:title="Lookup implementation which wraps one element and always returns this element when lookup is called.">
<polygon fill="white" stroke="#666666" points="281,-89.5 153,-89.5 153,-59.5 281,-59.5 281,-89.5"/>
<text text-anchor="start" x="161" y="-77.5" font-family="Helvetica,sans-Serif" font-size="10.00">Acts::SurfaceArray</text>
<text text-anchor="middle" x="217" y="-66.5" font-family="Helvetica,sans-Serif" font-size="10.00">::SingleElementLookup</text>
</a>
</g>
</g>
<!-- Node0&#45;&gt;Node1 -->
<g id="edge208_Node000000_Node000001" class="edge">
<title>Node0&#45;&gt;Node1</title>
<g id="a_edge208_Node000000_Node000001"><a xlink:title=" ">
<path fill="none" stroke="#63b8ff" d="M127.23,-59.18C135.75,-60.65 144.44,-62.15 152.88,-63.61"/>
<polygon fill="#63b8ff" stroke="#63b8ff" points="127.78,-55.73 117.33,-57.48 126.59,-62.63 127.78,-55.73"/>
</a>
</g>
</g>
<!-- Node2 -->
<g id="Node000002" class="node">
<title>Node2</title>
<g id="a_Node000002"><a xlink:href="struct_acts_1_1_surface_array_1_1_surface_grid_lookup.html" target="_top" xlink:title="Lookup helper which encapsulates a Grid.">
<polygon fill="white" stroke="#666666" points="274,-41 160,-41 160,0 274,0 274,-41"/>
<text text-anchor="start" x="168" y="-29" font-family="Helvetica,sans-Serif" font-size="10.00">Acts::SurfaceArray</text>
<text text-anchor="start" x="168" y="-18" font-family="Helvetica,sans-Serif" font-size="10.00">::SurfaceGridLookup</text>
<text text-anchor="middle" x="217" y="-7" font-family="Helvetica,sans-Serif" font-size="10.00">&lt; Axis1, Axis2 &gt;</text>
</a>
</g>
</g>
<!-- Node0&#45;&gt;Node2 -->
<g id="edge209_Node000000_Node000002" class="edge">
<title>Node0&#45;&gt;Node2</title>
<g id="a_edge209_Node000000_Node000002"><a xlink:title=" ">
<path fill="none" stroke="#63b8ff" d="M127.25,-35.81C138.17,-33.93 149.37,-32 159.97,-30.17"/>
<polygon fill="#63b8ff" stroke="#63b8ff" points="126.59,-32.37 117.33,-37.52 127.78,-39.27 126.59,-32.37"/>
</a>
</g>
</g>
</g>
</svg>
