<?xml version="1.0" encoding="UTF-8" standalone="no"?>
<!DOCTYPE svg PUBLIC "-//W3C//DTD SVG 1.1//EN"
 "http://www.w3.org/Graphics/SVG/1.1/DTD/svg11.dtd">
<!-- Generated by graphviz version 2.43.0 (0)
 -->
<!-- Title: Graphical Class Hierarchy Pages: 1 -->
<svg width="367pt" height="450pt"
 viewBox="0.00 0.00 367.00 449.50" xmlns="http://www.w3.org/2000/svg" xmlns:xlink="http://www.w3.org/1999/xlink">
<g id="graph0" class="graph" transform="scale(1 1) rotate(0) translate(4 445.5)">
<title>Graphical Class Hierarchy</title>
<!-- Node0 -->
<g id="Node000000" class="node">
<title>Node0</title>
<g id="a_Node000000"><a xlink:href="class_acts_1_1_i_navigation_policy.html" target="_top" xlink:title="Base class for all navigation policies.">
<polygon fill="white" stroke="#666666" points="129,-220 0,-220 0,-201 129,-201 129,-220"/>
<text text-anchor="middle" x="64.5" y="-208" font-family="Helvetica,sans-Serif" font-size="10.00">Acts::INavigationPolicy</text>
</a>
</g>
</g>
<!-- Node1 -->
<g id="Node000001" class="node">
<title>Node1</title>
<g id="a_Node000001"><a xlink:href="class_acts_1_1_index_grid_navigation_policy.html" target="_top" xlink:title=" ">
<polygon fill="white" stroke="#666666" points="359,-441.5 165,-441.5 165,-411.5 359,-411.5 359,-441.5"/>
<text text-anchor="start" x="173" y="-429.5" font-family="Helvetica,sans-Serif" font-size="10.00">Acts::IndexGridNavigation</text>
<text text-anchor="middle" x="262" y="-418.5" font-family="Helvetica,sans-Serif" font-size="10.00">Policy&lt; RegularCylinderIndexGrid &gt;</text>
</a>
</g>
</g>
<!-- Node0&#45;&gt;Node1 -->
<g id="edge121_Node000000_Node000001" class="edge">
<title>Node0&#45;&gt;Node1</title>
<g id="a_edge121_Node000000_Node000001"><a xlink:title=" ">
<path fill="none" stroke="#63b8ff" d="M69.94,-230.16C79.84,-269.29 107.51,-357.06 165,-402.5 169.31,-405.91 174.05,-408.84 179.03,-411.36"/>
<polygon fill="#63b8ff" stroke="#63b8ff" points="73.31,-229.19 67.57,-220.29 66.5,-230.83 73.31,-229.19"/>
</a>
</g>
</g>
<!-- Node2 -->
<g id="Node000002" class="node">
<title>Node2</title>
<g id="a_Node000002"><a xlink:href="class_acts_1_1_index_grid_navigation_policy.html" target="_top" xlink:title=" ">
<polygon fill="white" stroke="#666666" points="349.5,-393.5 174.5,-393.5 174.5,-363.5 349.5,-363.5 349.5,-393.5"/>
<text text-anchor="start" x="182.5" y="-381.5" font-family="Helvetica,sans-Serif" font-size="10.00">Acts::IndexGridNavigation</text>
<text text-anchor="middle" x="262" y="-370.5" font-family="Helvetica,sans-Serif" font-size="10.00">Policy&lt; RegularRingIndexGrid &gt;</text>
</a>
</g>
</g>
<!-- Node0&#45;&gt;Node2 -->
<g id="edge122_Node000000_Node000002" class="edge">
<title>Node0&#45;&gt;Node2</title>
<g id="a_edge122_Node000000_Node000002"><a xlink:title=" ">
<path fill="none" stroke="#63b8ff" d="M73.33,-229.71C87.07,-260.9 118.54,-322.33 165,-354.5 169.94,-357.92 175.33,-360.86 180.95,-363.38"/>
<polygon fill="#63b8ff" stroke="#63b8ff" points="76.49,-228.2 69.36,-220.37 70.05,-230.94 76.49,-228.2"/>
</a>
</g>
</g>
<!-- Node3 -->
<g id="Node000003" class="node">
<title>Node3</title>
<g id="a_Node000003"><a xlink:href="class_acts_1_1_index_grid_navigation_policy.html" target="_top" xlink:title=" ">
<polygon fill="white" stroke="#666666" points="349,-345.5 175,-345.5 175,-315.5 349,-315.5 349,-345.5"/>
<text text-anchor="start" x="183" y="-333.5" font-family="Helvetica,sans-Serif" font-size="10.00">Acts::IndexGridNavigation</text>
<text text-anchor="middle" x="262" y="-322.5" font-family="Helvetica,sans-Serif" font-size="10.00">Policy&lt; RegularDiscIndexGrid &gt;</text>
</a>
</g>
</g>
<!-- Node0&#45;&gt;Node3 -->
<g id="edge123_Node000000_Node000003" class="edge">
<title>Node0&#45;&gt;Node3</title>
<g id="a_edge123_Node000000_Node000003"><a xlink:title=" ">
<path fill="none" stroke="#63b8ff" d="M78.86,-228.16C96.29,-249.91 128.84,-286.45 165,-306.5 171.16,-309.92 177.81,-312.85 184.63,-315.38"/>
<polygon fill="#63b8ff" stroke="#63b8ff" points="81.47,-225.81 72.55,-220.09 75.96,-230.12 81.47,-225.81"/>
</a>
</g>
</g>
<!-- Node4 -->
<g id="Node000004" class="node">
<title>Node4</title>
<g id="a_Node000004"><a xlink:href="class_acts_1_1_index_grid_navigation_policy.html" target="_top" xlink:title=" ">
<polygon fill="white" stroke="#666666" points="352,-297.5 172,-297.5 172,-267.5 352,-267.5 352,-297.5"/>
<text text-anchor="start" x="180" y="-285.5" font-family="Helvetica,sans-Serif" font-size="10.00">Acts::IndexGridNavigation</text>
<text text-anchor="middle" x="262" y="-274.5" font-family="Helvetica,sans-Serif" font-size="10.00">Policy&lt; RegularPlaneIndexGrid &gt;</text>
</a>
</g>
</g>
<!-- Node0&#45;&gt;Node4 -->
<g id="edge124_Node000000_Node000004" class="edge">
<title>Node0&#45;&gt;Node4</title>
<g id="a_edge124_Node000000_Node000004"><a xlink:title=" ">
<path fill="none" stroke="#63b8ff" d="M91.61,-224.92C111.32,-235.35 139.27,-249.19 165,-258.5 174.05,-261.77 183.73,-264.76 193.34,-267.44"/>
<polygon fill="#63b8ff" stroke="#63b8ff" points="93.11,-221.75 82.65,-220.11 89.8,-227.92 93.11,-221.75"/>
</a>
</g>
</g>
<!-- Node5 -->
<g id="Node000005" class="node">
<title>Node5</title>
<g id="a_Node000005"><a xlink:href="class_acts_1_1_cylinder_navigation_policy.html" target="_top" xlink:title="Optimized navigation policy for cylindrical volumes that intelligently selects which portals to add a...">
<polygon fill="white" stroke="#666666" points="330.5,-249.5 193.5,-249.5 193.5,-219.5 330.5,-219.5 330.5,-249.5"/>
<text text-anchor="start" x="201.5" y="-237.5" font-family="Helvetica,sans-Serif" font-size="10.00">Acts::CylinderNavigation</text>
<text text-anchor="middle" x="262" y="-226.5" font-family="Helvetica,sans-Serif" font-size="10.00">Policy</text>
</a>
</g>
</g>
<!-- Node0&#45;&gt;Node5 -->
<g id="edge125_Node000000_Node000005" class="edge">
<title>Node0&#45;&gt;Node5</title>
<g id="a_edge125_Node000000_Node000005"><a xlink:title=" ">
<path fill="none" stroke="#63b8ff" d="M139.5,-219.58C157.17,-221.75 175.94,-224.06 193.3,-226.19"/>
<polygon fill="#63b8ff" stroke="#63b8ff" points="139.6,-216.07 129.24,-218.33 138.74,-223.02 139.6,-216.07"/>
</a>
</g>
</g>
<!-- Node6 -->
<g id="Node000006" class="node">
<title>Node6</title>
<g id="a_Node000006"><a xlink:href="class_acts_1_1_experimental_1_1_multi_layer_navigation_policy.html" target="_top" xlink:title="A navigation policy that uses grid based navigation for indexed surfaces Navigate through a multilaye...">
<polygon fill="white" stroke="#666666" points="340.5,-201.5 183.5,-201.5 183.5,-171.5 340.5,-171.5 340.5,-201.5"/>
<text text-anchor="start" x="191.5" y="-189.5" font-family="Helvetica,sans-Serif" font-size="10.00">Acts::Experimental</text>
<text text-anchor="middle" x="262" y="-178.5" font-family="Helvetica,sans-Serif" font-size="10.00">::MultiLayerNavigationPolicy</text>
</a>
</g>
</g>
<!-- Node0&#45;&gt;Node6 -->
<g id="edge126_Node000000_Node000006" class="edge">
<title>Node0&#45;&gt;Node6</title>
<g id="a_edge126_Node000000_Node000006"><a xlink:title=" ">
<path fill="none" stroke="#63b8ff" d="M139.53,-201.41C153.86,-199.65 168.91,-197.81 183.35,-196.03"/>
<polygon fill="#63b8ff" stroke="#63b8ff" points="138.74,-197.98 129.24,-202.67 139.6,-204.93 138.74,-197.98"/>
</a>
</g>
</g>
<!-- Node7 -->
<g id="Node000007" class="node">
<title>Node7</title>
<g id="a_Node000007"><a xlink:href="class_acts_1_1_index_grid_navigation_policy.html" target="_top" xlink:title="A navigation policy that uses grid based navigation for indexed surfaces Navigate through a multilaye...">
<polygon fill="white" stroke="#666666" points="334,-153.5 190,-153.5 190,-123.5 334,-123.5 334,-153.5"/>
<text text-anchor="start" x="198" y="-141.5" font-family="Helvetica,sans-Serif" font-size="10.00">Acts::IndexGridNavigation</text>
<text text-anchor="middle" x="262" y="-130.5" font-family="Helvetica,sans-Serif" font-size="10.00">Policy&lt; GridType &gt;</text>
</a>
</g>
</g>
<!-- Node0&#45;&gt;Node7 -->
<g id="edge127_Node000000_Node000007" class="edge">
<title>Node0&#45;&gt;Node7</title>
<g id="a_edge127_Node000000_Node000007"><a xlink:title=" ">
<path fill="none" stroke="#63b8ff" d="M91.61,-196.08C111.32,-185.65 139.27,-171.81 165,-162.5 174.05,-159.23 183.73,-156.24 193.34,-153.56"/>
<polygon fill="#63b8ff" stroke="#63b8ff" points="89.8,-193.08 82.65,-200.89 93.11,-199.25 89.8,-193.08"/>
</a>
</g>
</g>
<!-- Node8 -->
<g id="Node000008" class="node">
<title>Node8</title>
<g id="a_Node000008"><a xlink:href="class_acts_1_1_multi_navigation_policy.html" target="_top" xlink:title="Combined navigation policy that calls all contained other navigation policies.">
<polygon fill="white" stroke="#666666" points="337.5,-105 186.5,-105 186.5,-86 337.5,-86 337.5,-105"/>
<text text-anchor="middle" x="262" y="-93" font-family="Helvetica,sans-Serif" font-size="10.00">Acts::MultiNavigationPolicy</text>
</a>
</g>
</g>
<!-- Node0&#45;&gt;Node8 -->
<g id="edge128_Node000000_Node000008" class="edge">
<title>Node0&#45;&gt;Node8</title>
<g id="a_edge128_Node000000_Node000008"><a xlink:title=" ">
<path fill="none" stroke="#63b8ff" d="M78.71,-192.55C95.97,-170.5 128.35,-133.65 165,-114.5 172.45,-110.61 180.61,-107.51 188.93,-105.04"/>
<polygon fill="#63b8ff" stroke="#63b8ff" points="75.74,-190.67 72.46,-200.74 81.31,-194.91 75.74,-190.67"/>
</a>
</g>
</g>
<!-- Node9 -->
<g id="Node000009" class="node">
<title>Node9</title>
<g id="a_Node000009"><a xlink:href="class_acts_1_1_surface_array_navigation_policy.html" target="_top" xlink:title="A navigation policy that internally uses the Gen1 SurfaceArray class.">
<polygon fill="white" stroke="#666666" points="342,-67.5 182,-67.5 182,-37.5 342,-37.5 342,-67.5"/>
<text text-anchor="start" x="190" y="-55.5" font-family="Helvetica,sans-Serif" font-size="10.00">Acts::SurfaceArrayNavigation</text>
<text text-anchor="middle" x="262" y="-44.5" font-family="Helvetica,sans-Serif" font-size="10.00">Policy</text>
</a>
</g>
</g>
<!-- Node0&#45;&gt;Node9 -->
<g id="edge129_Node000000_Node000009" class="edge">
<title>Node0&#45;&gt;Node9</title>
<g id="a_edge129_Node000000_Node000009"><a xlink:title=" ">
<path fill="none" stroke="#63b8ff" d="M74.38,-191.58C89.04,-162.48 121.11,-106.99 165,-77.5 170.72,-73.66 176.99,-70.41 183.51,-67.65"/>
<polygon fill="#63b8ff" stroke="#63b8ff" points="71.18,-190.17 69.93,-200.69 77.47,-193.24 71.18,-190.17"/>
</a>
</g>
</g>
<!-- Node10 -->
<g id="Node000010" class="node">
<title>Node10</title>
<g id="a_Node000010"><a xlink:href="class_acts_1_1_try_all_navigation_policy.html" target="_top" xlink:title="Policy which adds all candidates of the configured type to the stream.">
<polygon fill="white" stroke="#666666" points="338.5,-19 185.5,-19 185.5,0 338.5,0 338.5,-19"/>
<text text-anchor="middle" x="262" y="-7" font-family="Helvetica,sans-Serif" font-size="10.00">Acts::TryAllNavigationPolicy</text>
</a>
</g>
</g>
<!-- Node0&#45;&gt;Node10 -->
<g id="edge130_Node000000_Node000010" class="edge">
<title>Node0&#45;&gt;Node10</title>
<g id="a_edge130_Node000000_Node000010"><a xlink:title=" ">
<path fill="none" stroke="#63b8ff" d="M70.29,-190.84C80.61,-152.92 108.71,-69.79 165,-28.5 171.16,-23.98 178.13,-20.46 185.42,-17.73"/>
<polygon fill="#63b8ff" stroke="#63b8ff" points="66.87,-190.1 67.74,-200.66 73.64,-191.86 66.87,-190.1"/>
</a>
</g>
</g>
</g>
</svg>
