<?xml version="1.0" encoding="UTF-8" standalone="no"?>
<!DOCTYPE svg PUBLIC "-//W3C//DTD SVG 1.1//EN"
 "http://www.w3.org/Graphics/SVG/1.1/DTD/svg11.dtd">
<!-- Generated by graphviz version 2.43.0 (0)
 -->
<!-- Title: Graphical Class Hierarchy Pages: 1 -->
<svg width="331pt" height="64pt"
 viewBox="0.00 0.00 331.00 64.00" xmlns="http://www.w3.org/2000/svg" xmlns:xlink="http://www.w3.org/1999/xlink">
<g id="graph0" class="graph" transform="scale(1 1) rotate(0) translate(4 60)">
<title>Graphical Class Hierarchy</title>
<!-- Node0 -->
<g id="Node000000" class="node">
<title>Node0</title>
<g id="a_Node000000"><a xlink:href="class_acts_1_1_i_visualization3_d.html" target="_top" xlink:title="Partially abstract base class which provides an interface to visualization helper classes.">
<polygon fill="white" stroke="#666666" points="123,-37 0,-37 0,-18 123,-18 123,-37"/>
<text text-anchor="middle" x="61.5" y="-25" font-family="Helvetica,sans-Serif" font-size="10.00">Acts::IVisualization3D</text>
</a>
</g>
</g>
<!-- Node1 -->
<g id="Node000001" class="node">
<title>Node1</title>
<g id="a_Node000001"><a xlink:href="class_acts_1_1_obj_visualization3_d.html" target="_top" xlink:title="This helper produces output in the OBJ format.">
<polygon fill="white" stroke="#666666" points="309.5,-56 172.5,-56 172.5,-37 309.5,-37 309.5,-56"/>
<text text-anchor="middle" x="241" y="-44" font-family="Helvetica,sans-Serif" font-size="10.00">Acts::ObjVisualization3D</text>
</a>
</g>
</g>
<!-- Node0&#45;&gt;Node1 -->
<g id="edge165_Node000000_Node000001" class="edge">
<title>Node0&#45;&gt;Node1</title>
<g id="a_edge165_Node000000_Node000001"><a xlink:title=" ">
<path fill="none" stroke="#63b8ff" d="M133.29,-35.08C146.17,-36.46 159.58,-37.89 172.37,-39.26"/>
<polygon fill="#63b8ff" stroke="#63b8ff" points="133.4,-31.57 123.09,-33.99 132.66,-38.53 133.4,-31.57"/>
</a>
</g>
</g>
<!-- Node2 -->
<g id="Node000002" class="node">
<title>Node2</title>
<g id="a_Node000002"><a xlink:href="class_acts_1_1_ply_visualization3_d.html" target="_top" xlink:title="Helper to write out PlyVisualization3D visualization format.">
<polygon fill="white" stroke="#666666" points="323,-19 159,-19 159,0 323,0 323,-19"/>
<text text-anchor="middle" x="241" y="-7" font-family="Helvetica,sans-Serif" font-size="10.00">Acts::PlyVisualization3D&lt; T &gt;</text>
</a>
</g>
</g>
<!-- Node0&#45;&gt;Node2 -->
<g id="edge166_Node000000_Node000002" class="edge">
<title>Node0&#45;&gt;Node2</title>
<g id="a_edge166_Node000000_Node000002"><a xlink:title=" ">
<path fill="none" stroke="#63b8ff" d="M133.26,-20.32C141.71,-19.47 150.39,-18.59 158.97,-17.72"/>
<polygon fill="#63b8ff" stroke="#63b8ff" points="132.68,-16.86 123.09,-21.36 133.39,-23.83 132.68,-16.86"/>
</a>
</g>
</g>
</g>
</svg>
