<?xml version="1.0" encoding="UTF-8" standalone="no"?>
<!DOCTYPE svg PUBLIC "-//W3C//DTD SVG 1.1//EN"
 "http://www.w3.org/Graphics/SVG/1.1/DTD/svg11.dtd">
<!-- Generated by graphviz version 2.43.0 (0)
 -->
<!-- Title: Graphical Class Hierarchy Pages: 1 -->
<svg width="460pt" height="101pt"
 viewBox="0.00 0.00 460.00 101.00" xmlns="http://www.w3.org/2000/svg" xmlns:xlink="http://www.w3.org/1999/xlink">
<g id="graph0" class="graph" transform="scale(1 1) rotate(0) translate(4 97)">
<title>Graphical Class Hierarchy</title>
<!-- Node0 -->
<g id="Node000000" class="node">
<title>Node0</title>
<g id="a_Node000000"><a xlink:href="class_acts_1_1_portal_link_base.html" target="_top" xlink:title="PortalLinkBase is the abstract base class for all portal links.">
<polygon fill="white" stroke="#666666" points="116,-56 0,-56 0,-37 116,-37 116,-56"/>
<text text-anchor="middle" x="58" y="-44" font-family="Helvetica,sans-Serif" font-size="10.00">Acts::PortalLinkBase</text>
</a>
</g>
</g>
<!-- Node1 -->
<g id="Node000001" class="node">
<title>Node1</title>
<g id="a_Node000001"><a xlink:href="class_acts_1_1_composite_portal_link.html" target="_top" xlink:title="Composite portal links can graft together other portal link instances, for example grids that could n...">
<polygon fill="white" stroke="#666666" points="297,-93 152,-93 152,-74 297,-74 297,-93"/>
<text text-anchor="middle" x="224.5" y="-81" font-family="Helvetica,sans-Serif" font-size="10.00">Acts::CompositePortalLink</text>
</a>
</g>
</g>
<!-- Node0&#45;&gt;Node1 -->
<g id="edge189_Node000000_Node000001" class="edge">
<title>Node0&#45;&gt;Node1</title>
<g id="a_edge189_Node000000_Node000001"><a xlink:title=" ">
<path fill="none" stroke="#63b8ff" d="M111.41,-58.29C133.87,-63.34 159.76,-69.16 181,-73.94"/>
<polygon fill="#63b8ff" stroke="#63b8ff" points="111.89,-54.81 101.36,-56.03 110.35,-61.64 111.89,-54.81"/>
</a>
</g>
</g>
<!-- Node2 -->
<g id="Node000002" class="node">
<title>Node2</title>
<g id="a_Node000002"><a xlink:href="class_acts_1_1_grid_portal_link.html" target="_top" xlink:title="GridPortalLink implements a subdivided surface where the target volume depends on the position on the...">
<polygon fill="white" stroke="#666666" points="281,-56 168,-56 168,-37 281,-37 281,-56"/>
<text text-anchor="middle" x="224.5" y="-44" font-family="Helvetica,sans-Serif" font-size="10.00">Acts::GridPortalLink</text>
</a>
</g>
</g>
<!-- Node0&#45;&gt;Node2 -->
<g id="edge190_Node000000_Node000002" class="edge">
<title>Node0&#45;&gt;Node2</title>
<g id="a_edge190_Node000000_Node000002"><a xlink:title=" ">
<path fill="none" stroke="#63b8ff" d="M126.47,-46.5C140.25,-46.5 154.61,-46.5 167.92,-46.5"/>
<polygon fill="#63b8ff" stroke="#63b8ff" points="126.07,-43 116.07,-46.5 126.07,-50 126.07,-43"/>
</a>
</g>
</g>
<!-- Node4 -->
<g id="Node000004" class="node">
<title>Node4</title>
<g id="a_Node000004"><a xlink:href="class_acts_1_1_trivial_portal_link.html" target="_top" xlink:title="Trivial portal link links to a single target volume on every point on a surface.">
<polygon fill="white" stroke="#666666" points="285.5,-19 163.5,-19 163.5,0 285.5,0 285.5,-19"/>
<text text-anchor="middle" x="224.5" y="-7" font-family="Helvetica,sans-Serif" font-size="10.00">Acts::TrivialPortalLink</text>
</a>
</g>
</g>
<!-- Node0&#45;&gt;Node4 -->
<g id="edge192_Node000000_Node000004" class="edge">
<title>Node0&#45;&gt;Node4</title>
<g id="a_edge192_Node000000_Node000004"><a xlink:title=" ">
<path fill="none" stroke="#63b8ff" d="M111.41,-34.71C133.87,-29.66 159.76,-23.84 181,-19.06"/>
<polygon fill="#63b8ff" stroke="#63b8ff" points="110.35,-31.36 101.36,-36.97 111.89,-38.19 110.35,-31.36"/>
</a>
</g>
</g>
<!-- Node3 -->
<g id="Node000003" class="node">
<title>Node3</title>
<g id="a_Node000003"><a xlink:href="class_acts_1_1_grid_portal_link_t.html" target="_top" xlink:title="Concrete class deriving from GridPortalLink that boxes a concrete grid for lookup.">
<polygon fill="white" stroke="#666666" points="452,-61.5 333,-61.5 333,-31.5 452,-31.5 452,-61.5"/>
<text text-anchor="start" x="341" y="-49.5" font-family="Helvetica,sans-Serif" font-size="10.00">Acts::GridPortalLinkT</text>
<text text-anchor="middle" x="392.5" y="-38.5" font-family="Helvetica,sans-Serif" font-size="10.00">&lt; Axes &gt;</text>
</a>
</g>
</g>
<!-- Node2&#45;&gt;Node3 -->
<g id="edge191_Node000002_Node000003" class="edge">
<title>Node2&#45;&gt;Node3</title>
<g id="a_edge191_Node000002_Node000003"><a xlink:title=" ">
<path fill="none" stroke="#63b8ff" d="M291.52,-46.5C305.15,-46.5 319.43,-46.5 332.78,-46.5"/>
<polygon fill="#63b8ff" stroke="#63b8ff" points="291.24,-43 281.24,-46.5 291.24,-50 291.24,-43"/>
</a>
</g>
</g>
</g>
</svg>
