<?xml version="1.0" encoding="UTF-8" standalone="no"?>
<!DOCTYPE svg PUBLIC "-//W3C//DTD SVG 1.1//EN"
 "http://www.w3.org/Graphics/SVG/1.1/DTD/svg11.dtd">
<!-- Generated by graphviz version 2.43.0 (0)
 -->
<!-- Title: Graphical Class Hierarchy Pages: 1 -->
<svg width="500pt" height="38pt"
 viewBox="0.00 0.00 500.00 38.00" xmlns="http://www.w3.org/2000/svg" xmlns:xlink="http://www.w3.org/1999/xlink">
<g id="graph0" class="graph" transform="scale(1 1) rotate(0) translate(4 34)">
<title>Graphical Class Hierarchy</title>
<!-- Node0 -->
<g id="Node000000" class="node">
<title>Node0</title>
<g id="a_Node000000"><a xlink:href="struct_acts_1_1_surface_reached.html" target="_top" xlink:title="This is the condition that the Surface has been reached it then triggers a propagation abort.">
<polygon fill="white" stroke="#666666" points="122,-24.5 0,-24.5 0,-5.5 122,-5.5 122,-24.5"/>
<text text-anchor="middle" x="61" y="-12.5" font-family="Helvetica,sans-Serif" font-size="10.00">Acts::SurfaceReached</text>
</a>
</g>
</g>
<!-- Node1 -->
<g id="Node000001" class="node">
<title>Node1</title>
<g id="a_Node000001"><a xlink:href="struct_acts_1_1_forced_surface_reached.html" target="_top" xlink:title="Similar to SurfaceReached, but with an infinite overstep limit.">
<polygon fill="white" stroke="#666666" points="313,-24.5 158,-24.5 158,-5.5 313,-5.5 313,-24.5"/>
<text text-anchor="middle" x="235.5" y="-12.5" font-family="Helvetica,sans-Serif" font-size="10.00">Acts::ForcedSurfaceReached</text>
</a>
</g>
</g>
<!-- Node0&#45;&gt;Node1 -->
<g id="edge226_Node000000_Node000001" class="edge">
<title>Node0&#45;&gt;Node1</title>
<g id="a_edge226_Node000000_Node000001"><a xlink:title=" ">
<path fill="none" stroke="#63b8ff" d="M132.42,-15C140.79,-15 149.37,-15 157.83,-15"/>
<polygon fill="#63b8ff" stroke="#63b8ff" points="132.33,-11.5 122.33,-15 132.33,-18.5 132.33,-11.5"/>
</a>
</g>
</g>
<!-- Node2 -->
<g id="Node000002" class="node">
<title>Node2</title>
<g id="a_Node000002"><a xlink:href="struct_acts_1_1_multi_stepper_surface_reached.html" target="_top" xlink:title=" ">
<polygon fill="white" stroke="#666666" points="492,-30 349,-30 349,0 492,0 492,-30"/>
<text text-anchor="start" x="357" y="-18" font-family="Helvetica,sans-Serif" font-size="10.00">Acts::MultiStepperSurface</text>
<text text-anchor="middle" x="420.5" y="-7" font-family="Helvetica,sans-Serif" font-size="10.00">Reached</text>
</a>
</g>
</g>
<!-- Node1&#45;&gt;Node2 -->
<g id="edge227_Node000001_Node000002" class="edge">
<title>Node1&#45;&gt;Node2</title>
<g id="a_edge227_Node000001_Node000002"><a xlink:title=" ">
<path fill="none" stroke="#63b8ff" d="M323.11,-15C331.72,-15 340.39,-15 348.81,-15"/>
<polygon fill="#63b8ff" stroke="#63b8ff" points="323.05,-11.5 313.05,-15 323.05,-18.5 323.05,-11.5"/>
</a>
</g>
</g>
</g>
</svg>
