<?xml version="1.0" encoding="UTF-8" standalone="no"?>
<!DOCTYPE svg PUBLIC "-//W3C//DTD SVG 1.1//EN"
 "http://www.w3.org/Graphics/SVG/1.1/DTD/svg11.dtd">
<!-- Generated by graphviz version 2.43.0 (0)
 -->
<!-- Title: Graphical Class Hierarchy Pages: 1 -->
<svg width="362pt" height="64pt"
 viewBox="0.00 0.00 362.00 64.00" xmlns="http://www.w3.org/2000/svg" xmlns:xlink="http://www.w3.org/1999/xlink">
<g id="graph0" class="graph" transform="scale(1 1) rotate(0) translate(4 60)">
<title>Graphical Class Hierarchy</title>
<!-- Node0 -->
<g id="Node000000" class="node">
<title>Node0</title>
<g id="a_Node000000"><a xlink:href="class_acts_plugins_1_1_gnn_hook.html" target="_top" xlink:title=" ">
<polygon fill="white" stroke="#666666" points="124,-37 0,-37 0,-18 124,-18 124,-37"/>
<text text-anchor="middle" x="62" y="-25" font-family="Helvetica,sans-Serif" font-size="10.00">ActsPlugins::GnnHook</text>
</a>
</g>
</g>
<!-- Node1 -->
<g id="Node000001" class="node">
<title>Node1</title>
<g id="a_Node000001"><a xlink:href="class_acts_plugins_1_1_graph_store_hook.html" target="_top" xlink:title=" ">
<polygon fill="white" stroke="#666666" points="336.5,-56 177.5,-56 177.5,-37 336.5,-37 336.5,-56"/>
<text text-anchor="middle" x="257" y="-44" font-family="Helvetica,sans-Serif" font-size="10.00">ActsPlugins::GraphStoreHook</text>
</a>
</g>
</g>
<!-- Node0&#45;&gt;Node1 -->
<g id="edge265_Node000000_Node000001" class="edge">
<title>Node0&#45;&gt;Node1</title>
<g id="a_edge265_Node000000_Node000001"><a xlink:title=" ">
<path fill="none" stroke="#63b8ff" d="M134.14,-34.5C148.19,-35.89 163.01,-37.35 177.29,-38.75"/>
<polygon fill="#63b8ff" stroke="#63b8ff" points="134.36,-31.01 124.07,-33.51 133.68,-37.97 134.36,-31.01"/>
</a>
</g>
</g>
<!-- Node2 -->
<g id="Node000002" class="node">
<title>Node2</title>
<g id="a_Node000002"><a xlink:href="class_acts_plugins_1_1_truth_graph_metrics_hook.html" target="_top" xlink:title=" ">
<polygon fill="white" stroke="#666666" points="354,-19 160,-19 160,0 354,0 354,-19"/>
<text text-anchor="middle" x="257" y="-7" font-family="Helvetica,sans-Serif" font-size="10.00">ActsPlugins::TruthGraphMetricsHook</text>
</a>
</g>
</g>
<!-- Node0&#45;&gt;Node2 -->
<g id="edge266_Node000000_Node000002" class="edge">
<title>Node0&#45;&gt;Node2</title>
<g id="a_edge266_Node000000_Node000002"><a xlink:title=" ">
<path fill="none" stroke="#63b8ff" d="M134.1,-20.87C142.46,-20.09 151.09,-19.28 159.71,-18.48"/>
<polygon fill="#63b8ff" stroke="#63b8ff" points="133.7,-17.39 124.07,-21.8 134.35,-24.36 133.7,-17.39"/>
</a>
</g>
</g>
</g>
</svg>
