<?xml version="1.0" encoding="UTF-8" standalone="no"?>
<!DOCTYPE svg PUBLIC "-//W3C//DTD SVG 1.1//EN"
 "http://www.w3.org/Graphics/SVG/1.1/DTD/svg11.dtd">
<!-- Generated by graphviz version 2.43.0 (0)
 -->
<!-- Title: Graphical Class Hierarchy Pages: 1 -->
<svg width="331pt" height="76pt"
 viewBox="0.00 0.00 331.00 75.50" xmlns="http://www.w3.org/2000/svg" xmlns:xlink="http://www.w3.org/1999/xlink">
<g id="graph0" class="graph" transform="scale(1 1) rotate(0) translate(4 71.5)">
<title>Graphical Class Hierarchy</title>
<!-- Node0 -->
<g id="Node000000" class="node">
<title>Node0</title>
<g id="a_Node000000"><a xlink:href="class_acts_1_1_i_material_decorator.html" target="_top" xlink:title="Virtual base class for decorators that allow to load material onto a TrackingGeometry.">
<polygon fill="white" stroke="#666666" points="135,-45.5 0,-45.5 0,-26.5 135,-26.5 135,-45.5"/>
<text text-anchor="middle" x="67.5" y="-33.5" font-family="Helvetica,sans-Serif" font-size="10.00">Acts::IMaterialDecorator</text>
</a>
</g>
</g>
<!-- Node1 -->
<g id="Node000001" class="node">
<title>Node1</title>
<g id="a_Node000001"><a xlink:href="class_acts_1_1_json_material_decorator.html" target="_top" xlink:title="Material decorator from Json format.">
<polygon fill="white" stroke="#666666" points="323,-67.5 171,-67.5 171,-48.5 323,-48.5 323,-67.5"/>
<text text-anchor="middle" x="247" y="-55.5" font-family="Helvetica,sans-Serif" font-size="10.00">Acts::JsonMaterialDecorator</text>
</a>
</g>
</g>
<!-- Node0&#45;&gt;Node1 -->
<g id="edge119_Node000000_Node000001" class="edge">
<title>Node0&#45;&gt;Node1</title>
<g id="a_edge119_Node000000_Node000001"><a xlink:title=" ">
<path fill="none" stroke="#63b8ff" d="M145.09,-45.49C153.67,-46.56 162.41,-47.64 170.98,-48.7"/>
<polygon fill="#63b8ff" stroke="#63b8ff" points="145.45,-42.01 135.1,-44.25 144.59,-48.96 145.45,-42.01"/>
</a>
</g>
</g>
<!-- Node2 -->
<g id="Node000002" class="node">
<title>Node2</title>
<g id="a_Node000002"><a xlink:href="class_acts_plugins_1_1_root_material_decorator.html" target="_top" xlink:title="Read the collection of SurfaceMaterial &amp; VolumeMaterial.">
<polygon fill="white" stroke="#666666" points="318,-30 176,-30 176,0 318,0 318,-30"/>
<text text-anchor="start" x="184" y="-18" font-family="Helvetica,sans-Serif" font-size="10.00">ActsPlugins::RootMaterial</text>
<text text-anchor="middle" x="247" y="-7" font-family="Helvetica,sans-Serif" font-size="10.00">Decorator</text>
</a>
</g>
</g>
<!-- Node0&#45;&gt;Node2 -->
<g id="edge120_Node000000_Node000002" class="edge">
<title>Node0&#45;&gt;Node2</title>
<g id="a_edge120_Node000000_Node000002"><a xlink:title=" ">
<path fill="none" stroke="#63b8ff" d="M145.17,-26.93C155.34,-25.73 165.72,-24.5 175.76,-23.31"/>
<polygon fill="#63b8ff" stroke="#63b8ff" points="144.62,-23.47 135.1,-28.12 145.44,-30.42 144.62,-23.47"/>
</a>
</g>
</g>
</g>
</svg>
