<?xml version="1.0" encoding="UTF-8" standalone="no"?>
<!DOCTYPE svg PUBLIC "-//W3C//DTD SVG 1.1//EN"
 "http://www.w3.org/Graphics/SVG/1.1/DTD/svg11.dtd">
<!-- Generated by graphviz version 2.43.0 (0)
 -->
<!-- Title: Graphical Class Hierarchy Pages: 1 -->
<svg width="716pt" height="313pt"
 viewBox="0.00 0.00 716.00 313.00" xmlns="http://www.w3.org/2000/svg" xmlns:xlink="http://www.w3.org/1999/xlink">
<g id="graph0" class="graph" transform="scale(1 1) rotate(0) translate(4 309)">
<title>Graphical Class Hierarchy</title>
<!-- Node0 -->
<g id="Node000000" class="node">
<title>Node0</title>
<g id="a_Node000000"><a xlink:href="class_acts_1_1_surface_bounds.html" target="_top" xlink:title="Interface for surface bounds.">
<polygon fill="white" stroke="#666666" points="116,-212 0,-212 0,-193 116,-193 116,-212"/>
<text text-anchor="middle" x="58" y="-200" font-family="Helvetica,sans-Serif" font-size="10.00">Acts::SurfaceBounds</text>
</a>
</g>
</g>
<!-- Node1 -->
<g id="Node000001" class="node">
<title>Node1</title>
<g id="a_Node000001"><a xlink:href="class_acts_1_1_cone_bounds.html" target="_top" xlink:title="Bounds for a conical surface, the opening angle is stored in &#160;and always positively defined.">
<polygon fill="white" stroke="#666666" points="264,-305 160,-305 160,-286 264,-286 264,-305"/>
<text text-anchor="middle" x="212" y="-293" font-family="Helvetica,sans-Serif" font-size="10.00">Acts::ConeBounds</text>
</a>
</g>
</g>
<!-- Node0&#45;&gt;Node1 -->
<g id="edge210_Node000000_Node000001" class="edge">
<title>Node0&#45;&gt;Node1</title>
<g id="a_edge210_Node000000_Node000001"><a xlink:title=" ">
<path fill="none" stroke="#63b8ff" d="M75.63,-219.26C93.21,-236.13 122.44,-261.83 152,-277.5 158.25,-280.81 165.19,-283.61 172.06,-285.94"/>
<polygon fill="#63b8ff" stroke="#63b8ff" points="78.01,-216.7 68.41,-212.2 73.11,-221.7 78.01,-216.7"/>
</a>
</g>
</g>
<!-- Node2 -->
<g id="Node000002" class="node">
<title>Node2</title>
<g id="a_Node000002"><a xlink:href="class_acts_1_1_cylinder_bounds.html" target="_top" xlink:title=" ">
<polygon fill="white" stroke="#666666" points="272,-268 152,-268 152,-249 272,-249 272,-268"/>
<text text-anchor="middle" x="212" y="-256" font-family="Helvetica,sans-Serif" font-size="10.00">Acts::CylinderBounds</text>
</a>
</g>
</g>
<!-- Node0&#45;&gt;Node2 -->
<g id="edge211_Node000000_Node000002" class="edge">
<title>Node0&#45;&gt;Node2</title>
<g id="a_edge211_Node000000_Node000002"><a xlink:title=" ">
<path fill="none" stroke="#63b8ff" d="M90.33,-216.14C108.24,-223.73 131.2,-233.1 152,-240.5 160.27,-243.45 169.3,-246.35 177.75,-248.94"/>
<polygon fill="#63b8ff" stroke="#63b8ff" points="91.52,-212.84 80.95,-212.14 88.78,-219.28 91.52,-212.84"/>
</a>
</g>
</g>
<!-- Node3 -->
<g id="Node000003" class="node">
<title>Node3</title>
<g id="a_Node000003"><a xlink:href="class_acts_1_1_disc_bounds.html" target="_top" xlink:title=" ">
<polygon fill="white" stroke="#666666" points="262.5,-231 161.5,-231 161.5,-212 262.5,-212 262.5,-231"/>
<text text-anchor="middle" x="212" y="-219" font-family="Helvetica,sans-Serif" font-size="10.00">Acts::DiscBounds</text>
</a>
</g>
</g>
<!-- Node0&#45;&gt;Node3 -->
<g id="edge212_Node000000_Node000003" class="edge">
<title>Node0&#45;&gt;Node3</title>
<g id="a_edge212_Node000000_Node000003"><a xlink:title=" ">
<path fill="none" stroke="#63b8ff" d="M126.24,-210.9C137.97,-212.37 149.98,-213.87 161.14,-215.27"/>
<polygon fill="#63b8ff" stroke="#63b8ff" points="126.39,-207.4 116.03,-209.63 125.52,-214.34 126.39,-207.4"/>
</a>
</g>
</g>
<!-- Node7 -->
<g id="Node000007" class="node">
<title>Node7</title>
<g id="a_Node000007"><a xlink:href="class_acts_1_1_infinite_bounds.html" target="_top" xlink:title="templated boundless extension to forward the interface Returns all inside checks to true and can temp...">
<polygon fill="white" stroke="#666666" points="268.5,-194 155.5,-194 155.5,-175 268.5,-175 268.5,-194"/>
<text text-anchor="middle" x="212" y="-182" font-family="Helvetica,sans-Serif" font-size="10.00">Acts::InfiniteBounds</text>
</a>
</g>
</g>
<!-- Node0&#45;&gt;Node7 -->
<g id="edge216_Node000000_Node000007" class="edge">
<title>Node0&#45;&gt;Node7</title>
<g id="a_edge216_Node000000_Node000007"><a xlink:title=" ">
<path fill="none" stroke="#63b8ff" d="M126.13,-194.55C135.91,-193.39 145.89,-192.21 155.41,-191.08"/>
<polygon fill="#63b8ff" stroke="#63b8ff" points="125.55,-191.09 116.03,-195.75 126.37,-198.05 125.55,-191.09"/>
</a>
</g>
</g>
<!-- Node8 -->
<g id="Node000008" class="node">
<title>Node8</title>
<g id="a_Node000008"><a xlink:href="class_acts_1_1_line_bounds.html" target="_top" xlink:title="Bounds for a LineSurface.">
<polygon fill="white" stroke="#666666" points="262,-157 162,-157 162,-138 262,-138 262,-157"/>
<text text-anchor="middle" x="212" y="-145" font-family="Helvetica,sans-Serif" font-size="10.00">Acts::LineBounds</text>
</a>
</g>
</g>
<!-- Node0&#45;&gt;Node8 -->
<g id="edge217_Node000000_Node000008" class="edge">
<title>Node0&#45;&gt;Node8</title>
<g id="a_edge217_Node000000_Node000008"><a xlink:title=" ">
<path fill="none" stroke="#63b8ff" d="M91.09,-188.98C108.9,-181.66 131.52,-172.68 152,-165.5 160.39,-162.56 169.54,-159.63 178.08,-157.02"/>
<polygon fill="#63b8ff" stroke="#63b8ff" points="89.64,-185.79 81.73,-192.85 92.31,-192.26 89.64,-185.79"/>
</a>
</g>
</g>
<!-- Node9 -->
<g id="Node000009" class="node">
<title>Node9</title>
<g id="a_Node000009"><a xlink:href="class_acts_1_1_planar_bounds.html" target="_top" xlink:title="common base class for all bounds that are in a local x/y cartesian frame">
<polygon fill="white" stroke="#666666" points="267,-111 157,-111 157,-92 267,-92 267,-111"/>
<text text-anchor="middle" x="212" y="-99" font-family="Helvetica,sans-Serif" font-size="10.00">Acts::PlanarBounds</text>
</a>
</g>
</g>
<!-- Node0&#45;&gt;Node9 -->
<g id="edge218_Node000000_Node000009" class="edge">
<title>Node0&#45;&gt;Node9</title>
<g id="a_edge218_Node000000_Node000009"><a xlink:title=" ">
<path fill="none" stroke="#63b8ff" d="M76.7,-186.24C94.73,-170.23 123.94,-145.73 152,-128.5 162.94,-121.78 175.84,-115.69 186.78,-111"/>
<polygon fill="#63b8ff" stroke="#63b8ff" points="74.35,-183.66 69.25,-192.95 79.03,-188.86 74.35,-183.66"/>
</a>
</g>
</g>
<!-- Node4 -->
<g id="Node000004" class="node">
<title>Node4</title>
<g id="a_Node000004"><a xlink:href="class_acts_1_1_annulus_bounds.html" target="_top" xlink:title="Class that implements a (potentially asymmetric) bounds with difference between surface bound center ...">
<polygon fill="white" stroke="#666666" points="457,-278 338,-278 338,-259 457,-259 457,-278"/>
<text text-anchor="middle" x="397.5" y="-266" font-family="Helvetica,sans-Serif" font-size="10.00">Acts::AnnulusBounds</text>
</a>
</g>
</g>
<!-- Node3&#45;&gt;Node4 -->
<g id="edge213_Node000003_Node000004" class="edge">
<title>Node3&#45;&gt;Node4</title>
<g id="a_edge213_Node000003_Node000004"><a xlink:title=" ">
<path fill="none" stroke="#63b8ff" d="M251.58,-234.19C268.75,-239.6 289.28,-245.75 308,-250.5 320.01,-253.55 333.03,-256.43 345.3,-258.95"/>
<polygon fill="#63b8ff" stroke="#63b8ff" points="252.49,-230.81 241.9,-231.11 250.37,-237.48 252.49,-230.81"/>
</a>
</g>
</g>
<!-- Node5 -->
<g id="Node000005" class="node">
<title>Node5</title>
<g id="a_Node000005"><a xlink:href="class_acts_1_1_disc_trapezoid_bounds.html" target="_top" xlink:title="Class to describe the bounds for a planar DiscSurface.">
<polygon fill="white" stroke="#666666" points="471,-241 324,-241 324,-222 471,-222 471,-241"/>
<text text-anchor="middle" x="397.5" y="-229" font-family="Helvetica,sans-Serif" font-size="10.00">Acts::DiscTrapezoidBounds</text>
</a>
</g>
</g>
<!-- Node3&#45;&gt;Node5 -->
<g id="edge214_Node000003_Node000005" class="edge">
<title>Node3&#45;&gt;Node5</title>
<g id="a_edge214_Node000003_Node000005"><a xlink:title=" ">
<path fill="none" stroke="#63b8ff" d="M273.05,-224.77C289.23,-225.65 306.92,-226.62 323.71,-227.53"/>
<polygon fill="#63b8ff" stroke="#63b8ff" points="272.83,-221.26 262.66,-224.21 272.45,-228.25 272.83,-221.26"/>
</a>
</g>
</g>
<!-- Node6 -->
<g id="Node000006" class="node">
<title>Node6</title>
<g id="a_Node000006"><a xlink:href="class_acts_1_1_radial_bounds.html" target="_top" xlink:title="Class to describe the bounds for a planar DiscSurface.">
<polygon fill="white" stroke="#666666" points="452.5,-204 342.5,-204 342.5,-185 452.5,-185 452.5,-204"/>
<text text-anchor="middle" x="397.5" y="-192" font-family="Helvetica,sans-Serif" font-size="10.00">Acts::RadialBounds</text>
</a>
</g>
</g>
<!-- Node3&#45;&gt;Node6 -->
<g id="edge215_Node000003_Node000006" class="edge">
<title>Node3&#45;&gt;Node6</title>
<g id="a_edge215_Node000003_Node000006"><a xlink:title=" ">
<path fill="none" stroke="#63b8ff" d="M272.72,-212.71C295.11,-209.42 320.42,-205.69 342.29,-202.48"/>
<polygon fill="#63b8ff" stroke="#63b8ff" points="272.04,-209.27 262.66,-214.19 273.06,-216.2 272.04,-209.27"/>
</a>
</g>
</g>
<!-- Node10 -->
<g id="Node000010" class="node">
<title>Node10</title>
<g id="a_Node000010"><a xlink:href="class_acts_1_1_convex_polygon_bounds_base.html" target="_top" xlink:title="base class for convex polygon bounds">
<polygon fill="white" stroke="#666666" points="487,-167 308,-167 308,-148 487,-148 487,-167"/>
<text text-anchor="middle" x="397.5" y="-155" font-family="Helvetica,sans-Serif" font-size="10.00">Acts::ConvexPolygonBoundsBase</text>
</a>
</g>
</g>
<!-- Node9&#45;&gt;Node10 -->
<g id="edge219_Node000009_Node000010" class="edge">
<title>Node9&#45;&gt;Node10</title>
<g id="a_edge219_Node000009_Node000010"><a xlink:title=" ">
<path fill="none" stroke="#63b8ff" d="M243.86,-114.97C262.24,-122.62 286.16,-131.95 308,-138.5 319.89,-142.07 332.87,-145.24 345.14,-147.93"/>
<polygon fill="#63b8ff" stroke="#63b8ff" points="245.11,-111.7 234.54,-111.03 242.39,-118.14 245.11,-111.7"/>
</a>
</g>
</g>
<!-- Node13 -->
<g id="Node000013" class="node">
<title>Node13</title>
<g id="a_Node000013"><a xlink:href="class_acts_1_1_diamond_bounds.html" target="_top" xlink:title=" ">
<polygon fill="white" stroke="#666666" points="459.5,-130 335.5,-130 335.5,-111 459.5,-111 459.5,-130"/>
<text text-anchor="middle" x="397.5" y="-118" font-family="Helvetica,sans-Serif" font-size="10.00">Acts::DiamondBounds</text>
</a>
</g>
</g>
<!-- Node9&#45;&gt;Node13 -->
<g id="edge222_Node000009_Node000013" class="edge">
<title>Node9&#45;&gt;Node13</title>
<g id="a_edge222_Node000009_Node000013"><a xlink:title=" ">
<path fill="none" stroke="#63b8ff" d="M277.08,-108.14C296.02,-110.1 316.68,-112.24 335.42,-114.18"/>
<polygon fill="#63b8ff" stroke="#63b8ff" points="277.37,-104.65 267.06,-107.1 276.65,-111.61 277.37,-104.65"/>
</a>
</g>
</g>
<!-- Node14 -->
<g id="Node000014" class="node">
<title>Node14</title>
<g id="a_Node000014"><a xlink:href="class_acts_1_1_ellipse_bounds.html" target="_top" xlink:title=" ">
<polygon fill="white" stroke="#666666" points="453.5,-93 341.5,-93 341.5,-74 453.5,-74 453.5,-93"/>
<text text-anchor="middle" x="397.5" y="-81" font-family="Helvetica,sans-Serif" font-size="10.00">Acts::EllipseBounds</text>
</a>
</g>
</g>
<!-- Node9&#45;&gt;Node14 -->
<g id="edge223_Node000009_Node000014" class="edge">
<title>Node9&#45;&gt;Node14</title>
<g id="a_edge223_Node000009_Node000014"><a xlink:title=" ">
<path fill="none" stroke="#63b8ff" d="M277.13,-95.21C298.03,-93.16 321.04,-90.9 341.23,-88.92"/>
<polygon fill="#63b8ff" stroke="#63b8ff" points="276.67,-91.74 267.06,-96.2 277.36,-98.7 276.67,-91.74"/>
</a>
</g>
</g>
<!-- Node15 -->
<g id="Node000015" class="node">
<title>Node15</title>
<g id="a_Node000015"><a xlink:href="class_acts_1_1_rectangle_bounds.html" target="_top" xlink:title=" ">
<polygon fill="white" stroke="#666666" points="461.5,-56 333.5,-56 333.5,-37 461.5,-37 461.5,-56"/>
<text text-anchor="middle" x="397.5" y="-44" font-family="Helvetica,sans-Serif" font-size="10.00">Acts::RectangleBounds</text>
</a>
</g>
</g>
<!-- Node9&#45;&gt;Node15 -->
<g id="edge224_Node000009_Node000015" class="edge">
<title>Node9&#45;&gt;Node15</title>
<g id="a_edge224_Node000009_Node000015"><a xlink:title=" ">
<path fill="none" stroke="#63b8ff" d="M243.84,-87.95C262.2,-80.26 286.12,-70.93 308,-64.5 318.83,-61.31 330.57,-58.5 341.85,-56.09"/>
<polygon fill="#63b8ff" stroke="#63b8ff" points="242.36,-84.77 234.52,-91.9 245.09,-91.22 242.36,-84.77"/>
</a>
</g>
</g>
<!-- Node16 -->
<g id="Node000016" class="node">
<title>Node16</title>
<g id="a_Node000016"><a xlink:href="class_acts_1_1_trapezoid_bounds.html" target="_top" xlink:title="Bounds for a trapezoidal, planar Surface.">
<polygon fill="white" stroke="#666666" points="460.5,-19 334.5,-19 334.5,0 460.5,0 460.5,-19"/>
<text text-anchor="middle" x="397.5" y="-7" font-family="Helvetica,sans-Serif" font-size="10.00">Acts::TrapezoidBounds</text>
</a>
</g>
</g>
<!-- Node9&#45;&gt;Node16 -->
<g id="edge225_Node000009_Node000016" class="edge">
<title>Node9&#45;&gt;Node16</title>
<g id="a_edge225_Node000009_Node000016"><a xlink:title=" ">
<path fill="none" stroke="#63b8ff" d="M229.52,-84.67C247.3,-67.58 277.2,-41.67 308,-27.5 316.26,-23.7 325.32,-20.7 334.4,-18.33"/>
<polygon fill="#63b8ff" stroke="#63b8ff" points="226.92,-82.32 222.24,-91.83 231.83,-87.31 226.92,-82.32"/>
</a>
</g>
</g>
<!-- Node11 -->
<g id="Node000011" class="node">
<title>Node11</title>
<g id="a_Node000011"><a xlink:href="class_acts_1_1_convex_polygon_bounds_3_01_polygon_dynamic_01_4.html" target="_top" xlink:title="This is the specialization handling a polygon with a dynamic number of points.">
<polygon fill="white" stroke="#666666" points="693,-193.5 538,-193.5 538,-163.5 693,-163.5 693,-193.5"/>
<text text-anchor="start" x="546" y="-181.5" font-family="Helvetica,sans-Serif" font-size="10.00">Acts::ConvexPolygonBounds</text>
<text text-anchor="middle" x="615.5" y="-170.5" font-family="Helvetica,sans-Serif" font-size="10.00">&lt; PolygonDynamic &gt;</text>
</a>
</g>
</g>
<!-- Node10&#45;&gt;Node11 -->
<g id="edge220_Node000010_Node000011" class="edge">
<title>Node10&#45;&gt;Node11</title>
<g id="a_edge220_Node000010_Node000011"><a xlink:title=" ">
<path fill="none" stroke="#63b8ff" d="M497.57,-167.13C511.07,-168.44 524.76,-169.78 537.79,-171.04"/>
<polygon fill="#63b8ff" stroke="#63b8ff" points="497.58,-163.62 487.29,-166.13 496.9,-170.58 497.58,-163.62"/>
</a>
</g>
</g>
<!-- Node12 -->
<g id="Node000012" class="node">
<title>Node12</title>
<g id="a_Node000012"><a xlink:href="class_acts_1_1_convex_polygon_bounds.html" target="_top" xlink:title="This is the actual implementation of the bounds.">
<polygon fill="white" stroke="#666666" points="708,-145 523,-145 523,-126 708,-126 708,-145"/>
<text text-anchor="middle" x="615.5" y="-133" font-family="Helvetica,sans-Serif" font-size="10.00">Acts::ConvexPolygonBounds&lt; N &gt;</text>
</a>
</g>
</g>
<!-- Node10&#45;&gt;Node12 -->
<g id="edge221_Node000010_Node000012" class="edge">
<title>Node10&#45;&gt;Node12</title>
<g id="a_edge221_Node000010_Node000012"><a xlink:title=" ">
<path fill="none" stroke="#63b8ff" d="M497.27,-147.44C505.81,-146.57 514.43,-145.69 522.91,-144.83"/>
<polygon fill="#63b8ff" stroke="#63b8ff" points="496.88,-143.96 487.29,-148.46 497.59,-150.93 496.88,-143.96"/>
</a>
</g>
</g>
</g>
</svg>
