<?xml version="1.0" encoding="UTF-8" standalone="no"?>
<!DOCTYPE svg PUBLIC "-//W3C//DTD SVG 1.1//EN"
 "http://www.w3.org/Graphics/SVG/1.1/DTD/svg11.dtd">
<!-- Generated by graphviz version 2.43.0 (0)
 -->
<!-- Title: Graphical Class Hierarchy Pages: 1 -->
<svg width="363pt" height="172pt"
 viewBox="0.00 0.00 363.00 172.00" xmlns="http://www.w3.org/2000/svg" xmlns:xlink="http://www.w3.org/1999/xlink">
<g id="graph0" class="graph" transform="scale(1 1) rotate(0) translate(4 168)">
<title>Graphical Class Hierarchy</title>
<!-- Node0 -->
<g id="Node000000" class="node">
<title>Node0</title>
<g id="a_Node000000"><a xlink:href="struct_acts_1_1_i_reference_generator.html" target="_top" xlink:title="An interface for reference point generators.">
<polygon fill="white" stroke="#666666" points="145,-93.5 0,-93.5 0,-74.5 145,-74.5 145,-93.5"/>
<text text-anchor="middle" x="72.5" y="-81.5" font-family="Helvetica,sans-Serif" font-size="10.00">Acts::IReferenceGenerator</text>
</a>
</g>
</g>
<!-- Node1 -->
<g id="Node000001" class="node">
<title>Node1</title>
<g id="a_Node000001"><a xlink:href="struct_acts_1_1_axis_direction_reference_generator.html" target="_top" xlink:title="A struct to access reference positions based on bin values.">
<polygon fill="white" stroke="#666666" points="347,-164 189,-164 189,-134 347,-134 347,-164"/>
<text text-anchor="start" x="197" y="-152" font-family="Helvetica,sans-Serif" font-size="10.00">Acts::AxisDirectionReference</text>
<text text-anchor="middle" x="268" y="-141" font-family="Helvetica,sans-Serif" font-size="10.00">Generator&lt; bVAL &gt;</text>
</a>
</g>
</g>
<!-- Node0&#45;&gt;Node1 -->
<g id="edge131_Node000000_Node000001" class="edge">
<title>Node0&#45;&gt;Node1</title>
<g id="a_edge131_Node000000_Node000001"><a xlink:title=" ">
<path fill="none" stroke="#63b8ff" d="M106.24,-97.39C127.4,-105.81 155.61,-116.64 181,-125 190.42,-128.1 200.51,-131.16 210.34,-133.99"/>
<polygon fill="#63b8ff" stroke="#63b8ff" points="107.35,-94.06 96.76,-93.59 104.74,-100.56 107.35,-94.06"/>
</a>
</g>
</g>
<!-- Node2 -->
<g id="Node000002" class="node">
<title>Node2</title>
<g id="a_Node000002"><a xlink:href="struct_acts_1_1_center_reference_generator.html" target="_top" xlink:title="A struct to access the center position as a sole reference.">
<polygon fill="white" stroke="#666666" points="355,-115.5 181,-115.5 181,-96.5 355,-96.5 355,-115.5"/>
<text text-anchor="middle" x="268" y="-103.5" font-family="Helvetica,sans-Serif" font-size="10.00">Acts::CenterReferenceGenerator</text>
</a>
</g>
</g>
<!-- Node0&#45;&gt;Node2 -->
<g id="edge132_Node000000_Node000002" class="edge">
<title>Node0&#45;&gt;Node2</title>
<g id="a_edge132_Node000000_Node000002"><a xlink:title=" ">
<path fill="none" stroke="#63b8ff" d="M155.06,-93.27C164.42,-94.34 173.98,-95.42 183.36,-96.49"/>
<polygon fill="#63b8ff" stroke="#63b8ff" points="155.33,-89.78 145,-92.13 154.54,-96.74 155.33,-89.78"/>
</a>
</g>
</g>
<!-- Node3 -->
<g id="Node000003" class="node">
<title>Node3</title>
<g id="a_Node000003"><a xlink:href="struct_acts_1_1_polyhedron_reference_generator.html" target="_top" xlink:title="A struct to access generated vertices from surface polyhedrons These vertices are then used to find t...">
<polygon fill="white" stroke="#666666" points="342,-78 194,-78 194,-48 342,-48 342,-78"/>
<text text-anchor="start" x="202" y="-66" font-family="Helvetica,sans-Serif" font-size="10.00">Acts::PolyhedronReference</text>
<text text-anchor="middle" x="268" y="-55" font-family="Helvetica,sans-Serif" font-size="10.00">Generator</text>
</a>
</g>
</g>
<!-- Node0&#45;&gt;Node3 -->
<g id="edge133_Node000000_Node000003" class="edge">
<title>Node0&#45;&gt;Node3</title>
<g id="a_edge133_Node000000_Node000003"><a xlink:title=" ">
<path fill="none" stroke="#63b8ff" d="M155.2,-75.13C168.03,-73.74 181.23,-72.31 193.85,-70.94"/>
<polygon fill="#63b8ff" stroke="#63b8ff" points="154.57,-71.68 145,-76.24 155.32,-78.64 154.57,-71.68"/>
</a>
</g>
</g>
<!-- Node4 -->
<g id="Node000004" class="node">
<title>Node4</title>
<g id="a_Node000004"><a xlink:href="struct_acts_1_1_projected_reference_generator.html" target="_top" xlink:title="A Projected reference generator which projects the polyhedron vertices onto a given reference surface...">
<polygon fill="white" stroke="#666666" points="337.5,-30 198.5,-30 198.5,0 337.5,0 337.5,-30"/>
<text text-anchor="start" x="206.5" y="-18" font-family="Helvetica,sans-Serif" font-size="10.00">Acts::ProjectedReference</text>
<text text-anchor="middle" x="268" y="-7" font-family="Helvetica,sans-Serif" font-size="10.00">Generator</text>
</a>
</g>
</g>
<!-- Node0&#45;&gt;Node4 -->
<g id="edge134_Node000000_Node000004" class="edge">
<title>Node0&#45;&gt;Node4</title>
<g id="a_edge134_Node000000_Node000004"><a xlink:title=" ">
<path fill="none" stroke="#63b8ff" d="M103.41,-70.3C124.76,-60.81 154.32,-48.27 181,-39 190.08,-35.85 199.8,-32.81 209.33,-30.03"/>
<polygon fill="#63b8ff" stroke="#63b8ff" points="101.91,-67.14 94.21,-74.42 104.77,-73.53 101.91,-67.14"/>
</a>
</g>
</g>
</g>
</svg>
