<?xml version="1.0" encoding="UTF-8" standalone="no"?>
<!DOCTYPE svg PUBLIC "-//W3C//DTD SVG 1.1//EN"
 "http://www.w3.org/Graphics/SVG/1.1/DTD/svg11.dtd">
<!-- Generated by graphviz version 2.43.0 (0)
 -->
<!-- Title: Graphical Class Hierarchy Pages: 1 -->
<svg width="500pt" height="86pt"
 viewBox="0.00 0.00 500.00 86.00" xmlns="http://www.w3.org/2000/svg" xmlns:xlink="http://www.w3.org/1999/xlink">
<g id="graph0" class="graph" transform="scale(1 1) rotate(0) translate(4 82)">
<title>Graphical Class Hierarchy</title>
<!-- Node0 -->
<g id="Node000000" class="node">
<title>Node0</title>
<g id="a_Node000000"><a xlink:title=" ">
<polygon fill="#e0e0e0" stroke="#999999" points="154,-48.5 0,-48.5 0,-29.5 154,-29.5 154,-48.5"/>
<text text-anchor="middle" x="77" y="-36.5" font-family="Helvetica,sans-Serif" font-size="10.00">Acts::detail::ProtoLayerBase</text>
</a>
</g>
</g>
<!-- Node1 -->
<g id="Node000001" class="node">
<title>Node1</title>
<g id="a_Node000001"><a xlink:title=" ">
<polygon fill="#e0e0e0" stroke="#999999" points="320,-78 190,-78 190,-48 320,-48 320,-78"/>
<text text-anchor="start" x="198" y="-66" font-family="Helvetica,sans-Serif" font-size="10.00">Acts::detail::ProtoLayer</text>
<text text-anchor="middle" x="255" y="-55" font-family="Helvetica,sans-Serif" font-size="10.00">T&lt; false &gt;</text>
</a>
</g>
</g>
<!-- Node0&#45;&gt;Node1 -->
<g id="edge24_Node000000_Node000001" class="edge">
<title>Node0&#45;&gt;Node1</title>
<g id="a_edge24_Node000000_Node000001"><a xlink:title=" ">
<path fill="none" stroke="#63b8ff" d="M158.01,-49.91C168.73,-51.37 179.6,-52.85 189.99,-54.27"/>
<polygon fill="#63b8ff" stroke="#63b8ff" points="158.19,-46.4 147.81,-48.52 157.25,-53.34 158.19,-46.4"/>
</a>
</g>
</g>
<!-- Node3 -->
<g id="Node000003" class="node">
<title>Node3</title>
<g id="a_Node000003"><a xlink:title=" ">
<polygon fill="#e0e0e0" stroke="#999999" points="320,-30 190,-30 190,0 320,0 320,-30"/>
<text text-anchor="start" x="198" y="-18" font-family="Helvetica,sans-Serif" font-size="10.00">Acts::detail::ProtoLayer</text>
<text text-anchor="middle" x="255" y="-7" font-family="Helvetica,sans-Serif" font-size="10.00">T&lt; true &gt;</text>
</a>
</g>
</g>
<!-- Node0&#45;&gt;Node3 -->
<g id="edge26_Node000000_Node000003" class="edge">
<title>Node0&#45;&gt;Node3</title>
<g id="a_edge26_Node000000_Node000003"><a xlink:title=" ">
<path fill="none" stroke="#63b8ff" d="M158.01,-28.09C168.73,-26.63 179.6,-25.15 189.99,-23.73"/>
<polygon fill="#63b8ff" stroke="#63b8ff" points="157.25,-24.66 147.81,-29.48 158.19,-31.6 157.25,-24.66"/>
</a>
</g>
</g>
<!-- Node2 -->
<g id="Node000002" class="node">
<title>Node2</title>
<g id="a_Node000002"><a xlink:href="struct_acts_1_1_mutable_proto_layer.html" target="_top" xlink:title="A mutable proto layer that can be modified after construction.">
<polygon fill="white" stroke="#666666" points="492,-72.5 356,-72.5 356,-53.5 492,-53.5 492,-72.5"/>
<text text-anchor="middle" x="424" y="-60.5" font-family="Helvetica,sans-Serif" font-size="10.00">Acts::MutableProtoLayer</text>
</a>
</g>
</g>
<!-- Node1&#45;&gt;Node2 -->
<g id="edge25_Node000001_Node000002" class="edge">
<title>Node1&#45;&gt;Node2</title>
<g id="a_edge25_Node000001_Node000002"><a xlink:title=" ">
<path fill="none" stroke="#63b8ff" d="M330.33,-63C338.8,-63 347.39,-63 355.76,-63"/>
<polygon fill="#63b8ff" stroke="#63b8ff" points="330.09,-59.5 320.09,-63 330.09,-66.5 330.09,-59.5"/>
</a>
</g>
</g>
<!-- Node4 -->
<g id="Node000004" class="node">
<title>Node4</title>
<g id="a_Node000004"><a xlink:href="struct_acts_1_1_proto_layer.html" target="_top" xlink:title="Forward&#45;declaration friendly class for backward compatibility This class does not allow modification ...">
<polygon fill="white" stroke="#666666" points="472,-24.5 376,-24.5 376,-5.5 472,-5.5 472,-24.5"/>
<text text-anchor="middle" x="424" y="-12.5" font-family="Helvetica,sans-Serif" font-size="10.00">Acts::ProtoLayer</text>
</a>
</g>
</g>
<!-- Node3&#45;&gt;Node4 -->
<g id="edge27_Node000003_Node000004" class="edge">
<title>Node3&#45;&gt;Node4</title>
<g id="a_edge27_Node000003_Node000004"><a xlink:title=" ">
<path fill="none" stroke="#63b8ff" d="M330.21,-15C345.75,-15 361.72,-15 375.94,-15"/>
<polygon fill="#63b8ff" stroke="#63b8ff" points="330.09,-11.5 320.09,-15 330.09,-18.5 330.09,-11.5"/>
</a>
</g>
</g>
</g>
</svg>
