<?xml version="1.0" encoding="UTF-8" standalone="no"?>
<!DOCTYPE svg PUBLIC "-//W3C//DTD SVG 1.1//EN"
 "http://www.w3.org/Graphics/SVG/1.1/DTD/svg11.dtd">
<!-- Generated by graphviz version 2.43.0 (0)
 -->
<!-- Title: Graphical Class Hierarchy Pages: 1 -->
<svg width="309pt" height="249pt"
 viewBox="0.00 0.00 309.00 249.00" xmlns="http://www.w3.org/2000/svg" xmlns:xlink="http://www.w3.org/1999/xlink">
<g id="graph0" class="graph" transform="scale(1 1) rotate(0) translate(4 245)">
<title>Graphical Class Hierarchy</title>
<!-- Node0 -->
<g id="Node000000" class="node">
<title>Node0</title>
<g id="a_Node000000"><a xlink:title=" ">
<polygon fill="#e0e0e0" stroke="#999999" points="105,-135.5 0,-135.5 0,-116.5 105,-116.5 105,-135.5"/>
<text text-anchor="middle" x="52.5" y="-123.5" font-family="Helvetica,sans-Serif" font-size="10.00">detail::Extendable</text>
</a>
</g>
</g>
<!-- Node1 -->
<g id="Node000001" class="node">
<title>Node1</title>
<g id="a_Node000001"><a xlink:href="struct_acts_1_1_propagator_result.html" target="_top" xlink:title=" ">
<polygon fill="white" stroke="#666666" points="291,-241 151,-241 151,-211 291,-211 291,-241"/>
<text text-anchor="start" x="159" y="-229" font-family="Helvetica,sans-Serif" font-size="10.00">Acts::PropagatorResult</text>
<text text-anchor="middle" x="221" y="-218" font-family="Helvetica,sans-Serif" font-size="10.00">&lt; parameters_t, args... &gt;</text>
</a>
</g>
</g>
<!-- Node0&#45;&gt;Node1 -->
<g id="edge277_Node000000_Node000001" class="edge">
<title>Node0&#45;&gt;Node1</title>
<g id="a_edge277_Node000000_Node000001"><a xlink:title=" ">
<path fill="none" stroke="#8b1a1a" d="M69.08,-143.25C85.45,-160.4 112.7,-186.35 141,-202 147.15,-205.4 153.83,-208.38 160.63,-210.97"/>
<polygon fill="#8b1a1a" stroke="#8b1a1a" points="71.35,-140.54 61.97,-135.62 66.23,-145.32 71.35,-140.54"/>
</a>
</g>
</g>
<!-- Node2 -->
<g id="Node000002" class="node">
<title>Node2</title>
<g id="a_Node000002"><a xlink:href="struct_acts_1_1_propagator_state.html" target="_top" xlink:title=" ">
<polygon fill="white" stroke="#666666" points="297.5,-192.5 144.5,-192.5 144.5,-129.5 297.5,-129.5 297.5,-192.5"/>
<text text-anchor="start" x="152.5" y="-180.5" font-family="Helvetica,sans-Serif" font-size="10.00">Acts::PropagatorState</text>
<text text-anchor="start" x="152.5" y="-169.5" font-family="Helvetica,sans-Serif" font-size="10.00">&lt; propagator_options</text>
<text text-anchor="start" x="152.5" y="-158.5" font-family="Helvetica,sans-Serif" font-size="10.00">_t, typename stepper_t</text>
<text text-anchor="start" x="152.5" y="-147.5" font-family="Helvetica,sans-Serif" font-size="10.00">::State, typename navigator</text>
<text text-anchor="middle" x="221" y="-136.5" font-family="Helvetica,sans-Serif" font-size="10.00">_t::State, args... &gt;</text>
</a>
</g>
</g>
<!-- Node0&#45;&gt;Node2 -->
<g id="edge278_Node000000_Node000002" class="edge">
<title>Node0&#45;&gt;Node2</title>
<g id="a_edge278_Node000000_Node000002"><a xlink:title=" ">
<path fill="none" stroke="#8b1a1a" d="M108.81,-137.63C120.23,-140.03 132.45,-142.6 144.45,-145.12"/>
<polygon fill="#8b1a1a" stroke="#8b1a1a" points="109.5,-134.2 99,-135.56 108.06,-141.05 109.5,-134.2"/>
</a>
</g>
</g>
<!-- Node3 -->
<g id="Node000003" class="node">
<title>Node3</title>
<g id="a_Node000003"><a xlink:href="struct_acts_1_1_propagator_result.html" target="_top" xlink:title="Simple class holding result of propagation call.">
<polygon fill="white" stroke="#666666" points="285,-111.5 157,-111.5 157,-70.5 285,-70.5 285,-111.5"/>
<text text-anchor="start" x="165" y="-99.5" font-family="Helvetica,sans-Serif" font-size="10.00">Acts::PropagatorResult</text>
<text text-anchor="start" x="165" y="-88.5" font-family="Helvetica,sans-Serif" font-size="10.00">&lt; parameters_t, result</text>
<text text-anchor="middle" x="221" y="-77.5" font-family="Helvetica,sans-Serif" font-size="10.00">_list &gt;</text>
</a>
</g>
</g>
<!-- Node0&#45;&gt;Node3 -->
<g id="edge279_Node000000_Node000003" class="edge">
<title>Node0&#45;&gt;Node3</title>
<g id="a_edge279_Node000000_Node000003"><a xlink:title=" ">
<path fill="none" stroke="#8b1a1a" d="M108.86,-114.36C124.21,-111.14 141,-107.61 156.77,-104.29"/>
<polygon fill="#8b1a1a" stroke="#8b1a1a" points="108.06,-110.95 99,-116.44 109.5,-117.8 108.06,-110.95"/>
</a>
</g>
</g>
<!-- Node4 -->
<g id="Node000004" class="node">
<title>Node4</title>
<g id="a_Node000004"><a xlink:href="struct_acts_1_1_propagator_state.html" target="_top" xlink:title="private Propagator state for navigation and debugging">
<polygon fill="white" stroke="#666666" points="301,-52 141,-52 141,0 301,0 301,-52"/>
<text text-anchor="start" x="149" y="-40" font-family="Helvetica,sans-Serif" font-size="10.00">Acts::PropagatorState</text>
<text text-anchor="start" x="149" y="-29" font-family="Helvetica,sans-Serif" font-size="10.00">&lt; propagator_options</text>
<text text-anchor="start" x="149" y="-18" font-family="Helvetica,sans-Serif" font-size="10.00">_t, stepper_state_t, navigator</text>
<text text-anchor="middle" x="221" y="-7" font-family="Helvetica,sans-Serif" font-size="10.00">_state_t, extension_state_t &gt;</text>
</a>
</g>
</g>
<!-- Node0&#45;&gt;Node4 -->
<g id="edge280_Node000000_Node000004" class="edge">
<title>Node0&#45;&gt;Node4</title>
<g id="a_edge280_Node000000_Node000004"><a xlink:title=" ">
<path fill="none" stroke="#8b1a1a" d="M73.3,-109.7C90.53,-95.97 116.52,-76.33 141,-62 146.85,-58.57 153.09,-55.24 159.39,-52.07"/>
<polygon fill="#8b1a1a" stroke="#8b1a1a" points="70.73,-107.28 65.14,-116.28 75.12,-112.73 70.73,-107.28"/>
</a>
</g>
</g>
</g>
</svg>
