<?xml version="1.0" encoding="UTF-8" standalone="no"?>
<!DOCTYPE svg PUBLIC "-//W3C//DTD SVG 1.1//EN"
 "http://www.w3.org/Graphics/SVG/1.1/DTD/svg11.dtd">
<!-- Generated by graphviz version 2.43.0 (0)
 -->
<!-- Title: Graphical Class Hierarchy Pages: 1 -->
<svg width="348pt" height="76pt"
 viewBox="0.00 0.00 348.00 75.50" xmlns="http://www.w3.org/2000/svg" xmlns:xlink="http://www.w3.org/1999/xlink">
<g id="graph0" class="graph" transform="scale(1 1) rotate(0) translate(4 71.5)">
<title>Graphical Class Hierarchy</title>
<!-- Node0 -->
<g id="Node000000" class="node">
<title>Node0</title>
<g id="a_Node000000"><a xlink:href="class_acts_1_1_bethe_heitler_approx.html" target="_top" xlink:title=" ">
<polygon fill="white" stroke="#666666" points="140,-45.5 0,-45.5 0,-26.5 140,-26.5 140,-45.5"/>
<text text-anchor="middle" x="70" y="-33.5" font-family="Helvetica,sans-Serif" font-size="10.00">Acts::BetheHeitlerApprox</text>
</a>
</g>
</g>
<!-- Node1 -->
<g id="Node000001" class="node">
<title>Node1</title>
<g id="a_Node000001"><a xlink:href="class_acts_1_1_atlas_bethe_heitler_approx.html" target="_top" xlink:title="This class approximates the Bethe&#45;Heitler distribution as a gaussian mixture.">
<polygon fill="white" stroke="#666666" points="340,-67.5 176,-67.5 176,-48.5 340,-48.5 340,-67.5"/>
<text text-anchor="middle" x="258" y="-55.5" font-family="Helvetica,sans-Serif" font-size="10.00">Acts::AtlasBetheHeitlerApprox</text>
</a>
</g>
</g>
<!-- Node0&#45;&gt;Node1 -->
<g id="edge7_Node000000_Node000001" class="edge">
<title>Node0&#45;&gt;Node1</title>
<g id="a_edge7_Node000000_Node000001"><a xlink:title=" ">
<path fill="none" stroke="#63b8ff" d="M150.31,-45.38C158.94,-46.4 167.74,-47.44 176.39,-48.47"/>
<polygon fill="#63b8ff" stroke="#63b8ff" points="150.6,-41.89 140.26,-44.19 149.78,-48.84 150.6,-41.89"/>
</a>
</g>
</g>
<!-- Node2 -->
<g id="Node000002" class="node">
<title>Node2</title>
<g id="a_Node000002"><a xlink:href="class_acts_1_1_bethe_heitler_approx_single_cmp.html" target="_top" xlink:title="This class approximates the Bethe&#45;Heitler with only one component.">
<polygon fill="white" stroke="#666666" points="328,-30 188,-30 188,0 328,0 328,-30"/>
<text text-anchor="start" x="196" y="-18" font-family="Helvetica,sans-Serif" font-size="10.00">Acts::BetheHeitlerApprox</text>
<text text-anchor="middle" x="258" y="-7" font-family="Helvetica,sans-Serif" font-size="10.00">SingleCmp</text>
</a>
</g>
</g>
<!-- Node0&#45;&gt;Node2 -->
<g id="edge8_Node000000_Node000002" class="edge">
<title>Node0&#45;&gt;Node2</title>
<g id="a_edge8_Node000000_Node000002"><a xlink:title=" ">
<path fill="none" stroke="#63b8ff" d="M150.24,-27.05C162.8,-25.64 175.69,-24.18 187.99,-22.79"/>
<polygon fill="#63b8ff" stroke="#63b8ff" points="149.8,-23.58 140.26,-28.18 150.59,-30.54 149.8,-23.58"/>
</a>
</g>
</g>
</g>
</svg>
