<?xml version="1.0" encoding="UTF-8" standalone="no"?>
<!DOCTYPE svg PUBLIC "-//W3C//DTD SVG 1.1//EN"
 "http://www.w3.org/Graphics/SVG/1.1/DTD/svg11.dtd">
<!-- Generated by graphviz version 2.43.0 (0)
 -->
<!-- Title: Graphical Class Hierarchy Pages: 1 -->
<svg width="231pt" height="86pt"
 viewBox="0.00 0.00 231.00 86.00" xmlns="http://www.w3.org/2000/svg" xmlns:xlink="http://www.w3.org/1999/xlink">
<g id="graph0" class="graph" transform="scale(1 1) rotate(0) translate(4 82)">
<title>Graphical Class Hierarchy</title>
<!-- Node0 -->
<g id="Node000000" class="node">
<title>Node0</title>
<g id="a_Node000000"><a xlink:href="class_acts_1_1_i_axis.html" target="_top" xlink:title="Common base class for all Axis instance.">
<polygon fill="white" stroke="#666666" points="68,-48.5 0,-48.5 0,-29.5 68,-29.5 68,-48.5"/>
<text text-anchor="middle" x="34" y="-36.5" font-family="Helvetica,sans-Serif" font-size="10.00">Acts::IAxis</text>
</a>
</g>
</g>
<!-- Node1 -->
<g id="Node000001" class="node">
<title>Node1</title>
<g id="a_Node000001"><a xlink:href="class_acts_1_1_axis_3_01_axis_type_1_1_equidistant_00_01bdt_01_4.html" target="_top" xlink:title="calculate bin indices for an equidistant binning">
<polygon fill="white" stroke="#666666" points="223,-78 104,-78 104,-48 223,-48 223,-78"/>
<text text-anchor="start" x="112" y="-66" font-family="Helvetica,sans-Serif" font-size="10.00">Acts::Axis&lt; AxisType</text>
<text text-anchor="middle" x="163.5" y="-55" font-family="Helvetica,sans-Serif" font-size="10.00">::Equidistant, bdt &gt;</text>
</a>
</g>
</g>
<!-- Node0&#45;&gt;Node1 -->
<g id="edge93_Node000000_Node000001" class="edge">
<title>Node0&#45;&gt;Node1</title>
<g id="a_edge93_Node000000_Node000001"><a xlink:title=" ">
<path fill="none" stroke="#63b8ff" d="M78.26,-47.14C86.48,-48.69 95.21,-50.33 103.81,-51.95"/>
<polygon fill="#63b8ff" stroke="#63b8ff" points="78.64,-43.65 68.17,-45.24 77.35,-50.53 78.64,-43.65"/>
</a>
</g>
</g>
<!-- Node2 -->
<g id="Node000002" class="node">
<title>Node2</title>
<g id="a_Node000002"><a xlink:href="class_acts_1_1_axis_3_01_axis_type_1_1_variable_00_01bdt_01_4.html" target="_top" xlink:title="calculate bin indices for a variable binning">
<polygon fill="white" stroke="#666666" points="223,-30 104,-30 104,0 223,0 223,-30"/>
<text text-anchor="start" x="112" y="-18" font-family="Helvetica,sans-Serif" font-size="10.00">Acts::Axis&lt; AxisType</text>
<text text-anchor="middle" x="163.5" y="-7" font-family="Helvetica,sans-Serif" font-size="10.00">::Variable, bdt &gt;</text>
</a>
</g>
</g>
<!-- Node0&#45;&gt;Node2 -->
<g id="edge94_Node000000_Node000002" class="edge">
<title>Node0&#45;&gt;Node2</title>
<g id="a_edge94_Node000000_Node000002"><a xlink:title=" ">
<path fill="none" stroke="#63b8ff" d="M78.26,-30.86C86.48,-29.31 95.21,-27.67 103.81,-26.05"/>
<polygon fill="#63b8ff" stroke="#63b8ff" points="77.35,-27.47 68.17,-32.76 78.64,-34.35 77.35,-27.47"/>
</a>
</g>
</g>
</g>
</svg>
