<?xml version="1.0" encoding="UTF-8" standalone="no"?>
<!DOCTYPE svg PUBLIC "-//W3C//DTD SVG 1.1//EN"
 "http://www.w3.org/Graphics/SVG/1.1/DTD/svg11.dtd">
<!-- Generated by graphviz version 2.43.0 (0)
 -->
<!-- Title: Graphical Class Hierarchy Pages: 1 -->
<svg width="570pt" height="172pt"
 viewBox="0.00 0.00 570.00 171.50" xmlns="http://www.w3.org/2000/svg" xmlns:xlink="http://www.w3.org/1999/xlink">
<g id="graph0" class="graph" transform="scale(1 1) rotate(0) translate(4 167.5)">
<title>Graphical Class Hierarchy</title>
<!-- Node0 -->
<g id="Node000000" class="node">
<title>Node0</title>
<g id="a_Node000000"><a xlink:href="class_acts_1_1_detector_element_base.html" target="_top" xlink:title="This class is the base of all detector elements that are usable by ACTS.">
<polygon fill="white" stroke="#666666" points="150,-96.5 0,-96.5 0,-77.5 150,-77.5 150,-96.5"/>
<text text-anchor="middle" x="75" y="-84.5" font-family="Helvetica,sans-Serif" font-size="10.00">Acts::DetectorElementBase</text>
</a>
</g>
</g>
<!-- Node1 -->
<g id="Node000001" class="node">
<title>Node1</title>
<g id="a_Node000001"><a xlink:href="class_acts_1_1_json_detector_element.html" target="_top" xlink:title="A implementation of a detector element, that is constructed from a JSON description of a surface.">
<polygon fill="white" stroke="#666666" points="344,-163.5 198,-163.5 198,-144.5 344,-144.5 344,-163.5"/>
<text text-anchor="middle" x="271" y="-151.5" font-family="Helvetica,sans-Serif" font-size="10.00">Acts::JsonDetectorElement</text>
</a>
</g>
</g>
<!-- Node0&#45;&gt;Node1 -->
<g id="edge39_Node000000_Node000001" class="edge">
<title>Node0&#45;&gt;Node1</title>
<g id="a_edge39_Node000000_Node000001"><a xlink:title=" ">
<path fill="none" stroke="#63b8ff" d="M104.1,-101.02C125.99,-111.51 157.37,-125.61 186,-135 197.08,-138.63 209.21,-141.82 220.71,-144.49"/>
<polygon fill="#63b8ff" stroke="#63b8ff" points="105.57,-97.85 95.04,-96.63 102.51,-104.14 105.57,-97.85"/>
</a>
</g>
</g>
<!-- Node2 -->
<g id="Node000002" class="node">
<title>Node2</title>
<g id="a_Node000002"><a xlink:href="class_acts_plugins_1_1_geant4_detector_element.html" target="_top" xlink:title="Detector element representative for Geant4 sensitive elements.">
<polygon fill="white" stroke="#666666" points="349,-126 193,-126 193,-96 349,-96 349,-126"/>
<text text-anchor="start" x="201" y="-114" font-family="Helvetica,sans-Serif" font-size="10.00">ActsPlugins::Geant4Detector</text>
<text text-anchor="middle" x="271" y="-103" font-family="Helvetica,sans-Serif" font-size="10.00">Element</text>
</a>
</g>
</g>
<!-- Node0&#45;&gt;Node2 -->
<g id="edge40_Node000000_Node000002" class="edge">
<title>Node0&#45;&gt;Node2</title>
<g id="a_edge40_Node000000_Node000002"><a xlink:title=" ">
<path fill="none" stroke="#63b8ff" d="M160.12,-97.41C171.04,-98.76 182.18,-100.14 192.97,-101.47"/>
<polygon fill="#63b8ff" stroke="#63b8ff" points="160.53,-93.93 150.17,-96.18 159.67,-100.88 160.53,-93.93"/>
</a>
</g>
</g>
<!-- Node3 -->
<g id="Node000003" class="node">
<title>Node3</title>
<g id="a_Node000003"><a xlink:href="class_acts_plugins_1_1_geo_model_detector_element.html" target="_top" xlink:title="Detector element representative for GeoModel based sensitive elements.">
<polygon fill="white" stroke="#666666" points="356,-78 186,-78 186,-48 356,-48 356,-78"/>
<text text-anchor="start" x="194" y="-66" font-family="Helvetica,sans-Serif" font-size="10.00">ActsPlugins::GeoModelDetector</text>
<text text-anchor="middle" x="271" y="-55" font-family="Helvetica,sans-Serif" font-size="10.00">Element</text>
</a>
</g>
</g>
<!-- Node0&#45;&gt;Node3 -->
<g id="edge41_Node000000_Node000003" class="edge">
<title>Node0&#45;&gt;Node3</title>
<g id="a_edge41_Node000000_Node000003"><a xlink:title=" ">
<path fill="none" stroke="#63b8ff" d="M160.11,-76.6C168.63,-75.54 177.3,-74.47 185.82,-73.41"/>
<polygon fill="#63b8ff" stroke="#63b8ff" points="159.67,-73.12 150.17,-77.82 160.53,-80.07 159.67,-73.12"/>
</a>
</g>
</g>
<!-- Node5 -->
<g id="Node000005" class="node">
<title>Node5</title>
<g id="a_Node000005"><a xlink:href="class_acts_plugins_1_1_t_geo_detector_element.html" target="_top" xlink:title="DetectorElement plugin for ROOT TGeo shapes.">
<polygon fill="white" stroke="#666666" points="344,-30 198,-30 198,0 344,0 344,-30"/>
<text text-anchor="start" x="206" y="-18" font-family="Helvetica,sans-Serif" font-size="10.00">ActsPlugins::TGeoDetector</text>
<text text-anchor="middle" x="271" y="-7" font-family="Helvetica,sans-Serif" font-size="10.00">Element</text>
</a>
</g>
</g>
<!-- Node0&#45;&gt;Node5 -->
<g id="edge43_Node000000_Node000005" class="edge">
<title>Node0&#45;&gt;Node5</title>
<g id="a_edge43_Node000000_Node000005"><a xlink:title=" ">
<path fill="none" stroke="#63b8ff" d="M105.05,-73.06C126.98,-62.84 157.99,-49.06 186,-39 194.71,-35.87 204.03,-32.87 213.19,-30.12"/>
<polygon fill="#63b8ff" stroke="#63b8ff" points="103.51,-69.91 95.95,-77.33 106.49,-76.25 103.51,-69.91"/>
</a>
</g>
</g>
<!-- Node4 -->
<g id="Node000004" class="node">
<title>Node4</title>
<g id="a_Node000004"><a xlink:href="class_acts_plugins_1_1_geo_model_detector_element_i_tk.html" target="_top" xlink:title="Specialization of the GeoModelDetectorElement for the ITk.">
<polygon fill="white" stroke="#666666" points="562,-78 392,-78 392,-48 562,-48 562,-78"/>
<text text-anchor="start" x="400" y="-66" font-family="Helvetica,sans-Serif" font-size="10.00">ActsPlugins::GeoModelDetector</text>
<text text-anchor="middle" x="477" y="-55" font-family="Helvetica,sans-Serif" font-size="10.00">ElementITk</text>
</a>
</g>
</g>
<!-- Node3&#45;&gt;Node4 -->
<g id="edge42_Node000003_Node000004" class="edge">
<title>Node3&#45;&gt;Node4</title>
<g id="a_edge42_Node000003_Node000004"><a xlink:title=" ">
<path fill="none" stroke="#63b8ff" d="M366.4,-63C374.85,-63 383.36,-63 391.71,-63"/>
<polygon fill="#63b8ff" stroke="#63b8ff" points="366.15,-59.5 356.15,-63 366.15,-66.5 366.15,-59.5"/>
</a>
</g>
</g>
<!-- Node6 -->
<g id="Node000006" class="node">
<title>Node6</title>
<g id="a_Node000006"><a xlink:href="class_acts_plugins_1_1_d_d4hep_detector_element.html" target="_top" xlink:title="DetectorElement class implementation for DD4hep geometry.">
<polygon fill="white" stroke="#666666" points="557,-30 397,-30 397,0 557,0 557,-30"/>
<text text-anchor="start" x="405" y="-18" font-family="Helvetica,sans-Serif" font-size="10.00">ActsPlugins::DD4hepDetector</text>
<text text-anchor="middle" x="477" y="-7" font-family="Helvetica,sans-Serif" font-size="10.00">Element</text>
</a>
</g>
</g>
<!-- Node5&#45;&gt;Node6 -->
<g id="edge44_Node000005_Node000006" class="edge">
<title>Node5&#45;&gt;Node6</title>
<g id="a_edge44_Node000005_Node000006"><a xlink:title=" ">
<path fill="none" stroke="#63b8ff" d="M354.34,-15C368.4,-15 382.98,-15 396.95,-15"/>
<polygon fill="#63b8ff" stroke="#63b8ff" points="354.21,-11.5 344.21,-15 354.21,-18.5 354.21,-11.5"/>
</a>
</g>
</g>
</g>
</svg>
