<?xml version="1.0" encoding="UTF-8" standalone="no"?>
<!DOCTYPE svg PUBLIC "-//W3C//DTD SVG 1.1//EN"
 "http://www.w3.org/Graphics/SVG/1.1/DTD/svg11.dtd">
<!-- Generated by graphviz version 2.43.0 (0)
 -->
<!-- Title: Graphical Class Hierarchy Pages: 1 -->
<svg width="778pt" height="278pt"
 viewBox="0.00 0.00 778.00 278.00" xmlns="http://www.w3.org/2000/svg" xmlns:xlink="http://www.w3.org/1999/xlink">
<g id="graph0" class="graph" transform="scale(1 1) rotate(0) translate(4 274)">
<title>Graphical Class Hierarchy</title>
<!-- Node0 -->
<g id="Node000000" class="node">
<title>Node0</title>
<g id="a_Node000000"><a xlink:href="class_acts_1_1_i_surface_material.html" target="_top" xlink:title="Base class of all surface&#45;based material description.">
<polygon fill="white" stroke="#666666" points="124,-178.5 0,-178.5 0,-159.5 124,-159.5 124,-178.5"/>
<text text-anchor="middle" x="62" y="-166.5" font-family="Helvetica,sans-Serif" font-size="10.00">Acts::ISurfaceMaterial</text>
</a>
</g>
</g>
<!-- Node1 -->
<g id="Node000001" class="node">
<title>Node1</title>
<g id="a_Node000001"><a xlink:href="class_acts_1_1_proto_surface_material_t.html" target="_top" xlink:title=" ">
<polygon fill="white" stroke="#666666" points="317,-270 171,-270 171,-240 317,-240 317,-270"/>
<text text-anchor="start" x="179" y="-258" font-family="Helvetica,sans-Serif" font-size="10.00">Acts::ProtoSurfaceMaterial</text>
<text text-anchor="middle" x="244" y="-247" font-family="Helvetica,sans-Serif" font-size="10.00">T&lt; Acts::BinUtility &gt;</text>
</a>
</g>
</g>
<!-- Node0&#45;&gt;Node1 -->
<g id="edge135_Node000000_Node000001" class="edge">
<title>Node0&#45;&gt;Node1</title>
<g id="a_edge135_Node000000_Node000001"><a xlink:title=" ">
<path fill="none" stroke="#63b8ff" d="M83.7,-184.73C102.68,-198.53 132.02,-218.33 160,-231 167.38,-234.34 175.34,-237.34 183.3,-239.99"/>
<polygon fill="#63b8ff" stroke="#63b8ff" points="85.62,-181.8 75.5,-178.67 81.46,-187.43 85.62,-181.8"/>
</a>
</g>
</g>
<!-- Node2 -->
<g id="Node000002" class="node">
<title>Node2</title>
<g id="a_Node000002"><a xlink:href="class_acts_1_1_binned_surface_material.html" target="_top" xlink:title="It extends the ISurfaceMaterial base class and is an array pf MaterialSlab.">
<polygon fill="white" stroke="#666666" points="321.5,-221.5 166.5,-221.5 166.5,-202.5 321.5,-202.5 321.5,-221.5"/>
<text text-anchor="middle" x="244" y="-209.5" font-family="Helvetica,sans-Serif" font-size="10.00">Acts::BinnedSurfaceMaterial</text>
</a>
</g>
</g>
<!-- Node0&#45;&gt;Node2 -->
<g id="edge136_Node000000_Node000002" class="edge">
<title>Node0&#45;&gt;Node2</title>
<g id="a_edge136_Node000000_Node000002"><a xlink:title=" ">
<path fill="none" stroke="#63b8ff" d="M111.15,-181.09C126.72,-184.95 144.08,-189.21 160,-193 173.23,-196.15 187.67,-199.49 200.74,-202.48"/>
<polygon fill="#63b8ff" stroke="#63b8ff" points="111.75,-177.63 101.2,-178.62 110.06,-184.43 111.75,-177.63"/>
</a>
</g>
</g>
<!-- Node3 -->
<g id="Node000003" class="node">
<title>Node3</title>
<g id="a_Node000003"><a xlink:href="class_acts_1_1_homogeneous_surface_material.html" target="_top" xlink:title="It extends the ISurfaceMaterial virtual base class to describe a simple homogeneous material on a sur...">
<polygon fill="white" stroke="#666666" points="319.5,-184 168.5,-184 168.5,-154 319.5,-154 319.5,-184"/>
<text text-anchor="start" x="176.5" y="-172" font-family="Helvetica,sans-Serif" font-size="10.00">Acts::HomogeneousSurface</text>
<text text-anchor="middle" x="244" y="-161" font-family="Helvetica,sans-Serif" font-size="10.00">Material</text>
</a>
</g>
</g>
<!-- Node0&#45;&gt;Node3 -->
<g id="edge137_Node000000_Node000003" class="edge">
<title>Node0&#45;&gt;Node3</title>
<g id="a_edge137_Node000000_Node000003"><a xlink:title=" ">
<path fill="none" stroke="#63b8ff" d="M134.31,-169C145.47,-169 157.03,-169 168.26,-169"/>
<polygon fill="#63b8ff" stroke="#63b8ff" points="134.19,-165.5 124.19,-169 134.19,-172.5 134.19,-165.5"/>
</a>
</g>
</g>
<!-- Node4 -->
<g id="Node000004" class="node">
<title>Node4</title>
<g id="a_Node000004"><a xlink:href="class_acts_1_1_i_grid_surface_material_base.html" target="_top" xlink:title="Base class for the concrete templated grid surface material types.">
<polygon fill="white" stroke="#666666" points="328,-135.5 160,-135.5 160,-116.5 328,-116.5 328,-135.5"/>
<text text-anchor="middle" x="244" y="-123.5" font-family="Helvetica,sans-Serif" font-size="10.00">Acts::IGridSurfaceMaterialBase</text>
</a>
</g>
</g>
<!-- Node0&#45;&gt;Node4 -->
<g id="edge138_Node000000_Node000004" class="edge">
<title>Node0&#45;&gt;Node4</title>
<g id="a_edge138_Node000000_Node000004"><a xlink:title=" ">
<path fill="none" stroke="#63b8ff" d="M111.15,-156.91C126.72,-153.05 144.08,-148.79 160,-145 173.23,-141.85 187.67,-138.51 200.74,-135.52"/>
<polygon fill="#63b8ff" stroke="#63b8ff" points="110.06,-153.57 101.2,-159.38 111.75,-160.37 110.06,-153.57"/>
</a>
</g>
</g>
<!-- Node11 -->
<g id="Node000011" class="node">
<title>Node11</title>
<g id="a_Node000011"><a xlink:href="class_acts_1_1_proto_surface_material_t.html" target="_top" xlink:title="proxy to SurfaceMaterial hand over BinUtility or other suitable binning description">
<polygon fill="white" stroke="#666666" points="317,-98 171,-98 171,-68 317,-68 317,-98"/>
<text text-anchor="start" x="179" y="-86" font-family="Helvetica,sans-Serif" font-size="10.00">Acts::ProtoSurfaceMaterial</text>
<text text-anchor="middle" x="244" y="-75" font-family="Helvetica,sans-Serif" font-size="10.00">T&lt; BinningType &gt;</text>
</a>
</g>
</g>
<!-- Node0&#45;&gt;Node11 -->
<g id="edge145_Node000000_Node000011" class="edge">
<title>Node0&#45;&gt;Node11</title>
<g id="a_edge145_Node000000_Node000011"><a xlink:title=" ">
<path fill="none" stroke="#63b8ff" d="M84.09,-153.39C103.13,-139.88 132.33,-120.59 160,-108 168.08,-104.32 176.85,-101.01 185.55,-98.1"/>
<polygon fill="#63b8ff" stroke="#63b8ff" points="81.92,-150.64 75.85,-159.32 86.01,-156.32 81.92,-150.64"/>
</a>
</g>
</g>
<!-- Node5 -->
<g id="Node000005" class="node">
<title>Node5</title>
<g id="a_Node000005"><a xlink:href="class_acts_1_1_i_grid_surface_material.html" target="_top" xlink:title=" ">
<polygon fill="white" stroke="#666666" points="515,-179.5 364,-179.5 364,-138.5 515,-138.5 515,-179.5"/>
<text text-anchor="start" x="372" y="-167.5" font-family="Helvetica,sans-Serif" font-size="10.00">Acts::IGridSurfaceMaterial</text>
<text text-anchor="start" x="372" y="-156.5" font-family="Helvetica,sans-Serif" font-size="10.00">&lt; material_accessor_t::grid</text>
<text text-anchor="middle" x="439.5" y="-145.5" font-family="Helvetica,sans-Serif" font-size="10.00">_value_type &gt;</text>
</a>
</g>
</g>
<!-- Node4&#45;&gt;Node5 -->
<g id="edge139_Node000004_Node000005" class="edge">
<title>Node4&#45;&gt;Node5</title>
<g id="a_edge139_Node000004_Node000005"><a xlink:title=" ">
<path fill="none" stroke="#63b8ff" d="M310.59,-137.19C327.68,-140.1 346.22,-143.26 363.75,-146.25"/>
<polygon fill="#63b8ff" stroke="#63b8ff" points="311.15,-133.73 300.71,-135.5 309.98,-140.63 311.15,-133.73"/>
</a>
</g>
</g>
<!-- Node7 -->
<g id="Node000007" class="node">
<title>Node7</title>
<g id="a_Node000007"><a xlink:href="class_acts_1_1_i_grid_surface_material.html" target="_top" xlink:title="Intermediate interface to the grid surface material given access to the grid and the material accesso...">
<polygon fill="white" stroke="#666666" points="511.5,-108 367.5,-108 367.5,-78 511.5,-78 511.5,-108"/>
<text text-anchor="start" x="375.5" y="-96" font-family="Helvetica,sans-Serif" font-size="10.00">Acts::IGridSurfaceMaterial</text>
<text text-anchor="middle" x="439.5" y="-85" font-family="Helvetica,sans-Serif" font-size="10.00">&lt; grid_value_t &gt;</text>
</a>
</g>
</g>
<!-- Node4&#45;&gt;Node7 -->
<g id="edge141_Node000004_Node000007" class="edge">
<title>Node4&#45;&gt;Node7</title>
<g id="a_edge141_Node000004_Node000007"><a xlink:title=" ">
<path fill="none" stroke="#63b8ff" d="M310.65,-114.8C328.89,-111.69 348.77,-108.3 367.31,-105.14"/>
<polygon fill="#63b8ff" stroke="#63b8ff" points="309.98,-111.37 300.71,-116.5 311.15,-118.27 309.98,-111.37"/>
</a>
</g>
</g>
<!-- Node6 -->
<g id="Node000006" class="node">
<title>Node6</title>
<g id="a_Node000006"><a xlink:href="class_acts_1_1_grid_surface_material_t.html" target="_top" xlink:title="GridSurfaceMaterialT.">
<polygon fill="white" stroke="#666666" points="749,-186 572,-186 572,-156 749,-156 749,-186"/>
<text text-anchor="start" x="580" y="-174" font-family="Helvetica,sans-Serif" font-size="10.00">Acts::GridSurfaceMaterial</text>
<text text-anchor="middle" x="660.5" y="-163" font-family="Helvetica,sans-Serif" font-size="10.00">T&lt; grid_t, material_accessor_t &gt;</text>
</a>
</g>
</g>
<!-- Node5&#45;&gt;Node6 -->
<g id="edge140_Node000005_Node000006" class="edge">
<title>Node5&#45;&gt;Node6</title>
<g id="a_edge140_Node000005_Node000006"><a xlink:title=" ">
<path fill="none" stroke="#63b8ff" d="M525.64,-163.67C540.81,-164.5 556.63,-165.36 571.87,-166.2"/>
<polygon fill="#63b8ff" stroke="#63b8ff" points="525.43,-160.15 515.25,-163.1 525.05,-167.14 525.43,-160.15"/>
</a>
</g>
</g>
<!-- Node8 -->
<g id="Node000008" class="node">
<title>Node8</title>
<g id="a_Node000008"><a xlink:href="class_acts_1_1_grid_surface_material_t.html" target="_top" xlink:title=" ">
<polygon fill="white" stroke="#666666" points="770,-138 551,-138 551,-108 770,-108 770,-138"/>
<text text-anchor="start" x="559" y="-126" font-family="Helvetica,sans-Serif" font-size="10.00">Acts::GridSurfaceMaterial</text>
<text text-anchor="middle" x="660.5" y="-115" font-family="Helvetica,sans-Serif" font-size="10.00">T&lt; grid_type, IndexedMaterialAccessor &gt;</text>
</a>
</g>
</g>
<!-- Node7&#45;&gt;Node8 -->
<g id="edge142_Node000007_Node000008" class="edge">
<title>Node7&#45;&gt;Node8</title>
<g id="a_edge142_Node000007_Node000008"><a xlink:title=" ">
<path fill="none" stroke="#63b8ff" d="M521.8,-104.14C531.33,-105.44 541.16,-106.79 550.98,-108.13"/>
<polygon fill="#63b8ff" stroke="#63b8ff" points="521.99,-100.63 511.6,-102.74 521.04,-107.57 521.99,-100.63"/>
</a>
</g>
</g>
<!-- Node9 -->
<g id="Node000009" class="node">
<title>Node9</title>
<g id="a_Node000009"><a xlink:href="class_acts_1_1_grid_surface_material_t.html" target="_top" xlink:title=" ">
<polygon fill="white" stroke="#666666" points="763,-89.5 558,-89.5 558,-48.5 763,-48.5 763,-89.5"/>
<text text-anchor="start" x="566" y="-77.5" font-family="Helvetica,sans-Serif" font-size="10.00">Acts::GridSurfaceMaterial</text>
<text text-anchor="start" x="566" y="-66.5" font-family="Helvetica,sans-Serif" font-size="10.00">T&lt; grid_type, GloballyIndexedMaterial</text>
<text text-anchor="middle" x="660.5" y="-55.5" font-family="Helvetica,sans-Serif" font-size="10.00">Accessor &gt;</text>
</a>
</g>
</g>
<!-- Node7&#45;&gt;Node9 -->
<g id="edge143_Node000007_Node000009" class="edge">
<title>Node7&#45;&gt;Node9</title>
<g id="a_edge143_Node000007_Node000009"><a xlink:title=" ">
<path fill="none" stroke="#63b8ff" d="M521.77,-84.09C533.49,-82.81 545.67,-81.47 557.73,-80.15"/>
<polygon fill="#63b8ff" stroke="#63b8ff" points="521.16,-80.64 511.6,-85.21 521.92,-87.6 521.16,-80.64"/>
</a>
</g>
</g>
<!-- Node10 -->
<g id="Node000010" class="node">
<title>Node10</title>
<g id="a_Node000010"><a xlink:href="class_acts_1_1_grid_surface_material_t.html" target="_top" xlink:title=" ">
<polygon fill="white" stroke="#666666" points="761,-30 560,-30 560,0 761,0 761,-30"/>
<text text-anchor="start" x="568" y="-18" font-family="Helvetica,sans-Serif" font-size="10.00">Acts::GridSurfaceMaterial</text>
<text text-anchor="middle" x="660.5" y="-7" font-family="Helvetica,sans-Serif" font-size="10.00">T&lt; grid_type, GridMaterialAccessor &gt;</text>
</a>
</g>
</g>
<!-- Node7&#45;&gt;Node10 -->
<g id="edge144_Node000007_Node000010" class="edge">
<title>Node7&#45;&gt;Node10</title>
<g id="a_edge144_Node000007_Node000010"><a xlink:title=" ">
<path fill="none" stroke="#63b8ff" d="M475.94,-73C497.18,-61.71 525.01,-48.08 551,-39 560.56,-35.66 570.76,-32.68 580.94,-30.05"/>
<polygon fill="#63b8ff" stroke="#63b8ff" points="474.12,-70.01 466.98,-77.84 477.44,-76.17 474.12,-70.01"/>
</a>
</g>
</g>
</g>
</svg>
