<?xml version="1.0" encoding="UTF-8" standalone="no"?>
<!DOCTYPE svg PUBLIC "-//W3C//DTD SVG 1.1//EN"
 "http://www.w3.org/Graphics/SVG/1.1/DTD/svg11.dtd">
<!-- Generated by graphviz version 2.43.0 (0)
 -->
<!-- Title: Acts::Portal::Arguments Pages: 1 -->
<svg width="290pt" height="408pt"
 viewBox="0.00 0.00 290.00 408.00" xmlns="http://www.w3.org/2000/svg" xmlns:xlink="http://www.w3.org/1999/xlink">
<g id="graph0" class="graph" transform="scale(1 1) rotate(0) translate(4 404)">
<title>Acts::Portal::Arguments</title>
<!-- Node1 -->
<g id="Node000001" class="node">
<title>Node1</title>
<g id="a_Node000001"><a xlink:title="Helper struct for the arguments to the portal constructor below using designated initializers.">
<polygon fill="#999999" stroke="#666666" points="196.5,-19 65.5,-19 65.5,0 196.5,0 196.5,-19"/>
<text text-anchor="middle" x="131" y="-7" font-family="Helvetica,sans-Serif" font-size="10.00">Acts::Portal::Arguments</text>
</a>
</g>
</g>
<!-- Node2 -->
<g id="Node000002" class="node">
<title>Node2</title>
<g id="a_Node000002"><a xlink:href="struct_acts_1_1_portal_1_1_arguments_1_1_link.html" target="_top" xlink:title="Aggregate over a surface and a volume with optional semantics.">
<polygon fill="white" stroke="#666666" points="196.5,-117 65.5,-117 65.5,-87 196.5,-87 196.5,-117"/>
<text text-anchor="start" x="73.5" y="-105" font-family="Helvetica,sans-Serif" font-size="10.00">Acts::Portal::Arguments</text>
<text text-anchor="middle" x="131" y="-94" font-family="Helvetica,sans-Serif" font-size="10.00">::Link</text>
</a>
</g>
</g>
<!-- Node2&#45;&gt;Node1 -->
<g id="edge1_Node000001_Node000002" class="edge">
<title>Node2&#45;&gt;Node1</title>
<g id="a_edge1_Node000001_Node000002"><a xlink:title=" ">
<path fill="none" stroke="#9a32cd" stroke-dasharray="5,2" d="M131,-76.78C131,-57.7 131,-32.21 131,-19.1"/>
<polygon fill="#9a32cd" stroke="#9a32cd" points="127.5,-76.86 131,-86.86 134.5,-76.86 127.5,-76.86"/>
</a>
</g>
<text text-anchor="start" x="134.5" y="-58" font-family="Helvetica,sans-Serif" font-size="10.00" fill="grey">alongNormal</text>
<text text-anchor="start" x="134.5" y="-43" font-family="Helvetica,sans-Serif" font-size="10.00" fill="grey">oppositeNormal</text>
</g>
<!-- Node3 -->
<g id="Node000003" class="node">
<title>Node3</title>
<g id="a_Node000003"><a xlink:title=" ">
<polygon fill="white" stroke="#666666" points="122,-200 0,-200 0,-170 122,-170 122,-200"/>
<text text-anchor="start" x="8" y="-188" font-family="Helvetica,sans-Serif" font-size="10.00">std::shared_ptr&lt; Acts</text>
<text text-anchor="middle" x="61" y="-177" font-family="Helvetica,sans-Serif" font-size="10.00">::RegularSurface &gt;</text>
</a>
</g>
</g>
<!-- Node3&#45;&gt;Node2 -->
<g id="edge2_Node000002_Node000003" class="edge">
<title>Node3&#45;&gt;Node2</title>
<g id="a_edge2_Node000002_Node000003"><a xlink:title=" ">
<path fill="none" stroke="#9a32cd" stroke-dasharray="5,2" d="M79.99,-162.02C92.31,-147.76 108.01,-129.61 118.71,-117.22"/>
<polygon fill="#9a32cd" stroke="#9a32cd" points="77.08,-160.04 73.19,-169.89 82.38,-164.61 77.08,-160.04"/>
</a>
</g>
<text text-anchor="start" x="106.5" y="-140.5" font-family="Helvetica,sans-Serif" font-size="10.00" fill="grey">surface</text>
</g>
<!-- Node4 -->
<g id="Node000004" class="node">
<title>Node4</title>
<g id="a_Node000004"><a xlink:title=" ">
<polygon fill="white" stroke="#666666" points="118,-272 0,-272 0,-253 118,-253 118,-272"/>
<text text-anchor="middle" x="59" y="-260" font-family="Helvetica,sans-Serif" font-size="10.00">std::shared_ptr&lt; T &gt;</text>
</a>
</g>
</g>
<!-- Node4&#45;&gt;Node3 -->
<g id="edge3_Node000003_Node000004" class="edge">
<title>Node4&#45;&gt;Node3</title>
<g id="a_edge3_Node000003_Node000004"><a xlink:title=" ">
<path fill="none" stroke="orange" stroke-dasharray="5,2" d="M59.4,-242.76C59.57,-235.09 59.78,-226.12 60,-218 60.16,-212.11 60.36,-205.61 60.54,-200.02"/>
<polygon fill="orange" stroke="orange" points="55.9,-242.76 59.18,-252.83 62.89,-242.91 55.9,-242.76"/>
</a>
</g>
<text text-anchor="start" x="63" y="-223.5" font-family="Helvetica,sans-Serif" font-size="10.00" fill="grey">&lt; Acts::RegularSurface &gt;</text>
</g>
<!-- Node5 -->
<g id="Node000005" class="node">
<title>Node5</title>
<g id="a_Node000005"><a xlink:href="class_acts_1_1_tracking_volume.html" target="_top" xlink:title="Full Volume description used in Tracking, it inherits from Volume to get the geometrical structure.">
<polygon fill="white" stroke="#666666" points="262.5,-194.5 141.5,-194.5 141.5,-175.5 262.5,-175.5 262.5,-194.5"/>
<text text-anchor="middle" x="202" y="-182.5" font-family="Helvetica,sans-Serif" font-size="10.00">Acts::TrackingVolume</text>
</a>
</g>
</g>
<!-- Node5&#45;&gt;Node2 -->
<g id="edge4_Node000002_Node000005" class="edge">
<title>Node5&#45;&gt;Node2</title>
<g id="a_edge4_Node000002_Node000005"><a xlink:title=" ">
<path fill="none" stroke="#9a32cd" stroke-dasharray="5,2" d="M187.51,-167.47C174.49,-152.61 155.58,-131.04 143.28,-117.01"/>
<polygon fill="#9a32cd" stroke="#9a32cd" points="185.18,-170.12 194.4,-175.33 190.44,-165.5 185.18,-170.12"/>
</a>
</g>
<text text-anchor="start" x="176.5" y="-140.5" font-family="Helvetica,sans-Serif" font-size="10.00" fill="grey">volume</text>
</g>
<!-- Node6 -->
<g id="Node000006" class="node">
<title>Node6</title>
<g id="a_Node000006"><a xlink:href="class_acts_1_1_volume.html" target="_top" xlink:title="It inherits from GeometryObject for geometry identification.">
<polygon fill="white" stroke="#666666" points="244,-272 164,-272 164,-253 244,-253 244,-272"/>
<text text-anchor="middle" x="204" y="-260" font-family="Helvetica,sans-Serif" font-size="10.00">Acts::Volume</text>
</a>
</g>
</g>
<!-- Node6&#45;&gt;Node5 -->
<g id="edge5_Node000005_Node000006" class="edge">
<title>Node6&#45;&gt;Node5</title>
<g id="a_edge5_Node000005_Node000006"><a xlink:title=" ">
<path fill="none" stroke="#63b8ff" d="M203.49,-242.4C203.09,-227.01 202.53,-206.11 202.23,-194.56"/>
<polygon fill="#63b8ff" stroke="#63b8ff" points="200.01,-242.94 203.77,-252.84 207,-242.75 200.01,-242.94"/>
</a>
</g>
</g>
<!-- Node7 -->
<g id="Node000007" class="node">
<title>Node7</title>
<g id="a_Node000007"><a xlink:href="class_acts_1_1_geometry_object.html" target="_top" xlink:title="Base class to provide GeometryIdentifier interface:">
<polygon fill="white" stroke="#666666" points="266,-328 142,-328 142,-309 266,-309 266,-328"/>
<text text-anchor="middle" x="204" y="-316" font-family="Helvetica,sans-Serif" font-size="10.00">Acts::GeometryObject</text>
</a>
</g>
</g>
<!-- Node7&#45;&gt;Node6 -->
<g id="edge6_Node000006_Node000007" class="edge">
<title>Node7&#45;&gt;Node6</title>
<g id="a_edge6_Node000006_Node000007"><a xlink:title=" ">
<path fill="none" stroke="#63b8ff" d="M204,-298.3C204,-289.41 204,-279.28 204,-272.25"/>
<polygon fill="#63b8ff" stroke="#63b8ff" points="200.5,-298.58 204,-308.58 207.5,-298.58 200.5,-298.58"/>
</a>
</g>
</g>
<!-- Node8 -->
<g id="Node000008" class="node">
<title>Node8</title>
<g id="a_Node000008"><a xlink:href="class_acts_1_1_geometry_identifier.html" target="_top" xlink:title="Identifier for geometry nodes within the geometry hierarchy.">
<polygon fill="white" stroke="#666666" points="272,-400 136,-400 136,-381 272,-381 272,-400"/>
<text text-anchor="middle" x="204" y="-388" font-family="Helvetica,sans-Serif" font-size="10.00">Acts::GeometryIdentifier</text>
</a>
</g>
</g>
<!-- Node8&#45;&gt;Node7 -->
<g id="edge7_Node000007_Node000008" class="edge">
<title>Node8&#45;&gt;Node7</title>
<g id="a_edge7_Node000007_Node000008"><a xlink:title=" ">
<path fill="none" stroke="#9a32cd" stroke-dasharray="5,2" d="M204,-370.58C204,-356.76 204,-338.68 204,-328.15"/>
<polygon fill="#9a32cd" stroke="#9a32cd" points="200.5,-370.92 204,-380.92 207.5,-370.92 200.5,-370.92"/>
</a>
</g>
<text text-anchor="start" x="207" y="-351.5" font-family="Helvetica,sans-Serif" font-size="10.00" fill="grey">m_geometryId</text>
</g>
</g>
</svg>
