<?xml version="1.0" encoding="UTF-8" standalone="no"?>
<!DOCTYPE svg PUBLIC "-//W3C//DTD SVG 1.1//EN"
 "http://www.w3.org/Graphics/SVG/1.1/DTD/svg11.dtd">
<!-- Generated by graphviz version 2.43.0 (0)
 -->
<!-- Title: ActsPlugins::PipelineTensors Pages: 1 -->
<svg width="252pt" height="182pt"
 viewBox="0.00 0.00 252.00 182.00" xmlns="http://www.w3.org/2000/svg" xmlns:xlink="http://www.w3.org/1999/xlink">
<g id="graph0" class="graph" transform="scale(1 1) rotate(0) translate(4 178)">
<title>ActsPlugins::PipelineTensors</title>
<!-- Node1 -->
<g id="Node000001" class="node">
<title>Node1</title>
<g id="a_Node000001"><a xlink:title="Struct that ties together the tensors used in the GNN pipeline.">
<polygon fill="#999999" stroke="#666666" points="196.5,-19 41.5,-19 41.5,0 196.5,0 196.5,-19"/>
<text text-anchor="middle" x="119" y="-7" font-family="Helvetica,sans-Serif" font-size="10.00">ActsPlugins::PipelineTensors</text>
</a>
</g>
</g>
<!-- Node2 -->
<g id="Node000002" class="node">
<title>Node2</title>
<g id="a_Node000002"><a xlink:href="class_acts_plugins_1_1_tensor.html" target="_top" xlink:title=" ">
<polygon fill="white" stroke="#666666" points="110,-102 0,-102 0,-72 110,-72 110,-102"/>
<text text-anchor="start" x="8" y="-90" font-family="Helvetica,sans-Serif" font-size="10.00">ActsPlugins::Tensor</text>
<text text-anchor="middle" x="55" y="-79" font-family="Helvetica,sans-Serif" font-size="10.00">&lt; float &gt;</text>
</a>
</g>
</g>
<!-- Node2&#45;&gt;Node1 -->
<g id="edge1_Node000001_Node000002" class="edge">
<title>Node2&#45;&gt;Node1</title>
<g id="a_edge1_Node000001_Node000002"><a xlink:title=" ">
<path fill="none" stroke="#9a32cd" stroke-dasharray="5,2" d="M63.95,-62.72C68.01,-54.05 73.39,-44.49 80,-37 86.28,-29.88 94.88,-23.77 102.4,-19.22"/>
<polygon fill="#9a32cd" stroke="#9a32cd" points="60.7,-61.42 59.94,-71.99 67.13,-64.2 60.7,-61.42"/>
</a>
</g>
<text text-anchor="start" x="83.5" y="-42.5" font-family="Helvetica,sans-Serif" font-size="10.00" fill="grey">nodeFeatures</text>
</g>
<!-- Node3 -->
<g id="Node000003" class="node">
<title>Node3</title>
<g id="a_Node000003"><a xlink:href="class_acts_plugins_1_1_tensor.html" target="_top" xlink:title="This is a very small, limited class that models a 2D tensor of arbitrary type.">
<polygon fill="white" stroke="#666666" points="188.5,-174 49.5,-174 49.5,-155 188.5,-155 188.5,-174"/>
<text text-anchor="middle" x="119" y="-162" font-family="Helvetica,sans-Serif" font-size="10.00">ActsPlugins::Tensor&lt; T &gt;</text>
</a>
</g>
</g>
<!-- Node3&#45;&gt;Node2 -->
<g id="edge2_Node000002_Node000003" class="edge">
<title>Node3&#45;&gt;Node2</title>
<g id="a_edge2_Node000002_Node000003"><a xlink:title=" ">
<path fill="none" stroke="orange" stroke-dasharray="5,2" d="M104.6,-147C101.74,-143.7 98.77,-140.25 96,-137 86.07,-125.35 74.93,-112.02 66.77,-102.21"/>
<polygon fill="orange" stroke="orange" points="102.09,-149.45 111.29,-154.7 107.37,-144.86 102.09,-149.45"/>
</a>
</g>
<text text-anchor="start" x="99.5" y="-125.5" font-family="Helvetica,sans-Serif" font-size="10.00" fill="grey">&lt; float &gt;</text>
</g>
<!-- Node4 -->
<g id="Node000004" class="node">
<title>Node4</title>
<g id="a_Node000004"><a xlink:title=" ">
<polygon fill="white" stroke="#666666" points="238,-102 128,-102 128,-72 238,-72 238,-102"/>
<text text-anchor="start" x="136" y="-90" font-family="Helvetica,sans-Serif" font-size="10.00">ActsPlugins::Tensor</text>
<text text-anchor="middle" x="183" y="-79" font-family="Helvetica,sans-Serif" font-size="10.00">&lt; std::int64_t &gt;</text>
</a>
</g>
</g>
<!-- Node3&#45;&gt;Node4 -->
<g id="edge4_Node000004_Node000003" class="edge">
<title>Node3&#45;&gt;Node4</title>
<g id="a_edge4_Node000004_Node000003"><a xlink:title=" ">
<path fill="none" stroke="orange" stroke-dasharray="5,2" d="M136.53,-147.83C140.12,-144.38 143.77,-140.65 147,-137 156.78,-125.92 166.63,-112.31 173.55,-102.24"/>
<polygon fill="orange" stroke="orange" points="133.95,-145.46 129.01,-154.83 138.71,-150.58 133.95,-145.46"/>
</a>
</g>
<text text-anchor="start" x="163" y="-125.5" font-family="Helvetica,sans-Serif" font-size="10.00" fill="grey">&lt; std::int64_t &gt;</text>
</g>
<!-- Node4&#45;&gt;Node1 -->
<g id="edge3_Node000001_Node000004" class="edge">
<title>Node4&#45;&gt;Node1</title>
<g id="a_edge3_Node000001_Node000004"><a xlink:title=" ">
<path fill="none" stroke="#9a32cd" stroke-dasharray="5,2" d="M171.18,-62.94C166.19,-54.33 159.93,-44.76 153,-37 146.92,-30.19 138.91,-23.85 132.19,-19.08"/>
<polygon fill="#9a32cd" stroke="#9a32cd" points="168.17,-64.73 176.06,-71.79 174.29,-61.34 168.17,-64.73"/>
</a>
</g>
<text text-anchor="start" x="168" y="-42.5" font-family="Helvetica,sans-Serif" font-size="10.00" fill="grey">edgeIndex</text>
</g>
</g>
</svg>
