<?xml version="1.0" encoding="UTF-8" standalone="no"?>
<!DOCTYPE svg PUBLIC "-//W3C//DTD SVG 1.1//EN"
 "http://www.w3.org/Graphics/SVG/1.1/DTD/svg11.dtd">
<!-- Generated by graphviz version 2.43.0 (0)
 -->
<!-- Title: ActsPlugins::FpeMonitor::Result::FpeInfo Pages: 1 -->
<svg width="225pt" height="208pt"
 viewBox="0.00 0.00 225.00 208.00" xmlns="http://www.w3.org/2000/svg" xmlns:xlink="http://www.w3.org/1999/xlink">
<g id="graph0" class="graph" transform="scale(1 1) rotate(0) translate(4 204)">
<title>ActsPlugins::FpeMonitor::Result::FpeInfo</title>
<!-- Node1 -->
<g id="Node000001" class="node">
<title>Node1</title>
<g id="a_Node000001"><a xlink:title=" ">
<polygon fill="#999999" stroke="#666666" points="153,-30 19,-30 19,0 153,0 153,-30"/>
<text text-anchor="start" x="27" y="-18" font-family="Helvetica,sans-Serif" font-size="10.00">ActsPlugins::FpeMonitor</text>
<text text-anchor="middle" x="86" y="-7" font-family="Helvetica,sans-Serif" font-size="10.00">::Result::FpeInfo</text>
</a>
</g>
</g>
<!-- Node2 -->
<g id="Node000002" class="node">
<title>Node2</title>
<g id="a_Node000002"><a xlink:title=" ">
<polygon fill="white" stroke="#666666" points="172,-113 0,-113 0,-83 172,-83 172,-113"/>
<text text-anchor="start" x="8" y="-101" font-family="Helvetica,sans-Serif" font-size="10.00">std::shared_ptr&lt; const</text>
<text text-anchor="middle" x="86" y="-90" font-family="Helvetica,sans-Serif" font-size="10.00"> boost::stacktrace::stacktrace &gt;</text>
</a>
</g>
</g>
<!-- Node2&#45;&gt;Node1 -->
<g id="edge1_Node000001_Node000002" class="edge">
<title>Node2&#45;&gt;Node1</title>
<g id="a_edge1_Node000001_Node000002"><a xlink:title=" ">
<path fill="none" stroke="#9a32cd" stroke-dasharray="5,2" d="M86,-72.59C86,-58.75 86,-41.91 86,-30.22"/>
<polygon fill="#9a32cd" stroke="#9a32cd" points="82.5,-72.89 86,-82.89 89.5,-72.89 82.5,-72.89"/>
</a>
</g>
<text text-anchor="start" x="89" y="-53.5" font-family="Helvetica,sans-Serif" font-size="10.00" fill="grey">st</text>
</g>
<!-- Node3 -->
<g id="Node000003" class="node">
<title>Node3</title>
<g id="a_Node000003"><a xlink:title=" ">
<polygon fill="white" stroke="#666666" points="145,-200 27,-200 27,-181 145,-181 145,-200"/>
<text text-anchor="middle" x="86" y="-188" font-family="Helvetica,sans-Serif" font-size="10.00">std::shared_ptr&lt; T &gt;</text>
</a>
</g>
</g>
<!-- Node3&#45;&gt;Node2 -->
<g id="edge2_Node000002_Node000003" class="edge">
<title>Node3&#45;&gt;Node2</title>
<g id="a_edge2_Node000002_Node000003"><a xlink:title=" ">
<path fill="none" stroke="orange" stroke-dasharray="5,2" d="M86,-170.38C86,-153.24 86,-128.49 86,-113.09"/>
<polygon fill="orange" stroke="orange" points="82.5,-170.82 86,-180.82 89.5,-170.82 82.5,-170.82"/>
</a>
</g>
<text text-anchor="start" x="89.5" y="-152" font-family="Helvetica,sans-Serif" font-size="10.00" fill="grey">&lt; const boost::stacktrace</text>
<text text-anchor="start" x="89.5" y="-137" font-family="Helvetica,sans-Serif" font-size="10.00" fill="grey">  ::stacktrace &gt;</text>
</g>
</g>
</svg>
