<?xml version="1.0" encoding="UTF-8" standalone="no"?>
<!DOCTYPE svg PUBLIC "-//W3C//DTD SVG 1.1//EN"
 "http://www.w3.org/Graphics/SVG/1.1/DTD/svg11.dtd">
<!-- Generated by graphviz version 2.43.0 (0)
 -->
<!-- Title: Acts::IntersectionMaterialAssigner::Config Pages: 1 -->
<svg width="369pt" height="193pt"
 viewBox="0.00 0.00 369.00 193.00" xmlns="http://www.w3.org/2000/svg" xmlns:xlink="http://www.w3.org/1999/xlink">
<g id="graph0" class="graph" transform="scale(1 1) rotate(0) translate(4 189)">
<title>Acts::IntersectionMaterialAssigner::Config</title>
<!-- Node1 -->
<g id="Node000001" class="node">
<title>Node1</title>
<g id="a_Node000001"><a xlink:title="Nested configuration struct.">
<polygon fill="#999999" stroke="#666666" points="195,-30 53,-30 53,0 195,0 195,-30"/>
<text text-anchor="start" x="61" y="-18" font-family="Helvetica,sans-Serif" font-size="10.00">Acts::IntersectionMaterial</text>
<text text-anchor="middle" x="124" y="-7" font-family="Helvetica,sans-Serif" font-size="10.00">Assigner::Config</text>
</a>
</g>
</g>
<!-- Node2 -->
<g id="Node000002" class="node">
<title>Node2</title>
<g id="a_Node000002"><a xlink:title=" ">
<polygon fill="white" stroke="#666666" points="106,-113 0,-113 0,-83 106,-83 106,-113"/>
<text text-anchor="start" x="8" y="-101" font-family="Helvetica,sans-Serif" font-size="10.00">std::vector&lt; const</text>
<text text-anchor="middle" x="53" y="-90" font-family="Helvetica,sans-Serif" font-size="10.00"> Acts::Surface * &gt;</text>
</a>
</g>
</g>
<!-- Node2&#45;&gt;Node1 -->
<g id="edge1_Node000001_Node000002" class="edge">
<title>Node2&#45;&gt;Node1</title>
<g id="a_edge1_Node000001_Node000002"><a xlink:title=" ">
<path fill="none" stroke="#9a32cd" stroke-dasharray="5,2" d="M72.27,-75.02C84.76,-60.76 100.68,-42.61 111.54,-30.22"/>
<polygon fill="#9a32cd" stroke="#9a32cd" points="69.33,-73.06 65.37,-82.89 74.59,-77.68 69.33,-73.06"/>
</a>
</g>
<text text-anchor="start" x="98" y="-53.5" font-family="Helvetica,sans-Serif" font-size="10.00" fill="grey">surfaces</text>
</g>
<!-- Node3 -->
<g id="Node000003" class="node">
<title>Node3</title>
<g id="a_Node000003"><a xlink:title=" ">
<polygon fill="white" stroke="#666666" points="172.5,-185 75.5,-185 75.5,-166 172.5,-166 172.5,-185"/>
<text text-anchor="middle" x="124" y="-173" font-family="Helvetica,sans-Serif" font-size="10.00">std::vector&lt; T &gt;</text>
</a>
</g>
</g>
<!-- Node3&#45;&gt;Node2 -->
<g id="edge2_Node000002_Node000003" class="edge">
<title>Node3&#45;&gt;Node2</title>
<g id="a_edge2_Node000002_Node000003"><a xlink:title=" ">
<path fill="none" stroke="orange" stroke-dasharray="5,2" d="M66.01,-162.61C59.35,-158.96 53.39,-154.2 49,-148 41.9,-137.97 44.06,-123.72 47.3,-113.17"/>
<polygon fill="orange" stroke="orange" points="64.89,-165.95 75.44,-166.94 67.81,-159.59 64.89,-165.95"/>
</a>
</g>
<text text-anchor="start" x="52" y="-136.5" font-family="Helvetica,sans-Serif" font-size="10.00" fill="grey">&lt; const Acts::Surface * &gt;</text>
</g>
<!-- Node4 -->
<g id="Node000004" class="node">
<title>Node4</title>
<g id="a_Node000004"><a xlink:title=" ">
<polygon fill="white" stroke="#666666" points="269.5,-113 126.5,-113 126.5,-83 269.5,-83 269.5,-113"/>
<text text-anchor="start" x="134.5" y="-101" font-family="Helvetica,sans-Serif" font-size="10.00">std::vector&lt; const</text>
<text text-anchor="middle" x="198" y="-90" font-family="Helvetica,sans-Serif" font-size="10.00"> Acts::TrackingVolume * &gt;</text>
</a>
</g>
</g>
<!-- Node3&#45;&gt;Node4 -->
<g id="edge4_Node000004_Node000003" class="edge">
<title>Node3&#45;&gt;Node4</title>
<g id="a_edge4_Node000004_Node000003"><a xlink:title=" ">
<path fill="none" stroke="orange" stroke-dasharray="5,2" d="M160.9,-161.51C167.55,-157.92 173.96,-153.46 179,-148 187.92,-138.35 192.81,-124.05 195.39,-113.39"/>
<polygon fill="orange" stroke="orange" points="159.29,-158.4 151.8,-165.89 162.33,-164.71 159.29,-158.4"/>
</a>
</g>
<text text-anchor="start" x="193.5" y="-136.5" font-family="Helvetica,sans-Serif" font-size="10.00" fill="grey">&lt; const Acts::TrackingVolume * &gt;</text>
</g>
<!-- Node4&#45;&gt;Node1 -->
<g id="edge3_Node000001_Node000004" class="edge">
<title>Node4&#45;&gt;Node1</title>
<g id="a_edge3_Node000001_Node000004"><a xlink:title=" ">
<path fill="none" stroke="#9a32cd" stroke-dasharray="5,2" d="M178.28,-75.42C165.21,-61.1 148.41,-42.72 136.99,-30.22"/>
<polygon fill="#9a32cd" stroke="#9a32cd" points="175.78,-77.87 185.11,-82.89 180.95,-73.15 175.78,-77.87"/>
</a>
</g>
<text text-anchor="start" x="171" y="-53.5" font-family="Helvetica,sans-Serif" font-size="10.00" fill="grey">trackingVolumes</text>
</g>
</g>
</svg>
