<?xml version="1.0" encoding="UTF-8" standalone="no"?>
<!DOCTYPE svg PUBLIC "-//W3C//DTD SVG 1.1//EN"
 "http://www.w3.org/Graphics/SVG/1.1/DTD/svg11.dtd">
<!-- Generated by graphviz version 2.43.0 (0)
 -->
<!-- Title: Acts::ProtoDetector Pages: 1 -->
<svg width="197pt" height="238pt"
 viewBox="0.00 0.00 196.50 238.00" xmlns="http://www.w3.org/2000/svg" xmlns:xlink="http://www.w3.org/1999/xlink">

<svg id="main" version="1.1" xmlns="http://www.w3.org/2000/svg" xmlns:xlink="http://www.w3.org/1999/xlink" xml:space="preserve">

<style type="text/css"><![CDATA[
.node, .edge {opacity: 0.7;}
.node.selected, .edge.selected {opacity: 1;}
.edge:hover path { stroke: red; }
.edge:hover polygon { stroke: red; fill: red; }
]]></style>
<script type="application/ecmascript" xlink:href="svg.min.js"/>
<svg id="graph" class="graph">
<g id="graph0" class="graph" transform="scale(1 1) rotate(0) translate(4 234)">
<title>Acts::ProtoDetector</title>
<!-- Node1 -->
<g id="Node000001" class="node">
<title>Node1</title>
<g id="a_Node000001"><a xlink:title="A proto detector description being used to define an overall structure of either a TrackingGeometry o...">
<polygon fill="#999999" stroke="#666666" points="158,-19 47,-19 47,0 158,0 158,-19"/>
<text text-anchor="middle" x="102.5" y="-7" font-family="Helvetica,sans-Serif" font-size="10.00">Acts::ProtoDetector</text>
</a>
</g>
</g>
<!-- Node2 -->
<g id="Node000002" class="node">
<title>Node2</title>
<g id="a_Node000002"><a xlink:title=" ">
<polygon fill="white" stroke="#666666" points="169,-163 104,-163 104,-144 169,-144 169,-163"/>
<text text-anchor="middle" x="136.5" y="-151" font-family="Helvetica,sans-Serif" font-size="10.00">std::string</text>
</a>
</g>
</g>
<!-- Node2&#45;&gt;Node1 -->
<g id="edge1_Node000001_Node000002" class="edge">
<title>Node2&#45;&gt;Node1</title>
<g id="a_edge1_Node000001_Node000002"><a xlink:title=" ">
<path fill="none" stroke="#9a32cd" stroke-dasharray="5,2" d="M140.49,-133.72C144.56,-109.93 148.41,-68.28 133.5,-37 130.03,-29.71 123.5,-23.66 117.33,-19.19"/>
<polygon fill="#9a32cd" stroke="#9a32cd" points="136.99,-133.36 138.55,-143.84 143.87,-134.67 136.99,-133.36"/>
</a>
</g>
<text text-anchor="start" x="146.5" y="-78.5" font-family="Helvetica,sans-Serif" font-size="10.00" fill="grey">name</text>
</g>
<!-- Node4 -->
<g id="Node000004" class="node">
<title>Node4</title>
<g id="a_Node000004"><a xlink:href="struct_acts_1_1_proto_volume.html" target="_top" xlink:title="A proto volume description being used to define an overall structure of either a TrackingVolume or Ex...">
<polygon fill="white" stroke="#666666" points="111.5,-91 5.5,-91 5.5,-72 111.5,-72 111.5,-91"/>
<text text-anchor="middle" x="58.5" y="-79" font-family="Helvetica,sans-Serif" font-size="10.00">Acts::ProtoVolume</text>
</a>
</g>
</g>
<!-- Node2&#45;&gt;Node4 -->
<g id="edge4_Node000004_Node000002" class="edge">
<title>Node2&#45;&gt;Node4</title>
<g id="a_edge4_Node000004_Node000002"><a xlink:title=" ">
<path fill="none" stroke="#9a32cd" stroke-dasharray="5,2" d="M114.72,-137.97C109.58,-134.25 104.23,-130.13 99.5,-126 86.84,-114.94 73.79,-100.46 65.9,-91.31"/>
<polygon fill="#9a32cd" stroke="#9a32cd" points="112.82,-140.91 123.02,-143.77 116.83,-135.17 112.82,-140.91"/>
</a>
</g>
<text text-anchor="start" x="102.5" y="-114.5" font-family="Helvetica,sans-Serif" font-size="10.00" fill="grey">name</text>
</g>
<!-- Node3 -->
<g id="Node000003" class="node">
<title>Node3</title>
<g id="a_Node000003"><a xlink:title=" ">
<polygon fill="white" stroke="#666666" points="188.5,-230 84.5,-230 84.5,-200 188.5,-200 188.5,-230"/>
<text text-anchor="start" x="92.5" y="-218" font-family="Helvetica,sans-Serif" font-size="10.00">std::basic_string&lt;</text>
<text text-anchor="middle" x="136.5" y="-207" font-family="Helvetica,sans-Serif" font-size="10.00"> Char &gt;</text>
</a>
</g>
</g>
<!-- Node3&#45;&gt;Node2 -->
<g id="edge2_Node000002_Node000003" class="edge">
<title>Node3&#45;&gt;Node2</title>
<g id="a_edge2_Node000002_Node000003"><a xlink:title=" ">
<path fill="none" stroke="#63b8ff" d="M136.5,-189.79C136.5,-180.36 136.5,-170.15 136.5,-163.16"/>
<polygon fill="#63b8ff" stroke="#63b8ff" points="133,-189.9 136.5,-199.9 140,-189.9 133,-189.9"/>
</a>
</g>
</g>
<!-- Node4&#45;&gt;Node1 -->
<g id="edge3_Node000001_Node000004" class="edge">
<title>Node4&#45;&gt;Node1</title>
<g id="a_edge3_Node000001_Node000004"><a xlink:title=" ">
<path fill="none" stroke="#9a32cd" stroke-dasharray="5,2" d="M57.28,-61.77C57.56,-53.64 59.06,-44.33 63.5,-37 68.16,-29.3 76.02,-23.32 83.46,-19.01"/>
<polygon fill="#9a32cd" stroke="#9a32cd" points="53.78,-61.89 57.47,-71.82 60.78,-61.75 53.78,-61.89"/>
</a>
</g>
<text text-anchor="start" x="66.5" y="-42.5" font-family="Helvetica,sans-Serif" font-size="10.00" fill="grey">worldVolume</text>
</g>
<!-- Node5 -->
<g id="Node000005" class="node">
<title>Node5</title>
<g id="a_Node000005"><a xlink:href="class_acts_1_1_extent.html" target="_top" xlink:title="A class representing the geometric extent of an object in its possible dimensions,...">
<polygon fill="white" stroke="#666666" points="75,-163 0,-163 0,-144 75,-144 75,-163"/>
<text text-anchor="middle" x="37.5" y="-151" font-family="Helvetica,sans-Serif" font-size="10.00">Acts::Extent</text>
</a>
</g>
</g>
<!-- Node5&#45;&gt;Node4 -->
<g id="edge5_Node000004_Node000005" class="edge">
<title>Node5&#45;&gt;Node4</title>
<g id="a_edge5_Node000004_Node000005"><a xlink:title=" ">
<path fill="none" stroke="#9a32cd" stroke-dasharray="5,2" d="M35.44,-133.87C35.2,-126 35.77,-116.86 38.5,-109 40.77,-102.47 45.31,-96.24 49.49,-91.46"/>
<polygon fill="#9a32cd" stroke="#9a32cd" points="31.95,-134.17 36.18,-143.89 38.94,-133.66 31.95,-134.17"/>
</a>
</g>
<text text-anchor="start" x="41.5" y="-114.5" font-family="Helvetica,sans-Serif" font-size="10.00" fill="grey">extent</text>
</g>
</g>
</svg>
</svg>

<style type='text/css'>
<![CDATA[
[data-mouse-over-selected='false'] { opacity: 0.7; }
[data-mouse-over-selected='true']  { opacity: 1.0; }
]]>
</style>
<script type="application/ecmascript"><![CDATA[
document.addEventListener('DOMContentLoaded', (event) => {
  highlightEdges();
  highlightAdjacentNodes();
});
]]></script>
</svg>
