<?xml version="1.0" encoding="UTF-8" standalone="no"?>
<!DOCTYPE svg PUBLIC "-//W3C//DTD SVG 1.1//EN"
 "http://www.w3.org/Graphics/SVG/1.1/DTD/svg11.dtd">
<!-- Generated by graphviz version 2.43.0 (0)
 -->
<!-- Title: ActsPlugins::Geant4DetectorSurfaceFactory::Options Pages: 1 -->
<svg width="262pt" height="223pt"
 viewBox="0.00 0.00 261.50 223.00" xmlns="http://www.w3.org/2000/svg" xmlns:xlink="http://www.w3.org/1999/xlink">
<g id="graph0" class="graph" transform="scale(1 1) rotate(0) translate(4 219)">
<title>ActsPlugins::Geant4DetectorSurfaceFactory::Options</title>
<!-- Node1 -->
<g id="Node000001" class="node">
<title>Node1</title>
<g id="a_Node000001"><a xlink:title="Nested option struct that allows per call changeable configuration.">
<polygon fill="#999999" stroke="#666666" points="172.5,-30 16.5,-30 16.5,0 172.5,0 172.5,-30"/>
<text text-anchor="start" x="24.5" y="-18" font-family="Helvetica,sans-Serif" font-size="10.00">ActsPlugins::Geant4Detector</text>
<text text-anchor="middle" x="94.5" y="-7" font-family="Helvetica,sans-Serif" font-size="10.00">SurfaceFactory::Options</text>
</a>
</g>
</g>
<!-- Node2 -->
<g id="Node000002" class="node">
<title>Node2</title>
<g id="a_Node000002"><a xlink:title=" ">
<polygon fill="white" stroke="#666666" points="189,-128 0,-128 0,-98 189,-98 189,-128"/>
<text text-anchor="start" x="8" y="-116" font-family="Helvetica,sans-Serif" font-size="10.00">std::shared_ptr&lt; ActsPlugins</text>
<text text-anchor="middle" x="94.5" y="-105" font-family="Helvetica,sans-Serif" font-size="10.00">::IGeant4PhysicalVolumeSelector &gt;</text>
</a>
</g>
</g>
<!-- Node2&#45;&gt;Node1 -->
<g id="edge1_Node000001_Node000002" class="edge">
<title>Node2&#45;&gt;Node1</title>
<g id="a_edge1_Node000001_Node000002"><a xlink:title=" ">
<path fill="none" stroke="#9a32cd" stroke-dasharray="5,2" d="M94.5,-87.7C94.5,-69.55 94.5,-45.35 94.5,-30.22"/>
<polygon fill="#9a32cd" stroke="#9a32cd" points="91,-87.83 94.5,-97.83 98,-87.83 91,-87.83"/>
</a>
</g>
<text text-anchor="start" x="98" y="-69" font-family="Helvetica,sans-Serif" font-size="10.00" fill="grey">passiveSurfaceSelector</text>
<text text-anchor="start" x="98" y="-54" font-family="Helvetica,sans-Serif" font-size="10.00" fill="grey">sensitiveSurfaceSelector</text>
</g>
<!-- Node3 -->
<g id="Node000003" class="node">
<title>Node3</title>
<g id="a_Node000003"><a xlink:title=" ">
<polygon fill="white" stroke="#666666" points="153.5,-215 35.5,-215 35.5,-196 153.5,-196 153.5,-215"/>
<text text-anchor="middle" x="94.5" y="-203" font-family="Helvetica,sans-Serif" font-size="10.00">std::shared_ptr&lt; T &gt;</text>
</a>
</g>
</g>
<!-- Node3&#45;&gt;Node2 -->
<g id="edge2_Node000002_Node000003" class="edge">
<title>Node3&#45;&gt;Node2</title>
<g id="a_edge2_Node000002_Node000003"><a xlink:title=" ">
<path fill="none" stroke="orange" stroke-dasharray="5,2" d="M94.5,-185.38C94.5,-168.24 94.5,-143.49 94.5,-128.09"/>
<polygon fill="orange" stroke="orange" points="91,-185.82 94.5,-195.82 98,-185.82 91,-185.82"/>
</a>
</g>
<text text-anchor="start" x="98" y="-167" font-family="Helvetica,sans-Serif" font-size="10.00" fill="grey">&lt; ActsPlugins::IGeant4Physical</text>
<text text-anchor="start" x="98" y="-152" font-family="Helvetica,sans-Serif" font-size="10.00" fill="grey">  VolumeSelector &gt;</text>
</g>
</g>
</svg>
