<?xml version="1.0" encoding="UTF-8" standalone="no"?>
<!DOCTYPE svg PUBLIC "-//W3C//DTD SVG 1.1//EN"
 "http://www.w3.org/Graphics/SVG/1.1/DTD/svg11.dtd">
<!-- Generated by graphviz version 2.43.0 (0)
 -->
<!-- Title: Acts::VertexInfo Pages: 1 -->
<svg width="783pt" height="139pt"
 viewBox="0.00 0.00 783.00 139.00" xmlns="http://www.w3.org/2000/svg" xmlns:xlink="http://www.w3.org/1999/xlink">
<g id="graph0" class="graph" transform="scale(1 1) rotate(0) translate(4 135)">
<title>Acts::VertexInfo</title>
<!-- Node1 -->
<g id="Node000001" class="node">
<title>Node1</title>
<g id="a_Node000001"><a xlink:title="Helper struct for storing vertex related information.">
<polygon fill="#999999" stroke="#666666" points="775,-88 681,-88 681,-69 775,-69 775,-88"/>
<text text-anchor="middle" x="728" y="-76" font-family="Helvetica,sans-Serif" font-size="10.00">Acts::VertexInfo</text>
</a>
</g>
</g>
<!-- Node2 -->
<g id="Node000002" class="node">
<title>Node2</title>
<g id="a_Node000002"><a xlink:href="class_acts_1_1_vertex.html" target="_top" xlink:title="Class for storing vertex objects.">
<polygon fill="white" stroke="#666666" points="480,-131 405,-131 405,-112 480,-112 480,-131"/>
<text text-anchor="middle" x="442.5" y="-119" font-family="Helvetica,sans-Serif" font-size="10.00">Acts::Vertex</text>
</a>
</g>
</g>
<!-- Node2&#45;&gt;Node1 -->
<g id="edge1_Node000001_Node000002" class="edge">
<title>Node2&#45;&gt;Node1</title>
<g id="a_edge1_Node000001_Node000002"><a xlink:title=" ">
<path fill="none" stroke="#9a32cd" stroke-dasharray="5,2" d="M490.38,-119.75C535.13,-117.38 604.25,-111.93 663,-99.5 676.16,-96.72 690.41,-92.2 702.12,-88.06"/>
<polygon fill="#9a32cd" stroke="#9a32cd" points="490.2,-116.25 480.38,-120.25 490.54,-123.24 490.2,-116.25"/>
</a>
</g>
<text text-anchor="start" x="594" y="-118" font-family="Helvetica,sans-Serif" font-size="10.00" fill="grey">constraint</text>
</g>
<!-- Node3 -->
<g id="Node000003" class="node">
<title>Node3</title>
<g id="a_Node000003"><a xlink:title=" ">
<polygon fill="white" stroke="#666666" points="496,-93.5 389,-93.5 389,-63.5 496,-63.5 496,-93.5"/>
<text text-anchor="start" x="397" y="-81.5" font-family="Helvetica,sans-Serif" font-size="10.00">std::vector&lt; Acts::</text>
<text text-anchor="middle" x="442.5" y="-70.5" font-family="Helvetica,sans-Serif" font-size="10.00">InputTrack &gt;</text>
</a>
</g>
</g>
<!-- Node3&#45;&gt;Node1 -->
<g id="edge2_Node000001_Node000003" class="edge">
<title>Node3&#45;&gt;Node1</title>
<g id="a_edge2_Node000001_Node000003"><a xlink:title=" ">
<path fill="none" stroke="#9a32cd" stroke-dasharray="5,2" d="M506.41,-78.5C559.16,-78.5 633.28,-78.5 680.72,-78.5"/>
<polygon fill="#9a32cd" stroke="#9a32cd" points="506.16,-75 496.16,-78.5 506.16,-82 506.16,-75"/>
</a>
</g>
<text text-anchor="start" x="593" y="-84" font-family="Helvetica,sans-Serif" font-size="10.00" fill="grey">trackLinks</text>
</g>
<!-- Node4 -->
<g id="Node000004" class="node">
<title>Node4</title>
<g id="a_Node000004"><a xlink:title=" ">
<polygon fill="white" stroke="#666666" points="99,-92 2,-92 2,-73 99,-73 99,-92"/>
<text text-anchor="middle" x="50.5" y="-80" font-family="Helvetica,sans-Serif" font-size="10.00">std::vector&lt; T &gt;</text>
</a>
</g>
</g>
<!-- Node4&#45;&gt;Node3 -->
<g id="edge3_Node000003_Node000004" class="edge">
<title>Node4&#45;&gt;Node3</title>
<g id="a_edge3_Node000003_Node000004"><a xlink:title=" ">
<path fill="none" stroke="orange" stroke-dasharray="5,2" d="M109.61,-81.9C185.2,-81.13 316.16,-79.79 388.93,-79.04"/>
<polygon fill="orange" stroke="orange" points="109.29,-78.41 99.32,-82.01 109.36,-85.41 109.29,-78.41"/>
</a>
</g>
<text text-anchor="start" x="165.5" y="-87" font-family="Helvetica,sans-Serif" font-size="10.00" fill="grey">&lt; Acts::InputTrack &gt;</text>
</g>
<!-- Node5 -->
<g id="Node000005" class="node">
<title>Node5</title>
<g id="a_Node000005"><a xlink:title=" ">
<polygon fill="white" stroke="#666666" points="555,-41 330,-41 330,0 555,0 555,-41"/>
<text text-anchor="start" x="338" y="-29" font-family="Helvetica,sans-Serif" font-size="10.00">std::map&lt; Acts::InputTrack,</text>
<text text-anchor="start" x="338" y="-18" font-family="Helvetica,sans-Serif" font-size="10.00"> const Acts::GenericBoundTrackParameters</text>
<text text-anchor="middle" x="442.5" y="-7" font-family="Helvetica,sans-Serif" font-size="10.00">&lt; ParticleHypothesis &gt; &gt;</text>
</a>
</g>
</g>
<!-- Node5&#45;&gt;Node1 -->
<g id="edge4_Node000001_Node000005" class="edge">
<title>Node5&#45;&gt;Node1</title>
<g id="a_edge4_Node000001_Node000005"><a xlink:title=" ">
<path fill="none" stroke="#9a32cd" stroke-dasharray="5,2" d="M565.54,-37.73C597.46,-43.15 631.68,-49.77 663,-57.5 675.6,-60.61 689.31,-64.97 700.79,-68.91"/>
<polygon fill="#9a32cd" stroke="#9a32cd" points="565.71,-34.21 555.27,-36.01 564.56,-41.11 565.71,-34.21"/>
</a>
</g>
<text text-anchor="start" x="576" y="-63" font-family="Helvetica,sans-Serif" font-size="10.00" fill="grey">impactParams3D</text>
</g>
<!-- Node6 -->
<g id="Node000006" class="node">
<title>Node6</title>
<g id="a_Node000006"><a xlink:title=" ">
<polygon fill="white" stroke="#666666" points="101,-22 0,-22 0,-3 101,-3 101,-22"/>
<text text-anchor="middle" x="50.5" y="-10" font-family="Helvetica,sans-Serif" font-size="10.00">std::map&lt; K, T &gt;</text>
</a>
</g>
</g>
<!-- Node6&#45;&gt;Node5 -->
<g id="edge5_Node000005_Node000006" class="edge">
<title>Node6&#45;&gt;Node5</title>
<g id="a_edge5_Node000005_Node000006"><a xlink:title=" ">
<path fill="none" stroke="orange" stroke-dasharray="5,2" d="M111.39,-13.73C169.38,-14.92 258.73,-16.75 329.85,-18.21"/>
<polygon fill="orange" stroke="orange" points="111.36,-10.23 101.29,-13.52 111.22,-17.23 111.36,-10.23"/>
</a>
</g>
<text text-anchor="start" x="122.5" y="-54" font-family="Helvetica,sans-Serif" font-size="10.00" fill="grey">&lt; Acts::InputTrack,</text>
<text text-anchor="start" x="122.5" y="-39" font-family="Helvetica,sans-Serif" font-size="10.00" fill="grey">   const Acts::GenericBoundTrack</text>
<text text-anchor="start" x="122.5" y="-24" font-family="Helvetica,sans-Serif" font-size="10.00" fill="grey">  Parameters&lt; ParticleHypothesis &gt; &gt;</text>
</g>
</g>
</svg>
