<?xml version="1.0" encoding="UTF-8" standalone="no"?>
<!DOCTYPE svg PUBLIC "-//W3C//DTD SVG 1.1//EN"
 "http://www.w3.org/Graphics/SVG/1.1/DTD/svg11.dtd">
<!-- Generated by graphviz version 2.43.0 (0)
 -->
<!-- Title: ActsPlugins::Svg::GridConverter::Options Pages: 1 -->
<svg width="417pt" height="314pt"
 viewBox="0.00 0.00 417.00 314.00" xmlns="http://www.w3.org/2000/svg" xmlns:xlink="http://www.w3.org/1999/xlink">
<g id="graph0" class="graph" transform="scale(1 1) rotate(0) translate(4 310)">
<title>ActsPlugins::Svg::GridConverter::Options</title>
<!-- Node1 -->
<g id="Node000001" class="node">
<title>Node1</title>
<g id="a_Node000001"><a xlink:title="Nested Options struct.">
<polygon fill="#999999" stroke="#666666" points="283.5,-30 112.5,-30 112.5,0 283.5,0 283.5,-30"/>
<text text-anchor="start" x="120.5" y="-18" font-family="Helvetica,sans-Serif" font-size="10.00">ActsPlugins::Svg::GridConverter</text>
<text text-anchor="middle" x="198" y="-7" font-family="Helvetica,sans-Serif" font-size="10.00">::Options</text>
</a>
</g>
</g>
<!-- Node2 -->
<g id="Node000002" class="node">
<title>Node2</title>
<g id="a_Node000002"><a xlink:href="struct_acts_plugins_1_1_svg_1_1_style.html" target="_top" xlink:title="Style struct.">
<polygon fill="white" stroke="#666666" points="262,-102 134,-102 134,-83 262,-83 262,-102"/>
<text text-anchor="middle" x="198" y="-90" font-family="Helvetica,sans-Serif" font-size="10.00">ActsPlugins::Svg::Style</text>
</a>
</g>
</g>
<!-- Node2&#45;&gt;Node1 -->
<g id="edge1_Node000001_Node000002" class="edge">
<title>Node2&#45;&gt;Node1</title>
<g id="a_edge1_Node000001_Node000002"><a xlink:title=" ">
<path fill="none" stroke="#9a32cd" stroke-dasharray="5,2" d="M198,-72.57C198,-59.43 198,-42.18 198,-30.21"/>
<polygon fill="#9a32cd" stroke="#9a32cd" points="194.5,-72.84 198,-82.84 201.5,-72.84 194.5,-72.84"/>
</a>
</g>
<text text-anchor="start" x="201.5" y="-53.5" font-family="Helvetica,sans-Serif" font-size="10.00" fill="grey">style</text>
</g>
<!-- Node3 -->
<g id="Node000003" class="node">
<title>Node3</title>
<g id="a_Node000003"><a xlink:title=" ">
<polygon fill="white" stroke="#666666" points="110,-234 0,-234 0,-215 110,-215 110,-234"/>
<text text-anchor="middle" x="55" y="-222" font-family="Helvetica,sans-Serif" font-size="10.00">std::array&lt; int, 3 &gt;</text>
</a>
</g>
</g>
<!-- Node3&#45;&gt;Node2 -->
<g id="edge2_Node000002_Node000003" class="edge">
<title>Node3&#45;&gt;Node2</title>
<g id="a_edge2_Node000002_Node000003"><a xlink:title=" ">
<path fill="none" stroke="#9a32cd" stroke-dasharray="5,2" d="M55.66,-204.5C57.52,-181.2 64.26,-142.09 88,-120 100.51,-108.36 117.23,-101.57 133.84,-97.68"/>
<polygon fill="#9a32cd" stroke="#9a32cd" points="52.15,-204.61 55.07,-214.8 59.13,-205.01 52.15,-204.61"/>
</a>
</g>
<text text-anchor="start" x="91" y="-185.5" font-family="Helvetica,sans-Serif" font-size="10.00" fill="grey">fillColor</text>
<text text-anchor="start" x="91" y="-170.5" font-family="Helvetica,sans-Serif" font-size="10.00" fill="grey">fontColor</text>
<text text-anchor="start" x="91" y="-155.5" font-family="Helvetica,sans-Serif" font-size="10.00" fill="grey">highlightColor</text>
<text text-anchor="start" x="91" y="-140.5" font-family="Helvetica,sans-Serif" font-size="10.00" fill="grey">highlightStrokeColor</text>
<text text-anchor="start" x="91" y="-125.5" font-family="Helvetica,sans-Serif" font-size="10.00" fill="grey">strokeColor</text>
</g>
<!-- Node4 -->
<g id="Node000004" class="node">
<title>Node4</title>
<g id="a_Node000004"><a xlink:title=" ">
<polygon fill="white" stroke="#666666" points="101,-306 9,-306 9,-287 101,-287 101,-306"/>
<text text-anchor="middle" x="55" y="-294" font-family="Helvetica,sans-Serif" font-size="10.00">std::array&lt; T &gt;</text>
</a>
</g>
</g>
<!-- Node4&#45;&gt;Node3 -->
<g id="edge3_Node000003_Node000004" class="edge">
<title>Node4&#45;&gt;Node3</title>
<g id="a_edge3_Node000003_Node000004"><a xlink:title=" ">
<path fill="none" stroke="orange" stroke-dasharray="5,2" d="M55,-276.58C55,-262.76 55,-244.68 55,-234.15"/>
<polygon fill="orange" stroke="orange" points="51.5,-276.92 55,-286.92 58.5,-276.92 51.5,-276.92"/>
</a>
</g>
<text text-anchor="start" x="58" y="-257.5" font-family="Helvetica,sans-Serif" font-size="10.00" fill="grey">&lt; int, 3 &gt;</text>
</g>
<!-- Node5 -->
<g id="Node000005" class="node">
<title>Node5</title>
<g id="a_Node000005"><a xlink:title=" ">
<polygon fill="white" stroke="#666666" points="268,-234 128,-234 128,-215 268,-215 268,-234"/>
<text text-anchor="middle" x="198" y="-222" font-family="Helvetica,sans-Serif" font-size="10.00">std::vector&lt; std::string &gt;</text>
</a>
</g>
</g>
<!-- Node5&#45;&gt;Node2 -->
<g id="edge4_Node000002_Node000005" class="edge">
<title>Node5&#45;&gt;Node2</title>
<g id="a_edge4_Node000002_Node000005"><a xlink:title=" ">
<path fill="none" stroke="#9a32cd" stroke-dasharray="5,2" d="M198,-204.73C198,-176.22 198,-123.09 198,-102.23"/>
<polygon fill="#9a32cd" stroke="#9a32cd" points="194.5,-204.97 198,-214.97 201.5,-204.97 194.5,-204.97"/>
</a>
</g>
<text text-anchor="start" x="201.5" y="-155.5" font-family="Helvetica,sans-Serif" font-size="10.00" fill="grey">highlights</text>
</g>
<!-- Node6 -->
<g id="Node000006" class="node">
<title>Node6</title>
<g id="a_Node000006"><a xlink:title=" ">
<polygon fill="white" stroke="#666666" points="306.5,-306 209.5,-306 209.5,-287 306.5,-287 306.5,-306"/>
<text text-anchor="middle" x="258" y="-294" font-family="Helvetica,sans-Serif" font-size="10.00">std::vector&lt; T &gt;</text>
</a>
</g>
</g>
<!-- Node6&#45;&gt;Node5 -->
<g id="edge5_Node000005_Node000006" class="edge">
<title>Node6&#45;&gt;Node5</title>
<g id="a_edge5_Node000005_Node000006"><a xlink:title=" ">
<path fill="none" stroke="orange" stroke-dasharray="5,2" d="M239.19,-280.14C235.32,-276.65 231.39,-272.83 228,-269 218.14,-257.88 208.74,-243.41 203.18,-234.29"/>
<polygon fill="orange" stroke="orange" points="237,-282.88 246.86,-286.77 241.58,-277.59 237,-282.88"/>
</a>
</g>
<text text-anchor="start" x="231" y="-257.5" font-family="Helvetica,sans-Serif" font-size="10.00" fill="grey">&lt; std::string &gt;</text>
</g>
<!-- Node7 -->
<g id="Node000007" class="node">
<title>Node7</title>
<g id="a_Node000007"><a xlink:title=" ">
<polygon fill="white" stroke="#666666" points="390,-234 286,-234 286,-215 390,-215 390,-234"/>
<text text-anchor="middle" x="338" y="-222" font-family="Helvetica,sans-Serif" font-size="10.00">std::vector&lt; int &gt;</text>
</a>
</g>
</g>
<!-- Node6&#45;&gt;Node7 -->
<g id="edge7_Node000007_Node000006" class="edge">
<title>Node6&#45;&gt;Node7</title>
<g id="a_edge7_Node000007_Node000006"><a xlink:title=" ">
<path fill="none" stroke="orange" stroke-dasharray="5,2" d="M286.82,-282.23C293.49,-278.47 300.3,-274.01 306,-269 317.7,-258.73 327.68,-243.49 333.25,-234.04"/>
<polygon fill="orange" stroke="orange" points="285.13,-279.17 277.92,-286.93 288.4,-285.36 285.13,-279.17"/>
</a>
</g>
<text text-anchor="start" x="324" y="-257.5" font-family="Helvetica,sans-Serif" font-size="10.00" fill="grey">&lt; int &gt;</text>
</g>
<!-- Node7&#45;&gt;Node2 -->
<g id="edge6_Node000002_Node000007" class="edge">
<title>Node7&#45;&gt;Node2</title>
<g id="a_edge6_Node000002_Node000007"><a xlink:title=" ">
<path fill="none" stroke="#9a32cd" stroke-dasharray="5,2" d="M328.06,-206.07C314.51,-183.6 288.3,-144.51 257,-120 247.28,-112.38 235.02,-106.42 224.19,-102.09"/>
<polygon fill="#9a32cd" stroke="#9a32cd" points="325.14,-208 333.23,-214.85 331.18,-204.45 325.14,-208"/>
</a>
</g>
<text text-anchor="start" x="325.5" y="-155.5" font-family="Helvetica,sans-Serif" font-size="10.00" fill="grey">strokeDasharray</text>
</g>
</g>
</svg>
