<?xml version="1.0" encoding="UTF-8" standalone="no"?>
<!DOCTYPE svg PUBLIC "-//W3C//DTD SVG 1.1//EN"
 "http://www.w3.org/Graphics/SVG/1.1/DTD/svg11.dtd">
<!-- Generated by graphviz version 2.43.0 (0)
 -->
<!-- Title: Acts::PropagatorOptions&lt; stepper_options_t, navigator_options_t, actor_list_t &gt; Pages: 1 -->
<svg width="254pt" height="225pt"
 viewBox="0.00 0.00 253.50 225.00" xmlns="http://www.w3.org/2000/svg" xmlns:xlink="http://www.w3.org/1999/xlink">
<g id="graph0" class="graph" transform="scale(1 1) rotate(0) translate(4 221)">
<title>Acts::PropagatorOptions&lt; stepper_options_t, navigator_options_t, actor_list_t &gt;</title>
<!-- Node1 -->
<g id="Node000001" class="node">
<title>Node1</title>
<g id="a_Node000001"><a xlink:title="Options for propagate() call.">
<polygon fill="#999999" stroke="#666666" points="182,-150 15,-150 15,-109 182,-109 182,-150"/>
<text text-anchor="start" x="23" y="-138" font-family="Helvetica,sans-Serif" font-size="10.00">Acts::PropagatorOptions</text>
<text text-anchor="start" x="23" y="-127" font-family="Helvetica,sans-Serif" font-size="10.00">&lt; stepper_options_t, navigator</text>
<text text-anchor="middle" x="98.5" y="-116" font-family="Helvetica,sans-Serif" font-size="10.00">_options_t, actor_list_t &gt;</text>
</a>
</g>
</g>
<!-- Node3 -->
<g id="Node000003" class="node">
<title>Node3</title>
<g id="a_Node000003"><a xlink:href="struct_acts_1_1_propagator_options.html" target="_top" xlink:title=" ">
<polygon fill="white" stroke="#666666" points="197,-41 0,-41 0,0 197,0 197,-41"/>
<text text-anchor="start" x="8" y="-29" font-family="Helvetica,sans-Serif" font-size="10.00">Acts::PropagatorOptions</text>
<text text-anchor="start" x="8" y="-18" font-family="Helvetica,sans-Serif" font-size="10.00">&lt; StepperOptions, NavigatorOptions,</text>
<text text-anchor="middle" x="98.5" y="-7" font-family="Helvetica,sans-Serif" font-size="10.00"> actor_list_t &gt;</text>
</a>
</g>
</g>
<!-- Node1&#45;&gt;Node3 -->
<g id="edge2_Node000001_Node000003" class="edge">
<title>Node1&#45;&gt;Node3</title>
<g id="a_edge2_Node000001_Node000003"><a xlink:title=" ">
<path fill="none" stroke="orange" stroke-dasharray="5,2" d="M98.5,-98.65C98.5,-80.22 98.5,-57.1 98.5,-41"/>
<polygon fill="orange" stroke="orange" points="95,-98.87 98.5,-108.87 102,-98.87 95,-98.87"/>
</a>
</g>
<text text-anchor="start" x="102" y="-80" font-family="Helvetica,sans-Serif" font-size="10.00" fill="grey">&lt; StepperOptions, Navigator</text>
<text text-anchor="start" x="102" y="-65" font-family="Helvetica,sans-Serif" font-size="10.00" fill="grey">  Options, actor_list_t &gt;</text>
</g>
<!-- Node2 -->
<g id="Node000002" class="node">
<title>Node2</title>
<g id="a_Node000002"><a xlink:title=" ">
<polygon fill="white" stroke="#666666" points="174.5,-217 22.5,-217 22.5,-187 174.5,-187 174.5,-217"/>
<text text-anchor="start" x="30.5" y="-205" font-family="Helvetica,sans-Serif" font-size="10.00">Acts::detail::PurePropagator</text>
<text text-anchor="middle" x="98.5" y="-194" font-family="Helvetica,sans-Serif" font-size="10.00">PlainOptions</text>
</a>
</g>
</g>
<!-- Node2&#45;&gt;Node1 -->
<g id="edge1_Node000001_Node000002" class="edge">
<title>Node2&#45;&gt;Node1</title>
<g id="a_edge1_Node000001_Node000002"><a xlink:title=" ">
<path fill="none" stroke="#63b8ff" d="M98.5,-176.48C98.5,-167.85 98.5,-158.26 98.5,-150.09"/>
<polygon fill="#63b8ff" stroke="#63b8ff" points="95,-176.73 98.5,-186.73 102,-176.73 95,-176.73"/>
</a>
</g>
</g>
</g>
</svg>
