<?xml version="1.0" encoding="UTF-8" standalone="no"?>
<!DOCTYPE svg PUBLIC "-//W3C//DTD SVG 1.1//EN"
 "http://www.w3.org/Graphics/SVG/1.1/DTD/svg11.dtd">
<!-- Generated by graphviz version 2.43.0 (0)
 -->
<!-- Title: Acts::ScoreBasedAmbiguityResolution::Config Pages: 1 -->
<svg width="745pt" height="115pt"
 viewBox="0.00 0.00 745.00 114.50" xmlns="http://www.w3.org/2000/svg" xmlns:xlink="http://www.w3.org/1999/xlink">
<g id="graph0" class="graph" transform="scale(1 1) rotate(0) translate(4 110.5)">
<title>Acts::ScoreBasedAmbiguityResolution::Config</title>
<!-- Node1 -->
<g id="Node000001" class="node">
<title>Node1</title>
<g id="a_Node000001"><a xlink:title="Configuration struct : contains the configuration for the ambiguity resolution.">
<polygon fill="#999999" stroke="#666666" points="737,-62.5 586,-62.5 586,-32.5 737,-32.5 737,-62.5"/>
<text text-anchor="start" x="594" y="-50.5" font-family="Helvetica,sans-Serif" font-size="10.00">Acts::ScoreBasedAmbiguity</text>
<text text-anchor="middle" x="661.5" y="-39.5" font-family="Helvetica,sans-Serif" font-size="10.00">Resolution::Config</text>
</a>
</g>
</g>
<!-- Node2 -->
<g id="Node000002" class="node">
<title>Node2</title>
<g id="a_Node000002"><a xlink:title=" ">
<polygon fill="white" stroke="#666666" points="434.5,-89.5 323.5,-89.5 323.5,-59.5 434.5,-59.5 434.5,-89.5"/>
<text text-anchor="start" x="331.5" y="-77.5" font-family="Helvetica,sans-Serif" font-size="10.00">std::map&lt; std::size</text>
<text text-anchor="middle" x="379" y="-66.5" font-family="Helvetica,sans-Serif" font-size="10.00">_t, std::size_t &gt;</text>
</a>
</g>
</g>
<!-- Node2&#45;&gt;Node1 -->
<g id="edge1_Node000001_Node000002" class="edge">
<title>Node2&#45;&gt;Node1</title>
<g id="a_edge1_Node000001_Node000002"><a xlink:title=" ">
<path fill="none" stroke="#9a32cd" stroke-dasharray="5,2" d="M444.89,-68.25C487.03,-64.2 542.07,-58.9 585.99,-54.67"/>
<polygon fill="#9a32cd" stroke="#9a32cd" points="444.37,-64.79 434.75,-69.23 445.04,-71.76 444.37,-64.79"/>
</a>
</g>
<text text-anchor="start" x="497.5" y="-69" font-family="Helvetica,sans-Serif" font-size="10.00" fill="grey">volumeMap</text>
</g>
<!-- Node3 -->
<g id="Node000003" class="node">
<title>Node3</title>
<g id="a_Node000003"><a xlink:title=" ">
<polygon fill="white" stroke="#666666" points="101,-85 0,-85 0,-66 101,-66 101,-85"/>
<text text-anchor="middle" x="50.5" y="-73" font-family="Helvetica,sans-Serif" font-size="10.00">std::map&lt; K, T &gt;</text>
</a>
</g>
</g>
<!-- Node3&#45;&gt;Node2 -->
<g id="edge2_Node000002_Node000003" class="edge">
<title>Node3&#45;&gt;Node2</title>
<g id="a_edge2_Node000002_Node000003"><a xlink:title=" ">
<path fill="none" stroke="orange" stroke-dasharray="5,2" d="M111.26,-75.32C171.8,-75.13 264.65,-74.85 323.3,-74.67"/>
<polygon fill="orange" stroke="orange" points="111.08,-71.82 101.09,-75.35 111.1,-78.82 111.08,-71.82"/>
</a>
</g>
<text text-anchor="start" x="155" y="-95.5" font-family="Helvetica,sans-Serif" font-size="10.00" fill="grey">&lt; std::size_t, std</text>
<text text-anchor="start" x="155" y="-80.5" font-family="Helvetica,sans-Serif" font-size="10.00" fill="grey">  ::size_t &gt;</text>
</g>
<!-- Node4 -->
<g id="Node000004" class="node">
<title>Node4</title>
<g id="a_Node000004"><a xlink:title=" ">
<polygon fill="white" stroke="#666666" points="467,-41 291,-41 291,0 467,0 467,-41"/>
<text text-anchor="start" x="299" y="-29" font-family="Helvetica,sans-Serif" font-size="10.00">std::vector&lt; Acts::</text>
<text text-anchor="start" x="299" y="-18" font-family="Helvetica,sans-Serif" font-size="10.00">ScoreBasedAmbiguityResolution</text>
<text text-anchor="middle" x="379" y="-7" font-family="Helvetica,sans-Serif" font-size="10.00">::DetectorConfig &gt;</text>
</a>
</g>
</g>
<!-- Node4&#45;&gt;Node1 -->
<g id="edge3_Node000001_Node000004" class="edge">
<title>Node4&#45;&gt;Node1</title>
<g id="a_edge3_Node000001_Node000004"><a xlink:title=" ">
<path fill="none" stroke="#9a32cd" stroke-dasharray="5,2" d="M477.32,-27.34C506.51,-29.65 538.58,-32.42 568,-35.5 573.8,-36.11 579.79,-36.78 585.82,-37.49"/>
<polygon fill="#9a32cd" stroke="#9a32cd" points="477.37,-23.84 467.13,-26.55 476.83,-30.82 477.37,-23.84"/>
</a>
</g>
<text text-anchor="start" x="488.5" y="-41" font-family="Helvetica,sans-Serif" font-size="10.00" fill="grey">detectorConfigs</text>
</g>
<!-- Node5 -->
<g id="Node000005" class="node">
<title>Node5</title>
<g id="a_Node000005"><a xlink:title=" ">
<polygon fill="white" stroke="#666666" points="99,-30 2,-30 2,-11 99,-11 99,-30"/>
<text text-anchor="middle" x="50.5" y="-18" font-family="Helvetica,sans-Serif" font-size="10.00">std::vector&lt; T &gt;</text>
</a>
</g>
</g>
<!-- Node5&#45;&gt;Node4 -->
<g id="edge4_Node000004_Node000005" class="edge">
<title>Node5&#45;&gt;Node4</title>
<g id="a_edge4_Node000004_Node000005"><a xlink:title=" ">
<path fill="none" stroke="orange" stroke-dasharray="5,2" d="M109.38,-20.5C159.67,-20.5 233.26,-20.5 290.71,-20.5"/>
<polygon fill="orange" stroke="orange" points="109.33,-17 99.33,-20.5 109.33,-24 109.33,-17"/>
</a>
</g>
<text text-anchor="start" x="122" y="-41.5" font-family="Helvetica,sans-Serif" font-size="10.00" fill="grey">&lt; Acts::ScoreBasedAmbiguity</text>
<text text-anchor="start" x="122" y="-26.5" font-family="Helvetica,sans-Serif" font-size="10.00" fill="grey">  Resolution::DetectorConfig &gt;</text>
</g>
</g>
</svg>
