<?xml version="1.0" encoding="UTF-8" standalone="no"?>
<!DOCTYPE svg PUBLIC "-//W3C//DTD SVG 1.1//EN"
 "http://www.w3.org/Graphics/SVG/1.1/DTD/svg11.dtd">
<!-- Generated by graphviz version 2.43.0 (0)
 -->
<!-- Title: ActsFatras::Cluster&lt; signal_t, kSize &gt; Pages: 1 -->
<svg width="635pt" height="91pt"
 viewBox="0.00 0.00 635.00 91.00" xmlns="http://www.w3.org/2000/svg" xmlns:xlink="http://www.w3.org/1999/xlink">
<g id="graph0" class="graph" transform="scale(1 1) rotate(0) translate(4 87)">
<title>ActsFatras::Cluster&lt; signal_t, kSize &gt;</title>
<!-- Node1 -->
<g id="Node000001" class="node">
<title>Node1</title>
<g id="a_Node000001"><a xlink:title="A (simulated) cluster with its constituents.">
<polygon fill="#999999" stroke="#666666" points="627,-54 517,-54 517,-24 627,-24 627,-54"/>
<text text-anchor="start" x="525" y="-42" font-family="Helvetica,sans-Serif" font-size="10.00">ActsFatras::Cluster</text>
<text text-anchor="middle" x="572" y="-31" font-family="Helvetica,sans-Serif" font-size="10.00">&lt; signal_t, kSize &gt;</text>
</a>
</g>
</g>
<!-- Node2 -->
<g id="Node000002" class="node">
<title>Node2</title>
<g id="a_Node000002"><a xlink:title=" ">
<polygon fill="white" stroke="#666666" points="397,-80 278,-80 278,-50 397,-50 397,-80"/>
<text text-anchor="start" x="286" y="-68" font-family="Helvetica,sans-Serif" font-size="10.00">std::array&lt; unsigned</text>
<text text-anchor="middle" x="337.5" y="-57" font-family="Helvetica,sans-Serif" font-size="10.00"> int, kSize &gt;</text>
</a>
</g>
</g>
<!-- Node2&#45;&gt;Node1 -->
<g id="edge1_Node000001_Node000002" class="edge">
<title>Node2&#45;&gt;Node1</title>
<g id="a_edge1_Node000001_Node000002"><a xlink:title=" ">
<path fill="none" stroke="#9a32cd" stroke-dasharray="5,2" d="M407.3,-57.31C442.25,-53.4 484.1,-48.72 516.74,-45.07"/>
<polygon fill="#9a32cd" stroke="#9a32cd" points="406.72,-53.85 397.17,-58.44 407.5,-60.81 406.72,-53.85"/>
</a>
</g>
<text text-anchor="start" x="442" y="-58.5" font-family="Helvetica,sans-Serif" font-size="10.00" fill="grey">clusterSize</text>
</g>
<!-- Node3 -->
<g id="Node000003" class="node">
<title>Node3</title>
<g id="a_Node000003"><a xlink:title=" ">
<polygon fill="white" stroke="#666666" points="94.5,-76.5 2.5,-76.5 2.5,-57.5 94.5,-57.5 94.5,-76.5"/>
<text text-anchor="middle" x="48.5" y="-64.5" font-family="Helvetica,sans-Serif" font-size="10.00">std::array&lt; T &gt;</text>
</a>
</g>
</g>
<!-- Node3&#45;&gt;Node2 -->
<g id="edge2_Node000002_Node000003" class="edge">
<title>Node3&#45;&gt;Node2</title>
<g id="a_edge2_Node000002_Node000003"><a xlink:title=" ">
<path fill="none" stroke="orange" stroke-dasharray="5,2" d="M104.9,-66.61C154.6,-66.27 227.3,-65.76 277.95,-65.41"/>
<polygon fill="orange" stroke="orange" points="104.63,-63.12 94.66,-66.69 104.68,-70.12 104.63,-63.12"/>
</a>
</g>
<text text-anchor="start" x="118.5" y="-71.5" font-family="Helvetica,sans-Serif" font-size="10.00" fill="grey">&lt; unsigned int, kSize &gt;</text>
</g>
<!-- Node4 -->
<g id="Node000004" class="node">
<title>Node4</title>
<g id="a_Node000004"><a xlink:title=" ">
<polygon fill="white" stroke="#666666" points="421,-30 254,-30 254,0 421,0 421,-30"/>
<text text-anchor="start" x="262" y="-18" font-family="Helvetica,sans-Serif" font-size="10.00">std::vector&lt; ActsFatras</text>
<text text-anchor="middle" x="337.5" y="-7" font-family="Helvetica,sans-Serif" font-size="10.00">::Channel&lt; signal_t, kSize &gt; &gt;</text>
</a>
</g>
</g>
<!-- Node4&#45;&gt;Node1 -->
<g id="edge3_Node000001_Node000004" class="edge">
<title>Node4&#45;&gt;Node1</title>
<g id="a_edge3_Node000001_Node000004"><a xlink:title=" ">
<path fill="none" stroke="#9a32cd" stroke-dasharray="5,2" d="M431.35,-16.08C453.59,-17.15 477.2,-18.98 499,-22 504.85,-22.81 510.93,-23.88 516.95,-25.09"/>
<polygon fill="#9a32cd" stroke="#9a32cd" points="431.39,-12.58 421.25,-15.63 431.08,-19.57 431.39,-12.58"/>
</a>
</g>
<text text-anchor="start" x="447" y="-27.5" font-family="Helvetica,sans-Serif" font-size="10.00" fill="grey">channels</text>
</g>
<!-- Node5 -->
<g id="Node000005" class="node">
<title>Node5</title>
<g id="a_Node000005"><a xlink:title=" ">
<polygon fill="white" stroke="#666666" points="97,-21.5 0,-21.5 0,-2.5 97,-2.5 97,-21.5"/>
<text text-anchor="middle" x="48.5" y="-9.5" font-family="Helvetica,sans-Serif" font-size="10.00">std::vector&lt; T &gt;</text>
</a>
</g>
</g>
<!-- Node5&#45;&gt;Node4 -->
<g id="edge4_Node000004_Node000005" class="edge">
<title>Node5&#45;&gt;Node4</title>
<g id="a_edge4_Node000004_Node000005"><a xlink:title=" ">
<path fill="none" stroke="orange" stroke-dasharray="5,2" d="M107.29,-12.6C149.34,-13.04 206.88,-13.65 253.8,-14.14"/>
<polygon fill="orange" stroke="orange" points="107.25,-9.1 97.21,-12.5 107.18,-16.1 107.25,-9.1"/>
</a>
</g>
<text text-anchor="start" x="120.5" y="-34" font-family="Helvetica,sans-Serif" font-size="10.00" fill="grey">&lt; ActsFatras::Channel</text>
<text text-anchor="start" x="120.5" y="-19" font-family="Helvetica,sans-Serif" font-size="10.00" fill="grey">  &lt; signal_t, kSize &gt; &gt;</text>
</g>
</g>
</svg>
