<?xml version="1.0" encoding="UTF-8" standalone="no"?>
<!DOCTYPE svg PUBLIC "-//W3C//DTD SVG 1.1//EN"
 "http://www.w3.org/Graphics/SVG/1.1/DTD/svg11.dtd">
<!-- Generated by graphviz version 2.43.0 (0)
 -->
<!-- Title: ActsPlugins::Svg::TrackingGeometryProjections::Options Pages: 1 -->
<svg width="1179pt" height="217pt"
 viewBox="0.00 0.00 1179.00 216.50" xmlns="http://www.w3.org/2000/svg" xmlns:xlink="http://www.w3.org/1999/xlink">
<g id="graph0" class="graph" transform="scale(1 1) rotate(0) translate(4 212.5)">
<title>ActsPlugins::Svg::TrackingGeometryProjections::Options</title>
<!-- Node1 -->
<g id="Node000001" class="node">
<title>Node1</title>
<g id="a_Node000001"><a xlink:title=" ">
<polygon fill="#999999" stroke="#666666" points="1171,-101.5 1008,-101.5 1008,-71.5 1171,-71.5 1171,-101.5"/>
<text text-anchor="start" x="1016" y="-89.5" font-family="Helvetica,sans-Serif" font-size="10.00">ActsPlugins::Svg::Tracking</text>
<text text-anchor="middle" x="1089.5" y="-78.5" font-family="Helvetica,sans-Serif" font-size="10.00">GeometryProjections::Options</text>
</a>
</g>
</g>
<!-- Node2 -->
<g id="Node000002" class="node">
<title>Node2</title>
<g id="a_Node000002"><a xlink:title=" ">
<polygon fill="white" stroke="#666666" points="472,-125 407,-125 407,-106 472,-106 472,-125"/>
<text text-anchor="middle" x="439.5" y="-113" font-family="Helvetica,sans-Serif" font-size="10.00">std::string</text>
</a>
</g>
</g>
<!-- Node2&#45;&gt;Node1 -->
<g id="edge1_Node000001_Node000002" class="edge">
<title>Node2&#45;&gt;Node1</title>
<g id="a_edge1_Node000001_Node000002"><a xlink:title=" ">
<path fill="none" stroke="#9a32cd" stroke-dasharray="5,2" d="M482.5,-113.62C588.62,-108.87 868.94,-96.33 1007.97,-90.1"/>
<polygon fill="#9a32cd" stroke="#9a32cd" points="482.03,-110.14 472.19,-114.08 482.34,-117.13 482.03,-110.14"/>
</a>
</g>
<text text-anchor="start" x="746.5" y="-109" font-family="Helvetica,sans-Serif" font-size="10.00" fill="grey">prefix</text>
</g>
<!-- Node4 -->
<g id="Node000004" class="node">
<title>Node4</title>
<g id="a_Node000004"><a xlink:href="struct_acts_plugins_1_1_svg_1_1_tracking_geometry_converter_1_1_options.html" target="_top" xlink:title="Nested Options struct for the writing configuration.">
<polygon fill="white" stroke="#666666" points="839,-168.5 682,-168.5 682,-138.5 839,-138.5 839,-168.5"/>
<text text-anchor="start" x="690" y="-156.5" font-family="Helvetica,sans-Serif" font-size="10.00">ActsPlugins::Svg::Tracking</text>
<text text-anchor="middle" x="760.5" y="-145.5" font-family="Helvetica,sans-Serif" font-size="10.00">GeometryConverter::Options</text>
</a>
</g>
</g>
<!-- Node2&#45;&gt;Node4 -->
<g id="edge4_Node000004_Node000002" class="edge">
<title>Node2&#45;&gt;Node4</title>
<g id="a_edge4_Node000004_Node000002"><a xlink:title=" ">
<path fill="none" stroke="#9a32cd" stroke-dasharray="5,2" d="M482.24,-119.5C527.18,-123.91 600.74,-131.47 664,-139.5 669.82,-140.24 675.83,-141.04 681.88,-141.86"/>
<polygon fill="#9a32cd" stroke="#9a32cd" points="482.3,-115.99 472.01,-118.5 481.62,-122.95 482.3,-115.99"/>
</a>
</g>
<text text-anchor="start" x="594" y="-145" font-family="Helvetica,sans-Serif" font-size="10.00" fill="grey">prefix</text>
</g>
<!-- Node3 -->
<g id="Node000003" class="node">
<title>Node3</title>
<g id="a_Node000003"><a xlink:title=" ">
<polygon fill="white" stroke="#666666" points="132.5,-130.5 28.5,-130.5 28.5,-100.5 132.5,-100.5 132.5,-130.5"/>
<text text-anchor="start" x="36.5" y="-118.5" font-family="Helvetica,sans-Serif" font-size="10.00">std::basic_string&lt;</text>
<text text-anchor="middle" x="80.5" y="-107.5" font-family="Helvetica,sans-Serif" font-size="10.00"> Char &gt;</text>
</a>
</g>
</g>
<!-- Node3&#45;&gt;Node2 -->
<g id="edge2_Node000002_Node000003" class="edge">
<title>Node3&#45;&gt;Node2</title>
<g id="a_edge2_Node000002_Node000003"><a xlink:title=" ">
<path fill="none" stroke="#63b8ff" d="M143.1,-115.5C219.62,-115.5 347.31,-115.5 406.53,-115.5"/>
<polygon fill="#63b8ff" stroke="#63b8ff" points="142.65,-112 132.65,-115.5 142.65,-119 142.65,-112"/>
</a>
</g>
</g>
<!-- Node4&#45;&gt;Node1 -->
<g id="edge3_Node000001_Node000004" class="edge">
<title>Node4&#45;&gt;Node1</title>
<g id="a_edge3_Node000001_Node000004"><a xlink:title=" ">
<path fill="none" stroke="#9a32cd" stroke-dasharray="5,2" d="M849.11,-142.81C891.89,-136.8 943.94,-128.31 990,-117.5 1008.33,-113.2 1028.19,-107.21 1045.25,-101.64"/>
<polygon fill="#9a32cd" stroke="#9a32cd" points="848.43,-139.37 839,-144.2 849.39,-146.3 848.43,-139.37"/>
</a>
</g>
<text text-anchor="start" x="860.5" y="-146" font-family="Helvetica,sans-Serif" font-size="10.00" fill="grey">trackingGeometryOptions</text>
</g>
<!-- Node5 -->
<g id="Node000005" class="node">
<title>Node5</title>
<g id="a_Node000005"><a xlink:href="class_acts_1_1_geometry_hierarchy_map.html" target="_top" xlink:title=" ">
<polygon fill="white" stroke="#666666" points="534,-197 345,-197 345,-156 534,-156 534,-197"/>
<text text-anchor="start" x="353" y="-185" font-family="Helvetica,sans-Serif" font-size="10.00">Acts::GeometryHierarchyMap</text>
<text text-anchor="start" x="353" y="-174" font-family="Helvetica,sans-Serif" font-size="10.00">&lt; ActsPlugins::Svg::LayerConverter</text>
<text text-anchor="middle" x="439.5" y="-163" font-family="Helvetica,sans-Serif" font-size="10.00">::Options &gt;</text>
</a>
</g>
</g>
<!-- Node5&#45;&gt;Node4 -->
<g id="edge5_Node000004_Node000005" class="edge">
<title>Node5&#45;&gt;Node4</title>
<g id="a_edge5_Node000004_Node000005"><a xlink:title=" ">
<path fill="none" stroke="#9a32cd" stroke-dasharray="5,2" d="M544.09,-169.03C588.88,-165.8 640.39,-162.09 681.81,-159.1"/>
<polygon fill="#9a32cd" stroke="#9a32cd" points="543.78,-165.54 534.06,-169.75 544.28,-172.53 543.78,-165.54"/>
</a>
</g>
<text text-anchor="start" x="577" y="-173" font-family="Helvetica,sans-Serif" font-size="10.00" fill="grey">layerOptions</text>
</g>
<!-- Node6 -->
<g id="Node000006" class="node">
<title>Node6</title>
<g id="a_Node000006"><a xlink:href="class_acts_1_1_geometry_hierarchy_map.html" target="_top" xlink:title="Store values mapped into the geometry hierarchy.">
<polygon fill="white" stroke="#666666" points="161,-191.5 0,-191.5 0,-161.5 161,-161.5 161,-191.5"/>
<text text-anchor="start" x="8" y="-179.5" font-family="Helvetica,sans-Serif" font-size="10.00">Acts::GeometryHierarchyMap</text>
<text text-anchor="middle" x="80.5" y="-168.5" font-family="Helvetica,sans-Serif" font-size="10.00">&lt; value_t &gt;</text>
</a>
</g>
</g>
<!-- Node6&#45;&gt;Node5 -->
<g id="edge6_Node000005_Node000006" class="edge">
<title>Node6&#45;&gt;Node5</title>
<g id="a_edge6_Node000005_Node000006"><a xlink:title=" ">
<path fill="none" stroke="orange" stroke-dasharray="5,2" d="M171.24,-176.5C224.22,-176.5 291.19,-176.5 344.84,-176.5"/>
<polygon fill="orange" stroke="orange" points="171.17,-173 161.17,-176.5 171.17,-180 171.17,-173"/>
</a>
</g>
<text text-anchor="start" x="182" y="-197.5" font-family="Helvetica,sans-Serif" font-size="10.00" fill="grey">&lt; ActsPlugins::Svg</text>
<text text-anchor="start" x="182" y="-182.5" font-family="Helvetica,sans-Serif" font-size="10.00" fill="grey">  ::LayerConverter::Options &gt;</text>
</g>
<!-- Node7 -->
<g id="Node000007" class="node">
<title>Node7</title>
<g id="a_Node000007"><a xlink:title=" ">
<polygon fill="white" stroke="#666666" points="821,-67.5 700,-67.5 700,-37.5 821,-37.5 821,-67.5"/>
<text text-anchor="start" x="708" y="-55.5" font-family="Helvetica,sans-Serif" font-size="10.00">std::array&lt; std::array</text>
<text text-anchor="middle" x="760.5" y="-44.5" font-family="Helvetica,sans-Serif" font-size="10.00">&lt; double, 2 &gt;, 2 &gt;</text>
</a>
</g>
</g>
<!-- Node7&#45;&gt;Node1 -->
<g id="edge7_Node000001_Node000007" class="edge">
<title>Node7&#45;&gt;Node1</title>
<g id="a_edge7_Node000001_Node000007"><a xlink:title=" ">
<path fill="none" stroke="#9a32cd" stroke-dasharray="5,2" d="M831.26,-57.63C876.56,-61.2 936.85,-66.4 990,-72.5 995.83,-73.17 1001.86,-73.91 1007.91,-74.69"/>
<polygon fill="#9a32cd" stroke="#9a32cd" points="831.49,-54.13 821.25,-56.84 830.94,-61.11 831.49,-54.13"/>
</a>
</g>
<text text-anchor="start" x="907.5" y="-78" font-family="Helvetica,sans-Serif" font-size="10.00" fill="grey">rzAxes</text>
</g>
<!-- Node8 -->
<g id="Node000008" class="node">
<title>Node8</title>
<g id="a_Node000008"><a xlink:title=" ">
<polygon fill="white" stroke="#666666" points="485.5,-62 393.5,-62 393.5,-43 485.5,-43 485.5,-62"/>
<text text-anchor="middle" x="439.5" y="-50" font-family="Helvetica,sans-Serif" font-size="10.00">std::array&lt; T &gt;</text>
</a>
</g>
</g>
<!-- Node8&#45;&gt;Node7 -->
<g id="edge8_Node000007_Node000008" class="edge">
<title>Node8&#45;&gt;Node7</title>
<g id="a_edge8_Node000007_Node000008"><a xlink:title=" ">
<path fill="none" stroke="orange" stroke-dasharray="5,2" d="M495.78,-52.5C552.73,-52.5 641.22,-52.5 699.75,-52.5"/>
<polygon fill="orange" stroke="orange" points="495.53,-49 485.53,-52.5 495.53,-56 495.53,-49"/>
</a>
</g>
<text text-anchor="start" x="555" y="-73.5" font-family="Helvetica,sans-Serif" font-size="10.00" fill="grey">&lt; std::array&lt; double,</text>
<text text-anchor="start" x="555" y="-58.5" font-family="Helvetica,sans-Serif" font-size="10.00" fill="grey">   2 &gt;, 2 &gt;</text>
</g>
<!-- Node9 -->
<g id="Node000009" class="node">
<title>Node9</title>
<g id="a_Node000009"><a xlink:title=" ">
<polygon fill="white" stroke="#666666" points="822.5,-19 698.5,-19 698.5,0 822.5,0 822.5,-19"/>
<text text-anchor="middle" x="760.5" y="-7" font-family="Helvetica,sans-Serif" font-size="10.00">std::vector&lt; double &gt;</text>
</a>
</g>
</g>
<!-- Node9&#45;&gt;Node1 -->
<g id="edge9_Node000001_Node000009" class="edge">
<title>Node9&#45;&gt;Node1</title>
<g id="a_edge9_Node000001_Node000009"><a xlink:title=" ">
<path fill="none" stroke="#9a32cd" stroke-dasharray="5,2" d="M832.86,-12.56C878.56,-15.97 938.7,-23.2 990,-38.5 1016.25,-46.33 1044.14,-60.54 1063.51,-71.47"/>
<polygon fill="#9a32cd" stroke="#9a32cd" points="832.97,-9.06 822.75,-11.85 832.48,-16.04 832.97,-9.06"/>
</a>
</g>
<text text-anchor="start" x="898.5" y="-44" font-family="Helvetica,sans-Serif" font-size="10.00" fill="grey">rzEtaLines</text>
</g>
<!-- Node10 -->
<g id="Node000010" class="node">
<title>Node10</title>
<g id="a_Node000010"><a xlink:title=" ">
<polygon fill="white" stroke="#666666" points="488,-19 391,-19 391,0 488,0 488,-19"/>
<text text-anchor="middle" x="439.5" y="-7" font-family="Helvetica,sans-Serif" font-size="10.00">std::vector&lt; T &gt;</text>
</a>
</g>
</g>
<!-- Node10&#45;&gt;Node9 -->
<g id="edge10_Node000009_Node000010" class="edge">
<title>Node10&#45;&gt;Node9</title>
<g id="a_edge10_Node000009_Node000010"><a xlink:title=" ">
<path fill="none" stroke="orange" stroke-dasharray="5,2" d="M498.46,-9.5C555,-9.5 640.66,-9.5 698.29,-9.5"/>
<polygon fill="orange" stroke="orange" points="498.26,-6 488.26,-9.5 498.26,-13 498.26,-6"/>
</a>
</g>
<text text-anchor="start" x="580" y="-15" font-family="Helvetica,sans-Serif" font-size="10.00" fill="grey">&lt; double &gt;</text>
</g>
</g>
</svg>
