<?xml version="1.0" encoding="UTF-8" standalone="no"?>
<!DOCTYPE svg PUBLIC "-//W3C//DTD SVG 1.1//EN"
 "http://www.w3.org/Graphics/SVG/1.1/DTD/svg11.dtd">
<!-- Generated by graphviz version 2.43.0 (0)
 -->
<!-- Title: Acts::RiddersPropagatorOptions&lt; propagator_t, actor_list_t &gt; Pages: 1 -->
<svg width="437pt" height="107pt"
 viewBox="0.00 0.00 437.00 107.00" xmlns="http://www.w3.org/2000/svg" xmlns:xlink="http://www.w3.org/1999/xlink">
<g id="graph0" class="graph" transform="scale(1 1) rotate(0) translate(4 103)">
<title>Acts::RiddersPropagatorOptions&lt; propagator_t, actor_list_t &gt;</title>
<!-- Node1 -->
<g id="Node000001" class="node">
<title>Node1</title>
<g id="a_Node000001"><a xlink:title=" ">
<polygon fill="#999999" stroke="#666666" points="171,-31 0,-31 0,-1 171,-1 171,-31"/>
<text text-anchor="start" x="8" y="-19" font-family="Helvetica,sans-Serif" font-size="10.00">Acts::RiddersPropagatorOptions</text>
<text text-anchor="middle" x="85.5" y="-8" font-family="Helvetica,sans-Serif" font-size="10.00">&lt; propagator_t, actor_list_t &gt;</text>
</a>
</g>
</g>
<!-- Node1&#45;&gt;Node1 -->
<g id="edge2_Node000001_Node000001" class="edge">
<title>Node1&#45;&gt;Node1</title>
<g id="a_edge2_Node000001_Node000001"><a xlink:title=" ">
<path fill="none" stroke="orange" stroke-dasharray="5,2" d="M181.18,-18.08C186.09,-17.57 189,-16.87 189,-16 189,-14.64 181.92,-13.71 171.16,-13.22"/>
<polygon fill="orange" stroke="orange" points="180.9,-14.59 171.16,-18.78 181.38,-21.57 180.9,-14.59"/>
</a>
</g>
<text text-anchor="start" x="192.5" y="-21" font-family="Helvetica,sans-Serif" font-size="10.00" fill="grey">&lt; propagator_t, actor</text>
<text text-anchor="start" x="192.5" y="-6" font-family="Helvetica,sans-Serif" font-size="10.00" fill="grey">  _list_t &gt;</text>
</g>
<!-- Node1&#45;&gt;Node1 -->
<g id="edge3_Node000001_Node000001" class="edge">
<title>Node1&#45;&gt;Node1</title>
<g id="a_edge3_Node000001_Node000001"><a xlink:title=" ">
<path fill="none" stroke="orange" stroke-dasharray="5,2" d="M181.2,-22.16C239.26,-23.08 300,-21.02 300,-16 300,-10.69 232.03,-8.7 171.17,-10.02"/>
<polygon fill="orange" stroke="orange" points="181.23,-18.66 171.17,-21.98 181.1,-25.66 181.23,-18.66"/>
</a>
</g>
<text text-anchor="start" x="303.5" y="-21" font-family="Helvetica,sans-Serif" font-size="10.00" fill="grey">&lt; propagator_t, actor</text>
<text text-anchor="start" x="303.5" y="-6" font-family="Helvetica,sans-Serif" font-size="10.00" fill="grey">  _list_t &gt;</text>
</g>
<!-- Node2 -->
<g id="Node000002" class="node">
<title>Node2</title>
<g id="a_Node000002"><a xlink:title=" ">
<polygon fill="white" stroke="#666666" points="155,-99 16,-99 16,-69 155,-69 155,-99"/>
<text text-anchor="start" x="24" y="-87" font-family="Helvetica,sans-Serif" font-size="10.00">propagator_t::template</text>
<text text-anchor="middle" x="85.5" y="-76" font-family="Helvetica,sans-Serif" font-size="10.00"> Options&lt; ActorList&lt;&gt; &gt;</text>
</a>
</g>
</g>
<!-- Node2&#45;&gt;Node1 -->
<g id="edge1_Node000001_Node000002" class="edge">
<title>Node2&#45;&gt;Node1</title>
<g id="a_edge1_Node000001_Node000002"><a xlink:title=" ">
<path fill="none" stroke="#63b8ff" d="M85.5,-58.53C85.5,-49.36 85.5,-39.24 85.5,-31.29"/>
<polygon fill="#63b8ff" stroke="#63b8ff" points="82,-58.68 85.5,-68.68 89,-58.68 82,-58.68"/>
</a>
</g>
</g>
</g>
</svg>
