<?xml version="1.0" encoding="UTF-8" standalone="no"?>
<!DOCTYPE svg PUBLIC "-//W3C//DTD SVG 1.1//EN"
 "http://www.w3.org/Graphics/SVG/1.1/DTD/svg11.dtd">
<!-- Generated by graphviz version 2.43.0 (0)
 -->
<!-- Title: Acts::GridAxisGenerators::VarVar&lt; aType, bType &gt; Pages: 1 -->
<svg width="526pt" height="656pt"
 viewBox="0.00 0.00 526.00 656.00" xmlns="http://www.w3.org/2000/svg" xmlns:xlink="http://www.w3.org/1999/xlink">
<g id="graph0" class="graph" transform="scale(1 1) rotate(0) translate(4 652)">
<title>Acts::GridAxisGenerators::VarVar&lt; aType, bType &gt;</title>
<!-- Node1 -->
<g id="Node000001" class="node">
<title>Node1</title>
<g id="a_Node000001"><a xlink:title="Templated base generator for a two variable axes tuple &#45; 2D.">
<polygon fill="#999999" stroke="#666666" points="140,-321 0,-321 0,-291 140,-291 140,-321"/>
<text text-anchor="start" x="8" y="-309" font-family="Helvetica,sans-Serif" font-size="10.00">Acts::GridAxisGenerators</text>
<text text-anchor="middle" x="70" y="-298" font-family="Helvetica,sans-Serif" font-size="10.00">::VarVar&lt; aType, bType &gt;</text>
</a>
</g>
</g>
<!-- Node2 -->
<g id="Node000002" class="node">
<title>Node2</title>
<g id="a_Node000002"><a xlink:href="struct_acts_1_1_grid_axis_generators_1_1_var_var.html" target="_top" xlink:title=" ">
<polygon fill="white" stroke="#666666" points="498.5,-612 343.5,-612 343.5,-560 498.5,-560 498.5,-612"/>
<text text-anchor="start" x="351.5" y="-600" font-family="Helvetica,sans-Serif" font-size="10.00">Acts::GridAxisGenerators</text>
<text text-anchor="start" x="351.5" y="-589" font-family="Helvetica,sans-Serif" font-size="10.00">::VarVar&lt; AxisBoundaryType</text>
<text text-anchor="start" x="351.5" y="-578" font-family="Helvetica,sans-Serif" font-size="10.00">::Bound, AxisBoundaryType</text>
<text text-anchor="middle" x="421" y="-567" font-family="Helvetica,sans-Serif" font-size="10.00">::Bound &gt;</text>
</a>
</g>
</g>
<!-- Node1&#45;&gt;Node2 -->
<g id="edge1_Node000001_Node000002" class="edge">
<title>Node1&#45;&gt;Node2</title>
<g id="a_edge1_Node000001_Node000002"><a xlink:title=" ">
<path fill="none" stroke="orange" stroke-dasharray="5,2" d="M71.16,-331.42C73,-384.04 85.37,-504.78 158,-562 209.76,-602.77 286.37,-605.22 343.4,-599.58"/>
<polygon fill="orange" stroke="orange" points="74.65,-331.18 70.91,-321.27 67.66,-331.35 74.65,-331.18"/>
</a>
</g>
<text text-anchor="start" x="163" y="-636.5" font-family="Helvetica,sans-Serif" font-size="10.00" fill="grey">&lt; AxisBoundaryType</text>
<text text-anchor="start" x="163" y="-621.5" font-family="Helvetica,sans-Serif" font-size="10.00" fill="grey">  ::Bound, AxisBoundaryType</text>
<text text-anchor="start" x="163" y="-606.5" font-family="Helvetica,sans-Serif" font-size="10.00" fill="grey">  ::Bound &gt;</text>
</g>
<!-- Node3 -->
<g id="Node000003" class="node">
<title>Node3</title>
<g id="a_Node000003"><a xlink:href="struct_acts_1_1_grid_axis_generators_1_1_var_var.html" target="_top" xlink:title=" ">
<polygon fill="white" stroke="#666666" points="517,-536.5 325,-536.5 325,-495.5 517,-495.5 517,-536.5"/>
<text text-anchor="start" x="333" y="-524.5" font-family="Helvetica,sans-Serif" font-size="10.00">Acts::GridAxisGenerators</text>
<text text-anchor="start" x="333" y="-513.5" font-family="Helvetica,sans-Serif" font-size="10.00">::VarVar&lt; AxisBoundaryType</text>
<text text-anchor="middle" x="421" y="-502.5" font-family="Helvetica,sans-Serif" font-size="10.00">::Bound, AxisBoundaryType::Open &gt;</text>
</a>
</g>
</g>
<!-- Node1&#45;&gt;Node3 -->
<g id="edge2_Node000001_Node000003" class="edge">
<title>Node1&#45;&gt;Node3</title>
<g id="a_edge2_Node000001_Node000003"><a xlink:title=" ">
<path fill="none" stroke="orange" stroke-dasharray="5,2" d="M74.52,-331.07C81.83,-372.72 102.84,-455.4 158,-494 171.7,-503.59 255.52,-509.4 324.72,-512.63"/>
<polygon fill="orange" stroke="orange" points="77.97,-330.49 72.91,-321.18 71.06,-331.62 77.97,-330.49"/>
</a>
</g>
<text text-anchor="start" x="163" y="-546.5" font-family="Helvetica,sans-Serif" font-size="10.00" fill="grey">&lt; AxisBoundaryType</text>
<text text-anchor="start" x="163" y="-531.5" font-family="Helvetica,sans-Serif" font-size="10.00" fill="grey">  ::Bound, AxisBoundaryType</text>
<text text-anchor="start" x="163" y="-516.5" font-family="Helvetica,sans-Serif" font-size="10.00" fill="grey">  ::Open &gt;</text>
</g>
<!-- Node4 -->
<g id="Node000004" class="node">
<title>Node4</title>
<g id="a_Node000004"><a xlink:href="struct_acts_1_1_grid_axis_generators_1_1_var_var.html" target="_top" xlink:title=" ">
<polygon fill="white" stroke="#666666" points="498.5,-472 343.5,-472 343.5,-420 498.5,-420 498.5,-472"/>
<text text-anchor="start" x="351.5" y="-460" font-family="Helvetica,sans-Serif" font-size="10.00">Acts::GridAxisGenerators</text>
<text text-anchor="start" x="351.5" y="-449" font-family="Helvetica,sans-Serif" font-size="10.00">::VarVar&lt; AxisBoundaryType</text>
<text text-anchor="start" x="351.5" y="-438" font-family="Helvetica,sans-Serif" font-size="10.00">::Bound, AxisBoundaryType</text>
<text text-anchor="middle" x="421" y="-427" font-family="Helvetica,sans-Serif" font-size="10.00">::Closed &gt;</text>
</a>
</g>
</g>
<!-- Node1&#45;&gt;Node4 -->
<g id="edge3_Node000001_Node000004" class="edge">
<title>Node1&#45;&gt;Node4</title>
<g id="a_edge3_Node000001_Node000004"><a xlink:title=" ">
<path fill="none" stroke="orange" stroke-dasharray="5,2" d="M81.29,-330.32C94.54,-358.28 120.44,-403.01 158,-424 188.73,-441.17 277.55,-445.64 343.3,-446.48"/>
<polygon fill="orange" stroke="orange" points="84.46,-328.84 77.13,-321.19 78.09,-331.75 84.46,-328.84"/>
</a>
</g>
<text text-anchor="start" x="163" y="-480.5" font-family="Helvetica,sans-Serif" font-size="10.00" fill="grey">&lt; AxisBoundaryType</text>
<text text-anchor="start" x="163" y="-465.5" font-family="Helvetica,sans-Serif" font-size="10.00" fill="grey">  ::Bound, AxisBoundaryType</text>
<text text-anchor="start" x="163" y="-450.5" font-family="Helvetica,sans-Serif" font-size="10.00" fill="grey">  ::Closed &gt;</text>
</g>
<!-- Node5 -->
<g id="Node000005" class="node">
<title>Node5</title>
<g id="a_Node000005"><a xlink:href="struct_acts_1_1_grid_axis_generators_1_1_var_var.html" target="_top" xlink:title=" ">
<polygon fill="white" stroke="#666666" points="517,-396.5 325,-396.5 325,-355.5 517,-355.5 517,-396.5"/>
<text text-anchor="start" x="333" y="-384.5" font-family="Helvetica,sans-Serif" font-size="10.00">Acts::GridAxisGenerators</text>
<text text-anchor="start" x="333" y="-373.5" font-family="Helvetica,sans-Serif" font-size="10.00">::VarVar&lt; AxisBoundaryType</text>
<text text-anchor="middle" x="421" y="-362.5" font-family="Helvetica,sans-Serif" font-size="10.00">::Open, AxisBoundaryType::Bound &gt;</text>
</a>
</g>
</g>
<!-- Node1&#45;&gt;Node5 -->
<g id="edge4_Node000001_Node000005" class="edge">
<title>Node1&#45;&gt;Node5</title>
<g id="a_edge4_Node000001_Node000005"><a xlink:title=" ">
<path fill="none" stroke="orange" stroke-dasharray="5,2" d="M100.86,-326.59C117.04,-336.65 137.8,-347.88 158,-354 211.74,-370.27 274.32,-375.98 324.84,-377.53"/>
<polygon fill="orange" stroke="orange" points="102.69,-323.6 92.38,-321.16 98.92,-329.5 102.69,-323.6"/>
</a>
</g>
<text text-anchor="start" x="165" y="-411.5" font-family="Helvetica,sans-Serif" font-size="10.00" fill="grey">&lt; AxisBoundaryType</text>
<text text-anchor="start" x="165" y="-396.5" font-family="Helvetica,sans-Serif" font-size="10.00" fill="grey">  ::Open, AxisBoundaryType</text>
<text text-anchor="start" x="165" y="-381.5" font-family="Helvetica,sans-Serif" font-size="10.00" fill="grey">  ::Bound &gt;</text>
</g>
<!-- Node6 -->
<g id="Node000006" class="node">
<title>Node6</title>
<g id="a_Node000006"><a xlink:href="struct_acts_1_1_grid_axis_generators_1_1_var_var.html" target="_top" xlink:title=" ">
<polygon fill="white" stroke="#666666" points="514.5,-326.5 327.5,-326.5 327.5,-285.5 514.5,-285.5 514.5,-326.5"/>
<text text-anchor="start" x="335.5" y="-314.5" font-family="Helvetica,sans-Serif" font-size="10.00">Acts::GridAxisGenerators</text>
<text text-anchor="start" x="335.5" y="-303.5" font-family="Helvetica,sans-Serif" font-size="10.00">::VarVar&lt; AxisBoundaryType</text>
<text text-anchor="middle" x="421" y="-292.5" font-family="Helvetica,sans-Serif" font-size="10.00">::Open, AxisBoundaryType::Open &gt;</text>
</a>
</g>
</g>
<!-- Node1&#45;&gt;Node6 -->
<g id="edge5_Node000001_Node000006" class="edge">
<title>Node1&#45;&gt;Node6</title>
<g id="a_edge5_Node000001_Node000006"><a xlink:title=" ">
<path fill="none" stroke="orange" stroke-dasharray="5,2" d="M150.65,-306C203.21,-306 272.26,-306 327.29,-306"/>
<polygon fill="orange" stroke="orange" points="150.37,-302.5 140.37,-306 150.37,-309.5 150.37,-302.5"/>
</a>
</g>
<text text-anchor="start" x="165" y="-341.5" font-family="Helvetica,sans-Serif" font-size="10.00" fill="grey">&lt; AxisBoundaryType</text>
<text text-anchor="start" x="165" y="-326.5" font-family="Helvetica,sans-Serif" font-size="10.00" fill="grey">  ::Open, AxisBoundaryType</text>
<text text-anchor="start" x="165" y="-311.5" font-family="Helvetica,sans-Serif" font-size="10.00" fill="grey">  ::Open &gt;</text>
</g>
<!-- Node7 -->
<g id="Node000007" class="node">
<title>Node7</title>
<g id="a_Node000007"><a xlink:href="struct_acts_1_1_grid_axis_generators_1_1_var_var.html" target="_top" xlink:title=" ">
<polygon fill="white" stroke="#666666" points="498.5,-262 343.5,-262 343.5,-210 498.5,-210 498.5,-262"/>
<text text-anchor="start" x="351.5" y="-250" font-family="Helvetica,sans-Serif" font-size="10.00">Acts::GridAxisGenerators</text>
<text text-anchor="start" x="351.5" y="-239" font-family="Helvetica,sans-Serif" font-size="10.00">::VarVar&lt; AxisBoundaryType</text>
<text text-anchor="start" x="351.5" y="-228" font-family="Helvetica,sans-Serif" font-size="10.00">::Open, AxisBoundaryType::</text>
<text text-anchor="middle" x="421" y="-217" font-family="Helvetica,sans-Serif" font-size="10.00">Closed &gt;</text>
</a>
</g>
</g>
<!-- Node1&#45;&gt;Node7 -->
<g id="edge6_Node000001_Node000007" class="edge">
<title>Node1&#45;&gt;Node7</title>
<g id="a_edge6_Node000001_Node000007"><a xlink:title=" ">
<path fill="none" stroke="orange" stroke-dasharray="5,2" d="M99.33,-284.89C115.62,-273.95 136.98,-261.53 158,-255 218.43,-236.22 290.32,-232.22 343.49,-232.49"/>
<polygon fill="orange" stroke="orange" points="97.06,-282.21 90.83,-290.78 101.05,-287.96 97.06,-282.21"/>
</a>
</g>
<text text-anchor="start" x="165" y="-290.5" font-family="Helvetica,sans-Serif" font-size="10.00" fill="grey">&lt; AxisBoundaryType</text>
<text text-anchor="start" x="165" y="-275.5" font-family="Helvetica,sans-Serif" font-size="10.00" fill="grey">  ::Open, AxisBoundaryType</text>
<text text-anchor="start" x="165" y="-260.5" font-family="Helvetica,sans-Serif" font-size="10.00" fill="grey">  ::Closed &gt;</text>
</g>
<!-- Node8 -->
<g id="Node000008" class="node">
<title>Node8</title>
<g id="a_Node000008"><a xlink:href="struct_acts_1_1_grid_axis_generators_1_1_var_var.html" target="_top" xlink:title=" ">
<polygon fill="white" stroke="#666666" points="498.5,-192 343.5,-192 343.5,-140 498.5,-140 498.5,-192"/>
<text text-anchor="start" x="351.5" y="-180" font-family="Helvetica,sans-Serif" font-size="10.00">Acts::GridAxisGenerators</text>
<text text-anchor="start" x="351.5" y="-169" font-family="Helvetica,sans-Serif" font-size="10.00">::VarVar&lt; AxisBoundaryType</text>
<text text-anchor="start" x="351.5" y="-158" font-family="Helvetica,sans-Serif" font-size="10.00">::Closed, AxisBoundaryType</text>
<text text-anchor="middle" x="421" y="-147" font-family="Helvetica,sans-Serif" font-size="10.00">::Bound &gt;</text>
</a>
</g>
</g>
<!-- Node1&#45;&gt;Node8 -->
<g id="edge7_Node000001_Node000008" class="edge">
<title>Node1&#45;&gt;Node8</title>
<g id="a_edge7_Node000001_Node000008"><a xlink:title=" ">
<path fill="none" stroke="orange" stroke-dasharray="5,2" d="M80.46,-281.25C93.16,-251.82 118.79,-203.93 158,-182 214.28,-150.52 288.39,-148.95 343.42,-153.85"/>
<polygon fill="orange" stroke="orange" points="77.09,-280.24 76.5,-290.82 83.56,-282.92 77.09,-280.24"/>
</a>
</g>
<text text-anchor="start" x="161" y="-217.5" font-family="Helvetica,sans-Serif" font-size="10.00" fill="grey">&lt; AxisBoundaryType</text>
<text text-anchor="start" x="161" y="-202.5" font-family="Helvetica,sans-Serif" font-size="10.00" fill="grey">  ::Closed, AxisBoundaryType</text>
<text text-anchor="start" x="161" y="-187.5" font-family="Helvetica,sans-Serif" font-size="10.00" fill="grey">  ::Bound &gt;</text>
</g>
<!-- Node9 -->
<g id="Node000009" class="node">
<title>Node9</title>
<g id="a_Node000009"><a xlink:href="struct_acts_1_1_grid_axis_generators_1_1_var_var.html" target="_top" xlink:title=" ">
<polygon fill="white" stroke="#666666" points="518,-116.5 324,-116.5 324,-75.5 518,-75.5 518,-116.5"/>
<text text-anchor="start" x="332" y="-104.5" font-family="Helvetica,sans-Serif" font-size="10.00">Acts::GridAxisGenerators</text>
<text text-anchor="start" x="332" y="-93.5" font-family="Helvetica,sans-Serif" font-size="10.00">::VarVar&lt; AxisBoundaryType</text>
<text text-anchor="middle" x="421" y="-82.5" font-family="Helvetica,sans-Serif" font-size="10.00">::Closed, AxisBoundaryType::Open &gt;</text>
</a>
</g>
</g>
<!-- Node1&#45;&gt;Node9 -->
<g id="edge8_Node000001_Node000009" class="edge">
<title>Node1&#45;&gt;Node9</title>
<g id="a_edge8_Node000001_Node000009"><a xlink:title=" ">
<path fill="none" stroke="orange" stroke-dasharray="5,2" d="M73.11,-280.76C78.39,-235.5 96.59,-141.4 158,-100 184.45,-82.17 260.56,-82.67 323.97,-86.78"/>
<polygon fill="orange" stroke="orange" points="69.6,-280.59 72.04,-290.9 76.57,-281.32 69.6,-280.59"/>
</a>
</g>
<text text-anchor="start" x="161" y="-135.5" font-family="Helvetica,sans-Serif" font-size="10.00" fill="grey">&lt; AxisBoundaryType</text>
<text text-anchor="start" x="161" y="-120.5" font-family="Helvetica,sans-Serif" font-size="10.00" fill="grey">  ::Closed, AxisBoundaryType</text>
<text text-anchor="start" x="161" y="-105.5" font-family="Helvetica,sans-Serif" font-size="10.00" fill="grey">  ::Open &gt;</text>
</g>
<!-- Node10 -->
<g id="Node000010" class="node">
<title>Node10</title>
<g id="a_Node000010"><a xlink:href="struct_acts_1_1_grid_axis_generators_1_1_var_var.html" target="_top" xlink:title=" ">
<polygon fill="white" stroke="#666666" points="498.5,-52 343.5,-52 343.5,0 498.5,0 498.5,-52"/>
<text text-anchor="start" x="351.5" y="-40" font-family="Helvetica,sans-Serif" font-size="10.00">Acts::GridAxisGenerators</text>
<text text-anchor="start" x="351.5" y="-29" font-family="Helvetica,sans-Serif" font-size="10.00">::VarVar&lt; AxisBoundaryType</text>
<text text-anchor="start" x="351.5" y="-18" font-family="Helvetica,sans-Serif" font-size="10.00">::Closed, AxisBoundaryType</text>
<text text-anchor="middle" x="421" y="-7" font-family="Helvetica,sans-Serif" font-size="10.00">::Closed &gt;</text>
</a>
</g>
</g>
<!-- Node1&#45;&gt;Node10 -->
<g id="edge9_Node000001_Node000010" class="edge">
<title>Node1&#45;&gt;Node10</title>
<g id="a_edge9_Node000001_Node000010"><a xlink:title=" ">
<path fill="none" stroke="orange" stroke-dasharray="5,2" d="M70.3,-280.61C70.32,-225.16 79.1,-93.47 158,-34 210.33,5.44 286.69,3.04 343.48,-6.61"/>
<polygon fill="orange" stroke="orange" points="66.8,-280.97 70.4,-290.94 73.8,-280.9 66.8,-280.97"/>
</a>
</g>
<text text-anchor="start" x="161" y="-69.5" font-family="Helvetica,sans-Serif" font-size="10.00" fill="grey">&lt; AxisBoundaryType</text>
<text text-anchor="start" x="161" y="-54.5" font-family="Helvetica,sans-Serif" font-size="10.00" fill="grey">  ::Closed, AxisBoundaryType</text>
<text text-anchor="start" x="161" y="-39.5" font-family="Helvetica,sans-Serif" font-size="10.00" fill="grey">  ::Closed &gt;</text>
</g>
</g>
</svg>
