<?xml version="1.0" encoding="UTF-8" standalone="no"?>
<!DOCTYPE svg PUBLIC "-//W3C//DTD SVG 1.1//EN"
 "http://www.w3.org/Graphics/SVG/1.1/DTD/svg11.dtd">
<!-- Generated by graphviz version 2.43.0 (0)
 -->
<!-- Title: Acts::NavigationOptions&lt; object_t &gt; Pages: 1 -->
<svg width="372pt" height="193pt"
 viewBox="0.00 0.00 371.50 193.00" xmlns="http://www.w3.org/2000/svg" xmlns:xlink="http://www.w3.org/1999/xlink">

<svg id="main" version="1.1" xmlns="http://www.w3.org/2000/svg" xmlns:xlink="http://www.w3.org/1999/xlink" xml:space="preserve">

<style type="text/css"><![CDATA[
.node, .edge {opacity: 0.7;}
.node.selected, .edge.selected {opacity: 1;}
.edge:hover path { stroke: red; }
.edge:hover polygon { stroke: red; fill: red; }
]]></style>
<script type="application/ecmascript" xlink:href="svg.min.js"/>
<svg id="graph" class="graph">
<g id="graph0" class="graph" transform="scale(1 1) rotate(0) translate(4 189)">
<title>Acts::NavigationOptions&lt; object_t &gt;</title>
<!-- Node1 -->
<g id="Node000001" class="node">
<title>Node1</title>
<g id="a_Node000001"><a xlink:title="The navigation options for the tracking geometry.">
<polygon fill="#999999" stroke="#666666" points="196.5,-30 62.5,-30 62.5,0 196.5,0 196.5,-30"/>
<text text-anchor="start" x="70.5" y="-18" font-family="Helvetica,sans-Serif" font-size="10.00">Acts::NavigationOptions</text>
<text text-anchor="middle" x="129.5" y="-7" font-family="Helvetica,sans-Serif" font-size="10.00">&lt; object_t &gt;</text>
</a>
</g>
</g>
<!-- Node2 -->
<g id="Node000002" class="node">
<title>Node2</title>
<g id="a_Node000002"><a xlink:href="class_acts_1_1_boundary_tolerance.html" target="_top" xlink:title="Variant&#45;like type to capture different types of boundary tolerances.">
<polygon fill="white" stroke="#666666" points="137,-107.5 0,-107.5 0,-88.5 137,-88.5 137,-107.5"/>
<text text-anchor="middle" x="68.5" y="-95.5" font-family="Helvetica,sans-Serif" font-size="10.00">Acts::BoundaryTolerance</text>
</a>
</g>
</g>
<!-- Node2&#45;&gt;Node1 -->
<g id="edge1_Node000001_Node000002" class="edge">
<title>Node2&#45;&gt;Node1</title>
<g id="a_edge1_Node000001_Node000002"><a xlink:title=" ">
<path fill="none" stroke="#9a32cd" stroke-dasharray="5,2" d="M70.26,-78.32C71.93,-68.56 75.17,-56.84 81.5,-48 86.51,-41 93.57,-35.09 100.74,-30.33"/>
<polygon fill="#9a32cd" stroke="#9a32cd" points="66.79,-77.88 68.97,-88.25 73.73,-78.78 66.79,-77.88"/>
</a>
</g>
<text text-anchor="start" x="85" y="-53.5" font-family="Helvetica,sans-Serif" font-size="10.00" fill="grey">boundaryTolerance</text>
</g>
<!-- Node3 -->
<g id="Node000003" class="node">
<title>Node3</title>
<g id="a_Node000003"><a xlink:title=" ">
<polygon fill="white" stroke="#666666" points="275.5,-113 155.5,-113 155.5,-83 275.5,-83 275.5,-113"/>
<text text-anchor="start" x="163.5" y="-101" font-family="Helvetica,sans-Serif" font-size="10.00">std::vector&lt; Acts::</text>
<text text-anchor="middle" x="215.5" y="-90" font-family="Helvetica,sans-Serif" font-size="10.00">GeometryIdentifier &gt;</text>
</a>
</g>
</g>
<!-- Node3&#45;&gt;Node1 -->
<g id="edge2_Node000001_Node000003" class="edge">
<title>Node3&#45;&gt;Node1</title>
<g id="a_edge2_Node000001_Node000003"><a xlink:title=" ">
<path fill="none" stroke="#9a32cd" stroke-dasharray="5,2" d="M202.17,-74.57C196.23,-65.67 188.72,-55.74 180.5,-48 173.35,-41.26 164.57,-35.16 156.33,-30.13"/>
<polygon fill="#9a32cd" stroke="#9a32cd" points="199.22,-76.45 207.56,-83 205.12,-72.68 199.22,-76.45"/>
</a>
</g>
<text text-anchor="start" x="198" y="-53.5" font-family="Helvetica,sans-Serif" font-size="10.00" fill="grey">externalSurfaces</text>
</g>
<!-- Node4 -->
<g id="Node000004" class="node">
<title>Node4</title>
<g id="a_Node000004"><a xlink:title=" ">
<polygon fill="white" stroke="#666666" points="264,-185 167,-185 167,-166 264,-166 264,-185"/>
<text text-anchor="middle" x="215.5" y="-173" font-family="Helvetica,sans-Serif" font-size="10.00">std::vector&lt; T &gt;</text>
</a>
</g>
</g>
<!-- Node4&#45;&gt;Node3 -->
<g id="edge3_Node000003_Node000004" class="edge">
<title>Node4&#45;&gt;Node3</title>
<g id="a_edge3_Node000003_Node000004"><a xlink:title=" ">
<path fill="none" stroke="orange" stroke-dasharray="5,2" d="M215.5,-155.57C215.5,-142.43 215.5,-125.18 215.5,-113.21"/>
<polygon fill="orange" stroke="orange" points="212,-155.84 215.5,-165.84 219,-155.84 212,-155.84"/>
</a>
</g>
<text text-anchor="start" x="218.5" y="-136.5" font-family="Helvetica,sans-Serif" font-size="10.00" fill="grey">&lt; Acts::GeometryIdentifier &gt;</text>
</g>
</g>
</svg>
</svg>

<style type='text/css'>
<![CDATA[
[data-mouse-over-selected='false'] { opacity: 0.7; }
[data-mouse-over-selected='true']  { opacity: 1.0; }
]]>
</style>
<script type="application/ecmascript"><![CDATA[
document.addEventListener('DOMContentLoaded', (event) => {
  highlightEdges();
  highlightAdjacentNodes();
});
]]></script>
</svg>
