<?xml version="1.0" encoding="UTF-8" standalone="no"?>
<!DOCTYPE svg PUBLIC "-//W3C//DTD SVG 1.1//EN"
 "http://www.w3.org/Graphics/SVG/1.1/DTD/svg11.dtd">
<!-- Generated by graphviz version 2.43.0 (0)
 -->
<!-- Title: Acts::BroadTripletSeedFilter::State Pages: 1 -->
<svg width="192pt" height="230pt"
 viewBox="0.00 0.00 191.50 230.00" xmlns="http://www.w3.org/2000/svg" xmlns:xlink="http://www.w3.org/1999/xlink">
<g id="graph0" class="graph" transform="scale(1 1) rotate(0) translate(4 226)">
<title>Acts::BroadTripletSeedFilter::State</title>
<!-- Node1 -->
<g id="Node000001" class="node">
<title>Node1</title>
<g id="a_Node000001"><a xlink:title="State of the filter that is communicated between different stages.">
<polygon fill="#999999" stroke="#666666" points="151,-30 0,-30 0,0 151,0 151,-30"/>
<text text-anchor="start" x="8" y="-18" font-family="Helvetica,sans-Serif" font-size="10.00">Acts::BroadTripletSeedFilter</text>
<text text-anchor="middle" x="75.5" y="-7" font-family="Helvetica,sans-Serif" font-size="10.00">::State</text>
</a>
</g>
</g>
<!-- Node2 -->
<g id="Node000002" class="node">
<title>Node2</title>
<g id="a_Node000002"><a xlink:title=" ">
<polygon fill="white" stroke="#666666" points="134.5,-124 16.5,-124 16.5,-83 134.5,-83 134.5,-124"/>
<text text-anchor="start" x="24.5" y="-112" font-family="Helvetica,sans-Serif" font-size="10.00">std::unordered_map</text>
<text text-anchor="start" x="24.5" y="-101" font-family="Helvetica,sans-Serif" font-size="10.00">&lt; SpacePointIndex2,</text>
<text text-anchor="middle" x="75.5" y="-90" font-family="Helvetica,sans-Serif" font-size="10.00"> float &gt;</text>
</a>
</g>
</g>
<!-- Node2&#45;&gt;Node1 -->
<g id="edge1_Node000001_Node000002" class="edge">
<title>Node2&#45;&gt;Node1</title>
<g id="a_edge1_Node000001_Node000002"><a xlink:title=" ">
<path fill="none" stroke="#9a32cd" stroke-dasharray="5,2" d="M75.5,-72.86C75.5,-58.41 75.5,-41.71 75.5,-30.16"/>
<polygon fill="#9a32cd" stroke="#9a32cd" points="72,-72.87 75.5,-82.87 79,-72.87 72,-72.87"/>
</a>
</g>
<text text-anchor="start" x="78.5" y="-53.5" font-family="Helvetica,sans-Serif" font-size="10.00" fill="grey">bestSeedQualityMap</text>
</g>
<!-- Node3 -->
<g id="Node000003" class="node">
<title>Node3</title>
<g id="a_Node000003"><a xlink:title=" ">
<polygon fill="white" stroke="#666666" points="132.5,-222 18.5,-222 18.5,-192 132.5,-192 132.5,-222"/>
<text text-anchor="start" x="26.5" y="-210" font-family="Helvetica,sans-Serif" font-size="10.00">std::unordered_map</text>
<text text-anchor="middle" x="75.5" y="-199" font-family="Helvetica,sans-Serif" font-size="10.00">&lt; K, T &gt;</text>
</a>
</g>
</g>
<!-- Node3&#45;&gt;Node2 -->
<g id="edge2_Node000002_Node000003" class="edge">
<title>Node3&#45;&gt;Node2</title>
<g id="a_edge2_Node000002_Node000003"><a xlink:title=" ">
<path fill="none" stroke="orange" stroke-dasharray="5,2" d="M75.5,-181.78C75.5,-164.13 75.5,-140.52 75.5,-124.06"/>
<polygon fill="orange" stroke="orange" points="72,-181.89 75.5,-191.89 79,-181.89 72,-181.89"/>
</a>
</g>
<text text-anchor="start" x="78.5" y="-163" font-family="Helvetica,sans-Serif" font-size="10.00" fill="grey">&lt; SpacePointIndex2,</text>
<text text-anchor="start" x="78.5" y="-148" font-family="Helvetica,sans-Serif" font-size="10.00" fill="grey">   float &gt;</text>
</g>
</g>
</svg>
