<?xml version="1.0" encoding="UTF-8" standalone="no"?>
<!DOCTYPE svg PUBLIC "-//W3C//DTD SVG 1.1//EN"
 "http://www.w3.org/Graphics/SVG/1.1/DTD/svg11.dtd">
<!-- Generated by graphviz version 2.43.0 (0)
 -->
<!-- Title: Acts::GraphViz::Node Pages: 1 -->
<svg width="235pt" height="197pt"
 viewBox="0.00 0.00 235.00 197.00" xmlns="http://www.w3.org/2000/svg" xmlns:xlink="http://www.w3.org/1999/xlink">
<g id="graph0" class="graph" transform="scale(1 1) rotate(0) translate(4 193)">
<title>Acts::GraphViz::Node</title>
<!-- Node1 -->
<g id="Node000001" class="node">
<title>Node1</title>
<g id="a_Node000001"><a xlink:title=" ">
<polygon fill="#999999" stroke="#666666" points="168.5,-19 49.5,-19 49.5,0 168.5,0 168.5,-19"/>
<text text-anchor="middle" x="109" y="-7" font-family="Helvetica,sans-Serif" font-size="10.00">Acts::GraphViz::Node</text>
</a>
</g>
</g>
<!-- Node2 -->
<g id="Node000002" class="node">
<title>Node2</title>
<g id="a_Node000002"><a xlink:title=" ">
<polygon fill="white" stroke="#666666" points="87.5,-106 22.5,-106 22.5,-87 87.5,-87 87.5,-106"/>
<text text-anchor="middle" x="55" y="-94" font-family="Helvetica,sans-Serif" font-size="10.00">std::string</text>
</a>
</g>
</g>
<!-- Node2&#45;&gt;Node1 -->
<g id="edge1_Node000001_Node000002" class="edge">
<title>Node2&#45;&gt;Node1</title>
<g id="a_edge1_Node000001_Node000002"><a xlink:title=" ">
<path fill="none" stroke="#9a32cd" stroke-dasharray="5,2" d="M66.19,-77.88C77.53,-60.03 94.61,-33.15 103.37,-19.36"/>
<polygon fill="#9a32cd" stroke="#9a32cd" points="62.98,-76.41 60.58,-86.72 68.89,-80.16 62.98,-76.41"/>
</a>
</g>
<text text-anchor="start" x="95.5" y="-58" font-family="Helvetica,sans-Serif" font-size="10.00" fill="grey">id</text>
<text text-anchor="start" x="95.5" y="-43" font-family="Helvetica,sans-Serif" font-size="10.00" fill="grey">label</text>
</g>
<!-- Node3 -->
<g id="Node000003" class="node">
<title>Node3</title>
<g id="a_Node000003"><a xlink:title=" ">
<polygon fill="white" stroke="#666666" points="104,-189 0,-189 0,-159 104,-159 104,-189"/>
<text text-anchor="start" x="8" y="-177" font-family="Helvetica,sans-Serif" font-size="10.00">std::basic_string&lt;</text>
<text text-anchor="middle" x="52" y="-166" font-family="Helvetica,sans-Serif" font-size="10.00"> Char &gt;</text>
</a>
</g>
</g>
<!-- Node3&#45;&gt;Node2 -->
<g id="edge2_Node000002_Node000003" class="edge">
<title>Node3&#45;&gt;Node2</title>
<g id="a_edge2_Node000002_Node000003"><a xlink:title=" ">
<path fill="none" stroke="#63b8ff" d="M52.98,-148.4C53.56,-133.81 54.26,-116.22 54.66,-106.01"/>
<polygon fill="#63b8ff" stroke="#63b8ff" points="49.46,-148.67 52.56,-158.8 56.46,-148.95 49.46,-148.67"/>
</a>
</g>
</g>
<!-- Node4 -->
<g id="Node000004" class="node">
<title>Node4</title>
<g id="a_Node000004"><a xlink:title=" ">
<polygon fill="white" stroke="#666666" points="227,-106 111,-106 111,-87 227,-87 227,-106"/>
<text text-anchor="middle" x="169" y="-94" font-family="Helvetica,sans-Serif" font-size="10.00">std::vector&lt; Style &gt;</text>
</a>
</g>
</g>
<!-- Node4&#45;&gt;Node1 -->
<g id="edge3_Node000001_Node000004" class="edge">
<title>Node4&#45;&gt;Node1</title>
<g id="a_edge3_Node000001_Node000004"><a xlink:title=" ">
<path fill="none" stroke="#9a32cd" stroke-dasharray="5,2" d="M156.91,-78.37C144.32,-60.53 125.08,-33.28 115.25,-19.36"/>
<polygon fill="#9a32cd" stroke="#9a32cd" points="154.18,-80.57 162.8,-86.72 159.9,-76.54 154.18,-80.57"/>
</a>
</g>
<text text-anchor="start" x="153.5" y="-50" font-family="Helvetica,sans-Serif" font-size="10.00" fill="grey">style</text>
</g>
<!-- Node5 -->
<g id="Node000005" class="node">
<title>Node5</title>
<g id="a_Node000005"><a xlink:title=" ">
<polygon fill="white" stroke="#666666" points="219.5,-183.5 122.5,-183.5 122.5,-164.5 219.5,-164.5 219.5,-183.5"/>
<text text-anchor="middle" x="171" y="-171.5" font-family="Helvetica,sans-Serif" font-size="10.00">std::vector&lt; T &gt;</text>
</a>
</g>
</g>
<!-- Node5&#45;&gt;Node4 -->
<g id="edge4_Node000004_Node000005" class="edge">
<title>Node5&#45;&gt;Node4</title>
<g id="a_edge4_Node000004_Node000005"><a xlink:title=" ">
<path fill="none" stroke="orange" stroke-dasharray="5,2" d="M170.49,-153.9C170.09,-138.51 169.53,-117.61 169.23,-106.06"/>
<polygon fill="orange" stroke="orange" points="167.01,-154.44 170.77,-164.34 174,-154.25 167.01,-154.44"/>
</a>
</g>
<text text-anchor="start" x="173" y="-129.5" font-family="Helvetica,sans-Serif" font-size="10.00" fill="grey">&lt; Style &gt;</text>
</g>
</g>
</svg>
