<?xml version="1.0" encoding="UTF-8" standalone="no"?>
<!DOCTYPE svg PUBLIC "-//W3C//DTD SVG 1.1//EN"
 "http://www.w3.org/Graphics/SVG/1.1/DTD/svg11.dtd">
<!-- Generated by graphviz version 2.43.0 (0)
 -->
<!-- Title: ActsPlugins::DetrayPayloadConverter::Payloads Pages: 1 -->
<svg width="854pt" height="339pt"
 viewBox="0.00 0.00 854.00 339.00" xmlns="http://www.w3.org/2000/svg" xmlns:xlink="http://www.w3.org/1999/xlink">
<g id="graph0" class="graph" transform="scale(1 1) rotate(0) translate(4 335)">
<title>ActsPlugins::DetrayPayloadConverter::Payloads</title>
<!-- Node1 -->
<g id="Node000001" class="node">
<title>Node1</title>
<g id="a_Node000001"><a xlink:title="Container for all Detray payload outputs.">
<polygon fill="#999999" stroke="#666666" points="846,-159 696,-159 696,-129 846,-129 846,-159"/>
<text text-anchor="start" x="704" y="-147" font-family="Helvetica,sans-Serif" font-size="10.00">ActsPlugins::DetrayPayload</text>
<text text-anchor="middle" x="771" y="-136" font-family="Helvetica,sans-Serif" font-size="10.00">Converter::Payloads</text>
</a>
</g>
</g>
<!-- Node2 -->
<g id="Node000002" class="node">
<title>Node2</title>
<g id="a_Node000002"><a xlink:title=" ">
<polygon fill="white" stroke="#666666" points="512.5,-298 378.5,-298 378.5,-268 512.5,-268 512.5,-298"/>
<text text-anchor="start" x="386.5" y="-286" font-family="Helvetica,sans-Serif" font-size="10.00">std::unique_ptr&lt; detray</text>
<text text-anchor="middle" x="445.5" y="-275" font-family="Helvetica,sans-Serif" font-size="10.00">::io::detector_payload &gt;</text>
</a>
</g>
</g>
<!-- Node2&#45;&gt;Node1 -->
<g id="edge1_Node000001_Node000002" class="edge">
<title>Node2&#45;&gt;Node1</title>
<g id="a_edge1_Node000001_Node000002"><a xlink:title=" ">
<path fill="none" stroke="#9a32cd" stroke-dasharray="5,2" d="M522.56,-266.07C568.94,-254.12 628.59,-235.82 678,-211 706.25,-196.81 735.13,-174.19 752.81,-159.21"/>
<polygon fill="#9a32cd" stroke="#9a32cd" points="521.41,-262.75 512.57,-268.59 523.12,-269.53 521.41,-262.75"/>
</a>
</g>
<text text-anchor="start" x="600" y="-258.5" font-family="Helvetica,sans-Serif" font-size="10.00" fill="grey">detector</text>
</g>
<!-- Node3 -->
<g id="Node000003" class="node">
<title>Node3</title>
<g id="a_Node000003"><a xlink:title=" ">
<polygon fill="white" stroke="#666666" points="118,-193.5 0,-193.5 0,-174.5 118,-174.5 118,-193.5"/>
<text text-anchor="middle" x="59" y="-181.5" font-family="Helvetica,sans-Serif" font-size="10.00">std::unique_ptr&lt; T &gt;</text>
</a>
</g>
</g>
<!-- Node3&#45;&gt;Node2 -->
<g id="edge2_Node000002_Node000003" class="edge">
<title>Node3&#45;&gt;Node2</title>
<g id="a_edge2_Node000002_Node000003"><a xlink:title=" ">
<path fill="none" stroke="orange" stroke-dasharray="5,2" d="M70.23,-202.36C82.76,-222.79 106.05,-254.78 136,-269 213.01,-305.56 313.36,-302.11 378.36,-294.24"/>
<polygon fill="orange" stroke="orange" points="73.2,-200.49 65.11,-193.64 67.16,-204.04 73.2,-200.49"/>
</a>
</g>
<text text-anchor="start" x="180.5" y="-320" font-family="Helvetica,sans-Serif" font-size="10.00" fill="grey">&lt; detray::io::detector</text>
<text text-anchor="start" x="180.5" y="-305" font-family="Helvetica,sans-Serif" font-size="10.00" fill="grey">  _payload &gt;</text>
</g>
<!-- Node4 -->
<g id="Node000004" class="node">
<title>Node4</title>
<g id="a_Node000004"><a xlink:title=" ">
<polygon fill="white" stroke="#666666" points="521.5,-237.5 369.5,-237.5 369.5,-196.5 521.5,-196.5 521.5,-237.5"/>
<text text-anchor="start" x="377.5" y="-225.5" font-family="Helvetica,sans-Serif" font-size="10.00">std::unique_ptr&lt; detray</text>
<text text-anchor="start" x="377.5" y="-214.5" font-family="Helvetica,sans-Serif" font-size="10.00">::io::detector_homogeneous</text>
<text text-anchor="middle" x="445.5" y="-203.5" font-family="Helvetica,sans-Serif" font-size="10.00">_material_payload &gt;</text>
</a>
</g>
</g>
<!-- Node3&#45;&gt;Node4 -->
<g id="edge4_Node000004_Node000003" class="edge">
<title>Node3&#45;&gt;Node4</title>
<g id="a_edge4_Node000004_Node000003"><a xlink:title=" ">
<path fill="none" stroke="orange" stroke-dasharray="5,2" d="M98.21,-196.41C110.19,-199.8 123.53,-203.06 136,-205 214.92,-217.27 306.48,-219.32 369.23,-218.89"/>
<polygon fill="orange" stroke="orange" points="99.11,-193.03 88.53,-193.56 97.14,-199.74 99.11,-193.03"/>
</a>
</g>
<text text-anchor="start" x="169.5" y="-253.5" font-family="Helvetica,sans-Serif" font-size="10.00" fill="grey">&lt; detray::io::detector</text>
<text text-anchor="start" x="169.5" y="-238.5" font-family="Helvetica,sans-Serif" font-size="10.00" fill="grey">  _homogeneous_material</text>
<text text-anchor="start" x="169.5" y="-223.5" font-family="Helvetica,sans-Serif" font-size="10.00" fill="grey">  _payload &gt;</text>
</g>
<!-- Node5 -->
<g id="Node000005" class="node">
<title>Node5</title>
<g id="a_Node000005"><a xlink:title=" ">
<polygon fill="white" stroke="#666666" points="544,-170 347,-170 347,-118 544,-118 544,-170"/>
<text text-anchor="start" x="355" y="-158" font-family="Helvetica,sans-Serif" font-size="10.00">std::unique_ptr&lt; detray</text>
<text text-anchor="start" x="355" y="-147" font-family="Helvetica,sans-Serif" font-size="10.00">::io::detector_grids_payload</text>
<text text-anchor="start" x="355" y="-136" font-family="Helvetica,sans-Serif" font-size="10.00">&lt; detray::io::surface_material</text>
<text text-anchor="middle" x="445.5" y="-125" font-family="Helvetica,sans-Serif" font-size="10.00">_payload, detray::io::material_id &gt; &gt;</text>
</a>
</g>
</g>
<!-- Node3&#45;&gt;Node5 -->
<g id="edge6_Node000005_Node000003" class="edge">
<title>Node3&#45;&gt;Node5</title>
<g id="a_edge6_Node000005_Node000003"><a xlink:title=" ">
<path fill="none" stroke="orange" stroke-dasharray="5,2" d="M80.19,-167.95C94.77,-157.44 115.42,-144.63 136,-139 204.71,-120.18 285.3,-122.27 346.87,-128.61"/>
<polygon fill="orange" stroke="orange" points="77.87,-165.32 71.96,-174.12 82.06,-170.92 77.87,-165.32"/>
</a>
</g>
<text text-anchor="start" x="139.5" y="-190" font-family="Helvetica,sans-Serif" font-size="10.00" fill="grey">&lt; detray::io::detector</text>
<text text-anchor="start" x="139.5" y="-175" font-family="Helvetica,sans-Serif" font-size="10.00" fill="grey">  _grids_payload&lt; detray</text>
<text text-anchor="start" x="139.5" y="-160" font-family="Helvetica,sans-Serif" font-size="10.00" fill="grey">  ::io::surface_material</text>
<text text-anchor="start" x="139.5" y="-145" font-family="Helvetica,sans-Serif" font-size="10.00" fill="grey">  _payload, detray::io::material_id &gt; &gt;</text>
</g>
<!-- Node6 -->
<g id="Node000006" class="node">
<title>Node6</title>
<g id="a_Node000006"><a xlink:title=" ">
<polygon fill="white" stroke="#666666" points="521.5,-100 369.5,-100 369.5,-48 521.5,-48 521.5,-100"/>
<text text-anchor="start" x="377.5" y="-88" font-family="Helvetica,sans-Serif" font-size="10.00">std::unique_ptr&lt; detray</text>
<text text-anchor="start" x="377.5" y="-77" font-family="Helvetica,sans-Serif" font-size="10.00">::io::detector_grids_payload</text>
<text text-anchor="start" x="377.5" y="-66" font-family="Helvetica,sans-Serif" font-size="10.00">&lt; std::size_t, detray::io</text>
<text text-anchor="middle" x="445.5" y="-55" font-family="Helvetica,sans-Serif" font-size="10.00">::accel_id &gt; &gt;</text>
</a>
</g>
</g>
<!-- Node3&#45;&gt;Node6 -->
<g id="edge8_Node000006_Node000003" class="edge">
<title>Node3&#45;&gt;Node6</title>
<g id="a_edge8_Node000006_Node000003"><a xlink:title=" ">
<path fill="none" stroke="orange" stroke-dasharray="5,2" d="M66.7,-164.56C76.96,-138.24 99.32,-92.34 136,-73 174.97,-52.45 291.24,-58.73 369.37,-65.83"/>
<polygon fill="orange" stroke="orange" points="63.32,-163.61 63.15,-174.2 69.89,-166.03 63.32,-163.61"/>
</a>
</g>
<text text-anchor="start" x="164.5" y="-108.5" font-family="Helvetica,sans-Serif" font-size="10.00" fill="grey">&lt; detray::io::detector</text>
<text text-anchor="start" x="164.5" y="-93.5" font-family="Helvetica,sans-Serif" font-size="10.00" fill="grey">  _grids_payload&lt; std::size</text>
<text text-anchor="start" x="164.5" y="-78.5" font-family="Helvetica,sans-Serif" font-size="10.00" fill="grey">  _t, detray::io::accel_id &gt; &gt;</text>
</g>
<!-- Node4&#45;&gt;Node1 -->
<g id="edge3_Node000001_Node000004" class="edge">
<title>Node4&#45;&gt;Node1</title>
<g id="a_edge3_Node000001_Node000004"><a xlink:title=" ">
<path fill="none" stroke="#9a32cd" stroke-dasharray="5,2" d="M531.61,-197.96C575.37,-188.15 629.55,-175.97 678,-165 686.47,-163.08 695.37,-161.06 704.17,-159.05"/>
<polygon fill="#9a32cd" stroke="#9a32cd" points="530.57,-194.6 521.58,-200.2 532.1,-201.43 530.57,-194.6"/>
</a>
</g>
<text text-anchor="start" x="565" y="-195.5" font-family="Helvetica,sans-Serif" font-size="10.00" fill="grey">homogeneousMaterial</text>
</g>
<!-- Node5&#45;&gt;Node1 -->
<g id="edge5_Node000001_Node000005" class="edge">
<title>Node5&#45;&gt;Node1</title>
<g id="a_edge5_Node000001_Node000005"><a xlink:title=" ">
<path fill="none" stroke="#9a32cd" stroke-dasharray="5,2" d="M554.53,-144C600.91,-144 653.93,-144 695.78,-144"/>
<polygon fill="#9a32cd" stroke="#9a32cd" points="554.44,-140.5 544.44,-144 554.44,-147.5 554.44,-140.5"/>
</a>
</g>
<text text-anchor="start" x="587" y="-149.5" font-family="Helvetica,sans-Serif" font-size="10.00" fill="grey">materialGrids</text>
</g>
<!-- Node6&#45;&gt;Node1 -->
<g id="edge7_Node000001_Node000006" class="edge">
<title>Node6&#45;&gt;Node1</title>
<g id="a_edge7_Node000001_Node000006"><a xlink:title=" ">
<path fill="none" stroke="#9a32cd" stroke-dasharray="5,2" d="M531.66,-91.69C575.43,-100.87 629.61,-112.36 678,-123 686.64,-124.9 695.73,-126.93 704.69,-128.96"/>
<polygon fill="#9a32cd" stroke="#9a32cd" points="532.14,-88.21 521.63,-89.59 530.7,-95.06 532.14,-88.21"/>
</a>
</g>
<text text-anchor="start" x="589" y="-128.5" font-family="Helvetica,sans-Serif" font-size="10.00" fill="grey">surfaceGrids</text>
</g>
<!-- Node7 -->
<g id="Node000007" class="node">
<title>Node7</title>
<g id="a_Node000007"><a xlink:title=" ">
<polygon fill="white" stroke="#666666" points="517,-30 374,-30 374,0 517,0 517,-30"/>
<text text-anchor="start" x="382" y="-18" font-family="Helvetica,sans-Serif" font-size="10.00">std::map&lt; detray::dindex,</text>
<text text-anchor="middle" x="445.5" y="-7" font-family="Helvetica,sans-Serif" font-size="10.00"> std::string &gt;</text>
</a>
</g>
</g>
<!-- Node7&#45;&gt;Node1 -->
<g id="edge9_Node000001_Node000007" class="edge">
<title>Node7&#45;&gt;Node1</title>
<g id="a_edge9_Node000001_Node000007"><a xlink:title=" ">
<path fill="none" stroke="#9a32cd" stroke-dasharray="5,2" d="M526.98,-28.66C572.78,-38.34 630.34,-53.81 678,-77 706.6,-90.92 735.62,-113.83 753.21,-128.92"/>
<polygon fill="#9a32cd" stroke="#9a32cd" points="527.6,-25.21 517.09,-26.62 526.18,-32.07 527.6,-25.21"/>
</a>
</g>
<text text-anchor="start" x="603" y="-82.5" font-family="Helvetica,sans-Serif" font-size="10.00" fill="grey">names</text>
</g>
<!-- Node8 -->
<g id="Node000008" class="node">
<title>Node8</title>
<g id="a_Node000008"><a xlink:title=" ">
<polygon fill="white" stroke="#666666" points="109.5,-24.5 8.5,-24.5 8.5,-5.5 109.5,-5.5 109.5,-24.5"/>
<text text-anchor="middle" x="59" y="-12.5" font-family="Helvetica,sans-Serif" font-size="10.00">std::map&lt; K, T &gt;</text>
</a>
</g>
</g>
<!-- Node8&#45;&gt;Node7 -->
<g id="edge10_Node000007_Node000008" class="edge">
<title>Node8&#45;&gt;Node7</title>
<g id="a_edge10_Node000007_Node000008"><a xlink:title=" ">
<path fill="none" stroke="orange" stroke-dasharray="5,2" d="M120.09,-15C188.76,-15 301.02,-15 373.83,-15"/>
<polygon fill="orange" stroke="orange" points="119.87,-11.5 109.87,-15 119.87,-18.5 119.87,-11.5"/>
</a>
</g>
<text text-anchor="start" x="181.5" y="-36" font-family="Helvetica,sans-Serif" font-size="10.00" fill="grey">&lt; detray::dindex, std</text>
<text text-anchor="start" x="181.5" y="-21" font-family="Helvetica,sans-Serif" font-size="10.00" fill="grey">  ::string &gt;</text>
</g>
</g>
</svg>
