<?xml version="1.0" encoding="UTF-8" standalone="no"?>
<!DOCTYPE svg PUBLIC "-//W3C//DTD SVG 1.1//EN"
 "http://www.w3.org/Graphics/SVG/1.1/DTD/svg11.dtd">
<!-- Generated by graphviz version 2.43.0 (0)
 -->
<!-- Title: ActsPlugins::Geant4PhysicalVolumeSelectors::PositionSelector Pages: 1 -->
<svg width="726pt" height="98pt"
 viewBox="0.00 0.00 726.00 97.50" xmlns="http://www.w3.org/2000/svg" xmlns:xlink="http://www.w3.org/1999/xlink">
<g id="graph0" class="graph" transform="scale(1 1) rotate(0) translate(4 93.5)">
<title>ActsPlugins::Geant4PhysicalVolumeSelectors::PositionSelector</title>
<!-- Node1 -->
<g id="Node000001" class="node">
<title>Node1</title>
<g id="a_Node000001"><a xlink:title="Struct that selects G4VPhysicalVolume objects based on the allowed range of their position.">
<polygon fill="#999999" stroke="#666666" points="718,-62.5 535,-62.5 535,-32.5 718,-32.5 718,-62.5"/>
<text text-anchor="start" x="543" y="-50.5" font-family="Helvetica,sans-Serif" font-size="10.00">ActsPlugins::Geant4Physical</text>
<text text-anchor="middle" x="626.5" y="-39.5" font-family="Helvetica,sans-Serif" font-size="10.00">VolumeSelectors::PositionSelector</text>
</a>
</g>
</g>
<!-- Node2 -->
<g id="Node000002" class="node">
<title>Node2</title>
<g id="a_Node000002"><a xlink:href="class_acts_plugins_1_1_i_geant4_physical_volume_selector.html" target="_top" xlink:title="Interface class for selectors from physical volumes.">
<polygon fill="white" stroke="#666666" points="444,-89.5 286,-89.5 286,-59.5 444,-59.5 444,-89.5"/>
<text text-anchor="start" x="294" y="-77.5" font-family="Helvetica,sans-Serif" font-size="10.00">ActsPlugins::IGeant4Physical</text>
<text text-anchor="middle" x="365" y="-66.5" font-family="Helvetica,sans-Serif" font-size="10.00">VolumeSelector</text>
</a>
</g>
</g>
<!-- Node2&#45;&gt;Node1 -->
<g id="edge1_Node000001_Node000002" class="edge">
<title>Node2&#45;&gt;Node1</title>
<g id="a_edge1_Node000001_Node000002"><a xlink:title=" ">
<path fill="none" stroke="#63b8ff" d="M454.38,-65.3C480.28,-62.61 508.64,-59.66 534.69,-56.95"/>
<polygon fill="#63b8ff" stroke="#63b8ff" points="453.79,-61.85 444.21,-66.36 454.52,-68.81 453.79,-61.85"/>
</a>
</g>
</g>
<!-- Node3 -->
<g id="Node000003" class="node">
<title>Node3</title>
<g id="a_Node000003"><a xlink:title=" ">
<polygon fill="white" stroke="#666666" points="430.5,-41 299.5,-41 299.5,0 430.5,0 430.5,-41"/>
<text text-anchor="start" x="307.5" y="-29" font-family="Helvetica,sans-Serif" font-size="10.00">std::map&lt; unsigned</text>
<text text-anchor="start" x="307.5" y="-18" font-family="Helvetica,sans-Serif" font-size="10.00"> int, std::tuple&lt; double,</text>
<text text-anchor="middle" x="365" y="-7" font-family="Helvetica,sans-Serif" font-size="10.00"> double &gt; &gt;</text>
</a>
</g>
</g>
<!-- Node3&#45;&gt;Node1 -->
<g id="edge2_Node000001_Node000003" class="edge">
<title>Node3&#45;&gt;Node1</title>
<g id="a_edge2_Node000001_Node000003"><a xlink:title=" ">
<path fill="none" stroke="#9a32cd" stroke-dasharray="5,2" d="M440.96,-28.3C470.2,-31.34 504,-34.86 534.62,-38.04"/>
<polygon fill="#9a32cd" stroke="#9a32cd" points="441.12,-24.8 430.81,-27.24 440.4,-31.76 441.12,-24.8"/>
</a>
</g>
<text text-anchor="start" x="465.5" y="-42" font-family="Helvetica,sans-Serif" font-size="10.00" fill="grey">m_ranges</text>
</g>
<!-- Node4 -->
<g id="Node000004" class="node">
<title>Node4</title>
<g id="a_Node000004"><a xlink:title=" ">
<polygon fill="white" stroke="#666666" points="101,-30 0,-30 0,-11 101,-11 101,-30"/>
<text text-anchor="middle" x="50.5" y="-18" font-family="Helvetica,sans-Serif" font-size="10.00">std::map&lt; K, T &gt;</text>
</a>
</g>
</g>
<!-- Node4&#45;&gt;Node3 -->
<g id="edge3_Node000003_Node000004" class="edge">
<title>Node4&#45;&gt;Node3</title>
<g id="a_edge3_Node000003_Node000004"><a xlink:title=" ">
<path fill="none" stroke="orange" stroke-dasharray="5,2" d="M111.09,-20.5C164.91,-20.5 243.91,-20.5 299.26,-20.5"/>
<polygon fill="orange" stroke="orange" points="111.02,-17 101.02,-20.5 111.02,-24 111.02,-17"/>
</a>
</g>
<text text-anchor="start" x="122.5" y="-41.5" font-family="Helvetica,sans-Serif" font-size="10.00" fill="grey">&lt; unsigned int, std</text>
<text text-anchor="start" x="122.5" y="-26.5" font-family="Helvetica,sans-Serif" font-size="10.00" fill="grey">  ::tuple&lt; double, double &gt; &gt;</text>
</g>
</g>
</svg>
