<?xml version="1.0" encoding="UTF-8" standalone="no"?>
<!DOCTYPE svg PUBLIC "-//W3C//DTD SVG 1.1//EN"
 "http://www.w3.org/Graphics/SVG/1.1/DTD/svg11.dtd">
<!-- Generated by graphviz version 2.43.0 (0)
 -->
<!-- Title: ActsFatras::BoundParametersSmearer&lt; generator_t, kSize &gt; Pages: 1 -->
<svg width="766pt" height="153pt"
 viewBox="0.00 0.00 766.00 152.50" xmlns="http://www.w3.org/2000/svg" xmlns:xlink="http://www.w3.org/1999/xlink">
<g id="graph0" class="graph" transform="scale(1 1) rotate(0) translate(4 148.5)">
<title>ActsFatras::BoundParametersSmearer&lt; generator_t, kSize &gt;</title>
<!-- Node1 -->
<g id="Node000001" class="node">
<title>Node1</title>
<g id="a_Node000001"><a xlink:title="Uncorrelated smearing algorithm for fast digitisation of bound parameters.">
<polygon fill="#999999" stroke="#666666" points="758,-72.5 589,-72.5 589,-42.5 758,-42.5 758,-72.5"/>
<text text-anchor="start" x="597" y="-60.5" font-family="Helvetica,sans-Serif" font-size="10.00">ActsFatras::BoundParameters</text>
<text text-anchor="middle" x="673.5" y="-49.5" font-family="Helvetica,sans-Serif" font-size="10.00">Smearer&lt; generator_t, kSize &gt;</text>
</a>
</g>
</g>
<!-- Node2 -->
<g id="Node000002" class="node">
<title>Node2</title>
<g id="a_Node000002"><a xlink:title=" ">
<polygon fill="white" stroke="#666666" points="469,-126.5 299,-126.5 299,-96.5 469,-96.5 469,-126.5"/>
<text text-anchor="start" x="307" y="-114.5" font-family="Helvetica,sans-Serif" font-size="10.00">std::array&lt; Acts::BoundIndices,</text>
<text text-anchor="middle" x="384" y="-103.5" font-family="Helvetica,sans-Serif" font-size="10.00"> kSize &gt;</text>
</a>
</g>
</g>
<!-- Node2&#45;&gt;Node1 -->
<g id="edge1_Node000001_Node000002" class="edge">
<title>Node2&#45;&gt;Node1</title>
<g id="a_edge1_Node000001_Node000002"><a xlink:title=" ">
<path fill="none" stroke="#9a32cd" stroke-dasharray="5,2" d="M479.2,-95.32C508.63,-90.12 541.2,-84.23 571,-78.5 580.72,-76.63 590.95,-74.6 601.02,-72.56"/>
<polygon fill="#9a32cd" stroke="#9a32cd" points="478.59,-91.88 469.35,-97.06 479.81,-98.77 478.59,-91.88"/>
</a>
</g>
<text text-anchor="start" x="512" y="-99" font-family="Helvetica,sans-Serif" font-size="10.00" fill="grey">indices</text>
</g>
<!-- Node3 -->
<g id="Node000003" class="node">
<title>Node3</title>
<g id="a_Node000003"><a xlink:title=" ">
<polygon fill="white" stroke="#666666" points="92,-66 0,-66 0,-47 92,-47 92,-66"/>
<text text-anchor="middle" x="46" y="-54" font-family="Helvetica,sans-Serif" font-size="10.00">std::array&lt; T &gt;</text>
</a>
</g>
</g>
<!-- Node3&#45;&gt;Node2 -->
<g id="edge2_Node000002_Node000003" class="edge">
<title>Node3&#45;&gt;Node2</title>
<g id="a_edge2_Node000002_Node000003"><a xlink:title=" ">
<path fill="none" stroke="orange" stroke-dasharray="5,2" d="M69.88,-71.34C81.44,-78.08 95.96,-85.44 110,-89.5 171.55,-107.3 243.94,-112.45 298.71,-113.35"/>
<polygon fill="orange" stroke="orange" points="71.67,-68.34 61.31,-66.14 68.04,-74.32 71.67,-68.34"/>
</a>
</g>
<text text-anchor="start" x="142.5" y="-133.5" font-family="Helvetica,sans-Serif" font-size="10.00" fill="grey">&lt; Acts::BoundIndices,</text>
<text text-anchor="start" x="142.5" y="-118.5" font-family="Helvetica,sans-Serif" font-size="10.00" fill="grey">   kSize &gt;</text>
</g>
<!-- Node4 -->
<g id="Node000004" class="node">
<title>Node4</title>
<g id="a_Node000004"><a xlink:title=" ">
<polygon fill="white" stroke="#666666" points="461.5,-78 306.5,-78 306.5,-37 461.5,-37 461.5,-78"/>
<text text-anchor="start" x="314.5" y="-66" font-family="Helvetica,sans-Serif" font-size="10.00">std::array&lt; SingleParameter</text>
<text text-anchor="start" x="314.5" y="-55" font-family="Helvetica,sans-Serif" font-size="10.00">SmearFunction&lt; generator</text>
<text text-anchor="middle" x="384" y="-44" font-family="Helvetica,sans-Serif" font-size="10.00">_t &gt;, kSize &gt;</text>
</a>
</g>
</g>
<!-- Node3&#45;&gt;Node4 -->
<g id="edge4_Node000004_Node000003" class="edge">
<title>Node3&#45;&gt;Node4</title>
<g id="a_edge4_Node000004_Node000003"><a xlink:title=" ">
<path fill="none" stroke="orange" stroke-dasharray="5,2" d="M102.33,-56.66C157.95,-56.83 244.12,-57.09 306.32,-57.27"/>
<polygon fill="orange" stroke="orange" points="102.32,-53.16 92.31,-56.63 102.3,-60.16 102.32,-53.16"/>
</a>
</g>
<text text-anchor="start" x="113.5" y="-77.5" font-family="Helvetica,sans-Serif" font-size="10.00" fill="grey">&lt; SingleParameterSmearFunction</text>
<text text-anchor="start" x="113.5" y="-62.5" font-family="Helvetica,sans-Serif" font-size="10.00" fill="grey">  &lt; generator_t &gt;, kSize &gt;</text>
</g>
<!-- Node5 -->
<g id="Node000005" class="node">
<title>Node5</title>
<g id="a_Node000005"><a xlink:title=" ">
<polygon fill="white" stroke="#666666" points="453.5,-19 314.5,-19 314.5,0 453.5,0 453.5,-19"/>
<text text-anchor="middle" x="384" y="-7" font-family="Helvetica,sans-Serif" font-size="10.00">std::array&lt; bool, kSize &gt;</text>
</a>
</g>
</g>
<!-- Node3&#45;&gt;Node5 -->
<g id="edge6_Node000005_Node000003" class="edge">
<title>Node3&#45;&gt;Node5</title>
<g id="a_edge6_Node000005_Node000003"><a xlink:title=" ">
<path fill="none" stroke="orange" stroke-dasharray="5,2" d="M81.12,-43.56C90.38,-40.48 100.47,-37.51 110,-35.5 178.71,-20.97 258.87,-14.56 314.48,-11.72"/>
<polygon fill="orange" stroke="orange" points="79.78,-40.32 71.48,-46.9 82.07,-46.94 79.78,-40.32"/>
</a>
</g>
<text text-anchor="start" x="157.5" y="-41" font-family="Helvetica,sans-Serif" font-size="10.00" fill="grey">&lt; bool, kSize &gt;</text>
</g>
<!-- Node4&#45;&gt;Node1 -->
<g id="edge3_Node000001_Node000004" class="edge">
<title>Node4&#45;&gt;Node1</title>
<g id="a_edge3_Node000001_Node000004"><a xlink:title=" ">
<path fill="none" stroke="#9a32cd" stroke-dasharray="5,2" d="M471.97,-57.5C509.09,-57.5 552.24,-57.5 588.98,-57.5"/>
<polygon fill="#9a32cd" stroke="#9a32cd" points="471.67,-54 461.67,-57.5 471.67,-61 471.67,-54"/>
</a>
</g>
<text text-anchor="start" x="490" y="-63" font-family="Helvetica,sans-Serif" font-size="10.00" fill="grey">smearFunctions</text>
</g>
<!-- Node5&#45;&gt;Node1 -->
<g id="edge5_Node000001_Node000005" class="edge">
<title>Node5&#45;&gt;Node1</title>
<g id="a_edge5_Node000001_Node000005"><a xlink:title=" ">
<path fill="none" stroke="#9a32cd" stroke-dasharray="5,2" d="M463.72,-19.86C496.91,-24.51 535.91,-30.33 571,-36.5 581.28,-38.31 592.11,-40.37 602.72,-42.49"/>
<polygon fill="#9a32cd" stroke="#9a32cd" points="464,-16.37 453.62,-18.46 463.04,-23.3 464,-16.37"/>
</a>
</g>
<text text-anchor="start" x="497" y="-42" font-family="Helvetica,sans-Serif" font-size="10.00" fill="grey">forcePositive</text>
</g>
</g>
</svg>
