<?xml version="1.0" encoding="UTF-8" standalone="no"?>
<!DOCTYPE svg PUBLIC "-//W3C//DTD SVG 1.1//EN"
 "http://www.w3.org/Graphics/SVG/1.1/DTD/svg11.dtd">
<!-- Generated by graphviz version 2.43.0 (0)
 -->
<!-- Title: Acts::PropagatorOptions&lt; stepper_options_t, navigator_options_t, actor_list_t &gt; Pages: 1 -->
<svg width="304pt" height="204pt"
 viewBox="0.00 0.00 304.00 204.00" xmlns="http://www.w3.org/2000/svg" xmlns:xlink="http://www.w3.org/1999/xlink">
<g id="graph0" class="graph" transform="scale(1 1) rotate(0) translate(4 200)">
<title>Acts::PropagatorOptions&lt; stepper_options_t, navigator_options_t, actor_list_t &gt;</title>
<!-- Node1 -->
<g id="Node000001" class="node">
<title>Node1</title>
<g id="a_Node000001"><a xlink:title="Options for propagate() call.">
<polygon fill="#999999" stroke="#666666" points="175.5,-41 8.5,-41 8.5,0 175.5,0 175.5,-41"/>
<text text-anchor="start" x="16.5" y="-29" font-family="Helvetica,sans-Serif" font-size="10.00">Acts::PropagatorOptions</text>
<text text-anchor="start" x="16.5" y="-18" font-family="Helvetica,sans-Serif" font-size="10.00">&lt; stepper_options_t, navigator</text>
<text text-anchor="middle" x="92" y="-7" font-family="Helvetica,sans-Serif" font-size="10.00">_options_t, actor_list_t &gt;</text>
</a>
</g>
</g>
<!-- Node2 -->
<g id="Node000002" class="node">
<title>Node2</title>
<g id="a_Node000002"><a xlink:title=" ">
<polygon fill="white" stroke="#666666" points="152,-124 0,-124 0,-94 152,-94 152,-124"/>
<text text-anchor="start" x="8" y="-112" font-family="Helvetica,sans-Serif" font-size="10.00">Acts::detail::PurePropagator</text>
<text text-anchor="middle" x="76" y="-101" font-family="Helvetica,sans-Serif" font-size="10.00">PlainOptions</text>
</a>
</g>
</g>
<!-- Node2&#45;&gt;Node1 -->
<g id="edge1_Node000001_Node000002" class="edge">
<title>Node2&#45;&gt;Node1</title>
<g id="a_edge1_Node000001_Node000002"><a xlink:title=" ">
<path fill="none" stroke="#63b8ff" d="M80.48,-83.75C82.96,-70.36 86,-53.93 88.34,-41.31"/>
<polygon fill="#63b8ff" stroke="#63b8ff" points="77.02,-83.25 78.64,-93.72 83.9,-84.52 77.02,-83.25"/>
</a>
</g>
</g>
<!-- Node3 -->
<g id="Node000003" class="node">
<title>Node3</title>
<g id="a_Node000003"><a xlink:href="struct_acts_1_1_actor_list.html" target="_top" xlink:title=" ">
<polygon fill="white" stroke="#666666" points="273.5,-118.5 170.5,-118.5 170.5,-99.5 273.5,-99.5 273.5,-118.5"/>
<text text-anchor="middle" x="222" y="-106.5" font-family="Helvetica,sans-Serif" font-size="10.00">Acts::ActorList&lt;&gt;</text>
</a>
</g>
</g>
<!-- Node3&#45;&gt;Node1 -->
<g id="edge2_Node000001_Node000003" class="edge">
<title>Node3&#45;&gt;Node1</title>
<g id="a_edge2_Node000001_Node000003"><a xlink:title=" ">
<path fill="none" stroke="#9a32cd" stroke-dasharray="5,2" d="M200.6,-93.76C179,-79.39 145.49,-57.09 121.41,-41.07"/>
<polygon fill="#9a32cd" stroke="#9a32cd" points="198.8,-96.76 209.06,-99.39 202.67,-90.94 198.8,-96.76"/>
</a>
</g>
<text text-anchor="start" x="175.5" y="-64.5" font-family="Helvetica,sans-Serif" font-size="10.00" fill="grey">actorList</text>
</g>
<!-- Node4 -->
<g id="Node000004" class="node">
<title>Node4</title>
<g id="a_Node000004"><a xlink:href="struct_acts_1_1_actor_list.html" target="_top" xlink:title="ActorList implementation to be used with the propagator.">
<polygon fill="white" stroke="#666666" points="296,-196 148,-196 148,-177 296,-177 296,-196"/>
<text text-anchor="middle" x="222" y="-184" font-family="Helvetica,sans-Serif" font-size="10.00">Acts::ActorList&lt; actors_t &gt;</text>
</a>
</g>
</g>
<!-- Node4&#45;&gt;Node3 -->
<g id="edge3_Node000003_Node000004" class="edge">
<title>Node4&#45;&gt;Node3</title>
<g id="a_edge3_Node000003_Node000004"><a xlink:title=" ">
<path fill="none" stroke="orange" stroke-dasharray="5,2" d="M222,-166.4C222,-151.01 222,-130.11 222,-118.56"/>
<polygon fill="orange" stroke="orange" points="218.5,-166.84 222,-176.84 225.5,-166.84 218.5,-166.84"/>
</a>
</g>
<text text-anchor="start" x="225.5" y="-147.5" font-family="Helvetica,sans-Serif" font-size="10.00" fill="grey">&lt;&gt;</text>
</g>
</g>
</svg>
