<?xml version="1.0" encoding="UTF-8" standalone="no"?>
<!DOCTYPE svg PUBLIC "-//W3C//DTD SVG 1.1//EN"
 "http://www.w3.org/Graphics/SVG/1.1/DTD/svg11.dtd">
<!-- Generated by graphviz version 2.43.0 (0)
 -->
<!-- Title: ActsPlugins::DD4hepLayerBuilder::Config Pages: 1 -->
<svg width="718pt" height="150pt"
 viewBox="0.00 0.00 718.00 150.00" xmlns="http://www.w3.org/2000/svg" xmlns:xlink="http://www.w3.org/1999/xlink">
<g id="graph0" class="graph" transform="scale(1 1) rotate(0) translate(4 146)">
<title>ActsPlugins::DD4hepLayerBuilder::Config</title>
<!-- Node1 -->
<g id="Node000001" class="node">
<title>Node1</title>
<g id="a_Node000001"><a xlink:title="nested configuration struct for steering of the layer builder">
<polygon fill="#999999" stroke="#666666" points="710,-100 565,-100 565,-70 710,-70 710,-100"/>
<text text-anchor="start" x="573" y="-88" font-family="Helvetica,sans-Serif" font-size="10.00">ActsPlugins::DD4hepLayer</text>
<text text-anchor="middle" x="637.5" y="-77" font-family="Helvetica,sans-Serif" font-size="10.00">Builder::Config</text>
</a>
</g>
</g>
<!-- Node2 -->
<g id="Node000002" class="node">
<title>Node2</title>
<g id="a_Node000002"><a xlink:title=" ">
<polygon fill="white" stroke="#666666" points="398,-136.5 333,-136.5 333,-117.5 398,-117.5 398,-136.5"/>
<text text-anchor="middle" x="365.5" y="-124.5" font-family="Helvetica,sans-Serif" font-size="10.00">std::string</text>
</a>
</g>
</g>
<!-- Node2&#45;&gt;Node1 -->
<g id="edge1_Node000001_Node000002" class="edge">
<title>Node2&#45;&gt;Node1</title>
<g id="a_edge1_Node000001_Node000002"><a xlink:title=" ">
<path fill="none" stroke="#9a32cd" stroke-dasharray="5,2" d="M408.56,-122.63C445.23,-118.59 499.8,-112 547,-104 554.05,-102.81 561.38,-101.44 568.69,-100.01"/>
<polygon fill="#9a32cd" stroke="#9a32cd" points="407.81,-119.2 398.24,-123.76 408.56,-126.15 407.81,-119.2"/>
</a>
</g>
<text text-anchor="start" x="450" y="-122.5" font-family="Helvetica,sans-Serif" font-size="10.00" fill="grey">configurationName</text>
</g>
<!-- Node3 -->
<g id="Node000003" class="node">
<title>Node3</title>
<g id="a_Node000003"><a xlink:title=" ">
<polygon fill="white" stroke="#666666" points="111,-142 7,-142 7,-112 111,-112 111,-142"/>
<text text-anchor="start" x="15" y="-130" font-family="Helvetica,sans-Serif" font-size="10.00">std::basic_string&lt;</text>
<text text-anchor="middle" x="59" y="-119" font-family="Helvetica,sans-Serif" font-size="10.00"> Char &gt;</text>
</a>
</g>
</g>
<!-- Node3&#45;&gt;Node2 -->
<g id="edge2_Node000002_Node000003" class="edge">
<title>Node3&#45;&gt;Node2</title>
<g id="a_edge2_Node000002_Node000003"><a xlink:title=" ">
<path fill="none" stroke="#63b8ff" d="M121.65,-127C185.51,-127 282.79,-127 332.63,-127"/>
<polygon fill="#63b8ff" stroke="#63b8ff" points="121.31,-123.5 111.31,-127 121.31,-130.5 121.31,-123.5"/>
</a>
</g>
</g>
<!-- Node4 -->
<g id="Node000004" class="node">
<title>Node4</title>
<g id="a_Node000004"><a xlink:title=" ">
<polygon fill="white" stroke="#666666" points="429,-99 302,-99 302,-69 429,-69 429,-99"/>
<text text-anchor="start" x="310" y="-87" font-family="Helvetica,sans-Serif" font-size="10.00">std::shared_ptr&lt; const</text>
<text text-anchor="middle" x="365.5" y="-76" font-family="Helvetica,sans-Serif" font-size="10.00"> Acts::LayerCreator &gt;</text>
</a>
</g>
</g>
<!-- Node4&#45;&gt;Node1 -->
<g id="edge3_Node000001_Node000004" class="edge">
<title>Node4&#45;&gt;Node1</title>
<g id="a_edge3_Node000001_Node000004"><a xlink:title=" ">
<path fill="none" stroke="#9a32cd" stroke-dasharray="5,2" d="M439.33,-84.27C478.22,-84.41 525.93,-84.59 564.68,-84.73"/>
<polygon fill="#9a32cd" stroke="#9a32cd" points="439.13,-80.77 429.12,-84.23 439.11,-87.77 439.13,-80.77"/>
</a>
</g>
<text text-anchor="start" x="467" y="-89.5" font-family="Helvetica,sans-Serif" font-size="10.00" fill="grey">layerCreator</text>
</g>
<!-- Node5 -->
<g id="Node000005" class="node">
<title>Node5</title>
<g id="a_Node000005"><a xlink:title=" ">
<polygon fill="white" stroke="#666666" points="118,-93.5 0,-93.5 0,-74.5 118,-74.5 118,-93.5"/>
<text text-anchor="middle" x="59" y="-81.5" font-family="Helvetica,sans-Serif" font-size="10.00">std::shared_ptr&lt; T &gt;</text>
</a>
</g>
</g>
<!-- Node5&#45;&gt;Node4 -->
<g id="edge4_Node000004_Node000005" class="edge">
<title>Node5&#45;&gt;Node4</title>
<g id="a_edge4_Node000004_Node000005"><a xlink:title=" ">
<path fill="none" stroke="orange" stroke-dasharray="5,2" d="M128.49,-84C180.48,-84 251.4,-84 301.89,-84"/>
<polygon fill="orange" stroke="orange" points="128.35,-80.5 118.35,-84 128.35,-87.5 128.35,-80.5"/>
</a>
</g>
<text text-anchor="start" x="139" y="-89.5" font-family="Helvetica,sans-Serif" font-size="10.00" fill="grey">&lt; const Acts::LayerCreator &gt;</text>
</g>
<!-- Node6 -->
<g id="Node000006" class="node">
<title>Node6</title>
<g id="a_Node000006"><a xlink:title=" ">
<polygon fill="white" stroke="#666666" points="423.5,-30 307.5,-30 307.5,0 423.5,0 423.5,-30"/>
<text text-anchor="start" x="315.5" y="-18" font-family="Helvetica,sans-Serif" font-size="10.00">std::vector&lt; dd4hep</text>
<text text-anchor="middle" x="365.5" y="-7" font-family="Helvetica,sans-Serif" font-size="10.00">::DetElement &gt;</text>
</a>
</g>
</g>
<!-- Node6&#45;&gt;Node1 -->
<g id="edge5_Node000001_Node000006" class="edge">
<title>Node6&#45;&gt;Node1</title>
<g id="a_edge5_Node000001_Node000006"><a xlink:title=" ">
<path fill="none" stroke="#9a32cd" stroke-dasharray="5,2" d="M434.3,-14.97C468.76,-16.65 510.88,-21.32 547,-33 572.65,-41.3 598.97,-57.72 616.36,-69.9"/>
<polygon fill="#9a32cd" stroke="#9a32cd" points="434,-11.46 423.87,-14.54 433.71,-18.45 434,-11.46"/>
</a>
</g>
<text text-anchor="start" x="459" y="-68.5" font-family="Helvetica,sans-Serif" font-size="10.00" fill="grey">centralLayers</text>
<text text-anchor="start" x="459" y="-53.5" font-family="Helvetica,sans-Serif" font-size="10.00" fill="grey">negativeLayers</text>
<text text-anchor="start" x="459" y="-38.5" font-family="Helvetica,sans-Serif" font-size="10.00" fill="grey">positiveLayers</text>
</g>
<!-- Node7 -->
<g id="Node000007" class="node">
<title>Node7</title>
<g id="a_Node000007"><a xlink:title=" ">
<polygon fill="white" stroke="#666666" points="107.5,-24.5 10.5,-24.5 10.5,-5.5 107.5,-5.5 107.5,-24.5"/>
<text text-anchor="middle" x="59" y="-12.5" font-family="Helvetica,sans-Serif" font-size="10.00">std::vector&lt; T &gt;</text>
</a>
</g>
</g>
<!-- Node7&#45;&gt;Node6 -->
<g id="edge6_Node000006_Node000007" class="edge">
<title>Node7&#45;&gt;Node6</title>
<g id="a_edge6_Node000006_Node000007"><a xlink:title=" ">
<path fill="none" stroke="orange" stroke-dasharray="5,2" d="M117.75,-15C172.16,-15 253.21,-15 307.4,-15"/>
<polygon fill="orange" stroke="orange" points="117.58,-11.5 107.58,-15 117.58,-18.5 117.58,-11.5"/>
</a>
</g>
<text text-anchor="start" x="149" y="-20.5" font-family="Helvetica,sans-Serif" font-size="10.00" fill="grey">&lt; dd4hep::DetElement &gt;</text>
</g>
</g>
</svg>
