<?xml version="1.0" encoding="UTF-8" standalone="no"?>
<!DOCTYPE svg PUBLIC "-//W3C//DTD SVG 1.1//EN"
 "http://www.w3.org/Graphics/SVG/1.1/DTD/svg11.dtd">
<!-- Generated by graphviz version 2.43.0 (0)
 -->
<!-- Title: Acts::KalmanFitterExtensions&lt; traj_t &gt; Pages: 1 -->
<!--zoomable 341 -->

<svg id="main" version="1.1" xmlns="http://www.w3.org/2000/svg" xmlns:xlink="http://www.w3.org/1999/xlink" xml:space="preserve" onload="init(evt)">

<style type="text/css"><![CDATA[
.node, .edge {opacity: 0.7;}
.node.selected, .edge.selected {opacity: 1;}
.edge:hover path { stroke: red; }
.edge:hover polygon { stroke: red; fill: red; }
]]></style>

<defs>
  <circle id="rim" cx="0" cy="0" r="7"/>
  <circle id="rim2" cx="0" cy="0" r="3.5"/>
  <g id="zoomPlus">
    <use xlink:href="#rim" fill="#404040"><set attributeName="fill" to="#808080" begin="zoomplus.mouseover" end="zoomplus.mouseout"/></use>
    <path d="M-4,0h8M0,-4v8" fill="none" stroke="white" stroke-width="1.5" pointer-events="none"/>
  </g>
  <g id="zoomMin">
    <use xlink:href="#rim" fill="#404040"><set attributeName="fill" to="#808080" begin="zoomminus.mouseover" end="zoomminus.mouseout"/></use>
    <path d="M-4,0h8" fill="none" stroke="white" stroke-width="1.5" pointer-events="none"/>
  </g>
  <g id="arrowUp" transform="translate(30 24)">
    <use xlink:href="#rim"/>
    <path pointer-events="none" fill="none" stroke="white" stroke-width="1.5" d="M0,-3.0v7 M-2.5,-0.5L0,-3.0L2.5,-0.5"/>
  </g>
  <g id="arrowRight" transform="rotate(90) translate(36 -43)">
    <use xlink:href="#rim"/>
    <path pointer-events="none" fill="none" stroke="white" stroke-width="1.5" d="M0,-3.0v7 M-2.5,-0.5L0,-3.0L2.5,-0.5"/>
  </g>
  <g id="arrowDown" transform="rotate(180) translate(-30 -48)">
    <use xlink:href="#rim"/>
    <path pointer-events="none" fill="none" stroke="white" stroke-width="1.5" d="M0,-3.0v7 M-2.5,-0.5L0,-3.0L2.5,-0.5"/>
  </g>
  <g id="arrowLeft" transform="rotate(270) translate(-36 17)">
    <use xlink:href="#rim"/>
    <path pointer-events="none" fill="none" stroke="white" stroke-width="1.5" d="M0,-3.0v7 M-2.5,-0.5L0,-3.0L2.5,-0.5"/>
  </g>
  <g id="resetDef">
    <use xlink:href="#rim2" fill="#404040"><set attributeName="fill" to="#808080" begin="reset.mouseover" end="reset.mouseout"/></use>
  </g>
</defs>
<script type="application/ecmascript">
var viewWidth = 943;
var viewHeight = 341;
var sectionId = 'dynsection-1';
</script>
<script type="application/ecmascript" xlink:href="svg.min.js"/>
<svg id="graph" class="graph">
<g id="viewport">
<title>Acts::KalmanFitterExtensions&lt; traj_t &gt;</title>
<!-- Node1 -->
<g id="Node000001" class="node">
<title>Node1</title>
<g id="a_Node000001"><a xlink:title="Extension struct which holds delegates to customise the KF behavior.">
<polygon fill="#999999" stroke="#666666" points="935,-162.21 775,-162.21 775,-132.21 935,-132.21 935,-162.21"/>
<text text-anchor="start" x="783" y="-150.21" font-family="Helvetica,sans-Serif" font-size="10.00">Acts::KalmanFitterExtensions</text>
<text text-anchor="middle" x="855" y="-139.21" font-family="Helvetica,sans-Serif" font-size="10.00">&lt; traj_t &gt;</text>
</a>
</g>
</g>
<!-- Node2 -->
<g id="Node000002" class="node">
<title>Node2</title>
<g id="a_Node000002"><a xlink:href="class_acts_1_1_delegate.html" target="_top" xlink:title=" ">
<polygon fill="white" stroke="#666666" points="605,-296.21 432,-296.21 432,-266.21 605,-266.21 605,-296.21"/>
<text text-anchor="start" x="440" y="-284.21" font-family="Helvetica,sans-Serif" font-size="10.00">Acts::Delegate&lt; const</text>
<text text-anchor="middle" x="518.5" y="-273.21" font-family="Helvetica,sans-Serif" font-size="10.00"> Surface *(const SourceLink &amp;)&gt;</text>
</a>
</g>
</g>
<!-- Node2&#45;&gt;Node1 -->
<g id="edge1_Node000001_Node000002" class="edge">
<title>Node2&#45;&gt;Node1</title>
<g id="a_edge1_Node000001_Node000002"><a xlink:title=" ">
<path fill="none" stroke="#9a32cd" stroke-dasharray="5,2" d="M600.35,-263.76C647.41,-251.97 707.11,-234.16 757,-210.21 785.24,-196.65 815.08,-176.22 834.09,-162.33"/>
<polygon fill="#9a32cd" stroke="#9a32cd" points="599.37,-260.39 590.5,-266.18 601.05,-267.19 599.37,-260.39"/>
</a>
</g>
<text text-anchor="start" x="662.5" y="-255.71" font-family="Helvetica,sans-Serif" font-size="10.00" fill="grey">surfaceAccessor</text>
</g>
<!-- Node3 -->
<g id="Node000003" class="node">
<title>Node3</title>
<g id="a_Node000003"><a xlink:href="class_acts_1_1_delegate.html" target="_top" xlink:title=" ">
<polygon fill="white" stroke="#666666" points="152,-162.21 0,-162.21 0,-132.21 152,-132.21 152,-162.21"/>
<text text-anchor="start" x="8" y="-150.21" font-family="Helvetica,sans-Serif" font-size="10.00">Acts::Delegate&lt; typename,</text>
<text text-anchor="middle" x="76" y="-139.21" font-family="Helvetica,sans-Serif" font-size="10.00"> H, DelegateType &gt;</text>
</a>
</g>
</g>
<!-- Node3&#45;&gt;Node2 -->
<g id="edge2_Node000002_Node000003" class="edge">
<title>Node3&#45;&gt;Node2</title>
<g id="a_edge2_Node000002_Node000003"><a xlink:title=" ">
<path fill="none" stroke="orange" stroke-dasharray="5,2" d="M88.32,-171.81C102.8,-200.05 130.78,-245.05 170,-265.21 251.52,-307.09 358.5,-304.94 432.11,-296.25"/>
<polygon fill="orange" stroke="orange" points="91.33,-170.01 83.77,-162.59 85.06,-173.11 91.33,-170.01"/>
</a>
</g>
<text text-anchor="start" x="221.5" y="-322.21" font-family="Helvetica,sans-Serif" font-size="10.00" fill="grey">&lt; const Surface *(const</text>
<text text-anchor="start" x="221.5" y="-307.21" font-family="Helvetica,sans-Serif" font-size="10.00" fill="grey">   SourceLink &amp;)&gt;</text>
</g>
<!-- Node4 -->
<g id="Node000004" class="node">
<title>Node4</title>
<g id="a_Node000004"><a xlink:href="class_acts_1_1_delegate.html" target="_top" xlink:title=" ">
<polygon fill="white" stroke="#666666" points="630,-243.21 407,-243.21 407,-191.21 630,-191.21 630,-243.21"/>
<text text-anchor="start" x="415" y="-231.21" font-family="Helvetica,sans-Serif" font-size="10.00">Acts::Delegate&lt; void</text>
<text text-anchor="start" x="415" y="-220.21" font-family="Helvetica,sans-Serif" font-size="10.00">(const GeometryContext</text>
<text text-anchor="start" x="415" y="-209.21" font-family="Helvetica,sans-Serif" font-size="10.00"> &amp;, const CalibrationContext</text>
<text text-anchor="middle" x="518.5" y="-198.21" font-family="Helvetica,sans-Serif" font-size="10.00"> &amp;, const SourceLink &amp;, TrackStateProxy)&gt;</text>
</a>
</g>
</g>
<!-- Node3&#45;&gt;Node4 -->
<g id="edge4_Node000004_Node000003" class="edge">
<title>Node3&#45;&gt;Node4</title>
<g id="a_edge4_Node000004_Node000003"><a xlink:title=" ">
<path fill="none" stroke="orange" stroke-dasharray="5,2" d="M108.22,-167.46C125.67,-177.69 148.23,-189.18 170,-195.21 213.04,-207.11 322.15,-212.6 406.73,-215.12"/>
<polygon fill="orange" stroke="orange" points="109.97,-164.42 99.59,-162.26 106.35,-170.42 109.97,-164.42"/>
</a>
</g>
<text text-anchor="start" x="173.5" y="-249.71" font-family="Helvetica,sans-Serif" font-size="10.00" fill="grey">&lt; void(const GeometryContext</text>
<text text-anchor="start" x="173.5" y="-234.71" font-family="Helvetica,sans-Serif" font-size="10.00" fill="grey">   &amp;, const CalibrationContext</text>
<text text-anchor="start" x="173.5" y="-219.71" font-family="Helvetica,sans-Serif" font-size="10.00" fill="grey">   &amp;, const SourceLink &amp;, TrackStateProxy)&gt;</text>
</g>
<!-- Node5 -->
<g id="Node000005" class="node">
<title>Node5</title>
<g id="a_Node000005"><a xlink:href="class_acts_1_1_delegate.html" target="_top" xlink:title=" ">
<polygon fill="white" stroke="#666666" points="608.5,-173.21 428.5,-173.21 428.5,-121.21 608.5,-121.21 608.5,-173.21"/>
<text text-anchor="start" x="436.5" y="-161.21" font-family="Helvetica,sans-Serif" font-size="10.00">Acts::Delegate&lt; Result</text>
<text text-anchor="start" x="436.5" y="-150.21" font-family="Helvetica,sans-Serif" font-size="10.00">&lt; void &gt;(const GeometryContext</text>
<text text-anchor="start" x="436.5" y="-139.21" font-family="Helvetica,sans-Serif" font-size="10.00"> &amp;, TrackStateProxy, const</text>
<text text-anchor="middle" x="518.5" y="-128.21" font-family="Helvetica,sans-Serif" font-size="10.00"> Logger &amp;)&gt;</text>
</a>
</g>
</g>
<!-- Node3&#45;&gt;Node5 -->
<g id="edge6_Node000005_Node000003" class="edge">
<title>Node3&#45;&gt;Node5</title>
<g id="a_edge6_Node000005_Node000003"><a xlink:title=" ">
<path fill="none" stroke="orange" stroke-dasharray="5,2" d="M162.3,-147.21C238.75,-147.21 350.49,-147.21 428.15,-147.21"/>
<polygon fill="orange" stroke="orange" points="162.22,-143.71 152.22,-147.21 162.22,-150.71 162.22,-143.71"/>
</a>
</g>
<text text-anchor="start" x="197.5" y="-182.71" font-family="Helvetica,sans-Serif" font-size="10.00" fill="grey">&lt; Result&lt; void &gt;(const</text>
<text text-anchor="start" x="197.5" y="-167.71" font-family="Helvetica,sans-Serif" font-size="10.00" fill="grey">   GeometryContext &amp;, TrackState</text>
<text text-anchor="start" x="197.5" y="-152.71" font-family="Helvetica,sans-Serif" font-size="10.00" fill="grey">  Proxy, const Logger &amp;)&gt;</text>
</g>
<!-- Node6 -->
<g id="Node000006" class="node">
<title>Node6</title>
<g id="a_Node000006"><a xlink:href="class_acts_1_1_delegate.html" target="_top" xlink:title=" ">
<polygon fill="white" stroke="#666666" points="588,-103.21 449,-103.21 449,-73.21 588,-73.21 588,-103.21"/>
<text text-anchor="start" x="457" y="-91.21" font-family="Helvetica,sans-Serif" font-size="10.00">Acts::Delegate&lt; bool</text>
<text text-anchor="middle" x="518.5" y="-80.21" font-family="Helvetica,sans-Serif" font-size="10.00">(ConstTrackStateProxy)&gt;</text>
</a>
</g>
</g>
<!-- Node3&#45;&gt;Node6 -->
<g id="edge8_Node000006_Node000003" class="edge">
<title>Node3&#45;&gt;Node6</title>
<g id="a_edge8_Node000006_Node000003"><a xlink:title=" ">
<path fill="none" stroke="orange" stroke-dasharray="5,2" d="M149.28,-130.05C156.26,-128.64 163.25,-127.33 170,-126.21 266.23,-110.13 378.62,-99.26 448.94,-93.4"/>
<polygon fill="orange" stroke="orange" points="148.17,-126.7 139.09,-132.16 149.59,-133.56 148.17,-126.7"/>
</a>
</g>
<text text-anchor="start" x="202.5" y="-131.71" font-family="Helvetica,sans-Serif" font-size="10.00" fill="grey">&lt; bool(ConstTrackStateProxy)&gt;</text>
</g>
<!-- Node7 -->
<g id="Node000007" class="node">
<title>Node7</title>
<g id="a_Node000007"><a xlink:title=" ">
<polygon fill="white" stroke="#666666" points="608.5,-52.21 428.5,-52.21 428.5,-0.21 608.5,-0.21 608.5,-52.21"/>
<text text-anchor="start" x="436.5" y="-40.21" font-family="Helvetica,sans-Serif" font-size="10.00">Acts::Delegate&lt; Result</text>
<text text-anchor="start" x="436.5" y="-29.21" font-family="Helvetica,sans-Serif" font-size="10.00">&lt; void &gt;(const GeometryContext</text>
<text text-anchor="start" x="436.5" y="-18.21" font-family="Helvetica,sans-Serif" font-size="10.00"> &amp;, traj_t &amp;, std::size_t,</text>
<text text-anchor="middle" x="518.5" y="-7.21" font-family="Helvetica,sans-Serif" font-size="10.00"> const Logger &amp;)&gt;</text>
</a>
</g>
</g>
<!-- Node3&#45;&gt;Node7 -->
<g id="edge10_Node000007_Node000003" class="edge">
<title>Node3&#45;&gt;Node7</title>
<g id="a_edge10_Node000007_Node000003"><a xlink:title=" ">
<path fill="none" stroke="orange" stroke-dasharray="5,2" d="M88.39,-123.02C102.94,-95.29 130.99,-51.25 170,-32.21 250.8,7.22 355.26,2.79 428.47,-7.81"/>
<polygon fill="orange" stroke="orange" points="85.2,-121.57 83.81,-132.07 91.45,-124.73 85.2,-121.57"/>
</a>
</g>
<text text-anchor="start" x="214.5" y="-83.21" font-family="Helvetica,sans-Serif" font-size="10.00" fill="grey">&lt; Result&lt; void &gt;(const</text>
<text text-anchor="start" x="214.5" y="-68.21" font-family="Helvetica,sans-Serif" font-size="10.00" fill="grey">   GeometryContext &amp;, traj</text>
<text text-anchor="start" x="214.5" y="-53.21" font-family="Helvetica,sans-Serif" font-size="10.00" fill="grey">  _t &amp;, std::size_t, const</text>
<text text-anchor="start" x="214.5" y="-38.21" font-family="Helvetica,sans-Serif" font-size="10.00" fill="grey">   Logger &amp;)&gt;</text>
</g>
<!-- Node4&#45;&gt;Node1 -->
<g id="edge3_Node000001_Node000004" class="edge">
<title>Node4&#45;&gt;Node1</title>
<g id="a_edge3_Node000001_Node000004"><a xlink:title=" ">
<path fill="none" stroke="#9a32cd" stroke-dasharray="5,2" d="M640.06,-192.57C677.54,-184.85 719,-176.24 757,-168.21 766.02,-166.3 775.5,-164.27 784.87,-162.26"/>
<polygon fill="#9a32cd" stroke="#9a32cd" points="639.2,-189.17 630.11,-194.62 640.61,-196.03 639.2,-189.17"/>
</a>
</g>
<text text-anchor="start" x="679.5" y="-194.71" font-family="Helvetica,sans-Serif" font-size="10.00" fill="grey">calibrator</text>
</g>
<!-- Node5&#45;&gt;Node1 -->
<g id="edge5_Node000001_Node000005" class="edge">
<title>Node5&#45;&gt;Node1</title>
<g id="a_edge5_Node000001_Node000005"><a xlink:title=" ">
<path fill="none" stroke="#9a32cd" stroke-dasharray="5,2" d="M618.84,-147.21C668.63,-147.21 728.08,-147.21 774.75,-147.21"/>
<polygon fill="#9a32cd" stroke="#9a32cd" points="618.7,-143.71 608.7,-147.21 618.7,-150.71 618.7,-143.71"/>
</a>
</g>
<text text-anchor="start" x="683.5" y="-152.71" font-family="Helvetica,sans-Serif" font-size="10.00" fill="grey">updater</text>
</g>
<!-- Node6&#45;&gt;Node1 -->
<g id="edge7_Node000001_Node000006" class="edge">
<title>Node6&#45;&gt;Node1</title>
<g id="a_edge7_Node000001_Node000006"><a xlink:title=" ">
<path fill="none" stroke="#9a32cd" stroke-dasharray="5,2" d="M598.12,-90.72C644.77,-93.46 704.81,-99.21 757,-111.21 778.53,-116.16 801.77,-124.66 820.1,-132.16"/>
<polygon fill="#9a32cd" stroke="#9a32cd" points="598.25,-87.22 588.07,-90.16 597.86,-94.21 598.25,-87.22"/>
</a>
</g>
<text text-anchor="start" x="651.5" y="-132.21" font-family="Helvetica,sans-Serif" font-size="10.00" fill="grey">outlierFinder</text>
<text text-anchor="start" x="651.5" y="-117.21" font-family="Helvetica,sans-Serif" font-size="10.00" fill="grey">reverseFilteringLogic</text>
</g>
<!-- Node7&#45;&gt;Node1 -->
<g id="edge9_Node000001_Node000007" class="edge">
<title>Node7&#45;&gt;Node1</title>
<g id="a_edge9_Node000001_Node000007"><a xlink:title=" ">
<path fill="none" stroke="#9a32cd" stroke-dasharray="5,2" d="M618.82,-35.6C662.61,-42.3 713.81,-53.73 757,-73.21 789.44,-87.83 821.08,-115.13 838.99,-132.17"/>
<polygon fill="#9a32cd" stroke="#9a32cd" points="619.14,-32.1 608.73,-34.11 618.12,-39.03 619.14,-32.1"/>
</a>
</g>
<text text-anchor="start" x="679.5" y="-78.71" font-family="Helvetica,sans-Serif" font-size="10.00" fill="grey">smoother</text>
</g>
</g>
</svg>

<g id="navigator" transform="translate(0 0)" fill="#404254">
  <rect fill="#f2f5e9" fill-opacity="0.5" stroke="#606060" stroke-width=".5" x="0" y="0" width="60" height="60"/>
  <use id="zoomplus" xlink:href="#zoomPlus" x="17" y="9" onmousedown="handleZoom(evt,'in')"/>
  <use id="zoomminus" xlink:href="#zoomMin" x="42" y="9" onmousedown="handleZoom(evt,'out')"/>
  <use id="reset" xlink:href="#resetDef" x="30" y="36" onmousedown="handleReset()"/>
   <use id="arrowup" xlink:href="#arrowUp" x="0" y="0" onmousedown="handlePan(0,-1)"/>
  <use id="arrowright" xlink:href="#arrowRight" x="0" y="0" onmousedown="handlePan(1,0)"/>
  <use id="arrowdown" xlink:href="#arrowDown" x="0" y="0" onmousedown="handlePan(0,1)"/>
  <use id="arrowleft" xlink:href="#arrowLeft" x="0" y="0" onmousedown="handlePan(-1,0)"/>
</g>
<svg viewBox="0 0 15 15" width="100%" height="30px" preserveAspectRatio="xMaxYMin meet">
 <g id="arrow_out" transform="scale(0.3 0.3)">
  <a xlink:href="struct_acts_1_1_kalman_fitter_extensions__coll__graph_org.svg" target="_base">
   <rect id="button" ry="5" rx="5" y="6" x="6" height="38" width="38"
        fill="#f2f5e9" fill-opacity="0.5" stroke="#606060" stroke-width="1.0"/>
   <path id="arrow"
     d="M 11.500037,31.436501 C 11.940474,20.09759 22.043105,11.32322 32.158766,21.979434 L 37.068811,17.246167 C 37.068811,17.246167 37.088388,32 37.088388,32 L 22.160133,31.978069 C 22.160133,31.978069 26.997745,27.140456 26.997745,27.140456 C 18.528582,18.264221 13.291696,25.230495 11.500037,31.436501 z"
     style="fill:#404040;"/>
  </a>
 </g>
</svg>

<style type='text/css'>
<![CDATA[
[data-mouse-over-selected='false'] { opacity: 0.7; }
[data-mouse-over-selected='true']  { opacity: 1.0; }
]]>
</style>
<script type="application/ecmascript"><![CDATA[
document.addEventListener('DOMContentLoaded', (event) => {
  highlightEdges();
  highlightAdjacentNodes();
});
]]></script>
</svg>
