<?xml version="1.0" encoding="UTF-8" standalone="no"?>
<!DOCTYPE svg PUBLIC "-//W3C//DTD SVG 1.1//EN"
 "http://www.w3.org/Graphics/SVG/1.1/DTD/svg11.dtd">
<!-- Generated by graphviz version 2.43.0 (0)
 -->
<!-- Title: Acts::IsReadOnlyTrackContainer&lt; T &gt; Pages: 1 -->
<!--zoomable 199 -->

<svg id="main" version="1.1" xmlns="http://www.w3.org/2000/svg" xmlns:xlink="http://www.w3.org/1999/xlink" xml:space="preserve" onload="init(evt)">

<style type="text/css"><![CDATA[
.node, .edge {opacity: 0.7;}
.node.selected, .edge.selected {opacity: 1;}
.edge:hover path { stroke: red; }
.edge:hover polygon { stroke: red; fill: red; }
]]></style>

<defs>
  <circle id="rim" cx="0" cy="0" r="7"/>
  <circle id="rim2" cx="0" cy="0" r="3.5"/>
  <g id="zoomPlus">
    <use xlink:href="#rim" fill="#404040"><set attributeName="fill" to="#808080" begin="zoomplus.mouseover" end="zoomplus.mouseout"/></use>
    <path d="M-4,0h8M0,-4v8" fill="none" stroke="white" stroke-width="1.5" pointer-events="none"/>
  </g>
  <g id="zoomMin">
    <use xlink:href="#rim" fill="#404040"><set attributeName="fill" to="#808080" begin="zoomminus.mouseover" end="zoomminus.mouseout"/></use>
    <path d="M-4,0h8" fill="none" stroke="white" stroke-width="1.5" pointer-events="none"/>
  </g>
  <g id="arrowUp" transform="translate(30 24)">
    <use xlink:href="#rim"/>
    <path pointer-events="none" fill="none" stroke="white" stroke-width="1.5" d="M0,-3.0v7 M-2.5,-0.5L0,-3.0L2.5,-0.5"/>
  </g>
  <g id="arrowRight" transform="rotate(90) translate(36 -43)">
    <use xlink:href="#rim"/>
    <path pointer-events="none" fill="none" stroke="white" stroke-width="1.5" d="M0,-3.0v7 M-2.5,-0.5L0,-3.0L2.5,-0.5"/>
  </g>
  <g id="arrowDown" transform="rotate(180) translate(-30 -48)">
    <use xlink:href="#rim"/>
    <path pointer-events="none" fill="none" stroke="white" stroke-width="1.5" d="M0,-3.0v7 M-2.5,-0.5L0,-3.0L2.5,-0.5"/>
  </g>
  <g id="arrowLeft" transform="rotate(270) translate(-36 17)">
    <use xlink:href="#rim"/>
    <path pointer-events="none" fill="none" stroke="white" stroke-width="1.5" d="M0,-3.0v7 M-2.5,-0.5L0,-3.0L2.5,-0.5"/>
  </g>
  <g id="resetDef">
    <use xlink:href="#rim2" fill="#404040"><set attributeName="fill" to="#808080" begin="reset.mouseover" end="reset.mouseout"/></use>
  </g>
</defs>
<script type="application/ecmascript">
var viewWidth = 645;
var viewHeight = 199;
var sectionId = 'dynsection-0';
</script>
<script type="application/ecmascript" xlink:href="svg.min.js"/>
<svg id="graph" class="graph">
<g id="viewport">
<title>Acts::IsReadOnlyTrackContainer&lt; T &gt;</title>
<!-- Node1 -->
<g id="Node000001" class="node">
<title>Node1</title>
<g id="a_Node000001"><a xlink:title=" ">
<polygon fill="#999999" stroke="#666666" points="200,-92.5 0,-92.5 0,-73.5 200,-73.5 200,-92.5"/>
<text text-anchor="middle" x="100" y="-80.5" font-family="Helvetica,sans-Serif" font-size="10.00">Acts::IsReadOnlyTrackContainer&lt; T &gt;</text>
</a>
</g>
</g>
<!-- Node2 -->
<g id="Node000002" class="node">
<title>Node2</title>
<g id="a_Node000002"><a xlink:href="struct_acts_1_1_is_read_only_track_container_3_01_acts_plugins_1_1_const_podio_track_container_01_4.html" target="_top" xlink:title=" ">
<polygon fill="white" stroke="#666666" points="631,-177 402,-177 402,-147 631,-147 631,-177"/>
<text text-anchor="start" x="410" y="-165" font-family="Helvetica,sans-Serif" font-size="10.00">Acts::IsReadOnlyTrackContainer</text>
<text text-anchor="middle" x="516.5" y="-154" font-family="Helvetica,sans-Serif" font-size="10.00">&lt; ActsPlugins::ConstPodioTrackContainer &gt;</text>
</a>
</g>
</g>
<!-- Node1&#45;&gt;Node2 -->
<g id="edge1_Node000001_Node000002" class="edge">
<title>Node1&#45;&gt;Node2</title>
<g id="a_edge1_Node000001_Node000002"><a xlink:title=" ">
<path fill="none" stroke="orange" stroke-dasharray="5,2" d="M125.75,-97.53C148.8,-110.29 184.54,-128.17 218,-137 277.51,-152.71 345.83,-159.23 401.97,-161.7"/>
<polygon fill="orange" stroke="orange" points="127.41,-94.45 116.98,-92.58 123.97,-100.54 127.41,-94.45"/>
</a>
</g>
<text text-anchor="start" x="234" y="-180" font-family="Helvetica,sans-Serif" font-size="10.00" fill="grey">&lt; ActsPlugins::ConstPodio</text>
<text text-anchor="start" x="234" y="-165" font-family="Helvetica,sans-Serif" font-size="10.00" fill="grey">  TrackContainer &gt;</text>
</g>
<!-- Node3 -->
<g id="Node000003" class="node">
<title>Node3</title>
<g id="a_Node000003"><a xlink:href="struct_acts_1_1_is_read_only_track_container_3_01_acts_plugins_1_1_mutable_podio_track_container_01_4.html" target="_top" xlink:title=" ">
<polygon fill="white" stroke="#666666" points="637,-126 396,-126 396,-96 637,-96 637,-126"/>
<text text-anchor="start" x="404" y="-114" font-family="Helvetica,sans-Serif" font-size="10.00">Acts::IsReadOnlyTrackContainer</text>
<text text-anchor="middle" x="516.5" y="-103" font-family="Helvetica,sans-Serif" font-size="10.00">&lt; ActsPlugins::MutablePodioTrackContainer &gt;</text>
</a>
</g>
</g>
<!-- Node1&#45;&gt;Node3 -->
<g id="edge2_Node000001_Node000003" class="edge">
<title>Node1&#45;&gt;Node3</title>
<g id="a_edge2_Node000001_Node000003"><a xlink:title=" ">
<path fill="none" stroke="orange" stroke-dasharray="5,2" d="M210.16,-90.37C267.26,-94.23 337.27,-98.96 395.85,-102.92"/>
<polygon fill="orange" stroke="orange" points="210.23,-86.87 200.02,-89.69 209.76,-93.86 210.23,-86.87"/>
</a>
</g>
<text text-anchor="start" x="228" y="-122" font-family="Helvetica,sans-Serif" font-size="10.00" fill="grey">&lt; ActsPlugins::MutablePodio</text>
<text text-anchor="start" x="228" y="-107" font-family="Helvetica,sans-Serif" font-size="10.00" fill="grey">  TrackContainer &gt;</text>
</g>
<!-- Node4 -->
<g id="Node000004" class="node">
<title>Node4</title>
<g id="a_Node000004"><a xlink:href="struct_acts_1_1_is_read_only_track_container_3_01_const_vector_track_container_01_4.html" target="_top" xlink:title=" ">
<polygon fill="white" stroke="#666666" points="602.5,-78 430.5,-78 430.5,-48 602.5,-48 602.5,-78"/>
<text text-anchor="start" x="438.5" y="-66" font-family="Helvetica,sans-Serif" font-size="10.00">Acts::IsReadOnlyTrackContainer</text>
<text text-anchor="middle" x="516.5" y="-55" font-family="Helvetica,sans-Serif" font-size="10.00">&lt; ConstVectorTrackContainer &gt;</text>
</a>
</g>
</g>
<!-- Node1&#45;&gt;Node4 -->
<g id="edge3_Node000001_Node000004" class="edge">
<title>Node1&#45;&gt;Node4</title>
<g id="a_edge3_Node000001_Node000004"><a xlink:title=" ">
<path fill="none" stroke="orange" stroke-dasharray="5,2" d="M175.4,-72.21C189.52,-70.51 204.19,-69 218,-68 289.49,-62.83 370.88,-61.8 430.43,-61.93"/>
<polygon fill="orange" stroke="orange" points="174.73,-68.76 165.24,-73.46 175.59,-75.71 174.73,-68.76"/>
</a>
</g>
<text text-anchor="start" x="221" y="-73.5" font-family="Helvetica,sans-Serif" font-size="10.00" fill="grey">&lt; ConstVectorTrackContainer &gt;</text>
</g>
<!-- Node5 -->
<g id="Node000005" class="node">
<title>Node5</title>
<g id="a_Node000005"><a xlink:href="struct_acts_1_1_is_read_only_track_container_3_01_vector_track_container_01_4.html" target="_top" xlink:title=" ">
<polygon fill="white" stroke="#666666" points="602.5,-30 430.5,-30 430.5,0 602.5,0 602.5,-30"/>
<text text-anchor="start" x="438.5" y="-18" font-family="Helvetica,sans-Serif" font-size="10.00">Acts::IsReadOnlyTrackContainer</text>
<text text-anchor="middle" x="516.5" y="-7" font-family="Helvetica,sans-Serif" font-size="10.00">&lt; VectorTrackContainer &gt;</text>
</a>
</g>
</g>
<!-- Node1&#45;&gt;Node5 -->
<g id="edge4_Node000001_Node000005" class="edge">
<title>Node1&#45;&gt;Node5</title>
<g id="a_edge4_Node000001_Node000005"><a xlink:title=" ">
<path fill="none" stroke="orange" stroke-dasharray="5,2" d="M131.83,-69.46C155.05,-59.88 187.93,-47.59 218,-41 288.52,-25.53 370.34,-19.2 430.31,-16.64"/>
<polygon fill="orange" stroke="orange" points="130.36,-66.28 122.5,-73.38 133.07,-72.74 130.36,-66.28"/>
</a>
</g>
<text text-anchor="start" x="235" y="-46.5" font-family="Helvetica,sans-Serif" font-size="10.00" fill="grey">&lt; VectorTrackContainer &gt;</text>
</g>
</g>
</svg>

<g id="navigator" transform="translate(0 0)" fill="#404254">
  <rect fill="#f2f5e9" fill-opacity="0.5" stroke="#606060" stroke-width=".5" x="0" y="0" width="60" height="60"/>
  <use id="zoomplus" xlink:href="#zoomPlus" x="17" y="9" onmousedown="handleZoom(evt,'in')"/>
  <use id="zoomminus" xlink:href="#zoomMin" x="42" y="9" onmousedown="handleZoom(evt,'out')"/>
  <use id="reset" xlink:href="#resetDef" x="30" y="36" onmousedown="handleReset()"/>
   <use id="arrowup" xlink:href="#arrowUp" x="0" y="0" onmousedown="handlePan(0,-1)"/>
  <use id="arrowright" xlink:href="#arrowRight" x="0" y="0" onmousedown="handlePan(1,0)"/>
  <use id="arrowdown" xlink:href="#arrowDown" x="0" y="0" onmousedown="handlePan(0,1)"/>
  <use id="arrowleft" xlink:href="#arrowLeft" x="0" y="0" onmousedown="handlePan(-1,0)"/>
</g>
<svg viewBox="0 0 15 15" width="100%" height="30px" preserveAspectRatio="xMaxYMin meet">
 <g id="arrow_out" transform="scale(0.3 0.3)">
  <a xlink:href="struct_acts_1_1_is_read_only_track_container__inherit__graph_org.svg" target="_base">
   <rect id="button" ry="5" rx="5" y="6" x="6" height="38" width="38"
        fill="#f2f5e9" fill-opacity="0.5" stroke="#606060" stroke-width="1.0"/>
   <path id="arrow"
     d="M 11.500037,31.436501 C 11.940474,20.09759 22.043105,11.32322 32.158766,21.979434 L 37.068811,17.246167 C 37.068811,17.246167 37.088388,32 37.088388,32 L 22.160133,31.978069 C 22.160133,31.978069 26.997745,27.140456 26.997745,27.140456 C 18.528582,18.264221 13.291696,25.230495 11.500037,31.436501 z"
     style="fill:#404040;"/>
  </a>
 </g>
</svg>

<style type='text/css'>
<![CDATA[
[data-mouse-over-selected='false'] { opacity: 0.7; }
[data-mouse-over-selected='true']  { opacity: 1.0; }
]]>
</style>
<script type="application/ecmascript"><![CDATA[
document.addEventListener('DOMContentLoaded', (event) => {
  highlightEdges();
  highlightAdjacentNodes();
});
]]></script>
</svg>
