<?xml version="1.0" encoding="UTF-8" standalone="no"?>
<!DOCTYPE svg PUBLIC "-//W3C//DTD SVG 1.1//EN"
 "http://www.w3.org/Graphics/SVG/1.1/DTD/svg11.dtd">
<!-- Generated by graphviz version 2.43.0 (0)
 -->
<!-- Title: Acts::WrappingConfig Pages: 1 -->
<svg width="934pt" height="186pt"
 viewBox="0.00 0.00 934.00 186.00" xmlns="http://www.w3.org/2000/svg" xmlns:xlink="http://www.w3.org/1999/xlink">
<g id="graph0" class="graph" transform="scale(1 1) rotate(0) translate(4 182)">
<title>Acts::WrappingConfig</title>
<!-- Node1 -->
<g id="Node000001" class="node">
<title>Node1</title>
<g id="a_Node000001"><a xlink:title="The WrappingSetup that is happening here.">
<polygon fill="#999999" stroke="#666666" points="926,-49.5 805,-49.5 805,-30.5 926,-30.5 926,-49.5"/>
<text text-anchor="middle" x="865.5" y="-37.5" font-family="Helvetica,sans-Serif" font-size="10.00">Acts::WrappingConfig</text>
</a>
</g>
</g>
<!-- Node2 -->
<g id="Node000002" class="node">
<title>Node2</title>
<g id="a_Node000002"><a xlink:href="struct_acts_1_1_volume_config.html" target="_top" xlink:title="VolumeConfig struct to understand the layer config.">
<polygon fill="white" stroke="#666666" points="649,-72.5 538,-72.5 538,-53.5 649,-53.5 649,-72.5"/>
<text text-anchor="middle" x="593.5" y="-60.5" font-family="Helvetica,sans-Serif" font-size="10.00">Acts::VolumeConfig</text>
</a>
</g>
</g>
<!-- Node2&#45;&gt;Node1 -->
<g id="edge1_Node000001_Node000002" class="edge">
<title>Node2&#45;&gt;Node1</title>
<g id="a_edge1_Node000001_Node000002"><a xlink:title=" ">
<path fill="none" stroke="#9a32cd" stroke-dasharray="5,2" d="M659.21,-57.49C703.45,-53.72 761.65,-48.76 804.78,-45.09"/>
<polygon fill="#9a32cd" stroke="#9a32cd" points="658.81,-54.01 649.14,-58.35 659.4,-60.98 658.81,-54.01"/>
</a>
</g>
<text text-anchor="start" x="670" y="-167" font-family="Helvetica,sans-Serif" font-size="10.00" fill="grey">cVolumeConfig</text>
<text text-anchor="start" x="670" y="-152" font-family="Helvetica,sans-Serif" font-size="10.00" fill="grey">containerVolumeConfig</text>
<text text-anchor="start" x="670" y="-137" font-family="Helvetica,sans-Serif" font-size="10.00" fill="grey">existingVolumeConfig</text>
<text text-anchor="start" x="670" y="-122" font-family="Helvetica,sans-Serif" font-size="10.00" fill="grey">externalVolumeConfig</text>
<text text-anchor="start" x="670" y="-107" font-family="Helvetica,sans-Serif" font-size="10.00" fill="grey">fGapVolumeConfig</text>
<text text-anchor="start" x="670" y="-92" font-family="Helvetica,sans-Serif" font-size="10.00" fill="grey">nVolumeConfig</text>
<text text-anchor="start" x="670" y="-77" font-family="Helvetica,sans-Serif" font-size="10.00" fill="grey">pVolumeConfig</text>
<text text-anchor="start" x="670" y="-62" font-family="Helvetica,sans-Serif" font-size="10.00" fill="grey">sGapVolumeConfig</text>
</g>
<!-- Node3 -->
<g id="Node000003" class="node">
<title>Node3</title>
<g id="a_Node000003"><a xlink:title=" ">
<polygon fill="white" stroke="#666666" points="438.5,-115.5 307.5,-115.5 307.5,-96.5 438.5,-96.5 438.5,-115.5"/>
<text text-anchor="middle" x="373" y="-103.5" font-family="Helvetica,sans-Serif" font-size="10.00">std::vector&lt; LayerPtr &gt;</text>
</a>
</g>
</g>
<!-- Node3&#45;&gt;Node2 -->
<g id="edge2_Node000002_Node000003" class="edge">
<title>Node3&#45;&gt;Node2</title>
<g id="a_edge2_Node000002_Node000003"><a xlink:title=" ">
<path fill="none" stroke="#9a32cd" stroke-dasharray="5,2" d="M448.6,-95.11C471.58,-91.39 496.91,-86.91 520,-82 532.73,-79.29 546.57,-75.8 558.72,-72.55"/>
<polygon fill="#9a32cd" stroke="#9a32cd" points="447.89,-91.68 438.57,-96.72 448.99,-98.59 447.89,-91.68"/>
</a>
</g>
<text text-anchor="start" x="480.5" y="-96.5" font-family="Helvetica,sans-Serif" font-size="10.00" fill="grey">layers</text>
</g>
<!-- Node4 -->
<g id="Node000004" class="node">
<title>Node4</title>
<g id="a_Node000004"><a xlink:title=" ">
<polygon fill="white" stroke="#666666" points="97,-93.5 0,-93.5 0,-74.5 97,-74.5 97,-93.5"/>
<text text-anchor="middle" x="48.5" y="-81.5" font-family="Helvetica,sans-Serif" font-size="10.00">std::vector&lt; T &gt;</text>
</a>
</g>
</g>
<!-- Node4&#45;&gt;Node3 -->
<g id="edge3_Node000003_Node000004" class="edge">
<title>Node4&#45;&gt;Node3</title>
<g id="a_edge3_Node000003_Node000004"><a xlink:title=" ">
<path fill="none" stroke="orange" stroke-dasharray="5,2" d="M107.23,-87.94C163.43,-91.77 248.71,-97.59 307.21,-101.58"/>
<polygon fill="orange" stroke="orange" points="107.3,-84.43 97.09,-87.25 106.82,-91.42 107.3,-84.43"/>
</a>
</g>
<text text-anchor="start" x="163" y="-103.5" font-family="Helvetica,sans-Serif" font-size="10.00" fill="grey">&lt; LayerPtr &gt;</text>
</g>
<!-- Node5 -->
<g id="Node000005" class="node">
<title>Node5</title>
<g id="a_Node000005"><a xlink:title=" ">
<polygon fill="white" stroke="#666666" points="453,-78 293,-78 293,-48 453,-48 453,-78"/>
<text text-anchor="start" x="301" y="-66" font-family="Helvetica,sans-Serif" font-size="10.00">std::vector&lt; MutableTracking</text>
<text text-anchor="middle" x="373" y="-55" font-family="Helvetica,sans-Serif" font-size="10.00">VolumePtr &gt;</text>
</a>
</g>
</g>
<!-- Node4&#45;&gt;Node5 -->
<g id="edge5_Node000005_Node000004" class="edge">
<title>Node4&#45;&gt;Node5</title>
<g id="a_edge5_Node000005_Node000004"><a xlink:title=" ">
<path fill="none" stroke="orange" stroke-dasharray="5,2" d="M87.59,-71.76C96.5,-69.4 106.01,-67.27 115,-66 174.21,-57.66 241.85,-57.23 292.87,-58.71"/>
<polygon fill="orange" stroke="orange" points="86.54,-68.42 77.86,-74.5 88.43,-75.16 86.54,-68.42"/>
</a>
</g>
<text text-anchor="start" x="118" y="-71.5" font-family="Helvetica,sans-Serif" font-size="10.00" fill="grey">&lt; MutableTrackingVolumePtr &gt;</text>
</g>
<!-- Node5&#45;&gt;Node2 -->
<g id="edge4_Node000002_Node000005" class="edge">
<title>Node5&#45;&gt;Node2</title>
<g id="a_edge4_Node000002_Node000005"><a xlink:title=" ">
<path fill="none" stroke="#9a32cd" stroke-dasharray="5,2" d="M463.51,-63C488.7,-63 515.35,-63 537.84,-63"/>
<polygon fill="#9a32cd" stroke="#9a32cd" points="463.19,-59.5 453.19,-63 463.19,-66.5 463.19,-59.5"/>
</a>
</g>
<text text-anchor="start" x="474.5" y="-68.5" font-family="Helvetica,sans-Serif" font-size="10.00" fill="grey">volumes</text>
</g>
<!-- Node6 -->
<g id="Node000006" class="node">
<title>Node6</title>
<g id="a_Node000006"><a xlink:title=" ">
<polygon fill="white" stroke="#666666" points="626,-25.5 561,-25.5 561,-6.5 626,-6.5 626,-25.5"/>
<text text-anchor="middle" x="593.5" y="-13.5" font-family="Helvetica,sans-Serif" font-size="10.00">std::string</text>
</a>
</g>
</g>
<!-- Node6&#45;&gt;Node1 -->
<g id="edge6_Node000001_Node000006" class="edge">
<title>Node6&#45;&gt;Node1</title>
<g id="a_edge6_Node000001_Node000006"><a xlink:title=" ">
<path fill="none" stroke="#9a32cd" stroke-dasharray="5,2" d="M636.74,-16.66C675.82,-17.63 735.5,-20.03 787,-26 796.78,-27.13 807.19,-28.74 817.1,-30.45"/>
<polygon fill="#9a32cd" stroke="#9a32cd" points="636.36,-13.15 626.28,-16.42 636.2,-20.14 636.36,-13.15"/>
</a>
</g>
<text text-anchor="start" x="683" y="-31.5" font-family="Helvetica,sans-Serif" font-size="10.00" fill="grey">wConditionScreen</text>
</g>
<!-- Node7 -->
<g id="Node000007" class="node">
<title>Node7</title>
<g id="a_Node000007"><a xlink:title=" ">
<polygon fill="white" stroke="#666666" points="425,-30 321,-30 321,0 425,0 425,-30"/>
<text text-anchor="start" x="329" y="-18" font-family="Helvetica,sans-Serif" font-size="10.00">std::basic_string&lt;</text>
<text text-anchor="middle" x="373" y="-7" font-family="Helvetica,sans-Serif" font-size="10.00"> Char &gt;</text>
</a>
</g>
</g>
<!-- Node7&#45;&gt;Node6 -->
<g id="edge7_Node000006_Node000007" class="edge">
<title>Node7&#45;&gt;Node6</title>
<g id="a_edge7_Node000006_Node000007"><a xlink:title=" ">
<path fill="none" stroke="#63b8ff" d="M435.35,-15.28C476.18,-15.47 528.13,-15.71 560.86,-15.86"/>
<polygon fill="#63b8ff" stroke="#63b8ff" points="435.24,-11.78 425.23,-15.23 435.21,-18.78 435.24,-11.78"/>
</a>
</g>
</g>
</g>
</svg>
