<?xml version="1.0" encoding="UTF-8" standalone="no"?>
<!DOCTYPE svg PUBLIC "-//W3C//DTD SVG 1.1//EN"
 "http://www.w3.org/Graphics/SVG/1.1/DTD/svg11.dtd">
<!-- Generated by graphviz version 2.43.0 (0)
 -->
<!-- Title: ActsFatras::Segmentizer::ChannelSegment Pages: 1 -->
<svg width="313pt" height="193pt"
 viewBox="0.00 0.00 312.50 193.00" xmlns="http://www.w3.org/2000/svg" xmlns:xlink="http://www.w3.org/1999/xlink">
<g id="graph0" class="graph" transform="scale(1 1) rotate(0) translate(4 189)">
<title>ActsFatras::Segmentizer::ChannelSegment</title>
<!-- Node1 -->
<g id="Node000001" class="node">
<title>Node1</title>
<g id="a_Node000001"><a xlink:title="Nested struct for representing channel steps.">
<polygon fill="#999999" stroke="#666666" points="204.5,-30 70.5,-30 70.5,0 204.5,0 204.5,-30"/>
<text text-anchor="start" x="78.5" y="-18" font-family="Helvetica,sans-Serif" font-size="10.00">ActsFatras::Segmentizer</text>
<text text-anchor="middle" x="137.5" y="-7" font-family="Helvetica,sans-Serif" font-size="10.00">::ChannelSegment</text>
</a>
</g>
</g>
<!-- Node2 -->
<g id="Node000002" class="node">
<title>Node2</title>
<g id="a_Node000002"><a xlink:title=" ">
<polygon fill="white" stroke="#666666" points="119,-113 0,-113 0,-83 119,-83 119,-113"/>
<text text-anchor="start" x="8" y="-101" font-family="Helvetica,sans-Serif" font-size="10.00">std::array&lt; unsigned</text>
<text text-anchor="middle" x="59.5" y="-90" font-family="Helvetica,sans-Serif" font-size="10.00"> int, 2 &gt;</text>
</a>
</g>
</g>
<!-- Node2&#45;&gt;Node1 -->
<g id="edge1_Node000001_Node000002" class="edge">
<title>Node2&#45;&gt;Node1</title>
<g id="a_edge1_Node000001_Node000002"><a xlink:title=" ">
<path fill="none" stroke="#9a32cd" stroke-dasharray="5,2" d="M80.28,-75.42C94.07,-61.1 111.77,-42.72 123.81,-30.22"/>
<polygon fill="#9a32cd" stroke="#9a32cd" points="77.5,-73.26 73.09,-82.89 82.54,-78.12 77.5,-73.26"/>
</a>
</g>
<text text-anchor="start" x="108.5" y="-53.5" font-family="Helvetica,sans-Serif" font-size="10.00" fill="grey">bin</text>
</g>
<!-- Node3 -->
<g id="Node000003" class="node">
<title>Node3</title>
<g id="a_Node000003"><a xlink:title=" ">
<polygon fill="white" stroke="#666666" points="184.5,-185 92.5,-185 92.5,-166 184.5,-166 184.5,-185"/>
<text text-anchor="middle" x="138.5" y="-173" font-family="Helvetica,sans-Serif" font-size="10.00">std::array&lt; T &gt;</text>
</a>
</g>
</g>
<!-- Node3&#45;&gt;Node2 -->
<g id="edge2_Node000002_Node000003" class="edge">
<title>Node3&#45;&gt;Node2</title>
<g id="a_edge2_Node000002_Node000003"><a xlink:title=" ">
<path fill="none" stroke="orange" stroke-dasharray="5,2" d="M104.55,-161.46C97.72,-157.81 90.97,-153.34 85.5,-148 75.58,-138.31 68.59,-124.02 64.38,-113.37"/>
<polygon fill="orange" stroke="orange" points="103.29,-164.74 113.81,-165.95 106.34,-158.44 103.29,-164.74"/>
</a>
</g>
<text text-anchor="start" x="89" y="-136.5" font-family="Helvetica,sans-Serif" font-size="10.00" fill="grey">&lt; unsigned int, 2 &gt;</text>
</g>
<!-- Node4 -->
<g id="Node000004" class="node">
<title>Node4</title>
<g id="a_Node000004"><a xlink:title=" ">
<polygon fill="white" stroke="#666666" points="298,-107.5 137,-107.5 137,-88.5 298,-88.5 298,-107.5"/>
<text text-anchor="middle" x="217.5" y="-95.5" font-family="Helvetica,sans-Serif" font-size="10.00">std::array&lt; Acts::Vector2, 2 &gt;</text>
</a>
</g>
</g>
<!-- Node3&#45;&gt;Node4 -->
<g id="edge4_Node000004_Node000003" class="edge">
<title>Node3&#45;&gt;Node4</title>
<g id="a_edge4_Node000004_Node000003"><a xlink:title=" ">
<path fill="none" stroke="orange" stroke-dasharray="5,2" d="M168.36,-161.06C174.76,-157.38 181.19,-153 186.5,-148 199.1,-136.13 208.76,-118.09 213.75,-107.53"/>
<polygon fill="orange" stroke="orange" points="166.33,-158.18 159.13,-165.95 169.61,-164.36 166.33,-158.18"/>
</a>
</g>
<text text-anchor="start" x="203" y="-136.5" font-family="Helvetica,sans-Serif" font-size="10.00" fill="grey">&lt; Acts::Vector2, 2 &gt;</text>
</g>
<!-- Node4&#45;&gt;Node1 -->
<g id="edge3_Node000001_Node000004" class="edge">
<title>Node4&#45;&gt;Node1</title>
<g id="a_edge3_Node000001_Node000004"><a xlink:title=" ">
<path fill="none" stroke="#9a32cd" stroke-dasharray="5,2" d="M201.58,-80.88C186.9,-66.02 165.32,-44.17 151.34,-30.01"/>
<polygon fill="#9a32cd" stroke="#9a32cd" points="199.42,-83.68 208.94,-88.33 204.4,-78.76 199.42,-83.68"/>
</a>
</g>
<text text-anchor="start" x="187.5" y="-53.5" font-family="Helvetica,sans-Serif" font-size="10.00" fill="grey">path2D</text>
</g>
</g>
</svg>
