<?xml version="1.0" encoding="UTF-8" standalone="no"?>
<!DOCTYPE svg PUBLIC "-//W3C//DTD SVG 1.1//EN"
 "http://www.w3.org/Graphics/SVG/1.1/DTD/svg11.dtd">
<!-- Generated by graphviz version 2.43.0 (0)
 -->
<!-- Title: Acts::AtlasStepper::State Pages: 1 -->
<svg width="993pt" height="289pt"
 viewBox="0.00 0.00 993.00 288.50" xmlns="http://www.w3.org/2000/svg" xmlns:xlink="http://www.w3.org/1999/xlink">
<g id="graph0" class="graph" transform="scale(1 1) rotate(0) translate(4 284.5)">
<title>Acts::AtlasStepper::State</title>
<!-- Node1 -->
<g id="Node000001" class="node">
<title>Node1</title>
<g id="a_Node000001"><a xlink:title="Nested State struct for the local caching.">
<polygon fill="#999999" stroke="#666666" points="985,-147.5 879,-147.5 879,-117.5 985,-117.5 985,-147.5"/>
<text text-anchor="start" x="887" y="-135.5" font-family="Helvetica,sans-Serif" font-size="10.00">Acts::AtlasStepper</text>
<text text-anchor="middle" x="932" y="-124.5" font-family="Helvetica,sans-Serif" font-size="10.00">::State</text>
</a>
</g>
</g>
<!-- Node2 -->
<g id="Node000002" class="node">
<title>Node2</title>
<g id="a_Node000002"><a xlink:href="struct_acts_1_1_atlas_stepper_1_1_options.html" target="_top" xlink:title=" ">
<polygon fill="white" stroke="#666666" points="731,-277.5 625,-277.5 625,-247.5 731,-247.5 731,-277.5"/>
<text text-anchor="start" x="633" y="-265.5" font-family="Helvetica,sans-Serif" font-size="10.00">Acts::AtlasStepper</text>
<text text-anchor="middle" x="678" y="-254.5" font-family="Helvetica,sans-Serif" font-size="10.00">::Options</text>
</a>
</g>
</g>
<!-- Node2&#45;&gt;Node1 -->
<g id="edge1_Node000001_Node000002" class="edge">
<title>Node2&#45;&gt;Node1</title>
<g id="a_edge1_Node000001_Node000002"><a xlink:title=" ">
<path fill="none" stroke="#9a32cd" stroke-dasharray="5,2" d="M741.26,-264.02C778.55,-262.2 825.45,-254.87 861,-232.5 893.64,-211.96 915.25,-170.08 925.02,-147.59"/>
<polygon fill="#9a32cd" stroke="#9a32cd" points="740.88,-260.53 731.02,-264.39 741.14,-267.52 740.88,-260.53"/>
</a>
</g>
<text text-anchor="start" x="794" y="-267" font-family="Helvetica,sans-Serif" font-size="10.00" fill="grey">options</text>
</g>
<!-- Node3 -->
<g id="Node000003" class="node">
<title>Node3</title>
<g id="a_Node000003"><a xlink:href="struct_acts_1_1_stepper_plain_options.html" target="_top" xlink:title=" ">
<polygon fill="white" stroke="#666666" points="447.5,-273 304.5,-273 304.5,-254 447.5,-254 447.5,-273"/>
<text text-anchor="middle" x="376" y="-261" font-family="Helvetica,sans-Serif" font-size="10.00">Acts::StepperPlainOptions</text>
</a>
</g>
</g>
<!-- Node3&#45;&gt;Node2 -->
<g id="edge2_Node000002_Node000003" class="edge">
<title>Node3&#45;&gt;Node2</title>
<g id="a_edge2_Node000002_Node000003"><a xlink:title=" ">
<path fill="none" stroke="#63b8ff" d="M457.77,-263.23C510.76,-263.05 578.52,-262.83 624.59,-262.67"/>
<polygon fill="#63b8ff" stroke="#63b8ff" points="457.7,-259.73 447.72,-263.26 457.73,-266.73 457.7,-259.73"/>
</a>
</g>
</g>
<!-- Node4 -->
<g id="Node000004" class="node">
<title>Node4</title>
<g id="a_Node000004"><a xlink:href="struct_acts_1_1_stepper_plain_options_1_1_dense.html" target="_top" xlink:title=" ">
<polygon fill="white" stroke="#666666" points="157.5,-279.5 14.5,-279.5 14.5,-249.5 157.5,-249.5 157.5,-279.5"/>
<text text-anchor="start" x="22.5" y="-267.5" font-family="Helvetica,sans-Serif" font-size="10.00">Acts::StepperPlainOptions</text>
<text text-anchor="middle" x="86" y="-256.5" font-family="Helvetica,sans-Serif" font-size="10.00">::Dense</text>
</a>
</g>
</g>
<!-- Node4&#45;&gt;Node3 -->
<g id="edge3_Node000003_Node000004" class="edge">
<title>Node4&#45;&gt;Node3</title>
<g id="a_edge3_Node000003_Node000004"><a xlink:title=" ">
<path fill="none" stroke="#9a32cd" stroke-dasharray="5,2" d="M167.96,-264.22C210.91,-264.07 263.18,-263.89 304.45,-263.74"/>
<polygon fill="#9a32cd" stroke="#9a32cd" points="167.81,-260.72 157.82,-264.25 167.83,-267.72 167.81,-260.72"/>
</a>
</g>
<text text-anchor="start" x="216" y="-269" font-family="Helvetica,sans-Serif" font-size="10.00" fill="grey">dense</text>
</g>
<!-- Node5 -->
<g id="Node000005" class="node">
<title>Node5</title>
<g id="a_Node000005"><a xlink:href="class_acts_1_1_particle_hypothesis.html" target="_top" xlink:title="Specialized particle hypothesis for any kind of charged particles.">
<polygon fill="white" stroke="#666666" points="745,-228 611,-228 611,-209 745,-209 745,-228"/>
<text text-anchor="middle" x="678" y="-216" font-family="Helvetica,sans-Serif" font-size="10.00">Acts::ParticleHypothesis</text>
</a>
</g>
</g>
<!-- Node5&#45;&gt;Node1 -->
<g id="edge4_Node000001_Node000005" class="edge">
<title>Node5&#45;&gt;Node1</title>
<g id="a_edge4_Node000001_Node000005"><a xlink:title=" ">
<path fill="none" stroke="#9a32cd" stroke-dasharray="5,2" d="M755.43,-213.33C788.92,-209 828.02,-201.05 861,-186.5 882.2,-177.14 902.75,-160.04 916.03,-147.58"/>
<polygon fill="#9a32cd" stroke="#9a32cd" points="754.74,-209.89 745.23,-214.56 755.58,-216.84 754.74,-209.89"/>
</a>
</g>
<text text-anchor="start" x="766" y="-217" font-family="Helvetica,sans-Serif" font-size="10.00" fill="grey">particleHypothesis</text>
</g>
<!-- Node6 -->
<g id="Node000006" class="node">
<title>Node6</title>
<g id="a_Node000006"><a xlink:href="class_acts_1_1_generic_particle_hypothesis.html" target="_top" xlink:title=" ">
<polygon fill="white" stroke="#666666" points="462,-233.5 290,-233.5 290,-203.5 462,-203.5 462,-233.5"/>
<text text-anchor="start" x="298" y="-221.5" font-family="Helvetica,sans-Serif" font-size="10.00">Acts::GenericParticleHypothesis</text>
<text text-anchor="middle" x="376" y="-210.5" font-family="Helvetica,sans-Serif" font-size="10.00">&lt; AnyCharge &gt;</text>
</a>
</g>
</g>
<!-- Node6&#45;&gt;Node5 -->
<g id="edge5_Node000005_Node000006" class="edge">
<title>Node6&#45;&gt;Node5</title>
<g id="a_edge5_Node000005_Node000006"><a xlink:title=" ">
<path fill="none" stroke="#63b8ff" d="M472.25,-218.5C517.33,-218.5 570.05,-218.5 610.7,-218.5"/>
<polygon fill="#63b8ff" stroke="#63b8ff" points="472.17,-215 462.17,-218.5 472.17,-222 472.17,-215"/>
</a>
</g>
</g>
<!-- Node7 -->
<g id="Node000007" class="node">
<title>Node7</title>
<g id="a_Node000007"><a xlink:href="class_acts_1_1_generic_particle_hypothesis.html" target="_top" xlink:title="Particle hypothesis used in reconstruction.">
<polygon fill="white" stroke="#666666" points="172,-231.5 0,-231.5 0,-201.5 172,-201.5 172,-231.5"/>
<text text-anchor="start" x="8" y="-219.5" font-family="Helvetica,sans-Serif" font-size="10.00">Acts::GenericParticleHypothesis</text>
<text text-anchor="middle" x="86" y="-208.5" font-family="Helvetica,sans-Serif" font-size="10.00">&lt; charge_t &gt;</text>
</a>
</g>
</g>
<!-- Node7&#45;&gt;Node6 -->
<g id="edge6_Node000006_Node000007" class="edge">
<title>Node7&#45;&gt;Node6</title>
<g id="a_edge6_Node000006_Node000007"><a xlink:title=" ">
<path fill="none" stroke="orange" stroke-dasharray="5,2" d="M182.4,-217.16C217.15,-217.4 256.18,-217.67 289.98,-217.91"/>
<polygon fill="orange" stroke="orange" points="182.26,-213.66 172.24,-217.09 182.22,-220.66 182.26,-213.66"/>
</a>
</g>
<text text-anchor="start" x="193" y="-223" font-family="Helvetica,sans-Serif" font-size="10.00" fill="grey">&lt; AnyCharge &gt;</text>
</g>
<!-- Node8 -->
<g id="Node000008" class="node">
<title>Node8</title>
<g id="a_Node000008"><a xlink:title=" ">
<polygon fill="white" stroke="#666666" points="733,-190.5 623,-190.5 623,-160.5 733,-160.5 733,-190.5"/>
<text text-anchor="start" x="631" y="-178.5" font-family="Helvetica,sans-Serif" font-size="10.00">std::array&lt; double,</text>
<text text-anchor="middle" x="678" y="-167.5" font-family="Helvetica,sans-Serif" font-size="10.00"> 60 &gt;</text>
</a>
</g>
</g>
<!-- Node8&#45;&gt;Node1 -->
<g id="edge7_Node000001_Node000008" class="edge">
<title>Node8&#45;&gt;Node1</title>
<g id="a_edge7_Node000001_Node000008"><a xlink:title=" ">
<path fill="none" stroke="#9a32cd" stroke-dasharray="5,2" d="M743.16,-169.16C778.17,-165.17 822.18,-159.29 861,-151.5 866.8,-150.34 872.83,-148.96 878.81,-147.49"/>
<polygon fill="#9a32cd" stroke="#9a32cd" points="742.62,-165.7 733.07,-170.29 743.39,-172.66 742.62,-165.7"/>
</a>
</g>
<text text-anchor="start" x="794" y="-171" font-family="Helvetica,sans-Serif" font-size="10.00" fill="grey">pVector</text>
</g>
<!-- Node9 -->
<g id="Node000009" class="node">
<title>Node9</title>
<g id="a_Node000009"><a xlink:title=" ">
<polygon fill="white" stroke="#666666" points="422,-185 330,-185 330,-166 422,-166 422,-185"/>
<text text-anchor="middle" x="376" y="-173" font-family="Helvetica,sans-Serif" font-size="10.00">std::array&lt; T &gt;</text>
</a>
</g>
</g>
<!-- Node9&#45;&gt;Node8 -->
<g id="edge8_Node000008_Node000009" class="edge">
<title>Node9&#45;&gt;Node8</title>
<g id="a_edge8_Node000008_Node000009"><a xlink:title=" ">
<path fill="none" stroke="orange" stroke-dasharray="5,2" d="M432.37,-175.5C486.64,-175.5 568.85,-175.5 622.74,-175.5"/>
<polygon fill="orange" stroke="orange" points="432.24,-172 422.24,-175.5 432.24,-179 432.24,-172"/>
</a>
</g>
<text text-anchor="start" x="499.5" y="-181" font-family="Helvetica,sans-Serif" font-size="10.00" fill="grey">&lt; double, 60 &gt;</text>
</g>
<!-- Node10 -->
<g id="Node000010" class="node">
<title>Node10</title>
<g id="a_Node000010"><a xlink:href="class_acts_1_1_constrained_step.html" target="_top" xlink:title="A constrained step class for the steppers.">
<polygon fill="white" stroke="#666666" points="740,-142 616,-142 616,-123 740,-123 740,-142"/>
<text text-anchor="middle" x="678" y="-130" font-family="Helvetica,sans-Serif" font-size="10.00">Acts::ConstrainedStep</text>
</a>
</g>
</g>
<!-- Node10&#45;&gt;Node1 -->
<g id="edge9_Node000001_Node000010" class="edge">
<title>Node10&#45;&gt;Node1</title>
<g id="a_edge9_Node000001_Node000010"><a xlink:title=" ">
<path fill="none" stroke="#9a32cd" stroke-dasharray="5,2" d="M750.17,-132.5C791.03,-132.5 841.45,-132.5 878.66,-132.5"/>
<polygon fill="#9a32cd" stroke="#9a32cd" points="750,-129 740,-132.5 750,-136 750,-129"/>
</a>
</g>
<text text-anchor="start" x="791" y="-138" font-family="Helvetica,sans-Serif" font-size="10.00" fill="grey">stepSize</text>
</g>
<!-- Node11 -->
<g id="Node000011" class="node">
<title>Node11</title>
<g id="a_Node000011"><a xlink:href="class_acts_1_1_any_base.html" target="_top" xlink:title=" ">
<polygon fill="white" stroke="#666666" points="741.5,-104.5 614.5,-104.5 614.5,-74.5 741.5,-74.5 741.5,-104.5"/>
<text text-anchor="start" x="622.5" y="-92.5" font-family="Helvetica,sans-Serif" font-size="10.00">Acts::AnyBase&lt; sizeof</text>
<text text-anchor="middle" x="678" y="-81.5" font-family="Helvetica,sans-Serif" font-size="10.00">(char) *512 &gt;</text>
</a>
</g>
</g>
<!-- Node11&#45;&gt;Node1 -->
<g id="edge10_Node000001_Node000011" class="edge">
<title>Node11&#45;&gt;Node1</title>
<g id="a_edge10_Node000001_Node000011"><a xlink:title=" ">
<path fill="none" stroke="#9a32cd" stroke-dasharray="5,2" d="M751.92,-95.43C785.38,-98.89 825.42,-104.07 861,-111.5 868.82,-113.13 877.04,-115.24 884.97,-117.48"/>
<polygon fill="#9a32cd" stroke="#9a32cd" points="752.06,-91.93 741.76,-94.42 751.36,-98.9 752.06,-91.93"/>
</a>
</g>
<text text-anchor="start" x="786" y="-117" font-family="Helvetica,sans-Serif" font-size="10.00" fill="grey">fieldCache</text>
</g>
<!-- Node12 -->
<g id="Node000012" class="node">
<title>Node12</title>
<g id="a_Node000012"><a xlink:href="class_acts_1_1_any_base_all.html" target="_top" xlink:title="Base class for all instances of AnyBase regarfless of SBO size.">
<polygon fill="white" stroke="#666666" points="135.5,-122 36.5,-122 36.5,-103 135.5,-103 135.5,-122"/>
<text text-anchor="middle" x="86" y="-110" font-family="Helvetica,sans-Serif" font-size="10.00">Acts::AnyBaseAll</text>
</a>
</g>
</g>
<!-- Node12&#45;&gt;Node11 -->
<g id="edge11_Node000011_Node000012" class="edge">
<title>Node12&#45;&gt;Node11</title>
<g id="a_edge11_Node000011_Node000012"><a xlink:title=" ">
<path fill="none" stroke="#63b8ff" d="M146.01,-113.17C160.4,-113.31 175.75,-113.43 190,-113.5 369.11,-114.37 415.33,-133.22 593,-110.5 603.44,-109.17 614.45,-106.99 624.94,-104.53"/>
<polygon fill="#63b8ff" stroke="#63b8ff" points="145.76,-109.67 135.73,-113.07 145.69,-116.67 145.76,-109.67"/>
</a>
</g>
</g>
<!-- Node13 -->
<g id="Node000013" class="node">
<title>Node13</title>
<g id="a_Node000013"><a xlink:href="class_acts_1_1_any_base.html" target="_top" xlink:title="Small opaque type&#45;erased type with configurable small buffer optimization.">
<polygon fill="white" stroke="#666666" points="441.5,-99 310.5,-99 310.5,-80 441.5,-80 441.5,-99"/>
<text text-anchor="middle" x="376" y="-87" font-family="Helvetica,sans-Serif" font-size="10.00">Acts::AnyBase&lt; SIZE &gt;</text>
</a>
</g>
</g>
<!-- Node12&#45;&gt;Node13 -->
<g id="edge13_Node000013_Node000012" class="edge">
<title>Node12&#45;&gt;Node13</title>
<g id="a_edge13_Node000013_Node000012"><a xlink:title=" ">
<path fill="none" stroke="#63b8ff" d="M145.72,-107.81C193.53,-103.99 260.95,-98.61 310.3,-94.67"/>
<polygon fill="#63b8ff" stroke="#63b8ff" points="145.22,-104.34 135.53,-108.62 145.78,-111.32 145.22,-104.34"/>
</a>
</g>
</g>
<!-- Node13&#45;&gt;Node11 -->
<g id="edge12_Node000011_Node000013" class="edge">
<title>Node13&#45;&gt;Node11</title>
<g id="a_edge12_Node000011_Node000013"><a xlink:title=" ">
<path fill="none" stroke="orange" stroke-dasharray="5,2" d="M451.85,-89.5C501.95,-89.5 567.12,-89.5 614.44,-89.5"/>
<polygon fill="orange" stroke="orange" points="451.73,-86 441.73,-89.5 451.73,-93 451.73,-86"/>
</a>
</g>
<text text-anchor="start" x="483.5" y="-95" font-family="Helvetica,sans-Serif" font-size="10.00" fill="grey">&lt; sizeof(char) *512 &gt;</text>
</g>
<!-- Node14 -->
<g id="Node000014" class="node">
<title>Node14</title>
<g id="a_Node000014"><a xlink:title=" ">
<polygon fill="white" stroke="#666666" points="710.5,-56 645.5,-56 645.5,-37 710.5,-37 710.5,-56"/>
<text text-anchor="middle" x="678" y="-44" font-family="Helvetica,sans-Serif" font-size="10.00">std::string</text>
</a>
</g>
</g>
<!-- Node14&#45;&gt;Node1 -->
<g id="edge14_Node000001_Node000014" class="edge">
<title>Node14&#45;&gt;Node1</title>
<g id="a_edge14_Node000001_Node000014"><a xlink:title=" ">
<path fill="none" stroke="#9a32cd" stroke-dasharray="5,2" d="M720.88,-47.04C758.95,-48.93 815.88,-55.31 861,-75.5 883.03,-85.36 903.89,-103.98 917.01,-117.26"/>
<polygon fill="#9a32cd" stroke="#9a32cd" points="720.81,-43.54 710.67,-46.62 720.52,-50.53 720.81,-43.54"/>
</a>
</g>
<text text-anchor="start" x="783" y="-81" font-family="Helvetica,sans-Serif" font-size="10.00" fill="grey">debugString</text>
</g>
<!-- Node15 -->
<g id="Node000015" class="node">
<title>Node15</title>
<g id="a_Node000015"><a xlink:title=" ">
<polygon fill="white" stroke="#666666" points="428,-61.5 324,-61.5 324,-31.5 428,-31.5 428,-61.5"/>
<text text-anchor="start" x="332" y="-49.5" font-family="Helvetica,sans-Serif" font-size="10.00">std::basic_string&lt;</text>
<text text-anchor="middle" x="376" y="-38.5" font-family="Helvetica,sans-Serif" font-size="10.00"> Char &gt;</text>
</a>
</g>
</g>
<!-- Node15&#45;&gt;Node14 -->
<g id="edge15_Node000014_Node000015" class="edge">
<title>Node15&#45;&gt;Node14</title>
<g id="a_edge15_Node000014_Node000015"><a xlink:title=" ">
<path fill="none" stroke="#63b8ff" d="M438.41,-46.5C501.22,-46.5 596.33,-46.5 645.34,-46.5"/>
<polygon fill="#63b8ff" stroke="#63b8ff" points="438.23,-43 428.23,-46.5 438.23,-50 438.23,-43"/>
</a>
</g>
</g>
<!-- Node16 -->
<g id="Node000016" class="node">
<title>Node16</title>
<g id="a_Node000016"><a xlink:href="struct_acts_1_1_stepper_statistics.html" target="_top" xlink:title="A struct to hold statistics of the stepper.">
<polygon fill="white" stroke="#666666" points="741,-19 615,-19 615,0 741,0 741,-19"/>
<text text-anchor="middle" x="678" y="-7" font-family="Helvetica,sans-Serif" font-size="10.00">Acts::StepperStatistics</text>
</a>
</g>
</g>
<!-- Node16&#45;&gt;Node1 -->
<g id="edge16_Node000001_Node000016" class="edge">
<title>Node16&#45;&gt;Node1</title>
<g id="a_edge16_Node000001_Node000016"><a xlink:title=" ">
<path fill="none" stroke="#9a32cd" stroke-dasharray="5,2" d="M751.53,-3.79C786.82,-4.28 828.53,-9.96 861,-29.5 894.9,-49.9 916.1,-93.77 925.44,-117.13"/>
<polygon fill="#9a32cd" stroke="#9a32cd" points="751.28,-0.29 741.28,-3.79 751.28,-7.29 751.28,-0.29"/>
</a>
</g>
<text text-anchor="start" x="790" y="-35" font-family="Helvetica,sans-Serif" font-size="10.00" fill="grey">statistics</text>
</g>
</g>
</svg>
