<?xml version="1.0" encoding="UTF-8" standalone="no"?>
<!DOCTYPE svg PUBLIC "-//W3C//DTD SVG 1.1//EN"
 "http://www.w3.org/Graphics/SVG/1.1/DTD/svg11.dtd">
<!-- Generated by graphviz version 2.43.0 (0)
 -->
<!-- Title: Acts::BinnedSurfaceMaterialAccumulater::Config Pages: 1 -->
<svg width="341pt" height="193pt"
 viewBox="0.00 0.00 340.50 193.00" xmlns="http://www.w3.org/2000/svg" xmlns:xlink="http://www.w3.org/1999/xlink">
<g id="graph0" class="graph" transform="scale(1 1) rotate(0) translate(4 189)">
<title>Acts::BinnedSurfaceMaterialAccumulater::Config</title>
<!-- Node1 -->
<g id="Node000001" class="node">
<title>Node1</title>
<g id="a_Node000001"><a xlink:title="Nested config struct.">
<polygon fill="#999999" stroke="#666666" points="211,-30 56,-30 56,0 211,0 211,-30"/>
<text text-anchor="start" x="64" y="-18" font-family="Helvetica,sans-Serif" font-size="10.00">Acts::BinnedSurfaceMaterial</text>
<text text-anchor="middle" x="133.5" y="-7" font-family="Helvetica,sans-Serif" font-size="10.00">Accumulater::Config</text>
</a>
</g>
</g>
<!-- Node2 -->
<g id="Node000002" class="node">
<title>Node2</title>
<g id="a_Node000002"><a xlink:href="class_acts_1_1_geometry_context.html" target="_top" xlink:title="This is the central definition of the Acts payload object regarding detector geometry status (e....">
<polygon fill="white" stroke="#666666" points="131,-107.5 0,-107.5 0,-88.5 131,-88.5 131,-107.5"/>
<text text-anchor="middle" x="65.5" y="-95.5" font-family="Helvetica,sans-Serif" font-size="10.00">Acts::GeometryContext</text>
</a>
</g>
</g>
<!-- Node2&#45;&gt;Node1 -->
<g id="edge1_Node000001_Node000002" class="edge">
<title>Node2&#45;&gt;Node1</title>
<g id="a_edge1_Node000001_Node000002"><a xlink:title=" ">
<path fill="none" stroke="#9a32cd" stroke-dasharray="5,2" d="M78.4,-80.25C85.88,-70.68 95.55,-58.53 104.5,-48 109.55,-42.06 115.28,-35.66 120.31,-30.16"/>
<polygon fill="#9a32cd" stroke="#9a32cd" points="75.61,-78.14 72.24,-88.19 81.14,-82.44 75.61,-78.14"/>
</a>
</g>
<text text-anchor="start" x="108" y="-53.5" font-family="Helvetica,sans-Serif" font-size="10.00" fill="grey">geoContext</text>
</g>
<!-- Node3 -->
<g id="Node000003" class="node">
<title>Node3</title>
<g id="a_Node000003"><a xlink:title=" ">
<polygon fill="white" stroke="#666666" points="104,-185 27,-185 27,-166 104,-166 104,-185"/>
<text text-anchor="middle" x="65.5" y="-173" font-family="Helvetica,sans-Serif" font-size="10.00">ContextType</text>
</a>
</g>
</g>
<!-- Node3&#45;&gt;Node2 -->
<g id="edge2_Node000002_Node000003" class="edge">
<title>Node3&#45;&gt;Node2</title>
<g id="a_edge2_Node000002_Node000003"><a xlink:title=" ">
<path fill="none" stroke="#63b8ff" d="M65.5,-155.4C65.5,-140.01 65.5,-119.11 65.5,-107.56"/>
<polygon fill="#63b8ff" stroke="#63b8ff" points="62,-155.84 65.5,-165.84 69,-155.84 62,-155.84"/>
</a>
</g>
</g>
<!-- Node4 -->
<g id="Node000004" class="node">
<title>Node4</title>
<g id="a_Node000004"><a xlink:title=" ">
<polygon fill="white" stroke="#666666" points="255.5,-113 149.5,-113 149.5,-83 255.5,-83 255.5,-113"/>
<text text-anchor="start" x="157.5" y="-101" font-family="Helvetica,sans-Serif" font-size="10.00">std::vector&lt; const</text>
<text text-anchor="middle" x="202.5" y="-90" font-family="Helvetica,sans-Serif" font-size="10.00"> Acts::Surface * &gt;</text>
</a>
</g>
</g>
<!-- Node4&#45;&gt;Node1 -->
<g id="edge3_Node000001_Node000004" class="edge">
<title>Node4&#45;&gt;Node1</title>
<g id="a_edge3_Node000001_Node000004"><a xlink:title=" ">
<path fill="none" stroke="#9a32cd" stroke-dasharray="5,2" d="M187.68,-74.33C181.76,-65.79 174.65,-56.18 167.5,-48 162.06,-41.77 155.56,-35.43 149.7,-30.05"/>
<polygon fill="#9a32cd" stroke="#9a32cd" points="184.87,-76.42 193.38,-82.72 190.66,-72.49 184.87,-76.42"/>
</a>
</g>
<text text-anchor="start" x="184.5" y="-53.5" font-family="Helvetica,sans-Serif" font-size="10.00" fill="grey">materialSurfaces</text>
</g>
<!-- Node5 -->
<g id="Node000005" class="node">
<title>Node5</title>
<g id="a_Node000005"><a xlink:title=" ">
<polygon fill="white" stroke="#666666" points="251,-185 154,-185 154,-166 251,-166 251,-185"/>
<text text-anchor="middle" x="202.5" y="-173" font-family="Helvetica,sans-Serif" font-size="10.00">std::vector&lt; T &gt;</text>
</a>
</g>
</g>
<!-- Node5&#45;&gt;Node4 -->
<g id="edge4_Node000004_Node000005" class="edge">
<title>Node5&#45;&gt;Node4</title>
<g id="a_edge4_Node000004_Node000005"><a xlink:title=" ">
<path fill="none" stroke="orange" stroke-dasharray="5,2" d="M202.5,-155.57C202.5,-142.43 202.5,-125.18 202.5,-113.21"/>
<polygon fill="orange" stroke="orange" points="199,-155.84 202.5,-165.84 206,-155.84 199,-155.84"/>
</a>
</g>
<text text-anchor="start" x="205.5" y="-136.5" font-family="Helvetica,sans-Serif" font-size="10.00" fill="grey">&lt; const Acts::Surface * &gt;</text>
</g>
</g>
</svg>
