<?xml version="1.0" encoding="UTF-8" standalone="no"?>
<!DOCTYPE svg PUBLIC "-//W3C//DTD SVG 1.1//EN"
 "http://www.w3.org/Graphics/SVG/1.1/DTD/svg11.dtd">
<!-- Generated by graphviz version 2.43.0 (0)
 -->
<!-- Title: ActsFatras::FreeParametersSmearer&lt; generator_t, kSize &gt; Pages: 1 -->
<svg width="756pt" height="108pt"
 viewBox="0.00 0.00 756.00 107.50" xmlns="http://www.w3.org/2000/svg" xmlns:xlink="http://www.w3.org/1999/xlink">
<g id="graph0" class="graph" transform="scale(1 1) rotate(0) translate(4 103.5)">
<title>ActsFatras::FreeParametersSmearer&lt; generator_t, kSize &gt;</title>
<!-- Node1 -->
<g id="Node000001" class="node">
<title>Node1</title>
<g id="a_Node000001"><a xlink:title="Uncorrelated smearing algorithm for fast digitisation of free parameters.">
<polygon fill="#999999" stroke="#666666" points="748,-63.5 579,-63.5 579,-33.5 748,-33.5 748,-63.5"/>
<text text-anchor="start" x="587" y="-51.5" font-family="Helvetica,sans-Serif" font-size="10.00">ActsFatras::FreeParameters</text>
<text text-anchor="middle" x="663.5" y="-40.5" font-family="Helvetica,sans-Serif" font-size="10.00">Smearer&lt; generator_t, kSize &gt;</text>
</a>
</g>
</g>
<!-- Node2 -->
<g id="Node000002" class="node">
<title>Node2</title>
<g id="a_Node000002"><a xlink:title=" ">
<polygon fill="white" stroke="#666666" points="459,-89.5 299,-89.5 299,-59.5 459,-59.5 459,-89.5"/>
<text text-anchor="start" x="307" y="-77.5" font-family="Helvetica,sans-Serif" font-size="10.00">std::array&lt; Acts::FreeIndices,</text>
<text text-anchor="middle" x="379" y="-66.5" font-family="Helvetica,sans-Serif" font-size="10.00"> kSize &gt;</text>
</a>
</g>
</g>
<!-- Node2&#45;&gt;Node1 -->
<g id="edge1_Node000001_Node000002" class="edge">
<title>Node2&#45;&gt;Node1</title>
<g id="a_edge1_Node000001_Node000002"><a xlink:title=" ">
<path fill="none" stroke="#9a32cd" stroke-dasharray="5,2" d="M469.26,-66.28C504.21,-63.07 544.09,-59.4 578.51,-56.23"/>
<polygon fill="#9a32cd" stroke="#9a32cd" points="468.7,-62.82 459.07,-67.22 469.35,-69.79 468.7,-62.82"/>
</a>
</g>
<text text-anchor="start" x="502" y="-71" font-family="Helvetica,sans-Serif" font-size="10.00" fill="grey">indices</text>
</g>
<!-- Node3 -->
<g id="Node000003" class="node">
<title>Node3</title>
<g id="a_Node000003"><a xlink:title=" ">
<polygon fill="white" stroke="#666666" points="92,-57 0,-57 0,-38 92,-38 92,-57"/>
<text text-anchor="middle" x="46" y="-45" font-family="Helvetica,sans-Serif" font-size="10.00">std::array&lt; T &gt;</text>
</a>
</g>
</g>
<!-- Node3&#45;&gt;Node2 -->
<g id="edge2_Node000002_Node000003" class="edge">
<title>Node3&#45;&gt;Node2</title>
<g id="a_edge2_Node000002_Node000003"><a xlink:title=" ">
<path fill="none" stroke="orange" stroke-dasharray="5,2" d="M102.25,-52.81C104.87,-53.05 107.46,-53.28 110,-53.5 173.47,-59.01 245.45,-64.61 298.82,-68.65"/>
<polygon fill="orange" stroke="orange" points="102.35,-49.31 92.07,-51.89 101.71,-56.28 102.35,-49.31"/>
</a>
</g>
<text text-anchor="start" x="147.5" y="-88.5" font-family="Helvetica,sans-Serif" font-size="10.00" fill="grey">&lt; Acts::FreeIndices,</text>
<text text-anchor="start" x="147.5" y="-73.5" font-family="Helvetica,sans-Serif" font-size="10.00" fill="grey">   kSize &gt;</text>
</g>
<!-- Node4 -->
<g id="Node000004" class="node">
<title>Node4</title>
<g id="a_Node000004"><a xlink:title=" ">
<polygon fill="white" stroke="#666666" points="456.5,-41 301.5,-41 301.5,0 456.5,0 456.5,-41"/>
<text text-anchor="start" x="309.5" y="-29" font-family="Helvetica,sans-Serif" font-size="10.00">std::array&lt; SingleParameter</text>
<text text-anchor="start" x="309.5" y="-18" font-family="Helvetica,sans-Serif" font-size="10.00">SmearFunction&lt; generator</text>
<text text-anchor="middle" x="379" y="-7" font-family="Helvetica,sans-Serif" font-size="10.00">_t &gt;, kSize &gt;</text>
</a>
</g>
</g>
<!-- Node3&#45;&gt;Node4 -->
<g id="edge4_Node000004_Node000003" class="edge">
<title>Node3&#45;&gt;Node4</title>
<g id="a_edge4_Node000004_Node000003"><a xlink:title=" ">
<path fill="none" stroke="orange" stroke-dasharray="5,2" d="M70.96,-32.99C82.36,-26.92 96.43,-20.57 110,-17.5 173.31,-3.19 247.21,-5.37 301.35,-10.31"/>
<polygon fill="orange" stroke="orange" points="69.11,-30.02 62.09,-37.95 72.53,-36.13 69.11,-30.02"/>
</a>
</g>
<text text-anchor="start" x="113.5" y="-38.5" font-family="Helvetica,sans-Serif" font-size="10.00" fill="grey">&lt; SingleParameterSmearFunction</text>
<text text-anchor="start" x="113.5" y="-23.5" font-family="Helvetica,sans-Serif" font-size="10.00" fill="grey">  &lt; generator_t &gt;, kSize &gt;</text>
</g>
<!-- Node4&#45;&gt;Node1 -->
<g id="edge3_Node000001_Node000004" class="edge">
<title>Node4&#45;&gt;Node1</title>
<g id="a_edge3_Node000001_Node000004"><a xlink:title=" ">
<path fill="none" stroke="#9a32cd" stroke-dasharray="5,2" d="M466.63,-28.38C496.54,-31.17 530.25,-34.39 561,-37.5 566.82,-38.09 572.83,-38.71 578.87,-39.34"/>
<polygon fill="#9a32cd" stroke="#9a32cd" points="466.93,-24.9 456.64,-27.45 466.28,-31.86 466.93,-24.9"/>
</a>
</g>
<text text-anchor="start" x="480" y="-43" font-family="Helvetica,sans-Serif" font-size="10.00" fill="grey">smearFunctions</text>
</g>
</g>
</svg>
