<?xml version="1.0" encoding="UTF-8" standalone="no"?>
<!DOCTYPE svg PUBLIC "-//W3C//DTD SVG 1.1//EN"
 "http://www.w3.org/Graphics/SVG/1.1/DTD/svg11.dtd">
<!-- Generated by graphviz version 2.43.0 (0)
 -->
<!-- Title: ActsPlugins::OnnxEdgeClassifier::Config Pages: 1 -->
<svg width="181pt" height="177pt"
 viewBox="0.00 0.00 181.00 177.00" xmlns="http://www.w3.org/2000/svg" xmlns:xlink="http://www.w3.org/1999/xlink">
<g id="graph0" class="graph" transform="scale(1 1) rotate(0) translate(4 173)">
<title>ActsPlugins::OnnxEdgeClassifier::Config</title>
<!-- Node1 -->
<g id="Node000001" class="node">
<title>Node1</title>
<g id="a_Node000001"><a xlink:title=" ">
<polygon fill="#999999" stroke="#666666" points="173,-30 0,-30 0,0 173,0 173,-30"/>
<text text-anchor="start" x="8" y="-18" font-family="Helvetica,sans-Serif" font-size="10.00">ActsPlugins::OnnxEdgeClassifier</text>
<text text-anchor="middle" x="86.5" y="-7" font-family="Helvetica,sans-Serif" font-size="10.00">::Config</text>
</a>
</g>
</g>
<!-- Node2 -->
<g id="Node000002" class="node">
<title>Node2</title>
<g id="a_Node000002"><a xlink:title=" ">
<polygon fill="white" stroke="#666666" points="119,-102 54,-102 54,-83 119,-83 119,-102"/>
<text text-anchor="middle" x="86.5" y="-90" font-family="Helvetica,sans-Serif" font-size="10.00">std::string</text>
</a>
</g>
</g>
<!-- Node2&#45;&gt;Node1 -->
<g id="edge1_Node000001_Node000002" class="edge">
<title>Node2&#45;&gt;Node1</title>
<g id="a_edge1_Node000001_Node000002"><a xlink:title=" ">
<path fill="none" stroke="#9a32cd" stroke-dasharray="5,2" d="M86.5,-72.57C86.5,-59.43 86.5,-42.18 86.5,-30.21"/>
<polygon fill="#9a32cd" stroke="#9a32cd" points="83,-72.84 86.5,-82.84 90,-72.84 83,-72.84"/>
</a>
</g>
<text text-anchor="start" x="89.5" y="-53.5" font-family="Helvetica,sans-Serif" font-size="10.00" fill="grey">modelPath</text>
</g>
<!-- Node3 -->
<g id="Node000003" class="node">
<title>Node3</title>
<g id="a_Node000003"><a xlink:title=" ">
<polygon fill="white" stroke="#666666" points="138.5,-169 34.5,-169 34.5,-139 138.5,-139 138.5,-169"/>
<text text-anchor="start" x="42.5" y="-157" font-family="Helvetica,sans-Serif" font-size="10.00">std::basic_string&lt;</text>
<text text-anchor="middle" x="86.5" y="-146" font-family="Helvetica,sans-Serif" font-size="10.00"> Char &gt;</text>
</a>
</g>
</g>
<!-- Node3&#45;&gt;Node2 -->
<g id="edge2_Node000002_Node000003" class="edge">
<title>Node3&#45;&gt;Node2</title>
<g id="a_edge2_Node000002_Node000003"><a xlink:title=" ">
<path fill="none" stroke="#63b8ff" d="M86.5,-128.79C86.5,-119.36 86.5,-109.15 86.5,-102.16"/>
<polygon fill="#63b8ff" stroke="#63b8ff" points="83,-128.9 86.5,-138.9 90,-128.9 83,-128.9"/>
</a>
</g>
</g>
</g>
</svg>
