<?xml version="1.0" encoding="UTF-8" standalone="no"?>
<!DOCTYPE svg PUBLIC "-//W3C//DTD SVG 1.1//EN"
 "http://www.w3.org/Graphics/SVG/1.1/DTD/svg11.dtd">
<!-- Generated by graphviz version 2.43.0 (0)
 -->
<!-- Title: Acts::GloballyIndexedMaterialAccessor Pages: 1 -->
<svg width="369pt" height="208pt"
 viewBox="0.00 0.00 368.50 208.00" xmlns="http://www.w3.org/2000/svg" xmlns:xlink="http://www.w3.org/1999/xlink">
<g id="graph0" class="graph" transform="scale(1 1) rotate(0) translate(4 204)">
<title>Acts::GloballyIndexedMaterialAccessor</title>
<!-- Node1 -->
<g id="Node000001" class="node">
<title>Node1</title>
<g id="a_Node000001"><a xlink:title="This is an accessor for cases where the material is filled in a global material vector that is access...">
<polygon fill="#999999" stroke="#666666" points="173,-30 10,-30 10,0 173,0 173,-30"/>
<text text-anchor="start" x="18" y="-18" font-family="Helvetica,sans-Serif" font-size="10.00">Acts::GloballyIndexedMaterial</text>
<text text-anchor="middle" x="91.5" y="-7" font-family="Helvetica,sans-Serif" font-size="10.00">Accessor</text>
</a>
</g>
</g>
<!-- Node2 -->
<g id="Node000002" class="node">
<title>Node2</title>
<g id="a_Node000002"><a xlink:href="struct_acts_1_1_i_grid_material_accessor.html" target="_top" xlink:title="Base class for material accessors, this is needed for the I/O of the different grid material types,...">
<polygon fill="white" stroke="#666666" points="151,-107.5 0,-107.5 0,-88.5 151,-88.5 151,-107.5"/>
<text text-anchor="middle" x="75.5" y="-95.5" font-family="Helvetica,sans-Serif" font-size="10.00">Acts::IGridMaterialAccessor</text>
</a>
</g>
</g>
<!-- Node2&#45;&gt;Node1 -->
<g id="edge1_Node000001_Node000002" class="edge">
<title>Node2&#45;&gt;Node1</title>
<g id="a_edge1_Node000001_Node000002"><a xlink:title=" ">
<path fill="none" stroke="#63b8ff" d="M79.19,-78.34C82.09,-63.61 86.09,-43.38 88.73,-30.01"/>
<polygon fill="#63b8ff" stroke="#63b8ff" points="75.72,-77.84 77.21,-88.33 82.58,-79.2 75.72,-77.84"/>
</a>
</g>
</g>
<!-- Node3 -->
<g id="Node000003" class="node">
<title>Node3</title>
<g id="a_Node000003"><a xlink:title=" ">
<polygon fill="white" stroke="#666666" points="345.5,-113 169.5,-113 169.5,-83 345.5,-83 345.5,-113"/>
<text text-anchor="start" x="177.5" y="-101" font-family="Helvetica,sans-Serif" font-size="10.00">std::shared_ptr&lt; std</text>
<text text-anchor="middle" x="257.5" y="-90" font-family="Helvetica,sans-Serif" font-size="10.00">::vector&lt; Acts::MaterialSlab &gt; &gt;</text>
</a>
</g>
</g>
<!-- Node3&#45;&gt;Node1 -->
<g id="edge2_Node000001_Node000003" class="edge">
<title>Node3&#45;&gt;Node1</title>
<g id="a_edge2_Node000001_Node000003"><a xlink:title=" ">
<path fill="none" stroke="#9a32cd" stroke-dasharray="5,2" d="M219.23,-78.33C189.1,-63.62 147.75,-43.45 120.36,-30.08"/>
<polygon fill="#9a32cd" stroke="#9a32cd" points="218.06,-81.65 228.59,-82.89 221.13,-75.36 218.06,-81.65"/>
</a>
</g>
<text text-anchor="start" x="192" y="-53.5" font-family="Helvetica,sans-Serif" font-size="10.00" fill="grey">globalMaterial</text>
</g>
<!-- Node4 -->
<g id="Node000004" class="node">
<title>Node4</title>
<g id="a_Node000004"><a xlink:title=" ">
<polygon fill="white" stroke="#666666" points="316.5,-200 198.5,-200 198.5,-181 316.5,-181 316.5,-200"/>
<text text-anchor="middle" x="257.5" y="-188" font-family="Helvetica,sans-Serif" font-size="10.00">std::shared_ptr&lt; T &gt;</text>
</a>
</g>
</g>
<!-- Node4&#45;&gt;Node3 -->
<g id="edge3_Node000003_Node000004" class="edge">
<title>Node4&#45;&gt;Node3</title>
<g id="a_edge3_Node000003_Node000004"><a xlink:title=" ">
<path fill="none" stroke="orange" stroke-dasharray="5,2" d="M257.5,-170.38C257.5,-153.24 257.5,-128.49 257.5,-113.09"/>
<polygon fill="orange" stroke="orange" points="254,-170.82 257.5,-180.82 261,-170.82 254,-170.82"/>
</a>
</g>
<text text-anchor="start" x="261" y="-152" font-family="Helvetica,sans-Serif" font-size="10.00" fill="grey">&lt; std::vector&lt; Acts</text>
<text text-anchor="start" x="261" y="-137" font-family="Helvetica,sans-Serif" font-size="10.00" fill="grey">  ::MaterialSlab &gt; &gt;</text>
</g>
</g>
</svg>
