<?xml version="1.0" encoding="UTF-8" standalone="no"?>
<!DOCTYPE svg PUBLIC "-//W3C//DTD SVG 1.1//EN"
 "http://www.w3.org/Graphics/SVG/1.1/DTD/svg11.dtd">
<!-- Generated by graphviz version 2.43.0 (0)
 -->
<!-- Title: Acts::BinnedSurfaceMaterialAccumulater::State Pages: 1 -->
<svg width="826pt" height="98pt"
 viewBox="0.00 0.00 826.00 97.50" xmlns="http://www.w3.org/2000/svg" xmlns:xlink="http://www.w3.org/1999/xlink">
<g id="graph0" class="graph" transform="scale(1 1) rotate(0) translate(4 93.5)">
<title>Acts::BinnedSurfaceMaterialAccumulater::State</title>
<!-- Node1 -->
<g id="Node000001" class="node">
<title>Node1</title>
<g id="a_Node000001"><a xlink:title="Nested state struct.">
<polygon fill="#999999" stroke="#666666" points="818,-62.5 663,-62.5 663,-32.5 818,-32.5 818,-62.5"/>
<text text-anchor="start" x="671" y="-50.5" font-family="Helvetica,sans-Serif" font-size="10.00">Acts::BinnedSurfaceMaterial</text>
<text text-anchor="middle" x="740.5" y="-39.5" font-family="Helvetica,sans-Serif" font-size="10.00">Accumulater::State</text>
</a>
</g>
</g>
<!-- Node2 -->
<g id="Node000002" class="node">
<title>Node2</title>
<g id="a_Node000002"><a xlink:href="class_acts_1_1_i_surface_material_accumulater_1_1_state.html" target="_top" xlink:title="The state of the material accumulater, this is used to cache information across tracks/events.">
<polygon fill="white" stroke="#666666" points="517,-89.5 332,-89.5 332,-59.5 517,-59.5 517,-89.5"/>
<text text-anchor="start" x="340" y="-77.5" font-family="Helvetica,sans-Serif" font-size="10.00">Acts::ISurfaceMaterialAccumulater</text>
<text text-anchor="middle" x="424.5" y="-66.5" font-family="Helvetica,sans-Serif" font-size="10.00">::State</text>
</a>
</g>
</g>
<!-- Node2&#45;&gt;Node1 -->
<g id="edge1_Node000001_Node000002" class="edge">
<title>Node2&#45;&gt;Node1</title>
<g id="a_edge1_Node000001_Node000002"><a xlink:title=" ">
<path fill="none" stroke="#63b8ff" d="M527.33,-65.74C571.37,-61.96 622.05,-57.6 662.83,-54.09"/>
<polygon fill="#63b8ff" stroke="#63b8ff" points="526.83,-62.27 517.17,-66.62 527.43,-69.25 526.83,-62.27"/>
</a>
</g>
</g>
<!-- Node3 -->
<g id="Node000003" class="node">
<title>Node3</title>
<g id="a_Node000003"><a xlink:title=" ">
<polygon fill="white" stroke="#666666" points="503,-41 346,-41 346,0 503,0 503,-41"/>
<text text-anchor="start" x="354" y="-29" font-family="Helvetica,sans-Serif" font-size="10.00">std::map&lt; Acts::Geometry</text>
<text text-anchor="start" x="354" y="-18" font-family="Helvetica,sans-Serif" font-size="10.00">Identifier, Acts::Accumulated</text>
<text text-anchor="middle" x="424.5" y="-7" font-family="Helvetica,sans-Serif" font-size="10.00">SurfaceMaterial &gt;</text>
</a>
</g>
</g>
<!-- Node3&#45;&gt;Node1 -->
<g id="edge2_Node000001_Node000003" class="edge">
<title>Node3&#45;&gt;Node1</title>
<g id="a_edge2_Node000001_Node000003"><a xlink:title=" ">
<path fill="none" stroke="#9a32cd" stroke-dasharray="5,2" d="M513.12,-24.62C553.35,-26.89 601.66,-30.14 645,-34.5 650.85,-35.09 656.89,-35.76 662.97,-36.49"/>
<polygon fill="#9a32cd" stroke="#9a32cd" points="513.25,-21.12 503.07,-24.06 512.86,-28.11 513.25,-21.12"/>
</a>
</g>
<text text-anchor="start" x="538" y="-40" font-family="Helvetica,sans-Serif" font-size="10.00" fill="grey">accumulatedMaterial</text>
</g>
<!-- Node4 -->
<g id="Node000004" class="node">
<title>Node4</title>
<g id="a_Node000004"><a xlink:title=" ">
<polygon fill="white" stroke="#666666" points="101,-30 0,-30 0,-11 101,-11 101,-30"/>
<text text-anchor="middle" x="50.5" y="-18" font-family="Helvetica,sans-Serif" font-size="10.00">std::map&lt; K, T &gt;</text>
</a>
</g>
</g>
<!-- Node4&#45;&gt;Node3 -->
<g id="edge3_Node000003_Node000004" class="edge">
<title>Node4&#45;&gt;Node3</title>
<g id="a_edge3_Node000003_Node000004"><a xlink:title=" ">
<path fill="none" stroke="orange" stroke-dasharray="5,2" d="M111.57,-20.5C175.27,-20.5 276.14,-20.5 345.85,-20.5"/>
<polygon fill="orange" stroke="orange" points="111.28,-17 101.28,-20.5 111.28,-24 111.28,-17"/>
</a>
</g>
<text text-anchor="start" x="122.5" y="-41.5" font-family="Helvetica,sans-Serif" font-size="10.00" fill="grey">&lt; Acts::GeometryIdentifier,</text>
<text text-anchor="start" x="122.5" y="-26.5" font-family="Helvetica,sans-Serif" font-size="10.00" fill="grey">   Acts::AccumulatedSurfaceMaterial &gt;</text>
</g>
</g>
</svg>
