<?xml version="1.0" encoding="UTF-8" standalone="no"?>
<!DOCTYPE svg PUBLIC "-//W3C//DTD SVG 1.1//EN"
 "http://www.w3.org/Graphics/SVG/1.1/DTD/svg11.dtd">
<!-- Generated by graphviz version 2.43.0 (0)
 -->
<!-- Title: Acts::DirectedProtoAxis Pages: 1 -->
<svg width="154pt" height="238pt"
 viewBox="0.00 0.00 153.50 238.00" xmlns="http://www.w3.org/2000/svg" xmlns:xlink="http://www.w3.org/1999/xlink">
<g id="graph0" class="graph" transform="scale(1 1) rotate(0) translate(4 234)">
<title>Acts::DirectedProtoAxis</title>
<!-- Node1 -->
<g id="Node000001" class="node">
<title>Node1</title>
<g id="a_Node000001"><a xlink:title="A Directed proto axis.">
<polygon fill="#999999" stroke="#666666" points="131,-19 0,-19 0,0 131,0 131,-19"/>
<text text-anchor="middle" x="65.5" y="-7" font-family="Helvetica,sans-Serif" font-size="10.00">Acts::DirectedProtoAxis</text>
</a>
</g>
</g>
<!-- Node2 -->
<g id="Node000002" class="node">
<title>Node2</title>
<g id="a_Node000002"><a xlink:href="class_acts_1_1_proto_axis.html" target="_top" xlink:title="This class is a pure run&#45;time placeholder for the axis definition.">
<polygon fill="white" stroke="#666666" points="110.5,-75 20.5,-75 20.5,-56 110.5,-56 110.5,-75"/>
<text text-anchor="middle" x="65.5" y="-63" font-family="Helvetica,sans-Serif" font-size="10.00">Acts::ProtoAxis</text>
</a>
</g>
</g>
<!-- Node2&#45;&gt;Node1 -->
<g id="edge1_Node000001_Node000002" class="edge">
<title>Node2&#45;&gt;Node1</title>
<g id="a_edge1_Node000001_Node000002"><a xlink:title=" ">
<path fill="none" stroke="#63b8ff" d="M65.5,-45.3C65.5,-36.41 65.5,-26.28 65.5,-19.25"/>
<polygon fill="#63b8ff" stroke="#63b8ff" points="62,-45.58 65.5,-55.58 69,-45.58 62,-45.58"/>
</a>
</g>
</g>
<!-- Node3 -->
<g id="Node000003" class="node">
<title>Node3</title>
<g id="a_Node000003"><a xlink:title=" ">
<polygon fill="white" stroke="#666666" points="126.5,-158 4.5,-158 4.5,-128 126.5,-128 126.5,-158"/>
<text text-anchor="start" x="12.5" y="-146" font-family="Helvetica,sans-Serif" font-size="10.00">std::unique_ptr&lt; Acts</text>
<text text-anchor="middle" x="65.5" y="-135" font-family="Helvetica,sans-Serif" font-size="10.00">::IAxis &gt;</text>
</a>
</g>
</g>
<!-- Node3&#45;&gt;Node2 -->
<g id="edge2_Node000002_Node000003" class="edge">
<title>Node3&#45;&gt;Node2</title>
<g id="a_edge2_Node000002_Node000003"><a xlink:title=" ">
<path fill="none" stroke="#9a32cd" stroke-dasharray="5,2" d="M65.5,-117.4C65.5,-102.81 65.5,-85.22 65.5,-75.01"/>
<polygon fill="#9a32cd" stroke="#9a32cd" points="62,-117.8 65.5,-127.8 69,-117.8 62,-117.8"/>
</a>
</g>
<text text-anchor="start" x="68.5" y="-98.5" font-family="Helvetica,sans-Serif" font-size="10.00" fill="grey">m_axis</text>
</g>
<!-- Node4 -->
<g id="Node000004" class="node">
<title>Node4</title>
<g id="a_Node000004"><a xlink:title=" ">
<polygon fill="white" stroke="#666666" points="124.5,-230 6.5,-230 6.5,-211 124.5,-211 124.5,-230"/>
<text text-anchor="middle" x="65.5" y="-218" font-family="Helvetica,sans-Serif" font-size="10.00">std::unique_ptr&lt; T &gt;</text>
</a>
</g>
</g>
<!-- Node4&#45;&gt;Node3 -->
<g id="edge3_Node000003_Node000004" class="edge">
<title>Node4&#45;&gt;Node3</title>
<g id="a_edge3_Node000003_Node000004"><a xlink:title=" ">
<path fill="none" stroke="orange" stroke-dasharray="5,2" d="M65.5,-200.57C65.5,-187.43 65.5,-170.18 65.5,-158.21"/>
<polygon fill="orange" stroke="orange" points="62,-200.84 65.5,-210.84 69,-200.84 62,-200.84"/>
</a>
</g>
<text text-anchor="start" x="68.5" y="-181.5" font-family="Helvetica,sans-Serif" font-size="10.00" fill="grey">&lt; Acts::IAxis &gt;</text>
</g>
</g>
</svg>
