<?xml version="1.0" encoding="UTF-8" standalone="no"?>
<!DOCTYPE svg PUBLIC "-//W3C//DTD SVG 1.1//EN"
 "http://www.w3.org/Graphics/SVG/1.1/DTD/svg11.dtd">
<!-- Generated by graphviz version 2.43.0 (0)
 -->
<!-- Title: Acts::SurfaceMaterialMapper::State Pages: 1 -->
<svg width="850pt" height="279pt"
 viewBox="0.00 0.00 850.00 279.14" xmlns="http://www.w3.org/2000/svg" xmlns:xlink="http://www.w3.org/1999/xlink">
<g id="graph0" class="graph" transform="scale(1 1) rotate(0) translate(4 275.14)">
<title>Acts::SurfaceMaterialMapper::State</title>
<!-- Node1 -->
<g id="Node000001" class="node">
<title>Node1</title>
<g id="a_Node000001"><a xlink:title="Nested State struct which is used for the mapping prococess.">
<polygon fill="#999999" stroke="#666666" points="842,-145.14 684,-145.14 684,-115.14 842,-115.14 842,-145.14"/>
<text text-anchor="start" x="692" y="-133.14" font-family="Helvetica,sans-Serif" font-size="10.00">Acts::SurfaceMaterialMapper</text>
<text text-anchor="middle" x="763" y="-122.14" font-family="Helvetica,sans-Serif" font-size="10.00">::State</text>
</a>
</g>
</g>
<!-- Node2 -->
<g id="Node000002" class="node">
<title>Node2</title>
<g id="a_Node000002"><a xlink:title=" ">
<polygon fill="white" stroke="#666666" points="513.5,-245.64 356.5,-245.64 356.5,-204.64 513.5,-204.64 513.5,-245.64"/>
<text text-anchor="start" x="364.5" y="-233.64" font-family="Helvetica,sans-Serif" font-size="10.00">std::map&lt; Acts::Geometry</text>
<text text-anchor="start" x="364.5" y="-222.64" font-family="Helvetica,sans-Serif" font-size="10.00">Identifier, Acts::Accumulated</text>
<text text-anchor="middle" x="435" y="-211.64" font-family="Helvetica,sans-Serif" font-size="10.00">SurfaceMaterial &gt;</text>
</a>
</g>
</g>
<!-- Node2&#45;&gt;Node1 -->
<g id="edge1_Node000001_Node000002" class="edge">
<title>Node2&#45;&gt;Node1</title>
<g id="a_edge1_Node000001_Node000002"><a xlink:title=" ">
<path fill="none" stroke="#9a32cd" stroke-dasharray="5,2" d="M523.58,-206.35C566.83,-196.33 619.57,-183.01 666,-168.14 686.66,-161.53 709.23,-152.67 727.3,-145.18"/>
<polygon fill="#9a32cd" stroke="#9a32cd" points="522.62,-202.98 513.65,-208.62 524.18,-209.8 522.62,-202.98"/>
</a>
</g>
<text text-anchor="start" x="559" y="-202.64" font-family="Helvetica,sans-Serif" font-size="10.00" fill="grey">accumulatedMaterial</text>
</g>
<!-- Node3 -->
<g id="Node000003" class="node">
<title>Node3</title>
<g id="a_Node000003"><a xlink:title=" ">
<polygon fill="white" stroke="#666666" points="101,-136.64 0,-136.64 0,-117.64 101,-117.64 101,-136.64"/>
<text text-anchor="middle" x="50.5" y="-124.64" font-family="Helvetica,sans-Serif" font-size="10.00">std::map&lt; K, T &gt;</text>
</a>
</g>
</g>
<!-- Node3&#45;&gt;Node2 -->
<g id="edge2_Node000002_Node000003" class="edge">
<title>Node3&#45;&gt;Node2</title>
<g id="a_edge2_Node000002_Node000003"><a xlink:title=" ">
<path fill="none" stroke="orange" stroke-dasharray="5,2" d="M61.4,-145.78C72.6,-164.71 92.73,-193.06 119,-206.14 193.18,-243.08 289.66,-243 356.2,-236.75"/>
<polygon fill="orange" stroke="orange" points="64.34,-143.86 56.38,-136.86 58.24,-147.29 64.34,-143.86"/>
</a>
</g>
<text text-anchor="start" x="122.5" y="-260.14" font-family="Helvetica,sans-Serif" font-size="10.00" fill="grey">&lt; Acts::GeometryIdentifier,</text>
<text text-anchor="start" x="122.5" y="-245.14" font-family="Helvetica,sans-Serif" font-size="10.00" fill="grey">   Acts::AccumulatedSurfaceMaterial &gt;</text>
</g>
<!-- Node4 -->
<g id="Node000004" class="node">
<title>Node4</title>
<g id="a_Node000004"><a xlink:title=" ">
<polygon fill="white" stroke="#666666" points="538,-179.64 332,-179.64 332,-138.64 538,-138.64 538,-179.64"/>
<text text-anchor="start" x="340" y="-167.64" font-family="Helvetica,sans-Serif" font-size="10.00">std::map&lt; Acts::Geometry</text>
<text text-anchor="start" x="340" y="-156.64" font-family="Helvetica,sans-Serif" font-size="10.00">Identifier, std::unique</text>
<text text-anchor="middle" x="435" y="-145.64" font-family="Helvetica,sans-Serif" font-size="10.00">_ptr&lt; const Acts::ISurfaceMaterial &gt; &gt;</text>
</a>
</g>
</g>
<!-- Node3&#45;&gt;Node4 -->
<g id="edge4_Node000004_Node000003" class="edge">
<title>Node3&#45;&gt;Node4</title>
<g id="a_edge4_Node000004_Node000003"><a xlink:title=" ">
<path fill="none" stroke="orange" stroke-dasharray="5,2" d="M106.9,-138.41C110.98,-139.05 115.05,-139.64 119,-140.14 189.8,-149.05 270.1,-153.82 331.9,-156.34"/>
<polygon fill="orange" stroke="orange" points="107.2,-134.91 96.76,-136.69 106.03,-141.81 107.2,-134.91"/>
</a>
</g>
<text text-anchor="start" x="147.5" y="-190.64" font-family="Helvetica,sans-Serif" font-size="10.00" fill="grey">&lt; Acts::GeometryIdentifier,</text>
<text text-anchor="start" x="147.5" y="-175.64" font-family="Helvetica,sans-Serif" font-size="10.00" fill="grey">   std::unique_ptr&lt; const</text>
<text text-anchor="start" x="147.5" y="-160.64" font-family="Helvetica,sans-Serif" font-size="10.00" fill="grey">   Acts::ISurfaceMaterial &gt; &gt;</text>
</g>
<!-- Node5 -->
<g id="Node000005" class="node">
<title>Node5</title>
<g id="a_Node000005"><a xlink:title=" ">
<polygon fill="white" stroke="#666666" points="538,-117.64 332,-117.64 332,-76.64 538,-76.64 538,-117.64"/>
<text text-anchor="start" x="340" y="-105.64" font-family="Helvetica,sans-Serif" font-size="10.00">std::map&lt; Acts::Geometry</text>
<text text-anchor="start" x="340" y="-94.64" font-family="Helvetica,sans-Serif" font-size="10.00">Identifier, std::shared</text>
<text text-anchor="middle" x="435" y="-83.64" font-family="Helvetica,sans-Serif" font-size="10.00">_ptr&lt; const Acts::ISurfaceMaterial &gt; &gt;</text>
</a>
</g>
</g>
<!-- Node3&#45;&gt;Node5 -->
<g id="edge6_Node000005_Node000003" class="edge">
<title>Node3&#45;&gt;Node5</title>
<g id="a_edge6_Node000005_Node000003"><a xlink:title=" ">
<path fill="none" stroke="orange" stroke-dasharray="5,2" d="M74.35,-112.26C86.97,-104.93 103.23,-96.89 119,-93.14 188.71,-76.58 269.56,-78.01 331.89,-83.36"/>
<polygon fill="orange" stroke="orange" points="72.22,-109.46 65.49,-117.64 75.85,-115.44 72.22,-109.46"/>
</a>
</g>
<text text-anchor="start" x="147.5" y="-128.64" font-family="Helvetica,sans-Serif" font-size="10.00" fill="grey">&lt; Acts::GeometryIdentifier,</text>
<text text-anchor="start" x="147.5" y="-113.64" font-family="Helvetica,sans-Serif" font-size="10.00" fill="grey">   std::shared_ptr&lt; const</text>
<text text-anchor="start" x="147.5" y="-98.64" font-family="Helvetica,sans-Serif" font-size="10.00" fill="grey">   Acts::ISurfaceMaterial &gt; &gt;</text>
</g>
<!-- Node6 -->
<g id="Node000006" class="node">
<title>Node6</title>
<g id="a_Node000006"><a xlink:title=" ">
<polygon fill="white" stroke="#666666" points="538,-53.64 332,-53.64 332,-12.64 538,-12.64 538,-53.64"/>
<text text-anchor="start" x="340" y="-41.64" font-family="Helvetica,sans-Serif" font-size="10.00">std::map&lt; Acts::Geometry</text>
<text text-anchor="start" x="340" y="-30.64" font-family="Helvetica,sans-Serif" font-size="10.00">Identifier, std::shared</text>
<text text-anchor="middle" x="435" y="-19.64" font-family="Helvetica,sans-Serif" font-size="10.00">_ptr&lt; const Acts::IVolumeMaterial &gt; &gt;</text>
</a>
</g>
</g>
<!-- Node3&#45;&gt;Node6 -->
<g id="edge8_Node000006_Node000003" class="edge">
<title>Node3&#45;&gt;Node6</title>
<g id="a_edge8_Node000006_Node000003"><a xlink:title=" ">
<path fill="none" stroke="orange" stroke-dasharray="5,2" d="M58.22,-107.79C67.64,-84.06 87.26,-44.91 119,-28.14 193.35,11.15 292.01,1.44 358.97,-12.58"/>
<polygon fill="orange" stroke="orange" points="54.82,-106.89 54.61,-117.48 61.38,-109.33 54.82,-106.89"/>
</a>
</g>
<text text-anchor="start" x="147.5" y="-63.64" font-family="Helvetica,sans-Serif" font-size="10.00" fill="grey">&lt; Acts::GeometryIdentifier,</text>
<text text-anchor="start" x="147.5" y="-48.64" font-family="Helvetica,sans-Serif" font-size="10.00" fill="grey">   std::shared_ptr&lt; const</text>
<text text-anchor="start" x="147.5" y="-33.64" font-family="Helvetica,sans-Serif" font-size="10.00" fill="grey">   Acts::IVolumeMaterial &gt; &gt;</text>
</g>
<!-- Node4&#45;&gt;Node1 -->
<g id="edge3_Node000001_Node000004" class="edge">
<title>Node4&#45;&gt;Node1</title>
<g id="a_edge3_Node000001_Node000004"><a xlink:title=" ">
<path fill="none" stroke="#9a32cd" stroke-dasharray="5,2" d="M548.29,-149.15C592.98,-145.18 643.32,-140.7 683.91,-137.09"/>
<polygon fill="#9a32cd" stroke="#9a32cd" points="547.9,-145.67 538.25,-150.04 548.52,-152.64 547.9,-145.67"/>
</a>
</g>
<text text-anchor="start" x="573" y="-152.64" font-family="Helvetica,sans-Serif" font-size="10.00" fill="grey">surfaceMaterial</text>
</g>
<!-- Node5&#45;&gt;Node1 -->
<g id="edge5_Node000001_Node000005" class="edge">
<title>Node5&#45;&gt;Node1</title>
<g id="a_edge5_Node000001_Node000005"><a xlink:title=" ">
<path fill="none" stroke="#9a32cd" stroke-dasharray="5,2" d="M548.44,-105.83C585.87,-109.02 627.77,-112.89 666,-117.14 671.85,-117.79 677.9,-118.51 683.97,-119.26"/>
<polygon fill="#9a32cd" stroke="#9a32cd" points="548.26,-102.31 538,-104.96 547.68,-109.28 548.26,-102.31"/>
</a>
</g>
<text text-anchor="start" x="560" y="-122.64" font-family="Helvetica,sans-Serif" font-size="10.00" fill="grey">inputSurfaceMaterial</text>
</g>
<!-- Node6&#45;&gt;Node1 -->
<g id="edge7_Node000001_Node000006" class="edge">
<title>Node6&#45;&gt;Node1</title>
<g id="a_edge7_Node000001_Node000006"><a xlink:title=" ">
<path fill="none" stroke="#9a32cd" stroke-dasharray="5,2" d="M548.13,-53.42C586.05,-61.61 628.32,-72.22 666,-85.14 689.68,-93.26 715.29,-105.45 734.1,-115.1"/>
<polygon fill="#9a32cd" stroke="#9a32cd" points="548.59,-49.94 538.08,-51.28 547.13,-56.78 548.59,-49.94"/>
</a>
</g>
<text text-anchor="start" x="572" y="-90.64" font-family="Helvetica,sans-Serif" font-size="10.00" fill="grey">volumeMaterial</text>
</g>
</g>
</svg>
