<?xml version="1.0" encoding="UTF-8" standalone="no"?>
<!DOCTYPE svg PUBLIC "-//W3C//DTD SVG 1.1//EN"
 "http://www.w3.org/Graphics/SVG/1.1/DTD/svg11.dtd">
<!-- Generated by graphviz version 2.43.0 (0)
 -->
<!-- Title: Acts::SpacePointBuilderConfig Pages: 1 -->
<svg width="838pt" height="94pt"
 viewBox="0.00 0.00 838.00 94.00" xmlns="http://www.w3.org/2000/svg" xmlns:xlink="http://www.w3.org/1999/xlink">
<g id="graph0" class="graph" transform="scale(1 1) rotate(0) translate(4 90)">
<title>Acts::SpacePointBuilderConfig</title>
<!-- Node1 -->
<g id="Node000001" class="node">
<title>Node1</title>
<g id="a_Node000001"><a xlink:title=" ">
<polygon fill="#999999" stroke="#666666" points="830,-51.5 667,-51.5 667,-32.5 830,-32.5 830,-51.5"/>
<text text-anchor="middle" x="748.5" y="-39.5" font-family="Helvetica,sans-Serif" font-size="10.00">Acts::SpacePointBuilderConfig</text>
</a>
</g>
</g>
<!-- Node2 -->
<g id="Node000002" class="node">
<title>Node2</title>
<g id="a_Node000002"><a xlink:title=" ">
<polygon fill="white" stroke="#666666" points="523,-83 376,-83 376,-53 523,-53 523,-83"/>
<text text-anchor="start" x="384" y="-71" font-family="Helvetica,sans-Serif" font-size="10.00">std::shared_ptr&lt; const</text>
<text text-anchor="middle" x="449.5" y="-60" font-family="Helvetica,sans-Serif" font-size="10.00"> Acts::TrackingGeometry &gt;</text>
</a>
</g>
</g>
<!-- Node2&#45;&gt;Node1 -->
<g id="edge1_Node000001_Node000002" class="edge">
<title>Node2&#45;&gt;Node1</title>
<g id="a_edge1_Node000001_Node000002"><a xlink:title=" ">
<path fill="none" stroke="#9a32cd" stroke-dasharray="5,2" d="M533.3,-60.75C575.07,-57.09 625.53,-52.68 666.98,-49.05"/>
<polygon fill="#9a32cd" stroke="#9a32cd" points="532.81,-57.28 523.15,-61.64 533.42,-64.25 532.81,-57.28"/>
</a>
</g>
<text text-anchor="start" x="557.5" y="-63.5" font-family="Helvetica,sans-Serif" font-size="10.00" fill="grey">trackingGeometry</text>
</g>
<!-- Node3 -->
<g id="Node000003" class="node">
<title>Node3</title>
<g id="a_Node000003"><a xlink:title=" ">
<polygon fill="white" stroke="#666666" points="135,-79.5 17,-79.5 17,-60.5 135,-60.5 135,-79.5"/>
<text text-anchor="middle" x="76" y="-67.5" font-family="Helvetica,sans-Serif" font-size="10.00">std::shared_ptr&lt; T &gt;</text>
</a>
</g>
</g>
<!-- Node3&#45;&gt;Node2 -->
<g id="edge2_Node000002_Node000003" class="edge">
<title>Node3&#45;&gt;Node2</title>
<g id="a_edge2_Node000002_Node000003"><a xlink:title=" ">
<path fill="none" stroke="orange" stroke-dasharray="5,2" d="M145.25,-69.63C210.66,-69.28 309.05,-68.75 375.88,-68.39"/>
<polygon fill="orange" stroke="orange" points="145.03,-66.13 135.05,-69.69 145.07,-73.13 145.03,-66.13"/>
</a>
</g>
<text text-anchor="start" x="173.5" y="-74.5" font-family="Helvetica,sans-Serif" font-size="10.00" fill="grey">&lt; const Acts::TrackingGeometry &gt;</text>
</g>
<!-- Node4 -->
<g id="Node000004" class="node">
<title>Node4</title>
<g id="a_Node000004"><a xlink:href="class_acts_1_1_delegate.html" target="_top" xlink:title=" ">
<polygon fill="white" stroke="#666666" points="536,-33 363,-33 363,-3 536,-3 536,-33"/>
<text text-anchor="start" x="371" y="-21" font-family="Helvetica,sans-Serif" font-size="10.00">Acts::Delegate&lt; const</text>
<text text-anchor="middle" x="449.5" y="-10" font-family="Helvetica,sans-Serif" font-size="10.00"> Surface *(const SourceLink &amp;)&gt;</text>
</a>
</g>
</g>
<!-- Node4&#45;&gt;Node1 -->
<g id="edge3_Node000001_Node000004" class="edge">
<title>Node4&#45;&gt;Node1</title>
<g id="a_edge3_Node000001_Node000004"><a xlink:title=" ">
<path fill="none" stroke="#9a32cd" stroke-dasharray="5,2" d="M546.17,-18.75C578.85,-19.7 615.58,-21.54 649,-25 665.74,-26.73 683.94,-29.59 700.09,-32.48"/>
<polygon fill="#9a32cd" stroke="#9a32cd" points="546.26,-15.25 536.17,-18.48 546.07,-22.25 546.26,-15.25"/>
</a>
</g>
<text text-anchor="start" x="557.5" y="-30.5" font-family="Helvetica,sans-Serif" font-size="10.00" fill="grey">slSurfaceAccessor</text>
</g>
<!-- Node5 -->
<g id="Node000005" class="node">
<title>Node5</title>
<g id="a_Node000005"><a xlink:href="class_acts_1_1_delegate.html" target="_top" xlink:title=" ">
<polygon fill="white" stroke="#666666" points="152,-30 0,-30 0,0 152,0 152,-30"/>
<text text-anchor="start" x="8" y="-18" font-family="Helvetica,sans-Serif" font-size="10.00">Acts::Delegate&lt; typename,</text>
<text text-anchor="middle" x="76" y="-7" font-family="Helvetica,sans-Serif" font-size="10.00"> H, DelegateType &gt;</text>
</a>
</g>
</g>
<!-- Node5&#45;&gt;Node4 -->
<g id="edge4_Node000004_Node000005" class="edge">
<title>Node5&#45;&gt;Node4</title>
<g id="a_edge4_Node000004_Node000005"><a xlink:title=" ">
<path fill="none" stroke="orange" stroke-dasharray="5,2" d="M162.4,-15.69C222.47,-16.17 302.55,-16.82 362.71,-17.31"/>
<polygon fill="orange" stroke="orange" points="162.21,-12.19 152.18,-15.61 162.15,-19.19 162.21,-12.19"/>
</a>
</g>
<text text-anchor="start" x="199.5" y="-39" font-family="Helvetica,sans-Serif" font-size="10.00" fill="grey">&lt; const Surface *(const</text>
<text text-anchor="start" x="199.5" y="-24" font-family="Helvetica,sans-Serif" font-size="10.00" fill="grey">   SourceLink &amp;)&gt;</text>
</g>
</g>
</svg>
