<?xml version="1.0" encoding="UTF-8" standalone="no"?>
<!DOCTYPE svg PUBLIC "-//W3C//DTD SVG 1.1//EN"
 "http://www.w3.org/Graphics/SVG/1.1/DTD/svg11.dtd">
<!-- Generated by graphviz version 2.43.0 (0)
 -->
<!-- Title: Acts::SympyStepper::State Pages: 1 -->
<svg width="1002pt" height="205pt"
 viewBox="0.00 0.00 1002.00 204.50" xmlns="http://www.w3.org/2000/svg" xmlns:xlink="http://www.w3.org/1999/xlink">
<g id="graph0" class="graph" transform="scale(1 1) rotate(0) translate(4 200.5)">
<title>Acts::SympyStepper::State</title>
<!-- Node1 -->
<g id="Node000001" class="node">
<title>Node1</title>
<g id="a_Node000001"><a xlink:title="State for track parameter propagation.">
<polygon fill="#999999" stroke="#666666" points="994,-109.5 879,-109.5 879,-79.5 994,-79.5 994,-109.5"/>
<text text-anchor="start" x="887" y="-97.5" font-family="Helvetica,sans-Serif" font-size="10.00">Acts::SympyStepper</text>
<text text-anchor="middle" x="936.5" y="-86.5" font-family="Helvetica,sans-Serif" font-size="10.00">::State</text>
</a>
</g>
</g>
<!-- Node2 -->
<g id="Node000002" class="node">
<title>Node2</title>
<g id="a_Node000002"><a xlink:href="struct_acts_1_1_sympy_stepper_1_1_options.html" target="_top" xlink:title=" ">
<polygon fill="white" stroke="#666666" points="735.5,-192.5 620.5,-192.5 620.5,-162.5 735.5,-162.5 735.5,-192.5"/>
<text text-anchor="start" x="628.5" y="-180.5" font-family="Helvetica,sans-Serif" font-size="10.00">Acts::SympyStepper</text>
<text text-anchor="middle" x="678" y="-169.5" font-family="Helvetica,sans-Serif" font-size="10.00">::Options</text>
</a>
</g>
</g>
<!-- Node2&#45;&gt;Node1 -->
<g id="edge1_Node000001_Node000002" class="edge">
<title>Node2&#45;&gt;Node1</title>
<g id="a_edge1_Node000001_Node000002"><a xlink:title=" ">
<path fill="none" stroke="#9a32cd" stroke-dasharray="5,2" d="M745.9,-173.19C781.17,-169.18 824.56,-161.44 861,-146.5 882.6,-137.65 904.12,-121.65 918.44,-109.73"/>
<polygon fill="#9a32cd" stroke="#9a32cd" points="745.28,-169.73 735.71,-174.27 746.02,-176.7 745.28,-169.73"/>
</a>
</g>
<text text-anchor="start" x="794" y="-176" font-family="Helvetica,sans-Serif" font-size="10.00" fill="grey">options</text>
</g>
<!-- Node3 -->
<g id="Node000003" class="node">
<title>Node3</title>
<g id="a_Node000003"><a xlink:href="struct_acts_1_1_stepper_plain_options.html" target="_top" xlink:title=" ">
<polygon fill="white" stroke="#666666" points="447.5,-189 304.5,-189 304.5,-170 447.5,-170 447.5,-189"/>
<text text-anchor="middle" x="376" y="-177" font-family="Helvetica,sans-Serif" font-size="10.00">Acts::StepperPlainOptions</text>
</a>
</g>
</g>
<!-- Node3&#45;&gt;Node2 -->
<g id="edge2_Node000002_Node000003" class="edge">
<title>Node3&#45;&gt;Node2</title>
<g id="a_edge2_Node000002_Node000003"><a xlink:title=" ">
<path fill="none" stroke="#63b8ff" d="M457.79,-178.96C509.16,-178.62 574.4,-178.18 620.3,-177.88"/>
<polygon fill="#63b8ff" stroke="#63b8ff" points="457.69,-175.46 447.72,-179.03 457.74,-182.46 457.69,-175.46"/>
</a>
</g>
</g>
<!-- Node4 -->
<g id="Node000004" class="node">
<title>Node4</title>
<g id="a_Node000004"><a xlink:href="struct_acts_1_1_stepper_plain_options_1_1_dense.html" target="_top" xlink:title=" ">
<polygon fill="white" stroke="#666666" points="157.5,-195.5 14.5,-195.5 14.5,-165.5 157.5,-165.5 157.5,-195.5"/>
<text text-anchor="start" x="22.5" y="-183.5" font-family="Helvetica,sans-Serif" font-size="10.00">Acts::StepperPlainOptions</text>
<text text-anchor="middle" x="86" y="-172.5" font-family="Helvetica,sans-Serif" font-size="10.00">::Dense</text>
</a>
</g>
</g>
<!-- Node4&#45;&gt;Node3 -->
<g id="edge3_Node000003_Node000004" class="edge">
<title>Node4&#45;&gt;Node3</title>
<g id="a_edge3_Node000003_Node000004"><a xlink:title=" ">
<path fill="none" stroke="#9a32cd" stroke-dasharray="5,2" d="M167.96,-180.22C210.91,-180.07 263.18,-179.89 304.45,-179.74"/>
<polygon fill="#9a32cd" stroke="#9a32cd" points="167.81,-176.72 157.82,-180.25 167.83,-183.72 167.81,-176.72"/>
</a>
</g>
<text text-anchor="start" x="216" y="-185" font-family="Helvetica,sans-Serif" font-size="10.00" fill="grey">dense</text>
</g>
<!-- Node5 -->
<g id="Node000005" class="node">
<title>Node5</title>
<g id="a_Node000005"><a xlink:href="class_acts_1_1_particle_hypothesis.html" target="_top" xlink:title="Specialized particle hypothesis for any kind of charged particles.">
<polygon fill="white" stroke="#666666" points="745,-144 611,-144 611,-125 745,-125 745,-144"/>
<text text-anchor="middle" x="678" y="-132" font-family="Helvetica,sans-Serif" font-size="10.00">Acts::ParticleHypothesis</text>
</a>
</g>
</g>
<!-- Node5&#45;&gt;Node1 -->
<g id="edge4_Node000001_Node000005" class="edge">
<title>Node5&#45;&gt;Node1</title>
<g id="a_edge4_Node000001_Node000005"><a xlink:title=" ">
<path fill="none" stroke="#9a32cd" stroke-dasharray="5,2" d="M755.78,-127.23C788.35,-123.63 826.66,-118.7 861,-112.5 866.76,-111.46 872.74,-110.24 878.7,-108.95"/>
<polygon fill="#9a32cd" stroke="#9a32cd" points="754.98,-123.8 745.41,-128.35 755.73,-130.76 754.98,-123.8"/>
</a>
</g>
<text text-anchor="start" x="766" y="-131" font-family="Helvetica,sans-Serif" font-size="10.00" fill="grey">particleHypothesis</text>
</g>
<!-- Node6 -->
<g id="Node000006" class="node">
<title>Node6</title>
<g id="a_Node000006"><a xlink:href="class_acts_1_1_generic_particle_hypothesis.html" target="_top" xlink:title=" ">
<polygon fill="white" stroke="#666666" points="462,-149.5 290,-149.5 290,-119.5 462,-119.5 462,-149.5"/>
<text text-anchor="start" x="298" y="-137.5" font-family="Helvetica,sans-Serif" font-size="10.00">Acts::GenericParticleHypothesis</text>
<text text-anchor="middle" x="376" y="-126.5" font-family="Helvetica,sans-Serif" font-size="10.00">&lt; AnyCharge &gt;</text>
</a>
</g>
</g>
<!-- Node6&#45;&gt;Node5 -->
<g id="edge5_Node000005_Node000006" class="edge">
<title>Node6&#45;&gt;Node5</title>
<g id="a_edge5_Node000005_Node000006"><a xlink:title=" ">
<path fill="none" stroke="#63b8ff" d="M472.25,-134.5C517.33,-134.5 570.05,-134.5 610.7,-134.5"/>
<polygon fill="#63b8ff" stroke="#63b8ff" points="472.17,-131 462.17,-134.5 472.17,-138 472.17,-131"/>
</a>
</g>
</g>
<!-- Node7 -->
<g id="Node000007" class="node">
<title>Node7</title>
<g id="a_Node000007"><a xlink:href="class_acts_1_1_generic_particle_hypothesis.html" target="_top" xlink:title="Particle hypothesis used in reconstruction.">
<polygon fill="white" stroke="#666666" points="172,-147.5 0,-147.5 0,-117.5 172,-117.5 172,-147.5"/>
<text text-anchor="start" x="8" y="-135.5" font-family="Helvetica,sans-Serif" font-size="10.00">Acts::GenericParticleHypothesis</text>
<text text-anchor="middle" x="86" y="-124.5" font-family="Helvetica,sans-Serif" font-size="10.00">&lt; charge_t &gt;</text>
</a>
</g>
</g>
<!-- Node7&#45;&gt;Node6 -->
<g id="edge6_Node000006_Node000007" class="edge">
<title>Node7&#45;&gt;Node6</title>
<g id="a_edge6_Node000006_Node000007"><a xlink:title=" ">
<path fill="none" stroke="orange" stroke-dasharray="5,2" d="M182.4,-133.16C217.15,-133.4 256.18,-133.67 289.98,-133.91"/>
<polygon fill="orange" stroke="orange" points="182.26,-129.66 172.24,-133.09 182.22,-136.66 182.26,-129.66"/>
</a>
</g>
<text text-anchor="start" x="193" y="-139" font-family="Helvetica,sans-Serif" font-size="10.00" fill="grey">&lt; AnyCharge &gt;</text>
</g>
<!-- Node8 -->
<g id="Node000008" class="node">
<title>Node8</title>
<g id="a_Node000008"><a xlink:href="class_acts_1_1_constrained_step.html" target="_top" xlink:title="A constrained step class for the steppers.">
<polygon fill="white" stroke="#666666" points="740,-105 616,-105 616,-86 740,-86 740,-105"/>
<text text-anchor="middle" x="678" y="-93" font-family="Helvetica,sans-Serif" font-size="10.00">Acts::ConstrainedStep</text>
</a>
</g>
</g>
<!-- Node8&#45;&gt;Node1 -->
<g id="edge7_Node000001_Node000008" class="edge">
<title>Node8&#45;&gt;Node1</title>
<g id="a_edge7_Node000001_Node000008"><a xlink:title=" ">
<path fill="none" stroke="#9a32cd" stroke-dasharray="5,2" d="M750.21,-95.22C790.78,-95.06 840.92,-94.87 878.81,-94.72"/>
<polygon fill="#9a32cd" stroke="#9a32cd" points="750.1,-91.72 740.11,-95.26 750.13,-98.72 750.1,-91.72"/>
</a>
</g>
<text text-anchor="start" x="791" y="-100" font-family="Helvetica,sans-Serif" font-size="10.00" fill="grey">stepSize</text>
</g>
<!-- Node9 -->
<g id="Node000009" class="node">
<title>Node9</title>
<g id="a_Node000009"><a xlink:href="class_acts_1_1_any_base.html" target="_top" xlink:title=" ">
<polygon fill="white" stroke="#666666" points="741.5,-67.5 614.5,-67.5 614.5,-37.5 741.5,-37.5 741.5,-67.5"/>
<text text-anchor="start" x="622.5" y="-55.5" font-family="Helvetica,sans-Serif" font-size="10.00">Acts::AnyBase&lt; sizeof</text>
<text text-anchor="middle" x="678" y="-44.5" font-family="Helvetica,sans-Serif" font-size="10.00">(char) *512 &gt;</text>
</a>
</g>
</g>
<!-- Node9&#45;&gt;Node1 -->
<g id="edge8_Node000001_Node000009" class="edge">
<title>Node9&#45;&gt;Node1</title>
<g id="a_edge8_Node000001_Node000009"><a xlink:title=" ">
<path fill="none" stroke="#9a32cd" stroke-dasharray="5,2" d="M751.87,-58.22C785.31,-61.53 825.37,-66.47 861,-73.5 869.31,-75.14 878.04,-77.24 886.48,-79.48"/>
<polygon fill="#9a32cd" stroke="#9a32cd" points="752,-54.72 741.71,-57.24 751.33,-61.69 752,-54.72"/>
</a>
</g>
<text text-anchor="start" x="786" y="-79" font-family="Helvetica,sans-Serif" font-size="10.00" fill="grey">fieldCache</text>
</g>
<!-- Node10 -->
<g id="Node000010" class="node">
<title>Node10</title>
<g id="a_Node000010"><a xlink:href="class_acts_1_1_any_base_all.html" target="_top" xlink:title="Base class for all instances of AnyBase regarfless of SBO size.">
<polygon fill="white" stroke="#666666" points="135.5,-64 36.5,-64 36.5,-45 135.5,-45 135.5,-64"/>
<text text-anchor="middle" x="86" y="-52" font-family="Helvetica,sans-Serif" font-size="10.00">Acts::AnyBaseAll</text>
</a>
</g>
</g>
<!-- Node10&#45;&gt;Node9 -->
<g id="edge9_Node000009_Node000010" class="edge">
<title>Node10&#45;&gt;Node9</title>
<g id="a_edge9_Node000009_Node000010"><a xlink:title=" ">
<path fill="none" stroke="#63b8ff" d="M146.01,-55.17C160.4,-55.31 175.75,-55.43 190,-55.5 369.11,-56.37 413.92,-58.7 593,-55.5 599.86,-55.38 607.03,-55.2 614.17,-54.99"/>
<polygon fill="#63b8ff" stroke="#63b8ff" points="145.76,-51.67 135.73,-55.07 145.69,-58.67 145.76,-51.67"/>
</a>
</g>
</g>
<!-- Node11 -->
<g id="Node000011" class="node">
<title>Node11</title>
<g id="a_Node000011"><a xlink:href="class_acts_1_1_any_base.html" target="_top" xlink:title="Small opaque cache type with configurable small buffer optimization.">
<polygon fill="white" stroke="#666666" points="441.5,-41 310.5,-41 310.5,-22 441.5,-22 441.5,-41"/>
<text text-anchor="middle" x="376" y="-29" font-family="Helvetica,sans-Serif" font-size="10.00">Acts::AnyBase&lt; SIZE &gt;</text>
</a>
</g>
</g>
<!-- Node10&#45;&gt;Node11 -->
<g id="edge11_Node000011_Node000010" class="edge">
<title>Node10&#45;&gt;Node11</title>
<g id="a_edge11_Node000011_Node000010"><a xlink:title=" ">
<path fill="none" stroke="#63b8ff" d="M145.72,-49.81C193.53,-45.99 260.95,-40.61 310.3,-36.67"/>
<polygon fill="#63b8ff" stroke="#63b8ff" points="145.22,-46.34 135.53,-50.62 145.78,-53.32 145.22,-46.34"/>
</a>
</g>
</g>
<!-- Node11&#45;&gt;Node9 -->
<g id="edge10_Node000009_Node000011" class="edge">
<title>Node11&#45;&gt;Node9</title>
<g id="a_edge10_Node000009_Node000011"><a xlink:title=" ">
<path fill="none" stroke="orange" stroke-dasharray="5,2" d="M451.95,-31.49C493.59,-32.09 546.26,-33.87 593,-38.5 599.91,-39.19 607.12,-40.09 614.28,-41.11"/>
<polygon fill="orange" stroke="orange" points="451.93,-27.99 441.89,-31.36 451.85,-34.99 451.93,-27.99"/>
</a>
</g>
<text text-anchor="start" x="483.5" y="-44" font-family="Helvetica,sans-Serif" font-size="10.00" fill="grey">&lt; sizeof(char) *512 &gt;</text>
</g>
<!-- Node12 -->
<g id="Node000012" class="node">
<title>Node12</title>
<g id="a_Node000012"><a xlink:href="struct_acts_1_1_stepper_statistics.html" target="_top" xlink:title="A struct to hold statistics of the stepper.">
<polygon fill="white" stroke="#666666" points="741,-19 615,-19 615,0 741,0 741,-19"/>
<text text-anchor="middle" x="678" y="-7" font-family="Helvetica,sans-Serif" font-size="10.00">Acts::StepperStatistics</text>
</a>
</g>
</g>
<!-- Node12&#45;&gt;Node1 -->
<g id="edge12_Node000001_Node000012" class="edge">
<title>Node12&#45;&gt;Node1</title>
<g id="a_edge12_Node000001_Node000012"><a xlink:title=" ">
<path fill="none" stroke="#9a32cd" stroke-dasharray="5,2" d="M751.26,-12.94C785.59,-16.57 826.55,-23.88 861,-38.5 883.79,-48.17 905.95,-66.28 920.09,-79.29"/>
<polygon fill="#9a32cd" stroke="#9a32cd" points="751.59,-9.45 741.3,-11.96 750.91,-16.42 751.59,-9.45"/>
</a>
</g>
<text text-anchor="start" x="790" y="-44" font-family="Helvetica,sans-Serif" font-size="10.00" fill="grey">statistics</text>
</g>
</g>
</svg>
