<?xml version="1.0" encoding="UTF-8" standalone="no"?>
<!DOCTYPE svg PUBLIC "-//W3C//DTD SVG 1.1//EN"
 "http://www.w3.org/Graphics/SVG/1.1/DTD/svg11.dtd">
<!-- Generated by graphviz version 2.43.0 (0)
 -->
<!-- Title: Acts::TrackingGeometryBuilder::Config Pages: 1 -->
<!--zoomable 287 -->

<svg id="main" version="1.1" xmlns="http://www.w3.org/2000/svg" xmlns:xlink="http://www.w3.org/1999/xlink" xml:space="preserve" onload="init(evt)">

<style type="text/css"><![CDATA[
.node, .edge {opacity: 0.7;}
.node.selected, .edge.selected {opacity: 1;}
.edge:hover path { stroke: red; }
.edge:hover polygon { stroke: red; fill: red; }
]]></style>

<defs>
  <circle id="rim" cx="0" cy="0" r="7"/>
  <circle id="rim2" cx="0" cy="0" r="3.5"/>
  <g id="zoomPlus">
    <use xlink:href="#rim" fill="#404040"><set attributeName="fill" to="#808080" begin="zoomplus.mouseover" end="zoomplus.mouseout"/></use>
    <path d="M-4,0h8M0,-4v8" fill="none" stroke="white" stroke-width="1.5" pointer-events="none"/>
  </g>
  <g id="zoomMin">
    <use xlink:href="#rim" fill="#404040"><set attributeName="fill" to="#808080" begin="zoomminus.mouseover" end="zoomminus.mouseout"/></use>
    <path d="M-4,0h8" fill="none" stroke="white" stroke-width="1.5" pointer-events="none"/>
  </g>
  <g id="arrowUp" transform="translate(30 24)">
    <use xlink:href="#rim"/>
    <path pointer-events="none" fill="none" stroke="white" stroke-width="1.5" d="M0,-3.0v7 M-2.5,-0.5L0,-3.0L2.5,-0.5"/>
  </g>
  <g id="arrowRight" transform="rotate(90) translate(36 -43)">
    <use xlink:href="#rim"/>
    <path pointer-events="none" fill="none" stroke="white" stroke-width="1.5" d="M0,-3.0v7 M-2.5,-0.5L0,-3.0L2.5,-0.5"/>
  </g>
  <g id="arrowDown" transform="rotate(180) translate(-30 -48)">
    <use xlink:href="#rim"/>
    <path pointer-events="none" fill="none" stroke="white" stroke-width="1.5" d="M0,-3.0v7 M-2.5,-0.5L0,-3.0L2.5,-0.5"/>
  </g>
  <g id="arrowLeft" transform="rotate(270) translate(-36 17)">
    <use xlink:href="#rim"/>
    <path pointer-events="none" fill="none" stroke="white" stroke-width="1.5" d="M0,-3.0v7 M-2.5,-0.5L0,-3.0L2.5,-0.5"/>
  </g>
  <g id="resetDef">
    <use xlink:href="#rim2" fill="#404040"><set attributeName="fill" to="#808080" begin="reset.mouseover" end="reset.mouseout"/></use>
  </g>
</defs>
<script type="application/ecmascript">
var viewWidth = 872;
var viewHeight = 287;
var sectionId = 'dynsection-0';
</script>
<script type="application/ecmascript" xlink:href="svg.min.js"/>
<svg id="graph" class="graph">
<g id="viewport">
<title>Acts::TrackingGeometryBuilder::Config</title>
<!-- Node1 -->
<g id="Node000001" class="node">
<title>Node1</title>
<g id="a_Node000001"><a xlink:title="Nested Configuration for the CylinderVolumeBuilder.">
<polygon fill="#999999" stroke="#666666" points="864,-102 697,-102 697,-72 864,-72 864,-102"/>
<text text-anchor="start" x="705" y="-90" font-family="Helvetica,sans-Serif" font-size="10.00">Acts::TrackingGeometryBuilder</text>
<text text-anchor="middle" x="780.5" y="-79" font-family="Helvetica,sans-Serif" font-size="10.00">::Config</text>
</a>
</g>
</g>
<!-- Node2 -->
<g id="Node000002" class="node">
<title>Node2</title>
<g id="a_Node000002"><a xlink:title=" ">
<polygon fill="white" stroke="#666666" points="534,-229.5 366,-229.5 366,-144.5 534,-144.5 534,-229.5"/>
<text text-anchor="start" x="374" y="-217.5" font-family="Helvetica,sans-Serif" font-size="10.00">std::vector&lt; std::function</text>
<text text-anchor="start" x="374" y="-206.5" font-family="Helvetica,sans-Serif" font-size="10.00">&lt; std::shared_ptr&lt; Acts</text>
<text text-anchor="start" x="374" y="-195.5" font-family="Helvetica,sans-Serif" font-size="10.00">::TrackingVolume &gt;(const</text>
<text text-anchor="start" x="374" y="-184.5" font-family="Helvetica,sans-Serif" font-size="10.00"> Acts::GeometryContext &amp;gctx,</text>
<text text-anchor="start" x="374" y="-173.5" font-family="Helvetica,sans-Serif" font-size="10.00"> const TrackingVolumePtr &amp;,</text>
<text text-anchor="start" x="374" y="-162.5" font-family="Helvetica,sans-Serif" font-size="10.00"> const std::shared_ptr&lt; const</text>
<text text-anchor="middle" x="450" y="-151.5" font-family="Helvetica,sans-Serif" font-size="10.00"> Acts::VolumeBounds &gt; &amp;)&gt; &gt;</text>
</a>
</g>
</g>
<!-- Node2&#45;&gt;Node1 -->
<g id="edge1_Node000001_Node000002" class="edge">
<title>Node2&#45;&gt;Node1</title>
<g id="a_edge1_Node000001_Node000002"><a xlink:title=" ">
<path fill="none" stroke="#9a32cd" stroke-dasharray="5,2" d="M543.91,-163.2C585.47,-152.08 634.94,-138.17 679,-124 699.53,-117.4 722.09,-109.18 740.63,-102.17"/>
<polygon fill="#9a32cd" stroke="#9a32cd" points="542.84,-159.87 534.07,-165.82 544.64,-166.63 542.84,-159.87"/>
</a>
</g>
<text text-anchor="start" x="559.5" y="-163.5" font-family="Helvetica,sans-Serif" font-size="10.00" fill="grey">trackingVolumeBuilders</text>
</g>
<!-- Node3 -->
<g id="Node000003" class="node">
<title>Node3</title>
<g id="a_Node000003"><a xlink:title=" ">
<polygon fill="white" stroke="#666666" points="107.5,-196.5 10.5,-196.5 10.5,-177.5 107.5,-177.5 107.5,-196.5"/>
<text text-anchor="middle" x="59" y="-184.5" font-family="Helvetica,sans-Serif" font-size="10.00">std::vector&lt; T &gt;</text>
</a>
</g>
</g>
<!-- Node3&#45;&gt;Node2 -->
<g id="edge2_Node000002_Node000003" class="edge">
<title>Node3&#45;&gt;Node2</title>
<g id="a_edge2_Node000002_Node000003"><a xlink:title=" ">
<path fill="none" stroke="orange" stroke-dasharray="5,2" d="M117.86,-187C183.52,-187 291.15,-187 365.8,-187"/>
<polygon fill="orange" stroke="orange" points="117.7,-183.5 107.7,-187 117.7,-190.5 117.7,-183.5"/>
</a>
</g>
<text text-anchor="start" x="139" y="-268" font-family="Helvetica,sans-Serif" font-size="10.00" fill="grey">&lt; std::function&lt; std</text>
<text text-anchor="start" x="139" y="-253" font-family="Helvetica,sans-Serif" font-size="10.00" fill="grey">  ::shared_ptr&lt; Acts::Tracking</text>
<text text-anchor="start" x="139" y="-238" font-family="Helvetica,sans-Serif" font-size="10.00" fill="grey">  Volume &gt;(const Acts::GeometryContext</text>
<text text-anchor="start" x="139" y="-223" font-family="Helvetica,sans-Serif" font-size="10.00" fill="grey">   &amp;gctx, const TrackingVolumePtr</text>
<text text-anchor="start" x="139" y="-208" font-family="Helvetica,sans-Serif" font-size="10.00" fill="grey">   &amp;, const std::shared_ptr&lt; const</text>
<text text-anchor="start" x="139" y="-193" font-family="Helvetica,sans-Serif" font-size="10.00" fill="grey">   Acts::VolumeBounds &gt; &amp;)&gt; &gt;</text>
</g>
<!-- Node4 -->
<g id="Node000004" class="node">
<title>Node4</title>
<g id="a_Node000004"><a xlink:title=" ">
<polygon fill="white" stroke="#666666" points="535,-126 365,-126 365,-96 535,-96 535,-126"/>
<text text-anchor="start" x="373" y="-114" font-family="Helvetica,sans-Serif" font-size="10.00">std::shared_ptr&lt; const</text>
<text text-anchor="middle" x="450" y="-103" font-family="Helvetica,sans-Serif" font-size="10.00"> Acts::ITrackingVolumeHelper &gt;</text>
</a>
</g>
</g>
<!-- Node4&#45;&gt;Node1 -->
<g id="edge3_Node000001_Node000004" class="edge">
<title>Node4&#45;&gt;Node1</title>
<g id="a_edge3_Node000001_Node000004"><a xlink:title=" ">
<path fill="none" stroke="#9a32cd" stroke-dasharray="5,2" d="M545.24,-104.12C593.15,-100.61 650.83,-96.4 696.97,-93.03"/>
<polygon fill="#9a32cd" stroke="#9a32cd" points="544.89,-100.63 535.17,-104.85 545.4,-107.61 544.89,-100.63"/>
</a>
</g>
<text text-anchor="start" x="563.5" y="-108.5" font-family="Helvetica,sans-Serif" font-size="10.00" fill="grey">trackingVolumeHelper</text>
</g>
<!-- Node5 -->
<g id="Node000005" class="node">
<title>Node5</title>
<g id="a_Node000005"><a xlink:title=" ">
<polygon fill="white" stroke="#666666" points="118,-79.5 0,-79.5 0,-60.5 118,-60.5 118,-79.5"/>
<text text-anchor="middle" x="59" y="-67.5" font-family="Helvetica,sans-Serif" font-size="10.00">std::shared_ptr&lt; T &gt;</text>
</a>
</g>
</g>
<!-- Node5&#45;&gt;Node4 -->
<g id="edge4_Node000004_Node000005" class="edge">
<title>Node5&#45;&gt;Node4</title>
<g id="a_edge4_Node000004_Node000005"><a xlink:title=" ">
<path fill="none" stroke="orange" stroke-dasharray="5,2" d="M103,-82.14C113.71,-84.78 125.21,-87.29 136,-89 212.93,-101.22 301.58,-106.66 364.85,-109.07"/>
<polygon fill="orange" stroke="orange" points="103.59,-78.68 93.04,-79.59 101.86,-85.46 103.59,-78.68"/>
</a>
</g>
<text text-anchor="start" x="166" y="-128" font-family="Helvetica,sans-Serif" font-size="10.00" fill="grey">&lt; const Acts::ITrackingVolume</text>
<text text-anchor="start" x="166" y="-113" font-family="Helvetica,sans-Serif" font-size="10.00" fill="grey">  Helper &gt;</text>
</g>
<!-- Node6 -->
<g id="Node000006" class="node">
<title>Node6</title>
<g id="a_Node000006"><a xlink:title=" ">
<polygon fill="white" stroke="#666666" points="524.5,-78 375.5,-78 375.5,-48 524.5,-48 524.5,-78"/>
<text text-anchor="start" x="383.5" y="-66" font-family="Helvetica,sans-Serif" font-size="10.00">std::shared_ptr&lt; const</text>
<text text-anchor="middle" x="450" y="-55" font-family="Helvetica,sans-Serif" font-size="10.00"> Acts::IMaterialDecorator &gt;</text>
</a>
</g>
</g>
<!-- Node5&#45;&gt;Node6 -->
<g id="edge6_Node000006_Node000005" class="edge">
<title>Node5&#45;&gt;Node6</title>
<g id="a_edge6_Node000006_Node000005"><a xlink:title=" ">
<path fill="none" stroke="orange" stroke-dasharray="5,2" d="M128.6,-68.77C197.84,-67.52 304.41,-65.6 375.39,-64.32"/>
<polygon fill="orange" stroke="orange" points="128.17,-65.27 118.24,-68.95 128.3,-72.27 128.17,-65.27"/>
</a>
</g>
<text text-anchor="start" x="155" y="-73.5" font-family="Helvetica,sans-Serif" font-size="10.00" fill="grey">&lt; const Acts::IMaterialDecorator &gt;</text>
</g>
<!-- Node7 -->
<g id="Node000007" class="node">
<title>Node7</title>
<g id="a_Node000007"><a xlink:title=" ">
<polygon fill="white" stroke="#666666" points="538,-30 362,-30 362,0 538,0 538,-30"/>
<text text-anchor="start" x="370" y="-18" font-family="Helvetica,sans-Serif" font-size="10.00">std::shared_ptr&lt; const</text>
<text text-anchor="middle" x="450" y="-7" font-family="Helvetica,sans-Serif" font-size="10.00"> Acts::GeometryIdentifierHook &gt;</text>
</a>
</g>
</g>
<!-- Node5&#45;&gt;Node7 -->
<g id="edge8_Node000007_Node000005" class="edge">
<title>Node5&#45;&gt;Node7</title>
<g id="a_edge8_Node000007_Node000005"><a xlink:title=" ">
<path fill="none" stroke="orange" stroke-dasharray="5,2" d="M81.96,-54.7C96.56,-45.42 116.56,-34.37 136,-29 210.19,-8.49 297.99,-6.38 361.69,-8.59"/>
<polygon fill="orange" stroke="orange" points="79.64,-52.04 73.21,-60.46 83.49,-57.89 79.64,-52.04"/>
</a>
</g>
<text text-anchor="start" x="160" y="-50" font-family="Helvetica,sans-Serif" font-size="10.00" fill="grey">&lt; const Acts::GeometryIdentifier</text>
<text text-anchor="start" x="160" y="-35" font-family="Helvetica,sans-Serif" font-size="10.00" fill="grey">  Hook &gt;</text>
</g>
<!-- Node6&#45;&gt;Node1 -->
<g id="edge5_Node000001_Node000006" class="edge">
<title>Node6&#45;&gt;Node1</title>
<g id="a_edge5_Node000001_Node000006"><a xlink:title=" ">
<path fill="none" stroke="#9a32cd" stroke-dasharray="5,2" d="M534.71,-64.78C577.87,-66.17 631.33,-68.64 679,-73 684.79,-73.53 690.76,-74.15 696.76,-74.84"/>
<polygon fill="#9a32cd" stroke="#9a32cd" points="534.64,-61.27 524.54,-64.46 534.42,-68.27 534.64,-61.27"/>
</a>
</g>
<text text-anchor="start" x="572.5" y="-78.5" font-family="Helvetica,sans-Serif" font-size="10.00" fill="grey">materialDecorator</text>
</g>
<!-- Node7&#45;&gt;Node1 -->
<g id="edge7_Node000001_Node000007" class="edge">
<title>Node7&#45;&gt;Node1</title>
<g id="a_edge7_Node000001_Node000007"><a xlink:title=" ">
<path fill="none" stroke="#9a32cd" stroke-dasharray="5,2" d="M548.15,-21.37C589.05,-25.58 636.85,-32.54 679,-44 703.91,-50.77 730.71,-62.48 750.37,-71.98"/>
<polygon fill="#9a32cd" stroke="#9a32cd" points="548.47,-17.88 538.18,-20.38 547.78,-24.85 548.47,-17.88"/>
</a>
</g>
<text text-anchor="start" x="559.5" y="-49.5" font-family="Helvetica,sans-Serif" font-size="10.00" fill="grey">geometryIdentifierHook</text>
</g>
</g>
</svg>

<g id="navigator" transform="translate(0 0)" fill="#404254">
  <rect fill="#f2f5e9" fill-opacity="0.5" stroke="#606060" stroke-width=".5" x="0" y="0" width="60" height="60"/>
  <use id="zoomplus" xlink:href="#zoomPlus" x="17" y="9" onmousedown="handleZoom(evt,'in')"/>
  <use id="zoomminus" xlink:href="#zoomMin" x="42" y="9" onmousedown="handleZoom(evt,'out')"/>
  <use id="reset" xlink:href="#resetDef" x="30" y="36" onmousedown="handleReset()"/>
   <use id="arrowup" xlink:href="#arrowUp" x="0" y="0" onmousedown="handlePan(0,-1)"/>
  <use id="arrowright" xlink:href="#arrowRight" x="0" y="0" onmousedown="handlePan(1,0)"/>
  <use id="arrowdown" xlink:href="#arrowDown" x="0" y="0" onmousedown="handlePan(0,1)"/>
  <use id="arrowleft" xlink:href="#arrowLeft" x="0" y="0" onmousedown="handlePan(-1,0)"/>
</g>
<svg viewBox="0 0 15 15" width="100%" height="30px" preserveAspectRatio="xMaxYMin meet">
 <g id="arrow_out" transform="scale(0.3 0.3)">
  <a xlink:href="struct_acts_1_1_tracking_geometry_builder_1_1_config__coll__graph_org.svg" target="_base">
   <rect id="button" ry="5" rx="5" y="6" x="6" height="38" width="38"
        fill="#f2f5e9" fill-opacity="0.5" stroke="#606060" stroke-width="1.0"/>
   <path id="arrow"
     d="M 11.500037,31.436501 C 11.940474,20.09759 22.043105,11.32322 32.158766,21.979434 L 37.068811,17.246167 C 37.068811,17.246167 37.088388,32 37.088388,32 L 22.160133,31.978069 C 22.160133,31.978069 26.997745,27.140456 26.997745,27.140456 C 18.528582,18.264221 13.291696,25.230495 11.500037,31.436501 z"
     style="fill:#404040;"/>
  </a>
 </g>
</svg>

<style type='text/css'>
<![CDATA[
[data-mouse-over-selected='false'] { opacity: 0.7; }
[data-mouse-over-selected='true']  { opacity: 1.0; }
]]>
</style>
<script type="application/ecmascript"><![CDATA[
document.addEventListener('DOMContentLoaded', (event) => {
  highlightEdges();
  highlightAdjacentNodes();
});
]]></script>
</svg>
