<?xml version="1.0" encoding="UTF-8" standalone="no"?>
<!DOCTYPE svg PUBLIC "-//W3C//DTD SVG 1.1//EN"
 "http://www.w3.org/Graphics/SVG/1.1/DTD/svg11.dtd">
<!-- Generated by graphviz version 2.43.0 (0)
 -->
<!-- Title: Acts::ProtoLayer Pages: 1 -->
<svg width="231pt" height="233pt"
 viewBox="0.00 0.00 231.00 233.00" xmlns="http://www.w3.org/2000/svg" xmlns:xlink="http://www.w3.org/1999/xlink">
<g id="graph0" class="graph" transform="scale(1 1) rotate(0) translate(4 229)">
<title>Acts::ProtoLayer</title>
<!-- Node1 -->
<g id="Node000001" class="node">
<title>Node1</title>
<g id="a_Node000001"><a xlink:title="Forward&#45;declaration friendly class for backward compatibility This class does not allow modification ...">
<polygon fill="#999999" stroke="#666666" points="129,-19 33,-19 33,0 129,0 129,-19"/>
<text text-anchor="middle" x="81" y="-7" font-family="Helvetica,sans-Serif" font-size="10.00">Acts::ProtoLayer</text>
</a>
</g>
</g>
<!-- Node2 -->
<g id="Node000002" class="node">
<title>Node2</title>
<g id="a_Node000002"><a xlink:title=" ">
<polygon fill="white" stroke="#666666" points="146,-86 16,-86 16,-56 146,-56 146,-86"/>
<text text-anchor="start" x="24" y="-74" font-family="Helvetica,sans-Serif" font-size="10.00">Acts::detail::ProtoLayer</text>
<text text-anchor="middle" x="81" y="-63" font-family="Helvetica,sans-Serif" font-size="10.00">T&lt; true &gt;</text>
</a>
</g>
</g>
<!-- Node2&#45;&gt;Node1 -->
<g id="edge1_Node000001_Node000002" class="edge">
<title>Node2&#45;&gt;Node1</title>
<g id="a_edge1_Node000001_Node000002"><a xlink:title=" ">
<path fill="none" stroke="#63b8ff" d="M81,-45.79C81,-36.36 81,-26.15 81,-19.16"/>
<polygon fill="#63b8ff" stroke="#63b8ff" points="77.5,-45.9 81,-55.9 84.5,-45.9 77.5,-45.9"/>
</a>
</g>
</g>
<!-- Node3 -->
<g id="Node000003" class="node">
<title>Node3</title>
<g id="a_Node000003"><a xlink:title=" ">
<polygon fill="white" stroke="#666666" points="154,-225 0,-225 0,-206 154,-206 154,-225"/>
<text text-anchor="middle" x="77" y="-213" font-family="Helvetica,sans-Serif" font-size="10.00">Acts::detail::ProtoLayerBase</text>
</a>
</g>
</g>
<!-- Node3&#45;&gt;Node2 -->
<g id="edge2_Node000002_Node000003" class="edge">
<title>Node3&#45;&gt;Node2</title>
<g id="a_edge2_Node000002_Node000003"><a xlink:title=" ">
<path fill="none" stroke="#63b8ff" d="M77.53,-195.54C78.35,-166.58 79.88,-111.99 80.6,-86.19"/>
<polygon fill="#63b8ff" stroke="#63b8ff" points="74.03,-195.49 77.25,-205.59 81.03,-195.69 74.03,-195.49"/>
</a>
</g>
</g>
<!-- Node4 -->
<g id="Node000004" class="node">
<title>Node4</title>
<g id="a_Node000004"><a xlink:title=" ">
<polygon fill="white" stroke="#666666" points="223,-169 93,-169 93,-139 223,-139 223,-169"/>
<text text-anchor="start" x="101" y="-157" font-family="Helvetica,sans-Serif" font-size="10.00">Acts::detail::ProtoLayer</text>
<text text-anchor="middle" x="158" y="-146" font-family="Helvetica,sans-Serif" font-size="10.00">T&lt; IsConst &gt;</text>
</a>
</g>
</g>
<!-- Node3&#45;&gt;Node4 -->
<g id="edge4_Node000004_Node000003" class="edge">
<title>Node3&#45;&gt;Node4</title>
<g id="a_edge4_Node000004_Node000003"><a xlink:title=" ">
<path fill="none" stroke="#63b8ff" d="M96.78,-199.97C109.61,-190.55 126.23,-178.34 138.91,-169.02"/>
<polygon fill="#63b8ff" stroke="#63b8ff" points="94.59,-197.23 88.61,-205.98 98.74,-202.88 94.59,-197.23"/>
</a>
</g>
</g>
<!-- Node4&#45;&gt;Node2 -->
<g id="edge3_Node000002_Node000004" class="edge">
<title>Node4&#45;&gt;Node2</title>
<g id="a_edge3_Node000002_Node000004"><a xlink:title=" ">
<path fill="none" stroke="orange" stroke-dasharray="5,2" d="M137.49,-131.42C123.88,-117.1 106.4,-98.72 94.52,-86.22"/>
<polygon fill="orange" stroke="orange" points="135.16,-134.05 144.59,-138.89 140.23,-129.23 135.16,-134.05"/>
</a>
</g>
<text text-anchor="start" x="129.5" y="-109.5" font-family="Helvetica,sans-Serif" font-size="10.00" fill="grey">&lt; true &gt;</text>
</g>
</g>
</svg>
