<?xml version="1.0" encoding="UTF-8" standalone="no"?>
<!DOCTYPE svg PUBLIC "-//W3C//DTD SVG 1.1//EN"
 "http://www.w3.org/Graphics/SVG/1.1/DTD/svg11.dtd">
<!-- Generated by graphviz version 2.43.0 (0)
 -->
<!-- Title: Acts::AdaptiveMultiVertexFitter::State Pages: 1 -->
<!--zoomable 367 -->

<svg id="main" version="1.1" xmlns="http://www.w3.org/2000/svg" xmlns:xlink="http://www.w3.org/1999/xlink" xml:space="preserve" onload="init(evt)">

<style type="text/css"><![CDATA[
.node, .edge {opacity: 0.7;}
.node.selected, .edge.selected {opacity: 1;}
.edge:hover path { stroke: red; }
.edge:hover polygon { stroke: red; fill: red; }
]]></style>

<defs>
  <circle id="rim" cx="0" cy="0" r="7"/>
  <circle id="rim2" cx="0" cy="0" r="3.5"/>
  <g id="zoomPlus">
    <use xlink:href="#rim" fill="#404040"><set attributeName="fill" to="#808080" begin="zoomplus.mouseover" end="zoomplus.mouseout"/></use>
    <path d="M-4,0h8M0,-4v8" fill="none" stroke="white" stroke-width="1.5" pointer-events="none"/>
  </g>
  <g id="zoomMin">
    <use xlink:href="#rim" fill="#404040"><set attributeName="fill" to="#808080" begin="zoomminus.mouseover" end="zoomminus.mouseout"/></use>
    <path d="M-4,0h8" fill="none" stroke="white" stroke-width="1.5" pointer-events="none"/>
  </g>
  <g id="arrowUp" transform="translate(30 24)">
    <use xlink:href="#rim"/>
    <path pointer-events="none" fill="none" stroke="white" stroke-width="1.5" d="M0,-3.0v7 M-2.5,-0.5L0,-3.0L2.5,-0.5"/>
  </g>
  <g id="arrowRight" transform="rotate(90) translate(36 -43)">
    <use xlink:href="#rim"/>
    <path pointer-events="none" fill="none" stroke="white" stroke-width="1.5" d="M0,-3.0v7 M-2.5,-0.5L0,-3.0L2.5,-0.5"/>
  </g>
  <g id="arrowDown" transform="rotate(180) translate(-30 -48)">
    <use xlink:href="#rim"/>
    <path pointer-events="none" fill="none" stroke="white" stroke-width="1.5" d="M0,-3.0v7 M-2.5,-0.5L0,-3.0L2.5,-0.5"/>
  </g>
  <g id="arrowLeft" transform="rotate(270) translate(-36 17)">
    <use xlink:href="#rim"/>
    <path pointer-events="none" fill="none" stroke="white" stroke-width="1.5" d="M0,-3.0v7 M-2.5,-0.5L0,-3.0L2.5,-0.5"/>
  </g>
  <g id="resetDef">
    <use xlink:href="#rim2" fill="#404040"><set attributeName="fill" to="#808080" begin="reset.mouseover" end="reset.mouseout"/></use>
  </g>
</defs>
<script type="application/ecmascript">
var viewWidth = 1186;
var viewHeight = 367;
var sectionId = 'dynsection-0';
</script>
<script type="application/ecmascript" xlink:href="svg.min.js"/>
<svg id="graph" class="graph">
<g id="viewport">
<title>Acts::AdaptiveMultiVertexFitter::State</title>
<!-- Node1 -->
<g id="Node000001" class="node">
<title>Node1</title>
<g id="a_Node000001"><a xlink:title="The fitter state.">
<polygon fill="#999999" stroke="#666666" points="1178,-207.5 1035,-207.5 1035,-177.5 1178,-177.5 1178,-207.5"/>
<text text-anchor="start" x="1043" y="-195.5" font-family="Helvetica,sans-Serif" font-size="10.00">Acts::AdaptiveMultiVertex</text>
<text text-anchor="middle" x="1106.5" y="-184.5" font-family="Helvetica,sans-Serif" font-size="10.00">Fitter::State</text>
</a>
</g>
</g>
<!-- Node2 -->
<g id="Node000002" class="node">
<title>Node2</title>
<g id="a_Node000002"><a xlink:title=" ">
<polygon fill="white" stroke="#666666" points="851,-356.5 744,-356.5 744,-326.5 851,-326.5 851,-356.5"/>
<text text-anchor="start" x="752" y="-344.5" font-family="Helvetica,sans-Serif" font-size="10.00">std::vector&lt; Acts::</text>
<text text-anchor="middle" x="797.5" y="-333.5" font-family="Helvetica,sans-Serif" font-size="10.00">Vertex * &gt;</text>
</a>
</g>
</g>
<!-- Node2&#45;&gt;Node1 -->
<g id="edge1_Node000001_Node000002" class="edge">
<title>Node2&#45;&gt;Node1</title>
<g id="a_edge1_Node000001_Node000002"><a xlink:title=" ">
<path fill="none" stroke="#9a32cd" stroke-dasharray="5,2" d="M861.31,-343.82C907.38,-342.77 969.86,-335.41 1017,-307.5 1057.54,-283.5 1086.07,-233.2 1098.51,-207.83"/>
<polygon fill="#9a32cd" stroke="#9a32cd" points="861.1,-340.32 851.15,-343.95 861.19,-347.32 861.1,-340.32"/>
</a>
</g>
<text text-anchor="start" x="913.5" y="-347" font-family="Helvetica,sans-Serif" font-size="10.00" fill="grey">vertexCollection</text>
</g>
<!-- Node3 -->
<g id="Node000003" class="node">
<title>Node3</title>
<g id="a_Node000003"><a xlink:title=" ">
<polygon fill="white" stroke="#666666" points="528,-351 431,-351 431,-332 528,-332 528,-351"/>
<text text-anchor="middle" x="479.5" y="-339" font-family="Helvetica,sans-Serif" font-size="10.00">std::vector&lt; T &gt;</text>
</a>
</g>
</g>
<!-- Node3&#45;&gt;Node2 -->
<g id="edge2_Node000002_Node000003" class="edge">
<title>Node3&#45;&gt;Node2</title>
<g id="a_edge2_Node000002_Node000003"><a xlink:title=" ">
<path fill="none" stroke="orange" stroke-dasharray="5,2" d="M538.38,-341.5C597.11,-341.5 687.24,-341.5 743.98,-341.5"/>
<polygon fill="orange" stroke="orange" points="538.15,-338 528.15,-341.5 538.15,-345 538.15,-338"/>
</a>
</g>
<text text-anchor="start" x="588" y="-347" font-family="Helvetica,sans-Serif" font-size="10.00" fill="grey">&lt; Acts::Vertex * &gt;</text>
</g>
<!-- Node4 -->
<g id="Node000004" class="node">
<title>Node4</title>
<g id="a_Node000004"><a xlink:href="struct_acts_1_1_annealing_utility_1_1_state.html" target="_top" xlink:title="The annealing state Resetting the state is done by just creating a new instance.">
<polygon fill="white" stroke="#666666" points="858.5,-308.5 736.5,-308.5 736.5,-278.5 858.5,-278.5 858.5,-308.5"/>
<text text-anchor="start" x="744.5" y="-296.5" font-family="Helvetica,sans-Serif" font-size="10.00">Acts::AnnealingUtility</text>
<text text-anchor="middle" x="797.5" y="-285.5" font-family="Helvetica,sans-Serif" font-size="10.00">::State</text>
</a>
</g>
</g>
<!-- Node4&#45;&gt;Node1 -->
<g id="edge3_Node000001_Node000004" class="edge">
<title>Node4&#45;&gt;Node1</title>
<g id="a_edge3_Node000001_Node000004"><a xlink:title=" ">
<path fill="none" stroke="#9a32cd" stroke-dasharray="5,2" d="M868.58,-290.3C912.63,-286.3 969.83,-277.36 1017,-257.5 1045.46,-245.52 1073.34,-222.67 1089.98,-207.51"/>
<polygon fill="#9a32cd" stroke="#9a32cd" points="868.21,-286.82 858.54,-291.15 868.8,-293.8 868.21,-286.82"/>
</a>
</g>
<text text-anchor="start" x="916.5" y="-292" font-family="Helvetica,sans-Serif" font-size="10.00" fill="grey">annealingState</text>
</g>
<!-- Node5 -->
<g id="Node000005" class="node">
<title>Node5</title>
<g id="a_Node000005"><a xlink:href="struct_acts_1_1_impact_point_estimator_1_1_state.html" target="_top" xlink:title="State struct.">
<polygon fill="white" stroke="#666666" points="872,-207.5 723,-207.5 723,-177.5 872,-177.5 872,-207.5"/>
<text text-anchor="start" x="731" y="-195.5" font-family="Helvetica,sans-Serif" font-size="10.00">Acts::ImpactPointEstimator</text>
<text text-anchor="middle" x="797.5" y="-184.5" font-family="Helvetica,sans-Serif" font-size="10.00">::State</text>
</a>
</g>
</g>
<!-- Node5&#45;&gt;Node1 -->
<g id="edge4_Node000001_Node000005" class="edge">
<title>Node5&#45;&gt;Node1</title>
<g id="a_edge4_Node000001_Node000005"><a xlink:title=" ">
<path fill="none" stroke="#9a32cd" stroke-dasharray="5,2" d="M882.07,-192.5C929.96,-192.5 989.41,-192.5 1034.94,-192.5"/>
<polygon fill="#9a32cd" stroke="#9a32cd" points="882.03,-189 872.03,-192.5 882.03,-196 882.03,-189"/>
</a>
</g>
<text text-anchor="start" x="936.5" y="-198" font-family="Helvetica,sans-Serif" font-size="10.00" fill="grey">ipState</text>
</g>
<!-- Node6 -->
<g id="Node000006" class="node">
<title>Node6</title>
<g id="a_Node000006"><a xlink:href="class_acts_1_1_any_base.html" target="_top" xlink:title=" ">
<polygon fill="white" stroke="#666666" points="543,-240.5 416,-240.5 416,-210.5 543,-210.5 543,-240.5"/>
<text text-anchor="start" x="424" y="-228.5" font-family="Helvetica,sans-Serif" font-size="10.00">Acts::AnyBase&lt; sizeof</text>
<text text-anchor="middle" x="479.5" y="-217.5" font-family="Helvetica,sans-Serif" font-size="10.00">(char) *512 &gt;</text>
</a>
</g>
</g>
<!-- Node6&#45;&gt;Node1 -->
<g id="edge9_Node000001_Node000006" class="edge">
<title>Node6&#45;&gt;Node1</title>
<g id="a_edge9_Node000001_Node000006"><a xlink:title=" ">
<path fill="none" stroke="#9a32cd" stroke-dasharray="5,2" d="M553.3,-229.36C656.9,-233.6 852.55,-237.03 1017,-213.5 1027.32,-212.02 1038.2,-209.91 1048.66,-207.59"/>
<polygon fill="#9a32cd" stroke="#9a32cd" points="553.4,-225.86 543.26,-228.93 553.11,-232.85 553.4,-225.86"/>
</a>
</g>
<text text-anchor="start" x="771.5" y="-237" font-family="Helvetica,sans-Serif" font-size="10.00" fill="grey">fieldCache</text>
</g>
<!-- Node6&#45;&gt;Node5 -->
<g id="edge5_Node000005_Node000006" class="edge">
<title>Node6&#45;&gt;Node5</title>
<g id="a_edge5_Node000005_Node000006"><a xlink:title=" ">
<path fill="none" stroke="#9a32cd" stroke-dasharray="5,2" d="M553.33,-213.49C555.92,-213.14 558.48,-212.81 561,-212.5 615.06,-205.85 676.38,-200.72 722.9,-197.32"/>
<polygon fill="#9a32cd" stroke="#9a32cd" points="552.7,-210.04 543.28,-214.89 553.67,-216.97 552.7,-210.04"/>
</a>
</g>
<text text-anchor="start" x="607" y="-218" font-family="Helvetica,sans-Serif" font-size="10.00" fill="grey">fieldCache</text>
</g>
<!-- Node7 -->
<g id="Node000007" class="node">
<title>Node7</title>
<g id="a_Node000007"><a xlink:href="class_acts_1_1_any_base_all.html" target="_top" xlink:title="Base class for all instances of AnyBase regarfless of SBO size.">
<polygon fill="white" stroke="#666666" points="99,-233 0,-233 0,-214 99,-214 99,-233"/>
<text text-anchor="middle" x="49.5" y="-221" font-family="Helvetica,sans-Serif" font-size="10.00">Acts::AnyBaseAll</text>
</a>
</g>
</g>
<!-- Node7&#45;&gt;Node6 -->
<g id="edge6_Node000006_Node000007" class="edge">
<title>Node7&#45;&gt;Node6</title>
<g id="a_edge6_Node000006_Node000007"><a xlink:title=" ">
<path fill="none" stroke="#63b8ff" d="M109.28,-228.16C111.89,-228.29 114.47,-228.4 117,-228.5 241.8,-233.19 273.13,-230.83 398,-228.5 403.73,-228.39 409.69,-228.24 415.66,-228.07"/>
<polygon fill="#63b8ff" stroke="#63b8ff" points="109.33,-224.66 99.14,-227.58 108.93,-231.64 109.33,-224.66"/>
</a>
</g>
</g>
<!-- Node8 -->
<g id="Node000008" class="node">
<title>Node8</title>
<g id="a_Node000008"><a xlink:href="class_acts_1_1_any_base.html" target="_top" xlink:title="Small opaque type&#45;erased type with configurable small buffer optimization.">
<polygon fill="white" stroke="#666666" points="267,-214 136,-214 136,-195 267,-195 267,-214"/>
<text text-anchor="middle" x="201.5" y="-202" font-family="Helvetica,sans-Serif" font-size="10.00">Acts::AnyBase&lt; SIZE &gt;</text>
</a>
</g>
</g>
<!-- Node7&#45;&gt;Node8 -->
<g id="edge8_Node000008_Node000007" class="edge">
<title>Node7&#45;&gt;Node8</title>
<g id="a_edge8_Node000008_Node000007"><a xlink:title=" ">
<path fill="none" stroke="#63b8ff" d="M109.29,-216.05C118.03,-214.95 127.09,-213.8 135.94,-212.68"/>
<polygon fill="#63b8ff" stroke="#63b8ff" points="108.68,-212.6 99.2,-217.33 109.56,-219.55 108.68,-212.6"/>
</a>
</g>
</g>
<!-- Node8&#45;&gt;Node6 -->
<g id="edge7_Node000006_Node000008" class="edge">
<title>Node8&#45;&gt;Node6</title>
<g id="a_edge7_Node000006_Node000008"><a xlink:title=" ">
<path fill="none" stroke="orange" stroke-dasharray="5,2" d="M277.44,-204.79C313.9,-205.54 358.32,-207.36 398,-211.5 403.78,-212.1 409.78,-212.87 415.77,-213.74"/>
<polygon fill="orange" stroke="orange" points="277.44,-201.29 267.38,-204.61 277.31,-208.29 277.44,-201.29"/>
</a>
</g>
<text text-anchor="start" x="288.5" y="-217" font-family="Helvetica,sans-Serif" font-size="10.00" fill="grey">&lt; sizeof(char) *512 &gt;</text>
</g>
<!-- Node9 -->
<g id="Node000009" class="node">
<title>Node9</title>
<g id="a_Node000009"><a xlink:title=" ">
<polygon fill="white" stroke="#666666" points="862,-159.5 733,-159.5 733,-129.5 862,-129.5 862,-159.5"/>
<text text-anchor="start" x="741" y="-147.5" font-family="Helvetica,sans-Serif" font-size="10.00">std::map&lt; Acts::Vertex</text>
<text text-anchor="middle" x="797.5" y="-136.5" font-family="Helvetica,sans-Serif" font-size="10.00"> *, Acts::VertexInfo &gt;</text>
</a>
</g>
</g>
<!-- Node9&#45;&gt;Node1 -->
<g id="edge10_Node000001_Node000009" class="edge">
<title>Node9&#45;&gt;Node1</title>
<g id="a_edge10_Node000001_Node000009"><a xlink:title=" ">
<path fill="none" stroke="#9a32cd" stroke-dasharray="5,2" d="M872.34,-151.58C914.82,-156.16 969.11,-162.89 1017,-171.5 1026.48,-173.21 1036.47,-175.29 1046.18,-177.48"/>
<polygon fill="#9a32cd" stroke="#9a32cd" points="872.67,-148.1 862.36,-150.52 871.93,-155.06 872.67,-148.1"/>
</a>
</g>
<text text-anchor="start" x="925.5" y="-177" font-family="Helvetica,sans-Serif" font-size="10.00" fill="grey">vtxInfoMap</text>
</g>
<!-- Node10 -->
<g id="Node000010" class="node">
<title>Node10</title>
<g id="a_Node000010"><a xlink:title=" ">
<polygon fill="white" stroke="#666666" points="530,-125 429,-125 429,-106 530,-106 530,-125"/>
<text text-anchor="middle" x="479.5" y="-113" font-family="Helvetica,sans-Serif" font-size="10.00">std::map&lt; K, T &gt;</text>
</a>
</g>
</g>
<!-- Node10&#45;&gt;Node9 -->
<g id="edge11_Node000009_Node000010" class="edge">
<title>Node10&#45;&gt;Node9</title>
<g id="a_edge11_Node000009_Node000010"><a xlink:title=" ">
<path fill="none" stroke="orange" stroke-dasharray="5,2" d="M540.33,-125.79C547.29,-126.8 554.29,-127.73 561,-128.5 619.02,-135.14 685.41,-139.35 732.89,-141.77"/>
<polygon fill="orange" stroke="orange" points="540.62,-122.29 530.21,-124.26 539.58,-129.22 540.62,-122.29"/>
</a>
</g>
<text text-anchor="start" x="580" y="-160.5" font-family="Helvetica,sans-Serif" font-size="10.00" fill="grey">&lt; Acts::Vertex *, Acts</text>
<text text-anchor="start" x="580" y="-145.5" font-family="Helvetica,sans-Serif" font-size="10.00" fill="grey">  ::VertexInfo &gt;</text>
</g>
<!-- Node13 -->
<g id="Node000013" class="node">
<title>Node13</title>
<g id="a_Node000013"><a xlink:title=" ">
<polygon fill="white" stroke="#666666" points="860,-111.5 735,-111.5 735,-59.5 860,-59.5 860,-111.5"/>
<text text-anchor="start" x="743" y="-99.5" font-family="Helvetica,sans-Serif" font-size="10.00">std::map&lt; std::pair</text>
<text text-anchor="start" x="743" y="-88.5" font-family="Helvetica,sans-Serif" font-size="10.00">&lt; Acts::InputTrack,</text>
<text text-anchor="start" x="743" y="-77.5" font-family="Helvetica,sans-Serif" font-size="10.00"> Acts::Vertex * &gt;, Acts</text>
<text text-anchor="middle" x="797.5" y="-66.5" font-family="Helvetica,sans-Serif" font-size="10.00">::TrackAtVertex &gt;</text>
</a>
</g>
</g>
<!-- Node10&#45;&gt;Node13 -->
<g id="edge15_Node000013_Node000010" class="edge">
<title>Node10&#45;&gt;Node13</title>
<g id="a_edge15_Node000013_Node000010"><a xlink:title=" ">
<path fill="none" stroke="orange" stroke-dasharray="5,2" d="M504.39,-100.79C519.9,-92.13 540.89,-82.01 561,-77.5 618.88,-64.52 686.75,-68.81 734.72,-74.97"/>
<polygon fill="orange" stroke="orange" points="502.4,-97.9 495.5,-105.93 505.91,-103.95 502.4,-97.9"/>
</a>
</g>
<text text-anchor="start" x="564" y="-113" font-family="Helvetica,sans-Serif" font-size="10.00" fill="grey">&lt; std::pair&lt; Acts::</text>
<text text-anchor="start" x="564" y="-98" font-family="Helvetica,sans-Serif" font-size="10.00" fill="grey">  InputTrack, Acts::Vertex</text>
<text text-anchor="start" x="564" y="-83" font-family="Helvetica,sans-Serif" font-size="10.00" fill="grey">   * &gt;, Acts::TrackAtVertex &gt;</text>
</g>
<!-- Node11 -->
<g id="Node000011" class="node">
<title>Node11</title>
<g id="a_Node000011"><a xlink:title=" ">
<polygon fill="white" stroke="#666666" points="856,-41 739,-41 739,0 856,0 856,-41"/>
<text text-anchor="start" x="747" y="-29" font-family="Helvetica,sans-Serif" font-size="10.00">std::multimap&lt; Acts</text>
<text text-anchor="start" x="747" y="-18" font-family="Helvetica,sans-Serif" font-size="10.00">::InputTrack, Acts::</text>
<text text-anchor="middle" x="797.5" y="-7" font-family="Helvetica,sans-Serif" font-size="10.00">Vertex * &gt;</text>
</a>
</g>
</g>
<!-- Node11&#45;&gt;Node1 -->
<g id="edge12_Node000001_Node000011" class="edge">
<title>Node11&#45;&gt;Node1</title>
<g id="a_edge12_Node000001_Node000011"><a xlink:title=" ">
<path fill="none" stroke="#9a32cd" stroke-dasharray="5,2" d="M866.2,-26.2C911.92,-32.71 971.93,-46.65 1017,-76.5 1056.49,-102.66 1085.51,-152.5 1098.28,-177.46"/>
<polygon fill="#9a32cd" stroke="#9a32cd" points="866.46,-22.7 856.08,-24.84 865.53,-29.64 866.46,-22.7"/>
</a>
</g>
<text text-anchor="start" x="893.5" y="-82" font-family="Helvetica,sans-Serif" font-size="10.00" fill="grey">trackToVerticesMultiMap</text>
</g>
<!-- Node12 -->
<g id="Node000012" class="node">
<title>Node12</title>
<g id="a_Node000012"><a xlink:title=" ">
<polygon fill="white" stroke="#666666" points="542.5,-30 416.5,-30 416.5,-11 542.5,-11 542.5,-30"/>
<text text-anchor="middle" x="479.5" y="-18" font-family="Helvetica,sans-Serif" font-size="10.00">std::multimap&lt; K, T &gt;</text>
</a>
</g>
</g>
<!-- Node12&#45;&gt;Node11 -->
<g id="edge13_Node000011_Node000012" class="edge">
<title>Node12&#45;&gt;Node11</title>
<g id="a_edge13_Node000011_Node000012"><a xlink:title=" ">
<path fill="none" stroke="orange" stroke-dasharray="5,2" d="M552.83,-20.5C609.25,-20.5 686.56,-20.5 738.85,-20.5"/>
<polygon fill="orange" stroke="orange" points="552.55,-17 542.55,-20.5 552.55,-24 552.55,-17"/>
</a>
</g>
<text text-anchor="start" x="587" y="-41.5" font-family="Helvetica,sans-Serif" font-size="10.00" fill="grey">&lt; Acts::InputTrack,</text>
<text text-anchor="start" x="587" y="-26.5" font-family="Helvetica,sans-Serif" font-size="10.00" fill="grey">   Acts::Vertex * &gt;</text>
</g>
<!-- Node13&#45;&gt;Node1 -->
<g id="edge14_Node000001_Node000013" class="edge">
<title>Node13&#45;&gt;Node1</title>
<g id="a_edge14_Node000001_Node000013"><a xlink:title=" ">
<path fill="none" stroke="#9a32cd" stroke-dasharray="5,2" d="M870.2,-93.85C913.9,-100.64 970.16,-112.48 1017,-132.5 1043.63,-143.88 1070.67,-163.67 1087.73,-177.4"/>
<polygon fill="#9a32cd" stroke="#9a32cd" points="870.64,-90.37 860.23,-92.35 869.6,-97.29 870.64,-90.37"/>
</a>
</g>
<text text-anchor="start" x="903.5" y="-138" font-family="Helvetica,sans-Serif" font-size="10.00" fill="grey">tracksAtVerticesMap</text>
</g>
</g>
</svg>

<g id="navigator" transform="translate(0 0)" fill="#404254">
  <rect fill="#f2f5e9" fill-opacity="0.5" stroke="#606060" stroke-width=".5" x="0" y="0" width="60" height="60"/>
  <use id="zoomplus" xlink:href="#zoomPlus" x="17" y="9" onmousedown="handleZoom(evt,'in')"/>
  <use id="zoomminus" xlink:href="#zoomMin" x="42" y="9" onmousedown="handleZoom(evt,'out')"/>
  <use id="reset" xlink:href="#resetDef" x="30" y="36" onmousedown="handleReset()"/>
   <use id="arrowup" xlink:href="#arrowUp" x="0" y="0" onmousedown="handlePan(0,-1)"/>
  <use id="arrowright" xlink:href="#arrowRight" x="0" y="0" onmousedown="handlePan(1,0)"/>
  <use id="arrowdown" xlink:href="#arrowDown" x="0" y="0" onmousedown="handlePan(0,1)"/>
  <use id="arrowleft" xlink:href="#arrowLeft" x="0" y="0" onmousedown="handlePan(-1,0)"/>
</g>
<svg viewBox="0 0 15 15" width="100%" height="30px" preserveAspectRatio="xMaxYMin meet">
 <g id="arrow_out" transform="scale(0.3 0.3)">
  <a xlink:href="struct_acts_1_1_adaptive_multi_vertex_fitter_1_1_state__coll__graph_org.svg" target="_base">
   <rect id="button" ry="5" rx="5" y="6" x="6" height="38" width="38"
        fill="#f2f5e9" fill-opacity="0.5" stroke="#606060" stroke-width="1.0"/>
   <path id="arrow"
     d="M 11.500037,31.436501 C 11.940474,20.09759 22.043105,11.32322 32.158766,21.979434 L 37.068811,17.246167 C 37.068811,17.246167 37.088388,32 37.088388,32 L 22.160133,31.978069 C 22.160133,31.978069 26.997745,27.140456 26.997745,27.140456 C 18.528582,18.264221 13.291696,25.230495 11.500037,31.436501 z"
     style="fill:#404040;"/>
  </a>
 </g>
</svg>

<style type='text/css'>
<![CDATA[
[data-mouse-over-selected='false'] { opacity: 0.7; }
[data-mouse-over-selected='true']  { opacity: 1.0; }
]]>
</style>
<script type="application/ecmascript"><![CDATA[
document.addEventListener('DOMContentLoaded', (event) => {
  highlightEdges();
  highlightAdjacentNodes();
});
]]></script>
</svg>
