<?xml version="1.0" encoding="UTF-8" standalone="no"?>
<!DOCTYPE svg PUBLIC "-//W3C//DTD SVG 1.1//EN"
 "http://www.w3.org/Graphics/SVG/1.1/DTD/svg11.dtd">
<!-- Generated by graphviz version 2.43.0 (0)
 -->
<!-- Title: Acts::Experimental::MultiLayerNavigationPolicy::Config Pages: 1 -->
<svg width="290pt" height="193pt"
 viewBox="0.00 0.00 290.00 193.00" xmlns="http://www.w3.org/2000/svg" xmlns:xlink="http://www.w3.org/1999/xlink">
<g id="graph0" class="graph" transform="scale(1 1) rotate(0) translate(4 189)">
<title>Acts::Experimental::MultiLayerNavigationPolicy::Config</title>
<!-- Node1 -->
<g id="Node000001" class="node">
<title>Node1</title>
<g id="a_Node000001"><a xlink:title="Configuration for multilayer navigation behavior.">
<polygon fill="#999999" stroke="#666666" points="222.5,-41 65.5,-41 65.5,0 222.5,0 222.5,-41"/>
<text text-anchor="start" x="73.5" y="-29" font-family="Helvetica,sans-Serif" font-size="10.00">Acts::Experimental</text>
<text text-anchor="start" x="73.5" y="-18" font-family="Helvetica,sans-Serif" font-size="10.00">::MultiLayerNavigationPolicy</text>
<text text-anchor="middle" x="144" y="-7" font-family="Helvetica,sans-Serif" font-size="10.00">::Config</text>
</a>
</g>
</g>
<!-- Node2 -->
<g id="Node000002" class="node">
<title>Node2</title>
<g id="a_Node000002"><a xlink:title=" ">
<polygon fill="white" stroke="#666666" points="140,-113 0,-113 0,-94 140,-94 140,-113"/>
<text text-anchor="middle" x="70" y="-101" font-family="Helvetica,sans-Serif" font-size="10.00">std::vector&lt; std::size_t &gt;</text>
</a>
</g>
</g>
<!-- Node2&#45;&gt;Node1 -->
<g id="edge1_Node000001_Node000002" class="edge">
<title>Node2&#45;&gt;Node1</title>
<g id="a_edge1_Node000001_Node000002"><a xlink:title=" ">
<path fill="none" stroke="#9a32cd" stroke-dasharray="5,2" d="M84.94,-86.14C96.82,-73.15 113.46,-54.93 126.06,-41.14"/>
<polygon fill="#9a32cd" stroke="#9a32cd" points="82.08,-84.09 77.92,-93.83 87.25,-88.81 82.08,-84.09"/>
</a>
</g>
<text text-anchor="start" x="113" y="-64.5" font-family="Helvetica,sans-Serif" font-size="10.00" fill="grey">binExpansion</text>
</g>
<!-- Node3 -->
<g id="Node000003" class="node">
<title>Node3</title>
<g id="a_Node000003"><a xlink:title=" ">
<polygon fill="white" stroke="#666666" points="193.5,-185 96.5,-185 96.5,-166 193.5,-166 193.5,-185"/>
<text text-anchor="middle" x="145" y="-173" font-family="Helvetica,sans-Serif" font-size="10.00">std::vector&lt; T &gt;</text>
</a>
</g>
</g>
<!-- Node3&#45;&gt;Node2 -->
<g id="edge2_Node000002_Node000003" class="edge">
<title>Node3&#45;&gt;Node2</title>
<g id="a_edge2_Node000002_Node000003"><a xlink:title=" ">
<path fill="none" stroke="orange" stroke-dasharray="5,2" d="M122.45,-160.2C117.18,-156.48 111.73,-152.3 107,-148 94.96,-137.07 83.16,-122.29 76.24,-113.08"/>
<polygon fill="orange" stroke="orange" points="120.75,-163.28 131,-165.98 124.67,-157.48 120.75,-163.28"/>
</a>
</g>
<text text-anchor="start" x="110.5" y="-136.5" font-family="Helvetica,sans-Serif" font-size="10.00" fill="grey">&lt; std::size_t &gt;</text>
</g>
<!-- Node4 -->
<g id="Node000004" class="node">
<title>Node4</title>
<g id="a_Node000004"><a xlink:title=" ">
<polygon fill="white" stroke="#666666" points="282,-113 158,-113 158,-94 282,-94 282,-113"/>
<text text-anchor="middle" x="220" y="-101" font-family="Helvetica,sans-Serif" font-size="10.00">std::vector&lt; double &gt;</text>
</a>
</g>
</g>
<!-- Node3&#45;&gt;Node4 -->
<g id="edge4_Node000004_Node000003" class="edge">
<title>Node3&#45;&gt;Node4</title>
<g id="a_edge4_Node000004_Node000003"><a xlink:title=" ">
<path fill="none" stroke="orange" stroke-dasharray="5,2" d="M169.66,-160.46C175.3,-156.74 181.07,-152.5 186,-148 197.6,-137.39 208.29,-122.52 214.48,-113.21"/>
<polygon fill="orange" stroke="orange" points="167.7,-157.56 161.06,-165.82 171.4,-163.5 167.7,-157.56"/>
</a>
</g>
<text text-anchor="start" x="204" y="-136.5" font-family="Helvetica,sans-Serif" font-size="10.00" fill="grey">&lt; double &gt;</text>
</g>
<!-- Node4&#45;&gt;Node1 -->
<g id="edge3_Node000001_Node000004" class="edge">
<title>Node4&#45;&gt;Node1</title>
<g id="a_edge3_Node000001_Node000004"><a xlink:title=" ">
<path fill="none" stroke="#9a32cd" stroke-dasharray="5,2" d="M207.18,-86.02C200.5,-77.7 192.07,-67.59 184,-59 178.39,-53.04 172.04,-46.85 166.07,-41.26"/>
<polygon fill="#9a32cd" stroke="#9a32cd" points="204.45,-88.22 213.4,-93.89 209.94,-83.88 204.45,-88.22"/>
</a>
</g>
<text text-anchor="start" x="201" y="-64.5" font-family="Helvetica,sans-Serif" font-size="10.00" fill="grey">layerOffsets</text>
</g>
</g>
</svg>
