<?xml version="1.0" encoding="UTF-8" standalone="no"?>
<!DOCTYPE svg PUBLIC "-//W3C//DTD SVG 1.1//EN"
 "http://www.w3.org/Graphics/SVG/1.1/DTD/svg11.dtd">
<!-- Generated by graphviz version 2.43.0 (0)
 -->
<!-- Title: Acts::ExtentEnvelope::Arguments Pages: 1 -->
<svg width="148pt" height="302pt"
 viewBox="0.00 0.00 147.50 302.00" xmlns="http://www.w3.org/2000/svg" xmlns:xlink="http://www.w3.org/1999/xlink">
<g id="graph0" class="graph" transform="scale(1 1) rotate(0) translate(4 298)">
<title>Acts::ExtentEnvelope::Arguments</title>
<!-- Node1 -->
<g id="Node000001" class="node">
<title>Node1</title>
<g id="a_Node000001"><a xlink:title="Helper struct for designated initializer construction.">
<polygon fill="#999999" stroke="#666666" points="125.5,-30 5.5,-30 5.5,0 125.5,0 125.5,-30"/>
<text text-anchor="start" x="13.5" y="-18" font-family="Helvetica,sans-Serif" font-size="10.00">Acts::ExtentEnvelope</text>
<text text-anchor="middle" x="65.5" y="-7" font-family="Helvetica,sans-Serif" font-size="10.00">::Arguments</text>
</a>
</g>
</g>
<!-- Node2 -->
<g id="Node000002" class="node">
<title>Node2</title>
<g id="a_Node000002"><a xlink:title=" ">
<polygon fill="white" stroke="#666666" points="131,-222 0,-222 0,-203 131,-203 131,-222"/>
<text text-anchor="middle" x="65.5" y="-210" font-family="Helvetica,sans-Serif" font-size="10.00">std::array&lt; double, 2 &gt;</text>
</a>
</g>
</g>
<!-- Node2&#45;&gt;Node1 -->
<g id="edge1_Node000001_Node000002" class="edge">
<title>Node2&#45;&gt;Node1</title>
<g id="a_edge1_Node000001_Node000002"><a xlink:title=" ">
<path fill="none" stroke="#9a32cd" stroke-dasharray="5,2" d="M65.5,-192.38C65.5,-153.16 65.5,-64.41 65.5,-30"/>
<polygon fill="#9a32cd" stroke="#9a32cd" points="62,-192.85 65.5,-202.85 69,-192.85 62,-192.85"/>
</a>
</g>
<text text-anchor="start" x="68.5" y="-173.5" font-family="Helvetica,sans-Serif" font-size="10.00" fill="grey">eta</text>
<text text-anchor="start" x="68.5" y="-158.5" font-family="Helvetica,sans-Serif" font-size="10.00" fill="grey">mag</text>
<text text-anchor="start" x="68.5" y="-143.5" font-family="Helvetica,sans-Serif" font-size="10.00" fill="grey">phi</text>
<text text-anchor="start" x="68.5" y="-128.5" font-family="Helvetica,sans-Serif" font-size="10.00" fill="grey">r</text>
<text text-anchor="start" x="68.5" y="-113.5" font-family="Helvetica,sans-Serif" font-size="10.00" fill="grey">rPhi</text>
<text text-anchor="start" x="68.5" y="-98.5" font-family="Helvetica,sans-Serif" font-size="10.00" fill="grey">theta</text>
<text text-anchor="start" x="68.5" y="-83.5" font-family="Helvetica,sans-Serif" font-size="10.00" fill="grey">x</text>
<text text-anchor="start" x="68.5" y="-68.5" font-family="Helvetica,sans-Serif" font-size="10.00" fill="grey">y</text>
<text text-anchor="start" x="68.5" y="-53.5" font-family="Helvetica,sans-Serif" font-size="10.00" fill="grey">z</text>
</g>
<!-- Node3 -->
<g id="Node000003" class="node">
<title>Node3</title>
<g id="a_Node000003"><a xlink:title=" ">
<polygon fill="white" stroke="#666666" points="111.5,-294 19.5,-294 19.5,-275 111.5,-275 111.5,-294"/>
<text text-anchor="middle" x="65.5" y="-282" font-family="Helvetica,sans-Serif" font-size="10.00">std::array&lt; T &gt;</text>
</a>
</g>
</g>
<!-- Node3&#45;&gt;Node2 -->
<g id="edge2_Node000002_Node000003" class="edge">
<title>Node3&#45;&gt;Node2</title>
<g id="a_edge2_Node000002_Node000003"><a xlink:title=" ">
<path fill="none" stroke="orange" stroke-dasharray="5,2" d="M65.5,-264.58C65.5,-250.76 65.5,-232.68 65.5,-222.15"/>
<polygon fill="orange" stroke="orange" points="62,-264.92 65.5,-274.92 69,-264.92 62,-264.92"/>
</a>
</g>
<text text-anchor="start" x="68.5" y="-245.5" font-family="Helvetica,sans-Serif" font-size="10.00" fill="grey">&lt; double, 2 &gt;</text>
</g>
</g>
</svg>
