<?xml version="1.0" encoding="UTF-8" standalone="no"?>
<!DOCTYPE svg PUBLIC "-//W3C//DTD SVG 1.1//EN"
 "http://www.w3.org/Graphics/SVG/1.1/DTD/svg11.dtd">
<!-- Generated by graphviz version 2.43.0 (0)
 -->
<!-- Title: Acts::PropagatorState&lt; propagator_options_t, stepper_state_t, navigator_state_t, extension_state_t &gt; Pages: 1 -->
<svg width="376pt" height="215pt"
 viewBox="0.00 0.00 376.00 215.00" xmlns="http://www.w3.org/2000/svg" xmlns:xlink="http://www.w3.org/1999/xlink">
<g id="graph0" class="graph" transform="scale(1 1) rotate(0) translate(4 211)">
<title>Acts::PropagatorState&lt; propagator_options_t, stepper_state_t, navigator_state_t, extension_state_t &gt;</title>
<!-- Node1 -->
<g id="Node000001" class="node">
<title>Node1</title>
<g id="a_Node000001"><a xlink:title="private Propagator state for navigation and debugging">
<polygon fill="#999999" stroke="#666666" points="163.5,-52 3.5,-52 3.5,0 163.5,0 163.5,-52"/>
<text text-anchor="start" x="11.5" y="-40" font-family="Helvetica,sans-Serif" font-size="10.00">Acts::PropagatorState</text>
<text text-anchor="start" x="11.5" y="-29" font-family="Helvetica,sans-Serif" font-size="10.00">&lt; propagator_options</text>
<text text-anchor="start" x="11.5" y="-18" font-family="Helvetica,sans-Serif" font-size="10.00">_t, stepper_state_t, navigator</text>
<text text-anchor="middle" x="83.5" y="-7" font-family="Helvetica,sans-Serif" font-size="10.00">_state_t, extension_state_t &gt;</text>
</a>
</g>
</g>
<!-- Node2 -->
<g id="Node000002" class="node">
<title>Node2</title>
<g id="a_Node000002"><a xlink:title=" ">
<polygon fill="white" stroke="#666666" points="135,-135 0,-135 0,-105 135,-105 135,-135"/>
<text text-anchor="start" x="8" y="-123" font-family="Helvetica,sans-Serif" font-size="10.00">detail::Extendable</text>
<text text-anchor="middle" x="67.5" y="-112" font-family="Helvetica,sans-Serif" font-size="10.00">&lt; extension_state_t... &gt;</text>
</a>
</g>
</g>
<!-- Node2&#45;&gt;Node1 -->
<g id="edge1_Node000001_Node000002" class="edge">
<title>Node2&#45;&gt;Node1</title>
<g id="a_edge1_Node000001_Node000002"><a xlink:title=" ">
<path fill="none" stroke="#8b1a1a" d="M71.77,-94.44C74.05,-81.32 76.86,-65.21 79.15,-52.02"/>
<polygon fill="#8b1a1a" stroke="#8b1a1a" points="68.27,-94.17 70,-104.62 75.16,-95.37 68.27,-94.17"/>
</a>
</g>
</g>
<!-- Node3 -->
<g id="Node000003" class="node">
<title>Node3</title>
<g id="a_Node000003"><a xlink:href="struct_acts_1_1_propagator_statistics.html" target="_top" xlink:title="A struct to hold statistics of the propagator.">
<polygon fill="white" stroke="#666666" points="295.5,-129.5 153.5,-129.5 153.5,-110.5 295.5,-110.5 295.5,-129.5"/>
<text text-anchor="middle" x="224.5" y="-117.5" font-family="Helvetica,sans-Serif" font-size="10.00">Acts::PropagatorStatistics</text>
</a>
</g>
</g>
<!-- Node3&#45;&gt;Node1 -->
<g id="edge2_Node000001_Node000003" class="edge">
<title>Node3&#45;&gt;Node1</title>
<g id="a_edge2_Node000001_Node000003"><a xlink:title=" ">
<path fill="none" stroke="#9a32cd" stroke-dasharray="5,2" d="M202.81,-104.85C181.33,-90.83 147.98,-69.07 121.99,-52.11"/>
<polygon fill="#9a32cd" stroke="#9a32cd" points="200.95,-107.81 211.24,-110.34 204.77,-101.95 200.95,-107.81"/>
</a>
</g>
<text text-anchor="start" x="179" y="-75.5" font-family="Helvetica,sans-Serif" font-size="10.00" fill="grey">statistics</text>
</g>
<!-- Node4 -->
<g id="Node000004" class="node">
<title>Node4</title>
<g id="a_Node000004"><a xlink:href="struct_acts_1_1_stepper_statistics.html" target="_top" xlink:title="A struct to hold statistics of the stepper.">
<polygon fill="white" stroke="#666666" points="212.5,-207 86.5,-207 86.5,-188 212.5,-188 212.5,-207"/>
<text text-anchor="middle" x="149.5" y="-195" font-family="Helvetica,sans-Serif" font-size="10.00">Acts::StepperStatistics</text>
</a>
</g>
</g>
<!-- Node4&#45;&gt;Node3 -->
<g id="edge3_Node000003_Node000004" class="edge">
<title>Node4&#45;&gt;Node3</title>
<g id="a_edge3_Node000003_Node000004"><a xlink:title=" ">
<path fill="none" stroke="#9a32cd" stroke-dasharray="5,2" d="M165.41,-180.48C180.87,-164.93 203.73,-141.9 216,-129.56"/>
<polygon fill="#9a32cd" stroke="#9a32cd" points="162.67,-178.28 158.1,-187.84 167.63,-183.21 162.67,-178.28"/>
</a>
</g>
<text text-anchor="start" x="195" y="-158.5" font-family="Helvetica,sans-Serif" font-size="10.00" fill="grey">stepping</text>
</g>
<!-- Node5 -->
<g id="Node000005" class="node">
<title>Node5</title>
<g id="a_Node000005"><a xlink:href="struct_acts_1_1_navigator_statistics.html" target="_top" xlink:title="A struct to hold statistics of the navigator.">
<polygon fill="white" stroke="#666666" points="368,-207 231,-207 231,-188 368,-188 368,-207"/>
<text text-anchor="middle" x="299.5" y="-195" font-family="Helvetica,sans-Serif" font-size="10.00">Acts::NavigatorStatistics</text>
</a>
</g>
</g>
<!-- Node5&#45;&gt;Node3 -->
<g id="edge4_Node000003_Node000005" class="edge">
<title>Node5&#45;&gt;Node3</title>
<g id="a_edge4_Node000003_Node000005"><a xlink:title=" ">
<path fill="none" stroke="#9a32cd" stroke-dasharray="5,2" d="M283.59,-180.48C268.13,-164.93 245.27,-141.9 233,-129.56"/>
<polygon fill="#9a32cd" stroke="#9a32cd" points="281.37,-183.21 290.9,-187.84 286.33,-178.28 281.37,-183.21"/>
</a>
</g>
<text text-anchor="start" x="275.5" y="-158.5" font-family="Helvetica,sans-Serif" font-size="10.00" fill="grey">navigation</text>
</g>
</g>
</svg>
