<?xml version="1.0" encoding="UTF-8" standalone="no"?>
<!DOCTYPE svg PUBLIC "-//W3C//DTD SVG 1.1//EN"
 "http://www.w3.org/Graphics/SVG/1.1/DTD/svg11.dtd">
<!-- Generated by graphviz version 2.43.0 (0)
 -->
<!-- Title: Acts::RemovePointer&lt; T &gt; Pages: 1 -->
<svg width="261pt" height="99pt"
 viewBox="0.00 0.00 261.00 99.00" xmlns="http://www.w3.org/2000/svg" xmlns:xlink="http://www.w3.org/1999/xlink">

<svg id="main" version="1.1" xmlns="http://www.w3.org/2000/svg" xmlns:xlink="http://www.w3.org/1999/xlink" xml:space="preserve">

<style type="text/css"><![CDATA[
.node, .edge {opacity: 0.7;}
.node.selected, .edge.selected {opacity: 1;}
.edge:hover path { stroke: red; }
.edge:hover polygon { stroke: red; fill: red; }
]]></style>
<script type="application/ecmascript" xlink:href="svg.min.js"/>
<svg id="graph" class="graph">
<g id="graph0" class="graph" transform="scale(1 1) rotate(0) translate(4 95)">
<title>Acts::RemovePointer&lt; T &gt;</title>
<!-- Node1 -->
<g id="Node000001" class="node">
<title>Node1</title>
<g id="a_Node000001"><a xlink:title="Introduce the Acts version of the pointer remove type trait because we want to fetch the underlying t...">
<polygon fill="#999999" stroke="#666666" points="147,-91 0,-91 0,-72 147,-72 147,-91"/>
<text text-anchor="middle" x="73.5" y="-79" font-family="Helvetica,sans-Serif" font-size="10.00">Acts::RemovePointer&lt; T &gt;</text>
</a>
</g>
</g>
<!-- Node1&#45;&gt;Node1 -->
<g id="edge1_Node000001_Node000001" class="edge">
<title>Node1&#45;&gt;Node1</title>
<g id="a_edge1_Node000001_Node000001"><a xlink:title=" ">
<path fill="none" stroke="orange" stroke-dasharray="5,2" d="M157.1,-83.82C162.04,-83.26 165,-82.49 165,-81.5 165,-79.95 157.79,-78.94 147.09,-78.45"/>
<polygon fill="orange" stroke="orange" points="156.81,-80.33 147.09,-84.55 157.32,-87.31 156.81,-80.33"/>
</a>
</g>
<text text-anchor="start" x="168.5" y="-78.5" font-family="Helvetica,sans-Serif" font-size="10.00" fill="grey">&lt; T &gt;</text>
</g>
<!-- Node1&#45;&gt;Node1 -->
<g id="edge3_Node000001_Node000001" class="edge">
<title>Node1&#45;&gt;Node1</title>
<g id="a_edge3_Node000001_Node000001"><a xlink:title=" ">
<path fill="none" stroke="orange" stroke-dasharray="5,2" d="M157.37,-88.2C181.23,-87.84 200,-85.61 200,-81.5 200,-76.82 175.71,-74.58 147.25,-74.76"/>
<polygon fill="orange" stroke="orange" points="157.23,-84.7 147.25,-88.24 157.26,-91.7 157.23,-84.7"/>
</a>
</g>
<text text-anchor="start" x="203.5" y="-78.5" font-family="Helvetica,sans-Serif" font-size="10.00" fill="grey">&lt; T &gt;</text>
</g>
<!-- Node2 -->
<g id="Node000002" class="node">
<title>Node2</title>
<g id="a_Node000002"><a xlink:href="struct_acts_1_1_remove_pointer.html" target="_top" xlink:title=" ">
<polygon fill="white" stroke="#666666" points="120.5,-19 26.5,-19 26.5,0 120.5,0 120.5,-19"/>
<text text-anchor="middle" x="73.5" y="-7" font-family="Helvetica,sans-Serif" font-size="10.00">Acts::type&lt; T &gt;</text>
</a>
</g>
</g>
<!-- Node1&#45;&gt;Node2 -->
<g id="edge2_Node000001_Node000002" class="edge">
<title>Node1&#45;&gt;Node2</title>
<g id="a_edge2_Node000001_Node000002"><a xlink:title=" ">
<path fill="none" stroke="orange" stroke-dasharray="5,2" d="M73.5,-61.58C73.5,-47.76 73.5,-29.68 73.5,-19.15"/>
<polygon fill="orange" stroke="orange" points="70,-61.92 73.5,-71.92 77,-61.92 70,-61.92"/>
</a>
</g>
<text text-anchor="start" x="77" y="-42.5" font-family="Helvetica,sans-Serif" font-size="10.00" fill="grey">&lt; T &gt;::type</text>
</g>
</g>
</svg>
</svg>

<style type='text/css'>
<![CDATA[
[data-mouse-over-selected='false'] { opacity: 0.7; }
[data-mouse-over-selected='true']  { opacity: 1.0; }
]]>
</style>
<script type="application/ecmascript"><![CDATA[
document.addEventListener('DOMContentLoaded', (event) => {
  highlightEdges();
  highlightAdjacentNodes();
});
]]></script>
</svg>
