<?xml version="1.0" encoding="UTF-8" standalone="no"?>
<!DOCTYPE svg PUBLIC "-//W3C//DTD SVG 1.1//EN"
 "http://www.w3.org/Graphics/SVG/1.1/DTD/svg11.dtd">
<!-- Generated by graphviz version 2.43.0 (0)
 -->
<!-- Title: ActsPlugins::DD4hepVolumeBuilder::Config Pages: 1 -->
<svg width="312pt" height="204pt"
 viewBox="0.00 0.00 312.00 204.00" xmlns="http://www.w3.org/2000/svg" xmlns:xlink="http://www.w3.org/1999/xlink">
<g id="graph0" class="graph" transform="scale(1 1) rotate(0) translate(4 200)">
<title>ActsPlugins::DD4hepVolumeBuilder::Config</title>
<!-- Node1 -->
<g id="Node000001" class="node">
<title>Node1</title>
<g id="a_Node000001"><a xlink:title="Nested configuration struct for steering of the volume builder.">
<polygon fill="#999999" stroke="#666666" points="190.5,-30 35.5,-30 35.5,0 190.5,0 190.5,-30"/>
<text text-anchor="start" x="43.5" y="-18" font-family="Helvetica,sans-Serif" font-size="10.00">ActsPlugins::DD4hepVolume</text>
<text text-anchor="middle" x="113" y="-7" font-family="Helvetica,sans-Serif" font-size="10.00">Builder::Config</text>
</a>
</g>
</g>
<!-- Node2 -->
<g id="Node000002" class="node">
<title>Node2</title>
<g id="a_Node000002"><a xlink:title=" ">
<polygon fill="white" stroke="#666666" points="84.5,-107.5 19.5,-107.5 19.5,-88.5 84.5,-88.5 84.5,-107.5"/>
<text text-anchor="middle" x="52" y="-95.5" font-family="Helvetica,sans-Serif" font-size="10.00">std::string</text>
</a>
</g>
</g>
<!-- Node2&#45;&gt;Node1 -->
<g id="edge1_Node000001_Node000002" class="edge">
<title>Node2&#45;&gt;Node1</title>
<g id="a_edge1_Node000001_Node000002"><a xlink:title=" ">
<path fill="none" stroke="#9a32cd" stroke-dasharray="5,2" d="M48.11,-78.41C47.08,-68.68 47.5,-56.96 53,-48 57.63,-40.45 64.7,-34.58 72.38,-30.05"/>
<polygon fill="#9a32cd" stroke="#9a32cd" points="44.66,-78.98 49.7,-88.3 51.57,-77.87 44.66,-78.98"/>
</a>
</g>
<text text-anchor="start" x="56" y="-53.5" font-family="Helvetica,sans-Serif" font-size="10.00" fill="grey">configurationName</text>
</g>
<!-- Node3 -->
<g id="Node000003" class="node">
<title>Node3</title>
<g id="a_Node000003"><a xlink:title=" ">
<polygon fill="white" stroke="#666666" points="104,-196 0,-196 0,-166 104,-166 104,-196"/>
<text text-anchor="start" x="8" y="-184" font-family="Helvetica,sans-Serif" font-size="10.00">std::basic_string&lt;</text>
<text text-anchor="middle" x="52" y="-173" font-family="Helvetica,sans-Serif" font-size="10.00"> Char &gt;</text>
</a>
</g>
</g>
<!-- Node3&#45;&gt;Node2 -->
<g id="edge2_Node000002_Node000003" class="edge">
<title>Node3&#45;&gt;Node2</title>
<g id="a_edge2_Node000002_Node000003"><a xlink:title=" ">
<path fill="none" stroke="#63b8ff" d="M52,-155.55C52,-139.45 52,-119.32 52,-107.94"/>
<polygon fill="#63b8ff" stroke="#63b8ff" points="48.5,-155.89 52,-165.89 55.5,-155.89 48.5,-155.89"/>
</a>
</g>
</g>
<!-- Node4 -->
<g id="Node000004" class="node">
<title>Node4</title>
<g id="a_Node000004"><a xlink:title=" ">
<polygon fill="white" stroke="#666666" points="233,-113 117,-113 117,-83 233,-83 233,-113"/>
<text text-anchor="start" x="125" y="-101" font-family="Helvetica,sans-Serif" font-size="10.00">std::vector&lt; dd4hep</text>
<text text-anchor="middle" x="175" y="-90" font-family="Helvetica,sans-Serif" font-size="10.00">::DetElement &gt;</text>
</a>
</g>
</g>
<!-- Node4&#45;&gt;Node1 -->
<g id="edge3_Node000001_Node000004" class="edge">
<title>Node4&#45;&gt;Node1</title>
<g id="a_edge3_Node000001_Node000004"><a xlink:title=" ">
<path fill="none" stroke="#9a32cd" stroke-dasharray="5,2" d="M167.02,-73.32C163.51,-64.84 158.83,-55.52 153,-48 147.88,-41.39 141.13,-35.32 134.63,-30.29"/>
<polygon fill="#9a32cd" stroke="#9a32cd" points="163.78,-74.64 170.62,-82.73 170.32,-72.14 163.78,-74.64"/>
</a>
</g>
<text text-anchor="start" x="166" y="-53.5" font-family="Helvetica,sans-Serif" font-size="10.00" fill="grey">centralVolumes</text>
</g>
<!-- Node5 -->
<g id="Node000005" class="node">
<title>Node5</title>
<g id="a_Node000005"><a xlink:title=" ">
<polygon fill="white" stroke="#666666" points="223.5,-190.5 126.5,-190.5 126.5,-171.5 223.5,-171.5 223.5,-190.5"/>
<text text-anchor="middle" x="175" y="-178.5" font-family="Helvetica,sans-Serif" font-size="10.00">std::vector&lt; T &gt;</text>
</a>
</g>
</g>
<!-- Node5&#45;&gt;Node4 -->
<g id="edge4_Node000004_Node000005" class="edge">
<title>Node5&#45;&gt;Node4</title>
<g id="a_edge4_Node000004_Node000005"><a xlink:title=" ">
<path fill="none" stroke="orange" stroke-dasharray="5,2" d="M175,-160.91C175,-146.22 175,-126.25 175,-113.01"/>
<polygon fill="orange" stroke="orange" points="171.5,-161.33 175,-171.33 178.5,-161.33 171.5,-161.33"/>
</a>
</g>
<text text-anchor="start" x="178.5" y="-136.5" font-family="Helvetica,sans-Serif" font-size="10.00" fill="grey">&lt; dd4hep::DetElement &gt;</text>
</g>
</g>
</svg>
