<?xml version="1.0" encoding="UTF-8" standalone="no"?>
<!DOCTYPE svg PUBLIC "-//W3C//DTD SVG 1.1//EN"
 "http://www.w3.org/Graphics/SVG/1.1/DTD/svg11.dtd">
<!-- Generated by graphviz version 2.43.0 (0)
 -->
<!-- Title: Acts::TrackAtVertex Pages: 1 -->
<!--zoomable 118 -->

<svg id="main" version="1.1" xmlns="http://www.w3.org/2000/svg" xmlns:xlink="http://www.w3.org/1999/xlink" xml:space="preserve" onload="init(evt)">

<style type="text/css"><![CDATA[
.node, .edge {opacity: 0.7;}
.node.selected, .edge.selected {opacity: 1;}
.edge:hover path { stroke: red; }
.edge:hover polygon { stroke: red; fill: red; }
]]></style>

<defs>
  <circle id="rim" cx="0" cy="0" r="7"/>
  <circle id="rim2" cx="0" cy="0" r="3.5"/>
  <g id="zoomPlus">
    <use xlink:href="#rim" fill="#404040"><set attributeName="fill" to="#808080" begin="zoomplus.mouseover" end="zoomplus.mouseout"/></use>
    <path d="M-4,0h8M0,-4v8" fill="none" stroke="white" stroke-width="1.5" pointer-events="none"/>
  </g>
  <g id="zoomMin">
    <use xlink:href="#rim" fill="#404040"><set attributeName="fill" to="#808080" begin="zoomminus.mouseover" end="zoomminus.mouseout"/></use>
    <path d="M-4,0h8" fill="none" stroke="white" stroke-width="1.5" pointer-events="none"/>
  </g>
  <g id="arrowUp" transform="translate(30 24)">
    <use xlink:href="#rim"/>
    <path pointer-events="none" fill="none" stroke="white" stroke-width="1.5" d="M0,-3.0v7 M-2.5,-0.5L0,-3.0L2.5,-0.5"/>
  </g>
  <g id="arrowRight" transform="rotate(90) translate(36 -43)">
    <use xlink:href="#rim"/>
    <path pointer-events="none" fill="none" stroke="white" stroke-width="1.5" d="M0,-3.0v7 M-2.5,-0.5L0,-3.0L2.5,-0.5"/>
  </g>
  <g id="arrowDown" transform="rotate(180) translate(-30 -48)">
    <use xlink:href="#rim"/>
    <path pointer-events="none" fill="none" stroke="white" stroke-width="1.5" d="M0,-3.0v7 M-2.5,-0.5L0,-3.0L2.5,-0.5"/>
  </g>
  <g id="arrowLeft" transform="rotate(270) translate(-36 17)">
    <use xlink:href="#rim"/>
    <path pointer-events="none" fill="none" stroke="white" stroke-width="1.5" d="M0,-3.0v7 M-2.5,-0.5L0,-3.0L2.5,-0.5"/>
  </g>
  <g id="resetDef">
    <use xlink:href="#rim2" fill="#404040"><set attributeName="fill" to="#808080" begin="reset.mouseover" end="reset.mouseout"/></use>
  </g>
</defs>
<script type="application/ecmascript">
var viewWidth = 777;
var viewHeight = 118;
var sectionId = 'dynsection-0';
</script>
<script type="application/ecmascript" xlink:href="svg.min.js"/>
<svg id="graph" class="graph">
<g id="viewport">
<title>Acts::TrackAtVertex</title>
<!-- Node1 -->
<g id="Node000001" class="node">
<title>Node1</title>
<g id="a_Node000001"><a xlink:title="Defines a track at vertex object.">
<polygon fill="#999999" stroke="#666666" points="769,-59 658,-59 658,-40 769,-40 769,-59"/>
<text text-anchor="middle" x="713.5" y="-47" font-family="Helvetica,sans-Serif" font-size="10.00">Acts::TrackAtVertex</text>
</a>
</g>
</g>
<!-- Node2 -->
<g id="Node000002" class="node">
<title>Node2</title>
<g id="a_Node000002"><a xlink:href="class_acts_1_1_generic_bound_track_parameters.html" target="_top" xlink:title=" ">
<polygon fill="white" stroke="#666666" points="542,-107.5 349,-107.5 349,-77.5 542,-77.5 542,-107.5"/>
<text text-anchor="start" x="357" y="-95.5" font-family="Helvetica,sans-Serif" font-size="10.00">Acts::GenericBoundTrackParameters</text>
<text text-anchor="middle" x="445.5" y="-84.5" font-family="Helvetica,sans-Serif" font-size="10.00">&lt; ParticleHypothesis &gt;</text>
</a>
</g>
</g>
<!-- Node2&#45;&gt;Node1 -->
<g id="edge1_Node000001_Node000002" class="edge">
<title>Node2&#45;&gt;Node1</title>
<g id="a_edge1_Node000001_Node000002"><a xlink:title=" ">
<path fill="none" stroke="#9a32cd" stroke-dasharray="5,2" d="M552.42,-82.83C580.98,-79.43 611.79,-75.04 640,-69.5 653.84,-66.79 668.9,-62.8 681.7,-59.1"/>
<polygon fill="#9a32cd" stroke="#9a32cd" points="551.94,-79.36 542.41,-83.99 552.75,-86.32 551.94,-79.36"/>
</a>
</g>
<text text-anchor="start" x="569" y="-87" font-family="Helvetica,sans-Serif" font-size="10.00" fill="grey">fittedParams</text>
</g>
<!-- Node3 -->
<g id="Node000003" class="node">
<title>Node3</title>
<g id="a_Node000003"><a xlink:href="class_acts_1_1_generic_bound_track_parameters.html" target="_top" xlink:title="Track parameters bound to a reference surface for a single track.">
<polygon fill="white" stroke="#666666" points="193,-107.5 0,-107.5 0,-77.5 193,-77.5 193,-107.5"/>
<text text-anchor="start" x="8" y="-95.5" font-family="Helvetica,sans-Serif" font-size="10.00">Acts::GenericBoundTrackParameters</text>
<text text-anchor="middle" x="96.5" y="-84.5" font-family="Helvetica,sans-Serif" font-size="10.00">&lt; particle_hypothesis_t &gt;</text>
</a>
</g>
</g>
<!-- Node3&#45;&gt;Node2 -->
<g id="edge2_Node000002_Node000003" class="edge">
<title>Node3&#45;&gt;Node2</title>
<g id="a_edge2_Node000002_Node000003"><a xlink:title=" ">
<path fill="none" stroke="orange" stroke-dasharray="5,2" d="M203.31,-92.5C249.65,-92.5 303.64,-92.5 348.77,-92.5"/>
<polygon fill="orange" stroke="orange" points="203.24,-89 193.24,-92.5 203.24,-96 203.24,-89"/>
</a>
</g>
<text text-anchor="start" x="214" y="-98" font-family="Helvetica,sans-Serif" font-size="10.00" fill="grey">&lt; ParticleHypothesis &gt;</text>
</g>
<!-- Node4 -->
<g id="Node000004" class="node">
<title>Node4</title>
<g id="a_Node000004"><a xlink:href="struct_acts_1_1_input_track.html" target="_top" xlink:title=" ">
<polygon fill="white" stroke="#666666" points="492.5,-59 398.5,-59 398.5,-40 492.5,-40 492.5,-59"/>
<text text-anchor="middle" x="445.5" y="-47" font-family="Helvetica,sans-Serif" font-size="10.00">Acts::InputTrack</text>
</a>
</g>
</g>
<!-- Node4&#45;&gt;Node1 -->
<g id="edge3_Node000001_Node000004" class="edge">
<title>Node4&#45;&gt;Node1</title>
<g id="a_edge3_Node000001_Node000004"><a xlink:title=" ">
<path fill="none" stroke="#9a32cd" stroke-dasharray="5,2" d="M502.57,-49.5C548.3,-49.5 612.51,-49.5 657.85,-49.5"/>
<polygon fill="#9a32cd" stroke="#9a32cd" points="502.53,-46 492.53,-49.5 502.53,-53 502.53,-46"/>
</a>
</g>
<text text-anchor="start" x="564" y="-55" font-family="Helvetica,sans-Serif" font-size="10.00" fill="grey">originalParams</text>
</g>
<!-- Node5 -->
<g id="Node000005" class="node">
<title>Node5</title>
<g id="a_Node000005"><a xlink:href="struct_acts_1_1_linearized_track.html" target="_top" xlink:title="Class for linear expansion of track parameters in vicinity of vertex.">
<polygon fill="white" stroke="#666666" points="505,-19 386,-19 386,0 505,0 505,-19"/>
<text text-anchor="middle" x="445.5" y="-7" font-family="Helvetica,sans-Serif" font-size="10.00">Acts::LinearizedTrack</text>
</a>
</g>
</g>
<!-- Node5&#45;&gt;Node1 -->
<g id="edge4_Node000001_Node000005" class="edge">
<title>Node5&#45;&gt;Node1</title>
<g id="a_edge4_Node000001_Node000005"><a xlink:title=" ">
<path fill="none" stroke="#9a32cd" stroke-dasharray="5,2" d="M515.54,-13.18C552.67,-15.94 599.1,-20.64 640,-28.5 654.8,-31.34 670.93,-35.87 684.21,-39.99"/>
<polygon fill="#9a32cd" stroke="#9a32cd" points="515.55,-9.68 505.33,-12.46 515.06,-16.66 515.55,-9.68"/>
</a>
</g>
<text text-anchor="start" x="563" y="-34" font-family="Helvetica,sans-Serif" font-size="10.00" fill="grey">linearizedState</text>
</g>
</g>
</svg>

<g id="navigator" transform="translate(0 0)" fill="#404254">
  <rect fill="#f2f5e9" fill-opacity="0.5" stroke="#606060" stroke-width=".5" x="0" y="0" width="60" height="60"/>
  <use id="zoomplus" xlink:href="#zoomPlus" x="17" y="9" onmousedown="handleZoom(evt,'in')"/>
  <use id="zoomminus" xlink:href="#zoomMin" x="42" y="9" onmousedown="handleZoom(evt,'out')"/>
  <use id="reset" xlink:href="#resetDef" x="30" y="36" onmousedown="handleReset()"/>
   <use id="arrowup" xlink:href="#arrowUp" x="0" y="0" onmousedown="handlePan(0,-1)"/>
  <use id="arrowright" xlink:href="#arrowRight" x="0" y="0" onmousedown="handlePan(1,0)"/>
  <use id="arrowdown" xlink:href="#arrowDown" x="0" y="0" onmousedown="handlePan(0,1)"/>
  <use id="arrowleft" xlink:href="#arrowLeft" x="0" y="0" onmousedown="handlePan(-1,0)"/>
</g>
<svg viewBox="0 0 15 15" width="100%" height="30px" preserveAspectRatio="xMaxYMin meet">
 <g id="arrow_out" transform="scale(0.3 0.3)">
  <a xlink:href="struct_acts_1_1_track_at_vertex__coll__graph_org.svg" target="_base">
   <rect id="button" ry="5" rx="5" y="6" x="6" height="38" width="38"
        fill="#f2f5e9" fill-opacity="0.5" stroke="#606060" stroke-width="1.0"/>
   <path id="arrow"
     d="M 11.500037,31.436501 C 11.940474,20.09759 22.043105,11.32322 32.158766,21.979434 L 37.068811,17.246167 C 37.068811,17.246167 37.088388,32 37.088388,32 L 22.160133,31.978069 C 22.160133,31.978069 26.997745,27.140456 26.997745,27.140456 C 18.528582,18.264221 13.291696,25.230495 11.500037,31.436501 z"
     style="fill:#404040;"/>
  </a>
 </g>
</svg>

<style type='text/css'>
<![CDATA[
[data-mouse-over-selected='false'] { opacity: 0.7; }
[data-mouse-over-selected='true']  { opacity: 1.0; }
]]>
</style>
<script type="application/ecmascript"><![CDATA[
document.addEventListener('DOMContentLoaded', (event) => {
  highlightEdges();
  highlightAdjacentNodes();
});
]]></script>
</svg>
