<?xml version="1.0" encoding="UTF-8" standalone="no"?>
<!DOCTYPE svg PUBLIC "-//W3C//DTD SVG 1.1//EN"
 "http://www.w3.org/Graphics/SVG/1.1/DTD/svg11.dtd">
<!-- Generated by graphviz version 2.43.0 (0)
 -->
<!-- Title: Acts::jsonKey Pages: 1 -->
<svg width="125pt" height="271pt"
 viewBox="0.00 0.00 125.00 271.00" xmlns="http://www.w3.org/2000/svg" xmlns:xlink="http://www.w3.org/1999/xlink">
<g id="graph0" class="graph" transform="scale(1 1) rotate(0) translate(4 267)">
<title>Acts::jsonKey</title>
<!-- Node1 -->
<g id="Node000001" class="node">
<title>Node1</title>
<g id="a_Node000001"><a xlink:title="store in a single place the different key used for the material mapping">
<polygon fill="#999999" stroke="#666666" points="93,-19 11,-19 11,0 93,0 93,-19"/>
<text text-anchor="middle" x="52" y="-7" font-family="Helvetica,sans-Serif" font-size="10.00">Acts::jsonKey</text>
</a>
</g>
</g>
<!-- Node2 -->
<g id="Node000002" class="node">
<title>Node2</title>
<g id="a_Node000002"><a xlink:title=" ">
<polygon fill="white" stroke="#666666" points="84.5,-196 19.5,-196 19.5,-177 84.5,-177 84.5,-196"/>
<text text-anchor="middle" x="52" y="-184" font-family="Helvetica,sans-Serif" font-size="10.00">std::string</text>
</a>
</g>
</g>
<!-- Node2&#45;&gt;Node1 -->
<g id="edge1_Node000001_Node000002" class="edge">
<title>Node2&#45;&gt;Node1</title>
<g id="a_edge1_Node000001_Node000002"><a xlink:title=" ">
<path fill="none" stroke="#9a32cd" stroke-dasharray="5,2" d="M52,-166.45C52,-128.8 52,-46.15 52,-19.19"/>
<polygon fill="#9a32cd" stroke="#9a32cd" points="48.5,-166.58 52,-176.58 55.5,-166.58 48.5,-166.58"/>
</a>
</g>
<text text-anchor="start" x="55.5" y="-148" font-family="Helvetica,sans-Serif" font-size="10.00" fill="grey">binkey</text>
<text text-anchor="start" x="55.5" y="-133" font-family="Helvetica,sans-Serif" font-size="10.00" fill="grey">datakey</text>
<text text-anchor="start" x="55.5" y="-118" font-family="Helvetica,sans-Serif" font-size="10.00" fill="grey">mapkey</text>
<text text-anchor="start" x="55.5" y="-103" font-family="Helvetica,sans-Serif" font-size="10.00" fill="grey">maptype</text>
<text text-anchor="start" x="55.5" y="-88" font-family="Helvetica,sans-Serif" font-size="10.00" fill="grey">materialkey</text>
<text text-anchor="start" x="55.5" y="-73" font-family="Helvetica,sans-Serif" font-size="10.00" fill="grey">namekey</text>
<text text-anchor="start" x="55.5" y="-58" font-family="Helvetica,sans-Serif" font-size="10.00" fill="grey">transfokeys</text>
<text text-anchor="start" x="55.5" y="-43" font-family="Helvetica,sans-Serif" font-size="10.00" fill="grey">typekey</text>
</g>
<!-- Node3 -->
<g id="Node000003" class="node">
<title>Node3</title>
<g id="a_Node000003"><a xlink:title=" ">
<polygon fill="white" stroke="#666666" points="104,-263 0,-263 0,-233 104,-233 104,-263"/>
<text text-anchor="start" x="8" y="-251" font-family="Helvetica,sans-Serif" font-size="10.00">std::basic_string&lt;</text>
<text text-anchor="middle" x="52" y="-240" font-family="Helvetica,sans-Serif" font-size="10.00"> Char &gt;</text>
</a>
</g>
</g>
<!-- Node3&#45;&gt;Node2 -->
<g id="edge2_Node000002_Node000003" class="edge">
<title>Node3&#45;&gt;Node2</title>
<g id="a_edge2_Node000002_Node000003"><a xlink:title=" ">
<path fill="none" stroke="#63b8ff" d="M52,-222.79C52,-213.36 52,-203.15 52,-196.16"/>
<polygon fill="#63b8ff" stroke="#63b8ff" points="48.5,-222.9 52,-232.9 55.5,-222.9 48.5,-222.9"/>
</a>
</g>
</g>
</g>
</svg>
