<?xml version="1.0" encoding="UTF-8" standalone="no"?>
<!DOCTYPE svg PUBLIC "-//W3C//DTD SVG 1.1//EN"
 "http://www.w3.org/Graphics/SVG/1.1/DTD/svg11.dtd">
<!-- Generated by graphviz version 2.43.0 (0)
 -->
<!-- Title: Acts::MeasurementSelectorCuts Pages: 1 -->
<svg width="345pt" height="201pt"
 viewBox="0.00 0.00 345.00 201.00" xmlns="http://www.w3.org/2000/svg" xmlns:xlink="http://www.w3.org/1999/xlink">
<g id="graph0" class="graph" transform="scale(1 1) rotate(0) translate(4 197)">
<title>Acts::MeasurementSelectorCuts</title>
<!-- Node1 -->
<g id="Node000001" class="node">
<title>Node1</title>
<g id="a_Node000001"><a xlink:title="Selection cuts for associating measurements with predicted track parameters on a surface.">
<polygon fill="#999999" stroke="#666666" points="223.5,-19 50.5,-19 50.5,0 223.5,0 223.5,-19"/>
<text text-anchor="middle" x="137" y="-7" font-family="Helvetica,sans-Serif" font-size="10.00">Acts::MeasurementSelectorCuts</text>
</a>
</g>
</g>
<!-- Node2 -->
<g id="Node000002" class="node">
<title>Node2</title>
<g id="a_Node000002"><a xlink:title=" ">
<polygon fill="white" stroke="#666666" points="124,-121 0,-121 0,-102 124,-102 124,-121"/>
<text text-anchor="middle" x="62" y="-109" font-family="Helvetica,sans-Serif" font-size="10.00">std::vector&lt; double &gt;</text>
</a>
</g>
</g>
<!-- Node2&#45;&gt;Node1 -->
<g id="edge1_Node000001_Node000002" class="edge">
<title>Node2&#45;&gt;Node1</title>
<g id="a_edge1_Node000001_Node000002"><a xlink:title=" ">
<path fill="none" stroke="#9a32cd" stroke-dasharray="5,2" d="M65.35,-91.99C69.06,-75.92 76.39,-52.81 90,-37 96.6,-29.33 106,-23.42 114.65,-19.14"/>
<polygon fill="#9a32cd" stroke="#9a32cd" points="61.92,-91.32 63.33,-101.82 68.77,-92.72 61.92,-91.32"/>
</a>
</g>
<text text-anchor="start" x="93.5" y="-72.5" font-family="Helvetica,sans-Serif" font-size="10.00" fill="grey">chi2CutOff</text>
<text text-anchor="start" x="93.5" y="-57.5" font-family="Helvetica,sans-Serif" font-size="10.00" fill="grey">chi2CutOffOutlier</text>
<text text-anchor="start" x="93.5" y="-42.5" font-family="Helvetica,sans-Serif" font-size="10.00" fill="grey">etaBins</text>
</g>
<!-- Node3 -->
<g id="Node000003" class="node">
<title>Node3</title>
<g id="a_Node000003"><a xlink:title=" ">
<polygon fill="white" stroke="#666666" points="184.5,-193 87.5,-193 87.5,-174 184.5,-174 184.5,-193"/>
<text text-anchor="middle" x="136" y="-181" font-family="Helvetica,sans-Serif" font-size="10.00">std::vector&lt; T &gt;</text>
</a>
</g>
</g>
<!-- Node3&#45;&gt;Node2 -->
<g id="edge2_Node000002_Node000003" class="edge">
<title>Node3&#45;&gt;Node2</title>
<g id="a_edge2_Node000002_Node000003"><a xlink:title=" ">
<path fill="none" stroke="orange" stroke-dasharray="5,2" d="M119.41,-166.8C104.5,-152.71 83.17,-132.53 71.15,-121.15"/>
<polygon fill="orange" stroke="orange" points="117.26,-169.59 126.93,-173.92 122.07,-164.5 117.26,-169.59"/>
</a>
</g>
<text text-anchor="start" x="111" y="-144.5" font-family="Helvetica,sans-Serif" font-size="10.00" fill="grey">&lt; double &gt;</text>
</g>
<!-- Node4 -->
<g id="Node000004" class="node">
<title>Node4</title>
<g id="a_Node000004"><a xlink:title=" ">
<polygon fill="white" stroke="#666666" points="282,-121 142,-121 142,-102 282,-102 282,-121"/>
<text text-anchor="middle" x="212" y="-109" font-family="Helvetica,sans-Serif" font-size="10.00">std::vector&lt; std::size_t &gt;</text>
</a>
</g>
</g>
<!-- Node3&#45;&gt;Node4 -->
<g id="edge4_Node000004_Node000003" class="edge">
<title>Node3&#45;&gt;Node4</title>
<g id="a_edge4_Node000004_Node000003"><a xlink:title=" ">
<path fill="none" stroke="orange" stroke-dasharray="5,2" d="M157.85,-168.05C162.99,-164.33 168.33,-160.19 173,-156 185.39,-144.9 197.91,-130.17 205.31,-121.01"/>
<polygon fill="orange" stroke="orange" points="155.75,-165.25 149.55,-173.84 159.75,-170.99 155.75,-165.25"/>
</a>
</g>
<text text-anchor="start" x="191.5" y="-144.5" font-family="Helvetica,sans-Serif" font-size="10.00" fill="grey">&lt; std::size_t &gt;</text>
</g>
<!-- Node4&#45;&gt;Node1 -->
<g id="edge3_Node000001_Node000004" class="edge">
<title>Node4&#45;&gt;Node1</title>
<g id="a_edge3_Node000001_Node000004"><a xlink:title=" ">
<path fill="none" stroke="#9a32cd" stroke-dasharray="5,2" d="M207.7,-92.08C203.21,-76.06 194.85,-52.99 181,-37 174.46,-29.45 165.22,-23.44 156.9,-19.06"/>
<polygon fill="#9a32cd" stroke="#9a32cd" points="204.33,-93.05 210.21,-101.86 211.11,-91.31 204.33,-93.05"/>
</a>
</g>
<text text-anchor="start" x="208" y="-57.5" font-family="Helvetica,sans-Serif" font-size="10.00" fill="grey">numMeasurementsCutOff</text>
</g>
</g>
</svg>
