<?xml version="1.0" encoding="UTF-8" standalone="no"?>
<!DOCTYPE svg PUBLIC "-//W3C//DTD SVG 1.1//EN"
 "http://www.w3.org/Graphics/SVG/1.1/DTD/svg11.dtd">
<!-- Generated by graphviz version 2.43.0 (0)
 -->
<!-- Title: Acts::EigenStepper&lt; extension_t &gt;::State Pages: 1 -->
<!--zoomable 240 -->

<svg id="main" version="1.1" xmlns="http://www.w3.org/2000/svg" xmlns:xlink="http://www.w3.org/1999/xlink" xml:space="preserve" onload="init(evt)">

<style type="text/css"><![CDATA[
.node, .edge {opacity: 0.7;}
.node.selected, .edge.selected {opacity: 1;}
.edge:hover path { stroke: red; }
.edge:hover polygon { stroke: red; fill: red; }
]]></style>

<defs>
  <circle id="rim" cx="0" cy="0" r="7"/>
  <circle id="rim2" cx="0" cy="0" r="3.5"/>
  <g id="zoomPlus">
    <use xlink:href="#rim" fill="#404040"><set attributeName="fill" to="#808080" begin="zoomplus.mouseover" end="zoomplus.mouseout"/></use>
    <path d="M-4,0h8M0,-4v8" fill="none" stroke="white" stroke-width="1.5" pointer-events="none"/>
  </g>
  <g id="zoomMin">
    <use xlink:href="#rim" fill="#404040"><set attributeName="fill" to="#808080" begin="zoomminus.mouseover" end="zoomminus.mouseout"/></use>
    <path d="M-4,0h8" fill="none" stroke="white" stroke-width="1.5" pointer-events="none"/>
  </g>
  <g id="arrowUp" transform="translate(30 24)">
    <use xlink:href="#rim"/>
    <path pointer-events="none" fill="none" stroke="white" stroke-width="1.5" d="M0,-3.0v7 M-2.5,-0.5L0,-3.0L2.5,-0.5"/>
  </g>
  <g id="arrowRight" transform="rotate(90) translate(36 -43)">
    <use xlink:href="#rim"/>
    <path pointer-events="none" fill="none" stroke="white" stroke-width="1.5" d="M0,-3.0v7 M-2.5,-0.5L0,-3.0L2.5,-0.5"/>
  </g>
  <g id="arrowDown" transform="rotate(180) translate(-30 -48)">
    <use xlink:href="#rim"/>
    <path pointer-events="none" fill="none" stroke="white" stroke-width="1.5" d="M0,-3.0v7 M-2.5,-0.5L0,-3.0L2.5,-0.5"/>
  </g>
  <g id="arrowLeft" transform="rotate(270) translate(-36 17)">
    <use xlink:href="#rim"/>
    <path pointer-events="none" fill="none" stroke="white" stroke-width="1.5" d="M0,-3.0v7 M-2.5,-0.5L0,-3.0L2.5,-0.5"/>
  </g>
  <g id="resetDef">
    <use xlink:href="#rim2" fill="#404040"><set attributeName="fill" to="#808080" begin="reset.mouseover" end="reset.mouseout"/></use>
  </g>
</defs>
<script type="application/ecmascript">
var viewWidth = 1021;
var viewHeight = 240;
var sectionId = 'dynsection-0';
</script>
<script type="application/ecmascript" xlink:href="svg.min.js"/>
<svg id="graph" class="graph">
<g id="viewport">
<title>Acts::EigenStepper&lt; extension_t &gt;::State</title>
<!-- Node1 -->
<g id="Node000001" class="node">
<title>Node1</title>
<g id="a_Node000001"><a xlink:title="State for track parameter propagation.">
<polygon fill="#999999" stroke="#666666" points="1013,-124.5 885,-124.5 885,-94.5 1013,-94.5 1013,-124.5"/>
<text text-anchor="start" x="893" y="-112.5" font-family="Helvetica,sans-Serif" font-size="10.00">Acts::EigenStepper</text>
<text text-anchor="middle" x="949" y="-101.5" font-family="Helvetica,sans-Serif" font-size="10.00">&lt; extension_t &gt;::State</text>
</a>
</g>
</g>
<!-- Node2 -->
<g id="Node000002" class="node">
<title>Node2</title>
<g id="a_Node000002"><a xlink:href="struct_acts_1_1_eigen_stepper_1_1_options.html" target="_top" xlink:title=" ">
<polygon fill="white" stroke="#666666" points="751,-227.5 611,-227.5 611,-197.5 751,-197.5 751,-227.5"/>
<text text-anchor="start" x="619" y="-215.5" font-family="Helvetica,sans-Serif" font-size="10.00">Acts::EigenStepper</text>
<text text-anchor="middle" x="681" y="-204.5" font-family="Helvetica,sans-Serif" font-size="10.00">&lt; extension_t &gt;::Options</text>
</a>
</g>
</g>
<!-- Node2&#45;&gt;Node1 -->
<g id="edge1_Node000001_Node000002" class="edge">
<title>Node2&#45;&gt;Node1</title>
<g id="a_edge1_Node000001_Node000002"><a xlink:title=" ">
<path fill="none" stroke="#9a32cd" stroke-dasharray="5,2" d="M761.46,-209.56C795.32,-205.83 834.43,-198.12 867,-182.5 895.68,-168.75 921.6,-141.61 936.03,-124.57"/>
<polygon fill="#9a32cd" stroke="#9a32cd" points="760.74,-206.12 751.14,-210.59 761.44,-213.08 760.74,-206.12"/>
</a>
</g>
<text text-anchor="start" x="800" y="-214" font-family="Helvetica,sans-Serif" font-size="10.00" fill="grey">options</text>
</g>
<!-- Node3 -->
<g id="Node000003" class="node">
<title>Node3</title>
<g id="a_Node000003"><a xlink:href="struct_acts_1_1_stepper_plain_options.html" target="_top" xlink:title=" ">
<polygon fill="white" stroke="#666666" points="447.5,-223 304.5,-223 304.5,-204 447.5,-204 447.5,-223"/>
<text text-anchor="middle" x="376" y="-211" font-family="Helvetica,sans-Serif" font-size="10.00">Acts::StepperPlainOptions</text>
</a>
</g>
</g>
<!-- Node3&#45;&gt;Node2 -->
<g id="edge2_Node000002_Node000003" class="edge">
<title>Node3&#45;&gt;Node2</title>
<g id="a_edge2_Node000002_Node000003"><a xlink:title=" ">
<path fill="none" stroke="#63b8ff" d="M457.95,-213.23C505.63,-213.08 565.32,-212.88 610.8,-212.73"/>
<polygon fill="#63b8ff" stroke="#63b8ff" points="457.65,-209.73 447.66,-213.27 457.67,-216.73 457.65,-209.73"/>
</a>
</g>
</g>
<!-- Node4 -->
<g id="Node000004" class="node">
<title>Node4</title>
<g id="a_Node000004"><a xlink:href="struct_acts_1_1_stepper_plain_options_1_1_dense.html" target="_top" xlink:title=" ">
<polygon fill="white" stroke="#666666" points="157.5,-230.5 14.5,-230.5 14.5,-200.5 157.5,-200.5 157.5,-230.5"/>
<text text-anchor="start" x="22.5" y="-218.5" font-family="Helvetica,sans-Serif" font-size="10.00">Acts::StepperPlainOptions</text>
<text text-anchor="middle" x="86" y="-207.5" font-family="Helvetica,sans-Serif" font-size="10.00">::Dense</text>
</a>
</g>
</g>
<!-- Node4&#45;&gt;Node3 -->
<g id="edge3_Node000003_Node000004" class="edge">
<title>Node4&#45;&gt;Node3</title>
<g id="a_edge3_Node000003_Node000004"><a xlink:title=" ">
<path fill="none" stroke="#9a32cd" stroke-dasharray="5,2" d="M167.96,-214.94C210.91,-214.64 263.18,-214.28 304.45,-213.99"/>
<polygon fill="#9a32cd" stroke="#9a32cd" points="167.8,-211.44 157.82,-215.01 167.85,-218.44 167.8,-211.44"/>
</a>
</g>
<text text-anchor="start" x="216" y="-220" font-family="Helvetica,sans-Serif" font-size="10.00" fill="grey">dense</text>
</g>
<!-- Node5 -->
<g id="Node000005" class="node">
<title>Node5</title>
<g id="a_Node000005"><a xlink:href="class_acts_1_1_particle_hypothesis.html" target="_top" xlink:title="Specialized particle hypothesis for any kind of charged particles.">
<polygon fill="white" stroke="#666666" points="748,-179 614,-179 614,-160 748,-160 748,-179"/>
<text text-anchor="middle" x="681" y="-167" font-family="Helvetica,sans-Serif" font-size="10.00">Acts::ParticleHypothesis</text>
</a>
</g>
</g>
<!-- Node5&#45;&gt;Node1 -->
<g id="edge4_Node000001_Node000005" class="edge">
<title>Node5&#45;&gt;Node1</title>
<g id="a_edge4_Node000001_Node000005"><a xlink:title=" ">
<path fill="none" stroke="#9a32cd" stroke-dasharray="5,2" d="M758.63,-163.89C792.3,-160.21 832.05,-154.21 867,-144.5 884.56,-139.62 903.3,-131.71 918.33,-124.65"/>
<polygon fill="#9a32cd" stroke="#9a32cd" points="757.97,-160.44 748.38,-164.96 758.69,-167.4 757.97,-160.44"/>
</a>
</g>
<text text-anchor="start" x="772" y="-167" font-family="Helvetica,sans-Serif" font-size="10.00" fill="grey">particleHypothesis</text>
</g>
<!-- Node6 -->
<g id="Node000006" class="node">
<title>Node6</title>
<g id="a_Node000006"><a xlink:href="class_acts_1_1_generic_particle_hypothesis.html" target="_top" xlink:title=" ">
<polygon fill="white" stroke="#666666" points="462,-184.5 290,-184.5 290,-154.5 462,-154.5 462,-184.5"/>
<text text-anchor="start" x="298" y="-172.5" font-family="Helvetica,sans-Serif" font-size="10.00">Acts::GenericParticleHypothesis</text>
<text text-anchor="middle" x="376" y="-161.5" font-family="Helvetica,sans-Serif" font-size="10.00">&lt; AnyCharge &gt;</text>
</a>
</g>
</g>
<!-- Node6&#45;&gt;Node5 -->
<g id="edge5_Node000005_Node000006" class="edge">
<title>Node6&#45;&gt;Node5</title>
<g id="a_edge5_Node000005_Node000006"><a xlink:title=" ">
<path fill="none" stroke="#63b8ff" d="M472.48,-169.5C518.39,-169.5 572.3,-169.5 613.66,-169.5"/>
<polygon fill="#63b8ff" stroke="#63b8ff" points="472.21,-166 462.21,-169.5 472.21,-173 472.21,-166"/>
</a>
</g>
</g>
<!-- Node7 -->
<g id="Node000007" class="node">
<title>Node7</title>
<g id="a_Node000007"><a xlink:href="class_acts_1_1_generic_particle_hypothesis.html" target="_top" xlink:title="Particle hypothesis used in reconstruction.">
<polygon fill="white" stroke="#666666" points="172,-182.5 0,-182.5 0,-152.5 172,-152.5 172,-182.5"/>
<text text-anchor="start" x="8" y="-170.5" font-family="Helvetica,sans-Serif" font-size="10.00">Acts::GenericParticleHypothesis</text>
<text text-anchor="middle" x="86" y="-159.5" font-family="Helvetica,sans-Serif" font-size="10.00">&lt; charge_t &gt;</text>
</a>
</g>
</g>
<!-- Node7&#45;&gt;Node6 -->
<g id="edge6_Node000006_Node000007" class="edge">
<title>Node7&#45;&gt;Node6</title>
<g id="a_edge6_Node000006_Node000007"><a xlink:title=" ">
<path fill="none" stroke="orange" stroke-dasharray="5,2" d="M182.4,-168.16C217.15,-168.4 256.18,-168.67 289.98,-168.91"/>
<polygon fill="orange" stroke="orange" points="182.26,-164.66 172.24,-168.09 182.22,-171.66 182.26,-164.66"/>
</a>
</g>
<text text-anchor="start" x="193" y="-174" font-family="Helvetica,sans-Serif" font-size="10.00" fill="grey">&lt; AnyCharge &gt;</text>
</g>
<!-- Node8 -->
<g id="Node000008" class="node">
<title>Node8</title>
<g id="a_Node000008"><a xlink:href="class_acts_1_1_constrained_step.html" target="_top" xlink:title="A constrained step class for the steppers.">
<polygon fill="white" stroke="#666666" points="743,-142 619,-142 619,-123 743,-123 743,-142"/>
<text text-anchor="middle" x="681" y="-130" font-family="Helvetica,sans-Serif" font-size="10.00">Acts::ConstrainedStep</text>
</a>
</g>
</g>
<!-- Node8&#45;&gt;Node1 -->
<g id="edge7_Node000001_Node000008" class="edge">
<title>Node8&#45;&gt;Node1</title>
<g id="a_edge7_Node000001_Node000008"><a xlink:title=" ">
<path fill="none" stroke="#9a32cd" stroke-dasharray="5,2" d="M753.23,-126.34C794.26,-122.79 845.38,-118.37 884.95,-114.95"/>
<polygon fill="#9a32cd" stroke="#9a32cd" points="752.69,-122.87 743.03,-127.22 753.29,-129.85 752.69,-122.87"/>
</a>
</g>
<text text-anchor="start" x="797" y="-129" font-family="Helvetica,sans-Serif" font-size="10.00" fill="grey">stepSize</text>
</g>
<!-- Node9 -->
<g id="Node000009" class="node">
<title>Node9</title>
<g id="a_Node000009"><a xlink:href="class_acts_1_1_any_base.html" target="_top" xlink:title=" ">
<polygon fill="white" stroke="#666666" points="744.5,-104.5 617.5,-104.5 617.5,-74.5 744.5,-74.5 744.5,-104.5"/>
<text text-anchor="start" x="625.5" y="-92.5" font-family="Helvetica,sans-Serif" font-size="10.00">Acts::AnyBase&lt; sizeof</text>
<text text-anchor="middle" x="681" y="-81.5" font-family="Helvetica,sans-Serif" font-size="10.00">(char) *512 &gt;</text>
</a>
</g>
</g>
<!-- Node9&#45;&gt;Node1 -->
<g id="edge8_Node000001_Node000009" class="edge">
<title>Node9&#45;&gt;Node1</title>
<g id="a_edge8_Node000001_Node000009"><a xlink:title=" ">
<path fill="none" stroke="#9a32cd" stroke-dasharray="5,2" d="M755.08,-86.12C789.2,-85.51 830.29,-86.15 867,-90.5 874.89,-91.43 883.13,-92.84 891.2,-94.48"/>
<polygon fill="#9a32cd" stroke="#9a32cd" points="754.65,-82.63 744.73,-86.35 754.8,-89.63 754.65,-82.63"/>
</a>
</g>
<text text-anchor="start" x="792" y="-96" font-family="Helvetica,sans-Serif" font-size="10.00" fill="grey">fieldCache</text>
</g>
<!-- Node10 -->
<g id="Node000010" class="node">
<title>Node10</title>
<g id="a_Node000010"><a xlink:href="class_acts_1_1_any_base_all.html" target="_top" xlink:title="Base class for all instances of AnyBase regarfless of SBO size.">
<polygon fill="white" stroke="#666666" points="135.5,-123 36.5,-123 36.5,-104 135.5,-104 135.5,-123"/>
<text text-anchor="middle" x="86" y="-111" font-family="Helvetica,sans-Serif" font-size="10.00">Acts::AnyBaseAll</text>
</a>
</g>
</g>
<!-- Node10&#45;&gt;Node9 -->
<g id="edge9_Node000009_Node000010" class="edge">
<title>Node10&#45;&gt;Node9</title>
<g id="a_edge9_Node000009_Node000010"><a xlink:title=" ">
<path fill="none" stroke="#63b8ff" d="M145.94,-117.18C240.59,-122.15 432.16,-128.39 593,-109.5 602.7,-108.36 612.89,-106.57 622.75,-104.52"/>
<polygon fill="#63b8ff" stroke="#63b8ff" points="145.89,-113.67 135.71,-116.62 145.51,-120.66 145.89,-113.67"/>
</a>
</g>
</g>
<!-- Node11 -->
<g id="Node000011" class="node">
<title>Node11</title>
<g id="a_Node000011"><a xlink:href="class_acts_1_1_any_base.html" target="_top" xlink:title="Small opaque cache type with configurable small buffer optimization.">
<polygon fill="white" stroke="#666666" points="441.5,-96 310.5,-96 310.5,-77 441.5,-77 441.5,-96"/>
<text text-anchor="middle" x="376" y="-84" font-family="Helvetica,sans-Serif" font-size="10.00">Acts::AnyBase&lt; SIZE &gt;</text>
</a>
</g>
</g>
<!-- Node10&#45;&gt;Node11 -->
<g id="edge11_Node000011_Node000010" class="edge">
<title>Node10&#45;&gt;Node11</title>
<g id="a_edge11_Node000011_Node000010"><a xlink:title=" ">
<path fill="none" stroke="#63b8ff" d="M145.72,-107.99C193.53,-103.51 260.95,-97.19 310.3,-92.57"/>
<polygon fill="#63b8ff" stroke="#63b8ff" points="145.16,-104.53 135.53,-108.95 145.81,-111.5 145.16,-104.53"/>
</a>
</g>
</g>
<!-- Node11&#45;&gt;Node9 -->
<g id="edge10_Node000009_Node000011" class="edge">
<title>Node11&#45;&gt;Node9</title>
<g id="a_edge10_Node000009_Node000011"><a xlink:title=" ">
<path fill="none" stroke="orange" stroke-dasharray="5,2" d="M451.91,-87.24C502.76,-87.75 569.23,-88.4 617.29,-88.88"/>
<polygon fill="orange" stroke="orange" points="451.66,-83.74 441.63,-87.14 451.59,-90.74 451.66,-83.74"/>
</a>
</g>
<text text-anchor="start" x="483.5" y="-94" font-family="Helvetica,sans-Serif" font-size="10.00" fill="grey">&lt; sizeof(char) *512 &gt;</text>
</g>
<!-- Node12 -->
<g id="Node000012" class="node">
<title>Node12</title>
<g id="a_Node000012"><a xlink:title=" ">
<polygon fill="white" stroke="#666666" points="746.5,-56 615.5,-56 615.5,-37 746.5,-37 746.5,-56"/>
<text text-anchor="middle" x="681" y="-44" font-family="Helvetica,sans-Serif" font-size="10.00">std::array&lt; double, 4 &gt;</text>
</a>
</g>
</g>
<!-- Node12&#45;&gt;Node1 -->
<g id="edge12_Node000001_Node000012" class="edge">
<title>Node12&#45;&gt;Node1</title>
<g id="a_edge12_Node000001_Node000012"><a xlink:title=" ">
<path fill="none" stroke="#9a32cd" stroke-dasharray="5,2" d="M757.03,-46.86C791.22,-48.77 831.82,-53.54 867,-64.5 888.5,-71.2 910.71,-84.03 926.42,-94.28"/>
<polygon fill="#9a32cd" stroke="#9a32cd" points="756.8,-43.34 746.64,-46.35 756.45,-50.34 756.8,-43.34"/>
</a>
</g>
<text text-anchor="start" x="805" y="-70" font-family="Helvetica,sans-Serif" font-size="10.00" fill="grey">kQoP</text>
</g>
<!-- Node13 -->
<g id="Node000013" class="node">
<title>Node13</title>
<g id="a_Node000013"><a xlink:title=" ">
<polygon fill="white" stroke="#666666" points="422,-56 330,-56 330,-37 422,-37 422,-56"/>
<text text-anchor="middle" x="376" y="-44" font-family="Helvetica,sans-Serif" font-size="10.00">std::array&lt; T &gt;</text>
</a>
</g>
</g>
<!-- Node13&#45;&gt;Node12 -->
<g id="edge13_Node000012_Node000013" class="edge">
<title>Node13&#45;&gt;Node12</title>
<g id="a_edge13_Node000012_Node000013"><a xlink:title=" ">
<path fill="none" stroke="orange" stroke-dasharray="5,2" d="M432.33,-46.5C483.94,-46.5 560.95,-46.5 615.37,-46.5"/>
<polygon fill="orange" stroke="orange" points="432.04,-43 422.03,-46.5 432.03,-50 432.04,-43"/>
</a>
</g>
<text text-anchor="start" x="502.5" y="-52" font-family="Helvetica,sans-Serif" font-size="10.00" fill="grey">&lt; double, 4 &gt;</text>
</g>
<!-- Node14 -->
<g id="Node000014" class="node">
<title>Node14</title>
<g id="a_Node000014"><a xlink:href="struct_acts_1_1_stepper_statistics.html" target="_top" xlink:title="A struct to hold statistics of the stepper.">
<polygon fill="white" stroke="#666666" points="744,-19 618,-19 618,0 744,0 744,-19"/>
<text text-anchor="middle" x="681" y="-7" font-family="Helvetica,sans-Serif" font-size="10.00">Acts::StepperStatistics</text>
</a>
</g>
</g>
<!-- Node14&#45;&gt;Node1 -->
<g id="edge14_Node000001_Node000014" class="edge">
<title>Node14&#45;&gt;Node1</title>
<g id="a_edge14_Node000001_Node000014"><a xlink:title=" ">
<path fill="none" stroke="#9a32cd" stroke-dasharray="5,2" d="M754.67,-4.71C790.1,-5.18 832.42,-10.02 867,-26.5 898.81,-41.65 924.98,-74.88 938.36,-94.38"/>
<polygon fill="#9a32cd" stroke="#9a32cd" points="754.4,-1.21 744.39,-4.7 754.39,-8.21 754.4,-1.21"/>
</a>
</g>
<text text-anchor="start" x="796" y="-32" font-family="Helvetica,sans-Serif" font-size="10.00" fill="grey">statistics</text>
</g>
</g>
</svg>

<g id="navigator" transform="translate(0 0)" fill="#404254">
  <rect fill="#f2f5e9" fill-opacity="0.5" stroke="#606060" stroke-width=".5" x="0" y="0" width="60" height="60"/>
  <use id="zoomplus" xlink:href="#zoomPlus" x="17" y="9" onmousedown="handleZoom(evt,'in')"/>
  <use id="zoomminus" xlink:href="#zoomMin" x="42" y="9" onmousedown="handleZoom(evt,'out')"/>
  <use id="reset" xlink:href="#resetDef" x="30" y="36" onmousedown="handleReset()"/>
   <use id="arrowup" xlink:href="#arrowUp" x="0" y="0" onmousedown="handlePan(0,-1)"/>
  <use id="arrowright" xlink:href="#arrowRight" x="0" y="0" onmousedown="handlePan(1,0)"/>
  <use id="arrowdown" xlink:href="#arrowDown" x="0" y="0" onmousedown="handlePan(0,1)"/>
  <use id="arrowleft" xlink:href="#arrowLeft" x="0" y="0" onmousedown="handlePan(-1,0)"/>
</g>
<svg viewBox="0 0 15 15" width="100%" height="30px" preserveAspectRatio="xMaxYMin meet">
 <g id="arrow_out" transform="scale(0.3 0.3)">
  <a xlink:href="struct_acts_1_1_eigen_stepper_1_1_state__coll__graph_org.svg" target="_base">
   <rect id="button" ry="5" rx="5" y="6" x="6" height="38" width="38"
        fill="#f2f5e9" fill-opacity="0.5" stroke="#606060" stroke-width="1.0"/>
   <path id="arrow"
     d="M 11.500037,31.436501 C 11.940474,20.09759 22.043105,11.32322 32.158766,21.979434 L 37.068811,17.246167 C 37.068811,17.246167 37.088388,32 37.088388,32 L 22.160133,31.978069 C 22.160133,31.978069 26.997745,27.140456 26.997745,27.140456 C 18.528582,18.264221 13.291696,25.230495 11.500037,31.436501 z"
     style="fill:#404040;"/>
  </a>
 </g>
</svg>

<style type='text/css'>
<![CDATA[
[data-mouse-over-selected='false'] { opacity: 0.7; }
[data-mouse-over-selected='true']  { opacity: 1.0; }
]]>
</style>
<script type="application/ecmascript"><![CDATA[
document.addEventListener('DOMContentLoaded', (event) => {
  highlightEdges();
  highlightAdjacentNodes();
});
]]></script>
</svg>
