<?xml version="1.0" encoding="UTF-8" standalone="no"?>
<!DOCTYPE svg PUBLIC "-//W3C//DTD SVG 1.1//EN"
 "http://www.w3.org/Graphics/SVG/1.1/DTD/svg11.dtd">
<!-- Generated by graphviz version 2.43.0 (0)
 -->
<!-- Title: Acts::VolumeConfig Pages: 1 -->
<svg width="374pt" height="182pt"
 viewBox="0.00 0.00 373.50 182.00" xmlns="http://www.w3.org/2000/svg" xmlns:xlink="http://www.w3.org/1999/xlink">
<g id="graph0" class="graph" transform="scale(1 1) rotate(0) translate(4 178)">
<title>Acts::VolumeConfig</title>
<!-- Node1 -->
<g id="Node000001" class="node">
<title>Node1</title>
<g id="a_Node000001"><a xlink:title="VolumeConfig struct to understand the layer config.">
<polygon fill="#999999" stroke="#666666" points="203,-19 92,-19 92,0 203,0 203,-19"/>
<text text-anchor="middle" x="147.5" y="-7" font-family="Helvetica,sans-Serif" font-size="10.00">Acts::VolumeConfig</text>
</a>
</g>
</g>
<!-- Node2 -->
<g id="Node000002" class="node">
<title>Node2</title>
<g id="a_Node000002"><a xlink:title=" ">
<polygon fill="white" stroke="#666666" points="131,-96.5 0,-96.5 0,-77.5 131,-77.5 131,-96.5"/>
<text text-anchor="middle" x="65.5" y="-84.5" font-family="Helvetica,sans-Serif" font-size="10.00">std::vector&lt; LayerPtr &gt;</text>
</a>
</g>
</g>
<!-- Node2&#45;&gt;Node1 -->
<g id="edge1_Node000001_Node000002" class="edge">
<title>Node2&#45;&gt;Node1</title>
<g id="a_edge1_Node000001_Node000002"><a xlink:title=" ">
<path fill="none" stroke="#9a32cd" stroke-dasharray="5,2" d="M82.44,-70.41C99.33,-54.85 124.67,-31.52 138.2,-19.06"/>
<polygon fill="#9a32cd" stroke="#9a32cd" points="79.89,-67.99 74.91,-77.34 84.63,-73.14 79.89,-67.99"/>
</a>
</g>
<text text-anchor="start" x="123" y="-42.5" font-family="Helvetica,sans-Serif" font-size="10.00" fill="grey">layers</text>
</g>
<!-- Node3 -->
<g id="Node000003" class="node">
<title>Node3</title>
<g id="a_Node000003"><a xlink:title=" ">
<polygon fill="white" stroke="#666666" points="195,-174 98,-174 98,-155 195,-155 195,-174"/>
<text text-anchor="middle" x="146.5" y="-162" font-family="Helvetica,sans-Serif" font-size="10.00">std::vector&lt; T &gt;</text>
</a>
</g>
</g>
<!-- Node3&#45;&gt;Node2 -->
<g id="edge2_Node000002_Node000003" class="edge">
<title>Node3&#45;&gt;Node2</title>
<g id="a_edge2_Node000002_Node000003"><a xlink:title=" ">
<path fill="none" stroke="orange" stroke-dasharray="5,2" d="M129.77,-147.91C113.08,-132.35 88.05,-109.02 74.68,-96.56"/>
<polygon fill="orange" stroke="orange" points="127.51,-150.58 137.21,-154.84 132.28,-145.46 127.51,-150.58"/>
</a>
</g>
<text text-anchor="start" x="121.5" y="-125.5" font-family="Helvetica,sans-Serif" font-size="10.00" fill="grey">&lt; LayerPtr &gt;</text>
</g>
<!-- Node4 -->
<g id="Node000004" class="node">
<title>Node4</title>
<g id="a_Node000004"><a xlink:title=" ">
<polygon fill="white" stroke="#666666" points="309.5,-102 149.5,-102 149.5,-72 309.5,-72 309.5,-102"/>
<text text-anchor="start" x="157.5" y="-90" font-family="Helvetica,sans-Serif" font-size="10.00">std::vector&lt; MutableTracking</text>
<text text-anchor="middle" x="229.5" y="-79" font-family="Helvetica,sans-Serif" font-size="10.00">VolumePtr &gt;</text>
</a>
</g>
</g>
<!-- Node3&#45;&gt;Node4 -->
<g id="edge4_Node000004_Node000003" class="edge">
<title>Node3&#45;&gt;Node4</title>
<g id="a_edge4_Node000004_Node000003"><a xlink:title=" ">
<path fill="none" stroke="orange" stroke-dasharray="5,2" d="M172.32,-149.52C178.24,-145.81 184.3,-141.55 189.5,-137 201.23,-126.73 212.26,-112.77 219.75,-102.38"/>
<polygon fill="orange" stroke="orange" points="170.12,-146.76 163.31,-154.88 173.7,-152.78 170.12,-146.76"/>
</a>
</g>
<text text-anchor="start" x="208.5" y="-125.5" font-family="Helvetica,sans-Serif" font-size="10.00" fill="grey">&lt; MutableTrackingVolumePtr &gt;</text>
</g>
<!-- Node4&#45;&gt;Node1 -->
<g id="edge3_Node000001_Node000004" class="edge">
<title>Node4&#45;&gt;Node1</title>
<g id="a_edge3_Node000001_Node000004"><a xlink:title=" ">
<path fill="none" stroke="#9a32cd" stroke-dasharray="5,2" d="M206.44,-64.77C189.98,-49.61 168.71,-30.02 156.74,-19.01"/>
<polygon fill="#9a32cd" stroke="#9a32cd" points="204.35,-67.6 214.08,-71.8 209.09,-62.45 204.35,-67.6"/>
</a>
</g>
<text text-anchor="start" x="197" y="-42.5" font-family="Helvetica,sans-Serif" font-size="10.00" fill="grey">volumes</text>
</g>
</g>
</svg>
