<?xml version="1.0" encoding="UTF-8" standalone="no"?>
<!DOCTYPE svg PUBLIC "-//W3C//DTD SVG 1.1//EN"
 "http://www.w3.org/Graphics/SVG/1.1/DTD/svg11.dtd">
<!-- Generated by graphviz version 2.43.0 (0)
 -->
<!-- Title: Acts::BroadTripletSeedFilter::Cache Pages: 1 -->
<svg width="486pt" height="182pt"
 viewBox="0.00 0.00 486.00 182.00" xmlns="http://www.w3.org/2000/svg" xmlns:xlink="http://www.w3.org/1999/xlink">

<svg id="main" version="1.1" xmlns="http://www.w3.org/2000/svg" xmlns:xlink="http://www.w3.org/1999/xlink" xml:space="preserve">

<style type="text/css"><![CDATA[
.node, .edge {opacity: 0.7;}
.node.selected, .edge.selected {opacity: 1;}
.edge:hover path { stroke: red; }
.edge:hover polygon { stroke: red; fill: red; }
]]></style>
<script type="application/ecmascript" xlink:href="svg.min.js"/>
<svg id="graph" class="graph">
<g id="graph0" class="graph" transform="scale(1 1) rotate(0) translate(4 178)">
<title>Acts::BroadTripletSeedFilter::Cache</title>
<!-- Node1 -->
<g id="Node000001" class="node">
<title>Node1</title>
<g id="a_Node000001"><a xlink:title="Cache for intermediate results to avoid reallocations.">
<polygon fill="#999999" stroke="#666666" points="302.5,-30 151.5,-30 151.5,0 302.5,0 302.5,-30"/>
<text text-anchor="start" x="159.5" y="-18" font-family="Helvetica,sans-Serif" font-size="10.00">Acts::BroadTripletSeedFilter</text>
<text text-anchor="middle" x="227" y="-7" font-family="Helvetica,sans-Serif" font-size="10.00">::Cache</text>
</a>
</g>
</g>
<!-- Node2 -->
<g id="Node000002" class="node">
<title>Node2</title>
<g id="a_Node000002"><a xlink:title=" ">
<polygon fill="white" stroke="#666666" points="152,-102 0,-102 0,-83 152,-83 152,-102"/>
<text text-anchor="middle" x="76" y="-90" font-family="Helvetica,sans-Serif" font-size="10.00">std::vector&lt; std::uint32_t &gt;</text>
</a>
</g>
</g>
<!-- Node2&#45;&gt;Node1 -->
<g id="edge1_Node000001_Node000002" class="edge">
<title>Node2&#45;&gt;Node1</title>
<g id="a_edge1_Node000001_Node000002"><a xlink:title=" ">
<path fill="none" stroke="#9a32cd" stroke-dasharray="5,2" d="M96.42,-76.9C109.6,-67.87 127.34,-56.43 144,-48 157.23,-41.3 172.21,-35.13 185.76,-30.03"/>
<polygon fill="#9a32cd" stroke="#9a32cd" points="94.29,-74.12 88.09,-82.71 98.3,-79.86 94.29,-74.12"/>
</a>
</g>
<text text-anchor="start" x="147.5" y="-53.5" font-family="Helvetica,sans-Serif" font-size="10.00" fill="grey">topSpIndexVec</text>
</g>
<!-- Node3 -->
<g id="Node000003" class="node">
<title>Node3</title>
<g id="a_Node000003"><a xlink:title=" ">
<polygon fill="white" stroke="#666666" points="275.5,-174 178.5,-174 178.5,-155 275.5,-155 275.5,-174"/>
<text text-anchor="middle" x="227" y="-162" font-family="Helvetica,sans-Serif" font-size="10.00">std::vector&lt; T &gt;</text>
</a>
</g>
</g>
<!-- Node3&#45;&gt;Node2 -->
<g id="edge2_Node000002_Node000003" class="edge">
<title>Node3&#45;&gt;Node2</title>
<g id="a_edge2_Node000002_Node000003"><a xlink:title=" ">
<path fill="none" stroke="orange" stroke-dasharray="5,2" d="M173.82,-152.26C160.13,-148.37 145.69,-143.34 133,-137 114.29,-127.65 95.59,-111.84 84.94,-102.07"/>
<polygon fill="orange" stroke="orange" points="173.05,-155.68 183.62,-154.9 174.87,-148.92 173.05,-155.68"/>
</a>
</g>
<text text-anchor="start" x="136" y="-125.5" font-family="Helvetica,sans-Serif" font-size="10.00" fill="grey">&lt; std::uint32_t &gt;</text>
</g>
<!-- Node4 -->
<g id="Node000004" class="node">
<title>Node4</title>
<g id="a_Node000004"><a xlink:title=" ">
<polygon fill="white" stroke="#666666" points="283.5,-102 170.5,-102 170.5,-83 283.5,-83 283.5,-102"/>
<text text-anchor="middle" x="227" y="-90" font-family="Helvetica,sans-Serif" font-size="10.00">std::vector&lt; float &gt;</text>
</a>
</g>
</g>
<!-- Node3&#45;&gt;Node4 -->
<g id="edge4_Node000004_Node000003" class="edge">
<title>Node3&#45;&gt;Node4</title>
<g id="a_edge4_Node000004_Node000003"><a xlink:title=" ">
<path fill="none" stroke="orange" stroke-dasharray="5,2" d="M227,-144.58C227,-130.76 227,-112.68 227,-102.15"/>
<polygon fill="orange" stroke="orange" points="223.5,-144.92 227,-154.92 230.5,-144.92 223.5,-144.92"/>
</a>
</g>
<text text-anchor="start" x="230.5" y="-125.5" font-family="Helvetica,sans-Serif" font-size="10.00" fill="grey">&lt; float &gt;</text>
</g>
<!-- Node5 -->
<g id="Node000005" class="node">
<title>Node5</title>
<g id="a_Node000005"><a xlink:title=" ">
<polygon fill="white" stroke="#666666" points="478,-102 302,-102 302,-83 478,-83 478,-102"/>
<text text-anchor="middle" x="390" y="-90" font-family="Helvetica,sans-Serif" font-size="10.00">std::vector&lt; TripletCandidate2 &gt;</text>
</a>
</g>
</g>
<!-- Node3&#45;&gt;Node5 -->
<g id="edge6_Node000005_Node000003" class="edge">
<title>Node3&#45;&gt;Node5</title>
<g id="a_edge6_Node000005_Node000003"><a xlink:title=" ">
<path fill="none" stroke="orange" stroke-dasharray="5,2" d="M256.53,-150.82C289.43,-136.69 341.73,-114.23 370.1,-102.04"/>
<polygon fill="orange" stroke="orange" points="254.79,-147.75 246.99,-154.92 257.56,-154.19 254.79,-147.75"/>
</a>
</g>
<text text-anchor="start" x="331.5" y="-125.5" font-family="Helvetica,sans-Serif" font-size="10.00" fill="grey">&lt; TripletCandidate2 &gt;</text>
</g>
<!-- Node4&#45;&gt;Node1 -->
<g id="edge3_Node000001_Node000004" class="edge">
<title>Node4&#45;&gt;Node1</title>
<g id="a_edge3_Node000001_Node000004"><a xlink:title=" ">
<path fill="none" stroke="#9a32cd" stroke-dasharray="5,2" d="M227,-72.57C227,-59.43 227,-42.18 227,-30.21"/>
<polygon fill="#9a32cd" stroke="#9a32cd" points="223.5,-72.84 227,-82.84 230.5,-72.84 223.5,-72.84"/>
</a>
</g>
<text text-anchor="start" x="230" y="-53.5" font-family="Helvetica,sans-Serif" font-size="10.00" fill="grey">compatibleSeedR</text>
</g>
<!-- Node5&#45;&gt;Node1 -->
<g id="edge5_Node000001_Node000005" class="edge">
<title>Node5&#45;&gt;Node1</title>
<g id="a_edge5_Node000001_Node000005"><a xlink:title=" ">
<path fill="none" stroke="#9a32cd" stroke-dasharray="5,2" d="M370.51,-76.95C357.55,-67.75 339.85,-56.12 323,-48 308.6,-41.06 292.3,-35.01 277.28,-30.1"/>
<polygon fill="#9a32cd" stroke="#9a32cd" points="368.52,-79.83 378.67,-82.85 372.62,-74.16 368.52,-79.83"/>
</a>
</g>
<text text-anchor="start" x="355" y="-53.5" font-family="Helvetica,sans-Serif" font-size="10.00" fill="grey">sortedCandidates</text>
</g>
</g>
</svg>
</svg>

<style type='text/css'>
<![CDATA[
[data-mouse-over-selected='false'] { opacity: 0.7; }
[data-mouse-over-selected='true']  { opacity: 1.0; }
]]>
</style>
<script type="application/ecmascript"><![CDATA[
document.addEventListener('DOMContentLoaded', (event) => {
  highlightEdges();
  highlightAdjacentNodes();
});
]]></script>
</svg>
