<?xml version="1.0" encoding="UTF-8" standalone="no"?>
<!DOCTYPE svg PUBLIC "-//W3C//DTD SVG 1.1//EN"
 "http://www.w3.org/Graphics/SVG/1.1/DTD/svg11.dtd">
<!-- Generated by graphviz version 2.43.0 (0)
 -->
<!-- Title: Acts::Navigator::State Pages: 1 -->
<svg width="2370pt" height="591pt"
 viewBox="0.00 0.00 2370.00 590.50" xmlns="http://www.w3.org/2000/svg" xmlns:xlink="http://www.w3.org/1999/xlink">
<g id="graph0" class="graph" transform="scale(1 1) rotate(0) translate(4 586.5)">
<title>Acts::Navigator::State</title>
<!-- Node1 -->
<g id="Node000001" class="node">
<title>Node1</title>
<g id="a_Node000001"><a xlink:title="Nested State struct.">
<polygon fill="#999999" stroke="#666666" points="2362,-225 2239,-225 2239,-206 2362,-206 2362,-225"/>
<text text-anchor="middle" x="2300.5" y="-213" font-family="Helvetica,sans-Serif" font-size="10.00">Acts::Navigator::State</text>
</a>
</g>
</g>
<!-- Node2 -->
<g id="Node000002" class="node">
<title>Node2</title>
<g id="a_Node000002"><a xlink:href="struct_acts_1_1_navigator_1_1_options.html" target="_top" xlink:title="The navigator options.">
<polygon fill="white" stroke="#666666" points="2151,-204 2016,-204 2016,-185 2151,-185 2151,-204"/>
<text text-anchor="middle" x="2083.5" y="-192" font-family="Helvetica,sans-Serif" font-size="10.00">Acts::Navigator::Options</text>
</a>
</g>
</g>
<!-- Node2&#45;&gt;Node1 -->
<g id="edge1_Node000001_Node000002" class="edge">
<title>Node2&#45;&gt;Node1</title>
<g id="a_edge1_Node000001_Node000002"><a xlink:title=" ">
<path fill="none" stroke="#9a32cd" stroke-dasharray="5,2" d="M2161.34,-196.75C2180.84,-197.79 2201.73,-199.3 2221,-201.5 2230.9,-202.63 2241.44,-204.24 2251.48,-205.95"/>
<polygon fill="#9a32cd" stroke="#9a32cd" points="2161.45,-193.25 2151.29,-196.25 2161.1,-200.24 2161.45,-193.25"/>
</a>
</g>
<text text-anchor="start" x="2177.5" y="-207" font-family="Helvetica,sans-Serif" font-size="10.00" fill="grey">options</text>
</g>
<!-- Node3 -->
<g id="Node000003" class="node">
<title>Node3</title>
<g id="a_Node000003"><a xlink:href="struct_acts_1_1_navigator_plain_options.html" target="_top" xlink:title=" ">
<polygon fill="white" stroke="#666666" points="1880.5,-200 1727.5,-200 1727.5,-181 1880.5,-181 1880.5,-200"/>
<text text-anchor="middle" x="1804" y="-188" font-family="Helvetica,sans-Serif" font-size="10.00">Acts::NavigatorPlainOptions</text>
</a>
</g>
</g>
<!-- Node3&#45;&gt;Node2 -->
<g id="edge2_Node000002_Node000003" class="edge">
<title>Node3&#45;&gt;Node2</title>
<g id="a_edge2_Node000002_Node000003"><a xlink:title=" ">
<path fill="none" stroke="#63b8ff" d="M1890.89,-191.74C1931.1,-192.32 1978.27,-193 2015.74,-193.54"/>
<polygon fill="#63b8ff" stroke="#63b8ff" points="1890.88,-188.24 1880.83,-191.59 1890.78,-195.24 1890.88,-188.24"/>
</a>
</g>
</g>
<!-- Node4 -->
<g id="Node000004" class="node">
<title>Node4</title>
<g id="a_Node000004"><a xlink:href="class_acts_1_1_surface.html" target="_top" xlink:title="Abstract Base Class for tracking surfaces.">
<polygon fill="white" stroke="#666666" points="1526,-208 1446,-208 1446,-189 1526,-189 1526,-208"/>
<text text-anchor="middle" x="1486" y="-196" font-family="Helvetica,sans-Serif" font-size="10.00">Acts::Surface</text>
</a>
</g>
</g>
<!-- Node4&#45;&gt;Node1 -->
<g id="edge33_Node000001_Node000004" class="edge">
<title>Node4&#45;&gt;Node1</title>
<g id="a_edge33_Node000001_Node000004"><a xlink:title=" ">
<path fill="none" stroke="#9a32cd" stroke-dasharray="5,2" d="M1527.53,-210.68C1540.06,-213.89 1553.99,-216.9 1567,-218.5 1855.49,-254.01 1930.39,-224.05 2221,-218.5 2226.73,-218.39 2232.69,-218.24 2238.65,-218.05"/>
<polygon fill="#9a32cd" stroke="#9a32cd" points="1528.38,-207.28 1517.82,-208.08 1526.58,-214.04 1528.38,-207.28"/>
</a>
</g>
<text text-anchor="start" x="1916.5" y="-268" font-family="Helvetica,sans-Serif" font-size="10.00" fill="grey">currentSurface</text>
<text text-anchor="start" x="1916.5" y="-253" font-family="Helvetica,sans-Serif" font-size="10.00" fill="grey">startSurface</text>
<text text-anchor="start" x="1916.5" y="-238" font-family="Helvetica,sans-Serif" font-size="10.00" fill="grey">targetSurface</text>
</g>
<!-- Node4&#45;&gt;Node3 -->
<g id="edge3_Node000003_Node000004" class="edge">
<title>Node4&#45;&gt;Node3</title>
<g id="a_edge3_Node000003_Node000004"><a xlink:title=" ">
<path fill="none" stroke="#9a32cd" stroke-dasharray="5,2" d="M1536.27,-189.93C1546.4,-188.5 1557.02,-187.24 1567,-186.5 1620.53,-182.51 1681.08,-183.65 1727.44,-185.71"/>
<polygon fill="#9a32cd" stroke="#9a32cd" points="1535.72,-186.48 1526.34,-191.41 1536.74,-193.4 1535.72,-186.48"/>
</a>
</g>
<text text-anchor="start" x="1600.5" y="-207.5" font-family="Helvetica,sans-Serif" font-size="10.00" fill="grey">startSurface</text>
<text text-anchor="start" x="1600.5" y="-192.5" font-family="Helvetica,sans-Serif" font-size="10.00" fill="grey">targetSurface</text>
</g>
<!-- Node5 -->
<g id="Node000005" class="node">
<title>Node5</title>
<g id="a_Node000005"><a xlink:href="class_acts_1_1_geometry_object.html" target="_top" xlink:title="Base class to provide GeometryIdentifier interface:">
<polygon fill="white" stroke="#666666" points="374,-251 250,-251 250,-232 374,-232 374,-251"/>
<text text-anchor="middle" x="312" y="-239" font-family="Helvetica,sans-Serif" font-size="10.00">Acts::GeometryObject</text>
</a>
</g>
</g>
<!-- Node5&#45;&gt;Node4 -->
<g id="edge4_Node000004_Node000005" class="edge">
<title>Node5&#45;&gt;Node4</title>
<g id="a_edge4_Node000004_Node000005"><a xlink:title=" ">
<path fill="none" stroke="#63b8ff" d="M331.59,-225.51C359.47,-203.22 414.67,-165.5 469,-165.5 469,-165.5 469,-165.5 1179.5,-165.5 1275.52,-165.5 1387.55,-181.81 1445.6,-191.5"/>
<polygon fill="#63b8ff" stroke="#63b8ff" points="329.34,-222.82 323.84,-231.87 333.79,-228.23 329.34,-222.82"/>
</a>
</g>
</g>
<!-- Node13 -->
<g id="Node000013" class="node">
<title>Node13</title>
<g id="a_Node000013"><a xlink:href="class_acts_1_1_layer.html" target="_top" xlink:title="Base Class for a Detector Layer in the Tracking Geometry.">
<polygon fill="white" stroke="#666666" points="1214,-369 1143,-369 1143,-350 1214,-350 1214,-369"/>
<text text-anchor="middle" x="1178.5" y="-357" font-family="Helvetica,sans-Serif" font-size="10.00">Acts::Layer</text>
</a>
</g>
</g>
<!-- Node5&#45;&gt;Node13 -->
<g id="edge13_Node000013_Node000005" class="edge">
<title>Node5&#45;&gt;Node13</title>
<g id="a_edge13_Node000013_Node000005"><a xlink:title=" ">
<path fill="none" stroke="#63b8ff" d="M322.64,-260.4C337.54,-287.38 368.87,-336.14 411,-358.5 508.31,-410.16 598.24,-406.11 1084,-372.5 1103.62,-371.14 1125.39,-368.2 1142.98,-365.46"/>
<polygon fill="#63b8ff" stroke="#63b8ff" points="325.55,-258.4 317.75,-251.22 319.37,-261.7 325.55,-258.4"/>
</a>
</g>
</g>
<!-- Node20 -->
<g id="Node000020" class="node">
<title>Node20</title>
<g id="a_Node000020"><a xlink:href="class_acts_1_1_volume.html" target="_top" xlink:title="It inherits from GeometryObject for geometry identification.">
<polygon fill="white" stroke="#666666" points="510,-251 430,-251 430,-232 510,-232 510,-251"/>
<text text-anchor="middle" x="470" y="-239" font-family="Helvetica,sans-Serif" font-size="10.00">Acts::Volume</text>
</a>
</g>
</g>
<!-- Node5&#45;&gt;Node20 -->
<g id="edge23_Node000020_Node000005" class="edge">
<title>Node5&#45;&gt;Node20</title>
<g id="a_edge23_Node000020_Node000005"><a xlink:title=" ">
<path fill="none" stroke="#63b8ff" d="M384.44,-241.5C400.12,-241.5 416.16,-241.5 430,-241.5"/>
<polygon fill="#63b8ff" stroke="#63b8ff" points="384.21,-238 374.21,-241.5 384.21,-245 384.21,-238"/>
</a>
</g>
</g>
<!-- Node6 -->
<g id="Node000006" class="node">
<title>Node6</title>
<g id="a_Node000006"><a xlink:href="class_acts_1_1_geometry_identifier.html" target="_top" xlink:title="Identifier for geometry nodes within the geometry hierarchy.">
<polygon fill="white" stroke="#666666" points="136,-251 0,-251 0,-232 136,-232 136,-251"/>
<text text-anchor="middle" x="68" y="-239" font-family="Helvetica,sans-Serif" font-size="10.00">Acts::GeometryIdentifier</text>
</a>
</g>
</g>
<!-- Node6&#45;&gt;Node5 -->
<g id="edge5_Node000005_Node000006" class="edge">
<title>Node6&#45;&gt;Node5</title>
<g id="a_edge5_Node000005_Node000006"><a xlink:title=" ">
<path fill="none" stroke="#9a32cd" stroke-dasharray="5,2" d="M146.31,-241.5C179.84,-241.5 218.54,-241.5 249.99,-241.5"/>
<polygon fill="#9a32cd" stroke="#9a32cd" points="146.09,-238 136.09,-241.5 146.09,-245 146.09,-238"/>
</a>
</g>
<text text-anchor="start" x="157" y="-247" font-family="Helvetica,sans-Serif" font-size="10.00" fill="grey">m_geometryId</text>
</g>
<!-- Node7 -->
<g id="Node000007" class="node">
<title>Node7</title>
<g id="a_Node000007"><a xlink:title=" ">
<polygon fill="white" stroke="#666666" points="1242.5,-89.5 1114.5,-89.5 1114.5,-59.5 1242.5,-59.5 1242.5,-89.5"/>
<text text-anchor="start" x="1122.5" y="-77.5" font-family="Helvetica,sans-Serif" font-size="10.00">std::enable_shared</text>
<text text-anchor="middle" x="1178.5" y="-66.5" font-family="Helvetica,sans-Serif" font-size="10.00">_from_this&lt; Surface &gt;</text>
</a>
</g>
</g>
<!-- Node7&#45;&gt;Node4 -->
<g id="edge6_Node000004_Node000007" class="edge">
<title>Node7&#45;&gt;Node4</title>
<g id="a_edge6_Node000004_Node000007"><a xlink:title=" ">
<path fill="none" stroke="#63b8ff" d="M1253.15,-70.02C1300.78,-70.83 1361.73,-79.26 1405,-111.5 1419.66,-122.43 1411.61,-134.19 1423,-148.5 1436.26,-165.16 1456.01,-179.87 1469.63,-188.95"/>
<polygon fill="#63b8ff" stroke="#63b8ff" points="1252.92,-66.52 1242.9,-69.96 1252.87,-73.52 1252.92,-66.52"/>
</a>
</g>
</g>
<!-- Node8 -->
<g id="Node000008" class="node">
<title>Node8</title>
<g id="a_Node000008"><a xlink:title=" ">
<polygon fill="white" stroke="#666666" points="1255,-41 1102,-41 1102,0 1255,0 1255,-41"/>
<text text-anchor="start" x="1110" y="-29" font-family="Helvetica,sans-Serif" font-size="10.00">std::array&lt; std::string</text>
<text text-anchor="start" x="1110" y="-18" font-family="Helvetica,sans-Serif" font-size="10.00">_view, Surface::SurfaceType</text>
<text text-anchor="middle" x="1178.5" y="-7" font-family="Helvetica,sans-Serif" font-size="10.00">::Other+1 &gt;</text>
</a>
</g>
</g>
<!-- Node8&#45;&gt;Node4 -->
<g id="edge7_Node000004_Node000008" class="edge">
<title>Node8&#45;&gt;Node4</title>
<g id="a_edge7_Node000004_Node000008"><a xlink:title=" ">
<path fill="none" stroke="#9a32cd" stroke-dasharray="5,2" d="M1265.45,-9.34C1312.53,-8.22 1368.55,-15.81 1405,-50.5 1437.08,-81.03 1400.35,-110.45 1423,-148.5 1433.54,-166.2 1452.81,-180.24 1467.08,-188.88"/>
<polygon fill="#9a32cd" stroke="#9a32cd" points="1265.1,-5.85 1255.24,-9.73 1265.36,-12.85 1265.1,-5.85"/>
</a>
</g>
<text text-anchor="start" x="1287" y="-56" font-family="Helvetica,sans-Serif" font-size="10.00" fill="grey">s_surfaceTypeNames</text>
</g>
<!-- Node9 -->
<g id="Node000009" class="node">
<title>Node9</title>
<g id="a_Node000009"><a xlink:title=" ">
<polygon fill="white" stroke="#666666" points="869,-30 777,-30 777,-11 869,-11 869,-30"/>
<text text-anchor="middle" x="823" y="-18" font-family="Helvetica,sans-Serif" font-size="10.00">std::array&lt; T &gt;</text>
</a>
</g>
</g>
<!-- Node9&#45;&gt;Node8 -->
<g id="edge8_Node000008_Node000009" class="edge">
<title>Node9&#45;&gt;Node8</title>
<g id="a_edge8_Node000008_Node000009"><a xlink:title=" ">
<path fill="none" stroke="orange" stroke-dasharray="5,2" d="M879.14,-20.5C938.95,-20.5 1034.84,-20.5 1101.71,-20.5"/>
<polygon fill="orange" stroke="orange" points="879.13,-17 869.13,-20.5 879.13,-24 879.13,-17"/>
</a>
</g>
<text text-anchor="start" x="945" y="-56" font-family="Helvetica,sans-Serif" font-size="10.00" fill="grey">&lt; std::string_view,</text>
<text text-anchor="start" x="945" y="-41" font-family="Helvetica,sans-Serif" font-size="10.00" fill="grey">   Surface::SurfaceType</text>
<text text-anchor="start" x="945" y="-26" font-family="Helvetica,sans-Serif" font-size="10.00" fill="grey">  ::Other+1 &gt;</text>
</g>
<!-- Node10 -->
<g id="Node000010" class="node">
<title>Node10</title>
<g id="a_Node000010"><a xlink:title=" ">
<polygon fill="white" stroke="#666666" points="1064.5,-576.5 937.5,-576.5 937.5,-546.5 1064.5,-546.5 1064.5,-576.5"/>
<text text-anchor="start" x="945.5" y="-564.5" font-family="Helvetica,sans-Serif" font-size="10.00">std::unique_ptr&lt; const</text>
<text text-anchor="middle" x="1001" y="-553.5" font-family="Helvetica,sans-Serif" font-size="10.00"> Transform3 &gt;</text>
</a>
</g>
</g>
<!-- Node10&#45;&gt;Node4 -->
<g id="edge9_Node000004_Node000010" class="edge">
<title>Node10&#45;&gt;Node4</title>
<g id="a_edge9_Node000004_Node000010"><a xlink:title=" ">
<path fill="none" stroke="#9a32cd" stroke-dasharray="5,2" d="M1072.18,-543.2C1076.22,-541.72 1080.18,-540.15 1084,-538.5 1236.98,-472.28 1289.65,-464.84 1405,-344.5 1446.2,-301.52 1472.9,-233.17 1481.75,-208.11"/>
<polygon fill="#9a32cd" stroke="#9a32cd" points="1070.96,-539.92 1062.66,-546.49 1073.25,-546.53 1070.96,-539.92"/>
</a>
</g>
<text text-anchor="start" x="1146.5" y="-535" font-family="Helvetica,sans-Serif" font-size="10.00" fill="grey">m_transform</text>
</g>
<!-- Node11 -->
<g id="Node000011" class="node">
<title>Node11</title>
<g id="a_Node000011"><a xlink:title=" ">
<polygon fill="white" stroke="#666666" points="529,-511 411,-511 411,-492 529,-492 529,-511"/>
<text text-anchor="middle" x="470" y="-499" font-family="Helvetica,sans-Serif" font-size="10.00">std::unique_ptr&lt; T &gt;</text>
</a>
</g>
</g>
<!-- Node11&#45;&gt;Node10 -->
<g id="edge10_Node000010_Node000011" class="edge">
<title>Node11&#45;&gt;Node10</title>
<g id="a_edge10_Node000010_Node000011"><a xlink:title=" ">
<path fill="none" stroke="orange" stroke-dasharray="5,2" d="M494.49,-516.43C509.02,-524.84 528.39,-534.61 547,-539.5 682.55,-575.11 848.61,-571.84 937.22,-566.54"/>
<polygon fill="orange" stroke="orange" points="496.07,-513.3 485.69,-511.17 492.48,-519.31 496.07,-513.3"/>
</a>
</g>
<text text-anchor="start" x="584.5" y="-571" font-family="Helvetica,sans-Serif" font-size="10.00" fill="grey">&lt; const Transform3 &gt;</text>
</g>
<!-- Node17 -->
<g id="Node000017" class="node">
<title>Node17</title>
<g id="a_Node000017"><a xlink:title=" ">
<polygon fill="white" stroke="#666666" points="886.5,-540.5 759.5,-540.5 759.5,-510.5 886.5,-510.5 886.5,-540.5"/>
<text text-anchor="start" x="767.5" y="-528.5" font-family="Helvetica,sans-Serif" font-size="10.00">std::unique_ptr&lt; const</text>
<text text-anchor="middle" x="823" y="-517.5" font-family="Helvetica,sans-Serif" font-size="10.00"> Acts::SurfaceArray &gt;</text>
</a>
</g>
</g>
<!-- Node11&#45;&gt;Node17 -->
<g id="edge18_Node000017_Node000011" class="edge">
<title>Node11&#45;&gt;Node17</title>
<g id="a_edge18_Node000017_Node000011"><a xlink:title=" ">
<path fill="none" stroke="orange" stroke-dasharray="5,2" d="M539.71,-506.2C603.48,-510.56 697.61,-516.99 759.36,-521.22"/>
<polygon fill="orange" stroke="orange" points="539.57,-502.68 529.35,-505.49 539.09,-509.66 539.57,-502.68"/>
</a>
</g>
<text text-anchor="start" x="566.5" y="-524" font-family="Helvetica,sans-Serif" font-size="10.00" fill="grey">&lt; const Acts::SurfaceArray &gt;</text>
</g>
<!-- Node18 -->
<g id="Node000018" class="node">
<title>Node18</title>
<g id="a_Node000018"><a xlink:title=" ">
<polygon fill="white" stroke="#666666" points="900,-492.5 746,-492.5 746,-462.5 900,-462.5 900,-492.5"/>
<text text-anchor="start" x="754" y="-480.5" font-family="Helvetica,sans-Serif" font-size="10.00">std::unique_ptr&lt; const</text>
<text text-anchor="middle" x="823" y="-469.5" font-family="Helvetica,sans-Serif" font-size="10.00"> Acts::ApproachDescriptor &gt;</text>
</a>
</g>
</g>
<!-- Node11&#45;&gt;Node18 -->
<g id="edge20_Node000018_Node000011" class="edge">
<title>Node11&#45;&gt;Node18</title>
<g id="a_edge20_Node000018_Node000011"><a xlink:title=" ">
<path fill="none" stroke="orange" stroke-dasharray="5,2" d="M519.8,-489.89C528.8,-488.13 538.15,-486.55 547,-485.5 613.88,-477.55 690.51,-475.93 745.86,-476.08"/>
<polygon fill="orange" stroke="orange" points="518.92,-486.49 509.83,-491.93 520.33,-493.35 518.92,-486.49"/>
</a>
</g>
<text text-anchor="start" x="550.5" y="-491" font-family="Helvetica,sans-Serif" font-size="10.00" fill="grey">&lt; const Acts::ApproachDescriptor &gt;</text>
</g>
<!-- Node21 -->
<g id="Node000021" class="node">
<title>Node21</title>
<g id="a_Node000021"><a xlink:title=" ">
<polygon fill="white" stroke="#666666" points="884,-444.5 762,-444.5 762,-414.5 884,-414.5 884,-444.5"/>
<text text-anchor="start" x="770" y="-432.5" font-family="Helvetica,sans-Serif" font-size="10.00">std::unique_ptr&lt; Acts</text>
<text text-anchor="middle" x="823" y="-421.5" font-family="Helvetica,sans-Serif" font-size="10.00">::Volume &gt;</text>
</a>
</g>
</g>
<!-- Node11&#45;&gt;Node21 -->
<g id="edge25_Node000021_Node000011" class="edge">
<title>Node11&#45;&gt;Node21</title>
<g id="a_edge25_Node000021_Node000011"><a xlink:title=" ">
<path fill="none" stroke="orange" stroke-dasharray="5,2" d="M490.74,-485.71C505.37,-474.94 526.28,-461.42 547,-454.5 618.16,-430.74 705.09,-426.69 761.92,-427.13"/>
<polygon fill="orange" stroke="orange" points="488.34,-483.14 482.5,-491.98 492.58,-488.71 488.34,-483.14"/>
</a>
</g>
<text text-anchor="start" x="594.5" y="-460" font-family="Helvetica,sans-Serif" font-size="10.00" fill="grey">&lt; Acts::Volume &gt;</text>
</g>
<!-- Node12 -->
<g id="Node000012" class="node">
<title>Node12</title>
<g id="a_Node000012"><a xlink:href="class_acts_1_1_detector_element_base.html" target="_top" xlink:title="This class is the base of all detector elements that are usable by ACTS.">
<polygon fill="white" stroke="#666666" points="1253.5,-266 1103.5,-266 1103.5,-247 1253.5,-247 1253.5,-266"/>
<text text-anchor="middle" x="1178.5" y="-254" font-family="Helvetica,sans-Serif" font-size="10.00">Acts::DetectorElementBase</text>
</a>
</g>
</g>
<!-- Node12&#45;&gt;Node4 -->
<g id="edge11_Node000004_Node000012" class="edge">
<title>Node12&#45;&gt;Node4</title>
<g id="a_edge11_Node000004_Node000012"><a xlink:title=" ">
<path fill="none" stroke="#9a32cd" stroke-dasharray="5,2" d="M1263.59,-248.76C1306.3,-243.86 1358.79,-236.37 1405,-225.5 1423.98,-221.04 1444.83,-213.92 1460.49,-208.12"/>
<polygon fill="#9a32cd" stroke="#9a32cd" points="1263.07,-245.29 1253.52,-249.89 1263.85,-252.25 1263.07,-245.29"/>
</a>
</g>
<text text-anchor="start" x="1276" y="-252" font-family="Helvetica,sans-Serif" font-size="10.00" fill="grey">m_associatedDetElement</text>
</g>
<!-- Node13&#45;&gt;Node1 -->
<g id="edge32_Node000001_Node000013" class="edge">
<title>Node13&#45;&gt;Node1</title>
<g id="a_edge32_Node000001_Node000013"><a xlink:title=" ">
<path fill="none" stroke="#9a32cd" stroke-dasharray="5,2" d="M1224.51,-359.5C1284.1,-359.5 1392.44,-359.5 1485,-359.5 1485,-359.5 1485,-359.5 2084.5,-359.5 2149.26,-359.5 2168.05,-345.79 2221,-308.5 2254.51,-284.9 2282.31,-243.66 2293.81,-225.07"/>
<polygon fill="#9a32cd" stroke="#9a32cd" points="1224.32,-356 1214.32,-359.5 1224.32,-363 1224.32,-356"/>
</a>
</g>
<text text-anchor="start" x="1773" y="-380.5" font-family="Helvetica,sans-Serif" font-size="10.00" fill="grey">currentLayer</text>
<text text-anchor="start" x="1773" y="-365.5" font-family="Helvetica,sans-Serif" font-size="10.00" fill="grey">startLayer</text>
</g>
<!-- Node13&#45;&gt;Node4 -->
<g id="edge12_Node000004_Node000013" class="edge">
<title>Node13&#45;&gt;Node4</title>
<g id="a_edge12_Node000004_Node000013"><a xlink:title=" ">
<path fill="none" stroke="#9a32cd" stroke-dasharray="5,2" d="M1215.49,-346.44C1270.32,-326.28 1371.9,-287.77 1405,-267.5 1433.47,-250.07 1461.89,-222.55 1475.95,-208.09"/>
<polygon fill="#9a32cd" stroke="#9a32cd" points="1214.01,-343.26 1205.82,-349.99 1216.41,-349.83 1214.01,-343.26"/>
</a>
</g>
<text text-anchor="start" x="1292" y="-329" font-family="Helvetica,sans-Serif" font-size="10.00" fill="grey">m_associatedLayer</text>
</g>
<!-- Node14 -->
<g id="Node000014" class="node">
<title>Node14</title>
<g id="a_Node000014"><a xlink:title=" ">
<polygon fill="white" stroke="#666666" points="885,-358.5 761,-358.5 761,-328.5 885,-328.5 885,-358.5"/>
<text text-anchor="start" x="769" y="-346.5" font-family="Helvetica,sans-Serif" font-size="10.00">std::pair&lt; const Layer</text>
<text text-anchor="middle" x="823" y="-335.5" font-family="Helvetica,sans-Serif" font-size="10.00"> *, const Layer * &gt;</text>
</a>
</g>
</g>
<!-- Node14&#45;&gt;Node13 -->
<g id="edge14_Node000013_Node000014" class="edge">
<title>Node14&#45;&gt;Node13</title>
<g id="a_edge14_Node000013_Node000014"><a xlink:title=" ">
<path fill="none" stroke="#9a32cd" stroke-dasharray="5,2" d="M895.5,-346.74C970.62,-350.14 1085.64,-355.34 1142.79,-357.93"/>
<polygon fill="#9a32cd" stroke="#9a32cd" points="895.32,-343.22 885.17,-346.27 895,-350.22 895.32,-343.22"/>
</a>
</g>
<text text-anchor="start" x="966" y="-360" font-family="Helvetica,sans-Serif" font-size="10.00" fill="grey">m_nextLayers</text>
</g>
<!-- Node15 -->
<g id="Node000015" class="node">
<title>Node15</title>
<g id="a_Node000015"><a xlink:title=" ">
<polygon fill="white" stroke="#666666" points="524.5,-349 415.5,-349 415.5,-330 524.5,-330 524.5,-349"/>
<text text-anchor="middle" x="470" y="-337" font-family="Helvetica,sans-Serif" font-size="10.00">std::pair&lt; T1, T2 &gt;</text>
</a>
</g>
</g>
<!-- Node15&#45;&gt;Node14 -->
<g id="edge15_Node000014_Node000015" class="edge">
<title>Node15&#45;&gt;Node14</title>
<g id="a_edge15_Node000014_Node000015"><a xlink:title=" ">
<path fill="none" stroke="orange" stroke-dasharray="5,2" d="M534.74,-339.25C586.75,-339.17 662.13,-339.32 728,-340.5 738.61,-340.69 749.89,-340.98 760.82,-341.3"/>
<polygon fill="orange" stroke="orange" points="534.65,-335.75 524.66,-339.27 534.66,-342.75 534.65,-335.75"/>
</a>
</g>
<text text-anchor="start" x="583.5" y="-361.5" font-family="Helvetica,sans-Serif" font-size="10.00" fill="grey">&lt; const Layer *, const</text>
<text text-anchor="start" x="583.5" y="-346.5" font-family="Helvetica,sans-Serif" font-size="10.00" fill="grey">   Layer * &gt;</text>
</g>
<!-- Node16 -->
<g id="Node000016" class="node">
<title>Node16</title>
<g id="a_Node000016"><a xlink:href="class_acts_1_1_bin_utility.html" target="_top" xlink:title="The BinUtility class that translated global and local position into a bins of a BinnedArray,...">
<polygon fill="white" stroke="#666666" points="867.5,-310 778.5,-310 778.5,-291 867.5,-291 867.5,-310"/>
<text text-anchor="middle" x="823" y="-298" font-family="Helvetica,sans-Serif" font-size="10.00">Acts::BinUtility</text>
</a>
</g>
</g>
<!-- Node16&#45;&gt;Node13 -->
<g id="edge16_Node000013_Node000016" class="edge">
<title>Node16&#45;&gt;Node13</title>
<g id="a_edge16_Node000013_Node000016"><a xlink:title=" ">
<path fill="none" stroke="#9a32cd" stroke-dasharray="5,2" d="M877.94,-302.13C930.94,-304.61 1013.85,-310.85 1084,-326.5 1109.03,-332.08 1136.6,-342.35 1155.27,-349.95"/>
<polygon fill="#9a32cd" stroke="#9a32cd" points="877.89,-298.63 867.75,-301.68 877.59,-305.62 877.89,-298.63"/>
</a>
</g>
<text text-anchor="start" x="954" y="-332" font-family="Helvetica,sans-Serif" font-size="10.00" fill="grey">m_nextLayerUtility</text>
</g>
<!-- Node17&#45;&gt;Node13 -->
<g id="edge17_Node000013_Node000017" class="edge">
<title>Node17&#45;&gt;Node13</title>
<g id="a_edge17_Node000013_Node000017"><a xlink:title=" ">
<path fill="none" stroke="#9a32cd" stroke-dasharray="5,2" d="M896.98,-520C971.22,-514.13 1076.43,-504.95 1084,-499.5 1099.82,-488.11 1092.06,-476.27 1102,-459.5 1122.95,-424.13 1154.12,-386.48 1169,-369.19"/>
<polygon fill="#9a32cd" stroke="#9a32cd" points="896.42,-516.53 886.73,-520.8 896.97,-523.51 896.42,-516.53"/>
</a>
</g>
<text text-anchor="start" x="962" y="-523" font-family="Helvetica,sans-Serif" font-size="10.00" fill="grey">m_surfaceArray</text>
</g>
<!-- Node18&#45;&gt;Node13 -->
<g id="edge19_Node000013_Node000018" class="edge">
<title>Node18&#45;&gt;Node13</title>
<g id="a_edge19_Node000013_Node000018"><a xlink:title=" ">
<path fill="none" stroke="#9a32cd" stroke-dasharray="5,2" d="M910.49,-480.47C962.9,-479.1 1029.87,-471.59 1084,-446.5 1123.03,-428.41 1156.6,-387.78 1170.57,-369.15"/>
<polygon fill="#9a32cd" stroke="#9a32cd" points="910.14,-476.97 900.21,-480.66 910.27,-483.97 910.14,-476.97"/>
</a>
</g>
<text text-anchor="start" x="946" y="-485" font-family="Helvetica,sans-Serif" font-size="10.00" fill="grey">m_approachDescriptor</text>
</g>
<!-- Node19 -->
<g id="Node000019" class="node">
<title>Node19</title>
<g id="a_Node000019"><a xlink:href="class_acts_1_1_tracking_volume.html" target="_top" xlink:title="Full Volume description used in Tracking, it inherits from Volume to get the geometrical structure.">
<polygon fill="white" stroke="#666666" points="883.5,-251 762.5,-251 762.5,-232 883.5,-232 883.5,-251"/>
<text text-anchor="middle" x="823" y="-239" font-family="Helvetica,sans-Serif" font-size="10.00">Acts::TrackingVolume</text>
</a>
</g>
</g>
<!-- Node19&#45;&gt;Node1 -->
<g id="edge31_Node000001_Node000019" class="edge">
<title>Node19&#45;&gt;Node1</title>
<g id="a_edge31_Node000001_Node000019"><a xlink:title=" ">
<path fill="none" stroke="#9a32cd" stroke-dasharray="5,2" d="M893.94,-231.25C948.42,-226.49 1024.52,-227.07 1084,-255.5 1094.79,-260.66 1091.28,-270.2 1102,-275.5 1196.33,-322.14 1232.77,-294.5 1338,-294.5 1338,-294.5 1338,-294.5 2084.5,-294.5 2164.03,-294.5 2250.52,-246.28 2284.55,-225.19"/>
<polygon fill="#9a32cd" stroke="#9a32cd" points="893.31,-227.8 883.69,-232.24 893.98,-234.77 893.31,-227.8"/>
</a>
</g>
<text text-anchor="start" x="1597.5" y="-315.5" font-family="Helvetica,sans-Serif" font-size="10.00" fill="grey">currentVolume</text>
<text text-anchor="start" x="1597.5" y="-300.5" font-family="Helvetica,sans-Serif" font-size="10.00" fill="grey">startVolume</text>
</g>
<!-- Node19&#45;&gt;Node4 -->
<g id="edge26_Node000004_Node000019" class="edge">
<title>Node19&#45;&gt;Node4</title>
<g id="a_edge26_Node000004_Node000019"><a xlink:title=" ">
<path fill="none" stroke="#9a32cd" stroke-dasharray="5,2" d="M891.99,-230.58C900.72,-229.41 909.56,-228.34 918,-227.5 1115.63,-207.78 1353.43,-201.14 1445.72,-199.2"/>
<polygon fill="#9a32cd" stroke="#9a32cd" points="891.23,-227.15 881.81,-231.99 892.19,-234.08 891.23,-227.15"/>
</a>
</g>
<text text-anchor="start" x="1106.5" y="-218" font-family="Helvetica,sans-Serif" font-size="10.00" fill="grey">m_associatedTrackingVolume</text>
</g>
<!-- Node19&#45;&gt;Node13 -->
<g id="edge21_Node000013_Node000019" class="edge">
<title>Node19&#45;&gt;Node13</title>
<g id="a_edge21_Node000013_Node000019"><a xlink:title=" ">
<path fill="none" stroke="#9a32cd" stroke-dasharray="5,2" d="M893.88,-249.99C965.32,-259.11 1068.01,-273.62 1084,-283.5 1095.65,-290.7 1092.17,-298.96 1102,-308.5 1119.59,-325.58 1143.56,-340.67 1159.73,-349.92"/>
<polygon fill="#9a32cd" stroke="#9a32cd" points="893.95,-246.47 883.58,-248.68 893.06,-253.41 893.95,-246.47"/>
</a>
</g>
<text text-anchor="start" x="955" y="-289" font-family="Helvetica,sans-Serif" font-size="10.00" fill="grey">m_trackingVolume</text>
</g>
<!-- Node20&#45;&gt;Node19 -->
<g id="edge22_Node000019_Node000020" class="edge">
<title>Node20&#45;&gt;Node19</title>
<g id="a_edge22_Node000019_Node000020"><a xlink:title=" ">
<path fill="none" stroke="#63b8ff" d="M520.4,-241.5C583.91,-241.5 694.11,-241.5 762.26,-241.5"/>
<polygon fill="#63b8ff" stroke="#63b8ff" points="520.24,-238 510.24,-241.5 520.24,-245 520.24,-238"/>
</a>
</g>
</g>
<!-- Node21&#45;&gt;Node13 -->
<g id="edge24_Node000013_Node000021" class="edge">
<title>Node21&#45;&gt;Node13</title>
<g id="a_edge24_Node000013_Node000021"><a xlink:title=" ">
<path fill="none" stroke="#9a32cd" stroke-dasharray="5,2" d="M894.36,-427.39C947.28,-424.43 1021.18,-417.36 1084,-400.5 1111.73,-393.06 1141.81,-378.62 1160.16,-369.01"/>
<polygon fill="#9a32cd" stroke="#9a32cd" points="893.87,-423.91 884.07,-427.93 894.23,-430.9 893.87,-423.91"/>
</a>
</g>
<text text-anchor="start" x="944" y="-431" font-family="Helvetica,sans-Serif" font-size="10.00" fill="grey">m_representingVolume</text>
</g>
<!-- Node22 -->
<g id="Node000022" class="node">
<title>Node22</title>
<g id="a_Node000022"><a xlink:title=" ">
<polygon fill="white" stroke="#666666" points="1247.5,-137.5 1109.5,-137.5 1109.5,-107.5 1247.5,-107.5 1247.5,-137.5"/>
<text text-anchor="start" x="1117.5" y="-125.5" font-family="Helvetica,sans-Serif" font-size="10.00">std::shared_ptr&lt; const</text>
<text text-anchor="middle" x="1178.5" y="-114.5" font-family="Helvetica,sans-Serif" font-size="10.00"> Acts::ISurfaceMaterial &gt;</text>
</a>
</g>
</g>
<!-- Node22&#45;&gt;Node4 -->
<g id="edge27_Node000004_Node000022" class="edge">
<title>Node22&#45;&gt;Node4</title>
<g id="a_edge27_Node000004_Node000022"><a xlink:title=" ">
<path fill="none" stroke="#9a32cd" stroke-dasharray="5,2" d="M1257.78,-115.08C1302.32,-113.67 1358.35,-116.73 1405,-134.5 1406,-134.88 1450.96,-171.06 1473.03,-188.85"/>
<polygon fill="#9a32cd" stroke="#9a32cd" points="1257.44,-111.59 1247.59,-115.49 1257.72,-118.58 1257.44,-111.59"/>
</a>
</g>
<text text-anchor="start" x="1293" y="-140" font-family="Helvetica,sans-Serif" font-size="10.00" fill="grey">m_surfaceMaterial</text>
</g>
<!-- Node23 -->
<g id="Node000023" class="node">
<title>Node23</title>
<g id="a_Node000023"><a xlink:title=" ">
<polygon fill="white" stroke="#666666" points="882,-132 764,-132 764,-113 882,-113 882,-132"/>
<text text-anchor="middle" x="823" y="-120" font-family="Helvetica,sans-Serif" font-size="10.00">std::shared_ptr&lt; T &gt;</text>
</a>
</g>
</g>
<!-- Node23&#45;&gt;Node22 -->
<g id="edge28_Node000022_Node000023" class="edge">
<title>Node23&#45;&gt;Node22</title>
<g id="a_edge28_Node000022_Node000023"><a xlink:title=" ">
<path fill="none" stroke="orange" stroke-dasharray="5,2" d="M892.53,-122.5C955.06,-122.5 1046.95,-122.5 1109.35,-122.5"/>
<polygon fill="orange" stroke="orange" points="892.37,-119 882.37,-122.5 892.37,-126 892.37,-119"/>
</a>
</g>
<text text-anchor="start" x="921" y="-128" font-family="Helvetica,sans-Serif" font-size="10.00" fill="grey">&lt; const Acts::ISurfaceMaterial &gt;</text>
</g>
<!-- Node24 -->
<g id="Node000024" class="node">
<title>Node24</title>
<g id="a_Node000024"><a xlink:title=" ">
<polygon fill="white" stroke="#666666" points="1890,-152.5 1718,-152.5 1718,-122.5 1890,-122.5 1890,-152.5"/>
<text text-anchor="start" x="1726" y="-140.5" font-family="Helvetica,sans-Serif" font-size="10.00">std::multimap&lt; std</text>
<text text-anchor="middle" x="1804" y="-129.5" font-family="Helvetica,sans-Serif" font-size="10.00">::uint64_t, GeometryIdentifier &gt;</text>
</a>
</g>
</g>
<!-- Node24&#45;&gt;Node2 -->
<g id="edge29_Node000002_Node000024" class="edge">
<title>Node24&#45;&gt;Node2</title>
<g id="a_edge29_Node000002_Node000024"><a xlink:title=" ">
<path fill="none" stroke="#9a32cd" stroke-dasharray="5,2" d="M1900.13,-150.92C1931.22,-156.09 1965.77,-162.66 1997,-170.5 2005.18,-172.55 2006.92,-174.08 2015,-176.5 2024.64,-179.39 2035.13,-182.3 2044.9,-184.91"/>
<polygon fill="#9a32cd" stroke="#9a32cd" points="1900.6,-147.45 1890.17,-149.3 1899.47,-154.36 1900.6,-147.45"/>
</a>
</g>
<text text-anchor="start" x="1911.5" y="-176" font-family="Helvetica,sans-Serif" font-size="10.00" fill="grey">externalSurfaces</text>
</g>
<!-- Node25 -->
<g id="Node000025" class="node">
<title>Node25</title>
<g id="a_Node000025"><a xlink:title=" ">
<polygon fill="white" stroke="#666666" points="1549,-140 1423,-140 1423,-121 1549,-121 1549,-140"/>
<text text-anchor="middle" x="1486" y="-128" font-family="Helvetica,sans-Serif" font-size="10.00">std::multimap&lt; K, T &gt;</text>
</a>
</g>
</g>
<!-- Node25&#45;&gt;Node24 -->
<g id="edge30_Node000024_Node000025" class="edge">
<title>Node25&#45;&gt;Node24</title>
<g id="a_edge30_Node000024_Node000025"><a xlink:title=" ">
<path fill="none" stroke="orange" stroke-dasharray="5,2" d="M1559.68,-129.88C1600.86,-129.77 1653.32,-130.03 1700,-131.5 1705.82,-131.68 1711.82,-131.92 1717.86,-132.18"/>
<polygon fill="orange" stroke="orange" points="1559.45,-126.38 1549.46,-129.91 1559.47,-133.38 1559.45,-126.38"/>
</a>
</g>
<text text-anchor="start" x="1570.5" y="-152.5" font-family="Helvetica,sans-Serif" font-size="10.00" fill="grey">&lt; std::uint64_t, Geometry</text>
<text text-anchor="start" x="1570.5" y="-137.5" font-family="Helvetica,sans-Serif" font-size="10.00" fill="grey">  Identifier &gt;</text>
</g>
<!-- Node26 -->
<g id="Node000026" class="node">
<title>Node26</title>
<g id="a_Node000026"><a xlink:href="struct_acts_1_1_navigator_statistics.html" target="_top" xlink:title="A struct to hold statistics of the navigator.">
<polygon fill="white" stroke="#666666" points="2152,-167 2015,-167 2015,-148 2152,-148 2152,-167"/>
<text text-anchor="middle" x="2083.5" y="-155" font-family="Helvetica,sans-Serif" font-size="10.00">Acts::NavigatorStatistics</text>
</a>
</g>
</g>
<!-- Node26&#45;&gt;Node1 -->
<g id="edge34_Node000001_Node000026" class="edge">
<title>Node26&#45;&gt;Node1</title>
<g id="a_edge34_Node000001_Node000026"><a xlink:title=" ">
<path fill="none" stroke="#9a32cd" stroke-dasharray="5,2" d="M2162.19,-163.11C2181.68,-165.77 2202.34,-169.7 2221,-175.5 2244.37,-182.76 2269.19,-196.57 2284.52,-205.91"/>
<polygon fill="#9a32cd" stroke="#9a32cd" points="2162.49,-159.62 2152.13,-161.83 2161.61,-166.56 2162.49,-159.62"/>
</a>
</g>
<text text-anchor="start" x="2173.5" y="-181" font-family="Helvetica,sans-Serif" font-size="10.00" fill="grey">statistics</text>
</g>
<!-- Node27 -->
<g id="Node000027" class="node">
<title>Node27</title>
<g id="a_Node000027"><a xlink:href="class_acts_1_1_navigation_stream.html" target="_top" xlink:title="The NavigationStream is a container for the navigation candidates that are currentlu processed in a g...">
<polygon fill="white" stroke="#666666" points="2149.5,-128 2017.5,-128 2017.5,-109 2149.5,-109 2149.5,-128"/>
<text text-anchor="middle" x="2083.5" y="-116" font-family="Helvetica,sans-Serif" font-size="10.00">Acts::NavigationStream</text>
</a>
</g>
</g>
<!-- Node27&#45;&gt;Node1 -->
<g id="edge35_Node000001_Node000027" class="edge">
<title>Node27&#45;&gt;Node1</title>
<g id="a_edge35_Node000001_Node000027"><a xlink:title=" ">
<path fill="none" stroke="#9a32cd" stroke-dasharray="5,2" d="M2159.73,-124.56C2180.35,-128.25 2202.19,-134.14 2221,-143.5 2251.96,-158.9 2279.58,-190.22 2292.21,-205.99"/>
<polygon fill="#9a32cd" stroke="#9a32cd" points="2160.15,-121.09 2149.72,-122.92 2159.02,-128 2160.15,-121.09"/>
</a>
</g>
<text text-anchor="start" x="2178.5" y="-149" font-family="Helvetica,sans-Serif" font-size="10.00" fill="grey">stream</text>
</g>
</g>
</svg>
