<?xml version="1.0" encoding="UTF-8" standalone="no"?>
<!DOCTYPE svg PUBLIC "-//W3C//DTD SVG 1.1//EN"
 "http://www.w3.org/Graphics/SVG/1.1/DTD/svg11.dtd">
<!-- Generated by graphviz version 2.43.0 (0)
 -->
<!-- Title: ActsPlugins::TGeoLayerBuilder::LayerConfig Pages: 1 -->
<svg width="692pt" height="266pt"
 viewBox="0.00 0.00 692.00 266.00" xmlns="http://www.w3.org/2000/svg" xmlns:xlink="http://www.w3.org/1999/xlink">
<g id="graph0" class="graph" transform="scale(1 1) rotate(0) translate(4 262)">
<title>ActsPlugins::TGeoLayerBuilder::LayerConfig</title>
<!-- Node1 -->
<g id="Node000001" class="node">
<title>Node1</title>
<g id="a_Node000001"><a xlink:title="Helper config structs for volume parsing.">
<polygon fill="#999999" stroke="#666666" points="684,-153 518,-153 518,-123 684,-123 684,-153"/>
<text text-anchor="start" x="526" y="-141" font-family="Helvetica,sans-Serif" font-size="10.00">ActsPlugins::TGeoLayerBuilder</text>
<text text-anchor="middle" x="601" y="-130" font-family="Helvetica,sans-Serif" font-size="10.00">::LayerConfig</text>
</a>
</g>
</g>
<!-- Node2 -->
<g id="Node000002" class="node">
<title>Node2</title>
<g id="a_Node000002"><a xlink:title=" ">
<polygon fill="white" stroke="#666666" points="364,-247.5 299,-247.5 299,-228.5 364,-228.5 364,-247.5"/>
<text text-anchor="middle" x="331.5" y="-235.5" font-family="Helvetica,sans-Serif" font-size="10.00">std::string</text>
</a>
</g>
</g>
<!-- Node2&#45;&gt;Node1 -->
<g id="edge1_Node000001_Node000002" class="edge">
<title>Node2&#45;&gt;Node1</title>
<g id="a_edge1_Node000001_Node000002"><a xlink:title=" ">
<path fill="none" stroke="#9a32cd" stroke-dasharray="5,2" d="M374.41,-234.76C409.14,-230.97 459.23,-222.9 500,-206 531.61,-192.9 563.51,-168.91 582.51,-153.21"/>
<polygon fill="#9a32cd" stroke="#9a32cd" points="373.75,-231.31 364.16,-235.81 374.46,-238.27 373.75,-231.31"/>
</a>
</g>
<text text-anchor="start" x="430.5" y="-247" font-family="Helvetica,sans-Serif" font-size="10.00" fill="grey">localAxes</text>
<text text-anchor="start" x="430.5" y="-232" font-family="Helvetica,sans-Serif" font-size="10.00" fill="grey">volumeName</text>
</g>
<!-- Node3 -->
<g id="Node000003" class="node">
<title>Node3</title>
<g id="a_Node000003"><a xlink:title=" ">
<polygon fill="white" stroke="#666666" points="106.5,-253 2.5,-253 2.5,-223 106.5,-223 106.5,-253"/>
<text text-anchor="start" x="10.5" y="-241" font-family="Helvetica,sans-Serif" font-size="10.00">std::basic_string&lt;</text>
<text text-anchor="middle" x="54.5" y="-230" font-family="Helvetica,sans-Serif" font-size="10.00"> Char &gt;</text>
</a>
</g>
</g>
<!-- Node3&#45;&gt;Node2 -->
<g id="edge2_Node000002_Node000003" class="edge">
<title>Node3&#45;&gt;Node2</title>
<g id="a_edge2_Node000002_Node000003"><a xlink:title=" ">
<path fill="none" stroke="#63b8ff" d="M116.81,-238C173.25,-238 254.71,-238 298.97,-238"/>
<polygon fill="#63b8ff" stroke="#63b8ff" points="116.58,-234.5 106.58,-238 116.58,-241.5 116.58,-234.5"/>
</a>
</g>
</g>
<!-- Node4 -->
<g id="Node000004" class="node">
<title>Node4</title>
<g id="a_Node000004"><a xlink:title=" ">
<polygon fill="white" stroke="#666666" points="401.5,-207.5 261.5,-207.5 261.5,-188.5 401.5,-188.5 401.5,-207.5"/>
<text text-anchor="middle" x="331.5" y="-195.5" font-family="Helvetica,sans-Serif" font-size="10.00">std::vector&lt; std::string &gt;</text>
</a>
</g>
</g>
<!-- Node4&#45;&gt;Node1 -->
<g id="edge3_Node000001_Node000004" class="edge">
<title>Node4&#45;&gt;Node1</title>
<g id="a_edge3_Node000001_Node000004"><a xlink:title=" ">
<path fill="none" stroke="#9a32cd" stroke-dasharray="5,2" d="M412,-187.83C440.01,-183.55 471.58,-177.93 500,-171 519.71,-166.19 541.13,-159.35 559.07,-153.14"/>
<polygon fill="#9a32cd" stroke="#9a32cd" points="411.23,-184.4 401.86,-189.34 412.26,-191.33 411.23,-184.4"/>
</a>
</g>
<text text-anchor="start" x="430.5" y="-190.5" font-family="Helvetica,sans-Serif" font-size="10.00" fill="grey">sensorNames</text>
</g>
<!-- Node5 -->
<g id="Node000005" class="node">
<title>Node5</title>
<g id="a_Node000005"><a xlink:title=" ">
<polygon fill="white" stroke="#666666" points="103,-147.5 6,-147.5 6,-128.5 103,-128.5 103,-147.5"/>
<text text-anchor="middle" x="54.5" y="-135.5" font-family="Helvetica,sans-Serif" font-size="10.00">std::vector&lt; T &gt;</text>
</a>
</g>
</g>
<!-- Node5&#45;&gt;Node4 -->
<g id="edge4_Node000004_Node000005" class="edge">
<title>Node5&#45;&gt;Node4</title>
<g id="a_edge4_Node000004_Node000005"><a xlink:title=" ">
<path fill="none" stroke="orange" stroke-dasharray="5,2" d="M81.29,-152.19C94.58,-158.91 111.26,-166.44 127,-171 170.64,-183.65 221.29,-190.4 261.14,-193.98"/>
<polygon fill="orange" stroke="orange" points="82.76,-149.02 72.28,-147.5 79.53,-155.23 82.76,-149.02"/>
</a>
</g>
<text text-anchor="start" x="145.5" y="-195.5" font-family="Helvetica,sans-Serif" font-size="10.00" fill="grey">&lt; std::string &gt;</text>
</g>
<!-- Node6 -->
<g id="Node000006" class="node">
<title>Node6</title>
<g id="a_Node000006"><a xlink:title=" ">
<polygon fill="white" stroke="#666666" points="407.5,-167.5 255.5,-167.5 255.5,-148.5 407.5,-148.5 407.5,-167.5"/>
<text text-anchor="middle" x="331.5" y="-155.5" font-family="Helvetica,sans-Serif" font-size="10.00">std::vector&lt; RangeConfig &gt;</text>
</a>
</g>
</g>
<!-- Node5&#45;&gt;Node6 -->
<g id="edge6_Node000006_Node000005" class="edge">
<title>Node5&#45;&gt;Node6</title>
<g id="a_edge6_Node000006_Node000005"><a xlink:title=" ">
<path fill="none" stroke="orange" stroke-dasharray="5,2" d="M113.25,-142.2C154.54,-145.2 210.49,-149.27 255.27,-152.53"/>
<polygon fill="orange" stroke="orange" points="113.31,-138.7 103.09,-141.46 112.81,-145.68 113.31,-138.7"/>
</a>
</g>
<text text-anchor="start" x="139.5" y="-155.5" font-family="Helvetica,sans-Serif" font-size="10.00" fill="grey">&lt; RangeConfig &gt;</text>
</g>
<!-- Node7 -->
<g id="Node000007" class="node">
<title>Node7</title>
<g id="a_Node000007"><a xlink:title=" ">
<polygon fill="white" stroke="#666666" points="403,-127.5 260,-127.5 260,-108.5 403,-108.5 403,-127.5"/>
<text text-anchor="middle" x="331.5" y="-115.5" font-family="Helvetica,sans-Serif" font-size="10.00">std::vector&lt; SplitConfig &gt;</text>
</a>
</g>
</g>
<!-- Node5&#45;&gt;Node7 -->
<g id="edge8_Node000007_Node000005" class="edge">
<title>Node5&#45;&gt;Node7</title>
<g id="a_edge8_Node000007_Node000005"><a xlink:title=" ">
<path fill="none" stroke="orange" stroke-dasharray="5,2" d="M101.65,-126.25C110.03,-124.53 118.74,-123 127,-122 170.85,-116.72 220.4,-115.64 259.62,-115.92"/>
<polygon fill="orange" stroke="orange" points="100.66,-122.89 91.63,-128.44 102.15,-129.73 100.66,-122.89"/>
</a>
</g>
<text text-anchor="start" x="143.5" y="-127.5" font-family="Helvetica,sans-Serif" font-size="10.00" fill="grey">&lt; SplitConfig &gt;</text>
</g>
<!-- Node10 -->
<g id="Node000010" class="node">
<title>Node10</title>
<g id="a_Node000010"><a xlink:title=" ">
<polygon fill="white" stroke="#666666" points="409,-78 254,-78 254,-48 409,-48 409,-78"/>
<text text-anchor="start" x="262" y="-66" font-family="Helvetica,sans-Serif" font-size="10.00">std::vector&lt; std::pair</text>
<text text-anchor="middle" x="331.5" y="-55" font-family="Helvetica,sans-Serif" font-size="10.00">&lt; int, Acts::BinningType &gt; &gt;</text>
</a>
</g>
</g>
<!-- Node5&#45;&gt;Node10 -->
<g id="edge12_Node000010_Node000005" class="edge">
<title>Node5&#45;&gt;Node10</title>
<g id="a_edge12_Node000010_Node000005"><a xlink:title=" ">
<path fill="none" stroke="orange" stroke-dasharray="5,2" d="M70.49,-120.81C83.79,-106.87 104.55,-88.08 127,-79 166.76,-62.93 214.39,-58.47 253.58,-58.25"/>
<polygon fill="orange" stroke="orange" points="67.75,-118.63 63.56,-128.36 72.9,-123.36 67.75,-118.63"/>
</a>
</g>
<text text-anchor="start" x="130.5" y="-100" font-family="Helvetica,sans-Serif" font-size="10.00" fill="grey">&lt; std::pair&lt; int, Acts</text>
<text text-anchor="start" x="130.5" y="-85" font-family="Helvetica,sans-Serif" font-size="10.00" fill="grey">  ::BinningType &gt; &gt;</text>
</g>
<!-- Node6&#45;&gt;Node1 -->
<g id="edge5_Node000001_Node000006" class="edge">
<title>Node6&#45;&gt;Node1</title>
<g id="a_edge5_Node000001_Node000006"><a xlink:title=" ">
<path fill="none" stroke="#9a32cd" stroke-dasharray="5,2" d="M417.95,-151.61C449.93,-149.22 486.16,-146.51 517.84,-144.14"/>
<polygon fill="#9a32cd" stroke="#9a32cd" points="417.44,-148.14 407.73,-152.38 417.96,-155.12 417.44,-148.14"/>
</a>
</g>
<text text-anchor="start" x="431.5" y="-155.5" font-family="Helvetica,sans-Serif" font-size="10.00" fill="grey">parseRanges</text>
</g>
<!-- Node7&#45;&gt;Node1 -->
<g id="edge7_Node000001_Node000007" class="edge">
<title>Node7&#45;&gt;Node1</title>
<g id="a_edge7_Node000001_Node000007"><a xlink:title=" ">
<path fill="none" stroke="#9a32cd" stroke-dasharray="5,2" d="M413.1,-119.2C440.69,-120.06 471.73,-121.52 500,-124 505.85,-124.51 511.88,-125.13 517.95,-125.82"/>
<polygon fill="#9a32cd" stroke="#9a32cd" points="413.19,-115.7 403.1,-118.91 412.99,-122.7 413.19,-115.7"/>
</a>
</g>
<text text-anchor="start" x="434.5" y="-129.5" font-family="Helvetica,sans-Serif" font-size="10.00" fill="grey">splitConfigs</text>
</g>
<!-- Node8 -->
<g id="Node000008" class="node">
<title>Node8</title>
<g id="a_Node000008"><a xlink:title=" ">
<polygon fill="white" stroke="#666666" points="383.5,-30 279.5,-30 279.5,0 383.5,0 383.5,-30"/>
<text text-anchor="start" x="287.5" y="-18" font-family="Helvetica,sans-Serif" font-size="10.00">std::pair&lt; double,</text>
<text text-anchor="middle" x="331.5" y="-7" font-family="Helvetica,sans-Serif" font-size="10.00"> double &gt;</text>
</a>
</g>
</g>
<!-- Node8&#45;&gt;Node1 -->
<g id="edge9_Node000001_Node000008" class="edge">
<title>Node8&#45;&gt;Node1</title>
<g id="a_edge9_Node000001_Node000008"><a xlink:title=" ">
<path fill="none" stroke="#9a32cd" stroke-dasharray="5,2" d="M393.53,-18.1C426.48,-21.75 467.03,-29.53 500,-46 537.56,-64.77 571.24,-101.92 588.27,-122.81"/>
<polygon fill="#9a32cd" stroke="#9a32cd" points="393.86,-14.62 383.56,-17.09 393.16,-21.58 393.86,-14.62"/>
</a>
</g>
<text text-anchor="start" x="440.5" y="-51.5" font-family="Helvetica,sans-Serif" font-size="10.00" fill="grey">envelope</text>
</g>
<!-- Node9 -->
<g id="Node000009" class="node">
<title>Node9</title>
<g id="a_Node000009"><a xlink:title=" ">
<polygon fill="white" stroke="#666666" points="109,-24.5 0,-24.5 0,-5.5 109,-5.5 109,-24.5"/>
<text text-anchor="middle" x="54.5" y="-12.5" font-family="Helvetica,sans-Serif" font-size="10.00">std::pair&lt; T1, T2 &gt;</text>
</a>
</g>
</g>
<!-- Node9&#45;&gt;Node8 -->
<g id="edge10_Node000008_Node000009" class="edge">
<title>Node9&#45;&gt;Node8</title>
<g id="a_edge10_Node000008_Node000009"><a xlink:title=" ">
<path fill="none" stroke="orange" stroke-dasharray="5,2" d="M119.28,-15C167.93,-15 234.06,-15 279.28,-15"/>
<polygon fill="orange" stroke="orange" points="119.18,-11.5 109.18,-15 119.18,-18.5 119.18,-11.5"/>
</a>
</g>
<text text-anchor="start" x="134.5" y="-20.5" font-family="Helvetica,sans-Serif" font-size="10.00" fill="grey">&lt; double, double &gt;</text>
</g>
<!-- Node10&#45;&gt;Node1 -->
<g id="edge11_Node000001_Node000010" class="edge">
<title>Node10&#45;&gt;Node1</title>
<g id="a_edge11_Node000001_Node000010"><a xlink:title=" ">
<path fill="none" stroke="#9a32cd" stroke-dasharray="5,2" d="M419.26,-66.98C445.64,-69.88 474.41,-74.78 500,-83 528.86,-92.27 558.94,-110.11 578.48,-122.96"/>
<polygon fill="#9a32cd" stroke="#9a32cd" points="419.58,-63.5 409.28,-65.97 418.87,-70.46 419.58,-63.5"/>
</a>
</g>
<text text-anchor="start" x="442.5" y="-104" font-family="Helvetica,sans-Serif" font-size="10.00" fill="grey">binning0</text>
<text text-anchor="start" x="442.5" y="-89" font-family="Helvetica,sans-Serif" font-size="10.00" fill="grey">binning1</text>
</g>
</g>
</svg>
