<?xml version="1.0" encoding="UTF-8" standalone="no"?>
<!DOCTYPE svg PUBLIC "-//W3C//DTD SVG 1.1//EN"
 "http://www.w3.org/Graphics/SVG/1.1/DTD/svg11.dtd">
<!-- Generated by graphviz version 2.43.0 (0)
 -->
<!-- Title: Acts::SupportsBoundParameters&lt; StraightLineStepper &gt; Pages: 1 -->
<svg width="345pt" height="177pt"
 viewBox="0.00 0.00 344.50 177.00" xmlns="http://www.w3.org/2000/svg" xmlns:xlink="http://www.w3.org/1999/xlink">
<g id="graph0" class="graph" transform="scale(1 1) rotate(0) translate(4 173)">
<title>Acts::SupportsBoundParameters&lt; StraightLineStepper &gt;</title>
<!-- Node1 -->
<g id="Node000001" class="node">
<title>Node1</title>
<g id="a_Node000001"><a xlink:title=" ">
<polygon fill="#999999" stroke="#666666" points="234,-30 61,-30 61,0 234,0 234,-30"/>
<text text-anchor="start" x="69" y="-18" font-family="Helvetica,sans-Serif" font-size="10.00">Acts::SupportsBoundParameters</text>
<text text-anchor="middle" x="147.5" y="-7" font-family="Helvetica,sans-Serif" font-size="10.00">&lt; StraightLineStepper &gt;</text>
</a>
</g>
</g>
<!-- Node2 -->
<g id="Node000002" class="node">
<title>Node2</title>
<g id="a_Node000002"><a xlink:title=" ">
<polygon fill="white" stroke="#666666" points="89,-169 0,-169 0,-150 89,-150 89,-169"/>
<text text-anchor="middle" x="44.5" y="-157" font-family="Helvetica,sans-Serif" font-size="10.00">std::false_type</text>
</a>
</g>
</g>
<!-- Node2&#45;&gt;Node1 -->
<g id="edge1_Node000001_Node000002" class="edge">
<title>Node2&#45;&gt;Node1</title>
<g id="a_edge1_Node000001_Node000002"><a xlink:title=" ">
<path fill="none" stroke="#63b8ff" d="M42.03,-139.58C40.86,-123.45 41.48,-100.21 51.5,-83 65.61,-58.76 92.4,-41.18 114.1,-30.13"/>
<polygon fill="#63b8ff" stroke="#63b8ff" points="38.58,-140.29 43.08,-149.88 45.55,-139.57 38.58,-140.29"/>
</a>
</g>
</g>
<!-- Node4 -->
<g id="Node000004" class="node">
<title>Node4</title>
<g id="a_Node000004"><a xlink:href="struct_acts_1_1_supports_bound_parameters.html" target="_top" xlink:title=" ">
<polygon fill="white" stroke="#666666" points="234,-113 61,-113 61,-83 234,-83 234,-113"/>
<text text-anchor="start" x="69" y="-101" font-family="Helvetica,sans-Serif" font-size="10.00">Acts::SupportsBoundParameters</text>
<text text-anchor="middle" x="147.5" y="-90" font-family="Helvetica,sans-Serif" font-size="10.00">&lt; stepper_t &gt;</text>
</a>
</g>
</g>
<!-- Node2&#45;&gt;Node4 -->
<g id="edge4_Node000004_Node000002" class="edge">
<title>Node2&#45;&gt;Node4</title>
<g id="a_edge4_Node000004_Node000002"><a xlink:title=" ">
<path fill="none" stroke="#63b8ff" d="M68.26,-144.78C84.74,-135.25 106.63,-122.61 123.22,-113.02"/>
<polygon fill="#63b8ff" stroke="#63b8ff" points="66.17,-141.94 59.26,-149.98 69.67,-148 66.17,-141.94"/>
</a>
</g>
</g>
<!-- Node3 -->
<g id="Node000003" class="node">
<title>Node3</title>
<g id="a_Node000003"><a xlink:title=" ">
<polygon fill="white" stroke="#666666" points="336.5,-107.5 252.5,-107.5 252.5,-88.5 336.5,-88.5 336.5,-107.5"/>
<text text-anchor="middle" x="294.5" y="-95.5" font-family="Helvetica,sans-Serif" font-size="10.00">std::true_type</text>
</a>
</g>
</g>
<!-- Node3&#45;&gt;Node1 -->
<g id="edge2_Node000001_Node000003" class="edge">
<title>Node3&#45;&gt;Node1</title>
<g id="a_edge2_Node000001_Node000003"><a xlink:title=" ">
<path fill="none" stroke="#63b8ff" d="M291.97,-78.26C289.62,-67.95 285.12,-55.73 276.5,-48 264.56,-37.29 249.6,-30.04 234.13,-25.16"/>
<polygon fill="#63b8ff" stroke="#63b8ff" points="288.57,-79.14 293.76,-88.38 295.46,-77.92 288.57,-79.14"/>
</a>
</g>
</g>
<!-- Node4&#45;&gt;Node1 -->
<g id="edge3_Node000001_Node000004" class="edge">
<title>Node4&#45;&gt;Node1</title>
<g id="a_edge3_Node000001_Node000004"><a xlink:title=" ">
<path fill="none" stroke="orange" stroke-dasharray="5,2" d="M147.5,-72.59C147.5,-58.75 147.5,-41.91 147.5,-30.22"/>
<polygon fill="orange" stroke="orange" points="144,-72.89 147.5,-82.89 151,-72.89 144,-72.89"/>
</a>
</g>
<text text-anchor="start" x="151" y="-53.5" font-family="Helvetica,sans-Serif" font-size="10.00" fill="grey">&lt; StraightLineStepper &gt;</text>
</g>
</g>
</svg>
