<?xml version="1.0" encoding="UTF-8" standalone="no"?>
<!DOCTYPE svg PUBLIC "-//W3C//DTD SVG 1.1//EN"
 "http://www.w3.org/Graphics/SVG/1.1/DTD/svg11.dtd">
<!-- Generated by graphviz version 2.43.0 (0)
 -->
<!-- Title: Acts::Types::count&lt; T, L &gt; Pages: 1 -->
<svg width="331pt" height="121pt"
 viewBox="0.00 0.00 330.50 121.00" xmlns="http://www.w3.org/2000/svg" xmlns:xlink="http://www.w3.org/1999/xlink">
<g id="graph0" class="graph" transform="scale(1 1) rotate(0) translate(4 117)">
<title>Acts::Types::count&lt; T, L &gt;</title>
<!-- Node1 -->
<g id="Node000001" class="node">
<title>Node1</title>
<g id="a_Node000001"><a xlink:title="Count the number of times a type occurs in a type list.">
<polygon fill="#999999" stroke="#666666" points="207.5,-113 103.5,-113 103.5,-83 207.5,-83 207.5,-113"/>
<text text-anchor="start" x="111.5" y="-101" font-family="Helvetica,sans-Serif" font-size="10.00">Acts::Types::count</text>
<text text-anchor="middle" x="155.5" y="-90" font-family="Helvetica,sans-Serif" font-size="10.00">&lt; T, L &gt;</text>
</a>
</g>
</g>
<!-- Node2 -->
<g id="Node000002" class="node">
<title>Node2</title>
<g id="a_Node000002"><a xlink:href="struct_acts_1_1_types_1_1count_3_01_t_00_01_type_list_3_01_u_00_01_us_8_8_8_01_4_01_4.html" target="_top" xlink:title=" ">
<polygon fill="white" stroke="#666666" points="149,-30 0,-30 0,0 149,0 149,-30"/>
<text text-anchor="start" x="8" y="-18" font-family="Helvetica,sans-Serif" font-size="10.00">Acts::Types::count</text>
<text text-anchor="middle" x="74.5" y="-7" font-family="Helvetica,sans-Serif" font-size="10.00">&lt; T, TypeList&lt; U, Us... &gt; &gt;</text>
</a>
</g>
</g>
<!-- Node1&#45;&gt;Node2 -->
<g id="edge1_Node000001_Node000002" class="edge">
<title>Node1&#45;&gt;Node2</title>
<g id="a_edge1_Node000001_Node000002"><a xlink:title=" ">
<path fill="none" stroke="orange" stroke-dasharray="5,2" d="M94.34,-81.71C86.96,-77.44 80.33,-71.98 75.5,-65 68.53,-54.92 69.08,-40.68 70.9,-30.14"/>
<polygon fill="orange" stroke="orange" points="92.79,-84.85 103.3,-86.2 95.92,-78.59 92.79,-84.85"/>
</a>
</g>
<text text-anchor="start" x="79" y="-53.5" font-family="Helvetica,sans-Serif" font-size="10.00" fill="grey">&lt; T, TypeList&lt; U, Us... &gt; &gt;</text>
</g>
<!-- Node3 -->
<g id="Node000003" class="node">
<title>Node3</title>
<g id="a_Node000003"><a xlink:href="struct_acts_1_1_types_1_1count_3_01_t_00_01_type_list_3_4_01_4.html" target="_top" xlink:title=" ">
<polygon fill="white" stroke="#666666" points="290,-30 183,-30 183,0 290,0 290,-30"/>
<text text-anchor="start" x="191" y="-18" font-family="Helvetica,sans-Serif" font-size="10.00">Acts::Types::count</text>
<text text-anchor="middle" x="236.5" y="-7" font-family="Helvetica,sans-Serif" font-size="10.00">&lt; T, TypeList&lt;&gt; &gt;</text>
</a>
</g>
</g>
<!-- Node1&#45;&gt;Node3 -->
<g id="edge2_Node000001_Node000003" class="edge">
<title>Node1&#45;&gt;Node3</title>
<g id="a_edge2_Node000001_Node000003"><a xlink:title=" ">
<path fill="none" stroke="orange" stroke-dasharray="5,2" d="M199.2,-77.64C204.78,-73.97 210.08,-69.77 214.5,-65 223.63,-55.16 229.45,-40.88 232.8,-30.28"/>
<polygon fill="orange" stroke="orange" points="197.08,-74.83 190.29,-82.96 200.67,-80.84 197.08,-74.83"/>
</a>
</g>
<text text-anchor="start" x="229" y="-53.5" font-family="Helvetica,sans-Serif" font-size="10.00" fill="grey">&lt; T, TypeList&lt;&gt; &gt;</text>
</g>
</g>
</svg>
