<?xml version="1.0" encoding="UTF-8" standalone="no"?>
<!DOCTYPE svg PUBLIC "-//W3C//DTD SVG 1.1//EN"
 "http://www.w3.org/Graphics/SVG/1.1/DTD/svg11.dtd">
<!-- Generated by graphviz version 2.43.0 (0)
 -->
<!-- Title: Acts::TrackSelector::EtaBinnedConfig Pages: 1 -->
<svg width="280pt" height="208pt"
 viewBox="0.00 0.00 280.00 208.00" xmlns="http://www.w3.org/2000/svg" xmlns:xlink="http://www.w3.org/1999/xlink">
<g id="graph0" class="graph" transform="scale(1 1) rotate(0) translate(4 204)">
<title>Acts::TrackSelector::EtaBinnedConfig</title>
<!-- Node1 -->
<g id="Node000001" class="node">
<title>Node1</title>
<g id="a_Node000001"><a xlink:title="Main config object for the track selector.">
<polygon fill="#999999" stroke="#666666" points="191.5,-30 82.5,-30 82.5,0 191.5,0 191.5,-30"/>
<text text-anchor="start" x="90.5" y="-18" font-family="Helvetica,sans-Serif" font-size="10.00">Acts::TrackSelector</text>
<text text-anchor="middle" x="137" y="-7" font-family="Helvetica,sans-Serif" font-size="10.00">::EtaBinnedConfig</text>
</a>
</g>
</g>
<!-- Node2 -->
<g id="Node000002" class="node">
<title>Node2</title>
<g id="a_Node000002"><a xlink:title=" ">
<polygon fill="white" stroke="#666666" points="130,-113 0,-113 0,-83 130,-83 130,-113"/>
<text text-anchor="start" x="8" y="-101" font-family="Helvetica,sans-Serif" font-size="10.00">std::vector&lt; Acts::</text>
<text text-anchor="middle" x="65" y="-90" font-family="Helvetica,sans-Serif" font-size="10.00">TrackSelector::Config &gt;</text>
</a>
</g>
</g>
<!-- Node2&#45;&gt;Node1 -->
<g id="edge1_Node000001_Node000002" class="edge">
<title>Node2&#45;&gt;Node1</title>
<g id="a_edge1_Node000001_Node000002"><a xlink:title=" ">
<path fill="none" stroke="#9a32cd" stroke-dasharray="5,2" d="M84.54,-75.02C97.21,-60.76 113.35,-42.61 124.36,-30.22"/>
<polygon fill="#9a32cd" stroke="#9a32cd" points="81.57,-73.09 77.54,-82.89 86.8,-77.74 81.57,-73.09"/>
</a>
</g>
<text text-anchor="start" x="111.5" y="-53.5" font-family="Helvetica,sans-Serif" font-size="10.00" fill="grey">cutSets</text>
</g>
<!-- Node3 -->
<g id="Node000003" class="node">
<title>Node3</title>
<g id="a_Node000003"><a xlink:title=" ">
<polygon fill="white" stroke="#666666" points="185.5,-200 88.5,-200 88.5,-181 185.5,-181 185.5,-200"/>
<text text-anchor="middle" x="137" y="-188" font-family="Helvetica,sans-Serif" font-size="10.00">std::vector&lt; T &gt;</text>
</a>
</g>
</g>
<!-- Node3&#45;&gt;Node2 -->
<g id="edge2_Node000002_Node000003" class="edge">
<title>Node3&#45;&gt;Node2</title>
<g id="a_edge2_Node000002_Node000003"><a xlink:title=" ">
<path fill="none" stroke="orange" stroke-dasharray="5,2" d="M91.14,-176.4C84.97,-172.92 79.3,-168.53 75,-163 63.95,-148.8 62.81,-127.35 63.5,-113.26"/>
<polygon fill="orange" stroke="orange" points="89.91,-179.69 100.44,-180.88 92.95,-173.39 89.91,-179.69"/>
</a>
</g>
<text text-anchor="start" x="78" y="-152" font-family="Helvetica,sans-Serif" font-size="10.00" fill="grey">&lt; Acts::TrackSelector</text>
<text text-anchor="start" x="78" y="-137" font-family="Helvetica,sans-Serif" font-size="10.00" fill="grey">  ::Config &gt;</text>
</g>
<!-- Node4 -->
<g id="Node000004" class="node">
<title>Node4</title>
<g id="a_Node000004"><a xlink:title=" ">
<polygon fill="white" stroke="#666666" points="272,-107.5 148,-107.5 148,-88.5 272,-88.5 272,-107.5"/>
<text text-anchor="middle" x="210" y="-95.5" font-family="Helvetica,sans-Serif" font-size="10.00">std::vector&lt; double &gt;</text>
</a>
</g>
</g>
<!-- Node3&#45;&gt;Node4 -->
<g id="edge4_Node000004_Node000003" class="edge">
<title>Node3&#45;&gt;Node4</title>
<g id="a_edge4_Node000004_Node000003"><a xlink:title=" ">
<path fill="none" stroke="orange" stroke-dasharray="5,2" d="M168.61,-176.18C174.62,-172.58 180.45,-168.2 185,-163 199.31,-146.67 205.91,-121.21 208.53,-107.86"/>
<polygon fill="orange" stroke="orange" points="166.94,-173.11 159.79,-180.92 170.25,-179.27 166.94,-173.11"/>
</a>
</g>
<text text-anchor="start" x="204" y="-144" font-family="Helvetica,sans-Serif" font-size="10.00" fill="grey">&lt; double &gt;</text>
</g>
<!-- Node4&#45;&gt;Node1 -->
<g id="edge3_Node000001_Node000004" class="edge">
<title>Node4&#45;&gt;Node1</title>
<g id="a_edge3_Node000001_Node000004"><a xlink:title=" ">
<path fill="none" stroke="#9a32cd" stroke-dasharray="5,2" d="M195.48,-80.88C182.08,-66.02 162.39,-44.17 149.63,-30.01"/>
<polygon fill="#9a32cd" stroke="#9a32cd" points="192.89,-83.25 202.19,-88.33 198.09,-78.56 192.89,-83.25"/>
</a>
</g>
<text text-anchor="start" x="183.5" y="-53.5" font-family="Helvetica,sans-Serif" font-size="10.00" fill="grey">absEtaEdges</text>
</g>
</g>
</svg>
