<?xml version="1.0" encoding="UTF-8" standalone="no"?>
<!DOCTYPE svg PUBLIC "-//W3C//DTD SVG 1.1//EN"
 "http://www.w3.org/Graphics/SVG/1.1/DTD/svg11.dtd">
<!-- Generated by graphviz version 2.43.0 (0)
 -->
<!-- Title: ActsPlugins::TensorRTEdgeClassifier::Config Pages: 1 -->
<svg width="246pt" height="193pt"
 viewBox="0.00 0.00 246.00 193.00" xmlns="http://www.w3.org/2000/svg" xmlns:xlink="http://www.w3.org/1999/xlink">
<g id="graph0" class="graph" transform="scale(1 1) rotate(0) translate(4 189)">
<title>ActsPlugins::TensorRTEdgeClassifier::Config</title>
<!-- Node1 -->
<g id="Node000001" class="node">
<title>Node1</title>
<g id="a_Node000001"><a xlink:title=" ">
<polygon fill="#999999" stroke="#666666" points="180,-30 34,-30 34,0 180,0 180,-30"/>
<text text-anchor="start" x="42" y="-18" font-family="Helvetica,sans-Serif" font-size="10.00">ActsPlugins::TensorRTEdge</text>
<text text-anchor="middle" x="107" y="-7" font-family="Helvetica,sans-Serif" font-size="10.00">Classifier::Config</text>
</a>
</g>
</g>
<!-- Node2 -->
<g id="Node000002" class="node">
<title>Node2</title>
<g id="a_Node000002"><a xlink:title=" ">
<polygon fill="white" stroke="#666666" points="88.5,-102 23.5,-102 23.5,-83 88.5,-83 88.5,-102"/>
<text text-anchor="middle" x="56" y="-90" font-family="Helvetica,sans-Serif" font-size="10.00">std::string</text>
</a>
</g>
</g>
<!-- Node2&#45;&gt;Node1 -->
<g id="edge1_Node000001_Node000002" class="edge">
<title>Node2&#45;&gt;Node1</title>
<g id="a_edge1_Node000001_Node000002"><a xlink:title=" ">
<path fill="none" stroke="#9a32cd" stroke-dasharray="5,2" d="M63.23,-73.45C66.84,-65.36 71.59,-55.88 77,-48 81.31,-41.72 86.83,-35.46 91.96,-30.17"/>
<polygon fill="#9a32cd" stroke="#9a32cd" points="59.97,-72.17 59.31,-82.74 66.42,-74.89 59.97,-72.17"/>
</a>
</g>
<text text-anchor="start" x="80" y="-53.5" font-family="Helvetica,sans-Serif" font-size="10.00" fill="grey">modelPath</text>
</g>
<!-- Node3 -->
<g id="Node000003" class="node">
<title>Node3</title>
<g id="a_Node000003"><a xlink:title=" ">
<polygon fill="white" stroke="#666666" points="104,-185 0,-185 0,-155 104,-155 104,-185"/>
<text text-anchor="start" x="8" y="-173" font-family="Helvetica,sans-Serif" font-size="10.00">std::basic_string&lt;</text>
<text text-anchor="middle" x="52" y="-162" font-family="Helvetica,sans-Serif" font-size="10.00"> Char &gt;</text>
</a>
</g>
</g>
<!-- Node3&#45;&gt;Node2 -->
<g id="edge2_Node000002_Node000003" class="edge">
<title>Node3&#45;&gt;Node2</title>
<g id="a_edge2_Node000002_Node000003"><a xlink:title=" ">
<path fill="none" stroke="#63b8ff" d="M53.3,-144.4C54.08,-129.81 55.01,-112.22 55.55,-102.01"/>
<polygon fill="#63b8ff" stroke="#63b8ff" points="49.79,-144.63 52.75,-154.8 56.78,-145 49.79,-144.63"/>
</a>
</g>
</g>
<!-- Node4 -->
<g id="Node000004" class="node">
<title>Node4</title>
<g id="a_Node000004"><a xlink:title=" ">
<polygon fill="white" stroke="#666666" points="219,-102 115,-102 115,-83 219,-83 219,-102"/>
<text text-anchor="middle" x="167" y="-90" font-family="Helvetica,sans-Serif" font-size="10.00">std::vector&lt; int &gt;</text>
</a>
</g>
</g>
<!-- Node4&#45;&gt;Node1 -->
<g id="edge3_Node000001_Node000004" class="edge">
<title>Node4&#45;&gt;Node1</title>
<g id="a_edge3_Node000001_Node000004"><a xlink:title=" ">
<path fill="none" stroke="#9a32cd" stroke-dasharray="5,2" d="M154.9,-74.36C149.05,-66.25 141.82,-56.5 135,-48 130.19,-42.01 124.67,-35.61 119.81,-30.12"/>
<polygon fill="#9a32cd" stroke="#9a32cd" points="152.18,-76.57 160.84,-82.67 157.87,-72.5 152.18,-76.57"/>
</a>
</g>
<text text-anchor="start" x="151" y="-53.5" font-family="Helvetica,sans-Serif" font-size="10.00" fill="grey">selectedFeatures</text>
</g>
<!-- Node5 -->
<g id="Node000005" class="node">
<title>Node5</title>
<g id="a_Node000005"><a xlink:title=" ">
<polygon fill="white" stroke="#666666" points="219.5,-179.5 122.5,-179.5 122.5,-160.5 219.5,-160.5 219.5,-179.5"/>
<text text-anchor="middle" x="171" y="-167.5" font-family="Helvetica,sans-Serif" font-size="10.00">std::vector&lt; T &gt;</text>
</a>
</g>
</g>
<!-- Node5&#45;&gt;Node4 -->
<g id="edge4_Node000004_Node000005" class="edge">
<title>Node5&#45;&gt;Node4</title>
<g id="a_edge4_Node000004_Node000005"><a xlink:title=" ">
<path fill="none" stroke="orange" stroke-dasharray="5,2" d="M170.01,-150.35C169.19,-134.92 168.07,-113.72 167.45,-102.06"/>
<polygon fill="orange" stroke="orange" points="166.52,-150.54 170.54,-160.34 173.51,-150.17 166.52,-150.54"/>
</a>
</g>
<text text-anchor="start" x="173" y="-125.5" font-family="Helvetica,sans-Serif" font-size="10.00" fill="grey">&lt; int &gt;</text>
</g>
</g>
</svg>
