<?xml version="1.0" encoding="UTF-8" standalone="no"?>
<!DOCTYPE svg PUBLIC "-//W3C//DTD SVG 1.1//EN"
 "http://www.w3.org/Graphics/SVG/1.1/DTD/svg11.dtd">
<!-- Generated by graphviz version 2.43.0 (0)
 -->
<!-- Title: Acts::GridAxisGenerators::VarVar&lt; aType, bType &gt; Pages: 1 -->
<svg width="148pt" height="197pt"
 viewBox="0.00 0.00 148.00 197.00" xmlns="http://www.w3.org/2000/svg" xmlns:xlink="http://www.w3.org/1999/xlink">
<g id="graph0" class="graph" transform="scale(1 1) rotate(0) translate(4 193)">
<title>Acts::GridAxisGenerators::VarVar&lt; aType, bType &gt;</title>
<!-- Node1 -->
<g id="Node000001" class="node">
<title>Node1</title>
<g id="a_Node000001"><a xlink:title="Templated base generator for a two variable axes tuple &#45; 2D.">
<polygon fill="#999999" stroke="#666666" points="140,-30 0,-30 0,0 140,0 140,-30"/>
<text text-anchor="start" x="8" y="-18" font-family="Helvetica,sans-Serif" font-size="10.00">Acts::GridAxisGenerators</text>
<text text-anchor="middle" x="70" y="-7" font-family="Helvetica,sans-Serif" font-size="10.00">::VarVar&lt; aType, bType &gt;</text>
</a>
</g>
</g>
<!-- Node2 -->
<g id="Node000002" class="node">
<title>Node2</title>
<g id="a_Node000002"><a xlink:title=" ">
<polygon fill="white" stroke="#666666" points="132,-117 8,-117 8,-98 132,-98 132,-117"/>
<text text-anchor="middle" x="70" y="-105" font-family="Helvetica,sans-Serif" font-size="10.00">std::vector&lt; double &gt;</text>
</a>
</g>
</g>
<!-- Node2&#45;&gt;Node1 -->
<g id="edge1_Node000001_Node000002" class="edge">
<title>Node2&#45;&gt;Node1</title>
<g id="a_edge1_Node000001_Node000002"><a xlink:title=" ">
<path fill="none" stroke="#9a32cd" stroke-dasharray="5,2" d="M70,-87.38C70,-70.24 70,-45.49 70,-30.09"/>
<polygon fill="#9a32cd" stroke="#9a32cd" points="66.5,-87.82 70,-97.82 73.5,-87.82 66.5,-87.82"/>
</a>
</g>
<text text-anchor="start" x="73" y="-69" font-family="Helvetica,sans-Serif" font-size="10.00" fill="grey">edges0</text>
<text text-anchor="start" x="73" y="-54" font-family="Helvetica,sans-Serif" font-size="10.00" fill="grey">edges1</text>
</g>
<!-- Node3 -->
<g id="Node000003" class="node">
<title>Node3</title>
<g id="a_Node000003"><a xlink:title=" ">
<polygon fill="white" stroke="#666666" points="118.5,-189 21.5,-189 21.5,-170 118.5,-170 118.5,-189"/>
<text text-anchor="middle" x="70" y="-177" font-family="Helvetica,sans-Serif" font-size="10.00">std::vector&lt; T &gt;</text>
</a>
</g>
</g>
<!-- Node3&#45;&gt;Node2 -->
<g id="edge2_Node000002_Node000003" class="edge">
<title>Node3&#45;&gt;Node2</title>
<g id="a_edge2_Node000002_Node000003"><a xlink:title=" ">
<path fill="none" stroke="orange" stroke-dasharray="5,2" d="M70,-159.58C70,-145.76 70,-127.68 70,-117.15"/>
<polygon fill="orange" stroke="orange" points="66.5,-159.92 70,-169.92 73.5,-159.92 66.5,-159.92"/>
</a>
</g>
<text text-anchor="start" x="73" y="-140.5" font-family="Helvetica,sans-Serif" font-size="10.00" fill="grey">&lt; double &gt;</text>
</g>
</g>
</svg>
