<?xml version="1.0" encoding="UTF-8" standalone="no"?>
<!DOCTYPE svg PUBLIC "-//W3C//DTD SVG 1.1//EN"
 "http://www.w3.org/Graphics/SVG/1.1/DTD/svg11.dtd">
<!-- Generated by graphviz version 2.43.0 (0)
 -->
<!-- Title: Acts::IndexGridFiller Pages: 1 -->
<svg width="674pt" height="116pt"
 viewBox="0.00 0.00 674.00 116.00" xmlns="http://www.w3.org/2000/svg" xmlns:xlink="http://www.w3.org/1999/xlink">
<g id="graph0" class="graph" transform="scale(1 1) rotate(0) translate(4 112)">
<title>Acts::IndexGridFiller</title>
<!-- Node1 -->
<g id="Node000001" class="node">
<title>Node1</title>
<g id="a_Node000001"><a xlink:title="A helper class that fills surfaces into predefined grids.">
<polygon fill="#999999" stroke="#666666" points="666,-67.5 551,-67.5 551,-48.5 666,-48.5 666,-67.5"/>
<text text-anchor="middle" x="608.5" y="-55.5" font-family="Helvetica,sans-Serif" font-size="10.00">Acts::IndexGridFiller</text>
</a>
</g>
</g>
<!-- Node2 -->
<g id="Node000002" class="node">
<title>Node2</title>
<g id="a_Node000002"><a xlink:title=" ">
<polygon fill="white" stroke="#666666" points="412,-107.5 272,-107.5 272,-88.5 412,-88.5 412,-107.5"/>
<text text-anchor="middle" x="342" y="-95.5" font-family="Helvetica,sans-Serif" font-size="10.00">std::vector&lt; std::size_t &gt;</text>
</a>
</g>
</g>
<!-- Node2&#45;&gt;Node1 -->
<g id="edge1_Node000001_Node000002" class="edge">
<title>Node2&#45;&gt;Node1</title>
<g id="a_edge1_Node000001_Node000002"><a xlink:title=" ">
<path fill="none" stroke="#9a32cd" stroke-dasharray="5,2" d="M422.71,-90.95C456.82,-87.37 497,-82.41 533,-76 545.71,-73.74 559.48,-70.61 571.69,-67.59"/>
<polygon fill="#9a32cd" stroke="#9a32cd" points="421.93,-87.51 412.34,-92.02 422.64,-94.48 421.93,-87.51"/>
</a>
</g>
<text text-anchor="start" x="448.5" y="-94.5" font-family="Helvetica,sans-Serif" font-size="10.00" fill="grey">binExpansion</text>
</g>
<!-- Node3 -->
<g id="Node000003" class="node">
<title>Node3</title>
<g id="a_Node000003"><a xlink:title=" ">
<polygon fill="white" stroke="#666666" points="107.5,-87.5 10.5,-87.5 10.5,-68.5 107.5,-68.5 107.5,-87.5"/>
<text text-anchor="middle" x="59" y="-75.5" font-family="Helvetica,sans-Serif" font-size="10.00">std::vector&lt; T &gt;</text>
</a>
</g>
</g>
<!-- Node3&#45;&gt;Node2 -->
<g id="edge2_Node000002_Node000003" class="edge">
<title>Node3&#45;&gt;Node2</title>
<g id="a_edge2_Node000002_Node000003"><a xlink:title=" ">
<path fill="none" stroke="orange" stroke-dasharray="5,2" d="M117.79,-82.11C162.53,-85.3 224.64,-89.72 271.99,-93.09"/>
<polygon fill="orange" stroke="orange" points="117.89,-78.61 107.67,-81.39 117.39,-85.59 117.89,-78.61"/>
</a>
</g>
<text text-anchor="start" x="159" y="-96.5" font-family="Helvetica,sans-Serif" font-size="10.00" fill="grey">&lt; std::size_t &gt;</text>
</g>
<!-- Node4 -->
<g id="Node000004" class="node">
<title>Node4</title>
<g id="a_Node000004"><a xlink:title=" ">
<polygon fill="white" stroke="#666666" points="404,-67.5 280,-67.5 280,-48.5 404,-48.5 404,-67.5"/>
<text text-anchor="middle" x="342" y="-55.5" font-family="Helvetica,sans-Serif" font-size="10.00">std::vector&lt; double &gt;</text>
</a>
</g>
</g>
<!-- Node3&#45;&gt;Node4 -->
<g id="edge4_Node000004_Node000003" class="edge">
<title>Node3&#45;&gt;Node4</title>
<g id="a_edge4_Node000004_Node000003"><a xlink:title=" ">
<path fill="none" stroke="orange" stroke-dasharray="5,2" d="M108.49,-66.37C117.58,-64.6 127.05,-63.02 136,-62 184.1,-56.52 238.95,-55.73 279.8,-56.2"/>
<polygon fill="orange" stroke="orange" points="107.52,-63 98.43,-68.44 108.93,-69.86 107.52,-63"/>
</a>
</g>
<text text-anchor="start" x="167" y="-67.5" font-family="Helvetica,sans-Serif" font-size="10.00" fill="grey">&lt; double &gt;</text>
</g>
<!-- Node4&#45;&gt;Node1 -->
<g id="edge3_Node000001_Node000004" class="edge">
<title>Node4&#45;&gt;Node1</title>
<g id="a_edge3_Node000001_Node000004"><a xlink:title=" ">
<path fill="none" stroke="#9a32cd" stroke-dasharray="5,2" d="M414.1,-58C456.99,-58 510.87,-58 550.86,-58"/>
<polygon fill="#9a32cd" stroke="#9a32cd" points="414.01,-54.5 404.01,-58 414.01,-61.5 414.01,-54.5"/>
</a>
</g>
<text text-anchor="start" x="433.5" y="-63.5" font-family="Helvetica,sans-Serif" font-size="10.00" fill="grey">referenceExpansion</text>
</g>
<!-- Node5 -->
<g id="Node000005" class="node">
<title>Node5</title>
<g id="a_Node000005"><a xlink:title=" ">
<polygon fill="white" stroke="#666666" points="405.5,-30 278.5,-30 278.5,0 405.5,0 405.5,-30"/>
<text text-anchor="start" x="286.5" y="-18" font-family="Helvetica,sans-Serif" font-size="10.00">std::unique_ptr&lt; const</text>
<text text-anchor="middle" x="342" y="-7" font-family="Helvetica,sans-Serif" font-size="10.00"> Acts::Logger &gt;</text>
</a>
</g>
</g>
<!-- Node5&#45;&gt;Node1 -->
<g id="edge5_Node000001_Node000005" class="edge">
<title>Node5&#45;&gt;Node1</title>
<g id="a_edge5_Node000001_Node000005"><a xlink:title=" ">
<path fill="none" stroke="#9a32cd" stroke-dasharray="5,2" d="M416.13,-20.72C451.62,-24.19 494.75,-29.44 533,-37 547.9,-39.94 564.16,-44.38 577.68,-48.42"/>
<polygon fill="#9a32cd" stroke="#9a32cd" points="416.15,-17.2 405.86,-19.74 415.48,-24.17 416.15,-17.2"/>
</a>
</g>
<text text-anchor="start" x="461.5" y="-42.5" font-family="Helvetica,sans-Serif" font-size="10.00" fill="grey">oLogger</text>
</g>
<!-- Node6 -->
<g id="Node000006" class="node">
<title>Node6</title>
<g id="a_Node000006"><a xlink:title=" ">
<polygon fill="white" stroke="#666666" points="118,-24.5 0,-24.5 0,-5.5 118,-5.5 118,-24.5"/>
<text text-anchor="middle" x="59" y="-12.5" font-family="Helvetica,sans-Serif" font-size="10.00">std::unique_ptr&lt; T &gt;</text>
</a>
</g>
</g>
<!-- Node6&#45;&gt;Node5 -->
<g id="edge6_Node000005_Node000006" class="edge">
<title>Node6&#45;&gt;Node5</title>
<g id="a_edge6_Node000005_Node000006"><a xlink:title=" ">
<path fill="none" stroke="orange" stroke-dasharray="5,2" d="M128.36,-15C174.14,-15 233.94,-15 278.46,-15"/>
<polygon fill="orange" stroke="orange" points="128.22,-11.5 118.22,-15 128.22,-18.5 128.22,-11.5"/>
</a>
</g>
<text text-anchor="start" x="139" y="-20.5" font-family="Helvetica,sans-Serif" font-size="10.00" fill="grey">&lt; const Acts::Logger &gt;</text>
</g>
</g>
</svg>
