<?xml version="1.0" encoding="UTF-8" standalone="no"?>
<!DOCTYPE svg PUBLIC "-//W3C//DTD SVG 1.1//EN"
 "http://www.w3.org/Graphics/SVG/1.1/DTD/svg11.dtd">
<!-- Generated by graphviz version 2.43.0 (0)
 -->
<!-- Title: Acts::AdaptiveMultiVertexFinder::State Pages: 1 -->
<svg width="223pt" height="238pt"
 viewBox="0.00 0.00 223.00 238.00" xmlns="http://www.w3.org/2000/svg" xmlns:xlink="http://www.w3.org/1999/xlink">
<g id="graph0" class="graph" transform="scale(1 1) rotate(0) translate(4 234)">
<title>Acts::AdaptiveMultiVertexFinder::State</title>
<!-- Node1 -->
<g id="Node000001" class="node">
<title>Node1</title>
<g id="a_Node000001"><a xlink:title="State struct for fulfilling interface.">
<polygon fill="#999999" stroke="#666666" points="143,-30 0,-30 0,0 143,0 143,-30"/>
<text text-anchor="start" x="8" y="-18" font-family="Helvetica,sans-Serif" font-size="10.00">Acts::AdaptiveMultiVertex</text>
<text text-anchor="middle" x="71.5" y="-7" font-family="Helvetica,sans-Serif" font-size="10.00">Finder::State</text>
</a>
</g>
</g>
<!-- Node2 -->
<g id="Node000002" class="node">
<title>Node2</title>
<g id="a_Node000002"><a xlink:href="class_acts_1_1_any_base.html" target="_top" xlink:title=" ">
<polygon fill="white" stroke="#666666" points="135,-102 8,-102 8,-83 135,-83 135,-102"/>
<text text-anchor="middle" x="71.5" y="-90" font-family="Helvetica,sans-Serif" font-size="10.00">Acts::AnyBase&lt; 128 &gt;</text>
</a>
</g>
</g>
<!-- Node2&#45;&gt;Node1 -->
<g id="edge1_Node000001_Node000002" class="edge">
<title>Node2&#45;&gt;Node1</title>
<g id="a_edge1_Node000001_Node000002"><a xlink:title=" ">
<path fill="none" stroke="#9a32cd" stroke-dasharray="5,2" d="M71.5,-72.57C71.5,-59.43 71.5,-42.18 71.5,-30.21"/>
<polygon fill="#9a32cd" stroke="#9a32cd" points="68,-72.84 71.5,-82.84 75,-72.84 68,-72.84"/>
</a>
</g>
<text text-anchor="start" x="75" y="-53.5" font-family="Helvetica,sans-Serif" font-size="10.00" fill="grey">seedFinderState</text>
</g>
<!-- Node3 -->
<g id="Node000003" class="node">
<title>Node3</title>
<g id="a_Node000003"><a xlink:href="class_acts_1_1_any_base_all.html" target="_top" xlink:title="Base class for all instances of AnyBase regarfless of SBO size.">
<polygon fill="white" stroke="#666666" points="117,-230 18,-230 18,-211 117,-211 117,-230"/>
<text text-anchor="middle" x="67.5" y="-218" font-family="Helvetica,sans-Serif" font-size="10.00">Acts::AnyBaseAll</text>
</a>
</g>
</g>
<!-- Node3&#45;&gt;Node2 -->
<g id="edge2_Node000002_Node000003" class="edge">
<title>Node3&#45;&gt;Node2</title>
<g id="a_edge2_Node000002_Node000003"><a xlink:title=" ">
<path fill="none" stroke="#63b8ff" d="M68.1,-200.51C68.98,-172.81 70.58,-122.42 71.22,-102.22"/>
<polygon fill="#63b8ff" stroke="#63b8ff" points="64.59,-200.73 67.77,-210.84 71.59,-200.96 64.59,-200.73"/>
</a>
</g>
</g>
<!-- Node4 -->
<g id="Node000004" class="node">
<title>Node4</title>
<g id="a_Node000004"><a xlink:href="class_acts_1_1_any_base.html" target="_top" xlink:title="Small opaque cache type with configurable small buffer optimization.">
<polygon fill="white" stroke="#666666" points="215,-174 84,-174 84,-155 215,-155 215,-174"/>
<text text-anchor="middle" x="149.5" y="-162" font-family="Helvetica,sans-Serif" font-size="10.00">Acts::AnyBase&lt; SIZE &gt;</text>
</a>
</g>
</g>
<!-- Node3&#45;&gt;Node4 -->
<g id="edge4_Node000004_Node000003" class="edge">
<title>Node3&#45;&gt;Node4</title>
<g id="a_edge4_Node000004_Node000003"><a xlink:title=" ">
<path fill="none" stroke="#63b8ff" d="M89.33,-205.12C104.31,-195.26 123.7,-182.49 136.36,-174.15"/>
<polygon fill="#63b8ff" stroke="#63b8ff" points="87.1,-202.4 80.67,-210.82 90.95,-208.25 87.1,-202.4"/>
</a>
</g>
</g>
<!-- Node4&#45;&gt;Node2 -->
<g id="edge3_Node000002_Node000004" class="edge">
<title>Node4&#45;&gt;Node2</title>
<g id="a_edge3_Node000002_Node000004"><a xlink:title=" ">
<path fill="none" stroke="orange" stroke-dasharray="5,2" d="M132.45,-148.19C116.72,-134.08 93.93,-113.63 81.14,-102.15"/>
<polygon fill="orange" stroke="orange" points="130.16,-150.84 139.94,-154.92 134.83,-145.63 130.16,-150.84"/>
</a>
</g>
<text text-anchor="start" x="123" y="-125.5" font-family="Helvetica,sans-Serif" font-size="10.00" fill="grey">&lt; 128 &gt;</text>
</g>
</g>
</svg>
