<?xml version="1.0" encoding="UTF-8" standalone="no"?>
<!DOCTYPE svg PUBLIC "-//W3C//DTD SVG 1.1//EN"
 "http://www.w3.org/Graphics/SVG/1.1/DTD/svg11.dtd">
<!-- Generated by graphviz version 2.43.0 (0)
 -->
<!-- Title: Acts::PassiveLayerBuilder::Config Pages: 1 -->
<!--zoomable 232 -->

<svg id="main" version="1.1" xmlns="http://www.w3.org/2000/svg" xmlns:xlink="http://www.w3.org/1999/xlink" xml:space="preserve" onload="init(evt)">

<style type="text/css"><![CDATA[
.node, .edge {opacity: 0.7;}
.node.selected, .edge.selected {opacity: 1;}
.edge:hover path { stroke: red; }
.edge:hover polygon { stroke: red; fill: red; }
]]></style>

<defs>
  <circle id="rim" cx="0" cy="0" r="7"/>
  <circle id="rim2" cx="0" cy="0" r="3.5"/>
  <g id="zoomPlus">
    <use xlink:href="#rim" fill="#404040"><set attributeName="fill" to="#808080" begin="zoomplus.mouseover" end="zoomplus.mouseout"/></use>
    <path d="M-4,0h8M0,-4v8" fill="none" stroke="white" stroke-width="1.5" pointer-events="none"/>
  </g>
  <g id="zoomMin">
    <use xlink:href="#rim" fill="#404040"><set attributeName="fill" to="#808080" begin="zoomminus.mouseover" end="zoomminus.mouseout"/></use>
    <path d="M-4,0h8" fill="none" stroke="white" stroke-width="1.5" pointer-events="none"/>
  </g>
  <g id="arrowUp" transform="translate(30 24)">
    <use xlink:href="#rim"/>
    <path pointer-events="none" fill="none" stroke="white" stroke-width="1.5" d="M0,-3.0v7 M-2.5,-0.5L0,-3.0L2.5,-0.5"/>
  </g>
  <g id="arrowRight" transform="rotate(90) translate(36 -43)">
    <use xlink:href="#rim"/>
    <path pointer-events="none" fill="none" stroke="white" stroke-width="1.5" d="M0,-3.0v7 M-2.5,-0.5L0,-3.0L2.5,-0.5"/>
  </g>
  <g id="arrowDown" transform="rotate(180) translate(-30 -48)">
    <use xlink:href="#rim"/>
    <path pointer-events="none" fill="none" stroke="white" stroke-width="1.5" d="M0,-3.0v7 M-2.5,-0.5L0,-3.0L2.5,-0.5"/>
  </g>
  <g id="arrowLeft" transform="rotate(270) translate(-36 17)">
    <use xlink:href="#rim"/>
    <path pointer-events="none" fill="none" stroke="white" stroke-width="1.5" d="M0,-3.0v7 M-2.5,-0.5L0,-3.0L2.5,-0.5"/>
  </g>
  <g id="resetDef">
    <use xlink:href="#rim2" fill="#404040"><set attributeName="fill" to="#808080" begin="reset.mouseover" end="reset.mouseout"/></use>
  </g>
</defs>
<script type="application/ecmascript">
var viewWidth = 831;
var viewHeight = 232;
var sectionId = 'dynsection-0';
</script>
<script type="application/ecmascript" xlink:href="svg.min.js"/>
<svg id="graph" class="graph">
<g id="viewport">
<title>Acts::PassiveLayerBuilder::Config</title>
<!-- Node1 -->
<g id="Node000001" class="node">
<title>Node1</title>
<g id="a_Node000001"><a xlink:title="Configuration struct for the passive layer builder This nested struct is used to configure the layer ...">
<polygon fill="#999999" stroke="#666666" points="823,-85 681,-85 681,-55 823,-55 823,-85"/>
<text text-anchor="start" x="689" y="-73" font-family="Helvetica,sans-Serif" font-size="10.00">Acts::PassiveLayerBuilder</text>
<text text-anchor="middle" x="752" y="-62" font-family="Helvetica,sans-Serif" font-size="10.00">::Config</text>
</a>
</g>
</g>
<!-- Node2 -->
<g id="Node000002" class="node">
<title>Node2</title>
<g id="a_Node000002"><a xlink:title=" ">
<polygon fill="white" stroke="#666666" points="450.5,-209.5 385.5,-209.5 385.5,-190.5 450.5,-190.5 450.5,-209.5"/>
<text text-anchor="middle" x="418" y="-197.5" font-family="Helvetica,sans-Serif" font-size="10.00">std::string</text>
</a>
</g>
</g>
<!-- Node2&#45;&gt;Node1 -->
<g id="edge1_Node000001_Node000002" class="edge">
<title>Node2&#45;&gt;Node1</title>
<g id="a_edge1_Node000001_Node000002"><a xlink:title=" ">
<path fill="none" stroke="#9a32cd" stroke-dasharray="5,2" d="M460.83,-205.65C511.75,-210.49 598.87,-212.08 663,-178 702.72,-156.89 731.18,-109.44 743.77,-85.07"/>
<polygon fill="#9a32cd" stroke="#9a32cd" points="461.15,-202.16 450.84,-204.61 460.43,-209.12 461.15,-202.16"/>
</a>
</g>
<text text-anchor="start" x="557" y="-212.5" font-family="Helvetica,sans-Serif" font-size="10.00" fill="grey">layerIdentification</text>
</g>
<!-- Node3 -->
<g id="Node000003" class="node">
<title>Node3</title>
<g id="a_Node000003"><a xlink:title=" ">
<polygon fill="white" stroke="#666666" points="104,-215 0,-215 0,-185 104,-185 104,-215"/>
<text text-anchor="start" x="8" y="-203" font-family="Helvetica,sans-Serif" font-size="10.00">std::basic_string&lt;</text>
<text text-anchor="middle" x="52" y="-192" font-family="Helvetica,sans-Serif" font-size="10.00"> Char &gt;</text>
</a>
</g>
</g>
<!-- Node3&#45;&gt;Node2 -->
<g id="edge2_Node000002_Node000003" class="edge">
<title>Node3&#45;&gt;Node2</title>
<g id="a_edge2_Node000002_Node000003"><a xlink:title=" ">
<path fill="none" stroke="#63b8ff" d="M114.58,-200C192.81,-200 324.9,-200 385.23,-200"/>
<polygon fill="#63b8ff" stroke="#63b8ff" points="114.38,-196.5 104.38,-200 114.38,-203.5 114.38,-196.5"/>
</a>
</g>
</g>
<!-- Node4 -->
<g id="Node000004" class="node">
<title>Node4</title>
<g id="a_Node000004"><a xlink:title=" ">
<polygon fill="white" stroke="#666666" points="480,-79.5 356,-79.5 356,-60.5 480,-60.5 480,-79.5"/>
<text text-anchor="middle" x="418" y="-67.5" font-family="Helvetica,sans-Serif" font-size="10.00">std::vector&lt; double &gt;</text>
</a>
</g>
</g>
<!-- Node4&#45;&gt;Node1 -->
<g id="edge3_Node000001_Node000004" class="edge">
<title>Node4&#45;&gt;Node1</title>
<g id="a_edge3_Node000001_Node000004"><a xlink:title=" ">
<path fill="none" stroke="#9a32cd" stroke-dasharray="5,2" d="M490.53,-70C546.86,-70 624.92,-70 680.88,-70"/>
<polygon fill="#9a32cd" stroke="#9a32cd" points="490.28,-66.5 480.28,-70 490.28,-73.5 490.28,-66.5"/>
</a>
</g>
<text text-anchor="start" x="542" y="-165.5" font-family="Helvetica,sans-Serif" font-size="10.00" fill="grey">centralLayerHalflengthZ</text>
<text text-anchor="start" x="542" y="-150.5" font-family="Helvetica,sans-Serif" font-size="10.00" fill="grey">centralLayerRadii</text>
<text text-anchor="start" x="542" y="-135.5" font-family="Helvetica,sans-Serif" font-size="10.00" fill="grey">centralLayerThickness</text>
<text text-anchor="start" x="542" y="-120.5" font-family="Helvetica,sans-Serif" font-size="10.00" fill="grey">posnegLayerPositionZ</text>
<text text-anchor="start" x="542" y="-105.5" font-family="Helvetica,sans-Serif" font-size="10.00" fill="grey">posnegLayerRmax</text>
<text text-anchor="start" x="542" y="-90.5" font-family="Helvetica,sans-Serif" font-size="10.00" fill="grey">posnegLayerRmin</text>
<text text-anchor="start" x="542" y="-75.5" font-family="Helvetica,sans-Serif" font-size="10.00" fill="grey">posnegLayerThickness</text>
</g>
<!-- Node5 -->
<g id="Node000005" class="node">
<title>Node5</title>
<g id="a_Node000005"><a xlink:title=" ">
<polygon fill="white" stroke="#666666" points="100.5,-52.5 3.5,-52.5 3.5,-33.5 100.5,-33.5 100.5,-52.5"/>
<text text-anchor="middle" x="52" y="-40.5" font-family="Helvetica,sans-Serif" font-size="10.00">std::vector&lt; T &gt;</text>
</a>
</g>
</g>
<!-- Node5&#45;&gt;Node4 -->
<g id="edge4_Node000004_Node000005" class="edge">
<title>Node5&#45;&gt;Node4</title>
<g id="a_edge4_Node000004_Node000005"><a xlink:title=" ">
<path fill="none" stroke="orange" stroke-dasharray="5,2" d="M110.95,-47.3C177.86,-52.26 287.45,-60.39 355.73,-65.46"/>
<polygon fill="orange" stroke="orange" points="110.82,-43.78 100.59,-46.53 110.3,-50.76 110.82,-43.78"/>
</a>
</g>
<text text-anchor="start" x="181.5" y="-65.5" font-family="Helvetica,sans-Serif" font-size="10.00" fill="grey">&lt; double &gt;</text>
</g>
<!-- Node6 -->
<g id="Node000006" class="node">
<title>Node6</title>
<g id="a_Node000006"><a xlink:title=" ">
<polygon fill="white" stroke="#666666" points="521,-30 315,-30 315,0 521,0 521,-30"/>
<text text-anchor="start" x="323" y="-18" font-family="Helvetica,sans-Serif" font-size="10.00">std::vector&lt; std::shared</text>
<text text-anchor="middle" x="418" y="-7" font-family="Helvetica,sans-Serif" font-size="10.00">_ptr&lt; const Acts::ISurfaceMaterial &gt; &gt;</text>
</a>
</g>
</g>
<!-- Node5&#45;&gt;Node6 -->
<g id="edge6_Node000006_Node000005" class="edge">
<title>Node5&#45;&gt;Node6</title>
<g id="a_edge6_Node000006_Node000005"><a xlink:title=" ">
<path fill="none" stroke="orange" stroke-dasharray="5,2" d="M78.66,-28.85C91.3,-22.66 107.02,-16.12 122,-13 185.18,0.14 257.63,-0.14 314.92,-3.81"/>
<polygon fill="orange" stroke="orange" points="76.97,-25.78 69.65,-33.44 80.15,-32.01 76.97,-25.78"/>
</a>
</g>
<text text-anchor="start" x="125.5" y="-34" font-family="Helvetica,sans-Serif" font-size="10.00" fill="grey">&lt; std::shared_ptr&lt;</text>
<text text-anchor="start" x="125.5" y="-19" font-family="Helvetica,sans-Serif" font-size="10.00" fill="grey">   const Acts::ISurfaceMaterial &gt; &gt;</text>
</g>
<!-- Node6&#45;&gt;Node1 -->
<g id="edge5_Node000001_Node000006" class="edge">
<title>Node6&#45;&gt;Node1</title>
<g id="a_edge5_Node000001_Node000006"><a xlink:title=" ">
<path fill="none" stroke="#9a32cd" stroke-dasharray="5,2" d="M531.5,-16.47C573.24,-18.91 620.7,-23.96 663,-34 682.92,-38.73 704.18,-47.32 720.82,-54.93"/>
<polygon fill="#9a32cd" stroke="#9a32cd" points="531.47,-12.96 521.29,-15.91 531.09,-19.95 531.47,-12.96"/>
</a>
</g>
<text text-anchor="start" x="550" y="-55" font-family="Helvetica,sans-Serif" font-size="10.00" fill="grey">centralLayerMaterial</text>
<text text-anchor="start" x="550" y="-40" font-family="Helvetica,sans-Serif" font-size="10.00" fill="grey">posnegLayerMaterial</text>
</g>
</g>
</svg>

<g id="navigator" transform="translate(0 0)" fill="#404254">
  <rect fill="#f2f5e9" fill-opacity="0.5" stroke="#606060" stroke-width=".5" x="0" y="0" width="60" height="60"/>
  <use id="zoomplus" xlink:href="#zoomPlus" x="17" y="9" onmousedown="handleZoom(evt,'in')"/>
  <use id="zoomminus" xlink:href="#zoomMin" x="42" y="9" onmousedown="handleZoom(evt,'out')"/>
  <use id="reset" xlink:href="#resetDef" x="30" y="36" onmousedown="handleReset()"/>
   <use id="arrowup" xlink:href="#arrowUp" x="0" y="0" onmousedown="handlePan(0,-1)"/>
  <use id="arrowright" xlink:href="#arrowRight" x="0" y="0" onmousedown="handlePan(1,0)"/>
  <use id="arrowdown" xlink:href="#arrowDown" x="0" y="0" onmousedown="handlePan(0,1)"/>
  <use id="arrowleft" xlink:href="#arrowLeft" x="0" y="0" onmousedown="handlePan(-1,0)"/>
</g>
<svg viewBox="0 0 15 15" width="100%" height="30px" preserveAspectRatio="xMaxYMin meet">
 <g id="arrow_out" transform="scale(0.3 0.3)">
  <a xlink:href="struct_acts_1_1_passive_layer_builder_1_1_config__coll__graph_org.svg" target="_base">
   <rect id="button" ry="5" rx="5" y="6" x="6" height="38" width="38"
        fill="#f2f5e9" fill-opacity="0.5" stroke="#606060" stroke-width="1.0"/>
   <path id="arrow"
     d="M 11.500037,31.436501 C 11.940474,20.09759 22.043105,11.32322 32.158766,21.979434 L 37.068811,17.246167 C 37.068811,17.246167 37.088388,32 37.088388,32 L 22.160133,31.978069 C 22.160133,31.978069 26.997745,27.140456 26.997745,27.140456 C 18.528582,18.264221 13.291696,25.230495 11.500037,31.436501 z"
     style="fill:#404040;"/>
  </a>
 </g>
</svg>

<style type='text/css'>
<![CDATA[
[data-mouse-over-selected='false'] { opacity: 0.7; }
[data-mouse-over-selected='true']  { opacity: 1.0; }
]]>
</style>
<script type="application/ecmascript"><![CDATA[
document.addEventListener('DOMContentLoaded', (event) => {
  highlightEdges();
  highlightAdjacentNodes();
});
]]></script>
</svg>
