<?xml version="1.0" encoding="UTF-8" standalone="no"?>
<!DOCTYPE svg PUBLIC "-//W3C//DTD SVG 1.1//EN"
 "http://www.w3.org/Graphics/SVG/1.1/DTD/svg11.dtd">
<!-- Generated by graphviz version 2.43.0 (0)
 -->
<!-- Title: Acts::LayerCreator::Config Pages: 1 -->
<svg width="330pt" height="223pt"
 viewBox="0.00 0.00 329.50 223.00" xmlns="http://www.w3.org/2000/svg" xmlns:xlink="http://www.w3.org/1999/xlink">
<g id="graph0" class="graph" transform="scale(1 1) rotate(0) translate(4 219)">
<title>Acts::LayerCreator::Config</title>
<!-- Node1 -->
<g id="Node000001" class="node">
<title>Node1</title>
<g id="a_Node000001"><a xlink:title="Configuration for the LayerCreator This is the nexted configuration struct for the LayerCreator class...">
<polygon fill="#999999" stroke="#666666" points="213,-30 106,-30 106,0 213,0 213,-30"/>
<text text-anchor="start" x="114" y="-18" font-family="Helvetica,sans-Serif" font-size="10.00">Acts::LayerCreator</text>
<text text-anchor="middle" x="159.5" y="-7" font-family="Helvetica,sans-Serif" font-size="10.00">::Config</text>
</a>
</g>
</g>
<!-- Node2 -->
<g id="Node000002" class="node">
<title>Node2</title>
<g id="a_Node000002"><a xlink:title=" ">
<polygon fill="white" stroke="#666666" points="157,-128 0,-128 0,-98 157,-98 157,-128"/>
<text text-anchor="start" x="8" y="-116" font-family="Helvetica,sans-Serif" font-size="10.00">std::shared_ptr&lt; const</text>
<text text-anchor="middle" x="78.5" y="-105" font-family="Helvetica,sans-Serif" font-size="10.00"> Acts::SurfaceArrayCreator &gt;</text>
</a>
</g>
</g>
<!-- Node2&#45;&gt;Node1 -->
<g id="edge1_Node000001_Node000002" class="edge">
<title>Node2&#45;&gt;Node1</title>
<g id="a_edge1_Node000001_Node000002"><a xlink:title=" ">
<path fill="none" stroke="#9a32cd" stroke-dasharray="5,2" d="M84.12,-88.16C88.12,-75.16 94.57,-59.43 104.5,-48 110.73,-40.83 118.98,-34.86 127.19,-30.1"/>
<polygon fill="#9a32cd" stroke="#9a32cd" points="80.73,-87.29 81.42,-97.86 87.47,-89.17 80.73,-87.29"/>
</a>
</g>
<text text-anchor="start" x="108" y="-61" font-family="Helvetica,sans-Serif" font-size="10.00" fill="grey">surfaceArrayCreator</text>
</g>
<!-- Node3 -->
<g id="Node000003" class="node">
<title>Node3</title>
<g id="a_Node000003"><a xlink:title=" ">
<polygon fill="white" stroke="#666666" points="137.5,-215 19.5,-215 19.5,-196 137.5,-196 137.5,-215"/>
<text text-anchor="middle" x="78.5" y="-203" font-family="Helvetica,sans-Serif" font-size="10.00">std::shared_ptr&lt; T &gt;</text>
</a>
</g>
</g>
<!-- Node3&#45;&gt;Node2 -->
<g id="edge2_Node000002_Node000003" class="edge">
<title>Node3&#45;&gt;Node2</title>
<g id="a_edge2_Node000002_Node000003"><a xlink:title=" ">
<path fill="none" stroke="orange" stroke-dasharray="5,2" d="M78.5,-185.38C78.5,-168.24 78.5,-143.49 78.5,-128.09"/>
<polygon fill="orange" stroke="orange" points="75,-185.82 78.5,-195.82 82,-185.82 75,-185.82"/>
</a>
</g>
<text text-anchor="start" x="82" y="-167" font-family="Helvetica,sans-Serif" font-size="10.00" fill="grey">&lt; const Acts::SurfaceArray</text>
<text text-anchor="start" x="82" y="-152" font-family="Helvetica,sans-Serif" font-size="10.00" fill="grey">  Creator &gt;</text>
</g>
<!-- Node4 -->
<g id="Node000004" class="node">
<title>Node4</title>
<g id="a_Node000004"><a xlink:title=" ">
<polygon fill="white" stroke="#666666" points="306,-122.5 175,-122.5 175,-103.5 306,-103.5 306,-122.5"/>
<text text-anchor="middle" x="240.5" y="-110.5" font-family="Helvetica,sans-Serif" font-size="10.00">std::array&lt; double, 2 &gt;</text>
</a>
</g>
</g>
<!-- Node4&#45;&gt;Node1 -->
<g id="edge3_Node000001_Node000004" class="edge">
<title>Node4&#45;&gt;Node1</title>
<g id="a_edge3_Node000001_Node000004"><a xlink:title=" ">
<path fill="none" stroke="#9a32cd" stroke-dasharray="5,2" d="M234.63,-93.49C229.59,-79.78 221.27,-61.26 209.5,-48 203.27,-40.99 195.15,-34.92 187.28,-30.01"/>
<polygon fill="#9a32cd" stroke="#9a32cd" points="231.42,-94.93 237.97,-103.26 238.05,-92.67 231.42,-94.93"/>
</a>
</g>
<text text-anchor="start" x="232" y="-69" font-family="Helvetica,sans-Serif" font-size="10.00" fill="grey">defaultEnvelopeR</text>
<text text-anchor="start" x="232" y="-54" font-family="Helvetica,sans-Serif" font-size="10.00" fill="grey">defaultEnvelopeZ</text>
</g>
<!-- Node5 -->
<g id="Node000005" class="node">
<title>Node5</title>
<g id="a_Node000005"><a xlink:title=" ">
<polygon fill="white" stroke="#666666" points="286.5,-215 194.5,-215 194.5,-196 286.5,-196 286.5,-215"/>
<text text-anchor="middle" x="240.5" y="-203" font-family="Helvetica,sans-Serif" font-size="10.00">std::array&lt; T &gt;</text>
</a>
</g>
</g>
<!-- Node5&#45;&gt;Node4 -->
<g id="edge4_Node000004_Node000005" class="edge">
<title>Node5&#45;&gt;Node4</title>
<g id="a_edge4_Node000004_Node000005"><a xlink:title=" ">
<path fill="none" stroke="orange" stroke-dasharray="5,2" d="M240.5,-185.75C240.5,-166.34 240.5,-136.91 240.5,-122.52"/>
<polygon fill="orange" stroke="orange" points="237,-185.82 240.5,-195.82 244,-185.82 237,-185.82"/>
</a>
</g>
<text text-anchor="start" x="243.5" y="-159" font-family="Helvetica,sans-Serif" font-size="10.00" fill="grey">&lt; double, 2 &gt;</text>
</g>
</g>
</svg>
