<?xml version="1.0" encoding="UTF-8" standalone="no"?>
<!DOCTYPE svg PUBLIC "-//W3C//DTD SVG 1.1//EN"
 "http://www.w3.org/Graphics/SVG/1.1/DTD/svg11.dtd">
<!-- Generated by graphviz version 2.43.0 (0)
 -->
<!-- Title: Acts::PathSeeder::Config Pages: 1 -->
<svg width="916pt" height="291pt"
 viewBox="0.00 0.00 916.00 291.00" xmlns="http://www.w3.org/2000/svg" xmlns:xlink="http://www.w3.org/1999/xlink">
<g id="graph0" class="graph" transform="scale(1 1) rotate(0) translate(4 287)">
<title>Acts::PathSeeder::Config</title>
<!-- Node1 -->
<g id="Node000001" class="node">
<title>Node1</title>
<g id="a_Node000001"><a xlink:title="The nested configuration struct.">
<polygon fill="#999999" stroke="#666666" points="908,-112.5 773,-112.5 773,-93.5 908,-93.5 908,-112.5"/>
<text text-anchor="middle" x="840.5" y="-100.5" font-family="Helvetica,sans-Serif" font-size="10.00">Acts::PathSeeder::Config</text>
</a>
</g>
</g>
<!-- Node2 -->
<g id="Node000002" class="node">
<title>Node2</title>
<g id="a_Node000002"><a xlink:title=" ">
<polygon fill="white" stroke="#666666" points="640,-254 412,-254 412,-202 640,-202 640,-254"/>
<text text-anchor="start" x="420" y="-242" font-family="Helvetica,sans-Serif" font-size="10.00">Acts::Delegate&lt; std</text>
<text text-anchor="start" x="420" y="-231" font-family="Helvetica,sans-Serif" font-size="10.00">::pair&lt; BoundTrackParameters,</text>
<text text-anchor="start" x="420" y="-220" font-family="Helvetica,sans-Serif" font-size="10.00"> BoundTrackParameters &gt;(const</text>
<text text-anchor="middle" x="526" y="-209" font-family="Helvetica,sans-Serif" font-size="10.00"> GeometryContext &amp;, const SourceLink &amp;)&gt;</text>
</a>
</g>
</g>
<!-- Node2&#45;&gt;Node1 -->
<g id="edge1_Node000001_Node000002" class="edge">
<title>Node2&#45;&gt;Node1</title>
<g id="a_edge1_Node000001_Node000002"><a xlink:title=" ">
<path fill="none" stroke="#9a32cd" stroke-dasharray="5,2" d="M625.61,-198.82C666.35,-185.59 713.63,-168.73 755,-150 779.93,-138.72 807.37,-122.75 824.02,-112.63"/>
<polygon fill="#9a32cd" stroke="#9a32cd" points="624.39,-195.53 615.95,-201.92 626.54,-202.19 624.39,-195.53"/>
</a>
</g>
<text text-anchor="start" x="670.5" y="-191.5" font-family="Helvetica,sans-Serif" font-size="10.00" fill="grey">trackEstimator</text>
</g>
<!-- Node3 -->
<g id="Node000003" class="node">
<title>Node3</title>
<g id="a_Node000003"><a xlink:href="class_acts_1_1_delegate.html" target="_top" xlink:title=" ">
<polygon fill="white" stroke="#666666" points="152,-159 0,-159 0,-129 152,-129 152,-159"/>
<text text-anchor="start" x="8" y="-147" font-family="Helvetica,sans-Serif" font-size="10.00">Acts::Delegate&lt; typename,</text>
<text text-anchor="middle" x="76" y="-136" font-family="Helvetica,sans-Serif" font-size="10.00"> H, DelegateType &gt;</text>
</a>
</g>
</g>
<!-- Node3&#45;&gt;Node2 -->
<g id="edge2_Node000002_Node000003" class="edge">
<title>Node3&#45;&gt;Node2</title>
<g id="a_edge2_Node000002_Node000003"><a xlink:title=" ">
<path fill="none" stroke="orange" stroke-dasharray="5,2" d="M101.35,-165.92C119.04,-180.41 144.29,-198.27 170,-207 247.76,-233.39 340.54,-238.03 411.75,-236.39"/>
<polygon fill="orange" stroke="orange" points="103.21,-162.91 93.31,-159.14 98.7,-168.26 103.21,-162.91"/>
</a>
</g>
<text text-anchor="start" x="173" y="-271.5" font-family="Helvetica,sans-Serif" font-size="10.00" fill="grey">&lt; std::pair&lt; BoundTrackParameters,</text>
<text text-anchor="start" x="173" y="-256.5" font-family="Helvetica,sans-Serif" font-size="10.00" fill="grey">   BoundTrackParameters &gt;( const</text>
<text text-anchor="start" x="173" y="-241.5" font-family="Helvetica,sans-Serif" font-size="10.00" fill="grey">   GeometryContext &amp;, const SourceLink &amp;)&gt;</text>
</g>
<!-- Node4 -->
<g id="Node000004" class="node">
<title>Node4</title>
<g id="a_Node000004"><a xlink:title=" ">
<polygon fill="white" stroke="#666666" points="625.5,-181.5 426.5,-181.5 426.5,-118.5 625.5,-118.5 625.5,-181.5"/>
<text text-anchor="start" x="434.5" y="-169.5" font-family="Helvetica,sans-Serif" font-size="10.00">Acts::Delegate&lt; std</text>
<text text-anchor="start" x="434.5" y="-158.5" font-family="Helvetica,sans-Serif" font-size="10.00">::vector&lt; std::pair</text>
<text text-anchor="start" x="434.5" y="-147.5" font-family="Helvetica,sans-Serif" font-size="10.00">&lt; GeometryIdentifier,</text>
<text text-anchor="start" x="434.5" y="-136.5" font-family="Helvetica,sans-Serif" font-size="10.00"> Vector2 &gt; &gt;(const GeometryContext</text>
<text text-anchor="middle" x="526" y="-125.5" font-family="Helvetica,sans-Serif" font-size="10.00"> &amp;, const BoundTrackParameters &amp;)&gt;</text>
</a>
</g>
</g>
<!-- Node3&#45;&gt;Node4 -->
<g id="edge4_Node000004_Node000003" class="edge">
<title>Node3&#45;&gt;Node4</title>
<g id="a_edge4_Node000004_Node000003"><a xlink:title=" ">
<path fill="none" stroke="orange" stroke-dasharray="5,2" d="M162.28,-143.46C226.1,-143.25 315.53,-143.38 394,-145 404.47,-145.22 415.4,-145.52 426.3,-145.86"/>
<polygon fill="orange" stroke="orange" points="162.25,-139.96 152.27,-143.5 162.28,-146.96 162.25,-139.96"/>
</a>
</g>
<text text-anchor="start" x="186" y="-196" font-family="Helvetica,sans-Serif" font-size="10.00" fill="grey">&lt; std::vector&lt; std</text>
<text text-anchor="start" x="186" y="-181" font-family="Helvetica,sans-Serif" font-size="10.00" fill="grey">  ::pair&lt; GeometryIdentifier,</text>
<text text-anchor="start" x="186" y="-166" font-family="Helvetica,sans-Serif" font-size="10.00" fill="grey">   Vector2 &gt; &gt;( const GeometryContext</text>
<text text-anchor="start" x="186" y="-151" font-family="Helvetica,sans-Serif" font-size="10.00" fill="grey">   &amp;, const BoundTrackParameters &amp;)&gt;</text>
</g>
<!-- Node5 -->
<g id="Node000005" class="node">
<title>Node5</title>
<g id="a_Node000005"><a xlink:title=" ">
<polygon fill="white" stroke="#666666" points="614.5,-100 437.5,-100 437.5,-48 614.5,-48 614.5,-100"/>
<text text-anchor="start" x="445.5" y="-88" font-family="Helvetica,sans-Serif" font-size="10.00">Acts::Delegate&lt; std</text>
<text text-anchor="start" x="445.5" y="-77" font-family="Helvetica,sans-Serif" font-size="10.00">::pair&lt; double, double</text>
<text text-anchor="start" x="445.5" y="-66" font-family="Helvetica,sans-Serif" font-size="10.00"> &gt;(const GeometryContext</text>
<text text-anchor="middle" x="526" y="-55" font-family="Helvetica,sans-Serif" font-size="10.00"> &amp;, const GeometryIdentifier &amp;)&gt;</text>
</a>
</g>
</g>
<!-- Node3&#45;&gt;Node5 -->
<g id="edge6_Node000005_Node000003" class="edge">
<title>Node3&#45;&gt;Node5</title>
<g id="a_edge6_Node000005_Node000003"><a xlink:title=" ">
<path fill="none" stroke="orange" stroke-dasharray="5,2" d="M106.19,-123.07C123.78,-111.67 147.14,-98.58 170,-92 258.51,-66.52 364.48,-64.64 437.47,-67.49"/>
<polygon fill="orange" stroke="orange" points="103.93,-120.37 97.55,-128.83 107.82,-126.19 103.93,-120.37"/>
</a>
</g>
<text text-anchor="start" x="194" y="-127.5" font-family="Helvetica,sans-Serif" font-size="10.00" fill="grey">&lt; std::pair&lt; double,</text>
<text text-anchor="start" x="194" y="-112.5" font-family="Helvetica,sans-Serif" font-size="10.00" fill="grey">   double &gt;( const GeometryContext</text>
<text text-anchor="start" x="194" y="-97.5" font-family="Helvetica,sans-Serif" font-size="10.00" fill="grey">   &amp;, const GeometryIdentifier &amp;)&gt;</text>
</g>
<!-- Node4&#45;&gt;Node1 -->
<g id="edge3_Node000001_Node000004" class="edge">
<title>Node4&#45;&gt;Node1</title>
<g id="a_edge3_Node000001_Node000004"><a xlink:title=" ">
<path fill="none" stroke="#9a32cd" stroke-dasharray="5,2" d="M635.78,-133.64C682.69,-126.58 735.89,-118.58 776.17,-112.53"/>
<polygon fill="#9a32cd" stroke="#9a32cd" points="635.25,-130.18 625.88,-135.13 636.29,-137.1 635.25,-130.18"/>
</a>
</g>
<text text-anchor="start" x="662.5" y="-134.5" font-family="Helvetica,sans-Serif" font-size="10.00" fill="grey">intersectionFinder</text>
</g>
<!-- Node5&#45;&gt;Node1 -->
<g id="edge5_Node000001_Node000005" class="edge">
<title>Node5&#45;&gt;Node1</title>
<g id="a_edge5_Node000001_Node000005"><a xlink:title=" ">
<path fill="none" stroke="#9a32cd" stroke-dasharray="5,2" d="M624.99,-83.09C673,-87.55 729.59,-92.8 772.58,-96.79"/>
<polygon fill="#9a32cd" stroke="#9a32cd" points="625.16,-79.59 614.88,-82.16 624.51,-86.56 625.16,-79.59"/>
</a>
</g>
<text text-anchor="start" x="661.5" y="-99.5" font-family="Helvetica,sans-Serif" font-size="10.00" fill="grey">pathWidthProvider</text>
</g>
<!-- Node6 -->
<g id="Node000006" class="node">
<title>Node6</title>
<g id="a_Node000006"><a xlink:title=" ">
<polygon fill="white" stroke="#666666" points="586,-30 466,-30 466,0 586,0 586,-30"/>
<text text-anchor="start" x="474" y="-18" font-family="Helvetica,sans-Serif" font-size="10.00">std::vector&lt; Acts::</text>
<text text-anchor="middle" x="526" y="-7" font-family="Helvetica,sans-Serif" font-size="10.00">GeometryIdentifier &gt;</text>
</a>
</g>
</g>
<!-- Node6&#45;&gt;Node1 -->
<g id="edge7_Node000001_Node000006" class="edge">
<title>Node6&#45;&gt;Node1</title>
<g id="a_edge7_Node000001_Node000006"><a xlink:title=" ">
<path fill="none" stroke="#9a32cd" stroke-dasharray="5,2" d="M596.14,-26.2C641.89,-34.57 702.83,-47.57 755,-65 778.49,-72.85 804.3,-85.01 821.14,-93.45"/>
<polygon fill="#9a32cd" stroke="#9a32cd" points="596.49,-22.7 586.03,-24.38 595.25,-29.59 596.49,-22.7"/>
</a>
</g>
<text text-anchor="start" x="679.5" y="-70.5" font-family="Helvetica,sans-Serif" font-size="10.00" fill="grey">refLayerIds</text>
</g>
<!-- Node7 -->
<g id="Node000007" class="node">
<title>Node7</title>
<g id="a_Node000007"><a xlink:title=" ">
<polygon fill="white" stroke="#666666" points="124.5,-24.5 27.5,-24.5 27.5,-5.5 124.5,-5.5 124.5,-24.5"/>
<text text-anchor="middle" x="76" y="-12.5" font-family="Helvetica,sans-Serif" font-size="10.00">std::vector&lt; T &gt;</text>
</a>
</g>
</g>
<!-- Node7&#45;&gt;Node6 -->
<g id="edge8_Node000006_Node000007" class="edge">
<title>Node7&#45;&gt;Node6</title>
<g id="a_edge8_Node000006_Node000007"><a xlink:title=" ">
<path fill="none" stroke="orange" stroke-dasharray="5,2" d="M134.57,-15C220.04,-15 379.68,-15 465.98,-15"/>
<polygon fill="orange" stroke="orange" points="134.52,-11.5 124.52,-15 134.52,-18.5 134.52,-11.5"/>
</a>
</g>
<text text-anchor="start" x="211" y="-20.5" font-family="Helvetica,sans-Serif" font-size="10.00" fill="grey">&lt; Acts::GeometryIdentifier &gt;</text>
</g>
</g>
</svg>
