<?xml version="1.0" encoding="UTF-8" standalone="no"?>
<!DOCTYPE svg PUBLIC "-//W3C//DTD SVG 1.1//EN"
 "http://www.w3.org/Graphics/SVG/1.1/DTD/svg11.dtd">
<!-- Generated by graphviz version 2.43.0 (0)
 -->
<!-- Title: Acts::PropagatorResult&lt; parameters_t, result_list &gt; Pages: 1 -->
<svg width="346pt" height="204pt"
 viewBox="0.00 0.00 346.00 204.00" xmlns="http://www.w3.org/2000/svg" xmlns:xlink="http://www.w3.org/1999/xlink">
<g id="graph0" class="graph" transform="scale(1 1) rotate(0) translate(4 200)">
<title>Acts::PropagatorResult&lt; parameters_t, result_list &gt;</title>
<!-- Node1 -->
<g id="Node000001" class="node">
<title>Node1</title>
<g id="a_Node000001"><a xlink:title="Simple class holding result of propagation call.">
<polygon fill="#999999" stroke="#666666" points="132.5,-41 4.5,-41 4.5,0 132.5,0 132.5,-41"/>
<text text-anchor="start" x="12.5" y="-29" font-family="Helvetica,sans-Serif" font-size="10.00">Acts::PropagatorResult</text>
<text text-anchor="start" x="12.5" y="-18" font-family="Helvetica,sans-Serif" font-size="10.00">&lt; parameters_t, result</text>
<text text-anchor="middle" x="68.5" y="-7" font-family="Helvetica,sans-Serif" font-size="10.00">_list &gt;</text>
</a>
</g>
</g>
<!-- Node2 -->
<g id="Node000002" class="node">
<title>Node2</title>
<g id="a_Node000002"><a xlink:title=" ">
<polygon fill="white" stroke="#666666" points="105,-124 0,-124 0,-94 105,-94 105,-124"/>
<text text-anchor="start" x="8" y="-112" font-family="Helvetica,sans-Serif" font-size="10.00">detail::Extendable</text>
<text text-anchor="middle" x="52.5" y="-101" font-family="Helvetica,sans-Serif" font-size="10.00">&lt; result_list... &gt;</text>
</a>
</g>
</g>
<!-- Node2&#45;&gt;Node1 -->
<g id="edge1_Node000001_Node000002" class="edge">
<title>Node2&#45;&gt;Node1</title>
<g id="a_edge1_Node000001_Node000002"><a xlink:title=" ">
<path fill="none" stroke="#8b1a1a" d="M56.98,-83.75C59.46,-70.36 62.5,-53.93 64.84,-41.31"/>
<polygon fill="#8b1a1a" stroke="#8b1a1a" points="53.52,-83.25 55.14,-93.72 60.4,-84.52 53.52,-83.25"/>
</a>
</g>
</g>
<!-- Node3 -->
<g id="Node000003" class="node">
<title>Node3</title>
<g id="a_Node000003"><a xlink:href="struct_acts_1_1_propagator_statistics.html" target="_top" xlink:title="A struct to hold statistics of the propagator.">
<polygon fill="white" stroke="#666666" points="265.5,-118.5 123.5,-118.5 123.5,-99.5 265.5,-99.5 265.5,-118.5"/>
<text text-anchor="middle" x="194.5" y="-106.5" font-family="Helvetica,sans-Serif" font-size="10.00">Acts::PropagatorStatistics</text>
</a>
</g>
</g>
<!-- Node3&#45;&gt;Node1 -->
<g id="edge2_Node000001_Node000003" class="edge">
<title>Node3&#45;&gt;Node1</title>
<g id="a_edge2_Node000001_Node000003"><a xlink:title=" ">
<path fill="none" stroke="#9a32cd" stroke-dasharray="5,2" d="M173.47,-93.57C152.53,-79.19 120.24,-57.02 97,-41.07"/>
<polygon fill="#9a32cd" stroke="#9a32cd" points="171.73,-96.62 181.96,-99.39 175.69,-90.84 171.73,-96.62"/>
</a>
</g>
<text text-anchor="start" x="150" y="-64.5" font-family="Helvetica,sans-Serif" font-size="10.00" fill="grey">statistics</text>
</g>
<!-- Node4 -->
<g id="Node000004" class="node">
<title>Node4</title>
<g id="a_Node000004"><a xlink:href="struct_acts_1_1_stepper_statistics.html" target="_top" xlink:title="A struct to hold statistics of the stepper.">
<polygon fill="white" stroke="#666666" points="182.5,-196 56.5,-196 56.5,-177 182.5,-177 182.5,-196"/>
<text text-anchor="middle" x="119.5" y="-184" font-family="Helvetica,sans-Serif" font-size="10.00">Acts::StepperStatistics</text>
</a>
</g>
</g>
<!-- Node4&#45;&gt;Node3 -->
<g id="edge3_Node000003_Node000004" class="edge">
<title>Node4&#45;&gt;Node3</title>
<g id="a_edge3_Node000003_Node000004"><a xlink:title=" ">
<path fill="none" stroke="#9a32cd" stroke-dasharray="5,2" d="M135.41,-169.48C150.87,-153.93 173.73,-130.9 186,-118.56"/>
<polygon fill="#9a32cd" stroke="#9a32cd" points="132.67,-167.28 128.1,-176.84 137.63,-172.21 132.67,-167.28"/>
</a>
</g>
<text text-anchor="start" x="165" y="-147.5" font-family="Helvetica,sans-Serif" font-size="10.00" fill="grey">stepping</text>
</g>
<!-- Node5 -->
<g id="Node000005" class="node">
<title>Node5</title>
<g id="a_Node000005"><a xlink:href="struct_acts_1_1_navigator_statistics.html" target="_top" xlink:title="A struct to hold statistics of the navigator.">
<polygon fill="white" stroke="#666666" points="338,-196 201,-196 201,-177 338,-177 338,-196"/>
<text text-anchor="middle" x="269.5" y="-184" font-family="Helvetica,sans-Serif" font-size="10.00">Acts::NavigatorStatistics</text>
</a>
</g>
</g>
<!-- Node5&#45;&gt;Node3 -->
<g id="edge4_Node000003_Node000005" class="edge">
<title>Node5&#45;&gt;Node3</title>
<g id="a_edge4_Node000003_Node000005"><a xlink:title=" ">
<path fill="none" stroke="#9a32cd" stroke-dasharray="5,2" d="M253.59,-169.48C238.13,-153.93 215.27,-130.9 203,-118.56"/>
<polygon fill="#9a32cd" stroke="#9a32cd" points="251.37,-172.21 260.9,-176.84 256.33,-167.28 251.37,-172.21"/>
</a>
</g>
<text text-anchor="start" x="245.5" y="-147.5" font-family="Helvetica,sans-Serif" font-size="10.00" fill="grey">navigation</text>
</g>
</g>
</svg>
