<?xml version="1.0" encoding="UTF-8" standalone="no"?>
<!DOCTYPE svg PUBLIC "-//W3C//DTD SVG 1.1//EN"
 "http://www.w3.org/Graphics/SVG/1.1/DTD/svg11.dtd">
<!-- Generated by graphviz version 2.43.0 (0)
 -->
<!-- Title: Acts::KDTreeTrackingGeometryBuilder::Config Pages: 1 -->
<svg width="1120pt" height="288pt"
 viewBox="0.00 0.00 1120.00 287.72" xmlns="http://www.w3.org/2000/svg" xmlns:xlink="http://www.w3.org/1999/xlink">
<g id="graph0" class="graph" transform="scale(1 1) rotate(0) translate(4 283.72)">
<title>Acts::KDTreeTrackingGeometryBuilder::Config</title>
<!-- Node1 -->
<g id="Node000001" class="node">
<title>Node1</title>
<g id="a_Node000001"><a xlink:title="Nested Configuration for this TrackingGeometryBuilder.">
<polygon fill="#999999" stroke="#666666" points="1112,-137.72 945,-137.72 945,-107.72 1112,-107.72 1112,-137.72"/>
<text text-anchor="start" x="953" y="-125.72" font-family="Helvetica,sans-Serif" font-size="10.00">Acts::KDTreeTrackingGeometry</text>
<text text-anchor="middle" x="1028.5" y="-114.72" font-family="Helvetica,sans-Serif" font-size="10.00">Builder::Config</text>
</a>
</g>
</g>
<!-- Node2 -->
<g id="Node000002" class="node">
<title>Node2</title>
<g id="a_Node000002"><a xlink:title=" ">
<polygon fill="white" stroke="#666666" points="783,-211.72 613,-211.72 613,-181.72 783,-181.72 783,-211.72"/>
<text text-anchor="start" x="621" y="-199.72" font-family="Helvetica,sans-Serif" font-size="10.00">std::shared_ptr&lt; const</text>
<text text-anchor="middle" x="698" y="-188.72" font-family="Helvetica,sans-Serif" font-size="10.00"> Acts::ITrackingVolumeHelper &gt;</text>
</a>
</g>
</g>
<!-- Node2&#45;&gt;Node1 -->
<g id="edge1_Node000001_Node000002" class="edge">
<title>Node2&#45;&gt;Node1</title>
<g id="a_edge1_Node000001_Node000002"><a xlink:title=" ">
<path fill="none" stroke="#9a32cd" stroke-dasharray="5,2" d="M793.32,-186.24C834.74,-180.51 883.7,-172.19 927,-160.72 949.36,-154.79 973.64,-145.69 992.73,-137.88"/>
<polygon fill="#9a32cd" stroke="#9a32cd" points="792.68,-182.8 783.24,-187.61 793.62,-189.73 792.68,-182.8"/>
</a>
</g>
<text text-anchor="start" x="811.5" y="-189.22" font-family="Helvetica,sans-Serif" font-size="10.00" fill="grey">trackingVolumeHelper</text>
</g>
<!-- Node3 -->
<g id="Node000003" class="node">
<title>Node3</title>
<g id="a_Node000003"><a xlink:title=" ">
<polygon fill="white" stroke="#666666" points="408,-205.22 290,-205.22 290,-186.22 408,-186.22 408,-205.22"/>
<text text-anchor="middle" x="349" y="-193.22" font-family="Helvetica,sans-Serif" font-size="10.00">std::shared_ptr&lt; T &gt;</text>
</a>
</g>
</g>
<!-- Node3&#45;&gt;Node2 -->
<g id="edge2_Node000002_Node000003" class="edge">
<title>Node3&#45;&gt;Node2</title>
<g id="a_edge2_Node000002_Node000003"><a xlink:title=" ">
<path fill="none" stroke="orange" stroke-dasharray="5,2" d="M418.21,-195.92C473.95,-196.08 553.01,-196.3 612.71,-196.48"/>
<polygon fill="orange" stroke="orange" points="418.09,-192.42 408.08,-195.89 418.07,-199.42 418.09,-192.42"/>
</a>
</g>
<text text-anchor="start" x="435" y="-216.72" font-family="Helvetica,sans-Serif" font-size="10.00" fill="grey">&lt; const Acts::ITrackingVolume</text>
<text text-anchor="start" x="435" y="-201.72" font-family="Helvetica,sans-Serif" font-size="10.00" fill="grey">  Helper &gt;</text>
</g>
<!-- Node4 -->
<g id="Node000004" class="node">
<title>Node4</title>
<g id="a_Node000004"><a xlink:title=" ">
<polygon fill="white" stroke="#666666" points="761.5,-163.72 634.5,-163.72 634.5,-133.72 761.5,-133.72 761.5,-163.72"/>
<text text-anchor="start" x="642.5" y="-151.72" font-family="Helvetica,sans-Serif" font-size="10.00">std::shared_ptr&lt; const</text>
<text text-anchor="middle" x="698" y="-140.72" font-family="Helvetica,sans-Serif" font-size="10.00"> Acts::LayerCreator &gt;</text>
</a>
</g>
</g>
<!-- Node3&#45;&gt;Node4 -->
<g id="edge4_Node000004_Node000003" class="edge">
<title>Node3&#45;&gt;Node4</title>
<g id="a_edge4_Node000004_Node000003"><a xlink:title=" ">
<path fill="none" stroke="orange" stroke-dasharray="5,2" d="M389.86,-183.3C401.42,-180.08 414.13,-176.91 426,-174.72 496.76,-161.65 579.21,-154.93 634.41,-151.63"/>
<polygon fill="orange" stroke="orange" points="388.69,-180 380.04,-186.12 390.62,-186.73 388.69,-180"/>
</a>
</g>
<text text-anchor="start" x="438" y="-180.22" font-family="Helvetica,sans-Serif" font-size="10.00" fill="grey">&lt; const Acts::LayerCreator &gt;</text>
</g>
<!-- Node12 -->
<g id="Node000012" class="node">
<title>Node12</title>
<g id="a_Node000012"><a xlink:title=" ">
<polygon fill="white" stroke="#666666" points="786,-262.72 610,-262.72 610,-232.72 786,-232.72 786,-262.72"/>
<text text-anchor="start" x="618" y="-250.72" font-family="Helvetica,sans-Serif" font-size="10.00">std::shared_ptr&lt; const</text>
<text text-anchor="middle" x="698" y="-239.72" font-family="Helvetica,sans-Serif" font-size="10.00"> Acts::GeometryIdentifierHook &gt;</text>
</a>
</g>
</g>
<!-- Node3&#45;&gt;Node12 -->
<g id="edge14_Node000012_Node000003" class="edge">
<title>Node3&#45;&gt;Node12</title>
<g id="a_edge14_Node000012_Node000003"><a xlink:title=" ">
<path fill="none" stroke="orange" stroke-dasharray="5,2" d="M376.7,-209.97C390.93,-216.88 408.97,-224.56 426,-228.72 486.25,-243.45 556.1,-248.06 609.8,-249.06"/>
<polygon fill="orange" stroke="orange" points="378.03,-206.72 367.52,-205.37 374.89,-212.98 378.03,-206.72"/>
</a>
</g>
<text text-anchor="start" x="429" y="-268.72" font-family="Helvetica,sans-Serif" font-size="10.00" fill="grey">&lt; const Acts::GeometryIdentifier</text>
<text text-anchor="start" x="429" y="-253.72" font-family="Helvetica,sans-Serif" font-size="10.00" fill="grey">  Hook &gt;</text>
</g>
<!-- Node4&#45;&gt;Node1 -->
<g id="edge3_Node000001_Node000004" class="edge">
<title>Node4&#45;&gt;Node1</title>
<g id="a_edge3_Node000001_Node000004"><a xlink:title=" ">
<path fill="none" stroke="#9a32cd" stroke-dasharray="5,2" d="M771.57,-142.98C822.83,-138.92 891.62,-133.47 944.98,-129.25"/>
<polygon fill="#9a32cd" stroke="#9a32cd" points="771.25,-139.49 761.56,-143.77 771.81,-146.47 771.25,-139.49"/>
</a>
</g>
<text text-anchor="start" x="835.5" y="-145.22" font-family="Helvetica,sans-Serif" font-size="10.00" fill="grey">layerCreator</text>
</g>
<!-- Node5 -->
<g id="Node000005" class="node">
<title>Node5</title>
<g id="a_Node000005"><a xlink:title=" ">
<polygon fill="white" stroke="#666666" points="765,-115.72 631,-115.72 631,-85.72 765,-85.72 765,-115.72"/>
<text text-anchor="start" x="639" y="-103.72" font-family="Helvetica,sans-Serif" font-size="10.00">std::vector&lt; std::shared</text>
<text text-anchor="middle" x="698" y="-92.72" font-family="Helvetica,sans-Serif" font-size="10.00">_ptr&lt; Acts::Surface &gt; &gt;</text>
</a>
</g>
</g>
<!-- Node5&#45;&gt;Node1 -->
<g id="edge5_Node000001_Node000005" class="edge">
<title>Node5&#45;&gt;Node1</title>
<g id="a_edge5_Node000001_Node000005"><a xlink:title=" ">
<path fill="none" stroke="#9a32cd" stroke-dasharray="5,2" d="M775.59,-100.83C819.9,-101.45 876.68,-103.21 927,-107.72 932.8,-108.24 938.77,-108.87 944.78,-109.59"/>
<polygon fill="#9a32cd" stroke="#9a32cd" points="775.51,-97.33 765.47,-100.7 775.42,-104.33 775.51,-97.33"/>
</a>
</g>
<text text-anchor="start" x="844.5" y="-113.22" font-family="Helvetica,sans-Serif" font-size="10.00" fill="grey">surfaces</text>
</g>
<!-- Node6 -->
<g id="Node000006" class="node">
<title>Node6</title>
<g id="a_Node000006"><a xlink:title=" ">
<polygon fill="white" stroke="#666666" points="397.5,-110.22 300.5,-110.22 300.5,-91.22 397.5,-91.22 397.5,-110.22"/>
<text text-anchor="middle" x="349" y="-98.22" font-family="Helvetica,sans-Serif" font-size="10.00">std::vector&lt; T &gt;</text>
</a>
</g>
</g>
<!-- Node6&#45;&gt;Node5 -->
<g id="edge6_Node000005_Node000006" class="edge">
<title>Node6&#45;&gt;Node5</title>
<g id="a_edge6_Node000005_Node000006"><a xlink:title=" ">
<path fill="none" stroke="orange" stroke-dasharray="5,2" d="M407.82,-100.72C469.27,-100.72 566.31,-100.72 630.79,-100.72"/>
<polygon fill="orange" stroke="orange" points="407.52,-97.22 397.52,-100.72 407.52,-104.22 407.52,-97.22"/>
</a>
</g>
<text text-anchor="start" x="461" y="-121.72" font-family="Helvetica,sans-Serif" font-size="10.00" fill="grey">&lt; std::shared_ptr&lt;</text>
<text text-anchor="start" x="461" y="-106.72" font-family="Helvetica,sans-Serif" font-size="10.00" fill="grey">   Acts::Surface &gt; &gt;</text>
</g>
<!-- Node7 -->
<g id="Node000007" class="node">
<title>Node7</title>
<g id="a_Node000007"><a xlink:href="struct_acts_1_1_proto_detector.html" target="_top" xlink:title="A proto detector description being used to define an overall structure of either a TrackingGeometry o...">
<polygon fill="white" stroke="#666666" points="753.5,-67.22 642.5,-67.22 642.5,-48.22 753.5,-48.22 753.5,-67.22"/>
<text text-anchor="middle" x="698" y="-55.22" font-family="Helvetica,sans-Serif" font-size="10.00">Acts::ProtoDetector</text>
</a>
</g>
</g>
<!-- Node7&#45;&gt;Node1 -->
<g id="edge7_Node000001_Node000007" class="edge">
<title>Node7&#45;&gt;Node1</title>
<g id="a_edge7_Node000001_Node000007"><a xlink:title=" ">
<path fill="none" stroke="#9a32cd" stroke-dasharray="5,2" d="M763.87,-58.69C810,-60.65 873.09,-65.94 927,-79.72 952.19,-86.16 979.2,-98.02 998.87,-107.66"/>
<polygon fill="#9a32cd" stroke="#9a32cd" points="763.83,-55.18 753.71,-58.3 763.57,-62.18 763.83,-55.18"/>
</a>
</g>
<text text-anchor="start" x="831.5" y="-85.22" font-family="Helvetica,sans-Serif" font-size="10.00" fill="grey">protoDetector</text>
</g>
<!-- Node8 -->
<g id="Node000008" class="node">
<title>Node8</title>
<g id="a_Node000008"><a xlink:title=" ">
<polygon fill="white" stroke="#666666" points="211,-28.22 146,-28.22 146,-9.22 211,-9.22 211,-28.22"/>
<text text-anchor="middle" x="178.5" y="-16.22" font-family="Helvetica,sans-Serif" font-size="10.00">std::string</text>
</a>
</g>
</g>
<!-- Node8&#45;&gt;Node1 -->
<g id="edge15_Node000001_Node000008" class="edge">
<title>Node8&#45;&gt;Node1</title>
<g id="a_edge15_Node000001_Node000008"><a xlink:title=" ">
<path fill="none" stroke="#9a32cd" stroke-dasharray="5,2" d="M221.21,-16.51C270.22,-14.04 353.99,-10.18 426,-8.72 649.64,-4.19 717.79,22.43 927,-56.72 958.82,-68.76 990.87,-92.22 1009.95,-107.68"/>
<polygon fill="#9a32cd" stroke="#9a32cd" points="220.81,-13.03 211.01,-17.03 221.17,-20.02 220.81,-13.03"/>
</a>
</g>
<text text-anchor="start" x="471" y="-14.22" font-family="Helvetica,sans-Serif" font-size="10.00" fill="grey">hierarchyIndent</text>
</g>
<!-- Node8&#45;&gt;Node7 -->
<g id="edge8_Node000007_Node000008" class="edge">
<title>Node8&#45;&gt;Node7</title>
<g id="a_edge8_Node000007_Node000008"><a xlink:title=" ">
<path fill="none" stroke="#9a32cd" stroke-dasharray="5,2" d="M221.48,-19.57C267.35,-20.68 342.97,-23.07 408,-27.72 489.89,-33.58 584.46,-44.11 642.49,-51.01"/>
<polygon fill="#9a32cd" stroke="#9a32cd" points="221.4,-16.06 211.33,-19.33 221.24,-23.06 221.4,-16.06"/>
</a>
</g>
<text text-anchor="start" x="335" y="-33.22" font-family="Helvetica,sans-Serif" font-size="10.00" fill="grey">name</text>
</g>
<!-- Node10 -->
<g id="Node000010" class="node">
<title>Node10</title>
<g id="a_Node000010"><a xlink:href="struct_acts_1_1_proto_volume.html" target="_top" xlink:title="A proto volume description being used to define an overall structure of either a TrackingVolume or Ex...">
<polygon fill="white" stroke="#666666" points="402,-73.22 296,-73.22 296,-54.22 402,-54.22 402,-73.22"/>
<text text-anchor="middle" x="349" y="-61.22" font-family="Helvetica,sans-Serif" font-size="10.00">Acts::ProtoVolume</text>
</a>
</g>
</g>
<!-- Node8&#45;&gt;Node10 -->
<g id="edge11_Node000010_Node000008" class="edge">
<title>Node8&#45;&gt;Node10</title>
<g id="a_edge11_Node000010_Node000008"><a xlink:title=" ">
<path fill="none" stroke="#9a32cd" stroke-dasharray="5,2" d="M221.1,-29.83C249.12,-37.31 285.68,-47.08 312.37,-54.2"/>
<polygon fill="#9a32cd" stroke="#9a32cd" points="221.76,-26.38 211.19,-27.18 219.95,-33.15 221.76,-26.38"/>
</a>
</g>
<text text-anchor="start" x="239" y="-48.22" font-family="Helvetica,sans-Serif" font-size="10.00" fill="grey">name</text>
</g>
<!-- Node9 -->
<g id="Node000009" class="node">
<title>Node9</title>
<g id="a_Node000009"><a xlink:title=" ">
<polygon fill="white" stroke="#666666" points="104,-33.72 0,-33.72 0,-3.72 104,-3.72 104,-33.72"/>
<text text-anchor="start" x="8" y="-21.72" font-family="Helvetica,sans-Serif" font-size="10.00">std::basic_string&lt;</text>
<text text-anchor="middle" x="52" y="-10.72" font-family="Helvetica,sans-Serif" font-size="10.00"> Char &gt;</text>
</a>
</g>
</g>
<!-- Node9&#45;&gt;Node8 -->
<g id="edge9_Node000008_Node000009" class="edge">
<title>Node9&#45;&gt;Node8</title>
<g id="a_edge9_Node000008_Node000009"><a xlink:title=" ">
<path fill="none" stroke="#63b8ff" d="M114.67,-18.72C125.48,-18.72 136.31,-18.72 145.86,-18.72"/>
<polygon fill="#63b8ff" stroke="#63b8ff" points="114.36,-15.22 104.36,-18.72 114.36,-22.22 114.36,-15.22"/>
</a>
</g>
</g>
<!-- Node10&#45;&gt;Node7 -->
<g id="edge10_Node000007_Node000010" class="edge">
<title>Node10&#45;&gt;Node7</title>
<g id="a_edge10_Node000007_Node000010"><a xlink:title=" ">
<path fill="none" stroke="#9a32cd" stroke-dasharray="5,2" d="M412.51,-62.64C477.99,-61.51 579.82,-59.75 642.24,-58.67"/>
<polygon fill="#9a32cd" stroke="#9a32cd" points="412.26,-59.14 402.33,-62.81 412.38,-66.14 412.26,-59.14"/>
</a>
</g>
<text text-anchor="start" x="477" y="-67.22" font-family="Helvetica,sans-Serif" font-size="10.00" fill="grey">worldVolume</text>
</g>
<!-- Node11 -->
<g id="Node000011" class="node">
<title>Node11</title>
<g id="a_Node000011"><a xlink:href="class_acts_1_1_extent.html" target="_top" xlink:title="A class representing the geometric extent of an object in its possible dimensions,...">
<polygon fill="white" stroke="#666666" points="216,-101.22 141,-101.22 141,-82.22 216,-82.22 216,-101.22"/>
<text text-anchor="middle" x="178.5" y="-89.22" font-family="Helvetica,sans-Serif" font-size="10.00">Acts::Extent</text>
</a>
</g>
</g>
<!-- Node11&#45;&gt;Node10 -->
<g id="edge12_Node000010_Node000011" class="edge">
<title>Node11&#45;&gt;Node10</title>
<g id="a_edge12_Node000010_Node000011"><a xlink:title=" ">
<path fill="none" stroke="#9a32cd" stroke-dasharray="5,2" d="M226.01,-83.99C247.67,-80.39 273.52,-76.1 295.84,-72.39"/>
<polygon fill="#9a32cd" stroke="#9a32cd" points="225.35,-80.55 216.06,-85.64 226.5,-87.46 225.35,-80.55"/>
</a>
</g>
<text text-anchor="start" x="237" y="-87.22" font-family="Helvetica,sans-Serif" font-size="10.00" fill="grey">extent</text>
</g>
<!-- Node12&#45;&gt;Node1 -->
<g id="edge13_Node000001_Node000012" class="edge">
<title>Node12&#45;&gt;Node1</title>
<g id="a_edge13_Node000001_Node000012"><a xlink:title=" ">
<path fill="none" stroke="#9a32cd" stroke-dasharray="5,2" d="M795.93,-240.2C837.73,-234.27 886.26,-223.67 927,-204.72 962.32,-188.29 995.8,-156.62 1013.8,-137.81"/>
<polygon fill="#9a32cd" stroke="#9a32cd" points="795.46,-236.73 786.02,-241.54 796.4,-243.67 795.46,-236.73"/>
</a>
</g>
<text text-anchor="start" x="807.5" y="-243.22" font-family="Helvetica,sans-Serif" font-size="10.00" fill="grey">geometryIdentifierHook</text>
</g>
</g>
</svg>
