<?xml version="1.0" encoding="UTF-8" standalone="no"?>
<!DOCTYPE svg PUBLIC "-//W3C//DTD SVG 1.1//EN"
 "http://www.w3.org/Graphics/SVG/1.1/DTD/svg11.dtd">
<!-- Generated by graphviz version 2.43.0 (0)
 -->
<!-- Title: ActsPlugins::Svg::SurfaceArrayConverter::Options Pages: 1 -->
<!--zoomable 166 -->

<svg id="main" version="1.1" xmlns="http://www.w3.org/2000/svg" xmlns:xlink="http://www.w3.org/1999/xlink" xml:space="preserve" onload="init(evt)">

<style type="text/css"><![CDATA[
.node, .edge {opacity: 0.7;}
.node.selected, .edge.selected {opacity: 1;}
.edge:hover path { stroke: red; }
.edge:hover polygon { stroke: red; fill: red; }
]]></style>

<defs>
  <circle id="rim" cx="0" cy="0" r="7"/>
  <circle id="rim2" cx="0" cy="0" r="3.5"/>
  <g id="zoomPlus">
    <use xlink:href="#rim" fill="#404040"><set attributeName="fill" to="#808080" begin="zoomplus.mouseover" end="zoomplus.mouseout"/></use>
    <path d="M-4,0h8M0,-4v8" fill="none" stroke="white" stroke-width="1.5" pointer-events="none"/>
  </g>
  <g id="zoomMin">
    <use xlink:href="#rim" fill="#404040"><set attributeName="fill" to="#808080" begin="zoomminus.mouseover" end="zoomminus.mouseout"/></use>
    <path d="M-4,0h8" fill="none" stroke="white" stroke-width="1.5" pointer-events="none"/>
  </g>
  <g id="arrowUp" transform="translate(30 24)">
    <use xlink:href="#rim"/>
    <path pointer-events="none" fill="none" stroke="white" stroke-width="1.5" d="M0,-3.0v7 M-2.5,-0.5L0,-3.0L2.5,-0.5"/>
  </g>
  <g id="arrowRight" transform="rotate(90) translate(36 -43)">
    <use xlink:href="#rim"/>
    <path pointer-events="none" fill="none" stroke="white" stroke-width="1.5" d="M0,-3.0v7 M-2.5,-0.5L0,-3.0L2.5,-0.5"/>
  </g>
  <g id="arrowDown" transform="rotate(180) translate(-30 -48)">
    <use xlink:href="#rim"/>
    <path pointer-events="none" fill="none" stroke="white" stroke-width="1.5" d="M0,-3.0v7 M-2.5,-0.5L0,-3.0L2.5,-0.5"/>
  </g>
  <g id="arrowLeft" transform="rotate(270) translate(-36 17)">
    <use xlink:href="#rim"/>
    <path pointer-events="none" fill="none" stroke="white" stroke-width="1.5" d="M0,-3.0v7 M-2.5,-0.5L0,-3.0L2.5,-0.5"/>
  </g>
  <g id="resetDef">
    <use xlink:href="#rim2" fill="#404040"><set attributeName="fill" to="#808080" begin="reset.mouseover" end="reset.mouseout"/></use>
  </g>
</defs>
<script type="application/ecmascript">
var viewWidth = 1216;
var viewHeight = 166;
var sectionId = 'dynsection-0';
</script>
<script type="application/ecmascript" xlink:href="svg.min.js"/>
<svg id="graph" class="graph">
<g id="viewport">
<title>ActsPlugins::Svg::SurfaceArrayConverter::Options</title>
<!-- Node1 -->
<g id="Node000001" class="node">
<title>Node1</title>
<g id="a_Node000001"><a xlink:title="Nested options struct.">
<polygon fill="#999999" stroke="#666666" points="1208,-88.5 1068,-88.5 1068,-58.5 1208,-58.5 1208,-88.5"/>
<text text-anchor="start" x="1076" y="-76.5" font-family="Helvetica,sans-Serif" font-size="10.00">ActsPlugins::Svg::Surface</text>
<text text-anchor="middle" x="1138" y="-65.5" font-family="Helvetica,sans-Serif" font-size="10.00">ArrayConverter::Options</text>
</a>
</g>
</g>
<!-- Node2 -->
<g id="Node000002" class="node">
<title>Node2</title>
<g id="a_Node000002"><a xlink:href="class_acts_1_1_geometry_hierarchy_map.html" target="_top" xlink:title=" ">
<polygon fill="white" stroke="#666666" points="954,-112.5 793,-112.5 793,-82.5 954,-82.5 954,-112.5"/>
<text text-anchor="start" x="801" y="-100.5" font-family="Helvetica,sans-Serif" font-size="10.00">Acts::GeometryHierarchyMap</text>
<text text-anchor="middle" x="873.5" y="-89.5" font-family="Helvetica,sans-Serif" font-size="10.00">&lt; ActsPlugins::Svg::Style &gt;</text>
</a>
</g>
</g>
<!-- Node2&#45;&gt;Node1 -->
<g id="edge1_Node000001_Node000002" class="edge">
<title>Node2&#45;&gt;Node1</title>
<g id="a_edge1_Node000001_Node000002"><a xlink:title=" ">
<path fill="none" stroke="#9a32cd" stroke-dasharray="5,2" d="M964.66,-89.26C998.41,-86.17 1036.2,-82.72 1067.76,-79.83"/>
<polygon fill="#9a32cd" stroke="#9a32cd" points="963.97,-85.81 954.33,-90.2 964.6,-92.78 963.97,-85.81"/>
</a>
</g>
<text text-anchor="start" x="980.5" y="-93" font-family="Helvetica,sans-Serif" font-size="10.00" fill="grey">surfaceStyles</text>
</g>
<!-- Node3 -->
<g id="Node000003" class="node">
<title>Node3</title>
<g id="a_Node000003"><a xlink:href="class_acts_1_1_geometry_hierarchy_map.html" target="_top" xlink:title="Store values mapped into the geometry hierarchy.">
<polygon fill="white" stroke="#666666" points="654,-112.5 493,-112.5 493,-82.5 654,-82.5 654,-112.5"/>
<text text-anchor="start" x="501" y="-100.5" font-family="Helvetica,sans-Serif" font-size="10.00">Acts::GeometryHierarchyMap</text>
<text text-anchor="middle" x="573.5" y="-89.5" font-family="Helvetica,sans-Serif" font-size="10.00">&lt; value_t &gt;</text>
</a>
</g>
</g>
<!-- Node3&#45;&gt;Node2 -->
<g id="edge2_Node000002_Node000003" class="edge">
<title>Node3&#45;&gt;Node2</title>
<g id="a_edge2_Node000002_Node000003"><a xlink:title=" ">
<path fill="none" stroke="orange" stroke-dasharray="5,2" d="M664.59,-97.5C705.47,-97.5 753.41,-97.5 792.94,-97.5"/>
<polygon fill="orange" stroke="orange" points="664.36,-94 654.36,-97.5 664.36,-101 664.36,-94"/>
</a>
</g>
<text text-anchor="start" x="675" y="-118.5" font-family="Helvetica,sans-Serif" font-size="10.00" fill="grey">&lt; ActsPlugins::Svg</text>
<text text-anchor="start" x="675" y="-103.5" font-family="Helvetica,sans-Serif" font-size="10.00" fill="grey">  ::Style &gt;</text>
</g>
<!-- Node4 -->
<g id="Node000004" class="node">
<title>Node4</title>
<g id="a_Node000004"><a xlink:href="struct_acts_plugins_1_1_svg_1_1_grid_converter_1_1_options.html" target="_top" xlink:title="Nested Options struct.">
<polygon fill="white" stroke="#666666" points="959,-64.5 788,-64.5 788,-34.5 959,-34.5 959,-64.5"/>
<text text-anchor="start" x="796" y="-52.5" font-family="Helvetica,sans-Serif" font-size="10.00">ActsPlugins::Svg::GridConverter</text>
<text text-anchor="middle" x="873.5" y="-41.5" font-family="Helvetica,sans-Serif" font-size="10.00">::Options</text>
</a>
</g>
</g>
<!-- Node4&#45;&gt;Node1 -->
<g id="edge3_Node000001_Node000004" class="edge">
<title>Node4&#45;&gt;Node1</title>
<g id="a_edge3_Node000001_Node000004"><a xlink:title=" ">
<path fill="none" stroke="#9a32cd" stroke-dasharray="5,2" d="M969.68,-53.97C995.76,-55.61 1024,-57.75 1050,-60.5 1055.77,-61.11 1061.75,-61.83 1067.74,-62.6"/>
<polygon fill="#9a32cd" stroke="#9a32cd" points="969.62,-50.46 959.43,-53.35 969.19,-57.45 969.62,-50.46"/>
</a>
</g>
<text text-anchor="start" x="985.5" y="-66" font-family="Helvetica,sans-Serif" font-size="10.00" fill="grey">gridOptions</text>
</g>
<!-- Node5 -->
<g id="Node000005" class="node">
<title>Node5</title>
<g id="a_Node000005"><a xlink:href="struct_acts_plugins_1_1_svg_1_1_style.html" target="_top" xlink:title="Style struct.">
<polygon fill="white" stroke="#666666" points="637.5,-59 509.5,-59 509.5,-40 637.5,-40 637.5,-59"/>
<text text-anchor="middle" x="573.5" y="-47" font-family="Helvetica,sans-Serif" font-size="10.00">ActsPlugins::Svg::Style</text>
</a>
</g>
</g>
<!-- Node5&#45;&gt;Node4 -->
<g id="edge4_Node000004_Node000005" class="edge">
<title>Node5&#45;&gt;Node4</title>
<g id="a_edge4_Node000004_Node000005"><a xlink:title=" ">
<path fill="none" stroke="#9a32cd" stroke-dasharray="5,2" d="M647.94,-49.5C690.31,-49.5 743.77,-49.5 787.9,-49.5"/>
<polygon fill="#9a32cd" stroke="#9a32cd" points="647.7,-46 637.7,-49.5 647.7,-53 647.7,-46"/>
</a>
</g>
<text text-anchor="start" x="709" y="-55" font-family="Helvetica,sans-Serif" font-size="10.00" fill="grey">style</text>
</g>
<!-- Node6 -->
<g id="Node000006" class="node">
<title>Node6</title>
<g id="a_Node000006"><a xlink:title=" ">
<polygon fill="white" stroke="#666666" points="336,-99 226,-99 226,-80 336,-80 336,-99"/>
<text text-anchor="middle" x="281" y="-87" font-family="Helvetica,sans-Serif" font-size="10.00">std::array&lt; int, 3 &gt;</text>
</a>
</g>
</g>
<!-- Node6&#45;&gt;Node5 -->
<g id="edge5_Node000005_Node000006" class="edge">
<title>Node6&#45;&gt;Node5</title>
<g id="a_edge5_Node000005_Node000006"><a xlink:title=" ">
<path fill="none" stroke="#9a32cd" stroke-dasharray="5,2" d="M346.51,-83.27C384.08,-79.36 432.32,-73.87 475,-67.5 491.17,-65.09 508.77,-61.99 524.51,-59.04"/>
<polygon fill="#9a32cd" stroke="#9a32cd" points="345.79,-79.83 336.21,-84.33 346.51,-86.79 345.79,-79.83"/>
</a>
</g>
<text text-anchor="start" x="372" y="-146" font-family="Helvetica,sans-Serif" font-size="10.00" fill="grey">fillColor</text>
<text text-anchor="start" x="372" y="-131" font-family="Helvetica,sans-Serif" font-size="10.00" fill="grey">fontColor</text>
<text text-anchor="start" x="372" y="-116" font-family="Helvetica,sans-Serif" font-size="10.00" fill="grey">highlightColor</text>
<text text-anchor="start" x="372" y="-101" font-family="Helvetica,sans-Serif" font-size="10.00" fill="grey">highlightStrokeColor</text>
<text text-anchor="start" x="372" y="-86" font-family="Helvetica,sans-Serif" font-size="10.00" fill="grey">strokeColor</text>
</g>
<!-- Node7 -->
<g id="Node000007" class="node">
<title>Node7</title>
<g id="a_Node000007"><a xlink:title=" ">
<polygon fill="white" stroke="#666666" points="94.5,-99 2.5,-99 2.5,-80 94.5,-80 94.5,-99"/>
<text text-anchor="middle" x="48.5" y="-87" font-family="Helvetica,sans-Serif" font-size="10.00">std::array&lt; T &gt;</text>
</a>
</g>
</g>
<!-- Node7&#45;&gt;Node6 -->
<g id="edge6_Node000006_Node000007" class="edge">
<title>Node7&#45;&gt;Node6</title>
<g id="a_edge6_Node000006_Node000007"><a xlink:title=" ">
<path fill="none" stroke="orange" stroke-dasharray="5,2" d="M104.8,-89.5C141.51,-89.5 189.47,-89.5 225.92,-89.5"/>
<polygon fill="orange" stroke="orange" points="104.76,-86 94.76,-89.5 104.76,-93 104.76,-86"/>
</a>
</g>
<text text-anchor="start" x="130" y="-95" font-family="Helvetica,sans-Serif" font-size="10.00" fill="grey">&lt; int, 3 &gt;</text>
</g>
<!-- Node8 -->
<g id="Node000008" class="node">
<title>Node8</title>
<g id="a_Node000008"><a xlink:title=" ">
<polygon fill="white" stroke="#666666" points="351,-59 211,-59 211,-40 351,-40 351,-59"/>
<text text-anchor="middle" x="281" y="-47" font-family="Helvetica,sans-Serif" font-size="10.00">std::vector&lt; std::string &gt;</text>
</a>
</g>
</g>
<!-- Node8&#45;&gt;Node5 -->
<g id="edge7_Node000005_Node000008" class="edge">
<title>Node8&#45;&gt;Node5</title>
<g id="a_edge7_Node000005_Node000008"><a xlink:title=" ">
<path fill="none" stroke="#9a32cd" stroke-dasharray="5,2" d="M361.26,-49.5C407.8,-49.5 465.82,-49.5 509.27,-49.5"/>
<polygon fill="#9a32cd" stroke="#9a32cd" points="361.21,-46 351.21,-49.5 361.21,-53 361.21,-46"/>
</a>
</g>
<text text-anchor="start" x="398" y="-55" font-family="Helvetica,sans-Serif" font-size="10.00" fill="grey">highlights</text>
</g>
<!-- Node9 -->
<g id="Node000009" class="node">
<title>Node9</title>
<g id="a_Node000009"><a xlink:title=" ">
<polygon fill="white" stroke="#666666" points="97,-39 0,-39 0,-20 97,-20 97,-39"/>
<text text-anchor="middle" x="48.5" y="-27" font-family="Helvetica,sans-Serif" font-size="10.00">std::vector&lt; T &gt;</text>
</a>
</g>
</g>
<!-- Node9&#45;&gt;Node8 -->
<g id="edge8_Node000008_Node000009" class="edge">
<title>Node9&#45;&gt;Node8</title>
<g id="a_edge8_Node000008_Node000009"><a xlink:title=" ">
<path fill="none" stroke="orange" stroke-dasharray="5,2" d="M107.59,-34.54C138.98,-37.26 177.94,-40.64 210.87,-43.5"/>
<polygon fill="orange" stroke="orange" points="107.52,-31.02 97.26,-33.64 106.92,-38 107.52,-31.02"/>
</a>
</g>
<text text-anchor="start" x="118" y="-48" font-family="Helvetica,sans-Serif" font-size="10.00" fill="grey">&lt; std::string &gt;</text>
</g>
<!-- Node10 -->
<g id="Node000010" class="node">
<title>Node10</title>
<g id="a_Node000010"><a xlink:title=" ">
<polygon fill="white" stroke="#666666" points="333,-19 229,-19 229,0 333,0 333,-19"/>
<text text-anchor="middle" x="281" y="-7" font-family="Helvetica,sans-Serif" font-size="10.00">std::vector&lt; int &gt;</text>
</a>
</g>
</g>
<!-- Node9&#45;&gt;Node10 -->
<g id="edge10_Node000010_Node000009" class="edge">
<title>Node9&#45;&gt;Node10</title>
<g id="a_edge10_Node000010_Node000009"><a xlink:title=" ">
<path fill="none" stroke="orange" stroke-dasharray="5,2" d="M95.41,-17.8C101.95,-16.48 108.62,-15.32 115,-14.5 152.95,-9.63 196.19,-8.48 228.88,-8.49"/>
<polygon fill="orange" stroke="orange" points="94.35,-14.45 85.31,-19.98 95.82,-21.29 94.35,-14.45"/>
</a>
</g>
<text text-anchor="start" x="136" y="-20" font-family="Helvetica,sans-Serif" font-size="10.00" fill="grey">&lt; int &gt;</text>
</g>
<!-- Node10&#45;&gt;Node5 -->
<g id="edge9_Node000005_Node000010" class="edge">
<title>Node10&#45;&gt;Node5</title>
<g id="a_edge9_Node000005_Node000010"><a xlink:title=" ">
<path fill="none" stroke="#9a32cd" stroke-dasharray="5,2" d="M343.79,-13.78C381.78,-16.86 431.37,-21.68 475,-28.5 494.33,-31.52 515.59,-35.97 533.32,-39.99"/>
<polygon fill="#9a32cd" stroke="#9a32cd" points="343.65,-10.26 333.4,-12.96 343.09,-17.24 343.65,-10.26"/>
</a>
</g>
<text text-anchor="start" x="382" y="-34" font-family="Helvetica,sans-Serif" font-size="10.00" fill="grey">strokeDasharray</text>
</g>
</g>
</svg>

<g id="navigator" transform="translate(0 0)" fill="#404254">
  <rect fill="#f2f5e9" fill-opacity="0.5" stroke="#606060" stroke-width=".5" x="0" y="0" width="60" height="60"/>
  <use id="zoomplus" xlink:href="#zoomPlus" x="17" y="9" onmousedown="handleZoom(evt,'in')"/>
  <use id="zoomminus" xlink:href="#zoomMin" x="42" y="9" onmousedown="handleZoom(evt,'out')"/>
  <use id="reset" xlink:href="#resetDef" x="30" y="36" onmousedown="handleReset()"/>
   <use id="arrowup" xlink:href="#arrowUp" x="0" y="0" onmousedown="handlePan(0,-1)"/>
  <use id="arrowright" xlink:href="#arrowRight" x="0" y="0" onmousedown="handlePan(1,0)"/>
  <use id="arrowdown" xlink:href="#arrowDown" x="0" y="0" onmousedown="handlePan(0,1)"/>
  <use id="arrowleft" xlink:href="#arrowLeft" x="0" y="0" onmousedown="handlePan(-1,0)"/>
</g>
<svg viewBox="0 0 15 15" width="100%" height="30px" preserveAspectRatio="xMaxYMin meet">
 <g id="arrow_out" transform="scale(0.3 0.3)">
  <a xlink:href="struct_acts_plugins_1_1_svg_1_1_surface_array_converter_1_1_options__coll__graph_org.svg" target="_base">
   <rect id="button" ry="5" rx="5" y="6" x="6" height="38" width="38"
        fill="#f2f5e9" fill-opacity="0.5" stroke="#606060" stroke-width="1.0"/>
   <path id="arrow"
     d="M 11.500037,31.436501 C 11.940474,20.09759 22.043105,11.32322 32.158766,21.979434 L 37.068811,17.246167 C 37.068811,17.246167 37.088388,32 37.088388,32 L 22.160133,31.978069 C 22.160133,31.978069 26.997745,27.140456 26.997745,27.140456 C 18.528582,18.264221 13.291696,25.230495 11.500037,31.436501 z"
     style="fill:#404040;"/>
  </a>
 </g>
</svg>

<style type='text/css'>
<![CDATA[
[data-mouse-over-selected='false'] { opacity: 0.7; }
[data-mouse-over-selected='true']  { opacity: 1.0; }
]]>
</style>
<script type="application/ecmascript"><![CDATA[
document.addEventListener('DOMContentLoaded', (event) => {
  highlightEdges();
  highlightAdjacentNodes();
});
]]></script>
</svg>
