<?xml version="1.0" encoding="UTF-8" standalone="no"?>
<!DOCTYPE svg PUBLIC "-//W3C//DTD SVG 1.1//EN"
 "http://www.w3.org/Graphics/SVG/1.1/DTD/svg11.dtd">
<!-- Generated by graphviz version 2.43.0 (0)
 -->
<!-- Title: Acts::CylinderVolumeHelper::Config Pages: 1 -->
<svg width="850pt" height="96pt"
 viewBox="0.00 0.00 850.00 96.00" xmlns="http://www.w3.org/2000/svg" xmlns:xlink="http://www.w3.org/1999/xlink">
<g id="graph0" class="graph" transform="scale(1 1) rotate(0) translate(4 92)">
<title>Acts::CylinderVolumeHelper::Config</title>
<!-- Node1 -->
<g id="Node000001" class="node">
<title>Node1</title>
<g id="a_Node000001"><a xlink:title="Nested configuration struct for this CylinderVolumeHelper.">
<polygon fill="#999999" stroke="#666666" points="842,-55 689,-55 689,-25 842,-25 842,-55"/>
<text text-anchor="start" x="697" y="-43" font-family="Helvetica,sans-Serif" font-size="10.00">Acts::CylinderVolumeHelper</text>
<text text-anchor="middle" x="765.5" y="-32" font-family="Helvetica,sans-Serif" font-size="10.00">::Config</text>
</a>
</g>
</g>
<!-- Node2 -->
<g id="Node000002" class="node">
<title>Node2</title>
<g id="a_Node000002"><a xlink:title=" ">
<polygon fill="white" stroke="#666666" points="483,-80 333,-80 333,-50 483,-50 483,-80"/>
<text text-anchor="start" x="341" y="-68" font-family="Helvetica,sans-Serif" font-size="10.00">std::shared_ptr&lt; const</text>
<text text-anchor="middle" x="408" y="-57" font-family="Helvetica,sans-Serif" font-size="10.00"> Acts::ILayerArrayCreator &gt;</text>
</a>
</g>
</g>
<!-- Node2&#45;&gt;Node1 -->
<g id="edge1_Node000001_Node000002" class="edge">
<title>Node2&#45;&gt;Node1</title>
<g id="a_edge1_Node000001_Node000002"><a xlink:title=" ">
<path fill="none" stroke="#9a32cd" stroke-dasharray="5,2" d="M493.2,-59.08C552.63,-54.9 631.57,-49.35 688.97,-45.31"/>
<polygon fill="#9a32cd" stroke="#9a32cd" points="492.82,-55.6 483.09,-59.79 493.31,-62.58 492.82,-55.6"/>
</a>
</g>
<text text-anchor="start" x="554.5" y="-61.5" font-family="Helvetica,sans-Serif" font-size="10.00" fill="grey">layerArrayCreator</text>
</g>
<!-- Node3 -->
<g id="Node000003" class="node">
<title>Node3</title>
<g id="a_Node000003"><a xlink:title=" ">
<polygon fill="white" stroke="#666666" points="118,-48.5 0,-48.5 0,-29.5 118,-29.5 118,-48.5"/>
<text text-anchor="middle" x="59" y="-36.5" font-family="Helvetica,sans-Serif" font-size="10.00">std::shared_ptr&lt; T &gt;</text>
</a>
</g>
</g>
<!-- Node3&#45;&gt;Node2 -->
<g id="edge2_Node000002_Node000003" class="edge">
<title>Node3&#45;&gt;Node2</title>
<g id="a_edge2_Node000002_Node000003"><a xlink:title=" ">
<path fill="none" stroke="orange" stroke-dasharray="5,2" d="M128.26,-44.41C130.87,-44.61 133.46,-44.81 136,-45 202.56,-50.08 278.34,-55.66 332.8,-59.63"/>
<polygon fill="orange" stroke="orange" points="128.33,-40.9 118.09,-43.62 127.79,-47.88 128.33,-40.9"/>
</a>
</g>
<text text-anchor="start" x="151" y="-77" font-family="Helvetica,sans-Serif" font-size="10.00" fill="grey">&lt; const Acts::ILayerArray</text>
<text text-anchor="start" x="151" y="-62" font-family="Helvetica,sans-Serif" font-size="10.00" fill="grey">  Creator &gt;</text>
</g>
<!-- Node4 -->
<g id="Node000004" class="node">
<title>Node4</title>
<g id="a_Node000004"><a xlink:title=" ">
<polygon fill="white" stroke="#666666" points="508,-30 308,-30 308,0 508,0 508,-30"/>
<text text-anchor="start" x="316" y="-18" font-family="Helvetica,sans-Serif" font-size="10.00">std::shared_ptr&lt; const</text>
<text text-anchor="middle" x="408" y="-7" font-family="Helvetica,sans-Serif" font-size="10.00"> Acts::ITrackingVolumeArrayCreator &gt;</text>
</a>
</g>
</g>
<!-- Node3&#45;&gt;Node4 -->
<g id="edge4_Node000004_Node000003" class="edge">
<title>Node3&#45;&gt;Node4</title>
<g id="a_edge4_Node000004_Node000003"><a xlink:title=" ">
<path fill="none" stroke="orange" stroke-dasharray="5,2" d="M91.11,-25.77C104.64,-20.69 120.83,-15.52 136,-13 192.39,-3.62 256.3,-3.6 307.89,-6.16"/>
<polygon fill="orange" stroke="orange" points="89.83,-22.51 81.78,-29.4 92.37,-29.03 89.83,-22.51"/>
</a>
</g>
<text text-anchor="start" x="139" y="-34" font-family="Helvetica,sans-Serif" font-size="10.00" fill="grey">&lt; const Acts::ITrackingVolume</text>
<text text-anchor="start" x="139" y="-19" font-family="Helvetica,sans-Serif" font-size="10.00" fill="grey">  ArrayCreator &gt;</text>
</g>
<!-- Node4&#45;&gt;Node1 -->
<g id="edge3_Node000001_Node000004" class="edge">
<title>Node4&#45;&gt;Node1</title>
<g id="a_edge3_Node000001_Node000004"><a xlink:title=" ">
<path fill="none" stroke="#9a32cd" stroke-dasharray="5,2" d="M518.32,-16.22C565.39,-17.51 620.99,-20.05 671,-25 676.81,-25.57 682.8,-26.28 688.82,-27.06"/>
<polygon fill="#9a32cd" stroke="#9a32cd" points="518.19,-12.72 508.1,-15.96 518.01,-19.72 518.19,-12.72"/>
</a>
</g>
<text text-anchor="start" x="529.5" y="-30.5" font-family="Helvetica,sans-Serif" font-size="10.00" fill="grey">trackingVolumeArrayCreator</text>
</g>
</g>
</svg>
