<?xml version="1.0" encoding="UTF-8" standalone="no"?>
<!DOCTYPE svg PUBLIC "-//W3C//DTD SVG 1.1//EN"
 "http://www.w3.org/Graphics/SVG/1.1/DTD/svg11.dtd">
<!-- Generated by graphviz version 2.43.0 (0)
 -->
<!-- Title: Acts::SupportsBoundParameters&lt; stepper_t &gt; Pages: 1 -->
<svg width="641pt" height="182pt"
 viewBox="0.00 0.00 641.00 182.00" xmlns="http://www.w3.org/2000/svg" xmlns:xlink="http://www.w3.org/1999/xlink">
<g id="graph0" class="graph" transform="scale(1 1) rotate(0) translate(4 178)">
<title>Acts::SupportsBoundParameters&lt; stepper_t &gt;</title>
<!-- Node1 -->
<g id="Node000001" class="node">
<title>Node1</title>
<g id="a_Node000001"><a xlink:title=" ">
<polygon fill="#999999" stroke="#666666" points="299,-102 126,-102 126,-72 299,-72 299,-102"/>
<text text-anchor="start" x="134" y="-90" font-family="Helvetica,sans-Serif" font-size="10.00">Acts::SupportsBoundParameters</text>
<text text-anchor="middle" x="212.5" y="-79" font-family="Helvetica,sans-Serif" font-size="10.00">&lt; stepper_t &gt;</text>
</a>
</g>
</g>
<!-- Node3 -->
<g id="Node000003" class="node">
<title>Node3</title>
<g id="a_Node000003"><a xlink:href="struct_acts_1_1_supports_bound_parameters_3_01_eigen_stepper_3_4_01_4.html" target="_top" xlink:title=" ">
<polygon fill="white" stroke="#bfbfbf" points="633,-174 460,-174 460,-144 633,-144 633,-174"/>
<text text-anchor="start" x="468" y="-162" font-family="Helvetica,sans-Serif" font-size="10.00">Acts::SupportsBoundParameters</text>
<text text-anchor="middle" x="546.5" y="-151" font-family="Helvetica,sans-Serif" font-size="10.00">&lt; EigenStepper&lt;&gt; &gt;</text>
</a>
</g>
</g>
<!-- Node1&#45;&gt;Node3 -->
<g id="edge2_Node000001_Node000003" class="edge">
<title>Node1&#45;&gt;Node3</title>
<g id="a_edge2_Node000001_Node000003"><a xlink:title=" ">
<path fill="none" stroke="orange" stroke-dasharray="5,2" d="M259.83,-105.7C277.49,-112.26 297.96,-119.18 317,-124 363.59,-135.78 416.59,-144.2 459.81,-149.82"/>
<polygon fill="orange" stroke="orange" points="260.93,-102.37 250.33,-102.11 258.45,-108.92 260.93,-102.37"/>
</a>
</g>
<text text-anchor="start" x="327.5" y="-152.5" font-family="Helvetica,sans-Serif" font-size="10.00" fill="grey">&lt; EigenStepper&lt;&gt; &gt;</text>
</g>
<!-- Node4 -->
<g id="Node000004" class="node">
<title>Node4</title>
<g id="a_Node000004"><a xlink:href="struct_acts_1_1_supports_bound_parameters_3_01_helix_stepper_01_4.html" target="_top" xlink:title=" ">
<polygon fill="white" stroke="#bfbfbf" points="633,-126 460,-126 460,-96 633,-96 633,-126"/>
<text text-anchor="start" x="468" y="-114" font-family="Helvetica,sans-Serif" font-size="10.00">Acts::SupportsBoundParameters</text>
<text text-anchor="middle" x="546.5" y="-103" font-family="Helvetica,sans-Serif" font-size="10.00">&lt; HelixStepper &gt;</text>
</a>
</g>
</g>
<!-- Node1&#45;&gt;Node4 -->
<g id="edge3_Node000001_Node000004" class="edge">
<title>Node1&#45;&gt;Node4</title>
<g id="a_edge3_Node000001_Node000004"><a xlink:title=" ">
<path fill="none" stroke="orange" stroke-dasharray="5,2" d="M309.42,-93.93C356.96,-97.37 413.89,-101.49 459.93,-104.81"/>
<polygon fill="orange" stroke="orange" points="309.66,-90.44 299.43,-93.21 309.15,-97.42 309.66,-90.44"/>
</a>
</g>
<text text-anchor="start" x="336.5" y="-108.5" font-family="Helvetica,sans-Serif" font-size="10.00" fill="grey">&lt; HelixStepper &gt;</text>
</g>
<!-- Node5 -->
<g id="Node000005" class="node">
<title>Node5</title>
<g id="a_Node000005"><a xlink:href="struct_acts_1_1_supports_bound_parameters_3_01_straight_line_stepper_01_4.html" target="_top" xlink:title=" ">
<polygon fill="white" stroke="#bfbfbf" points="633,-78 460,-78 460,-48 633,-48 633,-78"/>
<text text-anchor="start" x="468" y="-66" font-family="Helvetica,sans-Serif" font-size="10.00">Acts::SupportsBoundParameters</text>
<text text-anchor="middle" x="546.5" y="-55" font-family="Helvetica,sans-Serif" font-size="10.00">&lt; StraightLineStepper &gt;</text>
</a>
</g>
</g>
<!-- Node1&#45;&gt;Node5 -->
<g id="edge4_Node000001_Node000005" class="edge">
<title>Node1&#45;&gt;Node5</title>
<g id="a_edge4_Node000001_Node000005"><a xlink:title=" ">
<path fill="none" stroke="orange" stroke-dasharray="5,2" d="M309.33,-73.73C311.91,-73.47 314.47,-73.23 317,-73 364.16,-68.79 416.97,-66.33 459.93,-64.91"/>
<polygon fill="orange" stroke="orange" points="308.86,-70.26 299.28,-74.79 309.59,-77.22 308.86,-70.26"/>
</a>
</g>
<text text-anchor="start" x="320.5" y="-78.5" font-family="Helvetica,sans-Serif" font-size="10.00" fill="grey">&lt; StraightLineStepper &gt;</text>
</g>
<!-- Node6 -->
<g id="Node000006" class="node">
<title>Node6</title>
<g id="a_Node000006"><a xlink:href="struct_acts_1_1_supports_bound_parameters_3_01_sympy_stepper_01_4.html" target="_top" xlink:title=" ">
<polygon fill="white" stroke="#bfbfbf" points="633,-30 460,-30 460,0 633,0 633,-30"/>
<text text-anchor="start" x="468" y="-18" font-family="Helvetica,sans-Serif" font-size="10.00">Acts::SupportsBoundParameters</text>
<text text-anchor="middle" x="546.5" y="-7" font-family="Helvetica,sans-Serif" font-size="10.00">&lt; SympyStepper &gt;</text>
</a>
</g>
</g>
<!-- Node1&#45;&gt;Node6 -->
<g id="edge5_Node000001_Node000006" class="edge">
<title>Node1&#45;&gt;Node6</title>
<g id="a_edge5_Node000001_Node000006"><a xlink:title=" ">
<path fill="none" stroke="orange" stroke-dasharray="5,2" d="M253.66,-67.91C272.51,-59.69 295.51,-50.67 317,-45 363.42,-32.75 416.53,-25.39 459.86,-21.03"/>
<polygon fill="orange" stroke="orange" points="252.21,-64.73 244.5,-71.99 255.05,-71.12 252.21,-64.73"/>
</a>
</g>
<text text-anchor="start" x="332.5" y="-50.5" font-family="Helvetica,sans-Serif" font-size="10.00" fill="grey">&lt; SympyStepper &gt;</text>
</g>
<!-- Node2 -->
<g id="Node000002" class="node">
<title>Node2</title>
<g id="a_Node000002"><a xlink:title=" ">
<polygon fill="white" stroke="#bfbfbf" points="89,-96.5 0,-96.5 0,-77.5 89,-77.5 89,-96.5"/>
<text text-anchor="middle" x="44.5" y="-84.5" font-family="Helvetica,sans-Serif" font-size="10.00">std::false_type</text>
</a>
</g>
</g>
<!-- Node2&#45;&gt;Node1 -->
<g id="edge1_Node000001_Node000002" class="edge">
<title>Node2&#45;&gt;Node1</title>
<g id="a_edge1_Node000001_Node000002"><a xlink:title=" ">
<path fill="none" stroke="#63b8ff" d="M99.24,-87C107.75,-87 116.73,-87 125.76,-87"/>
<polygon fill="#63b8ff" stroke="#63b8ff" points="99.11,-83.5 89.11,-87 99.11,-90.5 99.11,-83.5"/>
</a>
</g>
</g>
</g>
</svg>
