<?xml version="1.0" encoding="UTF-8" standalone="no"?>
<!DOCTYPE svg PUBLIC "-//W3C//DTD SVG 1.1//EN"
 "http://www.w3.org/Graphics/SVG/1.1/DTD/svg11.dtd">
<!-- Generated by graphviz version 2.43.0 (0)
 -->
<!-- Title: Acts::PassiveLayerBuilder::Config Pages: 1 -->
<svg width="831pt" height="232pt"
 viewBox="0.00 0.00 831.00 232.00" xmlns="http://www.w3.org/2000/svg" xmlns:xlink="http://www.w3.org/1999/xlink">
<g id="graph0" class="graph" transform="scale(1 1) rotate(0) translate(4 228)">
<title>Acts::PassiveLayerBuilder::Config</title>
<!-- Node1 -->
<g id="Node000001" class="node">
<title>Node1</title>
<g id="a_Node000001"><a xlink:title="Configuration struct for the passive layer builder This nested struct is used to configure the layer ...">
<polygon fill="#999999" stroke="#666666" points="823,-85 681,-85 681,-55 823,-55 823,-85"/>
<text text-anchor="start" x="689" y="-73" font-family="Helvetica,sans-Serif" font-size="10.00">Acts::PassiveLayerBuilder</text>
<text text-anchor="middle" x="752" y="-62" font-family="Helvetica,sans-Serif" font-size="10.00">::Config</text>
</a>
</g>
</g>
<!-- Node2 -->
<g id="Node000002" class="node">
<title>Node2</title>
<g id="a_Node000002"><a xlink:title=" ">
<polygon fill="white" stroke="#666666" points="450.5,-209.5 385.5,-209.5 385.5,-190.5 450.5,-190.5 450.5,-209.5"/>
<text text-anchor="middle" x="418" y="-197.5" font-family="Helvetica,sans-Serif" font-size="10.00">std::string</text>
</a>
</g>
</g>
<!-- Node2&#45;&gt;Node1 -->
<g id="edge1_Node000001_Node000002" class="edge">
<title>Node2&#45;&gt;Node1</title>
<g id="a_edge1_Node000001_Node000002"><a xlink:title=" ">
<path fill="none" stroke="#9a32cd" stroke-dasharray="5,2" d="M460.83,-205.65C511.75,-210.49 598.87,-212.08 663,-178 702.72,-156.89 731.18,-109.44 743.77,-85.07"/>
<polygon fill="#9a32cd" stroke="#9a32cd" points="461.15,-202.16 450.84,-204.61 460.43,-209.12 461.15,-202.16"/>
</a>
</g>
<text text-anchor="start" x="557" y="-212.5" font-family="Helvetica,sans-Serif" font-size="10.00" fill="grey">layerIdentification</text>
</g>
<!-- Node3 -->
<g id="Node000003" class="node">
<title>Node3</title>
<g id="a_Node000003"><a xlink:title=" ">
<polygon fill="white" stroke="#666666" points="104,-215 0,-215 0,-185 104,-185 104,-215"/>
<text text-anchor="start" x="8" y="-203" font-family="Helvetica,sans-Serif" font-size="10.00">std::basic_string&lt;</text>
<text text-anchor="middle" x="52" y="-192" font-family="Helvetica,sans-Serif" font-size="10.00"> Char &gt;</text>
</a>
</g>
</g>
<!-- Node3&#45;&gt;Node2 -->
<g id="edge2_Node000002_Node000003" class="edge">
<title>Node3&#45;&gt;Node2</title>
<g id="a_edge2_Node000002_Node000003"><a xlink:title=" ">
<path fill="none" stroke="#63b8ff" d="M114.58,-200C192.81,-200 324.9,-200 385.23,-200"/>
<polygon fill="#63b8ff" stroke="#63b8ff" points="114.38,-196.5 104.38,-200 114.38,-203.5 114.38,-196.5"/>
</a>
</g>
</g>
<!-- Node4 -->
<g id="Node000004" class="node">
<title>Node4</title>
<g id="a_Node000004"><a xlink:title=" ">
<polygon fill="white" stroke="#666666" points="480,-79.5 356,-79.5 356,-60.5 480,-60.5 480,-79.5"/>
<text text-anchor="middle" x="418" y="-67.5" font-family="Helvetica,sans-Serif" font-size="10.00">std::vector&lt; double &gt;</text>
</a>
</g>
</g>
<!-- Node4&#45;&gt;Node1 -->
<g id="edge3_Node000001_Node000004" class="edge">
<title>Node4&#45;&gt;Node1</title>
<g id="a_edge3_Node000001_Node000004"><a xlink:title=" ">
<path fill="none" stroke="#9a32cd" stroke-dasharray="5,2" d="M490.53,-70C546.86,-70 624.92,-70 680.88,-70"/>
<polygon fill="#9a32cd" stroke="#9a32cd" points="490.28,-66.5 480.28,-70 490.28,-73.5 490.28,-66.5"/>
</a>
</g>
<text text-anchor="start" x="542" y="-165.5" font-family="Helvetica,sans-Serif" font-size="10.00" fill="grey">centralLayerHalflengthZ</text>
<text text-anchor="start" x="542" y="-150.5" font-family="Helvetica,sans-Serif" font-size="10.00" fill="grey">centralLayerRadii</text>
<text text-anchor="start" x="542" y="-135.5" font-family="Helvetica,sans-Serif" font-size="10.00" fill="grey">centralLayerThickness</text>
<text text-anchor="start" x="542" y="-120.5" font-family="Helvetica,sans-Serif" font-size="10.00" fill="grey">posnegLayerPositionZ</text>
<text text-anchor="start" x="542" y="-105.5" font-family="Helvetica,sans-Serif" font-size="10.00" fill="grey">posnegLayerRmax</text>
<text text-anchor="start" x="542" y="-90.5" font-family="Helvetica,sans-Serif" font-size="10.00" fill="grey">posnegLayerRmin</text>
<text text-anchor="start" x="542" y="-75.5" font-family="Helvetica,sans-Serif" font-size="10.00" fill="grey">posnegLayerThickness</text>
</g>
<!-- Node5 -->
<g id="Node000005" class="node">
<title>Node5</title>
<g id="a_Node000005"><a xlink:title=" ">
<polygon fill="white" stroke="#666666" points="100.5,-52.5 3.5,-52.5 3.5,-33.5 100.5,-33.5 100.5,-52.5"/>
<text text-anchor="middle" x="52" y="-40.5" font-family="Helvetica,sans-Serif" font-size="10.00">std::vector&lt; T &gt;</text>
</a>
</g>
</g>
<!-- Node5&#45;&gt;Node4 -->
<g id="edge4_Node000004_Node000005" class="edge">
<title>Node5&#45;&gt;Node4</title>
<g id="a_edge4_Node000004_Node000005"><a xlink:title=" ">
<path fill="none" stroke="orange" stroke-dasharray="5,2" d="M110.95,-47.3C177.86,-52.26 287.45,-60.39 355.73,-65.46"/>
<polygon fill="orange" stroke="orange" points="110.82,-43.78 100.59,-46.53 110.3,-50.76 110.82,-43.78"/>
</a>
</g>
<text text-anchor="start" x="181.5" y="-65.5" font-family="Helvetica,sans-Serif" font-size="10.00" fill="grey">&lt; double &gt;</text>
</g>
<!-- Node6 -->
<g id="Node000006" class="node">
<title>Node6</title>
<g id="a_Node000006"><a xlink:title=" ">
<polygon fill="white" stroke="#666666" points="521,-30 315,-30 315,0 521,0 521,-30"/>
<text text-anchor="start" x="323" y="-18" font-family="Helvetica,sans-Serif" font-size="10.00">std::vector&lt; std::shared</text>
<text text-anchor="middle" x="418" y="-7" font-family="Helvetica,sans-Serif" font-size="10.00">_ptr&lt; const Acts::ISurfaceMaterial &gt; &gt;</text>
</a>
</g>
</g>
<!-- Node5&#45;&gt;Node6 -->
<g id="edge6_Node000006_Node000005" class="edge">
<title>Node5&#45;&gt;Node6</title>
<g id="a_edge6_Node000006_Node000005"><a xlink:title=" ">
<path fill="none" stroke="orange" stroke-dasharray="5,2" d="M78.66,-28.85C91.3,-22.66 107.02,-16.12 122,-13 185.18,0.14 257.63,-0.14 314.92,-3.81"/>
<polygon fill="orange" stroke="orange" points="76.97,-25.78 69.65,-33.44 80.15,-32.01 76.97,-25.78"/>
</a>
</g>
<text text-anchor="start" x="125.5" y="-34" font-family="Helvetica,sans-Serif" font-size="10.00" fill="grey">&lt; std::shared_ptr&lt;</text>
<text text-anchor="start" x="125.5" y="-19" font-family="Helvetica,sans-Serif" font-size="10.00" fill="grey">   const Acts::ISurfaceMaterial &gt; &gt;</text>
</g>
<!-- Node6&#45;&gt;Node1 -->
<g id="edge5_Node000001_Node000006" class="edge">
<title>Node6&#45;&gt;Node1</title>
<g id="a_edge5_Node000001_Node000006"><a xlink:title=" ">
<path fill="none" stroke="#9a32cd" stroke-dasharray="5,2" d="M531.5,-16.47C573.24,-18.91 620.7,-23.96 663,-34 682.92,-38.73 704.18,-47.32 720.82,-54.93"/>
<polygon fill="#9a32cd" stroke="#9a32cd" points="531.47,-12.96 521.29,-15.91 531.09,-19.95 531.47,-12.96"/>
</a>
</g>
<text text-anchor="start" x="550" y="-55" font-family="Helvetica,sans-Serif" font-size="10.00" fill="grey">centralLayerMaterial</text>
<text text-anchor="start" x="550" y="-40" font-family="Helvetica,sans-Serif" font-size="10.00" fill="grey">posnegLayerMaterial</text>
</g>
</g>
</svg>
