<?xml version="1.0" encoding="UTF-8" standalone="no"?>
<!DOCTYPE svg PUBLIC "-//W3C//DTD SVG 1.1//EN"
 "http://www.w3.org/Graphics/SVG/1.1/DTD/svg11.dtd">
<!-- Generated by graphviz version 2.43.0 (0)
 -->
<!-- Title: Acts::ProjectedReferenceGenerator Pages: 1 -->
<svg width="442pt" height="193pt"
 viewBox="0.00 0.00 441.50 193.00" xmlns="http://www.w3.org/2000/svg" xmlns:xlink="http://www.w3.org/1999/xlink">
<g id="graph0" class="graph" transform="scale(1 1) rotate(0) translate(4 189)">
<title>Acts::ProjectedReferenceGenerator</title>
<!-- Node1 -->
<g id="Node000001" class="node">
<title>Node1</title>
<g id="a_Node000001"><a xlink:title="A Projected reference generator which projects the polyhedron vertices onto a given reference surface...">
<polygon fill="#999999" stroke="#666666" points="294,-30 155,-30 155,0 294,0 294,-30"/>
<text text-anchor="start" x="163" y="-18" font-family="Helvetica,sans-Serif" font-size="10.00">Acts::ProjectedReference</text>
<text text-anchor="middle" x="224.5" y="-7" font-family="Helvetica,sans-Serif" font-size="10.00">Generator</text>
</a>
</g>
</g>
<!-- Node2 -->
<g id="Node000002" class="node">
<title>Node2</title>
<g id="a_Node000002"><a xlink:href="struct_acts_1_1_i_reference_generator.html" target="_top" xlink:title="An interface for reference point generators.">
<polygon fill="white" stroke="#666666" points="145,-107.5 0,-107.5 0,-88.5 145,-88.5 145,-107.5"/>
<text text-anchor="middle" x="72.5" y="-95.5" font-family="Helvetica,sans-Serif" font-size="10.00">Acts::IReferenceGenerator</text>
</a>
</g>
</g>
<!-- Node2&#45;&gt;Node1 -->
<g id="edge1_Node000001_Node000002" class="edge">
<title>Node2&#45;&gt;Node1</title>
<g id="a_edge1_Node000001_Node000002"><a xlink:title=" ">
<path fill="none" stroke="#63b8ff" d="M97.54,-83.66C125.28,-68.88 169.81,-45.14 198.09,-30.07"/>
<polygon fill="#63b8ff" stroke="#63b8ff" points="95.66,-80.69 88.48,-88.48 98.95,-86.87 95.66,-80.69"/>
</a>
</g>
</g>
<!-- Node3 -->
<g id="Node000003" class="node">
<title>Node3</title>
<g id="a_Node000003"><a xlink:title=" ">
<polygon fill="white" stroke="#666666" points="285.5,-113 163.5,-113 163.5,-83 285.5,-83 285.5,-113"/>
<text text-anchor="start" x="171.5" y="-101" font-family="Helvetica,sans-Serif" font-size="10.00">std::shared_ptr&lt; Acts</text>
<text text-anchor="middle" x="224.5" y="-90" font-family="Helvetica,sans-Serif" font-size="10.00">::Surface &gt;</text>
</a>
</g>
</g>
<!-- Node3&#45;&gt;Node1 -->
<g id="edge2_Node000001_Node000003" class="edge">
<title>Node3&#45;&gt;Node1</title>
<g id="a_edge2_Node000001_Node000003"><a xlink:title=" ">
<path fill="none" stroke="#9a32cd" stroke-dasharray="5,2" d="M224.5,-72.59C224.5,-58.75 224.5,-41.91 224.5,-30.22"/>
<polygon fill="#9a32cd" stroke="#9a32cd" points="221,-72.89 224.5,-82.89 228,-72.89 221,-72.89"/>
</a>
</g>
<text text-anchor="start" x="227.5" y="-53.5" font-family="Helvetica,sans-Serif" font-size="10.00" fill="grey">referenceSurface</text>
</g>
<!-- Node4 -->
<g id="Node000004" class="node">
<title>Node4</title>
<g id="a_Node000004"><a xlink:title=" ">
<polygon fill="white" stroke="#666666" points="283.5,-185 165.5,-185 165.5,-166 283.5,-166 283.5,-185"/>
<text text-anchor="middle" x="224.5" y="-173" font-family="Helvetica,sans-Serif" font-size="10.00">std::shared_ptr&lt; T &gt;</text>
</a>
</g>
</g>
<!-- Node4&#45;&gt;Node3 -->
<g id="edge3_Node000003_Node000004" class="edge">
<title>Node4&#45;&gt;Node3</title>
<g id="a_edge3_Node000003_Node000004"><a xlink:title=" ">
<path fill="none" stroke="orange" stroke-dasharray="5,2" d="M224.5,-155.57C224.5,-142.43 224.5,-125.18 224.5,-113.21"/>
<polygon fill="orange" stroke="orange" points="221,-155.84 224.5,-165.84 228,-155.84 221,-155.84"/>
</a>
</g>
<text text-anchor="start" x="228" y="-136.5" font-family="Helvetica,sans-Serif" font-size="10.00" fill="grey">&lt; Acts::Surface &gt;</text>
</g>
<!-- Node5 -->
<g id="Node000005" class="node">
<title>Node5</title>
<g id="a_Node000005"><a xlink:title=" ">
<polygon fill="white" stroke="#666666" points="431.5,-107.5 303.5,-107.5 303.5,-88.5 431.5,-88.5 431.5,-107.5"/>
<text text-anchor="middle" x="367.5" y="-95.5" font-family="Helvetica,sans-Serif" font-size="10.00">std::vector&lt; Vector3 &gt;</text>
</a>
</g>
</g>
<!-- Node5&#45;&gt;Node1 -->
<g id="edge4_Node000001_Node000005" class="edge">
<title>Node5&#45;&gt;Node1</title>
<g id="a_edge4_Node000001_Node000005"><a xlink:title=" ">
<path fill="none" stroke="#9a32cd" stroke-dasharray="5,2" d="M354.39,-80.43C345.3,-69.88 332.36,-56.63 318.5,-48 306.65,-40.62 292.88,-34.71 279.6,-30.07"/>
<polygon fill="#9a32cd" stroke="#9a32cd" points="351.73,-82.7 360.81,-88.17 357.12,-78.23 351.73,-82.7"/>
</a>
</g>
<text text-anchor="start" x="343" y="-53.5" font-family="Helvetica,sans-Serif" font-size="10.00" fill="grey">luminousRegion</text>
</g>
<!-- Node6 -->
<g id="Node000006" class="node">
<title>Node6</title>
<g id="a_Node000006"><a xlink:title=" ">
<polygon fill="white" stroke="#666666" points="416,-185 319,-185 319,-166 416,-166 416,-185"/>
<text text-anchor="middle" x="367.5" y="-173" font-family="Helvetica,sans-Serif" font-size="10.00">std::vector&lt; T &gt;</text>
</a>
</g>
</g>
<!-- Node6&#45;&gt;Node5 -->
<g id="edge5_Node000005_Node000006" class="edge">
<title>Node6&#45;&gt;Node5</title>
<g id="a_edge5_Node000005_Node000006"><a xlink:title=" ">
<path fill="none" stroke="orange" stroke-dasharray="5,2" d="M367.5,-155.4C367.5,-140.01 367.5,-119.11 367.5,-107.56"/>
<polygon fill="orange" stroke="orange" points="364,-155.84 367.5,-165.84 371,-155.84 364,-155.84"/>
</a>
</g>
<text text-anchor="start" x="370.5" y="-136.5" font-family="Helvetica,sans-Serif" font-size="10.00" fill="grey">&lt; Vector3 &gt;</text>
</g>
</g>
</svg>
