<?xml version="1.0" encoding="UTF-8" standalone="no"?>
<!DOCTYPE svg PUBLIC "-//W3C//DTD SVG 1.1//EN"
 "http://www.w3.org/Graphics/SVG/1.1/DTD/svg11.dtd">
<!-- Generated by graphviz version 2.43.0 (0)
 -->
<!-- Title: ActsFatras::SimulationResult Pages: 1 -->
<svg width="681pt" height="124pt"
 viewBox="0.00 0.00 681.00 123.50" xmlns="http://www.w3.org/2000/svg" xmlns:xlink="http://www.w3.org/1999/xlink">
<g id="graph0" class="graph" transform="scale(1 1) rotate(0) translate(4 119.5)">
<title>ActsFatras::SimulationResult</title>
<!-- Node1 -->
<g id="Node000001" class="node">
<title>Node1</title>
<g id="a_Node000001"><a xlink:title="Single particle simulation result (and intermediate state).">
<polygon fill="#999999" stroke="#666666" points="673,-72.5 517,-72.5 517,-53.5 673,-53.5 673,-72.5"/>
<text text-anchor="middle" x="595" y="-60.5" font-family="Helvetica,sans-Serif" font-size="10.00">ActsFatras::SimulationResult</text>
</a>
</g>
</g>
<!-- Node2 -->
<g id="Node000002" class="node">
<title>Node2</title>
<g id="a_Node000002"><a xlink:href="class_acts_fatras_1_1_particle.html" target="_top" xlink:title="Particle identity information and kinematic state.">
<polygon fill="white" stroke="#666666" points="373.5,-115.5 264.5,-115.5 264.5,-96.5 373.5,-96.5 373.5,-115.5"/>
<text text-anchor="middle" x="319" y="-103.5" font-family="Helvetica,sans-Serif" font-size="10.00">ActsFatras::Particle</text>
</a>
</g>
</g>
<!-- Node2&#45;&gt;Node1 -->
<g id="edge1_Node000001_Node000002" class="edge">
<title>Node2&#45;&gt;Node1</title>
<g id="a_edge1_Node000001_Node000002"><a xlink:title=" ">
<path fill="none" stroke="#9a32cd" stroke-dasharray="5,2" d="M384.18,-99.61C418.38,-95.83 461.11,-90.5 499,-84 517.48,-80.83 537.79,-76.46 554.88,-72.53"/>
<polygon fill="#9a32cd" stroke="#9a32cd" points="383.41,-96.17 373.85,-100.73 384.17,-103.13 383.41,-96.17"/>
</a>
</g>
<text text-anchor="start" x="432.5" y="-102.5" font-family="Helvetica,sans-Serif" font-size="10.00" fill="grey">particle</text>
</g>
<!-- Node3 -->
<g id="Node000003" class="node">
<title>Node3</title>
<g id="a_Node000003"><a xlink:title=" ">
<polygon fill="white" stroke="#666666" points="384,-78 254,-78 254,-48 384,-48 384,-78"/>
<text text-anchor="start" x="262" y="-66" font-family="Helvetica,sans-Serif" font-size="10.00">std::vector&lt; ActsFatras</text>
<text text-anchor="middle" x="319" y="-55" font-family="Helvetica,sans-Serif" font-size="10.00">::Particle &gt;</text>
</a>
</g>
</g>
<!-- Node3&#45;&gt;Node1 -->
<g id="edge2_Node000001_Node000003" class="edge">
<title>Node3&#45;&gt;Node1</title>
<g id="a_edge2_Node000001_Node000003"><a xlink:title=" ">
<path fill="none" stroke="#9a32cd" stroke-dasharray="5,2" d="M394.72,-63C432.67,-63 478.73,-63 517,-63"/>
<polygon fill="#9a32cd" stroke="#9a32cd" points="394.24,-59.5 384.24,-63 394.24,-66.5 394.24,-59.5"/>
</a>
</g>
<text text-anchor="start" x="405.5" y="-68.5" font-family="Helvetica,sans-Serif" font-size="10.00" fill="grey">generatedParticles</text>
</g>
<!-- Node4 -->
<g id="Node000004" class="node">
<title>Node4</title>
<g id="a_Node000004"><a xlink:title=" ">
<polygon fill="white" stroke="#666666" points="97,-48.5 0,-48.5 0,-29.5 97,-29.5 97,-48.5"/>
<text text-anchor="middle" x="48.5" y="-36.5" font-family="Helvetica,sans-Serif" font-size="10.00">std::vector&lt; T &gt;</text>
</a>
</g>
</g>
<!-- Node4&#45;&gt;Node3 -->
<g id="edge3_Node000003_Node000004" class="edge">
<title>Node4&#45;&gt;Node3</title>
<g id="a_edge3_Node000003_Node000004"><a xlink:title=" ">
<path fill="none" stroke="orange" stroke-dasharray="5,2" d="M107.22,-44.16C150.26,-48.01 209.05,-53.26 253.61,-57.24"/>
<polygon fill="orange" stroke="orange" points="107.46,-40.67 97.19,-43.26 106.84,-47.64 107.46,-40.67"/>
</a>
</g>
<text text-anchor="start" x="118.5" y="-61.5" font-family="Helvetica,sans-Serif" font-size="10.00" fill="grey">&lt; ActsFatras::Particle &gt;</text>
</g>
<!-- Node5 -->
<g id="Node000005" class="node">
<title>Node5</title>
<g id="a_Node000005"><a xlink:title=" ">
<polygon fill="white" stroke="#666666" points="384,-30 254,-30 254,0 384,0 384,-30"/>
<text text-anchor="start" x="262" y="-18" font-family="Helvetica,sans-Serif" font-size="10.00">std::vector&lt; ActsFatras</text>
<text text-anchor="middle" x="319" y="-7" font-family="Helvetica,sans-Serif" font-size="10.00">::Hit &gt;</text>
</a>
</g>
</g>
<!-- Node4&#45;&gt;Node5 -->
<g id="edge5_Node000005_Node000004" class="edge">
<title>Node4&#45;&gt;Node5</title>
<g id="a_edge5_Node000005_Node000004"><a xlink:title=" ">
<path fill="none" stroke="orange" stroke-dasharray="5,2" d="M99.25,-27.49C104.55,-26.53 109.87,-25.67 115,-25 161.18,-18.97 213.71,-16.5 253.76,-15.52"/>
<polygon fill="orange" stroke="orange" points="98.31,-24.11 89.16,-29.45 99.64,-30.98 98.31,-24.11"/>
</a>
</g>
<text text-anchor="start" x="128.5" y="-30.5" font-family="Helvetica,sans-Serif" font-size="10.00" fill="grey">&lt; ActsFatras::Hit &gt;</text>
</g>
<!-- Node5&#45;&gt;Node1 -->
<g id="edge4_Node000001_Node000005" class="edge">
<title>Node5&#45;&gt;Node1</title>
<g id="a_edge4_Node000001_Node000005"><a xlink:title=" ">
<path fill="none" stroke="#9a32cd" stroke-dasharray="5,2" d="M394.62,-25.1C426.81,-29.76 464.84,-35.66 499,-42 516.94,-45.33 536.65,-49.59 553.44,-53.4"/>
<polygon fill="#9a32cd" stroke="#9a32cd" points="394.78,-21.59 384.38,-23.63 393.79,-28.52 394.78,-21.59"/>
</a>
</g>
<text text-anchor="start" x="441.5" y="-47.5" font-family="Helvetica,sans-Serif" font-size="10.00" fill="grey">hits</text>
</g>
</g>
</svg>
