<?xml version="1.0" encoding="UTF-8" standalone="no"?>
<!DOCTYPE svg PUBLIC "-//W3C//DTD SVG 1.1//EN"
 "http://www.w3.org/Graphics/SVG/1.1/DTD/svg11.dtd">
<!-- Generated by graphviz version 2.43.0 (0)
 -->
<!-- Title: Acts::ScoreBasedAmbiguityResolution::Optionals&lt; track_proxy_t &gt; Pages: 1 -->
<svg width="689pt" height="126pt"
 viewBox="0.00 0.00 689.00 126.00" xmlns="http://www.w3.org/2000/svg" xmlns:xlink="http://www.w3.org/1999/xlink">
<g id="graph0" class="graph" transform="scale(1 1) rotate(0) translate(4 122)">
<title>Acts::ScoreBasedAmbiguityResolution::Optionals&lt; track_proxy_t &gt;</title>
<!-- Node1 -->
<g id="Node000001" class="node">
<title>Node1</title>
<g id="a_Node000001"><a xlink:title="Optionals struct: contains the optional cuts, weights and score to be applied.">
<polygon fill="#999999" stroke="#666666" points="681,-75.5 530,-75.5 530,-34.5 681,-34.5 681,-75.5"/>
<text text-anchor="start" x="538" y="-63.5" font-family="Helvetica,sans-Serif" font-size="10.00">Acts::ScoreBasedAmbiguity</text>
<text text-anchor="start" x="538" y="-52.5" font-family="Helvetica,sans-Serif" font-size="10.00">Resolution::Optionals&lt;</text>
<text text-anchor="middle" x="605.5" y="-41.5" font-family="Helvetica,sans-Serif" font-size="10.00"> track_proxy_t &gt;</text>
</a>
</g>
</g>
<!-- Node2 -->
<g id="Node000002" class="node">
<title>Node2</title>
<g id="a_Node000002"><a xlink:title=" ">
<polygon fill="white" stroke="#666666" points="424,-117.5 270,-117.5 270,-98.5 424,-98.5 424,-117.5"/>
<text text-anchor="middle" x="347" y="-105.5" font-family="Helvetica,sans-Serif" font-size="10.00">std::vector&lt; OptionalCuts &gt;</text>
</a>
</g>
</g>
<!-- Node2&#45;&gt;Node1 -->
<g id="edge1_Node000001_Node000002" class="edge">
<title>Node2&#45;&gt;Node1</title>
<g id="a_edge1_Node000001_Node000002"><a xlink:title=" ">
<path fill="none" stroke="#9a32cd" stroke-dasharray="5,2" d="M434.09,-101.13C459.39,-98.13 486.99,-93.91 512,-88 525.61,-84.79 539.99,-80.24 553.25,-75.56"/>
<polygon fill="#9a32cd" stroke="#9a32cd" points="433.68,-97.65 424.14,-102.25 434.47,-104.6 433.68,-97.65"/>
</a>
</g>
<text text-anchor="start" x="467" y="-104.5" font-family="Helvetica,sans-Serif" font-size="10.00" fill="grey">cuts</text>
</g>
<!-- Node3 -->
<g id="Node000003" class="node">
<title>Node3</title>
<g id="a_Node000003"><a xlink:title=" ">
<polygon fill="white" stroke="#666666" points="97,-72.5 0,-72.5 0,-53.5 97,-53.5 97,-72.5"/>
<text text-anchor="middle" x="48.5" y="-60.5" font-family="Helvetica,sans-Serif" font-size="10.00">std::vector&lt; T &gt;</text>
</a>
</g>
</g>
<!-- Node3&#45;&gt;Node2 -->
<g id="edge2_Node000002_Node000003" class="edge">
<title>Node3&#45;&gt;Node2</title>
<g id="a_edge2_Node000002_Node000003"><a xlink:title=" ">
<path fill="none" stroke="orange" stroke-dasharray="5,2" d="M88.46,-75.48C97.13,-77.92 106.32,-80.27 115,-82 166.15,-92.22 224.53,-98.75 269.81,-102.71"/>
<polygon fill="orange" stroke="orange" points="89.16,-72.04 78.58,-72.59 87.2,-78.76 89.16,-72.04"/>
</a>
</g>
<text text-anchor="start" x="140.5" y="-106.5" font-family="Helvetica,sans-Serif" font-size="10.00" fill="grey">&lt; OptionalCuts &gt;</text>
</g>
<!-- Node4 -->
<g id="Node000004" class="node">
<title>Node4</title>
<g id="a_Node000004"><a xlink:title=" ">
<polygon fill="white" stroke="#666666" points="421,-78 273,-78 273,-48 421,-48 421,-78"/>
<text text-anchor="start" x="281" y="-66" font-family="Helvetica,sans-Serif" font-size="10.00">std::vector&lt; OptionalScore</text>
<text text-anchor="middle" x="347" y="-55" font-family="Helvetica,sans-Serif" font-size="10.00">Modifier &gt;</text>
</a>
</g>
</g>
<!-- Node3&#45;&gt;Node4 -->
<g id="edge4_Node000004_Node000003" class="edge">
<title>Node3&#45;&gt;Node4</title>
<g id="a_edge4_Node000004_Node000003"><a xlink:title=" ">
<path fill="none" stroke="orange" stroke-dasharray="5,2" d="M107.22,-63C154.58,-63 221.89,-63 272.99,-63"/>
<polygon fill="orange" stroke="orange" points="107.14,-59.5 97.14,-63 107.14,-66.5 107.14,-59.5"/>
</a>
</g>
<text text-anchor="start" x="118.5" y="-68.5" font-family="Helvetica,sans-Serif" font-size="10.00" fill="grey">&lt; OptionalScoreModifier &gt;</text>
</g>
<!-- Node5 -->
<g id="Node000005" class="node">
<title>Node5</title>
<g id="a_Node000005"><a xlink:title=" ">
<polygon fill="white" stroke="#666666" points="414.5,-30 279.5,-30 279.5,0 414.5,0 414.5,-30"/>
<text text-anchor="start" x="287.5" y="-18" font-family="Helvetica,sans-Serif" font-size="10.00">std::vector&lt; OptionalHit</text>
<text text-anchor="middle" x="347" y="-7" font-family="Helvetica,sans-Serif" font-size="10.00">Selection &gt;</text>
</a>
</g>
</g>
<!-- Node3&#45;&gt;Node5 -->
<g id="edge6_Node000005_Node000003" class="edge">
<title>Node3&#45;&gt;Node5</title>
<g id="a_edge6_Node000005_Node000003"><a xlink:title=" ">
<path fill="none" stroke="orange" stroke-dasharray="5,2" d="M84.99,-50.24C94.62,-47.16 105.13,-44.14 115,-42 169.75,-30.14 233.01,-23.2 279.47,-19.34"/>
<polygon fill="orange" stroke="orange" points="83.71,-46.98 75.32,-53.44 85.91,-53.62 83.71,-46.98"/>
</a>
</g>
<text text-anchor="start" x="121.5" y="-47.5" font-family="Helvetica,sans-Serif" font-size="10.00" fill="grey">&lt; OptionalHitSelection &gt;</text>
</g>
<!-- Node4&#45;&gt;Node1 -->
<g id="edge3_Node000001_Node000004" class="edge">
<title>Node4&#45;&gt;Node1</title>
<g id="a_edge3_Node000001_Node000004"><a xlink:title=" ">
<path fill="none" stroke="#9a32cd" stroke-dasharray="5,2" d="M431.32,-56.49C434.93,-56.31 438.5,-56.14 442,-56 470.61,-54.85 502.08,-54.45 529.64,-54.39"/>
<polygon fill="#9a32cd" stroke="#9a32cd" points="430.89,-53.01 421.1,-57.07 431.28,-60 430.89,-53.01"/>
</a>
</g>
<text text-anchor="start" x="458" y="-77" font-family="Helvetica,sans-Serif" font-size="10.00" fill="grey">scores</text>
<text text-anchor="start" x="458" y="-62" font-family="Helvetica,sans-Serif" font-size="10.00" fill="grey">weights</text>
</g>
<!-- Node5&#45;&gt;Node1 -->
<g id="edge5_Node000001_Node000005" class="edge">
<title>Node5&#45;&gt;Node1</title>
<g id="a_edge5_Node000001_Node000005"><a xlink:title=" ">
<path fill="none" stroke="#9a32cd" stroke-dasharray="5,2" d="M424.87,-21.45C452.46,-24.28 483.72,-28.1 512,-33 517.86,-34.01 523.89,-35.18 529.95,-36.43"/>
<polygon fill="#9a32cd" stroke="#9a32cd" points="425.19,-17.96 414.89,-20.45 424.49,-24.93 425.19,-17.96"/>
</a>
</g>
<text text-anchor="start" x="445" y="-38.5" font-family="Helvetica,sans-Serif" font-size="10.00" fill="grey">hitSelections</text>
</g>
</g>
</svg>
