<?xml version="1.0" encoding="UTF-8" standalone="no"?>
<!DOCTYPE svg PUBLIC "-//W3C//DTD SVG 1.1//EN"
 "http://www.w3.org/Graphics/SVG/1.1/DTD/svg11.dtd">
<!-- Generated by graphviz version 2.43.0 (0)
 -->
<!-- Title: Acts::MaterialMapper::Config Pages: 1 -->
<svg width="818pt" height="96pt"
 viewBox="0.00 0.00 818.00 96.00" xmlns="http://www.w3.org/2000/svg" xmlns:xlink="http://www.w3.org/1999/xlink">
<g id="graph0" class="graph" transform="scale(1 1) rotate(0) translate(4 92)">
<title>Acts::MaterialMapper::Config</title>
<!-- Node1 -->
<g id="Node000001" class="node">
<title>Node1</title>
<g id="a_Node000001"><a xlink:title="nested configuration struct">
<polygon fill="#999999" stroke="#666666" points="810,-55 689,-55 689,-25 810,-25 810,-55"/>
<text text-anchor="start" x="697" y="-43" font-family="Helvetica,sans-Serif" font-size="10.00">Acts::MaterialMapper</text>
<text text-anchor="middle" x="749.5" y="-32" font-family="Helvetica,sans-Serif" font-size="10.00">::Config</text>
</a>
</g>
</g>
<!-- Node2 -->
<g id="Node000002" class="node">
<title>Node2</title>
<g id="a_Node000002"><a xlink:title=" ">
<polygon fill="white" stroke="#666666" points="482.5,-80 333.5,-80 333.5,-50 482.5,-50 482.5,-80"/>
<text text-anchor="start" x="341.5" y="-68" font-family="Helvetica,sans-Serif" font-size="10.00">std::shared_ptr&lt; const</text>
<text text-anchor="middle" x="408" y="-57" font-family="Helvetica,sans-Serif" font-size="10.00"> Acts::IAssignmentFinder &gt;</text>
</a>
</g>
</g>
<!-- Node2&#45;&gt;Node1 -->
<g id="edge1_Node000001_Node000002" class="edge">
<title>Node2&#45;&gt;Node1</title>
<g id="a_edge1_Node000001_Node000002"><a xlink:title=" ">
<path fill="none" stroke="#9a32cd" stroke-dasharray="5,2" d="M493.01,-58.81C553.82,-54.34 634.53,-48.39 688.82,-44.39"/>
<polygon fill="#9a32cd" stroke="#9a32cd" points="492.38,-55.35 482.67,-59.58 492.9,-62.33 492.38,-55.35"/>
</a>
</g>
<text text-anchor="start" x="554.5" y="-61.5" font-family="Helvetica,sans-Serif" font-size="10.00" fill="grey">assignmentFinder</text>
</g>
<!-- Node3 -->
<g id="Node000003" class="node">
<title>Node3</title>
<g id="a_Node000003"><a xlink:title=" ">
<polygon fill="white" stroke="#666666" points="118,-48.5 0,-48.5 0,-29.5 118,-29.5 118,-48.5"/>
<text text-anchor="middle" x="59" y="-36.5" font-family="Helvetica,sans-Serif" font-size="10.00">std::shared_ptr&lt; T &gt;</text>
</a>
</g>
</g>
<!-- Node3&#45;&gt;Node2 -->
<g id="edge2_Node000002_Node000003" class="edge">
<title>Node3&#45;&gt;Node2</title>
<g id="a_edge2_Node000002_Node000003"><a xlink:title=" ">
<path fill="none" stroke="orange" stroke-dasharray="5,2" d="M128.26,-44.41C130.87,-44.61 133.46,-44.81 136,-45 202.8,-50.1 278.87,-55.7 333.38,-59.67"/>
<polygon fill="orange" stroke="orange" points="128.33,-40.9 118.09,-43.62 127.79,-47.88 128.33,-40.9"/>
</a>
</g>
<text text-anchor="start" x="149" y="-77" font-family="Helvetica,sans-Serif" font-size="10.00" fill="grey">&lt; const Acts::IAssignment</text>
<text text-anchor="start" x="149" y="-62" font-family="Helvetica,sans-Serif" font-size="10.00" fill="grey">  Finder &gt;</text>
</g>
<!-- Node4 -->
<g id="Node000004" class="node">
<title>Node4</title>
<g id="a_Node000004"><a xlink:title=" ">
<polygon fill="white" stroke="#666666" points="508,-30 308,-30 308,0 508,0 508,-30"/>
<text text-anchor="start" x="316" y="-18" font-family="Helvetica,sans-Serif" font-size="10.00">std::shared_ptr&lt; const</text>
<text text-anchor="middle" x="408" y="-7" font-family="Helvetica,sans-Serif" font-size="10.00"> Acts::ISurfaceMaterialAccumulater &gt;</text>
</a>
</g>
</g>
<!-- Node3&#45;&gt;Node4 -->
<g id="edge4_Node000004_Node000003" class="edge">
<title>Node3&#45;&gt;Node4</title>
<g id="a_edge4_Node000004_Node000003"><a xlink:title=" ">
<path fill="none" stroke="orange" stroke-dasharray="5,2" d="M91.11,-25.77C104.64,-20.69 120.83,-15.52 136,-13 192.39,-3.62 256.3,-3.6 307.89,-6.16"/>
<polygon fill="orange" stroke="orange" points="89.83,-22.51 81.78,-29.4 92.37,-29.03 89.83,-22.51"/>
</a>
</g>
<text text-anchor="start" x="139" y="-34" font-family="Helvetica,sans-Serif" font-size="10.00" fill="grey">&lt; const Acts::ISurfaceMaterial</text>
<text text-anchor="start" x="139" y="-19" font-family="Helvetica,sans-Serif" font-size="10.00" fill="grey">  Accumulater &gt;</text>
</g>
<!-- Node4&#45;&gt;Node1 -->
<g id="edge3_Node000001_Node000004" class="edge">
<title>Node4&#45;&gt;Node1</title>
<g id="a_edge3_Node000001_Node000004"><a xlink:title=" ">
<path fill="none" stroke="#9a32cd" stroke-dasharray="5,2" d="M518.4,-15.45C565.49,-16.6 621.08,-19.25 671,-25 676.85,-25.67 682.93,-26.55 688.98,-27.53"/>
<polygon fill="#9a32cd" stroke="#9a32cd" points="518.26,-11.94 508.18,-15.21 518.1,-18.94 518.26,-11.94"/>
</a>
</g>
<text text-anchor="start" x="529.5" y="-30.5" font-family="Helvetica,sans-Serif" font-size="10.00" fill="grey">surfaceMaterialAccumulater</text>
</g>
</g>
</svg>
