<?xml version="1.0" encoding="UTF-8" standalone="no"?>
<!DOCTYPE svg PUBLIC "-//W3C//DTD SVG 1.1//EN"
 "http://www.w3.org/Graphics/SVG/1.1/DTD/svg11.dtd">
<!-- Generated by graphviz version 2.43.0 (0)
 -->
<!-- Title: Acts::Experimental::GbtsEdgeState Pages: 1 -->
<svg width="195pt" height="208pt"
 viewBox="0.00 0.00 195.00 208.00" xmlns="http://www.w3.org/2000/svg" xmlns:xlink="http://www.w3.org/1999/xlink">
<g id="graph0" class="graph" transform="scale(1 1) rotate(0) translate(4 204)">
<title>Acts::Experimental::GbtsEdgeState</title>
<!-- Node1 -->
<g id="Node000001" class="node">
<title>Node1</title>
<g id="a_Node000001"><a xlink:title=" ">
<polygon fill="#999999" stroke="#666666" points="131.5,-30 22.5,-30 22.5,0 131.5,0 131.5,-30"/>
<text text-anchor="start" x="30.5" y="-18" font-family="Helvetica,sans-Serif" font-size="10.00">Acts::Experimental</text>
<text text-anchor="middle" x="77" y="-7" font-family="Helvetica,sans-Serif" font-size="10.00">::GbtsEdgeState</text>
</a>
</g>
</g>
<!-- Node2 -->
<g id="Node000002" class="node">
<title>Node2</title>
<g id="a_Node000002"><a xlink:title=" ">
<polygon fill="white" stroke="#666666" points="154,-113 0,-113 0,-83 154,-83 154,-113"/>
<text text-anchor="start" x="8" y="-101" font-family="Helvetica,sans-Serif" font-size="10.00">std::vector&lt; Acts::</text>
<text text-anchor="middle" x="77" y="-90" font-family="Helvetica,sans-Serif" font-size="10.00">Experimental::GbtsEdge * &gt;</text>
</a>
</g>
</g>
<!-- Node2&#45;&gt;Node1 -->
<g id="edge1_Node000001_Node000002" class="edge">
<title>Node2&#45;&gt;Node1</title>
<g id="a_edge1_Node000001_Node000002"><a xlink:title=" ">
<path fill="none" stroke="#9a32cd" stroke-dasharray="5,2" d="M77,-72.59C77,-58.75 77,-41.91 77,-30.22"/>
<polygon fill="#9a32cd" stroke="#9a32cd" points="73.5,-72.89 77,-82.89 80.5,-72.89 73.5,-72.89"/>
</a>
</g>
<text text-anchor="start" x="80.5" y="-53.5" font-family="Helvetica,sans-Serif" font-size="10.00" fill="grey">m_vs</text>
</g>
<!-- Node3 -->
<g id="Node000003" class="node">
<title>Node3</title>
<g id="a_Node000003"><a xlink:title=" ">
<polygon fill="white" stroke="#666666" points="125.5,-200 28.5,-200 28.5,-181 125.5,-181 125.5,-200"/>
<text text-anchor="middle" x="77" y="-188" font-family="Helvetica,sans-Serif" font-size="10.00">std::vector&lt; T &gt;</text>
</a>
</g>
</g>
<!-- Node3&#45;&gt;Node2 -->
<g id="edge2_Node000002_Node000003" class="edge">
<title>Node3&#45;&gt;Node2</title>
<g id="a_edge2_Node000002_Node000003"><a xlink:title=" ">
<path fill="none" stroke="orange" stroke-dasharray="5,2" d="M77,-170.38C77,-153.24 77,-128.49 77,-113.09"/>
<polygon fill="orange" stroke="orange" points="73.5,-170.82 77,-180.82 80.5,-170.82 73.5,-170.82"/>
</a>
</g>
<text text-anchor="start" x="80" y="-152" font-family="Helvetica,sans-Serif" font-size="10.00" fill="grey">&lt; Acts::Experimental</text>
<text text-anchor="start" x="80" y="-137" font-family="Helvetica,sans-Serif" font-size="10.00" fill="grey">  ::GbtsEdge * &gt;</text>
</g>
</g>
</svg>
