<?xml version="1.0" encoding="UTF-8" standalone="no"?>
<!DOCTYPE svg PUBLIC "-//W3C//DTD SVG 1.1//EN"
 "http://www.w3.org/Graphics/SVG/1.1/DTD/svg11.dtd">
<!-- Generated by graphviz version 2.43.0 (0)
 -->
<!-- Title: Acts::WrappingConfig Pages: 1 -->
<!--zoomable 186 -->

<svg id="main" version="1.1" xmlns="http://www.w3.org/2000/svg" xmlns:xlink="http://www.w3.org/1999/xlink" xml:space="preserve" onload="init(evt)">

<style type="text/css"><![CDATA[
.node, .edge {opacity: 0.7;}
.node.selected, .edge.selected {opacity: 1;}
.edge:hover path { stroke: red; }
.edge:hover polygon { stroke: red; fill: red; }
]]></style>

<defs>
  <circle id="rim" cx="0" cy="0" r="7"/>
  <circle id="rim2" cx="0" cy="0" r="3.5"/>
  <g id="zoomPlus">
    <use xlink:href="#rim" fill="#404040"><set attributeName="fill" to="#808080" begin="zoomplus.mouseover" end="zoomplus.mouseout"/></use>
    <path d="M-4,0h8M0,-4v8" fill="none" stroke="white" stroke-width="1.5" pointer-events="none"/>
  </g>
  <g id="zoomMin">
    <use xlink:href="#rim" fill="#404040"><set attributeName="fill" to="#808080" begin="zoomminus.mouseover" end="zoomminus.mouseout"/></use>
    <path d="M-4,0h8" fill="none" stroke="white" stroke-width="1.5" pointer-events="none"/>
  </g>
  <g id="arrowUp" transform="translate(30 24)">
    <use xlink:href="#rim"/>
    <path pointer-events="none" fill="none" stroke="white" stroke-width="1.5" d="M0,-3.0v7 M-2.5,-0.5L0,-3.0L2.5,-0.5"/>
  </g>
  <g id="arrowRight" transform="rotate(90) translate(36 -43)">
    <use xlink:href="#rim"/>
    <path pointer-events="none" fill="none" stroke="white" stroke-width="1.5" d="M0,-3.0v7 M-2.5,-0.5L0,-3.0L2.5,-0.5"/>
  </g>
  <g id="arrowDown" transform="rotate(180) translate(-30 -48)">
    <use xlink:href="#rim"/>
    <path pointer-events="none" fill="none" stroke="white" stroke-width="1.5" d="M0,-3.0v7 M-2.5,-0.5L0,-3.0L2.5,-0.5"/>
  </g>
  <g id="arrowLeft" transform="rotate(270) translate(-36 17)">
    <use xlink:href="#rim"/>
    <path pointer-events="none" fill="none" stroke="white" stroke-width="1.5" d="M0,-3.0v7 M-2.5,-0.5L0,-3.0L2.5,-0.5"/>
  </g>
  <g id="resetDef">
    <use xlink:href="#rim2" fill="#404040"><set attributeName="fill" to="#808080" begin="reset.mouseover" end="reset.mouseout"/></use>
  </g>
</defs>
<script type="application/ecmascript">
var viewWidth = 934;
var viewHeight = 186;
var sectionId = 'dynsection-0';
</script>
<script type="application/ecmascript" xlink:href="svg.min.js"/>
<svg id="graph" class="graph">
<g id="viewport">
<title>Acts::WrappingConfig</title>
<!-- Node1 -->
<g id="Node000001" class="node">
<title>Node1</title>
<g id="a_Node000001"><a xlink:title="The WrappingSetup that is happening here.">
<polygon fill="#999999" stroke="#666666" points="926,-49.5 805,-49.5 805,-30.5 926,-30.5 926,-49.5"/>
<text text-anchor="middle" x="865.5" y="-37.5" font-family="Helvetica,sans-Serif" font-size="10.00">Acts::WrappingConfig</text>
</a>
</g>
</g>
<!-- Node2 -->
<g id="Node000002" class="node">
<title>Node2</title>
<g id="a_Node000002"><a xlink:href="struct_acts_1_1_volume_config.html" target="_top" xlink:title="VolumeConfig struct to understand the layer config.">
<polygon fill="white" stroke="#666666" points="649,-72.5 538,-72.5 538,-53.5 649,-53.5 649,-72.5"/>
<text text-anchor="middle" x="593.5" y="-60.5" font-family="Helvetica,sans-Serif" font-size="10.00">Acts::VolumeConfig</text>
</a>
</g>
</g>
<!-- Node2&#45;&gt;Node1 -->
<g id="edge1_Node000001_Node000002" class="edge">
<title>Node2&#45;&gt;Node1</title>
<g id="a_edge1_Node000001_Node000002"><a xlink:title=" ">
<path fill="none" stroke="#9a32cd" stroke-dasharray="5,2" d="M659.21,-57.49C703.45,-53.72 761.65,-48.76 804.78,-45.09"/>
<polygon fill="#9a32cd" stroke="#9a32cd" points="658.81,-54.01 649.14,-58.35 659.4,-60.98 658.81,-54.01"/>
</a>
</g>
<text text-anchor="start" x="670" y="-167" font-family="Helvetica,sans-Serif" font-size="10.00" fill="grey">cVolumeConfig</text>
<text text-anchor="start" x="670" y="-152" font-family="Helvetica,sans-Serif" font-size="10.00" fill="grey">containerVolumeConfig</text>
<text text-anchor="start" x="670" y="-137" font-family="Helvetica,sans-Serif" font-size="10.00" fill="grey">existingVolumeConfig</text>
<text text-anchor="start" x="670" y="-122" font-family="Helvetica,sans-Serif" font-size="10.00" fill="grey">externalVolumeConfig</text>
<text text-anchor="start" x="670" y="-107" font-family="Helvetica,sans-Serif" font-size="10.00" fill="grey">fGapVolumeConfig</text>
<text text-anchor="start" x="670" y="-92" font-family="Helvetica,sans-Serif" font-size="10.00" fill="grey">nVolumeConfig</text>
<text text-anchor="start" x="670" y="-77" font-family="Helvetica,sans-Serif" font-size="10.00" fill="grey">pVolumeConfig</text>
<text text-anchor="start" x="670" y="-62" font-family="Helvetica,sans-Serif" font-size="10.00" fill="grey">sGapVolumeConfig</text>
</g>
<!-- Node3 -->
<g id="Node000003" class="node">
<title>Node3</title>
<g id="a_Node000003"><a xlink:title=" ">
<polygon fill="white" stroke="#666666" points="438.5,-115.5 307.5,-115.5 307.5,-96.5 438.5,-96.5 438.5,-115.5"/>
<text text-anchor="middle" x="373" y="-103.5" font-family="Helvetica,sans-Serif" font-size="10.00">std::vector&lt; LayerPtr &gt;</text>
</a>
</g>
</g>
<!-- Node3&#45;&gt;Node2 -->
<g id="edge2_Node000002_Node000003" class="edge">
<title>Node3&#45;&gt;Node2</title>
<g id="a_edge2_Node000002_Node000003"><a xlink:title=" ">
<path fill="none" stroke="#9a32cd" stroke-dasharray="5,2" d="M448.6,-95.11C471.58,-91.39 496.91,-86.91 520,-82 532.73,-79.29 546.57,-75.8 558.72,-72.55"/>
<polygon fill="#9a32cd" stroke="#9a32cd" points="447.89,-91.68 438.57,-96.72 448.99,-98.59 447.89,-91.68"/>
</a>
</g>
<text text-anchor="start" x="480.5" y="-96.5" font-family="Helvetica,sans-Serif" font-size="10.00" fill="grey">layers</text>
</g>
<!-- Node4 -->
<g id="Node000004" class="node">
<title>Node4</title>
<g id="a_Node000004"><a xlink:title=" ">
<polygon fill="white" stroke="#666666" points="97,-93.5 0,-93.5 0,-74.5 97,-74.5 97,-93.5"/>
<text text-anchor="middle" x="48.5" y="-81.5" font-family="Helvetica,sans-Serif" font-size="10.00">std::vector&lt; T &gt;</text>
</a>
</g>
</g>
<!-- Node4&#45;&gt;Node3 -->
<g id="edge3_Node000003_Node000004" class="edge">
<title>Node4&#45;&gt;Node3</title>
<g id="a_edge3_Node000003_Node000004"><a xlink:title=" ">
<path fill="none" stroke="orange" stroke-dasharray="5,2" d="M107.23,-87.94C163.43,-91.77 248.71,-97.59 307.21,-101.58"/>
<polygon fill="orange" stroke="orange" points="107.3,-84.43 97.09,-87.25 106.82,-91.42 107.3,-84.43"/>
</a>
</g>
<text text-anchor="start" x="163" y="-103.5" font-family="Helvetica,sans-Serif" font-size="10.00" fill="grey">&lt; LayerPtr &gt;</text>
</g>
<!-- Node5 -->
<g id="Node000005" class="node">
<title>Node5</title>
<g id="a_Node000005"><a xlink:title=" ">
<polygon fill="white" stroke="#666666" points="453,-78 293,-78 293,-48 453,-48 453,-78"/>
<text text-anchor="start" x="301" y="-66" font-family="Helvetica,sans-Serif" font-size="10.00">std::vector&lt; MutableTracking</text>
<text text-anchor="middle" x="373" y="-55" font-family="Helvetica,sans-Serif" font-size="10.00">VolumePtr &gt;</text>
</a>
</g>
</g>
<!-- Node4&#45;&gt;Node5 -->
<g id="edge5_Node000005_Node000004" class="edge">
<title>Node4&#45;&gt;Node5</title>
<g id="a_edge5_Node000005_Node000004"><a xlink:title=" ">
<path fill="none" stroke="orange" stroke-dasharray="5,2" d="M87.59,-71.76C96.5,-69.4 106.01,-67.27 115,-66 174.21,-57.66 241.85,-57.23 292.87,-58.71"/>
<polygon fill="orange" stroke="orange" points="86.54,-68.42 77.86,-74.5 88.43,-75.16 86.54,-68.42"/>
</a>
</g>
<text text-anchor="start" x="118" y="-71.5" font-family="Helvetica,sans-Serif" font-size="10.00" fill="grey">&lt; MutableTrackingVolumePtr &gt;</text>
</g>
<!-- Node5&#45;&gt;Node2 -->
<g id="edge4_Node000002_Node000005" class="edge">
<title>Node5&#45;&gt;Node2</title>
<g id="a_edge4_Node000002_Node000005"><a xlink:title=" ">
<path fill="none" stroke="#9a32cd" stroke-dasharray="5,2" d="M463.51,-63C488.7,-63 515.35,-63 537.84,-63"/>
<polygon fill="#9a32cd" stroke="#9a32cd" points="463.19,-59.5 453.19,-63 463.19,-66.5 463.19,-59.5"/>
</a>
</g>
<text text-anchor="start" x="474.5" y="-68.5" font-family="Helvetica,sans-Serif" font-size="10.00" fill="grey">volumes</text>
</g>
<!-- Node6 -->
<g id="Node000006" class="node">
<title>Node6</title>
<g id="a_Node000006"><a xlink:title=" ">
<polygon fill="white" stroke="#666666" points="626,-25.5 561,-25.5 561,-6.5 626,-6.5 626,-25.5"/>
<text text-anchor="middle" x="593.5" y="-13.5" font-family="Helvetica,sans-Serif" font-size="10.00">std::string</text>
</a>
</g>
</g>
<!-- Node6&#45;&gt;Node1 -->
<g id="edge6_Node000001_Node000006" class="edge">
<title>Node6&#45;&gt;Node1</title>
<g id="a_edge6_Node000001_Node000006"><a xlink:title=" ">
<path fill="none" stroke="#9a32cd" stroke-dasharray="5,2" d="M636.74,-16.66C675.82,-17.63 735.5,-20.03 787,-26 796.78,-27.13 807.19,-28.74 817.1,-30.45"/>
<polygon fill="#9a32cd" stroke="#9a32cd" points="636.36,-13.15 626.28,-16.42 636.2,-20.14 636.36,-13.15"/>
</a>
</g>
<text text-anchor="start" x="683" y="-31.5" font-family="Helvetica,sans-Serif" font-size="10.00" fill="grey">wConditionScreen</text>
</g>
<!-- Node7 -->
<g id="Node000007" class="node">
<title>Node7</title>
<g id="a_Node000007"><a xlink:title=" ">
<polygon fill="white" stroke="#666666" points="425,-30 321,-30 321,0 425,0 425,-30"/>
<text text-anchor="start" x="329" y="-18" font-family="Helvetica,sans-Serif" font-size="10.00">std::basic_string&lt;</text>
<text text-anchor="middle" x="373" y="-7" font-family="Helvetica,sans-Serif" font-size="10.00"> Char &gt;</text>
</a>
</g>
</g>
<!-- Node7&#45;&gt;Node6 -->
<g id="edge7_Node000006_Node000007" class="edge">
<title>Node7&#45;&gt;Node6</title>
<g id="a_edge7_Node000006_Node000007"><a xlink:title=" ">
<path fill="none" stroke="#63b8ff" d="M435.35,-15.28C476.18,-15.47 528.13,-15.71 560.86,-15.86"/>
<polygon fill="#63b8ff" stroke="#63b8ff" points="435.24,-11.78 425.23,-15.23 435.21,-18.78 435.24,-11.78"/>
</a>
</g>
</g>
</g>
</svg>

<g id="navigator" transform="translate(0 0)" fill="#404254">
  <rect fill="#f2f5e9" fill-opacity="0.5" stroke="#606060" stroke-width=".5" x="0" y="0" width="60" height="60"/>
  <use id="zoomplus" xlink:href="#zoomPlus" x="17" y="9" onmousedown="handleZoom(evt,'in')"/>
  <use id="zoomminus" xlink:href="#zoomMin" x="42" y="9" onmousedown="handleZoom(evt,'out')"/>
  <use id="reset" xlink:href="#resetDef" x="30" y="36" onmousedown="handleReset()"/>
   <use id="arrowup" xlink:href="#arrowUp" x="0" y="0" onmousedown="handlePan(0,-1)"/>
  <use id="arrowright" xlink:href="#arrowRight" x="0" y="0" onmousedown="handlePan(1,0)"/>
  <use id="arrowdown" xlink:href="#arrowDown" x="0" y="0" onmousedown="handlePan(0,1)"/>
  <use id="arrowleft" xlink:href="#arrowLeft" x="0" y="0" onmousedown="handlePan(-1,0)"/>
</g>
<svg viewBox="0 0 15 15" width="100%" height="30px" preserveAspectRatio="xMaxYMin meet">
 <g id="arrow_out" transform="scale(0.3 0.3)">
  <a xlink:href="struct_acts_1_1_wrapping_config__coll__graph_org.svg" target="_base">
   <rect id="button" ry="5" rx="5" y="6" x="6" height="38" width="38"
        fill="#f2f5e9" fill-opacity="0.5" stroke="#606060" stroke-width="1.0"/>
   <path id="arrow"
     d="M 11.500037,31.436501 C 11.940474,20.09759 22.043105,11.32322 32.158766,21.979434 L 37.068811,17.246167 C 37.068811,17.246167 37.088388,32 37.088388,32 L 22.160133,31.978069 C 22.160133,31.978069 26.997745,27.140456 26.997745,27.140456 C 18.528582,18.264221 13.291696,25.230495 11.500037,31.436501 z"
     style="fill:#404040;"/>
  </a>
 </g>
</svg>

<style type='text/css'>
<![CDATA[
[data-mouse-over-selected='false'] { opacity: 0.7; }
[data-mouse-over-selected='true']  { opacity: 1.0; }
]]>
</style>
<script type="application/ecmascript"><![CDATA[
document.addEventListener('DOMContentLoaded', (event) => {
  highlightEdges();
  highlightAdjacentNodes();
});
]]></script>
</svg>
