<?xml version="1.0" encoding="UTF-8" standalone="no"?>
<!DOCTYPE svg PUBLIC "-//W3C//DTD SVG 1.1//EN"
 "http://www.w3.org/Graphics/SVG/1.1/DTD/svg11.dtd">
<!-- Generated by graphviz version 2.43.0 (0)
 -->
<!-- Title: Acts::SeedFinderConfig&lt; SpacePoint &gt; Pages: 1 -->
<!--zoomable 351 -->

<svg id="main" version="1.1" xmlns="http://www.w3.org/2000/svg" xmlns:xlink="http://www.w3.org/1999/xlink" xml:space="preserve" onload="init(evt)">

<style type="text/css"><![CDATA[
.node, .edge {opacity: 0.7;}
.node.selected, .edge.selected {opacity: 1;}
.edge:hover path { stroke: red; }
.edge:hover polygon { stroke: red; fill: red; }
]]></style>

<defs>
  <circle id="rim" cx="0" cy="0" r="7"/>
  <circle id="rim2" cx="0" cy="0" r="3.5"/>
  <g id="zoomPlus">
    <use xlink:href="#rim" fill="#404040"><set attributeName="fill" to="#808080" begin="zoomplus.mouseover" end="zoomplus.mouseout"/></use>
    <path d="M-4,0h8M0,-4v8" fill="none" stroke="white" stroke-width="1.5" pointer-events="none"/>
  </g>
  <g id="zoomMin">
    <use xlink:href="#rim" fill="#404040"><set attributeName="fill" to="#808080" begin="zoomminus.mouseover" end="zoomminus.mouseout"/></use>
    <path d="M-4,0h8" fill="none" stroke="white" stroke-width="1.5" pointer-events="none"/>
  </g>
  <g id="arrowUp" transform="translate(30 24)">
    <use xlink:href="#rim"/>
    <path pointer-events="none" fill="none" stroke="white" stroke-width="1.5" d="M0,-3.0v7 M-2.5,-0.5L0,-3.0L2.5,-0.5"/>
  </g>
  <g id="arrowRight" transform="rotate(90) translate(36 -43)">
    <use xlink:href="#rim"/>
    <path pointer-events="none" fill="none" stroke="white" stroke-width="1.5" d="M0,-3.0v7 M-2.5,-0.5L0,-3.0L2.5,-0.5"/>
  </g>
  <g id="arrowDown" transform="rotate(180) translate(-30 -48)">
    <use xlink:href="#rim"/>
    <path pointer-events="none" fill="none" stroke="white" stroke-width="1.5" d="M0,-3.0v7 M-2.5,-0.5L0,-3.0L2.5,-0.5"/>
  </g>
  <g id="arrowLeft" transform="rotate(270) translate(-36 17)">
    <use xlink:href="#rim"/>
    <path pointer-events="none" fill="none" stroke="white" stroke-width="1.5" d="M0,-3.0v7 M-2.5,-0.5L0,-3.0L2.5,-0.5"/>
  </g>
  <g id="resetDef">
    <use xlink:href="#rim2" fill="#404040"><set attributeName="fill" to="#808080" begin="reset.mouseover" end="reset.mouseout"/></use>
  </g>
</defs>
<script type="application/ecmascript">
var viewWidth = 831;
var viewHeight = 351;
var sectionId = 'dynsection-1';
</script>
<script type="application/ecmascript" xlink:href="svg.min.js"/>
<svg id="graph" class="graph">
<g id="viewport">
<title>Acts::SeedFinderConfig&lt; SpacePoint &gt;</title>
<!-- Node1 -->
<g id="Node000001" class="node">
<title>Node1</title>
<g id="a_Node000001"><a xlink:title="Structure that holds configuration parameters for the seed finder algorithm.">
<polygon fill="#999999" stroke="#666666" points="823,-204 695,-204 695,-174 823,-174 823,-204"/>
<text text-anchor="start" x="703" y="-192" font-family="Helvetica,sans-Serif" font-size="10.00">Acts::SeedFinderConfig</text>
<text text-anchor="middle" x="759" y="-181" font-family="Helvetica,sans-Serif" font-size="10.00">&lt; SpacePoint &gt;</text>
</a>
</g>
</g>
<!-- Node2 -->
<g id="Node000002" class="node">
<title>Node2</title>
<g id="a_Node000002"><a xlink:title=" ">
<polygon fill="white" stroke="#666666" points="496,-326 337,-326 337,-296 496,-296 496,-326"/>
<text text-anchor="start" x="345" y="-314" font-family="Helvetica,sans-Serif" font-size="10.00">std::shared_ptr&lt; Acts</text>
<text text-anchor="middle" x="416.5" y="-303" font-family="Helvetica,sans-Serif" font-size="10.00">::SeedFilter&lt; SpacePoint &gt; &gt;</text>
</a>
</g>
</g>
<!-- Node2&#45;&gt;Node1 -->
<g id="edge1_Node000001_Node000002" class="edge">
<title>Node2&#45;&gt;Node1</title>
<g id="a_edge1_Node000001_Node000002"><a xlink:title=" ">
<path fill="none" stroke="#9a32cd" stroke-dasharray="5,2" d="M506.55,-318.25C558.98,-318.7 624.99,-312.4 677,-285 711.92,-266.6 737.95,-226.23 750.21,-204.15"/>
<polygon fill="#9a32cd" stroke="#9a32cd" points="506.32,-314.74 496.26,-318.07 506.2,-321.74 506.32,-314.74"/>
</a>
</g>
<text text-anchor="start" x="572" y="-323.5" font-family="Helvetica,sans-Serif" font-size="10.00" fill="grey">seedFilter</text>
</g>
<!-- Node3 -->
<g id="Node000003" class="node">
<title>Node3</title>
<g id="a_Node000003"><a xlink:title=" ">
<polygon fill="white" stroke="#666666" points="135,-320.5 17,-320.5 17,-301.5 135,-301.5 135,-320.5"/>
<text text-anchor="middle" x="76" y="-308.5" font-family="Helvetica,sans-Serif" font-size="10.00">std::shared_ptr&lt; T &gt;</text>
</a>
</g>
</g>
<!-- Node3&#45;&gt;Node2 -->
<g id="edge2_Node000002_Node000003" class="edge">
<title>Node3&#45;&gt;Node2</title>
<g id="a_edge2_Node000002_Node000003"><a xlink:title=" ">
<path fill="none" stroke="orange" stroke-dasharray="5,2" d="M145.26,-311C200.67,-311 278.84,-311 336.86,-311"/>
<polygon fill="orange" stroke="orange" points="145.19,-307.5 135.19,-311 145.19,-314.5 145.19,-307.5"/>
</a>
</g>
<text text-anchor="start" x="197" y="-332" font-family="Helvetica,sans-Serif" font-size="10.00" fill="grey">&lt; Acts::SeedFilter</text>
<text text-anchor="start" x="197" y="-317" font-family="Helvetica,sans-Serif" font-size="10.00" fill="grey">  &lt; SpacePoint &gt; &gt;</text>
</g>
<!-- Node4 -->
<g id="Node000004" class="node">
<title>Node4</title>
<g id="a_Node000004"><a xlink:title=" ">
<polygon fill="white" stroke="#666666" points="473,-277.5 360,-277.5 360,-258.5 473,-258.5 473,-277.5"/>
<text text-anchor="middle" x="416.5" y="-265.5" font-family="Helvetica,sans-Serif" font-size="10.00">std::vector&lt; float &gt;</text>
</a>
</g>
</g>
<!-- Node4&#45;&gt;Node1 -->
<g id="edge3_Node000001_Node000004" class="edge">
<title>Node4&#45;&gt;Node1</title>
<g id="a_edge3_Node000001_Node000004"><a xlink:title=" ">
<path fill="none" stroke="#9a32cd" stroke-dasharray="5,2" d="M483.31,-265.99C548.24,-263.32 642.63,-257.42 677,-245 701.92,-236 726.36,-217.37 741.76,-204.07"/>
<polygon fill="#9a32cd" stroke="#9a32cd" points="483.01,-262.5 473.15,-266.39 483.28,-269.49 483.01,-262.5"/>
</a>
</g>
<text text-anchor="start" x="571" y="-269.5" font-family="Helvetica,sans-Serif" font-size="10.00" fill="grey">zBinEdges</text>
</g>
<!-- Node5 -->
<g id="Node000005" class="node">
<title>Node5</title>
<g id="a_Node000005"><a xlink:title=" ">
<polygon fill="white" stroke="#666666" points="124.5,-237.5 27.5,-237.5 27.5,-218.5 124.5,-218.5 124.5,-237.5"/>
<text text-anchor="middle" x="76" y="-225.5" font-family="Helvetica,sans-Serif" font-size="10.00">std::vector&lt; T &gt;</text>
</a>
</g>
</g>
<!-- Node5&#45;&gt;Node4 -->
<g id="edge4_Node000004_Node000005" class="edge">
<title>Node5&#45;&gt;Node4</title>
<g id="a_edge4_Node000004_Node000005"><a xlink:title=" ">
<path fill="none" stroke="orange" stroke-dasharray="5,2" d="M131.27,-239.47C143.94,-241.88 157.41,-244.22 170,-246 234.83,-255.15 309.86,-261.22 359.74,-264.63"/>
<polygon fill="orange" stroke="orange" points="131.8,-236 121.31,-237.53 130.46,-242.88 131.8,-236"/>
</a>
</g>
<text text-anchor="start" x="222" y="-266.5" font-family="Helvetica,sans-Serif" font-size="10.00" fill="grey">&lt; float &gt;</text>
</g>
<!-- Node6 -->
<g id="Node000006" class="node">
<title>Node6</title>
<g id="a_Node000006"><a xlink:title=" ">
<polygon fill="white" stroke="#666666" points="486.5,-239.5 346.5,-239.5 346.5,-220.5 486.5,-220.5 486.5,-239.5"/>
<text text-anchor="middle" x="416.5" y="-227.5" font-family="Helvetica,sans-Serif" font-size="10.00">std::vector&lt; std::size_t &gt;</text>
</a>
</g>
</g>
<!-- Node5&#45;&gt;Node6 -->
<g id="edge6_Node000006_Node000005" class="edge">
<title>Node5&#45;&gt;Node6</title>
<g id="a_edge6_Node000006_Node000005"><a xlink:title=" ">
<path fill="none" stroke="orange" stroke-dasharray="5,2" d="M134.61,-228.14C183.44,-228.28 255.31,-228.55 318,-229 327.14,-229.07 336.76,-229.15 346.26,-229.24"/>
<polygon fill="orange" stroke="orange" points="134.57,-224.64 124.56,-228.11 134.55,-231.64 134.57,-224.64"/>
</a>
</g>
<text text-anchor="start" x="208" y="-234.5" font-family="Helvetica,sans-Serif" font-size="10.00" fill="grey">&lt; std::size_t &gt;</text>
</g>
<!-- Node7 -->
<g id="Node000007" class="node">
<title>Node7</title>
<g id="a_Node000007"><a xlink:title=" ">
<polygon fill="white" stroke="#666666" points="482,-202 351,-202 351,-172 482,-172 482,-202"/>
<text text-anchor="start" x="359" y="-190" font-family="Helvetica,sans-Serif" font-size="10.00">std::vector&lt; std::vector</text>
<text text-anchor="middle" x="416.5" y="-179" font-family="Helvetica,sans-Serif" font-size="10.00">&lt; float &gt; &gt;</text>
</a>
</g>
</g>
<!-- Node5&#45;&gt;Node7 -->
<g id="edge8_Node000007_Node000005" class="edge">
<title>Node5&#45;&gt;Node7</title>
<g id="a_edge8_Node000007_Node000005"><a xlink:title=" ">
<path fill="none" stroke="orange" stroke-dasharray="5,2" d="M123.77,-216.09C138.48,-212.71 154.84,-209.32 170,-207 230.98,-197.68 301.18,-192.51 350.86,-189.78"/>
<polygon fill="orange" stroke="orange" points="122.81,-212.72 113.88,-218.42 124.42,-219.53 122.81,-212.72"/>
</a>
</g>
<text text-anchor="start" x="185" y="-212.5" font-family="Helvetica,sans-Serif" font-size="10.00" fill="grey">&lt; std::vector&lt; float &gt; &gt;</text>
</g>
<!-- Node6&#45;&gt;Node1 -->
<g id="edge5_Node000001_Node000006" class="edge">
<title>Node6&#45;&gt;Node1</title>
<g id="a_edge5_Node000001_Node000006"><a xlink:title=" ">
<path fill="none" stroke="#9a32cd" stroke-dasharray="5,2" d="M496.71,-225.66C548.27,-222.18 616.87,-216.31 677,-207 682.84,-206.1 688.88,-205.02 694.92,-203.85"/>
<polygon fill="#9a32cd" stroke="#9a32cd" points="496.39,-222.18 486.64,-226.33 496.85,-229.16 496.39,-222.18"/>
</a>
</g>
<text text-anchor="start" x="545" y="-229.5" font-family="Helvetica,sans-Serif" font-size="10.00" fill="grey">zBinsCustomLooping</text>
</g>
<!-- Node7&#45;&gt;Node1 -->
<g id="edge7_Node000001_Node000007" class="edge">
<title>Node7&#45;&gt;Node1</title>
<g id="a_edge7_Node000001_Node000007"><a xlink:title=" ">
<path fill="none" stroke="#9a32cd" stroke-dasharray="5,2" d="M492.62,-187.44C553.27,-187.8 637.63,-188.29 694.83,-188.63"/>
<polygon fill="#9a32cd" stroke="#9a32cd" points="492.37,-183.94 482.35,-187.38 492.33,-190.94 492.37,-183.94"/>
</a>
</g>
<text text-anchor="start" x="556" y="-193.5" font-family="Helvetica,sans-Serif" font-size="10.00" fill="grey">rRangeMiddleSP</text>
</g>
<!-- Node8 -->
<g id="Node000008" class="node">
<title>Node8</title>
<g id="a_Node000008"><a xlink:href="struct_acts_1_1_seed_confirmation_range_config.html" target="_top" xlink:title="Contains parameters for quality seed confirmation.">
<polygon fill="white" stroke="#666666" points="497,-151 336,-151 336,-121 497,-121 497,-151"/>
<text text-anchor="start" x="344" y="-139" font-family="Helvetica,sans-Serif" font-size="10.00">Acts::SeedConfirmationRange</text>
<text text-anchor="middle" x="416.5" y="-128" font-family="Helvetica,sans-Serif" font-size="10.00">Config</text>
</a>
</g>
</g>
<!-- Node8&#45;&gt;Node1 -->
<g id="edge9_Node000001_Node000008" class="edge">
<title>Node8&#45;&gt;Node1</title>
<g id="a_edge9_Node000001_Node000008"><a xlink:title=" ">
<path fill="none" stroke="#9a32cd" stroke-dasharray="5,2" d="M507.29,-132.87C557.85,-133.16 621.75,-137 677,-151 696.42,-155.92 716.84,-165.53 732.32,-173.86"/>
<polygon fill="#9a32cd" stroke="#9a32cd" points="507.04,-129.37 497.04,-132.86 507.03,-136.37 507.04,-129.37"/>
</a>
</g>
<text text-anchor="start" x="518" y="-172" font-family="Helvetica,sans-Serif" font-size="10.00" fill="grey">centralSeedConfirmationRange</text>
<text text-anchor="start" x="518" y="-157" font-family="Helvetica,sans-Serif" font-size="10.00" fill="grey">forwardSeedConfirmationRange</text>
</g>
<!-- Node9 -->
<g id="Node000009" class="node">
<title>Node9</title>
<g id="a_Node000009"><a xlink:href="class_acts_1_1_delegate.html" target="_top" xlink:title=" ">
<polygon fill="white" stroke="#666666" points="479.5,-103 353.5,-103 353.5,-73 479.5,-73 479.5,-103"/>
<text text-anchor="start" x="361.5" y="-91" font-family="Helvetica,sans-Serif" font-size="10.00">Acts::Delegate&lt; bool</text>
<text text-anchor="middle" x="416.5" y="-80" font-family="Helvetica,sans-Serif" font-size="10.00">(const SpacePoint &amp;)&gt;</text>
</a>
</g>
</g>
<!-- Node9&#45;&gt;Node1 -->
<g id="edge10_Node000001_Node000009" class="edge">
<title>Node9&#45;&gt;Node1</title>
<g id="a_edge10_Node000001_Node000009"><a xlink:title=" ">
<path fill="none" stroke="#9a32cd" stroke-dasharray="5,2" d="M489.84,-81.82C543.79,-80.14 618.03,-84.14 677,-111 707.56,-124.92 733.62,-155.35 747.43,-173.81"/>
<polygon fill="#9a32cd" stroke="#9a32cd" points="489.53,-78.33 479.67,-82.22 489.8,-85.33 489.53,-78.33"/>
</a>
</g>
<text text-anchor="start" x="549" y="-116.5" font-family="Helvetica,sans-Serif" font-size="10.00" fill="grey">spacePointSelector</text>
</g>
<!-- Node10 -->
<g id="Node000010" class="node">
<title>Node10</title>
<g id="a_Node000010"><a xlink:href="class_acts_1_1_delegate.html" target="_top" xlink:title=" ">
<polygon fill="white" stroke="#666666" points="152,-71 0,-71 0,-41 152,-41 152,-71"/>
<text text-anchor="start" x="8" y="-59" font-family="Helvetica,sans-Serif" font-size="10.00">Acts::Delegate&lt; typename,</text>
<text text-anchor="middle" x="76" y="-48" font-family="Helvetica,sans-Serif" font-size="10.00"> H, DelegateType &gt;</text>
</a>
</g>
</g>
<!-- Node10&#45;&gt;Node9 -->
<g id="edge11_Node000009_Node000010" class="edge">
<title>Node10&#45;&gt;Node9</title>
<g id="a_edge11_Node000009_Node000010"><a xlink:title=" ">
<path fill="none" stroke="orange" stroke-dasharray="5,2" d="M162.24,-68.13C164.86,-68.43 167.45,-68.72 170,-69 232.26,-75.75 303.66,-81 353.35,-84.25"/>
<polygon fill="orange" stroke="orange" points="162.42,-64.62 152.07,-66.9 161.58,-71.57 162.42,-64.62"/>
</a>
</g>
<text text-anchor="start" x="173" y="-87.5" font-family="Helvetica,sans-Serif" font-size="10.00" fill="grey">&lt; bool(const SpacePoint &amp;)&gt;</text>
</g>
<!-- Node11 -->
<g id="Node000011" class="node">
<title>Node11</title>
<g id="a_Node000011"><a xlink:href="class_acts_1_1_delegate.html" target="_top" xlink:title=" ">
<polygon fill="white" stroke="#666666" points="488.5,-52 344.5,-52 344.5,0 488.5,0 488.5,-52"/>
<text text-anchor="start" x="352.5" y="-40" font-family="Helvetica,sans-Serif" font-size="10.00">Acts::Delegate&lt; bool</text>
<text text-anchor="start" x="352.5" y="-29" font-family="Helvetica,sans-Serif" font-size="10.00">(const SpacePoint &amp;,</text>
<text text-anchor="start" x="352.5" y="-18" font-family="Helvetica,sans-Serif" font-size="10.00"> const SpacePoint &amp;, float,</text>
<text text-anchor="middle" x="416.5" y="-7" font-family="Helvetica,sans-Serif" font-size="10.00"> bool)&gt;</text>
</a>
</g>
</g>
<!-- Node10&#45;&gt;Node11 -->
<g id="edge13_Node000011_Node000010" class="edge">
<title>Node10&#45;&gt;Node11</title>
<g id="a_edge13_Node000011_Node000010"><a xlink:title=" ">
<path fill="none" stroke="orange" stroke-dasharray="5,2" d="M118.79,-37.19C134.51,-31.06 152.76,-25.05 170,-22 228.03,-11.73 294.98,-13.71 344.29,-17.72"/>
<polygon fill="orange" stroke="orange" points="117.33,-34 109.36,-40.99 119.95,-40.49 117.33,-34"/>
</a>
</g>
<text text-anchor="start" x="184" y="-57.5" font-family="Helvetica,sans-Serif" font-size="10.00" fill="grey">&lt; bool(const SpacePoint</text>
<text text-anchor="start" x="184" y="-42.5" font-family="Helvetica,sans-Serif" font-size="10.00" fill="grey">   &amp;, const SpacePoint &amp;,</text>
<text text-anchor="start" x="184" y="-27.5" font-family="Helvetica,sans-Serif" font-size="10.00" fill="grey">   float, bool)&gt;</text>
</g>
<!-- Node11&#45;&gt;Node1 -->
<g id="edge12_Node000001_Node000011" class="edge">
<title>Node11&#45;&gt;Node1</title>
<g id="a_edge12_Node000001_Node000011"><a xlink:title=" ">
<path fill="none" stroke="#9a32cd" stroke-dasharray="5,2" d="M498.86,-19.86C553.29,-19.64 624.34,-27.22 677,-61 719.28,-88.12 743.56,-146.02 753.16,-173.68"/>
<polygon fill="#9a32cd" stroke="#9a32cd" points="498.5,-16.37 488.55,-20 498.59,-23.37 498.5,-16.37"/>
</a>
</g>
<text text-anchor="start" x="557" y="-66.5" font-family="Helvetica,sans-Serif" font-size="10.00" fill="grey">experimentCuts</text>
</g>
</g>
</svg>

<g id="navigator" transform="translate(0 0)" fill="#404254">
  <rect fill="#f2f5e9" fill-opacity="0.5" stroke="#606060" stroke-width=".5" x="0" y="0" width="60" height="60"/>
  <use id="zoomplus" xlink:href="#zoomPlus" x="17" y="9" onmousedown="handleZoom(evt,'in')"/>
  <use id="zoomminus" xlink:href="#zoomMin" x="42" y="9" onmousedown="handleZoom(evt,'out')"/>
  <use id="reset" xlink:href="#resetDef" x="30" y="36" onmousedown="handleReset()"/>
   <use id="arrowup" xlink:href="#arrowUp" x="0" y="0" onmousedown="handlePan(0,-1)"/>
  <use id="arrowright" xlink:href="#arrowRight" x="0" y="0" onmousedown="handlePan(1,0)"/>
  <use id="arrowdown" xlink:href="#arrowDown" x="0" y="0" onmousedown="handlePan(0,1)"/>
  <use id="arrowleft" xlink:href="#arrowLeft" x="0" y="0" onmousedown="handlePan(-1,0)"/>
</g>
<svg viewBox="0 0 15 15" width="100%" height="30px" preserveAspectRatio="xMaxYMin meet">
 <g id="arrow_out" transform="scale(0.3 0.3)">
  <a xlink:href="struct_acts_1_1_seed_finder_config__coll__graph_org.svg" target="_base">
   <rect id="button" ry="5" rx="5" y="6" x="6" height="38" width="38"
        fill="#f2f5e9" fill-opacity="0.5" stroke="#606060" stroke-width="1.0"/>
   <path id="arrow"
     d="M 11.500037,31.436501 C 11.940474,20.09759 22.043105,11.32322 32.158766,21.979434 L 37.068811,17.246167 C 37.068811,17.246167 37.088388,32 37.088388,32 L 22.160133,31.978069 C 22.160133,31.978069 26.997745,27.140456 26.997745,27.140456 C 18.528582,18.264221 13.291696,25.230495 11.500037,31.436501 z"
     style="fill:#404040;"/>
  </a>
 </g>
</svg>

<style type='text/css'>
<![CDATA[
[data-mouse-over-selected='false'] { opacity: 0.7; }
[data-mouse-over-selected='true']  { opacity: 1.0; }
]]>
</style>
<script type="application/ecmascript"><![CDATA[
document.addEventListener('DOMContentLoaded', (event) => {
  highlightEdges();
  highlightAdjacentNodes();
});
]]></script>
</svg>
