<?xml version="1.0" encoding="UTF-8" standalone="no"?>
<!DOCTYPE svg PUBLIC "-//W3C//DTD SVG 1.1//EN"
 "http://www.w3.org/Graphics/SVG/1.1/DTD/svg11.dtd">
<!-- Generated by graphviz version 2.43.0 (0)
 -->
<!-- Title: Acts::TryAllNavigator::State Pages: 1 -->
<svg width="1910pt" height="284pt"
 viewBox="0.00 0.00 1910.00 283.50" xmlns="http://www.w3.org/2000/svg" xmlns:xlink="http://www.w3.org/1999/xlink">
<g id="graph0" class="graph" transform="scale(1 1) rotate(0) translate(4 279.5)">
<title>Acts::TryAllNavigator::State</title>
<!-- Node1 -->
<g id="Node000001" class="node">
<title>Node1</title>
<g id="a_Node000001"><a xlink:title="Nested State struct.">
<polygon fill="#999999" stroke="#666666" points="1902,-91 1783,-91 1783,-61 1902,-61 1902,-91"/>
<text text-anchor="start" x="1791" y="-79" font-family="Helvetica,sans-Serif" font-size="10.00">Acts::TryAllNavigator</text>
<text text-anchor="middle" x="1842.5" y="-68" font-family="Helvetica,sans-Serif" font-size="10.00">::State</text>
</a>
</g>
</g>
<!-- Node2 -->
<g id="Node000002" class="node">
<title>Node2</title>
<g id="a_Node000002"><a xlink:href="struct_acts_1_1_try_all_navigator_base_1_1_state.html" target="_top" xlink:title="Nested State struct.">
<polygon fill="white" stroke="#666666" points="1746,-137 1603,-137 1603,-107 1746,-107 1746,-137"/>
<text text-anchor="start" x="1611" y="-125" font-family="Helvetica,sans-Serif" font-size="10.00">Acts::TryAllNavigatorBase</text>
<text text-anchor="middle" x="1674.5" y="-114" font-family="Helvetica,sans-Serif" font-size="10.00">::State</text>
</a>
</g>
</g>
<!-- Node2&#45;&gt;Node1 -->
<g id="edge1_Node000001_Node000002" class="edge">
<title>Node2&#45;&gt;Node1</title>
<g id="a_edge1_Node000001_Node000002"><a xlink:title=" ">
<path fill="none" stroke="#63b8ff" d="M1739.53,-104.26C1755.31,-99.89 1772.05,-95.25 1787.31,-91.02"/>
<polygon fill="#63b8ff" stroke="#63b8ff" points="1738.56,-100.89 1729.85,-106.94 1740.43,-107.64 1738.56,-100.89"/>
</a>
</g>
</g>
<!-- Node3 -->
<g id="Node000003" class="node">
<title>Node3</title>
<g id="a_Node000003"><a xlink:href="struct_acts_1_1_try_all_navigator_base_1_1_options.html" target="_top" xlink:title="Options for this Navigator.">
<polygon fill="white" stroke="#666666" points="1441.5,-199 1298.5,-199 1298.5,-169 1441.5,-169 1441.5,-199"/>
<text text-anchor="start" x="1306.5" y="-187" font-family="Helvetica,sans-Serif" font-size="10.00">Acts::TryAllNavigatorBase</text>
<text text-anchor="middle" x="1370" y="-176" font-family="Helvetica,sans-Serif" font-size="10.00">::Options</text>
</a>
</g>
</g>
<!-- Node3&#45;&gt;Node2 -->
<g id="edge2_Node000002_Node000003" class="edge">
<title>Node3&#45;&gt;Node2</title>
<g id="a_edge2_Node000002_Node000003"><a xlink:title=" ">
<path fill="none" stroke="#9a32cd" stroke-dasharray="5,2" d="M1451.7,-177.34C1492.12,-172.93 1541.59,-165.89 1585,-155 1602.97,-150.49 1622.32,-143.53 1638.33,-137.17"/>
<polygon fill="#9a32cd" stroke="#9a32cd" points="1451.2,-173.88 1441.62,-178.41 1451.94,-180.84 1451.2,-173.88"/>
</a>
</g>
<text text-anchor="start" x="1510.5" y="-179.5" font-family="Helvetica,sans-Serif" font-size="10.00" fill="grey">options</text>
</g>
<!-- Node4 -->
<g id="Node000004" class="node">
<title>Node4</title>
<g id="a_Node000004"><a xlink:href="struct_acts_1_1_navigator_plain_options.html" target="_top" xlink:title="Plain navigator options carrying geometry context and surfaces.">
<polygon fill="white" stroke="#666666" points="1111,-193.5 958,-193.5 958,-174.5 1111,-174.5 1111,-193.5"/>
<text text-anchor="middle" x="1034.5" y="-181.5" font-family="Helvetica,sans-Serif" font-size="10.00">Acts::NavigatorPlainOptions</text>
</a>
</g>
</g>
<!-- Node4&#45;&gt;Node3 -->
<g id="edge3_Node000003_Node000004" class="edge">
<title>Node4&#45;&gt;Node3</title>
<g id="a_edge3_Node000003_Node000004"><a xlink:title=" ">
<path fill="none" stroke="#63b8ff" d="M1121.25,-184C1176.24,-184 1246.74,-184 1298.47,-184"/>
<polygon fill="#63b8ff" stroke="#63b8ff" points="1121.18,-180.5 1111.18,-184 1121.18,-187.5 1121.18,-180.5"/>
</a>
</g>
</g>
<!-- Node5 -->
<g id="Node000005" class="node">
<title>Node5</title>
<g id="a_Node000005"><a xlink:href="class_acts_1_1_surface.html" target="_top" xlink:title="Abstract Base Class for tracking surfaces.">
<polygon fill="white" stroke="#666666" points="773,-117.5 693,-117.5 693,-98.5 773,-98.5 773,-117.5"/>
<text text-anchor="middle" x="733" y="-105.5" font-family="Helvetica,sans-Serif" font-size="10.00">Acts::Surface</text>
</a>
</g>
</g>
<!-- Node5&#45;&gt;Node2 -->
<g id="edge14_Node000002_Node000005" class="edge">
<title>Node5&#45;&gt;Node2</title>
<g id="a_edge14_Node000002_Node000005"><a xlink:title=" ">
<path fill="none" stroke="#9a32cd" stroke-dasharray="5,2" d="M783.39,-108.74C939.25,-111.06 1421.05,-118.24 1602.97,-120.95"/>
<polygon fill="#9a32cd" stroke="#9a32cd" points="783.22,-105.23 773.17,-108.58 783.12,-112.23 783.22,-105.23"/>
</a>
</g>
<text text-anchor="start" x="1162.5" y="-150.5" font-family="Helvetica,sans-Serif" font-size="10.00" fill="grey">currentSurface</text>
<text text-anchor="start" x="1162.5" y="-135.5" font-family="Helvetica,sans-Serif" font-size="10.00" fill="grey">startSurface</text>
<text text-anchor="start" x="1162.5" y="-120.5" font-family="Helvetica,sans-Serif" font-size="10.00" fill="grey">targetSurface</text>
</g>
<!-- Node5&#45;&gt;Node4 -->
<g id="edge4_Node000004_Node000005" class="edge">
<title>Node5&#45;&gt;Node4</title>
<g id="a_edge4_Node000004_Node000005"><a xlink:title=" ">
<path fill="none" stroke="#9a32cd" stroke-dasharray="5,2" d="M783.16,-115.48C825.23,-122.43 887.19,-133.97 940,-149 964.84,-156.07 992.44,-166.77 1011.17,-174.47"/>
<polygon fill="#9a32cd" stroke="#9a32cd" points="783.61,-112.01 773.17,-113.86 782.48,-118.92 783.61,-112.01"/>
</a>
</g>
<text text-anchor="start" x="855.5" y="-170" font-family="Helvetica,sans-Serif" font-size="10.00" fill="grey">startSurface</text>
<text text-anchor="start" x="855.5" y="-155" font-family="Helvetica,sans-Serif" font-size="10.00" fill="grey">targetSurface</text>
</g>
<!-- Node6 -->
<g id="Node000006" class="node">
<title>Node6</title>
<g id="a_Node000006"><a xlink:href="class_acts_1_1_geometry_object.html" target="_top" xlink:title="Base class to provide GeometryIdentifier interface:">
<polygon fill="white" stroke="#666666" points="428.5,-261.5 304.5,-261.5 304.5,-242.5 428.5,-242.5 428.5,-261.5"/>
<text text-anchor="middle" x="366.5" y="-249.5" font-family="Helvetica,sans-Serif" font-size="10.00">Acts::GeometryObject</text>
</a>
</g>
</g>
<!-- Node6&#45;&gt;Node5 -->
<g id="edge5_Node000005_Node000006" class="edge">
<title>Node6&#45;&gt;Node5</title>
<g id="a_edge5_Node000005_Node000006"><a xlink:title=" ">
<path fill="none" stroke="#63b8ff" d="M399.58,-238.07C413.94,-230.8 430.43,-220.92 443,-209 453.74,-198.82 449.03,-189.69 461,-181 523.47,-135.66 554.52,-157.24 629,-137 652.31,-130.67 678.5,-123.29 698.64,-117.56"/>
<polygon fill="#63b8ff" stroke="#63b8ff" points="397.99,-234.95 390.52,-242.46 401.04,-241.25 397.99,-234.95"/>
</a>
</g>
</g>
<!-- Node16 -->
<g id="Node000016" class="node">
<title>Node16</title>
<g id="a_Node000016"><a xlink:href="class_acts_1_1_volume.html" target="_top" xlink:title="It inherits from GeometryObject for geometry identification.">
<polygon fill="white" stroke="#666666" points="773,-275.5 693,-275.5 693,-256.5 773,-256.5 773,-275.5"/>
<text text-anchor="middle" x="733" y="-263.5" font-family="Helvetica,sans-Serif" font-size="10.00">Acts::Volume</text>
</a>
</g>
</g>
<!-- Node6&#45;&gt;Node16 -->
<g id="edge17_Node000016_Node000006" class="edge">
<title>Node6&#45;&gt;Node16</title>
<g id="a_edge17_Node000016_Node000006"><a xlink:title=" ">
<path fill="none" stroke="#63b8ff" d="M438.72,-261.17C446.23,-261.9 453.77,-262.54 461,-263 543.41,-268.29 640.19,-267.74 692.91,-266.87"/>
<polygon fill="#63b8ff" stroke="#63b8ff" points="438.83,-257.66 428.52,-260.12 438.11,-264.63 438.83,-257.66"/>
</a>
</g>
</g>
<!-- Node7 -->
<g id="Node000007" class="node">
<title>Node7</title>
<g id="a_Node000007"><a xlink:href="class_acts_1_1_geometry_identifier.html" target="_top" xlink:title="Identifier for geometry nodes within the geometry hierarchy.">
<polygon fill="white" stroke="#666666" points="136,-261.5 0,-261.5 0,-242.5 136,-242.5 136,-261.5"/>
<text text-anchor="middle" x="68" y="-249.5" font-family="Helvetica,sans-Serif" font-size="10.00">Acts::GeometryIdentifier</text>
</a>
</g>
</g>
<!-- Node7&#45;&gt;Node6 -->
<g id="edge6_Node000006_Node000007" class="edge">
<title>Node7&#45;&gt;Node6</title>
<g id="a_edge6_Node000006_Node000007"><a xlink:title=" ">
<path fill="none" stroke="#9a32cd" stroke-dasharray="5,2" d="M146.55,-252C195.68,-252 258.35,-252 304.04,-252"/>
<polygon fill="#9a32cd" stroke="#9a32cd" points="146.28,-248.5 136.28,-252 146.28,-255.5 146.28,-248.5"/>
</a>
</g>
<text text-anchor="start" x="177" y="-257.5" font-family="Helvetica,sans-Serif" font-size="10.00" fill="grey">m_geometryId</text>
</g>
<!-- Node8 -->
<g id="Node000008" class="node">
<title>Node8</title>
<g id="a_Node000008"><a xlink:title=" ">
<polygon fill="white" stroke="#bfbfbf" points="430.5,-44 302.5,-44 302.5,-14 430.5,-14 430.5,-44"/>
<text text-anchor="start" x="310.5" y="-32" font-family="Helvetica,sans-Serif" font-size="10.00">std::enable_shared</text>
<text text-anchor="middle" x="366.5" y="-21" font-family="Helvetica,sans-Serif" font-size="10.00">_from_this&lt; Surface &gt;</text>
</a>
</g>
</g>
<!-- Node8&#45;&gt;Node5 -->
<g id="edge7_Node000005_Node000008" class="edge">
<title>Node8&#45;&gt;Node5</title>
<g id="a_edge7_Node000005_Node000008"><a xlink:title=" ">
<path fill="none" stroke="#63b8ff" d="M440.56,-39.13C493.31,-47.1 566.04,-59.45 629,-75 655.43,-81.53 684.97,-91.25 705.61,-98.45"/>
<polygon fill="#63b8ff" stroke="#63b8ff" points="441.02,-35.66 430.61,-37.64 439.99,-42.58 441.02,-35.66"/>
</a>
</g>
</g>
<!-- Node9 -->
<g id="Node000009" class="node">
<title>Node9</title>
<g id="a_Node000009"><a xlink:title=" ">
<polygon fill="white" stroke="#666666" points="443,-151.5 290,-151.5 290,-110.5 443,-110.5 443,-151.5"/>
<text text-anchor="start" x="298" y="-139.5" font-family="Helvetica,sans-Serif" font-size="10.00">std::array&lt; std::string</text>
<text text-anchor="start" x="298" y="-128.5" font-family="Helvetica,sans-Serif" font-size="10.00">_view, Surface::SurfaceType</text>
<text text-anchor="middle" x="366.5" y="-117.5" font-family="Helvetica,sans-Serif" font-size="10.00">::Other+1 &gt;</text>
</a>
</g>
</g>
<!-- Node9&#45;&gt;Node5 -->
<g id="edge8_Node000005_Node000009" class="edge">
<title>Node9&#45;&gt;Node5</title>
<g id="a_edge8_Node000005_Node000009"><a xlink:title=" ">
<path fill="none" stroke="#9a32cd" stroke-dasharray="5,2" d="M453.31,-120.66C455.9,-120.42 458.47,-120.2 461,-120 543.38,-113.34 640.17,-110.17 692.9,-108.84"/>
<polygon fill="#9a32cd" stroke="#9a32cd" points="452.86,-117.19 443.23,-121.62 453.52,-124.15 452.86,-117.19"/>
</a>
</g>
<text text-anchor="start" x="493" y="-125.5" font-family="Helvetica,sans-Serif" font-size="10.00" fill="grey">s_surfaceTypeNames</text>
</g>
<!-- Node10 -->
<g id="Node000010" class="node">
<title>Node10</title>
<g id="a_Node000010"><a xlink:title=" ">
<polygon fill="white" stroke="#666666" points="114,-140.5 22,-140.5 22,-121.5 114,-121.5 114,-140.5"/>
<text text-anchor="middle" x="68" y="-128.5" font-family="Helvetica,sans-Serif" font-size="10.00">std::array&lt; T &gt;</text>
</a>
</g>
</g>
<!-- Node10&#45;&gt;Node9 -->
<g id="edge9_Node000009_Node000010" class="edge">
<title>Node10&#45;&gt;Node9</title>
<g id="a_edge9_Node000009_Node000010"><a xlink:title=" ">
<path fill="none" stroke="orange" stroke-dasharray="5,2" d="M124.24,-131C170.86,-131 238.07,-131 289.72,-131"/>
<polygon fill="orange" stroke="orange" points="124.03,-127.5 114.03,-131 124.03,-134.5 124.03,-127.5"/>
</a>
</g>
<text text-anchor="start" x="157" y="-166.5" font-family="Helvetica,sans-Serif" font-size="10.00" fill="grey">&lt; std::string_view,</text>
<text text-anchor="start" x="157" y="-151.5" font-family="Helvetica,sans-Serif" font-size="10.00" fill="grey">   Surface::SurfaceType</text>
<text text-anchor="start" x="157" y="-136.5" font-family="Helvetica,sans-Serif" font-size="10.00" fill="grey">  ::Other+1 &gt;</text>
</g>
<!-- Node11 -->
<g id="Node000011" class="node">
<title>Node11</title>
<g id="a_Node000011"><a xlink:href="class_acts_1_1_cloneable_ptr.html" target="_top" xlink:title=" ">
<polygon fill="white" stroke="#666666" points="428,-92 305,-92 305,-62 428,-62 428,-92"/>
<text text-anchor="start" x="313" y="-80" font-family="Helvetica,sans-Serif" font-size="10.00">Acts::CloneablePtr</text>
<text text-anchor="middle" x="366.5" y="-69" font-family="Helvetica,sans-Serif" font-size="10.00">&lt; const Transform3 &gt;</text>
</a>
</g>
</g>
<!-- Node11&#45;&gt;Node5 -->
<g id="edge10_Node000005_Node000011" class="edge">
<title>Node11&#45;&gt;Node5</title>
<g id="a_edge10_Node000005_Node000011"><a xlink:title=" ">
<path fill="none" stroke="#9a32cd" stroke-dasharray="5,2" d="M438.45,-77.64C491.16,-78.75 564.77,-81.64 629,-89 650.14,-91.42 673.47,-95.6 692.57,-99.42"/>
<polygon fill="#9a32cd" stroke="#9a32cd" points="438.26,-74.14 428.19,-77.44 438.12,-81.14 438.26,-74.14"/>
</a>
</g>
<text text-anchor="start" x="513" y="-94.5" font-family="Helvetica,sans-Serif" font-size="10.00" fill="grey">m_transform</text>
</g>
<!-- Node12 -->
<g id="Node000012" class="node">
<title>Node12</title>
<g id="a_Node000012"><a xlink:href="class_acts_1_1_cloneable_ptr.html" target="_top" xlink:title="A copyable smart pointer that uses a cloner function to copy the managed object.">
<polygon fill="white" stroke="#666666" points="135,-86.5 1,-86.5 1,-67.5 135,-67.5 135,-86.5"/>
<text text-anchor="middle" x="68" y="-74.5" font-family="Helvetica,sans-Serif" font-size="10.00">Acts::CloneablePtr&lt; T &gt;</text>
</a>
</g>
</g>
<!-- Node12&#45;&gt;Node11 -->
<g id="edge11_Node000011_Node000012" class="edge">
<title>Node12&#45;&gt;Node11</title>
<g id="a_edge11_Node000011_Node000012"><a xlink:title=" ">
<path fill="none" stroke="orange" stroke-dasharray="5,2" d="M145.2,-77C194.72,-77 258.43,-77 304.58,-77"/>
<polygon fill="orange" stroke="orange" points="145.17,-73.5 135.17,-77 145.17,-80.5 145.17,-73.5"/>
</a>
</g>
<text text-anchor="start" x="160" y="-82.5" font-family="Helvetica,sans-Serif" font-size="10.00" fill="grey">&lt; const Transform3 &gt;</text>
</g>
<!-- Node13 -->
<g id="Node000013" class="node">
<title>Node13</title>
<g id="a_Node000013"><a xlink:href="class_acts_1_1_delegate.html" target="_top" xlink:title=" ">
<polygon fill="white" stroke="#bfbfbf" points="819,-225 647,-225 647,-151 819,-151 819,-225"/>
<text text-anchor="start" x="655" y="-213" font-family="Helvetica,sans-Serif" font-size="10.00">Acts::Delegate&lt; bool</text>
<text text-anchor="start" x="655" y="-202" font-family="Helvetica,sans-Serif" font-size="10.00">(const GeometryContext</text>
<text text-anchor="start" x="655" y="-191" font-family="Helvetica,sans-Serif" font-size="10.00"> &amp;gctx, const TrackingVolume</text>
<text text-anchor="start" x="655" y="-180" font-family="Helvetica,sans-Serif" font-size="10.00"> &amp;currentVol, const Vector3</text>
<text text-anchor="start" x="655" y="-169" font-family="Helvetica,sans-Serif" font-size="10.00"> &amp;pos, const Vector3 &amp;dir, const</text>
<text text-anchor="middle" x="733" y="-158" font-family="Helvetica,sans-Serif" font-size="10.00"> Surface &amp;candidate)&gt;</text>
</a>
</g>
</g>
<!-- Node13&#45;&gt;Node4 -->
<g id="edge12_Node000004_Node000013" class="edge">
<title>Node13&#45;&gt;Node4</title>
<g id="a_edge12_Node000004_Node000013"><a xlink:title=" ">
<path fill="none" stroke="#9a32cd" stroke-dasharray="5,2" d="M829.17,-186.73C870.77,-186.17 918.88,-185.53 957.97,-185.01"/>
<polygon fill="#9a32cd" stroke="#9a32cd" points="828.98,-183.23 819.02,-186.86 829.07,-190.23 828.98,-183.23"/>
</a>
</g>
<text text-anchor="start" x="840.5" y="-191.5" font-family="Helvetica,sans-Serif" font-size="10.00" fill="grey">freeSurfaceSelector</text>
</g>
<!-- Node14 -->
<g id="Node000014" class="node">
<title>Node14</title>
<g id="a_Node000014"><a xlink:href="class_acts_1_1_delegate.html" target="_top" xlink:title=" ">
<polygon fill="white" stroke="#bfbfbf" points="442.5,-200 290.5,-200 290.5,-170 442.5,-170 442.5,-200"/>
<text text-anchor="start" x="298.5" y="-188" font-family="Helvetica,sans-Serif" font-size="10.00">Acts::Delegate&lt; typename,</text>
<text text-anchor="middle" x="366.5" y="-177" font-family="Helvetica,sans-Serif" font-size="10.00"> H, DelegateType &gt;</text>
</a>
</g>
</g>
<!-- Node14&#45;&gt;Node13 -->
<g id="edge13_Node000013_Node000014" class="edge">
<title>Node14&#45;&gt;Node13</title>
<g id="a_edge13_Node000013_Node000014"><a xlink:title=" ">
<path fill="none" stroke="orange" stroke-dasharray="5,2" d="M452.76,-184.99C503.87,-185.07 570.16,-185.32 629,-186 634.81,-186.07 640.81,-186.15 646.85,-186.24"/>
<polygon fill="orange" stroke="orange" points="452.75,-181.49 442.74,-184.98 452.74,-188.49 452.75,-181.49"/>
</a>
</g>
<text text-anchor="start" x="464" y="-251.5" font-family="Helvetica,sans-Serif" font-size="10.00" fill="grey">&lt; bool( const GeometryContext</text>
<text text-anchor="start" x="464" y="-236.5" font-family="Helvetica,sans-Serif" font-size="10.00" fill="grey">   &amp;gctx, const TrackingVolume</text>
<text text-anchor="start" x="464" y="-221.5" font-family="Helvetica,sans-Serif" font-size="10.00" fill="grey">   &amp;currentVol, const Vector3</text>
<text text-anchor="start" x="464" y="-206.5" font-family="Helvetica,sans-Serif" font-size="10.00" fill="grey">   &amp;pos, const Vector3 &amp;dir, const</text>
<text text-anchor="start" x="464" y="-191.5" font-family="Helvetica,sans-Serif" font-size="10.00" fill="grey">   Surface &amp;candidate)&gt;</text>
</g>
<!-- Node15 -->
<g id="Node000015" class="node">
<title>Node15</title>
<g id="a_Node000015"><a xlink:href="class_acts_1_1_tracking_volume.html" target="_top" xlink:title="Full Volume description used in Tracking, it inherits from Volume to get the geometrical structure.">
<polygon fill="white" stroke="#666666" points="1259,-257.5 1138,-257.5 1138,-238.5 1259,-238.5 1259,-257.5"/>
<text text-anchor="middle" x="1198.5" y="-245.5" font-family="Helvetica,sans-Serif" font-size="10.00">Acts::TrackingVolume</text>
</a>
</g>
</g>
<!-- Node15&#45;&gt;Node2 -->
<g id="edge15_Node000002_Node000015" class="edge">
<title>Node15&#45;&gt;Node2</title>
<g id="a_edge15_Node000002_Node000015"><a xlink:title=" ">
<path fill="none" stroke="#9a32cd" stroke-dasharray="5,2" d="M1269.41,-249.66C1349.1,-249.05 1481.67,-240.3 1585,-195 1615.65,-181.56 1644.18,-154.32 1660.18,-137.18"/>
<polygon fill="#9a32cd" stroke="#9a32cd" points="1269,-246.16 1259.01,-249.7 1269.02,-253.16 1269,-246.16"/>
</a>
</g>
<text text-anchor="start" x="1334" y="-254.5" font-family="Helvetica,sans-Serif" font-size="10.00" fill="grey">currentVolume</text>
</g>
<!-- Node16&#45;&gt;Node15 -->
<g id="edge16_Node000015_Node000016" class="edge">
<title>Node16&#45;&gt;Node15</title>
<g id="a_edge16_Node000015_Node000016"><a xlink:title=" ">
<path fill="none" stroke="#63b8ff" d="M783.37,-264.08C869.16,-260.75 1045.4,-253.91 1137.87,-250.32"/>
<polygon fill="#63b8ff" stroke="#63b8ff" points="782.97,-260.6 773.12,-264.48 783.25,-267.59 782.97,-260.6"/>
</a>
</g>
</g>
<!-- Node17 -->
<g id="Node000017" class="node">
<title>Node17</title>
<g id="a_Node000017"><a xlink:title=" ">
<polygon fill="white" stroke="#666666" points="1454,-71 1286,-71 1286,-41 1454,-41 1454,-71"/>
<text text-anchor="start" x="1294" y="-59" font-family="Helvetica,sans-Serif" font-size="10.00">std::vector&lt; detail</text>
<text text-anchor="middle" x="1370" y="-48" font-family="Helvetica,sans-Serif" font-size="10.00">::NavigationObjectCandidate &gt;</text>
</a>
</g>
</g>
<!-- Node17&#45;&gt;Node2 -->
<g id="edge18_Node000002_Node000017" class="edge">
<title>Node17&#45;&gt;Node2</title>
<g id="a_edge18_Node000002_Node000017"><a xlink:title=" ">
<path fill="none" stroke="#9a32cd" stroke-dasharray="5,2" d="M1464.17,-54.15C1502.32,-55.64 1546.46,-60.31 1585,-72 1609.99,-79.58 1635.67,-95.11 1652.88,-106.86"/>
<polygon fill="#9a32cd" stroke="#9a32cd" points="1464.2,-50.65 1454.09,-53.82 1463.98,-57.64 1464.2,-50.65"/>
</a>
</g>
<text text-anchor="start" x="1475.5" y="-77.5" font-family="Helvetica,sans-Serif" font-size="10.00" fill="grey">navigationCandidates</text>
</g>
<!-- Node18 -->
<g id="Node000018" class="node">
<title>Node18</title>
<g id="a_Node000018"><a xlink:title=" ">
<polygon fill="white" stroke="#666666" points="1083,-37.5 986,-37.5 986,-18.5 1083,-18.5 1083,-37.5"/>
<text text-anchor="middle" x="1034.5" y="-25.5" font-family="Helvetica,sans-Serif" font-size="10.00">std::vector&lt; T &gt;</text>
</a>
</g>
</g>
<!-- Node18&#45;&gt;Node17 -->
<g id="edge19_Node000017_Node000018" class="edge">
<title>Node18&#45;&gt;Node17</title>
<g id="a_edge19_Node000017_Node000018"><a xlink:title=" ">
<path fill="none" stroke="orange" stroke-dasharray="5,2" d="M1093.55,-32.87C1146.71,-37.34 1225.99,-43.99 1285.86,-49.02"/>
<polygon fill="orange" stroke="orange" points="1093.54,-29.36 1083.28,-32.01 1092.95,-36.34 1093.54,-29.36"/>
</a>
</g>
<text text-anchor="start" x="1133.5" y="-68" font-family="Helvetica,sans-Serif" font-size="10.00" fill="grey">&lt; detail::NavigationObject</text>
<text text-anchor="start" x="1133.5" y="-53" font-family="Helvetica,sans-Serif" font-size="10.00" fill="grey">  Candidate &gt;</text>
</g>
<!-- Node20 -->
<g id="Node000020" class="node">
<title>Node20</title>
<g id="a_Node000020"><a xlink:title=" ">
<polygon fill="white" stroke="#666666" points="1584,-30 1473,-30 1473,0 1584,0 1584,-30"/>
<text text-anchor="start" x="1481" y="-18" font-family="Helvetica,sans-Serif" font-size="10.00">std::vector&lt; Acts::</text>
<text text-anchor="middle" x="1528.5" y="-7" font-family="Helvetica,sans-Serif" font-size="10.00">NavigationTarget &gt;</text>
</a>
</g>
</g>
<!-- Node18&#45;&gt;Node20 -->
<g id="edge22_Node000020_Node000018" class="edge">
<title>Node18&#45;&gt;Node20</title>
<g id="a_edge22_Node000020_Node000018"><a xlink:title=" ">
<path fill="none" stroke="orange" stroke-dasharray="5,2" d="M1093.56,-19.4C1105.26,-17.99 1117.51,-16.75 1129,-16 1251.71,-8 1396.14,-10.63 1472.96,-12.98"/>
<polygon fill="orange" stroke="orange" points="1092.92,-15.96 1083.43,-20.68 1093.79,-22.9 1092.92,-15.96"/>
</a>
</g>
<text text-anchor="start" x="1132.5" y="-21.5" font-family="Helvetica,sans-Serif" font-size="10.00" fill="grey">&lt; Acts::NavigationTarget &gt;</text>
</g>
<!-- Node19 -->
<g id="Node000019" class="node">
<title>Node19</title>
<g id="a_Node000019"><a xlink:href="struct_acts_1_1_navigator_statistics.html" target="_top" xlink:title="A struct to hold statistics of the navigator.">
<polygon fill="white" stroke="#666666" points="1438.5,-150.5 1301.5,-150.5 1301.5,-131.5 1438.5,-131.5 1438.5,-150.5"/>
<text text-anchor="middle" x="1370" y="-138.5" font-family="Helvetica,sans-Serif" font-size="10.00">Acts::NavigatorStatistics</text>
</a>
</g>
</g>
<!-- Node19&#45;&gt;Node2 -->
<g id="edge20_Node000002_Node000019" class="edge">
<title>Node19&#45;&gt;Node2</title>
<g id="a_edge20_Node000002_Node000019"><a xlink:title=" ">
<path fill="none" stroke="#9a32cd" stroke-dasharray="5,2" d="M1448.75,-136.12C1496.28,-133.13 1556.6,-129.34 1602.78,-126.44"/>
<polygon fill="#9a32cd" stroke="#9a32cd" points="1448.27,-132.64 1438.51,-136.76 1448.71,-139.63 1448.27,-132.64"/>
</a>
</g>
<text text-anchor="start" x="1506.5" y="-139.5" font-family="Helvetica,sans-Serif" font-size="10.00" fill="grey">statistics</text>
</g>
<!-- Node20&#45;&gt;Node1 -->
<g id="edge21_Node000001_Node000020" class="edge">
<title>Node20&#45;&gt;Node1</title>
<g id="a_edge21_Node000001_Node000020"><a xlink:title=" ">
<path fill="none" stroke="#9a32cd" stroke-dasharray="5,2" d="M1594.29,-27.67C1649.84,-38.53 1729.19,-54.04 1782.88,-64.54"/>
<polygon fill="#9a32cd" stroke="#9a32cd" points="1594.69,-24.18 1584.2,-25.7 1593.35,-31.05 1594.69,-24.18"/>
</a>
</g>
<text text-anchor="start" x="1639.5" y="-63.5" font-family="Helvetica,sans-Serif" font-size="10.00" fill="grey">currentTargets</text>
</g>
</g>
</svg>
