<?xml version="1.0" encoding="UTF-8" standalone="no"?>
<!DOCTYPE svg PUBLIC "-//W3C//DTD SVG 1.1//EN"
 "http://www.w3.org/Graphics/SVG/1.1/DTD/svg11.dtd">
<!-- Generated by graphviz version 2.43.0 (0)
 -->
<!-- Title: Acts::KalmanFitterResult&lt; traj_t &gt; Pages: 1 -->
<svg width="282pt" height="193pt"
 viewBox="0.00 0.00 282.00 193.00" xmlns="http://www.w3.org/2000/svg" xmlns:xlink="http://www.w3.org/1999/xlink">

<svg id="main" version="1.1" xmlns="http://www.w3.org/2000/svg" xmlns:xlink="http://www.w3.org/1999/xlink" xml:space="preserve">

<style type="text/css"><![CDATA[
.node, .edge {opacity: 0.7;}
.node.selected, .edge.selected {opacity: 1;}
.edge:hover path { stroke: red; }
.edge:hover polygon { stroke: red; fill: red; }
]]></style>
<script type="application/ecmascript" xlink:href="svg.min.js"/>
<svg id="graph" class="graph">
<g id="graph0" class="graph" transform="scale(1 1) rotate(0) translate(4 189)">
<title>Acts::KalmanFitterResult&lt; traj_t &gt;</title>
<!-- Node1 -->
<g id="Node000001" class="node">
<title>Node1</title>
<g id="a_Node000001"><a xlink:title=" ">
<polygon fill="#999999" stroke="#666666" points="190.5,-30 53.5,-30 53.5,0 190.5,0 190.5,-30"/>
<text text-anchor="start" x="61.5" y="-18" font-family="Helvetica,sans-Serif" font-size="10.00">Acts::KalmanFitterResult</text>
<text text-anchor="middle" x="122" y="-7" font-family="Helvetica,sans-Serif" font-size="10.00">&lt; traj_t &gt;</text>
</a>
</g>
</g>
<!-- Node2 -->
<g id="Node000002" class="node">
<title>Node2</title>
<g id="a_Node000002"><a xlink:title=" ">
<polygon fill="white" stroke="#666666" points="106,-113 0,-113 0,-83 106,-83 106,-113"/>
<text text-anchor="start" x="8" y="-101" font-family="Helvetica,sans-Serif" font-size="10.00">std::vector&lt; const</text>
<text text-anchor="middle" x="53" y="-90" font-family="Helvetica,sans-Serif" font-size="10.00"> Acts::Surface * &gt;</text>
</a>
</g>
</g>
<!-- Node2&#45;&gt;Node1 -->
<g id="edge1_Node000001_Node000002" class="edge">
<title>Node2&#45;&gt;Node1</title>
<g id="a_edge1_Node000001_Node000002"><a xlink:title=" ">
<path fill="none" stroke="#9a32cd" stroke-dasharray="5,2" d="M48.51,-72.85C48.17,-64.4 49.31,-55.23 54,-48 58.9,-40.45 66.1,-34.64 74,-30.19"/>
<polygon fill="#9a32cd" stroke="#9a32cd" points="45.05,-73.39 49.58,-82.97 52.01,-72.66 45.05,-73.39"/>
</a>
</g>
<text text-anchor="start" x="57.5" y="-53.5" font-family="Helvetica,sans-Serif" font-size="10.00" fill="grey">missedActiveSurfaces</text>
</g>
<!-- Node3 -->
<g id="Node000003" class="node">
<title>Node3</title>
<g id="a_Node000003"><a xlink:title=" ">
<polygon fill="white" stroke="#666666" points="101.5,-185 4.5,-185 4.5,-166 101.5,-166 101.5,-185"/>
<text text-anchor="middle" x="53" y="-173" font-family="Helvetica,sans-Serif" font-size="10.00">std::vector&lt; T &gt;</text>
</a>
</g>
</g>
<!-- Node3&#45;&gt;Node2 -->
<g id="edge2_Node000002_Node000003" class="edge">
<title>Node3&#45;&gt;Node2</title>
<g id="a_edge2_Node000002_Node000003"><a xlink:title=" ">
<path fill="none" stroke="orange" stroke-dasharray="5,2" d="M53,-155.57C53,-142.43 53,-125.18 53,-113.21"/>
<polygon fill="orange" stroke="orange" points="49.5,-155.84 53,-165.84 56.5,-155.84 49.5,-155.84"/>
</a>
</g>
<text text-anchor="start" x="56" y="-136.5" font-family="Helvetica,sans-Serif" font-size="10.00" fill="grey">&lt; const Acts::Surface * &gt;</text>
</g>
<!-- Node4 -->
<g id="Node000004" class="node">
<title>Node4</title>
<g id="a_Node000004"><a xlink:href="struct_acts_1_1_path_limit_reached.html" target="_top" xlink:title="This is the condition that the pathLimit has been reached.">
<polygon fill="white" stroke="#666666" points="256.5,-107.5 125.5,-107.5 125.5,-88.5 256.5,-88.5 256.5,-107.5"/>
<text text-anchor="middle" x="191" y="-95.5" font-family="Helvetica,sans-Serif" font-size="10.00">Acts::PathLimitReached</text>
</a>
</g>
</g>
<!-- Node4&#45;&gt;Node1 -->
<g id="edge3_Node000001_Node000004" class="edge">
<title>Node4&#45;&gt;Node1</title>
<g id="a_edge3_Node000001_Node000004"><a xlink:title=" ">
<path fill="none" stroke="#9a32cd" stroke-dasharray="5,2" d="M185.48,-78.62C181.89,-68.8 176.48,-56.92 169,-48 163.17,-41.04 155.46,-34.95 147.97,-30"/>
<polygon fill="#9a32cd" stroke="#9a32cd" points="182.2,-79.85 188.67,-88.24 188.85,-77.65 182.2,-79.85"/>
</a>
</g>
<text text-anchor="start" x="182.5" y="-53.5" font-family="Helvetica,sans-Serif" font-size="10.00" fill="grey">pathLimitReached</text>
</g>
</g>
</svg>
</svg>

<style type='text/css'>
<![CDATA[
[data-mouse-over-selected='false'] { opacity: 0.7; }
[data-mouse-over-selected='true']  { opacity: 1.0; }
]]>
</style>
<script type="application/ecmascript"><![CDATA[
document.addEventListener('DOMContentLoaded', (event) => {
  highlightEdges();
  highlightAdjacentNodes();
});
]]></script>
</svg>
