<?xml version="1.0" encoding="UTF-8" standalone="no"?>
<!DOCTYPE svg PUBLIC "-//W3C//DTD SVG 1.1//EN"
 "http://www.w3.org/Graphics/SVG/1.1/DTD/svg11.dtd">
<!-- Generated by graphviz version 2.43.0 (0)
 -->
<!-- Title: Acts::GreedyAmbiguityResolution::State Pages: 1 -->
<!--zoomable 158 -->

<svg id="main" version="1.1" xmlns="http://www.w3.org/2000/svg" xmlns:xlink="http://www.w3.org/1999/xlink" xml:space="preserve" onload="init(evt)">

<style type="text/css"><![CDATA[
.node, .edge {opacity: 0.7;}
.node.selected, .edge.selected {opacity: 1;}
.edge:hover path { stroke: red; }
.edge:hover polygon { stroke: red; fill: red; }
]]></style>

<defs>
  <circle id="rim" cx="0" cy="0" r="7"/>
  <circle id="rim2" cx="0" cy="0" r="3.5"/>
  <g id="zoomPlus">
    <use xlink:href="#rim" fill="#404040"><set attributeName="fill" to="#808080" begin="zoomplus.mouseover" end="zoomplus.mouseout"/></use>
    <path d="M-4,0h8M0,-4v8" fill="none" stroke="white" stroke-width="1.5" pointer-events="none"/>
  </g>
  <g id="zoomMin">
    <use xlink:href="#rim" fill="#404040"><set attributeName="fill" to="#808080" begin="zoomminus.mouseover" end="zoomminus.mouseout"/></use>
    <path d="M-4,0h8" fill="none" stroke="white" stroke-width="1.5" pointer-events="none"/>
  </g>
  <g id="arrowUp" transform="translate(30 24)">
    <use xlink:href="#rim"/>
    <path pointer-events="none" fill="none" stroke="white" stroke-width="1.5" d="M0,-3.0v7 M-2.5,-0.5L0,-3.0L2.5,-0.5"/>
  </g>
  <g id="arrowRight" transform="rotate(90) translate(36 -43)">
    <use xlink:href="#rim"/>
    <path pointer-events="none" fill="none" stroke="white" stroke-width="1.5" d="M0,-3.0v7 M-2.5,-0.5L0,-3.0L2.5,-0.5"/>
  </g>
  <g id="arrowDown" transform="rotate(180) translate(-30 -48)">
    <use xlink:href="#rim"/>
    <path pointer-events="none" fill="none" stroke="white" stroke-width="1.5" d="M0,-3.0v7 M-2.5,-0.5L0,-3.0L2.5,-0.5"/>
  </g>
  <g id="arrowLeft" transform="rotate(270) translate(-36 17)">
    <use xlink:href="#rim"/>
    <path pointer-events="none" fill="none" stroke="white" stroke-width="1.5" d="M0,-3.0v7 M-2.5,-0.5L0,-3.0L2.5,-0.5"/>
  </g>
  <g id="resetDef">
    <use xlink:href="#rim2" fill="#404040"><set attributeName="fill" to="#808080" begin="reset.mouseover" end="reset.mouseout"/></use>
  </g>
</defs>
<script type="application/ecmascript">
var viewWidth = 748;
var viewHeight = 158;
var sectionId = 'dynsection-0';
</script>
<script type="application/ecmascript" xlink:href="svg.min.js"/>
<svg id="graph" class="graph">
<g id="viewport">
<title>Acts::GreedyAmbiguityResolution::State</title>
<!-- Node1 -->
<g id="Node000001" class="node">
<title>Node1</title>
<g id="a_Node000001"><a xlink:title=" ">
<polygon fill="#999999" stroke="#666666" points="740,-89.5 559,-89.5 559,-59.5 740,-59.5 740,-89.5"/>
<text text-anchor="start" x="567" y="-77.5" font-family="Helvetica,sans-Serif" font-size="10.00">Acts::GreedyAmbiguityResolution</text>
<text text-anchor="middle" x="649.5" y="-66.5" font-family="Helvetica,sans-Serif" font-size="10.00">::State</text>
</a>
</g>
</g>
<!-- Node2 -->
<g id="Node000002" class="node">
<title>Node2</title>
<g id="a_Node000002"><a xlink:title=" ">
<polygon fill="white" stroke="#666666" points="351,-147 247,-147 247,-128 351,-128 351,-147"/>
<text text-anchor="middle" x="299" y="-135" font-family="Helvetica,sans-Serif" font-size="10.00">std::vector&lt; int &gt;</text>
</a>
</g>
</g>
<!-- Node2&#45;&gt;Node1 -->
<g id="edge1_Node000001_Node000002" class="edge">
<title>Node2&#45;&gt;Node1</title>
<g id="a_edge1_Node000001_Node000002"><a xlink:title=" ">
<path fill="none" stroke="#9a32cd" stroke-dasharray="5,2" d="M361.49,-135.13C410.57,-132.28 480.85,-126.05 541,-112.5 565.52,-106.98 592.17,-97.58 612.8,-89.51"/>
<polygon fill="#9a32cd" stroke="#9a32cd" points="361.14,-131.64 351.34,-135.69 361.52,-138.63 361.14,-131.64"/>
</a>
</g>
<text text-anchor="start" x="441" y="-138" font-family="Helvetica,sans-Serif" font-size="10.00" fill="grey">trackTips</text>
</g>
<!-- Node3 -->
<g id="Node000003" class="node">
<title>Node3</title>
<g id="a_Node000003"><a xlink:title=" ">
<polygon fill="white" stroke="#666666" points="97,-82 0,-82 0,-63 97,-63 97,-82"/>
<text text-anchor="middle" x="48.5" y="-70" font-family="Helvetica,sans-Serif" font-size="10.00">std::vector&lt; T &gt;</text>
</a>
</g>
</g>
<!-- Node3&#45;&gt;Node2 -->
<g id="edge2_Node000002_Node000003" class="edge">
<title>Node3&#45;&gt;Node2</title>
<g id="a_edge2_Node000002_Node000003"><a xlink:title=" ">
<path fill="none" stroke="orange" stroke-dasharray="5,2" d="M71.96,-87.88C84.18,-95.54 99.85,-104.26 115,-109.5 157.98,-124.37 209.36,-131.35 246.72,-134.63"/>
<polygon fill="orange" stroke="orange" points="73.65,-84.81 63.36,-82.31 69.84,-90.68 73.65,-84.81"/>
</a>
</g>
<text text-anchor="start" x="145" y="-135" font-family="Helvetica,sans-Serif" font-size="10.00" fill="grey">&lt; int &gt;</text>
</g>
<!-- Node4 -->
<g id="Node000004" class="node">
<title>Node4</title>
<g id="a_Node000004"><a xlink:title=" ">
<polygon fill="white" stroke="#666666" points="355.5,-108 242.5,-108 242.5,-89 355.5,-89 355.5,-108"/>
<text text-anchor="middle" x="299" y="-96" font-family="Helvetica,sans-Serif" font-size="10.00">std::vector&lt; float &gt;</text>
</a>
</g>
</g>
<!-- Node3&#45;&gt;Node4 -->
<g id="edge4_Node000004_Node000003" class="edge">
<title>Node3&#45;&gt;Node4</title>
<g id="a_edge4_Node000004_Node000003"><a xlink:title=" ">
<path fill="none" stroke="orange" stroke-dasharray="5,2" d="M107.16,-78.53C147.84,-82.79 202.05,-88.46 242.29,-92.67"/>
<polygon fill="orange" stroke="orange" points="107.43,-75.04 97.12,-77.48 106.7,-82 107.43,-75.04"/>
</a>
</g>
<text text-anchor="start" x="141" y="-94" font-family="Helvetica,sans-Serif" font-size="10.00" fill="grey">&lt; float &gt;</text>
</g>
<!-- Node5 -->
<g id="Node000005" class="node">
<title>Node5</title>
<g id="a_Node000005"><a xlink:title=" ">
<polygon fill="white" stroke="#666666" points="364.5,-69.5 233.5,-69.5 233.5,-39.5 364.5,-39.5 364.5,-69.5"/>
<text text-anchor="start" x="241.5" y="-57.5" font-family="Helvetica,sans-Serif" font-size="10.00">std::vector&lt; std::vector</text>
<text text-anchor="middle" x="299" y="-46.5" font-family="Helvetica,sans-Serif" font-size="10.00">&lt; std::size_t &gt; &gt;</text>
</a>
</g>
</g>
<!-- Node3&#45;&gt;Node5 -->
<g id="edge6_Node000005_Node000003" class="edge">
<title>Node3&#45;&gt;Node5</title>
<g id="a_edge6_Node000005_Node000003"><a xlink:title=" ">
<path fill="none" stroke="orange" stroke-dasharray="5,2" d="M77.5,-58.68C88.85,-53.81 102.27,-48.93 115,-46.5 153.73,-39.09 197.88,-40.74 233.11,-44.41"/>
<polygon fill="orange" stroke="orange" points="75.81,-55.61 68.13,-62.91 78.68,-61.99 75.81,-55.61"/>
</a>
</g>
<text text-anchor="start" x="118" y="-67.5" font-family="Helvetica,sans-Serif" font-size="10.00" fill="grey">&lt; std::vector&lt; std</text>
<text text-anchor="start" x="118" y="-52.5" font-family="Helvetica,sans-Serif" font-size="10.00" fill="grey">  ::size_t &gt; &gt;</text>
</g>
<!-- Node6 -->
<g id="Node000006" class="node">
<title>Node6</title>
<g id="a_Node000006"><a xlink:title=" ">
<polygon fill="white" stroke="#666666" points="369,-19 229,-19 229,0 369,0 369,-19"/>
<text text-anchor="middle" x="299" y="-7" font-family="Helvetica,sans-Serif" font-size="10.00">std::vector&lt; std::size_t &gt;</text>
</a>
</g>
</g>
<!-- Node3&#45;&gt;Node6 -->
<g id="edge8_Node000006_Node000003" class="edge">
<title>Node3&#45;&gt;Node6</title>
<g id="a_edge8_Node000006_Node000003"><a xlink:title=" ">
<path fill="none" stroke="orange" stroke-dasharray="5,2" d="M65.25,-55.32C77.51,-43.22 95.64,-27.91 115,-20.5 150.82,-6.79 193.46,-3.55 228.57,-3.96"/>
<polygon fill="orange" stroke="orange" points="62.55,-53.08 58.09,-62.69 67.57,-57.96 62.55,-53.08"/>
</a>
</g>
<text text-anchor="start" x="127" y="-26" font-family="Helvetica,sans-Serif" font-size="10.00" fill="grey">&lt; std::size_t &gt;</text>
</g>
<!-- Node4&#45;&gt;Node1 -->
<g id="edge3_Node000001_Node000004" class="edge">
<title>Node4&#45;&gt;Node1</title>
<g id="a_edge3_Node000001_Node000004"><a xlink:title=" ">
<path fill="none" stroke="#9a32cd" stroke-dasharray="5,2" d="M365.85,-93.96C420.42,-90.21 498.51,-84.83 558.79,-80.68"/>
<polygon fill="#9a32cd" stroke="#9a32cd" points="365.34,-90.49 355.61,-94.67 365.82,-97.48 365.34,-90.49"/>
</a>
</g>
<text text-anchor="start" x="441" y="-97" font-family="Helvetica,sans-Serif" font-size="10.00" fill="grey">trackChi2</text>
</g>
<!-- Node5&#45;&gt;Node1 -->
<g id="edge5_Node000001_Node000005" class="edge">
<title>Node5&#45;&gt;Node1</title>
<g id="a_edge5_Node000001_Node000005"><a xlink:title=" ">
<path fill="none" stroke="#9a32cd" stroke-dasharray="5,2" d="M374.81,-52.09C422.47,-51.31 485.47,-51.65 541,-56.5 549.48,-57.24 558.31,-58.28 567.09,-59.48"/>
<polygon fill="#9a32cd" stroke="#9a32cd" points="374.51,-48.6 364.57,-52.28 374.64,-55.6 374.51,-48.6"/>
</a>
</g>
<text text-anchor="start" x="407" y="-62" font-family="Helvetica,sans-Serif" font-size="10.00" fill="grey">measurementsPerTrack</text>
</g>
<!-- Node6&#45;&gt;Node1 -->
<g id="edge7_Node000001_Node000006" class="edge">
<title>Node6&#45;&gt;Node1</title>
<g id="a_edge7_Node000001_Node000006"><a xlink:title=" ">
<path fill="none" stroke="#9a32cd" stroke-dasharray="5,2" d="M379.41,-10.42C426.87,-12.45 488.05,-17.67 541,-30.5 568.24,-37.1 597.59,-49.51 618.73,-59.47"/>
<polygon fill="#9a32cd" stroke="#9a32cd" points="379.32,-6.92 369.19,-10.03 379.05,-13.91 379.32,-6.92"/>
</a>
</g>
<text text-anchor="start" x="390" y="-36" font-family="Helvetica,sans-Serif" font-size="10.00" fill="grey">sharedMeasurementsPerTrack</text>
</g>
</g>
</svg>

<g id="navigator" transform="translate(0 0)" fill="#404254">
  <rect fill="#f2f5e9" fill-opacity="0.5" stroke="#606060" stroke-width=".5" x="0" y="0" width="60" height="60"/>
  <use id="zoomplus" xlink:href="#zoomPlus" x="17" y="9" onmousedown="handleZoom(evt,'in')"/>
  <use id="zoomminus" xlink:href="#zoomMin" x="42" y="9" onmousedown="handleZoom(evt,'out')"/>
  <use id="reset" xlink:href="#resetDef" x="30" y="36" onmousedown="handleReset()"/>
   <use id="arrowup" xlink:href="#arrowUp" x="0" y="0" onmousedown="handlePan(0,-1)"/>
  <use id="arrowright" xlink:href="#arrowRight" x="0" y="0" onmousedown="handlePan(1,0)"/>
  <use id="arrowdown" xlink:href="#arrowDown" x="0" y="0" onmousedown="handlePan(0,1)"/>
  <use id="arrowleft" xlink:href="#arrowLeft" x="0" y="0" onmousedown="handlePan(-1,0)"/>
</g>
<svg viewBox="0 0 15 15" width="100%" height="30px" preserveAspectRatio="xMaxYMin meet">
 <g id="arrow_out" transform="scale(0.3 0.3)">
  <a xlink:href="struct_acts_1_1_greedy_ambiguity_resolution_1_1_state__coll__graph_org.svg" target="_base">
   <rect id="button" ry="5" rx="5" y="6" x="6" height="38" width="38"
        fill="#f2f5e9" fill-opacity="0.5" stroke="#606060" stroke-width="1.0"/>
   <path id="arrow"
     d="M 11.500037,31.436501 C 11.940474,20.09759 22.043105,11.32322 32.158766,21.979434 L 37.068811,17.246167 C 37.068811,17.246167 37.088388,32 37.088388,32 L 22.160133,31.978069 C 22.160133,31.978069 26.997745,27.140456 26.997745,27.140456 C 18.528582,18.264221 13.291696,25.230495 11.500037,31.436501 z"
     style="fill:#404040;"/>
  </a>
 </g>
</svg>

<style type='text/css'>
<![CDATA[
[data-mouse-over-selected='false'] { opacity: 0.7; }
[data-mouse-over-selected='true']  { opacity: 1.0; }
]]>
</style>
<script type="application/ecmascript"><![CDATA[
document.addEventListener('DOMContentLoaded', (event) => {
  highlightEdges();
  highlightAdjacentNodes();
});
]]></script>
</svg>
