<?xml version="1.0" encoding="UTF-8" standalone="no"?>
<!DOCTYPE svg PUBLIC "-//W3C//DTD SVG 1.1//EN"
 "http://www.w3.org/Graphics/SVG/1.1/DTD/svg11.dtd">
<!-- Generated by graphviz version 2.43.0 (0)
 -->
<!-- Title: Acts::ForcedSurfaceReached Pages: 1 -->
<svg width="2017pt" height="595pt"
 viewBox="0.00 0.00 2017.00 595.08" xmlns="http://www.w3.org/2000/svg" xmlns:xlink="http://www.w3.org/1999/xlink">
<g id="graph0" class="graph" transform="scale(1 1) rotate(0) translate(4 591.08)">
<title>Acts::ForcedSurfaceReached</title>
<!-- Node1 -->
<g id="Node000001" class="node">
<title>Node1</title>
<g id="a_Node000001"><a xlink:title="Similar to SurfaceReached, but with an infinite overstep limit.">
<polygon fill="#999999" stroke="#666666" points="2009,-175.58 1854,-175.58 1854,-156.58 2009,-156.58 2009,-175.58"/>
<text text-anchor="middle" x="1931.5" y="-163.58" font-family="Helvetica,sans-Serif" font-size="10.00">Acts::ForcedSurfaceReached</text>
</a>
</g>
</g>
<!-- Node2 -->
<g id="Node000002" class="node">
<title>Node2</title>
<g id="a_Node000002"><a xlink:href="struct_acts_1_1_surface_reached.html" target="_top" xlink:title="This is the condition that the Surface has been reached it then triggers a propagation abort.">
<polygon fill="white" stroke="#666666" points="1817,-175.58 1695,-175.58 1695,-156.58 1817,-156.58 1817,-175.58"/>
<text text-anchor="middle" x="1756" y="-163.58" font-family="Helvetica,sans-Serif" font-size="10.00">Acts::SurfaceReached</text>
</a>
</g>
</g>
<!-- Node2&#45;&gt;Node1 -->
<g id="edge1_Node000001_Node000002" class="edge">
<title>Node2&#45;&gt;Node1</title>
<g id="a_edge1_Node000001_Node000002"><a xlink:title=" ">
<path fill="none" stroke="#63b8ff" d="M1827.34,-166.08C1836.09,-166.08 1845.07,-166.08 1853.91,-166.08"/>
<polygon fill="#63b8ff" stroke="#63b8ff" points="1827.19,-162.58 1817.19,-166.08 1827.19,-169.58 1827.19,-162.58"/>
</a>
</g>
</g>
<!-- Node3 -->
<g id="Node000003" class="node">
<title>Node3</title>
<g id="a_Node000003"><a xlink:href="class_acts_1_1_surface.html" target="_top" xlink:title="Abstract Base Class for tracking surfaces.">
<polygon fill="white" stroke="#666666" points="1531.5,-195.58 1451.5,-195.58 1451.5,-176.58 1531.5,-176.58 1531.5,-195.58"/>
<text text-anchor="middle" x="1491.5" y="-183.58" font-family="Helvetica,sans-Serif" font-size="10.00">Acts::Surface</text>
</a>
</g>
</g>
<!-- Node3&#45;&gt;Node2 -->
<g id="edge2_Node000002_Node000003" class="edge">
<title>Node3&#45;&gt;Node2</title>
<g id="a_edge2_Node000002_Node000003"><a xlink:title=" ">
<path fill="none" stroke="#9a32cd" stroke-dasharray="5,2" d="M1541.54,-182.34C1584.93,-179.03 1648.37,-174.2 1694.82,-170.66"/>
<polygon fill="#9a32cd" stroke="#9a32cd" points="1541.22,-178.85 1531.52,-183.1 1541.75,-185.83 1541.22,-178.85"/>
</a>
</g>
<text text-anchor="start" x="1609.5" y="-184.58" font-family="Helvetica,sans-Serif" font-size="10.00" fill="grey">surface</text>
</g>
<!-- Node4 -->
<g id="Node000004" class="node">
<title>Node4</title>
<g id="a_Node000004"><a xlink:href="class_acts_1_1_geometry_object.html" target="_top" xlink:title="Base class to provide GeometryIdentifier interface:">
<polygon fill="white" stroke="#666666" points="374,-267.58 250,-267.58 250,-248.58 374,-248.58 374,-267.58"/>
<text text-anchor="middle" x="312" y="-255.58" font-family="Helvetica,sans-Serif" font-size="10.00">Acts::GeometryObject</text>
</a>
</g>
</g>
<!-- Node4&#45;&gt;Node3 -->
<g id="edge3_Node000003_Node000004" class="edge">
<title>Node4&#45;&gt;Node3</title>
<g id="a_edge3_Node000003_Node000004"><a xlink:title=" ">
<path fill="none" stroke="#63b8ff" d="M339.76,-243.89C370.19,-229.11 421.78,-208.08 469,-208.08 469,-208.08 469,-208.08 1179.5,-208.08 1277.47,-208.08 1392.37,-197.08 1451.29,-190.63"/>
<polygon fill="#63b8ff" stroke="#63b8ff" points="338.04,-240.84 330.66,-248.43 341.17,-247.1 338.04,-240.84"/>
</a>
</g>
</g>
<!-- Node12 -->
<g id="Node000012" class="node">
<title>Node12</title>
<g id="a_Node000012"><a xlink:href="class_acts_1_1_layer.html" target="_top" xlink:title="Base Class for a Detector Layer in the Tracking Geometry.">
<polygon fill="white" stroke="#666666" points="1214,-381.58 1143,-381.58 1143,-362.58 1214,-362.58 1214,-381.58"/>
<text text-anchor="middle" x="1178.5" y="-369.58" font-family="Helvetica,sans-Serif" font-size="10.00">Acts::Layer</text>
</a>
</g>
</g>
<!-- Node4&#45;&gt;Node12 -->
<g id="edge12_Node000012_Node000004" class="edge">
<title>Node4&#45;&gt;Node12</title>
<g id="a_edge12_Node000012_Node000004"><a xlink:title=" ">
<path fill="none" stroke="#63b8ff" d="M367.32,-269.65C381.49,-272.38 396.78,-275.08 411,-277.08 708.54,-318.89 790.58,-276.42 1084,-341.08 1108.05,-346.37 1134.63,-355.52 1153.28,-362.51"/>
<polygon fill="#63b8ff" stroke="#63b8ff" points="367.72,-266.16 357.23,-267.66 366.37,-273.03 367.72,-266.16"/>
</a>
</g>
</g>
<!-- Node19 -->
<g id="Node000019" class="node">
<title>Node19</title>
<g id="a_Node000019"><a xlink:href="class_acts_1_1_volume.html" target="_top" xlink:title="It inherits from GeometryObject for geometry identification.">
<polygon fill="white" stroke="#666666" points="510,-267.58 430,-267.58 430,-248.58 510,-248.58 510,-267.58"/>
<text text-anchor="middle" x="470" y="-255.58" font-family="Helvetica,sans-Serif" font-size="10.00">Acts::Volume</text>
</a>
</g>
</g>
<!-- Node4&#45;&gt;Node19 -->
<g id="edge22_Node000019_Node000004" class="edge">
<title>Node4&#45;&gt;Node19</title>
<g id="a_edge22_Node000019_Node000004"><a xlink:title=" ">
<path fill="none" stroke="#63b8ff" d="M384.44,-258.08C400.12,-258.08 416.16,-258.08 430,-258.08"/>
<polygon fill="#63b8ff" stroke="#63b8ff" points="384.21,-254.58 374.21,-258.08 384.21,-261.58 384.21,-254.58"/>
</a>
</g>
</g>
<!-- Node5 -->
<g id="Node000005" class="node">
<title>Node5</title>
<g id="a_Node000005"><a xlink:href="class_acts_1_1_geometry_identifier.html" target="_top" xlink:title="Identifier for geometry nodes within the geometry hierarchy.">
<polygon fill="white" stroke="#666666" points="136,-267.58 0,-267.58 0,-248.58 136,-248.58 136,-267.58"/>
<text text-anchor="middle" x="68" y="-255.58" font-family="Helvetica,sans-Serif" font-size="10.00">Acts::GeometryIdentifier</text>
</a>
</g>
</g>
<!-- Node5&#45;&gt;Node4 -->
<g id="edge4_Node000004_Node000005" class="edge">
<title>Node5&#45;&gt;Node4</title>
<g id="a_edge4_Node000004_Node000005"><a xlink:title=" ">
<path fill="none" stroke="#9a32cd" stroke-dasharray="5,2" d="M146.31,-258.08C179.84,-258.08 218.54,-258.08 249.99,-258.08"/>
<polygon fill="#9a32cd" stroke="#9a32cd" points="146.09,-254.58 136.09,-258.08 146.09,-261.58 146.09,-254.58"/>
</a>
</g>
<text text-anchor="start" x="157" y="-263.58" font-family="Helvetica,sans-Serif" font-size="10.00" fill="grey">m_geometryId</text>
</g>
<!-- Node6 -->
<g id="Node000006" class="node">
<title>Node6</title>
<g id="a_Node000006"><a xlink:title=" ">
<polygon fill="white" stroke="#666666" points="1242.5,-180.08 1114.5,-180.08 1114.5,-150.08 1242.5,-150.08 1242.5,-180.08"/>
<text text-anchor="start" x="1122.5" y="-168.08" font-family="Helvetica,sans-Serif" font-size="10.00">std::enable_shared</text>
<text text-anchor="middle" x="1178.5" y="-157.08" font-family="Helvetica,sans-Serif" font-size="10.00">_from_this&lt; Surface &gt;</text>
</a>
</g>
</g>
<!-- Node6&#45;&gt;Node3 -->
<g id="edge5_Node000003_Node000006" class="edge">
<title>Node6&#45;&gt;Node3</title>
<g id="a_edge5_Node000003_Node000006"><a xlink:title=" ">
<path fill="none" stroke="#63b8ff" d="M1252.95,-170.03C1315.09,-174.23 1401.72,-180.08 1451.37,-183.43"/>
<polygon fill="#63b8ff" stroke="#63b8ff" points="1253.02,-166.53 1242.81,-169.35 1252.55,-173.52 1253.02,-166.53"/>
</a>
</g>
</g>
<!-- Node7 -->
<g id="Node000007" class="node">
<title>Node7</title>
<g id="a_Node000007"><a xlink:title=" ">
<polygon fill="white" stroke="#666666" points="1255,-131.58 1102,-131.58 1102,-90.58 1255,-90.58 1255,-131.58"/>
<text text-anchor="start" x="1110" y="-119.58" font-family="Helvetica,sans-Serif" font-size="10.00">std::array&lt; std::string</text>
<text text-anchor="start" x="1110" y="-108.58" font-family="Helvetica,sans-Serif" font-size="10.00">_view, Surface::SurfaceType</text>
<text text-anchor="middle" x="1178.5" y="-97.58" font-family="Helvetica,sans-Serif" font-size="10.00">::Other+1 &gt;</text>
</a>
</g>
</g>
<!-- Node7&#45;&gt;Node3 -->
<g id="edge6_Node000003_Node000007" class="edge">
<title>Node7&#45;&gt;Node3</title>
<g id="a_edge6_Node000003_Node000007"><a xlink:title=" ">
<path fill="none" stroke="#9a32cd" stroke-dasharray="5,2" d="M1264.95,-117.12C1308.24,-122.42 1360.84,-132.38 1405,-151.08 1414.09,-154.92 1414.2,-159.6 1423,-164.08 1432.78,-169.05 1443.92,-173.22 1454.29,-176.55"/>
<polygon fill="#9a32cd" stroke="#9a32cd" points="1265.35,-113.64 1255.02,-115.96 1264.54,-120.59 1265.35,-113.64"/>
</a>
</g>
<text text-anchor="start" x="1287" y="-156.58" font-family="Helvetica,sans-Serif" font-size="10.00" fill="grey">s_surfaceTypeNames</text>
</g>
<!-- Node8 -->
<g id="Node000008" class="node">
<title>Node8</title>
<g id="a_Node000008"><a xlink:title=" ">
<polygon fill="white" stroke="#666666" points="869,-120.58 777,-120.58 777,-101.58 869,-101.58 869,-120.58"/>
<text text-anchor="middle" x="823" y="-108.58" font-family="Helvetica,sans-Serif" font-size="10.00">std::array&lt; T &gt;</text>
</a>
</g>
</g>
<!-- Node8&#45;&gt;Node7 -->
<g id="edge7_Node000007_Node000008" class="edge">
<title>Node8&#45;&gt;Node7</title>
<g id="a_edge7_Node000007_Node000008"><a xlink:title=" ">
<path fill="none" stroke="orange" stroke-dasharray="5,2" d="M879.14,-111.08C938.95,-111.08 1034.84,-111.08 1101.71,-111.08"/>
<polygon fill="orange" stroke="orange" points="879.13,-107.58 869.13,-111.08 879.13,-114.58 879.13,-107.58"/>
</a>
</g>
<text text-anchor="start" x="945" y="-146.58" font-family="Helvetica,sans-Serif" font-size="10.00" fill="grey">&lt; std::string_view,</text>
<text text-anchor="start" x="945" y="-131.58" font-family="Helvetica,sans-Serif" font-size="10.00" fill="grey">   Surface::SurfaceType</text>
<text text-anchor="start" x="945" y="-116.58" font-family="Helvetica,sans-Serif" font-size="10.00" fill="grey">  ::Other+1 &gt;</text>
</g>
<!-- Node9 -->
<g id="Node000009" class="node">
<title>Node9</title>
<g id="a_Node000009"><a xlink:title=" ">
<polygon fill="white" stroke="#666666" points="1064.5,-581.08 937.5,-581.08 937.5,-551.08 1064.5,-551.08 1064.5,-581.08"/>
<text text-anchor="start" x="945.5" y="-569.08" font-family="Helvetica,sans-Serif" font-size="10.00">std::unique_ptr&lt; const</text>
<text text-anchor="middle" x="1001" y="-558.08" font-family="Helvetica,sans-Serif" font-size="10.00"> Transform3 &gt;</text>
</a>
</g>
</g>
<!-- Node9&#45;&gt;Node3 -->
<g id="edge8_Node000003_Node000009" class="edge">
<title>Node9&#45;&gt;Node3</title>
<g id="a_edge8_Node000003_Node000009"><a xlink:title=" ">
<path fill="none" stroke="#9a32cd" stroke-dasharray="5,2" d="M1069.53,-547.72C1074.47,-545.95 1079.35,-544.06 1084,-542.08 1235.42,-477.38 1292.06,-476.9 1405,-357.08 1452.81,-306.35 1479.71,-223.78 1487.84,-195.74"/>
<polygon fill="#9a32cd" stroke="#9a32cd" points="1068.29,-544.45 1059.96,-550.99 1070.55,-551.07 1068.29,-544.45"/>
</a>
</g>
<text text-anchor="start" x="1146.5" y="-539.58" font-family="Helvetica,sans-Serif" font-size="10.00" fill="grey">m_transform</text>
</g>
<!-- Node10 -->
<g id="Node000010" class="node">
<title>Node10</title>
<g id="a_Node000010"><a xlink:title=" ">
<polygon fill="white" stroke="#666666" points="529,-491.58 411,-491.58 411,-472.58 529,-472.58 529,-491.58"/>
<text text-anchor="middle" x="470" y="-479.58" font-family="Helvetica,sans-Serif" font-size="10.00">std::unique_ptr&lt; T &gt;</text>
</a>
</g>
</g>
<!-- Node10&#45;&gt;Node9 -->
<g id="edge9_Node000009_Node000010" class="edge">
<title>Node10&#45;&gt;Node9</title>
<g id="a_edge9_Node000009_Node000010"><a xlink:title=" ">
<path fill="none" stroke="orange" stroke-dasharray="5,2" d="M488.45,-498.37C502.93,-510.82 524.7,-527.14 547,-535.08 679.74,-582.34 847.97,-578.72 937.41,-572.22"/>
<polygon fill="orange" stroke="orange" points="490.61,-495.61 480.81,-491.59 485.96,-500.84 490.61,-495.61"/>
</a>
</g>
<text text-anchor="start" x="584.5" y="-575.58" font-family="Helvetica,sans-Serif" font-size="10.00" fill="grey">&lt; const Transform3 &gt;</text>
</g>
<!-- Node16 -->
<g id="Node000016" class="node">
<title>Node16</title>
<g id="a_Node000016"><a xlink:title=" ">
<polygon fill="white" stroke="#666666" points="886.5,-541.08 759.5,-541.08 759.5,-511.08 886.5,-511.08 886.5,-541.08"/>
<text text-anchor="start" x="767.5" y="-529.08" font-family="Helvetica,sans-Serif" font-size="10.00">std::unique_ptr&lt; const</text>
<text text-anchor="middle" x="823" y="-518.08" font-family="Helvetica,sans-Serif" font-size="10.00"> Acts::SurfaceArray &gt;</text>
</a>
</g>
</g>
<!-- Node10&#45;&gt;Node16 -->
<g id="edge17_Node000016_Node000010" class="edge">
<title>Node10&#45;&gt;Node16</title>
<g id="a_edge17_Node000016_Node000010"><a xlink:title=" ">
<path fill="none" stroke="orange" stroke-dasharray="5,2" d="M539.32,-490.64C603.1,-498.63 697.48,-510.47 759.36,-518.22"/>
<polygon fill="orange" stroke="orange" points="539.71,-487.16 529.35,-489.39 538.84,-494.11 539.71,-487.16"/>
</a>
</g>
<text text-anchor="start" x="566.5" y="-519.58" font-family="Helvetica,sans-Serif" font-size="10.00" fill="grey">&lt; const Acts::SurfaceArray &gt;</text>
</g>
<!-- Node17 -->
<g id="Node000017" class="node">
<title>Node17</title>
<g id="a_Node000017"><a xlink:title=" ">
<polygon fill="white" stroke="#666666" points="900,-455.08 746,-455.08 746,-425.08 900,-425.08 900,-455.08"/>
<text text-anchor="start" x="754" y="-443.08" font-family="Helvetica,sans-Serif" font-size="10.00">std::unique_ptr&lt; const</text>
<text text-anchor="middle" x="823" y="-432.08" font-family="Helvetica,sans-Serif" font-size="10.00"> Acts::ApproachDescriptor &gt;</text>
</a>
</g>
</g>
<!-- Node10&#45;&gt;Node17 -->
<g id="edge19_Node000017_Node000010" class="edge">
<title>Node10&#45;&gt;Node17</title>
<g id="a_edge19_Node000017_Node000010"><a xlink:title=" ">
<path fill="none" stroke="orange" stroke-dasharray="5,2" d="M516.2,-470.23C526.28,-467.91 536.96,-465.69 547,-464.08 613.71,-453.32 690.36,-447.13 745.76,-443.74"/>
<polygon fill="orange" stroke="orange" points="515.28,-466.85 506.36,-472.57 516.9,-473.66 515.28,-466.85"/>
</a>
</g>
<text text-anchor="start" x="550.5" y="-469.58" font-family="Helvetica,sans-Serif" font-size="10.00" fill="grey">&lt; const Acts::ApproachDescriptor &gt;</text>
</g>
<!-- Node20 -->
<g id="Node000020" class="node">
<title>Node20</title>
<g id="a_Node000020"><a xlink:title=" ">
<polygon fill="white" stroke="#666666" points="884,-407.08 762,-407.08 762,-377.08 884,-377.08 884,-407.08"/>
<text text-anchor="start" x="770" y="-395.08" font-family="Helvetica,sans-Serif" font-size="10.00">std::unique_ptr&lt; Acts</text>
<text text-anchor="middle" x="823" y="-384.08" font-family="Helvetica,sans-Serif" font-size="10.00">::Volume &gt;</text>
</a>
</g>
</g>
<!-- Node10&#45;&gt;Node20 -->
<g id="edge24_Node000020_Node000010" class="edge">
<title>Node10&#45;&gt;Node20</title>
<g id="a_edge24_Node000020_Node000010"><a xlink:title=" ">
<path fill="none" stroke="orange" stroke-dasharray="5,2" d="M487.77,-464.95C502.15,-451.42 524.1,-433.32 547,-424.08 616.97,-395.81 704.55,-390.18 761.82,-390.05"/>
<polygon fill="orange" stroke="orange" points="484.96,-462.8 480.24,-472.28 489.84,-467.82 484.96,-462.8"/>
</a>
</g>
<text text-anchor="start" x="594.5" y="-429.58" font-family="Helvetica,sans-Serif" font-size="10.00" fill="grey">&lt; Acts::Volume &gt;</text>
</g>
<!-- Node11 -->
<g id="Node000011" class="node">
<title>Node11</title>
<g id="a_Node000011"><a xlink:href="class_acts_1_1_detector_element_base.html" target="_top" xlink:title="This class is the base of all detector elements that are usable by ACTS.">
<polygon fill="white" stroke="#666666" points="1253.5,-72.58 1103.5,-72.58 1103.5,-53.58 1253.5,-53.58 1253.5,-72.58"/>
<text text-anchor="middle" x="1178.5" y="-60.58" font-family="Helvetica,sans-Serif" font-size="10.00">Acts::DetectorElementBase</text>
</a>
</g>
</g>
<!-- Node11&#45;&gt;Node3 -->
<g id="edge10_Node000003_Node000011" class="edge">
<title>Node11&#45;&gt;Node3</title>
<g id="a_edge10_Node000003_Node000011"><a xlink:title=" ">
<path fill="none" stroke="#9a32cd" stroke-dasharray="5,2" d="M1263.78,-55.23C1310.72,-55.52 1367.16,-64.26 1405,-98.08 1427.67,-118.33 1402.03,-142.06 1423,-164.08 1430.57,-172.02 1441.03,-177.1 1451.46,-180.35"/>
<polygon fill="#9a32cd" stroke="#9a32cd" points="1263.59,-51.73 1253.61,-55.3 1263.63,-58.73 1263.59,-51.73"/>
</a>
</g>
<text text-anchor="start" x="1276" y="-103.58" font-family="Helvetica,sans-Serif" font-size="10.00" fill="grey">m_associatedDetElement</text>
</g>
<!-- Node12&#45;&gt;Node3 -->
<g id="edge11_Node000003_Node000012" class="edge">
<title>Node12&#45;&gt;Node3</title>
<g id="a_edge11_Node000003_Node000012"><a xlink:title=" ">
<path fill="none" stroke="#9a32cd" stroke-dasharray="5,2" d="M1217.46,-359.01C1263.98,-342.04 1344.1,-309.59 1405,-268.08 1436.95,-246.3 1468.08,-212.28 1482.37,-195.75"/>
<polygon fill="#9a32cd" stroke="#9a32cd" points="1216.01,-355.82 1207.79,-362.5 1218.38,-362.4 1216.01,-355.82"/>
</a>
</g>
<text text-anchor="start" x="1292" y="-341.58" font-family="Helvetica,sans-Serif" font-size="10.00" fill="grey">m_associatedLayer</text>
</g>
<!-- Node13 -->
<g id="Node000013" class="node">
<title>Node13</title>
<g id="a_Node000013"><a xlink:title=" ">
<polygon fill="white" stroke="#666666" points="885,-359.08 761,-359.08 761,-329.08 885,-329.08 885,-359.08"/>
<text text-anchor="start" x="769" y="-347.08" font-family="Helvetica,sans-Serif" font-size="10.00">std::pair&lt; const Layer</text>
<text text-anchor="middle" x="823" y="-336.08" font-family="Helvetica,sans-Serif" font-size="10.00"> *, const Layer * &gt;</text>
</a>
</g>
</g>
<!-- Node13&#45;&gt;Node12 -->
<g id="edge13_Node000012_Node000013" class="edge">
<title>Node13&#45;&gt;Node12</title>
<g id="a_edge13_Node000012_Node000013"><a xlink:title=" ">
<path fill="none" stroke="#9a32cd" stroke-dasharray="5,2" d="M895.29,-345C947.64,-346.25 1020.4,-349.19 1084,-356.08 1103.48,-358.18 1125.06,-361.79 1142.57,-365.04"/>
<polygon fill="#9a32cd" stroke="#9a32cd" points="895.18,-341.5 885.1,-344.77 895.02,-348.49 895.18,-341.5"/>
</a>
</g>
<text text-anchor="start" x="966" y="-361.58" font-family="Helvetica,sans-Serif" font-size="10.00" fill="grey">m_nextLayers</text>
</g>
<!-- Node14 -->
<g id="Node000014" class="node">
<title>Node14</title>
<g id="a_Node000014"><a xlink:title=" ">
<polygon fill="white" stroke="#666666" points="524.5,-353.58 415.5,-353.58 415.5,-334.58 524.5,-334.58 524.5,-353.58"/>
<text text-anchor="middle" x="470" y="-341.58" font-family="Helvetica,sans-Serif" font-size="10.00">std::pair&lt; T1, T2 &gt;</text>
</a>
</g>
</g>
<!-- Node14&#45;&gt;Node13 -->
<g id="edge14_Node000013_Node000014" class="edge">
<title>Node14&#45;&gt;Node13</title>
<g id="a_edge14_Node000013_Node000014"><a xlink:title=" ">
<path fill="none" stroke="orange" stroke-dasharray="5,2" d="M534.71,-344.08C599,-344.08 697.6,-344.08 760.94,-344.08"/>
<polygon fill="orange" stroke="orange" points="534.69,-340.58 524.69,-344.08 534.69,-347.58 534.69,-340.58"/>
</a>
</g>
<text text-anchor="start" x="583.5" y="-365.08" font-family="Helvetica,sans-Serif" font-size="10.00" fill="grey">&lt; const Layer *, const</text>
<text text-anchor="start" x="583.5" y="-350.08" font-family="Helvetica,sans-Serif" font-size="10.00" fill="grey">   Layer * &gt;</text>
</g>
<!-- Node15 -->
<g id="Node000015" class="node">
<title>Node15</title>
<g id="a_Node000015"><a xlink:href="class_acts_1_1_bin_utility.html" target="_top" xlink:title="The BinUtility class that translated global and local position into a bins of a BinnedArray,...">
<polygon fill="white" stroke="#666666" points="867.5,-492.58 778.5,-492.58 778.5,-473.58 867.5,-473.58 867.5,-492.58"/>
<text text-anchor="middle" x="823" y="-480.58" font-family="Helvetica,sans-Serif" font-size="10.00">Acts::BinUtility</text>
</a>
</g>
</g>
<!-- Node15&#45;&gt;Node12 -->
<g id="edge15_Node000012_Node000015" class="edge">
<title>Node15&#45;&gt;Node12</title>
<g id="a_edge15_Node000012_Node000015"><a xlink:title=" ">
<path fill="none" stroke="#9a32cd" stroke-dasharray="5,2" d="M878.01,-485.93C932.34,-486.76 1017.38,-482.38 1084,-453.08 1121.75,-436.47 1155.47,-399.21 1169.97,-381.62"/>
<polygon fill="#9a32cd" stroke="#9a32cd" points="877.98,-482.43 867.9,-485.71 877.82,-489.43 877.98,-482.43"/>
</a>
</g>
<text text-anchor="start" x="954" y="-490.58" font-family="Helvetica,sans-Serif" font-size="10.00" fill="grey">m_nextLayerUtility</text>
</g>
<!-- Node16&#45;&gt;Node12 -->
<g id="edge16_Node000012_Node000016" class="edge">
<title>Node16&#45;&gt;Node12</title>
<g id="a_edge16_Node000012_Node000016"><a xlink:title=" ">
<path fill="none" stroke="#9a32cd" stroke-dasharray="5,2" d="M896.94,-522.74C968.14,-518.98 1068.07,-512.19 1084,-503.08 1090.46,-499.38 1150.9,-411.15 1171.02,-381.61"/>
<polygon fill="#9a32cd" stroke="#9a32cd" points="896.46,-519.26 886.65,-523.27 896.82,-526.25 896.46,-519.26"/>
</a>
</g>
<text text-anchor="start" x="962" y="-526.58" font-family="Helvetica,sans-Serif" font-size="10.00" fill="grey">m_surfaceArray</text>
</g>
<!-- Node17&#45;&gt;Node12 -->
<g id="edge18_Node000012_Node000017" class="edge">
<title>Node17&#45;&gt;Node12</title>
<g id="a_edge18_Node000012_Node000017"><a xlink:title=" ">
<path fill="none" stroke="#9a32cd" stroke-dasharray="5,2" d="M910.24,-434.18C961.3,-429.44 1026.95,-421.17 1084,-407.08 1109.58,-400.76 1137.74,-389.6 1156.41,-381.58"/>
<polygon fill="#9a32cd" stroke="#9a32cd" points="909.87,-430.7 900.23,-435.08 910.5,-437.67 909.87,-430.7"/>
</a>
</g>
<text text-anchor="start" x="946" y="-437.58" font-family="Helvetica,sans-Serif" font-size="10.00" fill="grey">m_approachDescriptor</text>
</g>
<!-- Node18 -->
<g id="Node000018" class="node">
<title>Node18</title>
<g id="a_Node000018"><a xlink:href="class_acts_1_1_tracking_volume.html" target="_top" xlink:title="Full Volume description used in Tracking, it inherits from Volume to get the geometrical structure.">
<polygon fill="white" stroke="#666666" points="883.5,-267.58 762.5,-267.58 762.5,-248.58 883.5,-248.58 883.5,-267.58"/>
<text text-anchor="middle" x="823" y="-255.58" font-family="Helvetica,sans-Serif" font-size="10.00">Acts::TrackingVolume</text>
</a>
</g>
</g>
<!-- Node18&#45;&gt;Node3 -->
<g id="edge25_Node000003_Node000018" class="edge">
<title>Node18&#45;&gt;Node3</title>
<g id="a_edge25_Node000003_Node000018"><a xlink:title=" ">
<path fill="none" stroke="#9a32cd" stroke-dasharray="5,2" d="M893.82,-261.23C1004.03,-264.54 1224.37,-264.41 1405,-222.08 1429.46,-216.34 1455.86,-204.23 1472.75,-195.64"/>
<polygon fill="#9a32cd" stroke="#9a32cd" points="893.61,-257.72 883.5,-260.9 893.38,-264.71 893.61,-257.72"/>
</a>
</g>
<text text-anchor="start" x="1106.5" y="-264.58" font-family="Helvetica,sans-Serif" font-size="10.00" fill="grey">m_associatedTrackingVolume</text>
</g>
<!-- Node18&#45;&gt;Node12 -->
<g id="edge20_Node000012_Node000018" class="edge">
<title>Node18&#45;&gt;Node12</title>
<g id="a_edge20_Node000012_Node000018"><a xlink:title=" ">
<path fill="none" stroke="#9a32cd" stroke-dasharray="5,2" d="M893.79,-263.93C964.87,-270.24 1067,-280.41 1084,-288.08 1122.4,-305.38 1156.04,-344.34 1170.28,-362.46"/>
<polygon fill="#9a32cd" stroke="#9a32cd" points="893.81,-260.42 883.55,-263.03 893.2,-267.39 893.81,-260.42"/>
</a>
</g>
<text text-anchor="start" x="955" y="-293.58" font-family="Helvetica,sans-Serif" font-size="10.00" fill="grey">m_trackingVolume</text>
</g>
<!-- Node19&#45;&gt;Node18 -->
<g id="edge21_Node000018_Node000019" class="edge">
<title>Node19&#45;&gt;Node18</title>
<g id="a_edge21_Node000018_Node000019"><a xlink:title=" ">
<path fill="none" stroke="#63b8ff" d="M520.4,-258.08C583.91,-258.08 694.11,-258.08 762.26,-258.08"/>
<polygon fill="#63b8ff" stroke="#63b8ff" points="520.24,-254.58 510.24,-258.08 520.24,-261.58 520.24,-254.58"/>
</a>
</g>
</g>
<!-- Node20&#45;&gt;Node12 -->
<g id="edge23_Node000012_Node000020" class="edge">
<title>Node20&#45;&gt;Node12</title>
<g id="a_edge23_Node000012_Node000020"><a xlink:title=" ">
<path fill="none" stroke="#9a32cd" stroke-dasharray="5,2" d="M894.68,-388.08C969.7,-383.83 1085.2,-377.3 1142.61,-374.05"/>
<polygon fill="#9a32cd" stroke="#9a32cd" points="894.15,-384.6 884.37,-388.66 894.55,-391.59 894.15,-384.6"/>
</a>
</g>
<text text-anchor="start" x="944" y="-391.58" font-family="Helvetica,sans-Serif" font-size="10.00" fill="grey">m_representingVolume</text>
</g>
<!-- Node21 -->
<g id="Node000021" class="node">
<title>Node21</title>
<g id="a_Node000021"><a xlink:title=" ">
<polygon fill="white" stroke="#666666" points="1247.5,-35.08 1109.5,-35.08 1109.5,-5.08 1247.5,-5.08 1247.5,-35.08"/>
<text text-anchor="start" x="1117.5" y="-23.08" font-family="Helvetica,sans-Serif" font-size="10.00">std::shared_ptr&lt; const</text>
<text text-anchor="middle" x="1178.5" y="-12.08" font-family="Helvetica,sans-Serif" font-size="10.00"> Acts::ISurfaceMaterial &gt;</text>
</a>
</g>
</g>
<!-- Node21&#45;&gt;Node3 -->
<g id="edge26_Node000003_Node000021" class="edge">
<title>Node21&#45;&gt;Node3</title>
<g id="a_edge26_Node000003_Node000021"><a xlink:title=" ">
<path fill="none" stroke="#9a32cd" stroke-dasharray="5,2" d="M1251.32,-3.53C1300.81,3.32 1364.69,2.43 1405,-35.08 1447.38,-74.5 1385.83,-119.69 1423,-164.08 1430.2,-172.67 1440.81,-177.94 1451.5,-181.16"/>
<polygon fill="#9a32cd" stroke="#9a32cd" points="1250.67,-0.08 1241.3,-5.04 1251.72,-7.01 1250.67,-0.08"/>
</a>
</g>
<text text-anchor="start" x="1293" y="-40.58" font-family="Helvetica,sans-Serif" font-size="10.00" fill="grey">m_surfaceMaterial</text>
</g>
<!-- Node22 -->
<g id="Node000022" class="node">
<title>Node22</title>
<g id="a_Node000022"><a xlink:title=" ">
<polygon fill="white" stroke="#666666" points="882,-29.58 764,-29.58 764,-10.58 882,-10.58 882,-29.58"/>
<text text-anchor="middle" x="823" y="-17.58" font-family="Helvetica,sans-Serif" font-size="10.00">std::shared_ptr&lt; T &gt;</text>
</a>
</g>
</g>
<!-- Node22&#45;&gt;Node21 -->
<g id="edge27_Node000021_Node000022" class="edge">
<title>Node22&#45;&gt;Node21</title>
<g id="a_edge27_Node000021_Node000022"><a xlink:title=" ">
<path fill="none" stroke="orange" stroke-dasharray="5,2" d="M892.53,-20.08C955.06,-20.08 1046.95,-20.08 1109.35,-20.08"/>
<polygon fill="orange" stroke="orange" points="892.37,-16.58 882.37,-20.08 892.37,-23.58 892.37,-16.58"/>
</a>
</g>
<text text-anchor="start" x="921" y="-25.58" font-family="Helvetica,sans-Serif" font-size="10.00" fill="grey">&lt; const Acts::ISurfaceMaterial &gt;</text>
</g>
<!-- Node23 -->
<g id="Node000023" class="node">
<title>Node23</title>
<g id="a_Node000023"><a xlink:href="class_acts_1_1_boundary_tolerance.html" target="_top" xlink:title="Variant&#45;like type to capture different types of boundary tolerances.">
<polygon fill="white" stroke="#666666" points="1560,-155.58 1423,-155.58 1423,-136.58 1560,-136.58 1560,-155.58"/>
<text text-anchor="middle" x="1491.5" y="-143.58" font-family="Helvetica,sans-Serif" font-size="10.00">Acts::BoundaryTolerance</text>
</a>
</g>
</g>
<!-- Node23&#45;&gt;Node2 -->
<g id="edge28_Node000002_Node000023" class="edge">
<title>Node23&#45;&gt;Node2</title>
<g id="a_edge28_Node000002_Node000023"><a xlink:title=" ">
<path fill="none" stroke="#9a32cd" stroke-dasharray="5,2" d="M1570.18,-146.1C1603.19,-146.76 1642.05,-148.39 1677,-152.08 1687.12,-153.14 1697.91,-154.76 1708.14,-156.53"/>
<polygon fill="#9a32cd" stroke="#9a32cd" points="1570.2,-142.6 1560.14,-145.93 1570.07,-149.6 1570.2,-142.6"/>
</a>
</g>
<text text-anchor="start" x="1581.5" y="-157.58" font-family="Helvetica,sans-Serif" font-size="10.00" fill="grey">boundaryTolerance</text>
</g>
</g>
</svg>
