<?xml version="1.0" encoding="UTF-8" standalone="no"?>
<!DOCTYPE svg PUBLIC "-//W3C//DTD SVG 1.1//EN"
 "http://www.w3.org/Graphics/SVG/1.1/DTD/svg11.dtd">
<!-- Generated by graphviz version 2.43.0 (0)
 -->
<!-- Title: ActsPlugins::Geant4SurfaceProvider&lt; kDim, bSize &gt;::KdtOptions Pages: 1 -->
<!--zoomable 140 -->

<svg id="main" version="1.1" xmlns="http://www.w3.org/2000/svg" xmlns:xlink="http://www.w3.org/1999/xlink" xml:space="preserve" onload="init(evt)">

<style type="text/css"><![CDATA[
.node, .edge {opacity: 0.7;}
.node.selected, .edge.selected {opacity: 1;}
.edge:hover path { stroke: red; }
.edge:hover polygon { stroke: red; fill: red; }
]]></style>

<defs>
  <circle id="rim" cx="0" cy="0" r="7"/>
  <circle id="rim2" cx="0" cy="0" r="3.5"/>
  <g id="zoomPlus">
    <use xlink:href="#rim" fill="#404040"><set attributeName="fill" to="#808080" begin="zoomplus.mouseover" end="zoomplus.mouseout"/></use>
    <path d="M-4,0h8M0,-4v8" fill="none" stroke="white" stroke-width="1.5" pointer-events="none"/>
  </g>
  <g id="zoomMin">
    <use xlink:href="#rim" fill="#404040"><set attributeName="fill" to="#808080" begin="zoomminus.mouseover" end="zoomminus.mouseout"/></use>
    <path d="M-4,0h8" fill="none" stroke="white" stroke-width="1.5" pointer-events="none"/>
  </g>
  <g id="arrowUp" transform="translate(30 24)">
    <use xlink:href="#rim"/>
    <path pointer-events="none" fill="none" stroke="white" stroke-width="1.5" d="M0,-3.0v7 M-2.5,-0.5L0,-3.0L2.5,-0.5"/>
  </g>
  <g id="arrowRight" transform="rotate(90) translate(36 -43)">
    <use xlink:href="#rim"/>
    <path pointer-events="none" fill="none" stroke="white" stroke-width="1.5" d="M0,-3.0v7 M-2.5,-0.5L0,-3.0L2.5,-0.5"/>
  </g>
  <g id="arrowDown" transform="rotate(180) translate(-30 -48)">
    <use xlink:href="#rim"/>
    <path pointer-events="none" fill="none" stroke="white" stroke-width="1.5" d="M0,-3.0v7 M-2.5,-0.5L0,-3.0L2.5,-0.5"/>
  </g>
  <g id="arrowLeft" transform="rotate(270) translate(-36 17)">
    <use xlink:href="#rim"/>
    <path pointer-events="none" fill="none" stroke="white" stroke-width="1.5" d="M0,-3.0v7 M-2.5,-0.5L0,-3.0L2.5,-0.5"/>
  </g>
  <g id="resetDef">
    <use xlink:href="#rim2" fill="#404040"><set attributeName="fill" to="#808080" begin="reset.mouseover" end="reset.mouseout"/></use>
  </g>
</defs>
<script type="application/ecmascript">
var viewWidth = 761;
var viewHeight = 140;
var sectionId = 'dynsection-0';
</script>
<script type="application/ecmascript" xlink:href="svg.min.js"/>
<svg id="graph" class="graph">
<g id="viewport">
<title>ActsPlugins::Geant4SurfaceProvider&lt; kDim, bSize &gt;::KdtOptions</title>
<!-- Node1 -->
<g id="Node000001" class="node">
<title>Node1</title>
<g id="a_Node000001"><a xlink:title="Optional configuration for the KDTree.">
<polygon fill="#999999" stroke="#666666" points="753,-83.5 602,-83.5 602,-42.5 753,-42.5 753,-83.5"/>
<text text-anchor="start" x="610" y="-71.5" font-family="Helvetica,sans-Serif" font-size="10.00">ActsPlugins::Geant4Surface</text>
<text text-anchor="start" x="610" y="-60.5" font-family="Helvetica,sans-Serif" font-size="10.00">Provider&lt; kDim, bSize &gt;</text>
<text text-anchor="middle" x="677.5" y="-49.5" font-family="Helvetica,sans-Serif" font-size="10.00">::KdtOptions</text>
</a>
</g>
</g>
<!-- Node2 -->
<g id="Node000002" class="node">
<title>Node2</title>
<g id="a_Node000002"><a xlink:href="class_acts_1_1_range_x_d.html" target="_top" xlink:title=" ">
<polygon fill="white" stroke="#666666" points="443.5,-129 314.5,-129 314.5,-99 443.5,-99 443.5,-129"/>
<text text-anchor="start" x="322.5" y="-117" font-family="Helvetica,sans-Serif" font-size="10.00">Acts::RangeXD&lt; kDim,</text>
<text text-anchor="middle" x="379" y="-106" font-family="Helvetica,sans-Serif" font-size="10.00"> double &gt;</text>
</a>
</g>
</g>
<!-- Node2&#45;&gt;Node1 -->
<g id="edge1_Node000001_Node000002" class="edge">
<title>Node2&#45;&gt;Node1</title>
<g id="a_edge1_Node000001_Node000002"><a xlink:title=" ">
<path fill="none" stroke="#9a32cd" stroke-dasharray="5,2" d="M453.79,-104.55C492.65,-99.22 541.04,-92.02 584,-84 589.83,-82.91 595.85,-81.71 601.88,-80.46"/>
<polygon fill="#9a32cd" stroke="#9a32cd" points="453.05,-101.12 443.61,-105.93 453.99,-108.05 453.05,-101.12"/>
</a>
</g>
<text text-anchor="start" x="519" y="-105.5" font-family="Helvetica,sans-Serif" font-size="10.00" fill="grey">range</text>
</g>
<!-- Node3 -->
<g id="Node000003" class="node">
<title>Node3</title>
<g id="a_Node000003"><a xlink:href="class_acts_1_1_range_x_d.html" target="_top" xlink:title="An orthogonal range in an arbitrary number of dimensions.">
<polygon fill="white" stroke="#666666" points="128,-131 0,-131 0,-101 128,-101 128,-131"/>
<text text-anchor="start" x="8" y="-119" font-family="Helvetica,sans-Serif" font-size="10.00">Acts::RangeXD&lt; Dims,</text>
<text text-anchor="middle" x="64" y="-108" font-family="Helvetica,sans-Serif" font-size="10.00"> Type, Vector &gt;</text>
</a>
</g>
</g>
<!-- Node3&#45;&gt;Node2 -->
<g id="edge2_Node000002_Node000003" class="edge">
<title>Node3&#45;&gt;Node2</title>
<g id="a_edge2_Node000002_Node000003"><a xlink:title=" ">
<path fill="none" stroke="orange" stroke-dasharray="5,2" d="M138.44,-115.53C191.87,-115.19 263.51,-114.73 314.49,-114.41"/>
<polygon fill="orange" stroke="orange" points="138.32,-112.03 128.34,-115.6 138.36,-119.03 138.32,-112.03"/>
</a>
</g>
<text text-anchor="start" x="167" y="-120.5" font-family="Helvetica,sans-Serif" font-size="10.00" fill="grey">&lt; kDim, double &gt;</text>
</g>
<!-- Node4 -->
<g id="Node000004" class="node">
<title>Node4</title>
<g id="a_Node000004"><a xlink:title=" ">
<polygon fill="white" stroke="#666666" points="464,-78 294,-78 294,-48 464,-48 464,-78"/>
<text text-anchor="start" x="302" y="-66" font-family="Helvetica,sans-Serif" font-size="10.00">std::array&lt; Acts::AxisDirection,</text>
<text text-anchor="middle" x="379" y="-55" font-family="Helvetica,sans-Serif" font-size="10.00"> kDim &gt;</text>
</a>
</g>
</g>
<!-- Node4&#45;&gt;Node1 -->
<g id="edge3_Node000001_Node000004" class="edge">
<title>Node4&#45;&gt;Node1</title>
<g id="a_edge3_Node000001_Node000004"><a xlink:title=" ">
<path fill="none" stroke="#9a32cd" stroke-dasharray="5,2" d="M474.22,-63C515.4,-63 563.03,-63 601.72,-63"/>
<polygon fill="#9a32cd" stroke="#9a32cd" points="474.17,-59.5 464.17,-63 474.17,-66.5 474.17,-59.5"/>
</a>
</g>
<text text-anchor="start" x="499" y="-68.5" font-family="Helvetica,sans-Serif" font-size="10.00" fill="grey">binningValues</text>
</g>
<!-- Node5 -->
<g id="Node000005" class="node">
<title>Node5</title>
<g id="a_Node000005"><a xlink:title=" ">
<polygon fill="white" stroke="#666666" points="110,-70.5 18,-70.5 18,-51.5 110,-51.5 110,-70.5"/>
<text text-anchor="middle" x="64" y="-58.5" font-family="Helvetica,sans-Serif" font-size="10.00">std::array&lt; T &gt;</text>
</a>
</g>
</g>
<!-- Node5&#45;&gt;Node4 -->
<g id="edge4_Node000004_Node000005" class="edge">
<title>Node5&#45;&gt;Node4</title>
<g id="a_edge4_Node000004_Node000005"><a xlink:title=" ">
<path fill="none" stroke="orange" stroke-dasharray="5,2" d="M120.39,-61.35C168.5,-61.66 238.9,-62.11 293.95,-62.46"/>
<polygon fill="orange" stroke="orange" points="120.2,-57.85 110.18,-61.29 120.16,-64.85 120.2,-57.85"/>
</a>
</g>
<text text-anchor="start" x="158" y="-83" font-family="Helvetica,sans-Serif" font-size="10.00" fill="grey">&lt; Acts::AxisDirection,</text>
<text text-anchor="start" x="158" y="-68" font-family="Helvetica,sans-Serif" font-size="10.00" fill="grey">   kDim &gt;</text>
</g>
<!-- Node6 -->
<g id="Node000006" class="node">
<title>Node6</title>
<g id="a_Node000006"><a xlink:title=" ">
<polygon fill="white" stroke="#666666" points="455.5,-30 302.5,-30 302.5,0 455.5,0 455.5,-30"/>
<text text-anchor="start" x="310.5" y="-18" font-family="Helvetica,sans-Serif" font-size="10.00">std::shared_ptr&lt; IReference</text>
<text text-anchor="middle" x="379" y="-7" font-family="Helvetica,sans-Serif" font-size="10.00">Generator &gt;</text>
</a>
</g>
</g>
<!-- Node6&#45;&gt;Node1 -->
<g id="edge5_Node000001_Node000006" class="edge">
<title>Node6&#45;&gt;Node1</title>
<g id="a_edge5_Node000001_Node000006"><a xlink:title=" ">
<path fill="none" stroke="#9a32cd" stroke-dasharray="5,2" d="M465.94,-24.6C502.46,-29.14 545.43,-35.08 584,-42 589.84,-43.05 595.86,-44.21 601.9,-45.45"/>
<polygon fill="#9a32cd" stroke="#9a32cd" points="466.17,-21.1 455.82,-23.36 465.32,-28.05 466.17,-21.1"/>
</a>
</g>
<text text-anchor="start" x="485" y="-47.5" font-family="Helvetica,sans-Serif" font-size="10.00" fill="grey">referenceGenerator</text>
</g>
<!-- Node7 -->
<g id="Node000007" class="node">
<title>Node7</title>
<g id="a_Node000007"><a xlink:title=" ">
<polygon fill="white" stroke="#666666" points="123,-24.5 5,-24.5 5,-5.5 123,-5.5 123,-24.5"/>
<text text-anchor="middle" x="64" y="-12.5" font-family="Helvetica,sans-Serif" font-size="10.00">std::shared_ptr&lt; T &gt;</text>
</a>
</g>
</g>
<!-- Node7&#45;&gt;Node6 -->
<g id="edge6_Node000006_Node000007" class="edge">
<title>Node7&#45;&gt;Node6</title>
<g id="a_edge6_Node000006_Node000007"><a xlink:title=" ">
<path fill="none" stroke="orange" stroke-dasharray="5,2" d="M133.19,-15C183.11,-15 250.85,-15 302.42,-15"/>
<polygon fill="orange" stroke="orange" points="133.14,-11.5 123.14,-15 133.14,-18.5 133.14,-11.5"/>
</a>
</g>
<text text-anchor="start" x="149" y="-20.5" font-family="Helvetica,sans-Serif" font-size="10.00" fill="grey">&lt; IReferenceGenerator &gt;</text>
</g>
</g>
</svg>

<g id="navigator" transform="translate(0 0)" fill="#404254">
  <rect fill="#f2f5e9" fill-opacity="0.5" stroke="#606060" stroke-width=".5" x="0" y="0" width="60" height="60"/>
  <use id="zoomplus" xlink:href="#zoomPlus" x="17" y="9" onmousedown="handleZoom(evt,'in')"/>
  <use id="zoomminus" xlink:href="#zoomMin" x="42" y="9" onmousedown="handleZoom(evt,'out')"/>
  <use id="reset" xlink:href="#resetDef" x="30" y="36" onmousedown="handleReset()"/>
   <use id="arrowup" xlink:href="#arrowUp" x="0" y="0" onmousedown="handlePan(0,-1)"/>
  <use id="arrowright" xlink:href="#arrowRight" x="0" y="0" onmousedown="handlePan(1,0)"/>
  <use id="arrowdown" xlink:href="#arrowDown" x="0" y="0" onmousedown="handlePan(0,1)"/>
  <use id="arrowleft" xlink:href="#arrowLeft" x="0" y="0" onmousedown="handlePan(-1,0)"/>
</g>
<svg viewBox="0 0 15 15" width="100%" height="30px" preserveAspectRatio="xMaxYMin meet">
 <g id="arrow_out" transform="scale(0.3 0.3)">
  <a xlink:href="struct_acts_plugins_1_1_geant4_surface_provider_1_1_kdt_options__coll__graph_org.svg" target="_base">
   <rect id="button" ry="5" rx="5" y="6" x="6" height="38" width="38"
        fill="#f2f5e9" fill-opacity="0.5" stroke="#606060" stroke-width="1.0"/>
   <path id="arrow"
     d="M 11.500037,31.436501 C 11.940474,20.09759 22.043105,11.32322 32.158766,21.979434 L 37.068811,17.246167 C 37.068811,17.246167 37.088388,32 37.088388,32 L 22.160133,31.978069 C 22.160133,31.978069 26.997745,27.140456 26.997745,27.140456 C 18.528582,18.264221 13.291696,25.230495 11.500037,31.436501 z"
     style="fill:#404040;"/>
  </a>
 </g>
</svg>

<style type='text/css'>
<![CDATA[
[data-mouse-over-selected='false'] { opacity: 0.7; }
[data-mouse-over-selected='true']  { opacity: 1.0; }
]]>
</style>
<script type="application/ecmascript"><![CDATA[
document.addEventListener('DOMContentLoaded', (event) => {
  highlightEdges();
  highlightAdjacentNodes();
});
]]></script>
</svg>
