<?xml version="1.0" encoding="UTF-8" standalone="no"?>
<!DOCTYPE svg PUBLIC "-//W3C//DTD SVG 1.1//EN"
 "http://www.w3.org/Graphics/SVG/1.1/DTD/svg11.dtd">
<!-- Generated by graphviz version 2.43.0 (0)
 -->
<!-- Title: Acts::TrackStateCreator&lt; source_link_iterator_t, track_container_t &gt; Pages: 1 -->
<!--zoomable 672 -->

<svg id="main" version="1.1" xmlns="http://www.w3.org/2000/svg" xmlns:xlink="http://www.w3.org/1999/xlink" xml:space="preserve" onload="init(evt)">

<style type="text/css"><![CDATA[
.node, .edge {opacity: 0.7;}
.node.selected, .edge.selected {opacity: 1;}
.edge:hover path { stroke: red; }
.edge:hover polygon { stroke: red; fill: red; }
]]></style>

<defs>
  <circle id="rim" cx="0" cy="0" r="7"/>
  <circle id="rim2" cx="0" cy="0" r="3.5"/>
  <g id="zoomPlus">
    <use xlink:href="#rim" fill="#404040"><set attributeName="fill" to="#808080" begin="zoomplus.mouseover" end="zoomplus.mouseout"/></use>
    <path d="M-4,0h8M0,-4v8" fill="none" stroke="white" stroke-width="1.5" pointer-events="none"/>
  </g>
  <g id="zoomMin">
    <use xlink:href="#rim" fill="#404040"><set attributeName="fill" to="#808080" begin="zoomminus.mouseover" end="zoomminus.mouseout"/></use>
    <path d="M-4,0h8" fill="none" stroke="white" stroke-width="1.5" pointer-events="none"/>
  </g>
  <g id="arrowUp" transform="translate(30 24)">
    <use xlink:href="#rim"/>
    <path pointer-events="none" fill="none" stroke="white" stroke-width="1.5" d="M0,-3.0v7 M-2.5,-0.5L0,-3.0L2.5,-0.5"/>
  </g>
  <g id="arrowRight" transform="rotate(90) translate(36 -43)">
    <use xlink:href="#rim"/>
    <path pointer-events="none" fill="none" stroke="white" stroke-width="1.5" d="M0,-3.0v7 M-2.5,-0.5L0,-3.0L2.5,-0.5"/>
  </g>
  <g id="arrowDown" transform="rotate(180) translate(-30 -48)">
    <use xlink:href="#rim"/>
    <path pointer-events="none" fill="none" stroke="white" stroke-width="1.5" d="M0,-3.0v7 M-2.5,-0.5L0,-3.0L2.5,-0.5"/>
  </g>
  <g id="arrowLeft" transform="rotate(270) translate(-36 17)">
    <use xlink:href="#rim"/>
    <path pointer-events="none" fill="none" stroke="white" stroke-width="1.5" d="M0,-3.0v7 M-2.5,-0.5L0,-3.0L2.5,-0.5"/>
  </g>
  <g id="resetDef">
    <use xlink:href="#rim2" fill="#404040"><set attributeName="fill" to="#808080" begin="reset.mouseover" end="reset.mouseout"/></use>
  </g>
</defs>
<script type="application/ecmascript">
var viewWidth = 1642;
var viewHeight = 672;
var sectionId = 'dynsection-0';
</script>
<script type="application/ecmascript" xlink:href="svg.min.js"/>
<svg id="graph" class="graph">
<g id="viewport">
<title>Acts::TrackStateCreator&lt; source_link_iterator_t, track_container_t &gt;</title>
<!-- Node1 -->
<g id="Node000001" class="node">
<title>Node1</title>
<g id="a_Node000001"><a xlink:title="Create track states for selected measurements associated to a surface.">
<polygon fill="#999999" stroke="#666666" points="1634,-351.19 1503,-351.19 1503,-310.19 1634,-310.19 1634,-351.19"/>
<text text-anchor="start" x="1511" y="-339.19" font-family="Helvetica,sans-Serif" font-size="10.00">Acts::TrackStateCreator</text>
<text text-anchor="start" x="1511" y="-328.19" font-family="Helvetica,sans-Serif" font-size="10.00">&lt; source_link_iterator</text>
<text text-anchor="middle" x="1568.5" y="-317.19" font-family="Helvetica,sans-Serif" font-size="10.00">_t, track_container_t &gt;</text>
</a>
</g>
</g>
<!-- Node2 -->
<g id="Node000002" class="node">
<title>Node2</title>
<g id="a_Node000002"><a xlink:title=" ">
<polygon fill="white" stroke="#666666" points="823,-579.69 653,-579.69 653,-527.69 823,-527.69 823,-579.69"/>
<text text-anchor="start" x="661" y="-567.69" font-family="Helvetica,sans-Serif" font-size="10.00">Acts::Delegate&lt; std</text>
<text text-anchor="start" x="661" y="-556.69" font-family="Helvetica,sans-Serif" font-size="10.00">::pair&lt; source_link</text>
<text text-anchor="start" x="661" y="-545.69" font-family="Helvetica,sans-Serif" font-size="10.00">_iterator_t, source_link</text>
<text text-anchor="middle" x="738" y="-534.69" font-family="Helvetica,sans-Serif" font-size="10.00">_iterator_t &gt;(const Surface &amp;)&gt;</text>
</a>
</g>
</g>
<!-- Node2&#45;&gt;Node1 -->
<g id="edge1_Node000001_Node000002" class="edge">
<title>Node2&#45;&gt;Node1</title>
<g id="a_edge1_Node000001_Node000002"><a xlink:title=" ">
<path fill="none" stroke="#9a32cd" stroke-dasharray="5,2" d="M833.1,-544.88C884.32,-539.73 948.74,-532.67 1006,-524.69 1100.22,-511.54 1126.01,-516.46 1217,-488.69 1336.06,-452.35 1467.67,-385.1 1530.35,-351.26"/>
<polygon fill="#9a32cd" stroke="#9a32cd" points="832.64,-541.4 823.04,-545.88 833.34,-548.37 832.64,-541.4"/>
</a>
</g>
<text text-anchor="start" x="1072.5" y="-528.19" font-family="Helvetica,sans-Serif" font-size="10.00" fill="grey">sourceLinkAccessor</text>
</g>
<!-- Node3 -->
<g id="Node000003" class="node">
<title>Node3</title>
<g id="a_Node000003"><a xlink:href="class_acts_1_1_delegate.html" target="_top" xlink:title=" ">
<polygon fill="white" stroke="#666666" points="152,-335.69 0,-335.69 0,-305.69 152,-305.69 152,-335.69"/>
<text text-anchor="start" x="8" y="-323.69" font-family="Helvetica,sans-Serif" font-size="10.00">Acts::Delegate&lt; typename,</text>
<text text-anchor="middle" x="76" y="-312.69" font-family="Helvetica,sans-Serif" font-size="10.00"> H, DelegateType &gt;</text>
</a>
</g>
</g>
<!-- Node3&#45;&gt;Node2 -->
<g id="edge2_Node000002_Node000003" class="edge">
<title>Node3&#45;&gt;Node2</title>
<g id="a_edge2_Node000002_Node000003"><a xlink:title=" ">
<path fill="none" stroke="orange" stroke-dasharray="5,2" d="M79.41,-345.98C85.38,-392.69 105.4,-491.76 170,-535.69 315.38,-634.54 533.68,-604.29 652.54,-576.91"/>
<polygon fill="orange" stroke="orange" points="82.86,-345.33 78.24,-335.8 75.91,-346.14 82.86,-345.33"/>
</a>
</g>
<text text-anchor="start" x="217.5" y="-652.69" font-family="Helvetica,sans-Serif" font-size="10.00" fill="grey">&lt; std::pair&lt; source</text>
<text text-anchor="start" x="217.5" y="-637.69" font-family="Helvetica,sans-Serif" font-size="10.00" fill="grey">  _link_iterator_t, source</text>
<text text-anchor="start" x="217.5" y="-622.69" font-family="Helvetica,sans-Serif" font-size="10.00" fill="grey">  _link_iterator_t &gt;( const</text>
<text text-anchor="start" x="217.5" y="-607.69" font-family="Helvetica,sans-Serif" font-size="10.00" fill="grey">   Surface &amp;)&gt;</text>
</g>
<!-- Node5 -->
<g id="Node000005" class="node">
<title>Node5</title>
<g id="a_Node000005"><a xlink:href="class_acts_1_1_delegate.html" target="_top" xlink:title=" ">
<polygon fill="white" stroke="#666666" points="605,-238.69 432,-238.69 432,-208.69 605,-208.69 605,-238.69"/>
<text text-anchor="start" x="440" y="-226.69" font-family="Helvetica,sans-Serif" font-size="10.00">Acts::Delegate&lt; const</text>
<text text-anchor="middle" x="518.5" y="-215.69" font-family="Helvetica,sans-Serif" font-size="10.00"> Surface *(const SourceLink &amp;)&gt;</text>
</a>
</g>
</g>
<!-- Node3&#45;&gt;Node5 -->
<g id="edge5_Node000005_Node000003" class="edge">
<title>Node3&#45;&gt;Node5</title>
<g id="a_edge5_Node000005_Node000003"><a xlink:title=" ">
<path fill="none" stroke="orange" stroke-dasharray="5,2" d="M92.22,-296.88C108.37,-274.04 136.21,-240.96 170,-226.69 215.43,-207.49 344.58,-211.59 431.97,-217.06"/>
<polygon fill="orange" stroke="orange" points="89.17,-295.14 86.41,-305.37 94.95,-299.09 89.17,-295.14"/>
</a>
</g>
<text text-anchor="start" x="221.5" y="-247.69" font-family="Helvetica,sans-Serif" font-size="10.00" fill="grey">&lt; const Surface *(const</text>
<text text-anchor="start" x="221.5" y="-232.69" font-family="Helvetica,sans-Serif" font-size="10.00" fill="grey">   SourceLink &amp;)&gt;</text>
</g>
<!-- Node6 -->
<g id="Node000006" class="node">
<title>Node6</title>
<g id="a_Node000006"><a xlink:href="class_acts_1_1_delegate.html" target="_top" xlink:title=" ">
<polygon fill="white" stroke="#666666" points="630,-380.69 407,-380.69 407,-328.69 630,-328.69 630,-380.69"/>
<text text-anchor="start" x="415" y="-368.69" font-family="Helvetica,sans-Serif" font-size="10.00">Acts::Delegate&lt; void</text>
<text text-anchor="start" x="415" y="-357.69" font-family="Helvetica,sans-Serif" font-size="10.00">(const GeometryContext</text>
<text text-anchor="start" x="415" y="-346.69" font-family="Helvetica,sans-Serif" font-size="10.00"> &amp;, const CalibrationContext</text>
<text text-anchor="middle" x="518.5" y="-335.69" font-family="Helvetica,sans-Serif" font-size="10.00"> &amp;, const SourceLink &amp;, TrackStateProxy)&gt;</text>
</a>
</g>
</g>
<!-- Node3&#45;&gt;Node6 -->
<g id="edge7_Node000006_Node000003" class="edge">
<title>Node3&#45;&gt;Node6</title>
<g id="a_edge7_Node000006_Node000003"><a xlink:title=" ">
<path fill="none" stroke="orange" stroke-dasharray="5,2" d="M146.27,-337.8C154.23,-339.33 162.27,-340.68 170,-341.69 248.72,-351.96 338.26,-355.11 406.73,-355.74"/>
<polygon fill="orange" stroke="orange" points="146.74,-334.32 136.24,-335.78 145.35,-341.19 146.74,-334.32"/>
</a>
</g>
<text text-anchor="start" x="173.5" y="-391.19" font-family="Helvetica,sans-Serif" font-size="10.00" fill="grey">&lt; void(const GeometryContext</text>
<text text-anchor="start" x="173.5" y="-376.19" font-family="Helvetica,sans-Serif" font-size="10.00" fill="grey">   &amp;, const CalibrationContext</text>
<text text-anchor="start" x="173.5" y="-361.19" font-family="Helvetica,sans-Serif" font-size="10.00" fill="grey">   &amp;, const SourceLink &amp;, TrackStateProxy)&gt;</text>
</g>
<!-- Node7 -->
<g id="Node000007" class="node">
<title>Node7</title>
<g id="a_Node000007"><a xlink:href="class_acts_1_1_delegate.html" target="_top" xlink:title=" ">
<polygon fill="white" stroke="#666666" points="608.5,-190.69 428.5,-190.69 428.5,-138.69 608.5,-138.69 608.5,-190.69"/>
<text text-anchor="start" x="436.5" y="-178.69" font-family="Helvetica,sans-Serif" font-size="10.00">Acts::Delegate&lt; Result</text>
<text text-anchor="start" x="436.5" y="-167.69" font-family="Helvetica,sans-Serif" font-size="10.00">&lt; void &gt;(const GeometryContext</text>
<text text-anchor="start" x="436.5" y="-156.69" font-family="Helvetica,sans-Serif" font-size="10.00"> &amp;, TrackStateProxy, const</text>
<text text-anchor="middle" x="518.5" y="-145.69" font-family="Helvetica,sans-Serif" font-size="10.00"> Logger &amp;)&gt;</text>
</a>
</g>
</g>
<!-- Node3&#45;&gt;Node7 -->
<g id="edge9_Node000007_Node000003" class="edge">
<title>Node3&#45;&gt;Node7</title>
<g id="a_edge9_Node000007_Node000003"><a xlink:title=" ">
<path fill="none" stroke="orange" stroke-dasharray="5,2" d="M83.24,-295.51C93.93,-258.48 119.63,-190.58 170,-161.69 248.5,-116.66 354.31,-125.43 428.48,-140.41"/>
<polygon fill="orange" stroke="orange" points="79.77,-294.94 80.5,-305.51 86.52,-296.79 79.77,-294.94"/>
</a>
</g>
<text text-anchor="start" x="197.5" y="-197.19" font-family="Helvetica,sans-Serif" font-size="10.00" fill="grey">&lt; Result&lt; void &gt;(const</text>
<text text-anchor="start" x="197.5" y="-182.19" font-family="Helvetica,sans-Serif" font-size="10.00" fill="grey">   GeometryContext &amp;, TrackState</text>
<text text-anchor="start" x="197.5" y="-167.19" font-family="Helvetica,sans-Serif" font-size="10.00" fill="grey">  Proxy, const Logger &amp;)&gt;</text>
</g>
<!-- Node8 -->
<g id="Node000008" class="node">
<title>Node8</title>
<g id="a_Node000008"><a xlink:href="class_acts_1_1_delegate.html" target="_top" xlink:title=" ">
<polygon fill="white" stroke="#666666" points="588,-445.69 449,-445.69 449,-415.69 588,-415.69 588,-445.69"/>
<text text-anchor="start" x="457" y="-433.69" font-family="Helvetica,sans-Serif" font-size="10.00">Acts::Delegate&lt; bool</text>
<text text-anchor="middle" x="518.5" y="-422.69" font-family="Helvetica,sans-Serif" font-size="10.00">(ConstTrackStateProxy)&gt;</text>
</a>
</g>
</g>
<!-- Node3&#45;&gt;Node8 -->
<g id="edge11_Node000008_Node000003" class="edge">
<title>Node3&#45;&gt;Node8</title>
<g id="a_edge11_Node000008_Node000003"><a xlink:title=" ">
<path fill="none" stroke="orange" stroke-dasharray="5,2" d="M94.21,-343.75C111.01,-364.29 138.59,-393.12 170,-406.69 218.44,-427.6 362.3,-431.16 448.99,-431.3"/>
<polygon fill="orange" stroke="orange" points="96.85,-341.45 87.89,-335.79 91.37,-345.8 96.85,-341.45"/>
</a>
</g>
<text text-anchor="start" x="202.5" y="-436.19" font-family="Helvetica,sans-Serif" font-size="10.00" fill="grey">&lt; bool(ConstTrackStateProxy)&gt;</text>
</g>
<!-- Node9 -->
<g id="Node000009" class="node">
<title>Node9</title>
<g id="a_Node000009"><a xlink:title=" ">
<polygon fill="white" stroke="#666666" points="828,-509.69 648,-509.69 648,-457.69 828,-457.69 828,-509.69"/>
<text text-anchor="start" x="656" y="-497.69" font-family="Helvetica,sans-Serif" font-size="10.00">Acts::Delegate&lt; Result</text>
<text text-anchor="start" x="656" y="-486.69" font-family="Helvetica,sans-Serif" font-size="10.00">&lt; void &gt;(const GeometryContext</text>
<text text-anchor="start" x="656" y="-475.69" font-family="Helvetica,sans-Serif" font-size="10.00"> &amp;, TrackStateContainerBackend</text>
<text text-anchor="middle" x="738" y="-464.69" font-family="Helvetica,sans-Serif" font-size="10.00"> &amp;, std::size_t, const Logger &amp;)&gt;</text>
</a>
</g>
</g>
<!-- Node3&#45;&gt;Node9 -->
<g id="edge13_Node000009_Node000003" class="edge">
<title>Node3&#45;&gt;Node9</title>
<g id="a_edge13_Node000009_Node000003"><a xlink:title=" ">
<path fill="none" stroke="orange" stroke-dasharray="5,2" d="M86.4,-345.09C99.78,-376.04 127.49,-428.19 170,-451.69 190.51,-463.02 493.29,-475.17 647.76,-480.67"/>
<polygon fill="orange" stroke="orange" points="89.63,-343.74 82.56,-335.85 83.17,-346.43 89.63,-343.74"/>
</a>
</g>
<text text-anchor="start" x="197.5" y="-520.69" font-family="Helvetica,sans-Serif" font-size="10.00" fill="grey">&lt; Result&lt; void &gt;(const</text>
<text text-anchor="start" x="197.5" y="-505.69" font-family="Helvetica,sans-Serif" font-size="10.00" fill="grey">   GeometryContext &amp;, TrackState</text>
<text text-anchor="start" x="197.5" y="-490.69" font-family="Helvetica,sans-Serif" font-size="10.00" fill="grey">  ContainerBackend &amp;, std::size</text>
<text text-anchor="start" x="197.5" y="-475.69" font-family="Helvetica,sans-Serif" font-size="10.00" fill="grey">  _t, const Logger &amp;)&gt;</text>
</g>
<!-- Node11 -->
<g id="Node000011" class="node">
<title>Node11</title>
<g id="a_Node000011"><a xlink:title=" ">
<polygon fill="white" stroke="#666666" points="608.5,-308.69 428.5,-308.69 428.5,-256.69 608.5,-256.69 608.5,-308.69"/>
<text text-anchor="start" x="436.5" y="-296.69" font-family="Helvetica,sans-Serif" font-size="10.00">Acts::Delegate&lt; Result</text>
<text text-anchor="start" x="436.5" y="-285.69" font-family="Helvetica,sans-Serif" font-size="10.00">&lt; void &gt;(const GeometryContext</text>
<text text-anchor="start" x="436.5" y="-274.69" font-family="Helvetica,sans-Serif" font-size="10.00"> &amp;, traj_t &amp;, std::size_t,</text>
<text text-anchor="middle" x="518.5" y="-263.69" font-family="Helvetica,sans-Serif" font-size="10.00"> const Logger &amp;)&gt;</text>
</a>
</g>
</g>
<!-- Node3&#45;&gt;Node11 -->
<g id="edge20_Node000011_Node000003" class="edge">
<title>Node3&#45;&gt;Node11</title>
<g id="a_edge20_Node000011_Node000003"><a xlink:title=" ">
<path fill="none" stroke="orange" stroke-dasharray="5,2" d="M109.81,-300.31C127.04,-290.8 148.91,-280.52 170,-275.69 256.17,-255.94 357.51,-261.08 428.45,-269.1"/>
<polygon fill="orange" stroke="orange" points="107.7,-297.48 100.75,-305.47 111.17,-303.56 107.7,-297.48"/>
</a>
</g>
<text text-anchor="start" x="214.5" y="-326.69" font-family="Helvetica,sans-Serif" font-size="10.00" fill="grey">&lt; Result&lt; void &gt;(const</text>
<text text-anchor="start" x="214.5" y="-311.69" font-family="Helvetica,sans-Serif" font-size="10.00" fill="grey">   GeometryContext &amp;, traj</text>
<text text-anchor="start" x="214.5" y="-296.69" font-family="Helvetica,sans-Serif" font-size="10.00" fill="grey">  _t &amp;, std::size_t, const</text>
<text text-anchor="start" x="214.5" y="-281.69" font-family="Helvetica,sans-Serif" font-size="10.00" fill="grey">   Logger &amp;)&gt;</text>
</g>
<!-- Node12 -->
<g id="Node000012" class="node">
<title>Node12</title>
<g id="a_Node000012"><a xlink:title=" ">
<polygon fill="white" stroke="#666666" points="1217,-93.19 1024,-93.19 1024,-8.19 1217,-8.19 1217,-93.19"/>
<text text-anchor="start" x="1032" y="-81.19" font-family="Helvetica,sans-Serif" font-size="10.00">Acts::Delegate&lt; Result</text>
<text text-anchor="start" x="1032" y="-70.19" font-family="Helvetica,sans-Serif" font-size="10.00">&lt; std::pair&lt; typename</text>
<text text-anchor="start" x="1032" y="-59.19" font-family="Helvetica,sans-Serif" font-size="10.00"> candidate_container_t</text>
<text text-anchor="start" x="1032" y="-48.19" font-family="Helvetica,sans-Serif" font-size="10.00">::iterator, typename candidate</text>
<text text-anchor="start" x="1032" y="-37.19" font-family="Helvetica,sans-Serif" font-size="10.00">_container_t::iterator &gt; &gt;(candidate</text>
<text text-anchor="start" x="1032" y="-26.19" font-family="Helvetica,sans-Serif" font-size="10.00">_container_t &amp;trackStates, bool &amp;,</text>
<text text-anchor="middle" x="1120.5" y="-15.19" font-family="Helvetica,sans-Serif" font-size="10.00"> const Logger &amp;)&gt;</text>
</a>
</g>
</g>
<!-- Node3&#45;&gt;Node12 -->
<g id="edge22_Node000012_Node000003" class="edge">
<title>Node3&#45;&gt;Node12</title>
<g id="a_edge22_Node000012_Node000003"><a xlink:title=" ">
<path fill="none" stroke="orange" stroke-dasharray="5,2" d="M82.76,-295.57C93.36,-254.65 119.6,-173.28 170,-124.69 252.56,-45.1 294.69,-45.83 407,-22.69 624.03,22.03 885.9,-9.47 1023.8,-32.47"/>
<polygon fill="orange" stroke="orange" points="79.31,-294.97 80.29,-305.52 86.1,-296.66 79.31,-294.97"/>
</a>
</g>
<text text-anchor="start" x="438.5" y="-118.19" font-family="Helvetica,sans-Serif" font-size="10.00" fill="grey">&lt; Result&lt; std::pair</text>
<text text-anchor="start" x="438.5" y="-103.19" font-family="Helvetica,sans-Serif" font-size="10.00" fill="grey">  &lt; typename candidate</text>
<text text-anchor="start" x="438.5" y="-88.19" font-family="Helvetica,sans-Serif" font-size="10.00" fill="grey">  _container_t::iterator,</text>
<text text-anchor="start" x="438.5" y="-73.19" font-family="Helvetica,sans-Serif" font-size="10.00" fill="grey">   typename candidate_container</text>
<text text-anchor="start" x="438.5" y="-58.19" font-family="Helvetica,sans-Serif" font-size="10.00" fill="grey">  _t::iterator &gt; &gt;( candidate</text>
<text text-anchor="start" x="438.5" y="-43.19" font-family="Helvetica,sans-Serif" font-size="10.00" fill="grey">  _container_t &amp;trackStates, bool</text>
<text text-anchor="start" x="438.5" y="-28.19" font-family="Helvetica,sans-Serif" font-size="10.00" fill="grey">   &amp;, const Logger &amp;)&gt;</text>
</g>
<!-- Node4 -->
<g id="Node000004" class="node">
<title>Node4</title>
<g id="a_Node000004"><a xlink:href="struct_acts_1_1_kalman_fitter_extensions.html" target="_top" xlink:title=" ">
<polygon fill="white" stroke="#666666" points="1414,-345.69 1235,-345.69 1235,-315.69 1414,-315.69 1414,-345.69"/>
<text text-anchor="start" x="1243" y="-333.69" font-family="Helvetica,sans-Serif" font-size="10.00">Acts::KalmanFitterExtensions</text>
<text text-anchor="middle" x="1324.5" y="-322.69" font-family="Helvetica,sans-Serif" font-size="10.00">&lt; TrackStateContainerBackend &gt;</text>
</a>
</g>
</g>
<!-- Node4&#45;&gt;Node1 -->
<g id="edge3_Node000001_Node000004" class="edge">
<title>Node4&#45;&gt;Node1</title>
<g id="a_edge3_Node000001_Node000004"><a xlink:title=" ">
<path fill="none" stroke="#9a32cd" stroke-dasharray="5,2" d="M1424.28,-330.69C1450.7,-330.69 1478.58,-330.69 1502.65,-330.69"/>
<polygon fill="#9a32cd" stroke="#9a32cd" points="1424.24,-327.19 1414.24,-330.69 1424.24,-334.19 1424.24,-327.19"/>
</a>
</g>
<text text-anchor="start" x="1435.5" y="-336.19" font-family="Helvetica,sans-Serif" font-size="10.00" fill="grey">calibrator</text>
</g>
<!-- Node5&#45;&gt;Node4 -->
<g id="edge4_Node000004_Node000005" class="edge">
<title>Node5&#45;&gt;Node4</title>
<g id="a_edge4_Node000004_Node000005"><a xlink:title=" ">
<path fill="none" stroke="#9a32cd" stroke-dasharray="5,2" d="M615.44,-222.86C676.39,-223.01 756.92,-224.42 828,-229.69 1003.19,-242.67 1046.85,-256.02 1217,-299.69 1235.84,-304.52 1256.39,-310.37 1274.37,-315.67"/>
<polygon fill="#9a32cd" stroke="#9a32cd" points="615.06,-219.36 605.06,-222.85 615.06,-226.36 615.06,-219.36"/>
</a>
</g>
<text text-anchor="start" x="886" y="-255.19" font-family="Helvetica,sans-Serif" font-size="10.00" fill="grey">surfaceAccessor</text>
</g>
<!-- Node10 -->
<g id="Node000010" class="node">
<title>Node10</title>
<g id="a_Node000010"><a xlink:href="struct_acts_1_1_kalman_fitter_extensions.html" target="_top" xlink:title="Extension struct which holds delegates to customise the KF behavior.">
<polygon fill="white" stroke="#666666" points="1006,-308.69 846,-308.69 846,-278.69 1006,-278.69 1006,-308.69"/>
<text text-anchor="start" x="854" y="-296.69" font-family="Helvetica,sans-Serif" font-size="10.00">Acts::KalmanFitterExtensions</text>
<text text-anchor="middle" x="926" y="-285.69" font-family="Helvetica,sans-Serif" font-size="10.00">&lt; traj_t &gt;</text>
</a>
</g>
</g>
<!-- Node5&#45;&gt;Node10 -->
<g id="edge15_Node000010_Node000005" class="edge">
<title>Node5&#45;&gt;Node10</title>
<g id="a_edge15_Node000010_Node000005"><a xlink:title=" ">
<path fill="none" stroke="#9a32cd" stroke-dasharray="5,2" d="M615.21,-229.38C676.61,-234.37 757.7,-243.47 828,-259.69 848.34,-264.38 870.35,-271.88 888.26,-278.65"/>
<polygon fill="#9a32cd" stroke="#9a32cd" points="615.39,-225.88 605.15,-228.59 614.84,-232.86 615.39,-225.88"/>
</a>
</g>
<text text-anchor="start" x="698" y="-265.19" font-family="Helvetica,sans-Serif" font-size="10.00" fill="grey">surfaceAccessor</text>
</g>
<!-- Node6&#45;&gt;Node4 -->
<g id="edge6_Node000004_Node000006" class="edge">
<title>Node6&#45;&gt;Node4</title>
<g id="a_edge6_Node000004_Node000006"><a xlink:title=" ">
<path fill="none" stroke="#9a32cd" stroke-dasharray="5,2" d="M640.4,-354.95C779.57,-354.64 1014.98,-352.18 1217,-340.69 1222.84,-340.35 1228.86,-339.95 1234.92,-339.5"/>
<polygon fill="#9a32cd" stroke="#9a32cd" points="640.12,-351.45 630.13,-354.97 640.14,-358.45 640.12,-351.45"/>
</a>
</g>
<text text-anchor="start" x="903" y="-359.19" font-family="Helvetica,sans-Serif" font-size="10.00" fill="grey">calibrator</text>
</g>
<!-- Node6&#45;&gt;Node10 -->
<g id="edge16_Node000010_Node000006" class="edge">
<title>Node6&#45;&gt;Node10</title>
<g id="a_edge16_Node000010_Node000006"><a xlink:title=" ">
<path fill="none" stroke="#9a32cd" stroke-dasharray="5,2" d="M632.47,-326.58C637.71,-325.55 642.9,-324.57 648,-323.69 714.24,-312.16 790.21,-304.31 845.82,-299.53"/>
<polygon fill="#9a32cd" stroke="#9a32cd" points="631.46,-323.21 622.36,-328.64 632.85,-330.07 631.46,-323.21"/>
</a>
</g>
<text text-anchor="start" x="715" y="-329.19" font-family="Helvetica,sans-Serif" font-size="10.00" fill="grey">calibrator</text>
</g>
<!-- Node7&#45;&gt;Node4 -->
<g id="edge8_Node000004_Node000007" class="edge">
<title>Node7&#45;&gt;Node4</title>
<g id="a_edge8_Node000004_Node000007"><a xlink:title=" ">
<path fill="none" stroke="#9a32cd" stroke-dasharray="5,2" d="M619.03,-158.14C759.24,-152.95 1019.8,-158.31 1217,-249.69 1253.25,-266.48 1288.87,-297.27 1308.34,-315.67"/>
<polygon fill="#9a32cd" stroke="#9a32cd" points="618.59,-154.66 608.74,-158.55 618.87,-161.65 618.59,-154.66"/>
</a>
</g>
<text text-anchor="start" x="907" y="-190.19" font-family="Helvetica,sans-Serif" font-size="10.00" fill="grey">updater</text>
</g>
<!-- Node7&#45;&gt;Node10 -->
<g id="edge17_Node000010_Node000007" class="edge">
<title>Node7&#45;&gt;Node10</title>
<g id="a_edge17_Node000010_Node000007"><a xlink:title=" ">
<path fill="none" stroke="#9a32cd" stroke-dasharray="5,2" d="M619.07,-164.61C681.99,-168.23 763.34,-179.85 828,-212.69 838.09,-217.81 837.56,-223.15 846,-230.69 865.23,-247.87 888.42,-266.09 904.69,-278.49"/>
<polygon fill="#9a32cd" stroke="#9a32cd" points="618.9,-161.1 608.74,-164.08 618.54,-168.09 618.9,-161.1"/>
</a>
</g>
<text text-anchor="start" x="719" y="-218.19" font-family="Helvetica,sans-Serif" font-size="10.00" fill="grey">updater</text>
</g>
<!-- Node8&#45;&gt;Node4 -->
<g id="edge10_Node000004_Node000008" class="edge">
<title>Node8&#45;&gt;Node4</title>
<g id="a_edge10_Node000004_Node000008"><a xlink:title=" ">
<path fill="none" stroke="#9a32cd" stroke-dasharray="5,2" d="M598.44,-430.8C660.87,-430.24 750.17,-428.02 828,-420.69 1002.23,-404.27 1045.87,-396.29 1217,-359.69 1235.36,-355.76 1255.28,-350.59 1272.86,-345.7"/>
<polygon fill="#9a32cd" stroke="#9a32cd" points="598.24,-427.3 588.27,-430.88 598.3,-434.3 598.24,-427.3"/>
</a>
</g>
<text text-anchor="start" x="875" y="-439.69" font-family="Helvetica,sans-Serif" font-size="10.00" fill="grey">outlierFinder</text>
<text text-anchor="start" x="875" y="-424.69" font-family="Helvetica,sans-Serif" font-size="10.00" fill="grey">reverseFilteringLogic</text>
</g>
<!-- Node8&#45;&gt;Node10 -->
<g id="edge18_Node000010_Node000008" class="edge">
<title>Node8&#45;&gt;Node10</title>
<g id="a_edge18_Node000010_Node000008"><a xlink:title=" ">
<path fill="none" stroke="#9a32cd" stroke-dasharray="5,2" d="M572.28,-412.43C595.4,-404.7 622.92,-395.84 648,-388.69 727.2,-366.1 752.6,-377.81 828,-344.69 836.8,-340.82 837.67,-337.49 846,-332.69 860.84,-324.13 877.81,-315.59 892.22,-308.7"/>
<polygon fill="#9a32cd" stroke="#9a32cd" points="571.03,-409.16 562.67,-415.67 573.26,-415.79 571.03,-409.16"/>
</a>
</g>
<text text-anchor="start" x="687" y="-409.69" font-family="Helvetica,sans-Serif" font-size="10.00" fill="grey">outlierFinder</text>
<text text-anchor="start" x="687" y="-394.69" font-family="Helvetica,sans-Serif" font-size="10.00" fill="grey">reverseFilteringLogic</text>
</g>
<!-- Node9&#45;&gt;Node4 -->
<g id="edge12_Node000004_Node000009" class="edge">
<title>Node9&#45;&gt;Node4</title>
<g id="a_edge12_Node000004_Node000009"><a xlink:title=" ">
<path fill="none" stroke="#9a32cd" stroke-dasharray="5,2" d="M838.34,-497.89C939.36,-507.58 1097.6,-509.38 1217,-448.69 1263.5,-425.05 1299.39,-372 1314.99,-345.85"/>
<polygon fill="#9a32cd" stroke="#9a32cd" points="838.43,-494.38 828.13,-496.86 837.74,-501.34 838.43,-494.38"/>
</a>
</g>
<text text-anchor="start" x="903" y="-509.19" font-family="Helvetica,sans-Serif" font-size="10.00" fill="grey">smoother</text>
</g>
<!-- Node10&#45;&gt;Node4 -->
<g id="edge14_Node000004_Node000010" class="edge">
<title>Node10&#45;&gt;Node4</title>
<g id="a_edge14_Node000004_Node000010"><a xlink:title=" ">
<path fill="none" stroke="orange" stroke-dasharray="5,2" d="M1016.55,-302.04C1081.75,-308.13 1169.65,-316.33 1234.68,-322.4"/>
<polygon fill="orange" stroke="orange" points="1016.57,-298.53 1006.28,-301.09 1015.92,-305.5 1016.57,-298.53"/>
</a>
</g>
<text text-anchor="start" x="1039.5" y="-326.19" font-family="Helvetica,sans-Serif" font-size="10.00" fill="grey">&lt; TrackStateContainerBackend &gt;</text>
</g>
<!-- Node11&#45;&gt;Node10 -->
<g id="edge19_Node000010_Node000011" class="edge">
<title>Node11&#45;&gt;Node10</title>
<g id="a_edge19_Node000010_Node000011"><a xlink:title=" ">
<path fill="none" stroke="#9a32cd" stroke-dasharray="5,2" d="M618.97,-280.5C679.46,-279.8 758.23,-279.99 828,-283.69 833.83,-284 839.85,-284.4 845.91,-284.88"/>
<polygon fill="#9a32cd" stroke="#9a32cd" points="618.62,-277.01 608.67,-280.63 618.71,-284.01 618.62,-277.01"/>
</a>
</g>
<text text-anchor="start" x="715" y="-289.19" font-family="Helvetica,sans-Serif" font-size="10.00" fill="grey">smoother</text>
</g>
<!-- Node12&#45;&gt;Node1 -->
<g id="edge21_Node000001_Node000012" class="edge">
<title>Node12&#45;&gt;Node1</title>
<g id="a_edge21_Node000001_Node000012"><a xlink:title=" ">
<path fill="none" stroke="#9a32cd" stroke-dasharray="5,2" d="M1197.99,-98.71C1296.8,-160.74 1464.44,-265.99 1534.84,-310.18"/>
<polygon fill="#9a32cd" stroke="#9a32cd" points="1199.57,-95.57 1189.24,-93.21 1195.85,-101.49 1199.57,-95.57"/>
</a>
</g>
<text text-anchor="start" x="1270.5" y="-238.19" font-family="Helvetica,sans-Serif" font-size="10.00" fill="grey">measurementSelector</text>
</g>
</g>
</svg>

<g id="navigator" transform="translate(0 0)" fill="#404254">
  <rect fill="#f2f5e9" fill-opacity="0.5" stroke="#606060" stroke-width=".5" x="0" y="0" width="60" height="60"/>
  <use id="zoomplus" xlink:href="#zoomPlus" x="17" y="9" onmousedown="handleZoom(evt,'in')"/>
  <use id="zoomminus" xlink:href="#zoomMin" x="42" y="9" onmousedown="handleZoom(evt,'out')"/>
  <use id="reset" xlink:href="#resetDef" x="30" y="36" onmousedown="handleReset()"/>
   <use id="arrowup" xlink:href="#arrowUp" x="0" y="0" onmousedown="handlePan(0,-1)"/>
  <use id="arrowright" xlink:href="#arrowRight" x="0" y="0" onmousedown="handlePan(1,0)"/>
  <use id="arrowdown" xlink:href="#arrowDown" x="0" y="0" onmousedown="handlePan(0,1)"/>
  <use id="arrowleft" xlink:href="#arrowLeft" x="0" y="0" onmousedown="handlePan(-1,0)"/>
</g>
<svg viewBox="0 0 15 15" width="100%" height="30px" preserveAspectRatio="xMaxYMin meet">
 <g id="arrow_out" transform="scale(0.3 0.3)">
  <a xlink:href="struct_acts_1_1_track_state_creator__coll__graph_org.svg" target="_base">
   <rect id="button" ry="5" rx="5" y="6" x="6" height="38" width="38"
        fill="#f2f5e9" fill-opacity="0.5" stroke="#606060" stroke-width="1.0"/>
   <path id="arrow"
     d="M 11.500037,31.436501 C 11.940474,20.09759 22.043105,11.32322 32.158766,21.979434 L 37.068811,17.246167 C 37.068811,17.246167 37.088388,32 37.088388,32 L 22.160133,31.978069 C 22.160133,31.978069 26.997745,27.140456 26.997745,27.140456 C 18.528582,18.264221 13.291696,25.230495 11.500037,31.436501 z"
     style="fill:#404040;"/>
  </a>
 </g>
</svg>

<style type='text/css'>
<![CDATA[
[data-mouse-over-selected='false'] { opacity: 0.7; }
[data-mouse-over-selected='true']  { opacity: 1.0; }
]]>
</style>
<script type="application/ecmascript"><![CDATA[
document.addEventListener('DOMContentLoaded', (event) => {
  highlightEdges();
  highlightAdjacentNodes();
});
]]></script>
</svg>
