<?xml version="1.0" encoding="UTF-8" standalone="no"?>
<!DOCTYPE svg PUBLIC "-//W3C//DTD SVG 1.1//EN"
 "http://www.w3.org/Graphics/SVG/1.1/DTD/svg11.dtd">
<!-- Generated by graphviz version 2.43.0 (0)
 -->
<!-- Title: Acts::Experimental::BlueprintOptions Pages: 1 -->
<svg width="243pt" height="208pt"
 viewBox="0.00 0.00 243.00 208.00" xmlns="http://www.w3.org/2000/svg" xmlns:xlink="http://www.w3.org/1999/xlink">
<g id="graph0" class="graph" transform="scale(1 1) rotate(0) translate(4 204)">
<title>Acts::Experimental::BlueprintOptions</title>
<!-- Node1 -->
<g id="Node000001" class="node">
<title>Node1</title>
<g id="a_Node000001"><a xlink:title=" ">
<polygon fill="#999999" stroke="#666666" points="130.5,-30 21.5,-30 21.5,0 130.5,0 130.5,-30"/>
<text text-anchor="start" x="29.5" y="-18" font-family="Helvetica,sans-Serif" font-size="10.00">Acts::Experimental</text>
<text text-anchor="middle" x="76" y="-7" font-family="Helvetica,sans-Serif" font-size="10.00">::BlueprintOptions</text>
</a>
</g>
</g>
<!-- Node2 -->
<g id="Node000002" class="node">
<title>Node2</title>
<g id="a_Node000002"><a xlink:title=" ">
<polygon fill="white" stroke="#666666" points="152,-113 0,-113 0,-83 152,-83 152,-113"/>
<text text-anchor="start" x="8" y="-101" font-family="Helvetica,sans-Serif" font-size="10.00">std::shared_ptr&lt; Acts</text>
<text text-anchor="middle" x="76" y="-90" font-family="Helvetica,sans-Serif" font-size="10.00">::NavigationPolicyFactory &gt;</text>
</a>
</g>
</g>
<!-- Node2&#45;&gt;Node1 -->
<g id="edge1_Node000001_Node000002" class="edge">
<title>Node2&#45;&gt;Node1</title>
<g id="a_edge1_Node000001_Node000002"><a xlink:title=" ">
<path fill="none" stroke="#9a32cd" stroke-dasharray="5,2" d="M76,-72.59C76,-58.75 76,-41.91 76,-30.22"/>
<polygon fill="#9a32cd" stroke="#9a32cd" points="72.5,-72.89 76,-82.89 79.5,-72.89 72.5,-72.89"/>
</a>
</g>
<text text-anchor="start" x="79.5" y="-53.5" font-family="Helvetica,sans-Serif" font-size="10.00" fill="grey">defaultNavigationPolicyFactory</text>
</g>
<!-- Node3 -->
<g id="Node000003" class="node">
<title>Node3</title>
<g id="a_Node000003"><a xlink:title=" ">
<polygon fill="white" stroke="#666666" points="135,-200 17,-200 17,-181 135,-181 135,-200"/>
<text text-anchor="middle" x="76" y="-188" font-family="Helvetica,sans-Serif" font-size="10.00">std::shared_ptr&lt; T &gt;</text>
</a>
</g>
</g>
<!-- Node3&#45;&gt;Node2 -->
<g id="edge2_Node000002_Node000003" class="edge">
<title>Node3&#45;&gt;Node2</title>
<g id="a_edge2_Node000002_Node000003"><a xlink:title=" ">
<path fill="none" stroke="orange" stroke-dasharray="5,2" d="M76,-170.38C76,-153.24 76,-128.49 76,-113.09"/>
<polygon fill="orange" stroke="orange" points="72.5,-170.82 76,-180.82 79.5,-170.82 72.5,-170.82"/>
</a>
</g>
<text text-anchor="start" x="79.5" y="-152" font-family="Helvetica,sans-Serif" font-size="10.00" fill="grey">&lt; Acts::NavigationPolicy</text>
<text text-anchor="start" x="79.5" y="-137" font-family="Helvetica,sans-Serif" font-size="10.00" fill="grey">  Factory &gt;</text>
</g>
</g>
</svg>
