<?xml version="1.0" encoding="UTF-8" standalone="no"?>
<!DOCTYPE svg PUBLIC "-//W3C//DTD SVG 1.1//EN"
 "http://www.w3.org/Graphics/SVG/1.1/DTD/svg11.dtd">
<!-- Generated by graphviz version 2.43.0 (0)
 -->
<!-- Title: Acts::CombinatorialKalmanFilterResult&lt; track_container_t &gt; Pages: 1 -->
<svg width="500pt" height="197pt"
 viewBox="0.00 0.00 500.00 197.00" xmlns="http://www.w3.org/2000/svg" xmlns:xlink="http://www.w3.org/1999/xlink">

<svg id="main" version="1.1" xmlns="http://www.w3.org/2000/svg" xmlns:xlink="http://www.w3.org/1999/xlink" xml:space="preserve">

<style type="text/css"><![CDATA[
.node, .edge {opacity: 0.7;}
.node.selected, .edge.selected {opacity: 1;}
.edge:hover path { stroke: red; }
.edge:hover polygon { stroke: red; fill: red; }
]]></style>
<script type="application/ecmascript" xlink:href="svg.min.js"/>
<svg id="graph" class="graph">
<g id="graph0" class="graph" transform="scale(1 1) rotate(0) translate(4 193)">
<title>Acts::CombinatorialKalmanFilterResult&lt; track_container_t &gt;</title>
<!-- Node1 -->
<g id="Node000001" class="node">
<title>Node1</title>
<g id="a_Node000001"><a xlink:title=" ">
<polygon fill="#999999" stroke="#666666" points="336.5,-30 157.5,-30 157.5,0 336.5,0 336.5,-30"/>
<text text-anchor="start" x="165.5" y="-18" font-family="Helvetica,sans-Serif" font-size="10.00">Acts::CombinatorialKalman</text>
<text text-anchor="middle" x="247" y="-7" font-family="Helvetica,sans-Serif" font-size="10.00">FilterResult&lt; track_container_t &gt;</text>
</a>
</g>
</g>
<!-- Node2 -->
<g id="Node000002" class="node">
<title>Node2</title>
<g id="a_Node000002"><a xlink:title=" ">
<polygon fill="white" stroke="#666666" points="144,-117 0,-117 0,-98 144,-98 144,-117"/>
<text text-anchor="middle" x="72" y="-105" font-family="Helvetica,sans-Serif" font-size="10.00">std::vector&lt; TrackProxy &gt;</text>
</a>
</g>
</g>
<!-- Node2&#45;&gt;Node1 -->
<g id="edge1_Node000001_Node000002" class="edge">
<title>Node2&#45;&gt;Node1</title>
<g id="a_edge1_Node000001_Node000002"><a xlink:title=" ">
<path fill="none" stroke="#9a32cd" stroke-dasharray="5,2" d="M91.57,-91.78C109.1,-79.05 135.86,-60.74 161,-48 174.36,-41.23 189.5,-35.12 203.32,-30.1"/>
<polygon fill="#9a32cd" stroke="#9a32cd" points="89.28,-89.12 83.3,-97.87 93.43,-94.75 89.28,-89.12"/>
</a>
</g>
<text text-anchor="start" x="164" y="-69" font-family="Helvetica,sans-Serif" font-size="10.00" fill="grey">activeBranches</text>
<text text-anchor="start" x="164" y="-54" font-family="Helvetica,sans-Serif" font-size="10.00" fill="grey">collectedTracks</text>
</g>
<!-- Node3 -->
<g id="Node000003" class="node">
<title>Node3</title>
<g id="a_Node000003"><a xlink:title=" ">
<polygon fill="white" stroke="#666666" points="207.5,-189 110.5,-189 110.5,-170 207.5,-170 207.5,-189"/>
<text text-anchor="middle" x="159" y="-177" font-family="Helvetica,sans-Serif" font-size="10.00">std::vector&lt; T &gt;</text>
</a>
</g>
</g>
<!-- Node3&#45;&gt;Node2 -->
<g id="edge2_Node000002_Node000003" class="edge">
<title>Node3&#45;&gt;Node2</title>
<g id="a_edge2_Node000002_Node000003"><a xlink:title=" ">
<path fill="none" stroke="orange" stroke-dasharray="5,2" d="M139.74,-163.62C134.91,-159.85 129.75,-155.8 125,-152 110.13,-140.1 93.14,-126.09 82.49,-117.24"/>
<polygon fill="orange" stroke="orange" points="137.88,-166.61 147.92,-169.98 142.17,-161.08 137.88,-166.61"/>
</a>
</g>
<text text-anchor="start" x="128" y="-140.5" font-family="Helvetica,sans-Serif" font-size="10.00" fill="grey">&lt; TrackProxy &gt;</text>
</g>
<!-- Node4 -->
<g id="Node000004" class="node">
<title>Node4</title>
<g id="a_Node000004"><a xlink:title=" ">
<polygon fill="white" stroke="#666666" points="332,-117 162,-117 162,-98 332,-98 332,-117"/>
<text text-anchor="middle" x="247" y="-105" font-family="Helvetica,sans-Serif" font-size="10.00">std::vector&lt; TrackStateProxy &gt;</text>
</a>
</g>
</g>
<!-- Node3&#45;&gt;Node4 -->
<g id="edge4_Node000004_Node000003" class="edge">
<title>Node3&#45;&gt;Node4</title>
<g id="a_edge4_Node000004_Node000003"><a xlink:title=" ">
<path fill="none" stroke="orange" stroke-dasharray="5,2" d="M186.75,-165.17C193.64,-161.33 200.82,-156.85 207,-152 220.23,-141.61 232.93,-126.68 240.34,-117.29"/>
<polygon fill="orange" stroke="orange" points="184.85,-162.21 177.64,-169.98 188.12,-168.4 184.85,-162.21"/>
</a>
</g>
<text text-anchor="start" x="227" y="-140.5" font-family="Helvetica,sans-Serif" font-size="10.00" fill="grey">&lt; TrackStateProxy &gt;</text>
</g>
<!-- Node4&#45;&gt;Node1 -->
<g id="edge3_Node000001_Node000004" class="edge">
<title>Node4&#45;&gt;Node1</title>
<g id="a_edge3_Node000001_Node000004"><a xlink:title=" ">
<path fill="none" stroke="#9a32cd" stroke-dasharray="5,2" d="M247,-87.38C247,-70.24 247,-45.49 247,-30.09"/>
<polygon fill="#9a32cd" stroke="#9a32cd" points="243.5,-87.82 247,-97.82 250.5,-87.82 243.5,-87.82"/>
</a>
</g>
<text text-anchor="start" x="250" y="-61" font-family="Helvetica,sans-Serif" font-size="10.00" fill="grey">trackStateCandidates</text>
</g>
<!-- Node5 -->
<g id="Node000005" class="node">
<title>Node5</title>
<g id="a_Node000005"><a xlink:href="struct_acts_1_1_path_limit_reached.html" target="_top" xlink:title="This is the condition that the pathLimit has been reached.">
<polygon fill="white" stroke="#666666" points="481.5,-117 350.5,-117 350.5,-98 481.5,-98 481.5,-117"/>
<text text-anchor="middle" x="416" y="-105" font-family="Helvetica,sans-Serif" font-size="10.00">Acts::PathLimitReached</text>
</a>
</g>
</g>
<!-- Node5&#45;&gt;Node1 -->
<g id="edge5_Node000001_Node000005" class="edge">
<title>Node5&#45;&gt;Node1</title>
<g id="a_edge5_Node000001_Node000005"><a xlink:title=" ">
<path fill="none" stroke="#9a32cd" stroke-dasharray="5,2" d="M404.86,-89.69C395.26,-76.5 380.26,-58.63 363,-48 350.64,-40.39 336.44,-34.55 322.31,-30.08"/>
<polygon fill="#9a32cd" stroke="#9a32cd" points="402.01,-91.73 410.6,-97.94 407.76,-87.73 402.01,-91.73"/>
</a>
</g>
<text text-anchor="start" x="400.5" y="-61" font-family="Helvetica,sans-Serif" font-size="10.00" fill="grey">pathLimitReached</text>
</g>
</g>
</svg>
</svg>

<style type='text/css'>
<![CDATA[
[data-mouse-over-selected='false'] { opacity: 0.7; }
[data-mouse-over-selected='true']  { opacity: 1.0; }
]]>
</style>
<script type="application/ecmascript"><![CDATA[
document.addEventListener('DOMContentLoaded', (event) => {
  highlightEdges();
  highlightAdjacentNodes();
});
]]></script>
</svg>
