<?xml version="1.0" encoding="UTF-8" standalone="no"?>
<!DOCTYPE svg PUBLIC "-//W3C//DTD SVG 1.1//EN"
 "http://www.w3.org/Graphics/SVG/1.1/DTD/svg11.dtd">
<!-- Generated by graphviz version 2.43.0 (0)
 -->
<!-- Title: ActsFatras::Channel&lt; signal_t, kSize &gt; Pages: 1 -->
<svg width="306pt" height="193pt"
 viewBox="0.00 0.00 305.50 193.00" xmlns="http://www.w3.org/2000/svg" xmlns:xlink="http://www.w3.org/1999/xlink">
<g id="graph0" class="graph" transform="scale(1 1) rotate(0) translate(4 189)">
<title>ActsFatras::Channel&lt; signal_t, kSize &gt;</title>
<!-- Node1 -->
<g id="Node000001" class="node">
<title>Node1</title>
<g id="a_Node000001"><a xlink:title="A channel definition: Cell identification, readout word, links.">
<polygon fill="#999999" stroke="#666666" points="195,-30 82,-30 82,0 195,0 195,-30"/>
<text text-anchor="start" x="90" y="-18" font-family="Helvetica,sans-Serif" font-size="10.00">ActsFatras::Channel</text>
<text text-anchor="middle" x="138.5" y="-7" font-family="Helvetica,sans-Serif" font-size="10.00">&lt; signal_t, kSize &gt;</text>
</a>
</g>
</g>
<!-- Node2 -->
<g id="Node000002" class="node">
<title>Node2</title>
<g id="a_Node000002"><a xlink:title=" ">
<polygon fill="white" stroke="#666666" points="137,-107.5 0,-107.5 0,-88.5 137,-88.5 137,-107.5"/>
<text text-anchor="middle" x="68.5" y="-95.5" font-family="Helvetica,sans-Serif" font-size="10.00">std::array&lt; Cell, kSize &gt;</text>
</a>
</g>
</g>
<!-- Node2&#45;&gt;Node1 -->
<g id="edge1_Node000001_Node000002" class="edge">
<title>Node2&#45;&gt;Node1</title>
<g id="a_edge1_Node000001_Node000002"><a xlink:title=" ">
<path fill="none" stroke="#9a32cd" stroke-dasharray="5,2" d="M82.79,-80.47C95.62,-65.61 114.27,-44.04 126.39,-30.01"/>
<polygon fill="#9a32cd" stroke="#9a32cd" points="79.88,-78.48 75.99,-88.33 85.18,-83.05 79.88,-78.48"/>
</a>
</g>
<text text-anchor="start" x="114" y="-53.5" font-family="Helvetica,sans-Serif" font-size="10.00" fill="grey">cellId</text>
</g>
<!-- Node3 -->
<g id="Node000003" class="node">
<title>Node3</title>
<g id="a_Node000003"><a xlink:title=" ">
<polygon fill="white" stroke="#666666" points="114.5,-185 22.5,-185 22.5,-166 114.5,-166 114.5,-185"/>
<text text-anchor="middle" x="68.5" y="-173" font-family="Helvetica,sans-Serif" font-size="10.00">std::array&lt; T &gt;</text>
</a>
</g>
</g>
<!-- Node3&#45;&gt;Node2 -->
<g id="edge2_Node000002_Node000003" class="edge">
<title>Node3&#45;&gt;Node2</title>
<g id="a_edge2_Node000002_Node000003"><a xlink:title=" ">
<path fill="none" stroke="orange" stroke-dasharray="5,2" d="M68.5,-155.4C68.5,-140.01 68.5,-119.11 68.5,-107.56"/>
<polygon fill="orange" stroke="orange" points="65,-155.84 68.5,-165.84 72,-155.84 65,-155.84"/>
</a>
</g>
<text text-anchor="start" x="71.5" y="-136.5" font-family="Helvetica,sans-Serif" font-size="10.00" fill="grey">&lt; Cell, kSize &gt;</text>
</g>
<!-- Node4 -->
<g id="Node000004" class="node">
<title>Node4</title>
<g id="a_Node000004"><a xlink:title=" ">
<polygon fill="white" stroke="#666666" points="262,-113 155,-113 155,-83 262,-83 262,-113"/>
<text text-anchor="start" x="163" y="-101" font-family="Helvetica,sans-Serif" font-size="10.00">std::unordered_set</text>
<text text-anchor="middle" x="208.5" y="-90" font-family="Helvetica,sans-Serif" font-size="10.00">&lt; unsigned int &gt;</text>
</a>
</g>
</g>
<!-- Node4&#45;&gt;Node1 -->
<g id="edge3_Node000001_Node000004" class="edge">
<title>Node4&#45;&gt;Node1</title>
<g id="a_edge3_Node000001_Node000004"><a xlink:title=" ">
<path fill="none" stroke="#9a32cd" stroke-dasharray="5,2" d="M189.51,-75.02C177.19,-60.76 161.49,-42.61 150.79,-30.22"/>
<polygon fill="#9a32cd" stroke="#9a32cd" points="187.12,-77.61 196.31,-82.89 192.42,-73.04 187.12,-77.61"/>
</a>
</g>
<text text-anchor="start" x="183.5" y="-53.5" font-family="Helvetica,sans-Serif" font-size="10.00" fill="grey">links</text>
</g>
<!-- Node5 -->
<g id="Node000005" class="node">
<title>Node5</title>
<g id="a_Node000005"><a xlink:title=" ">
<polygon fill="white" stroke="#666666" points="277,-185 140,-185 140,-166 277,-166 277,-185"/>
<text text-anchor="middle" x="208.5" y="-173" font-family="Helvetica,sans-Serif" font-size="10.00">std::unordered_set&lt; K &gt;</text>
</a>
</g>
</g>
<!-- Node5&#45;&gt;Node4 -->
<g id="edge4_Node000004_Node000005" class="edge">
<title>Node5&#45;&gt;Node4</title>
<g id="a_edge4_Node000004_Node000005"><a xlink:title=" ">
<path fill="none" stroke="orange" stroke-dasharray="5,2" d="M208.5,-155.57C208.5,-142.43 208.5,-125.18 208.5,-113.21"/>
<polygon fill="orange" stroke="orange" points="205,-155.84 208.5,-165.84 212,-155.84 205,-155.84"/>
</a>
</g>
<text text-anchor="start" x="212" y="-136.5" font-family="Helvetica,sans-Serif" font-size="10.00" fill="grey">&lt; unsigned int &gt;</text>
</g>
</g>
</svg>
