<?xml version="1.0" encoding="UTF-8" standalone="no"?>
<!DOCTYPE svg PUBLIC "-//W3C//DTD SVG 1.1//EN"
 "http://www.w3.org/Graphics/SVG/1.1/DTD/svg11.dtd">
<!-- Generated by graphviz version 2.43.0 (0)
 -->
<!-- Title: Acts::GridAxisGenerators::EqEq&lt; aType, bType &gt; Pages: 1 -->
<svg width="483pt" height="655pt"
 viewBox="0.00 0.00 483.00 655.00" xmlns="http://www.w3.org/2000/svg" xmlns:xlink="http://www.w3.org/1999/xlink">
<g id="graph0" class="graph" transform="scale(1 1) rotate(0) translate(4 651)">
<title>Acts::GridAxisGenerators::EqEq&lt; aType, bType &gt;</title>
<!-- Node1 -->
<g id="Node000001" class="node">
<title>Node1</title>
<g id="a_Node000001"><a xlink:title="Templated base generator for two equidistant axes as a tuple &#45; 2D.">
<polygon fill="#999999" stroke="#666666" points="139,-321 0,-321 0,-291 139,-291 139,-321"/>
<text text-anchor="start" x="8" y="-309" font-family="Helvetica,sans-Serif" font-size="10.00">Acts::GridAxisGenerators</text>
<text text-anchor="middle" x="69.5" y="-298" font-family="Helvetica,sans-Serif" font-size="10.00">::EqEq&lt; aType, bType &gt;</text>
</a>
</g>
</g>
<!-- Node2 -->
<g id="Node000002" class="node">
<title>Node2</title>
<g id="a_Node000002"><a xlink:href="struct_acts_1_1_grid_axis_generators_1_1_eq_eq.html" target="_top" xlink:title=" ">
<polygon fill="white" stroke="#666666" points="473.5,-612 324.5,-612 324.5,-560 473.5,-560 473.5,-612"/>
<text text-anchor="start" x="332.5" y="-600" font-family="Helvetica,sans-Serif" font-size="10.00">Acts::GridAxisGenerators</text>
<text text-anchor="start" x="332.5" y="-589" font-family="Helvetica,sans-Serif" font-size="10.00">::EqEq&lt; AxisBoundaryType</text>
<text text-anchor="start" x="332.5" y="-578" font-family="Helvetica,sans-Serif" font-size="10.00">::Bound, AxisBoundaryType</text>
<text text-anchor="middle" x="399" y="-567" font-family="Helvetica,sans-Serif" font-size="10.00">::Bound &gt;</text>
</a>
</g>
</g>
<!-- Node1&#45;&gt;Node2 -->
<g id="edge1_Node000001_Node000002" class="edge">
<title>Node1&#45;&gt;Node2</title>
<g id="a_edge1_Node000001_Node000002"><a xlink:title=" ">
<path fill="none" stroke="orange" stroke-dasharray="5,2" d="M70.52,-331.23C72.08,-384.04 83.84,-506.13 157,-564 203.63,-600.88 272.34,-603.71 324.48,-598.87"/>
<polygon fill="orange" stroke="orange" points="74.02,-330.99 70.33,-321.06 67.02,-331.12 74.02,-330.99"/>
</a>
</g>
<text text-anchor="start" x="162" y="-635.5" font-family="Helvetica,sans-Serif" font-size="10.00" fill="grey">&lt; AxisBoundaryType</text>
<text text-anchor="start" x="162" y="-620.5" font-family="Helvetica,sans-Serif" font-size="10.00" fill="grey">  ::Bound, AxisBoundaryType</text>
<text text-anchor="start" x="162" y="-605.5" font-family="Helvetica,sans-Serif" font-size="10.00" fill="grey">  ::Bound &gt;</text>
</g>
<!-- Node3 -->
<g id="Node000003" class="node">
<title>Node3</title>
<g id="a_Node000003"><a xlink:href="struct_acts_1_1_grid_axis_generators_1_1_eq_eq.html" target="_top" xlink:title=" ">
<polygon fill="white" stroke="#666666" points="473.5,-542 324.5,-542 324.5,-490 473.5,-490 473.5,-542"/>
<text text-anchor="start" x="332.5" y="-530" font-family="Helvetica,sans-Serif" font-size="10.00">Acts::GridAxisGenerators</text>
<text text-anchor="start" x="332.5" y="-519" font-family="Helvetica,sans-Serif" font-size="10.00">::EqEq&lt; AxisBoundaryType</text>
<text text-anchor="start" x="332.5" y="-508" font-family="Helvetica,sans-Serif" font-size="10.00">::Bound, AxisBoundaryType</text>
<text text-anchor="middle" x="399" y="-497" font-family="Helvetica,sans-Serif" font-size="10.00">::Open &gt;</text>
</a>
</g>
</g>
<!-- Node1&#45;&gt;Node3 -->
<g id="edge2_Node000001_Node000003" class="edge">
<title>Node1&#45;&gt;Node3</title>
<g id="a_edge2_Node000001_Node000003"><a xlink:title=" ">
<path fill="none" stroke="orange" stroke-dasharray="5,2" d="M74.03,-331.29C81.31,-372.95 102.19,-455.26 157,-494 183.12,-512.46 263.41,-516.74 324.2,-517.19"/>
<polygon fill="orange" stroke="orange" points="77.44,-330.46 72.39,-321.15 70.53,-331.58 77.44,-330.46"/>
</a>
</g>
<text text-anchor="start" x="162" y="-551.5" font-family="Helvetica,sans-Serif" font-size="10.00" fill="grey">&lt; AxisBoundaryType</text>
<text text-anchor="start" x="162" y="-536.5" font-family="Helvetica,sans-Serif" font-size="10.00" fill="grey">  ::Bound, AxisBoundaryType</text>
<text text-anchor="start" x="162" y="-521.5" font-family="Helvetica,sans-Serif" font-size="10.00" fill="grey">  ::Open &gt;</text>
</g>
<!-- Node4 -->
<g id="Node000004" class="node">
<title>Node4</title>
<g id="a_Node000004"><a xlink:href="struct_acts_1_1_grid_axis_generators_1_1_eq_eq.html" target="_top" xlink:title=" ">
<polygon fill="white" stroke="#666666" points="473.5,-472 324.5,-472 324.5,-420 473.5,-420 473.5,-472"/>
<text text-anchor="start" x="332.5" y="-460" font-family="Helvetica,sans-Serif" font-size="10.00">Acts::GridAxisGenerators</text>
<text text-anchor="start" x="332.5" y="-449" font-family="Helvetica,sans-Serif" font-size="10.00">::EqEq&lt; AxisBoundaryType</text>
<text text-anchor="start" x="332.5" y="-438" font-family="Helvetica,sans-Serif" font-size="10.00">::Bound, AxisBoundaryType</text>
<text text-anchor="middle" x="399" y="-427" font-family="Helvetica,sans-Serif" font-size="10.00">::Closed &gt;</text>
</a>
</g>
</g>
<!-- Node1&#45;&gt;Node4 -->
<g id="edge3_Node000001_Node000004" class="edge">
<title>Node1&#45;&gt;Node4</title>
<g id="a_edge3_Node000001_Node000004"><a xlink:title=" ">
<path fill="none" stroke="orange" stroke-dasharray="5,2" d="M80.72,-330.27C93.88,-358.18 119.62,-402.86 157,-424 184.75,-439.69 264.28,-444.51 324.46,-445.83"/>
<polygon fill="orange" stroke="orange" points="83.91,-328.82 76.59,-321.16 77.53,-331.71 83.91,-328.82"/>
</a>
</g>
<text text-anchor="start" x="162" y="-480.5" font-family="Helvetica,sans-Serif" font-size="10.00" fill="grey">&lt; AxisBoundaryType</text>
<text text-anchor="start" x="162" y="-465.5" font-family="Helvetica,sans-Serif" font-size="10.00" fill="grey">  ::Bound, AxisBoundaryType</text>
<text text-anchor="start" x="162" y="-450.5" font-family="Helvetica,sans-Serif" font-size="10.00" fill="grey">  ::Closed &gt;</text>
</g>
<!-- Node5 -->
<g id="Node000005" class="node">
<title>Node5</title>
<g id="a_Node000005"><a xlink:href="struct_acts_1_1_grid_axis_generators_1_1_eq_eq.html" target="_top" xlink:title=" ">
<polygon fill="white" stroke="#666666" points="473,-402 325,-402 325,-350 473,-350 473,-402"/>
<text text-anchor="start" x="333" y="-390" font-family="Helvetica,sans-Serif" font-size="10.00">Acts::GridAxisGenerators</text>
<text text-anchor="start" x="333" y="-379" font-family="Helvetica,sans-Serif" font-size="10.00">::EqEq&lt; AxisBoundaryType</text>
<text text-anchor="start" x="333" y="-368" font-family="Helvetica,sans-Serif" font-size="10.00">::Open, AxisBoundaryType</text>
<text text-anchor="middle" x="399" y="-357" font-family="Helvetica,sans-Serif" font-size="10.00">::Bound &gt;</text>
</a>
</g>
</g>
<!-- Node1&#45;&gt;Node5 -->
<g id="edge4_Node000001_Node000005" class="edge">
<title>Node1&#45;&gt;Node5</title>
<g id="a_edge4_Node000001_Node000005"><a xlink:title=" ">
<path fill="none" stroke="orange" stroke-dasharray="5,2" d="M100.19,-326.53C116.28,-336.58 136.92,-347.81 157,-354 211.61,-370.82 276.21,-375.98 324.78,-377.12"/>
<polygon fill="orange" stroke="orange" points="102.07,-323.57 91.76,-321.11 98.28,-329.46 102.07,-323.57"/>
</a>
</g>
<text text-anchor="start" x="164" y="-411.5" font-family="Helvetica,sans-Serif" font-size="10.00" fill="grey">&lt; AxisBoundaryType</text>
<text text-anchor="start" x="164" y="-396.5" font-family="Helvetica,sans-Serif" font-size="10.00" fill="grey">  ::Open, AxisBoundaryType</text>
<text text-anchor="start" x="164" y="-381.5" font-family="Helvetica,sans-Serif" font-size="10.00" fill="grey">  ::Bound &gt;</text>
</g>
<!-- Node6 -->
<g id="Node000006" class="node">
<title>Node6</title>
<g id="a_Node000006"><a xlink:href="struct_acts_1_1_grid_axis_generators_1_1_eq_eq.html" target="_top" xlink:title=" ">
<polygon fill="white" stroke="#666666" points="473,-332 325,-332 325,-280 473,-280 473,-332"/>
<text text-anchor="start" x="333" y="-320" font-family="Helvetica,sans-Serif" font-size="10.00">Acts::GridAxisGenerators</text>
<text text-anchor="start" x="333" y="-309" font-family="Helvetica,sans-Serif" font-size="10.00">::EqEq&lt; AxisBoundaryType</text>
<text text-anchor="start" x="333" y="-298" font-family="Helvetica,sans-Serif" font-size="10.00">::Open, AxisBoundaryType</text>
<text text-anchor="middle" x="399" y="-287" font-family="Helvetica,sans-Serif" font-size="10.00">::Open &gt;</text>
</a>
</g>
</g>
<!-- Node1&#45;&gt;Node6 -->
<g id="edge5_Node000001_Node000006" class="edge">
<title>Node1&#45;&gt;Node6</title>
<g id="a_edge5_Node000001_Node000006"><a xlink:title=" ">
<path fill="none" stroke="orange" stroke-dasharray="5,2" d="M149.26,-306C202.66,-306 272.73,-306 324.89,-306"/>
<polygon fill="orange" stroke="orange" points="149.15,-302.5 139.15,-306 149.15,-309.5 149.15,-302.5"/>
</a>
</g>
<text text-anchor="start" x="164" y="-341.5" font-family="Helvetica,sans-Serif" font-size="10.00" fill="grey">&lt; AxisBoundaryType</text>
<text text-anchor="start" x="164" y="-326.5" font-family="Helvetica,sans-Serif" font-size="10.00" fill="grey">  ::Open, AxisBoundaryType</text>
<text text-anchor="start" x="164" y="-311.5" font-family="Helvetica,sans-Serif" font-size="10.00" fill="grey">  ::Open &gt;</text>
</g>
<!-- Node7 -->
<g id="Node000007" class="node">
<title>Node7</title>
<g id="a_Node000007"><a xlink:href="struct_acts_1_1_grid_axis_generators_1_1_eq_eq.html" target="_top" xlink:title=" ">
<polygon fill="white" stroke="#666666" points="473,-262 325,-262 325,-210 473,-210 473,-262"/>
<text text-anchor="start" x="333" y="-250" font-family="Helvetica,sans-Serif" font-size="10.00">Acts::GridAxisGenerators</text>
<text text-anchor="start" x="333" y="-239" font-family="Helvetica,sans-Serif" font-size="10.00">::EqEq&lt; AxisBoundaryType</text>
<text text-anchor="start" x="333" y="-228" font-family="Helvetica,sans-Serif" font-size="10.00">::Open, AxisBoundaryType</text>
<text text-anchor="middle" x="399" y="-217" font-family="Helvetica,sans-Serif" font-size="10.00">::Closed &gt;</text>
</a>
</g>
</g>
<!-- Node1&#45;&gt;Node7 -->
<g id="edge6_Node000001_Node000007" class="edge">
<title>Node1&#45;&gt;Node7</title>
<g id="a_edge6_Node000001_Node000007"><a xlink:title=" ">
<path fill="none" stroke="orange" stroke-dasharray="5,2" d="M98.67,-284.94C114.87,-274.01 136.1,-261.6 157,-255 211.53,-237.79 276.29,-233.52 324.93,-233.29"/>
<polygon fill="orange" stroke="orange" points="96.43,-282.23 90.22,-290.82 100.43,-287.98 96.43,-282.23"/>
</a>
</g>
<text text-anchor="start" x="164" y="-290.5" font-family="Helvetica,sans-Serif" font-size="10.00" fill="grey">&lt; AxisBoundaryType</text>
<text text-anchor="start" x="164" y="-275.5" font-family="Helvetica,sans-Serif" font-size="10.00" fill="grey">  ::Open, AxisBoundaryType</text>
<text text-anchor="start" x="164" y="-260.5" font-family="Helvetica,sans-Serif" font-size="10.00" fill="grey">  ::Closed &gt;</text>
</g>
<!-- Node8 -->
<g id="Node000008" class="node">
<title>Node8</title>
<g id="a_Node000008"><a xlink:href="struct_acts_1_1_grid_axis_generators_1_1_eq_eq.html" target="_top" xlink:title=" ">
<polygon fill="white" stroke="#666666" points="475,-192 323,-192 323,-140 475,-140 475,-192"/>
<text text-anchor="start" x="331" y="-180" font-family="Helvetica,sans-Serif" font-size="10.00">Acts::GridAxisGenerators</text>
<text text-anchor="start" x="331" y="-169" font-family="Helvetica,sans-Serif" font-size="10.00">::EqEq&lt; AxisBoundaryType</text>
<text text-anchor="start" x="331" y="-158" font-family="Helvetica,sans-Serif" font-size="10.00">::Closed, AxisBoundaryType</text>
<text text-anchor="middle" x="399" y="-147" font-family="Helvetica,sans-Serif" font-size="10.00">::Bound &gt;</text>
</a>
</g>
</g>
<!-- Node1&#45;&gt;Node8 -->
<g id="edge7_Node000001_Node000008" class="edge">
<title>Node1&#45;&gt;Node8</title>
<g id="a_edge7_Node000001_Node000008"><a xlink:title=" ">
<path fill="none" stroke="orange" stroke-dasharray="5,2" d="M79.88,-281.29C92.49,-251.9 117.95,-204.05 157,-182 207.12,-153.7 272.77,-151.15 322.89,-154.87"/>
<polygon fill="orange" stroke="orange" points="76.52,-280.26 75.95,-290.84 82.99,-282.93 76.52,-280.26"/>
</a>
</g>
<text text-anchor="start" x="160" y="-217.5" font-family="Helvetica,sans-Serif" font-size="10.00" fill="grey">&lt; AxisBoundaryType</text>
<text text-anchor="start" x="160" y="-202.5" font-family="Helvetica,sans-Serif" font-size="10.00" fill="grey">  ::Closed, AxisBoundaryType</text>
<text text-anchor="start" x="160" y="-187.5" font-family="Helvetica,sans-Serif" font-size="10.00" fill="grey">  ::Bound &gt;</text>
</g>
<!-- Node9 -->
<g id="Node000009" class="node">
<title>Node9</title>
<g id="a_Node000009"><a xlink:href="struct_acts_1_1_grid_axis_generators_1_1_eq_eq.html" target="_top" xlink:title=" ">
<polygon fill="white" stroke="#666666" points="475,-122 323,-122 323,-70 475,-70 475,-122"/>
<text text-anchor="start" x="331" y="-110" font-family="Helvetica,sans-Serif" font-size="10.00">Acts::GridAxisGenerators</text>
<text text-anchor="start" x="331" y="-99" font-family="Helvetica,sans-Serif" font-size="10.00">::EqEq&lt; AxisBoundaryType</text>
<text text-anchor="start" x="331" y="-88" font-family="Helvetica,sans-Serif" font-size="10.00">::Closed, AxisBoundaryType</text>
<text text-anchor="middle" x="399" y="-77" font-family="Helvetica,sans-Serif" font-size="10.00">::Open &gt;</text>
</a>
</g>
</g>
<!-- Node1&#45;&gt;Node9 -->
<g id="edge8_Node000001_Node000009" class="edge">
<title>Node1&#45;&gt;Node9</title>
<g id="a_edge8_Node000001_Node000009"><a xlink:title=" ">
<path fill="none" stroke="orange" stroke-dasharray="5,2" d="M72.71,-280.73C78.13,-235.87 96.47,-143.18 157,-102 183.13,-84.23 262.28,-85.33 322.82,-89.23"/>
<polygon fill="orange" stroke="orange" points="69.21,-280.47 71.61,-290.79 76.17,-281.23 69.21,-280.47"/>
</a>
</g>
<text text-anchor="start" x="160" y="-137.5" font-family="Helvetica,sans-Serif" font-size="10.00" fill="grey">&lt; AxisBoundaryType</text>
<text text-anchor="start" x="160" y="-122.5" font-family="Helvetica,sans-Serif" font-size="10.00" fill="grey">  ::Closed, AxisBoundaryType</text>
<text text-anchor="start" x="160" y="-107.5" font-family="Helvetica,sans-Serif" font-size="10.00" fill="grey">  ::Open &gt;</text>
</g>
<!-- Node10 -->
<g id="Node000010" class="node">
<title>Node10</title>
<g id="a_Node000010"><a xlink:href="struct_acts_1_1_grid_axis_generators_1_1_eq_eq.html" target="_top" xlink:title=" ">
<polygon fill="white" stroke="#666666" points="475,-52 323,-52 323,0 475,0 475,-52"/>
<text text-anchor="start" x="331" y="-40" font-family="Helvetica,sans-Serif" font-size="10.00">Acts::GridAxisGenerators</text>
<text text-anchor="start" x="331" y="-29" font-family="Helvetica,sans-Serif" font-size="10.00">::EqEq&lt; AxisBoundaryType</text>
<text text-anchor="start" x="331" y="-18" font-family="Helvetica,sans-Serif" font-size="10.00">::Closed, AxisBoundaryType</text>
<text text-anchor="middle" x="399" y="-7" font-family="Helvetica,sans-Serif" font-size="10.00">::Closed &gt;</text>
</a>
</g>
</g>
<!-- Node1&#45;&gt;Node10 -->
<g id="edge9_Node000001_Node000010" class="edge">
<title>Node1&#45;&gt;Node10</title>
<g id="a_edge9_Node000001_Node000010"><a xlink:title=" ">
<path fill="none" stroke="orange" stroke-dasharray="5,2" d="M69.82,-280.35C69.9,-224.97 78.81,-94.39 157,-35 203.6,0.39 271.14,-0.18 322.87,-7.99"/>
<polygon fill="orange" stroke="orange" points="66.32,-280.71 69.9,-290.68 73.32,-280.65 66.32,-280.71"/>
</a>
</g>
<text text-anchor="start" x="160" y="-70.5" font-family="Helvetica,sans-Serif" font-size="10.00" fill="grey">&lt; AxisBoundaryType</text>
<text text-anchor="start" x="160" y="-55.5" font-family="Helvetica,sans-Serif" font-size="10.00" fill="grey">  ::Closed, AxisBoundaryType</text>
<text text-anchor="start" x="160" y="-40.5" font-family="Helvetica,sans-Serif" font-size="10.00" fill="grey">  ::Closed &gt;</text>
</g>
</g>
</svg>
