<?xml version="1.0" encoding="UTF-8" standalone="no"?>
<!DOCTYPE svg PUBLIC "-//W3C//DTD SVG 1.1//EN"
 "http://www.w3.org/Graphics/SVG/1.1/DTD/svg11.dtd">
<!-- Generated by graphviz version 2.43.0 (0)
 -->
<!-- Title: ActsPlugins::DD4hepDetectorSurfaceFactory::Cache Pages: 1 -->
<!--zoomable 194 -->

<svg id="main" version="1.1" xmlns="http://www.w3.org/2000/svg" xmlns:xlink="http://www.w3.org/1999/xlink" xml:space="preserve" onload="init(evt)">

<style type="text/css"><![CDATA[
.node, .edge {opacity: 0.7;}
.node.selected, .edge.selected {opacity: 1;}
.edge:hover path { stroke: red; }
.edge:hover polygon { stroke: red; fill: red; }
]]></style>

<defs>
  <circle id="rim" cx="0" cy="0" r="7"/>
  <circle id="rim2" cx="0" cy="0" r="3.5"/>
  <g id="zoomPlus">
    <use xlink:href="#rim" fill="#404040"><set attributeName="fill" to="#808080" begin="zoomplus.mouseover" end="zoomplus.mouseout"/></use>
    <path d="M-4,0h8M0,-4v8" fill="none" stroke="white" stroke-width="1.5" pointer-events="none"/>
  </g>
  <g id="zoomMin">
    <use xlink:href="#rim" fill="#404040"><set attributeName="fill" to="#808080" begin="zoomminus.mouseover" end="zoomminus.mouseout"/></use>
    <path d="M-4,0h8" fill="none" stroke="white" stroke-width="1.5" pointer-events="none"/>
  </g>
  <g id="arrowUp" transform="translate(30 24)">
    <use xlink:href="#rim"/>
    <path pointer-events="none" fill="none" stroke="white" stroke-width="1.5" d="M0,-3.0v7 M-2.5,-0.5L0,-3.0L2.5,-0.5"/>
  </g>
  <g id="arrowRight" transform="rotate(90) translate(36 -43)">
    <use xlink:href="#rim"/>
    <path pointer-events="none" fill="none" stroke="white" stroke-width="1.5" d="M0,-3.0v7 M-2.5,-0.5L0,-3.0L2.5,-0.5"/>
  </g>
  <g id="arrowDown" transform="rotate(180) translate(-30 -48)">
    <use xlink:href="#rim"/>
    <path pointer-events="none" fill="none" stroke="white" stroke-width="1.5" d="M0,-3.0v7 M-2.5,-0.5L0,-3.0L2.5,-0.5"/>
  </g>
  <g id="arrowLeft" transform="rotate(270) translate(-36 17)">
    <use xlink:href="#rim"/>
    <path pointer-events="none" fill="none" stroke="white" stroke-width="1.5" d="M0,-3.0v7 M-2.5,-0.5L0,-3.0L2.5,-0.5"/>
  </g>
  <g id="resetDef">
    <use xlink:href="#rim2" fill="#404040"><set attributeName="fill" to="#808080" begin="reset.mouseover" end="reset.mouseout"/></use>
  </g>
</defs>
<script type="application/ecmascript">
var viewWidth = 745;
var viewHeight = 194;
var sectionId = 'dynsection-0';
</script>
<script type="application/ecmascript" xlink:href="svg.min.js"/>
<svg id="graph" class="graph">
<g id="viewport">
<title>ActsPlugins::DD4hepDetectorSurfaceFactory::Cache</title>
<!-- Node1 -->
<g id="Node000001" class="node">
<title>Node1</title>
<g id="a_Node000001"><a xlink:title="Nested cache that records the conversion status.">
<polygon fill="#999999" stroke="#666666" points="737,-110 577,-110 577,-80 737,-80 737,-110"/>
<text text-anchor="start" x="585" y="-98" font-family="Helvetica,sans-Serif" font-size="10.00">ActsPlugins::DD4hepDetector</text>
<text text-anchor="middle" x="657" y="-87" font-family="Helvetica,sans-Serif" font-size="10.00">SurfaceFactory::Cache</text>
</a>
</g>
</g>
<!-- Node2 -->
<g id="Node000002" class="node">
<title>Node2</title>
<g id="a_Node000002"><a xlink:title=" ">
<polygon fill="white" stroke="#666666" points="447,-186 283,-186 283,-156 447,-156 447,-186"/>
<text text-anchor="start" x="291" y="-174" font-family="Helvetica,sans-Serif" font-size="10.00">std::vector&lt; DD4hepSensitive</text>
<text text-anchor="middle" x="365" y="-163" font-family="Helvetica,sans-Serif" font-size="10.00">Surface &gt;</text>
</a>
</g>
</g>
<!-- Node2&#45;&gt;Node1 -->
<g id="edge1_Node000001_Node000002" class="edge">
<title>Node2&#45;&gt;Node1</title>
<g id="a_edge1_Node000001_Node000002"><a xlink:title=" ">
<path fill="none" stroke="#9a32cd" stroke-dasharray="5,2" d="M457.06,-157.27C489.55,-151.39 526.22,-143.63 559,-134 580.77,-127.6 604.4,-118.15 622.9,-110.16"/>
<polygon fill="#9a32cd" stroke="#9a32cd" points="456.35,-153.84 447.11,-159.03 457.57,-160.73 456.35,-153.84"/>
</a>
</g>
<text text-anchor="start" x="469" y="-159.5" font-family="Helvetica,sans-Serif" font-size="10.00" fill="grey">sensitiveSurfaces</text>
</g>
<!-- Node3 -->
<g id="Node000003" class="node">
<title>Node3</title>
<g id="a_Node000003"><a xlink:title=" ">
<polygon fill="white" stroke="#666666" points="97,-103.5 0,-103.5 0,-84.5 97,-84.5 97,-103.5"/>
<text text-anchor="middle" x="48.5" y="-91.5" font-family="Helvetica,sans-Serif" font-size="10.00">std::vector&lt; T &gt;</text>
</a>
</g>
</g>
<!-- Node3&#45;&gt;Node2 -->
<g id="edge2_Node000002_Node000003" class="edge">
<title>Node3&#45;&gt;Node2</title>
<g id="a_edge2_Node000002_Node000003"><a xlink:title=" ">
<path fill="none" stroke="orange" stroke-dasharray="5,2" d="M67.42,-110.25C79.86,-120.55 97.3,-133.18 115,-140 168.55,-160.65 232.93,-168.26 282.81,-170.77"/>
<polygon fill="orange" stroke="orange" points="69.54,-107.46 59.68,-103.59 64.98,-112.76 69.54,-107.46"/>
</a>
</g>
<text text-anchor="start" x="118" y="-174.5" font-family="Helvetica,sans-Serif" font-size="10.00" fill="grey">&lt; DD4hepSensitiveSurface &gt;</text>
</g>
<!-- Node4 -->
<g id="Node000004" class="node">
<title>Node4</title>
<g id="a_Node000004"><a xlink:title=" ">
<polygon fill="white" stroke="#666666" points="442.5,-138 287.5,-138 287.5,-108 442.5,-108 442.5,-138"/>
<text text-anchor="start" x="295.5" y="-126" font-family="Helvetica,sans-Serif" font-size="10.00">std::vector&lt; DD4hepPassive</text>
<text text-anchor="middle" x="365" y="-115" font-family="Helvetica,sans-Serif" font-size="10.00">Surface &gt;</text>
</a>
</g>
</g>
<!-- Node3&#45;&gt;Node4 -->
<g id="edge4_Node000004_Node000003" class="edge">
<title>Node3&#45;&gt;Node4</title>
<g id="a_edge4_Node000004_Node000003"><a xlink:title=" ">
<path fill="none" stroke="orange" stroke-dasharray="5,2" d="M103.59,-105.31C107.44,-105.94 111.27,-106.51 115,-107 172.56,-114.53 238.08,-118.56 287.46,-120.69"/>
<polygon fill="orange" stroke="orange" points="103.86,-101.81 93.41,-103.54 102.66,-108.7 103.86,-101.81"/>
</a>
</g>
<text text-anchor="start" x="122" y="-124.5" font-family="Helvetica,sans-Serif" font-size="10.00" fill="grey">&lt; DD4hepPassiveSurface &gt;</text>
</g>
<!-- Node5 -->
<g id="Node000005" class="node">
<title>Node5</title>
<g id="a_Node000005"><a xlink:title=" ">
<polygon fill="white" stroke="#666666" points="438,-89.5 292,-89.5 292,-48.5 438,-48.5 438,-89.5"/>
<text text-anchor="start" x="300" y="-77.5" font-family="Helvetica,sans-Serif" font-size="10.00">std::vector&lt; std::tuple</text>
<text text-anchor="start" x="300" y="-66.5" font-family="Helvetica,sans-Serif" font-size="10.00">&lt; Acts::DirectedProtoAxis,</text>
<text text-anchor="middle" x="365" y="-55.5" font-family="Helvetica,sans-Serif" font-size="10.00"> std::size_t &gt; &gt;</text>
</a>
</g>
</g>
<!-- Node3&#45;&gt;Node5 -->
<g id="edge6_Node000005_Node000003" class="edge">
<title>Node3&#45;&gt;Node5</title>
<g id="a_edge6_Node000005_Node000003"><a xlink:title=" ">
<path fill="none" stroke="orange" stroke-dasharray="5,2" d="M71.85,-78.98C84.04,-71.7 99.73,-63.73 115,-60 173.31,-45.77 241.56,-49.61 291.84,-56.11"/>
<polygon fill="orange" stroke="orange" points="69.91,-76.07 63.28,-84.34 73.62,-82.01 69.91,-76.07"/>
</a>
</g>
<text text-anchor="start" x="139" y="-95.5" font-family="Helvetica,sans-Serif" font-size="10.00" fill="grey">&lt; std::tuple&lt; Acts</text>
<text text-anchor="start" x="139" y="-80.5" font-family="Helvetica,sans-Serif" font-size="10.00" fill="grey">  ::DirectedProtoAxis,</text>
<text text-anchor="start" x="139" y="-65.5" font-family="Helvetica,sans-Serif" font-size="10.00" fill="grey">   std::size_t &gt; &gt;</text>
</g>
<!-- Node6 -->
<g id="Node000006" class="node">
<title>Node6</title>
<g id="a_Node000006"><a xlink:title=" ">
<polygon fill="white" stroke="#666666" points="418.5,-30 311.5,-30 311.5,0 418.5,0 418.5,-30"/>
<text text-anchor="start" x="319.5" y="-18" font-family="Helvetica,sans-Serif" font-size="10.00">std::vector&lt; Acts::</text>
<text text-anchor="middle" x="365" y="-7" font-family="Helvetica,sans-Serif" font-size="10.00">AxisDirection &gt;</text>
</a>
</g>
</g>
<!-- Node3&#45;&gt;Node6 -->
<g id="edge8_Node000006_Node000003" class="edge">
<title>Node3&#45;&gt;Node6</title>
<g id="a_edge8_Node000006_Node000003"><a xlink:title=" ">
<path fill="none" stroke="orange" stroke-dasharray="5,2" d="M61.79,-76.28C73.5,-61.01 92.64,-39.9 115,-30 178.16,-2.02 259.27,-3.09 311.45,-7.86"/>
<polygon fill="orange" stroke="orange" points="58.88,-74.34 55.78,-84.47 64.52,-78.48 58.88,-74.34"/>
</a>
</g>
<text text-anchor="start" x="133" y="-35.5" font-family="Helvetica,sans-Serif" font-size="10.00" fill="grey">&lt; Acts::AxisDirection &gt;</text>
</g>
<!-- Node4&#45;&gt;Node1 -->
<g id="edge3_Node000001_Node000004" class="edge">
<title>Node4&#45;&gt;Node1</title>
<g id="a_edge3_Node000001_Node000004"><a xlink:title=" ">
<path fill="none" stroke="#9a32cd" stroke-dasharray="5,2" d="M452.71,-114.63C492.15,-110.82 538.5,-106.34 576.97,-102.63"/>
<polygon fill="#9a32cd" stroke="#9a32cd" points="452.19,-111.16 442.57,-115.61 452.86,-118.13 452.19,-111.16"/>
</a>
</g>
<text text-anchor="start" x="472" y="-118.5" font-family="Helvetica,sans-Serif" font-size="10.00" fill="grey">passiveSurfaces</text>
</g>
<!-- Node5&#45;&gt;Node1 -->
<g id="edge5_Node000001_Node000005" class="edge">
<title>Node5&#45;&gt;Node1</title>
<g id="a_edge5_Node000001_Node000005"><a xlink:title=" ">
<path fill="none" stroke="#9a32cd" stroke-dasharray="5,2" d="M448.51,-71.95C482.75,-73.63 522.85,-76.18 559,-80 564.85,-80.62 570.88,-81.34 576.94,-82.13"/>
<polygon fill="#9a32cd" stroke="#9a32cd" points="448.23,-68.43 438.08,-71.46 447.9,-75.42 448.23,-68.43"/>
</a>
</g>
<text text-anchor="start" x="491" y="-85.5" font-family="Helvetica,sans-Serif" font-size="10.00" fill="grey">binnings</text>
</g>
<!-- Node6&#45;&gt;Node1 -->
<g id="edge7_Node000001_Node000006" class="edge">
<title>Node6&#45;&gt;Node1</title>
<g id="a_edge7_Node000001_Node000006"><a xlink:title=" ">
<path fill="none" stroke="#9a32cd" stroke-dasharray="5,2" d="M428.77,-23.33C466.95,-29.3 516.41,-38.67 559,-52 582.38,-59.32 607.65,-70.64 626.53,-79.83"/>
<polygon fill="#9a32cd" stroke="#9a32cd" points="429.23,-19.86 418.81,-21.81 428.17,-26.78 429.23,-19.86"/>
</a>
</g>
<text text-anchor="start" x="468" y="-57.5" font-family="Helvetica,sans-Serif" font-size="10.00" fill="grey">extentConstraints</text>
</g>
</g>
</svg>

<g id="navigator" transform="translate(0 0)" fill="#404254">
  <rect fill="#f2f5e9" fill-opacity="0.5" stroke="#606060" stroke-width=".5" x="0" y="0" width="60" height="60"/>
  <use id="zoomplus" xlink:href="#zoomPlus" x="17" y="9" onmousedown="handleZoom(evt,'in')"/>
  <use id="zoomminus" xlink:href="#zoomMin" x="42" y="9" onmousedown="handleZoom(evt,'out')"/>
  <use id="reset" xlink:href="#resetDef" x="30" y="36" onmousedown="handleReset()"/>
   <use id="arrowup" xlink:href="#arrowUp" x="0" y="0" onmousedown="handlePan(0,-1)"/>
  <use id="arrowright" xlink:href="#arrowRight" x="0" y="0" onmousedown="handlePan(1,0)"/>
  <use id="arrowdown" xlink:href="#arrowDown" x="0" y="0" onmousedown="handlePan(0,1)"/>
  <use id="arrowleft" xlink:href="#arrowLeft" x="0" y="0" onmousedown="handlePan(-1,0)"/>
</g>
<svg viewBox="0 0 15 15" width="100%" height="30px" preserveAspectRatio="xMaxYMin meet">
 <g id="arrow_out" transform="scale(0.3 0.3)">
  <a xlink:href="struct_acts_plugins_1_1_d_d4hep_detector_surface_factory_1_1_cache__coll__graph_org.svg" target="_base">
   <rect id="button" ry="5" rx="5" y="6" x="6" height="38" width="38"
        fill="#f2f5e9" fill-opacity="0.5" stroke="#606060" stroke-width="1.0"/>
   <path id="arrow"
     d="M 11.500037,31.436501 C 11.940474,20.09759 22.043105,11.32322 32.158766,21.979434 L 37.068811,17.246167 C 37.068811,17.246167 37.088388,32 37.088388,32 L 22.160133,31.978069 C 22.160133,31.978069 26.997745,27.140456 26.997745,27.140456 C 18.528582,18.264221 13.291696,25.230495 11.500037,31.436501 z"
     style="fill:#404040;"/>
  </a>
 </g>
</svg>

<style type='text/css'>
<![CDATA[
[data-mouse-over-selected='false'] { opacity: 0.7; }
[data-mouse-over-selected='true']  { opacity: 1.0; }
]]>
</style>
<script type="application/ecmascript"><![CDATA[
document.addEventListener('DOMContentLoaded', (event) => {
  highlightEdges();
  highlightAdjacentNodes();
});
]]></script>
</svg>
