<?xml version="1.0" encoding="UTF-8" standalone="no"?>
<!DOCTYPE svg PUBLIC "-//W3C//DTD SVG 1.1//EN"
 "http://www.w3.org/Graphics/SVG/1.1/DTD/svg11.dtd">
<!-- Generated by graphviz version 2.43.0 (0)
 -->
<!-- Title: ActsPlugins::TGeoParser::Options Pages: 1 -->
<svg width="699pt" height="139pt"
 viewBox="0.00 0.00 699.00 139.00" xmlns="http://www.w3.org/2000/svg" xmlns:xlink="http://www.w3.org/1999/xlink">
<g id="graph0" class="graph" transform="scale(1 1) rotate(0) translate(4 135)">
<title>ActsPlugins::TGeoParser::Options</title>
<!-- Node1 -->
<g id="Node000001" class="node">
<title>Node1</title>
<g id="a_Node000001"><a xlink:title="Nested configuration struct.">
<polygon fill="#999999" stroke="#666666" points="691,-78 557,-78 557,-48 691,-48 691,-78"/>
<text text-anchor="start" x="565" y="-66" font-family="Helvetica,sans-Serif" font-size="10.00">ActsPlugins::TGeoParser</text>
<text text-anchor="middle" x="624" y="-55" font-family="Helvetica,sans-Serif" font-size="10.00">::Options</text>
</a>
</g>
</g>
<!-- Node2 -->
<g id="Node000002" class="node">
<title>Node2</title>
<g id="a_Node000002"><a xlink:title=" ">
<polygon fill="white" stroke="#666666" points="443,-123.5 303,-123.5 303,-104.5 443,-104.5 443,-123.5"/>
<text text-anchor="middle" x="373" y="-111.5" font-family="Helvetica,sans-Serif" font-size="10.00">std::vector&lt; std::string &gt;</text>
</a>
</g>
</g>
<!-- Node2&#45;&gt;Node1 -->
<g id="edge1_Node000001_Node000002" class="edge">
<title>Node2&#45;&gt;Node1</title>
<g id="a_edge1_Node000001_Node000002"><a xlink:title=" ">
<path fill="none" stroke="#9a32cd" stroke-dasharray="5,2" d="M441.75,-102.71C471.65,-97.46 507.16,-90.87 539,-84 547.38,-82.19 556.19,-80.15 564.82,-78.07"/>
<polygon fill="#9a32cd" stroke="#9a32cd" points="441.09,-99.27 431.83,-104.43 442.29,-106.17 441.09,-99.27"/>
</a>
</g>
<text text-anchor="start" x="464" y="-120" font-family="Helvetica,sans-Serif" font-size="10.00" fill="grey">targetNames</text>
<text text-anchor="start" x="464" y="-105" font-family="Helvetica,sans-Serif" font-size="10.00" fill="grey">volumeNames</text>
</g>
<!-- Node3 -->
<g id="Node000003" class="node">
<title>Node3</title>
<g id="a_Node000003"><a xlink:title=" ">
<polygon fill="white" stroke="#666666" points="100.5,-93.5 3.5,-93.5 3.5,-74.5 100.5,-74.5 100.5,-93.5"/>
<text text-anchor="middle" x="52" y="-81.5" font-family="Helvetica,sans-Serif" font-size="10.00">std::vector&lt; T &gt;</text>
</a>
</g>
</g>
<!-- Node3&#45;&gt;Node2 -->
<g id="edge2_Node000002_Node000003" class="edge">
<title>Node3&#45;&gt;Node2</title>
<g id="a_edge2_Node000002_Node000003"><a xlink:title=" ">
<path fill="none" stroke="orange" stroke-dasharray="5,2" d="M110.84,-92.66C114.61,-93.14 118.36,-93.59 122,-94 183.01,-100.85 252.65,-106.23 302.91,-109.67"/>
<polygon fill="orange" stroke="orange" points="111.2,-89.18 100.83,-91.34 110.29,-96.12 111.2,-89.18"/>
</a>
</g>
<text text-anchor="start" x="167.5" y="-113.5" font-family="Helvetica,sans-Serif" font-size="10.00" fill="grey">&lt; std::string &gt;</text>
</g>
<!-- Node6 -->
<g id="Node000006" class="node">
<title>Node6</title>
<g id="a_Node000006"><a xlink:title=" ">
<polygon fill="white" stroke="#666666" points="434.5,-83.5 311.5,-83.5 311.5,-42.5 434.5,-42.5 434.5,-83.5"/>
<text text-anchor="start" x="319.5" y="-71.5" font-family="Helvetica,sans-Serif" font-size="10.00">std::vector&lt; std::pair</text>
<text text-anchor="start" x="319.5" y="-60.5" font-family="Helvetica,sans-Serif" font-size="10.00">&lt; Acts::AxisDirection,</text>
<text text-anchor="middle" x="373" y="-49.5" font-family="Helvetica,sans-Serif" font-size="10.00"> ParseRange &gt; &gt;</text>
</a>
</g>
</g>
<!-- Node3&#45;&gt;Node6 -->
<g id="edge6_Node000006_Node000003" class="edge">
<title>Node3&#45;&gt;Node6</title>
<g id="a_edge6_Node000006_Node000003"><a xlink:title=" ">
<path fill="none" stroke="orange" stroke-dasharray="5,2" d="M86.56,-71.01C97.67,-67.33 110.21,-63.83 122,-62 186.12,-52.03 260.61,-54.04 311.49,-57.45"/>
<polygon fill="orange" stroke="orange" points="85.13,-67.81 76.83,-74.4 87.42,-74.42 85.13,-67.81"/>
</a>
</g>
<text text-anchor="start" x="125.5" y="-83" font-family="Helvetica,sans-Serif" font-size="10.00" fill="grey">&lt; std::pair&lt; Acts::</text>
<text text-anchor="start" x="125.5" y="-68" font-family="Helvetica,sans-Serif" font-size="10.00" fill="grey">  AxisDirection, ParseRange &gt; &gt;</text>
</g>
<!-- Node4 -->
<g id="Node000004" class="node">
<title>Node4</title>
<g id="a_Node000004"><a xlink:title=" ">
<polygon fill="white" stroke="#666666" points="405.5,-24.5 340.5,-24.5 340.5,-5.5 405.5,-5.5 405.5,-24.5"/>
<text text-anchor="middle" x="373" y="-12.5" font-family="Helvetica,sans-Serif" font-size="10.00">std::string</text>
</a>
</g>
</g>
<!-- Node4&#45;&gt;Node1 -->
<g id="edge3_Node000001_Node000004" class="edge">
<title>Node4&#45;&gt;Node1</title>
<g id="a_edge3_Node000001_Node000004"><a xlink:title=" ">
<path fill="none" stroke="#9a32cd" stroke-dasharray="5,2" d="M416.1,-20.91C449.55,-25.84 497.45,-33.42 539,-42 547.54,-43.76 556.52,-45.8 565.31,-47.91"/>
<polygon fill="#9a32cd" stroke="#9a32cd" points="416.18,-17.38 405.77,-19.4 415.17,-24.31 416.18,-17.38"/>
</a>
</g>
<text text-anchor="start" x="477" y="-47.5" font-family="Helvetica,sans-Serif" font-size="10.00" fill="grey">localAxes</text>
</g>
<!-- Node5 -->
<g id="Node000005" class="node">
<title>Node5</title>
<g id="a_Node000005"><a xlink:title=" ">
<polygon fill="white" stroke="#666666" points="104,-30 0,-30 0,0 104,0 104,-30"/>
<text text-anchor="start" x="8" y="-18" font-family="Helvetica,sans-Serif" font-size="10.00">std::basic_string&lt;</text>
<text text-anchor="middle" x="52" y="-7" font-family="Helvetica,sans-Serif" font-size="10.00"> Char &gt;</text>
</a>
</g>
</g>
<!-- Node5&#45;&gt;Node4 -->
<g id="edge4_Node000004_Node000005" class="edge">
<title>Node5&#45;&gt;Node4</title>
<g id="a_edge4_Node000004_Node000005"><a xlink:title=" ">
<path fill="none" stroke="#63b8ff" d="M114.33,-15C181.84,-15 287.73,-15 340.26,-15"/>
<polygon fill="#63b8ff" stroke="#63b8ff" points="114.25,-11.5 104.25,-15 114.25,-18.5 114.25,-11.5"/>
</a>
</g>
</g>
<!-- Node6&#45;&gt;Node1 -->
<g id="edge5_Node000001_Node000006" class="edge">
<title>Node6&#45;&gt;Node1</title>
<g id="a_edge5_Node000001_Node000006"><a xlink:title=" ">
<path fill="none" stroke="#9a32cd" stroke-dasharray="5,2" d="M444.8,-63C480.02,-63 522.33,-63 556.88,-63"/>
<polygon fill="#9a32cd" stroke="#9a32cd" points="444.59,-59.5 434.59,-63 444.59,-66.5 444.59,-59.5"/>
</a>
</g>
<text text-anchor="start" x="468" y="-68.5" font-family="Helvetica,sans-Serif" font-size="10.00" fill="grey">parseRanges</text>
</g>
</g>
</svg>
