<?xml version="1.0" encoding="UTF-8" standalone="no"?>
<!DOCTYPE svg PUBLIC "-//W3C//DTD SVG 1.1//EN"
 "http://www.w3.org/Graphics/SVG/1.1/DTD/svg11.dtd">
<!-- Generated by graphviz version 2.43.0 (0)
 -->
<!-- Title: Acts::IterativeVertexFinder::State Pages: 1 -->
<svg width="291pt" height="332pt"
 viewBox="0.00 0.00 290.50 332.00" xmlns="http://www.w3.org/2000/svg" xmlns:xlink="http://www.w3.org/1999/xlink">
<g id="graph0" class="graph" transform="scale(1 1) rotate(0) translate(4 328)">
<title>Acts::IterativeVertexFinder::State</title>
<!-- Node1 -->
<g id="Node000001" class="node">
<title>Node1</title>
<g id="a_Node000001"><a xlink:title="State struct.">
<polygon fill="#999999" stroke="#666666" points="146,-30 0,-30 0,0 146,0 146,-30"/>
<text text-anchor="start" x="8" y="-18" font-family="Helvetica,sans-Serif" font-size="10.00">Acts::IterativeVertexFinder</text>
<text text-anchor="middle" x="73" y="-7" font-family="Helvetica,sans-Serif" font-size="10.00">::State</text>
</a>
</g>
</g>
<!-- Node2 -->
<g id="Node000002" class="node">
<title>Node2</title>
<g id="a_Node000002"><a xlink:href="struct_acts_1_1_impact_point_estimator_1_1_state.html" target="_top" xlink:title="State struct.">
<polygon fill="white" stroke="#666666" points="282.5,-113 133.5,-113 133.5,-83 282.5,-83 282.5,-113"/>
<text text-anchor="start" x="141.5" y="-101" font-family="Helvetica,sans-Serif" font-size="10.00">Acts::ImpactPointEstimator</text>
<text text-anchor="middle" x="208" y="-90" font-family="Helvetica,sans-Serif" font-size="10.00">::State</text>
</a>
</g>
</g>
<!-- Node2&#45;&gt;Node1 -->
<g id="edge1_Node000001_Node000002" class="edge">
<title>Node2&#45;&gt;Node1</title>
<g id="a_edge1_Node000001_Node000002"><a xlink:title=" ">
<path fill="none" stroke="#9a32cd" stroke-dasharray="5,2" d="M175.62,-77.57C151.32,-62.99 118.6,-43.36 96.7,-30.22"/>
<polygon fill="#9a32cd" stroke="#9a32cd" points="174.11,-80.75 184.48,-82.89 177.71,-74.74 174.11,-80.75"/>
</a>
</g>
<text text-anchor="start" x="155.5" y="-53.5" font-family="Helvetica,sans-Serif" font-size="10.00" fill="grey">ipState</text>
</g>
<!-- Node3 -->
<g id="Node000003" class="node">
<title>Node3</title>
<g id="a_Node000003"><a xlink:href="class_acts_1_1_any_base.html" target="_top" xlink:title=" ">
<polygon fill="white" stroke="#666666" points="136.5,-196 9.5,-196 9.5,-166 136.5,-166 136.5,-196"/>
<text text-anchor="start" x="17.5" y="-184" font-family="Helvetica,sans-Serif" font-size="10.00">Acts::AnyBase&lt; sizeof</text>
<text text-anchor="middle" x="73" y="-173" font-family="Helvetica,sans-Serif" font-size="10.00">(char) *512 &gt;</text>
</a>
</g>
</g>
<!-- Node3&#45;&gt;Node1 -->
<g id="edge6_Node000001_Node000003" class="edge">
<title>Node3&#45;&gt;Node1</title>
<g id="a_edge6_Node000001_Node000003"><a xlink:title=" ">
<path fill="none" stroke="#9a32cd" stroke-dasharray="5,2" d="M70.06,-155.68C68.03,-136.07 65.89,-107.77 67,-83 67.82,-64.68 69.89,-43.63 71.37,-30.09"/>
<polygon fill="#9a32cd" stroke="#9a32cd" points="66.61,-156.32 71.18,-165.87 73.57,-155.55 66.61,-156.32"/>
</a>
</g>
<text text-anchor="start" x="70" y="-95" font-family="Helvetica,sans-Serif" font-size="10.00" fill="grey">fieldCache</text>
</g>
<!-- Node3&#45;&gt;Node2 -->
<g id="edge2_Node000002_Node000003" class="edge">
<title>Node3&#45;&gt;Node2</title>
<g id="a_edge2_Node000002_Node000003"><a xlink:title=" ">
<path fill="none" stroke="#9a32cd" stroke-dasharray="5,2" d="M105.38,-160.57C129.68,-145.99 162.4,-126.36 184.3,-113.22"/>
<polygon fill="#9a32cd" stroke="#9a32cd" points="103.29,-157.74 96.52,-165.89 106.89,-163.75 103.29,-157.74"/>
</a>
</g>
<text text-anchor="start" x="155" y="-136.5" font-family="Helvetica,sans-Serif" font-size="10.00" fill="grey">fieldCache</text>
</g>
<!-- Node4 -->
<g id="Node000004" class="node">
<title>Node4</title>
<g id="a_Node000004"><a xlink:href="class_acts_1_1_any_base_all.html" target="_top" xlink:title="Base class for all instances of AnyBase regarfless of SBO size.">
<polygon fill="white" stroke="#666666" points="118.5,-324 19.5,-324 19.5,-305 118.5,-305 118.5,-324"/>
<text text-anchor="middle" x="69" y="-312" font-family="Helvetica,sans-Serif" font-size="10.00">Acts::AnyBaseAll</text>
</a>
</g>
</g>
<!-- Node4&#45;&gt;Node3 -->
<g id="edge3_Node000003_Node000004" class="edge">
<title>Node4&#45;&gt;Node3</title>
<g id="a_edge3_Node000003_Node000004"><a xlink:title=" ">
<path fill="none" stroke="#63b8ff" d="M69.57,-294.6C70.38,-267.99 71.84,-220.05 72.57,-196.23"/>
<polygon fill="#63b8ff" stroke="#63b8ff" points="66.07,-294.77 69.26,-304.87 73.06,-294.98 66.07,-294.77"/>
</a>
</g>
</g>
<!-- Node5 -->
<g id="Node000005" class="node">
<title>Node5</title>
<g id="a_Node000005"><a xlink:href="class_acts_1_1_any_base.html" target="_top" xlink:title="Small opaque type&#45;erased type with configurable small buffer optimization.">
<polygon fill="white" stroke="#666666" points="216.5,-268 85.5,-268 85.5,-249 216.5,-249 216.5,-268"/>
<text text-anchor="middle" x="151" y="-256" font-family="Helvetica,sans-Serif" font-size="10.00">Acts::AnyBase&lt; SIZE &gt;</text>
</a>
</g>
</g>
<!-- Node4&#45;&gt;Node5 -->
<g id="edge5_Node000005_Node000004" class="edge">
<title>Node4&#45;&gt;Node5</title>
<g id="a_edge5_Node000005_Node000004"><a xlink:title=" ">
<path fill="none" stroke="#63b8ff" d="M90.83,-299.12C105.81,-289.26 125.2,-276.49 137.86,-268.15"/>
<polygon fill="#63b8ff" stroke="#63b8ff" points="88.6,-296.4 82.17,-304.82 92.45,-302.25 88.6,-296.4"/>
</a>
</g>
</g>
<!-- Node5&#45;&gt;Node3 -->
<g id="edge4_Node000003_Node000005" class="edge">
<title>Node5&#45;&gt;Node3</title>
<g id="a_edge4_Node000003_Node000005"><a xlink:title=" ">
<path fill="none" stroke="orange" stroke-dasharray="5,2" d="M134.65,-241.68C120.78,-228.25 101.05,-209.15 87.68,-196.21"/>
<polygon fill="orange" stroke="orange" points="132.43,-244.4 142.05,-248.84 137.3,-239.37 132.43,-244.4"/>
</a>
</g>
<text text-anchor="start" x="126.5" y="-219.5" font-family="Helvetica,sans-Serif" font-size="10.00" fill="grey">&lt; sizeof(char) *512 &gt;</text>
</g>
</g>
</svg>
