<?xml version="1.0" encoding="UTF-8" standalone="no"?>
<!DOCTYPE svg PUBLIC "-//W3C//DTD SVG 1.1//EN"
 "http://www.w3.org/Graphics/SVG/1.1/DTD/svg11.dtd">
<!-- Generated by graphviz version 2.43.0 (0)
 -->
<!-- Title: Acts::CuboidVolumeBuilder::SurfaceConfig Pages: 1 -->
<svg width="706pt" height="86pt"
 viewBox="0.00 0.00 706.00 86.00" xmlns="http://www.w3.org/2000/svg" xmlns:xlink="http://www.w3.org/1999/xlink">
<g id="graph0" class="graph" transform="scale(1 1) rotate(0) translate(4 82)">
<title>Acts::CuboidVolumeBuilder::SurfaceConfig</title>
<!-- Node1 -->
<g id="Node000001" class="node">
<title>Node1</title>
<g id="a_Node000001"><a xlink:title="This struct stores the data for the construction of a single PlaneSurface.">
<polygon fill="#999999" stroke="#666666" points="698,-55 549,-55 549,-25 698,-25 698,-55"/>
<text text-anchor="start" x="557" y="-43" font-family="Helvetica,sans-Serif" font-size="10.00">Acts::CuboidVolumeBuilder</text>
<text text-anchor="middle" x="623.5" y="-32" font-family="Helvetica,sans-Serif" font-size="10.00">::SurfaceConfig</text>
</a>
</g>
</g>
<!-- Node2 -->
<g id="Node000002" class="node">
<title>Node2</title>
<g id="a_Node000002"><a xlink:title=" ">
<polygon fill="white" stroke="#666666" points="467,-78 324,-78 324,-48 467,-48 467,-78"/>
<text text-anchor="start" x="332" y="-66" font-family="Helvetica,sans-Serif" font-size="10.00">std::shared_ptr&lt; const</text>
<text text-anchor="middle" x="395.5" y="-55" font-family="Helvetica,sans-Serif" font-size="10.00"> Acts::RectangleBounds &gt;</text>
</a>
</g>
</g>
<!-- Node2&#45;&gt;Node1 -->
<g id="edge1_Node000001_Node000002" class="edge">
<title>Node2&#45;&gt;Node1</title>
<g id="a_edge1_Node000001_Node000002"><a xlink:title=" ">
<path fill="none" stroke="#9a32cd" stroke-dasharray="5,2" d="M477.31,-54.78C500.67,-52.4 526.05,-49.82 548.95,-47.49"/>
<polygon fill="#9a32cd" stroke="#9a32cd" points="476.67,-51.32 467.08,-55.82 477.38,-58.29 476.67,-51.32"/>
</a>
</g>
<text text-anchor="start" x="488" y="-58.5" font-family="Helvetica,sans-Serif" font-size="10.00" fill="grey">rBounds</text>
</g>
<!-- Node3 -->
<g id="Node000003" class="node">
<title>Node3</title>
<g id="a_Node000003"><a xlink:title=" ">
<polygon fill="white" stroke="#666666" points="118,-48.5 0,-48.5 0,-29.5 118,-29.5 118,-48.5"/>
<text text-anchor="middle" x="59" y="-36.5" font-family="Helvetica,sans-Serif" font-size="10.00">std::shared_ptr&lt; T &gt;</text>
</a>
</g>
</g>
<!-- Node3&#45;&gt;Node2 -->
<g id="edge2_Node000002_Node000003" class="edge">
<title>Node3&#45;&gt;Node2</title>
<g id="a_edge2_Node000002_Node000003"><a xlink:title=" ">
<path fill="none" stroke="orange" stroke-dasharray="5,2" d="M128.26,-43.9C185.25,-47.99 266.2,-53.79 323.85,-57.93"/>
<polygon fill="orange" stroke="orange" points="128.49,-40.41 118.27,-43.18 127.99,-47.39 128.49,-40.41"/>
</a>
</g>
<text text-anchor="start" x="139" y="-61.5" font-family="Helvetica,sans-Serif" font-size="10.00" fill="grey">&lt; const Acts::RectangleBounds &gt;</text>
</g>
<!-- Node4 -->
<g id="Node000004" class="node">
<title>Node4</title>
<g id="a_Node000004"><a xlink:title=" ">
<polygon fill="white" stroke="#666666" points="464.5,-30 326.5,-30 326.5,0 464.5,0 464.5,-30"/>
<text text-anchor="start" x="334.5" y="-18" font-family="Helvetica,sans-Serif" font-size="10.00">std::shared_ptr&lt; const</text>
<text text-anchor="middle" x="395.5" y="-7" font-family="Helvetica,sans-Serif" font-size="10.00"> Acts::ISurfaceMaterial &gt;</text>
</a>
</g>
</g>
<!-- Node3&#45;&gt;Node4 -->
<g id="edge4_Node000004_Node000003" class="edge">
<title>Node3&#45;&gt;Node4</title>
<g id="a_edge4_Node000004_Node000003"><a xlink:title=" ">
<path fill="none" stroke="orange" stroke-dasharray="5,2" d="M108.8,-27.4C117.8,-25.64 127.15,-24.06 136,-23 200.31,-15.3 274.22,-13.73 326.49,-13.84"/>
<polygon fill="orange" stroke="orange" points="107.93,-24.01 98.83,-29.45 109.33,-30.86 107.93,-24.01"/>
</a>
</g>
<text text-anchor="start" x="141" y="-28.5" font-family="Helvetica,sans-Serif" font-size="10.00" fill="grey">&lt; const Acts::ISurfaceMaterial &gt;</text>
</g>
<!-- Node4&#45;&gt;Node1 -->
<g id="edge3_Node000001_Node000004" class="edge">
<title>Node4&#45;&gt;Node1</title>
<g id="a_edge3_Node000001_Node000004"><a xlink:title=" ">
<path fill="none" stroke="#9a32cd" stroke-dasharray="5,2" d="M474.75,-22.11C493.21,-23.91 512.81,-25.93 531,-28 536.73,-28.65 542.66,-29.36 548.62,-30.09"/>
<polygon fill="#9a32cd" stroke="#9a32cd" points="474.92,-18.61 464.63,-21.13 474.24,-25.58 474.92,-18.61"/>
</a>
</g>
<text text-anchor="start" x="491" y="-33.5" font-family="Helvetica,sans-Serif" font-size="10.00" fill="grey">surMat</text>
</g>
</g>
</svg>
