<?xml version="1.0" encoding="UTF-8" standalone="no"?>
<!DOCTYPE svg PUBLIC "-//W3C//DTD SVG 1.1//EN"
 "http://www.w3.org/Graphics/SVG/1.1/DTD/svg11.dtd">
<!-- Generated by graphviz version 2.43.0 (0)
 -->
<!-- Title: Acts::Ccl::DefaultConnect&lt; Cell, GridDim &gt; Pages: 1 -->
<svg width="557pt" height="134pt"
 viewBox="0.00 0.00 557.00 134.00" xmlns="http://www.w3.org/2000/svg" xmlns:xlink="http://www.w3.org/1999/xlink">
<g id="graph0" class="graph" transform="scale(1 1) rotate(0) translate(4 130)">
<title>Acts::Ccl::DefaultConnect&lt; Cell, GridDim &gt;</title>
<!-- Node1 -->
<g id="Node000001" class="node">
<title>Node1</title>
<g id="a_Node000001"><a xlink:title=" ">
<polygon fill="#999999" stroke="#666666" points="140,-78 0,-78 0,-48 140,-48 140,-78"/>
<text text-anchor="start" x="8" y="-66" font-family="Helvetica,sans-Serif" font-size="10.00">Acts::Ccl::DefaultConnect</text>
<text text-anchor="middle" x="70" y="-55" font-family="Helvetica,sans-Serif" font-size="10.00">&lt; Cell, GridDim &gt;</text>
</a>
</g>
</g>
<!-- Node2 -->
<g id="Node000002" class="node">
<title>Node2</title>
<g id="a_Node000002"><a xlink:href="struct_acts_1_1_ccl_1_1_default_connect.html" target="_top" xlink:title=" ">
<polygon fill="white" stroke="#666666" points="377,-126 237,-126 237,-96 377,-96 377,-126"/>
<text text-anchor="start" x="245" y="-114" font-family="Helvetica,sans-Serif" font-size="10.00">Acts::Ccl::DefaultConnect</text>
<text text-anchor="middle" x="307" y="-103" font-family="Helvetica,sans-Serif" font-size="10.00">&lt; Cell, N &gt;</text>
</a>
</g>
</g>
<!-- Node1&#45;&gt;Node2 -->
<g id="edge1_Node000001_Node000002" class="edge">
<title>Node1&#45;&gt;Node2</title>
<g id="a_edge1_Node000001_Node000002"><a xlink:title=" ">
<path fill="none" stroke="orange" stroke-dasharray="5,2" d="M141.38,-80.34C146.99,-81.62 152.58,-82.85 158,-84 183.68,-89.44 212.01,-94.77 236.94,-99.23"/>
<polygon fill="orange" stroke="orange" points="141.81,-76.85 131.27,-78.01 140.23,-83.67 141.81,-76.85"/>
</a>
</g>
<text text-anchor="start" x="161.5" y="-101.5" font-family="Helvetica,sans-Serif" font-size="10.00" fill="grey">&lt; Cell, N &gt;</text>
</g>
<!-- Node4 -->
<g id="Node000004" class="node">
<title>Node4</title>
<g id="a_Node000004"><a xlink:href="struct_acts_1_1_ccl_1_1_default_connect_3_01_cell_00_011_01_4.html" target="_top" xlink:title=" ">
<polygon fill="white" stroke="#666666" points="377,-78 237,-78 237,-48 377,-48 377,-78"/>
<text text-anchor="start" x="245" y="-66" font-family="Helvetica,sans-Serif" font-size="10.00">Acts::Ccl::DefaultConnect</text>
<text text-anchor="middle" x="307" y="-55" font-family="Helvetica,sans-Serif" font-size="10.00">&lt; Cell, 1 &gt;</text>
</a>
</g>
</g>
<!-- Node1&#45;&gt;Node4 -->
<g id="edge3_Node000001_Node000004" class="edge">
<title>Node1&#45;&gt;Node4</title>
<g id="a_edge3_Node000001_Node000004"><a xlink:title=" ">
<path fill="none" stroke="orange" stroke-dasharray="5,2" d="M150.41,-63C178.45,-63 209.73,-63 236.85,-63"/>
<polygon fill="orange" stroke="orange" points="150.24,-59.5 140.24,-63 150.24,-66.5 150.24,-59.5"/>
</a>
</g>
<text text-anchor="start" x="161.5" y="-68.5" font-family="Helvetica,sans-Serif" font-size="10.00" fill="grey">&lt; Cell, 1 &gt;</text>
</g>
<!-- Node5 -->
<g id="Node000005" class="node">
<title>Node5</title>
<g id="a_Node000005"><a xlink:href="struct_acts_1_1_ccl_1_1_default_connect_3_01_cell_00_012_01_4.html" target="_top" xlink:title=" ">
<polygon fill="white" stroke="#666666" points="377,-30 237,-30 237,0 377,0 377,-30"/>
<text text-anchor="start" x="245" y="-18" font-family="Helvetica,sans-Serif" font-size="10.00">Acts::Ccl::DefaultConnect</text>
<text text-anchor="middle" x="307" y="-7" font-family="Helvetica,sans-Serif" font-size="10.00">&lt; Cell, 2 &gt;</text>
</a>
</g>
</g>
<!-- Node1&#45;&gt;Node5 -->
<g id="edge4_Node000001_Node000005" class="edge">
<title>Node1&#45;&gt;Node5</title>
<g id="a_edge4_Node000001_Node000005"><a xlink:title=" ">
<path fill="none" stroke="orange" stroke-dasharray="5,2" d="M141.38,-45.66C146.99,-44.38 152.58,-43.15 158,-42 183.68,-36.56 212.01,-31.23 236.94,-26.77"/>
<polygon fill="orange" stroke="orange" points="140.23,-42.33 131.27,-47.99 141.81,-49.15 140.23,-42.33"/>
</a>
</g>
<text text-anchor="start" x="161.5" y="-47.5" font-family="Helvetica,sans-Serif" font-size="10.00" fill="grey">&lt; Cell, 2 &gt;</text>
</g>
<!-- Node3 -->
<g id="Node000003" class="node">
<title>Node3</title>
<g id="a_Node000003"><a xlink:href="struct_acts_1_1_ccl_1_1_timed_connect.html" target="_top" xlink:title=" ">
<polygon fill="white" stroke="#666666" points="549,-126 414,-126 414,-96 549,-96 549,-126"/>
<text text-anchor="start" x="422" y="-114" font-family="Helvetica,sans-Serif" font-size="10.00">Acts::Ccl::TimedConnect</text>
<text text-anchor="middle" x="481.5" y="-103" font-family="Helvetica,sans-Serif" font-size="10.00">&lt; Cell, N &gt;</text>
</a>
</g>
</g>
<!-- Node2&#45;&gt;Node3 -->
<g id="edge2_Node000002_Node000003" class="edge">
<title>Node2&#45;&gt;Node3</title>
<g id="a_edge2_Node000002_Node000003"><a xlink:title=" ">
<path fill="none" stroke="#63b8ff" d="M387.17,-111C396.09,-111 405.11,-111 413.84,-111"/>
<polygon fill="#63b8ff" stroke="#63b8ff" points="387.17,-107.5 377.17,-111 387.17,-114.5 387.17,-107.5"/>
</a>
</g>
</g>
</g>
</svg>
