<?xml version="1.0" encoding="UTF-8" standalone="no"?>
<!DOCTYPE svg PUBLIC "-//W3C//DTD SVG 1.1//EN"
 "http://www.w3.org/Graphics/SVG/1.1/DTD/svg11.dtd">
<!-- Generated by graphviz version 2.43.0 (0)
 -->
<!-- Title: Acts::FullBilloirVertexFitter::Config Pages: 1 -->
<!--zoomable 197 -->

<svg id="main" version="1.1" xmlns="http://www.w3.org/2000/svg" xmlns:xlink="http://www.w3.org/1999/xlink" xml:space="preserve" onload="init(evt)">

<style type="text/css"><![CDATA[
.node, .edge {opacity: 0.7;}
.node.selected, .edge.selected {opacity: 1;}
.edge:hover path { stroke: red; }
.edge:hover polygon { stroke: red; fill: red; }
]]></style>

<defs>
  <circle id="rim" cx="0" cy="0" r="7"/>
  <circle id="rim2" cx="0" cy="0" r="3.5"/>
  <g id="zoomPlus">
    <use xlink:href="#rim" fill="#404040"><set attributeName="fill" to="#808080" begin="zoomplus.mouseover" end="zoomplus.mouseout"/></use>
    <path d="M-4,0h8M0,-4v8" fill="none" stroke="white" stroke-width="1.5" pointer-events="none"/>
  </g>
  <g id="zoomMin">
    <use xlink:href="#rim" fill="#404040"><set attributeName="fill" to="#808080" begin="zoomminus.mouseover" end="zoomminus.mouseout"/></use>
    <path d="M-4,0h8" fill="none" stroke="white" stroke-width="1.5" pointer-events="none"/>
  </g>
  <g id="arrowUp" transform="translate(30 24)">
    <use xlink:href="#rim"/>
    <path pointer-events="none" fill="none" stroke="white" stroke-width="1.5" d="M0,-3.0v7 M-2.5,-0.5L0,-3.0L2.5,-0.5"/>
  </g>
  <g id="arrowRight" transform="rotate(90) translate(36 -43)">
    <use xlink:href="#rim"/>
    <path pointer-events="none" fill="none" stroke="white" stroke-width="1.5" d="M0,-3.0v7 M-2.5,-0.5L0,-3.0L2.5,-0.5"/>
  </g>
  <g id="arrowDown" transform="rotate(180) translate(-30 -48)">
    <use xlink:href="#rim"/>
    <path pointer-events="none" fill="none" stroke="white" stroke-width="1.5" d="M0,-3.0v7 M-2.5,-0.5L0,-3.0L2.5,-0.5"/>
  </g>
  <g id="arrowLeft" transform="rotate(270) translate(-36 17)">
    <use xlink:href="#rim"/>
    <path pointer-events="none" fill="none" stroke="white" stroke-width="1.5" d="M0,-3.0v7 M-2.5,-0.5L0,-3.0L2.5,-0.5"/>
  </g>
  <g id="resetDef">
    <use xlink:href="#rim2" fill="#404040"><set attributeName="fill" to="#808080" begin="reset.mouseover" end="reset.mouseout"/></use>
  </g>
</defs>
<script type="application/ecmascript">
var viewWidth = 912;
var viewHeight = 197;
var sectionId = 'dynsection-0';
</script>
<script type="application/ecmascript" xlink:href="svg.min.js"/>
<svg id="graph" class="graph">
<g id="viewport">
<title>Acts::FullBilloirVertexFitter::Config</title>
<!-- Node1 -->
<g id="Node000001" class="node">
<title>Node1</title>
<g id="a_Node000001"><a xlink:title=" ">
<polygon fill="#999999" stroke="#666666" points="904,-112 758,-112 758,-82 904,-82 904,-112"/>
<text text-anchor="start" x="766" y="-100" font-family="Helvetica,sans-Serif" font-size="10.00">Acts::FullBilloirVertexFitter</text>
<text text-anchor="middle" x="831" y="-89" font-family="Helvetica,sans-Serif" font-size="10.00">::Config</text>
</a>
</g>
</g>
<!-- Node2 -->
<g id="Node000002" class="node">
<title>Node2</title>
<g id="a_Node000002"><a xlink:href="class_acts_1_1_delegate.html" target="_top" xlink:title=" ">
<polygon fill="white" stroke="#666666" points="595,-160 417,-160 417,-130 595,-130 595,-160"/>
<text text-anchor="start" x="425" y="-148" font-family="Helvetica,sans-Serif" font-size="10.00">Acts::Delegate&lt; BoundTrack</text>
<text text-anchor="middle" x="506" y="-137" font-family="Helvetica,sans-Serif" font-size="10.00">Parameters(const InputTrack &amp;)&gt;</text>
</a>
</g>
</g>
<!-- Node2&#45;&gt;Node1 -->
<g id="edge1_Node000001_Node000002" class="edge">
<title>Node2&#45;&gt;Node1</title>
<g id="a_edge1_Node000001_Node000002"><a xlink:title=" ">
<path fill="none" stroke="#9a32cd" stroke-dasharray="5,2" d="M605.29,-130.39C654.47,-123.09 712.94,-114.4 757.9,-107.71"/>
<polygon fill="#9a32cd" stroke="#9a32cd" points="604.64,-126.95 595.26,-131.88 605.67,-133.88 604.64,-126.95"/>
</a>
</g>
<text text-anchor="start" x="646.5" y="-128.5" font-family="Helvetica,sans-Serif" font-size="10.00" fill="grey">extractParameters</text>
</g>
<!-- Node3 -->
<g id="Node000003" class="node">
<title>Node3</title>
<g id="a_Node000003"><a xlink:href="class_acts_1_1_delegate.html" target="_top" xlink:title=" ">
<polygon fill="white" stroke="#666666" points="152,-103 0,-103 0,-73 152,-73 152,-103"/>
<text text-anchor="start" x="8" y="-91" font-family="Helvetica,sans-Serif" font-size="10.00">Acts::Delegate&lt; typename,</text>
<text text-anchor="middle" x="76" y="-80" font-family="Helvetica,sans-Serif" font-size="10.00"> H, DelegateType &gt;</text>
</a>
</g>
</g>
<!-- Node3&#45;&gt;Node2 -->
<g id="edge2_Node000002_Node000003" class="edge">
<title>Node3&#45;&gt;Node2</title>
<g id="a_edge2_Node000002_Node000003"><a xlink:title=" ">
<path fill="none" stroke="orange" stroke-dasharray="5,2" d="M106.17,-108.81C123.76,-120.08 147.12,-132.92 170,-139 251.52,-160.66 348.16,-159.71 416.65,-154.81"/>
<polygon fill="orange" stroke="orange" points="107.81,-105.69 97.54,-103.1 103.95,-111.53 107.81,-105.69"/>
</a>
</g>
<text text-anchor="start" x="207.5" y="-178" font-family="Helvetica,sans-Serif" font-size="10.00" fill="grey">&lt; BoundTrackParameters</text>
<text text-anchor="start" x="207.5" y="-163" font-family="Helvetica,sans-Serif" font-size="10.00" fill="grey">  (const InputTrack &amp;)&gt;</text>
</g>
<!-- Node4 -->
<g id="Node000004" class="node">
<title>Node4</title>
<g id="a_Node000004"><a xlink:href="class_acts_1_1_delegate.html" target="_top" xlink:title=" ">
<polygon fill="white" stroke="#666666" points="625,-96 387,-96 387,0 625,0 625,-96"/>
<text text-anchor="start" x="395" y="-84" font-family="Helvetica,sans-Serif" font-size="10.00">Acts::Delegate&lt; Result</text>
<text text-anchor="start" x="395" y="-73" font-family="Helvetica,sans-Serif" font-size="10.00">&lt; LinearizedTrack &gt;(const</text>
<text text-anchor="start" x="395" y="-62" font-family="Helvetica,sans-Serif" font-size="10.00"> BoundTrackParameters &amp;params,</text>
<text text-anchor="start" x="395" y="-51" font-family="Helvetica,sans-Serif" font-size="10.00"> double linPointTime, const</text>
<text text-anchor="start" x="395" y="-40" font-family="Helvetica,sans-Serif" font-size="10.00"> Surface &amp;perigeeSurface, const</text>
<text text-anchor="start" x="395" y="-29" font-family="Helvetica,sans-Serif" font-size="10.00"> Acts::GeometryContext &amp;gctx, const</text>
<text text-anchor="start" x="395" y="-18" font-family="Helvetica,sans-Serif" font-size="10.00"> Acts::MagneticFieldContext &amp;mctx,</text>
<text text-anchor="middle" x="506" y="-7" font-family="Helvetica,sans-Serif" font-size="10.00"> MagneticFieldProvider::Cache &amp;fieldCache)&gt;</text>
</a>
</g>
</g>
<!-- Node3&#45;&gt;Node4 -->
<g id="edge4_Node000004_Node000003" class="edge">
<title>Node3&#45;&gt;Node4</title>
<g id="a_edge4_Node000004_Node000003"><a xlink:title=" ">
<path fill="none" stroke="orange" stroke-dasharray="5,2" d="M98,-65.39C115.41,-48.42 141.8,-26.53 170,-17 239.44,6.48 321.31,-0.51 386.73,-13.74"/>
<polygon fill="orange" stroke="orange" points="95.22,-63.22 90.65,-72.78 100.19,-68.16 95.22,-63.22"/>
</a>
</g>
<text text-anchor="start" x="173.5" y="-128" font-family="Helvetica,sans-Serif" font-size="10.00" fill="grey">&lt; Result&lt; LinearizedTrack</text>
<text text-anchor="start" x="173.5" y="-113" font-family="Helvetica,sans-Serif" font-size="10.00" fill="grey">   &gt;( const BoundTrackParameters</text>
<text text-anchor="start" x="173.5" y="-98" font-family="Helvetica,sans-Serif" font-size="10.00" fill="grey">   &amp;params, double linPointTime,</text>
<text text-anchor="start" x="173.5" y="-83" font-family="Helvetica,sans-Serif" font-size="10.00" fill="grey">   const Surface &amp;perigeeSurface,</text>
<text text-anchor="start" x="173.5" y="-68" font-family="Helvetica,sans-Serif" font-size="10.00" fill="grey">   const Acts::GeometryContext &amp;gctx,</text>
<text text-anchor="start" x="173.5" y="-53" font-family="Helvetica,sans-Serif" font-size="10.00" fill="grey">   const Acts::MagneticFieldContext</text>
<text text-anchor="start" x="173.5" y="-38" font-family="Helvetica,sans-Serif" font-size="10.00" fill="grey">   &amp;mctx, MagneticFieldProvider::Cache</text>
<text text-anchor="start" x="173.5" y="-23" font-family="Helvetica,sans-Serif" font-size="10.00" fill="grey">   &amp;fieldCache)&gt;</text>
</g>
<!-- Node4&#45;&gt;Node1 -->
<g id="edge3_Node000001_Node000004" class="edge">
<title>Node4&#45;&gt;Node1</title>
<g id="a_edge3_Node000001_Node000004"><a xlink:title=" ">
<path fill="none" stroke="#9a32cd" stroke-dasharray="5,2" d="M635.37,-67.47C676.94,-73.78 721.57,-80.55 757.59,-86.02"/>
<polygon fill="#9a32cd" stroke="#9a32cd" points="635.85,-64.01 625.44,-65.97 634.8,-70.93 635.85,-64.01"/>
</a>
</g>
<text text-anchor="start" x="655.5" y="-87.5" font-family="Helvetica,sans-Serif" font-size="10.00" fill="grey">trackLinearizer</text>
</g>
</g>
</svg>

<g id="navigator" transform="translate(0 0)" fill="#404254">
  <rect fill="#f2f5e9" fill-opacity="0.5" stroke="#606060" stroke-width=".5" x="0" y="0" width="60" height="60"/>
  <use id="zoomplus" xlink:href="#zoomPlus" x="17" y="9" onmousedown="handleZoom(evt,'in')"/>
  <use id="zoomminus" xlink:href="#zoomMin" x="42" y="9" onmousedown="handleZoom(evt,'out')"/>
  <use id="reset" xlink:href="#resetDef" x="30" y="36" onmousedown="handleReset()"/>
   <use id="arrowup" xlink:href="#arrowUp" x="0" y="0" onmousedown="handlePan(0,-1)"/>
  <use id="arrowright" xlink:href="#arrowRight" x="0" y="0" onmousedown="handlePan(1,0)"/>
  <use id="arrowdown" xlink:href="#arrowDown" x="0" y="0" onmousedown="handlePan(0,1)"/>
  <use id="arrowleft" xlink:href="#arrowLeft" x="0" y="0" onmousedown="handlePan(-1,0)"/>
</g>
<svg viewBox="0 0 15 15" width="100%" height="30px" preserveAspectRatio="xMaxYMin meet">
 <g id="arrow_out" transform="scale(0.3 0.3)">
  <a xlink:href="struct_acts_1_1_full_billoir_vertex_fitter_1_1_config__coll__graph_org.svg" target="_base">
   <rect id="button" ry="5" rx="5" y="6" x="6" height="38" width="38"
        fill="#f2f5e9" fill-opacity="0.5" stroke="#606060" stroke-width="1.0"/>
   <path id="arrow"
     d="M 11.500037,31.436501 C 11.940474,20.09759 22.043105,11.32322 32.158766,21.979434 L 37.068811,17.246167 C 37.068811,17.246167 37.088388,32 37.088388,32 L 22.160133,31.978069 C 22.160133,31.978069 26.997745,27.140456 26.997745,27.140456 C 18.528582,18.264221 13.291696,25.230495 11.500037,31.436501 z"
     style="fill:#404040;"/>
  </a>
 </g>
</svg>

<style type='text/css'>
<![CDATA[
[data-mouse-over-selected='false'] { opacity: 0.7; }
[data-mouse-over-selected='true']  { opacity: 1.0; }
]]>
</style>
<script type="application/ecmascript"><![CDATA[
document.addEventListener('DOMContentLoaded', (event) => {
  highlightEdges();
  highlightAdjacentNodes();
});
]]></script>
</svg>
