<?xml version="1.0" encoding="UTF-8" standalone="no"?>
<!DOCTYPE svg PUBLIC "-//W3C//DTD SVG 1.1//EN"
 "http://www.w3.org/Graphics/SVG/1.1/DTD/svg11.dtd">
<!-- Generated by graphviz version 2.43.0 (0)
 -->
<!-- Title: Acts::SpacePointBuilderOptions Pages: 1 -->
<svg width="221pt" height="223pt"
 viewBox="0.00 0.00 220.50 223.00" xmlns="http://www.w3.org/2000/svg" xmlns:xlink="http://www.w3.org/1999/xlink">
<g id="graph0" class="graph" transform="scale(1 1) rotate(0) translate(4 219)">
<title>Acts::SpacePointBuilderOptions</title>
<!-- Node1 -->
<g id="Node000001" class="node">
<title>Node1</title>
<g id="a_Node000001"><a xlink:title=" ">
<polygon fill="#999999" stroke="#666666" points="171.5,-19 1.5,-19 1.5,0 171.5,0 171.5,-19"/>
<text text-anchor="middle" x="86.5" y="-7" font-family="Helvetica,sans-Serif" font-size="10.00">Acts::SpacePointBuilderOptions</text>
</a>
</g>
</g>
<!-- Node2 -->
<g id="Node000002" class="node">
<title>Node2</title>
<g id="a_Node000002"><a xlink:title=" ">
<polygon fill="white" stroke="#666666" points="173,-113 0,-113 0,-72 173,-72 173,-113"/>
<text text-anchor="start" x="8" y="-101" font-family="Helvetica,sans-Serif" font-size="10.00">std::pair&lt; std::pair</text>
<text text-anchor="start" x="8" y="-90" font-family="Helvetica,sans-Serif" font-size="10.00">&lt; Vector3, Vector3 &gt;,</text>
<text text-anchor="middle" x="86.5" y="-79" font-family="Helvetica,sans-Serif" font-size="10.00"> std::pair&lt; Vector3, Vector3 &gt; &gt;</text>
</a>
</g>
</g>
<!-- Node2&#45;&gt;Node1 -->
<g id="edge1_Node000001_Node000002" class="edge">
<title>Node2&#45;&gt;Node1</title>
<g id="a_edge1_Node000001_Node000002"><a xlink:title=" ">
<path fill="none" stroke="#9a32cd" stroke-dasharray="5,2" d="M86.5,-61.83C86.5,-46.61 86.5,-29.19 86.5,-19.06"/>
<polygon fill="#9a32cd" stroke="#9a32cd" points="83,-61.89 86.5,-71.89 90,-61.89 83,-61.89"/>
</a>
</g>
<text text-anchor="start" x="89.5" y="-42.5" font-family="Helvetica,sans-Serif" font-size="10.00" fill="grey">stripEndsPair</text>
</g>
<!-- Node3 -->
<g id="Node000003" class="node">
<title>Node3</title>
<g id="a_Node000003"><a xlink:title=" ">
<polygon fill="white" stroke="#666666" points="141,-215 32,-215 32,-196 141,-196 141,-215"/>
<text text-anchor="middle" x="86.5" y="-203" font-family="Helvetica,sans-Serif" font-size="10.00">std::pair&lt; T1, T2 &gt;</text>
</a>
</g>
</g>
<!-- Node3&#45;&gt;Node2 -->
<g id="edge2_Node000002_Node000003" class="edge">
<title>Node3&#45;&gt;Node2</title>
<g id="a_edge2_Node000002_Node000003"><a xlink:title=" ">
<path fill="none" stroke="orange" stroke-dasharray="5,2" d="M86.5,-185.7C86.5,-165.55 86.5,-133.7 86.5,-113.21"/>
<polygon fill="orange" stroke="orange" points="83,-185.79 86.5,-195.79 90,-185.79 83,-185.79"/>
</a>
</g>
<text text-anchor="start" x="89.5" y="-166.5" font-family="Helvetica,sans-Serif" font-size="10.00" fill="grey">&lt; std::pair&lt; Vector3,</text>
<text text-anchor="start" x="89.5" y="-151.5" font-family="Helvetica,sans-Serif" font-size="10.00" fill="grey">   Vector3 &gt;, std::pair</text>
<text text-anchor="start" x="89.5" y="-136.5" font-family="Helvetica,sans-Serif" font-size="10.00" fill="grey">  &lt; Vector3, Vector3 &gt; &gt;</text>
</g>
</g>
</svg>
