<?xml version="1.0" encoding="UTF-8" standalone="no"?>
<!DOCTYPE svg PUBLIC "-//W3C//DTD SVG 1.1//EN"
 "http://www.w3.org/Graphics/SVG/1.1/DTD/svg11.dtd">
<!-- Generated by graphviz version 2.43.0 (0)
 -->
<!-- Title: ActsFatras::BoundParametersSmearer&lt; generator_t, kSize &gt; Pages: 1 -->
<!--zoomable 153 -->

<svg id="main" version="1.1" xmlns="http://www.w3.org/2000/svg" xmlns:xlink="http://www.w3.org/1999/xlink" xml:space="preserve" onload="init(evt)">

<style type="text/css"><![CDATA[
.node, .edge {opacity: 0.7;}
.node.selected, .edge.selected {opacity: 1;}
.edge:hover path { stroke: red; }
.edge:hover polygon { stroke: red; fill: red; }
]]></style>

<defs>
  <circle id="rim" cx="0" cy="0" r="7"/>
  <circle id="rim2" cx="0" cy="0" r="3.5"/>
  <g id="zoomPlus">
    <use xlink:href="#rim" fill="#404040"><set attributeName="fill" to="#808080" begin="zoomplus.mouseover" end="zoomplus.mouseout"/></use>
    <path d="M-4,0h8M0,-4v8" fill="none" stroke="white" stroke-width="1.5" pointer-events="none"/>
  </g>
  <g id="zoomMin">
    <use xlink:href="#rim" fill="#404040"><set attributeName="fill" to="#808080" begin="zoomminus.mouseover" end="zoomminus.mouseout"/></use>
    <path d="M-4,0h8" fill="none" stroke="white" stroke-width="1.5" pointer-events="none"/>
  </g>
  <g id="arrowUp" transform="translate(30 24)">
    <use xlink:href="#rim"/>
    <path pointer-events="none" fill="none" stroke="white" stroke-width="1.5" d="M0,-3.0v7 M-2.5,-0.5L0,-3.0L2.5,-0.5"/>
  </g>
  <g id="arrowRight" transform="rotate(90) translate(36 -43)">
    <use xlink:href="#rim"/>
    <path pointer-events="none" fill="none" stroke="white" stroke-width="1.5" d="M0,-3.0v7 M-2.5,-0.5L0,-3.0L2.5,-0.5"/>
  </g>
  <g id="arrowDown" transform="rotate(180) translate(-30 -48)">
    <use xlink:href="#rim"/>
    <path pointer-events="none" fill="none" stroke="white" stroke-width="1.5" d="M0,-3.0v7 M-2.5,-0.5L0,-3.0L2.5,-0.5"/>
  </g>
  <g id="arrowLeft" transform="rotate(270) translate(-36 17)">
    <use xlink:href="#rim"/>
    <path pointer-events="none" fill="none" stroke="white" stroke-width="1.5" d="M0,-3.0v7 M-2.5,-0.5L0,-3.0L2.5,-0.5"/>
  </g>
  <g id="resetDef">
    <use xlink:href="#rim2" fill="#404040"><set attributeName="fill" to="#808080" begin="reset.mouseover" end="reset.mouseout"/></use>
  </g>
</defs>
<script type="application/ecmascript">
var viewWidth = 766;
var viewHeight = 153;
var sectionId = 'dynsection-0';
</script>
<script type="application/ecmascript" xlink:href="svg.min.js"/>
<svg id="graph" class="graph">
<g id="viewport">
<title>ActsFatras::BoundParametersSmearer&lt; generator_t, kSize &gt;</title>
<!-- Node1 -->
<g id="Node000001" class="node">
<title>Node1</title>
<g id="a_Node000001"><a xlink:title="Uncorrelated smearing algorithm for fast digitisation of bound parameters.">
<polygon fill="#999999" stroke="#666666" points="758,-72.5 589,-72.5 589,-42.5 758,-42.5 758,-72.5"/>
<text text-anchor="start" x="597" y="-60.5" font-family="Helvetica,sans-Serif" font-size="10.00">ActsFatras::BoundParameters</text>
<text text-anchor="middle" x="673.5" y="-49.5" font-family="Helvetica,sans-Serif" font-size="10.00">Smearer&lt; generator_t, kSize &gt;</text>
</a>
</g>
</g>
<!-- Node2 -->
<g id="Node000002" class="node">
<title>Node2</title>
<g id="a_Node000002"><a xlink:title=" ">
<polygon fill="white" stroke="#666666" points="469,-126.5 299,-126.5 299,-96.5 469,-96.5 469,-126.5"/>
<text text-anchor="start" x="307" y="-114.5" font-family="Helvetica,sans-Serif" font-size="10.00">std::array&lt; Acts::BoundIndices,</text>
<text text-anchor="middle" x="384" y="-103.5" font-family="Helvetica,sans-Serif" font-size="10.00"> kSize &gt;</text>
</a>
</g>
</g>
<!-- Node2&#45;&gt;Node1 -->
<g id="edge1_Node000001_Node000002" class="edge">
<title>Node2&#45;&gt;Node1</title>
<g id="a_edge1_Node000001_Node000002"><a xlink:title=" ">
<path fill="none" stroke="#9a32cd" stroke-dasharray="5,2" d="M479.2,-95.32C508.63,-90.12 541.2,-84.23 571,-78.5 580.72,-76.63 590.95,-74.6 601.02,-72.56"/>
<polygon fill="#9a32cd" stroke="#9a32cd" points="478.59,-91.88 469.35,-97.06 479.81,-98.77 478.59,-91.88"/>
</a>
</g>
<text text-anchor="start" x="512" y="-99" font-family="Helvetica,sans-Serif" font-size="10.00" fill="grey">indices</text>
</g>
<!-- Node3 -->
<g id="Node000003" class="node">
<title>Node3</title>
<g id="a_Node000003"><a xlink:title=" ">
<polygon fill="white" stroke="#666666" points="92,-66 0,-66 0,-47 92,-47 92,-66"/>
<text text-anchor="middle" x="46" y="-54" font-family="Helvetica,sans-Serif" font-size="10.00">std::array&lt; T &gt;</text>
</a>
</g>
</g>
<!-- Node3&#45;&gt;Node2 -->
<g id="edge2_Node000002_Node000003" class="edge">
<title>Node3&#45;&gt;Node2</title>
<g id="a_edge2_Node000002_Node000003"><a xlink:title=" ">
<path fill="none" stroke="orange" stroke-dasharray="5,2" d="M69.88,-71.34C81.44,-78.08 95.96,-85.44 110,-89.5 171.55,-107.3 243.94,-112.45 298.71,-113.35"/>
<polygon fill="orange" stroke="orange" points="71.67,-68.34 61.31,-66.14 68.04,-74.32 71.67,-68.34"/>
</a>
</g>
<text text-anchor="start" x="142.5" y="-133.5" font-family="Helvetica,sans-Serif" font-size="10.00" fill="grey">&lt; Acts::BoundIndices,</text>
<text text-anchor="start" x="142.5" y="-118.5" font-family="Helvetica,sans-Serif" font-size="10.00" fill="grey">   kSize &gt;</text>
</g>
<!-- Node4 -->
<g id="Node000004" class="node">
<title>Node4</title>
<g id="a_Node000004"><a xlink:title=" ">
<polygon fill="white" stroke="#666666" points="461.5,-78 306.5,-78 306.5,-37 461.5,-37 461.5,-78"/>
<text text-anchor="start" x="314.5" y="-66" font-family="Helvetica,sans-Serif" font-size="10.00">std::array&lt; SingleParameter</text>
<text text-anchor="start" x="314.5" y="-55" font-family="Helvetica,sans-Serif" font-size="10.00">SmearFunction&lt; generator</text>
<text text-anchor="middle" x="384" y="-44" font-family="Helvetica,sans-Serif" font-size="10.00">_t &gt;, kSize &gt;</text>
</a>
</g>
</g>
<!-- Node3&#45;&gt;Node4 -->
<g id="edge4_Node000004_Node000003" class="edge">
<title>Node3&#45;&gt;Node4</title>
<g id="a_edge4_Node000004_Node000003"><a xlink:title=" ">
<path fill="none" stroke="orange" stroke-dasharray="5,2" d="M102.33,-56.66C157.95,-56.83 244.12,-57.09 306.32,-57.27"/>
<polygon fill="orange" stroke="orange" points="102.32,-53.16 92.31,-56.63 102.3,-60.16 102.32,-53.16"/>
</a>
</g>
<text text-anchor="start" x="113.5" y="-77.5" font-family="Helvetica,sans-Serif" font-size="10.00" fill="grey">&lt; SingleParameterSmearFunction</text>
<text text-anchor="start" x="113.5" y="-62.5" font-family="Helvetica,sans-Serif" font-size="10.00" fill="grey">  &lt; generator_t &gt;, kSize &gt;</text>
</g>
<!-- Node5 -->
<g id="Node000005" class="node">
<title>Node5</title>
<g id="a_Node000005"><a xlink:title=" ">
<polygon fill="white" stroke="#666666" points="453.5,-19 314.5,-19 314.5,0 453.5,0 453.5,-19"/>
<text text-anchor="middle" x="384" y="-7" font-family="Helvetica,sans-Serif" font-size="10.00">std::array&lt; bool, kSize &gt;</text>
</a>
</g>
</g>
<!-- Node3&#45;&gt;Node5 -->
<g id="edge6_Node000005_Node000003" class="edge">
<title>Node3&#45;&gt;Node5</title>
<g id="a_edge6_Node000005_Node000003"><a xlink:title=" ">
<path fill="none" stroke="orange" stroke-dasharray="5,2" d="M81.12,-43.56C90.38,-40.48 100.47,-37.51 110,-35.5 178.71,-20.97 258.87,-14.56 314.48,-11.72"/>
<polygon fill="orange" stroke="orange" points="79.78,-40.32 71.48,-46.9 82.07,-46.94 79.78,-40.32"/>
</a>
</g>
<text text-anchor="start" x="157.5" y="-41" font-family="Helvetica,sans-Serif" font-size="10.00" fill="grey">&lt; bool, kSize &gt;</text>
</g>
<!-- Node4&#45;&gt;Node1 -->
<g id="edge3_Node000001_Node000004" class="edge">
<title>Node4&#45;&gt;Node1</title>
<g id="a_edge3_Node000001_Node000004"><a xlink:title=" ">
<path fill="none" stroke="#9a32cd" stroke-dasharray="5,2" d="M471.97,-57.5C509.09,-57.5 552.24,-57.5 588.98,-57.5"/>
<polygon fill="#9a32cd" stroke="#9a32cd" points="471.67,-54 461.67,-57.5 471.67,-61 471.67,-54"/>
</a>
</g>
<text text-anchor="start" x="490" y="-63" font-family="Helvetica,sans-Serif" font-size="10.00" fill="grey">smearFunctions</text>
</g>
<!-- Node5&#45;&gt;Node1 -->
<g id="edge5_Node000001_Node000005" class="edge">
<title>Node5&#45;&gt;Node1</title>
<g id="a_edge5_Node000001_Node000005"><a xlink:title=" ">
<path fill="none" stroke="#9a32cd" stroke-dasharray="5,2" d="M463.72,-19.86C496.91,-24.51 535.91,-30.33 571,-36.5 581.28,-38.31 592.11,-40.37 602.72,-42.49"/>
<polygon fill="#9a32cd" stroke="#9a32cd" points="464,-16.37 453.62,-18.46 463.04,-23.3 464,-16.37"/>
</a>
</g>
<text text-anchor="start" x="497" y="-42" font-family="Helvetica,sans-Serif" font-size="10.00" fill="grey">forcePositive</text>
</g>
</g>
</svg>

<g id="navigator" transform="translate(0 0)" fill="#404254">
  <rect fill="#f2f5e9" fill-opacity="0.5" stroke="#606060" stroke-width=".5" x="0" y="0" width="60" height="60"/>
  <use id="zoomplus" xlink:href="#zoomPlus" x="17" y="9" onmousedown="handleZoom(evt,'in')"/>
  <use id="zoomminus" xlink:href="#zoomMin" x="42" y="9" onmousedown="handleZoom(evt,'out')"/>
  <use id="reset" xlink:href="#resetDef" x="30" y="36" onmousedown="handleReset()"/>
   <use id="arrowup" xlink:href="#arrowUp" x="0" y="0" onmousedown="handlePan(0,-1)"/>
  <use id="arrowright" xlink:href="#arrowRight" x="0" y="0" onmousedown="handlePan(1,0)"/>
  <use id="arrowdown" xlink:href="#arrowDown" x="0" y="0" onmousedown="handlePan(0,1)"/>
  <use id="arrowleft" xlink:href="#arrowLeft" x="0" y="0" onmousedown="handlePan(-1,0)"/>
</g>
<svg viewBox="0 0 15 15" width="100%" height="30px" preserveAspectRatio="xMaxYMin meet">
 <g id="arrow_out" transform="scale(0.3 0.3)">
  <a xlink:href="struct_acts_fatras_1_1_bound_parameters_smearer__coll__graph_org.svg" target="_base">
   <rect id="button" ry="5" rx="5" y="6" x="6" height="38" width="38"
        fill="#f2f5e9" fill-opacity="0.5" stroke="#606060" stroke-width="1.0"/>
   <path id="arrow"
     d="M 11.500037,31.436501 C 11.940474,20.09759 22.043105,11.32322 32.158766,21.979434 L 37.068811,17.246167 C 37.068811,17.246167 37.088388,32 37.088388,32 L 22.160133,31.978069 C 22.160133,31.978069 26.997745,27.140456 26.997745,27.140456 C 18.528582,18.264221 13.291696,25.230495 11.500037,31.436501 z"
     style="fill:#404040;"/>
  </a>
 </g>
</svg>

<style type='text/css'>
<![CDATA[
[data-mouse-over-selected='false'] { opacity: 0.7; }
[data-mouse-over-selected='true']  { opacity: 1.0; }
]]>
</style>
<script type="application/ecmascript"><![CDATA[
document.addEventListener('DOMContentLoaded', (event) => {
  highlightEdges();
  highlightAdjacentNodes();
});
]]></script>
</svg>
