<?xml version="1.0" encoding="UTF-8" standalone="no"?>
<!DOCTYPE svg PUBLIC "-//W3C//DTD SVG 1.1//EN"
 "http://www.w3.org/Graphics/SVG/1.1/DTD/svg11.dtd">
<!-- Generated by graphviz version 2.43.0 (0)
 -->
<!-- Title: Acts::Navigator::Options Pages: 1 -->
<svg width="2244pt" height="611pt"
 viewBox="0.00 0.00 2244.00 611.00" xmlns="http://www.w3.org/2000/svg" xmlns:xlink="http://www.w3.org/1999/xlink">
<g id="graph0" class="graph" transform="scale(1 1) rotate(0) translate(4 607)">
<title>Acts::Navigator::Options</title>
<!-- Node1 -->
<g id="Node000001" class="node">
<title>Node1</title>
<g id="a_Node000001"><a xlink:title="The navigator options.">
<polygon fill="#999999" stroke="#666666" points="2236,-150.5 2101,-150.5 2101,-131.5 2236,-131.5 2236,-150.5"/>
<text text-anchor="middle" x="2168.5" y="-138.5" font-family="Helvetica,sans-Serif" font-size="10.00">Acts::Navigator::Options</text>
</a>
</g>
</g>
<!-- Node2 -->
<g id="Node000002" class="node">
<title>Node2</title>
<g id="a_Node000002"><a xlink:href="struct_acts_1_1_navigator_plain_options.html" target="_top" xlink:title=" ">
<polygon fill="white" stroke="#666666" points="1947,-210.5 1794,-210.5 1794,-191.5 1947,-191.5 1947,-210.5"/>
<text text-anchor="middle" x="1870.5" y="-198.5" font-family="Helvetica,sans-Serif" font-size="10.00">Acts::NavigatorPlainOptions</text>
</a>
</g>
</g>
<!-- Node2&#45;&gt;Node1 -->
<g id="edge1_Node000001_Node000002" class="edge">
<title>Node2&#45;&gt;Node1</title>
<g id="a_edge1_Node000001_Node000002"><a xlink:title=" ">
<path fill="none" stroke="#63b8ff" d="M1957.48,-195.54C1996.27,-191.77 2042.39,-185.48 2083,-175 2105.97,-169.08 2131.03,-158.42 2147.85,-150.61"/>
<polygon fill="#63b8ff" stroke="#63b8ff" points="1956.9,-192.07 1947.27,-196.49 1957.55,-199.04 1956.9,-192.07"/>
</a>
</g>
</g>
<!-- Node3 -->
<g id="Node000003" class="node">
<title>Node3</title>
<g id="a_Node000003"><a xlink:href="class_acts_1_1_surface.html" target="_top" xlink:title="Abstract Base Class for tracking surfaces.">
<polygon fill="white" stroke="#666666" points="1539,-211.5 1459,-211.5 1459,-192.5 1539,-192.5 1539,-211.5"/>
<text text-anchor="middle" x="1499" y="-199.5" font-family="Helvetica,sans-Serif" font-size="10.00">Acts::Surface</text>
</a>
</g>
</g>
<!-- Node3&#45;&gt;Node2 -->
<g id="edge2_Node000002_Node000003" class="edge">
<title>Node3&#45;&gt;Node2</title>
<g id="a_edge2_Node000002_Node000003"><a xlink:title=" ">
<path fill="none" stroke="#9a32cd" stroke-dasharray="5,2" d="M1549.2,-201.87C1611.77,-201.7 1720.45,-201.4 1793.66,-201.21"/>
<polygon fill="#9a32cd" stroke="#9a32cd" points="1549.18,-198.37 1539.19,-201.89 1549.2,-205.37 1549.18,-198.37"/>
</a>
</g>
<text text-anchor="start" x="1644" y="-222" font-family="Helvetica,sans-Serif" font-size="10.00" fill="grey">startSurface</text>
<text text-anchor="start" x="1644" y="-207" font-family="Helvetica,sans-Serif" font-size="10.00" fill="grey">targetSurface</text>
</g>
<!-- Node4 -->
<g id="Node000004" class="node">
<title>Node4</title>
<g id="a_Node000004"><a xlink:href="class_acts_1_1_geometry_object.html" target="_top" xlink:title="Base class to provide GeometryIdentifier interface:">
<polygon fill="white" stroke="#666666" points="374,-283.5 250,-283.5 250,-264.5 374,-264.5 374,-283.5"/>
<text text-anchor="middle" x="312" y="-271.5" font-family="Helvetica,sans-Serif" font-size="10.00">Acts::GeometryObject</text>
</a>
</g>
</g>
<!-- Node4&#45;&gt;Node3 -->
<g id="edge3_Node000003_Node000004" class="edge">
<title>Node4&#45;&gt;Node3</title>
<g id="a_edge3_Node000003_Node000004"><a xlink:title=" ">
<path fill="none" stroke="#63b8ff" d="M339.76,-259.81C370.19,-245.03 421.78,-224 469,-224 469,-224 469,-224 1179.5,-224 1280.38,-224 1398.8,-212.88 1458.83,-206.45"/>
<polygon fill="#63b8ff" stroke="#63b8ff" points="338.04,-256.76 330.66,-264.36 341.17,-263.02 338.04,-256.76"/>
</a>
</g>
</g>
<!-- Node12 -->
<g id="Node000012" class="node">
<title>Node12</title>
<g id="a_Node000012"><a xlink:href="class_acts_1_1_layer.html" target="_top" xlink:title="Base Class for a Detector Layer in the Tracking Geometry.">
<polygon fill="white" stroke="#666666" points="1214,-397.5 1143,-397.5 1143,-378.5 1214,-378.5 1214,-397.5"/>
<text text-anchor="middle" x="1178.5" y="-385.5" font-family="Helvetica,sans-Serif" font-size="10.00">Acts::Layer</text>
</a>
</g>
</g>
<!-- Node4&#45;&gt;Node12 -->
<g id="edge12_Node000012_Node000004" class="edge">
<title>Node4&#45;&gt;Node12</title>
<g id="a_edge12_Node000012_Node000004"><a xlink:title=" ">
<path fill="none" stroke="#63b8ff" d="M367.32,-285.57C381.49,-288.31 396.78,-291 411,-293 708.54,-334.81 790.58,-292.34 1084,-357 1108.05,-362.3 1134.63,-371.45 1153.28,-378.43"/>
<polygon fill="#63b8ff" stroke="#63b8ff" points="367.72,-282.08 357.23,-283.59 366.37,-288.95 367.72,-282.08"/>
</a>
</g>
</g>
<!-- Node19 -->
<g id="Node000019" class="node">
<title>Node19</title>
<g id="a_Node000019"><a xlink:href="class_acts_1_1_volume.html" target="_top" xlink:title="It inherits from GeometryObject for geometry identification.">
<polygon fill="white" stroke="#666666" points="510,-283.5 430,-283.5 430,-264.5 510,-264.5 510,-283.5"/>
<text text-anchor="middle" x="470" y="-271.5" font-family="Helvetica,sans-Serif" font-size="10.00">Acts::Volume</text>
</a>
</g>
</g>
<!-- Node4&#45;&gt;Node19 -->
<g id="edge22_Node000019_Node000004" class="edge">
<title>Node4&#45;&gt;Node19</title>
<g id="a_edge22_Node000019_Node000004"><a xlink:title=" ">
<path fill="none" stroke="#63b8ff" d="M384.44,-274C400.12,-274 416.16,-274 430,-274"/>
<polygon fill="#63b8ff" stroke="#63b8ff" points="384.21,-270.5 374.21,-274 384.21,-277.5 384.21,-270.5"/>
</a>
</g>
</g>
<!-- Node5 -->
<g id="Node000005" class="node">
<title>Node5</title>
<g id="a_Node000005"><a xlink:href="class_acts_1_1_geometry_identifier.html" target="_top" xlink:title="Identifier for geometry nodes within the geometry hierarchy.">
<polygon fill="white" stroke="#666666" points="136,-283.5 0,-283.5 0,-264.5 136,-264.5 136,-283.5"/>
<text text-anchor="middle" x="68" y="-271.5" font-family="Helvetica,sans-Serif" font-size="10.00">Acts::GeometryIdentifier</text>
</a>
</g>
</g>
<!-- Node5&#45;&gt;Node4 -->
<g id="edge4_Node000004_Node000005" class="edge">
<title>Node5&#45;&gt;Node4</title>
<g id="a_edge4_Node000004_Node000005"><a xlink:title=" ">
<path fill="none" stroke="#9a32cd" stroke-dasharray="5,2" d="M146.31,-274C179.84,-274 218.54,-274 249.99,-274"/>
<polygon fill="#9a32cd" stroke="#9a32cd" points="146.09,-270.5 136.09,-274 146.09,-277.5 146.09,-270.5"/>
</a>
</g>
<text text-anchor="start" x="157" y="-279.5" font-family="Helvetica,sans-Serif" font-size="10.00" fill="grey">m_geometryId</text>
</g>
<!-- Node6 -->
<g id="Node000006" class="node">
<title>Node6</title>
<g id="a_Node000006"><a xlink:title=" ">
<polygon fill="white" stroke="#666666" points="1242.5,-196 1114.5,-196 1114.5,-166 1242.5,-166 1242.5,-196"/>
<text text-anchor="start" x="1122.5" y="-184" font-family="Helvetica,sans-Serif" font-size="10.00">std::enable_shared</text>
<text text-anchor="middle" x="1178.5" y="-173" font-family="Helvetica,sans-Serif" font-size="10.00">_from_this&lt; Surface &gt;</text>
</a>
</g>
</g>
<!-- Node6&#45;&gt;Node3 -->
<g id="edge5_Node000003_Node000006" class="edge">
<title>Node6&#45;&gt;Node3</title>
<g id="a_edge5_Node000003_Node000006"><a xlink:title=" ">
<path fill="none" stroke="#63b8ff" d="M1252.87,-185.84C1317.03,-190.07 1407.72,-196.05 1458.9,-199.42"/>
<polygon fill="#63b8ff" stroke="#63b8ff" points="1253.01,-182.34 1242.81,-185.17 1252.55,-189.32 1253.01,-182.34"/>
</a>
</g>
</g>
<!-- Node7 -->
<g id="Node000007" class="node">
<title>Node7</title>
<g id="a_Node000007"><a xlink:title=" ">
<polygon fill="white" stroke="#666666" points="1255,-147.5 1102,-147.5 1102,-106.5 1255,-106.5 1255,-147.5"/>
<text text-anchor="start" x="1110" y="-135.5" font-family="Helvetica,sans-Serif" font-size="10.00">std::array&lt; std::string</text>
<text text-anchor="start" x="1110" y="-124.5" font-family="Helvetica,sans-Serif" font-size="10.00">_view, Surface::SurfaceType</text>
<text text-anchor="middle" x="1178.5" y="-113.5" font-family="Helvetica,sans-Serif" font-size="10.00">::Other+1 &gt;</text>
</a>
</g>
</g>
<!-- Node7&#45;&gt;Node3 -->
<g id="edge6_Node000003_Node000007" class="edge">
<title>Node7&#45;&gt;Node3</title>
<g id="a_edge6_Node000003_Node000007"><a xlink:title=" ">
<path fill="none" stroke="#9a32cd" stroke-dasharray="5,2" d="M1265.26,-137.75C1307.74,-144.1 1359.54,-153.4 1405,-166 1430.36,-173.03 1458.39,-184.4 1476.98,-192.48"/>
<polygon fill="#9a32cd" stroke="#9a32cd" points="1265.64,-134.27 1255.24,-136.28 1264.62,-141.19 1265.64,-134.27"/>
</a>
</g>
<text text-anchor="start" x="1287" y="-171.5" font-family="Helvetica,sans-Serif" font-size="10.00" fill="grey">s_surfaceTypeNames</text>
</g>
<!-- Node8 -->
<g id="Node000008" class="node">
<title>Node8</title>
<g id="a_Node000008"><a xlink:title=" ">
<polygon fill="white" stroke="#666666" points="869,-136.5 777,-136.5 777,-117.5 869,-117.5 869,-136.5"/>
<text text-anchor="middle" x="823" y="-124.5" font-family="Helvetica,sans-Serif" font-size="10.00">std::array&lt; T &gt;</text>
</a>
</g>
</g>
<!-- Node8&#45;&gt;Node7 -->
<g id="edge7_Node000007_Node000008" class="edge">
<title>Node8&#45;&gt;Node7</title>
<g id="a_edge7_Node000007_Node000008"><a xlink:title=" ">
<path fill="none" stroke="orange" stroke-dasharray="5,2" d="M879.14,-127C938.95,-127 1034.84,-127 1101.71,-127"/>
<polygon fill="orange" stroke="orange" points="879.13,-123.5 869.13,-127 879.13,-130.5 879.13,-123.5"/>
</a>
</g>
<text text-anchor="start" x="945" y="-162.5" font-family="Helvetica,sans-Serif" font-size="10.00" fill="grey">&lt; std::string_view,</text>
<text text-anchor="start" x="945" y="-147.5" font-family="Helvetica,sans-Serif" font-size="10.00" fill="grey">   Surface::SurfaceType</text>
<text text-anchor="start" x="945" y="-132.5" font-family="Helvetica,sans-Serif" font-size="10.00" fill="grey">  ::Other+1 &gt;</text>
</g>
<!-- Node9 -->
<g id="Node000009" class="node">
<title>Node9</title>
<g id="a_Node000009"><a xlink:title=" ">
<polygon fill="white" stroke="#666666" points="1064.5,-596 937.5,-596 937.5,-566 1064.5,-566 1064.5,-596"/>
<text text-anchor="start" x="945.5" y="-584" font-family="Helvetica,sans-Serif" font-size="10.00">std::unique_ptr&lt; const</text>
<text text-anchor="middle" x="1001" y="-573" font-family="Helvetica,sans-Serif" font-size="10.00"> Transform3 &gt;</text>
</a>
</g>
</g>
<!-- Node9&#45;&gt;Node3 -->
<g id="edge8_Node000003_Node000009" class="edge">
<title>Node9&#45;&gt;Node3</title>
<g id="a_edge8_Node000003_Node000009"><a xlink:title=" ">
<path fill="none" stroke="#9a32cd" stroke-dasharray="5,2" d="M1074.58,-563.6C1077.79,-562.46 1080.94,-561.26 1084,-560 1236.9,-497.1 1289.81,-490.61 1405,-372 1454.22,-321.32 1485.27,-239.39 1494.84,-211.59"/>
<polygon fill="#9a32cd" stroke="#9a32cd" points="1073.21,-560.37 1064.83,-566.85 1075.42,-567.01 1073.21,-560.37"/>
</a>
</g>
<text text-anchor="start" x="1146.5" y="-557.5" font-family="Helvetica,sans-Serif" font-size="10.00" fill="grey">m_transform</text>
</g>
<!-- Node10 -->
<g id="Node000010" class="node">
<title>Node10</title>
<g id="a_Node000010"><a xlink:title=" ">
<polygon fill="white" stroke="#666666" points="529,-507.5 411,-507.5 411,-488.5 529,-488.5 529,-507.5"/>
<text text-anchor="middle" x="470" y="-495.5" font-family="Helvetica,sans-Serif" font-size="10.00">std::unique_ptr&lt; T &gt;</text>
</a>
</g>
</g>
<!-- Node10&#45;&gt;Node9 -->
<g id="edge9_Node000009_Node000010" class="edge">
<title>Node10&#45;&gt;Node9</title>
<g id="a_edge9_Node000009_Node000010"><a xlink:title=" ">
<path fill="none" stroke="orange" stroke-dasharray="5,2" d="M488.45,-514.3C502.93,-526.74 524.7,-543.06 547,-551 679.72,-598.26 847.96,-594.15 937.4,-587.36"/>
<polygon fill="orange" stroke="orange" points="490.61,-511.54 480.81,-507.51 485.96,-516.77 490.61,-511.54"/>
</a>
</g>
<text text-anchor="start" x="584.5" y="-591.5" font-family="Helvetica,sans-Serif" font-size="10.00" fill="grey">&lt; const Transform3 &gt;</text>
</g>
<!-- Node16 -->
<g id="Node000016" class="node">
<title>Node16</title>
<g id="a_Node000016"><a xlink:title=" ">
<polygon fill="white" stroke="#666666" points="886.5,-557 759.5,-557 759.5,-527 886.5,-527 886.5,-557"/>
<text text-anchor="start" x="767.5" y="-545" font-family="Helvetica,sans-Serif" font-size="10.00">std::unique_ptr&lt; const</text>
<text text-anchor="middle" x="823" y="-534" font-family="Helvetica,sans-Serif" font-size="10.00"> Acts::SurfaceArray &gt;</text>
</a>
</g>
</g>
<!-- Node10&#45;&gt;Node16 -->
<g id="edge17_Node000016_Node000010" class="edge">
<title>Node10&#45;&gt;Node16</title>
<g id="a_edge17_Node000016_Node000010"><a xlink:title=" ">
<path fill="none" stroke="orange" stroke-dasharray="5,2" d="M539.32,-506.56C603.1,-514.56 697.48,-526.39 759.36,-534.15"/>
<polygon fill="orange" stroke="orange" points="539.71,-503.09 529.35,-505.32 538.84,-510.03 539.71,-503.09"/>
</a>
</g>
<text text-anchor="start" x="566.5" y="-535.5" font-family="Helvetica,sans-Serif" font-size="10.00" fill="grey">&lt; const Acts::SurfaceArray &gt;</text>
</g>
<!-- Node17 -->
<g id="Node000017" class="node">
<title>Node17</title>
<g id="a_Node000017"><a xlink:title=" ">
<polygon fill="white" stroke="#666666" points="900,-471 746,-471 746,-441 900,-441 900,-471"/>
<text text-anchor="start" x="754" y="-459" font-family="Helvetica,sans-Serif" font-size="10.00">std::unique_ptr&lt; const</text>
<text text-anchor="middle" x="823" y="-448" font-family="Helvetica,sans-Serif" font-size="10.00"> Acts::ApproachDescriptor &gt;</text>
</a>
</g>
</g>
<!-- Node10&#45;&gt;Node17 -->
<g id="edge19_Node000017_Node000010" class="edge">
<title>Node10&#45;&gt;Node17</title>
<g id="a_edge19_Node000017_Node000010"><a xlink:title=" ">
<path fill="none" stroke="orange" stroke-dasharray="5,2" d="M516.2,-486.16C526.28,-483.83 536.96,-481.62 547,-480 613.71,-469.25 690.36,-463.06 745.76,-459.67"/>
<polygon fill="orange" stroke="orange" points="515.28,-482.78 506.36,-488.5 516.9,-489.59 515.28,-482.78"/>
</a>
</g>
<text text-anchor="start" x="550.5" y="-485.5" font-family="Helvetica,sans-Serif" font-size="10.00" fill="grey">&lt; const Acts::ApproachDescriptor &gt;</text>
</g>
<!-- Node20 -->
<g id="Node000020" class="node">
<title>Node20</title>
<g id="a_Node000020"><a xlink:title=" ">
<polygon fill="white" stroke="#666666" points="884,-423 762,-423 762,-393 884,-393 884,-423"/>
<text text-anchor="start" x="770" y="-411" font-family="Helvetica,sans-Serif" font-size="10.00">std::unique_ptr&lt; Acts</text>
<text text-anchor="middle" x="823" y="-400" font-family="Helvetica,sans-Serif" font-size="10.00">::Volume &gt;</text>
</a>
</g>
</g>
<!-- Node10&#45;&gt;Node20 -->
<g id="edge24_Node000020_Node000010" class="edge">
<title>Node10&#45;&gt;Node20</title>
<g id="a_edge24_Node000020_Node000010"><a xlink:title=" ">
<path fill="none" stroke="orange" stroke-dasharray="5,2" d="M487.77,-480.87C502.15,-467.34 524.1,-449.25 547,-440 616.97,-411.74 704.55,-406.11 761.82,-405.98"/>
<polygon fill="orange" stroke="orange" points="484.96,-478.73 480.24,-488.21 489.84,-483.74 484.96,-478.73"/>
</a>
</g>
<text text-anchor="start" x="594.5" y="-445.5" font-family="Helvetica,sans-Serif" font-size="10.00" fill="grey">&lt; Acts::Volume &gt;</text>
</g>
<!-- Node11 -->
<g id="Node000011" class="node">
<title>Node11</title>
<g id="a_Node000011"><a xlink:href="class_acts_1_1_detector_element_base.html" target="_top" xlink:title="This class is the base of all detector elements that are usable by ACTS.">
<polygon fill="white" stroke="#666666" points="1253.5,-88.5 1103.5,-88.5 1103.5,-69.5 1253.5,-69.5 1253.5,-88.5"/>
<text text-anchor="middle" x="1178.5" y="-76.5" font-family="Helvetica,sans-Serif" font-size="10.00">Acts::DetectorElementBase</text>
</a>
</g>
</g>
<!-- Node11&#45;&gt;Node3 -->
<g id="edge10_Node000003_Node000011" class="edge">
<title>Node11&#45;&gt;Node3</title>
<g id="a_edge10_Node000003_Node000011"><a xlink:title=" ">
<path fill="none" stroke="#9a32cd" stroke-dasharray="5,2" d="M1263.58,-74.78C1309.79,-76.72 1365.56,-86.57 1405,-118 1421.2,-130.91 1409.13,-145.61 1423,-161 1435.91,-175.33 1455.05,-185.68 1470.76,-192.4"/>
<polygon fill="#9a32cd" stroke="#9a32cd" points="1263.68,-71.28 1253.57,-74.47 1263.46,-78.28 1263.68,-71.28"/>
</a>
</g>
<text text-anchor="start" x="1276" y="-123.5" font-family="Helvetica,sans-Serif" font-size="10.00" fill="grey">m_associatedDetElement</text>
</g>
<!-- Node12&#45;&gt;Node3 -->
<g id="edge11_Node000003_Node000012" class="edge">
<title>Node12&#45;&gt;Node3</title>
<g id="a_edge11_Node000003_Node000012"><a xlink:title=" ">
<path fill="none" stroke="#9a32cd" stroke-dasharray="5,2" d="M1216.05,-374.94C1262.1,-357.64 1342.74,-324.56 1405,-284 1438.91,-261.91 1473.17,-228.04 1488.98,-211.61"/>
<polygon fill="#9a32cd" stroke="#9a32cd" points="1214.65,-371.72 1206.49,-378.48 1217.09,-378.29 1214.65,-371.72"/>
</a>
</g>
<text text-anchor="start" x="1292" y="-356.5" font-family="Helvetica,sans-Serif" font-size="10.00" fill="grey">m_associatedLayer</text>
</g>
<!-- Node13 -->
<g id="Node000013" class="node">
<title>Node13</title>
<g id="a_Node000013"><a xlink:title=" ">
<polygon fill="white" stroke="#666666" points="885,-375 761,-375 761,-345 885,-345 885,-375"/>
<text text-anchor="start" x="769" y="-363" font-family="Helvetica,sans-Serif" font-size="10.00">std::pair&lt; const Layer</text>
<text text-anchor="middle" x="823" y="-352" font-family="Helvetica,sans-Serif" font-size="10.00"> *, const Layer * &gt;</text>
</a>
</g>
</g>
<!-- Node13&#45;&gt;Node12 -->
<g id="edge13_Node000012_Node000013" class="edge">
<title>Node13&#45;&gt;Node12</title>
<g id="a_edge13_Node000012_Node000013"><a xlink:title=" ">
<path fill="none" stroke="#9a32cd" stroke-dasharray="5,2" d="M895.29,-360.92C947.64,-362.18 1020.4,-365.12 1084,-372 1103.48,-374.11 1125.06,-377.71 1142.57,-380.97"/>
<polygon fill="#9a32cd" stroke="#9a32cd" points="895.18,-357.42 885.1,-360.7 895.02,-364.42 895.18,-357.42"/>
</a>
</g>
<text text-anchor="start" x="966" y="-377.5" font-family="Helvetica,sans-Serif" font-size="10.00" fill="grey">m_nextLayers</text>
</g>
<!-- Node14 -->
<g id="Node000014" class="node">
<title>Node14</title>
<g id="a_Node000014"><a xlink:title=" ">
<polygon fill="white" stroke="#666666" points="524.5,-369.5 415.5,-369.5 415.5,-350.5 524.5,-350.5 524.5,-369.5"/>
<text text-anchor="middle" x="470" y="-357.5" font-family="Helvetica,sans-Serif" font-size="10.00">std::pair&lt; T1, T2 &gt;</text>
</a>
</g>
</g>
<!-- Node14&#45;&gt;Node13 -->
<g id="edge14_Node000013_Node000014" class="edge">
<title>Node14&#45;&gt;Node13</title>
<g id="a_edge14_Node000013_Node000014"><a xlink:title=" ">
<path fill="none" stroke="orange" stroke-dasharray="5,2" d="M534.71,-360C599,-360 697.6,-360 760.94,-360"/>
<polygon fill="orange" stroke="orange" points="534.69,-356.5 524.69,-360 534.69,-363.5 534.69,-356.5"/>
</a>
</g>
<text text-anchor="start" x="583.5" y="-381" font-family="Helvetica,sans-Serif" font-size="10.00" fill="grey">&lt; const Layer *, const</text>
<text text-anchor="start" x="583.5" y="-366" font-family="Helvetica,sans-Serif" font-size="10.00" fill="grey">   Layer * &gt;</text>
</g>
<!-- Node15 -->
<g id="Node000015" class="node">
<title>Node15</title>
<g id="a_Node000015"><a xlink:href="class_acts_1_1_bin_utility.html" target="_top" xlink:title="The BinUtility class that translated global and local position into a bins of a BinnedArray,...">
<polygon fill="white" stroke="#666666" points="867.5,-508.5 778.5,-508.5 778.5,-489.5 867.5,-489.5 867.5,-508.5"/>
<text text-anchor="middle" x="823" y="-496.5" font-family="Helvetica,sans-Serif" font-size="10.00">Acts::BinUtility</text>
</a>
</g>
</g>
<!-- Node15&#45;&gt;Node12 -->
<g id="edge15_Node000012_Node000015" class="edge">
<title>Node15&#45;&gt;Node12</title>
<g id="a_edge15_Node000012_Node000015"><a xlink:title=" ">
<path fill="none" stroke="#9a32cd" stroke-dasharray="5,2" d="M877.73,-496.53C942.81,-492.89 1048.17,-484.76 1084,-469 1121.75,-452.4 1155.47,-415.14 1169.97,-397.54"/>
<polygon fill="#9a32cd" stroke="#9a32cd" points="877.45,-493.04 867.65,-497.07 877.83,-500.03 877.45,-493.04"/>
</a>
</g>
<text text-anchor="start" x="954" y="-498.5" font-family="Helvetica,sans-Serif" font-size="10.00" fill="grey">m_nextLayerUtility</text>
</g>
<!-- Node16&#45;&gt;Node12 -->
<g id="edge16_Node000012_Node000016" class="edge">
<title>Node16&#45;&gt;Node12</title>
<g id="a_edge16_Node000012_Node000016"><a xlink:title=" ">
<path fill="none" stroke="#9a32cd" stroke-dasharray="5,2" d="M896.88,-540.61C962.45,-538.21 1053.1,-531.69 1084,-514 1090.27,-510.41 1150.28,-426.36 1170.72,-397.57"/>
<polygon fill="#9a32cd" stroke="#9a32cd" points="896.46,-537.12 886.58,-540.96 896.69,-544.12 896.46,-537.12"/>
</a>
</g>
<text text-anchor="start" x="962" y="-544.5" font-family="Helvetica,sans-Serif" font-size="10.00" fill="grey">m_surfaceArray</text>
</g>
<!-- Node17&#45;&gt;Node12 -->
<g id="edge18_Node000012_Node000017" class="edge">
<title>Node17&#45;&gt;Node12</title>
<g id="a_edge18_Node000012_Node000017"><a xlink:title=" ">
<path fill="none" stroke="#9a32cd" stroke-dasharray="5,2" d="M910.24,-450.1C961.3,-445.37 1026.95,-437.09 1084,-423 1109.58,-416.68 1137.74,-405.53 1156.41,-397.51"/>
<polygon fill="#9a32cd" stroke="#9a32cd" points="909.87,-446.62 900.23,-451 910.5,-453.59 909.87,-446.62"/>
</a>
</g>
<text text-anchor="start" x="946" y="-453.5" font-family="Helvetica,sans-Serif" font-size="10.00" fill="grey">m_approachDescriptor</text>
</g>
<!-- Node18 -->
<g id="Node000018" class="node">
<title>Node18</title>
<g id="a_Node000018"><a xlink:href="class_acts_1_1_tracking_volume.html" target="_top" xlink:title="Full Volume description used in Tracking, it inherits from Volume to get the geometrical structure.">
<polygon fill="white" stroke="#666666" points="883.5,-283.5 762.5,-283.5 762.5,-264.5 883.5,-264.5 883.5,-283.5"/>
<text text-anchor="middle" x="823" y="-271.5" font-family="Helvetica,sans-Serif" font-size="10.00">Acts::TrackingVolume</text>
</a>
</g>
</g>
<!-- Node18&#45;&gt;Node3 -->
<g id="edge25_Node000003_Node000018" class="edge">
<title>Node18&#45;&gt;Node3</title>
<g id="a_edge25_Node000003_Node000018"><a xlink:title=" ">
<path fill="none" stroke="#9a32cd" stroke-dasharray="5,2" d="M894.11,-276.53C1004.27,-278.97 1224.01,-277.64 1405,-238 1431.38,-232.22 1460.15,-220.12 1478.59,-211.54"/>
<polygon fill="#9a32cd" stroke="#9a32cd" points="893.88,-273.02 883.8,-276.28 893.71,-280.02 893.88,-273.02"/>
</a>
</g>
<text text-anchor="start" x="1106.5" y="-278.5" font-family="Helvetica,sans-Serif" font-size="10.00" fill="grey">m_associatedTrackingVolume</text>
</g>
<!-- Node18&#45;&gt;Node12 -->
<g id="edge20_Node000012_Node000018" class="edge">
<title>Node18&#45;&gt;Node12</title>
<g id="a_edge20_Node000012_Node000018"><a xlink:title=" ">
<path fill="none" stroke="#9a32cd" stroke-dasharray="5,2" d="M893.79,-279.85C964.87,-286.16 1067,-296.34 1084,-304 1122.4,-321.3 1156.04,-360.26 1170.28,-378.39"/>
<polygon fill="#9a32cd" stroke="#9a32cd" points="893.81,-276.34 883.55,-278.95 893.2,-283.31 893.81,-276.34"/>
</a>
</g>
<text text-anchor="start" x="955" y="-309.5" font-family="Helvetica,sans-Serif" font-size="10.00" fill="grey">m_trackingVolume</text>
</g>
<!-- Node19&#45;&gt;Node18 -->
<g id="edge21_Node000018_Node000019" class="edge">
<title>Node19&#45;&gt;Node18</title>
<g id="a_edge21_Node000018_Node000019"><a xlink:title=" ">
<path fill="none" stroke="#63b8ff" d="M520.4,-274C583.91,-274 694.11,-274 762.26,-274"/>
<polygon fill="#63b8ff" stroke="#63b8ff" points="520.24,-270.5 510.24,-274 520.24,-277.5 520.24,-270.5"/>
</a>
</g>
</g>
<!-- Node20&#45;&gt;Node12 -->
<g id="edge23_Node000012_Node000020" class="edge">
<title>Node20&#45;&gt;Node12</title>
<g id="a_edge23_Node000012_Node000020"><a xlink:title=" ">
<path fill="none" stroke="#9a32cd" stroke-dasharray="5,2" d="M894.68,-404C969.7,-399.76 1085.2,-393.22 1142.61,-389.97"/>
<polygon fill="#9a32cd" stroke="#9a32cd" points="894.15,-400.53 884.37,-404.58 894.55,-407.51 894.15,-400.53"/>
</a>
</g>
<text text-anchor="start" x="944" y="-407.5" font-family="Helvetica,sans-Serif" font-size="10.00" fill="grey">m_representingVolume</text>
</g>
<!-- Node21 -->
<g id="Node000021" class="node">
<title>Node21</title>
<g id="a_Node000021"><a xlink:title=" ">
<polygon fill="white" stroke="#666666" points="1247.5,-51 1109.5,-51 1109.5,-21 1247.5,-21 1247.5,-51"/>
<text text-anchor="start" x="1117.5" y="-39" font-family="Helvetica,sans-Serif" font-size="10.00">std::shared_ptr&lt; const</text>
<text text-anchor="middle" x="1178.5" y="-28" font-family="Helvetica,sans-Serif" font-size="10.00"> Acts::ISurfaceMaterial &gt;</text>
</a>
</g>
</g>
<!-- Node21&#45;&gt;Node3 -->
<g id="edge26_Node000003_Node000021" class="edge">
<title>Node21&#45;&gt;Node3</title>
<g id="a_edge26_Node000003_Node000021"><a xlink:title=" ">
<path fill="none" stroke="#9a32cd" stroke-dasharray="5,2" d="M1257.67,-20.16C1306.06,-15.17 1366.14,-18.39 1405,-54 1440.55,-86.58 1395.04,-121.71 1423,-161 1433.67,-175.99 1451.6,-186.08 1467.25,-192.5"/>
<polygon fill="#9a32cd" stroke="#9a32cd" points="1257.07,-16.71 1247.54,-21.34 1257.88,-23.66 1257.07,-16.71"/>
</a>
</g>
<text text-anchor="start" x="1293" y="-59.5" font-family="Helvetica,sans-Serif" font-size="10.00" fill="grey">m_surfaceMaterial</text>
</g>
<!-- Node22 -->
<g id="Node000022" class="node">
<title>Node22</title>
<g id="a_Node000022"><a xlink:title=" ">
<polygon fill="white" stroke="#666666" points="882,-45.5 764,-45.5 764,-26.5 882,-26.5 882,-45.5"/>
<text text-anchor="middle" x="823" y="-33.5" font-family="Helvetica,sans-Serif" font-size="10.00">std::shared_ptr&lt; T &gt;</text>
</a>
</g>
</g>
<!-- Node22&#45;&gt;Node21 -->
<g id="edge27_Node000021_Node000022" class="edge">
<title>Node22&#45;&gt;Node21</title>
<g id="a_edge27_Node000021_Node000022"><a xlink:title=" ">
<path fill="none" stroke="orange" stroke-dasharray="5,2" d="M892.53,-36C955.06,-36 1046.95,-36 1109.35,-36"/>
<polygon fill="orange" stroke="orange" points="892.37,-32.5 882.37,-36 892.37,-39.5 892.37,-32.5"/>
</a>
</g>
<text text-anchor="start" x="921" y="-41.5" font-family="Helvetica,sans-Serif" font-size="10.00" fill="grey">&lt; const Acts::ISurfaceMaterial &gt;</text>
</g>
<!-- Node23 -->
<g id="Node000023" class="node">
<title>Node23</title>
<g id="a_Node000023"><a xlink:title=" ">
<polygon fill="white" stroke="#666666" points="1962,-172.5 1779,-172.5 1779,-153.5 1962,-153.5 1962,-172.5"/>
<text text-anchor="middle" x="1870.5" y="-160.5" font-family="Helvetica,sans-Serif" font-size="10.00">std::vector&lt; GeometryIdentifier &gt;</text>
</a>
</g>
</g>
<!-- Node23&#45;&gt;Node1 -->
<g id="edge28_Node000001_Node000023" class="edge">
<title>Node23&#45;&gt;Node1</title>
<g id="a_edge28_Node000001_Node000023"><a xlink:title=" ">
<path fill="none" stroke="#9a32cd" stroke-dasharray="5,2" d="M1972.4,-155.5C2014.8,-152.35 2062.97,-148.77 2100.83,-145.96"/>
<polygon fill="#9a32cd" stroke="#9a32cd" points="1972.03,-152.02 1962.32,-156.25 1972.55,-159 1972.03,-152.02"/>
</a>
</g>
<text text-anchor="start" x="1990.5" y="-159.5" font-family="Helvetica,sans-Serif" font-size="10.00" fill="grey">externalSurfaces</text>
</g>
<!-- Node24 -->
<g id="Node000024" class="node">
<title>Node24</title>
<g id="a_Node000024"><a xlink:title=" ">
<polygon fill="white" stroke="#666666" points="1547.5,-151.5 1450.5,-151.5 1450.5,-132.5 1547.5,-132.5 1547.5,-151.5"/>
<text text-anchor="middle" x="1499" y="-139.5" font-family="Helvetica,sans-Serif" font-size="10.00">std::vector&lt; T &gt;</text>
</a>
</g>
</g>
<!-- Node24&#45;&gt;Node23 -->
<g id="edge29_Node000023_Node000024" class="edge">
<title>Node24&#45;&gt;Node23</title>
<g id="a_edge29_Node000023_Node000024"><a xlink:title=" ">
<path fill="none" stroke="orange" stroke-dasharray="5,2" d="M1557.84,-145.29C1617.07,-148.65 1709.98,-153.93 1778.96,-157.85"/>
<polygon fill="orange" stroke="orange" points="1557.73,-141.78 1547.55,-144.7 1557.33,-148.76 1557.73,-141.78"/>
</a>
</g>
<text text-anchor="start" x="1620" y="-161.5" font-family="Helvetica,sans-Serif" font-size="10.00" fill="grey">&lt; GeometryIdentifier &gt;</text>
</g>
<!-- Node25 -->
<g id="Node000025" class="node">
<title>Node25</title>
<g id="a_Node000025"><a xlink:title=" ">
<polygon fill="white" stroke="#666666" points="1923.5,-135 1817.5,-135 1817.5,-105 1923.5,-105 1923.5,-135"/>
<text text-anchor="start" x="1825.5" y="-123" font-family="Helvetica,sans-Serif" font-size="10.00">std::vector&lt; const</text>
<text text-anchor="middle" x="1870.5" y="-112" font-family="Helvetica,sans-Serif" font-size="10.00"> Acts::Surface * &gt;</text>
</a>
</g>
</g>
<!-- Node24&#45;&gt;Node25 -->
<g id="edge31_Node000025_Node000024" class="edge">
<title>Node24&#45;&gt;Node25</title>
<g id="a_edge31_Node000025_Node000024"><a xlink:title=" ">
<path fill="none" stroke="orange" stroke-dasharray="5,2" d="M1557.29,-130.77C1569.06,-128.85 1581.4,-127.12 1593,-126 1670.9,-118.5 1761.7,-118.11 1817.38,-118.83"/>
<polygon fill="orange" stroke="orange" points="1556.4,-127.37 1547.13,-132.49 1557.57,-134.27 1556.4,-127.37"/>
</a>
</g>
<text text-anchor="start" x="1615" y="-131.5" font-family="Helvetica,sans-Serif" font-size="10.00" fill="grey">&lt; const Acts::Surface * &gt;</text>
</g>
<!-- Node25&#45;&gt;Node1 -->
<g id="edge30_Node000001_Node000025" class="edge">
<title>Node25&#45;&gt;Node1</title>
<g id="a_edge30_Node000001_Node000025"><a xlink:title=" ">
<path fill="none" stroke="#9a32cd" stroke-dasharray="5,2" d="M1933.96,-117.69C1976.18,-116.91 2033.11,-117.39 2083,-123 2098.65,-124.76 2115.68,-128.11 2130.32,-131.44"/>
<polygon fill="#9a32cd" stroke="#9a32cd" points="1933.75,-114.19 1923.83,-117.91 1933.9,-121.19 1933.75,-114.19"/>
</a>
</g>
<text text-anchor="start" x="2000.5" y="-128.5" font-family="Helvetica,sans-Serif" font-size="10.00" fill="grey">freeSurfaces</text>
</g>
<!-- Node26 -->
<g id="Node000026" class="node">
<title>Node26</title>
<g id="a_Node000026"><a xlink:href="class_acts_1_1_delegate.html" target="_top" xlink:title=" ">
<polygon fill="white" stroke="#666666" points="1956.5,-74 1784.5,-74 1784.5,0 1956.5,0 1956.5,-74"/>
<text text-anchor="start" x="1792.5" y="-62" font-family="Helvetica,sans-Serif" font-size="10.00">Acts::Delegate&lt; bool</text>
<text text-anchor="start" x="1792.5" y="-51" font-family="Helvetica,sans-Serif" font-size="10.00">(const GeometryContext</text>
<text text-anchor="start" x="1792.5" y="-40" font-family="Helvetica,sans-Serif" font-size="10.00"> &amp;gctx, const TrackingVolume</text>
<text text-anchor="start" x="1792.5" y="-29" font-family="Helvetica,sans-Serif" font-size="10.00"> &amp;currentVol, const Vector3</text>
<text text-anchor="start" x="1792.5" y="-18" font-family="Helvetica,sans-Serif" font-size="10.00"> &amp;pos, const Vector3 &amp;dir, const</text>
<text text-anchor="middle" x="1870.5" y="-7" font-family="Helvetica,sans-Serif" font-size="10.00"> Surface &amp;candidate)&gt;</text>
</a>
</g>
</g>
<!-- Node26&#45;&gt;Node1 -->
<g id="edge32_Node000001_Node000026" class="edge">
<title>Node26&#45;&gt;Node1</title>
<g id="a_edge32_Node000001_Node000026"><a xlink:title=" ">
<path fill="none" stroke="#9a32cd" stroke-dasharray="5,2" d="M1966.3,-58.75C2003.31,-68.45 2045.72,-81.08 2083,-96 2108.15,-106.07 2135.53,-121.56 2152.11,-131.48"/>
<polygon fill="#9a32cd" stroke="#9a32cd" points="1967.08,-55.33 1956.52,-56.22 1965.33,-62.11 1967.08,-55.33"/>
</a>
</g>
<text text-anchor="start" x="1983.5" y="-101.5" font-family="Helvetica,sans-Serif" font-size="10.00" fill="grey">freeSurfaceSelector</text>
</g>
<!-- Node27 -->
<g id="Node000027" class="node">
<title>Node27</title>
<g id="a_Node000027"><a xlink:href="class_acts_1_1_delegate.html" target="_top" xlink:title=" ">
<polygon fill="white" stroke="#666666" points="1575,-37 1423,-37 1423,-7 1575,-7 1575,-37"/>
<text text-anchor="start" x="1431" y="-25" font-family="Helvetica,sans-Serif" font-size="10.00">Acts::Delegate&lt; typename,</text>
<text text-anchor="middle" x="1499" y="-14" font-family="Helvetica,sans-Serif" font-size="10.00"> H, DelegateType &gt;</text>
</a>
</g>
</g>
<!-- Node27&#45;&gt;Node26 -->
<g id="edge33_Node000026_Node000027" class="edge">
<title>Node27&#45;&gt;Node26</title>
<g id="a_edge33_Node000026_Node000027"><a xlink:title=" ">
<path fill="none" stroke="orange" stroke-dasharray="5,2" d="M1585.19,-19.65C1636.23,-18.91 1702.4,-19.12 1761,-23 1768.58,-23.5 1776.44,-24.19 1784.31,-24.99"/>
<polygon fill="orange" stroke="orange" points="1585.13,-16.16 1575.18,-19.81 1585.24,-23.15 1585.13,-16.16"/>
</a>
</g>
<text text-anchor="start" x="1596" y="-88.5" font-family="Helvetica,sans-Serif" font-size="10.00" fill="grey">&lt; bool( const GeometryContext</text>
<text text-anchor="start" x="1596" y="-73.5" font-family="Helvetica,sans-Serif" font-size="10.00" fill="grey">   &amp;gctx, const TrackingVolume</text>
<text text-anchor="start" x="1596" y="-58.5" font-family="Helvetica,sans-Serif" font-size="10.00" fill="grey">   &amp;currentVol, const Vector3</text>
<text text-anchor="start" x="1596" y="-43.5" font-family="Helvetica,sans-Serif" font-size="10.00" fill="grey">   &amp;pos, const Vector3 &amp;dir, const</text>
<text text-anchor="start" x="1596" y="-28.5" font-family="Helvetica,sans-Serif" font-size="10.00" fill="grey">   Surface &amp;candidate)&gt;</text>
</g>
</g>
</svg>
