<?xml version="1.0" encoding="UTF-8" standalone="no"?>
<!DOCTYPE svg PUBLIC "-//W3C//DTD SVG 1.1//EN"
 "http://www.w3.org/Graphics/SVG/1.1/DTD/svg11.dtd">
<!-- Generated by graphviz version 2.43.0 (0)
 -->
<!-- Title: Acts::TrackStateCreator&lt; source_link_iterator_t, track_container_t &gt; Pages: 1 -->
<svg width="1642pt" height="681pt"
 viewBox="0.00 0.00 1642.00 680.52" xmlns="http://www.w3.org/2000/svg" xmlns:xlink="http://www.w3.org/1999/xlink">
<g id="graph0" class="graph" transform="scale(1 1) rotate(0) translate(4 676.52)">
<title>Acts::TrackStateCreator&lt; source_link_iterator_t, track_container_t &gt;</title>
<!-- Node1 -->
<g id="Node000001" class="node">
<title>Node1</title>
<g id="a_Node000001"><a xlink:title="Create track states for selected measurements associated to a surface.">
<polygon fill="#999999" stroke="#666666" points="1634,-379.02 1503,-379.02 1503,-338.02 1634,-338.02 1634,-379.02"/>
<text text-anchor="start" x="1511" y="-367.02" font-family="Helvetica,sans-Serif" font-size="10.00">Acts::TrackStateCreator</text>
<text text-anchor="start" x="1511" y="-356.02" font-family="Helvetica,sans-Serif" font-size="10.00">&lt; source_link_iterator</text>
<text text-anchor="middle" x="1568.5" y="-345.02" font-family="Helvetica,sans-Serif" font-size="10.00">_t, track_container_t &gt;</text>
</a>
</g>
</g>
<!-- Node2 -->
<g id="Node000002" class="node">
<title>Node2</title>
<g id="a_Node000002"><a xlink:title=" ">
<polygon fill="white" stroke="#666666" points="823,-601.52 653,-601.52 653,-549.52 823,-549.52 823,-601.52"/>
<text text-anchor="start" x="661" y="-589.52" font-family="Helvetica,sans-Serif" font-size="10.00">Acts::Delegate&lt; std</text>
<text text-anchor="start" x="661" y="-578.52" font-family="Helvetica,sans-Serif" font-size="10.00">::pair&lt; source_link</text>
<text text-anchor="start" x="661" y="-567.52" font-family="Helvetica,sans-Serif" font-size="10.00">_iterator_t, source_link</text>
<text text-anchor="middle" x="738" y="-556.52" font-family="Helvetica,sans-Serif" font-size="10.00">_iterator_t &gt;(const Surface &amp;)&gt;</text>
</a>
</g>
</g>
<!-- Node2&#45;&gt;Node1 -->
<g id="edge1_Node000001_Node000002" class="edge">
<title>Node2&#45;&gt;Node1</title>
<g id="a_edge1_Node000001_Node000002"><a xlink:title=" ">
<path fill="none" stroke="#9a32cd" stroke-dasharray="5,2" d="M833.4,-568.35C884.84,-563.32 949.38,-555.17 1006,-542.52 1198.47,-499.52 1418.53,-417.33 1516.19,-379.07"/>
<polygon fill="#9a32cd" stroke="#9a32cd" points="832.92,-564.88 823.29,-569.31 833.58,-571.85 832.92,-564.88"/>
</a>
</g>
<text text-anchor="start" x="1072.5" y="-543.02" font-family="Helvetica,sans-Serif" font-size="10.00" fill="grey">sourceLinkAccessor</text>
</g>
<!-- Node3 -->
<g id="Node000003" class="node">
<title>Node3</title>
<g id="a_Node000003"><a xlink:href="class_acts_1_1_delegate.html" target="_top" xlink:title=" ">
<polygon fill="white" stroke="#666666" points="152,-365.52 0,-365.52 0,-335.52 152,-335.52 152,-365.52"/>
<text text-anchor="start" x="8" y="-353.52" font-family="Helvetica,sans-Serif" font-size="10.00">Acts::Delegate&lt; typename,</text>
<text text-anchor="middle" x="76" y="-342.52" font-family="Helvetica,sans-Serif" font-size="10.00"> H, DelegateType &gt;</text>
</a>
</g>
</g>
<!-- Node3&#45;&gt;Node2 -->
<g id="edge2_Node000002_Node000003" class="edge">
<title>Node3&#45;&gt;Node2</title>
<g id="a_edge2_Node000002_Node000003"><a xlink:title=" ">
<path fill="none" stroke="orange" stroke-dasharray="5,2" d="M80.93,-375.69C89.05,-418.31 112.06,-503.82 170,-542.52 316.36,-640.29 534.28,-617.76 652.81,-595.16"/>
<polygon fill="orange" stroke="orange" points="84.33,-374.83 79.13,-365.6 77.44,-376.06 84.33,-374.83"/>
</a>
</g>
<text text-anchor="start" x="217.5" y="-661.52" font-family="Helvetica,sans-Serif" font-size="10.00" fill="grey">&lt; std::pair&lt; source</text>
<text text-anchor="start" x="217.5" y="-646.52" font-family="Helvetica,sans-Serif" font-size="10.00" fill="grey">  _link_iterator_t, source</text>
<text text-anchor="start" x="217.5" y="-631.52" font-family="Helvetica,sans-Serif" font-size="10.00" fill="grey">  _link_iterator_t &gt;( const</text>
<text text-anchor="start" x="217.5" y="-616.52" font-family="Helvetica,sans-Serif" font-size="10.00" fill="grey">   Surface &amp;)&gt;</text>
</g>
<!-- Node5 -->
<g id="Node000005" class="node">
<title>Node5</title>
<g id="a_Node000005"><a xlink:href="class_acts_1_1_delegate.html" target="_top" xlink:title=" ">
<polygon fill="white" stroke="#666666" points="630,-264.52 407,-264.52 407,-212.52 630,-212.52 630,-264.52"/>
<text text-anchor="start" x="415" y="-252.52" font-family="Helvetica,sans-Serif" font-size="10.00">Acts::Delegate&lt; void</text>
<text text-anchor="start" x="415" y="-241.52" font-family="Helvetica,sans-Serif" font-size="10.00">(const GeometryContext</text>
<text text-anchor="start" x="415" y="-230.52" font-family="Helvetica,sans-Serif" font-size="10.00"> &amp;, const CalibrationContext</text>
<text text-anchor="middle" x="518.5" y="-219.52" font-family="Helvetica,sans-Serif" font-size="10.00"> &amp;, const SourceLink &amp;, TrackStateProxy)&gt;</text>
</a>
</g>
</g>
<!-- Node3&#45;&gt;Node5 -->
<g id="edge5_Node000005_Node000003" class="edge">
<title>Node3&#45;&gt;Node5</title>
<g id="a_edge5_Node000005_Node000003"><a xlink:title=" ">
<path fill="none" stroke="orange" stroke-dasharray="5,2" d="M89,-326.27C103.84,-299.36 131.88,-257.38 170,-239.52 210.56,-220.52 321,-223.22 406.59,-228.85"/>
<polygon fill="orange" stroke="orange" points="85.74,-324.96 84.14,-335.43 91.92,-328.24 85.74,-324.96"/>
</a>
</g>
<text text-anchor="start" x="173.5" y="-275.02" font-family="Helvetica,sans-Serif" font-size="10.00" fill="grey">&lt; void(const GeometryContext</text>
<text text-anchor="start" x="173.5" y="-260.02" font-family="Helvetica,sans-Serif" font-size="10.00" fill="grey">   &amp;, const CalibrationContext</text>
<text text-anchor="start" x="173.5" y="-245.02" font-family="Helvetica,sans-Serif" font-size="10.00" fill="grey">   &amp;, const SourceLink &amp;, TrackStateProxy)&gt;</text>
</g>
<!-- Node6 -->
<g id="Node000006" class="node">
<title>Node6</title>
<g id="a_Node000006"><a xlink:href="class_acts_1_1_delegate.html" target="_top" xlink:title=" ">
<polygon fill="white" stroke="#666666" points="608.5,-405.52 428.5,-405.52 428.5,-353.52 608.5,-353.52 608.5,-405.52"/>
<text text-anchor="start" x="436.5" y="-393.52" font-family="Helvetica,sans-Serif" font-size="10.00">Acts::Delegate&lt; Result</text>
<text text-anchor="start" x="436.5" y="-382.52" font-family="Helvetica,sans-Serif" font-size="10.00">&lt; void &gt;(const GeometryContext</text>
<text text-anchor="start" x="436.5" y="-371.52" font-family="Helvetica,sans-Serif" font-size="10.00"> &amp;, TrackStateProxy, const</text>
<text text-anchor="middle" x="518.5" y="-360.52" font-family="Helvetica,sans-Serif" font-size="10.00"> Logger &amp;)&gt;</text>
</a>
</g>
</g>
<!-- Node3&#45;&gt;Node6 -->
<g id="edge7_Node000006_Node000003" class="edge">
<title>Node3&#45;&gt;Node6</title>
<g id="a_edge7_Node000006_Node000003"><a xlink:title=" ">
<path fill="none" stroke="orange" stroke-dasharray="5,2" d="M145.27,-367.56C153.56,-369.15 161.94,-370.53 170,-371.52 257.29,-382.27 357.83,-383.38 428.23,-382.33"/>
<polygon fill="orange" stroke="orange" points="145.72,-364.08 135.23,-365.53 144.34,-370.94 145.72,-364.08"/>
</a>
</g>
<text text-anchor="start" x="197.5" y="-418.02" font-family="Helvetica,sans-Serif" font-size="10.00" fill="grey">&lt; Result&lt; void &gt;(const</text>
<text text-anchor="start" x="197.5" y="-403.02" font-family="Helvetica,sans-Serif" font-size="10.00" fill="grey">   GeometryContext &amp;, TrackState</text>
<text text-anchor="start" x="197.5" y="-388.02" font-family="Helvetica,sans-Serif" font-size="10.00" fill="grey">  Proxy, const Logger &amp;)&gt;</text>
</g>
<!-- Node7 -->
<g id="Node000007" class="node">
<title>Node7</title>
<g id="a_Node000007"><a xlink:title=" ">
<polygon fill="white" stroke="#666666" points="828,-186.52 648,-186.52 648,-134.52 828,-134.52 828,-186.52"/>
<text text-anchor="start" x="656" y="-174.52" font-family="Helvetica,sans-Serif" font-size="10.00">Acts::Delegate&lt; Result</text>
<text text-anchor="start" x="656" y="-163.52" font-family="Helvetica,sans-Serif" font-size="10.00">&lt; void &gt;(const GeometryContext</text>
<text text-anchor="start" x="656" y="-152.52" font-family="Helvetica,sans-Serif" font-size="10.00"> &amp;, TrackStateContainerBackend</text>
<text text-anchor="middle" x="738" y="-141.52" font-family="Helvetica,sans-Serif" font-size="10.00"> &amp;, std::size_t, const Logger &amp;)&gt;</text>
</a>
</g>
</g>
<!-- Node3&#45;&gt;Node7 -->
<g id="edge9_Node000007_Node000003" class="edge">
<title>Node3&#45;&gt;Node7</title>
<g id="a_edge9_Node000007_Node000003"><a xlink:title=" ">
<path fill="none" stroke="orange" stroke-dasharray="5,2" d="M80.69,-325.39C88.49,-282.54 111.05,-196.39 170,-159.52 247.15,-111.28 508.58,-133.24 647.88,-149.16"/>
<polygon fill="orange" stroke="orange" points="77.23,-324.85 79.01,-335.3 84.13,-326.02 77.23,-324.85"/>
</a>
</g>
<text text-anchor="start" x="197.5" y="-210.52" font-family="Helvetica,sans-Serif" font-size="10.00" fill="grey">&lt; Result&lt; void &gt;(const</text>
<text text-anchor="start" x="197.5" y="-195.52" font-family="Helvetica,sans-Serif" font-size="10.00" fill="grey">   GeometryContext &amp;, TrackState</text>
<text text-anchor="start" x="197.5" y="-180.52" font-family="Helvetica,sans-Serif" font-size="10.00" fill="grey">  ContainerBackend &amp;, std::size</text>
<text text-anchor="start" x="197.5" y="-165.52" font-family="Helvetica,sans-Serif" font-size="10.00" fill="grey">  _t, const Logger &amp;)&gt;</text>
</g>
<!-- Node8 -->
<g id="Node000008" class="node">
<title>Node8</title>
<g id="a_Node000008"><a xlink:href="class_acts_1_1_delegate.html" target="_top" xlink:title=" ">
<polygon fill="white" stroke="#666666" points="588,-533.52 449,-533.52 449,-503.52 588,-503.52 588,-533.52"/>
<text text-anchor="start" x="457" y="-521.52" font-family="Helvetica,sans-Serif" font-size="10.00">Acts::Delegate&lt; bool</text>
<text text-anchor="middle" x="518.5" y="-510.52" font-family="Helvetica,sans-Serif" font-size="10.00">(ConstTrackStateProxy)&gt;</text>
</a>
</g>
</g>
<!-- Node3&#45;&gt;Node8 -->
<g id="edge11_Node000008_Node000003" class="edge">
<title>Node3&#45;&gt;Node8</title>
<g id="a_edge11_Node000008_Node000003"><a xlink:title=" ">
<path fill="none" stroke="orange" stroke-dasharray="5,2" d="M84.89,-375.56C97.08,-409.61 124.03,-469.38 170,-496.52 215.55,-523.42 361.21,-523.82 448.83,-521.39"/>
<polygon fill="orange" stroke="orange" points="88.13,-374.21 81.57,-365.89 81.5,-376.48 88.13,-374.21"/>
</a>
</g>
<text text-anchor="start" x="202.5" y="-527.02" font-family="Helvetica,sans-Serif" font-size="10.00" fill="grey">&lt; bool(ConstTrackStateProxy)&gt;</text>
</g>
<!-- Node9 -->
<g id="Node000009" class="node">
<title>Node9</title>
<g id="a_Node000009"><a xlink:href="class_acts_1_1_delegate.html" target="_top" xlink:title=" ">
<polygon fill="white" stroke="#666666" points="605,-459.52 432,-459.52 432,-429.52 605,-429.52 605,-459.52"/>
<text text-anchor="start" x="440" y="-447.52" font-family="Helvetica,sans-Serif" font-size="10.00">Acts::Delegate&lt; const</text>
<text text-anchor="middle" x="518.5" y="-436.52" font-family="Helvetica,sans-Serif" font-size="10.00"> Surface *(const SourceLink &amp;)&gt;</text>
</a>
</g>
</g>
<!-- Node3&#45;&gt;Node9 -->
<g id="edge13_Node000009_Node000003" class="edge">
<title>Node3&#45;&gt;Node9</title>
<g id="a_edge13_Node000009_Node000003"><a xlink:title=" ">
<path fill="none" stroke="orange" stroke-dasharray="5,2" d="M94.56,-373.39C111.44,-393.39 138.91,-421.1 170,-433.52 254.22,-467.17 359.28,-465.11 431.71,-457.67"/>
<polygon fill="orange" stroke="orange" points="97.25,-371.15 88.21,-365.63 91.83,-375.59 97.25,-371.15"/>
</a>
</g>
<text text-anchor="start" x="221.5" y="-482.52" font-family="Helvetica,sans-Serif" font-size="10.00" fill="grey">&lt; const Surface *(const</text>
<text text-anchor="start" x="221.5" y="-467.52" font-family="Helvetica,sans-Serif" font-size="10.00" fill="grey">   SourceLink &amp;)&gt;</text>
</g>
<!-- Node11 -->
<g id="Node000011" class="node">
<title>Node11</title>
<g id="a_Node000011"><a xlink:title=" ">
<polygon fill="white" stroke="#666666" points="608.5,-334.52 428.5,-334.52 428.5,-282.52 608.5,-282.52 608.5,-334.52"/>
<text text-anchor="start" x="436.5" y="-322.52" font-family="Helvetica,sans-Serif" font-size="10.00">Acts::Delegate&lt; Result</text>
<text text-anchor="start" x="436.5" y="-311.52" font-family="Helvetica,sans-Serif" font-size="10.00">&lt; void &gt;(const GeometryContext</text>
<text text-anchor="start" x="436.5" y="-300.52" font-family="Helvetica,sans-Serif" font-size="10.00"> &amp;, traj_t &amp;, std::size_t,</text>
<text text-anchor="middle" x="518.5" y="-289.52" font-family="Helvetica,sans-Serif" font-size="10.00"> const Logger &amp;)&gt;</text>
</a>
</g>
</g>
<!-- Node3&#45;&gt;Node11 -->
<g id="edge18_Node000011_Node000003" class="edge">
<title>Node3&#45;&gt;Node11</title>
<g id="a_edge18_Node000011_Node000003"><a xlink:title=" ">
<path fill="none" stroke="orange" stroke-dasharray="5,2" d="M109.81,-330.14C127.04,-320.63 148.91,-310.36 170,-305.52 256.15,-285.77 357.5,-289.61 428.44,-296.51"/>
<polygon fill="orange" stroke="orange" points="107.7,-327.31 100.75,-335.31 111.17,-333.39 107.7,-327.31"/>
</a>
</g>
<text text-anchor="start" x="214.5" y="-356.52" font-family="Helvetica,sans-Serif" font-size="10.00" fill="grey">&lt; Result&lt; void &gt;(const</text>
<text text-anchor="start" x="214.5" y="-341.52" font-family="Helvetica,sans-Serif" font-size="10.00" fill="grey">   GeometryContext &amp;, traj</text>
<text text-anchor="start" x="214.5" y="-326.52" font-family="Helvetica,sans-Serif" font-size="10.00" fill="grey">  _t &amp;, std::size_t, const</text>
<text text-anchor="start" x="214.5" y="-311.52" font-family="Helvetica,sans-Serif" font-size="10.00" fill="grey">   Logger &amp;)&gt;</text>
</g>
<!-- Node12 -->
<g id="Node000012" class="node">
<title>Node12</title>
<g id="a_Node000012"><a xlink:title=" ">
<polygon fill="white" stroke="#666666" points="1217,-114.02 1024,-114.02 1024,-29.02 1217,-29.02 1217,-114.02"/>
<text text-anchor="start" x="1032" y="-102.02" font-family="Helvetica,sans-Serif" font-size="10.00">Acts::Delegate&lt; Result</text>
<text text-anchor="start" x="1032" y="-91.02" font-family="Helvetica,sans-Serif" font-size="10.00">&lt; std::pair&lt; typename</text>
<text text-anchor="start" x="1032" y="-80.02" font-family="Helvetica,sans-Serif" font-size="10.00"> candidate_container_t</text>
<text text-anchor="start" x="1032" y="-69.02" font-family="Helvetica,sans-Serif" font-size="10.00">::iterator, typename candidate</text>
<text text-anchor="start" x="1032" y="-58.02" font-family="Helvetica,sans-Serif" font-size="10.00">_container_t::iterator &gt; &gt;(candidate</text>
<text text-anchor="start" x="1032" y="-47.02" font-family="Helvetica,sans-Serif" font-size="10.00">_container_t &amp;trackStates, bool &amp;,</text>
<text text-anchor="middle" x="1120.5" y="-36.02" font-family="Helvetica,sans-Serif" font-size="10.00"> const Logger &amp;)&gt;</text>
</a>
</g>
</g>
<!-- Node3&#45;&gt;Node12 -->
<g id="edge22_Node000012_Node000003" class="edge">
<title>Node3&#45;&gt;Node12</title>
<g id="a_edge22_Node000012_Node000003"><a xlink:title=" ">
<path fill="none" stroke="orange" stroke-dasharray="5,2" d="M81.13,-325.47C89.82,-280.19 113.99,-184.07 170,-126.52 250.48,-43.83 294.15,-44.61 407,-20.52 624.1,25.82 885.94,-17.58 1023.82,-47.88"/>
<polygon fill="orange" stroke="orange" points="77.68,-324.87 79.33,-335.34 84.57,-326.13 77.68,-324.87"/>
</a>
</g>
<text text-anchor="start" x="438.5" y="-116.02" font-family="Helvetica,sans-Serif" font-size="10.00" fill="grey">&lt; Result&lt; std::pair</text>
<text text-anchor="start" x="438.5" y="-101.02" font-family="Helvetica,sans-Serif" font-size="10.00" fill="grey">  &lt; typename candidate</text>
<text text-anchor="start" x="438.5" y="-86.02" font-family="Helvetica,sans-Serif" font-size="10.00" fill="grey">  _container_t::iterator,</text>
<text text-anchor="start" x="438.5" y="-71.02" font-family="Helvetica,sans-Serif" font-size="10.00" fill="grey">   typename candidate_container</text>
<text text-anchor="start" x="438.5" y="-56.02" font-family="Helvetica,sans-Serif" font-size="10.00" fill="grey">  _t::iterator &gt; &gt;( candidate</text>
<text text-anchor="start" x="438.5" y="-41.02" font-family="Helvetica,sans-Serif" font-size="10.00" fill="grey">  _container_t &amp;trackStates, bool</text>
<text text-anchor="start" x="438.5" y="-26.02" font-family="Helvetica,sans-Serif" font-size="10.00" fill="grey">   &amp;, const Logger &amp;)&gt;</text>
</g>
<!-- Node4 -->
<g id="Node000004" class="node">
<title>Node4</title>
<g id="a_Node000004"><a xlink:href="struct_acts_1_1_kalman_fitter_extensions.html" target="_top" xlink:title=" ">
<polygon fill="white" stroke="#666666" points="1414,-373.52 1235,-373.52 1235,-343.52 1414,-343.52 1414,-373.52"/>
<text text-anchor="start" x="1243" y="-361.52" font-family="Helvetica,sans-Serif" font-size="10.00">Acts::KalmanFitterExtensions</text>
<text text-anchor="middle" x="1324.5" y="-350.52" font-family="Helvetica,sans-Serif" font-size="10.00">&lt; TrackStateContainerBackend &gt;</text>
</a>
</g>
</g>
<!-- Node4&#45;&gt;Node1 -->
<g id="edge3_Node000001_Node000004" class="edge">
<title>Node4&#45;&gt;Node1</title>
<g id="a_edge3_Node000001_Node000004"><a xlink:title=" ">
<path fill="none" stroke="#9a32cd" stroke-dasharray="5,2" d="M1424.28,-358.52C1450.7,-358.52 1478.58,-358.52 1502.65,-358.52"/>
<polygon fill="#9a32cd" stroke="#9a32cd" points="1424.24,-355.02 1414.24,-358.52 1424.24,-362.02 1424.24,-355.02"/>
</a>
</g>
<text text-anchor="start" x="1435.5" y="-364.02" font-family="Helvetica,sans-Serif" font-size="10.00" fill="grey">calibrator</text>
</g>
<!-- Node5&#45;&gt;Node4 -->
<g id="edge4_Node000004_Node000005" class="edge">
<title>Node5&#45;&gt;Node4</title>
<g id="a_edge4_Node000004_Node000005"><a xlink:title=" ">
<path fill="none" stroke="#9a32cd" stroke-dasharray="5,2" d="M640.31,-237.55C697.4,-238.33 766.39,-241.09 828,-248.52 1003.42,-269.69 1045.06,-289.82 1217,-330.52 1233.74,-334.48 1251.88,-339.12 1268.35,-343.47"/>
<polygon fill="#9a32cd" stroke="#9a32cd" points="640.2,-234.04 630.16,-237.42 640.11,-241.04 640.2,-234.04"/>
</a>
</g>
<text text-anchor="start" x="903" y="-283.02" font-family="Helvetica,sans-Serif" font-size="10.00" fill="grey">calibrator</text>
</g>
<!-- Node10 -->
<g id="Node000010" class="node">
<title>Node10</title>
<g id="a_Node000010"><a xlink:href="struct_acts_1_1_kalman_fitter_extensions.html" target="_top" xlink:title="Extension struct which holds delegates to customise the KF behavior.">
<polygon fill="white" stroke="#666666" points="1006,-343.52 846,-343.52 846,-313.52 1006,-313.52 1006,-343.52"/>
<text text-anchor="start" x="854" y="-331.52" font-family="Helvetica,sans-Serif" font-size="10.00">Acts::KalmanFitterExtensions</text>
<text text-anchor="middle" x="926" y="-320.52" font-family="Helvetica,sans-Serif" font-size="10.00">&lt; traj_t &gt;</text>
</a>
</g>
</g>
<!-- Node5&#45;&gt;Node10 -->
<g id="edge15_Node000010_Node000005" class="edge">
<title>Node5&#45;&gt;Node10</title>
<g id="a_edge15_Node000010_Node000005"><a xlink:title=" ">
<path fill="none" stroke="#9a32cd" stroke-dasharray="5,2" d="M640.49,-245.87C698.21,-251.67 767.67,-262.03 828,-280.52 853.69,-288.4 880.95,-302.45 900,-313.32"/>
<polygon fill="#9a32cd" stroke="#9a32cd" points="640.52,-242.36 630.23,-244.87 639.84,-249.32 640.52,-242.36"/>
</a>
</g>
<text text-anchor="start" x="715" y="-286.02" font-family="Helvetica,sans-Serif" font-size="10.00" fill="grey">calibrator</text>
</g>
<!-- Node6&#45;&gt;Node4 -->
<g id="edge6_Node000004_Node000006" class="edge">
<title>Node6&#45;&gt;Node4</title>
<g id="a_edge6_Node000004_Node000006"><a xlink:title=" ">
<path fill="none" stroke="#9a32cd" stroke-dasharray="5,2" d="M619.07,-378.95C754.45,-377.84 1004.13,-374.65 1217,-365.52 1222.83,-365.27 1228.84,-364.98 1234.89,-364.65"/>
<polygon fill="#9a32cd" stroke="#9a32cd" points="618.7,-375.45 608.73,-379.03 618.75,-382.45 618.7,-375.45"/>
</a>
</g>
<text text-anchor="start" x="907" y="-381.02" font-family="Helvetica,sans-Serif" font-size="10.00" fill="grey">updater</text>
</g>
<!-- Node6&#45;&gt;Node10 -->
<g id="edge16_Node000010_Node000006" class="edge">
<title>Node6&#45;&gt;Node10</title>
<g id="a_edge16_Node000010_Node000006"><a xlink:title=" ">
<path fill="none" stroke="#9a32cd" stroke-dasharray="5,2" d="M618.53,-353.91C628.44,-351.87 638.39,-350.02 648,-348.52 714.22,-338.21 790.2,-333.2 845.81,-330.78"/>
<polygon fill="#9a32cd" stroke="#9a32cd" points="617.69,-350.51 608.64,-356.02 619.15,-357.36 617.69,-350.51"/>
</a>
</g>
<text text-anchor="start" x="719" y="-354.02" font-family="Helvetica,sans-Serif" font-size="10.00" fill="grey">updater</text>
</g>
<!-- Node7&#45;&gt;Node4 -->
<g id="edge8_Node000004_Node000007" class="edge">
<title>Node7&#45;&gt;Node4</title>
<g id="a_edge8_Node000004_Node000007"><a xlink:title=" ">
<path fill="none" stroke="#9a32cd" stroke-dasharray="5,2" d="M838.46,-151.61C940.27,-147.17 1099.76,-153.52 1217,-220.52 1267.97,-249.65 1302.85,-313.88 1316.76,-343.29"/>
<polygon fill="#9a32cd" stroke="#9a32cd" points="838,-148.13 828.18,-152.11 838.34,-155.12 838,-148.13"/>
</a>
</g>
<text text-anchor="start" x="903" y="-163.02" font-family="Helvetica,sans-Serif" font-size="10.00" fill="grey">smoother</text>
</g>
<!-- Node8&#45;&gt;Node4 -->
<g id="edge10_Node000004_Node000008" class="edge">
<title>Node8&#45;&gt;Node4</title>
<g id="a_edge10_Node000004_Node000008"><a xlink:title=" ">
<path fill="none" stroke="#9a32cd" stroke-dasharray="5,2" d="M598.37,-521.35C660.94,-522.42 750.47,-521.35 828,-510.52 1004.79,-485.83 1049.49,-472.22 1217,-410.52 1245,-400.21 1275.44,-384.9 1296.59,-373.56"/>
<polygon fill="#9a32cd" stroke="#9a32cd" points="598.24,-517.85 588.18,-521.15 598.11,-524.85 598.24,-517.85"/>
</a>
</g>
<text text-anchor="start" x="875" y="-527.52" font-family="Helvetica,sans-Serif" font-size="10.00" fill="grey">outlierFinder</text>
<text text-anchor="start" x="875" y="-512.52" font-family="Helvetica,sans-Serif" font-size="10.00" fill="grey">reverseFilteringLogic</text>
</g>
<!-- Node8&#45;&gt;Node10 -->
<g id="edge19_Node000010_Node000008" class="edge">
<title>Node8&#45;&gt;Node10</title>
<g id="a_edge19_Node000010_Node000008"><a xlink:title=" ">
<path fill="none" stroke="#9a32cd" stroke-dasharray="5,2" d="M575.43,-500.42C597.91,-493.33 624.11,-485.29 648,-478.52 727.45,-456.02 770.04,-491.33 828,-432.52 852.06,-408.11 823.21,-383.13 846,-357.52 851.05,-351.85 857.31,-347.28 864.08,-343.61"/>
<polygon fill="#9a32cd" stroke="#9a32cd" points="574.2,-497.14 565.72,-503.5 576.31,-503.82 574.2,-497.14"/>
</a>
</g>
<text text-anchor="start" x="687" y="-499.52" font-family="Helvetica,sans-Serif" font-size="10.00" fill="grey">outlierFinder</text>
<text text-anchor="start" x="687" y="-484.52" font-family="Helvetica,sans-Serif" font-size="10.00" fill="grey">reverseFilteringLogic</text>
</g>
<!-- Node9&#45;&gt;Node4 -->
<g id="edge12_Node000004_Node000009" class="edge">
<title>Node9&#45;&gt;Node4</title>
<g id="a_edge12_Node000004_Node000009"><a xlink:title=" ">
<path fill="none" stroke="#9a32cd" stroke-dasharray="5,2" d="M615.06,-442.09C676.06,-440.07 756.77,-436.52 828,-430.52 1001.58,-415.9 1045.38,-412.37 1217,-382.52 1231.47,-380 1246.94,-376.81 1261.48,-373.58"/>
<polygon fill="#9a32cd" stroke="#9a32cd" points="614.94,-438.59 605.06,-442.42 615.17,-445.59 614.94,-438.59"/>
</a>
</g>
<text text-anchor="start" x="886" y="-434.02" font-family="Helvetica,sans-Serif" font-size="10.00" fill="grey">surfaceAccessor</text>
</g>
<!-- Node9&#45;&gt;Node10 -->
<g id="edge20_Node000010_Node000009" class="edge">
<title>Node9&#45;&gt;Node10</title>
<g id="a_edge20_Node000010_Node000009"><a xlink:title=" ">
<path fill="none" stroke="#9a32cd" stroke-dasharray="5,2" d="M591.54,-427.09C682.27,-405.12 826.62,-370.13 828,-369.52 836.81,-365.66 837.43,-361.88 846,-357.52 856.16,-352.36 867.46,-347.65 878.27,-343.6"/>
<polygon fill="#9a32cd" stroke="#9a32cd" points="590.47,-423.75 581.57,-429.5 592.11,-430.55 590.47,-423.75"/>
</a>
</g>
<text text-anchor="start" x="698" y="-417.02" font-family="Helvetica,sans-Serif" font-size="10.00" fill="grey">surfaceAccessor</text>
</g>
<!-- Node10&#45;&gt;Node4 -->
<g id="edge14_Node000004_Node000010" class="edge">
<title>Node10&#45;&gt;Node4</title>
<g id="a_edge14_Node000004_Node000010"><a xlink:title=" ">
<path fill="none" stroke="orange" stroke-dasharray="5,2" d="M1016.25,-334.1C1073.62,-337.83 1149.74,-343.05 1217,-348.52 1222.83,-349 1228.84,-349.51 1234.89,-350.03"/>
<polygon fill="orange" stroke="orange" points="1016.33,-330.6 1006.12,-333.45 1015.87,-337.59 1016.33,-330.6"/>
</a>
</g>
<text text-anchor="start" x="1039.5" y="-354.02" font-family="Helvetica,sans-Serif" font-size="10.00" fill="grey">&lt; TrackStateContainerBackend &gt;</text>
</g>
<!-- Node11&#45;&gt;Node10 -->
<g id="edge17_Node000010_Node000011" class="edge">
<title>Node11&#45;&gt;Node10</title>
<g id="a_edge17_Node000010_Node000011"><a xlink:title=" ">
<path fill="none" stroke="#9a32cd" stroke-dasharray="5,2" d="M618.83,-303.42C679.43,-301.57 758.37,-301.42 828,-308.52 838.86,-309.63 850.3,-311.42 861.37,-313.48"/>
<polygon fill="#9a32cd" stroke="#9a32cd" points="618.39,-299.93 608.51,-303.75 618.62,-306.92 618.39,-299.93"/>
</a>
</g>
<text text-anchor="start" x="715" y="-314.02" font-family="Helvetica,sans-Serif" font-size="10.00" fill="grey">smoother</text>
</g>
<!-- Node12&#45;&gt;Node1 -->
<g id="edge21_Node000001_Node000012" class="edge">
<title>Node12&#45;&gt;Node1</title>
<g id="a_edge21_Node000001_Node000012"><a xlink:title=" ">
<path fill="none" stroke="#9a32cd" stroke-dasharray="5,2" d="M1196.25,-119.62C1295.08,-183.22 1464.95,-292.53 1535.42,-337.88"/>
<polygon fill="#9a32cd" stroke="#9a32cd" points="1198.09,-116.65 1187.79,-114.18 1194.3,-122.53 1198.09,-116.65"/>
</a>
</g>
<text text-anchor="start" x="1270.5" y="-262.02" font-family="Helvetica,sans-Serif" font-size="10.00" fill="grey">measurementSelector</text>
</g>
</g>
</svg>
