<?xml version="1.0" encoding="UTF-8" standalone="no"?>
<!DOCTYPE svg PUBLIC "-//W3C//DTD SVG 1.1//EN"
 "http://www.w3.org/Graphics/SVG/1.1/DTD/svg11.dtd">
<!-- Generated by graphviz version 2.43.0 (0)
 -->
<!-- Title: Acts::Navigator::State Pages: 1 -->
<!--zoomable 662 -->

<svg id="main" version="1.1" xmlns="http://www.w3.org/2000/svg" xmlns:xlink="http://www.w3.org/1999/xlink" xml:space="preserve" onload="init(evt)">

<style type="text/css"><![CDATA[
.node, .edge {opacity: 0.7;}
.node.selected, .edge.selected {opacity: 1;}
.edge:hover path { stroke: red; }
.edge:hover polygon { stroke: red; fill: red; }
]]></style>

<defs>
  <circle id="rim" cx="0" cy="0" r="7"/>
  <circle id="rim2" cx="0" cy="0" r="3.5"/>
  <g id="zoomPlus">
    <use xlink:href="#rim" fill="#404040"><set attributeName="fill" to="#808080" begin="zoomplus.mouseover" end="zoomplus.mouseout"/></use>
    <path d="M-4,0h8M0,-4v8" fill="none" stroke="white" stroke-width="1.5" pointer-events="none"/>
  </g>
  <g id="zoomMin">
    <use xlink:href="#rim" fill="#404040"><set attributeName="fill" to="#808080" begin="zoomminus.mouseover" end="zoomminus.mouseout"/></use>
    <path d="M-4,0h8" fill="none" stroke="white" stroke-width="1.5" pointer-events="none"/>
  </g>
  <g id="arrowUp" transform="translate(30 24)">
    <use xlink:href="#rim"/>
    <path pointer-events="none" fill="none" stroke="white" stroke-width="1.5" d="M0,-3.0v7 M-2.5,-0.5L0,-3.0L2.5,-0.5"/>
  </g>
  <g id="arrowRight" transform="rotate(90) translate(36 -43)">
    <use xlink:href="#rim"/>
    <path pointer-events="none" fill="none" stroke="white" stroke-width="1.5" d="M0,-3.0v7 M-2.5,-0.5L0,-3.0L2.5,-0.5"/>
  </g>
  <g id="arrowDown" transform="rotate(180) translate(-30 -48)">
    <use xlink:href="#rim"/>
    <path pointer-events="none" fill="none" stroke="white" stroke-width="1.5" d="M0,-3.0v7 M-2.5,-0.5L0,-3.0L2.5,-0.5"/>
  </g>
  <g id="arrowLeft" transform="rotate(270) translate(-36 17)">
    <use xlink:href="#rim"/>
    <path pointer-events="none" fill="none" stroke="white" stroke-width="1.5" d="M0,-3.0v7 M-2.5,-0.5L0,-3.0L2.5,-0.5"/>
  </g>
  <g id="resetDef">
    <use xlink:href="#rim2" fill="#404040"><set attributeName="fill" to="#808080" begin="reset.mouseover" end="reset.mouseout"/></use>
  </g>
</defs>
<script type="application/ecmascript">
var viewWidth = 2474;
var viewHeight = 662;
var sectionId = 'dynsection-0';
</script>
<script type="application/ecmascript" xlink:href="svg.min.js"/>
<svg id="graph" class="graph">
<g id="viewport">
<title>Acts::Navigator::State</title>
<!-- Node1 -->
<g id="Node000001" class="node">
<title>Node1</title>
<g id="a_Node000001"><a xlink:title="Nested State struct.">
<polygon fill="#999999" stroke="#666666" points="2466,-254.5 2343,-254.5 2343,-235.5 2466,-235.5 2466,-254.5"/>
<text text-anchor="middle" x="2404.5" y="-242.5" font-family="Helvetica,sans-Serif" font-size="10.00">Acts::Navigator::State</text>
</a>
</g>
</g>
<!-- Node2 -->
<g id="Node000002" class="node">
<title>Node2</title>
<g id="a_Node000002"><a xlink:href="struct_acts_1_1_navigator_1_1_options.html" target="_top" xlink:title="The navigator options.">
<polygon fill="white" stroke="#666666" points="2255,-208.5 2120,-208.5 2120,-189.5 2255,-189.5 2255,-208.5"/>
<text text-anchor="middle" x="2187.5" y="-196.5" font-family="Helvetica,sans-Serif" font-size="10.00">Acts::Navigator::Options</text>
</a>
</g>
</g>
<!-- Node2&#45;&gt;Node1 -->
<g id="edge1_Node000001_Node000002" class="edge">
<title>Node2&#45;&gt;Node1</title>
<g id="a_edge1_Node000001_Node000002"><a xlink:title=" ">
<path fill="none" stroke="#9a32cd" stroke-dasharray="5,2" d="M2265.23,-203.81C2284.89,-206.03 2305.88,-209.27 2325,-214 2345.62,-219.11 2368.07,-228.37 2383.66,-235.45"/>
<polygon fill="#9a32cd" stroke="#9a32cd" points="2265.39,-200.31 2255.08,-202.74 2264.66,-207.27 2265.39,-200.31"/>
</a>
</g>
<text text-anchor="start" x="2281.5" y="-219.5" font-family="Helvetica,sans-Serif" font-size="10.00" fill="grey">options</text>
</g>
<!-- Node3 -->
<g id="Node000003" class="node">
<title>Node3</title>
<g id="a_Node000003"><a xlink:href="struct_acts_1_1_navigator_plain_options.html" target="_top" xlink:title=" ">
<polygon fill="white" stroke="#666666" points="1947,-213.5 1794,-213.5 1794,-194.5 1947,-194.5 1947,-213.5"/>
<text text-anchor="middle" x="1870.5" y="-201.5" font-family="Helvetica,sans-Serif" font-size="10.00">Acts::NavigatorPlainOptions</text>
</a>
</g>
</g>
<!-- Node3&#45;&gt;Node2 -->
<g id="edge2_Node000002_Node000003" class="edge">
<title>Node3&#45;&gt;Node2</title>
<g id="a_edge2_Node000002_Node000003"><a xlink:title=" ">
<path fill="none" stroke="#63b8ff" d="M1957.4,-202.64C2008.57,-201.82 2072.53,-200.81 2119.86,-200.06"/>
<polygon fill="#63b8ff" stroke="#63b8ff" points="1957.29,-199.14 1947.35,-202.8 1957.41,-206.14 1957.29,-199.14"/>
</a>
</g>
</g>
<!-- Node4 -->
<g id="Node000004" class="node">
<title>Node4</title>
<g id="a_Node000004"><a xlink:href="class_acts_1_1_surface.html" target="_top" xlink:title="Abstract Base Class for tracking surfaces.">
<polygon fill="white" stroke="#666666" points="1539,-278.5 1459,-278.5 1459,-259.5 1539,-259.5 1539,-278.5"/>
<text text-anchor="middle" x="1499" y="-266.5" font-family="Helvetica,sans-Serif" font-size="10.00">Acts::Surface</text>
</a>
</g>
</g>
<!-- Node4&#45;&gt;Node1 -->
<g id="edge39_Node000001_Node000004" class="edge">
<title>Node4&#45;&gt;Node1</title>
<g id="a_edge39_Node000001_Node000004"><a xlink:title=" ">
<path fill="none" stroke="#9a32cd" stroke-dasharray="5,2" d="M1545.93,-280.89C1560.84,-284.21 1577.52,-287.35 1593,-289 1667.25,-296.89 1686.35,-290.65 1761,-289 1981.2,-284.14 2036.44,-282.5 2256,-265 2286.73,-262.55 2294.45,-262.08 2325,-258 2332.67,-256.98 2340.74,-255.78 2348.67,-254.53"/>
<polygon fill="#9a32cd" stroke="#9a32cd" points="1546.46,-277.42 1535.93,-278.59 1544.88,-284.24 1546.46,-277.42"/>
</a>
</g>
<text text-anchor="start" x="2004.5" y="-317.5" font-family="Helvetica,sans-Serif" font-size="10.00" fill="grey">currentSurface</text>
<text text-anchor="start" x="2004.5" y="-302.5" font-family="Helvetica,sans-Serif" font-size="10.00" fill="grey">startSurface</text>
<text text-anchor="start" x="2004.5" y="-287.5" font-family="Helvetica,sans-Serif" font-size="10.00" fill="grey">targetSurface</text>
</g>
<!-- Node4&#45;&gt;Node3 -->
<g id="edge3_Node000003_Node000004" class="edge">
<title>Node4&#45;&gt;Node3</title>
<g id="a_edge3_Node000003_Node000004"><a xlink:title=" ">
<path fill="none" stroke="#9a32cd" stroke-dasharray="5,2" d="M1549.35,-262.56C1622.12,-253.03 1750.77,-236.09 1761,-234 1787.81,-228.52 1817.74,-220.06 1839.37,-213.52"/>
<polygon fill="#9a32cd" stroke="#9a32cd" points="1548.5,-259.14 1539.04,-263.91 1549.41,-266.08 1548.5,-259.14"/>
</a>
</g>
<text text-anchor="start" x="1644" y="-277" font-family="Helvetica,sans-Serif" font-size="10.00" fill="grey">startSurface</text>
<text text-anchor="start" x="1644" y="-262" font-family="Helvetica,sans-Serif" font-size="10.00" fill="grey">targetSurface</text>
</g>
<!-- Node5 -->
<g id="Node000005" class="node">
<title>Node5</title>
<g id="a_Node000005"><a xlink:href="class_acts_1_1_geometry_object.html" target="_top" xlink:title="Base class to provide GeometryIdentifier interface:">
<polygon fill="white" stroke="#666666" points="374,-321.5 250,-321.5 250,-302.5 374,-302.5 374,-321.5"/>
<text text-anchor="middle" x="312" y="-309.5" font-family="Helvetica,sans-Serif" font-size="10.00">Acts::GeometryObject</text>
</a>
</g>
</g>
<!-- Node5&#45;&gt;Node4 -->
<g id="edge4_Node000004_Node000005" class="edge">
<title>Node5&#45;&gt;Node4</title>
<g id="a_edge4_Node000004_Node000005"><a xlink:title=" ">
<path fill="none" stroke="#63b8ff" d="M331.59,-296.01C359.47,-273.72 414.67,-236 469,-236 469,-236 469,-236 1179.5,-236 1280.68,-236 1398.97,-252.68 1458.91,-262.32"/>
<polygon fill="#63b8ff" stroke="#63b8ff" points="329.34,-293.32 323.84,-302.37 333.79,-298.73 329.34,-293.32"/>
</a>
</g>
</g>
<!-- Node13 -->
<g id="Node000013" class="node">
<title>Node13</title>
<g id="a_Node000013"><a xlink:href="class_acts_1_1_layer.html" target="_top" xlink:title="Base Class for a Detector Layer in the Tracking Geometry.">
<polygon fill="white" stroke="#666666" points="1214,-439.5 1143,-439.5 1143,-420.5 1214,-420.5 1214,-439.5"/>
<text text-anchor="middle" x="1178.5" y="-427.5" font-family="Helvetica,sans-Serif" font-size="10.00">Acts::Layer</text>
</a>
</g>
</g>
<!-- Node5&#45;&gt;Node13 -->
<g id="edge13_Node000013_Node000005" class="edge">
<title>Node5&#45;&gt;Node13</title>
<g id="a_edge13_Node000013_Node000005"><a xlink:title=" ">
<path fill="none" stroke="#63b8ff" d="M322.64,-330.9C337.54,-357.88 368.87,-406.64 411,-429 508.31,-480.66 598.24,-476.61 1084,-443 1103.62,-441.64 1125.39,-438.7 1142.98,-435.96"/>
<polygon fill="#63b8ff" stroke="#63b8ff" points="325.55,-328.9 317.75,-321.72 319.37,-332.2 325.55,-328.9"/>
</a>
</g>
</g>
<!-- Node20 -->
<g id="Node000020" class="node">
<title>Node20</title>
<g id="a_Node000020"><a xlink:href="class_acts_1_1_volume.html" target="_top" xlink:title="It inherits from GeometryObject for geometry identification.">
<polygon fill="white" stroke="#666666" points="510,-321.5 430,-321.5 430,-302.5 510,-302.5 510,-321.5"/>
<text text-anchor="middle" x="470" y="-309.5" font-family="Helvetica,sans-Serif" font-size="10.00">Acts::Volume</text>
</a>
</g>
</g>
<!-- Node5&#45;&gt;Node20 -->
<g id="edge23_Node000020_Node000005" class="edge">
<title>Node5&#45;&gt;Node20</title>
<g id="a_edge23_Node000020_Node000005"><a xlink:title=" ">
<path fill="none" stroke="#63b8ff" d="M384.44,-312C400.12,-312 416.16,-312 430,-312"/>
<polygon fill="#63b8ff" stroke="#63b8ff" points="384.21,-308.5 374.21,-312 384.21,-315.5 384.21,-308.5"/>
</a>
</g>
</g>
<!-- Node6 -->
<g id="Node000006" class="node">
<title>Node6</title>
<g id="a_Node000006"><a xlink:href="class_acts_1_1_geometry_identifier.html" target="_top" xlink:title="Identifier for geometry nodes within the geometry hierarchy.">
<polygon fill="white" stroke="#666666" points="136,-321.5 0,-321.5 0,-302.5 136,-302.5 136,-321.5"/>
<text text-anchor="middle" x="68" y="-309.5" font-family="Helvetica,sans-Serif" font-size="10.00">Acts::GeometryIdentifier</text>
</a>
</g>
</g>
<!-- Node6&#45;&gt;Node5 -->
<g id="edge5_Node000005_Node000006" class="edge">
<title>Node6&#45;&gt;Node5</title>
<g id="a_edge5_Node000005_Node000006"><a xlink:title=" ">
<path fill="none" stroke="#9a32cd" stroke-dasharray="5,2" d="M146.31,-312C179.84,-312 218.54,-312 249.99,-312"/>
<polygon fill="#9a32cd" stroke="#9a32cd" points="146.09,-308.5 136.09,-312 146.09,-315.5 146.09,-308.5"/>
</a>
</g>
<text text-anchor="start" x="157" y="-317.5" font-family="Helvetica,sans-Serif" font-size="10.00" fill="grey">m_geometryId</text>
</g>
<!-- Node7 -->
<g id="Node000007" class="node">
<title>Node7</title>
<g id="a_Node000007"><a xlink:title=" ">
<polygon fill="white" stroke="#666666" points="1242.5,-160 1114.5,-160 1114.5,-130 1242.5,-130 1242.5,-160"/>
<text text-anchor="start" x="1122.5" y="-148" font-family="Helvetica,sans-Serif" font-size="10.00">std::enable_shared</text>
<text text-anchor="middle" x="1178.5" y="-137" font-family="Helvetica,sans-Serif" font-size="10.00">_from_this&lt; Surface &gt;</text>
</a>
</g>
</g>
<!-- Node7&#45;&gt;Node4 -->
<g id="edge6_Node000004_Node000007" class="edge">
<title>Node7&#45;&gt;Node4</title>
<g id="a_edge6_Node000004_Node000007"><a xlink:title=" ">
<path fill="none" stroke="#63b8ff" d="M1252.92,-146.28C1298.69,-149.63 1357.68,-158.71 1405,-182 1443.48,-200.94 1477.05,-241.14 1491.05,-259.5"/>
<polygon fill="#63b8ff" stroke="#63b8ff" points="1252.98,-142.78 1242.77,-145.62 1252.52,-149.77 1252.98,-142.78"/>
</a>
</g>
</g>
<!-- Node8 -->
<g id="Node000008" class="node">
<title>Node8</title>
<g id="a_Node000008"><a xlink:title=" ">
<polygon fill="white" stroke="#666666" points="1255,-111.5 1102,-111.5 1102,-70.5 1255,-70.5 1255,-111.5"/>
<text text-anchor="start" x="1110" y="-99.5" font-family="Helvetica,sans-Serif" font-size="10.00">std::array&lt; std::string</text>
<text text-anchor="start" x="1110" y="-88.5" font-family="Helvetica,sans-Serif" font-size="10.00">_view, Surface::SurfaceType</text>
<text text-anchor="middle" x="1178.5" y="-77.5" font-family="Helvetica,sans-Serif" font-size="10.00">::Other+1 &gt;</text>
</a>
</g>
</g>
<!-- Node8&#45;&gt;Node4 -->
<g id="edge7_Node000004_Node000008" class="edge">
<title>Node8&#45;&gt;Node4</title>
<g id="a_edge7_Node000004_Node000008"><a xlink:title=" ">
<path fill="none" stroke="#9a32cd" stroke-dasharray="5,2" d="M1265.06,-85.01C1311.34,-86.29 1366.7,-95.73 1405,-128 1423.7,-143.76 1410.92,-158.74 1423,-180 1441.27,-212.15 1471.74,-243.81 1487.64,-259.26"/>
<polygon fill="#9a32cd" stroke="#9a32cd" points="1265.08,-81.51 1255.03,-84.85 1264.97,-88.51 1265.08,-81.51"/>
</a>
</g>
<text text-anchor="start" x="1287" y="-133.5" font-family="Helvetica,sans-Serif" font-size="10.00" fill="grey">s_surfaceTypeNames</text>
</g>
<!-- Node9 -->
<g id="Node000009" class="node">
<title>Node9</title>
<g id="a_Node000009"><a xlink:title=" ">
<polygon fill="white" stroke="#666666" points="869,-100.5 777,-100.5 777,-81.5 869,-81.5 869,-100.5"/>
<text text-anchor="middle" x="823" y="-88.5" font-family="Helvetica,sans-Serif" font-size="10.00">std::array&lt; T &gt;</text>
</a>
</g>
</g>
<!-- Node9&#45;&gt;Node8 -->
<g id="edge8_Node000008_Node000009" class="edge">
<title>Node9&#45;&gt;Node8</title>
<g id="a_edge8_Node000008_Node000009"><a xlink:title=" ">
<path fill="none" stroke="orange" stroke-dasharray="5,2" d="M879.14,-91C938.95,-91 1034.84,-91 1101.71,-91"/>
<polygon fill="orange" stroke="orange" points="879.13,-87.5 869.13,-91 879.13,-94.5 879.13,-87.5"/>
</a>
</g>
<text text-anchor="start" x="945" y="-126.5" font-family="Helvetica,sans-Serif" font-size="10.00" fill="grey">&lt; std::string_view,</text>
<text text-anchor="start" x="945" y="-111.5" font-family="Helvetica,sans-Serif" font-size="10.00" fill="grey">   Surface::SurfaceType</text>
<text text-anchor="start" x="945" y="-96.5" font-family="Helvetica,sans-Serif" font-size="10.00" fill="grey">  ::Other+1 &gt;</text>
</g>
<!-- Node10 -->
<g id="Node000010" class="node">
<title>Node10</title>
<g id="a_Node000010"><a xlink:title=" ">
<polygon fill="white" stroke="#666666" points="1064.5,-649 937.5,-649 937.5,-619 1064.5,-619 1064.5,-649"/>
<text text-anchor="start" x="945.5" y="-637" font-family="Helvetica,sans-Serif" font-size="10.00">std::unique_ptr&lt; const</text>
<text text-anchor="middle" x="1001" y="-626" font-family="Helvetica,sans-Serif" font-size="10.00"> Transform3 &gt;</text>
</a>
</g>
</g>
<!-- Node10&#45;&gt;Node4 -->
<g id="edge9_Node000004_Node000010" class="edge">
<title>Node10&#45;&gt;Node4</title>
<g id="a_edge9_Node000004_Node000010"><a xlink:title=" ">
<path fill="none" stroke="#9a32cd" stroke-dasharray="5,2" d="M1072.17,-615.69C1076.21,-614.21 1080.18,-612.65 1084,-611 1236.84,-545.04 1286.31,-534.73 1405,-418 1449.79,-373.95 1482.71,-304.31 1493.87,-278.79"/>
<polygon fill="#9a32cd" stroke="#9a32cd" points="1070.96,-612.4 1062.65,-618.98 1073.25,-619.02 1070.96,-612.4"/>
</a>
</g>
<text text-anchor="start" x="1146.5" y="-607.5" font-family="Helvetica,sans-Serif" font-size="10.00" fill="grey">m_transform</text>
</g>
<!-- Node11 -->
<g id="Node000011" class="node">
<title>Node11</title>
<g id="a_Node000011"><a xlink:title=" ">
<polygon fill="white" stroke="#666666" points="529,-581.5 411,-581.5 411,-562.5 529,-562.5 529,-581.5"/>
<text text-anchor="middle" x="470" y="-569.5" font-family="Helvetica,sans-Serif" font-size="10.00">std::unique_ptr&lt; T &gt;</text>
</a>
</g>
</g>
<!-- Node11&#45;&gt;Node10 -->
<g id="edge10_Node000010_Node000011" class="edge">
<title>Node11&#45;&gt;Node10</title>
<g id="a_edge10_Node000010_Node000011"><a xlink:title=" ">
<path fill="none" stroke="orange" stroke-dasharray="5,2" d="M494.49,-586.91C509.02,-595.31 528.4,-605.09 547,-610 682.54,-645.81 848.6,-643.42 937.21,-638.65"/>
<polygon fill="orange" stroke="orange" points="496.08,-583.78 485.7,-581.65 492.48,-589.79 496.08,-583.78"/>
</a>
</g>
<text text-anchor="start" x="584.5" y="-642.5" font-family="Helvetica,sans-Serif" font-size="10.00" fill="grey">&lt; const Transform3 &gt;</text>
</g>
<!-- Node17 -->
<g id="Node000017" class="node">
<title>Node17</title>
<g id="a_Node000017"><a xlink:title=" ">
<polygon fill="white" stroke="#666666" points="886.5,-611 759.5,-611 759.5,-581 886.5,-581 886.5,-611"/>
<text text-anchor="start" x="767.5" y="-599" font-family="Helvetica,sans-Serif" font-size="10.00">std::unique_ptr&lt; const</text>
<text text-anchor="middle" x="823" y="-588" font-family="Helvetica,sans-Serif" font-size="10.00"> Acts::SurfaceArray &gt;</text>
</a>
</g>
</g>
<!-- Node11&#45;&gt;Node17 -->
<g id="edge18_Node000017_Node000011" class="edge">
<title>Node11&#45;&gt;Node17</title>
<g id="a_edge18_Node000017_Node000011"><a xlink:title=" ">
<path fill="none" stroke="orange" stroke-dasharray="5,2" d="M539.71,-576.7C603.48,-581.06 697.61,-587.49 759.36,-591.72"/>
<polygon fill="orange" stroke="orange" points="539.57,-573.18 529.35,-575.99 539.09,-580.16 539.57,-573.18"/>
</a>
</g>
<text text-anchor="start" x="566.5" y="-594.5" font-family="Helvetica,sans-Serif" font-size="10.00" fill="grey">&lt; const Acts::SurfaceArray &gt;</text>
</g>
<!-- Node18 -->
<g id="Node000018" class="node">
<title>Node18</title>
<g id="a_Node000018"><a xlink:title=" ">
<polygon fill="white" stroke="#666666" points="900,-563 746,-563 746,-533 900,-533 900,-563"/>
<text text-anchor="start" x="754" y="-551" font-family="Helvetica,sans-Serif" font-size="10.00">std::unique_ptr&lt; const</text>
<text text-anchor="middle" x="823" y="-540" font-family="Helvetica,sans-Serif" font-size="10.00"> Acts::ApproachDescriptor &gt;</text>
</a>
</g>
</g>
<!-- Node11&#45;&gt;Node18 -->
<g id="edge20_Node000018_Node000011" class="edge">
<title>Node11&#45;&gt;Node18</title>
<g id="a_edge20_Node000018_Node000011"><a xlink:title=" ">
<path fill="none" stroke="orange" stroke-dasharray="5,2" d="M519.8,-560.39C528.8,-558.63 538.15,-557.05 547,-556 613.88,-548.05 690.51,-546.43 745.86,-546.58"/>
<polygon fill="orange" stroke="orange" points="518.92,-556.99 509.83,-562.43 520.33,-563.85 518.92,-556.99"/>
</a>
</g>
<text text-anchor="start" x="550.5" y="-561.5" font-family="Helvetica,sans-Serif" font-size="10.00" fill="grey">&lt; const Acts::ApproachDescriptor &gt;</text>
</g>
<!-- Node21 -->
<g id="Node000021" class="node">
<title>Node21</title>
<g id="a_Node000021"><a xlink:title=" ">
<polygon fill="white" stroke="#666666" points="884,-515 762,-515 762,-485 884,-485 884,-515"/>
<text text-anchor="start" x="770" y="-503" font-family="Helvetica,sans-Serif" font-size="10.00">std::unique_ptr&lt; Acts</text>
<text text-anchor="middle" x="823" y="-492" font-family="Helvetica,sans-Serif" font-size="10.00">::Volume &gt;</text>
</a>
</g>
</g>
<!-- Node11&#45;&gt;Node21 -->
<g id="edge25_Node000021_Node000011" class="edge">
<title>Node11&#45;&gt;Node21</title>
<g id="a_edge25_Node000021_Node000011"><a xlink:title=" ">
<path fill="none" stroke="orange" stroke-dasharray="5,2" d="M490.74,-556.21C505.37,-545.44 526.28,-531.92 547,-525 618.16,-501.24 705.09,-497.19 761.92,-497.63"/>
<polygon fill="orange" stroke="orange" points="488.34,-553.64 482.5,-562.48 492.58,-559.21 488.34,-553.64"/>
</a>
</g>
<text text-anchor="start" x="594.5" y="-530.5" font-family="Helvetica,sans-Serif" font-size="10.00" fill="grey">&lt; Acts::Volume &gt;</text>
</g>
<!-- Node12 -->
<g id="Node000012" class="node">
<title>Node12</title>
<g id="a_Node000012"><a xlink:href="class_acts_1_1_detector_element_base.html" target="_top" xlink:title="This class is the base of all detector elements that are usable by ACTS.">
<polygon fill="white" stroke="#666666" points="1253.5,-336.5 1103.5,-336.5 1103.5,-317.5 1253.5,-317.5 1253.5,-336.5"/>
<text text-anchor="middle" x="1178.5" y="-324.5" font-family="Helvetica,sans-Serif" font-size="10.00">Acts::DetectorElementBase</text>
</a>
</g>
</g>
<!-- Node12&#45;&gt;Node4 -->
<g id="edge11_Node000004_Node000012" class="edge">
<title>Node12&#45;&gt;Node4</title>
<g id="a_edge11_Node000004_Node000012"><a xlink:title=" ">
<path fill="none" stroke="#9a32cd" stroke-dasharray="5,2" d="M1263.65,-318.39C1306.27,-313.28 1358.66,-305.86 1405,-296 1426.71,-291.38 1450.75,-284.35 1468.96,-278.62"/>
<polygon fill="#9a32cd" stroke="#9a32cd" points="1263.12,-314.93 1253.6,-319.57 1263.94,-321.88 1263.12,-314.93"/>
</a>
</g>
<text text-anchor="start" x="1276" y="-321.5" font-family="Helvetica,sans-Serif" font-size="10.00" fill="grey">m_associatedDetElement</text>
</g>
<!-- Node13&#45;&gt;Node1 -->
<g id="edge38_Node000001_Node000013" class="edge">
<title>Node13&#45;&gt;Node1</title>
<g id="a_edge38_Node000001_Node000013"><a xlink:title=" ">
<path fill="none" stroke="#9a32cd" stroke-dasharray="5,2" d="M1224.54,-430C1286.24,-430 1400.51,-430 1498,-430 1498,-430 1498,-430 2188.5,-430 2253.26,-430 2275.43,-420.68 2325,-379 2367.3,-343.43 2392.19,-278.9 2400.43,-254.6"/>
<polygon fill="#9a32cd" stroke="#9a32cd" points="1224.38,-426.5 1214.38,-430 1224.38,-433.5 1224.38,-426.5"/>
</a>
</g>
<text text-anchor="start" x="1839.5" y="-451" font-family="Helvetica,sans-Serif" font-size="10.00" fill="grey">currentLayer</text>
<text text-anchor="start" x="1839.5" y="-436" font-family="Helvetica,sans-Serif" font-size="10.00" fill="grey">startLayer</text>
</g>
<!-- Node13&#45;&gt;Node4 -->
<g id="edge12_Node000004_Node000013" class="edge">
<title>Node13&#45;&gt;Node4</title>
<g id="a_edge12_Node000004_Node000013"><a xlink:title=" ">
<path fill="none" stroke="#9a32cd" stroke-dasharray="5,2" d="M1218.61,-417.1C1264.65,-401.2 1342.72,-371.94 1405,-337 1436.57,-319.29 1469.99,-292.63 1486.86,-278.53"/>
<polygon fill="#9a32cd" stroke="#9a32cd" points="1217.34,-413.84 1209.01,-420.39 1219.61,-420.46 1217.34,-413.84"/>
</a>
</g>
<text text-anchor="start" x="1292" y="-402.5" font-family="Helvetica,sans-Serif" font-size="10.00" fill="grey">m_associatedLayer</text>
</g>
<!-- Node14 -->
<g id="Node000014" class="node">
<title>Node14</title>
<g id="a_Node000014"><a xlink:title=" ">
<polygon fill="white" stroke="#666666" points="885,-429 761,-429 761,-399 885,-399 885,-429"/>
<text text-anchor="start" x="769" y="-417" font-family="Helvetica,sans-Serif" font-size="10.00">std::pair&lt; const Layer</text>
<text text-anchor="middle" x="823" y="-406" font-family="Helvetica,sans-Serif" font-size="10.00"> *, const Layer * &gt;</text>
</a>
</g>
</g>
<!-- Node14&#45;&gt;Node13 -->
<g id="edge14_Node000013_Node000014" class="edge">
<title>Node14&#45;&gt;Node13</title>
<g id="a_edge14_Node000013_Node000014"><a xlink:title=" ">
<path fill="none" stroke="#9a32cd" stroke-dasharray="5,2" d="M895.5,-417.24C970.62,-420.64 1085.64,-425.84 1142.79,-428.43"/>
<polygon fill="#9a32cd" stroke="#9a32cd" points="895.32,-413.72 885.17,-416.77 895,-420.72 895.32,-413.72"/>
</a>
</g>
<text text-anchor="start" x="966" y="-430.5" font-family="Helvetica,sans-Serif" font-size="10.00" fill="grey">m_nextLayers</text>
</g>
<!-- Node15 -->
<g id="Node000015" class="node">
<title>Node15</title>
<g id="a_Node000015"><a xlink:title=" ">
<polygon fill="white" stroke="#666666" points="524.5,-419.5 415.5,-419.5 415.5,-400.5 524.5,-400.5 524.5,-419.5"/>
<text text-anchor="middle" x="470" y="-407.5" font-family="Helvetica,sans-Serif" font-size="10.00">std::pair&lt; T1, T2 &gt;</text>
</a>
</g>
</g>
<!-- Node15&#45;&gt;Node14 -->
<g id="edge15_Node000014_Node000015" class="edge">
<title>Node15&#45;&gt;Node14</title>
<g id="a_edge15_Node000014_Node000015"><a xlink:title=" ">
<path fill="none" stroke="orange" stroke-dasharray="5,2" d="M534.74,-409.75C586.75,-409.67 662.13,-409.82 728,-411 738.61,-411.19 749.89,-411.48 760.82,-411.8"/>
<polygon fill="orange" stroke="orange" points="534.65,-406.25 524.66,-409.77 534.66,-413.25 534.65,-406.25"/>
</a>
</g>
<text text-anchor="start" x="583.5" y="-432" font-family="Helvetica,sans-Serif" font-size="10.00" fill="grey">&lt; const Layer *, const</text>
<text text-anchor="start" x="583.5" y="-417" font-family="Helvetica,sans-Serif" font-size="10.00" fill="grey">   Layer * &gt;</text>
</g>
<!-- Node16 -->
<g id="Node000016" class="node">
<title>Node16</title>
<g id="a_Node000016"><a xlink:href="class_acts_1_1_bin_utility.html" target="_top" xlink:title="The BinUtility class that translated global and local position into a bins of a BinnedArray,...">
<polygon fill="white" stroke="#666666" points="867.5,-380.5 778.5,-380.5 778.5,-361.5 867.5,-361.5 867.5,-380.5"/>
<text text-anchor="middle" x="823" y="-368.5" font-family="Helvetica,sans-Serif" font-size="10.00">Acts::BinUtility</text>
</a>
</g>
</g>
<!-- Node16&#45;&gt;Node13 -->
<g id="edge16_Node000013_Node000016" class="edge">
<title>Node16&#45;&gt;Node13</title>
<g id="a_edge16_Node000013_Node000016"><a xlink:title=" ">
<path fill="none" stroke="#9a32cd" stroke-dasharray="5,2" d="M877.94,-372.63C930.94,-375.11 1013.85,-381.35 1084,-397 1109.03,-402.58 1136.6,-412.85 1155.27,-420.45"/>
<polygon fill="#9a32cd" stroke="#9a32cd" points="877.89,-369.13 867.75,-372.18 877.59,-376.12 877.89,-369.13"/>
</a>
</g>
<text text-anchor="start" x="954" y="-402.5" font-family="Helvetica,sans-Serif" font-size="10.00" fill="grey">m_nextLayerUtility</text>
</g>
<!-- Node17&#45;&gt;Node13 -->
<g id="edge17_Node000013_Node000017" class="edge">
<title>Node17&#45;&gt;Node13</title>
<g id="a_edge17_Node000013_Node000017"><a xlink:title=" ">
<path fill="none" stroke="#9a32cd" stroke-dasharray="5,2" d="M896.97,-592.33C968.48,-588.15 1068.9,-580.53 1084,-570 1099,-559.54 1092.56,-548.66 1102,-533 1123.87,-496.74 1155.13,-457.25 1169.6,-439.54"/>
<polygon fill="#9a32cd" stroke="#9a32cd" points="896.42,-588.85 886.64,-592.92 896.82,-595.84 896.42,-588.85"/>
</a>
</g>
<text text-anchor="start" x="962" y="-595.5" font-family="Helvetica,sans-Serif" font-size="10.00" fill="grey">m_surfaceArray</text>
</g>
<!-- Node18&#45;&gt;Node13 -->
<g id="edge19_Node000013_Node000018" class="edge">
<title>Node18&#45;&gt;Node13</title>
<g id="a_edge19_Node000013_Node000018"><a xlink:title=" ">
<path fill="none" stroke="#9a32cd" stroke-dasharray="5,2" d="M910.49,-550.97C962.9,-549.6 1029.87,-542.09 1084,-517 1123.03,-498.91 1156.6,-458.28 1170.57,-439.65"/>
<polygon fill="#9a32cd" stroke="#9a32cd" points="910.14,-547.47 900.21,-551.16 910.27,-554.47 910.14,-547.47"/>
</a>
</g>
<text text-anchor="start" x="946" y="-555.5" font-family="Helvetica,sans-Serif" font-size="10.00" fill="grey">m_approachDescriptor</text>
</g>
<!-- Node19 -->
<g id="Node000019" class="node">
<title>Node19</title>
<g id="a_Node000019"><a xlink:href="class_acts_1_1_tracking_volume.html" target="_top" xlink:title="Full Volume description used in Tracking, it inherits from Volume to get the geometrical structure.">
<polygon fill="white" stroke="#666666" points="883.5,-321.5 762.5,-321.5 762.5,-302.5 883.5,-302.5 883.5,-321.5"/>
<text text-anchor="middle" x="823" y="-309.5" font-family="Helvetica,sans-Serif" font-size="10.00">Acts::TrackingVolume</text>
</a>
</g>
</g>
<!-- Node19&#45;&gt;Node1 -->
<g id="edge37_Node000001_Node000019" class="edge">
<title>Node19&#45;&gt;Node1</title>
<g id="a_edge37_Node000001_Node000019"><a xlink:title=" ">
<path fill="none" stroke="#9a32cd" stroke-dasharray="5,2" d="M893.94,-301.75C948.42,-296.99 1024.52,-297.57 1084,-326 1094.79,-331.16 1091.28,-340.7 1102,-346 1196.33,-392.64 1232.77,-365 1338,-365 1338,-365 1338,-365 2188.5,-365 2278.7,-365 2366.27,-283.48 2394.27,-254.82"/>
<polygon fill="#9a32cd" stroke="#9a32cd" points="893.31,-298.3 883.69,-302.74 893.98,-305.27 893.31,-298.3"/>
</a>
</g>
<text text-anchor="start" x="1641" y="-386" font-family="Helvetica,sans-Serif" font-size="10.00" fill="grey">currentVolume</text>
<text text-anchor="start" x="1641" y="-371" font-family="Helvetica,sans-Serif" font-size="10.00" fill="grey">startVolume</text>
</g>
<!-- Node19&#45;&gt;Node4 -->
<g id="edge26_Node000004_Node000019" class="edge">
<title>Node19&#45;&gt;Node4</title>
<g id="a_edge26_Node000004_Node000019"><a xlink:title=" ">
<path fill="none" stroke="#9a32cd" stroke-dasharray="5,2" d="M891.99,-301.07C900.72,-299.9 909.56,-298.84 918,-298 1120.91,-277.87 1365.22,-271.44 1458.87,-269.64"/>
<polygon fill="#9a32cd" stroke="#9a32cd" points="891.23,-297.64 881.81,-302.48 892.19,-304.58 891.23,-297.64"/>
</a>
</g>
<text text-anchor="start" x="1106.5" y="-288.5" font-family="Helvetica,sans-Serif" font-size="10.00" fill="grey">m_associatedTrackingVolume</text>
</g>
<!-- Node19&#45;&gt;Node13 -->
<g id="edge21_Node000013_Node000019" class="edge">
<title>Node19&#45;&gt;Node13</title>
<g id="a_edge21_Node000013_Node000019"><a xlink:title=" ">
<path fill="none" stroke="#9a32cd" stroke-dasharray="5,2" d="M893.88,-320.49C965.32,-329.61 1068.01,-344.12 1084,-354 1095.65,-361.2 1092.17,-369.46 1102,-379 1119.59,-396.08 1143.56,-411.17 1159.73,-420.42"/>
<polygon fill="#9a32cd" stroke="#9a32cd" points="893.95,-316.97 883.58,-319.18 893.06,-323.91 893.95,-316.97"/>
</a>
</g>
<text text-anchor="start" x="955" y="-359.5" font-family="Helvetica,sans-Serif" font-size="10.00" fill="grey">m_trackingVolume</text>
</g>
<!-- Node20&#45;&gt;Node19 -->
<g id="edge22_Node000019_Node000020" class="edge">
<title>Node20&#45;&gt;Node19</title>
<g id="a_edge22_Node000019_Node000020"><a xlink:title=" ">
<path fill="none" stroke="#63b8ff" d="M520.4,-312C583.91,-312 694.11,-312 762.26,-312"/>
<polygon fill="#63b8ff" stroke="#63b8ff" points="520.24,-308.5 510.24,-312 520.24,-315.5 520.24,-308.5"/>
</a>
</g>
</g>
<!-- Node21&#45;&gt;Node13 -->
<g id="edge24_Node000013_Node000021" class="edge">
<title>Node21&#45;&gt;Node13</title>
<g id="a_edge24_Node000013_Node000021"><a xlink:title=" ">
<path fill="none" stroke="#9a32cd" stroke-dasharray="5,2" d="M894.36,-497.89C947.28,-494.93 1021.18,-487.86 1084,-471 1111.73,-463.56 1141.81,-449.12 1160.16,-439.51"/>
<polygon fill="#9a32cd" stroke="#9a32cd" points="893.87,-494.41 884.07,-498.43 894.23,-501.4 893.87,-494.41"/>
</a>
</g>
<text text-anchor="start" x="944" y="-501.5" font-family="Helvetica,sans-Serif" font-size="10.00" fill="grey">m_representingVolume</text>
</g>
<!-- Node22 -->
<g id="Node000022" class="node">
<title>Node22</title>
<g id="a_Node000022"><a xlink:title=" ">
<polygon fill="white" stroke="#666666" points="1247.5,-208 1109.5,-208 1109.5,-178 1247.5,-178 1247.5,-208"/>
<text text-anchor="start" x="1117.5" y="-196" font-family="Helvetica,sans-Serif" font-size="10.00">std::shared_ptr&lt; const</text>
<text text-anchor="middle" x="1178.5" y="-185" font-family="Helvetica,sans-Serif" font-size="10.00"> Acts::ISurfaceMaterial &gt;</text>
</a>
</g>
</g>
<!-- Node22&#45;&gt;Node4 -->
<g id="edge27_Node000004_Node000022" class="edge">
<title>Node22&#45;&gt;Node4</title>
<g id="a_edge27_Node000004_Node000022"><a xlink:title=" ">
<path fill="none" stroke="#9a32cd" stroke-dasharray="5,2" d="M1257.8,-186.85C1302.11,-185.89 1357.91,-188.98 1405,-205 1439.14,-216.62 1472.25,-244.6 1488.17,-259.42"/>
<polygon fill="#9a32cd" stroke="#9a32cd" points="1257.56,-183.36 1247.67,-187.14 1257.76,-190.35 1257.56,-183.36"/>
</a>
</g>
<text text-anchor="start" x="1293" y="-210.5" font-family="Helvetica,sans-Serif" font-size="10.00" fill="grey">m_surfaceMaterial</text>
</g>
<!-- Node23 -->
<g id="Node000023" class="node">
<title>Node23</title>
<g id="a_Node000023"><a xlink:title=" ">
<polygon fill="white" stroke="#666666" points="882,-202.5 764,-202.5 764,-183.5 882,-183.5 882,-202.5"/>
<text text-anchor="middle" x="823" y="-190.5" font-family="Helvetica,sans-Serif" font-size="10.00">std::shared_ptr&lt; T &gt;</text>
</a>
</g>
</g>
<!-- Node23&#45;&gt;Node22 -->
<g id="edge28_Node000022_Node000023" class="edge">
<title>Node23&#45;&gt;Node22</title>
<g id="a_edge28_Node000022_Node000023"><a xlink:title=" ">
<path fill="none" stroke="orange" stroke-dasharray="5,2" d="M892.53,-193C955.06,-193 1046.95,-193 1109.35,-193"/>
<polygon fill="orange" stroke="orange" points="892.37,-189.5 882.37,-193 892.37,-196.5 892.37,-189.5"/>
</a>
</g>
<text text-anchor="start" x="921" y="-198.5" font-family="Helvetica,sans-Serif" font-size="10.00" fill="grey">&lt; const Acts::ISurfaceMaterial &gt;</text>
</g>
<!-- Node24 -->
<g id="Node000024" class="node">
<title>Node24</title>
<g id="a_Node000024"><a xlink:title=" ">
<polygon fill="white" stroke="#666666" points="1962,-127.5 1779,-127.5 1779,-108.5 1962,-108.5 1962,-127.5"/>
<text text-anchor="middle" x="1870.5" y="-115.5" font-family="Helvetica,sans-Serif" font-size="10.00">std::vector&lt; GeometryIdentifier &gt;</text>
</a>
</g>
</g>
<!-- Node24&#45;&gt;Node2 -->
<g id="edge29_Node000002_Node000024" class="edge">
<title>Node24&#45;&gt;Node2</title>
<g id="a_edge29_Node000002_Node000024"><a xlink:title=" ">
<path fill="none" stroke="#9a32cd" stroke-dasharray="5,2" d="M1972.46,-109.5C2015.48,-110.75 2064.14,-119.12 2101,-145 2115.64,-155.28 2105.13,-169.7 2119,-181 2123.14,-184.37 2127.84,-187.12 2132.81,-189.35"/>
<polygon fill="#9a32cd" stroke="#9a32cd" points="1972.28,-106 1962.23,-109.33 1972.17,-113 1972.28,-106"/>
</a>
</g>
<text text-anchor="start" x="1999.5" y="-150.5" font-family="Helvetica,sans-Serif" font-size="10.00" fill="grey">externalSurfaces</text>
</g>
<!-- Node25 -->
<g id="Node000025" class="node">
<title>Node25</title>
<g id="a_Node000025"><a xlink:title=" ">
<polygon fill="white" stroke="#666666" points="1547.5,-170.5 1450.5,-170.5 1450.5,-151.5 1547.5,-151.5 1547.5,-170.5"/>
<text text-anchor="middle" x="1499" y="-158.5" font-family="Helvetica,sans-Serif" font-size="10.00">std::vector&lt; T &gt;</text>
</a>
</g>
</g>
<!-- Node25&#45;&gt;Node24 -->
<g id="edge30_Node000024_Node000025" class="edge">
<title>Node25&#45;&gt;Node24</title>
<g id="a_edge30_Node000024_Node000025"><a xlink:title=" ">
<path fill="none" stroke="orange" stroke-dasharray="5,2" d="M1546.77,-149.07C1561.48,-145.69 1577.84,-142.3 1593,-140 1654.65,-130.64 1724.69,-125.12 1778.84,-121.95"/>
<polygon fill="orange" stroke="orange" points="1545.81,-145.7 1536.88,-151.4 1547.41,-152.51 1545.81,-145.7"/>
</a>
</g>
<text text-anchor="start" x="1620" y="-145.5" font-family="Helvetica,sans-Serif" font-size="10.00" fill="grey">&lt; GeometryIdentifier &gt;</text>
</g>
<!-- Node26 -->
<g id="Node000026" class="node">
<title>Node26</title>
<g id="a_Node000026"><a xlink:title=" ">
<polygon fill="white" stroke="#666666" points="1923.5,-176 1817.5,-176 1817.5,-146 1923.5,-146 1923.5,-176"/>
<text text-anchor="start" x="1825.5" y="-164" font-family="Helvetica,sans-Serif" font-size="10.00">std::vector&lt; const</text>
<text text-anchor="middle" x="1870.5" y="-153" font-family="Helvetica,sans-Serif" font-size="10.00"> Acts::Surface * &gt;</text>
</a>
</g>
</g>
<!-- Node25&#45;&gt;Node26 -->
<g id="edge32_Node000026_Node000025" class="edge">
<title>Node25&#45;&gt;Node26</title>
<g id="a_edge32_Node000026_Node000025"><a xlink:title=" ">
<path fill="none" stroke="orange" stroke-dasharray="5,2" d="M1557.69,-161C1628.87,-161 1748.85,-161 1817.37,-161"/>
<polygon fill="orange" stroke="orange" points="1557.55,-157.5 1547.55,-161 1557.55,-164.5 1557.55,-157.5"/>
</a>
</g>
<text text-anchor="start" x="1615" y="-166.5" font-family="Helvetica,sans-Serif" font-size="10.00" fill="grey">&lt; const Acts::Surface * &gt;</text>
</g>
<!-- Node29 -->
<g id="Node000029" class="node">
<title>Node29</title>
<g id="a_Node000029"><a xlink:title=" ">
<polygon fill="white" stroke="#666666" points="2101,-264.5 1980,-264.5 1980,-223.5 2101,-223.5 2101,-264.5"/>
<text text-anchor="start" x="1988" y="-252.5" font-family="Helvetica,sans-Serif" font-size="10.00">std::vector&lt; std::pair</text>
<text text-anchor="start" x="1988" y="-241.5" font-family="Helvetica,sans-Serif" font-size="10.00">&lt; const Acts::Surface</text>
<text text-anchor="middle" x="2040.5" y="-230.5" font-family="Helvetica,sans-Serif" font-size="10.00"> *, bool &gt; &gt;</text>
</a>
</g>
</g>
<!-- Node25&#45;&gt;Node29 -->
<g id="edge36_Node000029_Node000025" class="edge">
<title>Node25&#45;&gt;Node29</title>
<g id="a_edge36_Node000029_Node000025"><a xlink:title=" ">
<path fill="none" stroke="orange" stroke-dasharray="5,2" d="M1555.45,-172.47C1567.78,-174.82 1580.81,-177.13 1593,-179 1630.14,-184.69 1728.58,-179.02 1761,-198 1772.82,-204.92 1767.08,-216.27 1779,-223 1840.75,-257.83 1924.16,-257.97 1979.79,-252.78"/>
<polygon fill="orange" stroke="orange" points="1555.77,-168.97 1545.29,-170.51 1554.44,-175.84 1555.77,-168.97"/>
</a>
</g>
<text text-anchor="start" x="1612" y="-219" font-family="Helvetica,sans-Serif" font-size="10.00" fill="grey">&lt; std::pair&lt; const</text>
<text text-anchor="start" x="1612" y="-204" font-family="Helvetica,sans-Serif" font-size="10.00" fill="grey">   Acts::Surface *, bool &gt; &gt;</text>
</g>
<!-- Node26&#45;&gt;Node2 -->
<g id="edge31_Node000002_Node000026" class="edge">
<title>Node26&#45;&gt;Node2</title>
<g id="a_edge31_Node000002_Node000026"><a xlink:title=" ">
<path fill="none" stroke="#9a32cd" stroke-dasharray="5,2" d="M1933.9,-163.34C1980.22,-165.69 2044.82,-170.28 2101,-179 2117.57,-181.57 2135.69,-185.63 2150.96,-189.41"/>
<polygon fill="#9a32cd" stroke="#9a32cd" points="1933.87,-159.83 1923.71,-162.84 1933.53,-166.82 1933.87,-159.83"/>
</a>
</g>
<text text-anchor="start" x="2009.5" y="-184.5" font-family="Helvetica,sans-Serif" font-size="10.00" fill="grey">freeSurfaces</text>
</g>
<!-- Node27 -->
<g id="Node000027" class="node">
<title>Node27</title>
<g id="a_Node000027"><a xlink:href="class_acts_1_1_delegate.html" target="_top" xlink:title=" ">
<polygon fill="white" stroke="#666666" points="1956.5,-74 1784.5,-74 1784.5,0 1956.5,0 1956.5,-74"/>
<text text-anchor="start" x="1792.5" y="-62" font-family="Helvetica,sans-Serif" font-size="10.00">Acts::Delegate&lt; bool</text>
<text text-anchor="start" x="1792.5" y="-51" font-family="Helvetica,sans-Serif" font-size="10.00">(const GeometryContext</text>
<text text-anchor="start" x="1792.5" y="-40" font-family="Helvetica,sans-Serif" font-size="10.00"> &amp;gctx, const TrackingVolume</text>
<text text-anchor="start" x="1792.5" y="-29" font-family="Helvetica,sans-Serif" font-size="10.00"> &amp;currentVol, const Vector3</text>
<text text-anchor="start" x="1792.5" y="-18" font-family="Helvetica,sans-Serif" font-size="10.00"> &amp;pos, const Vector3 &amp;dir, const</text>
<text text-anchor="middle" x="1870.5" y="-7" font-family="Helvetica,sans-Serif" font-size="10.00"> Surface &amp;candidate)&gt;</text>
</a>
</g>
</g>
<!-- Node27&#45;&gt;Node2 -->
<g id="edge33_Node000002_Node000027" class="edge">
<title>Node27&#45;&gt;Node2</title>
<g id="a_edge33_Node000002_Node000027"><a xlink:title=" ">
<path fill="none" stroke="#9a32cd" stroke-dasharray="5,2" d="M1966.8,-36.01C2013.32,-40.65 2066.54,-54.43 2101,-90 2129.69,-119.61 2090.81,-150.91 2119,-181 2122.15,-184.36 2125.85,-187.13 2129.87,-189.39"/>
<polygon fill="#9a32cd" stroke="#9a32cd" points="1966.94,-32.51 1956.68,-35.13 1966.34,-39.48 1966.94,-32.51"/>
</a>
</g>
<text text-anchor="start" x="1992.5" y="-95.5" font-family="Helvetica,sans-Serif" font-size="10.00" fill="grey">freeSurfaceSelector</text>
</g>
<!-- Node28 -->
<g id="Node000028" class="node">
<title>Node28</title>
<g id="a_Node000028"><a xlink:href="class_acts_1_1_delegate.html" target="_top" xlink:title=" ">
<polygon fill="white" stroke="#666666" points="1575,-36 1423,-36 1423,-6 1575,-6 1575,-36"/>
<text text-anchor="start" x="1431" y="-24" font-family="Helvetica,sans-Serif" font-size="10.00">Acts::Delegate&lt; typename,</text>
<text text-anchor="middle" x="1499" y="-13" font-family="Helvetica,sans-Serif" font-size="10.00"> H, DelegateType &gt;</text>
</a>
</g>
</g>
<!-- Node28&#45;&gt;Node27 -->
<g id="edge34_Node000027_Node000028" class="edge">
<title>Node28&#45;&gt;Node27</title>
<g id="a_edge34_Node000027_Node000028"><a xlink:title=" ">
<path fill="none" stroke="orange" stroke-dasharray="5,2" d="M1585.2,-18.46C1636.25,-17.65 1702.42,-17.86 1761,-22 1768.59,-22.54 1776.45,-23.27 1784.32,-24.13"/>
<polygon fill="orange" stroke="orange" points="1585.13,-14.96 1575.2,-18.64 1585.26,-21.96 1585.13,-14.96"/>
</a>
</g>
<text text-anchor="start" x="1596" y="-87.5" font-family="Helvetica,sans-Serif" font-size="10.00" fill="grey">&lt; bool( const GeometryContext</text>
<text text-anchor="start" x="1596" y="-72.5" font-family="Helvetica,sans-Serif" font-size="10.00" fill="grey">   &amp;gctx, const TrackingVolume</text>
<text text-anchor="start" x="1596" y="-57.5" font-family="Helvetica,sans-Serif" font-size="10.00" fill="grey">   &amp;currentVol, const Vector3</text>
<text text-anchor="start" x="1596" y="-42.5" font-family="Helvetica,sans-Serif" font-size="10.00" fill="grey">   &amp;pos, const Vector3 &amp;dir, const</text>
<text text-anchor="start" x="1596" y="-27.5" font-family="Helvetica,sans-Serif" font-size="10.00" fill="grey">   Surface &amp;candidate)&gt;</text>
</g>
<!-- Node29&#45;&gt;Node1 -->
<g id="edge35_Node000001_Node000029" class="edge">
<title>Node29&#45;&gt;Node1</title>
<g id="a_edge35_Node000001_Node000029"><a xlink:title=" ">
<path fill="none" stroke="#9a32cd" stroke-dasharray="5,2" d="M2111.34,-244.19C2178.45,-244.38 2278.83,-244.66 2342.73,-244.83"/>
<polygon fill="#9a32cd" stroke="#9a32cd" points="2111.29,-240.69 2101.28,-244.17 2111.27,-247.69 2111.29,-240.69"/>
</a>
</g>
<text text-anchor="start" x="2150.5" y="-249.5" font-family="Helvetica,sans-Serif" font-size="10.00" fill="grey">freeCandidates</text>
</g>
<!-- Node30 -->
<g id="Node000030" class="node">
<title>Node30</title>
<g id="a_Node000030"><a xlink:href="struct_acts_1_1_navigator_statistics.html" target="_top" xlink:title="A struct to hold statistics of the navigator.">
<polygon fill="white" stroke="#666666" points="2256,-171.5 2119,-171.5 2119,-152.5 2256,-152.5 2256,-171.5"/>
<text text-anchor="middle" x="2187.5" y="-159.5" font-family="Helvetica,sans-Serif" font-size="10.00">Acts::NavigatorStatistics</text>
</a>
</g>
</g>
<!-- Node30&#45;&gt;Node1 -->
<g id="edge40_Node000001_Node000030" class="edge">
<title>Node30&#45;&gt;Node1</title>
<g id="a_edge40_Node000001_Node000030"><a xlink:title=" ">
<path fill="none" stroke="#9a32cd" stroke-dasharray="5,2" d="M2265.94,-167.63C2285.75,-170.9 2306.64,-176.02 2325,-184 2353.49,-196.39 2380.72,-221.51 2394.38,-235.34"/>
<polygon fill="#9a32cd" stroke="#9a32cd" points="2266.41,-164.16 2256,-166.12 2265.36,-171.08 2266.41,-164.16"/>
</a>
</g>
<text text-anchor="start" x="2277.5" y="-189.5" font-family="Helvetica,sans-Serif" font-size="10.00" fill="grey">statistics</text>
</g>
<!-- Node31 -->
<g id="Node000031" class="node">
<title>Node31</title>
<g id="a_Node000031"><a xlink:href="class_acts_1_1_navigation_stream.html" target="_top" xlink:title="The NavigationStream is a container for the navigation candidates that are currentlu processed in a g...">
<polygon fill="white" stroke="#666666" points="2253.5,-133.5 2121.5,-133.5 2121.5,-114.5 2253.5,-114.5 2253.5,-133.5"/>
<text text-anchor="middle" x="2187.5" y="-121.5" font-family="Helvetica,sans-Serif" font-size="10.00">Acts::NavigationStream</text>
</a>
</g>
</g>
<!-- Node31&#45;&gt;Node1 -->
<g id="edge41_Node000001_Node000031" class="edge">
<title>Node31&#45;&gt;Node1</title>
<g id="a_edge41_Node000001_Node000031"><a xlink:title=" ">
<path fill="none" stroke="#9a32cd" stroke-dasharray="5,2" d="M2263.76,-127.5C2284.67,-130.99 2306.65,-137.19 2325,-148 2361.77,-169.66 2388.44,-215.42 2398.77,-235.37"/>
<polygon fill="#9a32cd" stroke="#9a32cd" points="2264.01,-124 2253.61,-125.99 2262.99,-130.92 2264.01,-124"/>
</a>
</g>
<text text-anchor="start" x="2282.5" y="-153.5" font-family="Helvetica,sans-Serif" font-size="10.00" fill="grey">stream</text>
</g>
</g>
</svg>

<g id="navigator" transform="translate(0 0)" fill="#404254">
  <rect fill="#f2f5e9" fill-opacity="0.5" stroke="#606060" stroke-width=".5" x="0" y="0" width="60" height="60"/>
  <use id="zoomplus" xlink:href="#zoomPlus" x="17" y="9" onmousedown="handleZoom(evt,'in')"/>
  <use id="zoomminus" xlink:href="#zoomMin" x="42" y="9" onmousedown="handleZoom(evt,'out')"/>
  <use id="reset" xlink:href="#resetDef" x="30" y="36" onmousedown="handleReset()"/>
   <use id="arrowup" xlink:href="#arrowUp" x="0" y="0" onmousedown="handlePan(0,-1)"/>
  <use id="arrowright" xlink:href="#arrowRight" x="0" y="0" onmousedown="handlePan(1,0)"/>
  <use id="arrowdown" xlink:href="#arrowDown" x="0" y="0" onmousedown="handlePan(0,1)"/>
  <use id="arrowleft" xlink:href="#arrowLeft" x="0" y="0" onmousedown="handlePan(-1,0)"/>
</g>
<svg viewBox="0 0 15 15" width="100%" height="30px" preserveAspectRatio="xMaxYMin meet">
 <g id="arrow_out" transform="scale(0.3 0.3)">
  <a xlink:href="struct_acts_1_1_navigator_1_1_state__coll__graph_org.svg" target="_base">
   <rect id="button" ry="5" rx="5" y="6" x="6" height="38" width="38"
        fill="#f2f5e9" fill-opacity="0.5" stroke="#606060" stroke-width="1.0"/>
   <path id="arrow"
     d="M 11.500037,31.436501 C 11.940474,20.09759 22.043105,11.32322 32.158766,21.979434 L 37.068811,17.246167 C 37.068811,17.246167 37.088388,32 37.088388,32 L 22.160133,31.978069 C 22.160133,31.978069 26.997745,27.140456 26.997745,27.140456 C 18.528582,18.264221 13.291696,25.230495 11.500037,31.436501 z"
     style="fill:#404040;"/>
  </a>
 </g>
</svg>

<style type='text/css'>
<![CDATA[
[data-mouse-over-selected='false'] { opacity: 0.7; }
[data-mouse-over-selected='true']  { opacity: 1.0; }
]]>
</style>
<script type="application/ecmascript"><![CDATA[
document.addEventListener('DOMContentLoaded', (event) => {
  highlightEdges();
  highlightAdjacentNodes();
});
]]></script>
</svg>
