<?xml version="1.0" encoding="UTF-8" standalone="no"?>
<!DOCTYPE svg PUBLIC "-//W3C//DTD SVG 1.1//EN"
 "http://www.w3.org/Graphics/SVG/1.1/DTD/svg11.dtd">
<!-- Generated by graphviz version 2.43.0 (0)
 -->
<!-- Title: Acts::Experimental::CompositeSpacePointLineFitter::FitOptions&lt; Cont_t, Calibrator_t &gt; Pages: 1 -->
<!--zoomable 199 -->

<svg id="main" version="1.1" xmlns="http://www.w3.org/2000/svg" xmlns:xlink="http://www.w3.org/1999/xlink" xml:space="preserve" onload="init(evt)">

<style type="text/css"><![CDATA[
.node, .edge {opacity: 0.7;}
.node.selected, .edge.selected {opacity: 1;}
.edge:hover path { stroke: red; }
.edge:hover polygon { stroke: red; fill: red; }
]]></style>

<defs>
  <circle id="rim" cx="0" cy="0" r="7"/>
  <circle id="rim2" cx="0" cy="0" r="3.5"/>
  <g id="zoomPlus">
    <use xlink:href="#rim" fill="#404040"><set attributeName="fill" to="#808080" begin="zoomplus.mouseover" end="zoomplus.mouseout"/></use>
    <path d="M-4,0h8M0,-4v8" fill="none" stroke="white" stroke-width="1.5" pointer-events="none"/>
  </g>
  <g id="zoomMin">
    <use xlink:href="#rim" fill="#404040"><set attributeName="fill" to="#808080" begin="zoomminus.mouseover" end="zoomminus.mouseout"/></use>
    <path d="M-4,0h8" fill="none" stroke="white" stroke-width="1.5" pointer-events="none"/>
  </g>
  <g id="arrowUp" transform="translate(30 24)">
    <use xlink:href="#rim"/>
    <path pointer-events="none" fill="none" stroke="white" stroke-width="1.5" d="M0,-3.0v7 M-2.5,-0.5L0,-3.0L2.5,-0.5"/>
  </g>
  <g id="arrowRight" transform="rotate(90) translate(36 -43)">
    <use xlink:href="#rim"/>
    <path pointer-events="none" fill="none" stroke="white" stroke-width="1.5" d="M0,-3.0v7 M-2.5,-0.5L0,-3.0L2.5,-0.5"/>
  </g>
  <g id="arrowDown" transform="rotate(180) translate(-30 -48)">
    <use xlink:href="#rim"/>
    <path pointer-events="none" fill="none" stroke="white" stroke-width="1.5" d="M0,-3.0v7 M-2.5,-0.5L0,-3.0L2.5,-0.5"/>
  </g>
  <g id="arrowLeft" transform="rotate(270) translate(-36 17)">
    <use xlink:href="#rim"/>
    <path pointer-events="none" fill="none" stroke="white" stroke-width="1.5" d="M0,-3.0v7 M-2.5,-0.5L0,-3.0L2.5,-0.5"/>
  </g>
  <g id="resetDef">
    <use xlink:href="#rim2" fill="#404040"><set attributeName="fill" to="#808080" begin="reset.mouseover" end="reset.mouseout"/></use>
  </g>
</defs>
<script type="application/ecmascript">
var viewWidth = 1019;
var viewHeight = 199;
var sectionId = 'dynsection-0';
</script>
<script type="application/ecmascript" xlink:href="svg.min.js"/>
<svg id="graph" class="graph">
<g id="viewport">
<title>Acts::Experimental::CompositeSpacePointLineFitter::FitOptions&lt; Cont_t, Calibrator_t &gt;</title>
<!-- Node1 -->
<g id="Node000001" class="node">
<title>Node1</title>
<g id="a_Node000001"><a xlink:title="Configuration object parsed per each fit.">
<polygon fill="#999999" stroke="#666666" points="1011,-117.5 822,-117.5 822,-76.5 1011,-76.5 1011,-117.5"/>
<text text-anchor="start" x="830" y="-105.5" font-family="Helvetica,sans-Serif" font-size="10.00">Acts::Experimental</text>
<text text-anchor="start" x="830" y="-94.5" font-family="Helvetica,sans-Serif" font-size="10.00">::CompositeSpacePointLineFitter</text>
<text text-anchor="middle" x="916.5" y="-83.5" font-family="Helvetica,sans-Serif" font-size="10.00">::FitOptions&lt; Cont_t, Calibrator_t &gt;</text>
</a>
</g>
</g>
<!-- Node2 -->
<g id="Node000002" class="node">
<title>Node2</title>
<g id="a_Node000002"><a xlink:title=" ">
<polygon fill="white" stroke="#666666" points="656.5,-190.5 608.5,-190.5 608.5,-171.5 656.5,-171.5 656.5,-190.5"/>
<text text-anchor="middle" x="632.5" y="-178.5" font-family="Helvetica,sans-Serif" font-size="10.00">Cont_t</text>
</a>
</g>
</g>
<!-- Node2&#45;&gt;Node1 -->
<g id="edge1_Node000001_Node000002" class="edge">
<title>Node2&#45;&gt;Node1</title>
<g id="a_edge1_Node000001_Node000002"><a xlink:title=" ">
<path fill="none" stroke="#9a32cd" stroke-dasharray="5,2" d="M666.6,-176.65C701.37,-171.57 757.36,-161.9 804,-147 828.45,-139.19 854.7,-127.59 875.58,-117.53"/>
<polygon fill="#9a32cd" stroke="#9a32cd" points="665.94,-173.21 656.53,-178.08 666.92,-180.14 665.94,-173.21"/>
</a>
</g>
<text text-anchor="start" x="724.5" y="-172.5" font-family="Helvetica,sans-Serif" font-size="10.00" fill="grey">measurements</text>
</g>
<!-- Node3 -->
<g id="Node000003" class="node">
<title>Node3</title>
<g id="a_Node000003"><a xlink:href="class_acts_1_1_delegate.html" target="_top" xlink:title=" ">
<polygon fill="white" stroke="#666666" points="701,-153 564,-153 564,-123 701,-123 701,-153"/>
<text text-anchor="start" x="572" y="-141" font-family="Helvetica,sans-Serif" font-size="10.00">Acts::Delegate&lt; bool</text>
<text text-anchor="middle" x="632.5" y="-130" font-family="Helvetica,sans-Serif" font-size="10.00">(const Sp_t &amp;)&gt;&lt; Sp_t &gt;</text>
</a>
</g>
</g>
<!-- Node3&#45;&gt;Node1 -->
<g id="edge2_Node000001_Node000003" class="edge">
<title>Node3&#45;&gt;Node1</title>
<g id="a_edge2_Node000001_Node000003"><a xlink:title=" ">
<path fill="none" stroke="#9a32cd" stroke-dasharray="5,2" d="M711.29,-127.94C740.4,-124.06 773.74,-119.48 804,-115 809.82,-114.14 815.81,-113.23 821.84,-112.3"/>
<polygon fill="#9a32cd" stroke="#9a32cd" points="710.63,-124.5 701.18,-129.28 711.55,-131.43 710.63,-124.5"/>
</a>
</g>
<text text-anchor="start" x="741.5" y="-131.5" font-family="Helvetica,sans-Serif" font-size="10.00" fill="grey">selector</text>
</g>
<!-- Node4 -->
<g id="Node000004" class="node">
<title>Node4</title>
<g id="a_Node000004"><a xlink:href="class_acts_1_1_delegate.html" target="_top" xlink:title=" ">
<polygon fill="white" stroke="#666666" points="423,-153 303,-153 303,-123 423,-123 423,-153"/>
<text text-anchor="start" x="311" y="-141" font-family="Helvetica,sans-Serif" font-size="10.00">Acts::Delegate&lt; bool</text>
<text text-anchor="middle" x="363" y="-130" font-family="Helvetica,sans-Serif" font-size="10.00">(const Sp_t &amp;)&gt;</text>
</a>
</g>
</g>
<!-- Node4&#45;&gt;Node3 -->
<g id="edge3_Node000003_Node000004" class="edge">
<title>Node4&#45;&gt;Node3</title>
<g id="a_edge3_Node000003_Node000004"><a xlink:title=" ">
<path fill="none" stroke="orange" stroke-dasharray="5,2" d="M433.27,-138C473.42,-138 523.75,-138 563.65,-138"/>
<polygon fill="orange" stroke="orange" points="433.04,-134.5 423.04,-138 433.04,-141.5 433.04,-134.5"/>
</a>
</g>
<text text-anchor="start" x="471.5" y="-143.5" font-family="Helvetica,sans-Serif" font-size="10.00" fill="grey">&lt; Sp_t &gt;</text>
</g>
<!-- Node5 -->
<g id="Node000005" class="node">
<title>Node5</title>
<g id="a_Node000005"><a xlink:href="class_acts_1_1_delegate.html" target="_top" xlink:title=" ">
<polygon fill="white" stroke="#666666" points="152,-153 0,-153 0,-123 152,-123 152,-153"/>
<text text-anchor="start" x="8" y="-141" font-family="Helvetica,sans-Serif" font-size="10.00">Acts::Delegate&lt; typename,</text>
<text text-anchor="middle" x="76" y="-130" font-family="Helvetica,sans-Serif" font-size="10.00"> H, DelegateType &gt;</text>
</a>
</g>
</g>
<!-- Node5&#45;&gt;Node4 -->
<g id="edge4_Node000004_Node000005" class="edge">
<title>Node5&#45;&gt;Node4</title>
<g id="a_edge4_Node000004_Node000005"><a xlink:title=" ">
<path fill="none" stroke="orange" stroke-dasharray="5,2" d="M162.35,-138C207.57,-138 261.99,-138 302.59,-138"/>
<polygon fill="orange" stroke="orange" points="162.25,-134.5 152.25,-138 162.25,-141.5 162.25,-134.5"/>
</a>
</g>
<text text-anchor="start" x="173.5" y="-143.5" font-family="Helvetica,sans-Serif" font-size="10.00" fill="grey">&lt; bool(const Sp_t &amp;)&gt;</text>
</g>
<!-- Node6 -->
<g id="Node000006" class="node">
<title>Node6</title>
<g id="a_Node000006"><a xlink:title=" ">
<polygon fill="white" stroke="#666666" points="669.5,-104.5 595.5,-104.5 595.5,-85.5 669.5,-85.5 669.5,-104.5"/>
<text text-anchor="middle" x="632.5" y="-92.5" font-family="Helvetica,sans-Serif" font-size="10.00">Calibrator_t</text>
</a>
</g>
</g>
<!-- Node6&#45;&gt;Node1 -->
<g id="edge5_Node000001_Node000006" class="edge">
<title>Node6&#45;&gt;Node1</title>
<g id="a_edge5_Node000001_Node000006"><a xlink:title=" ">
<path fill="none" stroke="#9a32cd" stroke-dasharray="5,2" d="M679.86,-95.33C718.32,-95.6 774.22,-96 821.92,-96.34"/>
<polygon fill="#9a32cd" stroke="#9a32cd" points="679.53,-91.83 669.5,-95.26 679.48,-98.83 679.53,-91.83"/>
</a>
</g>
<text text-anchor="start" x="738.5" y="-101.5" font-family="Helvetica,sans-Serif" font-size="10.00" fill="grey">calibrator</text>
</g>
<!-- Node7 -->
<g id="Node000007" class="node">
<title>Node7</title>
<g id="a_Node000007"><a xlink:href="class_acts_1_1_calibration_context.html" target="_top" xlink:title="This is the central definition of the Acts payload object regarding detector calibration.">
<polygon fill="white" stroke="#666666" points="700,-67.5 565,-67.5 565,-48.5 700,-48.5 700,-67.5"/>
<text text-anchor="middle" x="632.5" y="-55.5" font-family="Helvetica,sans-Serif" font-size="10.00">Acts::CalibrationContext</text>
</a>
</g>
</g>
<!-- Node7&#45;&gt;Node1 -->
<g id="edge6_Node000001_Node000007" class="edge">
<title>Node7&#45;&gt;Node1</title>
<g id="a_edge6_Node000001_Node000007"><a xlink:title=" ">
<path fill="none" stroke="#9a32cd" stroke-dasharray="5,2" d="M710.3,-63.4C739.7,-65.94 773.49,-69.44 804,-74 809.86,-74.88 815.89,-75.86 821.95,-76.92"/>
<polygon fill="#9a32cd" stroke="#9a32cd" points="710.36,-59.9 700.1,-62.54 709.77,-66.87 710.36,-59.9"/>
</a>
</g>
<text text-anchor="start" x="730.5" y="-79.5" font-family="Helvetica,sans-Serif" font-size="10.00" fill="grey">calibContext</text>
</g>
<!-- Node8 -->
<g id="Node000008" class="node">
<title>Node8</title>
<g id="a_Node000008"><a xlink:title=" ">
<polygon fill="white" stroke="#666666" points="401.5,-67.5 324.5,-67.5 324.5,-48.5 401.5,-48.5 401.5,-67.5"/>
<text text-anchor="middle" x="363" y="-55.5" font-family="Helvetica,sans-Serif" font-size="10.00">ContextType</text>
</a>
</g>
</g>
<!-- Node8&#45;&gt;Node7 -->
<g id="edge7_Node000007_Node000008" class="edge">
<title>Node8&#45;&gt;Node7</title>
<g id="a_edge7_Node000007_Node000008"><a xlink:title=" ">
<path fill="none" stroke="#63b8ff" d="M411.87,-58C454.48,-58 517.25,-58 564.78,-58"/>
<polygon fill="#63b8ff" stroke="#63b8ff" points="411.76,-54.5 401.76,-58 411.76,-61.5 411.76,-54.5"/>
</a>
</g>
</g>
<!-- Node9 -->
<g id="Node000009" class="node">
<title>Node9</title>
<g id="a_Node000009"><a xlink:title=" ">
<polygon fill="white" stroke="#666666" points="687.5,-30 577.5,-30 577.5,0 687.5,0 687.5,-30"/>
<text text-anchor="start" x="585.5" y="-18" font-family="Helvetica,sans-Serif" font-size="10.00">std::array&lt; double,</text>
<text text-anchor="middle" x="632.5" y="-7" font-family="Helvetica,sans-Serif" font-size="10.00"> s_nPars &gt;</text>
</a>
</g>
</g>
<!-- Node9&#45;&gt;Node1 -->
<g id="edge8_Node000001_Node000009" class="edge">
<title>Node9&#45;&gt;Node1</title>
<g id="a_edge8_Node000001_Node000009"><a xlink:title=" ">
<path fill="none" stroke="#9a32cd" stroke-dasharray="5,2" d="M698.03,-21.15C730.37,-25.34 769.81,-32.17 804,-43 830.24,-51.32 858.12,-64.82 879.43,-76.24"/>
<polygon fill="#9a32cd" stroke="#9a32cd" points="698.16,-17.64 687.8,-19.88 697.29,-24.58 698.16,-17.64"/>
</a>
</g>
<text text-anchor="start" x="722.5" y="-48.5" font-family="Helvetica,sans-Serif" font-size="10.00" fill="grey">startParameters</text>
</g>
<!-- Node10 -->
<g id="Node000010" class="node">
<title>Node10</title>
<g id="a_Node000010"><a xlink:title=" ">
<polygon fill="white" stroke="#666666" points="409,-24.5 317,-24.5 317,-5.5 409,-5.5 409,-24.5"/>
<text text-anchor="middle" x="363" y="-12.5" font-family="Helvetica,sans-Serif" font-size="10.00">std::array&lt; T &gt;</text>
</a>
</g>
</g>
<!-- Node10&#45;&gt;Node9 -->
<g id="edge9_Node000009_Node000010" class="edge">
<title>Node10&#45;&gt;Node9</title>
<g id="a_edge9_Node000009_Node000010"><a xlink:title=" ">
<path fill="none" stroke="orange" stroke-dasharray="5,2" d="M419.24,-15C465.6,-15 531.44,-15 577.46,-15"/>
<polygon fill="orange" stroke="orange" points="419.08,-11.5 409.08,-15 419.08,-18.5 419.08,-11.5"/>
</a>
</g>
<text text-anchor="start" x="444.5" y="-20.5" font-family="Helvetica,sans-Serif" font-size="10.00" fill="grey">&lt; double, s_nPars &gt;</text>
</g>
</g>
</svg>

<g id="navigator" transform="translate(0 0)" fill="#404254">
  <rect fill="#f2f5e9" fill-opacity="0.5" stroke="#606060" stroke-width=".5" x="0" y="0" width="60" height="60"/>
  <use id="zoomplus" xlink:href="#zoomPlus" x="17" y="9" onmousedown="handleZoom(evt,'in')"/>
  <use id="zoomminus" xlink:href="#zoomMin" x="42" y="9" onmousedown="handleZoom(evt,'out')"/>
  <use id="reset" xlink:href="#resetDef" x="30" y="36" onmousedown="handleReset()"/>
   <use id="arrowup" xlink:href="#arrowUp" x="0" y="0" onmousedown="handlePan(0,-1)"/>
  <use id="arrowright" xlink:href="#arrowRight" x="0" y="0" onmousedown="handlePan(1,0)"/>
  <use id="arrowdown" xlink:href="#arrowDown" x="0" y="0" onmousedown="handlePan(0,1)"/>
  <use id="arrowleft" xlink:href="#arrowLeft" x="0" y="0" onmousedown="handlePan(-1,0)"/>
</g>
<svg viewBox="0 0 15 15" width="100%" height="30px" preserveAspectRatio="xMaxYMin meet">
 <g id="arrow_out" transform="scale(0.3 0.3)">
  <a xlink:href="struct_acts_1_1_experimental_1_1_composite_space_point_line_fitter_1_1_fit_options__coll__graph_org.svg" target="_base">
   <rect id="button" ry="5" rx="5" y="6" x="6" height="38" width="38"
        fill="#f2f5e9" fill-opacity="0.5" stroke="#606060" stroke-width="1.0"/>
   <path id="arrow"
     d="M 11.500037,31.436501 C 11.940474,20.09759 22.043105,11.32322 32.158766,21.979434 L 37.068811,17.246167 C 37.068811,17.246167 37.088388,32 37.088388,32 L 22.160133,31.978069 C 22.160133,31.978069 26.997745,27.140456 26.997745,27.140456 C 18.528582,18.264221 13.291696,25.230495 11.500037,31.436501 z"
     style="fill:#404040;"/>
  </a>
 </g>
</svg>

<style type='text/css'>
<![CDATA[
[data-mouse-over-selected='false'] { opacity: 0.7; }
[data-mouse-over-selected='true']  { opacity: 1.0; }
]]>
</style>
<script type="application/ecmascript"><![CDATA[
document.addEventListener('DOMContentLoaded', (event) => {
  highlightEdges();
  highlightAdjacentNodes();
});
]]></script>
</svg>
