<?xml version="1.0" encoding="UTF-8" standalone="no"?>
<!DOCTYPE svg PUBLIC "-//W3C//DTD SVG 1.1//EN"
 "http://www.w3.org/Graphics/SVG/1.1/DTD/svg11.dtd">
<!-- Generated by graphviz version 2.43.0 (0)
 -->
<!-- Title: ActsPlugins::Geant4SurfaceProvider&lt; kDim, bSize &gt;::Config Pages: 1 -->
<svg width="262pt" height="219pt"
 viewBox="0.00 0.00 261.50 219.00" xmlns="http://www.w3.org/2000/svg" xmlns:xlink="http://www.w3.org/1999/xlink">
<g id="graph0" class="graph" transform="scale(1 1) rotate(0) translate(4 215)">
<title>ActsPlugins::Geant4SurfaceProvider&lt; kDim, bSize &gt;::Config</title>
<!-- Node1 -->
<g id="Node000001" class="node">
<title>Node1</title>
<g id="a_Node000001"><a xlink:title="Nested configuration struct.">
<polygon fill="#999999" stroke="#666666" points="170,-41 19,-41 19,0 170,0 170,-41"/>
<text text-anchor="start" x="27" y="-29" font-family="Helvetica,sans-Serif" font-size="10.00">ActsPlugins::Geant4Surface</text>
<text text-anchor="start" x="27" y="-18" font-family="Helvetica,sans-Serif" font-size="10.00">Provider&lt; kDim, bSize &gt;</text>
<text text-anchor="middle" x="94.5" y="-7" font-family="Helvetica,sans-Serif" font-size="10.00">::Config</text>
</a>
</g>
</g>
<!-- Node2 -->
<g id="Node000002" class="node">
<title>Node2</title>
<g id="a_Node000002"><a xlink:title=" ">
<polygon fill="white" stroke="#666666" points="189,-124 0,-124 0,-94 189,-94 189,-124"/>
<text text-anchor="start" x="8" y="-112" font-family="Helvetica,sans-Serif" font-size="10.00">std::shared_ptr&lt; ActsPlugins</text>
<text text-anchor="middle" x="94.5" y="-101" font-family="Helvetica,sans-Serif" font-size="10.00">::IGeant4PhysicalVolumeSelector &gt;</text>
</a>
</g>
</g>
<!-- Node2&#45;&gt;Node1 -->
<g id="edge1_Node000001_Node000002" class="edge">
<title>Node2&#45;&gt;Node1</title>
<g id="a_edge1_Node000001_Node000002"><a xlink:title=" ">
<path fill="none" stroke="#9a32cd" stroke-dasharray="5,2" d="M94.5,-83.36C94.5,-70.03 94.5,-53.8 94.5,-41.31"/>
<polygon fill="#9a32cd" stroke="#9a32cd" points="91,-83.72 94.5,-93.72 98,-83.72 91,-83.72"/>
</a>
</g>
<text text-anchor="start" x="98" y="-64.5" font-family="Helvetica,sans-Serif" font-size="10.00" fill="grey">surfacePreselector</text>
</g>
<!-- Node3 -->
<g id="Node000003" class="node">
<title>Node3</title>
<g id="a_Node000003"><a xlink:title=" ">
<polygon fill="white" stroke="#666666" points="153.5,-211 35.5,-211 35.5,-192 153.5,-192 153.5,-211"/>
<text text-anchor="middle" x="94.5" y="-199" font-family="Helvetica,sans-Serif" font-size="10.00">std::shared_ptr&lt; T &gt;</text>
</a>
</g>
</g>
<!-- Node3&#45;&gt;Node2 -->
<g id="edge2_Node000002_Node000003" class="edge">
<title>Node3&#45;&gt;Node2</title>
<g id="a_edge2_Node000002_Node000003"><a xlink:title=" ">
<path fill="none" stroke="orange" stroke-dasharray="5,2" d="M94.5,-181.38C94.5,-164.24 94.5,-139.49 94.5,-124.09"/>
<polygon fill="orange" stroke="orange" points="91,-181.82 94.5,-191.82 98,-181.82 91,-181.82"/>
</a>
</g>
<text text-anchor="start" x="98" y="-163" font-family="Helvetica,sans-Serif" font-size="10.00" fill="grey">&lt; ActsPlugins::IGeant4Physical</text>
<text text-anchor="start" x="98" y="-148" font-family="Helvetica,sans-Serif" font-size="10.00" fill="grey">  VolumeSelector &gt;</text>
</g>
</g>
</svg>
