<?xml version="1.0" encoding="UTF-8" standalone="no"?>
<!DOCTYPE svg PUBLIC "-//W3C//DTD SVG 1.1//EN"
 "http://www.w3.org/Graphics/SVG/1.1/DTD/svg11.dtd">
<!-- Generated by graphviz version 2.43.0 (0)
 -->
<!-- Title: ActsPlugins::Svg::TrackingGeometryConverter::Options Pages: 1 -->
<svg width="804pt" height="92pt"
 viewBox="0.00 0.00 804.00 91.50" xmlns="http://www.w3.org/2000/svg" xmlns:xlink="http://www.w3.org/1999/xlink">
<g id="graph0" class="graph" transform="scale(1 1) rotate(0) translate(4 87.5)">
<title>ActsPlugins::Svg::TrackingGeometryConverter::Options</title>
<!-- Node1 -->
<g id="Node000001" class="node">
<title>Node1</title>
<g id="a_Node000001"><a xlink:title="Nested Options struct for the writing configuration.">
<polygon fill="#999999" stroke="#666666" points="796,-59.5 639,-59.5 639,-29.5 796,-29.5 796,-59.5"/>
<text text-anchor="start" x="647" y="-47.5" font-family="Helvetica,sans-Serif" font-size="10.00">ActsPlugins::Svg::Tracking</text>
<text text-anchor="middle" x="717.5" y="-36.5" font-family="Helvetica,sans-Serif" font-size="10.00">GeometryConverter::Options</text>
</a>
</g>
</g>
<!-- Node2 -->
<g id="Node000002" class="node">
<title>Node2</title>
<g id="a_Node000002"><a xlink:title=" ">
<polygon fill="white" stroke="#666666" points="472,-78 407,-78 407,-59 472,-59 472,-78"/>
<text text-anchor="middle" x="439.5" y="-66" font-family="Helvetica,sans-Serif" font-size="10.00">std::string</text>
</a>
</g>
</g>
<!-- Node2&#45;&gt;Node1 -->
<g id="edge1_Node000001_Node000002" class="edge">
<title>Node2&#45;&gt;Node1</title>
<g id="a_edge1_Node000001_Node000002"><a xlink:title=" ">
<path fill="none" stroke="#9a32cd" stroke-dasharray="5,2" d="M482.16,-64.88C523.53,-61.28 587.96,-55.68 638.8,-51.26"/>
<polygon fill="#9a32cd" stroke="#9a32cd" points="481.82,-61.39 472.16,-65.75 482.43,-68.37 481.82,-61.39"/>
</a>
</g>
<text text-anchor="start" x="572.5" y="-64" font-family="Helvetica,sans-Serif" font-size="10.00" fill="grey">prefix</text>
</g>
<!-- Node3 -->
<g id="Node000003" class="node">
<title>Node3</title>
<g id="a_Node000003"><a xlink:title=" ">
<polygon fill="white" stroke="#666666" points="132.5,-83.5 28.5,-83.5 28.5,-53.5 132.5,-53.5 132.5,-83.5"/>
<text text-anchor="start" x="36.5" y="-71.5" font-family="Helvetica,sans-Serif" font-size="10.00">std::basic_string&lt;</text>
<text text-anchor="middle" x="80.5" y="-60.5" font-family="Helvetica,sans-Serif" font-size="10.00"> Char &gt;</text>
</a>
</g>
</g>
<!-- Node3&#45;&gt;Node2 -->
<g id="edge2_Node000002_Node000003" class="edge">
<title>Node3&#45;&gt;Node2</title>
<g id="a_edge2_Node000002_Node000003"><a xlink:title=" ">
<path fill="none" stroke="#63b8ff" d="M143.1,-68.5C219.62,-68.5 347.31,-68.5 406.53,-68.5"/>
<polygon fill="#63b8ff" stroke="#63b8ff" points="142.65,-65 132.65,-68.5 142.65,-72 142.65,-65"/>
</a>
</g>
</g>
<!-- Node4 -->
<g id="Node000004" class="node">
<title>Node4</title>
<g id="a_Node000004"><a xlink:href="class_acts_1_1_geometry_hierarchy_map.html" target="_top" xlink:title=" ">
<polygon fill="white" stroke="#666666" points="534,-41 345,-41 345,0 534,0 534,-41"/>
<text text-anchor="start" x="353" y="-29" font-family="Helvetica,sans-Serif" font-size="10.00">Acts::GeometryHierarchyMap</text>
<text text-anchor="start" x="353" y="-18" font-family="Helvetica,sans-Serif" font-size="10.00">&lt; ActsPlugins::Svg::LayerConverter</text>
<text text-anchor="middle" x="439.5" y="-7" font-family="Helvetica,sans-Serif" font-size="10.00">::Options &gt;</text>
</a>
</g>
</g>
<!-- Node4&#45;&gt;Node1 -->
<g id="edge3_Node000001_Node000004" class="edge">
<title>Node4&#45;&gt;Node1</title>
<g id="a_edge3_Node000001_Node000004"><a xlink:title=" ">
<path fill="none" stroke="#9a32cd" stroke-dasharray="5,2" d="M544.55,-25.51C569.61,-27.09 596.29,-29.07 621,-31.5 626.83,-32.07 632.85,-32.73 638.9,-33.44"/>
<polygon fill="#9a32cd" stroke="#9a32cd" points="544.48,-22 534.29,-24.89 544.06,-28.99 544.48,-22"/>
</a>
</g>
<text text-anchor="start" x="555.5" y="-37" font-family="Helvetica,sans-Serif" font-size="10.00" fill="grey">layerOptions</text>
</g>
<!-- Node5 -->
<g id="Node000005" class="node">
<title>Node5</title>
<g id="a_Node000005"><a xlink:href="class_acts_1_1_geometry_hierarchy_map.html" target="_top" xlink:title="Store values mapped into the geometry hierarchy.">
<polygon fill="white" stroke="#666666" points="161,-35.5 0,-35.5 0,-5.5 161,-5.5 161,-35.5"/>
<text text-anchor="start" x="8" y="-23.5" font-family="Helvetica,sans-Serif" font-size="10.00">Acts::GeometryHierarchyMap</text>
<text text-anchor="middle" x="80.5" y="-12.5" font-family="Helvetica,sans-Serif" font-size="10.00">&lt; value_t &gt;</text>
</a>
</g>
</g>
<!-- Node5&#45;&gt;Node4 -->
<g id="edge4_Node000004_Node000005" class="edge">
<title>Node5&#45;&gt;Node4</title>
<g id="a_edge4_Node000004_Node000005"><a xlink:title=" ">
<path fill="none" stroke="orange" stroke-dasharray="5,2" d="M171.24,-20.5C224.22,-20.5 291.19,-20.5 344.84,-20.5"/>
<polygon fill="orange" stroke="orange" points="171.17,-17 161.17,-20.5 171.17,-24 171.17,-17"/>
</a>
</g>
<text text-anchor="start" x="182" y="-41.5" font-family="Helvetica,sans-Serif" font-size="10.00" fill="grey">&lt; ActsPlugins::Svg</text>
<text text-anchor="start" x="182" y="-26.5" font-family="Helvetica,sans-Serif" font-size="10.00" fill="grey">  ::LayerConverter::Options &gt;</text>
</g>
</g>
</svg>
