<?xml version="1.0" encoding="UTF-8" standalone="no"?>
<!DOCTYPE svg PUBLIC "-//W3C//DTD SVG 1.1//EN"
 "http://www.w3.org/Graphics/SVG/1.1/DTD/svg11.dtd">
<!-- Generated by graphviz version 2.43.0 (0)
 -->
<!-- Title: ActsPlugins::Geant4DetectorSurfaceFactory::Cache Pages: 1 -->
<svg width="388pt" height="193pt"
 viewBox="0.00 0.00 388.00 193.00" xmlns="http://www.w3.org/2000/svg" xmlns:xlink="http://www.w3.org/1999/xlink">

<svg id="main" version="1.1" xmlns="http://www.w3.org/2000/svg" xmlns:xlink="http://www.w3.org/1999/xlink" xml:space="preserve">

<style type="text/css"><![CDATA[
.node, .edge {opacity: 0.7;}
.node.selected, .edge.selected {opacity: 1;}
.edge:hover path { stroke: red; }
.edge:hover polygon { stroke: red; fill: red; }
]]></style>
<script type="application/ecmascript" xlink:href="svg.min.js"/>
<svg id="graph" class="graph">
<g id="graph0" class="graph" transform="scale(1 1) rotate(0) translate(4 189)">
<title>ActsPlugins::Geant4DetectorSurfaceFactory::Cache</title>
<!-- Node1 -->
<g id="Node000001" class="node">
<title>Node1</title>
<g id="a_Node000001"><a xlink:title="Type alias for passive surface.">
<polygon fill="#999999" stroke="#666666" points="245,-30 89,-30 89,0 245,0 245,-30"/>
<text text-anchor="start" x="97" y="-18" font-family="Helvetica,sans-Serif" font-size="10.00">ActsPlugins::Geant4Detector</text>
<text text-anchor="middle" x="167" y="-7" font-family="Helvetica,sans-Serif" font-size="10.00">SurfaceFactory::Cache</text>
</a>
</g>
</g>
<!-- Node2 -->
<g id="Node000002" class="node">
<title>Node2</title>
<g id="a_Node000002"><a xlink:title=" ">
<polygon fill="white" stroke="#666666" points="160,-113 0,-113 0,-83 160,-83 160,-113"/>
<text text-anchor="start" x="8" y="-101" font-family="Helvetica,sans-Serif" font-size="10.00">std::vector&lt; Geant4Sensitive</text>
<text text-anchor="middle" x="80" y="-90" font-family="Helvetica,sans-Serif" font-size="10.00">Surface &gt;</text>
</a>
</g>
</g>
<!-- Node2&#45;&gt;Node1 -->
<g id="edge1_Node000001_Node000002" class="edge">
<title>Node2&#45;&gt;Node1</title>
<g id="a_edge1_Node000001_Node000002"><a xlink:title=" ">
<path fill="none" stroke="#9a32cd" stroke-dasharray="5,2" d="M98.14,-74.95C105.76,-66.19 114.95,-56.26 124,-48 130.88,-41.73 138.94,-35.47 146.22,-30.18"/>
<polygon fill="#9a32cd" stroke="#9a32cd" points="95.46,-72.7 91.63,-82.58 100.78,-77.24 95.46,-72.7"/>
</a>
</g>
<text text-anchor="start" x="127.5" y="-53.5" font-family="Helvetica,sans-Serif" font-size="10.00" fill="grey">sensitiveSurfaces</text>
</g>
<!-- Node3 -->
<g id="Node000003" class="node">
<title>Node3</title>
<g id="a_Node000003"><a xlink:title=" ">
<polygon fill="white" stroke="#666666" points="214.5,-185 117.5,-185 117.5,-166 214.5,-166 214.5,-185"/>
<text text-anchor="middle" x="166" y="-173" font-family="Helvetica,sans-Serif" font-size="10.00">std::vector&lt; T &gt;</text>
</a>
</g>
</g>
<!-- Node3&#45;&gt;Node2 -->
<g id="edge2_Node000002_Node000003" class="edge">
<title>Node3&#45;&gt;Node2</title>
<g id="a_edge2_Node000002_Node000003"><a xlink:title=" ">
<path fill="none" stroke="orange" stroke-dasharray="5,2" d="M107.98,-165.3C98.74,-161.38 90.2,-155.83 84,-148 76.37,-138.36 76.06,-124.07 77.25,-113.4"/>
<polygon fill="orange" stroke="orange" points="106.8,-168.6 117.4,-168.71 109.18,-162.01 106.8,-168.6"/>
</a>
</g>
<text text-anchor="start" x="87" y="-136.5" font-family="Helvetica,sans-Serif" font-size="10.00" fill="grey">&lt; Geant4SensitiveSurface &gt;</text>
</g>
<!-- Node4 -->
<g id="Node000004" class="node">
<title>Node4</title>
<g id="a_Node000004"><a xlink:title=" ">
<polygon fill="white" stroke="#666666" points="330,-113 178,-113 178,-83 330,-83 330,-113"/>
<text text-anchor="start" x="186" y="-101" font-family="Helvetica,sans-Serif" font-size="10.00">std::vector&lt; Geant4Passive</text>
<text text-anchor="middle" x="254" y="-90" font-family="Helvetica,sans-Serif" font-size="10.00">Surface &gt;</text>
</a>
</g>
</g>
<!-- Node3&#45;&gt;Node4 -->
<g id="edge4_Node000004_Node000003" class="edge">
<title>Node3&#45;&gt;Node4</title>
<g id="a_edge4_Node000004_Node000003"><a xlink:title=" ">
<path fill="none" stroke="orange" stroke-dasharray="5,2" d="M208.65,-161.94C216.37,-158.31 223.89,-153.74 230,-148 240.08,-138.53 246.47,-123.93 250.1,-113.12"/>
<polygon fill="orange" stroke="orange" points="207.09,-158.8 199.23,-165.9 209.8,-165.25 207.09,-158.8"/>
</a>
</g>
<text text-anchor="start" x="245" y="-136.5" font-family="Helvetica,sans-Serif" font-size="10.00" fill="grey">&lt; Geant4PassiveSurface &gt;</text>
</g>
<!-- Node4&#45;&gt;Node1 -->
<g id="edge3_Node000001_Node000004" class="edge">
<title>Node4&#45;&gt;Node1</title>
<g id="a_edge3_Node000001_Node000004"><a xlink:title=" ">
<path fill="none" stroke="#9a32cd" stroke-dasharray="5,2" d="M239.41,-74.27C233.14,-65.49 225.33,-55.71 217,-48 209.74,-41.28 200.89,-35.1 192.67,-30"/>
<polygon fill="#9a32cd" stroke="#9a32cd" points="236.59,-76.35 245.13,-82.62 242.36,-72.39 236.59,-76.35"/>
</a>
</g>
<text text-anchor="start" x="234" y="-53.5" font-family="Helvetica,sans-Serif" font-size="10.00" fill="grey">passiveSurfaces</text>
</g>
</g>
</svg>
</svg>

<style type='text/css'>
<![CDATA[
[data-mouse-over-selected='false'] { opacity: 0.7; }
[data-mouse-over-selected='true']  { opacity: 1.0; }
]]>
</style>
<script type="application/ecmascript"><![CDATA[
document.addEventListener('DOMContentLoaded', (event) => {
  highlightEdges();
  highlightAdjacentNodes();
});
]]></script>
</svg>
