<?xml version="1.0" encoding="UTF-8" standalone="no"?>
<!DOCTYPE svg PUBLIC "-//W3C//DTD SVG 1.1//EN"
 "http://www.w3.org/Graphics/SVG/1.1/DTD/svg11.dtd">
<!-- Generated by graphviz version 2.43.0 (0)
 -->
<!-- Title: Acts::IsReadOnlyTrackContainer&lt; ActsPlugins::MutablePodioTrackContainer &gt; Pages: 1 -->
<svg width="338pt" height="125pt"
 viewBox="0.00 0.00 337.50 125.00" xmlns="http://www.w3.org/2000/svg" xmlns:xlink="http://www.w3.org/1999/xlink">
<g id="graph0" class="graph" transform="scale(1 1) rotate(0) translate(4 121)">
<title>Acts::IsReadOnlyTrackContainer&lt; ActsPlugins::MutablePodioTrackContainer &gt;</title>
<!-- Node1 -->
<g id="Node000001" class="node">
<title>Node1</title>
<g id="a_Node000001"><a xlink:title=" ">
<polygon fill="#999999" stroke="#666666" points="246,-30 5,-30 5,0 246,0 246,-30"/>
<text text-anchor="start" x="13" y="-18" font-family="Helvetica,sans-Serif" font-size="10.00">Acts::IsReadOnlyTrackContainer</text>
<text text-anchor="middle" x="125.5" y="-7" font-family="Helvetica,sans-Serif" font-size="10.00">&lt; ActsPlugins::MutablePodioTrackContainer &gt;</text>
</a>
</g>
</g>
<!-- Node2 -->
<g id="Node000002" class="node">
<title>Node2</title>
<g id="a_Node000002"><a xlink:title=" ">
<polygon fill="white" stroke="#666666" points="89,-117 0,-117 0,-98 89,-98 89,-117"/>
<text text-anchor="middle" x="44.5" y="-105" font-family="Helvetica,sans-Serif" font-size="10.00">std::false_type</text>
</a>
</g>
</g>
<!-- Node2&#45;&gt;Node1 -->
<g id="edge1_Node000001_Node000002" class="edge">
<title>Node2&#45;&gt;Node1</title>
<g id="a_edge1_Node000001_Node000002"><a xlink:title=" ">
<path fill="none" stroke="#63b8ff" d="M59.03,-90.27C74.37,-73.13 98.31,-46.38 112.89,-30.09"/>
<polygon fill="#63b8ff" stroke="#63b8ff" points="56.33,-88.04 52.27,-97.82 61.54,-92.71 56.33,-88.04"/>
</a>
</g>
</g>
<!-- Node3 -->
<g id="Node000003" class="node">
<title>Node3</title>
<g id="a_Node000003"><a xlink:href="struct_acts_1_1_is_read_only_track_container.html" target="_top" xlink:title=" ">
<polygon fill="white" stroke="#666666" points="307.5,-117 107.5,-117 107.5,-98 307.5,-98 307.5,-117"/>
<text text-anchor="middle" x="207.5" y="-105" font-family="Helvetica,sans-Serif" font-size="10.00">Acts::IsReadOnlyTrackContainer&lt; T &gt;</text>
</a>
</g>
</g>
<!-- Node3&#45;&gt;Node1 -->
<g id="edge2_Node000001_Node000003" class="edge">
<title>Node3&#45;&gt;Node1</title>
<g id="a_edge2_Node000001_Node000003"><a xlink:title=" ">
<path fill="none" stroke="orange" stroke-dasharray="5,2" d="M192.79,-90.27C177.26,-73.13 153.02,-46.38 138.27,-30.09"/>
<polygon fill="orange" stroke="orange" points="190.33,-92.76 199.64,-97.82 195.52,-88.06 190.33,-92.76"/>
</a>
</g>
<text text-anchor="start" x="186" y="-69" font-family="Helvetica,sans-Serif" font-size="10.00" fill="grey">&lt; ActsPlugins::MutablePodio</text>
<text text-anchor="start" x="186" y="-54" font-family="Helvetica,sans-Serif" font-size="10.00" fill="grey">  TrackContainer &gt;</text>
</g>
</g>
</svg>
