<?xml version="1.0" encoding="UTF-8" standalone="no"?>
<!DOCTYPE svg PUBLIC "-//W3C//DTD SVG 1.1//EN"
 "http://www.w3.org/Graphics/SVG/1.1/DTD/svg11.dtd">
<!-- Generated by graphviz version 2.43.0 (0)
 -->
<!-- Title: Acts::TrackAtVertex Pages: 1 -->
<svg width="777pt" height="118pt"
 viewBox="0.00 0.00 777.00 117.50" xmlns="http://www.w3.org/2000/svg" xmlns:xlink="http://www.w3.org/1999/xlink">
<g id="graph0" class="graph" transform="scale(1 1) rotate(0) translate(4 113.5)">
<title>Acts::TrackAtVertex</title>
<!-- Node1 -->
<g id="Node000001" class="node">
<title>Node1</title>
<g id="a_Node000001"><a xlink:title="Defines a track at vertex object.">
<polygon fill="#999999" stroke="#666666" points="769,-59 658,-59 658,-40 769,-40 769,-59"/>
<text text-anchor="middle" x="713.5" y="-47" font-family="Helvetica,sans-Serif" font-size="10.00">Acts::TrackAtVertex</text>
</a>
</g>
</g>
<!-- Node2 -->
<g id="Node000002" class="node">
<title>Node2</title>
<g id="a_Node000002"><a xlink:href="class_acts_1_1_generic_bound_track_parameters.html" target="_top" xlink:title=" ">
<polygon fill="white" stroke="#666666" points="542,-107.5 349,-107.5 349,-77.5 542,-77.5 542,-107.5"/>
<text text-anchor="start" x="357" y="-95.5" font-family="Helvetica,sans-Serif" font-size="10.00">Acts::GenericBoundTrackParameters</text>
<text text-anchor="middle" x="445.5" y="-84.5" font-family="Helvetica,sans-Serif" font-size="10.00">&lt; ParticleHypothesis &gt;</text>
</a>
</g>
</g>
<!-- Node2&#45;&gt;Node1 -->
<g id="edge1_Node000001_Node000002" class="edge">
<title>Node2&#45;&gt;Node1</title>
<g id="a_edge1_Node000001_Node000002"><a xlink:title=" ">
<path fill="none" stroke="#9a32cd" stroke-dasharray="5,2" d="M552.42,-82.83C580.98,-79.43 611.79,-75.04 640,-69.5 653.84,-66.79 668.9,-62.8 681.7,-59.1"/>
<polygon fill="#9a32cd" stroke="#9a32cd" points="551.94,-79.36 542.41,-83.99 552.75,-86.32 551.94,-79.36"/>
</a>
</g>
<text text-anchor="start" x="569" y="-87" font-family="Helvetica,sans-Serif" font-size="10.00" fill="grey">fittedParams</text>
</g>
<!-- Node3 -->
<g id="Node000003" class="node">
<title>Node3</title>
<g id="a_Node000003"><a xlink:href="class_acts_1_1_generic_bound_track_parameters.html" target="_top" xlink:title="Track parameters bound to a reference surface for a single track.">
<polygon fill="white" stroke="#666666" points="193,-107.5 0,-107.5 0,-77.5 193,-77.5 193,-107.5"/>
<text text-anchor="start" x="8" y="-95.5" font-family="Helvetica,sans-Serif" font-size="10.00">Acts::GenericBoundTrackParameters</text>
<text text-anchor="middle" x="96.5" y="-84.5" font-family="Helvetica,sans-Serif" font-size="10.00">&lt; particle_hypothesis_t &gt;</text>
</a>
</g>
</g>
<!-- Node3&#45;&gt;Node2 -->
<g id="edge2_Node000002_Node000003" class="edge">
<title>Node3&#45;&gt;Node2</title>
<g id="a_edge2_Node000002_Node000003"><a xlink:title=" ">
<path fill="none" stroke="orange" stroke-dasharray="5,2" d="M203.31,-92.5C249.65,-92.5 303.64,-92.5 348.77,-92.5"/>
<polygon fill="orange" stroke="orange" points="203.24,-89 193.24,-92.5 203.24,-96 203.24,-89"/>
</a>
</g>
<text text-anchor="start" x="214" y="-98" font-family="Helvetica,sans-Serif" font-size="10.00" fill="grey">&lt; ParticleHypothesis &gt;</text>
</g>
<!-- Node4 -->
<g id="Node000004" class="node">
<title>Node4</title>
<g id="a_Node000004"><a xlink:href="struct_acts_1_1_input_track.html" target="_top" xlink:title=" ">
<polygon fill="white" stroke="#666666" points="492.5,-59 398.5,-59 398.5,-40 492.5,-40 492.5,-59"/>
<text text-anchor="middle" x="445.5" y="-47" font-family="Helvetica,sans-Serif" font-size="10.00">Acts::InputTrack</text>
</a>
</g>
</g>
<!-- Node4&#45;&gt;Node1 -->
<g id="edge3_Node000001_Node000004" class="edge">
<title>Node4&#45;&gt;Node1</title>
<g id="a_edge3_Node000001_Node000004"><a xlink:title=" ">
<path fill="none" stroke="#9a32cd" stroke-dasharray="5,2" d="M502.57,-49.5C548.3,-49.5 612.51,-49.5 657.85,-49.5"/>
<polygon fill="#9a32cd" stroke="#9a32cd" points="502.53,-46 492.53,-49.5 502.53,-53 502.53,-46"/>
</a>
</g>
<text text-anchor="start" x="564" y="-55" font-family="Helvetica,sans-Serif" font-size="10.00" fill="grey">originalParams</text>
</g>
<!-- Node5 -->
<g id="Node000005" class="node">
<title>Node5</title>
<g id="a_Node000005"><a xlink:href="struct_acts_1_1_linearized_track.html" target="_top" xlink:title="Class for linear expansion of track parameters in vicinity of vertex.">
<polygon fill="white" stroke="#666666" points="505,-19 386,-19 386,0 505,0 505,-19"/>
<text text-anchor="middle" x="445.5" y="-7" font-family="Helvetica,sans-Serif" font-size="10.00">Acts::LinearizedTrack</text>
</a>
</g>
</g>
<!-- Node5&#45;&gt;Node1 -->
<g id="edge4_Node000001_Node000005" class="edge">
<title>Node5&#45;&gt;Node1</title>
<g id="a_edge4_Node000001_Node000005"><a xlink:title=" ">
<path fill="none" stroke="#9a32cd" stroke-dasharray="5,2" d="M515.54,-13.18C552.67,-15.94 599.1,-20.64 640,-28.5 654.8,-31.34 670.93,-35.87 684.21,-39.99"/>
<polygon fill="#9a32cd" stroke="#9a32cd" points="515.55,-9.68 505.33,-12.46 515.06,-16.66 515.55,-9.68"/>
</a>
</g>
<text text-anchor="start" x="563" y="-34" font-family="Helvetica,sans-Serif" font-size="10.00" fill="grey">linearizedState</text>
</g>
</g>
</svg>
